<?xml version="1.0" encoding="utf-8"?>
<!-- Generator: Adobe Illustrator 16.0.0, SVG Export Plug-In . SVG Version: 6.00 Build 0)  -->
<!DOCTYPE svg PUBLIC "-//W3C//DTD SVG 1.1//EN" "http://www.w3.org/Graphics/SVG/1.1/DTD/svg11.dtd">
<svg version="1.1" id="Layer_1" xmlns="http://www.w3.org/2000/svg" xmlns:xlink="http://www.w3.org/1999/xlink" x="0px" y="0px"
	 width="48px" height="48px" viewBox="0 0 48 48" enable-background="new 0 0 48 48" xml:space="preserve">
<g>
	<g>
		<path d="M45.559,12.609v32.793H2.441V12.609H45.559 M45.559,10.609H2.441c-1.1,0-2,0.9-2,2v32.793c0,1.1,0.9,2,2,2h43.118
			c1.1,0,2-0.9,2-2V12.609C47.559,11.509,46.658,10.609,45.559,10.609L45.559,10.609z"/>
	</g>
	<path d="M12.954,21.494c-0.552,0-1-0.448-1-1C11.954,9.226,17.245,0.399,24,0.399s12.046,8.827,12.046,20.094c0,0.552-0.447,1-1,1
		s-1-0.448-1-1c0-9.977-4.507-18.094-10.046-18.094c-5.54,0-10.046,8.118-10.046,18.095C13.954,21.046,13.506,21.494,12.954,21.494z
		"/>
</g>
</svg>
