<?xml version="1.0" encoding="utf-8"?>
<!-- Generator: Adobe Illustrator 16.0.0, SVG Export Plug-In . SVG Version: 6.00 Build 0)  -->
<!DOCTYPE svg PUBLIC "-//W3C//DTD SVG 1.1//EN" "http://www.w3.org/Graphics/SVG/1.1/DTD/svg11.dtd">
<svg version="1.1" id="Layer_1" xmlns="http://www.w3.org/2000/svg" xmlns:xlink="http://www.w3.org/1999/xlink" x="0px" y="0px"
	 width="48px" height="48px" viewBox="0 0 48 48" enable-background="new 0 0 48 48" xml:space="preserve">
<g>
	<g>
		<path d="M45.559,10.617v34.984H2.441V10.617H45.559 M45.559,8.617H2.441c-1.1,0-2,0.9-2,2v34.984c0,1.101,0.9,2,2,2h43.118
			c1.101,0,2-0.899,2-2V10.617C47.559,9.517,46.658,8.617,45.559,8.617L45.559,8.617z"/>
	</g>
	<path d="M36.049,10.561h-2C34.049,6.171,29.541,2.6,24,2.6s-10.049,3.571-10.049,7.961h-2C11.951,5.068,17.356,0.6,24,0.6
		S36.049,5.068,36.049,10.561z"/>
	<rect x="2.964" y="21.395" width="42.074" height="2"/>
	<path d="M24,30.475c-0.552,0-1-0.447-1-1v-10.49c0-0.552,0.448-1,1-1c0.553,0,1,0.448,1,1v10.49C25,30.027,24.553,30.475,24,30.475
		z"/>
</g>
</svg>
