<?xml version="1.0" encoding="utf-8"?>
<!-- Generator: Adobe Illustrator 16.0.0, SVG Export Plug-In . SVG Version: 6.00 Build 0)  -->
<!DOCTYPE svg PUBLIC "-//W3C//DTD SVG 1.1//EN" "http://www.w3.org/Graphics/SVG/1.1/DTD/svg11.dtd">
<svg version="1.1" id="Layer_1" xmlns="http://www.w3.org/2000/svg" xmlns:xlink="http://www.w3.org/1999/xlink" x="0px" y="0px"
	 width="48px" height="48px" viewBox="0 0 48 48" enable-background="new 0 0 48 48" xml:space="preserve">
<g>
	<path d="M36.357,47.473H11.642c-3.367,0-6.111-2.919-6.146-6.521L2.606,19.379l1.982-0.266l2.908,21.77
		c0,2.531,1.86,4.59,4.146,4.59h24.715c2.285,0,4.145-2.059,4.145-4.59l0.009-0.133l2.896-21.637l1.982,0.266l-2.888,21.573
		C42.467,44.554,39.724,47.473,36.357,47.473z"/>
	<g>
		<path d="M46,10.23v8.82H2v-8.82H46 M46,8.23H2c-1.1,0-2,0.9-2,2v8.82c0,1.1,0.9,2,2,2h44c1.1,0,2-0.9,2-2v-8.82
			C48,9.13,47.1,8.23,46,8.23L46,8.23z"/>
	</g>
	<g>
		<path d="M8.187,10.326c-0.323,0-0.639-0.156-0.832-0.444C7.048,9.424,7.171,8.803,7.63,8.495l11.647-7.798
			c0.458-0.307,1.08-0.184,1.387,0.275c0.307,0.458,0.184,1.08-0.275,1.387L8.742,10.157C8.572,10.271,8.378,10.326,8.187,10.326z"
			/>
		<path d="M39.808,10.326c-0.191,0-0.385-0.055-0.556-0.169L27.603,2.359c-0.459-0.307-0.582-0.928-0.274-1.387
			c0.309-0.459,0.929-0.582,1.388-0.275l11.649,7.798c0.459,0.307,0.582,0.928,0.274,1.387C40.446,10.17,40.13,10.326,39.808,10.326
			z"/>
	</g>
</g>
</svg>
