<?xml version="1.0" encoding="utf-8"?>
<!-- Generator: Adobe Illustrator 16.0.0, SVG Export Plug-In . SVG Version: 6.00 Build 0)  -->
<!DOCTYPE svg PUBLIC "-//W3C//DTD SVG 1.1//EN" "http://www.w3.org/Graphics/SVG/1.1/DTD/svg11.dtd">
<svg version="1.1" id="Layer_1" xmlns="http://www.w3.org/2000/svg" xmlns:xlink="http://www.w3.org/1999/xlink" x="0px" y="0px"
	 width="48px" height="48px" viewBox="0 0 48 48" enable-background="new 0 0 48 48" xml:space="preserve">
<g>
	<g>
		<path d="M36.357,47.473H11.643c-3.369,0-6.113-2.919-6.147-6.521L2.607,19.38l1.982-0.266l2.906,21.768
			c0,2.531,1.861,4.591,4.148,4.591h24.714c2.286,0,4.146-2.06,4.146-4.591l0.009-0.133l2.897-21.635l1.982,0.266l-2.889,21.571
			C42.468,44.554,39.725,47.473,36.357,47.473z"/>
		<g>
			<path d="M46,10.231v8.821H2v-8.821H46 M46,8.231H2c-1.1,0-2,0.9-2,2v8.821c0,1.1,0.9,2,2,2h44c1.1,0,2-0.9,2-2v-8.821
				C48,9.131,47.1,8.231,46,8.231L46,8.231z"/>
		</g>
		<g>
			<path d="M8.187,10.326c-0.323,0-0.639-0.156-0.832-0.444C7.048,9.423,7.171,8.802,7.63,8.495l11.648-7.798
				c0.459-0.307,1.08-0.184,1.387,0.275s0.184,1.08-0.275,1.387L8.742,10.157C8.571,10.271,8.378,10.326,8.187,10.326z"/>
			<path d="M39.808,10.326c-0.191,0-0.385-0.055-0.556-0.169L27.604,2.359c-0.459-0.307-0.582-0.928-0.274-1.387
				c0.309-0.459,0.929-0.582,1.388-0.275l11.648,7.798c0.459,0.307,0.582,0.928,0.274,1.387
				C40.446,10.17,40.13,10.326,39.808,10.326z"/>
		</g>
	</g>
	<g>
		<path d="M20.332,32.189c0,1.158-0.938,2.095-2.092,2.095c-1.16,0-2.098-0.937-2.098-2.095c0-1.157,0.938-2.094,2.098-2.094
			C19.395,30.098,20.332,31.032,20.332,32.189z"/>
		<path d="M31.854,32.189c0,1.158-0.938,2.095-2.094,2.095c-1.158,0-2.098-0.937-2.098-2.095c0-1.157,0.938-2.094,2.098-2.094
			C30.914,30.098,31.854,31.032,31.854,32.189z"/>
	</g>
</g>
</svg>
