<?xml version="1.0" encoding="utf-8"?>
<!-- Generator: Adobe Illustrator 16.0.0, SVG Export Plug-In . SVG Version: 6.00 Build 0)  -->
<!DOCTYPE svg PUBLIC "-//W3C//DTD SVG 1.1//EN" "http://www.w3.org/Graphics/SVG/1.1/DTD/svg11.dtd">
<svg version="1.1" id="Layer_1" xmlns="http://www.w3.org/2000/svg" xmlns:xlink="http://www.w3.org/1999/xlink" x="0px" y="0px"
	 width="48px" height="48px" viewBox="0 0 48 48" enable-background="new 0 0 48 48" xml:space="preserve">
<g>
	<g>
		<path d="M24.002,39.282c-0.552,0-1-0.447-1-1V27.559c0-0.553,0.448-1,1-1c0.553,0,1,0.447,1,1v10.724
			C25.002,38.835,24.555,39.282,24.002,39.282z"/>
		<g>
			<path d="M29.646,33.098c-0.278,0-0.555-0.115-0.752-0.341L23.25,26.31c-0.364-0.416-0.322-1.048,0.094-1.411
				c0.414-0.366,1.047-0.323,1.411,0.093l5.645,6.447c0.364,0.416,0.322,1.048-0.093,1.411
				C30.115,33.017,29.881,33.098,29.646,33.098z"/>
			<path d="M18.355,33.098c-0.234,0-0.469-0.081-0.658-0.248c-0.416-0.363-0.458-0.995-0.094-1.411l5.646-6.447
				c0.364-0.416,0.996-0.459,1.412-0.093c0.415,0.363,0.457,0.995,0.093,1.411l-5.646,6.447
				C18.911,32.982,18.634,33.098,18.355,33.098z"/>
		</g>
	</g>
	<g>
		<path d="M46,2v44H2V2H46 M46,0H2C0.9,0,0,0.9,0,2v44c0,1.1,0.9,2,2,2h44c1.1,0,2-0.9,2-2V2C48,0.9,47.1,0,46,0L46,0z"/>
	</g>
	<g>
		<path d="M35.779,2v14.677H12.224V2H35.779 M36.779,0H11.224c-0.55,0-1,0.45-1,1v16.677c0,0.55,0.45,1,1,1h25.555
			c0.551,0,1-0.45,1-1V1C37.779,0.45,37.329,0,36.779,0L36.779,0z"/>
	</g>
</g>
</svg>
