<?xml version="1.0" encoding="utf-8"?>
<!-- Generator: Adobe Illustrator 16.0.0, SVG Export Plug-In . SVG Version: 6.00 Build 0)  -->
<!DOCTYPE svg PUBLIC "-//W3C//DTD SVG 1.1//EN" "http://www.w3.org/Graphics/SVG/1.1/DTD/svg11.dtd">
<svg version="1.1" id="Layer_1" xmlns="http://www.w3.org/2000/svg" xmlns:xlink="http://www.w3.org/1999/xlink" x="0px" y="0px"
	 width="48px" height="48px" viewBox="0 0 48 48" enable-background="new 0 0 48 48" xml:space="preserve">
<g>
	<g>
		<path d="M23.999,37.378c-0.552,0-1-0.447-1-1V25.652c0-0.553,0.448-1,1-1c0.553,0,1,0.447,1,1v10.726
			C24.999,36.931,24.552,37.378,23.999,37.378z"/>
		<g>
			<path d="M24,39.285c-0.278,0-0.555-0.115-0.753-0.342l-5.643-6.446c-0.364-0.415-0.322-1.047,0.094-1.41
				c0.415-0.366,1.046-0.323,1.411,0.094l5.643,6.446c0.364,0.415,0.322,1.047-0.094,1.41C24.468,39.204,24.233,39.285,24,39.285z"
				/>
			<path d="M23.999,39.285c-0.234,0-0.469-0.081-0.658-0.248c-0.416-0.363-0.458-0.995-0.094-1.411l5.648-6.448
				c0.364-0.416,0.995-0.457,1.411-0.093c0.415,0.363,0.457,0.995,0.093,1.411l-5.647,6.448
				C24.554,39.17,24.277,39.285,23.999,39.285z"/>
		</g>
	</g>
	<g>
		<path d="M46,2v44H2V2H46 M46,0H2C0.9,0,0,0.9,0,2v44c0,1.1,0.9,2,2,2h44c1.1,0,2-0.9,2-2V2C48,0.9,47.1,0,46,0L46,0z"/>
	</g>
	<g>
		<path d="M35.775,2v14.675H12.221V2H35.775 M36.775,0H11.221c-0.55,0-1,0.45-1,1v16.675c0,0.55,0.45,1,1,1h25.556
			c0.55,0,1-0.45,1-1V1C37.775,0.45,37.326,0,36.775,0L36.775,0z"/>
	</g>
</g>
</svg>
