<?xml version="1.0" encoding="utf-8"?>
<!-- Generator: Adobe Illustrator 16.0.0, SVG Export Plug-In . SVG Version: 6.00 Build 0)  -->
<!DOCTYPE svg PUBLIC "-//W3C//DTD SVG 1.1//EN" "http://www.w3.org/Graphics/SVG/1.1/DTD/svg11.dtd">
<svg version="1.1" id="Layer_1" xmlns="http://www.w3.org/2000/svg" xmlns:xlink="http://www.w3.org/1999/xlink" x="0px" y="0px"
	 width="48px" height="48px" viewBox="0 0 48 48" enable-background="new 0 0 48 48" xml:space="preserve">
<g>
	<g>
		<g>
			<path d="M28.775,37.435l-13.012-9.9c-0.439-0.334-0.525-0.961-0.191-1.4L34.43,1.266l1.594,1.208L17.769,26.547l12.217,9.296
				L28.775,37.435z"/>
			<g>
				<polygon points="29.934,2.041 30.105,3.033 34.992,2.177 35.488,7.113 36.491,7.012 35.885,1 				"/>
			</g>
		</g>
	</g>
	<path d="M35.788,48c-3.408,0-6.181-2.773-6.181-6.182c0-3.407,2.772-6.18,6.181-6.18s6.181,2.772,6.181,6.18
		C41.969,45.227,39.196,48,35.788,48z M35.788,37.639c-2.306,0-4.181,1.875-4.181,4.18c0,2.306,1.875,4.182,4.181,4.182
		s4.181-1.876,4.181-4.182C39.969,39.514,38.094,37.639,35.788,37.639z"/>
	<g>
		<rect x="16.388" y="3.238" transform="matrix(0.7071 0.7071 -0.7071 0.7071 11.4197 -9.6745)" width="2" height="11.419"/>
		<rect x="11.679" y="7.948" transform="matrix(0.7071 0.7071 -0.7071 0.7071 11.4208 -9.6748)" width="11.419" height="2"/>
	</g>
	<g>
		<rect x="4.038" y="9.851" transform="matrix(0.7071 0.7071 -0.7071 0.7071 12.4784 0.9955)" width="2" height="11.42"/>
		<rect x="-0.672" y="14.561" transform="matrix(0.7071 0.7071 -0.7071 0.7071 12.4784 0.9955)" width="11.42" height="2"/>
	</g>
	<g>
		<rect x="28.533" y="18.291" transform="matrix(0.7071 0.7071 -0.7071 0.7071 25.621 -13.8535)" width="2" height="11.418"/>
		<rect x="23.824" y="23.001" transform="matrix(0.7071 0.7071 -0.7071 0.7071 25.6187 -13.8533)" width="11.418" height="2"/>
	</g>
	<g>
		<rect x="41.963" y="11.313" transform="matrix(0.7071 0.7071 -0.7071 0.7071 24.6195 -25.3939)" width="2" height="11.417"/>
		<rect x="37.255" y="16.022" transform="matrix(0.7071 0.7071 -0.7071 0.7071 24.6197 -25.3942)" width="11.417" height="2"/>
	</g>
</g>
</svg>
