<?xml version="1.0" encoding="utf-8"?>
<!-- Generator: Adobe Illustrator 16.0.0, SVG Export Plug-In . SVG Version: 6.00 Build 0)  -->
<!DOCTYPE svg PUBLIC "-//W3C//DTD SVG 1.1//EN" "http://www.w3.org/Graphics/SVG/1.1/DTD/svg11.dtd">
<svg version="1.1" id="Layer_1" xmlns="http://www.w3.org/2000/svg" xmlns:xlink="http://www.w3.org/1999/xlink" x="0px" y="0px"
	 width="48px" height="48px" viewBox="0 0 48 48" enable-background="new 0 0 48 48" xml:space="preserve">
<g>
	<g>
		<g>
			<path d="M31.685,39.896c-0.314,0-0.624-0.147-0.819-0.425c-0.317-0.451-0.209-1.075,0.243-1.394l10.377-7.299
				c0.452-0.317,1.075-0.209,1.394,0.243c0.317,0.451,0.209,1.075-0.243,1.394l-10.377,7.299
				C32.084,39.838,31.883,39.896,31.685,39.896z"/>
			<path d="M31.7,48c-0.115,0-0.231-0.02-0.346-0.062c-0.519-0.191-0.783-0.767-0.593-1.284l1.185-3.213
				c0.072-0.196,0.204-0.364,0.377-0.482l13.261-8.992L44.51,19.04c-0.04-0.551,0.374-1.029,0.925-1.069
				c0.542-0.029,1.03,0.375,1.069,0.926l1.116,15.502c0.026,0.356-0.141,0.699-0.436,0.9l-13.473,9.136l-1.073,2.911
				C32.489,47.75,32.107,48,31.7,48z"/>
		</g>
		<g>
			<path d="M16.316,39.896c-0.199,0-0.399-0.059-0.574-0.182L5.366,32.416c-0.452-0.318-0.561-0.942-0.243-1.394
				c0.318-0.453,0.941-0.561,1.393-0.243l10.376,7.299c0.452,0.318,0.561,0.942,0.243,1.394
				C16.94,39.749,16.63,39.896,16.316,39.896z"/>
			<path d="M16.301,48c-0.407,0-0.789-0.25-0.938-0.654l-1.073-2.911L0.816,35.299c-0.296-0.201-0.462-0.544-0.437-0.899
				l1.114-15.503c0.04-0.551,0.509-0.967,1.069-0.926c0.551,0.04,0.965,0.519,0.926,1.069L2.416,33.967l13.262,8.992
				c0.173,0.118,0.305,0.286,0.377,0.482l1.185,3.213c0.191,0.518-0.074,1.093-0.593,1.284C16.533,47.98,16.416,48,16.301,48z"/>
		</g>
	</g>
	<g>
		<path d="M23.772,36.047l-15.674-9.05V8.896l15.674-9.051l15.679,9.05v18.102L23.772,36.047z M10.098,25.843l13.674,7.896
			l13.679-7.896V10.051L23.772,2.155L10.098,10.05V25.843z"/>
		<polygon points="23.759,17.188 9.981,11.073 10.793,9.245 23.785,15.012 37.687,9.236 38.454,11.083 		"/>
	</g>
</g>
</svg>
