<?xml version="1.0" encoding="utf-8"?>
<!-- Generator: Adobe Illustrator 16.0.0, SVG Export Plug-In . SVG Version: 6.00 Build 0)  -->
<!DOCTYPE svg PUBLIC "-//W3C//DTD SVG 1.1//EN" "http://www.w3.org/Graphics/SVG/1.1/DTD/svg11.dtd">
<svg version="1.1" id="Layer_1" xmlns="http://www.w3.org/2000/svg" xmlns:xlink="http://www.w3.org/1999/xlink" x="0px" y="0px"
	 width="48px" height="48px" viewBox="0 0 48 48" enable-background="new 0 0 48 48" xml:space="preserve">
<g>
	<rect x="19.679" y="38.229" width="9.225" height="2"/>
	<path d="M8.835,40.229H1c-0.552,0-1-0.447-1-1s0.448-1,1-1h7.835c0.552,0,1,0.447,1,1S9.387,40.229,8.835,40.229z"/>
	<g>
		<path d="M41.255,40.229h-1.476c-0.553,0-1-0.447-1-1s0.447-1,1-1h1.476c2.616,0,4.745-2.126,4.745-4.738v-9.603H25.525
			c-0.553,0-1-0.448-1-1V5.091H6.802c-0.552,0-1-0.448-1-1s0.448-1,1-1h18.724c0.553,0,1,0.448,1,1v17.796H47c0.553,0,1,0.448,1,1
			V33.49C48,37.206,44.975,40.229,41.255,40.229z"/>
		<path d="M46.087,23.469L34.999,7.748H24.512v-2h11.006c0.325,0,0.63,0.158,0.817,0.424l11.387,16.145L46.087,23.469z"/>
		<path d="M14.275,44.908c-3.551,0-6.44-2.889-6.44-6.44s2.889-6.44,6.44-6.44s6.44,2.889,6.44,6.44S17.826,44.908,14.275,44.908z
			 M14.275,34.027c-2.448,0-4.44,1.992-4.44,4.44s1.992,4.44,4.44,4.44s4.44-1.992,4.44-4.44S16.723,34.027,14.275,34.027z"/>
		<path d="M34.339,44.908c-3.552,0-6.44-2.889-6.44-6.44s2.889-6.44,6.44-6.44s6.44,2.889,6.44,6.44S37.891,44.908,34.339,44.908z
			 M34.339,34.027c-2.448,0-4.44,1.992-4.44,4.44s1.992,4.44,4.44,4.44s4.44-1.992,4.44-4.44S36.787,34.027,34.339,34.027z"/>
		<path d="M18.137,12.476H6.143c-0.552,0-1-0.448-1-1s0.448-1,1-1h11.994c0.552,0,1,0.448,1,1S18.689,12.476,18.137,12.476z"/>
		<path d="M15.105,20.005H3.111c-0.552,0-1-0.448-1-1s0.448-1,1-1h11.994c0.552,0,1,0.448,1,1S15.657,20.005,15.105,20.005z"/>
		<path d="M13.383,27.531H1.389c-0.552,0-1-0.447-1-1s0.448-1,1-1h11.994c0.552,0,1,0.447,1,1S13.935,27.531,13.383,27.531z"/>
	</g>
</g>
</svg>
