<?xml version="1.0" encoding="utf-8"?>
<!-- Generator: Adobe Illustrator 16.0.0, SVG Export Plug-In . SVG Version: 6.00 Build 0)  -->
<!DOCTYPE svg PUBLIC "-//W3C//DTD SVG 1.1//EN" "http://www.w3.org/Graphics/SVG/1.1/DTD/svg11.dtd">
<svg version="1.1" id="Layer_1" xmlns="http://www.w3.org/2000/svg" xmlns:xlink="http://www.w3.org/1999/xlink" x="0px" y="0px"
	 width="48px" height="48px" viewBox="0 0 48 48" enable-background="new 0 0 48 48" xml:space="preserve">
<g>
	<g>
		<path d="M44.952,28.838c0.192,0,0.362,0.008,0.509,0.018c-0.093,0.086-0.199,0.181-0.326,0.281L28.509,42.596
			C26.229,44.441,21.787,46,18.811,46H6.199C3.884,46,2,44.202,2,41.992v-9.146c0-2.211,1.884-4.009,4.199-4.009L44.952,28.838
			 M44.952,26.838H6.199C2.79,26.838,0,29.543,0,32.848v9.146C0,45.297,2.79,48,6.199,48H18.81c3.409,0,8.338-1.73,10.956-3.85
			l16.627-13.459C49.012,28.572,48.359,26.838,44.952,26.838L44.952,26.838z"/>
	</g>
	<path d="M24.001,29.299c-0.552,0-1-0.447-1-1v-4.758H9.669c-0.369,0-0.708-0.203-0.882-0.529c-0.174-0.325-0.155-0.72,0.05-1.027
		L23.169,0.534c0.245-0.366,0.701-0.529,1.122-0.401c0.422,0.128,0.71,0.517,0.71,0.957v27.209
		C25.001,28.852,24.554,29.299,24.001,29.299z M11.54,21.541h11.461V4.387L11.54,21.541z"/>
</g>
</svg>
