<?xml version="1.0" encoding="utf-8"?>
<!-- Generator: Adobe Illustrator 16.0.0, SVG Export Plug-In . SVG Version: 6.00 Build 0)  -->
<!DOCTYPE svg PUBLIC "-//W3C//DTD SVG 1.1//EN" "http://www.w3.org/Graphics/SVG/1.1/DTD/svg11.dtd">
<svg version="1.1" id="Layer_1" xmlns="http://www.w3.org/2000/svg" xmlns:xlink="http://www.w3.org/1999/xlink" x="0px" y="0px"
	 width="48px" height="48px" viewBox="0 0 48 48" enable-background="new 0 0 48 48" xml:space="preserve">
<g>
	<path d="M42.762,35.665h-3.13v-2h3.13c2.902,0,3.238-1.5,3.238-2.629v-0.513c0-2.375-11.34-6.942-21.946-9.854
		C13.396,23.512,2,28.059,2,30.523v0.513c0,1.3,0.367,2.629,3.09,2.629h3.019v2H5.09c-3.282,0-5.09-1.644-5.09-4.629v-0.513
		c0-5.164,18.219-10.38,23.803-11.856c0.17-0.044,0.35-0.043,0.518,0.002C29.876,20.182,48,25.507,48,30.523v0.513
		C48,32.428,47.489,35.665,42.762,35.665z"/>
	<path d="M24.299,20.303c-0.552,0-1-0.448-1-1v-5.084C20.078,13.728,17.6,10.902,17.6,7.5c0-3.749,3.005-6.8,6.698-6.801
		c3.698,0,6.707,3.051,6.707,6.801c0,0.552-0.447,1-1,1s-1-0.448-1-1c0-2.647-2.111-4.801-4.706-4.801
		C21.708,2.7,19.6,4.854,19.6,7.5c0,2.644,2.108,4.795,4.699,4.795h1v7.008C25.299,19.855,24.852,20.303,24.299,20.303z"/>
	<path d="M39.745,47.3H8.253c-0.552,0-1-0.447-1-1V31.712c0-0.553,0.448-1,1-1h31.492c0.553,0,1,0.447,1,1V46.3
		C40.745,46.853,40.298,47.3,39.745,47.3z M9.253,45.3h29.492V32.712H9.253V45.3z"/>
</g>
</svg>
