<?xml version="1.0" encoding="utf-8"?>
<!-- Generator: Adobe Illustrator 16.0.0, SVG Export Plug-In . SVG Version: 6.00 Build 0)  -->
<!DOCTYPE svg PUBLIC "-//W3C//DTD SVG 1.1//EN" "http://www.w3.org/Graphics/SVG/1.1/DTD/svg11.dtd">
<svg version="1.1" id="Layer_1" xmlns="http://www.w3.org/2000/svg" xmlns:xlink="http://www.w3.org/1999/xlink" x="0px" y="0px"
	 width="48px" height="48px" viewBox="0 0 48 48" enable-background="new 0 0 48 48" xml:space="preserve">
<g>
	<path d="M34.005,48H13.996c-1.099,0-2.112-0.449-2.781-1.232c-0.664-0.777-0.937-1.789-0.768-2.851
		c0.008-0.048,0.019-0.096,0.034-0.143l6.145-19.538c0.116-1.314-1.87-7.097-2.933-8.146l-3.604,1.721
		c-2.148,0.936-4.381-0.201-4.975-2.274l-0.811-2.833C3.741,10.751,4.55,8.204,6.145,6.908l7.565-6.166
		c0.71-0.582,1.571-0.831,2.369-0.713c0.397,0.057,0.722,0.346,0.825,0.734c0.84,3.172,3.758,5.388,7.096,5.388
		c3.338,0,6.257-2.216,7.098-5.388c0.104-0.388,0.428-0.677,0.825-0.733c0.805-0.117,1.659,0.132,2.374,0.716l7.56,6.161
		c1.593,1.297,2.401,3.844,1.841,5.799l-0.809,2.832c-0.449,1.564-1.82,2.614-3.412,2.614l0,0c-0.52,0-1.035-0.109-1.531-0.325
		l-3.637-1.735c-1.063,1.05-3.043,6.833-2.926,8.145l6.138,19.538c0.015,0.047,0.025,0.095,0.033,0.143
		c0.169,1.061-0.104,2.073-0.767,2.851C36.118,47.551,35.104,48,34.005,48z M12.414,44.297c-0.055,0.448,0.058,0.862,0.323,1.173
		c0.292,0.342,0.74,0.53,1.26,0.53h20.009c0.521,0,0.969-0.188,1.261-0.531c0.265-0.311,0.378-0.725,0.322-1.173l-6.14-19.545
		c-0.015-0.047-0.025-0.094-0.033-0.142c-0.271-1.695,1.672-7.807,3.327-9.747c0.669-0.785,1.426-1.026,2.103-0.731l3.93,1.876
		c0.211,0.091,0.458,0.145,0.702,0.145c0.712,0,1.283-0.446,1.489-1.165l0.809-2.832c0.34-1.182-0.213-2.909-1.181-3.698
		l-7.561-6.161c-0.091-0.075-0.181-0.135-0.269-0.181C31.43,5.709,27.943,8.151,24,8.151c-3.944,0-7.429-2.441-8.763-6.035
		c-0.087,0.045-0.174,0.104-0.262,0.175L7.408,8.459c-0.97,0.788-1.522,2.514-1.183,3.694l0.812,2.834
		c0.276,0.964,1.268,1.422,2.223,1.005l3.866-1.847c0.796-0.35,1.465-0.067,2.135,0.717c1.656,1.941,3.604,8.052,3.334,9.746
		c-0.008,0.049-0.019,0.096-0.034,0.143L12.414,44.297z"/>
</g>
</svg>
