<?xml version="1.0" encoding="utf-8"?>
<!-- Generator: Adobe Illustrator 16.0.0, SVG Export Plug-In . SVG Version: 6.00 Build 0)  -->
<!DOCTYPE svg PUBLIC "-//W3C//DTD SVG 1.1//EN" "http://www.w3.org/Graphics/SVG/1.1/DTD/svg11.dtd">
<svg version="1.1" id="Layer_1" xmlns="http://www.w3.org/2000/svg" xmlns:xlink="http://www.w3.org/1999/xlink" x="0px" y="0px"
	 width="48px" height="48px" viewBox="0 0 48 48" enable-background="new 0 0 48 48" xml:space="preserve">
<g>
	<g>
		<path d="M37.664,2v44H27.439V16.533c0-1.654-1.346-3-3-3h-0.88c-1.654,0-3,1.346-3,3V46H10.336V2H37.664 M38.664,0H9.336
			c-0.55,0-1,0.45-1,1v46c0,0.55,0.45,1,1,1H21.56c0.55,0,1-0.45,1-1V16.533c0-0.55,0.45-1,1-1h0.881c0.55,0,1,0.45,1,1V47
			c0,0.55,0.449,1,1,1h12.224c0.55,0,1-0.45,1-1V1C39.664,0.45,39.214,0,38.664,0L38.664,0z"/>
	</g>
	<path d="M24.001,9.942c-0.552,0-1-0.448-1-1v-7.02c0-0.552,0.448-1,1-1c0.553,0,1,0.448,1,1v7.02
		C25.001,9.494,24.554,9.942,24.001,9.942z"/>
	<g>
		<path d="M10.409,10.187c-0.375,0-0.735-0.213-0.905-0.575c-0.235-0.5-0.02-1.095,0.479-1.33c0.047-0.022,4.705-2.26,6.173-6.521
			c0.18-0.521,0.747-0.801,1.271-0.62c0.522,0.18,0.8,0.749,0.62,1.271c-1.748,5.075-6.992,7.577-7.214,7.681
			C10.695,10.157,10.551,10.187,10.409,10.187z"/>
		<path d="M37.591,10.187c-0.142,0-0.286-0.03-0.423-0.094c-0.223-0.104-5.467-2.606-7.211-7.682
			c-0.18-0.522,0.098-1.091,0.62-1.271c0.522-0.179,1.091,0.099,1.271,0.621c1.465,4.261,6.122,6.499,6.169,6.521
			c0.499,0.235,0.714,0.831,0.479,1.33C38.326,9.974,37.966,10.187,37.591,10.187z"/>
	</g>
</g>
</svg>
