<?xml version="1.0" encoding="utf-8"?>
<!-- Generator: Adobe Illustrator 16.0.0, SVG Export Plug-In . SVG Version: 6.00 Build 0)  -->
<!DOCTYPE svg PUBLIC "-//W3C//DTD SVG 1.1//EN" "http://www.w3.org/Graphics/SVG/1.1/DTD/svg11.dtd">
<svg version="1.1" id="Layer_1" xmlns="http://www.w3.org/2000/svg" xmlns:xlink="http://www.w3.org/1999/xlink" x="0px" y="0px"
	 width="48px" height="48px" viewBox="0 0 48 48" enable-background="new 0 0 48 48" xml:space="preserve">
<g>
	<g>
		<path d="M4.367,2.001c0.09,0,0.188,0.019,0.293,0.055c1.716,0.601,4.352,1.455,6.901,2.281c2.275,0.737,4.628,1.5,6.161,2.029
			c0.926,0.32,0.842,1.188,0.844,1.188c0,0,0,0,0,0c-2.247,8.207,0.991,18.679,13.409,22.276c6.788,1.967,11.175,4.763,13.037,8.313
			c1.412,2.688,1.061,5.269,0.503,6.979c-0.098,0.068-0.372,0.18-0.778,0.18H29.711c-1.071,0-2.265-0.143-2.998-1.199
			c-3.995-5.767-8.379-10.547-13.8-15.044c-0.474-0.393-1.059-0.601-1.692-0.601c-1.499,0-3.174,1.251-3.174,2.926v12.572
			c0,1.228-0.702,2.042-1.166,2.042H5.225c-0.464,0-1.167-0.814-1.167-2.042c0-0.059-0.002-0.117-0.008-0.176
			c-0.018-0.202-1.786-20.304-2.033-26.969c-0.043-1.11-0.07-5.892,0.586-9.012c0.402-1.916,0.723-3.229,1.006-4.387l0.232-0.958
			C3.91,2.171,4.106,2.001,4.367,2.001 M4.367,0.001c-1.197,0-2.188,0.81-2.47,1.988c-0.331,1.383-0.726,2.896-1.251,5.4
			c-0.803,3.814-0.633,9.416-0.627,9.511c0.252,6.778,2.039,27.056,2.039,27.056c0,2.223,1.424,4.042,3.167,4.042H6.88
			c1.74,0,3.166-1.819,3.166-4.042c0,0,0-9.426,0-12.572c0-0.41,0.639-0.926,1.174-0.926c0.153,0,0.298,0.042,0.417,0.141
			c4.513,3.744,8.974,8.207,13.432,14.643c1.422,2.051,3.751,2.061,4.642,2.061c0.008,0,0.017,0,0.024,0c3.206,0,11.227,0,15.003,0
			c1.245,0,2.341-0.547,2.651-1.473c1.201-3.6,2.384-12.926-14.856-17.92C21.162,24.615,18.501,15.37,20.497,8.083
			c0.246-0.901-0.085-2.903-2.12-3.606C15.127,3.353,8.562,1.304,5.322,0.169C4.996,0.055,4.675,0.001,4.367,0.001L4.367,0.001z"/>
	</g>
</g>
</svg>
