<?xml version="1.0" encoding="utf-8"?>
<!-- Generator: Adobe Illustrator 16.0.0, SVG Export Plug-In . SVG Version: 6.00 Build 0)  -->
<!DOCTYPE svg PUBLIC "-//W3C//DTD SVG 1.1//EN" "http://www.w3.org/Graphics/SVG/1.1/DTD/svg11.dtd">
<svg version="1.1" id="Layer_1" xmlns="http://www.w3.org/2000/svg" xmlns:xlink="http://www.w3.org/1999/xlink" x="0px" y="0px"
	 width="48px" height="48px" viewBox="0 0 48 48" enable-background="new 0 0 48 48" xml:space="preserve">
<g>
	<path d="M46.176,36.924H24.857c-0.142,0-0.282-0.03-0.412-0.089l-9.654-4.364l-0.169,3.501c-0.026,0.533-0.465,0.952-0.999,0.952
		H1.582c-0.503,0-0.928-0.374-0.992-0.873c-1.31-10.214-0.058-23.509-0.004-24.07c0.037-0.386,0.294-0.716,0.66-0.846
		c0.366-0.129,0.773-0.037,1.046,0.238c1.905,1.922,4.112,2.897,6.561,2.897c4.132,0,7.581-2.713,7.726-2.828
		c0.506-0.406,1.348-0.168,1.566,0.443c3.209,8.962,13.719,10.693,21.394,11.957c0.932,0.153,1.819,0.299,2.645,0.45
		c2.296,0.421,3.944,1.503,4.901,3.215c2,3.578,0.104,8.567,0.023,8.778C46.959,36.67,46.589,36.924,46.176,36.924z M25.073,34.924
		h20.38c0.387-1.306,1.07-4.33-0.116-6.445c-0.662-1.182-1.812-1.907-3.514-2.22c-0.814-0.148-1.69-0.293-2.609-0.444
		c-7.387-1.217-18.393-3.028-22.465-12.052c-1.525,0.975-4.466,2.506-7.895,2.506c-2.351,0-4.508-0.72-6.435-2.144
		c-0.289,3.965-0.796,13.22,0.05,20.798H12.67l0.194-4.018c0.016-0.331,0.195-0.633,0.477-0.806
		c0.282-0.172,0.632-0.195,0.934-0.058L25.073,34.924z"/>
	<path d="M23.538,28.113c-0.418,0-0.809-0.265-0.948-0.683c-0.162-0.485,0.068-1.007,0.519-1.221
		c0.114-0.088,1.008-0.863,2.115-4.288c0.17-0.525,0.731-0.812,1.259-0.644c0.525,0.17,0.813,0.734,0.644,1.259
		c-1.449,4.484-2.77,5.357-3.271,5.524C23.75,28.097,23.643,28.113,23.538,28.113z"/>
	<path d="M30.527,29.564c-0.418,0-0.808-0.264-0.948-0.682c-0.162-0.485,0.067-1.008,0.519-1.222
		c0.114-0.088,1.009-0.862,2.117-4.288c0.17-0.525,0.731-0.813,1.259-0.644c0.525,0.17,0.813,0.734,0.644,1.259
		c-1.449,4.481-2.771,5.356-3.271,5.524C30.74,29.548,30.633,29.564,30.527,29.564z"/>
</g>
</svg>
