<?xml version="1.0" encoding="utf-8"?>
<!-- Generator: Adobe Illustrator 16.0.0, SVG Export Plug-In . SVG Version: 6.00 Build 0)  -->
<!DOCTYPE svg PUBLIC "-//W3C//DTD SVG 1.1//EN" "http://www.w3.org/Graphics/SVG/1.1/DTD/svg11.dtd">
<svg version="1.1" id="Layer_1" xmlns="http://www.w3.org/2000/svg" xmlns:xlink="http://www.w3.org/1999/xlink" x="0px" y="0px"
	 width="48px" height="48px" viewBox="0 0 48 48" enable-background="new 0 0 48 48" xml:space="preserve">
<g>
	<path d="M34.203,48H13.795c-1.978,0-3.587-1.898-3.587-4.232v-5.924c0-2.335,1.609-4.234,3.587-4.234h20.408
		c1.979,0,3.588,1.899,3.588,4.234v5.924C37.791,46.102,36.182,48,34.203,48z M13.795,35.609c-0.86,0-1.587,1.023-1.587,2.234v5.924
		c0,1.21,0.727,2.232,1.587,2.232h20.408c0.86,0,1.588-1.022,1.588-2.232v-5.924c0-1.211-0.728-2.234-1.588-2.234H13.795z"/>
	<path d="M28.794,35.609h-8.945c-2.523,0-4.576-1.897-4.576-4.229V15.211c0-2.333,2.053-4.232,4.576-4.232h8.945
		c2.525,0,4.58,1.898,4.58,4.232V31.38C33.374,33.712,31.319,35.609,28.794,35.609z M19.849,12.979
		c-1.396,0-2.576,1.022-2.576,2.232V31.38c0,1.229,1.156,2.229,2.576,2.229h8.945c1.423,0,2.58-1,2.58-2.229V15.211
		c0-1.23-1.157-2.232-2.58-2.232H19.849z"/>
	<path d="M27.741,12.406c-0.553,0-1-0.448-1-1V2.904L21.9,6.24v5.166c0,0.552-0.448,1-1,1s-1-0.448-1-1V5.715
		c0-0.329,0.162-0.637,0.433-0.823l6.841-4.715c0.306-0.21,0.704-0.235,1.032-0.062C28.535,0.288,28.741,0.628,28.741,1v10.406
		C28.741,11.958,28.294,12.406,27.741,12.406z"/>
</g>
</svg>
