<?xml version="1.0" encoding="utf-8"?>
<!-- Generator: Adobe Illustrator 16.0.0, SVG Export Plug-In . SVG Version: 6.00 Build 0)  -->
<!DOCTYPE svg PUBLIC "-//W3C//DTD SVG 1.1//EN" "http://www.w3.org/Graphics/SVG/1.1/DTD/svg11.dtd">
<svg version="1.1" id="Layer_1" xmlns="http://www.w3.org/2000/svg" xmlns:xlink="http://www.w3.org/1999/xlink" x="0px" y="0px"
	 width="48px" height="48px" viewBox="0 0 48 48" enable-background="new 0 0 48 48" xml:space="preserve">
<g>
	<path d="M17.922,48h-7.468c-2.179,0-3.952-1.772-3.952-3.952V31.854c0-2.179,1.773-3.951,3.952-3.951h7.468
		c2.179,0,3.952,1.772,3.952,3.951v12.194C21.874,46.228,20.101,48,17.922,48z M10.454,29.902c-1.077,0-1.952,0.875-1.952,1.951
		v12.194c0,1.076,0.875,1.952,1.952,1.952h7.468c1.077,0,1.952-0.876,1.952-1.952V31.854c0-1.076-0.875-1.951-1.952-1.951H10.454z"
		/>
	<path d="M37.904,48h-7.938c-2.279,0-4.134-1.856-4.134-4.139V25.005c0-2.644,6.968-5.607,8.139-5.607
		c1.161,0,8.067,2.963,8.067,5.607v18.856C42.038,46.144,40.184,48,37.904,48z M33.939,21.397c-1.1,0.121-5.851,2.659-6.111,3.649
		l0.004,18.815c0,1.18,0.957,2.139,2.134,2.139h7.938c1.177,0,2.134-0.959,2.134-2.139V25.005
		C39.79,24.06,35.091,21.521,33.939,21.397z"/>
	<path d="M14.188,28.829c-0.552,0-1-0.447-1-1V1c0-0.552,0.448-1,1-1s1,0.448,1,1v26.829C15.188,28.382,14.74,28.829,14.188,28.829z
		"/>
	<path d="M19.262,4.926H9.117c-0.552,0-1-0.448-1-1s0.448-1,1-1h10.145c0.552,0,1,0.448,1,1S19.814,4.926,19.262,4.926z"/>
	<path d="M21.415,9.482H6.961c-0.552,0-1-0.448-1-1s0.448-1,1-1h14.454c0.552,0,1,0.448,1,1S21.967,9.482,21.415,9.482z"/>
	<path d="M19.262,14.039H9.117c-0.552,0-1-0.448-1-1s0.448-1,1-1h10.145c0.552,0,1,0.448,1,1S19.814,14.039,19.262,14.039z"/>
</g>
</svg>
