<?xml version="1.0" encoding="utf-8"?>
<!-- Generator: Adobe Illustrator 16.0.0, SVG Export Plug-In . SVG Version: 6.00 Build 0)  -->
<!DOCTYPE svg PUBLIC "-//W3C//DTD SVG 1.1//EN" "http://www.w3.org/Graphics/SVG/1.1/DTD/svg11.dtd">
<svg version="1.1" id="Layer_1" xmlns="http://www.w3.org/2000/svg" xmlns:xlink="http://www.w3.org/1999/xlink" x="0px" y="0px"
	 width="48px" height="48px" viewBox="0 0 48 48" enable-background="new 0 0 48 48" xml:space="preserve">
<g>
	<path d="M44.125,35.025H3.875C1.738,35.025,0,33.287,0,31.15v-1.42c0-2.137,1.738-3.875,3.875-3.875h40.25
		c2.137,0,3.875,1.738,3.875,3.875v1.42C48,33.287,46.262,35.025,44.125,35.025z M3.875,27.855C2.841,27.855,2,28.696,2,29.73v1.42
		c0,1.034,0.841,1.875,1.875,1.875h40.25c1.034,0,1.875-0.841,1.875-1.875v-1.42c0-1.034-0.841-1.875-1.875-1.875H3.875z"/>
	<path d="M5.523,27.381c-0.552,0-1-0.447-1-1V16.285c0-0.552,0.448-1,1-1s1,0.448,1,1v10.096
		C6.523,26.934,6.075,27.381,5.523,27.381z"/>
	<path d="M11.258,27.381c-0.552,0-1-0.447-1-1V13.975c0-0.552,0.448-1,1-1s1,0.448,1,1v12.406
		C12.258,26.934,11.81,27.381,11.258,27.381z"/>
	<path d="M16.989,27.381c-0.552,0-1-0.447-1-1V13.975c0-0.552,0.448-1,1-1s1,0.448,1,1v12.406
		C17.989,26.934,17.542,27.381,16.989,27.381z"/>
	<path d="M22.722,27.381c-0.552,0-1-0.447-1-1V16.285c0-0.552,0.448-1,1-1s1,0.448,1,1v10.096
		C23.722,26.934,23.274,27.381,22.722,27.381z"/>
</g>
</svg>
