<?xml version="1.0" encoding="utf-8"?>
<!-- Generator: Adobe Illustrator 16.0.0, SVG Export Plug-In . SVG Version: 6.00 Build 0)  -->
<!DOCTYPE svg PUBLIC "-//W3C//DTD SVG 1.1//EN" "http://www.w3.org/Graphics/SVG/1.1/DTD/svg11.dtd">
<svg version="1.1" id="Layer_1" xmlns="http://www.w3.org/2000/svg" xmlns:xlink="http://www.w3.org/1999/xlink" x="0px" y="0px"
	 width="48px" height="48px" viewBox="0 0 48 48" enable-background="new 0 0 48 48" xml:space="preserve">
<g>
	<g>
		<path d="M17.852,47.999c-1.256,0-2.497-0.519-3.403-1.423L1.434,33.561c-1.842-1.844-1.913-4.771-0.158-6.526L27.748,0.565
			C28.139,0.174,28.736,0,29.687,0c3.833,0,13.837,3.007,14.261,3.135c0.316,0.096,0.565,0.342,0.665,0.658
			c3.063,9.737,4.015,15.277,2.831,16.467L20.97,46.729C20.151,47.548,19.043,47.999,17.852,47.999z M29.092,2.05L2.69,28.448
			c-0.975,0.976-0.904,2.635,0.159,3.698l13.013,13.015c1.014,1.012,2.762,1.086,3.694,0.153l26.399-26.396
			c0.391-1.278-1.262-8.111-3.093-14.019C40.77,4.286,32.767,2,29.687,2C29.339,2,29.164,2.031,29.092,2.05z"/>
		<path d="M34.614,18.868c-1.461,0-2.836-0.569-3.872-1.602c-1.035-1.035-1.605-2.41-1.605-3.874c0-1.464,0.57-2.84,1.604-3.875
			c1.037-1.035,2.412-1.604,3.874-1.604c1.461,0,2.837,0.569,3.873,1.604c1.037,1.037,1.606,2.415,1.605,3.879
			c-0.001,1.463-0.572,2.837-1.608,3.87C37.45,18.299,36.076,18.868,34.614,18.868z M34.615,9.914c-0.929,0-1.802,0.362-2.461,1.019
			c-0.655,0.656-1.018,1.53-1.018,2.46c0,0.929,0.362,1.802,1.019,2.458c1.314,1.313,3.602,1.313,4.918,0
			c0.657-0.656,1.02-1.528,1.021-2.457c0.001-0.93-0.361-1.804-1.019-2.462C36.417,10.275,35.543,9.914,34.615,9.914z"/>
	</g>
	<g>
		<path d="M13.635,38.26c0.526-0.127,1.171-0.436,1.676-0.939c0.745-0.75,0.785-1.577,0.214-2.147
			c-0.528-0.526-1.131-0.526-2.188-0.063c-1.249,0.601-2.296,0.691-3.096-0.105c-0.881-0.878-0.805-2.268,0.294-3.363
			c0.582-0.58,1.136-0.865,1.529-0.974l0.391,0.798c-0.284,0.082-0.826,0.292-1.338,0.803c-0.775,0.773-0.606,1.529-0.225,1.918
			c0.532,0.526,1.138,0.438,2.218-0.039c1.328-0.586,2.276-0.608,3.107,0.22c0.872,0.875,0.979,2.274-0.354,3.61
			c-0.544,0.545-1.298,0.979-1.802,1.08L13.635,38.26z"/>
		<path d="M17.898,32.216l1.189,2.364l-0.753,0.754l-3.736-7.576l0.881-0.878l7.588,3.726l-0.786,0.778l-2.375-1.174L17.898,32.216z
			 M19.18,29.79l-2.183-1.074c-0.494-0.241-0.91-0.497-1.322-0.737l-0.019,0.017c0.247,0.422,0.503,0.854,0.738,1.312l1.079,2.188
			L19.18,29.79z"/>
		<path d="M18.247,24.111l0.727-0.729l5.044,5.045l2.419-2.418l0.61,0.612l-3.147,3.145L18.247,24.111z"/>
		<path d="M28.139,20.226l-2.193,2.198l2.037,2.04l2.449-2.45l0.61,0.611l-3.179,3.18l-5.659-5.656l3.06-3.055l0.612,0.616
			l-2.324,2.323l1.787,1.784l2.201-2.197L28.139,20.226z"/>
	</g>
</g>
</svg>
