<?xml version="1.0" encoding="utf-8"?>
<!-- Generator: Adobe Illustrator 16.0.0, SVG Export Plug-In . SVG Version: 6.00 Build 0)  -->
<!DOCTYPE svg PUBLIC "-//W3C//DTD SVG 1.1//EN" "http://www.w3.org/Graphics/SVG/1.1/DTD/svg11.dtd">
<svg version="1.1" id="Layer_1" xmlns="http://www.w3.org/2000/svg" xmlns:xlink="http://www.w3.org/1999/xlink" x="0px" y="0px"
	 width="48px" height="48px" viewBox="0 0 48 48" enable-background="new 0 0 48 48" xml:space="preserve">
<g>
	<g>
		<g>
			<path d="M45,45.094H3c-1.654,0-3-1.346-3-3V19.995c0-1.654,1.346-3,3-3h42c1.654,0,3,1.346,3,3v22.099
				C48,43.748,46.654,45.094,45,45.094z M3,18.995c-0.551,0-1,0.449-1,1v22.099c0,0.552,0.449,1,1,1h42c0.552,0,1-0.448,1-1V19.995
				c0-0.551-0.448-1-1-1H3z"/>
		</g>
		<path d="M39.663,18.702L27.177,6.215c-0.844-0.845-1.972-1.31-3.176-1.31h0c-1.204,0-2.332,0.464-3.175,1.309L8.338,18.702
			l-1.414-1.414L19.411,4.8C20.632,3.578,22.262,2.905,24,2.905h0c1.739,0,3.369,0.673,4.59,1.896l12.486,12.487L39.663,18.702z"/>
	</g>
	<g>
		<path d="M15.624,30.989c0,3.784-2.295,5.79-5.106,5.79c-2.904,0-4.938-2.25-4.938-5.579c0-3.49,2.165-5.774,5.105-5.774
			C13.687,25.426,15.624,27.727,15.624,30.989z M7.095,31.168c0,2.35,1.269,4.454,3.507,4.454c2.249,0,3.525-2.069,3.525-4.569
			c0-2.185-1.146-4.469-3.508-4.469C8.269,26.584,7.095,28.754,7.095,31.168z"/>
		<path d="M17.468,25.736c0.687-0.113,1.581-0.213,2.727-0.213c1.403,0,2.428,0.326,3.083,0.914
			c0.603,0.521,0.961,1.322,0.961,2.299c0,0.996-0.293,1.779-0.848,2.35c-0.75,0.8-1.974,1.208-3.365,1.208
			c-0.421,0-0.81-0.019-1.139-0.099V36.6h-1.419V25.736z M18.887,31.038c0.311,0.08,0.705,0.114,1.177,0.114
			c1.711,0,2.754-0.834,2.754-2.351c0-1.452-1.025-2.153-2.595-2.153c-0.619,0-1.091,0.052-1.336,0.115V31.038z"/>
		<path d="M31.84,31.447h-4.277v3.963h4.768V36.6h-6.182V25.605h5.937v1.19h-4.522v3.474h4.278L31.84,31.447L31.84,31.447z"/>
		<path d="M34.173,36.602V25.605h1.544l3.526,5.563c0.817,1.288,1.45,2.446,1.974,3.572l0.03-0.018
			c-0.132-1.466-0.161-2.807-0.161-4.517v-4.603h1.337V36.6h-1.432l-3.497-5.58c-0.764-1.224-1.495-2.479-2.051-3.67l-0.049,0.017
			c0.078,1.387,0.113,2.708,0.113,4.534V36.6h-1.335V36.602z"/>
	</g>
</g>
</svg>
