<?xml version="1.0" encoding="utf-8"?>
<!-- Generator: Adobe Illustrator 16.0.0, SVG Export Plug-In . SVG Version: 6.00 Build 0)  -->
<!DOCTYPE svg PUBLIC "-//W3C//DTD SVG 1.1//EN" "http://www.w3.org/Graphics/SVG/1.1/DTD/svg11.dtd">
<svg version="1.1" id="Layer_1" xmlns="http://www.w3.org/2000/svg" xmlns:xlink="http://www.w3.org/1999/xlink" x="0px" y="0px"
	 width="48px" height="48px" viewBox="0 0 48 48" enable-background="new 0 0 48 48" xml:space="preserve">
<g>
	<g>
		<g>
			<path d="M45,45.093H3c-1.654,0-3-1.346-3-3V19.994c0-1.654,1.346-3,3-3h42c1.654,0,3,1.346,3,3v22.099
				C48,43.747,46.654,45.093,45,45.093z M3,18.994c-0.551,0-1,0.449-1,1v22.099c0,0.552,0.449,1,1,1h42c0.552,0,1-0.448,1-1V19.994
				c0-0.551-0.448-1-1-1H3z"/>
		</g>
		<path d="M8.338,18.701l-1.414-1.414L19.408,4.801c1.222-1.221,2.852-1.894,4.59-1.894c0,0,0,0,0,0c1.738,0,3.369,0.673,4.59,1.895
			l12.485,12.484L39.66,18.7L27.175,6.216c-1.752-1.752-4.601-1.75-6.353-0.001L8.338,18.701z"/>
	</g>
	<g>
		<path d="M12.826,35.277c-0.452,0.228-1.348,0.449-2.5,0.449c-2.667,0-4.67-1.684-4.67-4.781c0-2.961,2.004-4.967,4.94-4.967
			c1.175,0,1.92,0.252,2.243,0.42l-0.292,0.996c-0.465-0.225-1.128-0.394-1.909-0.394c-2.22,0-3.694,1.417-3.694,3.899
			c0,2.314,1.336,3.802,3.633,3.802c0.747,0,1.505-0.152,1.993-0.392L12.826,35.277z"/>
		<path d="M14.359,26.134h1.223v8.431h4.04v1.023h-5.263V26.134z"/>
		<path d="M28.516,30.761c0,3.259-1.98,4.98-4.391,4.98c-2.498,0-4.252-1.937-4.252-4.796c0-3.002,1.866-4.967,4.39-4.967
			C26.844,25.979,28.516,27.957,28.516,30.761z M21.178,30.916c0,2.02,1.097,3.83,3.019,3.83c1.932,0,3.03-1.781,3.03-3.928
			c0-1.881-0.983-3.844-3.021-3.844C22.187,26.977,21.178,28.84,21.178,30.916z"/>
		<path d="M29.941,34.102c0.543,0.338,1.342,0.617,2.188,0.617c1.246,0,1.974-0.66,1.974-1.613c0-0.885-0.502-1.391-1.775-1.879
			c-1.545-0.549-2.5-1.348-2.5-2.682c0-1.475,1.224-2.566,3.061-2.566c0.965,0,1.662,0.226,2.088,0.463l-0.334,0.996
			c-0.312-0.17-0.943-0.448-1.795-0.448c-1.295,0-1.783,0.771-1.783,1.415c0,0.887,0.572,1.32,1.877,1.826
			c1.601,0.617,2.412,1.388,2.412,2.776c0,1.457-1.082,2.722-3.313,2.722c-0.907,0-1.902-0.268-2.41-0.603L29.941,34.102z"/>
		<path d="M41.926,31.154h-3.674v3.408h4.09v1.024h-5.313v-9.454h5.105v1.021h-3.884v2.986h3.674L41.926,31.154L41.926,31.154z"/>
	</g>
</g>
</svg>
