<?xml version="1.0" encoding="utf-8"?>
<!-- Generator: Adobe Illustrator 16.0.0, SVG Export Plug-In . SVG Version: 6.00 Build 0)  -->
<!DOCTYPE svg PUBLIC "-//W3C//DTD SVG 1.1//EN" "http://www.w3.org/Graphics/SVG/1.1/DTD/svg11.dtd">
<svg version="1.1" id="Layer_1" xmlns="http://www.w3.org/2000/svg" xmlns:xlink="http://www.w3.org/1999/xlink" x="0px" y="0px"
	 width="48px" height="48px" viewBox="0 0 48 48" enable-background="new 0 0 48 48" xml:space="preserve">
<g>
	<path d="M30.548,47.766c-0.213,0-0.422-0.067-0.597-0.197L24,43.145l-5.951,4.424c-0.252,0.188-0.578,0.246-0.878,0.156
		c-0.301-0.088-0.543-0.313-0.654-0.606l-2.612-6.938l-7.396,0.506c-0.317,0.017-0.618-0.105-0.824-0.343
		c-0.206-0.237-0.288-0.558-0.222-0.864l1.553-7.251l-6.497-3.572c-0.275-0.151-0.463-0.423-0.508-0.733s0.059-0.624,0.28-0.848
		l5.226-5.262l-3.534-6.52c-0.149-0.276-0.161-0.606-0.03-0.892s0.388-0.493,0.694-0.561l7.237-1.598l0.558-7.394
		c0.023-0.313,0.193-0.597,0.457-0.766c0.265-0.169,0.593-0.205,0.887-0.097l6.952,2.567l4.465-5.92
		c0.189-0.25,0.484-0.398,0.798-0.398l0,0c0.314,0,0.609,0.147,0.799,0.398l4.463,5.92l6.954-2.567
		c0.295-0.108,0.622-0.073,0.888,0.097c0.264,0.169,0.433,0.454,0.456,0.767l0.556,7.394l7.241,1.598
		c0.307,0.068,0.563,0.275,0.693,0.561c0.131,0.286,0.119,0.616-0.03,0.892l-3.536,6.52l5.227,5.262
		c0.221,0.224,0.324,0.537,0.28,0.848c-0.045,0.311-0.233,0.582-0.509,0.733l-6.496,3.572l1.553,7.251
		c0.066,0.307-0.017,0.627-0.222,0.864c-0.205,0.236-0.501,0.354-0.824,0.343l-7.397-0.506l-2.611,6.938
		c-0.11,0.294-0.353,0.519-0.653,0.606C30.737,47.752,30.643,47.766,30.548,47.766z M14.579,38.131c0.414,0,0.788,0.256,0.936,0.647
		l2.406,6.394l5.483-4.076c0.354-0.264,0.839-0.264,1.193,0l5.482,4.075l2.406-6.393c0.155-0.413,0.545-0.661,1.004-0.646
		l6.815,0.467l-1.431-6.681c-0.093-0.432,0.108-0.872,0.496-1.085l5.985-3.292l-4.815-4.848c-0.311-0.313-0.38-0.793-0.169-1.181
		l3.258-6.006l-6.671-1.472c-0.431-0.095-0.748-0.461-0.781-0.902L35.665,6.32l-6.407,2.365c-0.414,0.152-0.88,0.016-1.146-0.336
		L24,2.895l-4.114,5.455c-0.266,0.352-0.732,0.488-1.145,0.336L12.336,6.32l-0.514,6.813c-0.033,0.44-0.351,0.806-0.782,0.901
		l-6.667,1.472l3.256,6.006c0.21,0.388,0.141,0.868-0.17,1.181l-4.815,4.848l5.985,3.292c0.387,0.213,0.588,0.653,0.496,1.085
		L7.696,38.6l6.814-0.467C14.533,38.132,14.556,38.131,14.579,38.131z"/>
	<g>
		<path d="M12.701,29.264v-8.868h1.248l2.843,4.486c0.66,1.041,1.172,1.974,1.591,2.88l0.026-0.01
			c-0.104-1.188-0.131-2.266-0.131-3.646v-3.711h1.079v8.869H18.2l-2.815-4.5c-0.618-0.989-1.213-2-1.656-2.963l-0.042,0.013
			c0.065,1.119,0.093,2.186,0.093,3.657v3.791h-1.079V29.264z"/>
		<path d="M25.949,25.105h-3.448v3.195h3.842v0.963h-4.987v-8.869h4.791v0.961h-3.646v2.801h3.448V25.105z"/>
		<path d="M29.393,29.264l-2.25-8.868h1.207l1.057,4.486c0.261,1.107,0.496,2.211,0.656,3.067h0.025
			c0.146-0.883,0.42-1.936,0.725-3.078l1.185-4.475h1.196l1.078,4.499c0.25,1.054,0.486,2.107,0.619,3.041h0.025
			c0.186-0.975,0.438-1.961,0.71-3.063l1.172-4.475h1.168l-2.509,8.869H34.26l-1.121-4.621c-0.273-1.13-0.457-1.999-0.576-2.893
			h-0.026c-0.158,0.88-0.354,1.749-0.685,2.893l-1.263,4.621h-1.196V29.264z"/>
	</g>
</g>
</svg>
