<?xml version="1.0" encoding="utf-8"?>
<!-- Generator: Adobe Illustrator 16.0.0, SVG Export Plug-In . SVG Version: 6.00 Build 0)  -->
<!DOCTYPE svg PUBLIC "-//W3C//DTD SVG 1.1//EN" "http://www.w3.org/Graphics/SVG/1.1/DTD/svg11.dtd">
<svg version="1.1" id="Layer_1" xmlns="http://www.w3.org/2000/svg" xmlns:xlink="http://www.w3.org/1999/xlink" x="0px" y="0px"
	 width="48px" height="48px" viewBox="0 0 48 48" enable-background="new 0 0 48 48" xml:space="preserve">
<g>
	<path d="M40.712,42.794H7.287C3.269,42.794,0,39.524,0,35.506V12.495c0-4.019,3.269-7.289,7.287-7.289h33.425
		c4.019,0,7.288,3.27,7.288,7.289v23.011C48,39.524,44.73,42.794,40.712,42.794z M7.287,7.206C4.372,7.206,2,9.579,2,12.495v23.011
		c0,2.916,2.372,5.288,5.287,5.288h33.425c2.916,0,5.288-2.372,5.288-5.288V12.495c0-2.917-2.372-5.289-5.288-5.289H7.287z"/>
	<g>
		<path d="M11.572,36.243c-0.552,0-1-0.447-1-1V12.758c0-0.552,0.448-1,1-1s1,0.448,1,1v22.485
			C12.572,35.796,12.124,36.243,11.572,36.243z"/>
		<path d="M24.001,36.243c-0.552,0-1-0.447-1-1V12.758c0-0.552,0.448-1,1-1c0.553,0,1,0.448,1,1v22.485
			C25.001,35.796,24.554,36.243,24.001,36.243z"/>
		<path d="M36.427,36.243c-0.553,0-1-0.447-1-1V12.758c0-0.552,0.447-1,1-1s1,0.448,1,1v22.485
			C37.427,35.796,36.979,36.243,36.427,36.243z"/>
	</g>
</g>
</svg>
