<?xml version="1.0" encoding="utf-8"?>
<!-- Generator: Adobe Illustrator 16.0.0, SVG Export Plug-In . SVG Version: 6.00 Build 0)  -->
<!DOCTYPE svg PUBLIC "-//W3C//DTD SVG 1.1//EN" "http://www.w3.org/Graphics/SVG/1.1/DTD/svg11.dtd">
<svg version="1.1" id="Layer_1" xmlns="http://www.w3.org/2000/svg" xmlns:xlink="http://www.w3.org/1999/xlink" x="0px" y="0px"
	 width="48px" height="48px" viewBox="0 0 48 48" enable-background="new 0 0 48 48" xml:space="preserve">
<g>
	<path d="M40.713,40.445H7.285C3.268,40.445,0,37.176,0,33.156v-23.01c0-4.019,3.268-7.289,7.285-7.289h33.428
		c4.019,0,7.287,3.27,7.287,7.289v23.01C48,37.176,44.731,40.445,40.713,40.445z M7.285,4.857C4.371,4.857,2,7.229,2,10.146v23.01
		c0,2.916,2.371,5.289,5.285,5.289h33.428c2.915,0,5.287-2.373,5.287-5.289v-23.01c0-2.917-2.372-5.289-5.287-5.289H7.285z"/>
	<path d="M11.569,33.893c-0.552,0-1-0.447-1-1V10.407c0-0.552,0.448-1,1-1s1,0.448,1,1v22.485
		C12.569,33.445,12.121,33.893,11.569,33.893z"/>
	<path d="M24,20.334c-0.552,0-1-0.448-1-1v-8.927c0-0.552,0.448-1,1-1c0.553,0,1,0.448,1,1v8.927C25,19.886,24.553,20.334,24,20.334
		z"/>
	<path d="M36.43,19.205c-0.553,0-1-0.448-1-1v-7.798c0-0.552,0.447-1,1-1s1,0.448,1,1v7.798
		C37.43,18.757,36.982,19.205,36.43,19.205z"/>
	<path d="M30.299,36.229c-5.646,0-10.24-4.594-10.24-10.239c0-5.646,4.593-10.24,10.24-10.24s10.24,4.594,10.24,10.24
		C40.539,31.635,35.945,36.229,30.299,36.229z M30.299,17.749c-4.543,0-8.24,3.697-8.24,8.24c0,4.543,3.697,8.239,8.24,8.239
		c4.544,0,8.24-3.696,8.24-8.239C38.539,21.446,34.843,17.749,30.299,17.749z"/>
	<path d="M43.628,45.145c-0.312,0-0.619-0.146-0.814-0.418l-7.378-10.309c-0.321-0.449-0.218-1.074,0.231-1.396
		c0.451-0.32,1.074-0.217,1.396,0.231l7.378,10.309c0.321,0.449,0.218,1.074-0.231,1.396C44.032,45.084,43.829,45.145,43.628,45.145
		z"/>
</g>
</svg>
