<?xml version="1.0" encoding="utf-8"?>
<!-- Generator: Adobe Illustrator 16.0.0, SVG Export Plug-In . SVG Version: 6.00 Build 0)  -->
<!DOCTYPE svg PUBLIC "-//W3C//DTD SVG 1.1//EN" "http://www.w3.org/Graphics/SVG/1.1/DTD/svg11.dtd">
<svg version="1.1" id="Layer_1" xmlns="http://www.w3.org/2000/svg" xmlns:xlink="http://www.w3.org/1999/xlink" x="0px" y="0px"
	 width="48px" height="48px" viewBox="0 0 48 48" enable-background="new 0 0 48 48" xml:space="preserve">
<g>
	<path d="M40.898,45.848H7.107l-0.003-1l0.003-1h33.792c2.813,0,5.102-2.289,5.102-5.104V20.113c0-2.814-2.288-5.104-5.102-5.104
		H7.107C4.291,15.009,2,17.298,2,20.113v18.631c0,1.356,0.533,2.636,1.5,3.604c0.967,0.968,2.247,1.5,3.603,1.5v2
		c-1.89,0-3.672-0.74-5.017-2.086C0.741,42.416,0,40.635,0,38.744V20.113c0-3.917,3.188-7.104,7.107-7.104h33.792
		c3.916,0,7.102,3.187,7.102,7.104v18.631C48,42.661,44.814,45.848,40.898,45.848z"/>
	<path d="M4.837,15.456c-0.392,0-0.765-0.232-0.924-0.617c-0.211-0.51,0.03-1.095,0.541-1.307L30.706,2.639
		c0.143-0.055,2.917-1.088,5.239,0.043c1.229,0.599,2.085,1.66,2.546,3.153c1.479,4.799,2.502,7.823,2.513,7.853
		c0.177,0.523-0.104,1.091-0.626,1.268c-0.521,0.178-1.091-0.102-1.269-0.625c-0.01-0.03-1.042-3.078-2.529-7.906
		c-0.294-0.954-0.786-1.589-1.504-1.941c-1.536-0.754-3.613,0.006-3.634,0.015L5.22,15.379C5.095,15.431,4.965,15.456,4.837,15.456z
		"/>
	<path d="M37.743,34.282c-2.676,0-4.853-2.176-4.853-4.851c0-2.676,2.177-4.853,4.853-4.853c2.675,0,4.851,2.177,4.851,4.853
		C42.594,32.106,40.418,34.282,37.743,34.282z M37.743,26.579c-1.573,0-2.853,1.279-2.853,2.853c0,1.572,1.279,2.851,2.853,2.851
		c1.572,0,2.851-1.278,2.851-2.851C40.594,27.858,39.315,26.579,37.743,26.579z"/>
</g>
</svg>
