<?xml version="1.0" encoding="utf-8"?>
<!-- Generator: Adobe Illustrator 16.0.0, SVG Export Plug-In . SVG Version: 6.00 Build 0)  -->
<!DOCTYPE svg PUBLIC "-//W3C//DTD SVG 1.1//EN" "http://www.w3.org/Graphics/SVG/1.1/DTD/svg11.dtd">
<svg version="1.1" id="Layer_1" xmlns="http://www.w3.org/2000/svg" xmlns:xlink="http://www.w3.org/1999/xlink" x="0px" y="0px"
	 width="48px" height="48px" viewBox="0 0 48 48" enable-background="new 0 0 48 48" xml:space="preserve">
<g>
	<path d="M31.188,10.61c-7.906,0-16.415-1.66-16.415-5.304C14.773,1.661,23.282,0,31.188,0c7.906,0,16.416,1.661,16.416,5.306
		C47.604,8.95,39.094,10.61,31.188,10.61z M31.188,2c-8.942,0-14.415,2.141-14.415,3.306c0,1.165,5.473,3.304,14.415,3.304
		c9.328,0,14.416-2.183,14.416-3.304C45.604,4.184,40.516,2,31.188,2z"/>
	<path d="M31.188,18.251c-1.629,0-3.227-0.069-4.751-0.205c-0.084-0.007-9.498-1.048-10.051-1.495
		c-0.43-0.347-0.497-0.977-0.149-1.406c0.27-0.334,0.71-0.449,1.094-0.32c0.831,0.171,8.576,1.156,9.29,1.23
		c1.459,0.13,2.998,0.197,4.567,0.197c9.328,0,14.416-2.185,14.416-3.307c0-0.552,0.447-1,1-1s1,0.448,1,1
		C47.604,16.59,39.094,18.251,31.188,18.251z"/>
	<path d="M31.926,26.596c-0.547,0-0.993-0.439-1-0.987c-0.007-0.552,0.435-1.006,0.987-1.013c8.858-0.114,13.69-2.24,13.69-3.301
		c0-0.552,0.447-1,1-1s1,0.448,1,1c0,3.503-8.12,5.203-15.665,5.301C31.935,26.596,31.93,26.596,31.926,26.596z"/>
	<path d="M32.165,34.943c-0.545,0-0.99-0.437-1-0.982c-0.01-0.553,0.431-1.008,0.982-1.018c8.707-0.149,13.456-2.257,13.456-3.297
		c0-0.553,0.447-1,1-1s1,0.447,1,1c0,3.476-7.745,5.165-15.421,5.297C32.177,34.943,32.171,34.943,32.165,34.943z"/>
	<path d="M15.773,17.416c-0.552,0-1-0.448-1-1V6.665c0-0.552,0.448-1,1-1s1,0.448,1,1v9.751
		C16.773,16.968,16.325,17.416,15.773,17.416z"/>
	<path d="M46.604,30.527c-0.553,0-1-0.447-1-1V6.665c0-0.552,0.447-1,1-1s1,0.448,1,1v22.862
		C47.604,30.08,47.156,30.527,46.604,30.527z"/>
	<path d="M16.602,48C7.667,48,0.398,40.73,0.398,31.794c0-8.936,7.269-16.206,16.204-16.206c8.937,0,16.208,7.27,16.208,16.206
		C32.811,40.73,25.539,48,16.602,48z M16.602,17.588c-7.832,0-14.204,6.373-14.204,14.206S8.77,46,16.602,46
		c7.834,0,14.208-6.373,14.208-14.206S24.437,17.588,16.602,17.588z"/>
	<g>
		<path d="M15.79,41.621v-2.417c-1.388-0.022-2.825-0.454-3.657-1.054l0.569-1.604c0.864,0.574,2.106,1.029,3.446,1.029
			c1.702,0,2.852-0.982,2.852-2.349c0-1.314-0.931-2.127-2.702-2.849c-2.444-0.956-3.953-2.058-3.953-4.144
			c0-1.986,1.409-3.492,3.611-3.854v-2.417h1.484v2.323c1.438,0.045,2.417,0.429,3.115,0.837l-0.598,1.58
			c-0.504-0.288-1.48-0.813-3.015-0.813c-1.848,0-2.539,1.103-2.539,2.057c0,1.246,0.884,1.867,2.972,2.729
			c2.46,1.007,3.709,2.249,3.709,4.382c0,1.893-1.317,3.66-3.785,4.07v2.488H15.79V41.621z"/>
	</g>
</g>
</svg>
