<?xml version="1.0" encoding="utf-8"?>
<!-- Generator: Adobe Illustrator 16.0.0, SVG Export Plug-In . SVG Version: 6.00 Build 0)  -->
<!DOCTYPE svg PUBLIC "-//W3C//DTD SVG 1.1//EN" "http://www.w3.org/Graphics/SVG/1.1/DTD/svg11.dtd">
<svg version="1.1" id="Layer_1" xmlns="http://www.w3.org/2000/svg" xmlns:xlink="http://www.w3.org/1999/xlink" x="0px" y="0px"
	 width="48px" height="48px" viewBox="0 0 48 48" enable-background="new 0 0 48 48" xml:space="preserve">
<g>
	<g>
		<path d="M23.815,41.636c-0.196,0-0.394-0.058-0.568-0.178L10.66,32.756c-0.454-0.313-0.568-0.937-0.254-1.391
			c0.314-0.455,0.936-0.569,1.392-0.254l12.587,8.702c0.454,0.313,0.567,0.937,0.254,1.391
			C24.444,41.485,24.132,41.636,23.815,41.636z"/>
		<path d="M22.47,48c-0.206,0-0.41-0.063-0.583-0.188L5.864,36.333H2.051c-0.552,0-1-0.447-1-1s0.448-1,1-1h4.134
			c0.209,0,0.413,0.065,0.583,0.188l15.816,11.331L39.15,38.36c0.504-0.228,1.096-0.004,1.323,0.499s0.004,1.096-0.499,1.323
			l-17.092,7.729C22.75,47.971,22.61,48,22.47,48z"/>
	</g>
	<g>
		<path d="M20.716,29.506c-0.199,0-0.399-0.008-0.601-0.025c-3.867-0.333-6.743-3.751-6.413-7.619
			c0.325-3.81,3.723-6.735,7.614-6.413c1.874,0.162,3.572,1.042,4.784,2.48c1.213,1.44,1.791,3.264,1.628,5.137
			C27.421,26.677,24.341,29.506,20.716,29.506z M20.713,17.424c-2.593,0-4.796,2.024-5.017,4.608
			c-0.237,2.77,1.822,5.218,4.589,5.457c2.745,0.222,5.218-1.865,5.451-4.593c0.116-1.341-0.298-2.647-1.165-3.677
			c-0.868-1.03-2.084-1.661-3.425-1.776C21.001,17.43,20.856,17.424,20.713,17.424z"/>
		<path d="M39.927,31.146c-0.203,0-0.407-0.009-0.612-0.026c-3.867-0.33-6.746-3.746-6.416-7.614
			c0.324-3.812,3.73-6.749,7.614-6.416c3.867,0.333,6.743,3.75,6.41,7.618C46.62,28.317,43.547,31.146,39.927,31.146z
			 M39.907,19.064c-2.593,0-4.796,2.025-5.017,4.611c-0.235,2.77,1.825,5.215,4.595,5.452c2.78,0.245,5.217-1.858,5.445-4.59
			c0.238-2.771-1.82-5.217-4.589-5.455C40.196,19.071,40.051,19.064,39.907,19.064z"/>
		<path d="M31.831,14.081c-0.202,0-0.405-0.008-0.61-0.026c-1.872-0.16-3.57-1.041-4.781-2.479c-1.21-1.438-1.788-3.261-1.627-5.134
			c0.321-3.809,3.72-6.736,7.608-6.415c1.88,0.161,3.582,1.044,4.795,2.486C38.425,3.95,39,5.772,38.837,7.643
			C38.528,11.252,35.451,14.081,31.831,14.081z M31.817,2.001c-2.592,0-4.794,2.025-5.013,4.61
			c-0.115,1.342,0.299,2.647,1.165,3.676s2.082,1.66,3.422,1.774c2.775,0.241,5.219-1.861,5.453-4.591
			c0.116-1.34-0.295-2.643-1.16-3.671c-0.868-1.032-2.088-1.665-3.434-1.78C32.105,2.007,31.961,2.001,31.817,2.001z"/>
	</g>
</g>
</svg>
