<?xml version="1.0" encoding="utf-8"?>
<!-- Generator: Adobe Illustrator 16.0.0, SVG Export Plug-In . SVG Version: 6.00 Build 0)  -->
<!DOCTYPE svg PUBLIC "-//W3C//DTD SVG 1.1//EN" "http://www.w3.org/Graphics/SVG/1.1/DTD/svg11.dtd">
<svg version="1.1" id="Layer_1" xmlns="http://www.w3.org/2000/svg" xmlns:xlink="http://www.w3.org/1999/xlink" x="0px" y="0px"
	 width="48px" height="48px" viewBox="0 0 48 48" enable-background="new 0 0 48 48" xml:space="preserve">
<g>
	<g>
		<path d="M46,37.037H2c-1.103,0-2-0.897-2-2V12.963c0-1.103,0.897-2,2-2h44c1.103,0,2,0.897,2,2v22.074
			C48,36.14,47.103,37.037,46,37.037z M46,35.037v1V35.037L46,35.037L46,35.037z M2,12.963v22.074h43.997L46,12.963H2z"/>
	</g>
	<path d="M23.999,31.918c-4.368,0-7.921-3.551-7.921-7.916c0-4.367,3.553-7.92,7.921-7.92c4.369,0,7.924,3.553,7.924,7.92
		C31.923,28.367,28.368,31.918,23.999,31.918z M23.999,18.082c-3.265,0-5.921,2.656-5.921,5.92c0,3.262,2.656,5.916,5.921,5.916
		c3.267,0,5.924-2.654,5.924-5.916C29.923,20.738,27.266,18.082,23.999,18.082z"/>
	<g>
		<circle cx="8.331" cy="24.002" r="1.954"/>
		<circle cx="39.67" cy="24.002" r="1.953"/>
	</g>
</g>
</svg>
