<?xml version="1.0" encoding="utf-8"?>
<!-- Generator: Adobe Illustrator 16.0.0, SVG Export Plug-In . SVG Version: 6.00 Build 0)  -->
<!DOCTYPE svg PUBLIC "-//W3C//DTD SVG 1.1//EN" "http://www.w3.org/Graphics/SVG/1.1/DTD/svg11.dtd">
<svg version="1.1" id="Layer_1" xmlns="http://www.w3.org/2000/svg" xmlns:xlink="http://www.w3.org/1999/xlink" x="0px" y="0px"
	 width="48px" height="48px" viewBox="0 0 48 48" enable-background="new 0 0 48 48" xml:space="preserve">
<g>
	<g>
		<path d="M46,25.689H2c-0.593,0-1.112-0.256-1.424-0.703s-0.373-1.023-0.168-1.581L5.875,8.601
			c0.334-0.907,1.316-1.592,2.284-1.592h31.262c0.958,0,1.945,0.672,2.298,1.563l5.845,14.82c0.22,0.557,0.169,1.135-0.139,1.586
			C47.118,25.431,46.599,25.689,46,25.689z M46,23.689v1l0.002-1C46.002,23.689,46.001,23.689,46,23.689z M2.435,23.689H45.53
			L39.857,9.306c-0.051-0.13-0.296-0.297-0.437-0.297H8.159c-0.13,0-0.363,0.162-0.408,0.284L2.435,23.689z"/>
	</g>
	<path d="M23.934,21.928c-2.134,0-4.089-0.808-5.364-2.217c-1.006-1.111-1.483-2.492-1.344-3.887
		c0.304-2.886,3.139-5.058,6.596-5.058c3.454,0.001,6.332,2.165,6.696,5.032c0.181,1.395-0.26,2.78-1.242,3.898
		C28.029,21.115,26.083,21.928,23.934,21.928z M23.821,12.766c-2.39,0-4.413,1.433-4.605,3.262
		c-0.082,0.821,0.215,1.654,0.837,2.341c0.896,0.99,2.311,1.559,3.881,1.559c1.574,0,2.973-0.566,3.839-1.552
		c0.422-0.48,0.896-1.274,0.761-2.323C28.3,14.209,26.23,12.767,23.821,12.766z"/>
	<g>
		<path d="M12.361,15.009c-0.16,0.736-1.042,1.351-1.975,1.351c-0.933,0-1.512-0.614-1.305-1.351c0.2-0.717,1.076-1.288,1.957-1.288
			C11.923,13.721,12.521,14.292,12.361,15.009z"/>
		<path d="M38.667,15.009c0.228,0.736-0.343,1.351-1.271,1.351c-0.929,0-1.836-0.614-2.012-1.351
			c-0.166-0.717,0.406-1.288,1.29-1.288C37.557,13.721,38.448,14.292,38.667,15.009z"/>
	</g>
	<path d="M45.45,30.752H2.548c-0.552,0-1-0.447-1-1s0.448-1,1-1H45.45c0.553,0,1,0.447,1,1S46.003,30.752,45.45,30.752z"/>
	<path d="M45.45,35.871H2.548c-0.552,0-1-0.447-1-1s0.448-1,1-1H45.45c0.553,0,1,0.447,1,1S46.003,35.871,45.45,35.871z"/>
	<path d="M45.45,40.991H2.548c-0.552,0-1-0.447-1-1s0.448-1,1-1H45.45c0.553,0,1,0.447,1,1S46.003,40.991,45.45,40.991z"/>
</g>
</svg>
