<?xml version="1.0" encoding="utf-8"?>
<!-- Generator: Adobe Illustrator 16.0.0, SVG Export Plug-In . SVG Version: 6.00 Build 0)  -->
<!DOCTYPE svg PUBLIC "-//W3C//DTD SVG 1.1//EN" "http://www.w3.org/Graphics/SVG/1.1/DTD/svg11.dtd">
<svg version="1.1" id="Layer_1" xmlns="http://www.w3.org/2000/svg" xmlns:xlink="http://www.w3.org/1999/xlink" x="0px" y="0px"
	 width="48px" height="48px" viewBox="0 0 48 48" enable-background="new 0 0 48 48" xml:space="preserve">
<g>
	<g>
		<path d="M44.999,48H3.001c-1.654,0-3-1.346-3-3V3c0-1.654,1.346-3,3-3h41.998c1.654,0,3,1.346,3,3v42
			C47.999,46.654,46.653,48,44.999,48z M3.001,2c-0.551,0-1,0.449-1,1v42c0,0.552,0.449,1,1,1h41.998c0.552,0,1-0.448,1-1V3
			c0-0.551-0.448-1-1-1H3.001z"/>
	</g>
	<g>
		<path d="M18.543,15.944H8.409c-0.552,0-1-0.448-1-1s0.448-1,1-1h10.134c0.552,0,1,0.448,1,1S19.095,15.944,18.543,15.944z"/>
		<g>
			<path d="M18.543,33.143H8.409c-0.552,0-1-0.447-1-1s0.448-1,1-1h10.134c0.552,0,1,0.447,1,1S19.095,33.143,18.543,33.143z"/>
			<path d="M18.543,37.936H8.409c-0.552,0-1-0.447-1-1s0.448-1,1-1h10.134c0.552,0,1,0.447,1,1S19.095,37.936,18.543,37.936z"/>
		</g>
		<g>
			<path d="M39.591,15.944h-10.13c-0.553,0-1-0.448-1-1s0.447-1,1-1h10.13c0.553,0,1,0.448,1,1S40.144,15.944,39.591,15.944z"/>
			<path d="M34.523,21.011c-0.553,0-1-0.448-1-1V9.877c0-0.552,0.447-1,1-1s1,0.448,1,1v10.134
				C35.523,20.563,35.076,21.011,34.523,21.011z"/>
		</g>
		<g>
			<path d="M38.109,39.12c-0.256,0-0.512-0.098-0.707-0.293l-7.168-7.165c-0.391-0.391-0.391-1.023,0-1.414s1.023-0.391,1.414,0
				l7.168,7.165c0.391,0.391,0.391,1.023,0,1.414C38.621,39.022,38.365,39.12,38.109,39.12z"/>
			<path d="M30.941,39.121c-0.256,0-0.512-0.098-0.707-0.293c-0.391-0.391-0.391-1.023,0-1.414l7.168-7.166
				c0.391-0.391,1.023-0.391,1.414,0s0.391,1.023,0,1.414l-7.168,7.166C31.453,39.023,31.197,39.121,30.941,39.121z"/>
		</g>
	</g>
</g>
</svg>
