<?xml version="1.0" encoding="utf-8"?>
<!-- Generator: Adobe Illustrator 16.0.0, SVG Export Plug-In . SVG Version: 6.00 Build 0)  -->
<!DOCTYPE svg PUBLIC "-//W3C//DTD SVG 1.1//EN" "http://www.w3.org/Graphics/SVG/1.1/DTD/svg11.dtd">
<svg version="1.1" id="Layer_1" xmlns="http://www.w3.org/2000/svg" xmlns:xlink="http://www.w3.org/1999/xlink" x="0px" y="0px"
	 width="48px" height="48px" viewBox="0 0 48 48" enable-background="new 0 0 48 48" xml:space="preserve">
<g>
	<path d="M28.454,11.812h-9.551c-0.371,0-0.712-0.206-0.885-0.534l-5.169-9.812c-0.163-0.31-0.152-0.683,0.029-0.983
		C13.059,0.184,13.383,0,13.734,0h20.532c0.359,0,0.69,0.193,0.869,0.505c0.178,0.312,0.175,0.696-0.009,1.005l-5.812,9.812
		C29.135,11.625,28.808,11.812,28.454,11.812z M19.506,9.812h8.377L32.511,2h-17.12L19.506,9.812z"/>
	<path d="M27.635,47.999c-2.101,0-4.194-0.109-6.219-0.215c-2.015-0.105-4.098-0.214-6.178-0.214c-2.339,0-9.806-0.323-11.393-4.481
		c-1.116-2.931-0.067-7.494,0.658-9.954c0.458-1.554,1.167-2.979,1.853-4.359c0.167-0.336,0.334-0.672,0.498-1.011
		c0.282-0.588,0.512-1.183,0.755-1.813c0.313-0.812,0.637-1.651,1.082-2.465c0.463-0.845,1.049-1.601,1.616-2.332
		c0.478-0.617,0.93-1.199,1.306-1.821l0.13-0.216c1.087-1.804,2.729-4.529,5.238-5.029c0.836-0.168,2.07-0.142,3.245-0.073
		c0.471,0.027,0.927,0.055,1.342,0.055c0.632,0,1.422-0.058,2.259-0.119c0.995-0.073,2.023-0.147,3.012-0.147
		c1.128,0,2.014,0.103,2.706,0.314c1.617,0.493,3.005,2.185,4.019,3.419c0.146,0.179,0.284,0.347,0.411,0.496
		c2.593,3.056,4.445,6.378,6.43,10.092l0.35,0.652c1.438,2.681,2.924,5.452,3.679,8.477c0.83,3.312-0.759,7.935-4.365,9.271
		c-3.103,1.153-7.109,1.309-10.328,1.433C29.034,47.986,28.332,47.999,27.635,47.999z M18.593,15.953
		c-0.497,0-0.896,0.032-1.219,0.097c-1.646,0.328-3.013,2.598-3.918,4.1l-0.132,0.219c-0.435,0.722-0.944,1.378-1.437,2.013
		c-0.542,0.7-1.056,1.361-1.442,2.066c-0.381,0.697-0.667,1.439-0.971,2.224c-0.246,0.639-0.501,1.299-0.819,1.961
		c-0.168,0.348-0.338,0.69-0.509,1.033C7.47,31.028,6.831,32.315,6.422,33.7c-1.112,3.774-1.37,6.937-0.708,8.677
		c0.899,2.356,5.645,3.193,9.436,3.193c2.221,0,4.33,0.11,6.37,0.217c2.654,0.137,5.389,0.28,8.142,0.174
		c3.077-0.119,6.907-0.268,9.71-1.31c2.751-1.021,3.672-4.713,3.122-6.911c-0.695-2.784-2.059-5.326-3.502-8.017l-0.351-0.654
		c-1.93-3.611-3.727-6.836-6.191-9.741c-0.134-0.157-0.278-0.333-0.432-0.521c-0.804-0.979-2.018-2.458-3.057-2.775
		c-0.501-0.153-1.194-0.227-2.122-0.227c-0.916,0-1.908,0.072-2.867,0.142c-0.874,0.064-1.7,0.124-2.404,0.124
		c-0.451,0-0.947-0.028-1.458-0.058C19.609,15.984,19.092,15.953,18.593,15.953z"/>
</g>
</svg>
