<?xml version="1.0" encoding="utf-8"?>
<!-- Generator: Adobe Illustrator 16.0.0, SVG Export Plug-In . SVG Version: 6.00 Build 0)  -->
<!DOCTYPE svg PUBLIC "-//W3C//DTD SVG 1.1//EN" "http://www.w3.org/Graphics/SVG/1.1/DTD/svg11.dtd">
<svg version="1.1" id="Layer_1" xmlns="http://www.w3.org/2000/svg" xmlns:xlink="http://www.w3.org/1999/xlink" x="0px" y="0px"
	 width="48px" height="48px" viewBox="0 0 48 48" enable-background="new 0 0 48 48" xml:space="preserve">
<g>
	<path d="M14.176,44.404H9.343c-0.552,0-1-0.447-1-1v-6.859c-0.011-0.06-0.017-0.12-0.017-0.182c0-0.076,0.007-0.15,0.017-0.226
		c0-4.006-2.959-7.404-7.037-8.053c-0.386-0.062-0.701-0.343-0.806-0.72C0.168,26.175,0,24.978,0,23.809
		c0-1.79,0.378-3.569,1.124-5.288c0.215-0.498,0.788-0.732,1.292-0.529c0.663,0.268,1.353,0.403,2.051,0.403
		c2.978,0,5.39-2.403,5.49-5.472c0.099-3.11-1.389-6.059-2.813-7.482c-0.264-0.264-0.359-0.654-0.246-1.01
		C7.01,4.075,7.312,3.812,7.68,3.749c0.036-0.006,0.9-0.153,2.183-0.153c2.313,0,6.53,0.496,9.418,3.725
		c0.622-0.052,1.315-0.095,2.032-0.095c11.757,0,21.322,7.439,21.322,16.583c0,5.032-2.861,9.689-7.873,12.852v6.741
		c0,0.553-0.447,1-1,1H28.93c-0.553,0-1-0.447-1-1v-3.837c-4.087,1.042-8.483,1.114-12.754,0.085v3.754
		C15.176,43.957,14.728,44.404,14.176,44.404z M10.343,42.404h2.833V38.35c0-0.314,0.148-0.611,0.4-0.8
		c0.251-0.19,0.576-0.248,0.88-0.16c4.745,1.39,9.692,1.291,14.177-0.1c0.302-0.094,0.633-0.04,0.889,0.15
		c0.256,0.188,0.407,0.487,0.407,0.805v4.157h2.832v-6.301c0-0.353,0.186-0.679,0.488-0.859c4.693-2.795,7.385-6.963,7.385-11.433
		c0-8.041-8.668-14.583-19.322-14.583c-0.842,0-1.668,0.067-2.367,0.132c-0.338,0.029-0.664-0.108-0.874-0.371
		c-2.382-2.973-6.179-3.426-8.255-3.392c1.251,1.901,2.228,4.57,2.138,7.392c-0.136,4.154-3.425,7.407-7.489,7.407
		c-0.621,0-1.236-0.078-1.839-0.232C2.211,21.361,2,22.584,2,23.809c0,0.795,0.093,1.609,0.277,2.426
		c4.712,1.051,8.066,5.128,8.066,9.932c0,0.02-0.002,0.059-0.005,0.101c0.003,0.033,0.005,0.068,0.005,0.103V42.404z"/>
	<path d="M19.043,17.083c0,1.182-0.948,2.136-2.134,2.136c-1.18,0-2.134-0.954-2.134-2.136s0.954-2.138,2.134-2.138
		C18.096,14.945,19.043,15.9,19.043,17.083z"/>
	<path d="M41.634,22.187c-0.475,0-0.896-0.338-0.983-0.821c-0.099-0.543,0.262-1.064,0.806-1.163
		c3.197-0.581,4.625-3.516,4.639-3.545c0.237-0.498,0.829-0.712,1.33-0.478c0.498,0.234,0.714,0.826,0.481,1.325
		c-0.073,0.159-1.856,3.896-6.093,4.666C41.753,22.182,41.693,22.187,41.634,22.187z"/>
</g>
</svg>
