<?xml version="1.0" encoding="utf-8"?>
<!-- Generator: Adobe Illustrator 16.0.0, SVG Export Plug-In . SVG Version: 6.00 Build 0)  -->
<!DOCTYPE svg PUBLIC "-//W3C//DTD SVG 1.1//EN" "http://www.w3.org/Graphics/SVG/1.1/DTD/svg11.dtd">
<svg version="1.1" id="Layer_1" xmlns="http://www.w3.org/2000/svg" xmlns:xlink="http://www.w3.org/1999/xlink" x="0px" y="0px"
	 width="48px" height="48px" viewBox="0 0 48 48" enable-background="new 0 0 48 48" xml:space="preserve">
<g>
	<g>
		<path d="M33.762,44.404H28.93c-0.553,0-1-0.447-1-1v-3.835c-4.1,1.038-8.465,1.113-12.755,0.081v3.754c0,0.553-0.448,1-1,1h-4.83
			c-0.552,0-1-0.447-1-1v-6.835c-0.014-0.066-0.021-0.135-0.021-0.204c0-0.088,0.009-0.172,0.023-0.257
			c-0.002-3.978-2.961-7.377-7.038-8.025c-0.386-0.061-0.7-0.341-0.806-0.717C0.169,26.179,0,24.981,0,23.808
			c0-1.786,0.378-3.564,1.124-5.286c0.215-0.497,0.785-0.734,1.29-0.531c0.667,0.268,1.358,0.403,2.054,0.403
			c2.979,0,5.39-2.403,5.489-5.471c0.1-3.106-1.388-6.057-2.812-7.483C6.879,5.176,6.785,4.787,6.898,4.431
			c0.113-0.356,0.415-0.619,0.783-0.683c0.036-0.006,0.9-0.153,2.184-0.153c2.314,0,6.53,0.496,9.418,3.726
			c0.62-0.052,1.313-0.095,2.033-0.095c11.753,0,21.316,7.438,21.316,16.581c0,5.031-2.86,9.688-7.87,12.855v6.741
			C34.762,43.957,34.314,44.404,33.762,44.404z M29.93,42.404h2.832v-6.301c0-0.353,0.186-0.679,0.487-0.858
			c4.692-2.799,7.383-6.968,7.383-11.437c0-8.04-8.665-14.581-19.316-14.581c-0.847,0-1.672,0.067-2.367,0.133
			c-0.339,0.032-0.665-0.108-0.875-0.371c-2.383-2.976-6.234-3.414-8.257-3.394c1.251,1.902,2.228,4.573,2.138,7.393
			c-0.135,4.153-3.423,7.407-7.488,7.407c-0.619,0-1.234-0.078-1.838-0.232C2.211,21.363,2,22.585,2,23.808
			c0,0.797,0.093,1.611,0.278,2.425c4.712,1.05,8.067,5.128,8.067,9.933c0,0.037-0.001,0.073-0.004,0.108
			c0.003,0.031,0.004,0.063,0.004,0.095v6.035h2.83V38.35c0-0.314,0.148-0.611,0.4-0.8c0.251-0.19,0.576-0.251,0.88-0.16
			c4.774,1.394,9.68,1.294,14.18-0.096c0.304-0.096,0.634-0.038,0.889,0.15c0.256,0.188,0.406,0.487,0.406,0.805V42.404z"/>
		<path d="M41.631,22.187c-0.475,0-0.896-0.338-0.983-0.822c-0.098-0.543,0.263-1.063,0.806-1.162
			c3.199-0.58,4.628-3.516,4.642-3.545c0.237-0.498,0.829-0.712,1.33-0.478c0.498,0.234,0.714,0.826,0.481,1.325
			c-0.073,0.159-1.857,3.897-6.096,4.666C41.75,22.182,41.689,22.187,41.631,22.187z"/>
	</g>
	<g>
		<path d="M21.46,26.527c-0.552,0-1-0.447-1-1v-7.843c0-0.552,0.448-1,1-1s1,0.448,1,1v7.843
			C22.46,26.08,22.012,26.527,21.46,26.527z"/>
		<path d="M21.46,28.922c-0.234,0-0.467-0.081-0.656-0.245l-4.028-3.5c-0.417-0.362-0.461-0.994-0.099-1.411
			c0.361-0.417,0.994-0.462,1.411-0.099l3.348,2.909l3.089-2.885c0.402-0.375,1.037-0.355,1.413,0.048
			c0.377,0.404,0.355,1.036-0.048,1.413l-3.747,3.5C21.951,28.832,21.706,28.922,21.46,28.922z"/>
	</g>
</g>
</svg>
