<?xml version="1.0" encoding="utf-8"?>
<!-- Generator: Adobe Illustrator 16.0.0, SVG Export Plug-In . SVG Version: 6.00 Build 0)  -->
<!DOCTYPE svg PUBLIC "-//W3C//DTD SVG 1.1//EN" "http://www.w3.org/Graphics/SVG/1.1/DTD/svg11.dtd">
<svg version="1.1" id="Layer_1" xmlns="http://www.w3.org/2000/svg" xmlns:xlink="http://www.w3.org/1999/xlink" x="0px" y="0px"
	 width="48px" height="48px" viewBox="0 0 48 48" enable-background="new 0 0 48 48" xml:space="preserve">
<g>
	<g>
		<path d="M14.178,44.406H9.346c-0.552,0-1-0.447-1-1v-6.813C8.329,36.52,8.32,36.442,8.32,36.365c0-0.089,0.01-0.176,0.026-0.262
			c-0.031-4.006-2.98-7.373-7.036-8.021c-0.385-0.062-0.699-0.341-0.805-0.717C0.17,26.174,0,24.977,0,23.807
			c0-1.791,0.376-3.569,1.117-5.286c0.214-0.497,0.785-0.732,1.289-0.532c0.673,0.269,1.367,0.405,2.062,0.405
			c2.978,0,5.389-2.403,5.489-5.472c0.094-3.108-1.393-6.058-2.813-7.483C6.879,5.175,6.785,4.786,6.898,4.43
			c0.113-0.355,0.415-0.619,0.783-0.682c0.036-0.006,0.901-0.153,2.186-0.153c2.314,0,6.53,0.496,9.415,3.727
			c0.64-0.054,1.318-0.096,2.03-0.096c11.757,0,21.322,7.438,21.322,16.582c0,5.032-2.859,9.69-7.868,12.856v6.741
			c0,0.553-0.447,1-1,1H28.93c-0.553,0-1-0.447-1-1v-3.835c-4.081,1.036-8.475,1.111-12.751,0.082v3.755
			C15.178,43.959,14.73,44.406,14.178,44.406z M10.346,42.406h2.832V38.35c0-0.315,0.148-0.611,0.4-0.801
			c0.252-0.189,0.578-0.246,0.88-0.159c4.755,1.393,9.7,1.29,14.175-0.096c0.302-0.095,0.632-0.039,0.89,0.15
			c0.255,0.188,0.406,0.487,0.406,0.805v4.155h2.836v-6.301c0-0.353,0.186-0.679,0.487-0.858c4.69-2.798,7.381-6.967,7.381-11.438
			c0-8.041-8.668-14.582-19.322-14.582c-0.827,0-1.625,0.064-2.365,0.133c-0.333,0.032-0.664-0.108-0.874-0.371
			c-2.362-2.952-6.155-3.393-8.207-3.393c-0.017,0-0.035,0-0.052,0c1.249,1.9,2.226,4.57,2.141,7.391
			c-0.136,4.155-3.425,7.409-7.488,7.409c-0.62,0-1.236-0.079-1.843-0.234C2.209,21.358,2,22.581,2,23.807
			c0,0.794,0.094,1.609,0.28,2.426c4.712,1.052,8.066,5.13,8.066,9.933c0,0.036-0.001,0.071-0.005,0.106
			c0.003,0.032,0.005,0.064,0.005,0.098V42.406z"/>
		<path d="M41.633,22.185c-0.475,0-0.896-0.338-0.983-0.822c-0.098-0.543,0.263-1.063,0.806-1.162
			c3.195-0.58,4.626-3.515,4.641-3.544c0.235-0.498,0.832-0.711,1.329-0.477c0.499,0.234,0.714,0.826,0.481,1.325
			c-0.074,0.159-1.86,3.896-6.094,4.664C41.752,22.18,41.691,22.185,41.633,22.185z"/>
	</g>
	<g>
		<path d="M21.463,28.921c-0.552,0-1-0.447-1-1v-7.846c0-0.552,0.448-1,1-1s1,0.448,1,1v7.846
			C22.463,28.474,22.015,28.921,21.463,28.921z"/>
		<path d="M17.431,22.185c-0.28,0-0.558-0.117-0.755-0.344c-0.362-0.417-0.318-1.049,0.099-1.411l4.033-3.502
			c0.387-0.336,0.964-0.326,1.339,0.025l3.738,3.502c0.403,0.378,0.424,1.011,0.046,1.414c-0.377,0.404-1.013,0.423-1.413,0.046
			l-3.08-2.885l-3.352,2.91C17.896,22.104,17.663,22.185,17.431,22.185z"/>
	</g>
</g>
</svg>
