<?xml version="1.0" encoding="utf-8"?>
<!-- Generator: Adobe Illustrator 16.0.0, SVG Export Plug-In . SVG Version: 6.00 Build 0)  -->
<!DOCTYPE svg PUBLIC "-//W3C//DTD SVG 1.1//EN" "http://www.w3.org/Graphics/SVG/1.1/DTD/svg11.dtd">
<svg version="1.1" id="Layer_1" xmlns="http://www.w3.org/2000/svg" xmlns:xlink="http://www.w3.org/1999/xlink" x="0px" y="0px"
	 width="48px" height="48px" viewBox="0 0 48 48" enable-background="new 0 0 48 48" xml:space="preserve">
<g>
	<g>
		<path d="M14.177,44.404H9.346c-0.552,0-1-0.447-1-1v-6.82c-0.016-0.071-0.024-0.146-0.024-0.22c0-0.097,0.012-0.19,0.029-0.283
			c-0.005-3.948-2.964-7.348-7.041-7.996c-0.386-0.062-0.7-0.342-0.806-0.718C0.17,26.171,0,24.974,0,23.809
			c0-1.794,0.376-3.574,1.12-5.288c0.215-0.497,0.784-0.732,1.288-0.531c0.675,0.269,1.368,0.406,2.06,0.406
			c2.977,0,5.386-2.404,5.485-5.472c0.099-3.104-1.389-6.056-2.813-7.485C6.875,5.174,6.781,4.785,6.895,4.43
			C7.008,4.074,7.31,3.811,7.678,3.748c0.036-0.006,0.9-0.152,2.182-0.152c2.316,0,6.537,0.496,9.423,3.726
			c0.641-0.054,1.321-0.095,2.031-0.095c11.754,0,21.318,7.439,21.318,16.583c0,5.033-2.859,9.69-7.866,12.854v6.739
			c0,0.553-0.447,1-1,1H28.93c-0.553,0-1-0.447-1-1v-3.834c-4.068,1.037-8.463,1.114-12.753,0.082v3.754
			C15.177,43.957,14.729,44.404,14.177,44.404z M10.346,42.404h2.831V38.35c0-0.314,0.148-0.611,0.4-0.8
			c0.251-0.19,0.579-0.248,0.88-0.16c4.772,1.395,9.719,1.289,14.176-0.098c0.302-0.095,0.634-0.039,0.89,0.149
			s0.407,0.487,0.407,0.806v4.155h2.836v-6.299c0-0.353,0.186-0.679,0.488-0.859c4.688-2.795,7.378-6.963,7.378-11.435
			c0-8.041-8.666-14.583-19.318-14.583c-0.824,0-1.625,0.063-2.367,0.132c-0.328,0.032-0.663-0.108-0.873-0.371
			c-2.381-2.976-6.237-3.36-8.262-3.393c1.251,1.903,2.229,4.574,2.139,7.393c-0.133,4.154-3.421,7.408-7.484,7.408
			c-0.619,0-1.235-0.079-1.843-0.235C2.21,21.357,2,22.581,2,23.809c0,0.792,0.094,1.605,0.28,2.426
			c4.712,1.05,8.066,5.128,8.066,9.932c0,0.022-0.002,0.057-0.006,0.095c0.004,0.036,0.006,0.072,0.006,0.108V42.404z"/>
		<path d="M41.631,22.186c-0.475,0-0.896-0.338-0.983-0.821c-0.099-0.543,0.263-1.064,0.806-1.163
			c3.197-0.58,4.628-3.516,4.643-3.545c0.235-0.498,0.832-0.711,1.329-0.477c0.499,0.234,0.714,0.826,0.481,1.325
			c-0.074,0.159-1.86,3.896-6.096,4.665C41.75,22.181,41.689,22.186,41.631,22.186z"/>
	</g>
	<g>
		<path d="M28.797,23.996H16.974c-0.552,0-1-0.448-1-1s0.448-1,1-1h11.823c0.553,0,1,0.448,1,1S29.35,23.996,28.797,23.996z"/>
		<path d="M22.886,29.912c-0.552,0-1-0.447-1-1V17.083c0-0.552,0.448-1,1-1s1,0.448,1,1v11.829
			C23.886,29.465,23.438,29.912,22.886,29.912z"/>
	</g>
</g>
</svg>
