<?xml version="1.0" encoding="utf-8"?>
<!-- Generator: Adobe Illustrator 16.0.0, SVG Export Plug-In . SVG Version: 6.00 Build 0)  -->
<!DOCTYPE svg PUBLIC "-//W3C//DTD SVG 1.1//EN" "http://www.w3.org/Graphics/SVG/1.1/DTD/svg11.dtd">
<svg version="1.1" id="Layer_1" xmlns="http://www.w3.org/2000/svg" xmlns:xlink="http://www.w3.org/1999/xlink" x="0px" y="0px"
	 width="48px" height="48px" viewBox="0 0 48 48" enable-background="new 0 0 48 48" xml:space="preserve">
<g>
	<path d="M47,47.916H1c-0.552,0-1-0.447-1-1V1.084c0-0.552,0.448-1,1-1s1,0.448,1,1v44.832h45c0.553,0,1,0.447,1,1
		S47.553,47.916,47,47.916z"/>
	<path d="M41.384,43.777c-0.553,0-1-0.447-1-1V30.24c0-0.553,0.447-1,1-1s1,0.447,1,1v12.537
		C42.384,43.33,41.937,43.777,41.384,43.777z"/>
	<path d="M30.508,43.777c-0.553,0-1-0.447-1-1V10.144c0-0.552,0.447-1,1-1s1,0.448,1,1v32.633
		C31.508,43.33,31.061,43.777,30.508,43.777z"/>
	<path d="M19.632,43.777c-0.552,0-1-0.447-1-1V30.24c0-0.553,0.448-1,1-1s1,0.447,1,1v12.537
		C20.632,43.33,20.184,43.777,19.632,43.777z"/>
	<path d="M8.756,43.777c-0.552,0-1-0.447-1-1V10.144c0-0.552,0.448-1,1-1s1,0.448,1,1v32.633C9.756,43.33,9.308,43.777,8.756,43.777
		z"/>
</g>
</svg>
