<?xml version="1.0" encoding="utf-8"?>
<!-- Generator: Adobe Illustrator 16.0.0, SVG Export Plug-In . SVG Version: 6.00 Build 0)  -->
<!DOCTYPE svg PUBLIC "-//W3C//DTD SVG 1.1//EN" "http://www.w3.org/Graphics/SVG/1.1/DTD/svg11.dtd">
<svg version="1.1" id="Layer_1" xmlns="http://www.w3.org/2000/svg" xmlns:xlink="http://www.w3.org/1999/xlink" x="0px" y="0px"
	 width="48px" height="48px" viewBox="0 0 48 48" enable-background="new 0 0 48 48" xml:space="preserve">
<g>
	<path d="M47,47.917H1c-0.552,0-1-0.447-1-1V1.083c0-0.552,0.448-1,1-1s1,0.448,1,1v44.834h45c0.553,0,1,0.447,1,1
		S47.553,47.917,47,47.917z"/>
	<path d="M17.792,40.688H5.253c-0.552,0-1-0.447-1-1s0.448-1,1-1h12.539c0.552,0,1,0.447,1,1S18.344,40.688,17.792,40.688z"/>
	<path d="M37.891,29.93H5.253c-0.552,0-1-0.447-1-1s0.448-1,1-1h32.638c0.553,0,1,0.447,1,1S38.443,29.93,37.891,29.93z"/>
	<path d="M17.792,19.17H5.253c-0.552,0-1-0.448-1-1s0.448-1,1-1h12.539c0.552,0,1,0.448,1,1S18.344,19.17,17.792,19.17z"/>
	<path d="M37.891,8.41H5.253c-0.552,0-1-0.448-1-1s0.448-1,1-1h32.638c0.553,0,1,0.448,1,1S38.443,8.41,37.891,8.41z"/>
</g>
</svg>
