<?xml version="1.0" encoding="utf-8"?>
<!-- Generator: Adobe Illustrator 16.0.0, SVG Export Plug-In . SVG Version: 6.00 Build 0)  -->
<!DOCTYPE svg PUBLIC "-//W3C//DTD SVG 1.1//EN" "http://www.w3.org/Graphics/SVG/1.1/DTD/svg11.dtd">
<svg version="1.1" id="Layer_1" xmlns="http://www.w3.org/2000/svg" xmlns:xlink="http://www.w3.org/1999/xlink" x="0px" y="0px"
	 width="48px" height="48px" viewBox="0 0 48 48" enable-background="new 0 0 48 48" xml:space="preserve">
<g>
	<path d="M4.919,30.178C2.207,30.178,0,27.969,0,25.253c0-2.714,2.206-4.922,4.918-4.922c2.717,0,4.927,2.208,4.927,4.922
		C9.845,27.969,7.635,30.178,4.919,30.178z M4.918,22.331C3.309,22.331,2,23.642,2,25.253c0,1.612,1.31,2.925,2.919,2.925
		c1.614,0,2.926-1.313,2.926-2.925C7.845,23.642,6.532,22.331,4.918,22.331z"/>
	<path d="M19.063,47.611c-2.713,0-4.921-2.208-4.921-4.922c0-2.713,2.208-4.92,4.921-4.92s4.921,2.207,4.921,4.92
		C23.984,45.403,21.776,47.611,19.063,47.611z M19.063,39.77c-1.61,0-2.921,1.31-2.921,2.92c0,1.611,1.311,2.922,2.921,2.922
		s2.921-1.311,2.921-2.922C21.984,41.079,20.673,39.77,19.063,39.77z"/>
	<path d="M28.333,10.231c-2.714,0-4.921-2.208-4.921-4.923s2.207-4.922,4.921-4.922c2.715,0,4.923,2.208,4.923,4.922
		S31.048,10.231,28.333,10.231z M28.333,2.386c-1.61,0-2.921,1.311-2.921,2.922c0,1.612,1.311,2.923,2.921,2.923
		c1.611,0,2.923-1.311,2.923-2.923C31.256,3.697,29.944,2.386,28.333,2.386z"/>
	<path d="M43.078,32.465c-2.714,0-4.922-2.208-4.922-4.922s2.208-4.922,4.922-4.922S48,24.829,48,27.543
		S45.792,32.465,43.078,32.465z M43.078,24.621c-1.611,0-2.922,1.311-2.922,2.922s1.311,2.922,2.922,2.922S46,29.154,46,27.543
		S44.689,24.621,43.078,24.621z"/>
	<path d="M16.163,41.061c-0.302,0-0.6-0.136-0.796-0.395L7.08,29.783c-0.335-0.439-0.25-1.066,0.189-1.401
		c0.44-0.335,1.067-0.25,1.401,0.19l8.287,10.883c0.335,0.439,0.25,1.066-0.189,1.401C16.587,40.994,16.374,41.061,16.163,41.061z"
		/>
	<path d="M21.017,39.768c-0.074,0-0.149-0.008-0.225-0.025c-0.538-0.124-0.874-0.66-0.75-1.198l6.786-29.538
		c0.124-0.538,0.661-0.872,1.198-0.75c0.538,0.124,0.875,0.66,0.751,1.199l-6.786,29.537C21.884,39.454,21.473,39.768,21.017,39.768
		z"/>
	<path d="M40.491,25.605c-0.334,0-0.661-0.167-0.851-0.473L30.088,9.758C29.797,9.289,29.94,8.672,30.41,8.38
		c0.469-0.292,1.086-0.146,1.377,0.322l9.553,15.375c0.291,0.469,0.147,1.085-0.322,1.377
		C40.854,25.557,40.671,25.605,40.491,25.605z"/>
</g>
</svg>
