<?xml version="1.0" encoding="utf-8"?>
<!-- Generator: Adobe Illustrator 16.0.0, SVG Export Plug-In . SVG Version: 6.00 Build 0)  -->
<!DOCTYPE svg PUBLIC "-//W3C//DTD SVG 1.1//EN" "http://www.w3.org/Graphics/SVG/1.1/DTD/svg11.dtd">
<svg version="1.1" id="Layer_1" xmlns="http://www.w3.org/2000/svg" xmlns:xlink="http://www.w3.org/1999/xlink" x="0px" y="0px"
	 width="48px" height="48px" viewBox="0 0 48 48" enable-background="new 0 0 48 48" xml:space="preserve">
<g>
	<path d="M40.948,37.2h-2.503c-0.553,0-1-0.447-1-1s0.447-1,1-1h2.503c2.785,0,5.052-2.267,5.052-5.052v-20
		c0-2.788-2.267-5.055-5.052-5.055H7.055C4.268,5.094,2,7.361,2,10.149v20C2,32.934,4.268,35.2,7.055,35.2h21.166
		c0.553,0,1,0.447,1,1s-0.447,1-1,1H7.055C3.165,37.2,0,34.037,0,30.148v-20c0-3.89,3.165-7.055,7.055-7.055h33.893
		c3.889,0,7.052,3.165,7.052,7.055v20C48,34.037,44.837,37.2,40.948,37.2z"/>
	<g>
		<path d="M38.15,12.066H9.854c-0.552,0-1-0.448-1-1s0.448-1,1-1H38.15c0.553,0,1,0.448,1,1S38.703,12.066,38.15,12.066z"/>
		<path d="M18.456,20.767H9.854c-0.552,0-1-0.448-1-1s0.448-1,1-1h8.602c0.552,0,1,0.448,1,1S19.008,20.767,18.456,20.767z"/>
		<path d="M18.456,29.471H9.854c-0.552,0-1-0.447-1-1s0.448-1,1-1h8.602c0.552,0,1,0.447,1,1S19.008,29.471,18.456,29.471z"/>
	</g>
	<path d="M32.334,33.227c-4.992,0-9.054-4.064-9.054-9.06c0-4.995,4.062-9.058,9.054-9.058c2.422,0,4.698,0.942,6.409,2.652
		s2.653,3.985,2.653,6.406C41.396,29.162,37.331,33.227,32.334,33.227z M32.336,17.109c-3.891,0-7.057,3.166-7.057,7.058
		c0,3.893,3.165,7.06,7.055,7.06c3.895,0,7.063-3.167,7.063-7.06C39.396,20.275,36.229,17.109,32.336,17.109z"/>
	<path d="M28.221,44.906c-0.152,0-0.305-0.034-0.446-0.104c-0.339-0.17-0.554-0.517-0.554-0.896V31.092c0-0.553,0.447-1,1-1
		s1,0.447,1,1v10.807l3.051-2.302c0.355-0.268,0.842-0.27,1.197-0.006l3.152,2.332V30.902c0-0.553,0.447-1,1-1s1,0.447,1,1v13.004
		c0,0.378-0.213,0.723-0.55,0.893c-0.338,0.172-0.74,0.136-1.045-0.089l-4.146-3.067l-4.057,3.062
		C28.646,44.838,28.435,44.906,28.221,44.906z"/>
</g>
</svg>
