<?xml version="1.0" encoding="utf-8"?>
<!-- Generator: Adobe Illustrator 16.0.0, SVG Export Plug-In . SVG Version: 6.00 Build 0)  -->
<!DOCTYPE svg PUBLIC "-//W3C//DTD SVG 1.1//EN" "http://www.w3.org/Graphics/SVG/1.1/DTD/svg11.dtd">
<svg version="1.1" id="Layer_1" xmlns="http://www.w3.org/2000/svg" xmlns:xlink="http://www.w3.org/1999/xlink" x="0px" y="0px"
	 width="48px" height="48px" viewBox="0 0 48 48" enable-background="new 0 0 48 48" xml:space="preserve">
<g>
	<g>
		<path d="M38.284,48H9.715c-1.654,0-3-1.346-3-3V7.499c0-1.654,1.346-3,3-3h28.569c1.654,0,3,1.346,3,3V45
			C41.284,46.654,39.938,48,38.284,48z M9.715,6.499c-0.551,0-1,0.449-1,1V45c0,0.552,0.449,1,1,1h28.569c0.552,0,1-0.448,1-1V7.499
			c0-0.551-0.448-1-1-1H9.715z"/>
	</g>
	<path d="M30.257,2H17.743c-0.552,0-1-0.448-1-1s0.448-1,1-1h12.514c0.553,0,1,0.448,1,1S30.81,2,30.257,2z"/>
	<g>
		<path d="M15.392,16.336h-1.619c-0.552,0-1-0.448-1-1s0.448-1,1-1h1.619c0.552,0,1,0.448,1,1S15.944,16.336,15.392,16.336z"/>
		<path d="M34.229,16.336H20.267c-0.552,0-1-0.448-1-1s0.448-1,1-1h13.961c0.553,0,1,0.448,1,1S34.781,16.336,34.229,16.336z"/>
		<path d="M15.392,24.218h-1.619c-0.552,0-1-0.448-1-1s0.448-1,1-1h1.619c0.552,0,1,0.448,1,1S15.944,24.218,15.392,24.218z"/>
		<path d="M34.229,24.218H20.267c-0.552,0-1-0.448-1-1s0.448-1,1-1h13.961c0.553,0,1,0.448,1,1S34.781,24.218,34.229,24.218z"/>
		<path d="M15.392,32.092h-1.619c-0.552,0-1-0.447-1-1s0.448-1,1-1h1.619c0.552,0,1,0.447,1,1S15.944,32.092,15.392,32.092z"/>
		<path d="M34.229,32.092H20.267c-0.552,0-1-0.447-1-1s0.448-1,1-1h13.961c0.553,0,1,0.447,1,1S34.781,32.092,34.229,32.092z"/>
		<path d="M15.392,39.973h-1.619c-0.552,0-1-0.447-1-1s0.448-1,1-1h1.619c0.552,0,1,0.447,1,1S15.944,39.973,15.392,39.973z"/>
		<path d="M34.229,39.973H20.267c-0.552,0-1-0.447-1-1s0.448-1,1-1h13.961c0.553,0,1,0.447,1,1S34.781,39.973,34.229,39.973z"/>
	</g>
</g>
</svg>
