<?xml version="1.0" encoding="utf-8"?>
<!-- Generator: Adobe Illustrator 16.0.0, SVG Export Plug-In . SVG Version: 6.00 Build 0)  -->
<!DOCTYPE svg PUBLIC "-//W3C//DTD SVG 1.1//EN" "http://www.w3.org/Graphics/SVG/1.1/DTD/svg11.dtd">
<svg version="1.1" id="Layer_1" xmlns="http://www.w3.org/2000/svg" xmlns:xlink="http://www.w3.org/1999/xlink" x="0px" y="0px"
	 width="48px" height="48px" viewBox="0 0 48 48" enable-background="new 0 0 48 48" xml:space="preserve">
<g>
	<path d="M26.55,47.884c-0.553,0-1-0.447-1-1V26.438c0-0.553,0.447-1,1-1H47c0.553,0,1,0.447,1,1
		C48,38.263,38.378,47.884,26.55,47.884z M27.55,27.438v18.421c9.932-0.505,17.92-8.491,18.425-18.421H27.55z"/>
	<path d="M21.453,43.016C9.624,43.016,0,33.394,0,21.566s9.624-21.45,21.453-21.45c11.826,0,21.449,9.622,21.451,21.45
		c0,0.265-0.105,0.52-0.293,0.707s-0.441,0.293-0.707,0.293H22.453v19.45C22.453,42.568,22.005,43.016,21.453,43.016z M21.453,2.116
		C10.727,2.116,2,10.841,2,21.566c0,10.389,8.189,18.903,18.453,19.424V21.566c0-0.552,0.448-1,1-1h19.426
		C40.355,10.304,31.842,2.116,21.453,2.116z"/>
</g>
</svg>
