<?xml version="1.0" encoding="utf-8"?>
<!-- Generator: Adobe Illustrator 16.0.0, SVG Export Plug-In . SVG Version: 6.00 Build 0)  -->
<!DOCTYPE svg PUBLIC "-//W3C//DTD SVG 1.1//EN" "http://www.w3.org/Graphics/SVG/1.1/DTD/svg11.dtd">
<svg version="1.1" id="Layer_1" xmlns="http://www.w3.org/2000/svg" xmlns:xlink="http://www.w3.org/1999/xlink" x="0px" y="0px"
	 width="48px" height="48px" viewBox="0 0 48 48" enable-background="new 0 0 48 48" xml:space="preserve">
<g>
	<path d="M24,48C10.767,48,0,37.233,0,24S10.767,0,24,0s24,10.767,24,24S37.233,48,24,48z M24,2C11.869,2,2,11.869,2,24
		s9.869,22,22,22s22-9.869,22-22S36.131,2,24,2z"/>
	<path d="M24.001,46.788c-0.552,0-1-0.447-1-1V24c0-0.552,0.448-1,1-1h21.597c0.553,0,1,0.448,1,1c0,0.553-0.447,1-1,1H25.001
		v20.788C25.001,46.341,24.554,46.788,24.001,46.788z"/>
	<path d="M24,25c-0.203,0-0.407-0.062-0.584-0.189c-0.448-0.323-0.549-0.948-0.226-1.396l12.835-17.79
		c0.322-0.448,0.947-0.55,1.396-0.226c0.448,0.323,0.549,0.948,0.226,1.396l-12.835,17.79C24.616,24.856,24.311,25,24,25z"/>
	<path d="M24.001,25c-0.281,0-0.56-0.117-0.757-0.347L8.207,7.25C7.846,6.832,7.892,6.201,8.31,5.839
		c0.418-0.362,1.05-0.315,1.411,0.103l15.037,17.404c0.361,0.418,0.314,1.049-0.104,1.411C24.466,24.92,24.233,25,24.001,25z"/>
</g>
</svg>
