<?xml version="1.0" encoding="utf-8"?>
<!-- Generator: Adobe Illustrator 16.0.0, SVG Export Plug-In . SVG Version: 6.00 Build 0)  -->
<!DOCTYPE svg PUBLIC "-//W3C//DTD SVG 1.1//EN" "http://www.w3.org/Graphics/SVG/1.1/DTD/svg11.dtd">
<svg version="1.1" id="Layer_1" xmlns="http://www.w3.org/2000/svg" xmlns:xlink="http://www.w3.org/1999/xlink" x="0px" y="0px"
	 width="48px" height="48px" viewBox="0 0 48 48" enable-background="new 0 0 48 48" xml:space="preserve">
<g>
	<g>
		<g>
			<path d="M8.59,37.962c-4.736,0-8.59-3.853-8.59-8.589c0-0.553,0.448-1,1-1h15.177c0.552,0,1,0.447,1,1
				C17.177,34.109,13.325,37.962,8.59,37.962z M2.076,30.373c0.483,3.16,3.221,5.589,6.514,5.589c3.292,0,6.028-2.429,6.511-5.589
				H2.076z"/>
			<path d="M1,30.373c-0.118,0-0.238-0.021-0.354-0.065c-0.517-0.195-0.776-0.772-0.581-1.289l7.59-20.013
				C7.802,8.618,8.173,8.361,8.587,8.36c0.001,0,0.002,0,0.002,0c0.414,0,0.785,0.255,0.934,0.641l7.587,19.738
				c0.198,0.515-0.059,1.094-0.575,1.292c-0.515,0.197-1.094-0.06-1.292-0.575L8.596,12.164L1.935,29.728
				C1.784,30.127,1.403,30.373,1,30.373z"/>
		</g>
		<g>
			<path d="M39.41,37.962c-4.733,0-8.585-3.853-8.585-8.589c0-0.553,0.447-1,1-1H47c0.553,0,1,0.447,1,1
				C48,34.109,44.146,37.962,39.41,37.962z M32.901,30.373c0.482,3.16,3.218,5.589,6.509,5.589c3.294,0,6.03-2.429,6.514-5.589
				H32.901z"/>
			<path d="M31.825,30.373c-0.118,0-0.237-0.021-0.354-0.064c-0.517-0.196-0.776-0.773-0.581-1.29l7.585-20.013
				c0.147-0.388,0.519-0.645,0.934-0.646c0,0,0.001,0,0.002,0c0.414,0,0.785,0.255,0.934,0.641l7.59,19.737
				c0.198,0.516-0.06,1.095-0.574,1.293c-0.517,0.196-1.095-0.059-1.293-0.574l-6.649-17.293l-6.656,17.564
				C32.608,30.127,32.229,30.373,31.825,30.373z"/>
		</g>
	</g>
	<path d="M24.001,48.063c-0.552,0-1-0.447-1-1V0.937c0-0.552,0.448-1,1-1c0.553,0,1,0.448,1,1v46.125
		C25.001,47.615,24.554,48.063,24.001,48.063z"/>
	<path d="M29.896,48.063H18.104c-0.552,0-1-0.447-1-1s0.448-1,1-1h11.792c0.553,0,1,0.447,1,1S30.449,48.063,29.896,48.063z"/>
	<g>
		<path d="M2.938,10.878c-0.448,0-0.856-0.304-0.97-0.759C1.835,9.583,2.162,9.041,2.698,8.907L23.76,3.672
			c0.533-0.132,1.078,0.193,1.212,0.729c0.133,0.536-0.193,1.079-0.729,1.212L3.18,10.849C3.099,10.869,3.018,10.878,2.938,10.878z"
			/>
		<path d="M45.06,10.878c-0.08,0-0.161-0.009-0.242-0.029L23.76,5.614c-0.536-0.133-0.862-0.676-0.729-1.212
			c0.133-0.537,0.676-0.862,1.212-0.729L45.3,8.908c0.536,0.133,0.862,0.675,0.729,1.211C45.916,10.574,45.508,10.878,45.06,10.878z
			"/>
	</g>
</g>
</svg>
