<?xml version="1.0" encoding="utf-8"?>
<!-- Generator: Adobe Illustrator 16.0.0, SVG Export Plug-In . SVG Version: 6.00 Build 0)  -->
<!DOCTYPE svg PUBLIC "-//W3C//DTD SVG 1.1//EN" "http://www.w3.org/Graphics/SVG/1.1/DTD/svg11.dtd">
<svg version="1.1" id="Layer_1" xmlns="http://www.w3.org/2000/svg" xmlns:xlink="http://www.w3.org/1999/xlink" x="0px" y="0px"
	 width="48px" height="48px" viewBox="0 0 48 48" enable-background="new 0 0 48 48" xml:space="preserve">
<g>
	<path d="M47,33.301c-0.553,0-1-0.447-1-1v-6.727c0-12.999-9.872-23.573-22.006-23.573C11.867,2.001,2,12.576,2,25.574v6.727
		c0,0.553-0.448,1-1,1s-1-0.447-1-1v-6.727C0,11.473,10.764,0.001,23.994,0.001C37.231,0.001,48,11.473,48,25.574v6.727
		C48,32.854,47.553,33.301,47,33.301z"/>
	<g>
		<g>
			<path d="M9.087,36.882H2c-1.103,0-2-0.897-2-2v-8.098c0-1.103,0.897-2,2-2h7.087c1.103,0,2,0.897,2,2v8.098
				C11.087,35.984,10.19,36.882,9.087,36.882z M9.087,34.882v1V34.882L9.087,34.882L9.087,34.882z M2,26.784v8.098h7.084
				l0.003-8.098H2z"/>
		</g>
		<g>
			<path d="M46,36.882h-7.096c-1.103,0-2-0.897-2-2v-8.098c0-1.103,0.897-2,2-2H46c1.103,0,2,0.897,2,2v8.098
				C48,35.984,47.103,36.882,46,36.882z M46,34.882v1V34.882L46,34.882L46,34.882z M38.904,26.784v8.098h7.093L46,26.784H38.904z"/>
		</g>
	</g>
	<path d="M27.438,45.177c-0.417,0-0.846-0.011-1.288-0.033c-0.552-0.028-0.976-0.498-0.948-1.05c0.028-0.552,0.501-0.982,1.05-0.948
		c11.094,0.572,13.014-6.668,13.091-6.977c0.133-0.534,0.675-0.861,1.208-0.731c0.535,0.13,0.864,0.666,0.736,1.201
		C41.266,36.728,39.105,45.177,27.438,45.177z"/>
	<path d="M21.747,47.998c-3.008,0-5.456-1.953-5.456-4.354c0-2.401,2.448-4.355,5.456-4.355c3.009,0,5.454,1.954,5.454,4.355
		C27.201,46.045,24.755,47.998,21.747,47.998z M21.75,41.289c-1.876,0-3.458,1.079-3.458,2.355c0,1.275,1.583,2.354,3.456,2.354
		c1.873,0,3.454-1.078,3.454-2.354C25.201,42.368,23.621,41.289,21.75,41.289z"/>
</g>
</svg>
