<?xml version="1.0" encoding="utf-8"?>
<!-- Generator: Adobe Illustrator 16.0.0, SVG Export Plug-In . SVG Version: 6.00 Build 0)  -->
<!DOCTYPE svg PUBLIC "-//W3C//DTD SVG 1.1//EN" "http://www.w3.org/Graphics/SVG/1.1/DTD/svg11.dtd">
<svg version="1.1" id="Layer_1" xmlns="http://www.w3.org/2000/svg" xmlns:xlink="http://www.w3.org/1999/xlink" x="0px" y="0px"
	 width="48px" height="48px" viewBox="0 0 48 48" enable-background="new 0 0 48 48" xml:space="preserve">
<g>
	<g>
		<path d="M45,41.803H3c-1.654,0-3-1.346-3-3v-25.67c0-1.654,1.346-3,3-3h42c1.654,0,3,1.346,3,3v25.67
			C48,40.457,46.654,41.803,45,41.803z M3,12.133c-0.551,0-1,0.449-1,1v25.67c0,0.552,0.449,1,1,1h42c0.552,0,1-0.448,1-1v-25.67
			c0-0.551-0.448-1-1-1H3z"/>
	</g>
	<path d="M31.091,37.859c-6.557,0-11.892-5.334-11.892-11.891c0-6.558,5.335-11.893,11.892-11.893
		c6.559,0,11.894,5.335,11.894,11.893C42.984,32.525,37.649,37.859,31.091,37.859z M31.091,16.076c-5.454,0-9.892,4.438-9.892,9.893
		c0,5.454,4.438,9.891,9.892,9.891c5.455,0,9.894-4.437,9.894-9.891C40.984,20.514,36.546,16.076,31.091,16.076z"/>
	<path d="M31.092,31.682c-3.148,0-5.71-2.563-5.71-5.713c0-3.152,2.562-5.716,5.71-5.716c1.528,0,2.964,0.594,4.044,1.673
		c1.08,1.08,1.675,2.515,1.675,4.042C36.811,29.119,34.245,31.682,31.092,31.682z M31.094,22.253c-2.047,0-3.712,1.667-3.712,3.716
		c0,2.047,1.664,3.713,3.71,3.713c2.051,0,3.719-1.666,3.719-3.713C34.811,23.92,33.144,22.253,31.094,22.253z"/>
	<g>
		<path d="M15.153,22.574H6.201c-0.552,0-1-0.448-1-1s0.448-1,1-1h8.952c0.552,0,1,0.448,1,1S15.705,22.574,15.153,22.574z"/>
		<path d="M15.153,31.359H6.201c-0.552,0-1-0.447-1-1s0.448-1,1-1h8.952c0.552,0,1,0.447,1,1S15.705,31.359,15.153,31.359z"/>
	</g>
	<path d="M19.119,8.197h-8.615c-0.552,0-1-0.448-1-1s0.448-1,1-1h8.615c0.552,0,1,0.448,1,1S19.671,8.197,19.119,8.197z"/>
</g>
</svg>
