<?xml version="1.0" encoding="utf-8"?>
<!-- Generator: Adobe Illustrator 16.0.0, SVG Export Plug-In . SVG Version: 6.00 Build 0)  -->
<!DOCTYPE svg PUBLIC "-//W3C//DTD SVG 1.1//EN" "http://www.w3.org/Graphics/SVG/1.1/DTD/svg11.dtd">
<svg version="1.1" id="Layer_1" xmlns="http://www.w3.org/2000/svg" xmlns:xlink="http://www.w3.org/1999/xlink" x="0px" y="0px"
	 width="48px" height="48px" viewBox="0 0 48 48" enable-background="new 0 0 48 48" xml:space="preserve">
<g>
	<g>
		<path d="M24.002,20.799c-4.038,0-7.324-3.286-7.324-7.324c0-4.039,3.286-7.324,7.324-7.324c4.039,0,7.324,3.286,7.324,7.324
			C31.326,17.513,28.041,20.799,24.002,20.799z M24.002,8.151c-2.936,0-5.324,2.389-5.324,5.324s2.388,5.324,5.324,5.324
			s5.324-2.388,5.324-5.324S26.938,8.151,24.002,8.151z"/>
		<path d="M34.979,24.158H13.025c-2.778,0-5.039-2.26-5.039-5.037V7.829c0-2.778,2.261-5.039,5.039-5.039h5.93V1
			c0-0.552,0.448-1,1-1h8.094c0.553,0,1,0.448,1,1v1.79h5.93c2.777,0,5.037,2.261,5.037,5.039v11.292
			C40.016,21.898,37.756,24.158,34.979,24.158z M13.025,4.79c-1.676,0-3.039,1.363-3.039,3.039v11.292
			c0,1.675,1.363,3.037,3.039,3.037h21.954c1.675,0,3.037-1.362,3.037-3.037V7.829c0-1.676-1.362-3.039-3.037-3.039h-6.93
			c-0.553,0-1-0.448-1-1V2h-6.094v1.79c0,0.552-0.448,1-1,1H13.025z"/>
	</g>
	<path d="M24.024,48c-0.552,0-1-0.447-1-1V23.609c0-0.552,0.448-1,1-1s1,0.448,1,1V47C25.023,47.553,24.576,48,24.024,48z"/>
	<g>
		<path d="M12.138,45.063c-0.269,0-0.537-0.107-0.734-0.321c-0.375-0.405-0.351-1.038,0.055-1.413l11.886-10.996
			c0.405-0.375,1.037-0.353,1.413,0.056c0.375,0.405,0.351,1.038-0.055,1.413L12.817,44.797
			C12.625,44.975,12.381,45.063,12.138,45.063z"/>
		<path d="M35.912,45.063c-0.243,0-0.486-0.088-0.679-0.266L23.345,33.801c-0.405-0.375-0.43-1.008-0.055-1.413
			c0.374-0.406,1.007-0.431,1.413-0.056l11.888,10.996c0.405,0.375,0.431,1.008,0.056,1.413
			C36.449,44.954,36.181,45.063,35.912,45.063z"/>
	</g>
</g>
</svg>
