<?xml version="1.0" encoding="utf-8"?>
<!-- Generator: Adobe Illustrator 16.0.0, SVG Export Plug-In . SVG Version: 6.00 Build 0)  -->
<!DOCTYPE svg PUBLIC "-//W3C//DTD SVG 1.1//EN" "http://www.w3.org/Graphics/SVG/1.1/DTD/svg11.dtd">
<svg version="1.1" id="Layer_1" xmlns="http://www.w3.org/2000/svg" xmlns:xlink="http://www.w3.org/1999/xlink" x="0px" y="0px"
	 width="48px" height="48px" viewBox="0 0 48 48" enable-background="new 0 0 48 48" xml:space="preserve">
<g>
	<path d="M8.606,48c-0.264,0-0.527-0.104-0.722-0.308c-0.354-0.369-0.373-0.947-0.042-1.339L25.917,25H1
		c-0.399,0-0.76-0.237-0.918-0.604c-0.158-0.367-0.083-0.792,0.191-1.083l21.732-23C22.194,0.113,22.457,0,22.732,0h19.2
		c0.42,0,0.796,0.263,0.939,0.658s0.025,0.837-0.296,1.108L25.477,16.134H47c0.427,0,0.808,0.271,0.946,0.675
		c0.139,0.404,0.005,0.852-0.332,1.114L9.22,47.789C9.038,47.931,8.822,48,8.606,48z M3.321,23h24.752
		c0.39,0,0.743,0.226,0.907,0.579c0.164,0.354,0.107,0.77-0.144,1.067L15.581,40.308l28.505-22.174H22.732
		c-0.42,0-0.796-0.263-0.939-0.658c-0.144-0.395-0.025-0.837,0.296-1.108L39.188,2H23.163L3.321,23z"/>
</g>
</svg>
