<?xml version="1.0" encoding="utf-8"?>
<!-- Generator: Adobe Illustrator 16.0.0, SVG Export Plug-In . SVG Version: 6.00 Build 0)  -->
<!DOCTYPE svg PUBLIC "-//W3C//DTD SVG 1.1//EN" "http://www.w3.org/Graphics/SVG/1.1/DTD/svg11.dtd">
<svg version="1.1" id="Layer_1" xmlns="http://www.w3.org/2000/svg" xmlns:xlink="http://www.w3.org/1999/xlink" x="0px" y="0px"
	 width="48px" height="48px" viewBox="0 0 48 48" enable-background="new 0 0 48 48" xml:space="preserve">
<g>
	<path d="M11.42,48c-0.206,0-0.412-0.063-0.588-0.191c-0.362-0.263-0.505-0.733-0.351-1.153l5.242-14.28L3.089,23.904
		c-0.371-0.249-0.532-0.714-0.394-1.14c0.138-0.425,0.548-0.706,0.989-0.69l15.201,0.571l4.154-14.631
		C23.16,7.584,23.553,7.287,24,7.287l0,0c0.447,0,0.84,0.297,0.962,0.727l4.152,14.631l15.2-0.571
		c0.402-0.018,0.85,0.266,0.988,0.69c0.138,0.425-0.022,0.891-0.395,1.14l-12.634,8.471l5.242,14.28
		c0.154,0.42,0.011,0.891-0.351,1.153c-0.362,0.264-0.854,0.255-1.206-0.022L24,38.389l-11.962,9.397
		C11.857,47.929,11.638,48,11.42,48z M7.129,24.205l10.36,6.948c0.383,0.257,0.541,0.742,0.382,1.175l-4.298,11.71l9.81-7.706
		c0.362-0.285,0.873-0.285,1.236,0l9.807,7.705l-4.299-11.709c-0.159-0.433-0.002-0.919,0.382-1.176l10.36-6.947l-12.464,0.468
		c-0.453,0.037-0.873-0.282-0.999-0.726L24,11.949l-3.406,11.998c-0.126,0.444-0.535,0.762-1,0.726L7.129,24.205z"/>
	<path d="M13.505,24.073H3.646c-0.552,0-1-0.448-1-1V1c0-0.552,0.448-1,1-1h9.859c0.552,0,1,0.448,1,1v22.073
		C14.505,23.625,14.057,24.073,13.505,24.073z M4.646,22.073h7.859V2H4.646V22.073z"/>
	<path d="M29.93,23.073h-2V2h-7.86v21.073h-2V1c0-0.552,0.448-1,1-1h9.86c0.553,0,1,0.448,1,1V23.073z"/>
	<path d="M44.354,24.073h-9.86c-0.553,0-1-0.448-1-1V1c0-0.552,0.447-1,1-1h9.86c0.553,0,1,0.448,1,1v22.073
		C45.354,23.625,44.906,24.073,44.354,24.073z M35.493,22.073h7.86V2h-7.86V22.073z"/>
</g>
</svg>
