<?xml version="1.0" encoding="utf-8"?>
<!-- Generator: Adobe Illustrator 16.0.0, SVG Export Plug-In . SVG Version: 6.00 Build 0)  -->
<!DOCTYPE svg PUBLIC "-//W3C//DTD SVG 1.1//EN" "http://www.w3.org/Graphics/SVG/1.1/DTD/svg11.dtd">
<svg version="1.1" id="Layer_1" xmlns="http://www.w3.org/2000/svg" xmlns:xlink="http://www.w3.org/1999/xlink" x="0px" y="0px"
	 width="48px" height="48px" viewBox="0 0 48 48" enable-background="new 0 0 48 48" xml:space="preserve">
<g>
	<path d="M19.901,48h-18.9c-0.552,0-1-0.447-1-1V1c0-0.552,0.448-1,1-1h18.9c0.552,0,1,0.448,1,1v46
		C20.901,47.553,20.453,48,19.901,48z M2.001,46h16.9V2h-16.9V46z"/>
	<path d="M46.999,48H28.1c-0.553,0-1-0.447-1-1V1c0-0.552,0.447-1,1-1h18.899c0.553,0,1,0.448,1,1v46
		C47.999,47.553,47.552,48,46.999,48z M29.1,46h16.899V2H29.1V46z"/>
</g>
</svg>
