<?xml version="1.0" encoding="utf-8"?>
<!-- Generator: Adobe Illustrator 16.0.0, SVG Export Plug-In . SVG Version: 6.00 Build 0)  -->
<!DOCTYPE svg PUBLIC "-//W3C//DTD SVG 1.1//EN" "http://www.w3.org/Graphics/SVG/1.1/DTD/svg11.dtd">
<svg version="1.1" id="Layer_1" xmlns="http://www.w3.org/2000/svg" xmlns:xlink="http://www.w3.org/1999/xlink" x="0px" y="0px"
	 width="48px" height="48px" viewBox="0 0 48 48" enable-background="new 0 0 48 48" xml:space="preserve">
<g>
	<path d="M8.164,33.29c-0.215,0-0.427-0.069-0.603-0.202c-0.25-0.188-0.397-0.484-0.397-0.798V1c0-0.307,0.141-0.598,0.383-0.787
		c0.242-0.189,0.56-0.254,0.855-0.184l21.746,5.352c0.446,0.11,0.761,0.511,0.761,0.971v19.761c0,0.447-0.297,0.84-0.727,0.962
		L8.438,33.252C8.348,33.277,8.255,33.29,8.164,33.29z M9.164,2.276v28.691l19.745-5.609V7.136L9.164,2.276z"/>
	<path d="M39.26,24.891c-3.804,0-8.337-0.406-8.337-2.34s4.533-2.34,8.337-2.34s8.338,0.406,8.338,2.34S43.063,24.891,39.26,24.891z
		 M34.463,22.551c1.116,0.187,2.733,0.34,4.797,0.34s3.682-0.153,4.797-0.34c-1.115-0.187-2.733-0.34-4.797-0.34
		C37.197,22.211,35.579,22.364,34.463,22.551z"/>
	<rect x="28.723" y="29.628" transform="matrix(0.702 0.7122 -0.7122 0.702 33.5713 -18.9764)" width="21.477" height="2"/>
	<rect x="38.687" y="26.26" transform="matrix(0.6916 0.7223 -0.7223 0.6916 33.0585 -22.9036)" width="9.325" height="2.001"/>
	<rect x="30.61" y="33.835" transform="matrix(0.6954 0.7186 -0.7186 0.6954 35.6699 -14.4832)" width="8.618" height="2"/>
	<rect x="34.654" y="22.547" transform="matrix(0.7149 0.6993 -0.6993 0.7149 29.2273 -17.1589)" width="2" height="9.426"/>
	<rect x="43.068" y="30.571" transform="matrix(0.7264 0.6873 -0.6873 0.7264 36.0012 -20.7565)" width="2.001" height="8.529"/>
	<path d="M31.923,39.275c-0.127,0-0.255-0.024-0.377-0.073c-0.377-0.153-0.623-0.52-0.623-0.927V22.751h2v13.063l13.175-13.532
		c0.284-0.292,0.718-0.382,1.094-0.229c0.377,0.153,0.623,0.52,0.623,0.926v14.952h-2V25.44L32.64,38.973
		C32.447,39.17,32.188,39.275,31.923,39.275z"/>
	<rect x="18.474" y="21.751" width="12.939" height="2"/>
	<rect y="1" width="2" height="46"/>
	<path d="M7.471,23.701l-7.164-6.892c-0.214-0.206-0.326-0.497-0.304-0.793c0.022-0.296,0.174-0.568,0.416-0.741l7.164-5.123
		l1.163,1.627l-6.185,4.423l6.297,6.058L7.471,23.701z"/>
</g>
</svg>
