<?xml version="1.0" encoding="utf-8"?>
<!-- Generator: Adobe Illustrator 16.0.0, SVG Export Plug-In . SVG Version: 6.00 Build 0)  -->
<!DOCTYPE svg PUBLIC "-//W3C//DTD SVG 1.1//EN" "http://www.w3.org/Graphics/SVG/1.1/DTD/svg11.dtd">
<svg version="1.1" id="Layer_1" xmlns="http://www.w3.org/2000/svg" xmlns:xlink="http://www.w3.org/1999/xlink" x="0px" y="0px"
	 width="48px" height="48px" viewBox="0 0 48 48" enable-background="new 0 0 48 48" xml:space="preserve">
<g>
	<g>
		<g>
			<path d="M23.166,48H7.059c-0.523,0-0.958-0.403-0.997-0.925L3.315,10.781c-0.021-0.278,0.075-0.551,0.264-0.755
				c0.189-0.204,0.455-0.32,0.733-0.32h21.602c0.278,0,0.544,0.116,0.733,0.32s0.285,0.478,0.264,0.755l-2.748,36.294
				C24.124,47.597,23.689,48,23.166,48z M7.986,46h14.252l2.597-34.295H5.391L7.986,46z"/>
			<path d="M8.362,26.97c-1.073,0-2.196-0.227-3.337-0.685l0.744-1.856c2.226,0.891,4.239,0.68,5.823-0.611L11.98,23.5
				c1.554-1.277,3.488-2.865,5.313-3.526c2.619-0.949,5.644-0.296,8.296,1.792l-1.237,1.571c-2.098-1.65-4.42-2.19-6.378-1.483
				c-1.501,0.544-3.364,2.074-4.724,3.191l-0.394,0.322C11.552,26.431,10.015,26.97,8.362,26.97z"/>
			<path d="M15.267,21.939l-6.89-19.65L1.345,4.872L0.655,2.995L8.64,0.062C8.892-0.03,9.169-0.018,9.412,0.096
				C9.654,0.21,9.84,0.417,9.929,0.669l7.226,20.608L15.267,21.939z"/>
			<g>
				<path d="M42.879,48H31.912c-2.824,0-5.121-2.486-5.121-5.543v-1.725c0-0.553,0.447-1,1-1H47c0.553,0,1,0.447,1,1v1.725
					C48,45.514,45.703,48,42.879,48z M28.791,41.732v0.725c0,1.953,1.4,3.543,3.121,3.543h10.967C44.6,46,46,44.41,46,42.457v-0.725
					H28.791z"/>
				<path d="M47,38.675H27.791c-0.553,0-1-0.447-1-1c0-5.209,4.758-9.446,10.605-9.446c5.847,0,10.604,4.237,10.604,9.446
					C48,38.228,47.553,38.675,47,38.675z M28.868,36.675h17.055c-0.566-3.635-4.174-6.446-8.526-6.446
					C33.043,30.229,29.435,33.04,28.868,36.675z"/>
			</g>
		</g>
		<rect x="18.753" y="25.957" transform="matrix(0.9987 0.0518 -0.0518 0.9987 1.834 -0.9757)" width="2" height="17.922"/>
	</g>
	<path d="M41.121,35.275c-1.856-1.573-4.277-1.532-4.292-1.532l-0.058-2c0.12,0.002,3.188-0.072,5.643,2.005L41.121,35.275z"/>
</g>
</svg>
