<?xml version="1.0" encoding="utf-8"?>
<!-- Generator: Adobe Illustrator 16.0.0, SVG Export Plug-In . SVG Version: 6.00 Build 0)  -->
<!DOCTYPE svg PUBLIC "-//W3C//DTD SVG 1.1//EN" "http://www.w3.org/Graphics/SVG/1.1/DTD/svg11.dtd">
<svg version="1.1" id="Layer_1" xmlns="http://www.w3.org/2000/svg" xmlns:xlink="http://www.w3.org/1999/xlink" x="0px" y="0px"
	 width="48px" height="48px" viewBox="0 0 48 48" enable-background="new 0 0 48 48" xml:space="preserve">
<g>
	<path d="M33.733,48.001c-2.908,0-7.37-0.879-12.165-5.047l-6.107-2.836c-0.981-0.174-6.334-1.267-7.797-4.686
		c-0.756-1.766-0.371-3.762,1.144-5.935c2.639-3.783,7.775-14.08,10.283-28.667c0.047-0.278,0.21-0.522,0.448-0.674
		c0.237-0.15,0.528-0.194,0.799-0.122l13.4,3.635c0.295,0.08,0.537,0.291,0.657,0.572c0.121,0.281,0.105,0.602-0.04,0.871
		c-4.072,7.503-10.224,20.534-9.393,23.559c0.928,3.368,7.786,9.893,10.701,12.437h3.035c0.297,0,0.578,0.132,0.769,0.359
		c0.157,0.189,1.531,1.898,1.185,3.557c-0.116,0.554-0.472,1.322-1.506,1.839C38.464,47.204,36.567,48.001,33.733,48.001z
		 M20.87,2.251c-2.633,14.366-7.754,24.567-10.421,28.391c-1.094,1.568-1.412,2.915-0.946,4.003c0.952,2.224,4.95,3.295,6.41,3.521
		c0.093,0.015,0.184,0.042,0.269,0.081l6.359,2.953c0.086,0.04,0.167,0.093,0.239,0.156c4.368,3.839,8.367,4.645,10.954,4.645
		c2.475,0,4.084-0.71,4.518-0.928c0.387-0.192,0.426-0.379,0.443-0.458c0.084-0.396-0.199-1.031-0.505-1.508h-2.898
		c-0.239,0-0.471-0.086-0.651-0.241c-0.42-0.361-10.289-8.885-11.605-13.665C21.854,24.9,29.592,9.812,32.001,5.271L20.87,2.251z"/>
	<path d="M15.524,39.243l-1.88-0.682c2.725-7.515-2.296-10.905-2.512-11.046l1.083-1.682C12.281,25.876,18.809,30.187,15.524,39.243
		z"/>
	<path d="M31.191,47.162c-1.025-3.895,1.463-6.072,2.923-6.679l0.768,1.846l-0.384-0.923l0.392,0.92
		c-0.267,0.116-2.581,1.223-1.765,4.326L31.191,47.162z"/>
	<rect x="18.563" y="7.707" transform="matrix(0.9373 0.3485 -0.3485 0.9373 4.5782 -8.0347)" width="12.117" height="2"/>
	<rect x="17.527" y="11.734" transform="matrix(0.9405 0.3398 -0.3398 0.9405 5.7047 -7.1131)" width="11.276" height="2"/>
</g>
</svg>
