<?xml version="1.0" encoding="utf-8"?>
<!-- Generator: Adobe Illustrator 16.0.0, SVG Export Plug-In . SVG Version: 6.00 Build 0)  -->
<!DOCTYPE svg PUBLIC "-//W3C//DTD SVG 1.1//EN" "http://www.w3.org/Graphics/SVG/1.1/DTD/svg11.dtd">
<svg version="1.1" id="Layer_1" xmlns="http://www.w3.org/2000/svg" xmlns:xlink="http://www.w3.org/1999/xlink" x="0px" y="0px"
	 width="48px" height="48px" viewBox="0 0 48 48" enable-background="new 0 0 48 48" xml:space="preserve">
<g>
	<path d="M40.84,48H7.981c-0.279,0-0.545-0.116-0.734-0.321c-0.189-0.204-0.285-0.479-0.263-0.756l2.758-35.5
		c0.041-0.521,0.475-0.922,0.997-0.922h27.344c0.522,0,0.957,0.402,0.997,0.922l2.757,35.5c0.021,0.277-0.074,0.552-0.263,0.756
		C41.385,47.884,41.118,48,40.84,48z M9.062,46h30.697l-2.602-33.5H11.665L9.062,46z"/>
	<path d="M44.125,12.5H3.875c-0.552,0-1-0.448-1-1V1c0-0.552,0.448-1,1-1h7.54c0.552,0,1,0.448,1,1v4.25h6.362V1
		c0-0.552,0.448-1,1-1h8.446c0.553,0,1,0.448,1,1v4.25h6.363V1c0-0.552,0.447-1,1-1h7.539c0.553,0,1,0.448,1,1v10.5
		C45.125,12.052,44.678,12.5,44.125,12.5z M4.875,10.5h38.25V2h-5.539v4.25c0,0.552-0.447,1-1,1h-8.363c-0.553,0-1-0.448-1-1V2
		h-6.446v4.25c0,0.552-0.448,1-1,1h-8.362c-0.552,0-1-0.448-1-1V2h-5.54V10.5z"/>
	<path d="M29.225,48H19.33c-0.552,0-1-0.447-1-1V30.991c0-0.553,0.448-1,1-1h9.895c0.553,0,1,0.447,1,1V47
		C30.225,47.553,29.777,48,29.225,48z M20.33,46h7.895V31.991H20.33V46z"/>
	<path d="M29.225,25.861H19.33c-0.552,0-1-0.447-1-1v-7.313c0-0.552,0.448-1,1-1h9.895c0.553,0,1,0.448,1,1v7.313
		C30.225,25.414,29.777,25.861,29.225,25.861z M20.33,23.861h7.895v-5.313H20.33V23.861z"/>
</g>
</svg>
