<?xml version="1.0" encoding="utf-8"?>
<!-- Generator: Adobe Illustrator 16.0.0, SVG Export Plug-In . SVG Version: 6.00 Build 0)  -->
<!DOCTYPE svg PUBLIC "-//W3C//DTD SVG 1.1//EN" "http://www.w3.org/Graphics/SVG/1.1/DTD/svg11.dtd">
<svg version="1.1" id="Layer_1" xmlns="http://www.w3.org/2000/svg" xmlns:xlink="http://www.w3.org/1999/xlink" x="0px" y="0px"
	 width="48px" height="48px" viewBox="0 0 48 48" enable-background="new 0 0 48 48" xml:space="preserve">
<g>
	<g>
		<path d="M28.113,48h-8.229c-2.623,0-4.756-2.134-4.756-4.757V18.847c0-2.152,1.491-4.02,3.521-4.573L19.982,0h8.037l1.332,14.274
			c2.031,0.553,3.521,2.421,3.521,4.573v24.396C32.871,45.866,30.736,48,28.113,48z M21.804,2l-1.312,14.048l-0.833,0.071
			c-1.419,0.12-2.531,1.319-2.531,2.729v24.396c0,1.521,1.236,2.757,2.756,2.757h8.229c1.521,0,2.758-1.236,2.758-2.757V18.847
			c0.001-1.41-1.11-2.608-2.53-2.729l-0.833-0.071L26.196,2H21.804z"/>
		<rect x="20.458" y="3.394" width="7.084" height="2"/>
	</g>
	<polygon points="31.453,40.618 20.194,40.618 20.194,23.941 31.311,23.941 31.311,25.941 22.194,25.941 22.194,38.618 
		31.453,38.618 	"/>
</g>
</svg>
