<?xml version="1.0" encoding="utf-8"?>
<!-- Generator: Adobe Illustrator 16.0.0, SVG Export Plug-In . SVG Version: 6.00 Build 0)  -->
<!DOCTYPE svg PUBLIC "-//W3C//DTD SVG 1.1//EN" "http://www.w3.org/Graphics/SVG/1.1/DTD/svg11.dtd">
<svg version="1.1" id="Layer_1" xmlns="http://www.w3.org/2000/svg" xmlns:xlink="http://www.w3.org/1999/xlink" x="0px" y="0px"
	 width="48px" height="48px" viewBox="0 0 48 48" enable-background="new 0 0 48 48" xml:space="preserve">
<g>
	<path d="M5.306,18.538C2.38,18.538,0,16.158,0,13.232s2.38-5.306,5.306-5.306s5.306,2.38,5.306,5.306S8.232,18.538,5.306,18.538z
		 M5.306,9.926C3.483,9.926,2,11.409,2,13.232s1.483,3.306,3.306,3.306c1.823,0,3.306-1.483,3.306-3.306S7.129,9.926,5.306,9.926z"
		/>
	<rect x="1" y="38.073" width="8.613" height="2"/>
	<rect x="4.306" y="17.539" width="2" height="21.534"/>
	<path d="M42.693,18.539c-2.926,0-5.307-2.381-5.307-5.307s2.381-5.307,5.307-5.307S48,10.306,48,13.232
		S45.619,18.539,42.693,18.539z M42.693,9.925c-1.823,0-3.307,1.483-3.307,3.307s1.483,3.307,3.307,3.307S46,15.056,46,13.232
		S44.517,9.925,42.693,9.925z"/>
	<rect x="38.387" y="38.073" width="8.613" height="2"/>
	<rect x="41.693" y="17.539" width="2" height="21.534"/>
	<path d="M23.042,20.84c-9.236,0-14.636-4.542-14.716-4.612l1.308-1.513c0.449,0.385,11.187,9.317,28.917-0.125l0.939,1.766
		C33.182,19.715,27.636,20.84,23.042,20.84z"/>
	<rect x="13.243" y="38.073" width="20.844" height="2"/>
</g>
</svg>
