<?xml version="1.0" encoding="utf-8"?>
<!-- Generator: Adobe Illustrator 16.0.0, SVG Export Plug-In . SVG Version: 6.00 Build 0)  -->
<!DOCTYPE svg PUBLIC "-//W3C//DTD SVG 1.1//EN" "http://www.w3.org/Graphics/SVG/1.1/DTD/svg11.dtd">
<svg version="1.1" id="Layer_1" xmlns="http://www.w3.org/2000/svg" xmlns:xlink="http://www.w3.org/1999/xlink" x="0px" y="0px"
	 width="48px" height="48px" viewBox="0 0 48 48" enable-background="new 0 0 48 48" xml:space="preserve">
<g>
	<path d="M23.999,48c-5.85,0-10.609-5.48-10.609-12.216V6.078c0-0.552,0.448-1,1-1h19.217c0.553,0,1,0.448,1,1v29.706
		C34.607,42.52,29.849,48,23.999,48z M15.39,7.078v28.706C15.39,41.417,19.252,46,23.999,46s8.608-4.583,8.608-10.216V7.078H15.39z"
		/>
	<path d="M36.544,7.078H11.456V0h25.088V7.078z M13.456,5.078h21.088V2H13.456V5.078z"/>
	<path d="M30.124,18.811c-0.394,0-0.815-0.045-1.272-0.146c-1.24-0.274-2.219-1.028-3.083-1.694
		c-0.75-0.577-1.458-1.123-2.241-1.313c-1.499-0.364-2.903,0.567-3.607,1.155c-1.827,1.525-3.58,1.993-6.047,1.619l0.301-1.978
		c1.882,0.286,3.094-0.033,4.465-1.177c0.993-0.83,3.011-2.137,5.36-1.563c1.195,0.289,2.107,0.992,2.989,1.671
		c0.767,0.59,1.49,1.148,2.296,1.326c1.4,0.311,2.185-0.127,3.557-0.998l1.072,1.688C32.819,18.097,31.695,18.811,30.124,18.811z"/>
	<path d="M21.951,37.288c-2.602,0-4.718-2.116-4.718-4.718s2.117-4.719,4.718-4.719s4.718,2.117,4.718,4.719
		S24.553,37.288,21.951,37.288z M21.951,29.852c-1.499,0-2.718,1.22-2.718,2.719s1.219,2.718,2.718,2.718
		c1.499,0,2.718-1.219,2.718-2.718S23.45,29.852,21.951,29.852z"/>
	<path d="M26.333,26.695c-2.046,0-3.71-1.664-3.71-3.71c0-2.046,1.664-3.71,3.71-3.71s3.71,1.664,3.71,3.71
		C30.043,25.031,28.379,26.695,26.333,26.695z M26.333,21.275c-0.943,0-1.71,0.767-1.71,1.71c0,0.943,0.767,1.71,1.71,1.71
		s1.71-0.767,1.71-1.71C28.043,22.042,27.276,21.275,26.333,21.275z"/>
	<path d="M26.167,44.587c-1.622,0-2.941-1.319-2.941-2.94c0-1.622,1.319-2.941,2.941-2.941c1.621,0,2.94,1.319,2.94,2.941
		C29.107,43.268,27.788,44.587,26.167,44.587z M26.167,40.705c-0.519,0-0.941,0.422-0.941,0.941c0,0.519,0.423,0.94,0.941,0.94
		s0.94-0.422,0.94-0.94C27.107,41.127,26.686,40.705,26.167,40.705z"/>
</g>
</svg>
