<?xml version="1.0" encoding="utf-8"?>
<!-- Generator: Adobe Illustrator 16.0.0, SVG Export Plug-In . SVG Version: 6.00 Build 0)  -->
<!DOCTYPE svg PUBLIC "-//W3C//DTD SVG 1.1//EN" "http://www.w3.org/Graphics/SVG/1.1/DTD/svg11.dtd">
<svg version="1.1" id="Layer_1" xmlns="http://www.w3.org/2000/svg" xmlns:xlink="http://www.w3.org/1999/xlink" x="0px" y="0px"
	 width="48px" height="48px" viewBox="0 0 48 48" enable-background="new 0 0 48 48" xml:space="preserve">
<g>
	<polygon points="34.008,20.925 32.008,20.925 32.008,14.176 15.992,14.176 15.992,20.925 13.992,20.925 13.992,12.176 
		34.008,12.176 	"/>
	<polygon points="34.008,48 13.992,48 13.992,30.119 15.992,30.119 15.992,46 32.008,46 32.008,30.119 34.008,30.119 	"/>
	<path d="M14.343,31.939H6.01l-0.265-0.196c-0.093-0.068-2.27-1.73-2.27-6.091c0-4.373,2.13-6.214,2.221-6.291l0.279-0.234h8.368v2
		H6.769c-0.417,0.515-1.293,1.907-1.293,4.525c0,2.554,0.857,3.826,1.265,4.287h7.603V31.939z"/>
	<path d="M9.395,31.743c-0.092-0.068-2.27-1.73-2.27-6.091c0-4.373,2.131-6.215,2.222-6.291l1.287,1.531L9.99,20.127l0.654,0.756
		c-0.063,0.055-1.52,1.393-1.52,4.769c0,3.279,1.414,4.446,1.474,4.494L9.395,31.743z"/>
	<rect x="1" y="24.2" width="3.475" height="2"/>
	<g>
		<path d="M41.99,31.939h-8.333v-2h7.604c0.399-0.451,1.264-1.724,1.264-4.287c0-2.612-0.872-4.003-1.296-4.525h-7.572v-2h8.367
			l0.279,0.234c0.091,0.076,2.222,1.918,2.222,6.291c0,4.36-2.178,6.022-2.271,6.091L41.99,31.939z"/>
		<path d="M38.604,31.743l-1.189-1.607c0.046-0.037,1.46-1.204,1.46-4.483c0-3.376-1.457-4.714-1.52-4.769l1.298-1.522
			c0.091,0.076,2.222,1.918,2.222,6.291C40.875,30.013,38.697,31.675,38.604,31.743z"/>
		<rect x="43.525" y="24.2" width="3.475" height="2"/>
	</g>
	<rect x="1" y="46" width="46" height="2"/>
	<path d="M23.99,32.328c-3.858,0-6.997-3.139-6.997-6.997s3.139-6.997,6.997-6.997c3.857,0,6.996,3.139,6.996,6.997
		S27.848,32.328,23.99,32.328z M23.99,20.334c-2.755,0-4.997,2.242-4.997,4.997c0,2.756,2.242,4.997,4.997,4.997
		c2.755,0,4.996-2.241,4.996-4.997C28.986,22.576,26.745,20.334,23.99,20.334z"/>
	<path d="M23.99,29.052c-2.052,0-3.721-1.669-3.721-3.721s1.669-3.721,3.721-3.721s3.721,1.669,3.721,3.721
		S26.042,29.052,23.99,29.052z M23.99,23.61c-0.949,0-1.721,0.772-1.721,1.721s0.772,1.721,1.721,1.721s1.721-0.771,1.721-1.721
		S24.939,23.61,23.99,23.61z"/>
	<path d="M34.008,14.175H13.992V9.733C13.992,4.366,18.358,0,23.725,0h0.549c5.368,0,9.734,4.366,9.734,9.733V14.175z
		 M15.992,12.175h16.016V9.733c0-4.264-3.47-7.733-7.734-7.733h-0.549c-4.264,0-7.733,3.469-7.733,7.733V12.175z"/>
</g>
</svg>
