<?xml version="1.0" encoding="utf-8"?>
<!-- Generator: Adobe Illustrator 16.0.0, SVG Export Plug-In . SVG Version: 6.00 Build 0)  -->
<!DOCTYPE svg PUBLIC "-//W3C//DTD SVG 1.1//EN" "http://www.w3.org/Graphics/SVG/1.1/DTD/svg11.dtd">
<svg version="1.1" id="Layer_1" xmlns="http://www.w3.org/2000/svg" xmlns:xlink="http://www.w3.org/1999/xlink" x="0px" y="0px"
	 width="48px" height="48px" viewBox="0 0 48 48" enable-background="new 0 0 48 48" xml:space="preserve">
<g>
	<path d="M17.321,48c-0.26,0-0.516-0.102-0.707-0.293L3.767,34.861c-0.188-0.188-0.293-0.441-0.293-0.707s0.105-0.52,0.293-0.707
		l12.847-12.843c0.286-0.287,0.716-0.372,1.09-0.217c0.374,0.155,0.617,0.52,0.617,0.924v4.133c0.13,0.001,0.267,0.002,0.407,0.002
		c4.559,0,12.302-0.894,12.938-6.879c0.68-6.422-4.147-11.87-14.756-16.656c-0.434-0.196-0.669-0.669-0.564-1.133
		S16.868-0.018,17.344,0c0.272,0.006,27.182,0.865,27.182,21.311c0,19.043-20.916,22.075-26.205,22.536V47
		c0,0.404-0.244,0.77-0.617,0.924C17.58,47.976,17.45,48,17.321,48z M5.889,34.154l10.432,10.432v-1.67
		c0-0.531,0.416-0.97,0.947-0.999c4.218-0.226,25.258-2.279,25.258-20.606c0-13.261-12.443-17.421-19.863-18.722
		c8.048,4.627,11.652,9.954,10.992,16.189c-0.585,5.509-6.025,8.668-14.926,8.668c-0.567,0-1.06-0.014-1.452-0.031
		c-0.535-0.023-0.956-0.464-0.956-0.999v-2.691L5.889,34.154z"/>
</g>
</svg>
