<?xml version="1.0" encoding="utf-8"?>
<!-- Generator: Adobe Illustrator 16.0.0, SVG Export Plug-In . SVG Version: 6.00 Build 0)  -->
<!DOCTYPE svg PUBLIC "-//W3C//DTD SVG 1.1//EN" "http://www.w3.org/Graphics/SVG/1.1/DTD/svg11.dtd">
<svg version="1.1" id="Layer_1" xmlns="http://www.w3.org/2000/svg" xmlns:xlink="http://www.w3.org/1999/xlink" x="0px" y="0px"
	 width="48px" height="48px" viewBox="0 0 48 48" enable-background="new 0 0 48 48" xml:space="preserve">
<g>
	<polygon points="10.922,47.999 0,47.999 0,37.792 17.85,21.136 19.214,22.598 2,38.661 2,45.999 10.08,45.999 27.39,28.255 
		28.821,29.651 	"/>
	<path d="M33.227,25.336l-1.445-1.383c0.394-0.411,0.463-1.177,0.189-2.1l-0.497-1.68l1.699,0.427
		c0.926,0.232,1.683,0.131,2.075-0.279c0.393-0.411,0.462-1.178,0.189-2.104l-0.496-1.683l1.701,0.431
		c0.924,0.233,1.679,0.131,2.071-0.279c0.393-0.411,0.461-1.177,0.188-2.102l-0.496-1.68l1.699,0.427
		c0.928,0.233,1.683,0.132,2.072-0.277c0.396-0.413,0.464-1.18,0.191-2.105l-0.496-1.683l1.7,0.431
		c0.922,0.233,1.68,0.133,2.073-0.278c0.823-0.864,0.246-3.267-1.9-5.334c-1.361-1.313-3.042-2.125-4.262-2.084
		c-0.489,0.01-0.861,0.146-1.106,0.402c-0.395,0.412-0.463,1.177-0.188,2.1l0.499,1.683l-1.702-0.428
		c-0.926-0.231-1.683-0.132-2.073,0.279c-0.394,0.412-0.463,1.178-0.19,2.104l0.496,1.684l-1.701-0.432
		c-0.925-0.233-1.678-0.133-2.068,0.276c-0.396,0.414-0.466,1.18-0.192,2.105l0.497,1.681l-1.7-0.428
		c-0.924-0.233-1.683-0.132-2.073,0.278c-0.394,0.412-0.462,1.178-0.189,2.104l0.495,1.682l-1.699-0.431
		c-0.925-0.234-1.681-0.134-2.073,0.277l-1.447-1.381c0.638-0.668,1.521-1.016,2.561-1.023c-0.037-1.044,0.271-1.944,0.907-2.61
		c0.636-0.667,1.519-1.015,2.559-1.023c-0.037-1.045,0.271-1.946,0.909-2.613c0.624-0.656,1.519-1.004,2.557-1.017
		c-0.038-1.046,0.27-1.948,0.908-2.616c0.637-0.668,1.521-1.015,2.563-1.022c-0.032-1.042,0.275-1.955,0.902-2.611
		c0.616-0.646,1.485-0.999,2.511-1.021c1.795-0.047,3.936,0.951,5.691,2.644c2.846,2.74,3.707,6.323,1.959,8.156
		c-0.628,0.656-1.522,1.004-2.56,1.017c0.038,1.047-0.27,1.95-0.908,2.617c-0.624,0.656-1.519,1.004-2.559,1.017
		c0.038,1.046-0.269,1.948-0.905,2.615c-0.628,0.657-1.523,1.006-2.561,1.019c0.038,1.046-0.269,1.949-0.907,2.617
		c-0.638,0.667-1.522,1.014-2.563,1.021C34.162,23.767,33.854,24.68,33.227,25.336z"/>
	<path d="M39.243,35.557c-5.979,0-12.166-5.35-17.991-10.829c-7.995-7.523-15.687-8.829-15.763-8.841l-1.897-0.304l1.337-1.379
		c0.118-0.122,2.943-2.978,7.809-2.978c4.706,0,9.573,2.623,14.467,7.796c11.834,12.507,17.22,12.651,17.443,12.651h3.025
		l-2.389,1.802C43.424,34.855,41.391,35.557,39.243,35.557z M7.964,14.448c3.004,0.914,8.733,3.248,14.658,8.823
		c5.291,4.976,11.375,10.286,16.621,10.286c0.95,0,1.856-0.166,2.733-0.504c-2.934-1.112-8.217-4.194-16.225-12.657
		c-4.501-4.758-8.88-7.17-13.014-7.17C10.67,13.225,9.052,13.843,7.964,14.448z"/>
</g>
</svg>
