<?xml version="1.0" encoding="utf-8"?>
<!-- Generator: Adobe Illustrator 16.0.0, SVG Export Plug-In . SVG Version: 6.00 Build 0)  -->
<!DOCTYPE svg PUBLIC "-//W3C//DTD SVG 1.1//EN" "http://www.w3.org/Graphics/SVG/1.1/DTD/svg11.dtd">
<svg version="1.1" id="Layer_1" xmlns="http://www.w3.org/2000/svg" xmlns:xlink="http://www.w3.org/1999/xlink" x="0px" y="0px"
	 width="48px" height="48px" viewBox="0 0 48 48" enable-background="new 0 0 48 48" xml:space="preserve">
<g>
	<path d="M44.714,48H3.286V36.445c0-6.403,6.254-11.457,11.972-14.737c-2.177-2.378-3.402-5.548-3.402-8.895
		C11.856,5.748,17.304,0,24,0c3.255,0,6.312,1.34,8.607,3.774c2.28,2.418,3.536,5.628,3.535,9.039c0,3.33-1.216,6.489-3.375,8.864
		c5.708,3.228,11.946,8.25,11.946,14.769V48z M5.286,46h37.428v-9.555c0-5.983-6.565-10.729-12.074-13.655l-1.276-0.679l1.086-0.955
		c2.347-2.064,3.693-5.106,3.693-8.344c0.001-2.898-1.062-5.621-2.99-7.666C29.238,3.117,26.698,2,24,2
		c-5.593,0-10.144,4.851-10.144,10.813c0,3.251,1.354,6.3,3.716,8.364l1.084,0.948L17.39,22.81
		c-5.521,2.985-12.104,7.773-12.104,13.635V46z"/>
	<path d="M24,12.558c-2.248,0-4.077-1.829-4.077-4.077S21.752,4.404,24,4.404s4.077,1.829,4.077,4.077S26.248,12.558,24,12.558z
		 M24,6.404c-1.146,0-2.077,0.932-2.077,2.077s0.932,2.077,2.077,2.077s2.077-0.932,2.077-2.077S25.146,6.404,24,6.404z"/>
	<path d="M24,37.417c-1.638,0-2.97-1.331-2.97-2.967c0-1.639,1.333-2.972,2.97-2.972s2.971,1.333,2.971,2.972
		C26.971,36.086,25.638,37.417,24,37.417z M24,33.479c-0.535,0-0.97,0.436-0.97,0.972c0,0.533,0.435,0.967,0.97,0.967
		s0.971-0.434,0.971-0.967C24.971,33.914,24.535,33.479,24,33.479z"/>
	<path d="M24,41.109c-3.673,0-6.661-2.988-6.661-6.661s2.988-6.661,6.661-6.661s6.661,2.988,6.661,6.661S27.673,41.109,24,41.109z
		 M24,29.787c-2.57,0-4.661,2.091-4.661,4.661S21.43,39.109,24,39.109s4.661-2.091,4.661-4.661S26.57,29.787,24,29.787z"/>
	<path d="M24,44.802c-5.709,0-10.354-4.645-10.354-10.354c0-5.71,4.645-10.354,10.354-10.354s10.354,4.645,10.354,10.354
		C34.354,40.157,29.709,44.802,24,44.802z M24,26.094c-4.606,0-8.354,3.748-8.354,8.354s3.748,8.354,8.354,8.354
		s8.354-3.747,8.354-8.354S28.606,26.094,24,26.094z"/>
</g>
</svg>
