<?xml version="1.0" encoding="utf-8"?>
<!-- Generator: Adobe Illustrator 16.0.0, SVG Export Plug-In . SVG Version: 6.00 Build 0)  -->
<!DOCTYPE svg PUBLIC "-//W3C//DTD SVG 1.1//EN" "http://www.w3.org/Graphics/SVG/1.1/DTD/svg11.dtd">
<svg version="1.1" id="Layer_1" xmlns="http://www.w3.org/2000/svg" xmlns:xlink="http://www.w3.org/1999/xlink" x="0px" y="0px"
	 width="48px" height="48px" viewBox="0 0 48 48" enable-background="new 0 0 48 48" xml:space="preserve">
<g>
	<g>
		<path d="M24.216,18.932c3.868,0,7.016,3.147,7.016,7.015c0,3.867-3.147,7.014-7.016,7.014c-3.869,0-7.016-3.146-7.016-7.014
			C17.2,22.079,20.347,18.932,24.216,18.932 M24.216,16.932c-4.979,0-9.016,4.035-9.016,9.015c0,4.979,4.037,9.014,9.016,9.014
			c4.979,0,9.016-4.035,9.016-9.014C33.231,20.967,29.195,16.932,24.216,16.932L24.216,16.932z"/>
	</g>
	<g>
		<path d="M23.382,3.971c2.388,0,4.789,0.4,7.16,1.192l-3.087,6.904c-1.041-0.256-2.457-0.493-4.138-0.493
			c-1.603,0-2.999,0.256-4.018,0.524l-3.679-6.64C17.256,4.796,19.974,3.971,23.382,3.971 M23.382,1.971
			c-6.39,0-10.533,2.613-10.533,2.613l5.503,9.932c0,0,2.079-0.941,4.965-0.941c3.131,0,5.234,0.941,5.234,0.941l4.68-10.469
			C29.606,2.503,26.266,1.971,23.382,1.971L23.382,1.971z"/>
	</g>
	<g>
		<path d="M9.753,28.336c0.233,1.048,0.651,2.424,1.399,3.932c0.712,1.44,1.563,2.579,2.254,3.375l-4.321,6.256
			c-2.133-1.888-5.903-6.143-6.891-13.267L9.753,28.336 M11.46,26.268L0,26.717c0.729,12.664,9.535,18.049,9.535,18.049l6.456-9.346
			c0,0-1.766-1.449-3.047-4.039C11.552,28.574,11.46,26.268,11.46,26.268L11.46,26.268z"/>
	</g>
	<g>
		<path d="M38.111,30.043l7.54,1.009c-0.71,2.755-2.785,8.043-8.683,12.154l-3.703-6.593c0.827-0.684,1.862-1.68,2.864-3.029
			C37.089,32.296,37.717,31.021,38.111,30.043 M36.737,27.842c0,0-0.487,2.23-2.212,4.549c-1.866,2.514-3.88,3.643-3.88,3.643
			l5.615,9.996C47.212,39.633,48,29.348,48,29.348L36.737,27.842L36.737,27.842z"/>
	</g>
</g>
</svg>
