<?xml version="1.0" encoding="utf-8"?>
<!-- Generator: Adobe Illustrator 16.0.0, SVG Export Plug-In . SVG Version: 6.00 Build 0)  -->
<!DOCTYPE svg PUBLIC "-//W3C//DTD SVG 1.1//EN" "http://www.w3.org/Graphics/SVG/1.1/DTD/svg11.dtd">
<svg version="1.1" id="Layer_1" xmlns="http://www.w3.org/2000/svg" xmlns:xlink="http://www.w3.org/1999/xlink" x="0px" y="0px"
	 width="48px" height="48px" viewBox="0 0 48 48" enable-background="new 0 0 48 48" xml:space="preserve">
<g>
	<path d="M16.892,46.874c-0.104,0-0.208-0.016-0.309-0.049c-0.367-0.119-0.632-0.438-0.683-0.821l-1.205-9.199l-9.12,1.698
		c-0.379,0.066-0.765-0.084-0.992-0.396c-0.227-0.312-0.254-0.727-0.069-1.065l4.432-8.153L0.57,24.902
		C0.222,24.736,0,24.385,0,23.999s0.222-0.737,0.57-0.903l8.375-3.987l-4.432-8.15c-0.185-0.339-0.157-0.753,0.069-1.065
		C4.81,9.581,5.192,9.424,5.575,9.498l9.121,1.696L15.9,1.996c0.05-0.382,0.316-0.702,0.683-0.821
		c0.366-0.119,0.769-0.018,1.035,0.263L24,8.17l6.382-6.732c0.266-0.28,0.671-0.382,1.034-0.263
		c0.367,0.119,0.633,0.439,0.683,0.821l1.206,9.198l9.12-1.696c0.376-0.073,0.766,0.083,0.991,0.395
		c0.228,0.312,0.254,0.727,0.07,1.065l-4.432,8.15l8.375,3.987c0.349,0.166,0.57,0.517,0.57,0.903s-0.222,0.737-0.57,0.903
		l-8.375,3.986l4.432,8.153c0.184,0.339,0.157,0.754-0.07,1.065c-0.226,0.312-0.616,0.461-0.991,0.396l-9.12-1.698l-1.206,9.199
		c-0.05,0.383-0.315,0.702-0.683,0.821c-0.362,0.121-0.769,0.018-1.034-0.264L24,39.828l-6.382,6.733
		C17.426,46.765,17.162,46.874,16.892,46.874z M24,37.374c0.274,0,0.537,0.113,0.726,0.313l5.663,5.976l1.07-8.164
		c0.035-0.272,0.182-0.518,0.403-0.68c0.222-0.16,0.499-0.224,0.771-0.174l8.093,1.508l-3.933-7.235
		c-0.131-0.241-0.157-0.525-0.072-0.787c0.085-0.261,0.273-0.476,0.521-0.594l7.432-3.537l-7.432-3.538
		c-0.248-0.118-0.437-0.333-0.521-0.594s-0.059-0.545,0.072-0.787l3.933-7.232l-8.093,1.505c-0.271,0.052-0.549-0.012-0.771-0.174
		s-0.368-0.407-0.403-0.679l-1.07-8.162l-5.663,5.974c-0.377,0.398-1.074,0.398-1.451,0l-5.664-5.974L16.542,12.5
		c-0.036,0.272-0.182,0.518-0.404,0.679c-0.223,0.161-0.501,0.226-0.771,0.174l-8.093-1.505l3.933,7.232
		c0.131,0.241,0.158,0.525,0.073,0.787s-0.273,0.476-0.521,0.594l-7.431,3.538l7.431,3.537c0.248,0.118,0.437,0.333,0.521,0.594
		c0.084,0.262,0.059,0.546-0.073,0.787l-3.933,7.235l8.093-1.508c0.271-0.047,0.548,0.013,0.771,0.175
		c0.222,0.161,0.368,0.406,0.404,0.679l1.069,8.164l5.664-5.976C23.463,37.487,23.726,37.374,24,37.374z"/>
</g>
</svg>
