<?xml version="1.0" encoding="utf-8"?>
<!-- Generator: Adobe Illustrator 16.0.0, SVG Export Plug-In . SVG Version: 6.00 Build 0)  -->
<!DOCTYPE svg PUBLIC "-//W3C//DTD SVG 1.1//EN" "http://www.w3.org/Graphics/SVG/1.1/DTD/svg11.dtd">
<svg version="1.1" id="Layer_1" xmlns="http://www.w3.org/2000/svg" xmlns:xlink="http://www.w3.org/1999/xlink" x="0px" y="0px"
	 width="48px" height="48px" viewBox="0 0 48 48" enable-background="new 0 0 48 48" xml:space="preserve">
<g>
	<path d="M41.971,48h-1.139l-0.156-0.812c-0.539-2.807-3.006-4.845-5.865-4.845c-2.861,0-5.329,2.037-5.866,4.845L28.788,48h-9.575
		l-0.156-0.812c-0.539-2.808-3.005-4.845-5.865-4.845c-2.861,0-5.329,2.037-5.867,4.845L7.169,48H6.031C2.706,48,0,45.294,0,41.969
		V6.031C0,2.706,2.706,0,6.031,0h35.938C45.294,0,48,2.706,48,6.031v35.938C48,45.294,45.295,48,41.971,48z M20.821,46h6.359
		c1.007-3.322,4.093-5.656,7.631-5.656c3.525,0,6.604,2.321,7.621,5.63C44.438,45.744,46,44.035,46,41.969V6.031
		C46,3.809,44.191,2,41.969,2H6.031C3.809,2,2,3.809,2,6.031v35.938c0,2.066,1.563,3.774,3.569,4.005
		c1.016-3.309,4.095-5.63,7.623-5.63C16.728,40.344,19.813,42.678,20.821,46z"/>
	<rect x="8.163" y="8.747" width="31.675" height="2"/>
	<rect x="8.163" y="15.03" width="31.675" height="2"/>
	<rect x="8.163" y="21.315" width="31.675" height="2"/>
	<rect x="8.163" y="27.6" width="31.675" height="2"/>
	<rect x="8.163" y="33.883" width="31.675" height="2"/>
</g>
</svg>
