<?xml version="1.0" encoding="utf-8"?>
<!-- Generator: Adobe Illustrator 16.0.0, SVG Export Plug-In . SVG Version: 6.00 Build 0)  -->
<!DOCTYPE svg PUBLIC "-//W3C//DTD SVG 1.1//EN" "http://www.w3.org/Graphics/SVG/1.1/DTD/svg11.dtd">
<svg version="1.1" id="Layer_1" xmlns="http://www.w3.org/2000/svg" xmlns:xlink="http://www.w3.org/1999/xlink" x="0px" y="0px"
	 width="48px" height="48px" viewBox="0 0 48 48" enable-background="new 0 0 48 48" xml:space="preserve">
<g>
	<g>
		<path d="M40,48H8c-4.411,0-8-3.589-8-8V8c0-4.411,3.589-8,8-8h32c4.411,0,8,3.589,8,8v32C48,44.411,44.411,48,40,48z M8,2
			C4.691,2,2,4.691,2,8v32c0,3.309,2.691,6,6,6h32c3.309,0,6-2.691,6-6V8c0-3.309-2.691-6-6-6H8z"/>
	</g>
	<g>
		<path d="M14.275,41.885h-0.332c-4.411,0-8-3.589-8-8v-19.77c0-4.411,3.589-8,8-8h0.332c4.411,0,8,3.589,8,8v19.77
			C22.275,38.296,18.686,41.885,14.275,41.885z M13.943,8.115c-3.309,0-6,2.691-6,6v19.77c0,3.309,2.691,6,6,6h0.332
			c3.309,0,6-2.691,6-6v-19.77c0-3.309-2.691-6-6-6H13.943z"/>
	</g>
	<g>
		<path d="M34.059,41.885h-0.332c-4.411,0-8-3.589-8-8v-19.77c0-4.411,3.589-8,8-8h0.332c4.411,0,8,3.589,8,8v19.77
			C42.059,38.296,38.47,41.885,34.059,41.885z M33.727,8.115c-3.309,0-6,2.691-6,6v19.77c0,3.309,2.691,6,6,6h0.332
			c3.309,0,6-2.691,6-6v-19.77c0-3.309-2.691-6-6-6H33.727z"/>
	</g>
	<g>
		<path d="M15.576,21.324h-3.131c-1.654,0-3-1.346-3-3v-4.726c0-1.654,1.346-3,3-3h3.131c1.654,0,3,1.346,3,3v4.726
			C18.576,19.979,17.23,21.324,15.576,21.324z M12.445,12.598c-0.551,0-1,0.449-1,1v4.726c0,0.551,0.449,1,1,1h3.131
			c0.551,0,1-0.449,1-1v-4.726c0-0.551-0.449-1-1-1H12.445z"/>
	</g>
	<g>
		<path d="M35.458,38.13h-3.133c-1.654,0-3-1.346-3-3v-4.724c0-1.654,1.346-3,3-3h3.133c1.654,0,3,1.346,3,3v4.724
			C38.458,36.784,37.112,38.13,35.458,38.13z M32.325,29.406c-0.552,0-1,0.448-1,1v4.724c0,0.552,0.448,1,1,1h3.133
			c0.552,0,1-0.448,1-1v-4.724c0-0.552-0.448-1-1-1H32.325z"/>
	</g>
</g>
</svg>
