<?xml version="1.0" encoding="utf-8"?>
<!-- Generator: Adobe Illustrator 16.0.0, SVG Export Plug-In . SVG Version: 6.00 Build 0)  -->
<!DOCTYPE svg PUBLIC "-//W3C//DTD SVG 1.1//EN" "http://www.w3.org/Graphics/SVG/1.1/DTD/svg11.dtd">
<svg version="1.1" id="Layer_1" xmlns="http://www.w3.org/2000/svg" xmlns:xlink="http://www.w3.org/1999/xlink" x="0px" y="0px"
	 width="48px" height="48px" viewBox="0 0 48 48" enable-background="new 0 0 48 48" xml:space="preserve">
<g>
	<g>
		<path d="M23.999,2c4.194,0,7.606,3.418,7.606,7.619c0,4.2-3.412,7.617-7.606,7.617c-4.193,0-7.604-3.417-7.604-7.617
			C16.395,5.418,19.806,2,23.999,2 M23.999,0c-5.306,0-9.604,4.307-9.604,9.619c0,5.311,4.299,9.617,9.604,9.617
			s9.606-4.307,9.606-9.617C33.605,4.307,29.305,0,23.999,0L23.999,0z"/>
	</g>
	<g>
		<path d="M23.999,24.154c10.577,0,19.506,9.437,21.054,21.846H2.947C4.493,33.591,13.421,24.154,23.999,24.154 M23.999,22.154
			C11.653,22.154,1.558,33.568,0.761,48h46.479C46.44,33.568,36.344,22.154,23.999,22.154L23.999,22.154z"/>
	</g>
</g>
</svg>
