<?xml version="1.0" encoding="utf-8"?>
<!-- Generator: Adobe Illustrator 16.0.0, SVG Export Plug-In . SVG Version: 6.00 Build 0)  -->
<!DOCTYPE svg PUBLIC "-//W3C//DTD SVG 1.1//EN" "http://www.w3.org/Graphics/SVG/1.1/DTD/svg11.dtd">
<svg version="1.1" id="Layer_1" xmlns="http://www.w3.org/2000/svg" xmlns:xlink="http://www.w3.org/1999/xlink" x="0px" y="0px"
	 width="48px" height="48px" viewBox="0 0 48 48" enable-background="new 0 0 48 48" xml:space="preserve">
<g>
	<path d="M42.096,48h-7.934V30.1h-4.943v-1c0-1.028,0.132-25.239,11.561-29.048l1.316-0.438V48z M36.162,46h3.934V2.53
		c-7.672,4.267-8.715,21.252-8.855,25.57h4.922V46z"/>
	<path d="M18.83,48h-7.891V23.219H8.712c-1.548,0-2.808-1.456-2.808-3.246l0.002-16.57C5.906,1.526,7.177,0,8.739,0
		c1.561,0,2.832,1.526,2.834,3.402v13.322h0.48V3.403C12.053,1.526,13.324,0,14.886,0c1.562,0,2.832,1.526,2.832,3.403v13.321h0.48
		V3.403C18.198,1.526,19.468,0,21.03,0c1.563,0,2.834,1.526,2.834,3.403l-0.005,16.501l0.002,0.068c0,1.79-1.259,3.246-2.807,3.246
		H18.83V48z M12.939,46h3.891V21.218h4.225c0.381,0,0.807-0.533,0.807-1.246c-0.005-0.119-0.002-0.167,0.003-0.215L21.863,3.403
		c0-0.483-0.161-0.933-0.431-1.203C21.341,2.108,21.197,2,21.03,2c-0.393,0-0.832,0.6-0.832,1.403v15.321h-4.48V3.403
		C15.718,2.6,15.278,2,14.886,2c-0.385,0-0.833,0.613-0.833,1.403v15.321h-4.48V3.403C9.572,2.601,9.132,2,8.739,2
		S7.906,2.6,7.906,3.403l0.005,16.522c-0.002,0.049-0.007,0.097-0.014,0.146c0.006,0.615,0.433,1.148,0.814,1.148h4.227V46z"/>
</g>
</svg>
