<?xml version="1.0" encoding="utf-8"?>
<!-- Generator: Adobe Illustrator 16.0.0, SVG Export Plug-In . SVG Version: 6.00 Build 0)  -->
<!DOCTYPE svg PUBLIC "-//W3C//DTD SVG 1.1//EN" "http://www.w3.org/Graphics/SVG/1.1/DTD/svg11.dtd">
<svg version="1.1" id="Layer_1" xmlns="http://www.w3.org/2000/svg" xmlns:xlink="http://www.w3.org/1999/xlink" x="0px" y="0px"
	 width="48px" height="48px" viewBox="0 0 48 48" enable-background="new 0 0 48 48" xml:space="preserve">
<g>
	<path d="M24,29.177c-7.664,0-13.903-6.426-13.936-14.337L8.389,1.094c0-1.039,0-1.039,5.56-1.07c5.482-0.031,14.618-0.031,20.102,0
		c5.561,0.032,5.561,0.032,5.561,1.07l-0.008,0.122L37.936,14.84C37.902,22.751,31.664,29.177,24,29.177z M10.514,2.054l1.55,12.724
		c0,6.837,5.354,12.399,11.936,12.399c6.581,0,11.936-5.562,11.936-12.399l0.008-0.122l1.543-12.602C35.385,2.021,30.255,2,24,2
		C17.746,2,12.616,2.021,10.514,2.054z"/>
	<path d="M33.97,48H14.031l2.448-6.339h15.042L33.97,48z M16.947,46h14.106l-0.903-2.339h-12.3L16.947,46z"/>
	<rect x="23" y="28.178" width="2" height="13.958"/>
	<g>
		<path d="M13.319,23.332c-4.869-0.682-7.853-3.53-9.499-5.799C1.44,14.251,0.292,9.942,0.896,6.554
			C1.224,4.72,2.21,3.986,2.98,3.693c2.896-1.104,7.391,2.34,7.894,2.736L9.638,8.001C7.962,6.686,5.009,5.059,3.691,5.562
			c-0.155,0.06-0.629,0.24-0.826,1.344c-0.513,2.879,0.497,6.589,2.574,9.453c1.418,1.955,3.985,4.409,8.157,4.993L13.319,23.332z"
			/>
		<path d="M34.682,23.332l-0.277-1.98c4.173-0.584,6.739-3.039,8.158-4.994c2.076-2.863,3.086-6.574,2.572-9.452
			c-0.197-1.104-0.671-1.284-0.826-1.344c-1.32-0.504-4.271,1.124-5.946,2.439l-1.236-1.572c0.503-0.396,4.994-3.841,7.894-2.736
			c0.77,0.293,1.757,1.027,2.084,2.861c0.604,3.387-0.542,7.696-2.922,10.978C42.535,19.801,39.551,22.65,34.682,23.332z"/>
	</g>
	<rect x="9.465" y="5.711" width="28.969" height="2"/>
	<path d="M23.746,25.179c-9.666-2.006-9.261-13.234-9.256-13.348l1.998,0.09c-0.017,0.393-0.323,9.642,7.664,11.299L23.746,25.179z"
		/>
</g>
</svg>
