<?xml version="1.0" encoding="utf-8"?>
<!-- Generator: Adobe Illustrator 16.0.0, SVG Export Plug-In . SVG Version: 6.00 Build 0)  -->
<!DOCTYPE svg PUBLIC "-//W3C//DTD SVG 1.1//EN" "http://www.w3.org/Graphics/SVG/1.1/DTD/svg11.dtd">
<svg version="1.1" id="Layer_1" xmlns="http://www.w3.org/2000/svg" xmlns:xlink="http://www.w3.org/1999/xlink" x="0px" y="0px"
	 width="48px" height="48px" viewBox="0 0 48 48" enable-background="new 0 0 48 48" xml:space="preserve">
<g>
	<path d="M12.134,21.271C12.134,21.271,12.134,21.271,12.134,21.271c-0.887,0-1.78-0.072-2.655-0.213l-0.695-0.112l-0.128-0.692
		c-1.118-6.008,0.5-10.949,4.222-12.893c1.055-0.552,2.229-0.832,3.488-0.832c3.075,0,6.537,1.715,9.5,4.707l0.522,0.528
		l-0.354,0.653C22.053,19.735,16.278,21.271,12.134,21.271z M10.504,19.18c0.542,0.061,1.087,0.091,1.63,0.091
		c3.476,0,8.283-1.262,11.77-7.152c-3.419-3.191-7.387-4.405-10.099-2.985C11.07,10.562,9.808,14.461,10.504,19.18z"/>
	<path d="M27.395,43.46c-5.08,0-10.666-4.15-13.899-10.329l-1.307-2.5c-1.153-2.203-1.934-4.498-2.321-6.82l-0.222-1.332
		l1.338,0.175c0.674,0.088,1.365,0.133,2.054,0.133c3.948,0,9.493-1.442,13.494-8.314l0.645-1.106l0.917,0.893
		c1.694,1.648,3.139,3.603,4.292,5.81l1.307,2.499c4.234,8.096,3.149,17.053-2.418,19.964C30.098,43.148,28.793,43.46,27.395,43.46z
		 M12.099,24.763c0.397,1.677,1.021,3.334,1.862,4.941l1.307,2.5c2.897,5.536,7.771,9.256,12.126,9.256
		c1.071,0,2.064-0.235,2.952-0.699c4.513-2.36,5.233-10.268,1.574-17.266l-1.308-2.499c-0.851-1.627-1.871-3.103-3.043-4.399
		c-4.417,6.734-10.286,8.19-14.532,8.19C12.725,24.787,12.412,24.779,12.099,24.763z"/>
	<g>
		<path d="M9.264,13.673c-1.75,0-3.096-0.522-4.008-1.558c-1.708-1.94-1.092-4.896-1.065-5.021l1.954,0.424L5.168,7.306l0.978,0.208
			c-0.004,0.021-0.427,2.109,0.616,3.284c0.612,0.69,1.68,0.975,3.175,0.844l0.173,1.992C9.819,13.661,9.536,13.673,9.264,13.673z"
			/>
		<path d="M19.604,8.669L18.066,7.39c0.96-1.154,1.337-2.194,1.119-3.09c-0.371-1.526-2.326-2.37-2.345-2.378l0.77-1.846
			c0.118,0.049,2.896,1.228,3.516,3.738C21.507,5.363,20.995,6.996,19.604,8.669z"/>
	</g>
	<path d="M26.942,15.713c-0.03-0.14-0.712-3.443,0.966-5.773c0.875-1.214,2.191-1.927,3.914-2.121l0.223,1.987
		c-1.15,0.129-1.971,0.553-2.509,1.296c-1.161,1.603-0.644,4.169-0.638,4.195L26.942,15.713z"/>
	<rect x="34.996" y="15.447" transform="matrix(0.4637 0.886 -0.886 0.4637 36.829 -21.2837)" width="2.001" height="8.667"/>
	<path d="M43.961,31.718c-3.114-3.664-8.704-1.938-8.761-1.921l-0.607-1.906c0.281-0.089,6.925-2.135,10.892,2.532L43.961,31.718z"
		/>
	<path d="M10.336,25.006c-0.018-0.019-1.854-1.923-3.812-1.87c-0.917,0.018-1.733,0.451-2.496,1.322L2.524,23.14
		c1.141-1.304,2.478-1.979,3.974-2.004c2.893-0.059,5.197,2.395,5.295,2.5l-1.459,1.368l0.729-0.684L10.336,25.006z"/>
	<rect x="8.969" y="29.06" transform="matrix(0.4636 0.8861 -0.8861 0.4636 34.9365 9.0805)" width="1.999" height="8.666"/>
	<path d="M13.296,47.256c-1.569-5.921,3.902-10.211,4.136-10.391l1.22,1.586l-0.61-0.793l0.611,0.791
		c-0.047,0.037-4.649,3.67-3.423,8.295L13.296,47.256z"/>
	<path d="M30.984,37.959l-1.703-1.047c3.177-5.17-2.211-14.346-2.266-14.438l1.718-1.024C28.983,21.868,34.795,31.759,30.984,37.959
		z"/>
</g>
</svg>
