<?xml version="1.0" encoding="utf-8"?>
<!-- Generator: Adobe Illustrator 16.0.0, SVG Export Plug-In . SVG Version: 6.00 Build 0)  -->
<!DOCTYPE svg PUBLIC "-//W3C//DTD SVG 1.1//EN" "http://www.w3.org/Graphics/SVG/1.1/DTD/svg11.dtd">
<svg version="1.1" id="Layer_1" xmlns="http://www.w3.org/2000/svg" xmlns:xlink="http://www.w3.org/1999/xlink" x="0px" y="0px"
	 width="48px" height="48px" viewBox="0 0 48 48" enable-background="new 0 0 48 48" xml:space="preserve">
<g>
	<path d="M15.862,48.002c-0.518,0-1.042-0.11-1.558-0.329c-6.121-2.592-5.535-12.47-5.22-17.777
		c0.072-1.215,0.141-2.362,0.072-2.744c-0.424-2.372-1.612-4.532-2.87-6.819c-1.145-2.081-2.328-4.232-2.923-6.606
		c-0.585-2.334-2.03-10.119,3.938-12.3c2.515-0.917,5.537-0.87,8.968,0.143c0.751,0.222,1.527,0.594,2.348,0.988
		c1.188,0.57,2.417,1.16,3.361,1.16l0.103-0.002c0.97-0.05,2.119-0.724,3.23-1.376c0.644-0.378,1.31-0.769,1.958-1.044
		C29.546,0.327,31.237,0,33.977,0c5.373,0,9.139,2.735,10.331,7.503c0.842,3.353,1.381,8.186,0.372,11.696
		c-0.374,1.298-0.895,2.519-1.398,3.699c-0.21,0.491-0.422,0.987-0.627,1.498c-0.49,1.217-0.711,2.551-0.945,3.963
		c-0.086,0.518-0.172,1.034-0.271,1.544c-0.234,1.209-0.252,2.533-0.271,3.935c-0.033,2.544-0.067,5.175-1.474,7.315l-0.103,0.157
		c-1.424,2.17-3.575,5.45-6.503,5.45c-1.074,0-2.12-0.445-3.111-1.324c-2.551-2.261-2.924-5.938-3.252-9.184
		c-0.104-1.032-0.203-2.006-0.364-2.88c-1.462-7.916-2.896-8.268-2.909-8.268c-0.039,0-0.25,0.085-0.576,0.502
		c-1.209,1.545-1.204,5.967-1.201,8.092l0,0.31c0,2.773-0.387,5.561-0.805,8.159C20.417,44.978,18.657,48.002,15.862,48.002z
		 M11.224,2.769c-1.172,0-2.261,0.18-3.236,0.536c-4.399,1.608-3.167,8.011-2.685,9.935c0.532,2.123,1.603,4.068,2.736,6.128
		c1.28,2.328,2.604,4.735,3.086,7.431c0.11,0.616,0.049,1.65-0.044,3.216c-0.286,4.814-0.818,13.775,4.003,15.816
		c0.269,0.113,0.53,0.171,0.778,0.171c1.48,0,2.704-2.111,3.033-4.153c0.405-2.517,0.779-5.208,0.779-7.841l0-0.308
		c-0.004-3.502,0.117-7.399,1.626-9.327c0.659-0.842,1.382-1.269,2.15-1.269c2.107,0,3.606,3.029,4.86,9.82
		c0.191,1.039,0.294,2.053,0.402,3.125c0.307,3.021,0.623,6.146,2.59,7.89c0.623,0.552,1.206,0.82,1.784,0.82
		c1.848,0,3.643-2.736,4.83-4.548l0.104-0.157c1.086-1.653,1.114-3.883,1.146-6.244c0.019-1.428,0.038-2.904,0.308-4.29
		c0.096-0.492,0.178-0.99,0.261-1.49c0.242-1.456,0.492-2.962,1.063-4.382c0.211-0.524,0.428-1.033,0.643-1.536
		c0.502-1.176,0.977-2.287,1.316-3.467c0.899-3.131,0.353-7.698-0.39-10.657C41.064,2.778,36.551,2,33.977,2
		c-2.465,0-3.904,0.275-5.923,1.134c-0.53,0.225-1.112,0.567-1.729,0.929c-1.318,0.773-2.681,1.573-4.141,1.648
		c-1.468,0.074-2.972-0.652-4.43-1.352c-0.747-0.358-1.452-0.696-2.05-0.873C14.089,3.01,12.582,2.769,11.224,2.769z"/>
	<path d="M29.429,11.613c-1.991-3.118-4.901-5.323-7.785-5.899l0.392-1.961c3.407,0.68,6.8,3.216,9.079,6.784L29.429,11.613z"/>
</g>
</svg>
