<?xml version="1.0" encoding="utf-8"?>
<!-- Generator: Adobe Illustrator 16.0.0, SVG Export Plug-In . SVG Version: 6.00 Build 0)  -->
<!DOCTYPE svg PUBLIC "-//W3C//DTD SVG 1.1//EN" "http://www.w3.org/Graphics/SVG/1.1/DTD/svg11.dtd">
<svg version="1.1" id="Layer_1" xmlns="http://www.w3.org/2000/svg" xmlns:xlink="http://www.w3.org/1999/xlink" x="0px" y="0px"
	 width="48px" height="48px" viewBox="0 0 48 48" enable-background="new 0 0 48 48" xml:space="preserve">
<g>
	<g>
		<path d="M11.001,48c-0.232,0-0.464-0.081-0.65-0.24c-0.338-0.29-0.444-0.768-0.26-1.173l12.292-27.112l1.821,0.826L13.334,44.275
			L30.495,33.03l1.096,1.672L11.549,47.836C11.382,47.946,11.191,48,11.001,48z"/>
		<path d="M36.999,48c-0.189,0-0.379-0.054-0.545-0.162L16.378,34.775l1.091-1.676l17.206,11.194L23.796,20.301l1.822-0.826
			L37.91,46.587c0.183,0.405,0.077,0.882-0.26,1.172C37.465,47.919,37.232,48,36.999,48z"/>
	</g>
	<path d="M23.999,17.675c-2.451,0-4.445-1.994-4.445-4.445s1.994-4.445,4.445-4.445c2.45,0,4.444,1.994,4.444,4.445
		S26.449,17.675,23.999,17.675z M23.999,10.785c-1.348,0-2.445,1.097-2.445,2.445s1.097,2.445,2.445,2.445
		c1.348,0,2.444-1.097,2.444-2.445S25.347,10.785,23.999,10.785z"/>
	<g>
		<path d="M16.031,22.819c-2.818-2.397-4.435-5.892-4.435-9.587c0-2.918,1.021-5.762,2.875-8.009l1.543,1.272
			c-1.559,1.89-2.417,4.282-2.417,6.737c0,3.107,1.36,6.046,3.731,8.063L16.031,22.819z"/>
		<path d="M11.083,28.642c-4.53-3.853-7.128-9.468-7.128-15.408c0-4.689,1.641-9.26,4.62-12.871l1.543,1.273
			C7.433,4.889,5.955,9.008,5.955,13.234c0,5.352,2.341,10.413,6.424,13.884L11.083,28.642z"/>
		<path d="M31.968,22.819l-1.295-1.523c2.37-2.017,3.729-4.956,3.729-8.063c0-2.454-0.858-4.846-2.417-6.737l1.543-1.272
			c1.854,2.248,2.874,5.092,2.874,8.009C36.402,16.927,34.786,20.422,31.968,22.819z"/>
		<path d="M36.917,28.642l-1.295-1.523c4.082-3.472,6.423-8.533,6.423-13.884c0-4.226-1.479-8.345-4.164-11.597l1.543-1.273
			c2.979,3.61,4.621,8.181,4.621,12.871C44.045,19.173,41.447,24.789,36.917,28.642z"/>
	</g>
</g>
</svg>
