<?xml version="1.0" encoding="utf-8"?>
<!-- Generator: Adobe Illustrator 16.0.0, SVG Export Plug-In . SVG Version: 6.00 Build 0)  -->
<!DOCTYPE svg PUBLIC "-//W3C//DTD SVG 1.1//EN" "http://www.w3.org/Graphics/SVG/1.1/DTD/svg11.dtd">
<svg version="1.1" id="Layer_1" xmlns="http://www.w3.org/2000/svg" xmlns:xlink="http://www.w3.org/1999/xlink" x="0px" y="0px"
	 width="48px" height="48px" viewBox="0 0 48 48" enable-background="new 0 0 48 48" xml:space="preserve">
<g>
	<g>
		<path d="M12.154,26.541c1.985,0,3.723,1.511,4.5,3.691h-9C8.431,28.052,10.168,26.541,12.154,26.541 M12.154,24.541
			c-3.674,0-6.678,3.396-6.916,7.691H19.07C18.832,27.938,15.827,24.541,12.154,24.541L12.154,24.541z"/>
	</g>
	<g>
		<path d="M44,41.666H4c-2.206,0-4-1.794-4-4V13.589c0-2.206,1.794-4,4-4h17.668v2H4c-1.103,0-2,0.897-2,2v24.077
			c0,1.103,0.897,2,2,2h40c1.103,0,2-0.897,2-2V13.589c0-1.103-0.897-2-2-2H26.428v-2H44c2.206,0,4,1.794,4,4v24.077
			C48,39.872,46.206,41.666,44,41.666z"/>
	</g>
	<path d="M12.154,23.719c-2.27,0-4.117-1.847-4.117-4.117s1.847-4.117,4.117-4.117s4.117,1.847,4.117,4.117
		S14.424,23.719,12.154,23.719z M12.154,17.485c-1.167,0-2.117,0.95-2.117,2.117c0,1.167,0.95,2.117,2.117,2.117
		c1.167,0,2.117-0.95,2.117-2.117C14.271,18.435,13.321,17.485,12.154,17.485z"/>
	<rect x="25.271" y="16.722" width="15.092" height="2"/>
	<rect x="25.271" y="21.342" width="15.092" height="2"/>
	<rect x="25.271" y="25.959" width="15.092" height="2"/>
	<rect x="31.641" y="35.529" width="8.723" height="2"/>
	<rect x="7.3" y="35.529" width="8.719" height="2"/>
	<path d="M27.427,15.993h-6.855V6.334h6.855V15.993z M22.572,13.993h2.855V8.334h-2.855V13.993z"/>
</g>
</svg>
