<?xml version="1.0" encoding="utf-8"?>
<!-- Generator: Adobe Illustrator 16.0.0, SVG Export Plug-In . SVG Version: 6.00 Build 0)  -->
<!DOCTYPE svg PUBLIC "-//W3C//DTD SVG 1.1//EN" "http://www.w3.org/Graphics/SVG/1.1/DTD/svg11.dtd">
<svg version="1.1" id="Layer_1" xmlns="http://www.w3.org/2000/svg" xmlns:xlink="http://www.w3.org/1999/xlink" x="0px" y="0px"
	 width="48px" height="48px" viewBox="0 0 48 48" enable-background="new 0 0 48 48" xml:space="preserve">
<g>
	<path d="M1,48c-0.131,0-0.264-0.025-0.389-0.079C0.241,47.765,0,47.402,0,47V1c0-0.402,0.241-0.765,0.611-0.921
		c0.37-0.155,0.798-0.076,1.086,0.205l23.65,23C25.541,23.471,25.65,23.73,25.65,24s-0.109,0.528-0.303,0.717l-23.65,23
		C1.507,47.902,1.255,48,1,48z M2,3.367v41.266L23.216,24L2,3.367z"/>
	<path d="M47,48H32.049c-0.553,0-1-0.447-1-1V1c0-0.552,0.447-1,1-1H47c0.553,0,1,0.448,1,1v46C48,47.553,47.553,48,47,48z
		 M33.049,46H46V2H33.049V46z"/>
</g>
</svg>
