<?xml version="1.0" encoding="utf-8"?>
<!-- Generator: Adobe Illustrator 16.0.0, SVG Export Plug-In . SVG Version: 6.00 Build 0)  -->
<!DOCTYPE svg PUBLIC "-//W3C//DTD SVG 1.1//EN" "http://www.w3.org/Graphics/SVG/1.1/DTD/svg11.dtd">
<svg version="1.1" id="Layer_1" xmlns="http://www.w3.org/2000/svg" xmlns:xlink="http://www.w3.org/1999/xlink" x="0px" y="0px"
	 width="48px" height="48px" viewBox="0 0 48 48" enable-background="new 0 0 48 48" xml:space="preserve">
<g>
	<g>
		<path d="M40,48H8c-4.411,0-8-3.589-8-8V8c0-4.411,3.589-8,8-8h32c4.411,0,8,3.589,8,8v32C48,44.411,44.411,48,40,48z M8,2
			C4.691,2,2,4.691,2,8v32c0,3.309,2.691,6,6,6h32c3.309,0,6-2.691,6-6V8c0-3.309-2.691-6-6-6H8z"/>
	</g>
	<path d="M22.592,43.688H10.344c-3.325,0-6.031-2.705-6.031-6.03V10.344c0-3.325,2.706-6.031,6.031-6.031h12.248V43.688z
		 M10.344,6.313c-2.223,0-4.031,1.808-4.031,4.031v27.313c0,2.223,1.808,4.03,4.031,4.03h10.248V6.313H10.344z"/>
	<g>
		<path d="M43.688,22.591H25.408V4.313h12.249c3.325,0,6.03,2.706,6.03,6.031V22.591z M27.408,20.591h14.279V10.344
			c0-2.223-1.808-4.031-4.03-4.031H27.408V20.591z"/>
		<path d="M37.656,43.688H25.408V25.409h18.279v12.247C43.688,40.981,40.981,43.688,37.656,43.688z M27.408,41.688h10.248
			c2.223,0,4.031-1.809,4.031-4.031V27.409H27.408V41.688z"/>
	</g>
</g>
</svg>
