<?xml version="1.0" encoding="utf-8"?>
<!-- Generator: Adobe Illustrator 16.0.0, SVG Export Plug-In . SVG Version: 6.00 Build 0)  -->
<!DOCTYPE svg PUBLIC "-//W3C//DTD SVG 1.1//EN" "http://www.w3.org/Graphics/SVG/1.1/DTD/svg11.dtd">
<svg version="1.1" id="Layer_1" xmlns="http://www.w3.org/2000/svg" xmlns:xlink="http://www.w3.org/1999/xlink" x="0px" y="0px"
	 width="48px" height="48px" viewBox="0 0 48 48" enable-background="new 0 0 48 48" xml:space="preserve">
<g>
	<path d="M31.977,15.525H5.74C2.575,15.525,0,12.95,0,9.784V5.741C0,2.576,2.575,0,5.74,0h26.234c3.166,0,5.741,2.576,5.741,5.741
		v4.043c0.001,1.528-0.598,2.969-1.685,4.056C34.945,14.927,33.505,15.525,31.977,15.525z M5.74,2C3.678,2,2,3.678,2,5.741v4.043
		c0,2.063,1.678,3.741,3.74,3.741h26.236c2.063,0,3.74-1.678,3.74-3.741l-0.001-4.042C35.716,3.678,34.037,2,31.975,2H5.74z"/>
	<path d="M5.128,8.208h-2l0.006-2.111C3.236,5.175,4.111,3.433,6.69,3.433h24.344v2H6.69c-1.234,0-1.503,0.609-1.562,0.862V8.208z"
		/>
	<polygon points="19.858,27.543 17.858,27.543 17.858,18.854 46,18.854 46,8.763 36.717,8.763 36.717,6.763 48,6.763 48,20.854 
		19.858,20.854 	"/>
	<path d="M23.631,48h-9.545V26.837h9.545V48z M16.086,46h5.545V28.837h-5.545V46z"/>
</g>
</svg>
