<?xml version="1.0" encoding="utf-8"?>
<!-- Generator: Adobe Illustrator 16.0.0, SVG Export Plug-In . SVG Version: 6.00 Build 0)  -->
<!DOCTYPE svg PUBLIC "-//W3C//DTD SVG 1.1//EN" "http://www.w3.org/Graphics/SVG/1.1/DTD/svg11.dtd">
<svg version="1.1" id="Layer_1" xmlns="http://www.w3.org/2000/svg" xmlns:xlink="http://www.w3.org/1999/xlink" x="0px" y="0px"
	 width="48px" height="48px" viewBox="0 0 48 48" enable-background="new 0 0 48 48" xml:space="preserve">
<g>
	<path d="M42.962,48H5.04C2.261,48,0,45.738,0,42.959v-1.232c0-2.778,2.261-5.039,5.04-5.039h37.922
		c2.778,0,5.038,2.261,5.038,5.039v1.232C48,45.738,45.74,48,42.962,48z M5.04,38.688c-1.676,0-3.04,1.363-3.04,3.039v1.232
		C2,44.636,3.364,46,5.04,46h37.922C44.637,46,46,44.636,46,42.959v-1.232c0-1.676-1.363-3.039-3.038-3.039H5.04z"/>
	<path d="M42.962,29.657H5.04c-2.779,0-5.04-2.262-5.04-5.041v-1.234c0-2.778,2.261-5.039,5.04-5.039h37.922
		c2.778,0,5.038,2.261,5.038,5.039v1.234C48,27.396,45.74,29.657,42.962,29.657z M5.04,20.343c-1.676,0-3.04,1.363-3.04,3.039v1.234
		c0,1.677,1.364,3.041,3.04,3.041h37.922c1.675,0,3.038-1.364,3.038-3.041v-1.234c0-1.676-1.363-3.039-3.038-3.039H5.04z"/>
	<path d="M42.962,11.312H5.04C2.261,11.312,0,9.052,0,6.274V5.039C0,2.261,2.261,0,5.04,0h37.922C45.74,0,48,2.261,48,5.039v1.233
		C48,9.051,45.74,11.312,42.962,11.312z M5.04,2C3.364,2,2,3.363,2,5.039v1.235c0,1.675,1.364,3.038,3.04,3.038h37.922
		c1.675,0,3.038-1.364,3.038-3.04V5.039C46,3.363,44.637,2,42.962,2H5.04z"/>
</g>
</svg>
