<?xml version="1.0" encoding="utf-8"?>
<!-- Generator: Adobe Illustrator 16.0.0, SVG Export Plug-In . SVG Version: 6.00 Build 0)  -->
<!DOCTYPE svg PUBLIC "-//W3C//DTD SVG 1.1//EN" "http://www.w3.org/Graphics/SVG/1.1/DTD/svg11.dtd">
<svg version="1.1" id="Layer_1" xmlns="http://www.w3.org/2000/svg" xmlns:xlink="http://www.w3.org/1999/xlink" x="0px" y="0px"
	 width="48px" height="48px" viewBox="0 0 48 48" enable-background="new 0 0 48 48" xml:space="preserve">
<g>
	<g>
		<path d="M42.961,11.312H21.57c-2.778,0-5.039-2.261-5.039-5.04V5.039C16.531,2.261,18.792,0,21.57,0h21.391
			C45.739,0,48,2.261,48,5.039v1.233C48,9.051,45.739,11.312,42.961,11.312z M21.57,2c-1.675,0-3.039,1.363-3.039,3.039v1.233
			c0,1.676,1.363,3.04,3.039,3.04h21.391c1.676,0,3.039-1.364,3.039-3.04V5.039C46,3.363,44.637,2,42.961,2H21.57z"/>
		<path d="M5.657,11.314C2.538,11.314,0,8.776,0,5.657C0,2.538,2.538,0,5.657,0c3.119,0,5.657,2.538,5.657,5.657
			C11.314,8.776,8.776,11.314,5.657,11.314z M5.657,2C3.641,2,2,3.641,2,5.657c0,2.016,1.641,3.657,3.657,3.657
			c2.016,0,3.657-1.641,3.657-3.657C9.314,3.641,7.673,2,5.657,2z"/>
	</g>
	<g>
		<path d="M42.961,29.657H21.57c-2.778,0-5.039-2.262-5.039-5.041v-1.234c0-2.78,2.26-5.041,5.039-5.041h21.391
			c2.778,0,5.039,2.261,5.039,5.041v1.234C48,27.396,45.739,29.657,42.961,29.657z M21.57,20.341c-1.675,0-3.039,1.364-3.039,3.041
			v1.234c0,1.677,1.363,3.041,3.039,3.041h21.391c1.676,0,3.039-1.364,3.039-3.041v-1.234c0-1.677-1.363-3.041-3.039-3.041H21.57z"
			/>
		<path d="M5.657,29.657C2.538,29.657,0,27.119,0,24c0-3.12,2.538-5.657,5.657-5.657c3.119,0,5.657,2.538,5.657,5.657
			C11.314,27.119,8.776,29.657,5.657,29.657z M5.657,20.343C3.641,20.343,2,21.983,2,24s1.641,3.657,3.657,3.657
			c2.016,0,3.657-1.641,3.657-3.657S7.673,20.343,5.657,20.343z"/>
	</g>
	<g>
		<path d="M42.961,48H21.57c-2.778,0-5.039-2.262-5.039-5.041v-1.232c0-2.778,2.26-5.039,5.039-5.039h21.391
			c2.778,0,5.039,2.261,5.039,5.039v1.232C48,45.738,45.739,48,42.961,48z M21.57,38.688c-1.675,0-3.039,1.363-3.039,3.039v1.232
			c0,1.677,1.363,3.041,3.039,3.041h21.391C44.637,46,46,44.636,46,42.959v-1.232c0-1.676-1.363-3.039-3.039-3.039H21.57z"/>
		<path d="M5.657,48C2.538,48,0,45.462,0,42.343s2.538-5.657,5.657-5.657c3.119,0,5.657,2.538,5.657,5.657S8.776,48,5.657,48z
			 M5.657,38.686C3.641,38.686,2,40.326,2,42.343S3.641,46,5.657,46c2.016,0,3.657-1.641,3.657-3.657S7.673,38.686,5.657,38.686z"/>
	</g>
</g>
</svg>
