<?xml version="1.0" encoding="utf-8"?>
<!-- Generator: Adobe Illustrator 16.0.0, SVG Export Plug-In . SVG Version: 6.00 Build 0)  -->
<!DOCTYPE svg PUBLIC "-//W3C//DTD SVG 1.1//EN" "http://www.w3.org/Graphics/SVG/1.1/DTD/svg11.dtd">
<svg version="1.1" id="Layer_1" xmlns="http://www.w3.org/2000/svg" xmlns:xlink="http://www.w3.org/1999/xlink" x="0px" y="0px"
	 width="48px" height="48px" viewBox="0 0 48 48" enable-background="new 0 0 48 48" xml:space="preserve">
<g>
	<path d="M24.117,44.94l-0.233-1.986l4.168-0.49v-7.067h2v7.957c0,0.507-0.38,0.934-0.883,0.993L24.117,44.94z"/>
	<rect x="28.963" y="43.186" transform="matrix(0.9776 0.2105 -0.2105 0.9776 10.0394 -5.9391)" width="7.905" height="2"/>
	<path d="M38.583,9.562c-1.27,0-2.302-1.033-2.302-2.302c0-1.269,1.032-2.302,2.302-2.302s2.302,1.033,2.302,2.302
		C40.885,8.529,39.853,9.562,38.583,9.562z M38.583,5.958c-0.718,0-1.302,0.584-1.302,1.302c0,0.718,0.584,1.302,1.302,1.302
		s1.302-0.584,1.302-1.302C39.885,6.542,39.301,5.958,38.583,5.958z"/>
	<path d="M28.207,36.403c-10.954,0-27.234-3.13-27.397-3.162C0.353,33.153,0.017,32.761,0,32.295
		c-0.016-0.466,0.291-0.881,0.741-1.001l7.771-2.082L7.37,28.354c-0.333-0.25-0.476-0.68-0.36-1.079s0.468-0.686,0.883-0.718
		c0.209-0.017,20.885-1.738,22.741-12.16c1.489-8.377,2.17-12.201,7.616-12.41l0.252-0.005c4.923,0,8.208,5.507,9.393,7.875
		c0.163,0.326,0.135,0.714-0.071,1.014c-0.207,0.3-0.564,0.457-0.923,0.428c-0.023-0.002-0.418-0.04-1.011-0.04
		c-1.217,0-4.169,0.172-5.28,1.767c-0.62,0.891-0.617,2.204,0.011,3.901c1.904,5.153,1.501,10.671-1.053,14.401
		c-1.547,2.26-4.624,4.973-10.5,5.066C28.785,36.4,28.497,36.403,28.207,36.403z M5.615,32.059
		c5.789,0.961,16.038,2.436,23.421,2.338c3.974-0.063,7.045-1.515,8.881-4.196c2.193-3.203,2.511-8.023,0.827-12.578
		c-0.868-2.348-0.792-4.278,0.225-5.738c1.434-2.058,4.36-2.538,6.316-2.613c-1.3-2.141-3.732-5.289-6.783-5.289l-0.176,0.003
		c-3.528,0.136-4.146,1.887-5.724,10.763C30.886,24.393,16.52,27.417,10.576,28.26l0.781,0.587c0.306,0.229,0.455,0.614,0.382,0.99
		c-0.073,0.375-0.354,0.677-0.723,0.775L5.615,32.059z"/>
	<path d="M22.506,31.463c-2.34,0-4.69-0.228-6.838-0.599l0.341-1.971c7.796,1.348,14.792,0.29,17.821-2.693
		c0.642-0.632,0.907-1.238,0.813-1.853c-0.231-1.508-2.438-2.942-3.269-3.367l0.907-1.782c0.398,0.203,3.906,2.06,4.338,4.84
		c0.136,0.879,0.007,2.215-1.385,3.585C32.371,30.445,27.46,31.463,22.506,31.463z"/>
</g>
</svg>
