<?xml version="1.0" encoding="utf-8"?>
<!-- Generator: Adobe Illustrator 16.0.0, SVG Export Plug-In . SVG Version: 6.00 Build 0)  -->
<!DOCTYPE svg PUBLIC "-//W3C//DTD SVG 1.1//EN" "http://www.w3.org/Graphics/SVG/1.1/DTD/svg11.dtd">
<svg version="1.1" id="Layer_1" xmlns="http://www.w3.org/2000/svg" xmlns:xlink="http://www.w3.org/1999/xlink" x="0px" y="0px"
	 width="48px" height="48px" viewBox="0 0 48 48" enable-background="new 0 0 48 48" xml:space="preserve">
<g>
	<path d="M47,24.841H1.102c-0.552,0-1-0.448-1-1V13.374c0-0.552,0.448-1,1-1H47c0.553,0,1,0.448,1,1v10.467
		C48,24.393,47.553,24.841,47,24.841z M2.102,22.841H46v-8.467H2.102V22.841z"/>
	<path d="M45.607,46.984H2.495c-0.552,0-1-0.447-1-1V23.841c0-0.552,0.448-1,1-1h43.112c0.553,0,1,0.448,1,1v22.144
		C46.607,46.537,46.16,46.984,45.607,46.984z M3.495,44.984h41.112V24.841H3.495V44.984z"/>
	<path d="M1.758,14.026l-1.517-1.304l9.767-11.357c0.19-0.221,0.467-0.348,0.758-0.348H37.51c0.3,0,0.584,0.134,0.773,0.366
		l9.303,11.357l-1.547,1.268L37.036,3.017h-25.81L1.758,14.026z"/>
	<rect x="13.375" y="4.633" width="21.063" height="2"/>
	<rect x="10.528" y="8.344" width="26.756" height="2"/>
</g>
</svg>
