<?xml version="1.0" encoding="utf-8"?>
<!-- Generator: Adobe Illustrator 16.0.0, SVG Export Plug-In . SVG Version: 6.00 Build 0)  -->
<!DOCTYPE svg PUBLIC "-//W3C//DTD SVG 1.1//EN" "http://www.w3.org/Graphics/SVG/1.1/DTD/svg11.dtd">
<svg version="1.1" id="Layer_1" xmlns="http://www.w3.org/2000/svg" xmlns:xlink="http://www.w3.org/1999/xlink" x="0px" y="0px"
	 width="48px" height="48px" viewBox="0 0 48 48" enable-background="new 0 0 48 48" xml:space="preserve">
<g>
	<path d="M39.971,48c-4.428,0-8.029-3.602-8.029-8.029c0-4.056,6.449-14.355,7.185-15.517c0.367-0.579,1.322-0.579,1.689,0
		C41.551,25.615,48,35.915,48,39.971C48,44.398,44.398,48,39.971,48z M39.971,26.892c-2.23,3.687-6.029,10.502-6.029,13.079
		c0,3.324,2.705,6.029,6.029,6.029S46,43.295,46,39.971C46,37.392,42.201,30.578,39.971,26.892z"/>
	<path d="M28.621,24.011c-4.427,0-8.029-3.602-8.029-8.03c0-4.055,6.449-14.355,7.185-15.516C27.96,0.175,28.278,0,28.621,0l0,0
		c0.343,0,0.661,0.175,0.845,0.465c0.735,1.161,7.185,11.462,7.185,15.516C36.65,20.409,33.049,24.011,28.621,24.011z M28.621,2.903
		c-2.23,3.687-6.029,10.501-6.029,13.078c0,3.325,2.705,6.03,6.029,6.03s6.029-2.705,6.029-6.03
		C34.65,13.405,30.852,6.59,28.621,2.903z"/>
	<path d="M8.03,38.05C3.602,38.05,0,34.447,0,30.02c0-4.054,6.449-14.354,7.184-15.516c0.366-0.579,1.323-0.579,1.689,0
		c0.736,1.161,7.187,11.462,7.187,15.516C16.06,34.447,12.458,38.05,8.03,38.05z M8.029,16.941C5.798,20.628,2,27.443,2,30.02
		c0,3.325,2.705,6.03,6.03,6.03c3.325,0,6.03-2.705,6.03-6.03C14.06,27.442,10.26,20.628,8.029,16.941z"/>
</g>
</svg>
