<?xml version="1.0" encoding="utf-8"?>
<!-- Generator: Adobe Illustrator 16.0.0, SVG Export Plug-In . SVG Version: 6.00 Build 0)  -->
<!DOCTYPE svg PUBLIC "-//W3C//DTD SVG 1.1//EN" "http://www.w3.org/Graphics/SVG/1.1/DTD/svg11.dtd">
<svg version="1.1" id="Layer_1" xmlns="http://www.w3.org/2000/svg" xmlns:xlink="http://www.w3.org/1999/xlink" x="0px" y="0px"
	 width="48px" height="48px" viewBox="0 0 48 48" enable-background="new 0 0 48 48" xml:space="preserve">
<g>
	<g>
		<path d="M32.934,48H15.068c-4.411,0-8-3.589-8-8V8c0-4.411,3.589-8,8-8h17.866c4.411,0,8,3.589,8,8v32
			C40.934,44.411,37.345,48,32.934,48z M15.068,2c-3.309,0-6,2.691-6,6v32c0,3.309,2.691,6,6,6h17.866c3.309,0,6-2.691,6-6V8
			c0-3.309-2.691-6-6-6H15.068z"/>
	</g>
	<path d="M36.359,39.161H11.641c-0.552,0-1-0.447-1-1V7.411c0-0.552,0.448-1,1-1h24.718c0.553,0,1,0.448,1,1v30.75
		C37.359,38.714,36.912,39.161,36.359,39.161z M12.641,37.161h22.718V8.411H12.641V37.161z"/>
	<rect x="20.724" y="3.189" width="6.553" height="2"/>
	<path d="M23.999,46.168c-1.973,0-3.577-1.606-3.577-3.58c0-1.973,1.604-3.577,3.577-3.577s3.578,1.604,3.578,3.577
		C27.577,44.562,25.972,46.168,23.999,46.168z M23.999,41.011c-0.87,0-1.577,0.707-1.577,1.577c0,0.871,0.708,1.58,1.577,1.58
		c0.87,0,1.578-0.709,1.578-1.58C25.577,41.718,24.869,41.011,23.999,41.011z"/>
</g>
</svg>
