<?xml version="1.0" encoding="utf-8"?>
<!-- Generator: Adobe Illustrator 16.0.0, SVG Export Plug-In . SVG Version: 6.00 Build 0)  -->
<!DOCTYPE svg PUBLIC "-//W3C//DTD SVG 1.1//EN" "http://www.w3.org/Graphics/SVG/1.1/DTD/svg11.dtd">
<svg version="1.1" id="Layer_1" xmlns="http://www.w3.org/2000/svg" xmlns:xlink="http://www.w3.org/1999/xlink" x="0px" y="0px"
	 width="48px" height="48px" viewBox="0 0 48 48" enable-background="new 0 0 48 48" xml:space="preserve">
<g>
	<path d="M30.052,48H16.257c-0.552,0-1-0.447-1-1v-3.831c0-0.553,0.448-1,1-1h3.024V27.936c-0.657-0.263-1.274-0.555-1.845-0.872
		c-1.601,1.502-3.687,2.349-5.838,2.349c-4.84,0-8.777-4.138-8.777-9.223c0-3.106,1.479-5.974,3.91-7.675
		c-0.27-0.907-0.406-1.848-0.406-2.808c0-5.199,4.024-9.429,8.97-9.429c1.769,0,3.449,0.531,4.908,1.542
		C21.749,0.641,23.613,0,25.532,0c4.058,0,7.573,2.807,8.711,6.811c3.02-0.551,6.075,0.491,8.216,2.754
		c1.754,1.854,2.72,4.316,2.719,6.932c0,3.995-2.354,7.636-5.878,9.12c-2.757,2.38-7.221,3.796-11.987,3.796
		c-0.096,0-0.19-0.001-0.285-0.003v12.76h3.024c0.553,0,1,0.447,1,1V47C31.052,47.553,30.604,48,30.052,48z M17.257,46h11.795
		v-1.831h-3.024c-0.553,0-1-0.447-1-1V28.37c0-0.274,0.112-0.537,0.312-0.726s0.466-0.29,0.741-0.273
		c0.408,0.021,0.817,0.041,1.232,0.041c4.366,0,8.398-1.272,10.787-3.404c0.087-0.078,0.188-0.14,0.296-0.183
		c2.86-1.138,4.782-4.083,4.782-7.329c0.001-2.103-0.771-4.076-2.172-5.557c-1.869-1.977-4.624-2.758-7.219-1.962
		c-0.273,0.083-0.571,0.046-0.816-0.104c-0.245-0.151-0.413-0.399-0.462-0.683C31.891,4.604,28.957,2,25.532,2
		c-1.693,0-3.336,0.652-4.625,1.835c-0.37,0.339-0.933,0.352-1.319,0.03c-1.239-1.039-2.724-1.588-4.294-1.588
		c-3.843,0-6.97,3.333-6.97,7.429c0,0.99,0.182,1.953,0.54,2.864c0.182,0.463-0.004,0.991-0.438,1.236
		c-2.224,1.258-3.605,3.704-3.605,6.383c0,3.983,3.041,7.223,6.777,7.223c1.877,0,3.625-0.808,4.923-2.274
		c0.326-0.367,0.872-0.443,1.288-0.18c0.807,0.516,1.751,0.968,2.808,1.344c0.398,0.143,0.665,0.52,0.665,0.942v15.925
		c0,0.553-0.448,1-1,1h-3.024V46z"/>
</g>
</svg>
