<?xml version="1.0" encoding="utf-8"?>
<!-- Generator: Adobe Illustrator 16.0.0, SVG Export Plug-In . SVG Version: 6.00 Build 0)  -->
<!DOCTYPE svg PUBLIC "-//W3C//DTD SVG 1.1//EN" "http://www.w3.org/Graphics/SVG/1.1/DTD/svg11.dtd">
<svg version="1.1" id="Layer_1" xmlns="http://www.w3.org/2000/svg" xmlns:xlink="http://www.w3.org/1999/xlink" x="0px" y="0px"
	 width="48px" height="48px" viewBox="0 0 48 48" enable-background="new 0 0 48 48" xml:space="preserve">
<g>
	<path d="M30.186,45.398L0.992,21.292l14.011-1.534l12.533-15.18l-4.04-3.335l8.117-1.302l13.747,11.351l0.255,8.213l-4.04-3.334
		L29.041,31.349L30.186,45.398z M5.917,22.765l21.892,18.077l-0.826-10.14l14.322-17.347l2.173,1.793l-0.089-2.891L31.036,2.059
		l-2.855,0.458l2.171,1.792L16.028,21.658L5.917,22.765z"/>
	<rect x="9.27" y="30.434" transform="matrix(0.7711 0.6368 -0.6368 0.7711 27.6863 2.5697)" width="2" height="18.706"/>
	<polygon points="25.706,35.463 23.706,35.463 23.706,28.615 36.465,11.915 38.055,13.129 25.706,29.291 	"/>
</g>
</svg>
