<?xml version="1.0" encoding="utf-8"?>
<!-- Generator: Adobe Illustrator 16.0.0, SVG Export Plug-In . SVG Version: 6.00 Build 0)  -->
<!DOCTYPE svg PUBLIC "-//W3C//DTD SVG 1.1//EN" "http://www.w3.org/Graphics/SVG/1.1/DTD/svg11.dtd">
<svg version="1.1" id="Layer_1" xmlns="http://www.w3.org/2000/svg" xmlns:xlink="http://www.w3.org/1999/xlink" x="0px" y="0px"
	 width="48px" height="48px" viewBox="0 0 48 48" enable-background="new 0 0 48 48" xml:space="preserve">
<g>
	<path d="M40.782,43.261H16.819V19.529l1.843-0.655c1.048-1.423,6.553-9.354,4.098-15.614l-0.449-1.146l1.212-0.206
		c0.025-0.004,0.614-0.103,1.46-0.103c1.8,0,5.055,0.447,6.625,3.443c1.396,2.664,0.619,9.38-0.447,12.879h2.865
		c0.355-0.088,0.725-0.133,1.098-0.133h7.874c2.353,0,4.266,1.753,4.266,3.909c0,1.001-0.414,1.916-1.093,2.608
		C47.276,25.22,48,26.393,48,27.719c0,1.516-0.946,2.833-2.325,3.481c0.533,0.652,0.849,1.462,0.849,2.337
		c0,1.515-0.945,2.832-2.324,3.479c0.532,0.652,0.848,1.462,0.848,2.337C45.047,41.508,43.134,43.261,40.782,43.261z M18.819,41.261
		h21.963c1.228,0,2.265-0.873,2.265-1.907s-1.037-1.908-2.265-1.908v-2h1.477c1.228,0,2.265-0.874,2.265-1.908
		c0-1.052-1.016-1.908-2.265-1.908v-2h1.478C44.963,29.628,46,28.754,46,27.719c0-1.052-1.017-1.908-2.266-1.908h-0.736v-2
		c1.249,0,2.266-0.855,2.266-1.906c0-1.052-1.017-1.909-2.266-1.909h-7.874c-0.239,0-0.473,0.032-0.695,0.095l-0.272,0.038h-6.056
		l0.723-1.447c1.071-2.146,2.263-10.122,1.014-12.504c-1.018-1.941-3.164-2.363-4.805-2.372c1.942,7.644-4.669,16.15-4.967,16.528
		l-0.179,0.227l-1.067,0.379V41.261z"/>
	<path d="M40.782,43.261h-7.875c-2.352,0-4.265-1.753-4.265-3.907c0-2.155,1.913-3.908,4.265-3.908h7.875
		c2.352,0,4.265,1.753,4.265,3.908C45.047,41.508,43.134,43.261,40.782,43.261z M32.907,37.445c-1.249,0-2.265,0.856-2.265,1.908
		c0,1.034,1.037,1.907,2.265,1.907h7.875c1.228,0,2.265-0.873,2.265-1.907s-1.037-1.908-2.265-1.908H32.907z"/>
	<path d="M42.258,37.445h-7.874c-2.352,0-4.265-1.754-4.265-3.909s1.913-3.908,4.265-3.908h7.874c2.353,0,4.266,1.753,4.266,3.908
		S44.61,37.445,42.258,37.445z M34.384,31.628c-1.249,0-2.265,0.856-2.265,1.908c0,1.035,1.037,1.909,2.265,1.909h7.874
		c1.229,0,2.266-0.874,2.266-1.909c0-1.034-1.037-1.908-2.266-1.908H34.384z"/>
	<path d="M43.734,31.628h-7.873c-2.353,0-4.266-1.754-4.266-3.909s1.913-3.908,4.266-3.908h7.873c2.353,0,4.266,1.753,4.266,3.908
		S46.087,31.628,43.734,31.628z M35.861,25.811c-1.229,0-2.266,0.874-2.266,1.908c0,1.035,1.037,1.909,2.266,1.909h7.873
		c1.249,0,2.266-0.856,2.266-1.909c0-1.052-1.017-1.908-2.266-1.908H35.861z"/>
	<path d="M42.998,25.811h-7.874c-2.353,0-4.267-1.752-4.267-3.907c0-2.155,1.914-3.909,4.267-3.909h7.874
		c2.353,0.001,4.266,1.755,4.266,3.909C47.264,24.058,45.351,25.811,42.998,25.811z M35.124,19.995
		c-1.229,0-2.267,0.874-2.267,1.909c0,1.034,1.038,1.907,2.267,1.907h7.874c1.229,0,2.266-0.873,2.266-1.907
		c0-1.052-1.017-1.908-2.267-1.909H35.124z"/>
	<path d="M18.819,46.193H0V17.996h18.819V46.193z M2,44.193h14.819V19.996H2V44.193z"/>
	<path d="M8.788,43.261c-2.155,0-3.908-1.753-3.908-3.907c0-2.155,1.753-3.908,3.908-3.908s3.908,1.753,3.908,3.908
		C12.696,41.508,10.943,43.261,8.788,43.261z M8.788,37.445c-1.052,0-1.908,0.856-1.908,1.908s0.856,1.907,1.908,1.907
		c1.052,0,1.908-0.855,1.908-1.907S9.84,37.445,8.788,37.445z"/>
</g>
</svg>
