<?xml version="1.0" encoding="utf-8"?>
<!-- Generator: Adobe Illustrator 16.0.0, SVG Export Plug-In . SVG Version: 6.00 Build 0)  -->
<!DOCTYPE svg PUBLIC "-//W3C//DTD SVG 1.1//EN" "http://www.w3.org/Graphics/SVG/1.1/DTD/svg11.dtd">
<svg version="1.1" id="Layer_1" xmlns="http://www.w3.org/2000/svg" xmlns:xlink="http://www.w3.org/1999/xlink" x="0px" y="0px"
	 width="48px" height="48px" viewBox="0 0 48 48" enable-background="new 0 0 48 48" xml:space="preserve">
<g>
	<path d="M23.018,46.194c-1.8,0-5.055-0.447-6.626-3.442c-1.395-2.667-0.619-9.383,0.447-12.88h-2.866
		c-0.358,0.088-0.727,0.133-1.097,0.133H5.002c-2.351,0-4.264-1.753-4.264-3.907c0-1.002,0.414-1.917,1.092-2.609
		C0.725,22.782,0,21.607,0,20.281c0-1.516,0.946-2.833,2.324-3.48c-0.533-0.652-0.848-1.461-0.848-2.337
		c0-1.516,0.947-2.833,2.327-3.481c-0.532-0.652-0.847-1.46-0.847-2.335c0-2.155,1.912-3.909,4.263-3.909h23.963v23.732
		l-1.843,0.654c-1.048,1.424-6.553,9.355-4.097,15.614l0.449,1.146l-1.213,0.206C24.454,46.096,23.864,46.194,23.018,46.194z
		 M13.706,27.872h6.192l-0.722,1.446c-1.07,2.145-2.26,10.12-1.013,12.505c1.018,1.94,3.165,2.362,4.807,2.37
		c-1.943-7.642,4.668-16.15,4.966-16.528l0.179-0.227l1.067-0.379V6.739H7.219c-1.248,0-2.263,0.856-2.263,1.909
		c0,1.052,1.015,1.907,2.263,1.907v2H5.741c-1.228,0-2.265,0.874-2.265,1.909c0,1.053,1.016,1.909,2.265,1.909v2H4.264
		C3.015,18.373,2,19.229,2,20.281s1.016,1.909,2.264,1.909h0.738v2c-1.228,0-2.264,0.874-2.264,1.908
		c0,1.052,1.016,1.907,2.264,1.907h7.874c0.236,0,0.471-0.032,0.698-0.096L13.706,27.872z"/>
	<path d="M15.093,12.555H7.219c-2.351,0-4.263-1.753-4.263-3.907c0-2.155,1.912-3.909,4.263-3.909h7.874
		c2.351,0,4.264,1.753,4.264,3.909C19.357,10.802,17.444,12.555,15.093,12.555z M7.219,6.739c-1.248,0-2.263,0.856-2.263,1.909
		c0,1.052,1.015,1.907,2.263,1.907h7.874c1.249,0,2.264-0.855,2.264-1.907c0-1.052-1.016-1.909-2.264-1.909H7.219z"/>
	<path d="M13.617,18.372H5.741c-2.351,0-4.264-1.753-4.264-3.909c0-2.155,1.914-3.909,4.265-3.909h7.875
		c2.351,0,4.264,1.753,4.264,3.909C17.881,16.619,15.968,18.372,13.617,18.372z M5.742,12.554c-1.228,0-2.265,0.874-2.265,1.909
		c0,1.053,1.016,1.909,2.264,1.909h7.876c1.248,0,2.264-0.856,2.264-1.909c0-1.035-1.037-1.909-2.264-1.909H5.742z"/>
	<path d="M12.138,24.19H4.264C1.913,24.188,0,22.435,0,20.281c0-2.156,1.913-3.909,4.264-3.909h7.874
		c2.352,0,4.266,1.753,4.266,3.909C16.404,22.437,14.49,24.19,12.138,24.19z M4.264,18.372C3.016,18.372,2,19.229,2,20.281
		c0,1.052,1.016,1.908,2.265,1.909h7.874c1.25,0,2.266-0.856,2.266-1.909c0-1.035-1.038-1.909-2.266-1.909H4.264z"/>
	<path d="M12.876,30.005H5.002c-2.351,0-4.264-1.753-4.264-3.907c0-2.155,1.913-3.908,4.264-3.908h7.874
		c2.353,0,4.266,1.753,4.266,3.908C17.142,28.252,15.229,30.005,12.876,30.005z M5.002,24.19c-1.228,0-2.264,0.874-2.264,1.908
		s1.037,1.907,2.264,1.907h7.874c1.229,0,2.266-0.873,2.266-1.907s-1.038-1.908-2.266-1.908H5.002z"/>
	<path d="M48,30.005H29.182V1.806H48V30.005z M31.182,28.005H46V3.806H31.182V28.005z"/>
	<path d="M39.212,12.556c-2.154,0-3.907-1.753-3.907-3.908s1.753-3.908,3.907-3.908c2.155,0,3.908,1.753,3.908,3.908
		S41.367,12.556,39.212,12.556z M39.212,6.74c-1.052,0-1.907,0.856-1.907,1.908c0,1.052,0.855,1.908,1.907,1.908
		S41.12,9.7,41.12,8.648C41.12,7.596,40.264,6.74,39.212,6.74z"/>
</g>
</svg>
