<?xml version="1.0" encoding="utf-8"?>
<!-- Generator: Adobe Illustrator 16.0.0, SVG Export Plug-In . SVG Version: 6.00 Build 0)  -->
<!DOCTYPE svg PUBLIC "-//W3C//DTD SVG 1.1//EN" "http://www.w3.org/Graphics/SVG/1.1/DTD/svg11.dtd">
<svg version="1.1" id="Layer_1" xmlns="http://www.w3.org/2000/svg" xmlns:xlink="http://www.w3.org/1999/xlink" x="0px" y="0px"
	 width="48px" height="48px" viewBox="0 0 48 48" enable-background="new 0 0 48 48" xml:space="preserve">
<g>
	<path d="M8.583,48H0V23.99h8.583V48z M2,46h4.583V25.99H2V46z"/>
	<path d="M8.583,21.902H0v-7.269h8.583V21.902z M2,19.902h4.583v-3.269H2V19.902z"/>
	<path d="M18.437,48H9.854V31.367h8.583V48z M11.854,46h4.583V33.367h-4.583V46z"/>
	<path d="M18.437,29.865H9.854v-7.269h8.583V29.865z M11.854,27.865h4.583v-3.27h-4.583V27.865z"/>
	<path d="M28.291,48h-8.582V17.901h8.582V48z M21.709,46h4.582V19.901h-4.582V46z"/>
	<path d="M28.291,16.049h-8.582V8.78h8.582V16.049z M21.709,14.049h4.582V10.78h-4.582V14.049z"/>
	<path d="M38.146,48h-8.584V8.653h8.584V48z M31.563,46h4.584V10.653h-4.584V46z"/>
	<path d="M38.146,7.269h-8.584V0h8.584V7.269z M31.563,5.269h4.584V2h-4.584V5.269z"/>
	<path d="M48,48h-8.583V23.99H48V48z M41.417,46H46V25.99h-4.583V46z"/>
	<path d="M48,21.902h-8.583v-7.269H48V21.902z M41.417,19.902H46v-3.269h-4.583V19.902z"/>
</g>
</svg>
