<?xml version="1.0" encoding="utf-8"?>
<!-- Generator: Adobe Illustrator 16.0.0, SVG Export Plug-In . SVG Version: 6.00 Build 0)  -->
<!DOCTYPE svg PUBLIC "-//W3C//DTD SVG 1.1//EN" "http://www.w3.org/Graphics/SVG/1.1/DTD/svg11.dtd">
<svg version="1.1" id="Layer_1" xmlns="http://www.w3.org/2000/svg" xmlns:xlink="http://www.w3.org/1999/xlink" x="0px" y="0px"
	 width="48px" height="48px" viewBox="0 0 48 48" enable-background="new 0 0 48 48" xml:space="preserve">
<g>
	<path d="M24,15.699c-4.329,0-7.85-3.521-7.85-7.85s3.521-7.85,7.85-7.85c4.328,0,7.85,3.521,7.85,7.85S28.328,15.699,24,15.699z
		 M24,1.999c-3.226,0-5.85,2.625-5.85,5.85s2.625,5.85,5.85,5.85s5.85-2.625,5.85-5.85S27.226,1.999,24,1.999z"/>
	<path d="M8.907,28.992l-1.647-1.135C7.56,27.421,14.731,17.164,24,17.164v2C15.771,19.164,8.974,28.894,8.907,28.992z"/>
	<rect x="23" y="14.697" width="2" height="17.087"/>
	<path d="M19.432,47.863c-5.083-2.965-7.463-5.99-7.077-8.993c0.706-5.484,10.286-8.312,11.376-8.615l0.538,1.926
		c-2.608,0.73-9.476,3.401-9.931,6.945c-0.269,2.101,1.841,4.524,6.102,7.011L19.432,47.863z"/>
	<path d="M39.093,28.992c-0.068-0.098-6.881-9.828-15.093-9.828v-2c9.269,0,16.438,10.257,16.739,10.693L39.093,28.992z"/>
	<path d="M28.568,47.863l-1.008-1.727c4.262-2.486,6.371-4.911,6.101-7.012c-0.456-3.55-7.323-6.216-9.93-6.944l0.538-1.926
		c1.09,0.304,10.67,3.131,11.376,8.615C36.031,41.873,33.65,44.898,28.568,47.863z"/>
</g>
</svg>
