<?xml version="1.0" encoding="utf-8"?>
<!-- Generator: Adobe Illustrator 16.0.0, SVG Export Plug-In . SVG Version: 6.00 Build 0)  -->
<!DOCTYPE svg PUBLIC "-//W3C//DTD SVG 1.1//EN" "http://www.w3.org/Graphics/SVG/1.1/DTD/svg11.dtd">
<svg version="1.1" id="Layer_1" xmlns="http://www.w3.org/2000/svg" xmlns:xlink="http://www.w3.org/1999/xlink" x="0px" y="0px"
	 width="48px" height="48px" viewBox="0 0 48 48" enable-background="new 0 0 48 48" xml:space="preserve">
<g>
	<path d="M24,48C10.767,48,0,37.233,0,24S10.767,0,24,0s24,10.767,24,24S37.233,48,24,48z M24,2C11.869,2,2,11.869,2,24
		s9.869,22,22,22s22-9.869,22-22S36.131,2,24,2z"/>
	<path d="M21.149,41.606c-0.271,0-0.544-0.021-0.816-0.064c-5.847-0.951-6.786-5.813-6.823-6.02l1.967-0.359
		c0.029,0.149,0.761,3.687,5.176,4.404c1.383,0.225,3.009-0.562,4.728-1.394c2.781-1.347,6.245-3.025,9.729-0.367l-1.213,1.59
		c-2.506-1.911-4.889-0.756-7.646,0.578C24.59,40.778,22.88,41.606,21.149,41.606z"/>
	<g>
		<path d="M15.823,30.701c-3.023,0-5.483-2.46-5.483-5.484c0-3.023,2.46-5.483,5.483-5.483c3.025,0,5.486,2.459,5.486,5.483
			C21.309,28.241,18.848,30.701,15.823,30.701z M15.823,21.734c-1.921,0-3.483,1.563-3.483,3.483c0,1.921,1.563,3.484,3.483,3.484
			c1.922,0,3.486-1.563,3.486-3.484C19.309,23.296,17.745,21.734,15.823,21.734z"/>
		<path d="M32.175,30.701c-3.022,0-5.481-2.46-5.481-5.484c0-3.023,2.459-5.483,5.481-5.483c3.024,0,5.485,2.459,5.485,5.483
			C37.66,28.241,35.199,30.701,32.175,30.701z M32.175,21.734c-1.92,0-3.481,1.563-3.481,3.483c0,1.921,1.562,3.484,3.481,3.484
			c1.922,0,3.485-1.563,3.485-3.484C35.66,23.296,34.097,21.734,32.175,21.734z"/>
	</g>
	<path d="M46.749,21.734c-9.414-0.213-13.505-8.498-14.923-12.454C21.232,23.407,2.281,17.068,2.083,17l0.653-1.891
		c0.778,0.267,19.157,6.381,28.592-8.635c0.215-0.343,0.616-0.521,1.019-0.453c0.399,0.07,0.718,0.375,0.805,0.771
		c0.114,0.519,2.909,12.698,13.643,12.942L46.749,21.734z"/>
</g>
</svg>
