<?xml version="1.0" encoding="utf-8"?>
<!-- Generator: Adobe Illustrator 16.0.0, SVG Export Plug-In . SVG Version: 6.00 Build 0)  -->
<!DOCTYPE svg PUBLIC "-//W3C//DTD SVG 1.1//EN" "http://www.w3.org/Graphics/SVG/1.1/DTD/svg11.dtd">
<svg version="1.1" id="Layer_1" xmlns="http://www.w3.org/2000/svg" xmlns:xlink="http://www.w3.org/1999/xlink" x="0px" y="0px"
	 width="48px" height="48px" viewBox="0 0 48 48" enable-background="new 0 0 48 48" xml:space="preserve">
<g>
	<g>
		<polygon points="9.319,38.102 -0.414,28.369 9.859,18.096 11.273,19.51 2.414,28.369 9.319,35.273 17.885,26.706 19.299,28.12 		
			"/>
		<polygon points="27.494,19.926 26.08,18.512 34.84,9.753 27.936,2.847 19.03,11.753 17.616,10.339 27.936,0.019 37.668,9.753 		
			"/>
		<path d="M23.788,30.209c-2.381,0-4.854-1.107-6.785-3.038l-6.487-6.487C7.082,17.25,6.47,12.273,9.152,9.589
			c1.097-1.097,2.587-1.676,4.31-1.676c2.381,0,4.854,1.108,6.786,3.04l6.488,6.487c3.435,3.433,4.045,8.411,1.361,11.095
			C27.001,29.63,25.511,30.209,23.788,30.209z M13.462,9.913c-1.181,0-2.182,0.377-2.896,1.09c-1.87,1.872-1.246,5.658,1.363,8.267
			l6.487,6.487c1.536,1.535,3.543,2.452,5.371,2.452c1.181,0,2.183-0.377,2.896-1.09c1.871-1.871,1.248-5.657-1.361-8.266
			l-6.488-6.487C17.298,10.83,15.29,9.913,13.462,9.913z"/>
	</g>
	<path d="M22.044,38.743c-0.763,0-1.531-0.054-2.302-0.161l0.276-1.98c4.472,0.627,8.859-0.844,12.043-4.027
		c3.187-3.189,4.682-7.755,3.999-12.214l1.977-0.303c0.778,5.085-0.927,10.293-4.562,13.931
		C30.394,37.07,26.321,38.743,22.044,38.743z"/>
	<path d="M22.512,47.568c-0.91,0-1.826-0.049-2.744-0.146l0.212-1.988c7.112,0.756,14.082-1.705,19.131-6.756
		c4.633-4.632,7.075-10.791,6.877-17.343l2-0.061c0.212,7.006-2.509,13.866-7.463,18.818C35.698,44.92,29.251,47.568,22.512,47.568z
		"/>
</g>
</svg>
