<?xml version="1.0" encoding="utf-8"?>
<!-- Generator: Adobe Illustrator 16.0.0, SVG Export Plug-In . SVG Version: 6.00 Build 0)  -->
<!DOCTYPE svg PUBLIC "-//W3C//DTD SVG 1.1//EN" "http://www.w3.org/Graphics/SVG/1.1/DTD/svg11.dtd">
<svg version="1.1" id="Layer_1" xmlns="http://www.w3.org/2000/svg" xmlns:xlink="http://www.w3.org/1999/xlink" x="0px" y="0px"
	 width="48px" height="48px" viewBox="0 0 48 48" enable-background="new 0 0 48 48" xml:space="preserve">
<g>
	<g>
		<path d="M45,43.328H3c-1.654,0-3-1.346-3-3V15.245c0-1.654,1.346-3,3-3h42c1.654,0,3,1.346,3,3v25.083
			C48,41.982,46.654,43.328,45,43.328z M3,14.245c-0.551,0-1,0.449-1,1v25.083c0,0.552,0.449,1,1,1h42c0.552,0,1-0.448,1-1V15.245
			c0-0.551-0.448-1-1-1H3z"/>
	</g>
	<path d="M33.975,37.627c-5.556,0-10.076-4.521-10.076-10.076c0-5.557,4.521-10.078,10.076-10.078
		c5.557,0,10.077,4.521,10.077,10.078C44.052,33.106,39.531,37.627,33.975,37.627z M33.975,19.473c-4.453,0-8.076,3.624-8.076,8.078
		c0,4.453,3.623,8.076,8.076,8.076c4.454,0,8.077-3.623,8.077-8.076C42.052,23.097,38.429,19.473,33.975,19.473z"/>
	<path d="M19.807,30.921H5.947c-0.552,0-1-0.447-1-1v-8.892c0-0.552,0.448-1,1-1h13.86c0.552,0,1,0.448,1,1v8.892
		C20.807,30.474,20.359,30.921,19.807,30.921z M6.947,28.921h11.86v-6.892H6.947V28.921z"/>
	<path d="M6.262,37.645c-0.552,0-1-0.447-1-1V35.15c0-0.553,0.448-1,1-1s1,0.447,1,1v1.494C7.262,37.197,6.814,37.645,6.262,37.645z
		"/>
	<path d="M11.067,37.645c-0.552,0-1-0.447-1-1V35.15c0-0.553,0.448-1,1-1s1,0.447,1,1v1.494
		C12.067,37.197,11.619,37.645,11.067,37.645z"/>
	<path d="M15.874,37.645c-0.552,0-1-0.447-1-1V35.15c0-0.553,0.448-1,1-1s1,0.447,1,1v1.494
		C16.874,37.197,16.426,37.645,15.874,37.645z"/>
	<path d="M20.677,37.645c-0.552,0-1-0.447-1-1V35.15c0-0.553,0.448-1,1-1s1,0.447,1,1v1.494
		C21.677,37.197,21.229,37.645,20.677,37.645z"/>
	<path d="M39.799,12.926c-0.553,0-1-0.448-1-1V6.672H9.203v5.254c0,0.552-0.448,1-1,1s-1-0.448-1-1V5.672c0-0.552,0.448-1,1-1
		h31.596c0.553,0,1,0.448,1,1v6.254C40.799,12.478,40.352,12.926,39.799,12.926z"/>
</g>
</svg>
