<?xml version="1.0" encoding="utf-8"?>
<!-- Generator: Adobe Illustrator 16.0.0, SVG Export Plug-In . SVG Version: 6.00 Build 0)  -->
<!DOCTYPE svg PUBLIC "-//W3C//DTD SVG 1.1//EN" "http://www.w3.org/Graphics/SVG/1.1/DTD/svg11.dtd">
<svg version="1.1" id="Layer_1" xmlns="http://www.w3.org/2000/svg" xmlns:xlink="http://www.w3.org/1999/xlink" x="0px" y="0px"
	 width="48px" height="48px" viewBox="0 0 48 48" enable-background="new 0 0 48 48" xml:space="preserve">
<g>
	<g>
		<path d="M36.876,48H11.124c-2.206,0-4-1.794-4-4V4c0-2.206,1.794-4,4-4h25.752c2.206,0,4,1.794,4,4v40
			C40.876,46.206,39.082,48,36.876,48z M11.124,2c-1.103,0-2,0.897-2,2v40c0,1.103,0.897,2,2,2h25.752c1.103,0,2-0.897,2-2V4
			c0-1.103-0.897-2-2-2H11.124z"/>
	</g>
	<path d="M37,22.75H11V4h26V22.75z M13,20.75h22V6H13V20.75z"/>
	<path d="M24.001,44.225c-5.585,0-10.129-4.544-10.129-10.129c0-5.586,4.544-10.13,10.129-10.13S34.13,28.51,34.13,34.096
		C34.13,39.681,29.586,44.225,24.001,44.225z M24.001,25.966c-4.482,0-8.129,3.647-8.129,8.13s3.646,8.129,8.129,8.129
		s8.129-3.646,8.129-8.129S28.483,25.966,24.001,25.966z"/>
	<path d="M24,38.919c-2.66,0-4.824-2.164-4.824-4.823c0-2.66,2.164-4.824,4.824-4.824s4.824,2.164,4.824,4.824
		C28.824,36.755,26.66,38.919,24,38.919z M24,31.271c-1.557,0-2.824,1.267-2.824,2.824c0,1.557,1.267,2.823,2.824,2.823
		c1.558,0,2.824-1.267,2.824-2.823C26.824,32.538,25.558,31.271,24,31.271z"/>
</g>
</svg>
