<?xml version="1.0" encoding="utf-8"?>
<!-- Generator: Adobe Illustrator 16.0.0, SVG Export Plug-In . SVG Version: 6.00 Build 0)  -->
<!DOCTYPE svg PUBLIC "-//W3C//DTD SVG 1.1//EN" "http://www.w3.org/Graphics/SVG/1.1/DTD/svg11.dtd">
<svg version="1.1" id="Layer_1" xmlns="http://www.w3.org/2000/svg" xmlns:xlink="http://www.w3.org/1999/xlink" x="0px" y="0px"
	 width="48px" height="48px" viewBox="0 0 48 48" enable-background="new 0 0 48 48" xml:space="preserve">
<g>
	<path d="M45.275,48H2.727c-1.395,0-2.529-1.135-2.529-2.529V2.529C0.197,1.855,0.459,1.22,0.936,0.742C1.414,0.264,2.05,0,2.727,0
		h42.548c1.394,0,2.527,1.134,2.527,2.529v42.942C47.803,46.865,46.669,48,45.275,48z M2.727,2C2.585,2,2.452,2.055,2.352,2.155
		c-0.099,0.1-0.153,0.231-0.153,0.372v42.944C2.198,45.763,2.436,46,2.727,46h42.548c0.291,0,0.527-0.237,0.527-0.529V2.529
		C45.803,2.237,45.566,2,45.275,2H2.727z"/>
	<rect x="1.197" y="13.52" width="45.606" height="2"/>
	<path d="M7.553,10.476c-1.737,0-3.149-1.413-3.149-3.149s1.413-3.149,3.149-3.149c1.736,0,3.149,1.413,3.149,3.149
		S9.29,10.476,7.553,10.476z M7.553,6.178c-0.634,0-1.149,0.516-1.149,1.149s0.516,1.149,1.149,1.149
		c0.633,0,1.149-0.516,1.149-1.149S8.187,6.178,7.553,6.178z"/>
	<path d="M14.155,10.476c-1.736,0-3.149-1.413-3.149-3.149s1.413-3.149,3.149-3.149c1.737,0,3.149,1.413,3.149,3.149
		S15.892,10.476,14.155,10.476z M14.155,6.178c-0.633,0-1.149,0.516-1.149,1.149s0.516,1.149,1.149,1.149
		c0.634,0,1.149-0.516,1.149-1.149S14.789,6.178,14.155,6.178z"/>
</g>
</svg>
