<?xml version="1.0" encoding="utf-8"?>
<!-- Generator: Adobe Illustrator 16.0.0, SVG Export Plug-In . SVG Version: 6.00 Build 0)  -->
<!DOCTYPE svg PUBLIC "-//W3C//DTD SVG 1.1//EN" "http://www.w3.org/Graphics/SVG/1.1/DTD/svg11.dtd">
<svg version="1.1" id="Layer_1" xmlns="http://www.w3.org/2000/svg" xmlns:xlink="http://www.w3.org/1999/xlink" x="0px" y="0px"
	 width="48px" height="48px" viewBox="0 0 48 48" enable-background="new 0 0 48 48" xml:space="preserve">
<g>
	<path d="M45.607,48H2.394c-1.391,0-2.522-1.13-2.522-2.52V14.753c0-1.39,1.131-2.521,2.522-2.521H2.71l21.291,14.981l21.288-14.981
		h0.316c1.391,0,2.521,1.131,2.521,2.521V45.48c0.001,0.671-0.261,1.304-0.736,1.78C46.914,47.737,46.281,48,45.607,48z
		 M2.158,14.289c-0.169,0.086-0.286,0.262-0.286,0.464V45.48c0,0.286,0.234,0.52,0.522,0.52h43.213c0.287,0,0.521-0.233,0.521-0.52
		l-0.001-30.728c0-0.202-0.116-0.378-0.285-0.464l-21.841,15.37L2.158,14.289z"/>
	<path d="M41.947,16.172h-2V2.521C39.947,2.234,39.713,2,39.426,2H8.572c-0.287,0-0.52,0.234-0.52,0.521v13.651h-2V2.521
		C6.052,1.131,7.182,0,8.572,0h30.854c1.391,0,2.521,1.131,2.521,2.521V16.172z"/>
	<rect x="15.398" y="9.047" width="17.204" height="2"/>
	<rect x="15.398" y="15.128" width="17.204" height="2"/>
</g>
</svg>
