<?xml version="1.0" encoding="utf-8"?>
<!-- Generator: Adobe Illustrator 16.0.0, SVG Export Plug-In . SVG Version: 6.00 Build 0)  -->
<!DOCTYPE svg PUBLIC "-//W3C//DTD SVG 1.1//EN" "http://www.w3.org/Graphics/SVG/1.1/DTD/svg11.dtd">
<svg version="1.1" id="Layer_1" xmlns="http://www.w3.org/2000/svg" xmlns:xlink="http://www.w3.org/1999/xlink" x="0px" y="0px"
	 width="48px" height="48px" viewBox="0 0 48 48" enable-background="new 0 0 48 48" xml:space="preserve">
<g>
	<g>
		<path d="M40.482,31.336H26.465v-1.541h14.018c3.297,0,5.977-2.684,5.977-5.978c0-3.215-2.514-5.839-5.725-5.974l-1.201-0.047
			l0.547-1.071c0.723-1.415,1.088-2.944,1.088-4.544c0-5.526-4.498-10.026-10.027-10.026c-3.199,0-6.23,1.549-8.115,4.142
			l-0.529,0.728L21.86,6.39c-1.07-1.067-2.488-1.656-3.998-1.656c-2.99,0-5.471,2.336-5.648,5.318l-0.043,0.75l-1.118-0.033
			c-5.245,0-9.513,4.267-9.513,9.512c0,5.146,4.025,9.323,9.162,9.507l0.196,0.008h10.635v1.541L9.905,31.275
			C4.294,30.703,0,26.008,0,20.28C0,14.286,4.8,9.39,10.757,9.231c0.558-3.438,3.548-6.039,7.105-6.039
			c1.631,0,3.178,0.541,4.441,1.535c2.186-2.588,5.431-4.11,8.837-4.11c6.377,0,11.566,5.188,11.566,11.564
			c0,1.477-0.271,2.902-0.807,4.252c3.498,0.662,6.1,3.716,6.1,7.384C48,27.961,44.627,31.336,40.482,31.336z"/>
	</g>
	<g>
		<polygon points="23.981,47.383 15.948,39.35 17.036,38.262 23.981,45.205 30.924,38.262 32.014,39.35 		"/>
	</g>
	<g>
		<rect x="23.209" y="16.201" width="1.541" height="29.58"/>
	</g>
</g>
</svg>
