<?xml version="1.0" encoding="utf-8"?>
<!-- Generator: Adobe Illustrator 16.0.0, SVG Export Plug-In . SVG Version: 6.00 Build 0)  -->
<!DOCTYPE svg PUBLIC "-//W3C//DTD SVG 1.1//EN" "http://www.w3.org/Graphics/SVG/1.1/DTD/svg11.dtd">
<svg version="1.1" id="Layer_1" xmlns="http://www.w3.org/2000/svg" xmlns:xlink="http://www.w3.org/1999/xlink" x="0px" y="0px"
	 width="48px" height="48px" viewBox="0 0 48 48" enable-background="new 0 0 48 48" xml:space="preserve">
<g>
	<path d="M24,48C12.18,48,2.563,38.383,2.563,26.563c0-9.437,6.049-17.662,15.052-20.467l0.595,1.909
		C10.047,10.548,4.563,18.006,4.563,26.563C4.563,37.28,13.282,46,24,46s19.438-8.72,19.438-19.438c0-9.192-6.527-17.2-15.52-19.041
		l0.4-1.959c9.92,2.03,17.119,10.862,17.119,21C45.438,38.383,35.82,48,24,48z"/>
	<rect x="23" y="1" width="2" height="18.095"/>
</g>
</svg>
