<?xml version="1.0" encoding="utf-8"?>
<!-- Generator: Adobe Illustrator 16.0.0, SVG Export Plug-In . SVG Version: 6.00 Build 0)  -->
<!DOCTYPE svg PUBLIC "-//W3C//DTD SVG 1.1//EN" "http://www.w3.org/Graphics/SVG/1.1/DTD/svg11.dtd">
<svg version="1.1" id="Layer_1" xmlns="http://www.w3.org/2000/svg" xmlns:xlink="http://www.w3.org/1999/xlink" x="0px" y="0px"
	 width="48px" height="48px" viewBox="0 0 48 48" enable-background="new 0 0 48 48" xml:space="preserve">
<g>
	<path d="M42.824,38.82H0V9.179h42.824V38.82z M2,36.82h38.824V11.179H2V36.82z"/>
	<path d="M45.299,30.527H41.32V17.472h3.979c1.489,0,2.701,1.211,2.701,2.701v7.655C48,29.316,46.788,30.527,45.299,30.527z
		 M43.32,28.527h1.979c0.387,0,0.701-0.313,0.701-0.699v-7.655c0-0.386-0.314-0.701-0.701-0.701H43.32V28.527z"/>
	<path d="M15.276,32.229H5.669V15.771h9.607V32.229z M7.669,30.229h5.607V17.771H7.669V30.229z"/>
</g>
</svg>
