<?xml version="1.0" encoding="utf-8"?>
<!-- Generator: Adobe Illustrator 16.0.0, SVG Export Plug-In . SVG Version: 6.00 Build 0)  -->
<!DOCTYPE svg PUBLIC "-//W3C//DTD SVG 1.1//EN" "http://www.w3.org/Graphics/SVG/1.1/DTD/svg11.dtd">
<svg version="1.1" id="Layer_1" xmlns="http://www.w3.org/2000/svg" xmlns:xlink="http://www.w3.org/1999/xlink" x="0px" y="0px"
	 width="48px" height="48px" viewBox="0 0 48 48" enable-background="new 0 0 48 48" xml:space="preserve">
<g>
	<path d="M34.227,47.849c-4.525,0-12.027-2.108-22.072-12.153C-6.094,17.444,1.478,7.58,1.81,7.169l0.103-0.11l8.069-7.396
		l9.939,13.365l-4.436,4.437l14.956,14.957l6.012-5.111L48.446,38.28l-7.768,7.758C40.587,46.112,38.386,47.849,34.227,47.849z
		 M3.334,8.469C2.85,9.17-2.68,18.03,13.569,34.281c9.561,9.561,16.51,11.567,20.658,11.567c3.146,0,4.904-1.159,5.168-1.347
		l6.159-6.157l-9.151-8.367l-6.072,5.164L12.656,17.466l4.628-4.629L9.699,2.636L3.334,8.469z"/>
</g>
</svg>
