<?xml version="1.0" encoding="utf-8"?>
<!-- Generator: Adobe Illustrator 16.0.0, SVG Export Plug-In . SVG Version: 6.00 Build 0)  -->
<!DOCTYPE svg PUBLIC "-//W3C//DTD SVG 1.1//EN" "http://www.w3.org/Graphics/SVG/1.1/DTD/svg11.dtd">
<svg version="1.1" id="Layer_1" xmlns="http://www.w3.org/2000/svg" xmlns:xlink="http://www.w3.org/1999/xlink" x="0px" y="0px"
	 width="48px" height="48px" viewBox="0 0 48 48" enable-background="new 0 0 48 48" xml:space="preserve">
<g>
	<path d="M24.118,31.639h-0.237c-5.717,0-10.368-4.651-10.368-10.37V10.367C13.513,4.651,18.164,0,23.881,0h0.237
		c5.717,0,10.368,4.651,10.368,10.367v10.902C34.486,26.987,29.835,31.639,24.118,31.639z M23.881,2
		c-4.614,0-8.368,3.753-8.368,8.367v10.902c0,4.615,3.754,8.37,8.368,8.37h0.237c4.614,0,8.368-3.755,8.368-8.37V10.367
		C32.486,5.753,28.732,2,24.118,2H23.881z"/>
	<path d="M24.184,37.1h-0.367c-8.42,0-15.27-6.851-15.27-15.271v-8.807c0-0.552,0.448-1,1-1s1,0.448,1,1v8.807
		c0,7.318,5.953,13.271,13.27,13.271h0.367c7.317,0,13.269-5.953,13.269-13.271v-8.807c0-0.552,0.447-1,1-1s1,0.448,1,1v8.807
		C39.453,30.249,32.604,37.1,24.184,37.1z"/>
	<path d="M24,48c-0.552,0-1-0.447-1-1V36.791c0-0.553,0.448-1,1-1c0.553,0,1,0.447,1,1V47C25,47.553,24.553,48,24,48z"/>
	<path d="M31.398,48H16.602c-0.552,0-1-0.447-1-1s0.448-1,1-1h14.796c0.553,0,1,0.447,1,1S31.951,48,31.398,48z"/>
	<g>
		<g>
			<path d="M19.79,13.173h-4.208c-0.552,0-1-0.448-1-1s0.448-1,1-1h4.208c0.552,0,1,0.448,1,1S20.342,13.173,19.79,13.173z"/>
			<path d="M19.79,20.467h-4.208c-0.552,0-1-0.448-1-1s0.448-1,1-1h4.208c0.552,0,1,0.448,1,1S20.342,20.467,19.79,20.467z"/>
		</g>
		<g>
			<path d="M32.42,13.173h-4.212c-0.553,0-1-0.448-1-1s0.447-1,1-1h4.212c0.553,0,1,0.448,1,1S32.973,13.173,32.42,13.173z"/>
			<path d="M32.42,20.467h-4.212c-0.553,0-1-0.448-1-1s0.447-1,1-1h4.212c0.553,0,1,0.448,1,1S32.973,20.467,32.42,20.467z"/>
		</g>
	</g>
</g>
</svg>
