<?xml version="1.0" encoding="utf-8"?>
<!-- Generator: Adobe Illustrator 16.0.0, SVG Export Plug-In . SVG Version: 6.00 Build 0)  -->
<!DOCTYPE svg PUBLIC "-//W3C//DTD SVG 1.1//EN" "http://www.w3.org/Graphics/SVG/1.1/DTD/svg11.dtd">
<svg version="1.1" id="Layer_1" xmlns="http://www.w3.org/2000/svg" xmlns:xlink="http://www.w3.org/1999/xlink" x="0px" y="0px"
	 width="48px" height="48px" viewBox="0 0 48 48" enable-background="new 0 0 48 48" xml:space="preserve">
<g>
	<path d="M46.293,17.032c-12.292-12.292-32.294-12.292-44.586,0l-1.414-1.414c13.071-13.072,34.342-13.072,47.414,0L46.293,17.032z"
		/>
	<path d="M38.988,24.311c-4.004-4.003-9.326-6.208-14.988-6.208c-5.661,0-10.984,2.205-14.987,6.208l-1.414-1.414
		c4.38-4.381,10.206-6.794,16.401-6.794c0,0,0,0,0,0c6.195,0,12.021,2.413,16.401,6.794L38.988,24.311z"/>
	<path d="M15.777,31.104l-1.414-1.414c2.574-2.574,5.997-3.991,9.636-3.991s7.062,1.417,9.635,3.991l-1.414,1.414
		c-2.196-2.196-5.115-3.405-8.221-3.405S17.974,28.907,15.777,31.104z"/>
	<path d="M23.999,42.202c-1.897,0-3.441-1.544-3.441-3.441s1.543-3.44,3.441-3.44s3.44,1.543,3.44,3.44S25.896,42.202,23.999,42.202
		z M23.999,37.32c-0.794,0-1.441,0.646-1.441,1.44c0,0.795,0.646,1.441,1.441,1.441c0.794,0,1.44-0.646,1.44-1.441
		C25.439,37.967,24.793,37.32,23.999,37.32z"/>
</g>
</svg>
