<?xml version="1.0" encoding="utf-8"?>
<!-- Generator: Adobe Illustrator 16.0.0, SVG Export Plug-In . SVG Version: 6.00 Build 0)  -->
<!DOCTYPE svg PUBLIC "-//W3C//DTD SVG 1.1//EN" "http://www.w3.org/Graphics/SVG/1.1/DTD/svg11.dtd">
<svg version="1.1" id="Layer_1" xmlns="http://www.w3.org/2000/svg" xmlns:xlink="http://www.w3.org/1999/xlink" x="0px" y="0px"
	 width="48px" height="48px" viewBox="0 0 48 48" enable-background="new 0 0 48 48" xml:space="preserve">
<g>
	<path d="M46.293,17.85C40.338,11.895,32.421,8.616,24,8.616c-8.421,0-16.338,3.279-22.292,9.234l-1.414-1.414
		C6.625,10.104,15.044,6.616,24,6.616c8.956,0,17.375,3.488,23.708,9.82L46.293,17.85z"/>
	<path d="M38.988,25.128c-8.263-8.263-21.709-8.264-29.975,0l-1.414-1.414c9.044-9.044,23.761-9.043,32.803,0L38.988,25.128z"/>
	<path d="M32.22,31.922c-2.196-2.196-5.115-3.405-8.221-3.405h0c-3.105,0-6.025,1.209-8.221,3.405l-1.414-1.414
		c2.574-2.574,5.996-3.991,9.635-3.991c0,0,0,0,0.001,0c3.64,0,7.062,1.417,9.635,3.991L32.22,31.922z"/>
	<path d="M24,41.799l-5.845-5.842h11.685L24,41.799z M22.986,37.957L24,38.971l1.013-1.014H22.986z"/>
</g>
</svg>
