<?xml version="1.0" encoding="utf-8"?>
<!-- Generator: Adobe Illustrator 16.0.0, SVG Export Plug-In . SVG Version: 6.00 Build 0)  -->
<!DOCTYPE svg PUBLIC "-//W3C//DTD SVG 1.1//EN" "http://www.w3.org/Graphics/SVG/1.1/DTD/svg11.dtd">
<svg version="1.1" id="Layer_1" xmlns="http://www.w3.org/2000/svg" xmlns:xlink="http://www.w3.org/1999/xlink" x="0px" y="0px"
	 width="48px" height="48px" viewBox="0 0 48 48" enable-background="new 0 0 48 48" xml:space="preserve">
<g>
	<path d="M47.697,48H0.252l0.035-19.827L7.969,0h31.725l8.003,28.436V48z M2.252,46h43.445V28.574L38.181,2H9.497L2.252,28.569V46z"
		/>
	<path d="M23.972,38.184c-5.287,0-9.587-4.303-9.587-9.592h2c0,4.187,3.404,7.592,7.587,7.592c4.186,0,7.592-3.405,7.592-7.592h2
		C33.564,33.881,29.262,38.184,23.972,38.184z"/>
	<rect x="1.252" y="27.592" width="15.099" height="2"/>
	<rect x="31.617" y="27.592" width="15.131" height="2"/>
</g>
</svg>
