<?xml version="1.0" encoding="utf-8"?>
<!-- Generator: Adobe Illustrator 16.0.0, SVG Export Plug-In . SVG Version: 6.00 Build 0)  -->
<!DOCTYPE svg PUBLIC "-//W3C//DTD SVG 1.1//EN" "http://www.w3.org/Graphics/SVG/1.1/DTD/svg11.dtd">
<svg version="1.1" id="Layer_1" xmlns="http://www.w3.org/2000/svg" xmlns:xlink="http://www.w3.org/1999/xlink" x="0px" y="0px"
	 width="48px" height="48px" viewBox="0 0 48 48" enable-background="new 0 0 48 48" xml:space="preserve">
<g>
	<path d="M24.005,31.637h-0.241c-5.716,0-10.366-4.65-10.366-10.367V10.367C13.398,4.651,18.049,0,23.765,0h0.241
		c5.717,0,10.367,4.651,10.367,10.367V21.27C34.372,26.986,29.721,31.637,24.005,31.637z M23.765,2
		c-4.614,0-8.367,3.753-8.367,8.367V21.27c0,4.614,3.753,8.367,8.366,8.367h0.241c4.613,0,8.367-3.753,8.367-8.367l0.001-10.903
		C32.373,5.753,28.619,2,24.006,2H23.765z"/>
	<path d="M24.07,37.1h-0.369c-8.418,0-15.267-6.851-15.267-15.271v-8.807c0-0.552,0.448-1,1-1s1,0.448,1,1v8.807
		c0,7.317,5.952,13.271,13.267,13.271h0.369c7.316,0,13.268-5.953,13.268-13.271v-8.807c0-0.552,0.447-1,1-1s1,0.448,1,1v8.807
		C39.338,30.249,32.488,37.1,24.07,37.1z"/>
	<path d="M23.883,48c-0.552,0-1-0.447-1-1V36.791c0-0.553,0.448-1,1-1s1,0.447,1,1V47C24.883,47.553,24.435,48,23.883,48z"/>
	<path d="M31.283,48H16.485c-0.552,0-1-0.447-1-1s0.448-1,1-1h14.798c0.553,0,1,0.447,1,1S31.836,48,31.283,48z"/>
	<g>
		<g>
			<path d="M19.673,13.172h-4.208c-0.552,0-1-0.448-1-1s0.448-1,1-1h4.208c0.552,0,1,0.448,1,1S20.225,13.172,19.673,13.172z"/>
			<path d="M19.673,20.467h-4.208c-0.552,0-1-0.448-1-1s0.448-1,1-1h4.208c0.552,0,1,0.448,1,1S20.225,20.467,19.673,20.467z"/>
		</g>
		<g>
			<path d="M32.307,13.172h-4.211c-0.553,0-1-0.448-1-1s0.447-1,1-1h4.211c0.553,0,1,0.448,1,1S32.859,13.172,32.307,13.172z"/>
			<path d="M32.307,20.467h-4.211c-0.553,0-1-0.448-1-1s0.447-1,1-1h4.211c0.553,0,1,0.448,1,1S32.859,20.467,32.307,20.467z"/>
		</g>
	</g>
	<path d="M1.268,48c-0.254,0-0.508-0.096-0.703-0.289c-0.393-0.388-0.396-1.021-0.008-1.414l45.465-46
		c0.388-0.392,1.021-0.396,1.414-0.008c0.393,0.388,0.396,1.021,0.008,1.415l-45.464,46C1.784,47.9,1.526,48,1.268,48z"/>
</g>
</svg>
