<?xml version="1.0" encoding="utf-8"?>
<!-- Generator: Adobe Illustrator 16.0.0, SVG Export Plug-In . SVG Version: 6.00 Build 0)  -->
<!DOCTYPE svg PUBLIC "-//W3C//DTD SVG 1.1//EN" "http://www.w3.org/Graphics/SVG/1.1/DTD/svg11.dtd">
<svg version="1.1" id="Layer_1" xmlns="http://www.w3.org/2000/svg" xmlns:xlink="http://www.w3.org/1999/xlink" x="0px" y="0px"
	 width="48px" height="48px" viewBox="0 0 48 48" enable-background="new 0 0 48 48" xml:space="preserve">
<g>
	<g>
		<path d="M47.697,48H0.252l0.035-19.827L7.97,0h31.726l8.001,28.436V48z M2.252,46h43.445V28.574L38.183,2H9.498L2.252,28.569V46z"
			/>
		<path d="M23.974,38.182c-5.288,0-9.589-4.302-9.589-9.59h2c0,4.185,3.405,7.59,7.589,7.59c4.185,0,7.59-3.405,7.59-7.59h2
			C33.564,33.88,29.263,38.182,23.974,38.182z"/>
		<rect x="1.252" y="27.592" width="15.101" height="2"/>
		<rect x="31.617" y="27.592" width="15.131" height="2"/>
	</g>
	<g>
		<rect x="25.711" y="5.009" transform="matrix(0.7414 0.6711 -0.6711 0.7414 16.7901 -14.1167)" width="1.999" height="19.435"/>
		<rect x="14.42" y="18.34" transform="matrix(0.7562 0.6543 -0.6543 0.7562 17.1348 -7.3108)" width="7.919" height="2"/>
	</g>
</g>
</svg>
