<?xml version="1.0" encoding="utf-8"?>
<!-- Generator: Adobe Illustrator 16.0.0, SVG Export Plug-In . SVG Version: 6.00 Build 0)  -->
<!DOCTYPE svg PUBLIC "-//W3C//DTD SVG 1.1//EN" "http://www.w3.org/Graphics/SVG/1.1/DTD/svg11.dtd">
<svg version="1.1" id="Layer_1" xmlns="http://www.w3.org/2000/svg" xmlns:xlink="http://www.w3.org/1999/xlink" x="0px" y="0px"
	 width="48px" height="48px" viewBox="0 0 48 48" enable-background="new 0 0 48 48" xml:space="preserve">
<g>
	<g>
		<path d="M47.695,48H0.252l0.035-19.827L7.971,0h31.723l8.001,28.436V48z M2.252,46h43.443V28.574L38.181,2H9.499L2.252,28.569V46z
			"/>
		<path d="M23.974,38.182c-5.288,0-9.589-4.302-9.589-9.59h2c0,4.185,3.405,7.59,7.589,7.59c4.184,0,7.588-3.405,7.588-7.59h2
			C33.563,33.88,29.261,38.182,23.974,38.182z"/>
		<rect x="1.252" y="27.592" width="15.101" height="2"/>
		<rect x="31.618" y="27.592" width="15.129" height="2"/>
	</g>
	<g>
		<rect x="15.894" y="13.835" width="16.209" height="2"/>
		<rect x="23" y="6.729" width="2" height="16.211"/>
	</g>
</g>
</svg>
