<?xml version="1.0" encoding="utf-8"?>
<!-- Generator: Adobe Illustrator 16.0.0, SVG Export Plug-In . SVG Version: 6.00 Build 0)  -->
<!DOCTYPE svg PUBLIC "-//W3C//DTD SVG 1.1//EN" "http://www.w3.org/Graphics/SVG/1.1/DTD/svg11.dtd">
<svg version="1.1" id="Layer_1" xmlns="http://www.w3.org/2000/svg" xmlns:xlink="http://www.w3.org/1999/xlink" x="0px" y="0px"
	 width="48px" height="48px" viewBox="0 0 48 48" enable-background="new 0 0 48 48" xml:space="preserve">
<g>
	<path d="M42.561,47.295H5.444v-1l-0.002,1c-1.454,0-2.821-0.566-3.849-1.594S0,43.307,0,41.854V15.686L24,0.521l24,15.165v26.168
		C48,44.854,45.56,47.295,42.561,47.295z M2,16.788v25.065c0,0.919,0.358,1.783,1.007,2.434c0.65,0.649,1.515,1.008,2.435,1.008
		h37.119c1.896,0,3.439-1.544,3.439-3.441V16.788L24,2.887L2,16.788z"/>
	<polygon points="22.991,34.617 0.386,17.026 1.614,15.448 23.042,32.123 46.419,15.423 47.581,17.05 	"/>
</g>
</svg>
