<?xml version="1.0" encoding="utf-8"?>
<!-- Generator: Adobe Illustrator 16.0.0, SVG Export Plug-In . SVG Version: 6.00 Build 0)  -->
<!DOCTYPE svg PUBLIC "-//W3C//DTD SVG 1.1//EN" "http://www.w3.org/Graphics/SVG/1.1/DTD/svg11.dtd">
<svg version="1.1" id="Layer_1" xmlns="http://www.w3.org/2000/svg" xmlns:xlink="http://www.w3.org/1999/xlink" x="0px" y="0px"
	 width="48px" height="48px" viewBox="0 0 48 48" enable-background="new 0 0 48 48" xml:space="preserve">
<g>
	<g>
		<rect x="32.939" y="34.1" width="14.061" height="2"/>
		<rect x="38.971" y="28.068" width="2" height="14.062"/>
	</g>
	<path d="M27.357,36.1H4.764C2.137,36.1,0,33.963,0,31.337V9.633C0,7.007,2.137,4.87,4.764,4.87h31.443
		c2.627,0,4.764,2.137,4.764,4.763v12.04h-2V9.633c0-1.523-1.24-2.763-2.764-2.763H4.764C3.24,6.87,2,8.109,2,9.633v21.704
		C2,32.86,3.24,34.1,4.764,34.1h22.593V36.1z"/>
	<polygon points="19.646,21.772 1.982,7.322 3.249,5.774 19.654,19.195 37.14,5.092 38.396,6.648 	"/>
</g>
</svg>
