<?xml version="1.0" encoding="utf-8"?>
<!-- Generator: Adobe Illustrator 16.0.0, SVG Export Plug-In . SVG Version: 6.00 Build 0)  -->
<!DOCTYPE svg PUBLIC "-//W3C//DTD SVG 1.1//EN" "http://www.w3.org/Graphics/SVG/1.1/DTD/svg11.dtd">
<svg version="1.1" id="Layer_1" xmlns="http://www.w3.org/2000/svg" xmlns:xlink="http://www.w3.org/1999/xlink" x="0px" y="0px"
	 width="48px" height="48px" viewBox="0 0 48 48" enable-background="new 0 0 48 48" xml:space="preserve">
<g>
	<path d="M43.251,36.729H4.748c-1.507,0-2.733-1.228-2.733-2.735V2.734C2.015,1.227,3.241,0,4.748,0h38.503
		c1.507,0,2.733,1.227,2.733,2.734v31.259C45.984,35.501,44.758,36.729,43.251,36.729z M4.748,2C4.344,2,4.015,2.329,4.015,2.734
		v31.259c0,0.405,0.329,0.735,0.733,0.735h38.503c0.404,0,0.733-0.33,0.733-0.735V2.734C43.984,2.329,43.655,2,43.251,2H4.748z"/>
	<path d="M43.251,48H4.748c-1.507,0-2.733-1.227-2.733-2.734V31.35h2v13.916C4.015,45.671,4.344,46,4.748,46h38.503
		c0.404,0,0.733-0.329,0.733-0.734V31.35h2v13.916C45.984,46.773,44.758,48,43.251,48z"/>
	<polygon points="7.774,36.431 6.35,35.026 22.408,18.745 29.434,25.984 36.396,18.806 45.632,26.658 44.337,28.182 36.527,21.543 
		29.434,28.855 22.396,21.604 	"/>
	<path d="M13.027,18.377c-2.783,0-5.048-2.265-5.048-5.048s2.265-5.048,5.048-5.048c2.784,0,5.048,2.265,5.048,5.048
		S15.811,18.377,13.027,18.377z M13.027,10.281c-1.681,0-3.048,1.367-3.048,3.048s1.367,3.048,3.048,3.048s3.048-1.367,3.048-3.048
		S14.708,10.281,13.027,10.281z"/>
</g>
</svg>
