<?xml version="1.0" encoding="utf-8"?>
<!-- Generator: Adobe Illustrator 16.0.0, SVG Export Plug-In . SVG Version: 6.00 Build 0)  -->
<!DOCTYPE svg PUBLIC "-//W3C//DTD SVG 1.1//EN" "http://www.w3.org/Graphics/SVG/1.1/DTD/svg11.dtd">
<svg version="1.1" id="Layer_1" xmlns="http://www.w3.org/2000/svg" xmlns:xlink="http://www.w3.org/1999/xlink" x="0px" y="0px"
	 width="48px" height="48px" viewBox="0 0 48 48" enable-background="new 0 0 48 48" xml:space="preserve">
<g>
	<path d="M45.381,41.207H2.618C1.174,41.207,0,40.032,0,38.588V9.412c0-1.444,1.174-2.619,2.618-2.619h42.763
		c0.699,0,1.356,0.272,1.852,0.767S48,8.712,48,9.412v29.176C48,40.032,46.825,41.207,45.381,41.207z M2.618,8.793
		C2.277,8.793,2,9.071,2,9.412v29.176c0,0.342,0.277,0.619,0.618,0.619h42.763c0.342,0,0.619-0.277,0.619-0.619V9.412
		c0-0.341-0.277-0.619-0.617-0.619H2.618z"/>
	<path d="M13.076,20.666c-2.635,0-4.778-2.144-4.778-4.778c0-2.635,2.144-4.778,4.778-4.778c2.634,0,4.778,2.144,4.778,4.778
		C17.854,18.522,15.71,20.666,13.076,20.666z M13.076,13.11c-1.532,0-2.778,1.247-2.778,2.778s1.247,2.778,2.778,2.778
		s2.778-1.246,2.778-2.778S14.608,13.11,13.076,13.11z"/>
	<polygon points="1.716,36.776 0.284,35.38 13.069,22.262 25.558,34.849 24.138,36.257 13.082,25.114 	"/>
	<polygon points="46.257,34.514 30.897,17.478 18.727,30.038 17.291,28.646 30.95,14.549 47.743,33.174 	"/>
</g>
</svg>
