<?xml version="1.0" encoding="utf-8"?>
<!-- Generator: Adobe Illustrator 16.0.0, SVG Export Plug-In . SVG Version: 6.00 Build 0)  -->
<!DOCTYPE svg PUBLIC "-//W3C//DTD SVG 1.1//EN" "http://www.w3.org/Graphics/SVG/1.1/DTD/svg11.dtd">
<svg version="1.1" id="Layer_1" xmlns="http://www.w3.org/2000/svg" xmlns:xlink="http://www.w3.org/1999/xlink" x="0px" y="0px"
	 width="48px" height="48px" viewBox="0 0 48 48" enable-background="new 0 0 48 48" xml:space="preserve">
<g>
	<path d="M46.113,47.777H1.886C0.844,47.773,0,46.927,0,45.891V6.58C0,5.54,0.846,4.693,1.886,4.693h7.382v2H2v39.084h44V6.692
		h-7.299v-2h7.412C47.153,4.692,48,5.539,48,6.58v39.311C48,46.931,47.153,47.777,46.113,47.777z"/>
	<rect x="1" y="17.333" width="46" height="2"/>
	<g>
		<path d="M15.907,10.717h-4.941c-1,0-1.783-0.701-1.783-1.595V1.82c0-0.895,0.783-1.596,1.783-1.596h4.941
			c0.982,0,1.782,0.716,1.782,1.596v7.302C17.689,10.016,16.906,10.717,15.907,10.717z M11.183,8.717h4.506V2.224h-4.506V8.717z"/>
		<path d="M37.033,10.717h-4.941c-0.999,0-1.781-0.701-1.781-1.595V1.82c0-0.895,0.782-1.596,1.781-1.596h4.941
			c0.982,0,1.781,0.716,1.781,1.596v7.302C38.814,10.016,38.032,10.717,37.033,10.717z M32.311,8.717h4.504V2.224h-4.504V8.717z"/>
	</g>
	<rect x="17.582" y="4.691" width="12.857" height="2"/>
</g>
</svg>
