<?xml version="1.0" encoding="utf-8"?>
<!-- Generator: Adobe Illustrator 16.0.0, SVG Export Plug-In . SVG Version: 6.00 Build 0)  -->
<!DOCTYPE svg PUBLIC "-//W3C//DTD SVG 1.1//EN" "http://www.w3.org/Graphics/SVG/1.1/DTD/svg11.dtd">
<svg version="1.1" id="Layer_1" xmlns="http://www.w3.org/2000/svg" xmlns:xlink="http://www.w3.org/1999/xlink" x="0px" y="0px"
	 width="48px" height="48px" viewBox="0 0 48 48" enable-background="new 0 0 48 48" xml:space="preserve">
<g>
	<path d="M46.332,48.001H1.67c-1.045,0-1.896-0.851-1.896-1.896V6.408c0-1.045,0.851-1.896,1.896-1.896h7.455v2H1.774v39.489h44.453
		V6.513h-7.381v-2h7.486c1.045,0,1.895,0.851,1.895,1.896v39.696C48.227,47.15,47.377,48.001,46.332,48.001z"/>
	<rect x="0.773" y="17.278" width="46.454" height="2"/>
	<g>
		<path d="M15.828,10.578h-4.99c-1.004,0-1.79-0.704-1.79-1.602V1.602C9.048,0.719,9.851,0,10.838,0h4.99
			c0.988,0,1.792,0.719,1.792,1.602v7.374C17.62,9.875,16.833,10.578,15.828,10.578z M11.048,8.578l4.572,0V2l-4.572,0V8.578z"/>
		<path d="M37.162,10.578h-4.99c-1.004,0-1.79-0.704-1.79-1.602V1.602c0-0.898,0.786-1.602,1.79-1.602h4.99
			c1.005,0,1.792,0.704,1.792,1.602v7.374C38.954,9.875,38.167,10.578,37.162,10.578z M32.382,8.578l4.572,0V2l-4.572,0V8.578z"/>
	</g>
	<rect x="17.52" y="4.512" width="12.986" height="2"/>
	<g>
		<rect x="14.622" y="34.119" transform="matrix(0.7318 0.6816 -0.6816 0.7318 29.0016 -3.4521)" width="8.528" height="2"/>
		<rect x="25.159" y="24.985" transform="matrix(0.7071 0.7071 -0.7071 0.7071 30.7305 -8.942)" width="2" height="15.277"/>
	</g>
</g>
</svg>
