<?xml version="1.0" encoding="utf-8"?>
<!-- Generator: Adobe Illustrator 16.0.0, SVG Export Plug-In . SVG Version: 6.00 Build 0)  -->
<!DOCTYPE svg PUBLIC "-//W3C//DTD SVG 1.1//EN" "http://www.w3.org/Graphics/SVG/1.1/DTD/svg11.dtd">
<svg version="1.1" id="Layer_1" xmlns="http://www.w3.org/2000/svg" xmlns:xlink="http://www.w3.org/1999/xlink" x="0px" y="0px"
	 width="48px" height="48px" viewBox="0 0 48 48" enable-background="new 0 0 48 48" xml:space="preserve">
<g>
	<path d="M47,37.895c-0.553,0-1-0.447-1-1V26.059C46,12.792,36.131,2,24,2S2,12.792,2,26.059v10.836c0,0.553-0.448,1-1,1
		s-1-0.447-1-1V26.059C0,11.69,10.767,0,24,0s24,11.69,24,26.059v10.836C48,37.447,47.553,37.895,47,37.895z"/>
	<g>
		<path d="M8.57,48C3.844,48,0,43.362,0,37.662c0-5.701,3.844-10.34,8.57-10.34c0.929,0,1.857,0.203,2.837,0.621
			c0.369,0.157,0.608,0.52,0.608,0.92v17.596c0,0.402-0.241,0.765-0.611,0.921C10.416,47.797,9.489,48,8.57,48z M8.57,29.322
			c-3.623,0-6.57,3.741-6.57,8.34C2,42.26,4.947,46,8.57,46c0.463,0,0.94-0.078,1.445-0.236V29.557
			C9.515,29.399,9.038,29.322,8.57,29.322z"/>
		<path d="M39.434,48c-0.925,0-1.853-0.203-2.836-0.62c-0.369-0.157-0.609-0.52-0.609-0.921V28.863c0-0.4,0.238-0.762,0.606-0.919
			c0.977-0.419,1.905-0.622,2.839-0.622c4.724,0,8.566,4.639,8.566,10.34C48,43.362,44.157,48,39.434,48z M37.988,45.765
			C38.49,45.923,38.968,46,39.434,46C43.055,46,46,42.26,46,37.662c0-4.599-2.945-8.34-6.566-8.34c-0.47,0-0.947,0.077-1.445,0.234
			V45.765z"/>
	</g>
</g>
</svg>
