<?xml version="1.0" encoding="utf-8"?>
<!-- Generator: Adobe Illustrator 16.0.0, SVG Export Plug-In . SVG Version: 6.00 Build 0)  -->
<!DOCTYPE svg PUBLIC "-//W3C//DTD SVG 1.1//EN" "http://www.w3.org/Graphics/SVG/1.1/DTD/svg11.dtd">
<svg version="1.1" id="Layer_1" xmlns="http://www.w3.org/2000/svg" xmlns:xlink="http://www.w3.org/1999/xlink" x="0px" y="0px"
	 width="48px" height="48px" viewBox="0 0 48 48" enable-background="new 0 0 48 48" xml:space="preserve">
<g>
	<path d="M20.776,40.535H2.059c-0.964,0-1.749-0.785-1.749-1.75V5.531c0-0.965,0.785-1.75,1.749-1.75h6.246v2H2.31v32.754h18.466
		V40.535z"/>
	<path d="M41.223,22.969h-2V5.781h-6.021v-2h6.272c0.964,0,1.748,0.785,1.748,1.75V22.969z"/>
	<rect x="1.31" y="14.474" width="38.915" height="2"/>
	<g>
		<path d="M13.922,9.184H9.74c-0.933,0-1.663-0.66-1.663-1.503V1.504C8.08,0.659,8.811,0,9.74,0h4.181
			c0.916,0,1.661,0.675,1.661,1.504v6.177c0.001,0.373-0.149,0.733-0.425,1.009C14.844,9.004,14.394,9.184,13.922,9.184z
			 M10.077,7.184h3.506L13.582,2h-3.505V7.184z"/>
		<path d="M31.793,9.184h-4.182c-0.931,0-1.66-0.66-1.66-1.503V1.504c0-0.843,0.729-1.504,1.66-1.504h4.182
			c0.917,0,1.663,0.675,1.663,1.504v6.177C33.456,8.524,32.726,9.184,31.793,9.184z M27.951,7.184h3.505V2h-3.505V7.184z"/>
	</g>
	<rect x="15.338" y="3.78" width="10.877" height="2"/>
	<path d="M32.704,42.671c-5.112,0-9.271-4.159-9.271-9.271c0-5.112,4.159-9.271,9.271-9.271c5.111,0,9.271,4.159,9.271,9.271
		C41.975,38.512,37.815,42.671,32.704,42.671z M32.704,26.129c-4.009,0-7.271,3.262-7.271,7.271c0,4.009,3.263,7.271,7.271,7.271
		s7.271-3.262,7.271-7.271C39.975,29.391,36.713,26.129,32.704,26.129z"/>
	<rect x="37.68" y="42.268" transform="matrix(0.707 0.7072 -0.7072 0.707 43.1849 -17.7031)" width="10.556" height="2"/>
</g>
</svg>
