<?xml version="1.0" encoding="utf-8"?>
<!-- Generator: Adobe Illustrator 16.0.0, SVG Export Plug-In . SVG Version: 6.00 Build 0)  -->
<!DOCTYPE svg PUBLIC "-//W3C//DTD SVG 1.1//EN" "http://www.w3.org/Graphics/SVG/1.1/DTD/svg11.dtd">
<svg version="1.1" id="Layer_1" xmlns="http://www.w3.org/2000/svg" xmlns:xlink="http://www.w3.org/1999/xlink" x="0px" y="0px"
	 width="48px" height="48px" viewBox="0 0 48 48" enable-background="new 0 0 48 48" xml:space="preserve">
<g>
	<path d="M20.218,39.087H2.205c-0.95,0-1.722-0.772-1.722-1.722V5.36c0-0.949,0.772-1.722,1.722-1.722h6.011v2H2.483v31.449h17.735
		V39.087z"/>
	<path d="M39.934,22.143h-2V5.638h-5.758v-2h6.035c0.95,0,1.723,0.772,1.723,1.722V22.143z"/>
	<rect x="1.483" y="13.93" width="37.451" height="2"/>
	<g>
		<path d="M13.619,8.914H9.597c-0.918,0-1.637-0.652-1.637-1.484V1.486C7.96,0.653,8.679,0,9.597,0h4.023
			c0.918,0,1.638,0.653,1.638,1.486V7.43C15.255,8.264,14.535,8.914,13.619,8.914z M9.96,6.914h3.297L13.258,2H9.96V6.914z"/>
		<path d="M30.82,8.914h-4.023c-0.918,0-1.638-0.652-1.638-1.484V1.486c0-0.833,0.72-1.486,1.638-1.486h4.023
			c0.902,0,1.636,0.667,1.636,1.486V7.43C32.456,8.262,31.737,8.914,30.82,8.914z M27.159,6.914h3.297V2h-3.297V6.914z"/>
	</g>
	<rect x="14.983" y="3.638" width="10.47" height="2"/>
	<path d="M35.128,48.001c-6.832,0-12.39-5.558-12.39-12.39s5.558-12.39,12.39-12.39s12.39,5.558,12.39,12.39
		S41.96,48.001,35.128,48.001z M35.128,25.221c-5.729,0-10.391,4.661-10.391,10.391c0,5.729,4.661,10.39,10.391,10.39
		c5.729,0,10.39-4.661,10.39-10.39C45.518,29.882,40.856,25.221,35.128,25.221z"/>
	<rect x="34.127" y="30.93" width="2" height="7.236"/>
	<rect x="34.408" y="36.443" width="7.238" height="2"/>
</g>
</svg>
