<?xml version="1.0" encoding="utf-8"?>
<!-- Generator: Adobe Illustrator 16.0.0, SVG Export Plug-In . SVG Version: 6.00 Build 0)  -->
<!DOCTYPE svg PUBLIC "-//W3C//DTD SVG 1.1//EN" "http://www.w3.org/Graphics/SVG/1.1/DTD/svg11.dtd">
<svg version="1.1" id="Layer_1" xmlns="http://www.w3.org/2000/svg" xmlns:xlink="http://www.w3.org/1999/xlink" x="0px" y="0px"
	 width="48px" height="48px" viewBox="0 0 48 48" enable-background="new 0 0 48 48" xml:space="preserve">
<g>
	<g>
		<path d="M46.113,47.777H1.886C0.846,47.777,0,46.931,0,45.891V6.579c0-1.041,0.846-1.887,1.886-1.887h7.383v2H2v39.085h44V6.692
			h-7.299v-2h7.412c1.04,0,1.887,0.847,1.887,1.887v39.312C48,46.931,47.153,47.777,46.113,47.777z"/>
		<rect x="1" y="17.333" width="46" height="2"/>
		<g>
			<path d="M15.908,10.717h-4.941c-1,0-1.783-0.701-1.783-1.596V1.819c0-0.895,0.783-1.596,1.783-1.596h4.941
				c0.982,0,1.782,0.716,1.782,1.596v7.302C17.69,10.016,16.907,10.717,15.908,10.717z M11.184,8.717h4.506V2.223h-4.506V8.717z"/>
			<path d="M37.034,10.717h-4.941c-1,0-1.784-0.701-1.784-1.596V1.819c0-0.88,0.801-1.596,1.784-1.596h4.941
				c0.982,0,1.782,0.716,1.782,1.596v7.302C38.816,10.001,38.017,10.717,37.034,10.717z M32.309,8.717h4.508V2.223h-4.508V8.717z"/>
		</g>
		<rect x="17.583" y="4.691" width="12.858" height="2"/>
	</g>
	<g>
		<path d="M16.115,37.729v-0.91l1.162-1.131c2.799-2.66,4.063-4.076,4.08-5.729c0-1.113-0.54-2.141-2.174-2.141
			c-0.996,0-1.82,0.504-2.327,0.927L16.384,27.7c0.758-0.642,1.837-1.112,3.101-1.112c2.36,0,3.355,1.618,3.355,3.186
			c0,2.022-1.466,3.658-3.775,5.883l-0.877,0.811V36.5h4.923v1.23h-6.996V37.729z"/>
		<path d="M27.979,28.154h-0.033l-1.905,1.027l-0.287-1.129l2.396-1.279h1.265v10.955h-1.435V28.154L27.979,28.154z"/>
	</g>
</g>
</svg>
