<?xml version="1.0" encoding="utf-8"?>
<!-- Generator: Adobe Illustrator 16.0.0, SVG Export Plug-In . SVG Version: 6.00 Build 0)  -->
<!DOCTYPE svg PUBLIC "-//W3C//DTD SVG 1.1//EN" "http://www.w3.org/Graphics/SVG/1.1/DTD/svg11.dtd">
<svg version="1.1" id="Layer_1" xmlns="http://www.w3.org/2000/svg" xmlns:xlink="http://www.w3.org/1999/xlink" x="0px" y="0px"
	 width="48px" height="48px" viewBox="0 0 48 48" enable-background="new 0 0 48 48" xml:space="preserve">
<g>
	<path d="M24,48.002c-13.233,0-24-10.767-24-24s10.767-24,24-24s24,10.767,24,24S37.233,48.002,24,48.002z M24,2.002
		c-12.131,0-22,9.869-22,22s9.869,22,22,22s22-9.869,22-22S36.131,2.002,24,2.002z"/>
	<rect x="23.048" y="13.215" transform="matrix(0.7071 0.7071 -0.7071 0.7071 23.694 -10.1075)" width="2" height="20.664"/>
	<rect x="13.333" y="22.668" transform="matrix(0.7071 0.7071 -0.7071 0.7071 23.8146 -10.1559)" width="21.667" height="2"/>
</g>
</svg>
