<?xml version="1.0" encoding="utf-8"?>
<!-- Generator: Adobe Illustrator 16.0.0, SVG Export Plug-In . SVG Version: 6.00 Build 0)  -->
<!DOCTYPE svg PUBLIC "-//W3C//DTD SVG 1.1//EN" "http://www.w3.org/Graphics/SVG/1.1/DTD/svg11.dtd">
<svg version="1.1" id="Layer_1" xmlns="http://www.w3.org/2000/svg" xmlns:xlink="http://www.w3.org/1999/xlink" x="0px" y="0px"
	 width="48px" height="48px" viewBox="0 0 48 48" enable-background="new 0 0 48 48" xml:space="preserve">
<g>
	<path d="M10.237,34.236C4.592,34.236,0,29.644,0,23.999c0-5.644,4.592-10.235,10.236-10.235c5.644,0,10.235,4.591,10.235,10.235
		C20.471,29.644,15.88,34.236,10.237,34.236z M10.236,15.764C5.695,15.764,2,19.458,2,23.999c0,4.542,3.695,8.237,8.237,8.237
		c4.541,0,8.234-3.695,8.234-8.237C18.471,19.458,14.777,15.764,10.236,15.764z"/>
	<path d="M37.766,34.236c-5.646,0-10.238-4.593-10.238-10.237c0-5.644,4.593-10.235,10.238-10.235
		C43.409,13.764,48,18.355,48,23.999C48,29.644,43.409,34.236,37.766,34.236z M37.766,15.764c-4.543,0-8.238,3.694-8.238,8.235
		c0,4.542,3.695,8.237,8.238,8.237c4.54,0,8.234-3.695,8.234-8.237C46,19.458,42.306,15.764,37.766,15.764z"/>
	<rect x="10.236" y="32.236" width="26.833" height="2"/>
</g>
</svg>
