<?xml version="1.0" encoding="utf-8"?>
<!-- Generator: Adobe Illustrator 16.0.0, SVG Export Plug-In . SVG Version: 6.00 Build 0)  -->
<!DOCTYPE svg PUBLIC "-//W3C//DTD SVG 1.1//EN" "http://www.w3.org/Graphics/SVG/1.1/DTD/svg11.dtd">
<svg version="1.1" id="Layer_1" xmlns="http://www.w3.org/2000/svg" xmlns:xlink="http://www.w3.org/1999/xlink" x="0px" y="0px"
	 width="48px" height="48px" viewBox="0 0 48 48" enable-background="new 0 0 48 48" xml:space="preserve">
<g>
	<g>
		<polygon points="24.002,22.283 24.079,22.207 35.396,33.524 33.982,34.938 25.162,26.298 25.162,47.755 23.163,47.755 
			23.163,26.298 14.016,34.933 12.602,33.519 23.92,22.2 		"/>
	</g>
	<path d="M1.001,47.755h18.164v-2H2.001V2.246h43.997v43.509H28.834v2h18.164c0.553,0,1.002-0.449,1.002-1V1.245
		c0-0.553-0.449-1-1.002-1H1.001C0.448,0.245,0,0.692,0,1.245v45.51C0,47.306,0.448,47.755,1.001,47.755z"/>
</g>
</svg>
