<?xml version="1.0" encoding="utf-8"?>
<!-- Generator: Adobe Illustrator 16.0.0, SVG Export Plug-In . SVG Version: 6.00 Build 0)  -->
<!DOCTYPE svg PUBLIC "-//W3C//DTD SVG 1.1//EN" "http://www.w3.org/Graphics/SVG/1.1/DTD/svg11.dtd">
<svg version="1.1" id="Layer_1" xmlns="http://www.w3.org/2000/svg" xmlns:xlink="http://www.w3.org/1999/xlink" x="0px" y="0px"
	 width="48px" height="48px" viewBox="0 0 48 48" enable-background="new 0 0 48 48" xml:space="preserve">
<g>
	<g>
		<rect x="26.128" y="26.311" transform="matrix(0.7319 0.6814 -0.6814 0.7319 27.025 -14.0625)" width="10.509" height="2"/>
		<rect x="39.344" y="14.825" transform="matrix(0.7071 0.7071 -0.7071 0.7071 28.9548 -21.4284)" width="2" height="18.825"/>
	</g>
	<path d="M34.126,46.239H4.311C1.934,46.239,0,44.306,0,41.93V6.071C0,3.694,1.934,1.76,4.311,1.76h29.815
		c2.376,0,4.31,1.934,4.31,4.311v5.586h-2V6.071c0-1.274-1.036-2.311-2.31-2.311H4.311C3.037,3.76,2,4.796,2,6.071V41.93
		c0,1.273,1.037,2.31,2.311,2.31h29.815c1.273,0,2.31-1.037,2.31-2.312V39.65h2v2.277C38.436,44.305,36.502,46.239,34.126,46.239z"
		/>
</g>
</svg>
