<?xml version="1.0" encoding="utf-8"?>
<!-- Generator: Adobe Illustrator 16.0.0, SVG Export Plug-In . SVG Version: 6.00 Build 0)  -->
<!DOCTYPE svg PUBLIC "-//W3C//DTD SVG 1.1//EN" "http://www.w3.org/Graphics/SVG/1.1/DTD/svg11.dtd">
<svg version="1.1" id="Layer_1" xmlns="http://www.w3.org/2000/svg" xmlns:xlink="http://www.w3.org/1999/xlink" x="0px" y="0px"
	 width="48px" height="48px" viewBox="0 0 48 48" enable-background="new 0 0 48 48" xml:space="preserve">
<g>
	<g>
		<path d="M46,39.551H2c-1.103,0-2-0.897-2-2V10.449c0-1.103,0.897-2,2-2h44c1.103,0,2,0.897,2,2v27.102
			C48,38.653,47.103,39.551,46,39.551z M46,37.551v1V37.551L46,37.551L46,37.551z M2,10.449v27.102h43.997L46,10.449H2z"/>
	</g>
	<g>
		<path d="M12.933,26.251c-2.799,0-5.076-2.279-5.076-5.08c0-2.799,2.277-5.076,5.076-5.076c2.802,0,5.082,2.277,5.082,5.076
			C18.015,23.972,15.735,26.251,12.933,26.251z M12.933,18.095c-1.696,0-3.076,1.38-3.076,3.076c0,1.698,1.38,3.08,3.076,3.08
			c1.699,0,3.082-1.382,3.082-3.08C16.015,19.475,14.632,18.095,12.933,18.095z"/>
		<path d="M35.063,26.251c-2.799,0-5.076-2.279-5.076-5.08c0-2.799,2.277-5.076,5.076-5.076c2.8,0,5.078,2.277,5.078,5.076
			C40.141,23.972,37.862,26.251,35.063,26.251z M35.063,18.095c-1.696,0-3.076,1.38-3.076,3.076c0,1.698,1.38,3.08,3.076,3.08
			c1.697,0,3.078-1.382,3.078-3.08C38.141,19.475,36.76,18.095,35.063,18.095z"/>
	</g>
	<path d="M10.36,38.539c-0.169,0-0.34-0.043-0.498-0.133c-0.479-0.275-0.644-0.887-0.368-1.366l3.337-5.803
		c0.178-0.31,0.509-0.501,0.867-0.501H33.83c0.337,0,0.651,0.17,0.836,0.451l3.809,5.803c0.303,0.462,0.175,1.082-0.287,1.385
		c-0.459,0.304-1.081,0.175-1.385-0.287l-3.513-5.352H14.277l-3.049,5.302C11.042,38.359,10.706,38.539,10.36,38.539z"/>
</g>
</svg>
