<?xml version="1.0" encoding="utf-8"?>
<!-- Generator: Adobe Illustrator 16.0.0, SVG Export Plug-In . SVG Version: 6.00 Build 0)  -->
<!DOCTYPE svg PUBLIC "-//W3C//DTD SVG 1.1//EN" "http://www.w3.org/Graphics/SVG/1.1/DTD/svg11.dtd">
<svg version="1.1" id="Layer_1" xmlns="http://www.w3.org/2000/svg" xmlns:xlink="http://www.w3.org/1999/xlink" x="0px" y="0px"
	 width="48px" height="48px" viewBox="0 0 48 48" enable-background="new 0 0 48 48" xml:space="preserve">
<g>
	<g>
		<rect x="17.242" y="8.544" width="30.758" height="2"/>
	</g>
	<g>
		<rect x="17.242" y="18.214" width="30.758" height="2"/>
	</g>
	<g>
		<rect x="17.242" y="27.884" width="30.758" height="2"/>
	</g>
	<g>
		<rect x="17.242" y="37.552" width="30.758" height="2"/>
	</g>
	<g>
		<path d="M6.057,10.267c2.236,0,4.055,1.819,4.055,4.055c0,2.236-1.819,4.056-4.055,4.056C3.82,18.377,2,16.558,2,14.321
			C2,12.085,3.82,10.267,6.057,10.267 M6.057,8.267C2.713,8.267,0,10.978,0,14.321c0,3.345,2.713,6.056,6.057,6.056
			c3.344,0,6.055-2.711,6.055-6.056C12.111,10.978,9.4,8.267,6.057,8.267L6.057,8.267z"/>
	</g>
	<g>
		<path d="M6.057,29.622c2.236,0,4.055,1.819,4.055,4.058c0,2.234-1.819,4.055-4.055,4.055C3.82,37.732,2,35.914,2,33.68
			C2,31.441,3.82,29.622,6.057,29.622 M6.057,27.622C2.713,27.622,0,30.335,0,33.68c0,3.344,2.713,6.055,6.057,6.055
			c3.344,0,6.055-2.711,6.055-6.055C12.112,30.335,9.4,27.622,6.057,27.622L6.057,27.622z"/>
	</g>
</g>
</svg>
