<?xml version="1.0" encoding="utf-8"?>
<!-- Generator: Adobe Illustrator 16.0.0, SVG Export Plug-In . SVG Version: 6.00 Build 0)  -->
<!DOCTYPE svg PUBLIC "-//W3C//DTD SVG 1.1//EN" "http://www.w3.org/Graphics/SVG/1.1/DTD/svg11.dtd">
<svg version="1.1" id="Layer_1" xmlns="http://www.w3.org/2000/svg" xmlns:xlink="http://www.w3.org/1999/xlink" x="0px" y="0px"
	 width="48px" height="48px" viewBox="0 0 48 48" enable-background="new 0 0 48 48" xml:space="preserve">
<g>
	<path d="M33.771,45.042H0V29.127l1.51,0.895c1.088,0.645,2.321,0.985,3.566,0.985c3.862,0,7.004-3.144,7.004-7.007
		c0-3.861-3.142-7.003-7.004-7.003c-1.248,0-2.481,0.34-3.566,0.983L0,18.875V2.958h33.771v13.71
		c1.508-1.079,3.323-1.671,5.225-1.671C43.961,14.997,48,19.036,48,24c0,2.405-0.937,4.667-2.636,6.368
		c-1.7,1.701-3.961,2.638-6.366,2.638l0,0c-1.902,0-3.719-0.593-5.227-1.672V45.042z M2,43.042h29.771V26.194l1.778,2.203
		c1.338,1.657,3.323,2.608,5.446,2.608c1.872,0,3.631-0.729,4.953-2.052S46,25.872,46,24c0-3.861-3.142-7.003-7.004-7.003
		c-2.123,0-4.108,0.95-5.447,2.606l-1.777,2.2V4.958H2v10.585c0.984-0.36,2.026-0.546,3.076-0.546c4.965,0,9.004,4.039,9.004,9.003
		c0,4.967-4.039,9.007-9.004,9.007c-1.049,0-2.09-0.188-3.076-0.548V43.042z"/>
</g>
</svg>
