<?xml version="1.0" encoding="utf-8"?>
<!-- Generator: Adobe Illustrator 16.0.0, SVG Export Plug-In . SVG Version: 6.00 Build 0)  -->
<!DOCTYPE svg PUBLIC "-//W3C//DTD SVG 1.1//EN" "http://www.w3.org/Graphics/SVG/1.1/DTD/svg11.dtd">
<svg version="1.1" id="Layer_1" xmlns="http://www.w3.org/2000/svg" xmlns:xlink="http://www.w3.org/1999/xlink" x="0px" y="0px"
	 width="48px" height="48px" viewBox="0 0 48 48" enable-background="new 0 0 48 48" xml:space="preserve">
<g>
	<path d="M24,41.55c-9.597,0-17.405-7.808-17.405-17.405S14.403,6.74,24,6.74c9.597,0,17.404,7.808,17.404,17.405
		S33.597,41.55,24,41.55z M24,8.74c-8.494,0-15.405,6.911-15.405,15.405C8.595,32.64,15.506,39.55,24,39.55
		s15.404-6.91,15.404-15.405C39.404,15.651,32.494,8.74,24,8.74z"/>
	<rect x="23.001" width="2" height="15.715"/>
	<rect x="23.001" y="32.285" width="2" height="15.715"/>
	<rect x="32.284" y="23" width="15.715" height="2"/>
	<rect x="0.001" y="23" width="15.715" height="2"/>
</g>
</svg>
