<?xml version="1.0" encoding="utf-8"?>
<!-- Generator: Adobe Illustrator 16.0.0, SVG Export Plug-In . SVG Version: 6.00 Build 0)  -->
<!DOCTYPE svg PUBLIC "-//W3C//DTD SVG 1.1//EN" "http://www.w3.org/Graphics/SVG/1.1/DTD/svg11.dtd">
<svg version="1.1" id="Layer_1" xmlns="http://www.w3.org/2000/svg" xmlns:xlink="http://www.w3.org/1999/xlink" x="0px" y="0px"
	 width="48px" height="48px" viewBox="0 0 48 48" enable-background="new 0 0 48 48" xml:space="preserve">
<g>
	<path d="M24.001,31.245c-3.995,0-7.245-3.25-7.245-7.245s3.25-7.245,7.245-7.245s7.245,3.25,7.245,7.245
		S27.996,31.245,24.001,31.245z M24.001,18.755c-2.892,0-5.245,2.353-5.245,5.245c0,2.893,2.353,5.245,5.245,5.245
		c2.893,0,5.245-2.353,5.245-5.245C29.246,21.108,26.894,18.755,24.001,18.755z"/>
	<path d="M24,40.098c-8.876,0-16.098-7.222-16.098-16.098c0-8.876,7.222-16.098,16.098-16.098c8.876,0,16.098,7.222,16.098,16.098
		C40.098,32.876,32.876,40.098,24,40.098z M24,9.902C16.226,9.902,9.902,16.226,9.902,24c0,7.773,6.324,14.098,14.098,14.098
		c7.773,0,14.098-6.324,14.098-14.098C38.098,16.226,31.773,9.902,24,9.902z"/>
	<path d="M24,48C10.767,48,0,37.233,0,24S10.767,0,24,0s24,10.767,24,24S37.233,48,24,48z M24,2C11.869,2,2,11.869,2,24
		s9.869,22,22,22s22-9.869,22-22S36.131,2,24,2z"/>
</g>
</svg>
