<?xml version="1.0" encoding="utf-8"?>
<!-- Generator: Adobe Illustrator 16.0.0, SVG Export Plug-In . SVG Version: 6.00 Build 0)  -->
<!DOCTYPE svg PUBLIC "-//W3C//DTD SVG 1.1//EN" "http://www.w3.org/Graphics/SVG/1.1/DTD/svg11.dtd">
<svg version="1.1" id="Layer_1" xmlns="http://www.w3.org/2000/svg" xmlns:xlink="http://www.w3.org/1999/xlink" x="0px" y="0px"
	 width="48px" height="48px" viewBox="0 0 48 48" enable-background="new 0 0 48 48" xml:space="preserve">
<g>
	<path d="M24.003,22.662c-11.761,0-23.666-2.381-23.666-6.933c0-4.555,11.905-6.938,23.666-6.938c11.758,0,23.66,2.383,23.66,6.938
		C47.663,20.281,35.761,22.662,24.003,22.662z M24.003,10.791c-13.226,0-21.666,2.925-21.666,4.938c0,2.011,8.44,4.933,21.666,4.933
		c13.223,0,21.66-2.922,21.66-4.933C45.663,13.716,37.226,10.791,24.003,10.791z"/>
	<path d="M24.003,48c-11.761,0-23.666-2.381-23.666-6.932V15.729c0-0.552,0.448-1,1-1s1,0.448,1,1c0,2.011,8.44,4.933,21.666,4.933
		c13.223,0,21.66-2.922,21.66-4.933c0-0.552,0.447-1,1-1s1,0.448,1,1v25.339C47.663,45.619,35.761,48,24.003,48z M2.337,18.703
		v22.365c0,2.011,8.44,4.932,21.666,4.932c13.223,0,21.66-2.921,21.66-4.932V18.704c-3.876,2.609-12.809,3.958-21.66,3.958
		C15.149,22.662,6.213,21.312,2.337,18.703z"/>
	<path d="M20.212,17.979c-0.221,0-0.444-0.073-0.629-0.223L3.6,4.808C3.17,4.46,3.104,3.831,3.452,3.402
		c0.347-0.43,0.978-0.496,1.406-0.147l15.984,12.948c0.429,0.348,0.495,0.977,0.147,1.406
		C20.792,17.853,20.503,17.979,20.212,17.979z"/>
	<path d="M25.735,14.944c-0.292,0-0.58-0.126-0.778-0.371c-0.348-0.429-0.281-1.059,0.148-1.407L41.09,0.223
		c0.429-0.348,1.058-0.281,1.406,0.148c0.348,0.429,0.281,1.059-0.148,1.407L26.363,14.721
		C26.179,14.871,25.956,14.944,25.735,14.944z"/>
	<path d="M12.224,39.242c-0.552,0-1-0.447-1-1V27.729c0-0.553,0.448-1,1-1s1,0.447,1,1v10.514
		C13.224,38.795,12.776,39.242,12.224,39.242z"/>
	<path d="M29.243,39.242c-0.553,0-1-0.447-1-1V27.729c0-0.553,0.447-1,1-1s1,0.447,1,1v10.514
		C30.243,38.795,29.796,39.242,29.243,39.242z"/>
</g>
</svg>
