<?xml version="1.0" encoding="utf-8"?>
<!-- Generator: Adobe Illustrator 16.0.0, SVG Export Plug-In . SVG Version: 6.00 Build 0)  -->
<!DOCTYPE svg PUBLIC "-//W3C//DTD SVG 1.1//EN" "http://www.w3.org/Graphics/SVG/1.1/DTD/svg11.dtd">
<svg version="1.1" id="Layer_1" xmlns="http://www.w3.org/2000/svg" xmlns:xlink="http://www.w3.org/1999/xlink" x="0px" y="0px"
	 width="48px" height="48px" viewBox="0 0 48 48" enable-background="new 0 0 48 48" xml:space="preserve">
<g>
	<path d="M8.173,48c-4.338,0-7.867-3.532-7.867-7.873c0-4.338,3.529-7.867,7.867-7.867c4.34,0,7.871,3.529,7.871,7.867
		C16.044,44.468,12.513,48,8.173,48z M8.173,34.26c-3.235,0-5.867,2.632-5.867,5.867C2.306,43.365,4.938,46,8.173,46
		c3.237,0,5.871-2.635,5.871-5.873C14.044,36.892,11.41,34.26,8.173,34.26z"/>
	<path d="M15.044,41.061c-0.552,0-1-0.447-1-1V4.854c0-0.505,0.377-0.932,0.879-0.993l31.649-3.854
		c0.29-0.036,0.57,0.054,0.784,0.244S47.693,0.714,47.693,1v35.204c0,0.553-0.447,1-1,1s-1-0.447-1-1V2.129L16.044,5.74v34.321
		C16.044,40.613,15.596,41.061,15.044,41.061z"/>
	<path d="M39.825,44.564c-4.339,0-7.869-3.53-7.869-7.869s3.53-7.869,7.869-7.869s7.868,3.53,7.868,7.869
		S44.164,44.564,39.825,44.564z M39.825,30.826c-3.236,0-5.869,2.633-5.869,5.869s2.633,5.869,5.869,5.869
		c3.235,0,5.868-2.633,5.868-5.869S43.061,30.826,39.825,30.826z"/>
	<path d="M16.015,16.165c-0.493,0-0.923-0.365-0.99-0.868c-0.073-0.547,0.312-1.051,0.859-1.124l29.562-3.942
		c0.548-0.069,1.05,0.312,1.123,0.859c0.073,0.547-0.312,1.051-0.859,1.124l-29.561,3.942
		C16.104,16.162,16.059,16.165,16.015,16.165z"/>
</g>
</svg>
