<?xml version="1.0" encoding="utf-8"?>
<!-- Generator: Adobe Illustrator 16.0.0, SVG Export Plug-In . SVG Version: 6.00 Build 0)  -->
<!DOCTYPE svg PUBLIC "-//W3C//DTD SVG 1.1//EN" "http://www.w3.org/Graphics/SVG/1.1/DTD/svg11.dtd">
<svg version="1.1" id="Layer_1" xmlns="http://www.w3.org/2000/svg" xmlns:xlink="http://www.w3.org/1999/xlink" x="0px" y="0px"
	 width="48px" height="48px" viewBox="0 0 48 48" enable-background="new 0 0 48 48" xml:space="preserve">
<g>
	<path d="M45.086,4.509c-3.883-3.884-10.18-3.884-14.064,0L21.432,14.1L5.447,30.083L2.251,33.28c-3.002,3.004-3.002,7.867,0,10.873
		c3.003,3,7.867,3,10.869,0l12.925-12.926l6.256-6.256l6.162-6.166c2.07-2.072,2.07-5.422,0-7.491c-2.066-2.068-5.416-2.068-7.488,0
		l-18.63,18.633l1.277,1.279l18.632-18.634c0.684-0.682,1.57-1.019,2.467-1.019s1.781,0.337,2.465,1.019
		c0.684,0.684,1.021,1.572,1.021,2.465c0,0.896-0.338,1.785-1.021,2.47l-6.164,6.165l-6.256,6.255L11.841,42.872
		c-1.148,1.148-2.647,1.717-4.154,1.721c-1.509-0.004-3.006-0.572-4.158-1.721c-1.147-1.148-1.719-2.648-1.719-4.156
		c0-1.506,0.571-3.008,1.719-4.158l3.197-3.195l15.984-15.984l9.591-9.589c1.588-1.594,3.668-2.384,5.752-2.384
		c2.086,0,4.166,0.794,5.756,2.384c1.59,1.591,2.381,3.667,2.381,5.753c0,2.087-0.791,4.166-2.381,5.754L21.75,39.356l1.277,1.281
		l22.058-22.063C48.971,14.693,48.971,8.395,45.086,4.509z"/>
</g>
</svg>
