<?xml version="1.0" encoding="utf-8"?>
<!-- Generator: Adobe Illustrator 16.0.0, SVG Export Plug-In . SVG Version: 6.00 Build 0)  -->
<!DOCTYPE svg PUBLIC "-//W3C//DTD SVG 1.1//EN" "http://www.w3.org/Graphics/SVG/1.1/DTD/svg11.dtd">
<svg version="1.1" id="Layer_1" xmlns="http://www.w3.org/2000/svg" xmlns:xlink="http://www.w3.org/1999/xlink" x="0px" y="0px"
	 width="48px" height="48px" viewBox="0 0 48 48" enable-background="new 0 0 48 48" xml:space="preserve">
<g>
	<path d="M8.177,48c-4.341,0-7.874-3.532-7.874-7.875c0-4.338,3.532-7.867,7.874-7.867c4.338,0,7.867,3.529,7.867,7.867
		C16.044,44.468,12.515,48,8.177,48z M8.177,34.258c-3.239,0-5.874,2.632-5.874,5.867C2.303,43.364,4.938,46,8.177,46
		c3.235,0,5.867-2.636,5.867-5.875C14.044,36.89,11.412,34.258,8.177,34.258z"/>
	<path d="M15.044,41.059c-0.552,0-1-0.447-1-1V4.852c0-0.505,0.377-0.932,0.879-0.993l31.653-3.852
		c0.553-0.066,1.047,0.324,1.114,0.872c0.066,0.548-0.324,1.046-0.872,1.113L16.044,5.738v34.321
		C16.044,40.611,15.596,41.059,15.044,41.059z"/>
	<path d="M16.013,16.164c-0.498,0-0.929-0.372-0.991-0.878c-0.067-0.548,0.323-1.047,0.871-1.114l30.683-3.761
		c0.562-0.067,1.048,0.323,1.114,0.871c0.067,0.548-0.322,1.047-0.87,1.114l-30.684,3.761
		C16.095,16.162,16.053,16.164,16.013,16.164z"/>
</g>
</svg>
