<?xml version="1.0" encoding="utf-8"?>
<!-- Generator: Adobe Illustrator 16.0.0, SVG Export Plug-In . SVG Version: 6.00 Build 0)  -->
<!DOCTYPE svg PUBLIC "-//W3C//DTD SVG 1.1//EN" "http://www.w3.org/Graphics/SVG/1.1/DTD/svg11.dtd">
<svg version="1.1" id="Layer_1" xmlns="http://www.w3.org/2000/svg" xmlns:xlink="http://www.w3.org/1999/xlink" x="0px" y="0px"
	 width="48px" height="48px" viewBox="0 0 48 48" enable-background="new 0 0 48 48" xml:space="preserve">
<g>
	<g>
		<path d="M43.512,1.827l2.734,2.733c1.877-1.875,2.326-2.327,0.963-3.692C45.84-0.502,45.389-0.05,43.512,1.827z"/>
	</g>
	<g>
		<path d="M15.864,32.208l2.75-6.623L43.008,1.186l3.881,3.879L22.208,29.649L15.864,32.208z M19.948,26.673l-0.982,2.438
			l2.438-0.984L44.465,5.064l-1.457-1.455L19.948,26.673z"/>
	</g>
	<g>
		<polygon points="21.883,28.858 17.415,30.661 17.415,30.661 19.217,26.19 		"/>
	</g>
	<g>
		<polygon points="36.984,47.927 0,47.927 0,10.939 30.295,10.939 30.295,12.653 1.714,12.653 1.714,46.212 35.271,46.212 
			35.271,17.483 36.984,17.483 		"/>
	</g>
</g>
</svg>
