<?xml version="1.0" encoding="utf-8"?>
<!-- Generator: Adobe Illustrator 16.0.0, SVG Export Plug-In . SVG Version: 6.00 Build 0)  -->
<!DOCTYPE svg PUBLIC "-//W3C//DTD SVG 1.1//EN" "http://www.w3.org/Graphics/SVG/1.1/DTD/svg11.dtd">
<svg version="1.1" id="Layer_1" xmlns="http://www.w3.org/2000/svg" xmlns:xlink="http://www.w3.org/1999/xlink" x="0px" y="0px"
	 width="48px" height="48px" viewBox="0 0 48 48" enable-background="new 0 0 48 48" xml:space="preserve">
<g>
	<path d="M24.965,42.967H4.177V2.561h21.595v11.797h0.779h0.779h10.018v10.884c0.529,0.068,1.051,0.165,1.562,0.289V13.035L26.874,1
		H2.616v43.527h23.088C25.427,44.023,25.182,43.504,24.965,42.967z M27.331,3.666l9.134,9.132h-9.134V3.666z"/>
	<path d="M35.834,48c-5.817,0-10.55-4.732-10.55-10.55s4.732-10.55,10.55-10.55s10.55,4.732,10.55,10.55S41.651,48,35.834,48z
		 M35.834,28.9c-4.715,0-8.55,3.835-8.55,8.55S31.119,46,35.834,46s8.55-3.835,8.55-8.55S40.549,28.9,35.834,28.9z"/>
	<g>
		<rect x="31.211" y="36.45" width="9.248" height="2"/>
	</g>
</g>
</svg>
