<?xml version="1.0" encoding="utf-8"?>
<!-- Generator: Adobe Illustrator 16.0.0, SVG Export Plug-In . SVG Version: 6.00 Build 0)  -->
<!DOCTYPE svg PUBLIC "-//W3C//DTD SVG 1.1//EN" "http://www.w3.org/Graphics/SVG/1.1/DTD/svg11.dtd">
<svg version="1.1" id="Layer_1" xmlns="http://www.w3.org/2000/svg" xmlns:xlink="http://www.w3.org/1999/xlink" x="0px" y="0px"
	 width="48px" height="48px" viewBox="0 0 48 48" enable-background="new 0 0 48 48" xml:space="preserve">
<g>
	<path fill-rule="evenodd" clip-rule="evenodd" d="M30.739,0H3.989v48h40.021V13.271L30.739,0z M31.243,2.938L41.315,13.01H31.243
		V2.938z M42.29,46.279H5.71V1.722h23.813V14.73h0.861h0.859H42.29V46.279z"/>
	<rect x="10.351" y="9.04" fill-rule="evenodd" clip-rule="evenodd" width="5.688" height="3.288"/>
	<rect x="18.312" y="9.04" fill-rule="evenodd" clip-rule="evenodd" width="5.688" height="3.288"/>
	<rect x="10.351" y="14.419" fill-rule="evenodd" clip-rule="evenodd" width="5.688" height="3.287"/>
	<rect x="18.312" y="14.419" fill-rule="evenodd" clip-rule="evenodd" width="5.688" height="3.287"/>
	<rect x="10.351" y="19.798" fill-rule="evenodd" clip-rule="evenodd" width="5.688" height="3.287"/>
	<rect x="10.351" y="25.176" fill-rule="evenodd" clip-rule="evenodd" width="5.688" height="3.289"/>
	<rect x="10.351" y="30.555" fill-rule="evenodd" clip-rule="evenodd" width="5.688" height="3.289"/>
	<rect x="10.351" y="35.934" fill-rule="evenodd" clip-rule="evenodd" width="5.688" height="3.289"/>
	<rect x="18.312" y="19.798" fill-rule="evenodd" clip-rule="evenodd" width="5.688" height="3.287"/>
	<rect x="26.272" y="19.798" fill-rule="evenodd" clip-rule="evenodd" width="5.688" height="3.287"/>
	<rect x="18.312" y="25.176" fill-rule="evenodd" clip-rule="evenodd" width="5.688" height="3.289"/>
	<rect x="26.272" y="25.176" fill-rule="evenodd" clip-rule="evenodd" width="5.688" height="3.289"/>
	<rect x="18.312" y="30.555" fill-rule="evenodd" clip-rule="evenodd" width="5.688" height="3.289"/>
	<rect x="26.272" y="30.555" fill-rule="evenodd" clip-rule="evenodd" width="5.688" height="3.289"/>
	<rect x="18.312" y="35.934" fill-rule="evenodd" clip-rule="evenodd" width="5.688" height="3.289"/>
	<rect x="26.272" y="35.934" fill-rule="evenodd" clip-rule="evenodd" width="5.688" height="3.289"/>
</g>
</svg>
