<?xml version="1.0" encoding="utf-8"?>
<!-- Generator: Adobe Illustrator 16.0.0, SVG Export Plug-In . SVG Version: 6.00 Build 0)  -->
<!DOCTYPE svg PUBLIC "-//W3C//DTD SVG 1.1//EN" "http://www.w3.org/Graphics/SVG/1.1/DTD/svg11.dtd">
<svg version="1.1" id="Layer_1" xmlns="http://www.w3.org/2000/svg" xmlns:xlink="http://www.w3.org/1999/xlink" x="0px" y="0px"
	 width="48px" height="48px" viewBox="0 0 48 48" enable-background="new 0 0 48 48" xml:space="preserve">
<g>
	<path d="M48,41.049H0V6.951h48V41.049z M1.346,39.703h45.309V8.297H1.346V39.703z"/>
	<rect x="8.524" y="14.67" width="31.624" height="1.346"/>
	<rect x="29.158" y="20.502" width="10.99" height="1.346"/>
	<rect x="29.158" y="25.211" width="10.99" height="1.346"/>
	<rect x="29.158" y="29.922" width="10.99" height="1.346"/>
	<path d="M15.141,20.502c2.906,0,5.27,2.364,5.27,5.271c0,2.904-2.363,5.27-5.27,5.27c-2.906,0-5.271-2.365-5.271-5.27
		C9.87,22.866,12.235,20.502,15.141,20.502 M15.141,19.157c-3.655,0-6.617,2.961-6.617,6.616c0,3.654,2.962,6.615,6.617,6.615
		c3.654,0,6.617-2.961,6.617-6.615C21.758,22.118,18.795,19.157,15.141,19.157L15.141,19.157z"/>
</g>
</svg>
