<?xml version="1.0" encoding="utf-8"?>
<!-- Generator: Adobe Illustrator 16.0.0, SVG Export Plug-In . SVG Version: 6.00 Build 0)  -->
<!DOCTYPE svg PUBLIC "-//W3C//DTD SVG 1.1//EN" "http://www.w3.org/Graphics/SVG/1.1/DTD/svg11.dtd">
<svg version="1.1" id="Layer_1" xmlns="http://www.w3.org/2000/svg" xmlns:xlink="http://www.w3.org/1999/xlink" x="0px" y="0px"
	 width="48px" height="48px" viewBox="0 0 48 48" enable-background="new 0 0 48 48" xml:space="preserve">
<g>
	<rect x="20.393" y="1.892" fill="#0C0D0D" width="7.287" height="27.29"/>
	<path d="M44.154,48H3.847c-2.058,0-3.733-1.675-3.733-3.732V3.734C0.114,1.675,1.789,0,3.847,0h40.305
		c2.058,0,3.732,1.675,3.732,3.734v40.534c0.001,0.995-0.386,1.932-1.091,2.638S45.151,48,44.154,48z M3.847,2
		C2.892,2,2.114,2.778,2.114,3.734v40.534C2.114,45.223,2.892,46,3.847,46h40.307c0.955,0,1.732-0.777,1.732-1.732L45.885,3.734
		C45.885,2.778,45.107,2,44.152,2H3.847z"/>
	<path d="M42.191,42.309H5.806V5.694h36.385V42.309z M7.806,40.309h32.385V7.694H7.806V40.309z"/>
	<g>
		<rect x="22.176" y="1.892" fill="#FFFFFF" width="1.823" height="1.823"/>
		<rect x="24" y="3.715" fill="#FFFFFF" width="1.822" height="1.82"/>
		<rect x="22.176" y="5.535" fill="#FFFFFF" width="1.823" height="1.822"/>
		<rect x="24" y="7.357" fill="#FFFFFF" width="1.822" height="1.822"/>
		<rect x="22.176" y="9.122" fill="#FFFFFF" width="1.823" height="1.822"/>
		<rect x="24" y="10.944" fill="#FFFFFF" width="1.822" height="1.822"/>
		<rect x="22.176" y="12.766" fill="#FFFFFF" width="1.823" height="1.821"/>
		<rect x="24" y="14.587" fill="#FFFFFF" width="1.822" height="1.822"/>
		<rect x="22.176" y="16.409" fill="#FFFFFF" width="1.823" height="1.822"/>
		<rect x="24" y="18.231" fill="#FFFFFF" width="1.822" height="1.821"/>
		<rect x="22.176" y="20.053" fill="#FFFFFF" width="1.823" height="1.822"/>
		<rect x="24" y="21.875" fill="#FFFFFF" width="1.822" height="1.821"/>
		<rect x="22.176" y="23.696" fill="#FFFFFF" width="1.823" height="1.822"/>
		<rect x="24" y="25.518" fill="#FFFFFF" width="1.822" height="1.821"/>
	</g>
</g>
</svg>
