<?xml version="1.0" encoding="utf-8"?>
<!-- Generator: Adobe Illustrator 16.0.0, SVG Export Plug-In . SVG Version: 6.00 Build 0)  -->
<!DOCTYPE svg PUBLIC "-//W3C//DTD SVG 1.1//EN" "http://www.w3.org/Graphics/SVG/1.1/DTD/svg11.dtd">
<svg version="1.1" id="Layer_1" xmlns="http://www.w3.org/2000/svg" xmlns:xlink="http://www.w3.org/1999/xlink" x="0px" y="0px"
	 width="48px" height="48px" viewBox="0 0 48 48" enable-background="new 0 0 48 48" xml:space="preserve">
<g>
	<path d="M44.307,46.542H3.692C1.656,46.542,0,44.886,0,42.85V5.15c0-2.036,1.656-3.692,3.692-3.692h40.615
		C46.343,1.458,48,3.114,48,5.15v37.7C48,44.886,46.343,46.542,44.307,46.542z M3.692,3.458C2.759,3.458,2,4.217,2,5.15v37.7
		c0,0.934,0.759,1.692,1.692,1.692h40.615c0.934,0,1.693-0.759,1.693-1.692V5.15c0-0.933-0.76-1.692-1.693-1.692H3.692z"/>
	<rect x="1" y="9.76" width="46" height="2"/>
	<path d="M22.419,38.239H7.854v-7.161h14.565V38.239z M9.854,36.239h10.565v-3.161H9.854V36.239z"/>
	<path d="M40.371,38.239H25.805v-7.161h14.566V38.239z M27.805,36.239h10.566v-3.161H27.805V36.239z"/>
</g>
</svg>
