<?xml version="1.0" encoding="utf-8"?>
<!-- Generator: Adobe Illustrator 16.0.0, SVG Export Plug-In . SVG Version: 6.00 Build 0)  -->
<!DOCTYPE svg PUBLIC "-//W3C//DTD SVG 1.1//EN" "http://www.w3.org/Graphics/SVG/1.1/DTD/svg11.dtd">
<svg version="1.1" id="Layer_1" xmlns="http://www.w3.org/2000/svg" xmlns:xlink="http://www.w3.org/1999/xlink" x="0px" y="0px"
	 width="48px" height="48px" viewBox="0 0 48 48" enable-background="new 0 0 48 48" xml:space="preserve">
<g>
	<path fill-rule="evenodd" clip-rule="evenodd" d="M43.826,48H4.174C1.868,48,0,46.131,0,43.824V15.651V4.174
		C0,1.868,1.868,0,4.174,0h10.434c2.857,0,4.5,1.444,5.219,4.174l0.521,2.087h23.478c2.305,0,4.174,1.868,4.174,4.174v5.217v28.173
		C48,46.131,46.131,48,43.826,48z M45.912,10.435c0-1.152-0.934-2.087-2.086-2.087H20.87h-1.043h-1.045l-1.043-4.174
		c-0.555-1.186-1.131-2.087-3.131-2.087H4.174c-1.152,0-2.087,0.934-2.087,2.087v2.087v5.796c0.617-0.358,1.322-0.579,2.087-0.579
		h39.652c0.764,0,1.469,0.221,2.086,0.579V10.435z M45.912,15.651c0-1.152-0.934-2.087-2.086-2.087H4.174
		c-1.152,0-2.087,0.935-2.087,2.087v3.596v24.577c0,1.154,0.935,2.088,2.087,2.088h39.652c1.152,0,2.086-0.934,2.086-2.088V15.651z"
		/>
</g>
</svg>
