<?xml version="1.0" encoding="utf-8"?>
<!-- Generator: Adobe Illustrator 16.0.0, SVG Export Plug-In . SVG Version: 6.00 Build 0)  -->
<!DOCTYPE svg PUBLIC "-//W3C//DTD SVG 1.1//EN" "http://www.w3.org/Graphics/SVG/1.1/DTD/svg11.dtd">
<svg version="1.1" id="Layer_1" xmlns="http://www.w3.org/2000/svg" xmlns:xlink="http://www.w3.org/1999/xlink" x="0px" y="0px"
	 width="48px" height="48px" viewBox="0 0 48 48" enable-background="new 0 0 48 48" xml:space="preserve">
<g>
	<path d="M37.797,41.868H11.736C5.264,41.868,0,36.604,0,30.132c0-4.297,2.389-8.267,6.143-10.298
		c-0.006-0.146-0.01-0.291-0.01-0.434c0-7.315,5.951-13.269,13.27-13.269c4.977,0,9.463,2.747,11.748,7.099
		c1.068-0.629,2.303-0.967,3.58-0.967c3.936,0,7.139,3.203,7.139,7.137c0,0.932-0.184,1.845-0.535,2.695
		C45.316,23.565,48,27.337,48,31.665C48,37.292,43.422,41.868,37.797,41.868z M19.402,8.144c-6.209,0-11.258,5.051-11.258,11.257
		c0,0.313,0.021,0.647,0.045,0.959l0.049,0.691l-0.627,0.292c-3.402,1.589-5.6,5.039-5.6,8.789c0,5.363,4.361,9.725,9.725,9.725
		h26.061c4.518,0,8.193-3.674,8.193-8.191c0-3.82-2.607-7.101-6.34-7.977l-1.393-0.329l0.779-1.2c0.537-0.825,0.82-1.777,0.82-2.759
		c0-2.825-2.301-5.125-5.127-5.125c-1.236,0-2.412,0.438-3.309,1.232l-1.059,0.938l-0.539-1.308
		C28.074,10.89,23.984,8.144,19.402,8.144z"/>
</g>
</svg>
