<?xml version="1.0" encoding="utf-8"?>
<!-- Generator: Adobe Illustrator 16.0.0, SVG Export Plug-In . SVG Version: 6.00 Build 0)  -->
<!DOCTYPE svg PUBLIC "-//W3C//DTD SVG 1.1//EN" "http://www.w3.org/Graphics/SVG/1.1/DTD/svg11.dtd">
<svg version="1.1" id="Layer_1" xmlns="http://www.w3.org/2000/svg" xmlns:xlink="http://www.w3.org/1999/xlink" x="0px" y="0px"
	 width="48px" height="48px" viewBox="0 0 48 48" enable-background="new 0 0 48 48" xml:space="preserve">
<g>
	<path d="M28.197,48c-1.295,0-2.557-0.52-3.461-1.426L3.062,24.871C1.35,23.19,0,19.962,0,17.528V4.918C0,2.207,2.208,0,4.919,0
		h12.608c2.457,0,5.627,1.316,7.375,3.063l21.672,21.643C47.484,25.658,48,26.924,48,28.197c0,1.295-0.52,2.557-1.426,3.465
		L31.691,46.574C30.74,47.486,29.473,48,28.197,48z M4.919,2.077c-1.541,0-2.841,1.301-2.841,2.841v12.61
		c0,1.88,1.12,4.565,2.446,5.867l21.681,21.71c1.025,1.029,2.934,1.037,4.031-0.016l14.867-14.896
		c0.512-0.514,0.818-1.258,0.818-1.996c0-0.742-0.305-1.486-0.834-2.039L23.432,4.533c-1.352-1.354-4-2.456-5.904-2.456H4.919z
		 M10.739,15.657c-2.712,0-4.92-2.206-4.92-4.919c0-2.711,2.208-4.919,4.92-4.919s4.917,2.208,4.917,4.919
		C15.656,13.451,13.451,15.657,10.739,15.657z M10.739,7.897c-1.567,0-2.842,1.274-2.842,2.841s1.274,2.841,2.842,2.841
		c1.566,0,2.839-1.274,2.839-2.841S12.306,7.897,10.739,7.897z"/>
</g>
</svg>
