<?xml version="1.0" encoding="utf-8"?>
<!-- Generator: Adobe Illustrator 16.0.0, SVG Export Plug-In . SVG Version: 6.00 Build 0)  -->
<!DOCTYPE svg PUBLIC "-//W3C//DTD SVG 1.1//EN" "http://www.w3.org/Graphics/SVG/1.1/DTD/svg11.dtd">
<svg version="1.1" id="Layer_1" xmlns="http://www.w3.org/2000/svg" xmlns:xlink="http://www.w3.org/1999/xlink" x="0px" y="0px"
	 width="48px" height="48px" viewBox="0 0 48 48" enable-background="new 0 0 48 48" xml:space="preserve">
<g>
	<path fill-rule="evenodd" clip-rule="evenodd" d="M44.635,22.94l-2.881,16.551c-0.045,2.09-1.76,3.777-3.861,3.777H9.985
		c-2.102,0-3.816-1.688-3.861-3.777L3.228,22.927C1.401,22.621,0,20.745,0,18.834v-2.205c0-2.13,1.733-3.861,3.862-3.861h6.879
		l4.113-6.619c0.5-0.864,1.455-1.417,2.482-1.417c0.504,0,1.002,0.134,1.439,0.387c1.377,0.794,1.85,2.561,1.057,3.938l-2.369,3.712
		h11.962l-2.348-3.677c-0.814-1.411-0.342-3.178,1.033-3.972c0.438-0.254,0.938-0.388,1.439-0.388c1.027,0,1.986,0.554,2.498,1.442
		l4.1,6.594h7.988c2.129,0,3.863,1.731,3.863,3.861v2.205C48,20.792,46.527,22.693,44.635,22.94z M7.97,39.407
		c0,1.111,0.903,2.016,2.016,2.016h27.907c1.111,0,2.016-0.904,2.016-2.016l0.014-0.156l2.832-16.261H5.11L7.97,39.407z
		 M46.154,16.629c0-1.112-0.904-2.016-2.018-2.016h-9.016l-4.654-7.492c-0.299-0.515-0.949-0.683-1.432-0.403
		c-0.496,0.285-0.666,0.92-0.381,1.415l4.139,6.48H14.094l4.162-6.516c0.264-0.46,0.094-1.095-0.402-1.38
		c-0.482-0.28-1.143-0.098-1.416,0.379l-4.671,7.517H3.862c-1.112,0-2.018,0.903-2.018,2.016v2.205c0,1.11,0.905,2.311,2.018,2.311
		h40.274c1.113,0,2.018-1.2,2.018-2.311V16.629z M33.693,38.763c-0.795,0-1.379-0.643-1.379-1.438V27.147
		c0-0.793,0.584-1.436,1.379-1.436c0.793,0,1.377,0.643,1.377,1.436v10.178C35.07,38.12,34.486,38.763,33.693,38.763z
		 M27.234,38.763c-0.795,0-1.379-0.643-1.379-1.438V27.147c0-0.793,0.584-1.436,1.379-1.436c0.793,0,1.377,0.643,1.377,1.436v10.178
		C28.611,38.12,28.027,38.763,27.234,38.763z M20.776,38.763c-0.795,0-1.379-0.643-1.379-1.438V27.147
		c0-0.793,0.584-1.436,1.379-1.436c0.793,0,1.377,0.643,1.377,1.436v10.178C22.153,38.12,21.569,38.763,20.776,38.763z
		 M14.317,38.763c-0.793,0-1.379-0.643-1.379-1.438V27.147c0-0.793,0.586-1.436,1.379-1.436c0.791,0,1.377,0.643,1.377,1.436v10.178
		C15.694,38.12,15.108,38.763,14.317,38.763z"/>
</g>
</svg>
