<?xml version="1.0" encoding="utf-8"?>
<!-- Generator: Adobe Illustrator 16.0.0, SVG Export Plug-In . SVG Version: 6.00 Build 0)  -->
<!DOCTYPE svg PUBLIC "-//W3C//DTD SVG 1.1//EN" "http://www.w3.org/Graphics/SVG/1.1/DTD/svg11.dtd">
<svg version="1.1" id="Layer_1" xmlns="http://www.w3.org/2000/svg" xmlns:xlink="http://www.w3.org/1999/xlink" x="0px" y="0px"
	 width="48px" height="48px" viewBox="0 0 48 48" enable-background="new 0 0 48 48" xml:space="preserve">
<g>
	<path fill-rule="evenodd" clip-rule="evenodd" d="M48,24c0,6.627-2.686,12.627-7.029,16.971l0,0l0,0C36.629,45.313,30.629,48,24,48
		c-6.627,0-12.627-2.688-16.971-7.029l0,0l0,0C2.688,36.627,0,30.627,0,24l0,0l0,0l0,0c0-6.627,2.688-12.625,7.029-16.969V7.029l0,0
		C11.373,2.687,17.373,0,24,0c6.629,0,12.629,2.687,16.971,7.029l0,0v0.002C45.314,11.375,48,17.373,48,24L48,24L48,24L48,24z
		 M43.826,22.957h2.037c-0.25-5.262-2.367-10.017-5.682-13.663l-1.424,1.427c-0.408,0.404-1.068,0.404-1.475,0
		c-0.408-0.408-0.408-1.07,0-1.478l1.424-1.426c-3.646-3.313-8.402-5.429-13.664-5.677v2.034c0,0.576-0.465,1.043-1.043,1.043
		c-0.576,0-1.043-0.467-1.043-1.043V2.141c-5.26,0.248-10.018,2.364-13.664,5.677l1.426,1.426c0.408,0.407,0.408,1.069,0,1.478
		c-0.408,0.404-1.068,0.404-1.477,0L7.818,9.294c-3.316,3.646-5.432,8.401-5.68,13.663h2.035c0.578,0,1.045,0.47,1.045,1.043
		c0,0.577-0.467,1.044-1.045,1.044H2.139c0.248,5.261,2.363,10.017,5.68,13.661l1.424-1.424c0.408-0.408,1.068-0.408,1.477,0
		s0.408,1.068,0,1.475l-1.426,1.426c3.646,3.316,8.404,5.432,13.664,5.678v-2.033c0-0.574,0.467-1.043,1.043-1.043
		c0.578,0,1.043,0.469,1.043,1.043v2.033c5.262-0.246,10.018-2.361,13.664-5.678l-1.424-1.426c-0.408-0.406-0.408-1.066,0-1.475
		c0.406-0.408,1.066-0.408,1.475,0l1.424,1.424c3.314-3.645,5.432-8.4,5.682-13.661h-2.037c-0.576,0-1.043-0.467-1.043-1.044
		C42.783,23.427,43.25,22.957,43.826,22.957z M24,28.174c-2.305,0-4.174-1.869-4.174-4.174S24,13.565,24,13.565
		s4.174,8.13,4.174,10.435S26.305,28.174,24,28.174z M24,21.913c-1.152,0-2.086,0.936-2.086,2.087c0,1.154,0.934,2.086,2.086,2.086
		s2.088-0.932,2.088-2.086C26.088,22.849,25.152,21.913,24,21.913z"/>
</g>
</svg>
