<?xml version="1.0" encoding="utf-8"?>
<!-- Generator: Adobe Illustrator 16.0.0, SVG Export Plug-In . SVG Version: 6.00 Build 0)  -->
<!DOCTYPE svg PUBLIC "-//W3C//DTD SVG 1.1//EN" "http://www.w3.org/Graphics/SVG/1.1/DTD/svg11.dtd">
<svg version="1.1" id="Layer_1" xmlns="http://www.w3.org/2000/svg" xmlns:xlink="http://www.w3.org/1999/xlink" x="0px" y="0px"
	 width="48px" height="48px" viewBox="0 0 48 48" enable-background="new 0 0 48 48" xml:space="preserve">
<g>
	<path fill-rule="evenodd" clip-rule="evenodd" d="M43.826,30.26h-1.025c-0.299,0.898-0.664,1.766-1.084,2.602l0.73,0.729
		c1.631,1.631,1.631,4.273,0,5.904l-2.951,2.951c-1.631,1.631-4.271,1.631-5.902,0l-0.73-0.729
		c-0.838,0.418-1.703,0.785-2.602,1.084v1.025c0,2.305-1.869,4.174-4.174,4.174h-4.174c-2.305,0-4.174-1.869-4.174-4.174v-1.025
		c-0.9-0.299-1.766-0.666-2.602-1.084l-0.729,0.729c-1.631,1.631-4.275,1.631-5.904,0l-2.951-2.951
		c-1.631-1.631-1.631-4.273,0-5.904l0.729-0.729C5.865,32.025,5.5,31.158,5.199,30.26H4.174C1.869,30.26,0,28.391,0,26.086v-4.173
		c0-2.306,1.869-4.174,4.174-4.174h1.025c0.301-0.899,0.666-1.766,1.084-2.603l-0.729-0.729c-1.631-1.63-1.631-4.272,0-5.902
		l2.951-2.951c1.629-1.63,4.273-1.63,5.904,0l0.729,0.729c0.836-0.419,1.701-0.785,2.602-1.084V4.174C17.74,1.869,19.609,0,21.914,0
		h4.174c2.305,0,4.174,1.869,4.174,4.174v1.025c0.898,0.299,1.764,0.665,2.602,1.084l0.73-0.729c1.631-1.63,4.271-1.63,5.902,0
		l2.951,2.951c1.631,1.63,1.631,4.272,0,5.902l-0.73,0.729c0.42,0.837,0.785,1.703,1.084,2.603h1.025
		c2.305,0,4.174,1.868,4.174,4.174v4.173C48,28.391,46.131,30.26,43.826,30.26z M45.914,21.913c0-1.152-0.934-2.087-2.088-2.087
		h-0.447h-2.146c-0.436-1.808-1.176-3.49-2.119-5.034l1.533-1.537l0.324-0.322c0.816-0.815,0.816-2.138,0-2.951L38.02,7.029
		c-0.814-0.815-2.135-0.815-2.951,0l-0.324,0.324l0,0l-1.537,1.537c-1.543-0.941-3.225-1.678-5.033-2.115V4.622V4.174
		c0-1.152-0.934-2.087-2.086-2.087h-4.174c-1.152,0-2.088,0.935-2.088,2.087v0.448v2.153c-1.807,0.438-3.486,1.174-5.031,2.115
		l-1.539-1.537l-0.322-0.324c-0.814-0.815-2.137-0.815-2.951,0L7.029,9.981c-0.814,0.813-0.814,2.136,0,2.951l0.324,0.322
		l1.537,1.537c-0.945,1.544-1.684,3.226-2.121,5.034H4.623H4.174c-1.15,0-2.086,0.935-2.086,2.087v4.173
		c0,1.152,0.936,2.088,2.086,2.088h0.449H6.77c0.438,1.809,1.176,3.49,2.121,5.033l-1.537,1.537l-0.324,0.322
		c-0.814,0.816-0.814,2.137,0,2.953l2.953,2.951c0.814,0.814,2.137,0.814,2.951,0l1.861-1.863c1.545,0.943,3.225,1.68,5.031,2.115
		v2.154v0.449c0,1.152,0.936,2.086,2.088,2.086h4.174c1.152,0,2.086-0.934,2.086-2.086v-0.449v-2.154
		c1.809-0.436,3.49-1.172,5.033-2.115l1.861,1.863c0.816,0.814,2.137,0.814,2.951,0l2.951-2.951c0.816-0.816,0.816-2.137,0-2.953
		l-0.324-0.322l-1.533-1.537c0.943-1.543,1.684-3.225,2.119-5.033h2.146h0.447c1.154,0,2.088-0.936,2.088-2.088V21.913z M24,34.434
		c-5.762,0-10.434-4.672-10.434-10.434c0-5.763,4.672-10.435,10.434-10.435c5.764,0,10.436,4.672,10.436,10.435
		C34.436,29.762,29.764,34.434,24,34.434z M24,15.652c-4.609,0-8.348,3.737-8.348,8.348c0,4.611,3.738,8.348,8.348,8.348
		c4.611,0,8.348-3.736,8.348-8.348C32.348,19.39,28.611,15.652,24,15.652z M24,28.174c-2.305,0-4.174-1.869-4.174-4.174
		s1.869-4.174,4.174-4.174s4.174,1.869,4.174,4.174S26.305,28.174,24,28.174z M24,21.913c-1.15,0-2.086,0.935-2.086,2.087
		S22.85,26.086,24,26.086c1.154,0,2.088-0.934,2.088-2.086S25.154,21.913,24,21.913z"/>
</g>
</svg>
