<?xml version="1.0" encoding="utf-8"?>
<!-- Generator: Adobe Illustrator 16.0.0, SVG Export Plug-In . SVG Version: 6.00 Build 0)  -->
<!DOCTYPE svg PUBLIC "-//W3C//DTD SVG 1.1//EN" "http://www.w3.org/Graphics/SVG/1.1/DTD/svg11.dtd">
<svg version="1.1" id="Layer_1" xmlns="http://www.w3.org/2000/svg" xmlns:xlink="http://www.w3.org/1999/xlink" x="0px" y="0px"
	 width="48px" height="48px" viewBox="0 0 48 48" enable-background="new 0 0 48 48" xml:space="preserve">
<g>
	<path d="M34.77,34.164v10.359c0,0.732-0.621,1.352-1.354,1.352c-0.348,0-0.686-0.145-0.947-0.406L19.596,32.596H9.271
		c-0.734,0-1.352-0.619-1.352-1.354V16.756c0-0.733,0.617-1.353,1.352-1.353h10.324L32.469,2.529c0.262-0.262,0.6-0.405,0.947-0.405
		c0.732,0,1.354,0.619,1.354,1.353v9.713h2.123V3.477C36.893,1.56,35.334,0,33.416,0c-0.916,0-1.785,0.365-2.449,1.027
		l-12.25,12.252H9.271c-1.918,0-3.477,1.561-3.477,3.477v14.486c0,1.918,1.559,3.477,3.477,3.477h9.445l12.25,12.252
		C31.631,47.635,32.5,48,33.416,48c1.918,0,3.477-1.561,3.477-3.477V34.164H34.77z"/>
	<polygon points="36.9,30.115 36.9,24.81 42.205,24.809 42.205,22.686 36.9,22.686 36.9,17.381 34.777,17.381 34.775,22.686 
		29.475,22.686 29.475,24.809 34.775,24.81 34.777,30.115 	"/>
</g>
</svg>
