<?xml version="1.0" encoding="utf-8"?>
<!-- Generator: Adobe Illustrator 16.0.0, SVG Export Plug-In . SVG Version: 6.00 Build 0)  -->
<!DOCTYPE svg PUBLIC "-//W3C//DTD SVG 1.1//EN" "http://www.w3.org/Graphics/SVG/1.1/DTD/svg11.dtd">
<svg version="1.1" id="Layer_1" xmlns="http://www.w3.org/2000/svg" xmlns:xlink="http://www.w3.org/1999/xlink" x="0px" y="0px"
	 width="48px" height="48px" viewBox="0 0 48 48" enable-background="new 0 0 48 48" xml:space="preserve">
<g>
	<path d="M46.409,16.192l-0.834-1.207c0.959-0.662,0.957-2.048,0.957-2.063c0-3.334-8.145-7.037-19.834-7.037
		c-9.386,0-19.843,2.86-19.843,6.968l-0.012,0.129c-0.006,0.035-0.154,1.094,0.857,1.885l-0.904,1.155
		c-1.547-1.21-1.453-2.845-1.408-3.222c0.07-5.248,10.869-8.383,21.31-8.383c11.945,0,21.301,3.732,21.301,8.495
		C48.001,12.987,48.024,15.076,46.409,16.192z"/>
	<path d="M26.726,17.996c-8.609,0-17.513-2.031-17.513-5.43c0-3.399,8.904-5.431,17.513-5.431c8.609,0,17.514,2.031,17.514,5.431
		C44.239,15.965,35.335,17.996,26.726,17.996z M26.726,7.87c-10.037,0-16.779,2.428-16.779,4.696c0,2.268,6.742,4.696,16.779,4.696
		c10.039,0,16.781-2.429,16.781-4.696C43.507,10.298,36.765,7.87,26.726,7.87z"/>
	<path d="M26.698,43.582c-1.285,0-3.361-0.254-3.449-0.266c-6.062-1.025-9.359-3.107-9.919-3.484
		c-0.041-0.02-0.08-0.047-0.117-0.084c-0.127-0.104-0.215-0.246-0.252-0.406l0.027-0.006c-0.246-0.654-0.572-2.133-1.326-5.576
		l1.434-0.314c0.801,3.656,1.092,4.865,1.197,5.262c0.773,0.486,3.871,2.262,9.169,3.158l0,0c0.006,0,2.047,0.25,3.236,0.25
		c1.539,0,3.23-0.25,3.248-0.252c5.211-0.881,8.293-2.619,9.119-3.135l3.75-16.95c0.049-0.22,0.197-0.405,0.4-0.503l1.158-0.554
		l1.07-3.766c-3.844,2.692-10.787,4.349-18.746,4.349c-7.96,0-14.906-1.656-18.748-4.349l0.146,0.521
		c0.09,0.316-0.043,0.654-0.324,0.826c-1.389,0.849-5.951,3.865-6.287,7.082c-0.123,1.189,0.342,2.264,1.381,3.188
		c2.316,2.055,5.303,3.098,8.873,3.098c9.15,0,19.554-6.811,21.546-8.176l0.83,1.211c-2.889,1.979-13.035,8.432-22.376,8.432
		c-3.939,0-7.254-1.168-9.848-3.469c-1.76-1.564-1.984-3.275-1.865-4.438c0.367-3.5,4.359-6.505,6.51-7.883l-0.701-2.463
		c-0.096-0.337,0.061-0.693,0.371-0.853c0.311-0.161,0.691-0.078,0.91,0.196c2.662,3.354,10.531,5.608,19.582,5.608
		c9.049,0,16.918-2.254,19.58-5.608c0.219-0.274,0.6-0.357,0.91-0.196c0.311,0.159,0.467,0.517,0.371,0.853l-1.865,6.557
		c-0.057,0.203-0.199,0.371-0.389,0.461l-1.135,0.543l-3.736,16.893c-0.041,0.178-0.143,0.332-0.291,0.438
		c-0.137,0.1-3.459,2.436-9.967,3.537C30.089,43.326,28.349,43.582,26.698,43.582z M11.589,30.723c-0.002,0-0.004,0-0.006,0
		c-3.273-0.029-5.998-0.988-8.096-2.854c-0.813-0.719-1.162-1.5-1.07-2.387l0,0c0.264-2.549,4.09-5.244,5.256-6.009
		c0.195-0.129,0.441-0.157,0.658-0.073c0.219,0.08,0.387,0.261,0.449,0.485l0.238,0.836l1.16,0.554
		c0.205,0.098,0.355,0.287,0.402,0.509c0,0,0.836,3.94,1.725,8.05c0.047,0.219-0.006,0.445-0.148,0.619
		C12.019,30.623,11.81,30.723,11.589,30.723z M7.65,21.271c-2.152,1.562-3.662,3.285-3.773,4.361l0,0
		c-0.02,0.186-0.059,0.568,0.584,1.141c1.629,1.447,3.715,2.268,6.213,2.445c-0.656-3.033-1.248-5.816-1.453-6.775l-1.133-0.541
		c-0.189-0.09-0.332-0.258-0.389-0.461L7.65,21.271z"/>
	<path d="M32.284,27.92c-0.43,0-0.842-0.094-1.229-0.281c-0.488-0.236-0.898-0.607-1.182-1.072c-0.27-0.443-0.414-0.951-0.414-1.473
		c0-1.557,1.268-2.824,2.824-2.824c1.559,0,2.826,1.268,2.826,2.824C35.11,26.652,33.843,27.92,32.284,27.92z M32.284,23.735
		c-0.748,0-1.357,0.609-1.357,1.358c0,0.25,0.07,0.494,0.199,0.707c0.137,0.225,0.334,0.404,0.568,0.518
		c0.184,0.088,0.383,0.133,0.59,0.133c0.75,0,1.359-0.607,1.359-1.357C33.644,24.345,33.034,23.735,32.284,23.735z"/>
</g>
</svg>
