<?xml version="1.0" encoding="utf-8"?>
<!-- Generator: Adobe Illustrator 16.0.0, SVG Export Plug-In . SVG Version: 6.00 Build 0)  -->
<!DOCTYPE svg PUBLIC "-//W3C//DTD SVG 1.1//EN" "http://www.w3.org/Graphics/SVG/1.1/DTD/svg11.dtd">
<svg version="1.1" id="Layer_1" xmlns="http://www.w3.org/2000/svg" xmlns:xlink="http://www.w3.org/1999/xlink" x="0px" y="0px"
	 width="48px" height="48px" viewBox="0 0 48 48" enable-background="new 0 0 48 48" xml:space="preserve">
<g>
	<g>
		<g>
			<path d="M48,42.867H24.93V5.133L48,42.867z M26.5,41.297h18.699L26.5,10.711V41.297z"/>
			<path d="M23.07,42.867H0L23.07,5.133V42.867z M2.799,41.297H21.5V10.711L2.799,41.297z"/>
		</g>
		<path d="M28.23,40.982c-0.82,0-1.488-0.668-1.488-1.488s0.668-1.488,1.488-1.488s1.488,0.668,1.488,1.488
			S29.051,40.982,28.23,40.982z M28.23,38.791c-0.387,0-0.703,0.314-0.703,0.703c0,0.387,0.316,0.703,0.703,0.703
			s0.703-0.316,0.703-0.703C28.934,39.105,28.617,38.791,28.23,38.791z"/>
		<path d="M28.23,36.406c-0.82,0-1.488-0.668-1.488-1.488s0.668-1.486,1.488-1.486s1.488,0.666,1.488,1.486
			S29.051,36.406,28.23,36.406z M28.23,34.215c-0.387,0-0.703,0.314-0.703,0.703s0.316,0.703,0.703,0.703s0.703-0.314,0.703-0.703
			S28.617,34.215,28.23,34.215z"/>
		<path d="M28.23,31.83c-0.82,0-1.488-0.668-1.488-1.488s0.668-1.488,1.488-1.488s1.488,0.668,1.488,1.488S29.051,31.83,28.23,31.83
			z M28.23,29.639c-0.387,0-0.703,0.316-0.703,0.703c0,0.389,0.316,0.703,0.703,0.703s0.703-0.314,0.703-0.703
			C28.934,29.955,28.617,29.639,28.23,29.639z"/>
		<path d="M28.23,27.254c-0.82,0-1.488-0.666-1.488-1.486c0-0.821,0.668-1.489,1.488-1.489s1.488,0.668,1.488,1.489
			C29.719,26.588,29.051,27.254,28.23,27.254z M28.23,25.063c-0.387,0-0.703,0.315-0.703,0.704c0,0.387,0.316,0.701,0.703,0.701
			s0.703-0.314,0.703-0.701C28.934,25.379,28.617,25.063,28.23,25.063z"/>
		<path d="M28.23,22.679c-0.82,0-1.488-0.667-1.488-1.488c0-0.82,0.668-1.488,1.488-1.488s1.488,0.668,1.488,1.488
			C29.719,22.012,29.051,22.679,28.23,22.679z M28.23,20.487c-0.387,0-0.703,0.315-0.703,0.703s0.316,0.703,0.703,0.703
			s0.703-0.315,0.703-0.703S28.617,20.487,28.23,20.487z"/>
		<path d="M28.23,18.104c-0.82,0-1.488-0.668-1.488-1.488c0-0.821,0.668-1.488,1.488-1.488s1.488,0.667,1.488,1.488
			C29.719,17.436,29.051,18.104,28.23,18.104z M28.23,15.912c-0.387,0-0.703,0.316-0.703,0.703c0,0.388,0.316,0.702,0.703,0.702
			s0.703-0.314,0.703-0.702C28.934,16.229,28.617,15.912,28.23,15.912z"/>
		<path d="M32.219,40.982c-0.82,0-1.488-0.668-1.488-1.488s0.668-1.488,1.488-1.488s1.488,0.668,1.488,1.488
			S33.039,40.982,32.219,40.982z M32.219,38.791c-0.387,0-0.703,0.314-0.703,0.703c0,0.387,0.316,0.703,0.703,0.703
			s0.703-0.316,0.703-0.703C32.922,39.105,32.605,38.791,32.219,38.791z"/>
		<path d="M32.219,36.406c-0.82,0-1.488-0.668-1.488-1.488s0.668-1.486,1.488-1.486s1.488,0.666,1.488,1.486
			S33.039,36.406,32.219,36.406z M32.219,34.215c-0.387,0-0.703,0.314-0.703,0.703s0.316,0.703,0.703,0.703s0.703-0.314,0.703-0.703
			S32.605,34.215,32.219,34.215z"/>
		<path d="M32.219,31.83c-0.82,0-1.488-0.668-1.488-1.488s0.668-1.488,1.488-1.488s1.488,0.668,1.488,1.488
			S33.039,31.83,32.219,31.83z M32.219,29.639c-0.387,0-0.703,0.316-0.703,0.703c0,0.389,0.316,0.703,0.703,0.703
			s0.703-0.314,0.703-0.703C32.922,29.955,32.605,29.639,32.219,29.639z"/>
		<path d="M32.219,27.254c-0.82,0-1.488-0.666-1.488-1.486c0-0.821,0.668-1.489,1.488-1.489s1.488,0.668,1.488,1.489
			C33.707,26.588,33.039,27.254,32.219,27.254z M32.219,25.063c-0.387,0-0.703,0.315-0.703,0.704c0,0.387,0.316,0.701,0.703,0.701
			s0.703-0.314,0.703-0.701C32.922,25.379,32.605,25.063,32.219,25.063z"/>
		<path d="M36.512,40.982c-0.82,0-1.488-0.668-1.488-1.488s0.668-1.488,1.488-1.488S38,38.674,38,39.494
			S37.332,40.982,36.512,40.982z M36.512,38.791c-0.389,0-0.703,0.314-0.703,0.703c0,0.387,0.314,0.703,0.703,0.703
			c0.387,0,0.703-0.316,0.703-0.703C37.215,39.105,36.898,38.791,36.512,38.791z"/>
		<path d="M36.512,36.406c-0.82,0-1.488-0.668-1.488-1.488s0.668-1.486,1.488-1.486S38,34.098,38,34.918
			S37.332,36.406,36.512,36.406z M36.512,34.215c-0.389,0-0.703,0.314-0.703,0.703s0.314,0.703,0.703,0.703
			c0.387,0,0.703-0.314,0.703-0.703S36.898,34.215,36.512,34.215z"/>
		<path d="M36.512,31.83c-0.82,0-1.488-0.668-1.488-1.488s0.668-1.488,1.488-1.488S38,29.521,38,30.342S37.332,31.83,36.512,31.83z
			 M36.512,29.639c-0.389,0-0.703,0.316-0.703,0.703c0,0.389,0.314,0.703,0.703,0.703c0.387,0,0.703-0.314,0.703-0.703
			C37.215,29.955,36.898,29.639,36.512,29.639z"/>
		<path d="M40.805,40.982c-0.82,0-1.488-0.668-1.488-1.488s0.668-1.488,1.488-1.488s1.488,0.668,1.488,1.488
			S41.625,40.982,40.805,40.982z M40.805,38.791c-0.387,0-0.703,0.314-0.703,0.703c0,0.387,0.316,0.703,0.703,0.703
			s0.703-0.316,0.703-0.703C41.508,39.105,41.191,38.791,40.805,38.791z"/>
	</g>
</g>
</svg>
