<?xml version="1.0" encoding="utf-8"?>
<!-- Generator: Adobe Illustrator 16.0.0, SVG Export Plug-In . SVG Version: 6.00 Build 0)  -->
<!DOCTYPE svg PUBLIC "-//W3C//DTD SVG 1.1//EN" "http://www.w3.org/Graphics/SVG/1.1/DTD/svg11.dtd">
<svg version="1.1" id="Layer_1" xmlns="http://www.w3.org/2000/svg" xmlns:xlink="http://www.w3.org/1999/xlink" x="0px" y="0px"
	 width="48px" height="48px" viewBox="0 0 48 48" enable-background="new 0 0 48 48" xml:space="preserve">
<g>
	<polygon points="48,33.04 36.662,33.04 36.662,31.585 46.543,31.585 46.543,16.414 36.73,16.414 36.73,14.959 48,14.959 	"/>
	<polygon points="32.727,33.04 0,33.04 0,14.959 32.795,14.959 32.795,16.414 1.455,16.414 1.455,31.585 32.727,31.585 	"/>
	<g>
		<path d="M33.041,41.489h-3.096v-1.457h3.096c1.402,0,2.545-1.141,2.545-2.543V10.512c0-1.403-1.143-2.545-2.545-2.545h-3.096
			V6.511h3.096c2.205,0,4,1.795,4,4.001v26.978C37.041,39.694,35.246,41.489,33.041,41.489z"/>
		<path d="M42.682,41.489h-3.096c-2.207,0-4-1.795-4-4V10.512c0-2.206,1.793-4.001,4-4.001h3.096v1.456h-3.096
			c-1.402,0-2.545,1.142-2.545,2.545v26.978c0,1.402,1.143,2.543,2.545,2.543h3.096V41.489z"/>
	</g>
</g>
</svg>
