<?xml version="1.0" encoding="utf-8"?>
<!-- Generator: Adobe Illustrator 16.0.0, SVG Export Plug-In . SVG Version: 6.00 Build 0)  -->
<!DOCTYPE svg PUBLIC "-//W3C//DTD SVG 1.1//EN" "http://www.w3.org/Graphics/SVG/1.1/DTD/svg11.dtd">
<svg version="1.1" id="Layer_1" xmlns="http://www.w3.org/2000/svg" xmlns:xlink="http://www.w3.org/1999/xlink" x="0px" y="0px"
	 width="48px" height="48px" viewBox="0 0 48 48" enable-background="new 0 0 48 48" xml:space="preserve">
<g>
	<g>
		<g>
			<path d="M23.343,2.742H9.492c-1.029,0-1.508,0.412-1.508,1.509v3.36H5.104V3.702C5.104,0.892,5.994,0,8.807,0H40.83
				c2.811,0,3.701,0.892,3.701,3.702v3.909h-2.879v-3.36c0-1.097-0.48-1.509-1.51-1.509h-13.85V48h-2.95V2.742z"/>
		</g>
	</g>
	<g>
		<line x1="10.715" y1="37.391" x2="10.715" y2="19.885"/>
		<g>
			<rect x="9.953" y="29.082" width="1.523" height="8.309"/>
			<g>
				<path d="M10.715,19.885c1.605,4.327,4.346,9.697,7.246,13.025l-7.246-2.621L3.469,32.91
					C6.371,29.582,9.109,24.212,10.715,19.885z"/>
			</g>
		</g>
	</g>
</g>
</svg>
