<?xml version="1.0" encoding="utf-8"?>
<!-- Generator: Adobe Illustrator 16.0.0, SVG Export Plug-In . SVG Version: 6.00 Build 0)  -->
<!DOCTYPE svg PUBLIC "-//W3C//DTD SVG 1.1//EN" "http://www.w3.org/Graphics/SVG/1.1/DTD/svg11.dtd">
<svg version="1.1" id="Layer_1" xmlns="http://www.w3.org/2000/svg" xmlns:xlink="http://www.w3.org/1999/xlink" x="0px" y="0px"
	 width="48px" height="48px" viewBox="0 0 48 48" enable-background="new 0 0 48 48" xml:space="preserve">
<g>
	<polygon points="23.972,37.795 0,37.795 0,10.697 35.592,10.697 35.592,26.346 33.592,26.346 33.592,12.697 2,12.697 2,35.795 
		23.972,35.795 	"/>
	<path d="M27.191,48.001c-3.378,0-6.462-1.504-9.444-2.958c-0.788-0.385-1.572-0.768-2.356-1.118
		c-0.94-0.422-1.923-0.812-2.873-1.188c-1.406-0.559-2.86-1.136-4.263-1.844c-0.65-0.327-1.292-0.698-1.928-1.067
		c-0.309-0.179-0.616-0.356-0.922-0.527c-0.163-0.092-0.389-0.191-0.639-0.305c-1.063-0.479-2.269-1.022-2.617-2.019l-0.442-1.264
		l1.338-0.065c1.162-0.057,2.373-0.084,3.705-0.084c2.363,0,4.737,0.088,7.164,0.187c1.926,0.078,3.878,0.118,5.804,0.118
		c0.331,0,0.695,0.023,1.07,0.048c0.355,0.023,0.721,0.048,1.076,0.048c1.299,0,1.345-0.344,1.385-0.646
		c0.21-1.585-1.072-3.788-2.381-4.92c-0.846-0.732-1.846-1.257-2.905-1.813c-1.125-0.59-2.289-1.201-3.309-2.098
		c-1.767-1.562-3.197-4.079-1.914-6.467c0.572-1.064,1.553-1.627,2.836-1.627c1.759,0,3.789,1.082,5.182,1.989
		c0.55,0.358,1.089,0.739,1.63,1.121c1.303,0.92,2.533,1.789,3.951,2.382c1.087,0.454,2.312,0.609,3.608,0.773
		c1.252,0.159,2.547,0.322,3.809,0.773c1.711,0.611,3.291,1.526,4.819,2.411c0.557,0.322,1.115,0.646,1.681,0.955
		c0.188,0.103,0.401,0.224,0.634,0.356c1.148,0.656,3.099,1.801,4.139,1.669l0.748-0.008c0.033-0.002,0.068-0.004,0.104-0.007
		c0.284-0.018,0.66-0.04,1.092-0.053L48,30.725V47.32l-1.313-0.276c-0.107-0.021-0.216-0.044-0.319-0.07
		c-1.742-0.451-3.481-0.958-5.316-1.549c-1.225-0.397-2.974-0.519-4.725-0.34c-1.116,0.112-1.993,0.586-3.009,1.135
		c-0.459,0.248-0.933,0.503-1.449,0.74C30.345,47.66,28.815,48.001,27.191,48.001z M6.4,37.563c0.309,0.173,0.619,0.353,0.93,0.532
		c0.602,0.349,1.209,0.702,1.826,1.012c1.324,0.668,2.736,1.229,4.102,1.771c0.969,0.385,1.972,0.782,2.952,1.221
		c0.804,0.36,1.608,0.753,2.416,1.146c2.778,1.354,5.65,2.756,8.567,2.756c1.329,0,2.586-0.281,3.842-0.858
		c0.476-0.219,0.911-0.454,1.334-0.683c1.104-0.596,2.244-1.212,3.757-1.365c2.043-0.209,4.039-0.062,5.542,0.427
		c1.49,0.48,2.917,0.903,4.334,1.286V32.803c-0.23,0.014-0.405,0.023-0.509,0.023h-0.479c-0.084,0.004-0.172,0.004-0.258,0
		l-0.021-0.001c-1.563-0.066-3.448-1.144-4.838-1.937c-0.221-0.127-0.424-0.242-0.602-0.34c-0.579-0.316-1.151-0.647-1.723-0.979
		c-1.518-0.878-2.951-1.708-4.491-2.259c-1.056-0.377-2.188-0.521-3.386-0.672c-1.372-0.174-2.791-0.353-4.13-0.912
		c-1.62-0.679-2.998-1.652-4.332-2.593c-0.521-0.368-1.04-0.734-1.569-1.079c-1.624-1.058-3.115-1.665-4.09-1.665
		c-0.675,0-0.922,0.29-1.074,0.574c-0.942,1.754,1.063,3.656,1.475,4.021c0.838,0.737,1.847,1.267,2.916,1.827
		c1.112,0.584,2.262,1.188,3.283,2.069c1.758,1.521,3.372,4.31,3.056,6.697c-0.211,1.581-1.344,2.383-3.368,2.383
		c-0.397,0-0.809-0.026-1.206-0.053c-0.33-0.021-0.65-0.043-0.94-0.043c-1.953,0-3.933-0.04-5.885-0.12
		C11.305,37.645,8.818,37.563,6.4,37.563z"/>
	<rect x="1.848" y="7.217" width="30.056" height="2"/>
	<rect x="4.524" y="3.747" width="24.705" height="2"/>
	<rect x="7.201" width="19.35" height="2"/>
</g>
</svg>
