<?xml version="1.0" encoding="utf-8"?>
<!-- Generator: Adobe Illustrator 16.0.0, SVG Export Plug-In . SVG Version: 6.00 Build 0)  -->
<!DOCTYPE svg PUBLIC "-//W3C//DTD SVG 1.1//EN" "http://www.w3.org/Graphics/SVG/1.1/DTD/svg11.dtd">
<svg version="1.1" id="Layer_1" xmlns="http://www.w3.org/2000/svg" xmlns:xlink="http://www.w3.org/1999/xlink" x="0px" y="0px"
	 width="48px" height="48px" viewBox="0 0 48 48" enable-background="new 0 0 48 48" xml:space="preserve">
<g>
	<path d="M48,48H0V22.963L23.894-0.382L48,22.068V48z M2,46h44V22.938L23.927,2.382L2,23.805V46z"/>
	<polygon points="4.682,20.461 2.682,20.461 2.682,3.348 12.085,3.348 12.085,13.209 10.085,13.209 10.085,5.348 4.682,5.348 	"/>
	<g>
		<path d="M23.555,30.846V29.18c-0.835-0.104-1.515-0.293-2.035-0.563c-0.521-0.266-0.972-0.701-1.352-1.301
			c-0.378-0.6-0.599-1.328-0.659-2.192l1.673-0.315c0.131,0.896,0.357,1.553,0.685,1.974c0.472,0.592,1.029,0.921,1.687,0.989
			v-5.306c-0.685-0.129-1.385-0.393-2.102-0.796c-0.53-0.295-0.941-0.706-1.226-1.231c-0.29-0.524-0.429-1.119-0.429-1.787
			c0-1.184,0.417-2.146,1.256-2.878c0.565-0.494,1.395-0.796,2.501-0.908v-0.795h0.98v0.795c0.972,0.093,1.737,0.377,2.307,0.853
			c0.729,0.604,1.166,1.435,1.313,2.489l-1.723,0.259c-0.1-0.654-0.306-1.155-0.617-1.504c-0.31-0.349-0.737-0.58-1.28-0.689v4.804
			c0.841,0.21,1.396,0.373,1.664,0.491c0.522,0.228,0.942,0.506,1.271,0.834c0.327,0.326,0.578,0.714,0.752,1.165
			c0.176,0.451,0.266,0.938,0.266,1.461c0,1.156-0.366,2.119-1.1,2.892c-0.736,0.771-1.688,1.185-2.854,1.24v1.685H23.555
			L23.555,30.846z M23.555,16.254c-0.649,0.098-1.161,0.359-1.535,0.777c-0.374,0.419-0.56,0.917-0.56,1.491
			c0,0.568,0.161,1.042,0.478,1.425c0.316,0.382,0.859,0.688,1.617,0.917V16.254z M24.535,27.771
			c0.646-0.08,1.184-0.361,1.604-0.842c0.424-0.484,0.637-1.078,0.637-1.789c0-0.604-0.151-1.091-0.452-1.458
			c-0.298-0.367-0.896-0.697-1.788-0.985V27.771z"/>
	</g>
	<rect x="2.117" y="35.777" width="43.811" height="2"/>
</g>
</svg>
