<?xml version="1.0" encoding="utf-8"?>
<!-- Generator: Adobe Illustrator 16.0.0, SVG Export Plug-In . SVG Version: 6.00 Build 0)  -->
<!DOCTYPE svg PUBLIC "-//W3C//DTD SVG 1.1//EN" "http://www.w3.org/Graphics/SVG/1.1/DTD/svg11.dtd">
<svg version="1.1" id="Layer_1" xmlns="http://www.w3.org/2000/svg" xmlns:xlink="http://www.w3.org/1999/xlink" x="0px" y="0px"
	 width="48px" height="48px" viewBox="0 0 48 48" enable-background="new 0 0 48 48" xml:space="preserve">
<g>
	<path d="M12.75,48H8.021c-3.937,0-7.139-3.203-7.139-7.141V7.136C0.882,3.201,4.084,0,8.021,0h12.153
		c3.938,0,7.143,3.201,7.143,7.136v10.725c0,3.937-3.204,7.139-7.143,7.139h-0.288v15.859C19.886,44.797,16.685,48,12.75,48z
		 M8.021,2C5.187,2,2.882,4.304,2.882,7.136v33.724C2.882,43.694,5.187,46,8.021,46h4.729c2.832,0,5.136-2.306,5.136-5.141V23h2.288
		c2.835,0,5.143-2.306,5.143-5.139V7.136C25.316,4.304,23.009,2,20.174,2H8.021z"/>
	<path d="M43.049,20.212h-7.328c-2.244,0-4.07-1.825-4.07-4.069V8.466c0-2.244,1.826-4.07,4.07-4.07h7.328
		c2.244,0,4.069,1.826,4.069,4.07v7.677C47.118,18.387,45.293,20.212,43.049,20.212z M35.721,6.396c-1.142,0-2.07,0.929-2.07,2.07
		v7.677c0,1.141,0.929,2.069,2.07,2.069h7.328c1.141,0,2.069-0.928,2.069-2.069V8.466c0-1.141-0.929-2.07-2.069-2.07H35.721z"/>
	<rect x="27.458" y="11.304" width="4.463" height="2"/>
	<path d="M13.963,19.922c-4.066,0-7.375-3.309-7.375-7.376c0-4.07,3.309-7.382,7.375-7.382c4.069,0,7.379,3.312,7.379,7.382
		C21.342,16.613,18.032,19.922,13.963,19.922z M13.963,7.164c-2.964,0-5.375,2.414-5.375,5.382c0,2.964,2.411,5.376,5.375,5.376
		c2.966,0,5.379-2.412,5.379-5.376C19.342,9.578,16.929,7.164,13.963,7.164z"/>
</g>
</svg>
