<?xml version="1.0" encoding="utf-8"?>
<!-- Generator: Adobe Illustrator 16.0.0, SVG Export Plug-In . SVG Version: 6.00 Build 0)  -->
<!DOCTYPE svg PUBLIC "-//W3C//DTD SVG 1.1//EN" "http://www.w3.org/Graphics/SVG/1.1/DTD/svg11.dtd">
<svg version="1.1" id="Layer_1" xmlns="http://www.w3.org/2000/svg" xmlns:xlink="http://www.w3.org/1999/xlink" x="0px" y="0px"
	 width="48px" height="48px" viewBox="0 0 48 48" enable-background="new 0 0 48 48" xml:space="preserve">
<g>
	<g>
		<path d="M40.313,18.006C36.9,11.745,30.354,7.856,23.231,7.856c-3.217,0-6.404,0.801-9.214,2.317L13.415,9.06
			c2.996-1.616,6.39-2.47,9.816-2.47c7.587,0,14.558,4.143,18.193,10.811L40.313,18.006z"/>
		<g>
			<path d="M5.593,17.703C8.146,12.548,10.677,5.475,11.216,0l3.814,8.813l8.57,4.333C18.101,13.358,10.89,15.461,5.593,17.703z"/>
		</g>
	</g>
	<path d="M22.477,48c-2.637-0.096-5.191-0.68-7.591-1.738l0.51-1.158c2.254,0.994,4.652,1.541,7.126,1.629L22.477,48z
		 M30.176,46.818l-0.424-1.191c2.32-0.826,4.441-2.074,6.303-3.707l0.834,0.951C34.906,44.609,32.648,45.939,30.176,46.818z
		 M8.478,41.838c-1.85-1.879-3.307-4.057-4.33-6.475l1.166-0.494c0.961,2.271,2.328,4.316,4.066,6.08L8.478,41.838z M41.676,36.729
		l-1.127-0.578c1.125-2.193,1.813-4.557,2.041-7.018l1.262,0.117C43.605,31.873,42.875,34.389,41.676,36.729z M41.9,21.852
		c-0.387-1.332-0.922-2.626-1.588-3.846l1.111-0.606c0.709,1.3,1.279,2.679,1.693,4.098L41.9,21.852z"/>
</g>
</svg>
