<?xml version="1.0" encoding="utf-8"?>
<!-- Generator: Adobe Illustrator 16.0.0, SVG Export Plug-In . SVG Version: 6.00 Build 0)  -->
<!DOCTYPE svg PUBLIC "-//W3C//DTD SVG 1.1//EN" "http://www.w3.org/Graphics/SVG/1.1/DTD/svg11.dtd">
<svg version="1.1" id="Layer_1" xmlns="http://www.w3.org/2000/svg" xmlns:xlink="http://www.w3.org/1999/xlink" x="0px" y="0px"
	 width="48px" height="48px" viewBox="0 0 48 48" enable-background="new 0 0 48 48" xml:space="preserve">
<g>
	<g>
		<path d="M7.685,18.006L6.573,17.4C10.21,10.731,17.183,6.59,24.768,6.59c3.428,0,6.82,0.854,9.816,2.469l-0.602,1.114
			c-2.811-1.516-5.998-2.317-9.215-2.317C17.646,7.855,11.099,11.745,7.685,18.006z"/>
		<g>
			<path d="M42.406,17.703c-5.297-2.241-12.51-4.344-18.009-4.556l8.572-4.335L36.781,0C37.322,5.476,39.852,12.55,42.406,17.703z"
				/>
		</g>
	</g>
	<path d="M25.521,48l-0.045-1.266c2.477-0.088,4.873-0.637,7.127-1.629l0.51,1.158C30.713,47.32,28.158,47.906,25.521,48z
		 M17.823,46.818c-2.473-0.879-4.732-2.207-6.713-3.947l0.836-0.951c1.859,1.635,3.98,2.881,6.301,3.707L17.823,46.818z
		 M39.521,41.838l-0.902-0.889c1.738-1.764,3.105-3.809,4.066-6.078l1.166,0.492C42.828,37.781,41.371,39.961,39.521,41.838z
		 M6.323,36.73c-1.199-2.34-1.93-4.855-2.176-7.48l1.262-0.117c0.229,2.463,0.916,4.824,2.039,7.02L6.323,36.73z M6.097,21.852
		l-1.215-0.354c0.414-1.419,0.984-2.798,1.691-4.098l1.111,0.606C7.021,19.226,6.485,20.52,6.097,21.852z"/>
</g>
</svg>
