<?xml version="1.0" encoding="utf-8"?>
<!-- Generator: Adobe Illustrator 16.0.0, SVG Export Plug-In . SVG Version: 6.00 Build 0)  -->
<!DOCTYPE svg PUBLIC "-//W3C//DTD SVG 1.1//EN" "http://www.w3.org/Graphics/SVG/1.1/DTD/svg11.dtd">
<svg version="1.1" id="Layer_1" xmlns="http://www.w3.org/2000/svg" xmlns:xlink="http://www.w3.org/1999/xlink" x="0px" y="0px"
	 width="48px" height="48px" viewBox="0 0 48 48" enable-background="new 0 0 48 48" xml:space="preserve">
<g>
	<path d="M48.379,38.105H10.272V0h38.106V38.105z M11.753,36.627h35.146V1.478H11.753V36.627z"/>
	<path d="M37.725,48H-0.38V9.893h38.104V48z M1.099,46.52h35.146V11.371H1.099V46.52z"/>
	<rect x="41.571" y="-1.585" transform="matrix(0.6809 0.7324 -0.7324 0.6809 17.6649 -29.1736)" width="1.48" height="14.539"/>
	<rect x="41.571" y="35.043" transform="matrix(0.6809 0.7324 -0.7324 0.6809 44.4898 -17.4861)" width="1.48" height="14.539"/>
	<rect x="4.946" y="35.044" transform="matrix(0.6802 0.733 -0.733 0.6802 32.8345 9.364)" width="1.479" height="14.537"/>
	<rect x="4.946" y="-1.584" transform="matrix(0.6802 0.733 -0.733 0.6802 5.9856 -2.3496)" width="1.479" height="14.538"/>
</g>
</svg>
