<?xml version="1.0" encoding="utf-8"?>
<!-- Generator: Adobe Illustrator 16.0.0, SVG Export Plug-In . SVG Version: 6.00 Build 0)  -->
<!DOCTYPE svg PUBLIC "-//W3C//DTD SVG 1.1//EN" "http://www.w3.org/Graphics/SVG/1.1/DTD/svg11.dtd">
<svg version="1.1" id="Layer_1" xmlns="http://www.w3.org/2000/svg" xmlns:xlink="http://www.w3.org/1999/xlink" x="0px" y="0px"
	 width="48px" height="48px" viewBox="0 0 48 48" enable-background="new 0 0 48 48" xml:space="preserve">
<g>
	<path d="M24,8.898c-7.226,0-14.541-1.528-14.541-4.449C9.459,1.527,16.773,0,24,0c7.227,0,14.542,1.527,14.542,4.449
		C38.541,7.37,31.227,8.898,24,8.898z M24,1.455c-8.466,0-13.085,1.978-13.085,2.994c0,1.016,4.619,2.993,13.085,2.993
		c8.467,0,13.086-1.978,13.086-2.993C37.086,3.433,32.467,1.455,24,1.455z"/>
	<path d="M24,48c-7.226,0-14.541-1.529-14.541-4.449c0-2.922,7.314-4.451,14.541-4.451c7.227,0,14.542,1.529,14.542,4.451
		C38.541,46.471,31.227,48,24,48z M24,40.555c-8.466,0-13.085,1.979-13.085,2.996c0,1.014,4.619,2.992,13.085,2.992
		c8.467,0,13.086-1.979,13.086-2.992C37.086,42.533,32.467,40.555,24,40.555z"/>
	<rect x="9.459" y="4.449" width="1.455" height="39.102"/>
	<rect x="37.086" y="4.449" width="1.455" height="39.102"/>
</g>
</svg>
