<?xml version="1.0" encoding="utf-8"?>
<!-- Generator: Adobe Illustrator 16.0.0, SVG Export Plug-In . SVG Version: 6.00 Build 0)  -->
<!DOCTYPE svg PUBLIC "-//W3C//DTD SVG 1.1//EN" "http://www.w3.org/Graphics/SVG/1.1/DTD/svg11.dtd">
<svg version="1.1" id="Layer_1" xmlns="http://www.w3.org/2000/svg" xmlns:xlink="http://www.w3.org/1999/xlink" x="0px" y="0px"
	 width="48px" height="48px" viewBox="0 0 48 48" enable-background="new 0 0 48 48" xml:space="preserve">
<g>
	<path d="M24.083,41.15c11.719,0,18.572,1.646,20.238,2.699c-1.666,1.053-8.52,2.699-20.238,2.699
		c-11.688,0-18.535-1.637-20.225-2.691C5.753,42.666,12.825,41.15,24.083,41.15 M24.083,39.699c-10.607,0-19.459,1.422-21.506,3.314
		c-0.293,0.27-0.445,0.549-0.445,0.836c0,2.293,9.828,4.15,21.951,4.15s21.953-1.857,21.953-4.15S36.206,39.699,24.083,39.699
		L24.083,39.699z"/>
	<polygon points="3.126,43.887 1.837,43.215 24.31,0 46.163,43.223 44.868,43.879 24.292,3.182 	"/>
</g>
</svg>
