<?xml version="1.0" encoding="utf-8"?>
<!-- Generator: Adobe Illustrator 16.0.0, SVG Export Plug-In . SVG Version: 6.00 Build 0)  -->
<!DOCTYPE svg PUBLIC "-//W3C//DTD SVG 1.1//EN" "http://www.w3.org/Graphics/SVG/1.1/DTD/svg11.dtd">
<svg version="1.1" id="Layer_1" xmlns="http://www.w3.org/2000/svg" xmlns:xlink="http://www.w3.org/1999/xlink" x="0px" y="0px"
	 width="48px" height="48px" viewBox="0 0 48 48" enable-background="new 0 0 48 48" xml:space="preserve">
<g>
	<g>
		<path d="M45,47.999H3c-1.654,0-3-1.346-3-3V3.001c0-1.654,1.346-3,3-3h42c1.654,0,3,1.346,3,3v41.998
			C48,46.653,46.654,47.999,45,47.999z M3,2.001c-0.551,0-1,0.449-1,1v41.998c0,0.552,0.449,1,1,1h42c0.552,0,1-0.448,1-1V3.001
			c0-0.551-0.448-1-1-1H3z"/>
	</g>
	<g>
		<g>
			<path d="M7.14,15.936h-2v-3.61c0-3.936,3.204-7.138,7.142-7.138h3.347v2h-3.347c-2.835,0-5.142,2.305-5.142,5.138V15.936z"/>
			<path d="M42.857,15.936h-2v-3.61c0-2.833-2.306-5.138-5.14-5.138h-3.351v-2h3.351c3.937,0,7.14,3.202,7.14,7.138V15.936z"/>
		</g>
		<g>
			<path d="M15.629,42.816h-3.347c-3.938,0-7.142-3.203-7.142-7.14v-3.61h2v3.61c0,2.834,2.307,5.14,5.142,5.14h3.347V42.816z"/>
			<path d="M35.718,42.816h-3.351v-2h3.351c2.834,0,5.14-2.306,5.14-5.14v-3.61h2v3.61C42.857,39.613,39.654,42.816,35.718,42.816z"
				/>
		</g>
	</g>
	<path d="M24,34.18c-5.612,0-10.178-4.566-10.178-10.179c0-5.612,4.566-10.178,10.178-10.178s10.178,4.566,10.178,10.178
		C34.178,29.613,29.612,34.18,24,34.18z M24,15.823c-4.509,0-8.178,3.668-8.178,8.178c0,4.51,3.669,8.179,8.178,8.179
		c4.509,0,8.178-3.669,8.178-8.179C32.178,19.492,28.509,15.823,24,15.823z"/>
</g>
</svg>
