<?xml version="1.0" encoding="utf-8"?>
<!-- Generator: Adobe Illustrator 16.0.0, SVG Export Plug-In . SVG Version: 6.00 Build 0)  -->
<!DOCTYPE svg PUBLIC "-//W3C//DTD SVG 1.1//EN" "http://www.w3.org/Graphics/SVG/1.1/DTD/svg11.dtd">
<svg version="1.1" id="Layer_1" xmlns="http://www.w3.org/2000/svg" xmlns:xlink="http://www.w3.org/1999/xlink" x="0px" y="0px"
	 width="48px" height="48px" viewBox="0 0 48 48" enable-background="new 0 0 48 48" xml:space="preserve">
<g>
	<path d="M44.998,7.863v31.942H3V7.863H44.998 M46.5,6.361h-45v34.946h45V6.361L46.5,6.361z"/>
	<g>
		<rect x="43.646" y="4.86" width="4.354" height="4.353"/>
		<path d="M46.498,6.362v1.349h-1.35V6.362H46.498 M48,4.86h-4.354v4.353H48V4.86L48,4.86z"/>
	</g>
	<g>
		<rect x="43.646" y="38.786" width="4.354" height="4.354"/>
		<path d="M46.498,40.288v1.35h-1.35v-1.35H46.498 M48,38.786h-4.354v4.354H48V38.786L48,38.786z"/>
	</g>
	<g>
		<rect y="4.86" width="4.352" height="4.353"/>
		<path d="M2.85,6.362v1.349H1.5V6.362H2.85 M4.352,4.86H0v4.353h4.352V4.86L4.352,4.86z"/>
	</g>
	<g>
		<rect y="38.786" width="4.352" height="4.354"/>
		<path d="M2.85,40.288v1.35H1.5v-1.35H2.85 M4.352,38.786H0v4.354h4.352V38.786L4.352,38.786z"/>
	</g>
	<g>
		<rect x="21.822" y="4.86" width="4.354" height="4.353"/>
		<path d="M24.674,6.362v1.349h-1.35V6.362H24.674 M26.176,4.86h-4.354v4.353h4.354V4.86L26.176,4.86z"/>
	</g>
	<g>
		<rect x="43.646" y="21.658" width="4.354" height="4.353"/>
		<path d="M46.498,23.16v1.349h-1.35V23.16H46.498 M48,21.658h-4.354v4.353H48V21.658L48,21.658z"/>
	</g>
	<g>
		<rect y="21.658" width="4.352" height="4.353"/>
		<path d="M2.85,23.16v1.349H1.5V23.16H2.85 M4.352,21.658H0v4.353h4.352V21.658L4.352,21.658z"/>
	</g>
	<g>
		<rect x="21.822" y="38.786" width="4.354" height="4.354"/>
		<path d="M24.674,40.288v1.35h-1.35v-1.35H24.674 M26.176,38.786h-4.354v4.354h4.354V38.786L26.176,38.786z"/>
	</g>
	<g>
		<rect x="21.822" y="21.658" width="4.354" height="4.353"/>
		<path d="M24.674,23.16v1.349h-1.35V23.16H24.674 M26.176,21.658h-4.354v4.353h4.354V21.658L26.176,21.658z"/>
	</g>
</g>
</svg>
