<?xml version="1.0" encoding="utf-8"?>
<!-- Generator: Adobe Illustrator 16.0.0, SVG Export Plug-In . SVG Version: 6.00 Build 0)  -->
<!DOCTYPE svg PUBLIC "-//W3C//DTD SVG 1.1//EN" "http://www.w3.org/Graphics/SVG/1.1/DTD/svg11.dtd">
<svg version="1.1" id="Layer_1" xmlns="http://www.w3.org/2000/svg" xmlns:xlink="http://www.w3.org/1999/xlink" x="0px" y="0px"
	 width="48px" height="48px" viewBox="0 0 48 48" enable-background="new 0 0 48 48" xml:space="preserve">
<g>
	<path d="M24,46.867c-12.607,0-22.865-10.26-22.865-22.866C1.135,11.393,11.393,1.135,24,1.135
		c12.608,0,22.866,10.258,22.866,22.866C46.865,36.607,36.607,46.867,24,46.867z M24,2.637c-11.781,0-21.363,9.583-21.363,21.364
		c0,11.78,9.582,21.364,21.363,21.364c11.78,0,21.364-9.584,21.364-21.364C45.363,12.22,35.779,2.637,24,2.637z"/>
	<g>
		<rect x="21.824" width="4.352" height="4.353"/>
		<path d="M24.674,1.502v1.35h-1.348v-1.35H24.674 M26.176,0h-4.352v4.353h4.352V0L26.176,0z"/>
	</g>
	<g>
		<rect x="21.824" y="43.648" width="4.352" height="4.352"/>
		<path d="M24.674,45.148v1.35h-1.348v-1.35H24.674 M26.176,43.648h-4.352V48h4.352V43.648L26.176,43.648z"/>
	</g>
	<g>
		<rect x="43.648" y="21.825" width="4.352" height="4.351"/>
		<path d="M46.498,23.327v1.348h-1.35v-1.348H46.498 M48,21.825h-4.352v4.351H48V21.825L48,21.825z"/>
	</g>
	<g>
		<rect y="21.825" width="4.352" height="4.351"/>
		<path d="M2.85,23.327v1.348H1.5v-1.348H2.85 M4.352,21.825H0v4.351h4.352V21.825L4.352,21.825z"/>
	</g>
</g>
</svg>
