<?xml version="1.0" encoding="utf-8"?>
<!-- Generator: Adobe Illustrator 16.0.0, SVG Export Plug-In . SVG Version: 6.00 Build 0)  -->
<!DOCTYPE svg PUBLIC "-//W3C//DTD SVG 1.1//EN" "http://www.w3.org/Graphics/SVG/1.1/DTD/svg11.dtd">
<svg version="1.1" id="Layer_1" xmlns="http://www.w3.org/2000/svg" xmlns:xlink="http://www.w3.org/1999/xlink" x="0px" y="0px"
	 width="48px" height="48px" viewBox="0 0 48 48" enable-background="new 0 0 48 48" xml:space="preserve">
<g>
	<path d="M41.207,15.223c2.789,0,5.057,2.27,5.057,5.058c0,2.789-2.268,5.056-5.057,5.056c-2.787,0-5.057-2.267-5.057-5.056
		C36.15,17.492,38.42,15.223,41.207,15.223 M41.207,13.742c-3.609,0-6.537,2.927-6.537,6.538s2.928,6.538,6.537,6.538
		c3.611,0,6.537-2.927,6.537-6.538S44.818,13.742,41.207,13.742L41.207,13.742z"/>
	<path d="M25.834,33.779c3.512,0,6.369,2.857,6.369,6.371c0,3.512-2.857,6.369-6.369,6.369c-3.514,0-6.372-2.857-6.372-6.369
		C19.462,36.637,22.32,33.779,25.834,33.779 M25.834,32.299c-4.336,0-7.852,3.516-7.852,7.852c0,4.334,3.515,7.85,7.852,7.85
		c4.336,0,7.85-3.516,7.85-7.85C33.684,35.814,30.17,32.299,25.834,32.299L25.834,32.299z"/>
	<rect x="-1.454" y="8.595" transform="matrix(0.8952 0.4457 -0.4457 0.8952 6.0483 -7.0457)" width="38.913" height="1.481"/>
	<rect x="4.364" y="16.195" transform="matrix(0.1851 0.9827 -0.9827 0.1851 33.3635 -6.3629)" width="32.308" height="1.481"/>
</g>
</svg>
