<?xml version="1.0" encoding="utf-8"?>
<!-- Generator: Adobe Illustrator 16.0.0, SVG Export Plug-In . SVG Version: 6.00 Build 0)  -->
<!DOCTYPE svg PUBLIC "-//W3C//DTD SVG 1.1//EN" "http://www.w3.org/Graphics/SVG/1.1/DTD/svg11.dtd">
<svg version="1.1" id="Layer_1" xmlns="http://www.w3.org/2000/svg" xmlns:xlink="http://www.w3.org/1999/xlink" x="0px" y="0px"
	 width="48px" height="48px" viewBox="0 0 48 48" enable-background="new 0 0 48 48" xml:space="preserve">
<g>
	<path d="M24.75,43.1h-1.502v-2.162h1.502V43.1z M24.75,34.932h-1.502v-6.006h1.502V34.932z M24.75,22.919h-1.502v-6.006h1.502
		V22.919z M24.75,10.907h-1.502V4.9h1.502V10.907z"/>
	<path d="M46.498,14.117v19.766l-14.859-9.882L46.498,14.117 M48,11.314L28.928,24.001L48,36.686V11.314L48,11.314z"/>
	<path d="M1.5,14.117l14.859,9.884L1.5,33.883V14.117 M0,11.314v25.371l19.07-12.685L0,11.314L0,11.314z"/>
</g>
</svg>
