<?xml version="1.0" encoding="utf-8"?>
<!-- Generator: Adobe Illustrator 16.0.0, SVG Export Plug-In . SVG Version: 6.00 Build 0)  -->
<!DOCTYPE svg PUBLIC "-//W3C//DTD SVG 1.1//EN" "http://www.w3.org/Graphics/SVG/1.1/DTD/svg11.dtd">
<svg version="1.1" id="Layer_1" xmlns="http://www.w3.org/2000/svg" xmlns:xlink="http://www.w3.org/1999/xlink" x="0px" y="0px"
	 width="48px" height="48px" viewBox="0 0 48 48" enable-background="new 0 0 48 48" xml:space="preserve">
<g>
	<path d="M9.578,14.167l14.781,9.834L9.578,33.833V14.167 M8.084,11.379v25.243l18.973-12.621L8.084,11.379L8.084,11.379z"/>
	<path d="M30.52,14.167l14.783,9.834L30.52,33.833V14.167 M29.025,11.379v25.243L48,24.001L29.025,11.379L29.025,11.379z"/>
	<path d="M1.494,43.003H0v-2.15h1.494V43.003z M1.494,34.876H0v-5.975h1.494V34.876z M1.494,22.925H0v-5.977h1.494V22.925z
		 M1.494,10.973H0V4.997h1.494V10.973z"/>
</g>
</svg>
