<?xml version="1.0" encoding="utf-8"?>
<!-- Generator: Adobe Illustrator 16.0.0, SVG Export Plug-In . SVG Version: 6.00 Build 0)  -->
<!DOCTYPE svg PUBLIC "-//W3C//DTD SVG 1.1//EN" "http://www.w3.org/Graphics/SVG/1.1/DTD/svg11.dtd">
<svg version="1.1" id="Layer_1" xmlns="http://www.w3.org/2000/svg" xmlns:xlink="http://www.w3.org/1999/xlink" x="0px" y="0px"
	 width="48px" height="48px" viewBox="0 0 48 48" enable-background="new 0 0 48 48" xml:space="preserve">
<g>
	<path d="M2,28.979H0c0-17.211,13.156-18.323,13.289-18.332l27.53-0.002v2h-27.46C12.963,12.677,2,13.68,2,28.979z"/>
	<polygon points="31.165,21.077 29.878,19.547 39.287,11.625 29.859,3.294 31.184,1.795 42.35,11.663 	"/>
	<path d="M7.18,37.357v-2h27.46C35.035,35.325,46,34.321,46,19.023h2c0,17.212-13.157,18.323-13.29,18.333L7.18,37.357z"/>
	<polygon points="16.816,46.204 5.649,36.339 16.834,26.925 18.122,28.454 8.711,36.376 18.14,44.706 	"/>
</g>
</svg>
