<?xml version="1.0" encoding="utf-8"?>
<!-- Generator: Adobe Illustrator 16.0.0, SVG Export Plug-In . SVG Version: 6.00 Build 0)  -->
<!DOCTYPE svg PUBLIC "-//W3C//DTD SVG 1.1//EN" "http://www.w3.org/Graphics/SVG/1.1/DTD/svg11.dtd">
<svg version="1.1" id="Layer_1" xmlns="http://www.w3.org/2000/svg" xmlns:xlink="http://www.w3.org/1999/xlink" x="0px" y="0px"
	 width="48px" height="48px" viewBox="0 0 48 48" enable-background="new 0 0 48 48" xml:space="preserve">
<g>
	<g>
		<g>
			<path fill-rule="evenodd" clip-rule="evenodd" d="M14.896,9.944c-0.406-0.265-0.755-0.608-1.022-1.014l-6.521,7.518l2.719-0.94
				L14.896,9.944z M27.735,9.405l2.717-0.938L20.286,6.501c0.022,0.162,0.049,0.325,0.049,0.494c0,0.332-0.061,0.646-0.146,0.952
				L27.735,9.405z M12.372,25.272c-2.234,0.76-3.32,2.906-2.563,5.131c0.756,2.223,2.924,3.264,5.159,2.504
				c2.225-0.756,3.309-2.902,2.553-5.127C16.764,25.558,14.597,24.517,12.372,25.272z M14.493,31.513
				c-1.371,0.467-2.604-0.287-3.069-1.658c-0.47-1.385,0.051-2.721,1.423-3.188c1.36-0.463,2.588,0.281,3.059,1.664
				C16.371,29.702,15.854,31.052,14.493,31.513z M27.89,26.823l-0.572-1.682l3.574-1.216l-0.471-1.383l-3.574,1.215l-0.527-1.549
				l3.652-1.241l-0.471-1.383l-5.222,1.775l2.509,7.381l5.223-1.775l-0.471-1.385L27.89,26.823z M47.751,25.981l-4.902-14.883
				c-0.852-2.589-3.652-4.001-6.24-3.149L3.397,18.887c-2.59,0.853-4.002,3.652-3.148,6.241l4.9,14.883
				c0.854,2.59,3.652,4.002,6.242,3.15l33.211-10.938C47.192,31.37,48.604,28.569,47.751,25.981z M44.011,30.429L10.802,41.366
				c-1.602,0.527-3.37-0.332-3.897-1.932L2.003,24.55c-0.526-1.599,0.385-3.342,1.984-3.87L37.198,9.743
				c1.602-0.527,3.369,0.334,3.896,1.933l4.9,14.884C46.524,28.159,45.612,29.901,44.011,30.429z M20.819,22.537l-3.452,1.174
				l2.509,7.38l1.572-0.535l-0.896-2.633l1.881-0.641c1.594-0.541,2.109-1.926,1.674-3.208
				C23.666,22.779,22.423,21.991,20.819,22.537z M21.741,25.976l-1.66,0.564l-0.674-1.98l1.66-0.564
				c0.62-0.211,1.224,0.002,1.434,0.623C22.708,25.228,22.36,25.765,21.741,25.976z M35.761,17.456l1.578,4.637l-4.996-3.474
				l-1.615,0.549l2.51,7.38l1.57-0.535l-1.637-4.812l5.154,3.616l1.516-0.515l-2.508-7.379L35.761,17.456z M16.812,9.394
				c1.326,0,2.401-1.075,2.401-2.402c0-1.325-1.075-2.4-2.401-2.4s-2.4,1.075-2.4,2.4C14.411,8.318,15.485,9.394,16.812,9.394z"/>
		</g>
	</g>
</g>
</svg>
