<?xml version="1.0" encoding="utf-8"?>
<!-- Generator: Adobe Illustrator 16.0.0, SVG Export Plug-In . SVG Version: 6.00 Build 0)  -->
<!DOCTYPE svg PUBLIC "-//W3C//DTD SVG 1.1//EN" "http://www.w3.org/Graphics/SVG/1.1/DTD/svg11.dtd">
<svg version="1.1" id="Layer_1" xmlns="http://www.w3.org/2000/svg" xmlns:xlink="http://www.w3.org/1999/xlink" x="0px" y="0px"
	 width="48px" height="48px" viewBox="0 0 48 48" enable-background="new 0 0 48 48" xml:space="preserve">
<g>
	<path d="M45.697,40.73H2.303C1.033,40.73,0,39.698,0,38.43V9.572C0,8.303,1.033,7.27,2.303,7.27h43.395
		C46.968,7.27,48,8.303,48,9.572V38.43C48,39.698,46.967,40.73,45.697,40.73z M2.303,9.27C2.136,9.27,2,9.405,2,9.572V38.43
		c0,0.166,0.136,0.301,0.303,0.301h43.394c0.167,0,0.303-0.135,0.303-0.301V9.572c0-0.167-0.136-0.302-0.302-0.302H2.303z"/>
	<rect x="6.722" y="25.93" width="24.167" height="2"/>
	<rect x="6.722" y="31.788" width="13.463" height="2"/>
</g>
</svg>
