<?xml version="1.0" encoding="utf-8"?>
<!-- Generator: Adobe Illustrator 16.0.0, SVG Export Plug-In . SVG Version: 6.00 Build 0)  -->
<!DOCTYPE svg PUBLIC "-//W3C//DTD SVG 1.1//EN" "http://www.w3.org/Graphics/SVG/1.1/DTD/svg11.dtd">
<svg version="1.1" id="Layer_1" xmlns="http://www.w3.org/2000/svg" xmlns:xlink="http://www.w3.org/1999/xlink" x="0px" y="0px"
	 width="48px" height="48px" viewBox="0 0 48 48" enable-background="new 0 0 48 48" xml:space="preserve">
<g>
	<rect x="6.143" y="29.225" width="22.244" height="2"/>
	<rect x="6.143" y="34.616" width="12.394" height="2"/>
	<path d="M42.342,27.604v13.207c0,0.176-0.145,0.321-0.322,0.321H2.076c-0.178,0-0.322-0.146-0.322-0.321V14.245
		c0-0.178,0.145-0.321,0.322-0.321h22.703c0.059-0.599,0.174-1.182,0.311-1.754H2.076C0.93,12.17,0,13.1,0,14.245v26.565
		c0,1.143,0.93,2.073,2.076,2.073H42.02c1.146,0,2.076-0.932,2.076-2.073V26.833C43.535,27.134,42.945,27.384,42.342,27.604z"/>
	<g>
		<path d="M37.857,7.116c4.49,0,8.143,3.651,8.143,8.139c0,4.489-3.652,8.141-8.143,8.141c-4.487,0-8.14-3.652-8.14-8.141
			C29.719,10.767,33.37,7.116,37.857,7.116 M37.857,5.116c-5.601,0-10.14,4.539-10.14,10.139c0,5.601,4.539,10.142,10.14,10.142
			C43.461,25.396,48,20.856,48,15.255C48,9.655,43.461,5.116,37.857,5.116L37.857,5.116z"/>
	</g>
	<g>
		<rect x="32.664" y="14.255" width="10.391" height="2"/>
		<rect x="36.857" y="10.062" width="2" height="10.388"/>
	</g>
</g>
</svg>
