<?xml version="1.0" encoding="utf-8"?>
<!-- Generator: Adobe Illustrator 16.0.0, SVG Export Plug-In . SVG Version: 6.00 Build 0)  -->
<!DOCTYPE svg PUBLIC "-//W3C//DTD SVG 1.1//EN" "http://www.w3.org/Graphics/SVG/1.1/DTD/svg11.dtd">
<svg version="1.1" id="Layer_1" xmlns="http://www.w3.org/2000/svg" xmlns:xlink="http://www.w3.org/1999/xlink" x="0px" y="0px"
	 width="48px" height="48px" viewBox="0 0 48 48" enable-background="new 0 0 48 48" xml:space="preserve">
<g>
	<path d="M47,47.936H2.646c-0.552,0-1-0.447-1-1V21.194c0-0.552,0.448-1,1-1H47c0.553,0,1,0.448,1,1v25.742
		C48,47.488,47.553,47.936,47,47.936z M3.646,45.936H46V22.194H3.646V45.936z"/>
	<path d="M3.303,21.792c-0.462,0-0.877-0.322-0.977-0.792L0.022,10.2c-0.056-0.26-0.005-0.533,0.141-0.755
		c0.146-0.223,0.375-0.379,0.635-0.433l43.417-8.928c0.534-0.112,1.064,0.234,1.179,0.771l2.304,10.803
		c0.056,0.261,0.005,0.533-0.141,0.756c-0.146,0.223-0.375,0.378-0.636,0.432L3.505,21.771C3.438,21.786,3.37,21.792,3.303,21.792z
		 M2.188,10.768l1.887,8.845l41.457-8.523l-1.886-8.847L2.188,10.768z"/>
	<path d="M47,33.232H2.646c-0.552,0-1-0.447-1-1V21.194c0-0.552,0.448-1,1-1H47c0.553,0,1,0.448,1,1v11.039
		C48,32.785,47.553,33.232,47,33.232z M3.646,31.232H46v-9.039H3.646V31.232z"/>
	<path d="M5.418,32.193c-0.214,0-0.429-0.068-0.611-0.209c-0.437-0.338-0.517-0.966-0.179-1.402l7.111-9.197
		c0.337-0.438,0.966-0.517,1.403-0.179c0.437,0.338,0.517,0.966,0.179,1.403L6.21,31.805C6.013,32.06,5.717,32.193,5.418,32.193z"/>
	<path d="M14.335,32.193c-0.214,0-0.429-0.068-0.611-0.209c-0.437-0.338-0.517-0.966-0.179-1.403l7.117-9.196
		c0.339-0.438,0.967-0.516,1.403-0.179c0.437,0.338,0.517,0.966,0.179,1.403l-7.117,9.197C14.93,32.06,14.634,32.193,14.335,32.193z
		"/>
	<path d="M23.257,32.193c-0.214,0-0.429-0.068-0.611-0.209c-0.437-0.338-0.517-0.966-0.179-1.403l7.115-9.196
		c0.339-0.438,0.966-0.516,1.403-0.179c0.437,0.338,0.517,0.966,0.179,1.403l-7.115,9.197C23.852,32.06,23.556,32.193,23.257,32.193
		z"/>
	<path d="M32.181,32.193c-0.214,0-0.429-0.068-0.61-0.209c-0.438-0.338-0.518-0.966-0.18-1.402l7.112-9.197
		c0.339-0.438,0.968-0.516,1.402-0.179c0.438,0.338,0.518,0.966,0.18,1.403l-7.112,9.196C32.775,32.06,32.479,32.193,32.181,32.193z
		"/>
	<path d="M41.103,32.193c-0.213,0-0.429-0.068-0.61-0.209c-0.438-0.338-0.518-0.966-0.18-1.402l5.896-7.628
		c0.339-0.437,0.966-0.519,1.402-0.179c0.438,0.337,0.518,0.966,0.18,1.403l-5.896,7.627C41.697,32.06,41.401,32.193,41.103,32.193z
		"/>
	<path d="M5.825,20.337c-0.146,0-0.294-0.032-0.435-0.1c-0.497-0.24-0.706-0.838-0.465-1.335L9.966,8.469
		c0.24-0.498,0.837-0.707,1.335-0.465c0.497,0.24,0.706,0.838,0.465,1.335L6.726,19.772C6.553,20.129,6.196,20.337,5.825,20.337z"/>
	<path d="M14.559,18.539c-0.146,0-0.294-0.032-0.435-0.1c-0.498-0.24-0.706-0.838-0.465-1.335L18.7,6.673
		c0.24-0.498,0.838-0.706,1.335-0.465c0.498,0.24,0.706,0.838,0.465,1.335l-5.041,10.431C15.287,18.331,14.93,18.539,14.559,18.539z
		"/>
	<path d="M23.289,16.744c-0.146,0-0.294-0.032-0.435-0.1c-0.498-0.24-0.706-0.838-0.465-1.335l5.042-10.431
		c0.24-0.496,0.838-0.705,1.336-0.465c0.497,0.24,0.705,0.838,0.465,1.335l-5.042,10.431C24.017,16.536,23.66,16.744,23.289,16.744z
		"/>
	<path d="M32.021,14.948c-0.146,0-0.294-0.032-0.435-0.1c-0.497-0.241-0.705-0.838-0.465-1.335l5.043-10.43
		c0.241-0.497,0.837-0.706,1.336-0.465c0.497,0.241,0.705,0.838,0.465,1.335l-5.043,10.43C32.749,14.74,32.393,14.948,32.021,14.948
		z"/>
	<path d="M40.751,13.153c-0.146,0-0.294-0.032-0.435-0.1c-0.497-0.241-0.705-0.838-0.465-1.336l4.184-8.65
		c0.241-0.496,0.837-0.706,1.336-0.465c0.497,0.241,0.705,0.838,0.465,1.336l-4.184,8.65C41.479,12.945,41.123,13.153,40.751,13.153
		z"/>
	<path d="M14.559,40.363H8.972c-0.552,0-1-0.447-1-1s0.448-1,1-1h5.587c0.552,0,1,0.447,1,1S15.111,40.363,14.559,40.363z"/>
	<path d="M37.334,40.363h-5.583c-0.553,0-1-0.447-1-1s0.447-1,1-1h5.583c0.553,0,1,0.447,1,1S37.887,40.363,37.334,40.363z"/>
</g>
</svg>
