<?xml version="1.0" encoding="utf-8"?>
<!-- Generator: Adobe Illustrator 16.0.0, SVG Export Plug-In . SVG Version: 6.00 Build 0)  -->
<!DOCTYPE svg PUBLIC "-//W3C//DTD SVG 1.1//EN" "http://www.w3.org/Graphics/SVG/1.1/DTD/svg11.dtd">
<svg version="1.1" id="Layer_1" xmlns="http://www.w3.org/2000/svg" xmlns:xlink="http://www.w3.org/1999/xlink" x="0px" y="0px"
	 width="48px" height="48px" viewBox="0 0 48 48" enable-background="new 0 0 48 48" xml:space="preserve">
<g>
	<path d="M6.486,34.827h-3.96c-0.165,0-0.298-0.136-0.298-0.3V18.069h4.258v-3.254H2.228V9.872c0-0.164,0.134-0.298,0.298-0.298
		H39.6c0.164,0,0.297,0.135,0.297,0.298v2.488h1.629V9.872c0-1.062-0.863-1.925-1.926-1.925H2.526C1.464,7.947,0.6,8.81,0.6,9.872
		v24.655c0,1.063,0.864,1.927,1.926,1.927h3.96V34.827z"/>
	<g>
		<g>
			<path d="M45.484,41.052H8.412c-1.165,0-2.112-0.946-2.112-2.108V14.287c0-1.165,0.948-2.113,2.112-2.113h37.072
				c1.164,0,2.113,0.948,2.113,2.113v24.656C47.598,40.105,46.648,41.052,45.484,41.052z M8.412,14.174
				c-0.063,0-0.112,0.05-0.112,0.113v24.656c0,0.06,0.05,0.107,0.112,0.107h37.072c0.063,0,0.113-0.049,0.113-0.107V14.287
				c0-0.063-0.051-0.113-0.113-0.113H8.412z"/>
		</g>
		<rect x="12.188" y="28.305" width="20.645" height="1.627"/>
		<rect x="12.188" y="33.311" width="11.503" height="1.625"/>
	</g>
</g>
</svg>
