<?xml version="1.0" encoding="utf-8"?>
<!-- Generator: Adobe Illustrator 16.0.0, SVG Export Plug-In . SVG Version: 6.00 Build 0)  -->
<!DOCTYPE svg PUBLIC "-//W3C//DTD SVG 1.1//EN" "http://www.w3.org/Graphics/SVG/1.1/DTD/svg11.dtd">
<svg version="1.1" id="Layer_1" xmlns="http://www.w3.org/2000/svg" xmlns:xlink="http://www.w3.org/1999/xlink" x="0px" y="0px"
	 width="48px" height="48px" viewBox="0 0 48 48" enable-background="new 0 0 48 48" xml:space="preserve">
<g>
	<g>
		<path d="M17.443,23.003v1.998h2.024c-0.033-0.328-0.051-0.66-0.051-1c0-0.336,0.018-0.67,0.051-0.998H17.443z"/>
		<path d="M39.016,23.003c-0.197-1.965-0.977-3.756-2.158-5.206l1.434-1.433l-1.412-1.412l-1.434,1.434
			c-1.449-1.182-3.24-1.96-5.205-2.159v-2.022h-1.998v2.022c0.33-0.032,0.662-0.051,0.998-0.051c-2.352,0-4.512,0.832-6.203,2.21
			h0.002l-1.434-1.434l-1.412,1.412l1.433,1.435v-0.002c-1.379,1.692-2.209,3.85-2.209,6.204c0,2.355,0.83,4.512,2.209,6.203
			l-1.433,1.434l1.412,1.412l1.434-1.434l0,0c1.691,1.379,3.85,2.209,6.201,2.209c-0.336,0-0.668-0.018-0.998-0.051V35.8h1.998
			v-2.025c1.965-0.197,3.756-0.975,5.205-2.158l1.434,1.434l1.412-1.414l-1.434-1.432c1.381-1.691,2.209-3.85,2.209-6.203
			c0,0.34-0.018,0.67-0.051,1h2.023v-1.998H39.016z M29.24,31.827c-4.314,0-7.826-3.512-7.826-7.826
			c0-4.316,3.512-7.827,7.826-7.827c4.316,0,7.83,3.511,7.83,7.827C37.07,28.315,33.557,31.827,29.24,31.827z"/>
		<path d="M29.242,19.19c-2.652,0-4.811,2.158-4.811,4.811s2.159,4.811,4.811,4.811s4.811-2.158,4.811-4.811
			S31.895,19.19,29.242,19.19z M29.242,26.813c-1.551,0-2.813-1.262-2.813-2.813s1.262-2.813,2.813-2.813s2.813,1.262,2.813,2.813
			S30.793,26.813,29.242,26.813z"/>
	</g>
	<path d="M11.334,19.706H2.018C0.906,19.706,0,18.801,0,17.688v-6.79c0-1.112,0.906-2.016,2.018-2.016h9.316V19.706z M2.018,10.879
		l-0.02,6.809l7.339,0.017v-6.825H2.018z"/>
	<g>
		<rect x="7.73" y="21.703" width="1.996" height="5.155"/>
		<polygon points="3.734,1.188 3.734,7.883 5.732,7.883 5.732,3.186 46.004,3.186 46.004,44.815 5.732,44.815 5.732,40.679 
			3.734,40.679 3.734,46.812 48,46.812 48,1.188 		"/>
	</g>
	<path d="M11.334,39.681H2.018C0.906,39.681,0,38.776,0,37.663v-6.791c0-1.111,0.906-2.016,2.018-2.016h9.316V39.681z M2.018,30.854
		l-0.02,6.809l7.339,0.016v-6.824H2.018z"/>
</g>
</svg>
