<?xml version="1.0" encoding="utf-8"?>
<!-- Generator: Adobe Illustrator 16.0.0, SVG Export Plug-In . SVG Version: 6.00 Build 0)  -->
<!DOCTYPE svg PUBLIC "-//W3C//DTD SVG 1.1//EN" "http://www.w3.org/Graphics/SVG/1.1/DTD/svg11.dtd">
<svg version="1.1" id="Layer_1" xmlns="http://www.w3.org/2000/svg" xmlns:xlink="http://www.w3.org/1999/xlink" x="0px" y="0px"
	 width="48px" height="48px" viewBox="0 0 48 48" enable-background="new 0 0 48 48" xml:space="preserve">
<g>
	<path d="M24.001,6.604c9.591,0,17.394,7.803,17.394,17.395s-7.803,17.396-17.394,17.396c-9.593,0-17.396-7.805-17.396-17.396
		S14.408,6.604,24.001,6.604 M24.001,5.103c-10.438,0-18.898,8.46-18.898,18.896c0,10.438,8.461,18.896,18.898,18.896
		c10.435,0,18.896-8.459,18.896-18.896C42.896,13.563,34.436,5.103,24.001,5.103L24.001,5.103z"/>
	<g>
		<line x1="24" y1="36.304" x2="24" y2="39.69"/>
		<rect x="23.249" y="36.304" width="1.501" height="3.387"/>
	</g>
	<g>
		<line x1="24" y1="8.309" x2="24" y2="11.715"/>
		<rect x="23.249" y="8.309" width="1.501" height="3.406"/>
	</g>
	<g>
		<g>
			<line x1="24" y1="-0.001" x2="24" y2="3.346"/>
			<rect x="23.249" y="-0.001" width="1.501" height="3.347"/>
		</g>
		<g>
			<line x1="24" y1="44.653" x2="24" y2="48.001"/>
			<rect x="23.249" y="44.653" width="1.501" height="3.348"/>
		</g>
	</g>
	<g>
		<g>
			<line x1="48" y1="23.999" x2="44.652" y2="23.999"/>
			<rect x="44.652" y="23.249" width="3.348" height="1.502"/>
		</g>
		<g>
			<line x1="3.347" y1="23.999" x2="0" y2="23.999"/>
			<rect y="23.249" width="3.347" height="1.502"/>
		</g>
	</g>
	<g>
		<line x1="11.912" y1="23.999" x2="8.31" y2="23.999"/>
		<rect x="8.31" y="23.249" width="3.603" height="1.502"/>
	</g>
	<g>
		<line x1="39.689" y1="23.999" x2="36.125" y2="23.999"/>
		<rect x="36.125" y="23.249" width="3.564" height="1.502"/>
	</g>
	<path d="M24.001,12.627c6.269,0,11.37,5.102,11.37,11.372c0,6.271-5.102,11.373-11.37,11.373c-6.271,0-11.373-5.102-11.373-11.373
		C12.628,17.729,17.729,12.627,24.001,12.627 M24.001,11.126c-7.111,0-12.875,5.763-12.875,12.873
		c0,7.111,5.764,12.875,12.875,12.875c7.108,0,12.872-5.764,12.872-12.875C36.873,16.889,31.109,11.126,24.001,11.126L24.001,11.126
		z"/>
</g>
</svg>
