<?xml version="1.0" encoding="utf-8"?>
<!-- Generator: Adobe Illustrator 16.0.0, SVG Export Plug-In . SVG Version: 6.00 Build 0)  -->
<!DOCTYPE svg PUBLIC "-//W3C//DTD SVG 1.1//EN" "http://www.w3.org/Graphics/SVG/1.1/DTD/svg11.dtd">
<svg version="1.1" id="Layer_1" xmlns="http://www.w3.org/2000/svg" xmlns:xlink="http://www.w3.org/1999/xlink" x="0px" y="0px"
	 width="48px" height="48px" viewBox="0 0 48 48" enable-background="new 0 0 48 48" xml:space="preserve">
<g>
	<path d="M24.184,28.424c-2.17,0-3.936-1.766-3.936-3.936s1.766-3.936,3.936-3.936s3.936,1.766,3.936,3.936
		S26.354,28.424,24.184,28.424z M24.184,22.552c-1.067,0-1.936,0.869-1.936,1.936c0,1.068,0.869,1.936,1.936,1.936
		c1.068,0,1.936-0.868,1.936-1.936C26.12,23.42,25.252,22.552,24.184,22.552z"/>
	<path d="M34.971,48H13.03V34.971H0V13.029h13.03V0h21.941v13.029H48v21.942H34.971V48z M15.03,46h17.941V32.971H46V15.029H32.971V2
		H15.03v13.029H2v17.942h13.03V46z"/>
</g>
</svg>
