<?xml version="1.0" encoding="utf-8"?>
<!-- Generator: Adobe Illustrator 16.0.0, SVG Export Plug-In . SVG Version: 6.00 Build 0)  -->
<!DOCTYPE svg PUBLIC "-//W3C//DTD SVG 1.1//EN" "http://www.w3.org/Graphics/SVG/1.1/DTD/svg11.dtd">
<svg version="1.1" id="Layer_1" xmlns="http://www.w3.org/2000/svg" xmlns:xlink="http://www.w3.org/1999/xlink" x="0px" y="0px"
	 width="48px" height="48px" viewBox="0 0 48 48" enable-background="new 0 0 48 48" xml:space="preserve">
<g>
	<path d="M28.128,38.48H7.144C3.205,38.48,0,35.273,0,31.332V8.747c0-3.94,3.205-7.146,7.144-7.146h33.711
		C44.795,1.601,48,4.807,48,8.747v22.585c0,1.339-0.377,2.647-1.09,3.786l-1.695-1.063C45.729,33.236,46,32.295,46,31.332V8.747
		c0-2.837-2.308-5.146-5.145-5.146H7.144C4.308,3.601,2,5.91,2,8.747v22.585c0,2.839,2.308,5.148,5.144,5.148h20.984V38.48z"/>
	<path d="M3.52,28.699L1.538,28.58c0.011-0.976,0.814-1.588,1.401-2.036c0.147-0.112,0.29-0.217,0.395-0.32
		c0.264-0.259,0.539-0.506,0.814-0.753c0.491-0.44,0.955-0.856,1.332-1.323c0.402-0.497,0.799-0.994,1.195-1.491
		c0.743-0.932,1.483-1.86,2.25-2.774c1.137-1.35,2.11-2.717,3.142-4.166c0.298-0.418,0.596-0.837,0.9-1.257
		c0.148-0.205,0.314-0.487,0.5-0.799c0.881-1.481,2.356-3.96,4.5-2.943c1.335,0.63,2.112,1.808,2.797,2.847
		c0.46,0.698,0.895,1.357,1.442,1.792c1.938,1.534,3.478,3.048,4.848,4.766c0.178,0.221,0.343,0.493,0.508,0.772
		c0.167,0.282,0.396,0.668,0.555,0.757c0.174,0.096,0.344,0.023,1.019-0.622c0.11-0.105,0.219-0.209,0.325-0.305l0.247-0.22
		c0.87-0.775,1.771-1.578,2.396-2.497l0.274-0.419c0.346-0.534,0.703-1.086,1.212-1.62c2.229-2.356,4.607-0.833,6.183,0.176
		c1.264,0.809,2.448,1.734,3.594,2.63c1.177,0.92,2.395,1.871,3.659,2.659l-1.057,1.697c-1.356-0.844-2.615-1.829-3.834-2.781
		c-1.109-0.867-2.256-1.763-3.44-2.521c-1.953-1.25-2.711-1.479-3.654-0.482c-0.382,0.4-0.661,0.831-0.983,1.329l-0.295,0.45
		c-0.768,1.131-1.762,2.017-2.724,2.874l-0.242,0.216c-0.091,0.081-0.184,0.17-0.278,0.26c-0.645,0.617-1.846,1.765-3.368,0.926
		c-0.637-0.353-1.009-0.983-1.309-1.489c-0.114-0.193-0.224-0.386-0.348-0.541c-1.275-1.598-2.713-3.011-4.529-4.448
		c-0.799-0.634-1.343-1.46-1.87-2.258c-0.593-0.899-1.153-1.748-1.982-2.14c-0.504-0.239-1.5,1.44-1.927,2.158
		c-0.221,0.371-0.422,0.705-0.598,0.948c-0.3,0.416-0.596,0.832-0.891,1.246c-1.009,1.417-2.052,2.882-3.24,4.292
		c-0.754,0.9-1.484,1.816-2.216,2.734c-0.399,0.5-0.799,1.002-1.204,1.503c-0.478,0.591-1.023,1.08-1.551,1.554
		c-0.253,0.228-0.507,0.455-0.75,0.692c-0.156,0.152-0.362,0.314-0.581,0.481C3.955,28.285,3.586,28.566,3.52,28.699z"/>
	<path d="M28.751,15.296c-2.845,0-5.158-2.315-5.158-5.16c0-2.843,2.313-5.156,5.158-5.156c2.841,0,5.151,2.313,5.151,5.156
		C33.902,12.981,31.592,15.296,28.751,15.296z M28.751,6.98c-1.741,0-3.158,1.416-3.158,3.156c0,1.743,1.417,3.16,3.158,3.16
		c1.737,0,3.151-1.417,3.151-3.16C31.902,8.396,30.488,6.98,28.751,6.98z"/>
	<g>
		<path d="M36.807,41.111c-0.553,0-1-0.447-1-1v-6.141c0-0.553,0.447-1,1-1s1,0.447,1,1v6.141
			C37.807,40.664,37.359,41.111,36.807,41.111z"/>
		<path d="M33.341,36.422c-0.234,0-0.469-0.081-0.658-0.247c-0.416-0.364-0.458-0.995-0.095-1.411l4.204-4.807l4.359,4.792
			c0.371,0.408,0.341,1.041-0.067,1.413c-0.407,0.371-1.039,0.342-1.413-0.067l-2.85-3.134l-2.728,3.119
			C33.896,36.307,33.619,36.422,33.341,36.422z"/>
	</g>
	<path d="M36.879,46.398c-5.853,0-10.613-4.761-10.613-10.612c0-5.853,4.761-10.613,10.613-10.613s10.613,4.761,10.613,10.613
		C47.492,41.638,42.731,46.398,36.879,46.398z M36.879,27.173c-4.749,0-8.613,3.864-8.613,8.613s3.864,8.612,8.613,8.612
		s8.613-3.863,8.613-8.612S41.628,27.173,36.879,27.173z"/>
</g>
</svg>
