<?xml version="1.0" encoding="utf-8"?>
<!-- Generator: Adobe Illustrator 16.0.0, SVG Export Plug-In . SVG Version: 6.00 Build 0)  -->
<!DOCTYPE svg PUBLIC "-//W3C//DTD SVG 1.1//EN" "http://www.w3.org/Graphics/SVG/1.1/DTD/svg11.dtd">
<svg version="1.1" id="Layer_1" xmlns="http://www.w3.org/2000/svg" xmlns:xlink="http://www.w3.org/1999/xlink" x="0px" y="0px"
	 width="48px" height="48px" viewBox="0 0 48 48" enable-background="new 0 0 48 48" xml:space="preserve">
<g>
	<g>
		<path d="M5.481,44.723c-1.031,0-1.938-0.76-2.154-1.807l-0.023-0.152c-0.146-0.99,0.418-1.643,0.795-2.078l0.139-0.162
			c0.242-0.273,0.469-0.518,0.694-0.764c1.267-1.371,2.575-2.787,3.536-5.723C3.073,30.725,0,25.908,0,20.719
			C0,11.102,10.766,3.277,24,3.277c13.232,0,24,7.824,24,17.441c0,9.615-10.768,17.441-24,17.441c-1.081,0-2.214-0.055-3.371-0.166
			c-3.416,2.932-7.409,4.992-11.874,6.129c-0.876,0.244-1.878,0.438-3.045,0.588L5.481,44.723z M5.382,42.533
			c0.028,0.072,0.08,0.102,0.098,0.104c1.037-0.135,1.957-0.311,2.74-0.529c4.314-1.098,8.133-3.107,11.372-5.977l0.345-0.307
			l0.458,0.051c1.243,0.133,2.454,0.199,3.605,0.199c12.082,0,21.914-6.887,21.914-15.355c0-8.466-9.832-15.355-21.914-15.355
			c-12.083,0-21.914,6.89-21.914,15.355c0,4.646,2.964,8.994,8.132,11.932l0.711,0.402l-0.223,0.787
			c-1.109,3.945-2.773,5.746-4.24,7.336c-0.219,0.234-0.434,0.469-0.646,0.707l-0.145,0.17c-0.113,0.133-0.289,0.332-0.307,0.406
			L5.382,42.533z"/>
	</g>
	<rect x="15.825" y="20.894" width="16.675" height="1.043"/>
</g>
</svg>
