<?xml version="1.0" encoding="utf-8"?>
<!-- Generator: Adobe Illustrator 16.0.0, SVG Export Plug-In . SVG Version: 6.00 Build 0)  -->
<!DOCTYPE svg PUBLIC "-//W3C//DTD SVG 1.1//EN" "http://www.w3.org/Graphics/SVG/1.1/DTD/svg11.dtd">
<svg version="1.1" id="Layer_1" xmlns="http://www.w3.org/2000/svg" xmlns:xlink="http://www.w3.org/1999/xlink" x="0px" y="0px"
	 width="48px" height="48px" viewBox="0 0 48 48" enable-background="new 0 0 48 48" xml:space="preserve">
<g>
	<path d="M43.229,47.25H0V16.569h43.229V47.25z M2,45.25h39.229V18.569H2V45.25z"/>
	<polygon points="48,31.432 42.229,31.432 42.229,29.432 46,29.432 46,2.75 6.773,2.75 6.773,18.06 4.773,18.06 4.773,0.75 48,0.75 
			"/>
	<rect x="3.592" y="35.93" width="36.045" height="2"/>
	<rect x="18.808" y="21.348" width="19.834" height="2"/>
	<rect x="23.704" y="26.846" width="13.983" height="2"/>
	<rect x="5.78" y="40.71" width="10.158" height="2"/>
	<polygon points="25.445,16.825 23.445,16.825 23.445,8.176 13.024,8.176 13.024,16.825 11.024,16.825 11.024,6.176 25.445,6.176 	
		"/>
	<rect x="31.425" y="9.563" width="10.804" height="2"/>
</g>
</svg>
