<?xml version="1.0" encoding="utf-8"?>
<!-- Generator: Adobe Illustrator 16.0.0, SVG Export Plug-In . SVG Version: 6.00 Build 0)  -->
<!DOCTYPE svg PUBLIC "-//W3C//DTD SVG 1.1//EN" "http://www.w3.org/Graphics/SVG/1.1/DTD/svg11.dtd">
<svg version="1.1" id="Layer_1" xmlns="http://www.w3.org/2000/svg" xmlns:xlink="http://www.w3.org/1999/xlink" x="0px" y="0px"
	 width="48px" height="48px" viewBox="0 0 48 48" enable-background="new 0 0 48 48" xml:space="preserve">
<g>
	<path d="M38.074,43.657h-2.83c-4.808,0-8.719-4.753-8.719-10.595V14.936c0-5.842,3.911-10.595,8.719-10.595h2.83v2h-2.83
		c-3.705,0-6.719,3.856-6.719,8.595v18.126c0,4.739,3.014,8.595,6.719,8.595h2.83V43.657z"/>
	<rect x="20.872" y="23" width="17.202" height="2"/>
	<path d="M47.999,11.413H37.074V0h10.925V11.413z M39.074,9.413h6.925V2h-6.925V9.413z"/>
	<path d="M47.999,48H37.074V36.587h10.925V48z M39.074,46h6.925v-7.413h-6.925V46z"/>
	<path d="M47.999,29.705H37.074V18.294h10.925V29.705z M39.074,27.705h6.925v-7.411h-6.925V27.705z"/>
	<path d="M11.184,35.184C5.018,35.184,0.001,30.167,0.001,24c0-6.167,5.017-11.183,11.183-11.183S22.367,17.833,22.367,24
		C22.367,30.167,17.351,35.184,11.184,35.184z M11.184,14.817c-5.063,0-9.183,4.12-9.183,9.183s4.12,9.184,9.183,9.184
		s9.183-4.12,9.183-9.184S16.248,14.817,11.184,14.817z"/>
	<g>
		<path d="M10.867,29.967v-1.188c-0.591-0.074-1.074-0.207-1.445-0.397c-0.371-0.188-0.69-0.498-0.962-0.925
			c-0.27-0.428-0.427-0.945-0.47-1.561l1.192-0.226c0.092,0.638,0.253,1.104,0.487,1.403c0.333,0.421,0.734,0.656,1.198,0.703
			v-3.771c-0.486-0.093-0.986-0.281-1.494-0.567c-0.378-0.211-0.668-0.503-0.874-0.876c-0.204-0.375-0.305-0.797-0.305-1.271
			c0-0.842,0.298-1.526,0.897-2.049c0.398-0.351,0.99-0.566,1.776-0.646v-0.565h0.698v0.565c0.691,0.066,1.237,0.269,1.642,0.606
			c0.517,0.431,0.829,1.021,0.934,1.771l-1.224,0.185c-0.071-0.465-0.217-0.823-0.438-1.07c-0.223-0.249-0.526-0.413-0.914-0.491
			v3.417c0.597,0.149,0.994,0.268,1.187,0.35c0.367,0.163,0.67,0.361,0.902,0.594c0.232,0.232,0.412,0.509,0.537,0.829
			c0.124,0.319,0.188,0.668,0.188,1.04c0,0.822-0.262,1.507-0.784,2.056c-0.522,0.55-1.198,0.843-2.029,0.882v1.199h-0.699V29.967z
			 M10.867,19.587c-0.46,0.07-0.823,0.254-1.089,0.553C9.512,20.438,9.38,20.792,9.38,21.2c0,0.404,0.114,0.743,0.341,1.014
			c0.225,0.273,0.608,0.49,1.147,0.653L10.867,19.587L10.867,19.587z M11.565,27.779c0.462-0.057,0.842-0.258,1.144-0.6
			c0.3-0.343,0.451-0.767,0.451-1.271c0-0.432-0.106-0.774-0.32-1.037c-0.211-0.26-0.637-0.494-1.275-0.702V27.779z"/>
	</g>
</g>
</svg>
