<?xml version="1.0" encoding="utf-8"?>
<!-- Generator: Adobe Illustrator 16.0.0, SVG Export Plug-In . SVG Version: 6.00 Build 0)  -->
<!DOCTYPE svg PUBLIC "-//W3C//DTD SVG 1.1//EN" "http://www.w3.org/Graphics/SVG/1.1/DTD/svg11.dtd">
<svg version="1.1" id="Layer_1" xmlns="http://www.w3.org/2000/svg" xmlns:xlink="http://www.w3.org/1999/xlink" x="0px" y="0px"
	 width="48px" height="48px" viewBox="0 0 48 48" enable-background="new 0 0 48 48" xml:space="preserve">
<g>
	<path d="M28.131,38.479H7.147C3.206,38.479,0,35.272,0,31.332V8.747c0-3.94,3.206-7.145,7.147-7.145h33.71
		C44.796,1.602,48,4.807,48,8.747v22.585c0,1.339-0.377,2.648-1.091,3.785l-1.693-1.063C45.729,33.236,46,32.295,46,31.332V8.747
		c0-2.837-2.307-5.145-5.143-5.145H7.147C4.309,3.602,2,5.91,2,8.747v22.585c0,2.838,2.309,5.146,5.147,5.146h20.984V38.479z"/>
	<path d="M3.524,28.697c0.005-0.01,0.018-0.047,0.018-0.099l-2-0.014c0.007-0.979,0.813-1.594,1.401-2.042
		c0.147-0.112,0.29-0.217,0.395-0.32c0.263-0.259,0.541-0.508,0.818-0.757c0.488-0.438,0.949-0.852,1.322-1.315
		c0.431-0.532,0.853-1.061,1.274-1.588c0.718-0.9,1.434-1.798,2.175-2.682c1.143-1.358,2.125-2.737,3.165-4.197l0.877-1.225
		c0.147-0.204,0.312-0.485,0.498-0.796c0.881-1.481,2.355-3.961,4.5-2.945c1.335,0.63,2.112,1.808,2.798,2.846
		c0.46,0.698,0.896,1.357,1.443,1.791c1.935,1.534,3.475,3.048,4.845,4.766c0.196,0.242,0.356,0.514,0.512,0.776
		c0.166,0.281,0.394,0.665,0.551,0.752c0.175,0.097,0.346,0.023,1.017-0.616c0.114-0.108,0.226-0.213,0.336-0.312l0.263-0.235
		c0.862-0.771,1.755-1.567,2.368-2.476c0.106-0.157,0.207-0.311,0.306-0.463c0.339-0.522,0.689-1.061,1.191-1.583
		c2.218-2.351,4.601-0.83,6.178,0.178c1.259,0.807,2.439,1.73,3.581,2.622c1.18,0.922,2.4,1.876,3.671,2.667l-1.057,1.698
		c-1.361-0.847-2.625-1.834-3.847-2.79c-1.104-0.864-2.247-1.757-3.427-2.513c-1.955-1.25-2.713-1.479-3.651-0.483
		c-0.377,0.391-0.648,0.809-0.963,1.293c-0.105,0.162-0.213,0.327-0.325,0.493c-0.752,1.115-1.739,1.996-2.693,2.848L30.8,22.213
		c-0.098,0.086-0.192,0.177-0.29,0.269c-0.646,0.613-1.848,1.751-3.359,0.918c-0.636-0.351-1.008-0.98-1.308-1.485
		c-0.114-0.194-0.224-0.387-0.349-0.542c-1.278-1.601-2.716-3.013-4.529-4.451c-0.798-0.633-1.343-1.458-1.87-2.257
		c-0.593-0.899-1.153-1.748-1.983-2.14c-0.499-0.238-1.5,1.442-1.927,2.159c-0.22,0.37-0.42,0.703-0.595,0.945l-0.869,1.215
		c-1.017,1.428-2.068,2.904-3.262,4.323c-0.73,0.87-1.435,1.754-2.143,2.642c-0.424,0.532-0.85,1.065-1.282,1.597
		c-0.472,0.587-1.016,1.075-1.542,1.547c-0.255,0.229-0.51,0.458-0.753,0.697c-0.158,0.154-0.364,0.315-0.582,0.481
		C3.958,28.284,3.59,28.564,3.524,28.697z"/>
	<path d="M28.751,15.295c-2.845,0-5.158-2.314-5.158-5.158c0-2.843,2.313-5.156,5.158-5.156c2.843,0,5.155,2.313,5.155,5.156
		C33.906,12.981,31.594,15.295,28.751,15.295z M28.751,6.981c-1.741,0-3.158,1.416-3.158,3.156c0,1.741,1.417,3.158,3.158,3.158
		c1.74,0,3.155-1.417,3.155-3.158C31.906,8.397,30.491,6.981,28.751,6.981z"/>
	<g>
		<path d="M36.951,38.6c-0.553,0-1-0.447-1-1v-6.141c0-0.553,0.447-1,1-1s1,0.447,1,1V37.6C37.951,38.152,37.504,38.6,36.951,38.6z"
			/>
		<path d="M36.967,41.611l-4.362-4.787c-0.372-0.408-0.343-1.041,0.065-1.413c0.41-0.371,1.042-0.341,1.413,0.065l2.853,3.131
			l2.725-3.115c0.364-0.418,0.997-0.458,1.411-0.095c0.416,0.363,0.458,0.995,0.095,1.411L36.967,41.611z"/>
	</g>
	<path d="M36.88,46.396c-5.852,0-10.612-4.761-10.612-10.612s4.761-10.612,10.612-10.612c5.853,0,10.613,4.761,10.613,10.612
		S42.732,46.396,36.88,46.396z M36.88,27.172c-4.749,0-8.612,3.863-8.612,8.612s3.863,8.612,8.612,8.612s8.613-3.863,8.613-8.612
		S41.629,27.172,36.88,27.172z"/>
</g>
</svg>
