<?xml version="1.0" encoding="utf-8"?>
<!-- Generator: Adobe Illustrator 16.0.0, SVG Export Plug-In . SVG Version: 6.00 Build 0)  -->
<!DOCTYPE svg PUBLIC "-//W3C//DTD SVG 1.1//EN" "http://www.w3.org/Graphics/SVG/1.1/DTD/svg11.dtd">
<svg version="1.1" id="Layer_1" xmlns="http://www.w3.org/2000/svg" xmlns:xlink="http://www.w3.org/1999/xlink" x="0px" y="0px"
	 width="48px" height="48px" viewBox="0 0 48 48" enable-background="new 0 0 48 48" xml:space="preserve">
<g>
	<path d="M4.56,40.877c-2.514,0-4.559-2.045-4.559-4.559s2.045-4.56,4.559-4.56s4.559,2.046,4.559,4.56S7.074,40.877,4.56,40.877z
		 M4.56,33.759c-1.411,0-2.559,1.148-2.559,2.56s1.148,2.559,2.559,2.559s2.559-1.147,2.559-2.559S5.971,33.759,4.56,33.759z"/>
	<path d="M18.519,29.262c-2.515,0-4.56-2.045-4.56-4.558c0-2.516,2.045-4.562,4.56-4.562c2.515,0.001,4.56,2.048,4.56,4.562
		C23.079,27.217,21.034,29.262,18.519,29.262z M18.519,22.142c-1.411,0-2.56,1.149-2.56,2.562c0,1.41,1.148,2.558,2.56,2.558
		s2.56-1.147,2.56-2.558C21.079,23.292,19.931,22.143,18.519,22.142z"/>
	<path d="M36.318,47.998c-2.515,0-4.561-2.046-4.561-4.561c0-2.514,2.046-4.56,4.561-4.56c2.514,0,4.56,2.046,4.56,4.56
		C40.878,45.952,38.832,47.998,36.318,47.998z M36.318,40.878c-1.412,0-2.561,1.148-2.561,2.56c0,1.412,1.148,2.561,2.561,2.561
		c1.411,0,2.56-1.148,2.56-2.561C38.878,42.026,37.729,40.878,36.318,40.878z"/>
	<path d="M43.438,9.12c-2.514,0-4.56-2.045-4.56-4.56S40.924,0,43.438,0c2.515,0,4.561,2.045,4.561,4.56S45.952,9.12,43.438,9.12z
		 M43.438,2c-1.411,0-2.56,1.148-2.56,2.56s1.148,2.56,2.56,2.56c1.412,0,2.561-1.148,2.561-2.56S44.85,2,43.438,2z"/>
	<rect x="10.528" y="24.835" transform="matrix(0.6178 0.7863 -0.7863 0.6178 28.0856 2.4445)" width="2" height="10.559"/>
	<rect x="18.492" y="33.253" transform="matrix(0.7105 0.7037 -0.7037 0.7105 32.0956 -9.5112)" width="18.231" height="2.001"/>
	<rect x="39.513" y="7.925" transform="matrix(0.9879 0.1552 -0.1552 0.9879 4.2161 -5.9973)" width="2.001" height="32.151"/>
</g>
</svg>
