<?xml version="1.0" encoding="utf-8"?>
<!-- Generator: Adobe Illustrator 16.0.0, SVG Export Plug-In . SVG Version: 6.00 Build 0)  -->
<!DOCTYPE svg PUBLIC "-//W3C//DTD SVG 1.1//EN" "http://www.w3.org/Graphics/SVG/1.1/DTD/svg11.dtd">
<svg version="1.1" id="Layer_1" xmlns="http://www.w3.org/2000/svg" xmlns:xlink="http://www.w3.org/1999/xlink" x="0px" y="0px"
	 width="48px" height="48px" viewBox="0 0 48 48" enable-background="new 0 0 48 48" xml:space="preserve">
<g>
	<path d="M32.967,32.77c-8.288,0-15.031-6.743-15.031-15.032c0-8.288,6.743-15.031,15.031-15.031S47.998,9.45,47.998,17.738
		C47.998,26.026,41.255,32.77,32.967,32.77z M32.967,4.707c-7.186,0-13.031,5.846-13.031,13.031c0,7.186,5.845,13.032,13.031,13.032
		s13.031-5.846,13.031-13.032C45.998,10.553,40.152,4.707,32.967,4.707z"/>
	<g>
		<path d="M32.395,28.559V26.41c-1.076-0.135-1.947-0.378-2.621-0.723c-0.672-0.348-1.254-0.906-1.744-1.68
			c-0.489-0.771-0.773-1.714-0.853-2.831l2.163-0.405c0.165,1.156,0.457,2.002,0.881,2.543c0.604,0.766,1.328,1.191,2.174,1.279
			V17.75c-0.885-0.167-1.787-0.509-2.711-1.027c-0.687-0.383-1.213-0.913-1.58-1.588c-0.371-0.677-0.557-1.444-0.557-2.305
			c0-1.529,0.541-2.768,1.623-3.713c0.725-0.638,1.801-1.027,3.225-1.17V6.919h1.269v1.027c1.248,0.118,2.237,0.485,2.974,1.098
			c0.938,0.78,1.502,1.85,1.694,3.214l-2.222,0.332c-0.129-0.844-0.393-1.489-0.795-1.939c-0.401-0.451-0.953-0.747-1.651-0.892
			v6.199c1.082,0.271,1.799,0.484,2.149,0.634c0.666,0.295,1.211,0.651,1.635,1.074c0.422,0.422,0.744,0.924,0.972,1.505
			c0.229,0.582,0.343,1.211,0.343,1.889c0,1.486-0.474,2.731-1.421,3.725c-0.948,0.996-2.177,1.527-3.678,1.604v2.17H32.395
			L32.395,28.559z M32.395,9.736c-0.834,0.129-1.492,0.461-1.979,1.002c-0.48,0.542-0.721,1.183-0.721,1.924
			c0,0.731,0.205,1.346,0.615,1.839c0.408,0.492,1.104,0.889,2.084,1.182V9.736L32.395,9.736z M33.662,24.594
			c0.835-0.104,1.525-0.466,2.07-1.09c0.545-0.618,0.816-1.387,0.816-2.301c0-0.781-0.191-1.407-0.578-1.881
			c-0.386-0.474-1.156-0.898-2.31-1.274L33.662,24.594L33.662,24.594z"/>
	</g>
	<polygon points="19.26,17.333 0.001,17.333 0.001,0 23.64,0 23.64,7.85 21.64,7.85 21.64,2 2.001,2 2.001,15.333 19.26,15.333 	"/>
	<polygon points="23.64,32.667 0.001,32.667 0.001,15.333 18.715,15.333 18.715,17.333 2.001,17.333 2.001,30.667 21.64,30.667 
		21.64,27.502 23.64,27.502 	"/>
	<path d="M23.64,48H0.001V30.667H23.64V48z M2.001,46H21.64V32.667H2.001V46z"/>
	<rect x="8.89" y="9.111" width="5.861" height="2"/>
	<rect x="8.89" y="25.189" width="5.861" height="2"/>
	<rect x="8.89" y="40.441" width="5.861" height="2"/>
</g>
</svg>
