<?xml version="1.0" encoding="utf-8"?>
<!-- Generator: Adobe Illustrator 16.0.0, SVG Export Plug-In . SVG Version: 6.00 Build 0)  -->
<!DOCTYPE svg PUBLIC "-//W3C//DTD SVG 1.1//EN" "http://www.w3.org/Graphics/SVG/1.1/DTD/svg11.dtd">
<svg version="1.1" id="Layer_1" xmlns="http://www.w3.org/2000/svg" xmlns:xlink="http://www.w3.org/1999/xlink" x="0px" y="0px"
	 width="48px" height="48px" viewBox="0 0 48 48" enable-background="new 0 0 48 48" xml:space="preserve">
<g>
	<path d="M48,32.727H0V0h48V32.727z M2,30.727h44V2H2V30.727z"/>
	<g>
		<rect x="5.68" y="31.246" transform="matrix(0.9408 0.3388 -0.3388 0.9408 13.733 0.0652)" width="2" height="16.235"/>
		<rect x="33.201" y="38.364" transform="matrix(0.339 0.9408 -0.9408 0.339 64.3429 -12.8531)" width="16.235" height="1.999"/>
	</g>
	<g>
		<g>
			<polygon points="16.984,24.956 12.032,17.838 4.576,24.171 3.281,22.647 12.416,14.888 17.268,21.862 26.54,12.695 
				32.205,17.378 41.263,8.409 42.671,9.83 32.326,20.074 26.659,15.389 			"/>
			<g>
				<polygon points="42.924,18.695 41.096,18.62 41.469,9.614 32.458,9.899 32.402,8.069 43.376,7.725 				"/>
			</g>
		</g>
	</g>
</g>
</svg>
