<?xml version="1.0" encoding="utf-8"?>
<!-- Generator: Adobe Illustrator 16.0.0, SVG Export Plug-In . SVG Version: 6.00 Build 0)  -->
<!DOCTYPE svg PUBLIC "-//W3C//DTD SVG 1.1//EN" "http://www.w3.org/Graphics/SVG/1.1/DTD/svg11.dtd">
<svg version="1.1" id="Layer_1" xmlns="http://www.w3.org/2000/svg" xmlns:xlink="http://www.w3.org/1999/xlink" x="0px" y="0px"
	 width="48px" height="48px" viewBox="0 0 48 48" enable-background="new 0 0 48 48" xml:space="preserve">
<g>
	<path d="M44.08,47.999H3.922C1.759,47.999,0,46.24,0,44.079V3.922C0,1.76,1.759,0.001,3.922,0.001H44.08
		c2.161,0,3.92,1.759,3.92,3.921v40.157C48,46.24,46.241,47.999,44.08,47.999z M3.922,2.001C2.862,2.001,2,2.863,2,3.922v40.157
		c0,1.059,0.862,1.92,1.922,1.92H44.08c1.059,0,1.92-0.861,1.92-1.92V3.922c0-1.059-0.861-1.921-1.92-1.921H3.922z"/>
	<path d="M43.895,19.83H4.106V4.835h39.789V19.83z M6.106,17.83h35.789V6.835H6.106V17.83z"/>
	<path d="M16.412,28.58H4.106v-7.037h12.306V28.58z M6.106,26.58h8.306v-3.037H6.106V26.58z"/>
	<path d="M29.956,28.58H17.648v-7.037h12.308V28.58z M19.648,26.58h8.308v-3.037h-8.308V26.58z"/>
	<path d="M43.498,28.58H31.189v-7.037h12.309V28.58z M33.189,26.58h8.309v-3.037h-8.309V26.58z"/>
	<path d="M16.412,36.4H4.106v-7.035h12.306V36.4z M6.106,34.4h8.306v-3.035H6.106V34.4z"/>
	<path d="M29.956,36.4H17.648v-7.035h12.308V36.4z M19.648,34.4h8.308v-3.035h-8.308V34.4z"/>
	<path d="M16.412,44.227H4.106v-7.039h12.306V44.227z M6.106,42.227h8.306v-3.039H6.106V42.227z"/>
	<path d="M29.956,44.227H17.648v-7.039h12.308V44.227z M19.648,42.227h8.308v-3.039h-8.308V42.227z"/>
	<path d="M43.498,44.227H31.189V29.365h12.309V44.227z M33.189,42.227h8.309V31.365h-8.309V42.227z"/>
	<g>
		<path d="M36.98,38.866v-1.718h-1.707V36.43h1.707v-1.707h0.729v1.707h1.705v0.719h-1.705v1.719L36.98,38.866L36.98,38.866z"/>
	</g>
	<g>
		<path d="M28.627,11.056h1.078v5.494H29.16v-4.957h-0.862L28.627,11.056z"/>
		<path d="M32.333,12.774h-0.526c0.017-0.541,0.199-0.987,0.543-1.335c0.35-0.348,0.779-0.522,1.289-0.522
			c0.504,0,0.914,0.164,1.228,0.489c0.311,0.326,0.468,0.712,0.468,1.155c0,0.312-0.074,0.603-0.223,0.876
			c-0.149,0.273-0.438,0.642-0.868,1.108l-1.368,1.474h2.536v0.53H31.68l2.098-2.27c0.428-0.456,0.703-0.794,0.832-1.014
			c0.129-0.22,0.191-0.453,0.191-0.697c0-0.309-0.115-0.576-0.346-0.797c-0.23-0.225-0.512-0.336-0.846-0.336
			c-0.354,0-0.644,0.118-0.877,0.352C32.5,12.022,32.367,12.35,32.333,12.774z"/>
		<path d="M36.701,12.33h-0.561c0.104-0.453,0.299-0.802,0.584-1.046c0.291-0.243,0.631-0.366,1.024-0.366
			c0.286,0,0.556,0.064,0.803,0.196c0.247,0.13,0.438,0.306,0.574,0.528c0.138,0.222,0.204,0.454,0.204,0.695
			c0,0.474-0.234,0.848-0.707,1.123c0.264,0.109,0.482,0.265,0.65,0.471c0.238,0.292,0.359,0.618,0.359,0.978
			c0,0.313-0.084,0.609-0.246,0.893c-0.168,0.283-0.389,0.5-0.675,0.655c-0.282,0.154-0.599,0.231-0.95,0.231
			c-0.475,0-0.869-0.136-1.186-0.41c-0.316-0.271-0.521-0.671-0.621-1.2h0.539c0.094,0.357,0.229,0.614,0.406,0.772
			c0.227,0.203,0.517,0.303,0.867,0.303c0.396,0,0.717-0.12,0.959-0.358c0.242-0.239,0.362-0.519,0.362-0.841
			c0-0.214-0.062-0.415-0.18-0.601c-0.121-0.186-0.284-0.328-0.486-0.423c-0.204-0.094-0.517-0.153-0.942-0.175v-0.504
			c0.25,0,0.479-0.044,0.687-0.132c0.208-0.089,0.354-0.201,0.451-0.339c0.092-0.136,0.141-0.286,0.141-0.447
			c0-0.239-0.098-0.446-0.288-0.621c-0.191-0.174-0.431-0.261-0.723-0.261c-0.236,0-0.439,0.066-0.611,0.201
			C36.966,11.784,36.82,12.012,36.701,12.33z"/>
	</g>
</g>
</svg>
