<?xml version="1.0" encoding="utf-8"?>
<!-- Generator: Adobe Illustrator 16.0.0, SVG Export Plug-In . SVG Version: 6.00 Build 0)  -->
<!DOCTYPE svg PUBLIC "-//W3C//DTD SVG 1.1//EN" "http://www.w3.org/Graphics/SVG/1.1/DTD/svg11.dtd">
<svg version="1.1" id="Layer_1" xmlns="http://www.w3.org/2000/svg" xmlns:xlink="http://www.w3.org/1999/xlink" x="0px" y="0px"
	 width="48px" height="48px" viewBox="0 0 48 48" enable-background="new 0 0 48 48" xml:space="preserve">
<g>
	<g>
		<path d="M44.92,48H3.081c-1.654,0-3-1.346-3-3V3c0-1.654,1.346-3,3-3H44.92c1.654,0,3,1.346,3,3v42
			C47.92,46.654,46.574,48,44.92,48z M3.081,2c-0.551,0-1,0.449-1,1v42c0,0.552,0.449,1,1,1H44.92c0.552,0,1-0.448,1-1V3
			c0-0.551-0.448-1-1-1H3.081z"/>
	</g>
	<path d="M1.08,41c-0.197,0-0.396-0.058-0.57-0.179c-0.454-0.315-0.565-0.938-0.25-1.393c1.317-1.895,2.741-3.346,3.146-3.746
		c0.26-0.251,0.523-0.488,0.787-0.725c0.499-0.447,0.97-0.87,1.351-1.342l1.103-1.378c0.769-0.964,1.535-1.925,2.328-2.873
		c1.139-1.36,2.12-2.736,3.159-4.194L13,23.962c0.148-0.205,0.313-0.487,0.5-0.799c0.878-1.477,2.345-3.951,4.488-2.935
		c1.33,0.631,2.103,1.802,2.786,2.836c0.46,0.697,0.895,1.355,1.442,1.789c1.927,1.526,3.462,3.034,4.831,4.745
		c0.178,0.225,0.339,0.492,0.5,0.767c0.165,0.283,0.392,0.67,0.552,0.757c0.159,0.09,0.312,0.055,1.011-0.613
		c0.112-0.107,0.223-0.212,0.331-0.31l0.271-0.242c0.858-0.766,1.746-1.559,2.358-2.461l0.299-0.456
		c0.338-0.52,0.687-1.058,1.183-1.58c2.224-2.346,4.597-0.827,6.168,0.177c1.255,0.804,2.43,1.724,3.566,2.612
		c1.176,0.92,2.391,1.87,3.657,2.657c0.469,0.292,0.612,0.908,0.321,1.378s-0.908,0.611-1.378,0.321
		c-1.357-0.845-2.616-1.829-3.833-2.781c-1.1-0.86-2.237-1.75-3.412-2.503c-1.946-1.244-2.704-1.474-3.639-0.484
		c-0.37,0.39-0.642,0.808-0.955,1.291c-0.104,0.161-0.21,0.324-0.321,0.489c-0.753,1.108-1.733,1.985-2.683,2.832l-0.268,0.239
		c-0.095,0.084-0.188,0.175-0.284,0.267c-0.644,0.615-1.844,1.758-3.356,0.92c-0.642-0.351-1.015-0.987-1.313-1.498
		c-0.111-0.19-0.218-0.379-0.339-0.531c-1.27-1.588-2.703-2.994-4.508-4.424c-0.798-0.633-1.343-1.457-1.869-2.255
		c-0.591-0.895-1.148-1.739-1.974-2.131c-0.499-0.24-1.489,1.437-1.913,2.15c-0.221,0.372-0.422,0.706-0.598,0.948l-0.858,1.199
		c-1.016,1.424-2.066,2.896-3.254,4.315c-0.783,0.937-1.54,1.885-2.298,2.837L7.1,34.873c-0.483,0.597-1.036,1.094-1.572,1.574
		c-0.244,0.219-0.489,0.438-0.723,0.665c-0.26,0.257-1.652,1.659-2.903,3.459C1.708,40.851,1.396,41,1.08,41z"/>
	<path d="M29.998,17.029c-2.836,0-5.143-2.307-5.143-5.142c0-2.835,2.307-5.142,5.143-5.142s5.143,2.307,5.143,5.142
		C35.141,14.722,32.834,17.029,29.998,17.029z M29.998,8.745c-1.732,0-3.143,1.41-3.143,3.142s1.41,3.142,3.143,3.142
		s3.143-1.409,3.143-3.142S31.73,8.745,29.998,8.745z"/>
	<path d="M42.502,38.544H16.699c-0.276,0-0.5-0.224-0.5-0.5s0.224-0.5,0.5-0.5h25.803c0.276,0,0.5,0.224,0.5,0.5
		S42.778,38.544,42.502,38.544z"/>
</g>
</svg>
