<?xml version="1.0" encoding="utf-8"?>
<!-- Generator: Adobe Illustrator 16.0.0, SVG Export Plug-In . SVG Version: 6.00 Build 0)  -->
<!DOCTYPE svg PUBLIC "-//W3C//DTD SVG 1.1//EN" "http://www.w3.org/Graphics/SVG/1.1/DTD/svg11.dtd">
<svg version="1.1" id="Layer_1" xmlns="http://www.w3.org/2000/svg" xmlns:xlink="http://www.w3.org/1999/xlink" x="0px" y="0px"
	 width="48px" height="48px" viewBox="0 0 48 48" enable-background="new 0 0 48 48" xml:space="preserve">
<g>
	<g>
		<path d="M27.582,23.892l-0.57-0.807c-0.453,0.225-0.854,0.359-1.209,0.402c-0.354,0.043-0.727-0.019-1.123-0.184
			c-0.394-0.163-0.755-0.445-1.081-0.842l0.73-0.708c0.372,0.39,0.71,0.634,1.017,0.727c0.439,0.133,0.834,0.107,1.184-0.079
			l-1.817-2.569c-0.386,0.164-0.827,0.268-1.324,0.311c-0.366,0.033-0.711-0.032-1.035-0.19c-0.324-0.16-0.599-0.399-0.829-0.723
			c-0.405-0.574-0.524-1.178-0.356-1.813c0.113-0.427,0.426-0.849,0.941-1.269l-0.273-0.385l0.492-0.326l0.271,0.386
			c0.519-0.276,1-0.393,1.447-0.351c0.571,0.051,1.075,0.308,1.513,0.771l-0.773,0.697c-0.275-0.285-0.548-0.459-0.823-0.525
			c-0.276-0.066-0.568-0.036-0.879,0.09l1.646,2.329c0.492-0.177,0.826-0.282,1.004-0.314c0.336-0.062,0.644-0.067,0.918-0.017
			c0.277,0.05,0.535,0.155,0.779,0.314c0.242,0.16,0.452,0.368,0.633,0.622c0.396,0.559,0.541,1.147,0.438,1.765
			c-0.104,0.617-0.438,1.132-1.004,1.546l0.577,0.818L27.582,23.892z M22.584,16.821c-0.29,0.263-0.457,0.558-0.5,0.885
			c-0.043,0.328,0.033,0.63,0.229,0.909c0.195,0.274,0.437,0.452,0.728,0.532s0.665,0.05,1.122-0.092L22.584,16.821z M27.021,22.078
			c0.297-0.254,0.47-0.568,0.516-0.941c0.047-0.374-0.053-0.733-0.295-1.076c-0.208-0.294-0.447-0.48-0.725-0.558
			c-0.275-0.078-0.688-0.04-1.235,0.117L27.021,22.078z"/>
	</g>
	<g>
		<path d="M14.197,26.789c0.612,0.865,0.384,2.048-0.511,2.639c-0.893,0.592-2.114,0.371-2.725-0.496
			c-0.612-0.863-0.383-2.045,0.511-2.637C12.365,25.703,13.584,25.924,14.197,26.789z"/>
		<path d="M38.904,10.425c0.609,0.866,0.382,2.046-0.512,2.64c-0.895,0.591-2.115,0.37-2.727-0.496
			c-0.611-0.865-0.382-2.046,0.511-2.638C37.072,9.339,38.293,9.562,38.904,10.425z"/>
	</g>
	<path d="M25.338,27.001c-2.507,0-4.887-1.247-6.366-3.337c-1.204-1.702-1.662-3.725-1.292-5.698
		c0.345-1.842,1.387-3.421,2.934-4.445c1.149-0.761,2.501-1.163,3.911-1.163c2.508,0,4.889,1.248,6.368,3.338
		c1.203,1.704,1.662,3.729,1.291,5.702c-0.347,1.841-1.39,3.418-2.937,4.44C28.099,26.599,26.747,27.001,25.338,27.001z
		 M24.524,14.357c-1.016,0-1.986,0.287-2.806,0.83c-1.092,0.723-1.828,1.841-2.073,3.146c-0.269,1.437,0.071,2.919,0.959,4.175
		c1.105,1.561,2.875,2.492,4.733,2.492c1.015,0,1.985-0.287,2.805-0.831c1.093-0.722,1.83-1.838,2.075-3.143
		c0.271-1.437-0.07-2.92-0.958-4.178C28.154,15.29,26.384,14.357,24.524,14.357z"/>
	<path d="M13.416,39.729L1.454,22.807L36.448-0.369l11.964,16.923L13.416,39.729z M4.277,23.336L13.93,36.99l31.658-20.966
		L35.935,2.369L4.277,23.336z"/>
	<polygon points="13.004,44.133 1.288,27.556 2.92,26.401 13.518,41.395 46.302,19.683 47.405,21.35 	"/>
	<polygon points="11.901,48.369 0.184,31.793 1.816,30.639 12.415,45.631 45.198,23.918 46.302,25.586 	"/>
</g>
</svg>
