<?xml version="1.0" encoding="utf-8"?>
<!-- Generator: Adobe Illustrator 16.0.0, SVG Export Plug-In . SVG Version: 6.00 Build 0)  -->
<!DOCTYPE svg PUBLIC "-//W3C//DTD SVG 1.1//EN" "http://www.w3.org/Graphics/SVG/1.1/DTD/svg11.dtd">
<svg version="1.1" id="Layer_1" xmlns="http://www.w3.org/2000/svg" xmlns:xlink="http://www.w3.org/1999/xlink" x="0px" y="0px"
	 width="48px" height="48px" viewBox="0 0 48 48" enable-background="new 0 0 48 48" xml:space="preserve">
<g>
	<path d="M34.098,43.327l-1.938-1.024c-0.491-0.26-12.106-6.454-17.993-14.365c-3.061-4.116-4.399-6.823-5.476-8.997
		c-0.969-1.959-1.67-3.375-3.242-5C2.853,11.26,1.499,9.19,1.93,6.2L0.733,4.654c-0.562-0.729-0.82-1.628-0.708-2.467
		c0.092-0.693,0.433-1.294,0.958-1.691c1.167-0.884,3.069-0.484,4.093,0.845l1.199,1.546c3.029,0.367,4.693,2.2,6.631,5.381
		c1.173,1.927,2.372,2.967,4.031,4.406c1.84,1.596,4.13,3.582,7.344,7.578c6.186,7.687,9.194,20.402,9.319,20.94L34.098,43.327z
		 M2.5,2C2.374,2,2.27,2.03,2.19,2.09C2.067,2.184,2.023,2.339,2.008,2.452C1.966,2.761,2.082,3.127,2.316,3.432l1.743,2.251
		L3.97,6.129c-0.43,2.169,0.251,3.669,2.916,6.42c1.789,1.85,2.587,3.462,3.597,5.504c1.041,2.103,2.335,4.72,5.288,8.691
		c4.177,5.613,11.664,10.474,15.271,12.62c-1.153-4.011-3.938-12.414-8.319-17.858c-3.101-3.857-5.316-5.777-7.096-7.32
		c-1.729-1.499-3.094-2.683-4.429-4.876c-1.991-3.268-3.281-4.312-5.519-4.47L5.233,4.808l-1.74-2.244C3.228,2.22,2.839,2,2.5,2z"/>
	<rect x="3.079" y="11.862" transform="matrix(0.6248 0.7808 -0.7808 0.6248 13.9671 -3.3406)" width="14.761" height="2"/>
	<path d="M37.616,48.001c-0.952,0-1.842-0.045-2.549-0.179c-1.377-0.263-2.235-1.093-2.992-1.825
		c-0.387-0.375-0.755-0.73-1.188-1.025c-0.467,0.034-0.979,0.049-1.55,0.041l-0.592,0.005c-0.896,0.009-1.822,0.026-2.785-0.311
		c-1.067-0.377-1.699-1.043-1.735-1.829c-0.019-0.414,0.124-1.189,1.298-1.731c2.201-1.02,3.86,0.246,5.193,1.261
		c0.228,0.173,0.446,0.34,0.662,0.492c0.543-0.081,0.839-0.188,0.987-0.26c-0.066-0.104-0.192-0.27-0.433-0.5l1.385-1.443
		c0.996,0.955,1.328,1.861,0.988,2.691c-0.175,0.427-0.503,0.766-0.997,1.021c0.053,0.051,0.104,0.101,0.155,0.15
		c0.663,0.641,1.187,1.147,1.976,1.298c1.204,0.229,3.36,0.132,5.095,0.055c0.838-0.038,1.615-0.072,2.229-0.072
		c1.337,0,3.026-0.523,3.228-1c0.035-0.084-0.066-0.379-0.491-0.815l1.434-1.395c1.246,1.28,1.178,2.331,0.9,2.988
		c-0.77,1.822-3.921,2.222-5.07,2.222c-0.59,0-1.336,0.034-2.14,0.07C39.645,47.954,38.598,48.001,37.616,48.001z M26.687,42.842
		c0.426,0.138,0.877,0.175,1.371,0.18C27.589,42.789,27.16,42.709,26.687,42.842z"/>
</g>
</svg>
