<?xml version="1.0" encoding="utf-8"?>
<!-- Generator: Adobe Illustrator 16.0.0, SVG Export Plug-In . SVG Version: 6.00 Build 0)  -->
<!DOCTYPE svg PUBLIC "-//W3C//DTD SVG 1.1//EN" "http://www.w3.org/Graphics/SVG/1.1/DTD/svg11.dtd">
<svg version="1.1" id="Layer_1" xmlns="http://www.w3.org/2000/svg" xmlns:xlink="http://www.w3.org/1999/xlink" x="0px" y="0px"
	 width="48px" height="48px" viewBox="0 0 48 48" enable-background="new 0 0 48 48" xml:space="preserve">
<g>
	<path d="M23.127,14.093c-0.75,0-1.856-0.042-2.863-0.242c-2.031-0.4-2.734-1.476-3.478-2.614c-0.708-1.089-1.19-2.201-1.657-3.276
		l-0.081-0.186c-0.689-1.58-1.549-2.406-3.338-3.774l-0.463-0.354l0.079-0.577c0.066-0.484,0.586-2.064,4.486-2.064
		c1.885,0,4.36,0.362,7.359,1.077c0.328,0.078,0.737,0.168,0.995,0.168c0.103,0,0.136-0.014,0.136-0.015c0,0,0.079-0.05,0.222-0.346
		c0.108-0.223,0.173-0.401,0.226-0.545C25.2,0.116,25.831,0,27.387,0c2.483,0.003,5.49,0.766,7.313,1.855l0.996,0.595l-0.735,0.897
		c-0.737,0.898-1.315,2.118-1.929,3.408c-1.443,3.042-3.24,6.827-8.128,7.26C24.34,14.066,23.726,14.093,23.127,14.093z
		 M13.936,3.209c1.233,1.019,2.204,2.063,2.948,3.768l0.082,0.189c0.453,1.045,0.881,2.033,1.497,2.979
		c0.731,1.119,1.043,1.518,2.19,1.745c1.056,0.21,2.678,0.261,4.075,0.135c3.749-0.333,5.084-3.146,6.498-6.125
		c0.454-0.957,0.919-1.937,1.472-2.814C31.168,2.437,29.105,2.002,27.386,2c-0.341,0-0.592,0.006-0.752,0.018
		c-0.002,0.005-0.004,0.011-0.006,0.017c-0.07,0.193-0.159,0.431-0.303,0.727c-0.307,0.639-0.866,1.491-2.159,1.491
		c-0.374,0-0.796-0.064-1.458-0.223c-2.847-0.678-5.167-1.022-6.895-1.022C14.92,3.007,14.325,3.101,13.936,3.209z"/>
	<path d="M20.703,47.998c-1.313,0-2.44-0.102-3.352-0.303c-0.458-0.102-0.889-0.229-1.315-0.354
		c-0.819-0.242-1.525-0.451-2.368-0.457c0,0,0,0-0.001,0c-0.781,0-1.465,0.173-2.189,0.355c-0.531,0.134-1.08,0.271-1.696,0.358
		c-1.205,0.166-2.888,0.191-4.26,0.093c-2.463-0.175-5.263-1.852-5.491-4.253c-0.114-1.245,0.099-2.551,0.306-3.814
		c0.09-0.551,0.179-1.094,0.235-1.611c0.094-0.878,0.253-1.695,0.407-2.484c0.063-0.326,0.127-0.652,0.187-0.985
		c0.163-0.91,0.533-1.702,0.891-2.468c0.252-0.54,0.491-1.051,0.649-1.581C2.811,30.142,2.906,29.798,3,29.458
		c0.336-1.214,0.683-2.47,1.418-3.772c0.758-1.351,1.669-2.834,2.708-4.409c3.956-5.993,11.279-7.265,16.726-7.276h0.507
		l0.162,0.057c0.059,0.021,0.165,0.023,0.25,0.023l0.379-0.005c0.121,0,0.244,0.004,0.37,0.015
		c6.41,0.588,11.832,2.762,14.877,5.963c0.924,0.977,1.264,2.025,1.593,3.039c0.09,0.274,0.179,0.552,0.283,0.831
		c0.491,1.316,1.109,2.486,1.648,3.458c0.731,1.318,1.303,2.837,1.796,4.779c0.192,0.753,0.528,1.477,0.884,2.243
		c0.343,0.739,0.698,1.504,0.94,2.34c0.36,1.249,1.034,4.443-0.496,7.128c-1.473,2.591-3.565,2.602-5.59,2.612
		c-0.547,0.003-1.13,0.006-1.754,0.055c-0.522,0.041-1.013,0.171-1.532,0.309c-0.697,0.186-1.489,0.395-2.433,0.395
		c-1.196,0-2.361-0.064-3.488-0.128c-0.45-0.024-0.902-0.05-1.359-0.071l-0.279-0.014c-1.299-0.063-2.697-0.104-3.746,0.024
		c-0.646,0.08-1.278,0.239-1.948,0.407c-0.889,0.224-1.807,0.454-2.794,0.501C21.664,47.984,21.186,47.998,20.703,47.998z
		 M13.632,44.884c1.175,0.009,2.088,0.278,2.971,0.539c0.383,0.113,0.77,0.229,1.18,0.319c0.769,0.17,1.752,0.256,2.92,0.256
		c0.451,0,0.896-0.013,1.323-0.033c0.789-0.037,1.572-0.234,2.401-0.442c0.7-0.176,1.424-0.358,2.191-0.452
		c1.17-0.146,2.675-0.107,4.089-0.038l0.276,0.014c0.461,0.021,0.92,0.047,1.376,0.072c1.15,0.064,2.236,0.125,3.377,0.125
		c0.684,0,1.284-0.159,1.921-0.327c0.582-0.154,1.184-0.313,1.887-0.37c0.687-0.054,1.332-0.057,1.9-0.061
		c2.106-0.011,2.995-0.076,3.862-1.602c0.801-1.404,0.917-3.49,0.313-5.583c-0.199-0.688-0.507-1.352-0.833-2.054
		c-0.378-0.815-0.77-1.658-1.007-2.592c-0.451-1.771-0.961-3.138-1.606-4.302c-0.575-1.036-1.236-2.289-1.773-3.729
		c-0.115-0.307-0.214-0.612-0.312-0.913c-0.285-0.876-0.531-1.633-1.143-2.281c-2.713-2.853-7.674-4.803-13.607-5.348
		c-0.063-0.005-0.126-0.007-0.188-0.007l-0.379,0.005c-0.2,0-0.454-0.01-0.729-0.08l-0.191,0c-4.952,0.01-11.588,1.125-15.056,6.378
		c-1.013,1.534-1.899,2.977-2.634,4.287c-0.616,1.091-0.916,2.177-1.233,3.325c-0.098,0.354-0.197,0.711-0.306,1.075
		c-0.2,0.671-0.481,1.272-0.753,1.854c-0.318,0.68-0.618,1.321-0.734,1.973c-0.062,0.344-0.127,0.681-0.192,1.016
		c-0.153,0.783-0.297,1.522-0.382,2.315c-0.059,0.553-0.153,1.133-0.25,1.722c-0.186,1.139-0.378,2.317-0.288,3.305
		c0.107,1.13,1.878,2.319,3.643,2.445c1.247,0.089,2.781,0.066,3.841-0.079c0.507-0.071,0.981-0.191,1.483-0.317
		C11.8,45.095,12.639,44.884,13.632,44.884z"/>
</g>
</svg>
