<?xml version="1.0" encoding="utf-8"?>
<!-- Generator: Adobe Illustrator 16.0.0, SVG Export Plug-In . SVG Version: 6.00 Build 0)  -->
<!DOCTYPE svg PUBLIC "-//W3C//DTD SVG 1.1//EN" "http://www.w3.org/Graphics/SVG/1.1/DTD/svg11.dtd">
<svg version="1.1" id="Layer_1" xmlns="http://www.w3.org/2000/svg" xmlns:xlink="http://www.w3.org/1999/xlink" x="0px" y="0px"
	 width="48px" height="48px" viewBox="0 0 48 48" enable-background="new 0 0 48 48" xml:space="preserve">
<g>
	<path d="M44.732,47.999H2.643V0.001h42.089V47.999z M4.643,45.999h38.089V2.001H4.643V45.999z"/>
	<g>
		<path d="M13.543,16.053H7.598V4.579h5.945V16.053z M9.598,14.053h1.945V6.579H9.598V14.053z"/>
		<path d="M22.288,16.053h-5.944V4.579h5.944V16.053z M18.344,14.053h1.944V6.579h-1.944V14.053z"/>
		<path d="M31.034,16.053h-5.943V4.579h5.943V16.053z M27.091,14.053h1.943V6.579h-1.943V14.053z"/>
		<path d="M39.781,16.053h-5.943V4.579h5.943V16.053z M35.838,14.053h1.943V6.579h-1.943V14.053z"/>
	</g>
	<g>
		<path d="M13.543,29.736H7.598V18.264h5.945V29.736z M9.598,27.736h1.945v-7.472H9.598V27.736z"/>
		<path d="M22.288,29.736h-5.944V18.264h5.944V29.736z M18.344,27.736h1.944v-7.472h-1.944V27.736z"/>
		<path d="M31.034,29.736h-5.943V18.264h5.943V29.736z M27.091,27.736h1.943v-7.472h-1.943V27.736z"/>
		<path d="M39.781,29.736h-5.943V18.264h5.943V29.736z M35.838,27.736h1.943v-7.472h-1.943V27.736z"/>
	</g>
	<path d="M13.543,43.421H7.598V31.945h5.945V43.421z M9.598,41.421h1.945v-7.476H9.598V41.421z"/>
	<path d="M31.034,47.999h-14.69V31.945h14.69V47.999z M18.344,45.999h10.69V33.945h-10.69V45.999z"/>
	<path d="M39.781,43.421h-5.943V31.945h5.943V43.421z M35.838,41.421h1.943v-7.476h-1.943V41.421z"/>
	<rect x="1" y="45.999" width="46" height="2"/>
</g>
</svg>
