<?xml version="1.0" encoding="utf-8"?>
<!-- Generator: Adobe Illustrator 16.0.0, SVG Export Plug-In . SVG Version: 6.00 Build 0)  -->
<!DOCTYPE svg PUBLIC "-//W3C//DTD SVG 1.1//EN" "http://www.w3.org/Graphics/SVG/1.1/DTD/svg11.dtd">
<svg version="1.1" id="Layer_1" xmlns="http://www.w3.org/2000/svg" xmlns:xlink="http://www.w3.org/1999/xlink" x="0px" y="0px"
	 width="48px" height="48px" viewBox="0 0 48 48" enable-background="new 0 0 48 48" xml:space="preserve">
<g>
	<path d="M8.766,2.124l37.111,37.11l-6.641,6.643L2.123,8.767L8.766,2.124 M8.766,0L0,8.767L39.236,48L48,39.234L8.766,0L8.766,0z"
		/>
	<g>
		<rect x="3.422" y="5.863" transform="matrix(0.7074 0.7068 -0.7068 0.7074 6.8069 -0.6374)" width="1.502" height="4.081"/>
		<rect x="4.29" y="8.675" transform="matrix(0.7071 0.7071 -0.7071 0.7071 8.4839 -0.6616)" width="1.501" height="2.47"/>
		<rect x="6.296" y="8.738" transform="matrix(0.7068 0.7074 -0.7074 0.7068 9.6909 -1.8249)" width="1.502" height="4.08"/>
		<rect x="7.164" y="11.549" transform="matrix(0.7071 0.7071 -0.7071 0.7071 11.3577 -1.8525)" width="1.501" height="2.47"/>
		<rect x="9.17" y="11.611" transform="matrix(0.7074 0.7068 -0.7068 0.7074 12.5511 -3.018)" width="1.502" height="4.08"/>
		<rect x="10.038" y="14.422" transform="matrix(0.7071 0.7071 -0.7071 0.7071 14.2312 -3.0428)" width="1.501" height="2.47"/>
		<rect x="12.045" y="14.485" transform="matrix(0.7071 0.7071 -0.7071 0.7071 15.4324 -4.2073)" width="1.5" height="4.08"/>
		<rect x="12.911" y="17.297" transform="matrix(0.7071 0.7071 -0.7071 0.7071 17.1056 -4.2331)" width="1.503" height="2.469"/>
		<rect x="14.918" y="17.36" transform="matrix(0.7071 0.7071 -0.7071 0.7071 18.3068 -5.3977)" width="1.503" height="4.08"/>
		<rect x="15.786" y="20.17" transform="matrix(0.7071 0.7071 -0.7071 0.7071 19.9788 -5.4235)" width="1.5" height="2.47"/>
		<rect x="17.792" y="20.233" transform="matrix(0.7068 0.7074 -0.7074 0.7068 21.1936 -6.5867)" width="1.502" height="4.079"/>
		<rect x="18.66" y="23.044" transform="matrix(0.7078 0.7065 -0.7065 0.7078 22.8249 -6.6173)" width="1.501" height="2.471"/>
		<rect x="20.666" y="23.108" transform="matrix(0.7071 0.7071 -0.7071 0.7071 24.0548 -7.7786)" width="1.503" height="4.08"/>
		<rect x="21.534" y="25.917" transform="matrix(0.7071 0.7071 -0.7071 0.7071 25.7265 -7.8046)" width="1.5" height="2.471"/>
		<rect x="23.54" y="25.98" transform="matrix(0.7071 0.7071 -0.7071 0.7071 26.9282 -8.9693)" width="1.503" height="4.081"/>
		<rect x="24.408" y="28.792" transform="matrix(0.7078 0.7065 -0.7065 0.7078 28.5653 -8.9979)" width="1.501" height="2.471"/>
		<rect x="26.414" y="28.853" transform="matrix(0.7078 0.7065 -0.7065 0.7078 29.7637 -10.1625)" width="1.501" height="4.081"/>
		<rect x="27.283" y="31.667" transform="matrix(0.7078 0.7065 -0.7065 0.7078 31.4359 -10.189)" width="1.501" height="2.469"/>
		<rect x="29.288" y="31.729" transform="matrix(0.7065 0.7078 -0.7078 0.7065 32.7177 -11.3478)" width="1.501" height="4.08"/>
		<rect x="30.157" y="34.539" transform="matrix(0.7078 0.7065 -0.7065 0.7078 34.3055 -11.3798)" width="1.501" height="2.471"/>
		<rect x="32.161" y="34.602" transform="matrix(0.7065 0.7078 -0.7078 0.7065 35.5945 -12.5378)" width="1.501" height="4.08"/>
		<rect x="33.03" y="37.414" transform="matrix(0.7065 0.7078 -0.7078 0.7065 37.2697 -12.5632)" width="1.501" height="2.469"/>
		<rect x="35.035" y="37.477" transform="matrix(0.7071 0.7071 -0.7071 0.7071 38.424 -13.7305)" width="1.503" height="4.08"/>
		<rect x="35.903" y="40.287" transform="matrix(0.7071 0.7071 -0.7071 0.7071 40.0966 -13.7569)" width="1.503" height="2.471"/>
		<rect x="37.91" y="40.351" transform="matrix(0.7065 0.7078 -0.7078 0.7065 41.3507 -14.9185)" width="1.501" height="4.078"/>
		<rect x="38.778" y="43.162" transform="matrix(0.7065 0.7078 -0.7078 0.7065 43.0252 -14.9441)" width="1.501" height="2.469"/>
	</g>
</g>
</svg>
