<?xml version="1.0" encoding="utf-8"?>
<!-- Generator: Adobe Illustrator 16.0.0, SVG Export Plug-In . SVG Version: 6.00 Build 0)  -->
<!DOCTYPE svg PUBLIC "-//W3C//DTD SVG 1.1//EN" "http://www.w3.org/Graphics/SVG/1.1/DTD/svg11.dtd">
<svg version="1.1" id="Layer_1" xmlns="http://www.w3.org/2000/svg" xmlns:xlink="http://www.w3.org/1999/xlink" x="0px" y="0px"
	 width="48px" height="48px" viewBox="0 0 48 48" enable-background="new 0 0 48 48" xml:space="preserve">
<g>
	<path d="M23.788,43.347c-6.834,0-13.383-2.322-17.967-6.377l-0.185-0.162l-0.048-0.24c-0.192-0.975-0.53-3.408,0.484-4.961
		c1.033-1.582,2.841-2.354,4.588-3.1c0.941-0.402,1.832-0.785,2.524-1.262c0.71-0.49,1.489-1.715,1.511-2.836
		c0.012-0.596-0.198-1.061-0.623-1.379c-0.125-0.094-0.268-0.18-0.449-0.27c-0.606-0.221-1.357-0.332-2.234-0.332
		c-1.938,0-3.973,0.537-4.961,0.854l0.027,0.072l-0.771,0.199c-0.766,0.195-1.418,0.291-1.996,0.291l0,0
		c-1.525,0-2.62-0.658-3.254-1.957c-0.228-0.464-0.336-0.961-0.406-1.341L0,20.394l0.038-0.151c0.453-1.846,1.248-3.632,2.362-5.31
		l0.852-1.281l0.033,0.106c1.221-1.573,2.78-3.024,4.655-4.334L7.933,9.411l0.557-0.405c0.808-0.528,1.674-1.021,2.572-1.467
		c1.186-0.61,1.99-0.915,2.023-0.928l0.922-0.347L14.009,6.3c3.086-1.093,6.371-1.646,9.779-1.646C37.139,4.653,48,13.332,48,23.999
		C48,34.669,37.139,43.347,23.788,43.347z M6.972,36.044c4.313,3.719,10.426,5.848,16.816,5.848
		c12.548,0,22.757-8.025,22.757-17.893c0-9.864-10.209-17.891-22.757-17.891c-3.57,0-6.995,0.638-10.178,1.895L12.68,8.371V8.368
		c-0.274,0.127-0.599,0.283-0.962,0.472c-0.65,0.321-1.276,0.666-1.873,1.03l0.004,0.008l-0.543,0.376
		c-2.455,1.624-4.362,3.483-5.669,5.527l-0.812,1.271c-0.59,1.094-1.037,2.228-1.336,3.385c0.071,0.352,0.149,0.6,0.253,0.812
		c0.386,0.79,0.985,1.142,1.946,1.142h0.001c0.452,0,0.986-0.08,1.632-0.246l0.003,0.01c1.09-0.509,3.967-1.181,6.065-1.181
		c1.067,0,2.002,0.147,2.777,0.436l0.068,0.03c0.274,0.135,0.506,0.274,0.709,0.426c0.811,0.607,1.229,1.498,1.207,2.574
		c-0.028,1.484-0.928,3.168-2.139,4.004c-0.813,0.563-1.813,0.988-2.779,1.402c-1.549,0.662-3.149,1.346-3.941,2.559
		C6.823,33.12,6.704,34.501,6.972,36.044z M30.48,37.487c-2.762,0-5.006-1.973-5.006-4.395c0-2.424,2.244-4.396,5.006-4.396
		c2.76,0,5.008,1.973,5.008,4.396C35.488,35.515,33.24,37.487,30.48,37.487z M30.48,30.151c-1.959,0-3.551,1.32-3.551,2.941
		s1.592,2.939,3.551,2.939s3.551-1.318,3.551-2.939S32.439,30.151,30.48,30.151z M37.816,30.151c-2.762,0-5.008-1.971-5.008-4.395
		s2.246-4.396,5.008-4.396c2.76,0,5.006,1.973,5.006,4.396S40.576,30.151,37.816,30.151z M37.816,22.817
		c-1.959,0-3.553,1.318-3.553,2.939s1.594,2.939,3.553,2.939c1.957,0,3.551-1.318,3.551-2.939S39.773,22.817,37.816,22.817z
		 M33.535,20.127c-2.76,0-5.006-1.973-5.006-4.396c0-2.424,2.246-4.396,5.006-4.396c2.762,0,5.008,1.972,5.008,4.396
		C38.543,18.154,36.297,20.127,33.535,20.127z M33.535,12.792c-1.957,0-3.551,1.318-3.551,2.939s1.594,2.94,3.551,2.94
		c1.959,0,3.553-1.319,3.553-2.94S35.494,12.792,33.535,12.792z M21.923,16.459c-2.761,0-5.007-1.972-5.007-4.396
		c0-2.423,2.246-4.396,5.007-4.396s5.007,1.973,5.007,4.396C26.93,14.487,24.684,16.459,21.923,16.459z M21.923,9.124
		c-1.959,0-3.551,1.318-3.551,2.939s1.592,2.939,3.551,2.939c1.958,0,3.552-1.318,3.552-2.939S23.881,9.124,21.923,9.124z"/>
</g>
</svg>
