<?xml version="1.0" encoding="utf-8"?>
<!-- Generator: Adobe Illustrator 16.0.0, SVG Export Plug-In . SVG Version: 6.00 Build 0)  -->
<!DOCTYPE svg PUBLIC "-//W3C//DTD SVG 1.1//EN" "http://www.w3.org/Graphics/SVG/1.1/DTD/svg11.dtd">
<svg version="1.1" id="Layer_1" xmlns="http://www.w3.org/2000/svg" xmlns:xlink="http://www.w3.org/1999/xlink" x="0px" y="0px"
	 width="48px" height="48px" viewBox="0 0 48 48" enable-background="new 0 0 48 48" xml:space="preserve">
<g>
	<path d="M35.012,22.24l-0.643-1.356c3.896-1.846,6.783-7.044,8.584-15.452l1.469,0.314C42.49,14.76,39.414,20.155,35.012,22.24z"/>
	<path d="M26.848,21.972c-2.078-1.393-3.487-3.827-4.85-6.181c-1.584-2.739-3.223-5.57-5.852-6.616l0.556-1.395
		c3.112,1.238,4.884,4.299,6.596,7.259c1.335,2.308,2.597,4.487,4.386,5.687L26.848,21.972z"/>
	<path d="M4.988,17.694l-1.457-0.365c0.807-3.231,2.555-7.462,6.301-9.258l0.65,1.355C7.262,10.969,5.717,14.774,4.988,17.694z"/>
	<circle cx="3.675" cy="20.832" r="2.363"/>
	<circle cx="13.303" cy="7.895" r="2.364"/>
	<circle cx="31.016" cy="22.416" r="2.363"/>
	<g>
		<circle cx="21.901" cy="22.416" r="1.206"/>
		<circle cx="40.131" cy="22.416" r="1.205"/>
	</g>
	<circle cx="44.324" cy="2.364" r="2.363"/>
	<g>
		<rect x="27.635" y="33.198" transform="matrix(0.7687 -0.6397 0.6397 0.7687 -14.5403 28.0522)" width="7.752" height="1.86"/>
		<polygon points="44.084,42.406 37.361,48 29.799,37.355 34.994,33.031 		"/>
		<path d="M30.559,27.34c0,0-4.002-0.1-6.977-2.918l4.143,4.977c0.256-0.139,0.578-0.096,0.77,0.135
			c0.193,0.232,0.176,0.557-0.008,0.781l1.395,1.68l-0.172,0.145l-1.396-1.678c-0.254,0.139-0.576,0.096-0.768-0.135
			c-0.195-0.232-0.178-0.557,0.006-0.779l-4.143-4.98c2.232,3.436,1.604,7.391,1.604,7.391c2.027,0.699,3.207,2.992,3.207,2.992
			l1.719-1.43l0.543-0.455l0.174-0.143l0.588-0.49l1.674-1.393C32.916,31.039,30.877,29.461,30.559,27.34z"/>
	</g>
	<rect x="22.913" y="22.041" width="16.204" height="0.75"/>
</g>
</svg>
