<?xml version="1.0" encoding="utf-8"?>
<!-- Generator: Adobe Illustrator 16.0.0, SVG Export Plug-In . SVG Version: 6.00 Build 0)  -->
<!DOCTYPE svg PUBLIC "-//W3C//DTD SVG 1.1//EN" "http://www.w3.org/Graphics/SVG/1.1/DTD/svg11.dtd">
<svg version="1.1" id="Layer_1" xmlns="http://www.w3.org/2000/svg" xmlns:xlink="http://www.w3.org/1999/xlink" x="0px" y="0px"
	 width="48px" height="48px" viewBox="0 0 48 48" enable-background="new 0 0 48 48" xml:space="preserve">
<g>
	<g>
		<path d="M44.384,48H3.616c-1.654,0-3-1.346-3-3V15.056c0-1.654,1.346-3,3-3h40.768c1.654,0,3,1.346,3,3V45
			C47.384,46.654,46.038,48,44.384,48z M3.616,14.056c-0.551,0-1,0.449-1,1V45c0,0.552,0.449,1,1,1h40.768c0.552,0,1-0.448,1-1
			V15.056c0-0.551-0.448-1-1-1H3.616z"/>
	</g>
	<path d="M4.095,43.865c0.005-0.011,0.019-0.049,0.02-0.103l-2-0.035c0.017-0.959,0.804-1.559,1.378-1.996
		c0.144-0.109,0.282-0.211,0.386-0.312c0.252-0.247,0.518-0.486,0.785-0.727c0.478-0.43,0.929-0.835,1.292-1.284l0.943-1.183
		c0.796-0.999,1.588-1.994,2.409-2.974c1.099-1.308,2.044-2.631,3.044-4.032c0.296-0.414,0.592-0.829,0.894-1.245
		c0.142-0.196,0.302-0.471,0.482-0.773c0.86-1.451,2.301-3.876,4.41-2.88c1.308,0.62,2.066,1.769,2.734,2.782
		c0.447,0.677,0.868,1.316,1.396,1.735c1.874,1.481,3.375,2.958,4.724,4.646c0.174,0.216,0.334,0.48,0.494,0.752
		c0.161,0.272,0.382,0.646,0.535,0.731c0.151,0.082,0.321,0.005,0.959-0.601c0.111-0.105,0.22-0.208,0.328-0.304l0.252-0.227
		c0.839-0.75,1.705-1.525,2.299-2.406l0.296-0.448c0.331-0.507,0.673-1.03,1.153-1.541c2.192-2.318,4.521-0.824,6.063,0.168
		c1.223,0.782,2.37,1.68,3.48,2.548c1.147,0.897,2.334,1.825,3.568,2.592l-1.055,1.699c-1.326-0.824-2.557-1.786-3.746-2.716
		c-1.073-0.839-2.184-1.707-3.328-2.44c-1.889-1.214-2.621-1.438-3.528-0.478c-0.357,0.38-0.625,0.788-0.934,1.262l-0.313,0.474
		c-0.731,1.086-1.692,1.946-2.622,2.777l-0.254,0.229c-0.097,0.085-0.189,0.173-0.284,0.263c-0.636,0.603-1.817,1.721-3.307,0.897
		c-0.628-0.351-0.992-0.967-1.285-1.463c-0.109-0.186-0.214-0.37-0.334-0.519c-1.252-1.567-2.652-2.942-4.404-4.328
		c-0.78-0.618-1.311-1.423-1.824-2.201c-0.575-0.872-1.119-1.695-1.921-2.076c-0.459-0.209-1.459,1.459-1.834,2.093
		c-0.215,0.362-0.411,0.688-0.582,0.925c-0.3,0.414-0.594,0.825-0.886,1.235c-0.979,1.371-1.992,2.789-3.14,4.155
		c-0.809,0.966-1.591,1.948-2.377,2.935l-0.95,1.19c-0.465,0.576-0.998,1.055-1.513,1.518c-0.246,0.221-0.491,0.44-0.724,0.67
		c-0.156,0.151-0.358,0.31-0.572,0.472C4.515,43.468,4.16,43.738,4.095,43.865z"/>
	<path d="M29.859,27.288c-2.782,0-5.045-2.263-5.045-5.044s2.263-5.044,5.045-5.044c1.351,0,2.619,0.524,3.572,1.477
		s1.478,2.219,1.478,3.567C34.909,25.025,32.644,27.288,29.859,27.288z M29.861,19.2c-1.68,0-3.047,1.366-3.047,3.044
		s1.366,3.044,3.045,3.044c1.682,0,3.05-1.366,3.05-3.044S31.542,19.2,29.861,19.2z"/>
	<path d="M38.538,14.056c-0.256,0-0.512-0.098-0.707-0.293L27.525,3.451c-1.945-1.939-5.105-1.939-7.044,0L10.168,13.763
		c-0.391,0.391-1.023,0.391-1.414,0s-0.391-1.023,0-1.414L19.067,2.037c2.718-2.718,7.146-2.719,9.872-0.001l10.307,10.313
		c0.391,0.391,0.391,1.024,0,1.415C39.05,13.958,38.794,14.056,38.538,14.056z"/>
</g>
</svg>
