<?xml version="1.0" encoding="utf-8"?>
<!-- Generator: Adobe Illustrator 16.0.0, SVG Export Plug-In . SVG Version: 6.00 Build 0)  -->
<!DOCTYPE svg PUBLIC "-//W3C//DTD SVG 1.1//EN" "http://www.w3.org/Graphics/SVG/1.1/DTD/svg11.dtd">
<svg version="1.1" id="Layer_1" xmlns="http://www.w3.org/2000/svg" xmlns:xlink="http://www.w3.org/1999/xlink" x="0px" y="0px"
	 width="48px" height="48px" viewBox="0 0 48 48" enable-background="new 0 0 48 48" xml:space="preserve">
<g>
	<path d="M26.13,29.064c-0.816,0-2.231-0.42-4.271-2.459c-1.1-1.1-1.768-2.139-1.987-3.088c-0.222-0.961,0.021-1.854,0.683-2.516
		L40.849,0.707l1.035,1.034L21.588,22.036c-0.31,0.31-0.401,0.675-0.291,1.153c0.106,0.465,0.472,1.258,1.596,2.383
		c1.958,1.957,3.021,2.047,3.304,2.023l20.77-20.771l1.035,1.034L27.093,28.768c-0.049,0.049-0.105,0.092-0.168,0.125
		C26.821,28.949,26.558,29.064,26.13,29.064z"/>
	<path d="M3.466,47.293c-1.594,0-2.639-0.082-2.796-0.096c-0.295-0.025-0.546-0.225-0.636-0.506c-0.09-0.283,0-0.592,0.227-0.783
		c4-3.355,3.814-6.768,3.616-10.381c-0.179-3.271-0.362-6.652,3.016-9.488c6.747-5.661,13.38-4.287,13.659-4.226l-0.314,1.429
		l0.157-0.715l-0.155,0.715c-0.062-0.012-6.232-1.263-12.406,3.918c-2.819,2.363-2.67,5.109-2.496,8.287
		c0.178,3.252,0.377,6.893-2.847,10.363c4.085,0.074,14.624-0.334,20.13-5.961c2.764-2.824,3.912-6.639,3.414-11.336l1.455-0.154
		c0.545,5.154-0.742,9.365-3.826,12.516C18.115,46.543,8.282,47.293,3.466,47.293z"/>
</g>
</svg>
