<?xml version="1.0" encoding="utf-8"?>
<!-- Generator: Adobe Illustrator 16.0.0, SVG Export Plug-In . SVG Version: 6.00 Build 0)  -->
<!DOCTYPE svg PUBLIC "-//W3C//DTD SVG 1.1//EN" "http://www.w3.org/Graphics/SVG/1.1/DTD/svg11.dtd">
<svg version="1.1" id="Layer_1" xmlns="http://www.w3.org/2000/svg" xmlns:xlink="http://www.w3.org/1999/xlink" x="0px" y="0px"
	 width="48px" height="48px" viewBox="0 0 48 48" enable-background="new 0 0 48 48" xml:space="preserve">
<g>
	<path d="M14.115,43.972c-0.192,0-0.378-0.078-0.515-0.215l-7.771-7.771c-0.145-0.145-0.223-0.344-0.213-0.547
		c0.009-0.205,0.104-0.395,0.26-0.525c0.053-0.045,5.377-4.646,5.564-13.772c0.005-0.188,0.08-0.367,0.214-0.5L30.495,1.8
		c0.273-0.273,0.756-0.273,1.029,0l16.262,16.263c0.285,0.285,0.285,0.746,0,1.03l-18.84,18.838c-0.133,0.135-0.313,0.211-0.5,0.215
		c-9.164,0.189-13.729,5.512-13.773,5.564c-0.131,0.156-0.321,0.252-0.525,0.26C14.137,43.97,14.126,43.972,14.115,43.972z
		 M7.386,35.483l6.717,6.717c1.507-1.475,6.119-5.25,14.02-5.502l18.121-18.119L31.009,3.344L12.89,21.465
		C12.636,29.364,8.86,33.976,7.386,35.483z"/>
	<rect x="11.22" y="26.139" transform="matrix(0.7071 0.7071 -0.7071 0.7071 25.6503 -8.1962)" width="22.999" height="1.456"/>
	<rect x="14.462" y="22.897" transform="matrix(0.7071 0.7071 -0.7071 0.7071 24.3092 -11.4376)" width="22.998" height="1.456"/>
	<rect x="17.703" y="19.656" transform="matrix(0.7071 0.7071 -0.7071 0.7071 22.9668 -14.6791)" width="22.999" height="1.456"/>
	<path d="M9.13,46.405c-0.072,0-0.146-0.012-0.217-0.033l-8.402-2.621c-0.243-0.076-0.43-0.273-0.49-0.521
		c-0.061-0.246,0.012-0.508,0.192-0.688l6.437-6.438l1.029,1.029L2.094,42.72l6.833,2.131l3.234-3.234l1.029,1.029l-3.545,3.547
		C9.507,46.331,9.319,46.405,9.13,46.405z"/>
</g>
</svg>
