<?xml version="1.0" encoding="utf-8"?>
<!-- Generator: Adobe Illustrator 16.0.0, SVG Export Plug-In . SVG Version: 6.00 Build 0)  -->
<!DOCTYPE svg PUBLIC "-//W3C//DTD SVG 1.1//EN" "http://www.w3.org/Graphics/SVG/1.1/DTD/svg11.dtd">
<svg version="1.1" id="Layer_1" xmlns="http://www.w3.org/2000/svg" xmlns:xlink="http://www.w3.org/1999/xlink" x="0px" y="0px"
	 width="48px" height="48px" viewBox="0 0 48 48" enable-background="new 0 0 48 48" xml:space="preserve">
<g>
	<path d="M0.811,48c-0.21,0-0.417-0.082-0.571-0.236c-0.212-0.213-0.289-0.525-0.199-0.811l5.609-18.076l1.543,0.479L2.036,45.967
		l16.611-5.156l0.479,1.541L1.05,47.965C0.972,47.988,0.891,48,0.811,48z"/>
	<path d="M32.639,2.282l13.074,13.076L24.108,36.965l-0.08-0.082c-0.303-0.303-0.713-0.473-1.143-0.473
		c-0.428,0-0.838,0.17-1.141,0.473l-2.813,2.813L8.3,29.063l2.813-2.811c0.303-0.303,0.473-0.715,0.473-1.143
		s-0.17-0.838-0.473-1.141l-0.081-0.08L32.639,2.282 M32.639,0L8.749,23.889l1.223,1.221l-3.954,3.953l12.915,12.916l3.953-3.953
		l1.223,1.223l23.888-23.89L32.639,0L32.639,0z"/>
	<rect x="9.553" y="26.777" transform="matrix(0.7071 0.7072 -0.7072 0.7071 25.4855 -6.3541)" width="21.719" height="1.614"/>
	<rect x="7.252" y="30.742" transform="matrix(0.7071 0.7071 -0.7071 0.7071 27.1148 -2.3633)" width="18.316" height="1.614"/>
</g>
</svg>
