<?xml version="1.0" encoding="utf-8"?>
<!-- Generator: Adobe Illustrator 16.0.0, SVG Export Plug-In . SVG Version: 6.00 Build 0)  -->
<!DOCTYPE svg PUBLIC "-//W3C//DTD SVG 1.1//EN" "http://www.w3.org/Graphics/SVG/1.1/DTD/svg11.dtd">
<svg version="1.1" id="Layer_1" xmlns="http://www.w3.org/2000/svg" xmlns:xlink="http://www.w3.org/1999/xlink" x="0px" y="0px"
	 width="48px" height="48px" viewBox="0 0 48 48" enable-background="new 0 0 48 48" xml:space="preserve">
<g>
	<path d="M48,39.236h-2V17.633c0-5.947-4.838-10.785-10.784-10.785H2.345v-2h32.871C42.265,4.848,48,10.583,48,17.633V39.236z"/>
	<path d="M35.215,43.152H6.892C3.092,43.152,0,40.061,0,36.26V17.633c0-3.8,3.092-6.892,6.892-6.892h28.324
		c3.8,0,6.892,3.092,6.892,6.892V36.26C42.107,40.061,39.016,43.152,35.215,43.152z M6.892,12.741C4.195,12.741,2,14.936,2,17.633
		V36.26c0,2.698,2.195,4.893,4.892,4.893h28.323c2.698,0,4.893-2.194,4.893-4.893V17.633c0-2.697-2.194-4.892-4.892-4.892H6.892z"/>
	<path d="M3.314,39.39c0.008-0.015,0.03-0.068,0.031-0.144l-2-0.02c0.009-0.917,0.769-1.494,1.271-1.876
		c0.125-0.095,0.245-0.183,0.335-0.27c0.227-0.222,0.461-0.433,0.695-0.645c0.43-0.388,0.835-0.753,1.163-1.155l0.949-1.187
		c0.679-0.852,1.355-1.7,2.06-2.537c0.992-1.182,1.846-2.381,2.749-3.649l0.765-1.069c0.123-0.172,0.263-0.411,0.42-0.676
		c0.74-1.246,2.116-3.566,4.097-2.629c1.198,0.567,1.886,1.609,2.493,2.529c0.395,0.6,0.769,1.165,1.228,1.529
		c1.701,1.345,3.052,2.673,4.249,4.18c0.158,0.195,0.306,0.438,0.454,0.688c0.122,0.207,0.327,0.553,0.438,0.614
		c0.001,0,0.002,0,0.003,0c0.181,0,0.539-0.338,0.732-0.521c0.103-0.096,0.202-0.19,0.301-0.277l0.218-0.195
		c0.748-0.67,1.521-1.362,2.05-2.146l0.247-0.375c0.304-0.465,0.618-0.946,1.069-1.423c2.007-2.123,4.142-0.766,5.553,0.132
		c1.103,0.709,2.13,1.513,3.123,2.29c1.075,0.842,2.091,1.638,3.196,2.326l-1.059,1.697c-1.195-0.745-2.301-1.611-3.37-2.448
		c-1.002-0.784-1.948-1.524-2.968-2.181c-1.77-1.125-2.307-1.2-3.023-0.441c-0.328,0.346-0.568,0.715-0.847,1.142l-0.264,0.399
		c-0.667,0.989-1.534,1.766-2.373,2.518l-0.223,0.199c-0.091,0.08-0.174,0.158-0.259,0.238c-0.587,0.555-1.68,1.589-3.077,0.814
		c-0.586-0.325-0.921-0.891-1.189-1.345c-0.097-0.163-0.188-0.325-0.294-0.457c-1.104-1.388-2.351-2.613-3.93-3.861
		c-0.71-0.564-1.19-1.292-1.654-1.994c-0.508-0.77-0.987-1.496-1.68-1.824c-0.126-0.061-0.489,0.103-1.521,1.842
		c-0.191,0.322-0.365,0.611-0.517,0.823l-0.759,1.061c-0.887,1.246-1.803,2.533-2.848,3.777c-0.694,0.824-1.359,1.659-2.026,2.497
		L6.363,36.54c-0.428,0.525-0.91,0.961-1.377,1.382c-0.215,0.194-0.431,0.388-0.637,0.589c-0.14,0.137-0.326,0.282-0.523,0.433
		C3.658,39.071,3.375,39.286,3.314,39.39z"/>
	<path d="M26.311,24.594c-2.552,0-4.628-2.075-4.628-4.626c0-2.548,2.076-4.622,4.628-4.622c2.546,0.001,4.616,2.075,4.616,4.622
		C30.927,22.519,28.855,24.594,26.311,24.594z M26.31,17.346c-1.448,0-2.627,1.176-2.627,2.622c0,1.448,1.179,2.626,2.628,2.626
		c1.442,0,2.616-1.178,2.616-2.626C28.927,18.523,27.753,17.347,26.31,17.346z"/>
</g>
</svg>
