<?xml version="1.0" encoding="utf-8"?>
<!-- Generator: Adobe Illustrator 16.0.0, SVG Export Plug-In . SVG Version: 6.00 Build 0)  -->
<!DOCTYPE svg PUBLIC "-//W3C//DTD SVG 1.1//EN" "http://www.w3.org/Graphics/SVG/1.1/DTD/svg11.dtd">
<svg version="1.1" id="Layer_1" xmlns="http://www.w3.org/2000/svg" xmlns:xlink="http://www.w3.org/1999/xlink" x="0px" y="0px"
	 width="48px" height="48px" viewBox="0 0 48 48" enable-background="new 0 0 48 48" xml:space="preserve">
<g>
	<path d="M30.391,29.541c-0.639-0.002-1.238-0.248-1.688-0.697l-9.714-9.716c-0.45-0.448-0.697-1.048-0.699-1.686
		c0-0.642,0.248-1.241,0.699-1.69l0.988-0.989c0.898-0.899,2.477-0.898,3.377-0.001l9.714,9.717c0.93,0.93,0.93,2.445,0.002,3.375
		l-0.99,0.99C31.629,29.293,31.031,29.539,30.391,29.541z M21.665,15.589c-0.23,0-0.448,0.089-0.609,0.251l-0.989,0.988
		c-0.163,0.163-0.251,0.38-0.251,0.611c0,0.233,0.088,0.449,0.25,0.609l9.714,9.716c0.324,0.324,0.9,0.324,1.223,0l0.988-0.988
		c0.338-0.338,0.336-0.885,0-1.223l-9.714-9.714C22.114,15.678,21.897,15.589,21.665,15.589z"/>
	<path d="M32.188,24.709l-1.086-1.07L46.1,8.442c0.426-0.427,0.4-1.052,0.348-1.388c-0.104-0.658-0.477-1.351-1.027-1.9
		l-2.412-2.412c-1.074-1.075-2.578-1.388-3.283-0.682L24.732,17.255l-1.085-1.071L38.643,0.985c1.318-1.315,3.756-1.007,5.443,0.679
		l2.412,2.412c0.785,0.784,1.301,1.758,1.455,2.742c0.166,1.058-0.115,2.042-0.773,2.696L32.188,24.709z"/>
	<path d="M20.128,22.973l4.729,4.73L12.065,40.496c-0.543,0.543-1.27,0.844-2.047,0.844c-0.468,0-0.931-0.113-1.34-0.326
		L7.59,40.451l-0.783,0.939l-0.068,0.084l-0.023,0.031l-4.508,4.508c-0.217,0.217-0.455,0.293-0.605,0.293
		c-0.026,0-0.047-0.002-0.058-0.002c-0.007,0-0.011,0.002-0.011,0.002c-0.035-0.086-0.001-0.396,0.284-0.682l4.493-4.494
		c0.02-0.018,0.04-0.033,0.061-0.049l0.048-0.039l0.973-0.781l-0.574-1.107c-0.577-1.113-0.364-2.508,0.517-3.389L20.128,22.973
		 M20.128,20.817L6.257,34.688c-1.392,1.393-1.656,3.504-0.792,5.168c-0.073,0.059-0.148,0.115-0.217,0.184l-4.508,4.508
		c-0.859,0.859-0.99,2.135-0.291,2.834c0.303,0.303,0.714,0.451,1.152,0.451c0.574,0,1.195-0.254,1.683-0.74l4.508-4.51
		c0.069-0.068,0.124-0.143,0.185-0.215c0.637,0.33,1.339,0.494,2.041,0.494c1.133,0,2.266-0.428,3.125-1.287l13.871-13.871
		L20.128,20.817L20.128,20.817z"/>
	<path d="M1.208,47.199c-0.408-0.408-0.273-1.229,0.29-1.793l4.509-4.508c0.033-0.033,0.07-0.061,0.107-0.09l0.476-0.377
		l-0.233-0.576c-0.621-1.199-0.532-2.625,0.209-3.736l10.289,1.277l-3.995,3.994c-1.12,1.123-2.892,1.395-4.306,0.66l-0.531-0.273
		l-0.426,0.521c-0.028,0.035-0.055,0.07-0.088,0.104L3,46.91C2.437,47.475,1.616,47.607,1.208,47.199z"/>
</g>
</svg>
