<?xml version="1.0" encoding="utf-8"?>
<!-- Generator: Adobe Illustrator 16.0.0, SVG Export Plug-In . SVG Version: 6.00 Build 0)  -->
<!DOCTYPE svg PUBLIC "-//W3C//DTD SVG 1.1//EN" "http://www.w3.org/Graphics/SVG/1.1/DTD/svg11.dtd">
<svg version="1.1" id="Layer_1" xmlns="http://www.w3.org/2000/svg" xmlns:xlink="http://www.w3.org/1999/xlink" x="0px" y="0px"
	 width="48px" height="48px" viewBox="0 0 48 48" enable-background="new 0 0 48 48" xml:space="preserve">
<g>
	<g>
		<g>
			<line x1="20.832" y1="20.831" x2="0.52" y2="0.52"/>
			<rect x="-3.687" y="9.941" transform="matrix(0.7071 0.7071 -0.7071 0.7071 10.6751 -4.4222)" width="28.726" height="1.469"/>
		</g>
		<polygon points="21.566,21.565 3.564,21.565 3.564,20.097 20.098,20.097 20.098,3.564 21.566,3.564 		"/>
	</g>
	<g>
		<g>
			<line x1="20.832" y1="27.168" x2="0.52" y2="47.48"/>
			<rect x="9.941" y="22.961" transform="matrix(0.7071 0.7071 -0.7071 0.7071 29.5191 3.3831)" width="1.469" height="28.726"/>
		</g>
		<polygon points="21.566,44.436 20.098,44.436 20.098,27.902 3.564,27.902 3.564,26.434 21.566,26.434 		"/>
	</g>
	<g>
		<g>
			<line x1="27.17" y1="20.831" x2="47.482" y2="0.52"/>
			<rect x="36.591" y="-3.687" transform="matrix(0.7071 0.7071 -0.7071 0.7071 18.4812 -23.2669)" width="1.469" height="28.726"/>
		</g>
		<polygon points="44.438,21.565 26.436,21.565 26.436,3.564 27.904,3.564 27.904,20.097 44.438,20.097 		"/>
	</g>
	<g>
		<g>
			<line x1="27.17" y1="27.168" x2="47.482" y2="47.48"/>
			<rect x="22.963" y="36.589" transform="matrix(0.7071 0.7071 -0.7071 0.7071 37.3248 -15.4616)" width="28.726" height="1.469"/>
		</g>
		<polygon points="27.904,44.436 26.436,44.436 26.436,26.434 44.438,26.434 44.438,27.902 27.904,27.902 		"/>
	</g>
</g>
</svg>
