<?xml version="1.0" encoding="utf-8"?>
<!-- Generator: Adobe Illustrator 16.0.0, SVG Export Plug-In . SVG Version: 6.00 Build 0)  -->
<!DOCTYPE svg PUBLIC "-//W3C//DTD SVG 1.1//EN" "http://www.w3.org/Graphics/SVG/1.1/DTD/svg11.dtd">
<svg version="1.1" id="Layer_1" xmlns="http://www.w3.org/2000/svg" xmlns:xlink="http://www.w3.org/1999/xlink" x="0px" y="0px"
	 width="48px" height="48px" viewBox="0 0 48 48" enable-background="new 0 0 48 48" xml:space="preserve">
<g>
	<g>
		<path d="M17.368,47.646C17.367,47.646,17.367,47.646,17.368,47.646c-4.114,0-8.393-1.92-11.74-5.267
			c-2.847-2.844-4.677-6.38-5.154-9.955c-0.49-3.677,0.499-6.959,2.785-9.244c2.053-2.053,4.14-2.552,6.557-3.13
			c0.723-0.172,1.496-0.357,2.338-0.599c1.081-0.307,4.09-2.249,5.787-3.436c1.529-1.494,3.551-2.316,5.706-2.316
			c2.183,0,4.23,0.844,5.764,2.376l2.52,2.521c1.532,1.532,2.377,3.577,2.378,5.76c0.001,2.154-0.819,4.174-2.313,5.7
			c-1.188,1.696-3.129,4.705-3.434,5.779c-0.243,0.849-0.429,1.626-0.602,2.352c-0.577,2.414-1.074,4.5-3.125,6.549
			C22.934,46.639,20.351,47.646,17.368,47.646z M23.646,15.698c-1.651,0-3.198,0.637-4.356,1.794l-0.131,0.111
			c-0.474,0.333-4.68,3.267-6.456,3.771c-0.87,0.25-1.672,0.442-2.421,0.621c-2.295,0.549-3.954,0.946-5.608,2.6
			c-1.835,1.834-2.623,4.521-2.217,7.564c0.419,3.143,2.048,6.27,4.586,8.806c2.975,2.975,6.738,4.681,10.325,4.681
			c2.441,0,4.534-0.804,6.053-2.325c1.651-1.648,2.046-3.306,2.594-5.599c0.18-0.752,0.372-1.558,0.624-2.436
			c0.501-1.769,3.435-5.975,3.768-6.449l0.111-0.132c1.155-1.154,1.791-2.699,1.79-4.348c-0.001-1.648-0.638-3.192-1.792-4.347
			l-2.52-2.521C26.84,16.334,25.295,15.698,23.646,15.698z"/>
		<path d="M18.583,35.113c-1.568,1.566-4.119,1.57-5.693,0c-1.567-1.57-1.572-4.113-0.003-5.689c1.577-1.57,4.125-1.57,5.696,0
			C20.147,30.994,20.153,33.539,18.583,35.113z"/>
		<path d="M29.955,19.04c-0.256,0-0.512-0.098-0.707-0.293c-0.391-0.391-0.391-1.024,0-1.414L44.009,2.575
			c0.391-0.391,1.023-0.391,1.414,0s0.391,1.024,0,1.414L30.662,18.747C30.467,18.942,30.211,19.04,29.955,19.04z"/>
		<path d="M46.646,6.21c-0.256,0-0.512-0.098-0.707-0.292L42.08,2.062c-0.391-0.391-0.391-1.023,0-1.415
			c0.391-0.391,1.023-0.39,1.414,0l3.859,3.856c0.391,0.391,0.391,1.023,0,1.415C47.158,6.112,46.902,6.21,46.646,6.21z"/>
	</g>
</g>
</svg>
