<?xml version="1.0" encoding="utf-8"?>
<!-- Generator: Adobe Illustrator 16.0.0, SVG Export Plug-In . SVG Version: 6.00 Build 0)  -->
<!DOCTYPE svg PUBLIC "-//W3C//DTD SVG 1.1//EN" "http://www.w3.org/Graphics/SVG/1.1/DTD/svg11.dtd">
<svg version="1.1" id="Layer_1" xmlns="http://www.w3.org/2000/svg" xmlns:xlink="http://www.w3.org/1999/xlink" x="0px" y="0px"
	 width="48px" height="48px" viewBox="0 0 48 48" enable-background="new 0 0 48 48" xml:space="preserve">
<g>
	<path d="M27.656,33.533H0V5.877h27.656V33.533z M1.457,32.076h24.742V7.333H1.457V32.076z"/>
	<polygon points="48,45.713 20.346,45.713 20.346,35.02 21.803,35.02 21.803,44.258 46.545,44.258 46.545,19.513 29.297,19.513 
		29.297,18.057 48,18.057 	"/>
	<polygon points="44.904,42.613 23.445,42.613 23.445,35.16 24.9,35.16 24.9,41.158 43.447,41.158 43.447,22.611 29.52,22.611 
		29.52,21.155 44.904,21.155 	"/>
	<rect x="-4.697" y="18.977" transform="matrix(0.7071 0.7071 -0.7071 0.7071 17.9843 -4.0065)" width="37.05" height="1.455"/>
	<g>
		<path d="M44.029,15.604c-3-7.138-10.117-8.166-13.037-8.277l0.055-1.455c3.199,0.122,11,1.259,14.324,9.168L44.029,15.604z"/>
		<g>
			<polygon points="34.463,11.78 35.326,10.996 31.461,6.749 35.98,3.203 35.26,2.287 29.758,6.606 			"/>
		</g>
		<g>
			<polygon points="38.596,14.052 39.004,12.96 44.381,14.979 46.002,9.468 47.119,9.798 45.145,16.509 			"/>
		</g>
	</g>
</g>
</svg>
