<?xml version="1.0" encoding="utf-8"?>
<!-- Generator: Adobe Illustrator 16.0.0, SVG Export Plug-In . SVG Version: 6.00 Build 0)  -->
<!DOCTYPE svg PUBLIC "-//W3C//DTD SVG 1.1//EN" "http://www.w3.org/Graphics/SVG/1.1/DTD/svg11.dtd">
<svg version="1.1" id="Layer_1" xmlns="http://www.w3.org/2000/svg" xmlns:xlink="http://www.w3.org/1999/xlink" x="0px" y="0px"
	 width="48px" height="48px" viewBox="0 0 48 48" enable-background="new 0 0 48 48" xml:space="preserve">
<g>
	<polygon points="47.999,48 42.903,48 42.903,46.543 46.544,46.543 46.544,42.902 47.999,42.902 	"/>
	<path d="M35.343,48H27.78v-1.457h7.563V48z M20.22,48h-7.563v-1.457h7.563V48z"/>
	<polygon points="5.097,48 0,48 0,42.902 1.457,42.902 1.457,46.543 5.097,46.543 	"/>
	<path d="M1.457,35.342H0v-7.563h1.456V35.342z M1.457,20.219H0v-7.561h1.456V20.219z"/>
	<polygon points="1.457,5.096 0,5.096 0,0 5.097,0 5.097,1.456 1.457,1.456 	"/>
	<path d="M35.343,1.456H27.78V0h7.563V1.456z M20.22,1.456h-7.563V0h7.563V1.456z"/>
	<polygon points="47.999,5.096 46.544,5.096 46.544,1.456 42.903,1.456 42.903,0 47.999,0 	"/>
	<path d="M47.999,35.342h-1.455v-7.563h1.455V35.342z M47.999,20.219h-1.455v-7.562h1.455V20.219z"/>
</g>
</svg>
