<?xml version="1.0" encoding="utf-8"?>
<!-- Generator: Adobe Illustrator 16.0.0, SVG Export Plug-In . SVG Version: 6.00 Build 0)  -->
<!DOCTYPE svg PUBLIC "-//W3C//DTD SVG 1.1//EN" "http://www.w3.org/Graphics/SVG/1.1/DTD/svg11.dtd">
<svg version="1.1" id="Layer_1" xmlns="http://www.w3.org/2000/svg" xmlns:xlink="http://www.w3.org/1999/xlink" x="0px" y="0px"
	 width="48px" height="48px" viewBox="0 0 48 48" enable-background="new 0 0 48 48" xml:space="preserve">
<g>
	<path d="M46.498,1.502V46.5H1.502V1.502H46.498 M47.998,0H0.001v48h47.997V0L47.998,0z"/>
	<path d="M14.993,47.676l-1.018-1.104c1.373-1.268,7.238-12.998,1.945-24.711C10.345,9.522,12.864,1.014,12.975,0.657L14.409,1.1
		c-0.024,0.082-2.445,8.36,2.88,20.143C22.932,33.729,16.698,46.102,14.993,47.676z"/>
	<path d="M35.188,47.734l-1.441-0.42c2.291-7.867-0.336-15.088-2.447-20.889c-1.115-3.063-2.078-5.709-2.281-8.102
		c-0.598-7.052,4.174-17.33,4.377-17.764l1.361,0.637c-0.049,0.103-4.805,10.349-4.24,17c0.186,2.194,1.115,4.752,2.193,7.715
		C34.895,31.92,37.615,39.396,35.188,47.734z"/>
	<path d="M14.702,20.925c-8.825,0-14.121-4.135-14.4-4.356l0.938-1.174c0.082,0.064,8.322,6.457,21.162,2.965
		c4.097-1.114,6.972-2.247,9.28-3.158c5.334-2.102,8.01-3.158,16.066-0.472l-0.475,1.424c-7.537-2.513-9.889-1.585-15.041,0.444
		c-2.344,0.925-5.26,2.075-9.437,3.21C19.85,20.611,17.142,20.925,14.702,20.925z"/>
	<path d="M1.175,34.91l-0.809-1.266c0.336-0.215,8.34-5.217,20.236-3.314c2.512,0.4,4.761,0.865,6.938,1.313
		c7.736,1.594,13.326,2.742,19.541-1.578l0.857,1.234c-6.744,4.689-12.904,3.42-20.701,1.814c-2.162-0.443-4.396-0.904-6.874-1.301
		C9.024,29.998,1.253,34.859,1.175,34.91z"/>
</g>
</svg>
