<?xml version="1.0" encoding="utf-8"?>
<!-- Generator: Adobe Illustrator 16.0.0, SVG Export Plug-In . SVG Version: 6.00 Build 0)  -->
<!DOCTYPE svg PUBLIC "-//W3C//DTD SVG 1.1//EN" "http://www.w3.org/Graphics/SVG/1.1/DTD/svg11.dtd">
<svg version="1.1" id="Layer_1" xmlns="http://www.w3.org/2000/svg" xmlns:xlink="http://www.w3.org/1999/xlink" x="0px" y="0px"
	 width="48px" height="48px" viewBox="0 0 48 48" enable-background="new 0 0 48 48" xml:space="preserve">
<g>
	<g>
		<g>
			<path d="M45.25,32.994H2.75c-1.654,0-3-1.346-3-3V3.359c0-1.654,1.346-3,3-3h42.5c1.654,0,3,1.346,3,3v26.635
				C48.25,31.648,46.904,32.994,45.25,32.994z M2.75,2.359c-0.551,0-1,0.449-1,1v26.635c0,0.552,0.449,1,1,1h42.5
				c0.552,0,1-0.448,1-1V3.359c0-0.551-0.448-1-1-1H2.75z"/>
		</g>
		<path d="M24,27.984c-6.236,0-11.309-5.073-11.309-11.309S17.764,5.367,24,5.367c6.235,0,11.309,5.073,11.309,11.309
			S30.235,27.984,24,27.984z M24,7.367c-5.133,0-9.309,4.176-9.309,9.309s4.176,9.309,9.309,9.309s9.309-4.176,9.309-9.309
			S29.133,7.367,24,7.367z"/>
		<g>
			<path d="M40.832,47.641H7.164c-1.654,0-3-1.346-3-3V33.994c0-1.654,1.346-3,3-3h33.668c1.654,0,3,1.346,3,3v10.646
				C43.832,46.295,42.486,47.641,40.832,47.641z M7.164,32.994c-0.551,0-1,0.448-1,1v10.646c0,0.552,0.449,1,1,1h33.668
				c0.552,0,1-0.448,1-1V33.994c0-0.552-0.448-1-1-1H7.164z"/>
		</g>
		<path d="M34.309,39.751H13.691c-0.552,0-1-0.447-1-1s0.448-1,1-1h20.618c0.553,0,1,0.447,1,1S34.861,39.751,34.309,39.751z"/>
	</g>
</g>
</svg>
