<?xml version="1.0" encoding="utf-8"?>
<!-- Generator: Adobe Illustrator 16.0.0, SVG Export Plug-In . SVG Version: 6.00 Build 0)  -->
<!DOCTYPE svg PUBLIC "-//W3C//DTD SVG 1.1//EN" "http://www.w3.org/Graphics/SVG/1.1/DTD/svg11.dtd">
<svg version="1.1" id="Layer_1" xmlns="http://www.w3.org/2000/svg" xmlns:xlink="http://www.w3.org/1999/xlink" x="0px" y="0px"
	 width="48px" height="48px" viewBox="0 0 48 48" enable-background="new 0 0 48 48" xml:space="preserve">
<g>
	<path d="M18.697,33.943c-6.599,0-11.968-5.368-11.968-11.967s5.369-11.968,11.968-11.968s11.968,5.369,11.968,11.968
		S25.296,33.943,18.697,33.943z M18.697,12.008c-5.496,0-9.968,4.472-9.968,9.968c0,5.496,4.472,9.967,9.968,9.967
		c5.497,0,9.968-4.472,9.968-9.967C28.665,16.479,24.193,12.008,18.697,12.008z"/>
	<path d="M38.691,20.334c-0.553,0-1-0.448-1-1v-7.69c0-0.552,0.447-1,1-1s1,0.448,1,1v7.69
		C39.691,19.886,39.244,20.334,38.691,20.334z"/>
	<path d="M37.245,48C31.375,48,26.6,43.224,26.6,37.354c0-5.868,4.775-10.643,10.646-10.643c5.869,0.001,10.644,4.775,10.644,10.643
		C47.889,43.224,43.114,48,37.245,48z M37.245,28.711c-4.768,0-8.646,3.877-8.646,8.643c0,4.768,3.878,8.646,8.646,8.646
		c4.766,0,8.644-3.879,8.644-8.646C45.889,32.589,42.011,28.712,37.245,28.711z"/>
	<path d="M28.694,38.665H7.167c-3.89,0-7.055-3.163-7.055-7.052V12.232c0-3.886,3.165-7.047,7.055-7.047h1.928v-1.16
		C9.095,1.806,10.899,0,13.117,0h11.91c2.219,0,4.024,1.806,4.024,4.025v1.16h11.787c3.888,0,7.05,3.161,7.05,7.047v19.379
		c0,1.011-0.227,2.01-0.674,2.97l-1.031,2.218l-0.817-2.306c-1.226-3.458-4.489-5.782-8.12-5.782c-4.768,0-8.646,3.877-8.646,8.643
		c0.02,0.09,0.031,0.173,0.035,0.256L28.694,38.665z M7.167,7.185c-2.788,0-5.055,2.264-5.055,5.047v19.381
		c0,2.785,2.268,5.052,5.055,5.052h19.455c0.355-5.549,4.985-9.954,10.624-9.954c3.477,0,6.68,1.726,8.643,4.49V12.232
		c0-2.783-2.266-5.047-5.05-5.047H27.052v-3.16C27.052,2.908,26.144,2,25.027,2h-11.91c-1.115,0-2.022,0.908-2.022,2.025v3.16H7.167
		z"/>
	<g>
		<path d="M37.171,42.695c-0.553,0-1-0.447-1-1v-6.161c0-0.553,0.447-1,1-1s1,0.447,1,1v6.161
			C38.171,42.248,37.724,42.695,37.171,42.695z"/>
		<path d="M33.697,37.989c-0.234,0-0.469-0.081-0.658-0.247c-0.416-0.364-0.458-0.995-0.095-1.411l4.211-4.815l4.374,4.8
			c0.372,0.408,0.343,1.041-0.065,1.413c-0.409,0.373-1.041,0.342-1.413-0.065l-2.864-3.144l-2.736,3.128
			C34.252,37.874,33.976,37.989,33.697,37.989z"/>
	</g>
</g>
</svg>
