<?xml version="1.0" encoding="utf-8"?>
<!-- Generator: Adobe Illustrator 16.0.0, SVG Export Plug-In . SVG Version: 6.00 Build 0)  -->
<!DOCTYPE svg PUBLIC "-//W3C//DTD SVG 1.1//EN" "http://www.w3.org/Graphics/SVG/1.1/DTD/svg11.dtd">
<svg version="1.1" id="Layer_1" xmlns="http://www.w3.org/2000/svg" xmlns:xlink="http://www.w3.org/1999/xlink" x="0px" y="0px"
	 width="48px" height="48px" viewBox="0 0 48 48" enable-background="new 0 0 48 48" xml:space="preserve">
<g>
	<g>
		<path d="M38.055,35.143H23.901c-1.103,0-2-0.897-2-2V14.859c0-1.103,0.897-2,2-2H46c1.103,0,2,0.897,2,2v10.334
			c0,1.103-0.897,2-2,2h-5.945v5.949C40.055,34.245,39.157,35.143,38.055,35.143z M38.055,33.143v1V33.143L38.055,33.143
			L38.055,33.143z M23.901,14.859v18.284h14.151l0.003-5.949c0-1.103,0.897-2,2-2H46V14.859H23.901z"/>
	</g>
	<rect x="26.609" y="16.951" width="2" height="3.35"/>
	<rect x="31.764" y="16.951" width="2" height="3.35"/>
	<rect x="26.609" y="27.718" width="2" height="3.351"/>
	<rect x="31.764" y="27.718" width="2" height="3.351"/>
	<rect x="36.911" y="16.951" width="2" height="3.35"/>
	<rect x="42.064" y="16.951" width="2" height="3.35"/>
	<g>
		<path d="M25.927,46.676H2c-1.103,0-2-0.897-2-2v-5.083c0-1.103,0.897-2,2-2h2.022V10.411H2c-1.103,0-2-0.897-2-2V3.325
			c0-1.103,0.897-2,2-2h23.927c1.103,0,2,0.897,2,2v5.086c0,1.103-0.897,2-2,2h-2.025v27.182h2.025c1.103,0,2,0.897,2,2v5.083
			C27.927,45.778,27.029,46.676,25.927,46.676z M25.927,44.676v1V44.676L25.927,44.676L25.927,44.676z M2,39.593v5.083h23.924
			l0.003-5.083h-2.025c-1.103,0-2-0.897-2-2V10.411c0-1.103,0.897-2,2-2h2.025V3.325H2v5.086h2.022c1.103,0,2,0.897,2,2v27.182
			c0,1.103-0.897,2-2,2H2z"/>
	</g>
</g>
</svg>
