<?xml version="1.0" encoding="utf-8"?>
<!-- Generator: Adobe Illustrator 16.0.0, SVG Export Plug-In . SVG Version: 6.00 Build 0)  -->
<!DOCTYPE svg PUBLIC "-//W3C//DTD SVG 1.1//EN" "http://www.w3.org/Graphics/SVG/1.1/DTD/svg11.dtd">
<svg version="1.1" id="Layer_1" xmlns="http://www.w3.org/2000/svg" xmlns:xlink="http://www.w3.org/1999/xlink" x="0px" y="0px"
	 width="48px" height="48px" viewBox="0 0 48 48" enable-background="new 0 0 48 48" xml:space="preserve">
<g>
	<path d="M16.931,22.391c-1.998,0-3.875-0.779-5.287-2.193c-2.912-2.912-2.912-7.651,0-10.566c1.411-1.413,3.287-2.192,5.283-2.192
		s3.874,0.778,5.286,2.192c1.413,1.41,2.19,3.287,2.19,5.284s-0.778,3.875-2.19,5.288C20.801,21.614,18.925,22.391,16.931,22.391z
		 M16.927,9.44c-1.461,0-2.835,0.57-3.868,1.605c-2.134,2.135-2.134,5.606-0.001,7.739c1.035,1.036,2.41,1.606,3.873,1.606
		c1.46,0,2.834-0.569,3.868-1.602c1.035-1.035,1.604-2.411,1.604-3.873c0-1.462-0.569-2.836-1.604-3.869
		C19.764,10.01,18.389,9.44,16.927,9.44z"/>
	<path d="M26.089,31.545c-1.999,0-3.877-0.778-5.29-2.191c-1.411-1.408-2.189-3.283-2.189-5.279
		c-0.001-1.998,0.777-3.875,2.189-5.287c1.413-1.413,3.292-2.19,5.289-2.19c1.997,0,3.874,0.777,5.284,2.188
		c2.915,2.916,2.915,7.659,0,10.572C29.962,30.768,28.085,31.545,26.089,31.545z M26.088,18.597c-1.464,0-2.84,0.57-3.875,1.605
		c-1.035,1.034-1.604,2.409-1.604,3.872c0,1.461,0.57,2.833,1.603,3.865c1.036,1.036,2.413,1.606,3.876,1.606
		c1.462,0,2.836-0.569,3.869-1.602c2.135-2.134,2.135-5.608,0-7.744C28.925,19.166,27.551,18.597,26.088,18.597z"/>
	<path d="M35.243,40.703c-1.996,0-3.873-0.776-5.285-2.188c-2.914-2.914-2.914-7.657,0-10.572c1.412-1.411,3.288-2.188,5.284-2.188
		c1.993,0,3.871,0.775,5.286,2.184c1.413,1.415,2.19,3.292,2.191,5.289c0,1.999-0.777,3.877-2.189,5.287
		C39.116,39.927,37.239,40.703,35.243,40.703z M35.242,27.756c-1.462,0-2.836,0.568-3.87,1.602c-2.135,2.136-2.135,5.609,0,7.744
		c1.034,1.033,2.408,1.602,3.871,1.602s2.838-0.569,3.874-1.603c1.033-1.032,1.603-2.407,1.603-3.871
		c-0.001-1.464-0.57-2.84-1.604-3.874C38.08,28.324,36.703,27.756,35.242,27.756z"/>
	<path d="M13.315,35.162c-1.996,0-3.873-0.777-5.284-2.189c-2.912-2.913-2.912-7.656,0-10.572c1.411-1.411,3.287-2.188,5.282-2.188
		c1.996,0,3.873,0.776,5.284,2.187c2.914,2.916,2.914,7.658,0,10.573C17.188,34.385,15.312,35.162,13.315,35.162z M13.314,22.213
		c-1.461,0-2.835,0.569-3.868,1.601c-2.133,2.136-2.133,5.611,0,7.745c1.034,1.034,2.408,1.604,3.869,1.604
		c1.462,0,2.835-0.569,3.868-1.604c2.135-2.135,2.135-5.609,0-7.745C16.151,22.782,14.776,22.213,13.314,22.213z"/>
	<path d="M22.474,44.318c-2,0-3.878-0.779-5.291-2.192c-1.41-1.408-2.187-3.284-2.187-5.281s0.777-3.874,2.187-5.286
		c1.413-1.411,3.291-2.188,5.289-2.188c1.999,0,3.875,0.777,5.285,2.188c1.414,1.411,2.192,3.29,2.192,5.288
		c-0.001,1.997-0.779,3.874-2.193,5.284C26.348,43.541,24.472,44.318,22.474,44.318z M22.472,31.37c-1.464,0-2.84,0.569-3.874,1.603
		c-1.033,1.034-1.602,2.409-1.602,3.872c0,1.462,0.569,2.836,1.601,3.866c1.035,1.037,2.412,1.607,3.876,1.607
		c1.463,0,2.836-0.569,3.868-1.603c1.037-1.033,1.606-2.407,1.607-3.87c0-1.463-0.57-2.838-1.606-3.872
		C25.311,31.939,23.936,31.37,22.472,31.37z"/>
	<path d="M9.635,48.001c-1.996,0-3.874-0.778-5.287-2.189c-2.913-2.919-2.912-7.66,0-10.57c1.415-1.412,3.292-2.189,5.289-2.189
		c1.995,0,3.871,0.776,5.283,2.186c1.414,1.412,2.192,3.289,2.192,5.285c0,1.997-0.778,3.875-2.191,5.288
		C13.508,47.223,11.631,48.001,9.635,48.001z M9.636,35.052c-1.462,0-2.839,0.569-3.875,1.604c-2.132,2.131-2.132,5.604,0.001,7.741
		c1.035,1.033,2.411,1.604,3.873,1.604s2.836-0.57,3.87-1.604c1.036-1.035,1.606-2.411,1.606-3.874c0-1.462-0.57-2.836-1.605-3.869
		C12.471,35.62,11.097,35.052,9.636,35.052z"/>
	<path d="M31.407,19.752c-0.178,0-0.358-0.048-0.521-0.147c-0.47-0.289-0.618-0.903-0.331-1.374
		c0.057-0.093,5.818-9.322,14.625-6.134c0.519,0.188,0.787,0.762,0.6,1.281c-0.188,0.52-0.764,0.787-1.281,0.6
		c-7.258-2.633-12.037,4.972-12.237,5.297C32.072,19.583,31.743,19.752,31.407,19.752z"/>
	<path d="M33.376,14.041L33.376,14.041c-2.145,0-3.932-0.746-5.31-2.216c-3.437-3.667-3.03-10.596-3.012-10.889
		c0.019-0.29,0.163-0.558,0.395-0.733c0.232-0.176,0.527-0.241,0.813-0.181c5.313,1.139,8.687,3.246,10.029,6.262
		c1.586,3.562-0.329,6.963-0.411,7.106c-0.148,0.257-0.403,0.436-0.696,0.487C34.561,13.986,33.951,14.041,33.376,14.041z
		 M27.038,2.26c0.043,1.989,0.402,5.977,2.49,8.201c0.999,1.063,2.258,1.581,3.848,1.581l0,0c0.31,0,0.633-0.02,0.966-0.061
		c0.362-0.851,1.02-2.889,0.115-4.901C33.477,4.901,30.984,3.283,27.038,2.26z"/>
</g>
</svg>
