<?xml version="1.0" encoding="utf-8"?>
<!-- Generator: Adobe Illustrator 16.0.0, SVG Export Plug-In . SVG Version: 6.00 Build 0)  -->
<!DOCTYPE svg PUBLIC "-//W3C//DTD SVG 1.1//EN" "http://www.w3.org/Graphics/SVG/1.1/DTD/svg11.dtd">
<svg version="1.1" id="Layer_1" xmlns="http://www.w3.org/2000/svg" xmlns:xlink="http://www.w3.org/1999/xlink" x="0px" y="0px"
	 width="48px" height="48px" viewBox="0 0 48 48" enable-background="new 0 0 48 48" xml:space="preserve">
<g>
	<path d="M18.427,11.786c-3.64,0-8.512-1.573-11.057-9.063C7.335,2.619,7.317,2.51,7.317,2.401c0-1.76,7.476-2.16,7.552-2.16
		c5.962,0,9.551,3.278,10.104,9.23c0.038,0.413-0.182,0.806-0.553,0.989C24.311,10.515,21.7,11.786,18.427,11.786z M9.616,3.036
		c1.787,4.48,4.747,6.75,8.811,6.75c1.925,0,3.598-0.52,4.469-0.851c-0.65-4.443-3.348-6.694-8.027-6.694
		C12.749,2.241,10.746,2.711,9.616,3.036z"/>
	<path d="M30.131,47.759c-0.001,0-0.001,0-0.002,0c-0.756,0-1.513-0.065-2.249-0.192c-1.315-0.23-2.59-0.703-3.88-1.44
		c-1.293,0.738-2.568,1.211-3.881,1.44c-0.737,0.127-1.493,0.192-2.249,0.192c-7.524,0-14.639-6.104-16.919-14.515
		c-1.351-4.997-0.73-10.053,1.704-13.874c1.961-3.078,4.968-5.107,8.467-5.715c4.367-0.754,9.062,0.789,12.878,4.181
		c3.816-3.393,8.515-4.935,12.876-4.181c3.499,0.608,6.507,2.638,8.469,5.717c2.435,3.821,3.056,8.876,1.704,13.87
		C44.772,41.654,37.657,47.759,30.131,47.759z M24,43.961c0.184,0,0.368,0.051,0.53,0.152c1.25,0.781,2.458,1.267,3.693,1.482
		c0.621,0.107,1.264,0.163,1.906,0.163c6.533,0,12.977-5.604,14.989-13.038c1.204-4.452,0.672-8.925-1.461-12.273
		c-1.656-2.599-4.187-4.311-7.124-4.821c-3.994-0.69-8.355,0.898-11.836,4.292c-0.389,0.379-1.008,0.379-1.396,0
		c-3.48-3.395-7.837-4.984-11.838-4.292c-2.937,0.51-5.467,2.222-7.122,4.819c-2.133,3.347-2.665,7.821-1.46,12.276
		c2.014,7.432,8.458,13.037,14.988,13.037c0.642,0,1.283-0.055,1.907-0.163c1.231-0.215,2.44-0.7,3.694-1.483
		C23.632,44.012,23.816,43.961,24,43.961z"/>
	<path d="M23.999,18.427c-0.486,0-0.912-0.354-0.987-0.85c-0.078-0.511-1.81-12.569,6.254-16.963
		c0.487-0.266,1.093-0.085,1.356,0.399c0.265,0.485,0.086,1.092-0.399,1.356c-6.846,3.73-5.251,14.795-5.234,14.906
		c0.083,0.546-0.292,1.056-0.838,1.139C24.099,18.423,24.049,18.427,23.999,18.427z"/>
</g>
</svg>
