<?xml version="1.0" encoding="utf-8"?>
<!-- Generator: Adobe Illustrator 16.0.0, SVG Export Plug-In . SVG Version: 6.00 Build 0)  -->
<!DOCTYPE svg PUBLIC "-//W3C//DTD SVG 1.1//EN" "http://www.w3.org/Graphics/SVG/1.1/DTD/svg11.dtd">
<svg version="1.1" id="Layer_1" xmlns="http://www.w3.org/2000/svg" xmlns:xlink="http://www.w3.org/1999/xlink" x="0px" y="0px"
	 width="48px" height="48px" viewBox="0 0 48 48" enable-background="new 0 0 48 48" xml:space="preserve">
<g>
	<path d="M17.978,12.67c-3.782,0-8.847-1.635-11.493-9.425c-0.174-0.512,0.09-1.069,0.597-1.258
		c0.139-0.052,3.447-1.272,7.183-1.272c6.193,0,9.922,3.405,10.498,9.588c0.038,0.413-0.182,0.806-0.553,0.989
		C24.095,11.349,21.381,12.67,17.978,12.67z M8.729,3.557c1.87,4.721,4.978,7.113,9.249,7.113c2.024,0,3.801-0.558,4.708-0.904
		c-0.674-4.68-3.504-7.052-8.421-7.052C12.014,2.715,9.899,3.218,8.729,3.557z"/>
	<path d="M24.002,48C13.907,48,5.695,40.233,5.695,30.688c0-9.547,8.212-17.314,18.307-17.314c4.88,0,9.47,1.794,12.923,5.051
		c3.47,3.272,5.38,7.627,5.38,12.263C42.305,40.233,34.094,48,24.002,48z M24.004,15.373c-8.993,0-16.309,6.87-16.309,15.314
		C7.695,39.131,15.01,46,24.002,46c8.989,0,16.303-6.869,16.303-15.313C40.305,22.243,32.992,15.373,24.004,15.373z"/>
	<path d="M24.789,15.438c-0.473,0-0.894-0.336-0.982-0.818c-0.083-0.452-1.954-11.106,5.902-14.536
		c0.512-0.22,1.097,0.012,1.316,0.517c0.222,0.506-0.01,1.095-0.516,1.316c-6.418,2.802-4.754,12.245-4.736,12.34
		c0.101,0.543-0.259,1.064-0.802,1.165C24.91,15.433,24.85,15.438,24.789,15.438z"/>
</g>
</svg>
