<?xml version="1.0" encoding="utf-8"?>
<!-- Generator: Adobe Illustrator 16.0.0, SVG Export Plug-In . SVG Version: 6.00 Build 0)  -->
<!DOCTYPE svg PUBLIC "-//W3C//DTD SVG 1.1//EN" "http://www.w3.org/Graphics/SVG/1.1/DTD/svg11.dtd">
<svg version="1.1" id="Layer_1" xmlns="http://www.w3.org/2000/svg" xmlns:xlink="http://www.w3.org/1999/xlink" x="0px" y="0px"
	 width="48px" height="48px" viewBox="0 0 48 48" enable-background="new 0 0 48 48" xml:space="preserve">
<g>
	<path d="M23.994,36.501C10.764,36.501,0,25.733,0,12.499c0-0.552,0.448-1,1-1h46c0.553,0,1,0.448,1,1
		C48,25.733,37.231,36.501,23.994,36.501z M2.022,13.499c0.525,11.669,10.179,21.002,21.972,21.002
		c11.799,0,21.458-9.333,21.983-21.002H2.022z"/>
	<path d="M24.003,31.916c-10.707,0-19.418-8.71-19.418-19.417c0-0.552,0.448-1,1-1h36.836c0.553,0,1,0.448,1,1
		C43.421,23.206,34.71,31.916,24.003,31.916z M6.613,13.499c0.521,9.14,8.121,16.417,17.39,16.417s16.869-7.277,17.39-16.417H6.613z
		"/>
	<path d="M23.454,30.923c-0.552,0-1-0.447-1-1V13.111c0-0.552,0.448-1,1-1s1,0.448,1,1v16.812
		C24.454,30.476,24.006,30.923,23.454,30.923z"/>
	<path d="M12.041,26.271c-0.231,0-0.463-0.079-0.652-0.242c-0.418-0.36-0.466-0.991-0.105-1.41l10.468-12.161
		c0.359-0.418,0.992-0.466,1.41-0.105s0.466,0.992,0.105,1.41L12.799,25.924C12.601,26.153,12.322,26.271,12.041,26.271z"/>
	<path d="M35.688,26.982c-0.28,0-0.561-0.118-0.758-0.348L23.85,13.763c-0.36-0.418-0.313-1.05,0.105-1.41
		c0.417-0.36,1.05-0.314,1.41,0.105l11.08,12.872c0.36,0.419,0.313,1.05-0.105,1.41C36.151,26.902,35.919,26.982,35.688,26.982z"/>
</g>
</svg>
