<?xml version="1.0" encoding="utf-8"?>
<!-- Generator: Adobe Illustrator 16.0.0, SVG Export Plug-In . SVG Version: 6.00 Build 0)  -->
<!DOCTYPE svg PUBLIC "-//W3C//DTD SVG 1.1//EN" "http://www.w3.org/Graphics/SVG/1.1/DTD/svg11.dtd">
<svg version="1.1" id="Layer_1" xmlns="http://www.w3.org/2000/svg" xmlns:xlink="http://www.w3.org/1999/xlink" x="0px" y="0px"
	 width="48px" height="48px" viewBox="0 0 48 48" enable-background="new 0 0 48 48" xml:space="preserve">
<g>
	<g>
		<path d="M3.501,48c-0.921,0-1.656-0.257-2.184-0.763c-1.341-1.284-2.188-4.509,5.897-17.616
			c4.362-7.072,9.78-14.395,11.449-16.134c1.524-1.59,3.678-2.466,6.065-2.466c2.851,0,5.781,1.243,8.042,3.409
			c2.063,1.979,3.371,4.51,3.683,7.127c0.32,2.691-0.442,5.152-2.148,6.932C31.978,30.917,10.708,48,3.501,48z M24.729,13.021
			c-1.837,0-3.478,0.657-4.622,1.85c-1.374,1.432-6.568,8.305-11.19,15.8C2.466,41.129,1.975,45.098,2.702,45.794
			C2.879,45.964,3.234,46,3.501,46c5.922,0,26.027-15.417,29.361-18.896c1.284-1.34,1.854-3.226,1.606-5.311
			c-0.258-2.159-1.352-4.261-3.082-5.92C29.495,14.061,27.069,13.021,24.729,13.021z"/>
		<path d="M26.848,27.117c-0.249,0-0.498-0.092-0.691-0.278l-4.703-4.505c-0.399-0.382-0.412-1.015-0.03-1.414
			c0.382-0.399,1.016-0.412,1.414-0.03l4.702,4.506c0.399,0.382,0.413,1.015,0.03,1.413C27.373,27.014,27.11,27.117,26.848,27.117z"
			/>
		<path d="M14.293,34.704c-0.249,0-0.499-0.093-0.692-0.278l-4.699-4.509c-0.398-0.383-0.412-1.016-0.029-1.414
			c0.382-0.397,1.016-0.411,1.414-0.029l4.699,4.509c0.398,0.383,0.412,1.016,0.029,1.414
			C14.818,34.602,14.556,34.704,14.293,34.704z"/>
	</g>
	<path d="M33.449,15.853c-0.252,0-0.505-0.095-0.699-0.285c-0.395-0.386-0.402-1.019-0.016-1.414
		c0.326-0.335,8.077-8.164,14.235-5.247c0.5,0.236,0.713,0.833,0.476,1.332c-0.235,0.5-0.834,0.712-1.331,0.476
		c-4.868-2.303-11.88,4.766-11.95,4.837C33.968,15.752,33.709,15.853,33.449,15.853z"/>
	<path d="M38.56,11.954c-0.168,0-0.339-0.042-0.495-0.132c-0.479-0.274-0.646-0.885-0.372-1.364c2.49-4.359-0.137-8.749-0.25-8.934
		c-0.288-0.47-0.142-1.086,0.328-1.375c0.469-0.288,1.082-0.145,1.374,0.324c0.139,0.225,3.374,5.568,0.284,10.977
		C39.244,11.773,38.907,11.954,38.56,11.954z"/>
	<path d="M32.885,15.31c-0.308,0-0.61-0.141-0.806-0.407c-0.327-0.443-0.233-1.066,0.206-1.395c0.178-0.135,4.115-3.248,0.134-9.809
		c-0.287-0.472-0.137-1.087,0.336-1.374c0.472-0.285,1.088-0.135,1.373,0.336c4.964,8.179-0.594,12.411-0.651,12.453
		C33.299,15.247,33.091,15.31,32.885,15.31z"/>
</g>
</svg>
