<?xml version="1.0" encoding="utf-8"?>
<!-- Generator: Adobe Illustrator 16.0.0, SVG Export Plug-In . SVG Version: 6.00 Build 0)  -->
<!DOCTYPE svg PUBLIC "-//W3C//DTD SVG 1.1//EN" "http://www.w3.org/Graphics/SVG/1.1/DTD/svg11.dtd">
<svg version="1.1" id="Layer_1" xmlns="http://www.w3.org/2000/svg" xmlns:xlink="http://www.w3.org/1999/xlink" x="0px" y="0px"
	 width="48px" height="48px" viewBox="0 0 48 48" enable-background="new 0 0 48 48" xml:space="preserve">
<g>
	<path d="M19.465,48c-0.174,0-0.35-0.045-0.508-0.139c-0.398-0.235-0.583-0.713-0.447-1.155l1.26-4.097
		C10.854,40.801,4.5,33.579,4.5,25.049c0-7.565,5.081-14.261,12.719-16.875V1c0-0.552,0.448-1,1-1h11.564c0.553,0,1,0.448,1,1v7.175
		C38.42,10.79,43.5,17.485,43.5,25.049c0,7.187-4.715,13.718-11.832,16.539l1.576,4.552c0.146,0.42-0.004,0.886-0.367,1.143
		c-0.359,0.258-0.85,0.245-1.199-0.032l-5.464-4.331c-0.543,0.058-1.049,0.095-1.529,0.112l-4.499,4.663
		C19.992,47.896,19.73,48,19.465,48z M26.512,40.879c0.225,0,0.443,0.075,0.621,0.217l3.099,2.456l-0.774-2.236
		c-0.087-0.252-0.07-0.527,0.047-0.767s0.324-0.422,0.576-0.507c6.831-2.325,11.42-8.351,11.42-14.993
		c0-6.908-4.825-13.012-12.007-15.189c-0.422-0.128-0.71-0.517-0.71-0.957V2h-9.564v6.902c0,0.44-0.289,0.829-0.71,0.957
		C11.326,12.035,6.5,18.139,6.5,25.049c0,7.89,6.184,14.527,14.705,15.782c0.289,0.042,0.544,0.209,0.7,0.455
		c0.156,0.247,0.196,0.55,0.11,0.828l-0.363,1.18l1.878-1.946c0.186-0.192,0.44-0.302,0.707-0.306
		c0.649-0.008,1.354-0.06,2.154-0.156C26.432,40.881,26.472,40.879,26.512,40.879z"/>
</g>
</svg>
