<?xml version="1.0" encoding="utf-8"?>
<!-- Generator: Adobe Illustrator 16.0.0, SVG Export Plug-In . SVG Version: 6.00 Build 0)  -->
<!DOCTYPE svg PUBLIC "-//W3C//DTD SVG 1.1//EN" "http://www.w3.org/Graphics/SVG/1.1/DTD/svg11.dtd">
<svg version="1.1" id="Layer_1" xmlns="http://www.w3.org/2000/svg" xmlns:xlink="http://www.w3.org/1999/xlink" x="0px" y="0px"
	 width="48px" height="48px" viewBox="0 0 48 48" enable-background="new 0 0 48 48" xml:space="preserve">
<g>
	<path d="M42.193,23.101H5.802c-0.497,0-0.917-0.364-0.989-0.855c-0.155-1.06-0.228-1.961-0.228-2.835
		C4.585,8.708,13.295,0,24.002,0c10.704,0,19.413,8.708,19.413,19.411c0,0.846-0.071,1.72-0.231,2.833
		C43.112,22.736,42.69,23.101,42.193,23.101z M6.682,21.101h34.632c0.069-0.626,0.102-1.167,0.102-1.69
		C41.415,9.811,33.604,2,24.002,2C14.398,2,6.585,9.811,6.585,19.411C6.585,19.945,6.616,20.496,6.682,21.101z"/>
	<path d="M28.093,47.999c-1.771,0-3.506-0.207-5.198-0.41c-0.876-0.104-1.75-0.209-2.623-0.284c-0.526-0.045-1.152-0.045-1.816-0.04
		c-2.07-0.002-4.406,0.016-5.603-1.432c-0.639-0.771-0.834-1.82-0.582-3.116c0.275-1.401,0.729-2.749,1.167-4.053
		c0.526-1.567,1.023-3.048,1.236-4.604c0.104-0.758,0.218-1.524,0.333-2.297c0.463-3.104,0.941-6.313,0.812-9.337
		c-0.023-0.552,0.404-1.019,0.956-1.042c0.548-0.014,1.019,0.404,1.042,0.956c0.138,3.216-0.355,6.521-0.832,9.718
		c-0.114,0.765-0.228,1.524-0.331,2.274c-0.238,1.742-0.789,3.383-1.322,4.969c-0.437,1.3-0.849,2.528-1.099,3.801
		c-0.132,0.678-0.078,1.169,0.16,1.457c0.595,0.719,2.521,0.711,4.055,0.706c0.707-0.006,1.38-0.006,1.995,0.048
		c0.894,0.076,1.791,0.184,2.689,0.291c2.198,0.264,4.473,0.533,6.703,0.313c1.517-0.149,2.562-0.657,3.196-1.552
		c1.34-1.888,0.737-5.314,0.063-8.089c-0.146-0.604-0.295-1.189-0.441-1.766c-0.437-1.715-0.848-3.335-1.132-5.162
		c-0.119-0.747-0.434-1.612-0.767-2.528c-0.57-1.566-1.16-3.186-0.954-4.716c0.073-0.547,0.564-0.929,1.125-0.858
		c0.547,0.074,0.931,0.577,0.857,1.125c-0.141,1.042,0.363,2.427,0.851,3.766c0.351,0.964,0.714,1.961,0.863,2.901
		c0.271,1.737,0.671,3.313,1.095,4.979c0.148,0.584,0.299,1.176,0.446,1.787c0.822,3.384,1.422,7.186-0.376,9.719
		c-0.976,1.375-2.534,2.178-4.631,2.384C29.381,47.972,28.734,47.999,28.093,47.999z"/>
</g>
</svg>
