<?xml version="1.0" encoding="utf-8"?>
<!-- Generator: Adobe Illustrator 16.0.0, SVG Export Plug-In . SVG Version: 6.00 Build 0)  -->
<!DOCTYPE svg PUBLIC "-//W3C//DTD SVG 1.1//EN" "http://www.w3.org/Graphics/SVG/1.1/DTD/svg11.dtd">
<svg version="1.1" id="Layer_1" xmlns="http://www.w3.org/2000/svg" xmlns:xlink="http://www.w3.org/1999/xlink" x="0px" y="0px"
	 width="48px" height="48px" viewBox="0 0 48 48" enable-background="new 0 0 48 48" xml:space="preserve">
<g>
	<path d="M15.385,44.544c-0.143,0-0.288-0.003-0.437-0.01c-2.513-0.115-4.806-1.564-6.132-3.877
		c-0.371-0.656-0.526-1.262-0.663-1.795c-0.124-0.483-0.23-0.9-0.48-1.302c-0.432-0.696-1.127-0.984-2.008-1.349
		c-0.244-0.102-0.492-0.204-0.74-0.317c-2.627-1.2-4.385-3.281-4.824-5.711c-0.368-2.031,0.318-4.564,1.187-6.017
		c0.269-0.453,0.522-0.79,0.726-1.061c0.378-0.503,0.568-0.756,0.69-1.44c0.072-0.403,0.043-0.933,0.016-1.445
		c-0.016-0.295-0.031-0.586-0.031-0.859c0-0.288-0.003-0.566-0.007-0.833c-0.029-2.33-0.055-4.341,2.431-6.19
		c2.357-1.762,4.306-1.769,6.775-1.757c0.207-0.585,0.329-1.32,0.449-2.037c0.375-2.247,0.938-5.645,5.205-5.011
		c1.539,0.229,2.957,1.121,4.328,1.982c0.8,0.503,1.556,0.978,2.291,1.298c0.777,0.338,1.54,0.805,2.346,1.298
		c1.63,0.998,3.318,2.03,4.869,1.757c0.414-0.072,0.807-0.232,1.222-0.401c0.516-0.21,1.1-0.448,1.802-0.547
		c1.171-0.167,2.565-0.018,3.83,0.41c2.493,0.839,3.633,3.105,4.639,5.105c0.284,0.566,0.568,1.132,0.882,1.663
		c0.359,0.608,0.959,1.24,1.593,1.909c1.002,1.055,2.037,2.146,2.433,3.459c0.764,2.561-0.487,6.06-2.133,7.723
		c-0.823,0.838-1.77,1.386-2.604,1.87c-1.296,0.751-2.319,1.345-2.768,2.779c-0.201,0.644-0.345,1.237-0.48,1.794
		c-0.447,1.84-0.87,3.577-2.943,5.284c-2.886,2.371-6.152,2.05-9.312,1.741c-1.987-0.196-3.863-0.38-5.607,0.089
		c-0.759,0.204-1.445,0.479-2.11,0.746C18.523,44.01,17.19,44.544,15.385,44.544z M11.341,12.578c-2.016,0-3.352,0.106-5.033,1.363
		c-1.668,1.241-1.655,2.351-1.626,4.562c0.003,0.276,0.007,0.562,0.007,0.859c0,0.239,0.014,0.493,0.028,0.751
		c0.032,0.597,0.069,1.273-0.044,1.904c-0.205,1.153-0.62,1.706-1.06,2.291c-0.182,0.242-0.387,0.513-0.607,0.884
		c-0.765,1.28-1.176,3.316-0.937,4.638c0.439,2.431,2.498,3.704,3.687,4.247c0.227,0.103,0.453,0.196,0.675,0.288
		c1.017,0.422,2.17,0.899,2.942,2.143c0.411,0.663,0.574,1.299,0.718,1.859c0.122,0.474,0.226,0.883,0.463,1.302
		c0.981,1.711,2.66,2.786,4.487,2.869c1.604,0.082,2.726-0.378,4.032-0.901c0.718-0.288,1.461-0.586,2.334-0.821
		c2.096-0.563,4.245-0.352,6.322-0.148c2.878,0.284,5.6,0.55,7.846-1.295c1.559-1.282,1.842-2.448,2.271-4.212
		c0.145-0.596,0.3-1.231,0.516-1.919c0.681-2.177,2.271-3.099,3.673-3.912c0.796-0.461,1.548-0.896,2.184-1.544
		c1.192-1.205,2.168-3.976,1.642-5.744c-0.259-0.855-1.128-1.772-1.968-2.658c-0.684-0.72-1.391-1.465-1.864-2.268
		c-0.343-0.579-0.65-1.19-0.947-1.782c-0.913-1.816-1.775-3.531-3.491-4.108c-0.978-0.332-2.037-0.448-2.909-0.325
		c-0.459,0.064-0.861,0.229-1.328,0.419c-0.473,0.192-1.008,0.411-1.634,0.52c-2.293,0.402-4.399-0.885-6.256-2.021
		c-0.746-0.457-1.451-0.888-2.1-1.17c-0.874-0.38-1.729-0.918-2.557-1.438c-1.196-0.752-2.434-1.53-3.557-1.697
		c-2.128-0.318-2.48,0.617-2.938,3.362c-0.161,0.966-0.327,1.958-0.709,2.811c-0.029,0.283-0.175,0.532-0.39,0.695
		c-0.317,0.411-0.903,0.513-1.342,0.22c-0.01-0.006-0.019-0.013-0.028-0.019C11.668,12.579,11.502,12.578,11.341,12.578z"/>
	<path d="M22.547,35.061c-5.725,0-10.382-4.657-10.382-10.383c0-5.725,4.657-10.382,10.382-10.382
		c5.726,0,10.383,4.657,10.383,10.382C32.93,30.403,28.272,35.061,22.547,35.061z M22.547,16.296c-4.622,0-8.382,3.76-8.382,8.382
		c0,4.622,3.76,8.383,8.382,8.383c4.622,0,8.383-3.761,8.383-8.383C30.93,20.056,27.169,16.296,22.547,16.296z"/>
</g>
</svg>
