<?xml version="1.0" encoding="utf-8"?>
<!-- Generator: Adobe Illustrator 16.0.0, SVG Export Plug-In . SVG Version: 6.00 Build 0)  -->
<!DOCTYPE svg PUBLIC "-//W3C//DTD SVG 1.1//EN" "http://www.w3.org/Graphics/SVG/1.1/DTD/svg11.dtd">
<svg version="1.1" id="Layer_1" xmlns="http://www.w3.org/2000/svg" xmlns:xlink="http://www.w3.org/1999/xlink" x="0px" y="0px"
	 width="48px" height="48px" viewBox="0 0 48 48" enable-background="new 0 0 48 48" xml:space="preserve">
<g>
	<path d="M39.607,48H8.387c-4.624,0-8.385-3.421-8.385-7.625V18.16c0-2.284,1.128-4.398,3.034-5.829
		C1.13,11.023,0.002,9.085,0.002,6.986c0-3.852,3.761-6.985,8.383-6.985h31.223c4.627,0,8.391,3.134,8.391,6.986
		c0,2.098-1.128,4.036-3.035,5.345c1.906,1.431,3.035,3.545,3.035,5.829v22.215C47.998,44.58,44.234,48,39.607,48z M8.387,2.001
		c-3.522,0-6.385,2.236-6.385,4.985c0,1.821,1.316,3.499,3.434,4.381c0.367,0.153,0.608,0.508,0.616,0.905
		c0.007,0.397-0.221,0.76-0.582,0.927c-2.139,0.986-3.468,2.888-3.468,4.962v22.215C2.002,43.477,4.866,46,8.387,46h31.22
		c3.523,0,6.391-2.522,6.391-5.624V18.161c0-2.074-1.329-3.975-3.469-4.962c-0.36-0.167-0.588-0.53-0.581-0.927
		c0.008-0.397,0.249-0.751,0.615-0.904c2.118-0.884,3.435-2.563,3.435-4.381c0-2.749-2.867-4.986-6.391-4.986H8.387z"/>
	<path d="M16.292,17.073c0,1.149-0.925,2.078-2.066,2.078c-1.137,0-2.057-0.929-2.057-2.078c0-1.144,0.919-2.074,2.057-2.074
		C15.367,15,16.292,15.93,16.292,17.073z"/>
	<ellipse cx="38.212" cy="22.483" rx="2.026" ry="2.074"/>
	<path d="M32.613,34.62c0,1.097-0.877,1.985-1.963,1.985c-1.088,0-1.963-0.89-1.963-1.985c0-1.093,0.875-1.981,1.963-1.981
		C31.736,32.639,32.613,33.527,32.613,34.62z"/>
	<path d="M29.837,9.727c0,0.836-0.735,1.512-1.633,1.512s-1.63-0.676-1.63-1.512c0-0.84,0.732-1.513,1.63-1.513
		S29.837,8.887,29.837,9.727z"/>
	<path d="M16.374,33.762c0,1.571-1.262,2.846-2.82,2.846c-1.55,0-2.807-1.273-2.807-2.846s1.257-2.845,2.807-2.845
		C15.112,30.917,16.374,32.189,16.374,33.762z"/>
</g>
</svg>
