<?xml version="1.0" encoding="utf-8"?>
<!-- Generator: Adobe Illustrator 16.0.0, SVG Export Plug-In . SVG Version: 6.00 Build 0)  -->
<!DOCTYPE svg PUBLIC "-//W3C//DTD SVG 1.1//EN" "http://www.w3.org/Graphics/SVG/1.1/DTD/svg11.dtd">
<svg version="1.1" id="Layer_1" xmlns="http://www.w3.org/2000/svg" xmlns:xlink="http://www.w3.org/1999/xlink" x="0px" y="0px"
	 width="48px" height="48px" viewBox="0 0 48 48" enable-background="new 0 0 48 48" xml:space="preserve">
<g>
	<g>
		<path d="M36.867,45.69c-0.41,0-0.824-0.038-1.231-0.113c-4.294-0.792-8.322-1.992-11.972-3.568
			C3.694,33.378,0.393,16.311,0.083,14.393c-0.576-3.658,1.928-7.1,5.582-7.675c0.348-0.054,0.699-0.081,1.045-0.081
			c3.294,0,6.078,2.365,6.62,5.625c0.112,0.649,3.016,16.083,24.748,20.113c3.626,0.678,6.037,4.188,5.378,7.824
			C42.859,43.383,40.089,45.69,36.867,45.69z M6.709,8.636c-0.244,0-0.492,0.019-0.736,0.057c-2.562,0.404-4.319,2.819-3.916,5.384
			c0.116,0.717,3.081,17.746,22.399,26.096c3.511,1.516,7.395,2.673,11.543,3.438c2.547,0.473,5.017-1.257,5.487-3.774
			c0.464-2.552-1.23-5.02-3.776-5.495C14.627,30.059,11.48,13.306,11.357,12.595C10.976,10.298,9.021,8.636,6.709,8.636z"/>
	</g>
	<path d="M5.057,8.883c-0.422,0-0.814-0.27-0.951-0.692l-1.48-4.573c-0.17-0.525,0.118-1.089,0.643-1.259
		c0.528-0.17,1.09,0.118,1.259,0.643l1.48,4.573C6.179,8.1,5.891,8.664,5.365,8.834C5.263,8.867,5.159,8.883,5.057,8.883z"/>
	<path d="M47.001,42.574c-0.076,0-0.152-0.009-0.229-0.026l-3.738-0.877c-0.537-0.126-0.871-0.664-0.745-1.202
		c0.127-0.538,0.666-0.866,1.202-0.745l3.738,0.877c0.537,0.126,0.871,0.664,0.745,1.202C47.865,42.264,47.455,42.574,47.001,42.574
		z"/>
</g>
</svg>
