<?xml version="1.0" encoding="utf-8"?>
<!-- Generator: Adobe Illustrator 16.0.0, SVG Export Plug-In . SVG Version: 6.00 Build 0)  -->
<!DOCTYPE svg PUBLIC "-//W3C//DTD SVG 1.1//EN" "http://www.w3.org/Graphics/SVG/1.1/DTD/svg11.dtd">
<svg version="1.1" id="Layer_1" xmlns="http://www.w3.org/2000/svg" xmlns:xlink="http://www.w3.org/1999/xlink" x="0px" y="0px"
	 width="48px" height="48px" viewBox="0 0 48 48" enable-background="new 0 0 48 48" xml:space="preserve">
<g>
	<g>
		<g>
			<path d="M35.968,47.316H12.034c-1.598,0-3.036-1.293-3.207-2.882L6.443,22.033c-0.085-0.802,0.165-1.596,0.688-2.178
				c0.523-0.583,1.287-0.917,2.095-0.917h29.555c0.808,0,1.57,0.334,2.094,0.916s0.773,1.376,0.688,2.179l-2.389,22.401
				C39.007,46.022,37.568,47.316,35.968,47.316z M9.226,20.938c-0.245,0-0.46,0.09-0.607,0.253s-0.213,0.387-0.187,0.629
				l2.384,22.402c0.062,0.582,0.631,1.094,1.218,1.094h23.934c0.587,0,1.156-0.511,1.218-1.093l2.389-22.403
				c0.025-0.244-0.04-0.467-0.187-0.63c-0.146-0.163-0.362-0.253-0.606-0.253H9.226z"/>
		</g>
		<path d="M41.706,25.753c-0.553,0-1-0.447-1-1c0-0.552,0.447-1,1-1c2.368,0,4.294-1.927,4.294-4.296
			c0-1.973-1.343-3.682-3.265-4.155c-0.446-0.11-0.761-0.511-0.761-0.971c0-0.062,0.016-0.205,0.027-0.265
			c-0.006-3.499-2.932-6.42-6.527-6.42c-0.919,0-1.827,0.201-2.7,0.598c-0.247,0.113-0.531,0.119-0.784,0.018
			c-0.253-0.101-0.453-0.301-0.556-0.553c-1.236-3.052-4.151-5.024-7.428-5.024c-3.281,0-6.197,1.972-7.43,5.023
			c-0.102,0.252-0.302,0.452-0.555,0.554c-0.251,0.102-0.534,0.095-0.784-0.017c-0.879-0.397-1.79-0.599-2.706-0.599
			c-3.576,0-6.488,2.886-6.523,6.447c0.015,0.084,0.023,0.162,0.023,0.238c0,0.46-0.313,0.86-0.76,0.971
			C3.346,15.778,2,17.487,2,19.457c0,2.369,1.928,4.296,4.297,4.296c0.552,0,1,0.448,1,1c0,0.553-0.448,1-1,1
			C2.825,25.753,0,22.929,0,19.457c0-2.623,1.621-4.929,4.027-5.856c0.288-4.435,3.993-7.955,8.505-7.955
			c0.88,0,1.752,0.14,2.604,0.417c1.717-3.297,5.101-5.378,8.871-5.378c3.765,0,7.146,2.081,8.867,5.378
			c0.849-0.276,1.72-0.416,2.601-0.416c4.511,0,8.215,3.52,8.503,7.954C46.381,14.524,48,16.831,48,19.457
			C48,22.929,45.177,25.753,41.706,25.753z"/>
	</g>
	<g>
		<path d="M18.396,40.865c-0.552,0-1-0.447-1-1v-12.67c0-0.553,0.448-1,1-1s1,0.447,1,1v12.67
			C19.396,40.418,18.948,40.865,18.396,40.865z"/>
		<path d="M29.605,40.865c-0.553,0-1-0.447-1-1v-12.67c0-0.553,0.447-1,1-1s1,0.447,1,1v12.67
			C30.605,40.418,30.158,40.865,29.605,40.865z"/>
	</g>
</g>
</svg>
