<?xml version="1.0" encoding="utf-8"?>
<!-- Generator: Adobe Illustrator 16.0.0, SVG Export Plug-In . SVG Version: 6.00 Build 0)  -->
<!DOCTYPE svg PUBLIC "-//W3C//DTD SVG 1.1//EN" "http://www.w3.org/Graphics/SVG/1.1/DTD/svg11.dtd">
<svg version="1.1" id="Layer_1" xmlns="http://www.w3.org/2000/svg" xmlns:xlink="http://www.w3.org/1999/xlink" x="0px" y="0px"
	 width="48px" height="48px" viewBox="0 0 48 48" enable-background="new 0 0 48 48" xml:space="preserve">
<g>
	<g>
		<path d="M45,38.313H3c-1.654,0-3-1.346-3-3V7.678c0-1.654,1.346-3,3-3h42c1.654,0,3,1.346,3,3v27.634
			C48,36.967,46.654,38.313,45,38.313z M3,6.678c-0.551,0-1,0.449-1,1v27.634c0,0.552,0.449,1,1,1h42c0.552,0,1-0.448,1-1V7.678
			c0-0.551-0.448-1-1-1H3z"/>
	</g>
	<g>
		<path d="M32.581,32.409H8.404c-1.103,0-2-0.897-2-2V12.582c0-1.103,0.897-2,2-2h24.177c1.103,0,2,0.897,2,2v17.827
			C34.581,31.512,33.684,32.409,32.581,32.409z M32.581,30.409v1V30.409L32.581,30.409L32.581,30.409z M8.404,12.582v17.827h24.174
			l0.003-17.827H8.404z"/>
	</g>
	<path d="M42.046,15.144c0,0.922-0.746,1.671-1.672,1.671c-0.921,0-1.67-0.75-1.67-1.671c0-0.922,0.749-1.669,1.67-1.669
		C41.3,13.475,42.046,14.221,42.046,15.144z"/>
	<path d="M42.046,21.491c0,0.921-0.746,1.672-1.672,1.672c-0.921,0-1.67-0.751-1.67-1.672c0-0.919,0.749-1.666,1.67-1.666
		C41.3,19.825,42.046,20.571,42.046,21.491z"/>
	<g>
		<path d="M10.135,43.32c-0.552,0-1-0.447-1-1V38.2c0-0.553,0.448-1,1-1s1,0.447,1,1v4.12C11.135,42.873,10.687,43.32,10.135,43.32z
			"/>
		<path d="M37.869,43.32c-0.553,0-1-0.447-1-1V38.2c0-0.553,0.447-1,1-1s1,0.447,1,1v4.12C38.869,42.873,38.422,43.32,37.869,43.32z
			"/>
	</g>
</g>
</svg>
