<?xml version="1.0" encoding="utf-8"?>
<!-- Generator: Adobe Illustrator 16.0.0, SVG Export Plug-In . SVG Version: 6.00 Build 0)  -->
<!DOCTYPE svg PUBLIC "-//W3C//DTD SVG 1.1//EN" "http://www.w3.org/Graphics/SVG/1.1/DTD/svg11.dtd">
<svg version="1.1" id="Layer_1" xmlns="http://www.w3.org/2000/svg" xmlns:xlink="http://www.w3.org/1999/xlink" x="0px" y="0px"
	 width="48px" height="48px" viewBox="0 0 48 48" enable-background="new 0 0 48 48" xml:space="preserve">
<g>
	<g>
		<path d="M45,25.104H3c-1.654,0-3-1.346-3-3V11.567c0-1.654,1.346-3,3-3h42c1.654,0,3,1.346,3,3v10.536
			C48,23.757,46.654,25.104,45,25.104z M3,10.567c-0.551,0-1,0.449-1,1v10.536c0,0.551,0.449,1,1,1h42c0.552,0,1-0.449,1-1V11.567
			c0-0.551-0.448-1-1-1H3z"/>
	</g>
	<path d="M12.56,31.482c-3.652,0-6.623-2.999-6.623-6.686c0-0.552,0.448-1,1-1s1,0.448,1,1c0,2.584,2.074,4.686,4.623,4.686
		c2.551,0,4.627-2.102,4.627-4.686c0-0.552,0.448-1,1-1s1,0.448,1,1C19.187,28.483,16.214,31.482,12.56,31.482z"/>
	<path d="M12.559,47.432c-0.552,0-1-0.447-1-1V30.482c0-0.553,0.448-1,1-1s1,0.447,1,1v15.949
		C13.559,46.984,13.111,47.432,12.559,47.432z"/>
	<g>
		<path d="M11.791,48c-0.045,0-0.089-0.003-0.135-0.009l-6.63-0.893c-0.497-0.067-0.867-0.49-0.867-0.991v-9.868
			c0-0.467,0.323-0.872,0.779-0.976l6.63-1.503c0.54-0.119,1.075,0.216,1.196,0.755c0.122,0.538-0.215,1.074-0.754,1.196
			l-5.851,1.326v8.195l5.763,0.775c0.547,0.074,0.932,0.577,0.858,1.125C12.712,47.636,12.283,48,11.791,48z"/>
		<path d="M12.558,48c-0.493,0-0.922-0.364-0.99-0.866c-0.074-0.548,0.311-1.051,0.858-1.125l5.767-0.775v-8.195l-5.855-1.326
			c-0.539-0.122-0.876-0.658-0.754-1.196c0.122-0.539,0.658-0.874,1.196-0.755l6.634,1.503c0.456,0.104,0.779,0.509,0.779,0.976
			v9.868c0,0.501-0.371,0.924-0.867,0.991l-6.634,0.893C12.647,47.997,12.602,48,12.558,48z"/>
	</g>
	<path d="M11.789,9.994c-0.552,0-1-0.448-1-1V4.688c-0.031-0.374-0.079-1.915,1.041-3.171C12.728,0.511,14.091,0,15.883,0h19.916
		c0.553,0,1,0.448,1,1s-0.447,1-1,1H15.883c-1.196,0-2.058,0.286-2.56,0.849c-0.622,0.697-0.542,1.669-0.541,1.679
		c0.004,0.038,0.006,0.076,0.006,0.114v4.352C12.789,9.546,12.341,9.994,11.789,9.994z"/>
</g>
</svg>
