<?xml version="1.0" encoding="utf-8"?>
<!-- Generator: Adobe Illustrator 16.0.0, SVG Export Plug-In . SVG Version: 6.00 Build 0)  -->
<!DOCTYPE svg PUBLIC "-//W3C//DTD SVG 1.1//EN" "http://www.w3.org/Graphics/SVG/1.1/DTD/svg11.dtd">
<svg version="1.1" id="Layer_1" xmlns="http://www.w3.org/2000/svg" xmlns:xlink="http://www.w3.org/1999/xlink" x="0px" y="0px"
	 width="48px" height="48px" viewBox="0 0 48 48" enable-background="new 0 0 48 48" xml:space="preserve">
<g>
	<g>
		<path d="M36.705,48h-25.41c-1.103,0-2-0.897-2-2V2c0-1.103,0.897-2,2-2h25.41c1.103,0,2,0.897,2,2v44
			C38.705,47.103,37.808,48,36.705,48z M36.705,46v1V46L36.705,46L36.705,46z M11.295,2v44h25.407l0.003-44H11.295z"/>
	</g>
	<path d="M36.992,18.933H11.013c-0.552,0-1-0.448-1-1s0.448-1,1-1h25.979c0.553,0,1,0.448,1,1S37.545,18.933,36.992,18.933z"/>
	<path d="M32.973,13.939c-0.553,0-1-0.448-1-1V6.026c0-0.552,0.447-1,1-1s1,0.448,1,1v6.913
		C33.973,13.491,33.525,13.939,32.973,13.939z"/>
	<path d="M32.973,35.953c-0.553,0-1-0.447-1-1V23.051c0-0.552,0.447-1,1-1s1,0.448,1,1v11.902
		C33.973,35.506,33.525,35.953,32.973,35.953z"/>
</g>
</svg>
