<?xml version="1.0" encoding="utf-8"?>
<!-- Generator: Adobe Illustrator 16.0.0, SVG Export Plug-In . SVG Version: 6.00 Build 0)  -->
<!DOCTYPE svg PUBLIC "-//W3C//DTD SVG 1.1//EN" "http://www.w3.org/Graphics/SVG/1.1/DTD/svg11.dtd">
<svg version="1.1" id="Layer_1" xmlns="http://www.w3.org/2000/svg" xmlns:xlink="http://www.w3.org/1999/xlink" x="0px" y="0px"
	 width="48px" height="48px" viewBox="0 0 48 48" enable-background="new 0 0 48 48" xml:space="preserve">
<g>
	<path d="M21.154,45.486L21.154,45.486c-0.265,0-0.52-0.105-0.707-0.293L2.807,27.55c-0.391-0.391-0.391-1.023,0-1.414l23.71-23.712
		C28.082,0.861,30.169,0,32.395,0s4.313,0.86,5.877,2.423l7.302,7.306c1.565,1.563,2.428,3.65,2.428,5.876
		c0,2.226-0.862,4.314-2.428,5.878L21.861,45.193C21.673,45.381,21.419,45.486,21.154,45.486z M4.928,26.843l16.226,16.229
		L44.159,20.07c1.188-1.187,1.842-2.772,1.842-4.464s-0.654-3.276-1.842-4.462l-7.302-7.306C35.671,2.653,34.086,2,32.395,2
		s-3.276,0.652-4.463,1.838L4.928,26.843z"/>
	<path d="M1,48c-0.256,0-0.512-0.098-0.707-0.293c-0.391-0.391-0.391-1.023,0-1.414l10.918-10.914c0.391-0.391,1.023-0.391,1.414,0
		s0.391,1.023,0,1.414L1.707,47.707C1.512,47.902,1.256,48,1,48z"/>
</g>
</svg>
