<?xml version="1.0" encoding="utf-8"?>
<!-- Generator: Adobe Illustrator 16.0.0, SVG Export Plug-In . SVG Version: 6.00 Build 0)  -->
<!DOCTYPE svg PUBLIC "-//W3C//DTD SVG 1.1//EN" "http://www.w3.org/Graphics/SVG/1.1/DTD/svg11.dtd">
<svg version="1.1" id="Layer_1" xmlns="http://www.w3.org/2000/svg" xmlns:xlink="http://www.w3.org/1999/xlink" x="0px" y="0px"
	 width="48px" height="48px" viewBox="0 0 48 48" enable-background="new 0 0 48 48" xml:space="preserve">
<g>
	<g>
		<g>
			<path d="M20.491,39.259C9.192,39.259,0,29.41,0,17.305c0-0.552,0.448-1,1-1h38.973c0.553,0,1,0.448,1,1
				C40.973,29.41,31.785,39.259,20.491,39.259z M2.023,18.305c0.484,10.54,8.583,18.954,18.468,18.954
				c9.88,0,17.975-8.414,18.459-18.954H2.023z"/>
			<path d="M20.491,45.786c-8.237,0-14.689-3.493-14.689-7.952c0-1.6,0.862-3.144,2.493-4.466c0.365-0.297,0.886-0.298,1.252-0.007
				c3.207,2.55,6.991,3.897,10.944,3.897c3.951,0,7.732-1.348,10.935-3.896c0.367-0.293,0.887-0.29,1.252,0.005
				c1.631,1.317,2.493,2.862,2.493,4.467C35.171,42.293,28.723,45.786,20.491,45.786z M8.977,35.442
				c-0.619,0.625-1.175,1.45-1.175,2.392c0,3.227,5.811,5.952,12.689,5.952c6.873,0,12.68-2.726,12.68-5.952
				c0-0.945-0.556-1.769-1.173-2.393c-3.413,2.501-7.373,3.817-11.507,3.817C16.356,39.259,12.394,37.942,8.977,35.442z"/>
		</g>
		<path d="M35.104,32.854c-0.494,0-0.923-0.365-0.99-0.868c-0.072-0.547,0.312-1.05,0.858-1.123C35.083,30.848,46,29.309,46,22.894
			c0-0.969-0.254-1.625-0.775-2.003c-1.096-0.796-3.264-0.351-3.937-0.131c-0.529,0.169-1.09-0.117-1.261-0.642
			c-0.171-0.525,0.117-1.089,0.642-1.26c0.366-0.118,3.626-1.114,5.731,0.416c0.729,0.53,1.6,1.589,1.6,3.622
			c0,8.162-12.242,9.881-12.763,9.951C35.192,32.851,35.148,32.854,35.104,32.854z"/>
	</g>
	<g>
		<path d="M28.514,13.638c-0.553,0-1-0.448-1-1V6.909c0-0.552,0.447-1,1-1s1,0.448,1,1v5.729
			C29.514,13.19,29.066,13.638,28.514,13.638z"/>
		<path d="M20.491,13.638c-0.552,0-1-0.448-1-1V3.215c0-0.552,0.448-1,1-1s1,0.448,1,1v9.423
			C21.491,13.19,21.043,13.638,20.491,13.638z"/>
		<path d="M12.462,13.638c-0.552,0-1-0.448-1-1V6.909c0-0.552,0.448-1,1-1s1,0.448,1,1v5.729
			C13.462,13.19,13.014,13.638,12.462,13.638z"/>
	</g>
</g>
</svg>
