<?xml version="1.0" encoding="utf-8"?>
<!-- Generator: Adobe Illustrator 16.0.0, SVG Export Plug-In . SVG Version: 6.00 Build 0)  -->
<!DOCTYPE svg PUBLIC "-//W3C//DTD SVG 1.1//EN" "http://www.w3.org/Graphics/SVG/1.1/DTD/svg11.dtd">
<svg version="1.1" id="Layer_1" xmlns="http://www.w3.org/2000/svg" xmlns:xlink="http://www.w3.org/1999/xlink" x="0px" y="0px"
	 width="48px" height="48px" viewBox="0 0 48 48" enable-background="new 0 0 48 48" xml:space="preserve">
<g>
	<g>
		<path d="M23.997,26.869c-13.231,0-23.996-10.401-23.996-23.185c0-0.761,0.1-1.47,0.196-2.156c0.03-0.217,0.061-0.434,0.088-0.651
			C0.347,0.376,0.772,0,1.277,0h45.441c0.505,0,0.931,0.376,0.992,0.877c0.028,0.229,0.061,0.457,0.094,0.685
			c0.096,0.675,0.195,1.372,0.195,2.122C47.999,16.468,37.231,26.869,23.997,26.869z M2.15,2C2.07,2.575,2.001,3.125,2.001,3.684
			c0,11.682,9.867,21.185,21.996,21.185c12.132,0,22.002-9.503,22.002-21.185c0-0.558-0.072-1.108-0.153-1.684H2.15z"/>
		<path d="M23.997,46.699c-0.552,0-1-0.447-1-1V27.492c0-0.553,0.448-1,1-1c0.553,0,1,0.447,1,1v18.207
			C24.997,46.252,24.55,46.699,23.997,46.699z"/>
		<path d="M33.688,48H14.312c-0.552,0-1-0.447-1-1s0.448-1,1-1h19.375c0.553,0,1,0.447,1,1S34.24,48,33.688,48z"/>
	</g>
	<path d="M45.177,11.667H2.818c-0.552,0-1-0.448-1-1s0.448-1,1-1h42.359c0.553,0,1,0.448,1,1S45.729,11.667,45.177,11.667z"/>
</g>
</svg>
