<?xml version="1.0" encoding="utf-8"?>
<!-- Generator: Adobe Illustrator 16.0.0, SVG Export Plug-In . SVG Version: 6.00 Build 0)  -->
<!DOCTYPE svg PUBLIC "-//W3C//DTD SVG 1.1//EN" "http://www.w3.org/Graphics/SVG/1.1/DTD/svg11.dtd">
<svg version="1.1" id="Layer_1" xmlns="http://www.w3.org/2000/svg" xmlns:xlink="http://www.w3.org/1999/xlink" x="0px" y="0px"
	 width="48px" height="48px" viewBox="0 0 48 48" enable-background="new 0 0 48 48" xml:space="preserve">
<g>
	<g>
		<path d="M24.002,37.832c-7.883,0-14.297-6.413-14.297-14.295V1c0-0.552,0.448-1,1-1h26.59c0.553,0,1,0.448,1,1v22.537
			C38.295,31.419,31.883,37.832,24.002,37.832z M11.705,2v21.537c0,6.779,5.516,12.295,12.297,12.295
			c6.778,0,12.293-5.516,12.293-12.295V2H11.705z"/>
		<path d="M24.002,48c-0.552,0-1-0.447-1-1v-9.384c0-0.553,0.448-1,1-1c0.553,0,1,0.447,1,1V47C25.002,47.553,24.555,48,24.002,48z"
			/>
		<path d="M30.115,48H17.888c-0.552,0-1-0.447-1-1s0.448-1,1-1h12.227c0.553,0,1,0.447,1,1S30.668,48,30.115,48z"/>
	</g>
	<path d="M36.443,16.219H10.705c-0.552,0-1-0.448-1-1s0.448-1,1-1h25.738c0.553,0,1,0.448,1,1S36.996,16.219,36.443,16.219z"/>
</g>
</svg>
