<?xml version="1.0" encoding="utf-8"?>
<!-- Generator: Adobe Illustrator 16.0.0, SVG Export Plug-In . SVG Version: 6.00 Build 0)  -->
<!DOCTYPE svg PUBLIC "-//W3C//DTD SVG 1.1//EN" "http://www.w3.org/Graphics/SVG/1.1/DTD/svg11.dtd">
<svg version="1.1" id="Layer_1" xmlns="http://www.w3.org/2000/svg" xmlns:xlink="http://www.w3.org/1999/xlink" x="0px" y="0px"
	 width="48px" height="48px" viewBox="0 0 48 48" enable-background="new 0 0 48 48" xml:space="preserve">
<g>
	<g>
		<path d="M24.003,33.146c-7.63,0-13.837-5.421-13.837-12.084c0-0.859,0.125-1.744,0.382-2.702l2.496-17.501
			C13.114,0.366,13.537,0,14.034,0h19.937c0.498,0,0.92,0.366,0.99,0.859l2.495,17.501c0.255,0.948,0.378,1.833,0.377,2.703
			C37.833,27.726,31.629,33.146,24.003,33.146z M14.902,2L12.52,18.703c-0.006,0.042-0.014,0.083-0.025,0.123
			c-0.221,0.808-0.328,1.54-0.328,2.236c0,5.561,5.31,10.084,11.837,10.084c6.523,0,11.83-4.523,11.83-10.084
			c0.001-0.708-0.104-1.439-0.323-2.236c-0.011-0.041-0.02-0.082-0.025-0.123L33.104,2H14.902z"/>
		<path d="M24.004,48c-0.552,0-1-0.447-1-1V33.381c0-0.553,0.448-1,1-1c0.553,0,1,0.447,1,1V47C25.004,47.553,24.557,48,24.004,48z"
			/>
		<path d="M31.509,48h-15.01c-0.552,0-1-0.447-1-1s0.448-1,1-1h15.01c0.553,0,1,0.447,1,1S32.062,48,31.509,48z"/>
	</g>
	<path d="M35.059,14.881H13.152c-0.552,0-1-0.448-1-1s0.448-1,1-1h21.907c0.553,0,1,0.448,1,1S35.611,14.881,35.059,14.881z"/>
</g>
</svg>
