<?xml version="1.0" encoding="utf-8"?>
<!-- Generator: Adobe Illustrator 16.0.0, SVG Export Plug-In . SVG Version: 6.00 Build 0)  -->
<!DOCTYPE svg PUBLIC "-//W3C//DTD SVG 1.1//EN" "http://www.w3.org/Graphics/SVG/1.1/DTD/svg11.dtd">
<svg version="1.1" id="Layer_1" xmlns="http://www.w3.org/2000/svg" xmlns:xlink="http://www.w3.org/1999/xlink" x="0px" y="0px"
	 width="48px" height="48px" viewBox="0 0 48 48" enable-background="new 0 0 48 48" xml:space="preserve">
<g>
	<g>
		<path d="M23.998,29.545L23.998,29.545c-0.279,0-0.544-0.116-0.734-0.32L3.2,7.55c-0.27-0.292-0.342-0.715-0.183-1.08
			s0.519-0.6,0.917-0.6h40.132c0.397,0,0.757,0.235,0.916,0.6S45.07,7.259,44.8,7.55L24.731,29.225
			C24.543,29.429,24.277,29.545,23.998,29.545z M6.223,7.871l17.775,19.202L41.777,7.871H6.223z"/>
		<path d="M23.998,48c-0.552,0-1-0.447-1-1V29.537c0-0.553,0.448-1,1-1c0.553,0,1,0.447,1,1V47C24.998,47.553,24.551,48,23.998,48z"
			/>
		<path d="M30.634,48H17.366c-0.552,0-1-0.447-1-1s0.448-1,1-1h13.268c0.553,0,1,0.447,1,1S31.187,48,30.634,48z"/>
	</g>
	<path d="M36.027,16.504h-22.87c-0.552,0-1-0.448-1-1s0.448-1,1-1h22.87c0.553,0,1,0.448,1,1S36.58,16.504,36.027,16.504z"/>
	<path d="M18.639,16.504c-0.306,0-0.608-0.14-0.804-0.404L7.083,1.596C6.753,1.152,6.847,0.525,7.29,0.197
		c0.444-0.33,1.069-0.237,1.399,0.208l10.752,14.504c0.329,0.444,0.236,1.07-0.208,1.399C19.055,16.44,18.846,16.504,18.639,16.504z
		"/>
</g>
</svg>
