<?xml version="1.0" encoding="utf-8"?>
<!-- Generator: Adobe Illustrator 16.0.0, SVG Export Plug-In . SVG Version: 6.00 Build 0)  -->
<!DOCTYPE svg PUBLIC "-//W3C//DTD SVG 1.1//EN" "http://www.w3.org/Graphics/SVG/1.1/DTD/svg11.dtd">
<svg version="1.1" id="Layer_1" xmlns="http://www.w3.org/2000/svg" xmlns:xlink="http://www.w3.org/1999/xlink" x="0px" y="0px"
	 width="48px" height="48px" viewBox="0 0 48 48" enable-background="new 0 0 48 48" xml:space="preserve">
<g>
	<g>
		<path d="M35.92,37.283c-0.246,0-0.492-0.09-0.686-0.271c-0.402-0.379-0.421-1.012-0.043-1.414
			c0.183-0.193,0.431-0.446,0.729-0.751c2.548-2.602,10.301-10.518,8.612-15.388c-0.397-1.141-1.019-1.841-1.901-2.142
			c-2.058-0.702-5.146,0.877-6.162,1.544c-0.461,0.303-1.083,0.174-1.385-0.288c-0.303-0.462-0.175-1.082,0.287-1.384
			c0.183-0.12,4.511-2.921,7.903-1.766c1.484,0.505,2.543,1.642,3.146,3.379c2.096,6.042-6.018,14.326-9.072,17.444
			c-0.287,0.293-0.525,0.536-0.7,0.723C36.451,37.178,36.186,37.283,35.92,37.283z"/>
		<path d="M20.466,18.46c-3,0-5.758-1.455-7.478-3.874c-1.285,1.126-2.919,1.752-4.648,1.752c-3.92,0-7.109-3.19-7.109-7.112
			c0-3.919,3.189-7.107,7.109-7.107c1.729,0,3.363,0.627,4.648,1.755C14.707,1.456,17.465,0,20.466,0
			c3.004,0,5.764,1.456,7.481,3.875c1.284-1.127,2.917-1.754,4.646-1.754c1.897,0,3.683,0.739,5.025,2.082
			c1.344,1.343,2.084,3.128,2.083,5.027c0,3.921-3.189,7.111-7.109,7.111c-1.73,0-3.363-0.627-4.646-1.755
			C26.229,17.004,23.469,18.46,20.466,18.46z M13.161,11.949c0.031,0,0.062,0.001,0.093,0.004c0.341,0.032,0.642,0.236,0.797,0.541
			c1.25,2.446,3.708,3.966,6.414,3.966c2.71,0,5.169-1.521,6.417-3.97c0.155-0.306,0.457-0.51,0.798-0.542
			c0.35-0.036,0.676,0.114,0.885,0.385c0.982,1.275,2.45,2.006,4.026,2.006c2.817,0,5.109-2.293,5.109-5.112
			c0-1.364-0.531-2.647-1.497-3.612c-0.965-0.965-2.248-1.496-3.611-1.496c-1.574,0-3.043,0.731-4.028,2.006
			c-0.209,0.271-0.541,0.416-0.885,0.384c-0.341-0.032-0.642-0.236-0.797-0.542C25.636,3.521,23.177,2,20.466,2
			c-2.707,0-5.165,1.521-6.414,3.969c-0.155,0.305-0.457,0.509-0.797,0.541c-0.347,0.033-0.675-0.113-0.884-0.384
			C11.384,4.851,9.915,4.12,8.34,4.12c-2.817,0-5.109,2.291-5.109,5.107c0,2.819,2.292,5.112,5.109,5.112
			c1.575,0,3.044-0.73,4.031-2.002C12.562,12.091,12.854,11.949,13.161,11.949z"/>
		<path d="M30.018,47.999h-19.1c-3.808,0-6.906-3.096-6.906-6.901V14.342c0-0.367,0.201-0.705,0.524-0.879
			c0.322-0.174,0.714-0.159,1.022,0.042c0.836,0.545,1.798,0.833,2.782,0.833c1.245,0,2.415-0.464,3.385-1.342
			c0.184-0.166,0.423-0.258,0.671-0.258h1.236c0.336,0,0.649,0.169,0.834,0.449c1.353,2.049,3.595,3.272,5.999,3.272
			c2.406,0,4.648-1.223,5.997-3.271c0.185-0.281,0.499-0.45,0.835-0.45h1.239c0.249,0,0.488,0.093,0.673,0.26
			c0.672,0.611,1.806,1.34,3.383,1.34c0.98,0,1.943-0.288,2.782-0.831c0.309-0.2,0.699-0.214,1.021-0.039
			c0.322,0.175,0.522,0.512,0.522,0.878v26.751C36.919,44.903,33.823,47.999,30.018,47.999z M6.012,15.942v25.156
			c0,2.702,2.201,4.901,4.906,4.901h19.1c2.702,0,4.901-2.199,4.901-4.901V15.942c-2.252,0.785-4.854,0.344-6.753-1.205h-0.349
			c-1.742,2.34-4.452,3.721-7.352,3.721c-2.897,0-5.606-1.381-7.352-3.721h-0.346c-1.284,1.048-2.807,1.6-4.427,1.6
			C7.544,16.338,6.758,16.203,6.012,15.942z"/>
	</g>
	<path d="M12.933,39.837c-0.552,0-1-0.447-1-1V22.332c0-0.552,0.448-1,1-1s1,0.448,1,1v16.505
		C13.933,39.39,13.485,39.837,12.933,39.837z"/>
	<path d="M20.47,39.837c-0.552,0-1-0.447-1-1V22.332c0-0.552,0.448-1,1-1s1,0.448,1,1v16.505
		C21.47,39.39,21.022,39.837,20.47,39.837z"/>
	<path d="M28.007,39.837c-0.553,0-1-0.447-1-1V22.332c0-0.552,0.447-1,1-1s1,0.448,1,1v16.505
		C29.007,39.39,28.56,39.837,28.007,39.837z"/>
</g>
</svg>
