<?xml version="1.0" encoding="utf-8"?>
<!-- Generator: Adobe Illustrator 16.0.0, SVG Export Plug-In . SVG Version: 6.00 Build 0)  -->
<!DOCTYPE svg PUBLIC "-//W3C//DTD SVG 1.1//EN" "http://www.w3.org/Graphics/SVG/1.1/DTD/svg11.dtd">
<svg version="1.1" id="Layer_1" xmlns="http://www.w3.org/2000/svg" xmlns:xlink="http://www.w3.org/1999/xlink" x="0px" y="0px"
	 width="48px" height="48px" viewBox="0 0 48 48" enable-background="new 0 0 48 48" xml:space="preserve">
<g>
	<g>
		<path d="M24.936,41.678H2.652c-0.518,0-0.95-0.396-0.996-0.911L0.004,22.191c-0.025-0.279,0.069-0.557,0.258-0.764
			S0.719,21.103,1,21.103h25.591c0.28,0,0.549,0.118,0.738,0.325s0.282,0.484,0.258,0.764l-1.655,18.575
			C25.886,41.282,25.453,41.678,24.936,41.678z M3.567,39.678h20.454l1.478-16.575H2.093L3.567,39.678z"/>
		<path d="M26.46,23.103H1.134c-0.286,0-0.558-0.122-0.748-0.336c-0.19-0.214-0.279-0.499-0.246-0.782
			c0.742-6.234,6.61-10.936,13.65-10.936c7.047,0,12.92,4.702,13.662,10.936c0.033,0.284-0.056,0.568-0.245,0.782
			C27.018,22.981,26.746,23.103,26.46,23.103z M2.331,21.103h22.932c-1.152-4.663-5.876-8.054-11.472-8.054
			C8.201,13.049,3.482,16.44,2.331,21.103z"/>
		<path d="M13.791,12.593c-0.552,0-1-0.448-1-1v-4.27c0-0.552,0.448-1,1-1s1,0.448,1,1v4.27
			C14.791,12.145,14.343,12.593,13.791,12.593z"/>
	</g>
	<path d="M47,23.103H27.941c-0.553,0-1-0.448-1-1s0.447-1,1-1H47c0.553,0,1,0.448,1,1S47.553,23.103,47,23.103z"/>
</g>
</svg>
