<?xml version="1.0" encoding="utf-8"?>
<!-- Generator: Adobe Illustrator 16.0.0, SVG Export Plug-In . SVG Version: 6.00 Build 0)  -->
<!DOCTYPE svg PUBLIC "-//W3C//DTD SVG 1.1//EN" "http://www.w3.org/Graphics/SVG/1.1/DTD/svg11.dtd">
<svg version="1.1" id="Layer_1" xmlns="http://www.w3.org/2000/svg" xmlns:xlink="http://www.w3.org/1999/xlink" x="0px" y="0px"
	 width="48px" height="48px" viewBox="0 0 48 48" enable-background="new 0 0 48 48" xml:space="preserve">
<g>
	<path d="M42.777,33.775H5.223c-0.552,0-1-0.447-1-1c0-10.903,8.872-19.773,19.777-19.773c10.905,0,19.777,8.87,19.777,19.773
		C43.777,33.328,43.33,33.775,42.777,33.775z M6.251,31.775H41.75C41.229,22.438,33.467,15.002,24,15.002S6.771,22.438,6.251,31.775
		z"/>
	<g>
		<path d="M45,45.952H3c-1.654,0-3-1.346-3-3v-3.244c0-1.654,1.346-3,3-3h42c1.654,0,3,1.346,3,3v3.244
			C48,44.606,46.654,45.952,45,45.952z M3,38.708c-0.551,0-1,0.448-1,1v3.244c0,0.552,0.449,1,1,1h42c0.552,0,1-0.448,1-1v-3.244
			c0-0.552-0.448-1-1-1H3z"/>
	</g>
	<path d="M24,12.713c-2.938,0-5.329-2.393-5.329-5.333c0-2.94,2.391-5.332,5.329-5.332c2.94,0,5.332,2.392,5.332,5.332
		C29.332,10.32,26.94,12.713,24,12.713z M24,4.048c-1.835,0-3.329,1.495-3.329,3.332c0,1.838,1.494,3.333,3.329,3.333
		c1.837,0,3.332-1.495,3.332-3.333C27.332,5.542,25.837,4.048,24,4.048z"/>
</g>
</svg>
