<?xml version="1.0" encoding="utf-8"?>
<!-- Generator: Adobe Illustrator 16.0.0, SVG Export Plug-In . SVG Version: 6.00 Build 0)  -->
<!DOCTYPE svg PUBLIC "-//W3C//DTD SVG 1.1//EN" "http://www.w3.org/Graphics/SVG/1.1/DTD/svg11.dtd">
<svg version="1.1" id="Layer_1" xmlns="http://www.w3.org/2000/svg" xmlns:xlink="http://www.w3.org/1999/xlink" x="0px" y="0px"
	 width="48px" height="48px" viewBox="0 0 48 48" enable-background="new 0 0 48 48" xml:space="preserve">
<g>
	<path d="M29.968,48H14.265c-4.121,0-7.474-3.354-7.474-7.475V9.537L0.34,1.653C0.194,1.475,0.114,1.251,0.114,1.02
		C0.114,0,1.06,0,1.893,0c0.651,0,1.625,0.01,2.598,0.02c1.38,0.014,2.795,0.028,3.158,0.014C7.702,0.024,7.757,0.02,7.813,0.02
		l28.609-0.001c0.266,0,0.52,0.105,0.707,0.293s0.293,0.442,0.293,0.707c0.011,0.031,0.02,0.112,0.02,0.194v39.313
		C37.441,44.646,34.089,48,29.968,48z M3.215,2.008l5.35,6.539C8.711,8.726,8.791,8.949,8.791,9.18v31.345
		c0,3.019,2.456,5.475,5.474,5.475h15.703c3.019,0,5.474-2.456,5.474-5.475V2.019L7.813,2.011C7.572,2.039,7.31,2.039,7.049,2.039
		c-0.643,0-1.609-0.01-2.578-0.019C4.043,2.016,3.615,2.011,3.215,2.008z"/>
	<path d="M44.659,29.393c-0.089,0-0.179-0.012-0.269-0.036c-0.532-0.148-0.844-0.699-0.696-1.231
		C47.04,16.078,46.051,8.987,44.01,6.369C43.621,5.87,42.99,5.28,42.181,5.28c-0.014,0-0.027,0-0.04,0
		c-3.038,0.067-4.783,3.606-4.801,3.642c-0.24,0.497-0.836,0.707-1.336,0.465c-0.497-0.24-0.705-0.838-0.465-1.335
		c0.093-0.191,2.31-4.677,6.555-4.771c1.296-0.03,2.536,0.628,3.493,1.857c3.031,3.89,3.044,12.682,0.035,23.521
		C45.499,29.103,45.097,29.393,44.659,29.393z"/>
	<path d="M28.75,36.701c-0.553,0-1-0.447-1-1V7.816c0-0.552,0.447-1,1-1s1,0.448,1,1v27.885
		C29.75,36.254,29.303,36.701,28.75,36.701z"/>
</g>
</svg>
