<?xml version="1.0" encoding="utf-8"?>
<!-- Generator: Adobe Illustrator 16.0.0, SVG Export Plug-In . SVG Version: 6.00 Build 0)  -->
<!DOCTYPE svg PUBLIC "-//W3C//DTD SVG 1.1//EN" "http://www.w3.org/Graphics/SVG/1.1/DTD/svg11.dtd">
<svg version="1.1" id="Layer_1" xmlns="http://www.w3.org/2000/svg" xmlns:xlink="http://www.w3.org/1999/xlink" x="0px" y="0px"
	 width="48px" height="48px" viewBox="0 0 48 48" enable-background="new 0 0 48 48" xml:space="preserve">
<g>
	<g>
		<path d="M24.463,37.291c-7.333,0-13.299-5.962-13.299-13.291c0-7.331,5.966-13.295,13.299-13.295
			c7.327,0,13.288,5.964,13.288,13.295C37.751,31.329,31.79,37.291,24.463,37.291z M24.463,12.705
			c-6.23,0-11.299,5.067-11.299,11.295c0,6.226,5.069,11.291,11.299,11.291c6.225,0,11.288-5.065,11.288-11.291
			C35.751,17.772,30.688,12.705,24.463,12.705z"/>
		<path d="M24.464,30.009c-3.315,0-6.012-2.695-6.012-6.009s2.697-6.009,6.012-6.009c3.312,0,6.005,2.695,6.005,6.009
			S27.775,30.009,24.464,30.009z M24.464,19.991c-2.212,0-4.012,1.798-4.012,4.009c0,2.211,1.8,4.009,4.012,4.009
			c2.208,0,4.005-1.798,4.005-4.009C28.469,21.79,26.672,19.991,24.464,19.991z"/>
	</g>
	<g>
		<path d="M4.688,21.519c-1.249,0-2.425-0.49-3.313-1.379C0.488,19.251,0,18.074,0,16.826V10.86c0-0.552,0.448-1,1-1s1,0.448,1,1
			v5.966c0,0.715,0.281,1.39,0.791,1.901s1.184,0.792,1.897,0.792c0,0,0.001,0,0.001,0H6.04c1.487,0,2.697-1.208,2.697-2.694v-5.966
			c0-0.552,0.448-1,1-1s1,0.448,1,1v5.966c0,2.588-2.107,4.694-4.697,4.694H4.69C4.689,21.519,4.688,21.519,4.688,21.519z"/>
		<path d="M5.364,38.141c-0.552,0-1-0.447-1-1V10.859c0-0.552,0.448-1,1-1s1,0.448,1,1v26.282
			C6.364,37.693,5.917,38.141,5.364,38.141z"/>
	</g>
	<path d="M47,38.141c-0.553,0-1-0.447-1-1V27.87l-4.59-0.097c-0.511-0.011-0.932-0.406-0.975-0.916
		c-1.236-14.627,5.98-16.871,6.288-16.959c0.3-0.088,0.627-0.027,0.878,0.162C47.853,10.249,48,10.545,48,10.859v16.028
		c0,0.002,0,0.005,0,0.007v10.247C48,37.693,47.553,38.141,47,38.141z M42.362,25.793L46,25.869V12.611
		C44.378,13.969,41.848,17.45,42.362,25.793z"/>
</g>
</svg>
