<?xml version="1.0" encoding="utf-8"?>
<!-- Generator: Adobe Illustrator 16.0.0, SVG Export Plug-In . SVG Version: 6.00 Build 0)  -->
<!DOCTYPE svg PUBLIC "-//W3C//DTD SVG 1.1//EN" "http://www.w3.org/Graphics/SVG/1.1/DTD/svg11.dtd">
<svg version="1.1" id="Layer_1" xmlns="http://www.w3.org/2000/svg" xmlns:xlink="http://www.w3.org/1999/xlink" x="0px" y="0px"
	 width="48px" height="48px" viewBox="0 0 48 48" enable-background="new 0 0 48 48" xml:space="preserve">
<g>
	<g>
		<path d="M36.456,14.151H11.543c-1.654,0-3-1.346-3-3V3c0-1.654,1.346-3,3-3h24.913c1.654,0,3,1.346,3,3v8.151
			C39.456,12.805,38.11,14.151,36.456,14.151z M11.543,2c-0.551,0-1,0.449-1,1v8.151c0,0.551,0.449,1,1,1h24.913
			c0.552,0,1-0.449,1-1V3c0-0.551-0.448-1-1-1H11.543z"/>
	</g>
	<path d="M24.003,48c-0.552,0-1-0.447-1-1v-3.428c0-0.334,0.167-0.646,0.443-0.831l3.712-2.485l-7.061-3.635
		c-0.331-0.17-0.54-0.51-0.542-0.882c-0.002-0.371,0.201-0.714,0.53-0.89l7.062-3.765l-3.683-2.359
		c-0.287-0.184-0.46-0.501-0.46-0.842V14.441c0-0.552,0.448-1,1-1c0.553,0,1,0.448,1,1v12.896l4.66,2.985
		c0.299,0.191,0.475,0.527,0.46,0.882c-0.014,0.354-0.215,0.676-0.528,0.843l-6.885,3.67l6.872,3.537
		c0.314,0.161,0.521,0.478,0.54,0.831c0.021,0.354-0.147,0.691-0.441,0.889l-4.678,3.133V47C25.003,47.553,24.556,48,24.003,48z"/>
</g>
</svg>
