<?xml version="1.0" encoding="utf-8"?>
<!-- Generator: Adobe Illustrator 16.0.0, SVG Export Plug-In . SVG Version: 6.00 Build 0)  -->
<!DOCTYPE svg PUBLIC "-//W3C//DTD SVG 1.1//EN" "http://www.w3.org/Graphics/SVG/1.1/DTD/svg11.dtd">
<svg version="1.1" id="Layer_1" xmlns="http://www.w3.org/2000/svg" xmlns:xlink="http://www.w3.org/1999/xlink" x="0px" y="0px"
	 width="48px" height="48px" viewBox="0 0 48 48" enable-background="new 0 0 48 48" xml:space="preserve">
<g>
	<g>
		<path d="M37.789,32.492H10.213c-1.654,0-3-1.346-3-3V18.508c0-1.654,1.346-3,3-3h27.576c1.654,0,3,1.346,3,3v10.984
			C40.789,31.146,39.443,32.492,37.789,32.492z M10.213,17.508c-0.551,0-1,0.449-1,1v10.984c0,0.552,0.449,1,1,1h27.576
			c0.552,0,1-0.448,1-1V18.508c0-0.551-0.448-1-1-1H10.213z"/>
	</g>
	<g>
		<path d="M8.213,25H1c-0.552,0-1-0.447-1-1c0-0.552,0.448-1,1-1h7.213c0.552,0,1,0.448,1,1C9.213,24.553,8.765,25,8.213,25z"/>
		<path d="M47,25h-7.211c-0.553,0-1-0.447-1-1c0-0.552,0.447-1,1-1H47c0.553,0,1,0.448,1,1C48,24.553,47.553,25,47,25z"/>
	</g>
</g>
</svg>
