<?xml version="1.0" encoding="utf-8"?>
<!-- Generator: Adobe Illustrator 16.0.0, SVG Export Plug-In . SVG Version: 6.00 Build 0)  -->
<!DOCTYPE svg PUBLIC "-//W3C//DTD SVG 1.1//EN" "http://www.w3.org/Graphics/SVG/1.1/DTD/svg11.dtd">
<svg version="1.1" id="Layer_1" xmlns="http://www.w3.org/2000/svg" xmlns:xlink="http://www.w3.org/1999/xlink" x="0px" y="0px"
	 width="48px" height="48px" viewBox="0 0 48 48" enable-background="new 0 0 48 48" xml:space="preserve">
<g>
	<g>
		<path d="M39.034,40.82H8.965c-1.484,0-3.123-1.061-3.732-2.414l-4.325-9.615c-0.356-0.794-0.327-1.61,0.081-2.241
			C1.397,25.918,2.13,25.557,3,25.557h42c0.87,0,1.603,0.361,2.011,0.992s0.438,1.448,0.081,2.242l-4.326,9.615
			C42.157,39.76,40.519,40.82,39.034,40.82z M3,27.557c-0.232,0-0.324,0.066-0.332,0.079s-0.031,0.124,0.064,0.335l4.325,9.615
			c0.291,0.646,1.2,1.234,1.908,1.234h30.069c0.708,0,1.617-0.588,1.907-1.234l4.326-9.615c0.096-0.212,0.072-0.322,0.064-0.335
			c-0.009-0.014-0.1-0.079-0.332-0.079H3z"/>
	</g>
	<g>
		<path d="M12.933,26.444c-0.549,0-0.996-0.441-1-0.991c-0.004-0.485,0.038-11.964,11.594-18.154
			c0.487-0.261,1.093-0.077,1.354,0.409c0.261,0.487,0.077,1.093-0.41,1.354c-10.464,5.605-10.54,15.94-10.538,16.378
			c0.002,0.551-0.442,1.002-0.994,1.005C12.937,26.444,12.935,26.444,12.933,26.444z"/>
		<path d="M35.066,26.444c-0.002,0-0.004,0-0.006,0c-0.552-0.003-0.996-0.454-0.994-1.005c0.002-0.438-0.074-10.772-10.54-16.378
			c-0.487-0.261-0.67-0.867-0.409-1.354c0.26-0.486,0.866-0.67,1.354-0.409c11.558,6.19,11.599,17.669,11.595,18.154
			C36.062,26.003,35.615,26.444,35.066,26.444z"/>
	</g>
	<path d="M23.999,26.445c-0.552,0-1-0.447-1-1V9.359c0-0.552,0.448-1,1-1c0.553,0,1,0.448,1,1v16.086
		C24.999,25.998,24.552,26.445,23.999,26.445z"/>
</g>
</svg>
