<?xml version="1.0" encoding="utf-8"?>
<!-- Generator: Adobe Illustrator 16.0.0, SVG Export Plug-In . SVG Version: 6.00 Build 0)  -->
<!DOCTYPE svg PUBLIC "-//W3C//DTD SVG 1.1//EN" "http://www.w3.org/Graphics/SVG/1.1/DTD/svg11.dtd">
<svg version="1.1" id="Layer_1" xmlns="http://www.w3.org/2000/svg" xmlns:xlink="http://www.w3.org/1999/xlink" x="0px" y="0px"
	 width="48px" height="48px" viewBox="0 0 48 48" enable-background="new 0 0 48 48" xml:space="preserve">
<g>
	<path d="M23.046,40.982c0,1.024-0.819,1.863-1.818,1.863s-1.814-0.839-1.814-1.863c0-1.027,0.814-1.859,1.814-1.859
		S23.046,39.955,23.046,40.982z"/>
	<path d="M28.586,31.279H13.872c-0.526,0-0.962-0.408-0.998-0.934L11.289,6.675c-0.019-0.276,0.078-0.548,0.267-0.75
		s0.454-0.317,0.73-0.317h17.892c0.277,0,0.541,0.115,0.73,0.317s0.286,0.474,0.268,0.75l-1.592,23.672
		C29.549,30.871,29.112,31.279,28.586,31.279z M14.807,29.279h12.844l1.457-21.671H13.355L14.807,29.279z"/>
	<path d="M31.929,48c-0.005,0-0.013,0-0.02,0H10.552c-0.308,0-0.598-0.142-0.788-0.384s-0.257-0.558-0.183-0.856l2.979-12.029
		c0.11-0.446,0.511-0.76,0.971-0.76h15.395c0.46,0,0.86,0.313,0.971,0.76l2.937,11.842c0.062,0.13,0.096,0.274,0.096,0.428
		C32.929,47.553,32.481,48,31.929,48z M11.83,46h18.801l-2.487-10.029h-13.83L11.83,46z"/>
	<path d="M30.178,7.509c-0.553,0-1-0.448-1-1C29.178,4.065,25.539,2,21.232,2s-7.946,2.065-7.946,4.509c0,0.552-0.448,1-1,1
		s-1-0.448-1-1c0-3.65,4.369-6.509,9.946-6.509c5.577,0,9.946,2.859,9.946,6.509C31.178,7.061,30.73,7.509,30.178,7.509z"/>
	<path d="M35.665,22.98c-0.124,0-0.25-0.023-0.371-0.072c-0.513-0.205-0.763-0.787-0.558-1.3c2.315-5.787,1.868-8.569,1.086-9.884
		c-0.655-1.101-1.651-1.318-1.857-1.352h-3.787c-0.553,0-1-0.448-1-1s0.447-1,1-1h3.854c0.176,0.012,2.214,0.217,3.472,2.267
		c1.517,2.471,1.211,6.412-0.909,11.712C36.438,22.742,36.062,22.98,35.665,22.98z"/>
	<path d="M24.022,13.839h-5.871c-0.552,0-1-0.448-1-1s0.448-1,1-1h5.871c0.552,0,1,0.448,1,1S24.574,13.839,24.022,13.839z"/>
	<path d="M24.022,19.444h-5.871c-0.552,0-1-0.448-1-1s0.448-1,1-1h5.871c0.552,0,1,0.448,1,1S24.574,19.444,24.022,19.444z"/>
</g>
</svg>
