<?xml version="1.0" encoding="utf-8"?>
<!-- Generator: Adobe Illustrator 16.0.0, SVG Export Plug-In . SVG Version: 6.00 Build 0)  -->
<!DOCTYPE svg PUBLIC "-//W3C//DTD SVG 1.1//EN" "http://www.w3.org/Graphics/SVG/1.1/DTD/svg11.dtd">
<svg version="1.1" id="Layer_1" xmlns="http://www.w3.org/2000/svg" xmlns:xlink="http://www.w3.org/1999/xlink" x="0px" y="0px"
	 width="48px" height="48px" viewBox="0 0 48 48" enable-background="new 0 0 48 48" xml:space="preserve">
<g>
	<g>
		<path d="M23.998,48c-0.552,0-1-0.447-1-1V8.184c0-0.552,0.448-1,1-1c0.553,0,1,0.448,1,1V47C24.998,47.553,24.551,48,23.998,48z"
			/>
		<path d="M46.568,48H1.431c-0.552,0-1-0.447-1-1s0.448-1,1-1h45.137c0.553,0,1,0.447,1,1S47.121,48,46.568,48z"/>
		<path d="M23.998,9.184c-2.534,0-4.596-2.058-4.596-4.587C19.402,2.063,21.464,0,23.998,0c2.535,0,4.598,2.063,4.598,4.597
			C28.596,7.126,26.533,9.184,23.998,9.184z M23.998,2c-1.432,0-2.596,1.165-2.596,2.597c0,1.426,1.165,2.587,2.596,2.587
			c1.433,0,2.598-1.161,2.598-2.587C26.596,3.165,25.431,2,23.998,2z"/>
	</g>
	<g>
		<g>
			<path d="M19.891,43.587c-0.007,0-0.013,0-0.02,0h-17.2c-0.282,0-0.55-0.119-0.74-0.327s-0.282-0.486-0.256-0.767L3.926,18.66
				c0.048-0.513,0.48-0.906,0.996-0.906H17.62c0.516,0,0.947,0.393,0.996,0.906l2.232,23.636c0.028,0.092,0.043,0.189,0.043,0.291
				C20.891,43.14,20.443,43.587,19.891,43.587z M3.77,41.587h15.002L16.71,19.754H5.832L3.77,41.587z"/>
			<path d="M18.246,19.754c-0.552,0-1-0.448-1-1c0-3.291-2.681-5.969-5.977-5.969c-3.292,0-5.969,2.678-5.969,5.969
				c0,0.552-0.448,1-1,1s-1-0.448-1-1c0-4.394,3.575-7.969,7.969-7.969c4.398,0,7.977,3.575,7.977,7.969
				C19.246,19.306,18.798,19.754,18.246,19.754z"/>
		</g>
		<g>
			<path d="M45.346,43.587c-0.005,0.001-0.013,0.001-0.02,0H28.123c-0.281,0-0.55-0.119-0.739-0.327s-0.283-0.486-0.256-0.767
				l2.251-23.833c0.048-0.513,0.479-0.906,0.995-0.906h12.701c0.516,0,0.947,0.393,0.995,0.906l2.232,23.636
				c0.028,0.092,0.043,0.189,0.043,0.291C46.346,43.14,45.898,43.587,45.346,43.587z M29.222,41.587h15.006l-2.063-21.833H31.284
				L29.222,41.587z"/>
			<path d="M43.693,19.754c-0.553,0-1-0.448-1-1c0-3.291-2.682-5.969-5.979-5.969c-3.291,0-5.969,2.678-5.969,5.969
				c0,0.552-0.447,1-1,1s-1-0.448-1-1c0-4.394,3.575-7.969,7.969-7.969c4.399,0,7.979,3.575,7.979,7.969
				C44.693,19.306,44.246,19.754,43.693,19.754z"/>
		</g>
	</g>
</g>
</svg>
