<?xml version="1.0" encoding="utf-8"?>
<!-- Generator: Adobe Illustrator 16.0.0, SVG Export Plug-In . SVG Version: 6.00 Build 0)  -->
<!DOCTYPE svg PUBLIC "-//W3C//DTD SVG 1.1//EN" "http://www.w3.org/Graphics/SVG/1.1/DTD/svg11.dtd">
<svg version="1.1" id="Layer_1" xmlns="http://www.w3.org/2000/svg" xmlns:xlink="http://www.w3.org/1999/xlink" x="0px" y="0px"
	 width="48px" height="48px" viewBox="0 0 48 48" enable-background="new 0 0 48 48" xml:space="preserve">
<g>
	<g>
		<path d="M23.997,41.609C10.765,41.609,0,30.844,0,17.611c0-0.552,0.448-1,1-1h46c0.553,0,1,0.448,1,1
			C48,30.844,37.232,41.609,23.997,41.609z M2.022,18.611c0.525,11.667,10.181,20.999,21.975,20.999
			c11.797,0,21.455-9.331,21.98-20.999H2.022z"/>
		<path d="M47,45.202H1c-0.552,0-1-0.447-1-1s0.448-1,1-1h46c0.553,0,1,0.447,1,1S47.553,45.202,47,45.202z"/>
	</g>
	<path d="M17.779,17.782c-0.229,0-0.459-0.078-0.647-0.238L1.849,4.56C1.428,4.202,1.376,3.571,1.734,3.15
		c0.357-0.422,0.989-0.472,1.41-0.115L18.427,16.02c0.421,0.358,0.472,0.989,0.115,1.41C18.344,17.663,18.063,17.782,17.779,17.782z
		"/>
</g>
</svg>
