<?xml version="1.0" encoding="utf-8"?>
<!-- Generator: Adobe Illustrator 16.0.0, SVG Export Plug-In . SVG Version: 6.00 Build 0)  -->
<!DOCTYPE svg PUBLIC "-//W3C//DTD SVG 1.1//EN" "http://www.w3.org/Graphics/SVG/1.1/DTD/svg11.dtd">
<svg version="1.1" id="Layer_1" xmlns="http://www.w3.org/2000/svg" xmlns:xlink="http://www.w3.org/1999/xlink" x="0px" y="0px"
	 width="48px" height="48px" viewBox="0 0 48 48" enable-background="new 0 0 48 48" xml:space="preserve">
<g>
	<path d="M24.002,48c-13.234,0-24-10.767-24-24s10.766-24,24-24c13.231,0,23.996,10.767,23.996,24S37.233,48,24.002,48z M24.002,2
		c-12.131,0-22,9.869-22,22s9.869,22,22,22c12.129,0,21.996-9.869,21.996-22S36.131,2,24.002,2z"/>
	<path d="M24.002,46.548c-0.552,0-1-0.447-1-1v-4.983c0-0.553,0.448-1,1-1c0.553,0,1,0.447,1,1v4.983
		C25.002,46.101,24.555,46.548,24.002,46.548z"/>
	<path d="M6.711,24.272H1.729c-0.552,0-1-0.448-1-1s0.448-1,1-1h4.982c0.552,0,1,0.448,1,1S7.263,24.272,6.711,24.272z"/>
	<path d="M8.189,39.953c-0.257,0-0.514-0.099-0.709-0.296c-0.389-0.392-0.387-1.024,0.005-1.414l3.53-3.504
		c0.392-0.389,1.026-0.387,1.414,0.006c0.389,0.392,0.387,1.024-0.005,1.414l-3.53,3.504C8.698,39.856,8.444,39.953,8.189,39.953z"
		/>
	<g>
		<path d="M39.684,40.094c-0.258,0-0.515-0.099-0.71-0.296l-3.51-3.541c-0.389-0.393-0.387-1.025,0.006-1.414
			c0.393-0.39,1.025-0.387,1.414,0.006l3.51,3.541c0.389,0.393,0.387,1.025-0.006,1.414C40.192,39.997,39.938,40.094,39.684,40.094z
			"/>
		<path d="M11.826,11.995c-0.257,0-0.515-0.099-0.71-0.296L7.609,8.162C7.22,7.77,7.223,7.137,7.615,6.748s1.027-0.386,1.414,0.006
			l3.507,3.537c0.389,0.392,0.386,1.025-0.006,1.414C12.335,11.898,12.081,11.995,11.826,11.995z"/>
	</g>
	<path d="M46.639,25H23.002V1.369c0-0.552,0.448-1,1-1c0.553,0,1,0.448,1,1V23h21.637c0.553,0,1,0.448,1,1
		C47.639,24.553,47.191,25,46.639,25z"/>
</g>
</svg>
