<?xml version="1.0" encoding="utf-8"?>
<!-- Generator: Adobe Illustrator 16.0.0, SVG Export Plug-In . SVG Version: 6.00 Build 0)  -->
<!DOCTYPE svg PUBLIC "-//W3C//DTD SVG 1.1//EN" "http://www.w3.org/Graphics/SVG/1.1/DTD/svg11.dtd">
<svg version="1.1" id="Layer_1" xmlns="http://www.w3.org/2000/svg" xmlns:xlink="http://www.w3.org/1999/xlink" x="0px" y="0px"
	 width="48px" height="48px" viewBox="0 0 48 48" enable-background="new 0 0 48 48" xml:space="preserve">
<g>
	<g>
		<path d="M34.755,48h-21.51c-1.654,0-3-1.346-3-3V3c0-1.654,1.346-3,3-3h21.51c1.654,0,3,1.346,3,3v42
			C37.755,46.654,36.409,48,34.755,48z M13.245,2c-0.551,0-1,0.449-1,1v42c0,0.552,0.449,1,1,1h21.51c0.552,0,1-0.448,1-1V3
			c0-0.551-0.448-1-1-1H13.245z"/>
	</g>
	<path d="M24,32.512c-4.695,0-8.514-3.819-8.514-8.514c0-4.695,3.819-8.514,8.514-8.514c4.694,0,8.514,3.819,8.514,8.514
		C32.514,28.692,28.694,32.512,24,32.512z M24,17.484c-3.592,0-6.514,2.922-6.514,6.514s2.922,6.514,6.514,6.514
		s6.514-2.922,6.514-6.514S27.592,17.484,24,17.484z"/>
	<g>
		<path d="M27.462,40.943h-6.924c-0.552,0-1-0.447-1-1s0.448-1,1-1h6.924c0.553,0,1,0.447,1,1S28.015,40.943,27.462,40.943z"/>
		<path d="M27.462,9.051h-6.924c-0.552,0-1-0.448-1-1s0.448-1,1-1h6.924c0.553,0,1,0.448,1,1S28.015,9.051,27.462,9.051z"/>
	</g>
	<path d="M26.771,24.998H23v-4.549c0-0.552,0.448-1,1-1c0.553,0,1,0.448,1,1v2.549h1.771c0.553,0,1,0.448,1,1
		C27.771,24.551,27.324,24.998,26.771,24.998z"/>
</g>
</svg>
