<?xml version="1.0" encoding="utf-8"?>
<!-- Generator: Adobe Illustrator 16.0.0, SVG Export Plug-In . SVG Version: 6.00 Build 0)  -->
<!DOCTYPE svg PUBLIC "-//W3C//DTD SVG 1.1//EN" "http://www.w3.org/Graphics/SVG/1.1/DTD/svg11.dtd">
<svg version="1.1" id="Layer_1" xmlns="http://www.w3.org/2000/svg" xmlns:xlink="http://www.w3.org/1999/xlink" x="0px" y="0px"
	 width="48px" height="48px" viewBox="0 0 48 48" enable-background="new 0 0 48 48" xml:space="preserve">
<g>
	<path d="M31.394,29.582c-0.18,0-0.362-0.049-0.526-0.15L23,24.554V11.179c0-0.552,0.448-1,1-1c0.553,0,1,0.448,1,1V23.44
		l6.922,4.292c0.469,0.291,0.613,0.907,0.322,1.377C32.055,29.414,31.729,29.582,31.394,29.582z"/>
	<g>
		<path d="M44.997,48H3.003c-1.654,0-3-1.346-3-3V3c0-1.654,1.346-3,3-3h41.994c1.654,0,3,1.346,3,3v42
			C47.997,46.654,46.651,48,44.997,48z M3.003,2c-0.551,0-1,0.449-1,1v42c0,0.552,0.449,1,1,1h41.994c0.552,0,1-0.448,1-1V3
			c0-0.551-0.448-1-1-1H3.003z"/>
	</g>
	<path d="M24,48c-0.552,0-1-0.447-1-1v-6.298c0-0.553,0.448-1,1-1c0.553,0,1,0.447,1,1V47C25,47.553,24.553,48,24,48z"/>
	<path d="M24,8.295c-0.552,0-1-0.448-1-1V1c0-0.552,0.448-1,1-1c0.553,0,1,0.448,1,1v6.295C25,7.847,24.553,8.295,24,8.295z"/>
	<path d="M7.294,24.997H1.003c-0.552,0-1-0.447-1-1c0-0.552,0.448-1,1-1h6.291c0.552,0,1,0.448,1,1
		C8.294,24.55,7.846,24.997,7.294,24.997z"/>
	<path d="M46.997,24.997H40.7c-0.553,0-1-0.447-1-1c0-0.552,0.447-1,1-1h6.297c0.553,0,1,0.448,1,1
		C47.997,24.55,47.55,24.997,46.997,24.997z"/>
</g>
</svg>
