<?xml version="1.0" encoding="utf-8"?>
<!-- Generator: Adobe Illustrator 16.0.0, SVG Export Plug-In . SVG Version: 6.00 Build 0)  -->
<!DOCTYPE svg PUBLIC "-//W3C//DTD SVG 1.1//EN" "http://www.w3.org/Graphics/SVG/1.1/DTD/svg11.dtd">
<svg version="1.1" id="Layer_1" xmlns="http://www.w3.org/2000/svg" xmlns:xlink="http://www.w3.org/1999/xlink" x="0px" y="0px"
	 width="48px" height="48px" viewBox="0 0 48 48" enable-background="new 0 0 48 48" xml:space="preserve">
<g>
	<g>
		<path d="M25.993,25h-3.988c-5.604,0-10.164-4.56-10.164-10.164V0h24.318v14.836C36.159,20.44,31.599,25,25.993,25z M13.841,2
			v12.836c0,4.501,3.663,8.164,8.164,8.164h3.988c4.503,0,8.166-3.663,8.166-8.164V2H13.841z"/>
		<path d="M36.159,48H11.841V33.162C11.841,27.559,16.4,23,22.005,23h3.988c5.605,0,10.166,4.559,10.166,10.162V48z M13.841,46
			h20.318V33.162c0-4.501-3.663-8.162-8.166-8.162h-3.988c-4.501,0-8.164,3.661-8.164,8.162V46z"/>
	</g>
	<g>
		<rect x="13.696" y="33.512" width="20.606" height="2"/>
		<rect x="13.696" y="12.487" width="20.606" height="2"/>
	</g>
</g>
</svg>
