<?xml version="1.0" encoding="utf-8"?>
<!-- Generator: Adobe Illustrator 16.0.0, SVG Export Plug-In . SVG Version: 6.00 Build 0)  -->
<!DOCTYPE svg PUBLIC "-//W3C//DTD SVG 1.1//EN" "http://www.w3.org/Graphics/SVG/1.1/DTD/svg11.dtd">
<svg version="1.1" id="Layer_1" xmlns="http://www.w3.org/2000/svg" xmlns:xlink="http://www.w3.org/1999/xlink" x="0px" y="0px"
	 width="48px" height="48px" viewBox="0 0 48 48" enable-background="new 0 0 48 48" xml:space="preserve">
<g>
	<g>
		<path d="M44.999,48H3.001c-1.654,0-3-1.346-3-3V3c0-1.654,1.346-3,3-3h41.998c1.654,0,3,1.346,3,3v42
			C47.999,46.654,46.653,48,44.999,48z M3.001,2c-0.551,0-1,0.449-1,1v42c0,0.552,0.449,1,1,1h41.998c0.552,0,1-0.448,1-1V3
			c0-0.551-0.448-1-1-1H3.001z"/>
	</g>
	<path d="M46.999,13.741H2.072c-0.552,0-1-0.448-1-1s0.448-1,1-1h44.927c0.553,0,1,0.448,1,1S47.552,13.741,46.999,13.741z"/>
	<g>
		<g>
			<path d="M17.115,42.016c-0.552,0-1-0.447-1-1V18.027c0-0.552,0.448-1,1-1s1,0.448,1,1v22.989
				C18.115,41.568,17.667,42.016,17.115,42.016z"/>
			<path d="M30.887,42.016c-0.553,0-1-0.447-1-1V18.027c0-0.552,0.447-1,1-1s1,0.448,1,1v22.989
				C31.887,41.568,31.439,42.016,30.887,42.016z"/>
		</g>
		<g>
			<path d="M35.499,23.635H12.506c-0.552,0-1-0.448-1-1s0.448-1,1-1h22.993c0.553,0,1,0.448,1,1S36.052,23.635,35.499,23.635z"/>
			<path d="M35.499,37.404H12.506c-0.552,0-1-0.447-1-1s0.448-1,1-1h22.993c0.553,0,1,0.447,1,1S36.052,37.404,35.499,37.404z"/>
		</g>
	</g>
	<g>
		<path d="M15.027,7.533h-2.111c-0.552,0-1-0.448-1-1s0.448-1,1-1h2.111c0.552,0,1,0.448,1,1S15.579,7.533,15.027,7.533z"/>
		<path d="M35.086,7.533h-2.113c-0.553,0-1-0.448-1-1s0.447-1,1-1h2.113c0.553,0,1,0.448,1,1S35.639,7.533,35.086,7.533z"/>
	</g>
</g>
</svg>
