<?xml version="1.0" encoding="utf-8"?>
<!-- Generator: Adobe Illustrator 16.0.0, SVG Export Plug-In . SVG Version: 6.00 Build 0)  -->
<!DOCTYPE svg PUBLIC "-//W3C//DTD SVG 1.1//EN" "http://www.w3.org/Graphics/SVG/1.1/DTD/svg11.dtd">
<svg version="1.1" id="Layer_1" xmlns="http://www.w3.org/2000/svg" xmlns:xlink="http://www.w3.org/1999/xlink" x="0px" y="0px"
	 width="48px" height="48px" viewBox="0 0 48 48" enable-background="new 0 0 48 48" xml:space="preserve">
<g>
	<g>
		<path d="M44.999,48H3.001c-1.654,0-3-1.346-3-3V3c0-1.654,1.346-3,3-3h41.998c1.654,0,3,1.346,3,3v42
			C47.999,46.654,46.653,48,44.999,48z M3.001,2c-0.551,0-1,0.449-1,1v42c0,0.552,0.449,1,1,1h41.998c0.552,0,1-0.448,1-1V3
			c0-0.551-0.448-1-1-1H3.001z"/>
	</g>
	<path d="M46.464,13.741H1.536c-0.552,0-1-0.448-1-1s0.448-1,1-1h44.928c0.553,0,1,0.448,1,1S47.017,13.741,46.464,13.741z"/>
	<g>
		<path d="M15.028,7.533h-2.113c-0.552,0-1-0.448-1-1s0.448-1,1-1h2.113c0.552,0,1,0.448,1,1S15.58,7.533,15.028,7.533z"/>
		<path d="M35.083,7.533h-2.112c-0.553,0-1-0.448-1-1s0.447-1,1-1h2.112c0.553,0,1,0.448,1,1S35.636,7.533,35.083,7.533z"/>
	</g>
	<g>
		<path d="M16.578,23.7h-0.045l-2.769,1.495l-0.417-1.645l3.479-1.864h1.84v15.939h-2.087L16.578,23.7L16.578,23.7z"/>
		<path d="M24.478,37.626v-1.323l1.694-1.644c4.071-3.874,5.913-5.935,5.934-8.339c0-1.619-0.785-3.112-3.16-3.112
			c-1.446,0-2.652,0.738-3.385,1.349l-0.688-1.519c1.104-0.934,2.673-1.621,4.51-1.621c3.434,0,4.879,2.354,4.879,4.634
			c0,2.942-2.132,5.321-5.49,8.557l-1.272,1.179v0.051h7.157v1.789H24.478z"/>
	</g>
</g>
</svg>
