<?xml version="1.0" encoding="utf-8"?>
<!-- Generator: Adobe Illustrator 16.0.0, SVG Export Plug-In . SVG Version: 6.00 Build 0)  -->
<!DOCTYPE svg PUBLIC "-//W3C//DTD SVG 1.1//EN" "http://www.w3.org/Graphics/SVG/1.1/DTD/svg11.dtd">
<svg version="1.1" id="Layer_1" xmlns="http://www.w3.org/2000/svg" xmlns:xlink="http://www.w3.org/1999/xlink" x="0px" y="0px"
	 width="48px" height="48px" viewBox="0 0 48 48" enable-background="new 0 0 48 48" xml:space="preserve">
<g>
	<path d="M22.168,35.838c-6.523,0-11.831-5.311-11.831-11.838c0-6.526,5.308-11.836,11.831-11.836
		c6.527,0,11.838,5.31,11.838,11.836C34.006,30.527,28.695,35.838,22.168,35.838z M22.168,14.164c-5.421,0-9.831,4.413-9.831,9.836
		c0,5.425,4.41,9.838,9.831,9.838c5.425,0,9.838-4.413,9.838-9.838C32.006,18.577,27.593,14.164,22.168,14.164z"/>
	<g>
		<path d="M29.412,48H14.934c-0.552,0-1-0.447-1-1V32.752c0-0.553,0.448-1,1-1s1,0.447,1,1V46h12.478V32.752c0-0.553,0.447-1,1-1
			s1,0.447,1,1V47C30.412,47.553,29.965,48,29.412,48z"/>
		<path d="M29.412,16.248c-0.553,0-1-0.448-1-1V2H15.934v13.248c0,0.552-0.448,1-1,1s-1-0.448-1-1V1c0-0.552,0.448-1,1-1h14.478
			c0.553,0,1,0.448,1,1v14.248C30.412,15.8,29.965,16.248,29.412,16.248z"/>
	</g>
	<path d="M28.132,25H22.17c-0.552,0-1-0.447-1-1v-7.234c0-0.552,0.448-1,1-1s1,0.448,1,1V23h4.962c0.553,0,1,0.448,1,1
		C29.132,24.553,28.685,25,28.132,25z"/>
	<path d="M36.663,25h-3.304c-0.553,0-1-0.447-1-1c0-0.552,0.447-1,1-1h3.304c0.553,0,1,0.448,1,1C37.663,24.553,37.216,25,36.663,25
		z"/>
</g>
</svg>
