<?xml version="1.0" encoding="utf-8"?>
<!-- Generator: Adobe Illustrator 16.0.0, SVG Export Plug-In . SVG Version: 6.00 Build 0)  -->
<!DOCTYPE svg PUBLIC "-//W3C//DTD SVG 1.1//EN" "http://www.w3.org/Graphics/SVG/1.1/DTD/svg11.dtd">
<svg version="1.1" id="Layer_1" xmlns="http://www.w3.org/2000/svg" xmlns:xlink="http://www.w3.org/1999/xlink" x="0px" y="0px"
	 width="48px" height="48px" viewBox="0 0 48 48" enable-background="new 0 0 48 48" xml:space="preserve">
<g>
	<g>
		<path d="M45,39.896H3c-1.654,0-3-1.346-3-3V11.104c0-1.654,1.346-3,3-3h42c1.654,0,3,1.346,3,3v25.792
			C48,38.551,46.654,39.896,45,39.896z M3,10.104c-0.551,0-1,0.449-1,1v25.792c0,0.552,0.449,1,1,1h42c0.552,0,1-0.448,1-1V11.104
			c0-0.551-0.448-1-1-1H3z"/>
	</g>
	<path d="M24.003,30.791c-0.001,0-0.002,0-0.004,0c-1.972-0.002-3.816-0.822-5.193-2.313L2.768,11.172
		c-0.375-0.405-0.352-1.038,0.054-1.413c0.404-0.375,1.038-0.352,1.413,0.054L20.273,27.12c0.995,1.077,2.318,1.67,3.727,1.671
		c0.001,0,0.002,0,0.003,0c1.41,0,2.736-0.594,3.734-1.671L43.764,9.813c0.374-0.406,1.007-0.43,1.413-0.055
		c0.405,0.375,0.43,1.008,0.054,1.413L29.204,28.479C27.823,29.97,25.977,30.791,24.003,30.791z"/>
	<g>
		<path d="M2.892,37.904c-0.239,0-0.478-0.085-0.669-0.258c-0.41-0.37-0.442-1.002-0.072-1.412l12.292-13.622
			c0.369-0.411,1.001-0.443,1.412-0.072c0.41,0.37,0.442,1.002,0.072,1.412L3.634,37.574C3.437,37.793,3.165,37.904,2.892,37.904z"
			/>
		<path d="M45.109,37.904c-0.272,0-0.545-0.111-0.742-0.33L32.074,23.952c-0.37-0.41-0.338-1.042,0.072-1.412
			c0.409-0.37,1.042-0.339,1.412,0.072l12.293,13.622c0.37,0.41,0.338,1.042-0.072,1.412C45.588,37.819,45.349,37.904,45.109,37.904
			z"/>
	</g>
</g>
</svg>
