<?xml version="1.0" encoding="utf-8"?>
<!-- Generator: Adobe Illustrator 16.0.0, SVG Export Plug-In . SVG Version: 6.00 Build 0)  -->
<!DOCTYPE svg PUBLIC "-//W3C//DTD SVG 1.1//EN" "http://www.w3.org/Graphics/SVG/1.1/DTD/svg11.dtd">
<svg version="1.1" id="Layer_1" xmlns="http://www.w3.org/2000/svg" xmlns:xlink="http://www.w3.org/1999/xlink" x="0px" y="0px"
	 width="48px" height="48px" viewBox="0 0 48 48" enable-background="new 0 0 48 48" xml:space="preserve">
<g>
	<path d="M40.867,47.999H7.136c-3.934,0-7.135-3.104-7.135-6.919V24.183c0-2.236,1.135-4.348,3.036-5.647
		c0.457-0.312,1.079-0.195,1.39,0.261c0.312,0.456,0.195,1.078-0.261,1.39c-1.355,0.927-2.165,2.421-2.165,3.997V41.08
		c0,2.712,2.303,4.919,5.135,4.919h33.731c2.83,0,5.132-2.207,5.132-4.919V24.182c0-1.621-0.843-3.14-2.256-4.064
		c-0.462-0.302-0.592-0.922-0.289-1.384s0.923-0.591,1.385-0.29c1.979,1.295,3.16,3.439,3.16,5.738V41.08
		C47.999,44.896,44.8,47.999,40.867,47.999z"/>
	<path d="M44.93,20.609c-0.259,0-0.519-0.1-0.714-0.3L27.847,3.619C26.823,2.575,25.458,2,24.002,2c0,0-0.001,0-0.001,0
		c-1.457,0-2.823,0.575-3.848,1.619L3.784,20.309c-0.387,0.394-1.02,0.401-1.414,0.014c-0.395-0.387-0.4-1.02-0.014-1.414
		l16.369-16.69C20.129,0.788,22.003,0,24.001,0c0,0,0.001,0,0.002,0C26,0,27.872,0.789,29.274,2.219l16.369,16.69
		c0.387,0.394,0.381,1.027-0.014,1.414C45.436,20.514,45.183,20.609,44.93,20.609z"/>
	<g>
		<g>
			<path d="M2.895,46.076c-0.254,0-0.508-0.096-0.703-0.289c-0.393-0.388-0.397-1.021-0.009-1.414L14.476,31.93
				c0.188-0.189,0.444-0.297,0.711-0.297h17.629c0.268,0,0.523,0.107,0.711,0.297l12.295,12.443
				c0.389,0.394,0.385,1.026-0.008,1.414c-0.394,0.39-1.027,0.385-1.414-0.008L32.398,33.633H15.605L3.606,45.779
				C3.411,45.977,3.153,46.076,2.895,46.076z"/>
		</g>
		<g>
			<path d="M32.816,33.633H15.187c-0.268,0-0.523-0.107-0.711-0.297L2.184,20.892c-0.388-0.393-0.384-1.026,0.009-1.414
				c0.392-0.388,1.026-0.384,1.414,0.009l11.999,12.146h16.793L44.4,19.486c0.387-0.393,1.021-0.397,1.414-0.009
				c0.393,0.388,0.396,1.021,0.008,1.414L33.527,33.336C33.34,33.525,33.084,33.633,32.816,33.633z"/>
		</g>
	</g>
</g>
</svg>
