<?xml version="1.0" encoding="utf-8"?>
<!-- Generator: Adobe Illustrator 16.0.0, SVG Export Plug-In . SVG Version: 6.00 Build 0)  -->
<!DOCTYPE svg PUBLIC "-//W3C//DTD SVG 1.1//EN" "http://www.w3.org/Graphics/SVG/1.1/DTD/svg11.dtd">
<svg version="1.1" id="Layer_1" xmlns="http://www.w3.org/2000/svg" xmlns:xlink="http://www.w3.org/1999/xlink" x="0px" y="0px"
	 width="48px" height="48px" viewBox="0 0 48 48" enable-background="new 0 0 48 48" xml:space="preserve">
<g>
	<path d="M24.001,22.526c-0.001,0-0.003,0-0.004,0c-1.958-0.001-3.789-0.816-5.156-2.294L2.925,3.059
		C2.549,2.654,2.573,2.021,2.979,1.646c0.404-0.375,1.038-0.352,1.413,0.054l15.917,17.174c0.985,1.065,2.295,1.652,3.689,1.653
		c0.001,0,0.002,0,0.003,0c1.397,0,2.71-0.587,3.699-1.653L43.604,1.7c0.373-0.407,1.008-0.43,1.413-0.055s0.43,1.008,0.054,1.413
		L29.167,20.232C27.796,21.712,25.961,22.526,24.001,22.526z"/>
	<path d="M35.773,48c-6.643,0-12.047-5.405-12.047-12.049c0-6.645,5.404-12.051,12.047-12.051c6.644,0,12.049,5.406,12.049,12.051
		C47.822,42.595,42.417,48,35.773,48z M35.773,25.9c-5.54,0-10.047,4.509-10.047,10.051C25.727,41.492,30.233,46,35.773,46
		c5.541,0,10.049-4.508,10.049-10.049C45.822,30.409,41.314,25.9,35.773,25.9z"/>
	<path d="M26.188,31.563H7.263c-3.907,0-7.085-3.179-7.085-7.085V7.086C0.178,3.179,3.356,0,7.263,0h33.471
		c3.907,0,7.088,3.179,7.089,7.085v17.392c0,2.155-0.993,4.172-2.725,5.536c-0.209,0.164-0.481,0.238-0.74,0.206
		c-0.265-0.032-0.506-0.169-0.669-0.38c-1.937-2.503-4.821-3.938-7.914-3.938c-3.586,0-6.926,1.975-8.717,5.153
		C26.882,31.368,26.549,31.563,26.188,31.563z M7.263,2C4.459,2,2.178,4.282,2.178,7.086v17.391c0,2.804,2.281,5.085,5.085,5.085
		h18.356c2.206-3.507,6.045-5.662,10.156-5.662c3.355,0,6.502,1.4,8.788,3.877c0.81-0.918,1.26-2.079,1.26-3.3V7.086
		C45.822,4.282,43.54,2,40.734,2H7.263z"/>
	<g>
		<path d="M40.727,36.951h-9.904c-0.553,0-1-0.447-1-1s0.447-1,1-1h9.904c0.553,0,1,0.447,1,1S41.279,36.951,40.727,36.951z"/>
		<path d="M35.773,41.902c-0.553,0-1-0.447-1-1V31c0-0.553,0.447-1,1-1s1,0.447,1,1v9.902
			C36.773,41.455,36.326,41.902,35.773,41.902z"/>
	</g>
</g>
</svg>
