<?xml version="1.0" encoding="utf-8"?>
<!-- Generator: Adobe Illustrator 16.0.0, SVG Export Plug-In . SVG Version: 6.00 Build 0)  -->
<!DOCTYPE svg PUBLIC "-//W3C//DTD SVG 1.1//EN" "http://www.w3.org/Graphics/SVG/1.1/DTD/svg11.dtd">
<svg version="1.1" id="Layer_1" xmlns="http://www.w3.org/2000/svg" xmlns:xlink="http://www.w3.org/1999/xlink" x="0px" y="0px"
	 width="48px" height="48px" viewBox="0 0 48 48" enable-background="new 0 0 48 48" xml:space="preserve">
<g>
	<g>
		<path d="M24,22.527c-0.001,0-0.002,0-0.004,0c-1.958-0.001-3.791-0.815-5.159-2.292L2.928,3.061
			C2.553,2.655,2.578,2.022,2.982,1.647c0.404-0.375,1.037-0.351,1.414,0.054l15.908,17.175c0.986,1.063,2.297,1.65,3.693,1.651
			c0.001,0,0.002,0,0.003,0c1.398,0,2.712-0.586,3.702-1.652L43.608,1.701c0.375-0.405,1.008-0.429,1.413-0.054
			c0.405,0.375,0.43,1.008,0.054,1.414L29.167,20.236C27.794,21.714,25.959,22.527,24,22.527z"/>
		<path d="M35.775,48c-6.642,0-12.045-5.405-12.045-12.049c0-6.642,5.403-12.045,12.045-12.045c6.641,0,12.043,5.403,12.043,12.045
			C47.818,42.595,42.416,48,35.775,48z M35.775,25.906c-5.539,0-10.045,4.506-10.045,10.045C25.73,41.492,30.236,46,35.775,46
			c5.538,0,10.043-4.508,10.043-10.049C45.818,30.412,41.313,25.906,35.775,25.906z"/>
		<path d="M26.191,31.559H7.265c-3.906,0-7.084-3.177-7.084-7.083V7.089C0.181,3.18,3.359,0,7.265,0h33.469
			c3.906,0,7.084,3.18,7.084,7.089v17.387c0,2.15-0.989,4.168-2.714,5.538c-0.209,0.166-0.473,0.246-0.743,0.209
			c-0.266-0.032-0.507-0.169-0.67-0.381c-1.932-2.501-4.817-3.936-7.916-3.936c-3.582,0-6.921,1.971-8.713,5.145
			C26.885,31.364,26.552,31.559,26.191,31.559z M7.265,2C4.462,2,2.181,4.283,2.181,7.089v17.387c0,2.802,2.281,5.083,5.084,5.083
			h18.359c2.207-3.501,6.045-5.652,10.151-5.652c3.359,0,6.506,1.398,8.788,3.872c0.807-0.922,1.255-2.084,1.255-3.302V7.089
			c0-2.806-2.28-5.089-5.084-5.089H7.265z"/>
	</g>
	<path d="M29.461,46.014c-0.197,0-0.396-0.058-0.569-0.179c-0.454-0.315-0.566-0.938-0.251-1.392l12.585-18.105
		c0.315-0.455,0.938-0.567,1.392-0.251c0.454,0.315,0.566,0.938,0.251,1.392L30.283,45.584
		C30.089,45.864,29.777,46.014,29.461,46.014z"/>
</g>
</svg>
