<?xml version="1.0" encoding="utf-8"?>
<!-- Generator: Adobe Illustrator 16.0.0, SVG Export Plug-In . SVG Version: 6.00 Build 0)  -->
<!DOCTYPE svg PUBLIC "-//W3C//DTD SVG 1.1//EN" "http://www.w3.org/Graphics/SVG/1.1/DTD/svg11.dtd">
<svg version="1.1" id="Layer_1" xmlns="http://www.w3.org/2000/svg" xmlns:xlink="http://www.w3.org/1999/xlink" x="0px" y="0px"
	 width="48px" height="48px" viewBox="0 0 48 48" enable-background="new 0 0 48 48" xml:space="preserve">
<g>
	<path d="M24.002,22.526c-1.96,0-3.794-0.814-5.163-2.292L2.929,3.06C2.553,2.654,2.577,2.021,2.982,1.646
		C3.386,1.271,4.02,1.295,4.396,1.7l15.911,17.175c0.986,1.065,2.298,1.651,3.696,1.651c1.397,0,2.709-0.586,3.696-1.65L43.604,1.7
		c0.373-0.405,1.008-0.43,1.413-0.054s0.43,1.008,0.054,1.414L29.165,20.235C27.797,21.712,25.963,22.526,24.002,22.526z"/>
	<path d="M35.77,48c-6.64,0-12.041-5.405-12.041-12.05c0-6.643,5.401-12.046,12.041-12.046c6.645,0,12.051,5.403,12.051,12.046
		C47.82,42.595,42.414,48,35.77,48z M35.77,25.904c-5.537,0-10.041,4.507-10.041,10.046c0,5.541,4.504,10.05,10.041,10.05
		c5.542,0,10.051-4.509,10.051-10.05C45.82,30.411,41.312,25.904,35.77,25.904z"/>
	<path d="M26.189,31.559H7.267c-3.908,0-7.087-3.177-7.087-7.083V7.09C0.18,3.181,3.359,0,7.267,0h33.465
		c3.908,0,7.088,3.181,7.088,7.09v17.386c0,2.152-0.991,4.169-2.72,5.537c-0.209,0.165-0.473,0.239-0.742,0.208
		c-0.265-0.032-0.506-0.169-0.669-0.381c-1.933-2.501-4.818-3.936-7.918-3.936c-3.583,0-6.921,1.972-8.711,5.146
		C26.883,31.364,26.551,31.559,26.189,31.559z M7.267,2C4.462,2,2.18,4.283,2.18,7.09v17.386c0,2.802,2.282,5.083,5.087,5.083
		h18.355c2.205-3.502,6.041-5.654,10.149-5.654c3.36,0,6.509,1.399,8.791,3.873c0.809-0.92,1.258-2.082,1.258-3.301V7.09
		c0-2.807-2.282-5.09-5.088-5.09H7.267z"/>
	<polygon points="35.771,39.682 31.783,42.089 32.843,37.557 29.322,34.502 33.961,34.102 35.771,29.818 37.586,34.102 
		42.227,34.502 38.704,37.557 39.762,42.089 	"/>
</g>
</svg>
