<?xml version="1.0" encoding="utf-8"?>
<!-- Generator: Adobe Illustrator 16.0.0, SVG Export Plug-In . SVG Version: 6.00 Build 0)  -->
<!DOCTYPE svg PUBLIC "-//W3C//DTD SVG 1.1//EN" "http://www.w3.org/Graphics/SVG/1.1/DTD/svg11.dtd">
<svg version="1.1" id="Layer_1" xmlns="http://www.w3.org/2000/svg" xmlns:xlink="http://www.w3.org/1999/xlink" x="0px" y="0px"
	 width="48px" height="48px" viewBox="0 0 48 48" enable-background="new 0 0 48 48" xml:space="preserve">
<g>
	<g>
		<path d="M24,22.526c-0.001,0-0.003,0-0.005,0c-1.957-0.002-3.788-0.815-5.155-2.292L2.923,3.06
			C2.547,2.654,2.571,2.022,2.977,1.646C3.381,1.272,4.015,1.294,4.39,1.7l15.917,17.175c0.985,1.063,2.295,1.649,3.689,1.651
			c0.001,0,0.003,0,0.004,0c1.397,0,2.712-0.586,3.701-1.652L43.605,1.7c0.373-0.405,1.007-0.43,1.413-0.054
			c0.405,0.375,0.43,1.008,0.054,1.414L29.167,20.235C27.794,21.713,25.96,22.526,24,22.526z"/>
		<path d="M35.771,48c-6.643,0-12.047-5.405-12.047-12.05c0-6.641,5.404-12.044,12.047-12.044c6.644,0,12.049,5.403,12.049,12.044
			C47.82,42.595,42.415,48,35.771,48z M35.771,25.906c-5.54,0-10.047,4.506-10.047,10.044c0,5.541,4.507,10.05,10.047,10.05
			c5.541,0,10.049-4.509,10.049-10.05C45.82,30.412,41.313,25.906,35.771,25.906z"/>
		<path d="M26.188,31.559H7.264c-3.906,0-7.084-3.177-7.084-7.083V7.089C0.18,3.18,3.358,0,7.264,0h33.468
			c3.908,0,7.088,3.18,7.088,7.089v17.387c0,2.148-0.991,4.166-2.719,5.536c-0.21,0.167-0.477,0.242-0.741,0.21
			c-0.266-0.032-0.507-0.17-0.671-0.381c-1.936-2.501-4.822-3.935-7.918-3.935c-3.582,0-6.921,1.971-8.713,5.145
			C26.881,31.364,26.548,31.559,26.188,31.559z M7.264,2C4.461,2,2.18,4.283,2.18,7.089v17.387c0,2.802,2.281,5.083,5.084,5.083
			H25.62c2.207-3.501,6.045-5.652,10.151-5.652c3.356,0,6.504,1.398,8.79,3.871c0.809-0.922,1.259-2.084,1.259-3.301V7.089
			C45.82,4.283,43.538,2,40.732,2H7.264z"/>
	</g>
	<g>
		<path d="M35.771,42.714c-0.553,0-1-0.447-1-1v-9.666c0-0.553,0.447-1,1-1s1,0.447,1,1v9.666
			C36.771,42.267,36.324,42.714,35.771,42.714z"/>
		<path d="M30.542,36.154c-0.256,0-0.513-0.098-0.708-0.293c-0.39-0.392-0.39-1.024,0.001-1.415l4.968-4.961
			c0.375-0.373,0.974-0.39,1.367-0.043l5.491,4.832c0.415,0.365,0.455,0.997,0.091,1.411c-0.366,0.415-0.999,0.454-1.411,0.091
			l-4.788-4.213l-4.304,4.299C31.054,36.057,30.798,36.154,30.542,36.154z"/>
	</g>
</g>
</svg>
