<?xml version="1.0" encoding="utf-8"?>
<!-- Generator: Adobe Illustrator 16.0.0, SVG Export Plug-In . SVG Version: 6.00 Build 0)  -->
<!DOCTYPE svg PUBLIC "-//W3C//DTD SVG 1.1//EN" "http://www.w3.org/Graphics/SVG/1.1/DTD/svg11.dtd">
<svg version="1.1" id="Layer_1" xmlns="http://www.w3.org/2000/svg" xmlns:xlink="http://www.w3.org/1999/xlink" x="0px" y="0px"
	 width="48px" height="48px" viewBox="0 0 48 48" enable-background="new 0 0 48 48" xml:space="preserve">
<g>
	<g>
		<path d="M24,22.527c-0.001,0-0.002,0-0.004,0c-1.958-0.001-3.791-0.815-5.158-2.292L2.925,3.06
			C2.549,2.654,2.573,2.021,2.979,1.646C3.382,1.271,4.017,1.295,4.392,1.7l15.914,17.176c0.985,1.064,2.297,1.65,3.692,1.651
			c0.001,0,0.002,0,0.002,0c1.398,0,2.712-0.586,3.7-1.651L43.606,1.7c0.373-0.405,1.007-0.43,1.413-0.054
			c0.405,0.375,0.43,1.008,0.054,1.414L29.167,20.236C27.795,21.714,25.961,22.527,24,22.527z"/>
		<path d="M35.775,48c-6.644,0-12.049-5.405-12.049-12.049c0-6.643,5.405-12.047,12.049-12.047c6.643,0,12.047,5.404,12.047,12.047
			C47.822,42.595,42.418,48,35.775,48z M35.775,25.904c-5.541,0-10.049,4.507-10.049,10.047C25.727,41.492,30.234,46,35.775,46
			c5.54,0,10.047-4.508,10.047-10.049C45.822,30.411,41.315,25.904,35.775,25.904z"/>
		<path d="M26.189,31.559H7.264c-3.907,0-7.086-3.178-7.086-7.084V7.086C0.178,3.179,3.357,0,7.264,0h33.474
			c3.906,0,7.084,3.179,7.084,7.086v17.388c0,2.152-0.991,4.17-2.719,5.541c-0.21,0.165-0.479,0.239-0.742,0.208
			c-0.266-0.032-0.507-0.17-0.671-0.382c-1.931-2.503-4.815-3.938-7.915-3.938c-3.581,0-6.921,1.973-8.715,5.148
			C26.883,31.364,26.55,31.559,26.189,31.559z M7.264,2C4.46,2,2.178,4.282,2.178,7.086v17.388c0,2.803,2.282,5.084,5.086,5.084
			h18.358c2.209-3.503,6.047-5.656,10.153-5.656c3.36,0,6.508,1.4,8.789,3.876c0.808-0.922,1.258-2.085,1.258-3.304V7.086
			c0-2.804-2.28-5.086-5.084-5.086H7.264z"/>
	</g>
	<path d="M40.323,39.361c-0.157,0-0.317-0.037-0.467-0.116l-4.553-2.41c-0.327-0.173-0.532-0.514-0.532-0.884v-7.21
		c0-0.553,0.447-1,1-1s1,0.447,1,1v6.607l4.021,2.129c0.488,0.259,0.675,0.863,0.416,1.352
		C41.028,39.168,40.682,39.361,40.323,39.361z"/>
</g>
</svg>
