<?xml version="1.0" encoding="utf-8"?>
<!-- Generator: Adobe Illustrator 16.0.0, SVG Export Plug-In . SVG Version: 6.00 Build 0)  -->
<!DOCTYPE svg PUBLIC "-//W3C//DTD SVG 1.1//EN" "http://www.w3.org/Graphics/SVG/1.1/DTD/svg11.dtd">
<svg version="1.1" id="Layer_1" xmlns="http://www.w3.org/2000/svg" xmlns:xlink="http://www.w3.org/1999/xlink" x="0px" y="0px"
	 width="48px" height="48px" viewBox="0 0 48 48" enable-background="new 0 0 48 48" xml:space="preserve">
<g>
	<path d="M24.003,24.555L24.003,24.555c-1.974,0-3.821-0.82-5.2-2.309L2.766,4.934C2.39,4.528,2.414,3.896,2.819,3.521
		c0.405-0.375,1.038-0.352,1.413,0.054l16.038,17.312c0.997,1.076,2.322,1.668,3.732,1.668h0c1.411,0,2.737-0.592,3.734-1.668
		L43.765,3.575c0.373-0.406,1.008-0.431,1.413-0.055c0.405,0.375,0.43,1.008,0.054,1.413L29.204,22.245
		C27.824,23.735,25.978,24.555,24.003,24.555z"/>
	<path d="M23.497,33.659H7.136c-3.935,0-7.136-3.2-7.136-7.134V9c0-3.934,3.201-7.135,7.136-7.135h33.732
		C44.801,1.865,48,5.066,48,9v9.958c0,0.552-0.447,1-1,1s-1-0.448-1-1V9c0-2.832-2.302-5.135-5.132-5.135H7.136
		C4.304,3.865,2,6.168,2,9v17.525c0,2.831,2.304,5.134,5.136,5.134h16.361c0.552,0,1,0.447,1,1S24.049,33.659,23.497,33.659z"/>
	<path d="M38.428,38.18c-4.857,0-8.81-3.949-8.81-8.803c0-4.858,3.952-8.811,8.81-8.811c4.853,0,8.801,3.953,8.801,8.811
		C47.229,34.23,43.28,38.18,38.428,38.18z M38.428,22.566c-3.755,0-6.81,3.055-6.81,6.811c0,3.751,3.055,6.803,6.81,6.803
		c3.75,0,6.801-3.052,6.801-6.803C45.229,25.621,42.178,22.566,38.428,22.566z"/>
	<path d="M20.581,46.135c-0.281,0-0.561-0.118-0.759-0.348c-0.36-0.419-0.313-1.051,0.106-1.41l11.216-9.644
		c0.42-0.36,1.051-0.313,1.41,0.105c0.36,0.419,0.313,1.051-0.105,1.41l-11.217,9.644C21.043,46.056,20.812,46.135,20.581,46.135z"
		/>
</g>
</svg>
