<?xml version="1.0" encoding="utf-8"?>
<!-- Generator: Adobe Illustrator 16.0.0, SVG Export Plug-In . SVG Version: 6.00 Build 0)  -->
<!DOCTYPE svg PUBLIC "-//W3C//DTD SVG 1.1//EN" "http://www.w3.org/Graphics/SVG/1.1/DTD/svg11.dtd">
<svg version="1.1" id="Layer_1" xmlns="http://www.w3.org/2000/svg" xmlns:xlink="http://www.w3.org/1999/xlink" x="0px" y="0px"
	 width="48px" height="48px" viewBox="0 0 48 48" enable-background="new 0 0 48 48" xml:space="preserve">
<g>
	<path d="M20.796,30.207H1.431c-0.504,0-0.93-0.376-0.992-0.876c-0.021-0.136-0.034-0.24-0.034-0.354V18.325
		c0-6.471,4.804-11.735,10.709-11.735c5.902,0,10.704,5.265,10.704,11.735v10.651c0,0.094-0.01,0.182-0.022,0.267
		c0.003,0.268-0.1,0.501-0.288,0.691C21.32,30.125,21.063,30.207,20.796,30.207z M2.405,28.207h17.413l0-9.882
		c0-5.368-3.904-9.735-8.704-9.735c-4.802,0-8.709,4.367-8.709,9.735V28.207z"/>
	<path d="M46.58,30.207H20.796c-0.552,0-1-0.447-1-1c0-0.084,0.008-0.167,0.021-0.252l0.001-10.63c0-5.368-3.904-9.735-8.704-9.735
		c-0.552,0-1-0.448-1-1s0.448-1,1-1h25.776c5.901,0,10.705,5.264,10.707,11.735v10.652c0,0.084-0.007,0.162-0.016,0.238
		C47.582,29.767,47.133,30.207,46.58,30.207z M21.818,28.207h23.778l0.002-9.882c-0.002-5.368-3.908-9.735-8.707-9.735H17.085
		c2.853,2.11,4.732,5.687,4.732,9.735V28.207z"/>
	<path d="M14.641,21.169h-7.06c-0.552,0-1-0.448-1-1s0.448-1,1-1h7.06c0.552,0,1,0.448,1,1S15.193,21.169,14.641,21.169z"/>
	<path d="M31.003,3.165h-8.6c-0.552,0-1-0.448-1-1s0.448-1,1-1h8.6c0.553,0,1,0.448,1,1S31.556,3.165,31.003,3.165z"/>
	<path d="M24.532,20.234c-0.002,0-0.005,0-0.007,0c-0.552-0.004-0.997-0.455-0.993-1.007l0.124-18.234
		C23.66,0.441,24.115-0.003,24.663,0c0.552,0.004,0.997,0.455,0.993,1.007l-0.124,18.234C25.528,19.791,25.081,20.234,24.532,20.234
		z"/>
	<path d="M24.611,48c-0.552,0-1-0.447-1-1V30.055c0-0.553,0.448-1,1-1c0.553,0,1,0.447,1,1V47C25.611,47.553,25.164,48,24.611,48z"
		/>
</g>
</svg>
