<?xml version="1.0" encoding="utf-8"?>
<!-- Generator: Adobe Illustrator 16.0.0, SVG Export Plug-In . SVG Version: 6.00 Build 0)  -->
<!DOCTYPE svg PUBLIC "-//W3C//DTD SVG 1.1//EN" "http://www.w3.org/Graphics/SVG/1.1/DTD/svg11.dtd">
<svg version="1.1" id="Layer_1" xmlns="http://www.w3.org/2000/svg" xmlns:xlink="http://www.w3.org/1999/xlink" x="0px" y="0px"
	 width="48px" height="48px" viewBox="0 0 48 48" enable-background="new 0 0 48 48" xml:space="preserve">
<g>
	<g>
		<path d="M26.575,5.719H1c-0.552,0-1-0.448-1-1s0.448-1,1-1h25.575c0.553,0,1,0.448,1,1S27.128,5.719,26.575,5.719z"/>
		<path d="M26.575,13.433H10.162c-0.552,0-1-0.448-1-1s0.448-1,1-1h16.413c0.553,0,1,0.448,1,1S27.128,13.433,26.575,13.433z"/>
		<path d="M26.575,21.144H1c-0.552,0-1-0.448-1-1s0.448-1,1-1h25.575c0.553,0,1,0.448,1,1S27.128,21.144,26.575,21.144z"/>
		<path d="M26.575,28.857H10.162c-0.552,0-1-0.447-1-1s0.448-1,1-1h16.413c0.553,0,1,0.447,1,1S27.128,28.857,26.575,28.857z"/>
		<path d="M26.575,36.568H1c-0.552,0-1-0.447-1-1s0.448-1,1-1h25.575c0.553,0,1,0.447,1,1S27.128,36.568,26.575,36.568z"/>
		<path d="M26.575,44.279H10.162c-0.552,0-1-0.447-1-1s0.448-1,1-1h16.413c0.553,0,1,0.447,1,1S27.128,44.279,26.575,44.279z"/>
	</g>
	<path d="M31.721,48c-0.553,0-1-0.447-1-1V1c0-0.552,0.447-1,1-1s1,0.448,1,1v46C32.721,47.553,32.273,48,31.721,48z"/>
	<g>
		<path d="M47,25.003h-9.535c-0.553,0-1-0.447-1-1c0-0.552,0.447-1,1-1H47c0.553,0,1,0.448,1,1C48,24.556,47.553,25.003,47,25.003z"
			/>
		<path d="M41.629,29.885c-0.218,0-0.438-0.071-0.622-0.218l-6.13-4.882c-0.232-0.185-0.37-0.463-0.377-0.76
			c-0.007-0.297,0.119-0.581,0.343-0.776l6.13-5.345c0.415-0.362,1.046-0.32,1.411,0.097c0.362,0.417,0.319,1.048-0.097,1.411
			l-5.226,4.556l5.191,4.134c0.432,0.344,0.503,0.974,0.159,1.405C42.215,29.756,41.923,29.885,41.629,29.885z"/>
	</g>
</g>
</svg>
