<?xml version="1.0" encoding="utf-8"?>
<!-- Generator: Adobe Illustrator 16.0.0, SVG Export Plug-In . SVG Version: 6.00 Build 0)  -->
<!DOCTYPE svg PUBLIC "-//W3C//DTD SVG 1.1//EN" "http://www.w3.org/Graphics/SVG/1.1/DTD/svg11.dtd">
<svg version="1.1" id="Layer_1" xmlns="http://www.w3.org/2000/svg" xmlns:xlink="http://www.w3.org/1999/xlink" x="0px" y="0px"
	 width="48px" height="48px" viewBox="0 0 48 48" enable-background="new 0 0 48 48" xml:space="preserve">
<g>
	<path d="M47,2H15.542c-0.552,0-1-0.448-1-1s0.448-1,1-1H47c0.553,0,1,0.448,1,1S47.553,2,47,2z"/>
	<path d="M3.91,2H1C0.448,2,0,1.552,0,1s0.448-1,1-1h2.91c0.552,0,1,0.448,1,1S4.462,2,3.91,2z"/>
	<path d="M47,25.002H15.542c-0.552,0-1-0.447-1-1c0-0.552,0.448-1,1-1H47c0.553,0,1,0.448,1,1C48,24.555,47.553,25.002,47,25.002z"
		/>
	<path d="M3.91,25.002H1c-0.552,0-1-0.447-1-1c0-0.552,0.448-1,1-1h2.91c0.552,0,1,0.448,1,1C4.91,24.555,4.462,25.002,3.91,25.002z
		"/>
	<path d="M47,48H15.542c-0.552,0-1-0.447-1-1s0.448-1,1-1H47c0.553,0,1,0.447,1,1S47.553,48,47,48z"/>
	<path d="M3.91,48H1c-0.552,0-1-0.447-1-1s0.448-1,1-1h2.91c0.552,0,1,0.447,1,1S4.462,48,3.91,48z"/>
</g>
</svg>
