<?xml version="1.0" encoding="utf-8"?>
<!-- Generator: Adobe Illustrator 16.0.0, SVG Export Plug-In . SVG Version: 6.00 Build 0)  -->
<!DOCTYPE svg PUBLIC "-//W3C//DTD SVG 1.1//EN" "http://www.w3.org/Graphics/SVG/1.1/DTD/svg11.dtd">
<svg version="1.1" id="Layer_1" xmlns="http://www.w3.org/2000/svg" xmlns:xlink="http://www.w3.org/1999/xlink" x="0px" y="0px"
	 width="48px" height="48px" viewBox="0 0 48 48" enable-background="new 0 0 48 48" xml:space="preserve">
<g>
	<path d="M47,21.425H20.402c-0.552,0-1-0.448-1-1s0.448-1,1-1H47c0.553,0,1,0.448,1,1S47.553,21.425,47,21.425z"/>
	<path d="M47,47.432H20.402c-0.552,0-1-0.447-1-1s0.448-1,1-1H47c0.553,0,1,0.447,1,1S47.553,47.432,47,47.432z"/>
	<path d="M8.114,38.896c-0.552,0-1-0.447-1-1V9.628c0-0.552,0.448-1,1-1s1,0.448,1,1v28.269C9.114,38.449,8.667,38.896,8.114,38.896
		z"/>
	<g>
		<path d="M1,16.227c-0.245,0-0.49-0.089-0.683-0.27c-0.403-0.377-0.424-1.01-0.047-1.413l7.739-8.272l7.928,7.925
			c0.391,0.39,0.391,1.023,0,1.414c-0.39,0.391-1.023,0.391-1.414,0L8.057,9.148L1.73,15.91C1.533,16.121,1.267,16.227,1,16.227z"/>
		<path d="M8.009,41.249l-7.74-8.272c-0.377-0.403-0.356-1.036,0.047-1.414c0.403-0.378,1.035-0.356,1.414,0.047l6.327,6.763
			l6.466-6.463c0.391-0.391,1.023-0.391,1.414,0s0.391,1.023,0,1.414L8.009,41.249z"/>
	</g>
	<g>
		<path d="M40.645,2.568H26.757c-0.553,0-1-0.448-1-1s0.447-1,1-1h13.888c0.553,0,1,0.448,1,1S41.197,2.568,40.645,2.568z"/>
		<path d="M33.702,17.488c-0.553,0-1-0.448-1-1V1.568c0-0.552,0.447-1,1-1s1,0.448,1,1v14.92
			C34.702,17.04,34.255,17.488,33.702,17.488z"/>
	</g>
	<g>
		<path d="M40.645,28.656H26.757c-0.553,0-1-0.447-1-1s0.447-1,1-1h13.888c0.553,0,1,0.447,1,1S41.197,28.656,40.645,28.656z"/>
		<path d="M33.702,43.58c-0.553,0-1-0.447-1-1V27.656c0-0.553,0.447-1,1-1s1,0.447,1,1V42.58
			C34.702,43.133,34.255,43.58,33.702,43.58z"/>
	</g>
</g>
</svg>
