<?xml version="1.0" encoding="utf-8"?>
<!-- Generator: Adobe Illustrator 16.0.0, SVG Export Plug-In . SVG Version: 6.00 Build 0)  -->
<!DOCTYPE svg PUBLIC "-//W3C//DTD SVG 1.1//EN" "http://www.w3.org/Graphics/SVG/1.1/DTD/svg11.dtd">
<svg version="1.1" id="Layer_1" xmlns="http://www.w3.org/2000/svg" xmlns:xlink="http://www.w3.org/1999/xlink" x="0px" y="0px"
	 width="48px" height="48px" viewBox="0 0 48 48" enable-background="new 0 0 48 48" xml:space="preserve">
<g>
	<g>
		<path d="M25.904,6.599H1c-0.552,0-1-0.448-1-1s0.448-1,1-1h24.904c0.553,0,1,0.448,1,1S26.457,6.599,25.904,6.599z"/>
		<path d="M13.453,43.4c-0.552,0-1-0.447-1-1V5.599c0-0.552,0.448-1,1-1s1,0.448,1,1V42.4C14.453,42.953,14.005,43.4,13.453,43.4z"
			/>
	</g>
	<g>
		<path d="M47,15.911H28.396c-0.553,0-1-0.448-1-1s0.447-1,1-1H47c0.553,0,1,0.448,1,1S47.553,15.911,47,15.911z"/>
		<path d="M37.7,43.4c-0.553,0-1-0.447-1-1V14.911c0-0.552,0.447-1,1-1s1,0.448,1,1V42.4C38.7,42.953,38.253,43.4,37.7,43.4z"/>
	</g>
</g>
</svg>
