<?xml version="1.0" encoding="utf-8"?>
<!-- Generator: Adobe Illustrator 16.0.0, SVG Export Plug-In . SVG Version: 6.00 Build 0)  -->
<!DOCTYPE svg PUBLIC "-//W3C//DTD SVG 1.1//EN" "http://www.w3.org/Graphics/SVG/1.1/DTD/svg11.dtd">
<svg version="1.1" id="Layer_1" xmlns="http://www.w3.org/2000/svg" xmlns:xlink="http://www.w3.org/1999/xlink" x="0px" y="0px"
	 width="48px" height="48px" viewBox="0 0 48 48" enable-background="new 0 0 48 48" xml:space="preserve">
<g>
	<g>
		<path d="M8.271,43.188c-0.552,0-1-0.447-1-1V4.435c0-0.552,0.448-1,1-1s1,0.448,1,1v37.752C9.271,42.74,8.823,43.188,8.271,43.188
			z"/>
		<path d="M8.165,45.005l-7.895-8.45c-0.377-0.403-0.356-1.036,0.048-1.413s1.037-0.355,1.413,0.048l6.483,6.938l6.633-6.631
			c0.391-0.391,1.023-0.391,1.414,0s0.391,1.023,0,1.414L8.165,45.005z"/>
	</g>
	<g>
		<path d="M47,3.731H18.21c-0.552,0-1-0.448-1-1s0.448-1,1-1H47c0.553,0,1,0.448,1,1S47.553,3.731,47,3.731z"/>
		<path d="M32.609,46.27c-0.553,0-1-0.447-1-1V2.731c0-0.552,0.447-1,1-1s1,0.448,1,1V45.27
			C33.609,45.822,33.162,46.27,32.609,46.27z"/>
	</g>
</g>
</svg>
