<?xml version="1.0" encoding="utf-8"?>
<!-- Generator: Adobe Illustrator 16.0.0, SVG Export Plug-In . SVG Version: 6.00 Build 0)  -->
<!DOCTYPE svg PUBLIC "-//W3C//DTD SVG 1.1//EN" "http://www.w3.org/Graphics/SVG/1.1/DTD/svg11.dtd">
<svg version="1.1" id="Layer_1" xmlns="http://www.w3.org/2000/svg" xmlns:xlink="http://www.w3.org/1999/xlink" x="0px" y="0px"
	 width="48px" height="48px" viewBox="0 0 48 48" enable-background="new 0 0 48 48" xml:space="preserve">
<g>
	<path d="M42.16,48H5.841c-0.552,0-1-0.447-1-1s0.448-1,1-1H42.16c0.553,0,1,0.447,1,1S42.713,48,42.16,48z"/>
	<g>
		<path d="M38.52,2H9.478c-0.552,0-1-0.448-1-1s0.448-1,1-1H38.52c0.553,0,1,0.448,1,1S39.072,2,38.52,2z"/>
		<path d="M23.997,42.605L23.997,42.605c-0.552,0-1-0.448-1-1L23,1c0-0.552,0.448-1,1-1l0,0c0.553,0,1,0.448,1,1l-0.003,40.605
			C24.997,42.158,24.549,42.605,23.997,42.605z"/>
	</g>
</g>
</svg>
