<?xml version="1.0" encoding="utf-8"?>
<!-- Generator: Adobe Illustrator 16.0.0, SVG Export Plug-In . SVG Version: 6.00 Build 0)  -->
<!DOCTYPE svg PUBLIC "-//W3C//DTD SVG 1.1//EN" "http://www.w3.org/Graphics/SVG/1.1/DTD/svg11.dtd">
<svg version="1.1" id="Layer_1" xmlns="http://www.w3.org/2000/svg" xmlns:xlink="http://www.w3.org/1999/xlink" x="0px" y="0px"
	 width="48px" height="48px" viewBox="0 0 48 48" enable-background="new 0 0 48 48" xml:space="preserve">
<g>
	<path d="M33.537,24.995h-19.07c-0.552,0-1-0.447-1-1c0-0.552,0.448-1,1-1h19.07c0.553,0,1,0.448,1,1
		C34.537,24.548,34.09,24.995,33.537,24.995z"/>
	<g>
		<path d="M40.451,2H7.549c-0.552,0-1-0.448-1-1s0.448-1,1-1h32.902c0.553,0,1,0.448,1,1S41.004,2,40.451,2z"/>
		<path d="M23.998,48L23.998,48c-0.552,0-1-0.448-1-1l0.005-46c0-0.552,0.448-1,1-1l0,0c0.553,0,1,0.448,1,1l-0.005,46
			C24.998,47.553,24.55,48,23.998,48z"/>
	</g>
</g>
</svg>
