<?xml version="1.0" encoding="utf-8"?>
<!-- Generator: Adobe Illustrator 16.0.0, SVG Export Plug-In . SVG Version: 6.00 Build 0)  -->
<!DOCTYPE svg PUBLIC "-//W3C//DTD SVG 1.1//EN" "http://www.w3.org/Graphics/SVG/1.1/DTD/svg11.dtd">
<svg version="1.1" id="Layer_1" xmlns="http://www.w3.org/2000/svg" xmlns:xlink="http://www.w3.org/1999/xlink" x="0px" y="0px"
	 width="48px" height="48px" viewBox="0 0 48 48" enable-background="new 0 0 48 48" xml:space="preserve">
<g>
	<path d="M1,47.67c-0.268,0-0.53-0.107-0.722-0.309c-0.28-0.292-0.356-0.725-0.193-1.096l5.37-12.163
		C3.56,30.714,2.56,26.903,2.56,23.049c0-12.527,10.191-22.718,22.717-22.718C37.807,0.331,48,10.522,48,23.048
		c0,12.525-10.193,22.716-22.723,22.716c-3.971,0-7.884-1.059-11.347-3.064L1.363,47.602C1.246,47.647,1.122,47.67,1,47.67z
		 M25.277,2.331c-11.423,0-20.717,9.294-20.717,20.718c0,3.669,0.995,7.295,2.875,10.487c0.164,0.277,0.184,0.617,0.054,0.912
		l-4.596,10.41l10.765-4.2c0.29-0.112,0.618-0.085,0.883,0.077c3.254,1.981,6.967,3.028,10.736,3.028
		C36.704,43.764,46,34.471,46,23.048C46,11.625,36.704,2.331,25.277,2.331z"/>
	<g>
		<path d="M21.244,22.251c0,1.779-1.444,3.224-3.224,3.224c-1.776,0-3.221-1.445-3.221-3.224s1.445-3.223,3.221-3.223
			C19.8,19.028,21.244,20.472,21.244,22.251z"/>
		<path d="M35.346,22.251c0,1.779-1.445,3.224-3.222,3.224c-1.781,0-3.226-1.445-3.226-3.224s1.443-3.223,3.226-3.223
			C33.898,19.028,35.346,20.472,35.346,22.251z"/>
	</g>
</g>
</svg>
