<?xml version="1.0" encoding="utf-8"?>
<!-- Generator: Adobe Illustrator 16.0.0, SVG Export Plug-In . SVG Version: 6.00 Build 0)  -->
<!DOCTYPE svg PUBLIC "-//W3C//DTD SVG 1.1//EN" "http://www.w3.org/Graphics/SVG/1.1/DTD/svg11.dtd">
<svg version="1.1" id="Layer_1" xmlns="http://www.w3.org/2000/svg" xmlns:xlink="http://www.w3.org/1999/xlink" x="0px" y="0px"
	 width="48px" height="48px" viewBox="0 0 48 48" enable-background="new 0 0 48 48" xml:space="preserve">
<g>
	<path d="M14.06,34.534c-0.262,0-0.519-0.103-0.71-0.296c-0.292-0.294-0.372-0.737-0.202-1.114l4.038-8.972
		c0.05-0.11,0.119-0.211,0.205-0.296l13.653-13.651c0.391-0.391,1.023-0.391,1.414,0l4.99,4.989
		c0.188,0.188,0.293,0.442,0.293,0.707s-0.105,0.52-0.293,0.707L23.793,30.264c-0.087,0.088-0.19,0.158-0.304,0.208l-9.027,3.978
		C14.333,34.507,14.195,34.534,14.06,34.534z M18.934,25.14l-2.893,6.429l6.471-2.852L35.326,15.9l-3.576-3.575L18.934,25.14z"/>
	<path d="M1,47.672c-0.268,0-0.53-0.107-0.722-0.309c-0.28-0.292-0.356-0.725-0.193-1.095l5.369-12.165
		c-1.896-3.386-2.896-7.196-2.896-11.055c0-12.528,10.192-22.72,22.719-22.72C37.807,0.329,48,10.521,48,23.048
		c0,12.526-10.193,22.718-22.723,22.718c-3.968,0-7.881-1.059-11.349-3.066L1.364,47.604C1.246,47.649,1.122,47.672,1,47.672z
		 M25.277,2.329c-11.425,0-20.719,9.295-20.719,20.72c0,3.673,0.995,7.299,2.876,10.486c0.164,0.278,0.184,0.617,0.054,0.912
		L2.893,44.859l10.762-4.201c0.292-0.112,0.617-0.085,0.883,0.077c3.26,1.982,6.973,3.03,10.739,3.03
		C36.704,43.766,46,34.472,46,23.048C46,11.624,36.704,2.329,25.277,2.329z"/>
</g>
</svg>
