<?xml version="1.0" encoding="utf-8"?>
<!-- Generator: Adobe Illustrator 16.0.0, SVG Export Plug-In . SVG Version: 6.00 Build 0)  -->
<!DOCTYPE svg PUBLIC "-//W3C//DTD SVG 1.1//EN" "http://www.w3.org/Graphics/SVG/1.1/DTD/svg11.dtd">
<svg version="1.1" id="Layer_1" xmlns="http://www.w3.org/2000/svg" xmlns:xlink="http://www.w3.org/1999/xlink" x="0px" y="0px"
	 width="48px" height="48px" viewBox="0 0 48 48" enable-background="new 0 0 48 48" xml:space="preserve">
<g>
	<path d="M27.821,31.165C27.821,31.165,27.821,31.165,27.821,31.165c-7.157-0.001-13.342-4.889-15.042-11.887
		c-2.025-8.346,3.078-16.792,11.375-18.827c1.212-0.297,2.454-0.448,3.69-0.448c7.155,0,13.342,4.887,15.045,11.883
		c0.63,2.604,0.577,5.325-0.148,7.905l4.983,7.145c0.183,0.182,0.296,0.433,0.296,0.711c0,0.553-0.447,1-1,1
		c-0.005-0.001-0.013-0.001-0.02,0c-0.059,0-0.117-0.005-0.176-0.016l-8.577-1.53c-1.914,1.755-4.231,3.001-6.733,3.615
		C30.301,31.014,29.059,31.165,27.821,31.165z M27.844,2.002c-1.076,0-2.157,0.131-3.213,0.391
		c-7.229,1.773-11.673,9.136-9.908,16.413c1.481,6.098,6.868,10.358,13.099,10.359l0,0c1.077,0,2.158-0.132,3.215-0.392
		c2.321-0.57,4.462-1.767,6.189-3.46c0.23-0.227,0.558-0.329,0.876-0.271l6.697,1.195l-3.975-5.7
		c-0.178-0.254-0.227-0.577-0.133-0.873c0.749-2.372,0.837-4.899,0.254-7.308C39.461,6.261,34.073,2.002,27.844,2.002z"/>
	<path d="M1,47.997c-0.267,0-0.529-0.107-0.721-0.308c-0.28-0.292-0.357-0.724-0.194-1.095l3.52-8.016
		C2.364,36.29,1.71,33.731,1.71,31.146c0-6.938,4.634-13.102,11.268-14.99c0.533-0.149,1.084,0.157,1.236,0.688
		c0.151,0.531-0.157,1.084-0.688,1.236C7.747,19.725,3.71,25.098,3.71,31.146c0,2.4,0.648,4.777,1.874,6.872
		c0.162,0.276,0.182,0.613,0.053,0.907l-2.748,6.258l6.44-2.522c0.292-0.114,0.62-0.085,0.887,0.079
		c2.117,1.297,4.534,1.982,6.992,1.982c7.441,0,13.496-6.09,13.496-13.576c0-0.464-0.023-0.921-0.07-1.397
		c-0.055-0.55,0.347-1.039,0.896-1.094c0.547-0.047,1.04,0.346,1.094,0.896c0.054,0.543,0.08,1.064,0.08,1.595
		c0,8.589-6.951,15.576-15.496,15.576c-2.66,0-5.278-0.697-7.603-2.021l-8.24,3.228C1.246,47.975,1.123,47.997,1,47.997z"/>
</g>
</svg>
