<?xml version="1.0" encoding="utf-8"?>
<!-- Generator: Adobe Illustrator 16.0.0, SVG Export Plug-In . SVG Version: 6.00 Build 0)  -->
<!DOCTYPE svg PUBLIC "-//W3C//DTD SVG 1.1//EN" "http://www.w3.org/Graphics/SVG/1.1/DTD/svg11.dtd">
<svg version="1.1" id="Layer_1" xmlns="http://www.w3.org/2000/svg" xmlns:xlink="http://www.w3.org/1999/xlink" x="0px" y="0px"
	 width="48px" height="48px" viewBox="0 0 48 48" enable-background="new 0 0 48 48" xml:space="preserve">
<g>
	<g>
		<path d="M39.143,40.521c-0.256,0-0.512-0.098-0.707-0.293l-6.942-6.943c-0.391-0.391-0.391-1.023,0-1.414s1.023-0.391,1.414,0
			l6.942,6.943c0.391,0.391,0.391,1.023,0,1.414C39.654,40.424,39.398,40.521,39.143,40.521z"/>
		<path d="M32.2,40.521c-0.256,0-0.512-0.098-0.707-0.293c-0.391-0.391-0.391-1.023,0-1.414l6.942-6.943
			c0.391-0.391,1.023-0.391,1.414,0s0.391,1.023,0,1.414l-6.942,6.943C32.712,40.424,32.456,40.521,32.2,40.521z"/>
	</g>
	<g>
		<path d="M35.672,48c-6.589,0-11.949-5.36-11.949-11.949c0-6.59,5.36-11.951,11.949-11.951c6.591,0,11.953,5.361,11.953,11.951
			C47.625,42.64,42.263,48,35.672,48z M35.672,26.1c-5.486,0-9.949,4.464-9.949,9.951c0,5.486,4.463,9.949,9.949,9.949
			c5.488,0,9.953-4.463,9.953-9.949C45.625,30.563,41.16,26.1,35.672,26.1z"/>
		<path d="M1.375,46.604c-0.268,0-0.53-0.107-0.722-0.309C0.373,46.003,0.297,45.57,0.46,45.2l5.276-11.962
			c-1.862-3.335-2.844-7.084-2.844-10.873C2.892,10.033,12.924,0,25.255,0c12.335,0,22.37,10.033,22.37,22.366
			c0,2.905-0.561,5.75-1.666,8.455c-0.144,0.351-0.472,0.59-0.849,0.619c-0.394,0.027-0.739-0.158-0.934-0.481
			c-1.831-3.043-5.01-4.859-8.505-4.859c-5.486,0-9.949,4.464-9.949,9.951c0,2.542,0.976,4.969,2.746,6.833
			c0.262,0.274,0.345,0.674,0.215,1.03c-0.129,0.356-0.449,0.608-0.826,0.651c-0.998,0.114-1.825,0.167-2.604,0.167
			c-3.906,0-7.753-1.042-11.159-3.018l-12.356,4.82C1.621,46.581,1.497,46.604,1.375,46.604z M25.255,2
			C14.027,2,4.892,11.136,4.892,22.365c0,3.604,0.977,7.168,2.825,10.308C7.88,32.95,7.9,33.289,7.77,33.583L3.267,43.792
			l10.556-4.118c0.29-0.113,0.618-0.084,0.884,0.078c3.196,1.95,6.843,2.98,10.547,2.98c0.171,0,0.346-0.003,0.524-0.009
			c-1.335-1.965-2.056-4.275-2.056-6.673c0-6.59,5.36-11.951,11.949-11.951c3.539,0,6.808,1.545,9.062,4.213
			c0.593-1.93,0.892-3.922,0.892-5.946C45.625,11.136,36.487,2,25.255,2z"/>
	</g>
</g>
</svg>
