<?xml version="1.0" encoding="utf-8"?>
<!-- Generator: Adobe Illustrator 16.0.0, SVG Export Plug-In . SVG Version: 6.00 Build 0)  -->
<!DOCTYPE svg PUBLIC "-//W3C//DTD SVG 1.1//EN" "http://www.w3.org/Graphics/SVG/1.1/DTD/svg11.dtd">
<svg version="1.1" id="Layer_1" xmlns="http://www.w3.org/2000/svg" xmlns:xlink="http://www.w3.org/1999/xlink" x="0px" y="0px"
	 width="48px" height="48px" viewBox="0 0 48 48" enable-background="new 0 0 48 48" xml:space="preserve">
<g>
	<g>
		<path d="M40.586,37.051h-9.822c-0.553,0-1-0.447-1-1s0.447-1,1-1h9.822c0.553,0,1,0.447,1,1S41.139,37.051,40.586,37.051z"/>
		<path d="M35.67,41.96c-0.553,0-1-0.447-1-1v-9.819c0-0.553,0.447-1,1-1s1,0.447,1,1v9.819C36.67,41.513,36.223,41.96,35.67,41.96z
			"/>
	</g>
	<path d="M35.674,48.001c-6.589,0-11.949-5.36-11.949-11.95c0-6.589,5.36-11.949,11.949-11.949c6.59,0,11.95,5.36,11.95,11.949
		C47.624,42.641,42.264,48.001,35.674,48.001z M35.674,26.102c-5.486,0-9.949,4.463-9.949,9.949s4.463,9.95,9.949,9.95
		s9.95-4.464,9.95-9.95S41.16,26.102,35.674,26.102z"/>
	<path d="M1.376,46.604c-0.268,0-0.53-0.107-0.722-0.309c-0.28-0.292-0.356-0.725-0.193-1.095l5.278-11.961
		c-1.861-3.326-2.842-7.074-2.842-10.873C2.897,10.033,12.931,0,25.264,0c12.329,0,22.36,10.034,22.36,22.367
		c0,2.905-0.56,5.749-1.664,8.454c-0.143,0.351-0.472,0.59-0.849,0.619c-0.393,0.023-0.74-0.158-0.935-0.482
		c-1.828-3.042-5.008-4.858-8.505-4.858c-5.485,0-9.947,4.464-9.947,9.951c0,2.539,0.976,4.966,2.747,6.834
		c0.261,0.275,0.344,0.675,0.214,1.031c-0.131,0.356-0.451,0.608-0.828,0.651c-0.996,0.111-1.82,0.163-2.594,0.163
		c-3.91,0-7.762-1.041-11.173-3.016L1.74,46.535C1.622,46.581,1.498,46.604,1.376,46.604z M25.264,2
		C14.033,2,4.897,11.136,4.897,22.366c0,3.613,0.976,7.177,2.822,10.306c0.164,0.277,0.184,0.616,0.054,0.911L3.269,43.791
		l10.549-4.117c0.291-0.113,0.618-0.085,0.884,0.077c3.202,1.949,6.854,2.979,10.563,2.979c0.168,0,0.34-0.003,0.517-0.009
		c-1.335-1.966-2.056-4.276-2.056-6.671c0-6.59,5.359-11.951,11.947-11.951c3.541,0,6.809,1.545,9.063,4.211
		c0.591-1.928,0.89-3.919,0.89-5.943C45.624,11.137,36.49,2,25.264,2z"/>
</g>
</svg>
