<?xml version="1.0" encoding="utf-8"?>
<!-- Generator: Adobe Illustrator 16.0.0, SVG Export Plug-In . SVG Version: 6.00 Build 0)  -->
<!DOCTYPE svg PUBLIC "-//W3C//DTD SVG 1.1//EN" "http://www.w3.org/Graphics/SVG/1.1/DTD/svg11.dtd">
<svg version="1.1" id="Layer_1" xmlns="http://www.w3.org/2000/svg" xmlns:xlink="http://www.w3.org/1999/xlink" x="0px" y="0px"
	 width="48px" height="48px" viewBox="0 0 48 48" enable-background="new 0 0 48 48" xml:space="preserve">
<g>
	<path d="M34.096,41.346c-0.271,0-0.53-0.109-0.719-0.305l-4.908-5.072c-0.384-0.396-0.373-1.03,0.023-1.414
		c0.397-0.383,1.03-0.374,1.414,0.023l4.179,4.318l7.347-7.828c0.379-0.403,1.01-0.422,1.414-0.045
		c0.402,0.378,0.423,1.011,0.045,1.414l-8.065,8.593c-0.188,0.199-0.448,0.313-0.722,0.315
		C34.101,41.346,34.099,41.346,34.096,41.346z"/>
	<path d="M35.674,48c-6.591,0-11.953-5.36-11.953-11.949c0-6.591,5.362-11.953,11.953-11.953c6.59,0,11.95,5.362,11.95,11.953
		C47.624,42.64,42.264,48,35.674,48z M35.674,26.098c-5.488,0-9.953,4.465-9.953,9.953c0,5.486,4.465,9.949,9.953,9.949
		c5.486,0,9.95-4.463,9.95-9.949C45.624,30.563,41.16,26.098,35.674,26.098z"/>
	<path d="M1.376,46.602c-0.268,0-0.53-0.107-0.722-0.309c-0.28-0.292-0.356-0.725-0.193-1.096L5.74,33.239
		c-1.862-3.33-2.845-7.078-2.845-10.874C2.895,10.033,12.927,0,25.258,0c12.333,0,22.366,10.033,22.366,22.366
		c0,2.914-0.562,5.759-1.668,8.457c-0.144,0.35-0.472,0.589-0.85,0.617c-0.381,0.023-0.738-0.158-0.933-0.482
		c-1.827-3.043-5.004-4.86-8.5-4.86c-5.488,0-9.953,4.465-9.953,9.953c0,2.535,0.977,4.962,2.749,6.834
		c0.261,0.275,0.343,0.675,0.213,1.03c-0.13,0.356-0.451,0.608-0.827,0.651c-0.997,0.111-1.822,0.164-2.598,0.164
		c-3.91,0-7.759-1.042-11.164-3.018l-12.354,4.82C1.622,46.579,1.498,46.602,1.376,46.602z M25.258,2
		C14.03,2,4.895,11.136,4.895,22.365c0,3.61,0.977,7.174,2.825,10.307c0.164,0.277,0.184,0.617,0.054,0.912L3.269,43.789
		l10.553-4.117c0.29-0.114,0.617-0.084,0.884,0.078c3.196,1.95,6.845,2.98,10.552,2.98c0.17,0,0.343-0.003,0.521-0.009
		c-1.338-1.969-2.059-4.278-2.059-6.671c0-6.591,5.362-11.953,11.953-11.953c3.541,0,6.808,1.546,9.06,4.214
		c0.592-1.924,0.891-3.916,0.891-5.945C45.624,11.136,36.487,2,25.258,2z"/>
</g>
</svg>
