<?xml version="1.0" encoding="utf-8"?>
<!-- Generator: Adobe Illustrator 16.0.0, SVG Export Plug-In . SVG Version: 6.00 Build 0)  -->
<!DOCTYPE svg PUBLIC "-//W3C//DTD SVG 1.1//EN" "http://www.w3.org/Graphics/SVG/1.1/DTD/svg11.dtd">
<svg version="1.1" id="Layer_1" xmlns="http://www.w3.org/2000/svg" xmlns:xlink="http://www.w3.org/1999/xlink" x="0px" y="0px"
	 width="48px" height="48px" viewBox="0 0 48 48" enable-background="new 0 0 48 48" xml:space="preserve">
<g>
	<path d="M29.433,46.025c-0.197,0-0.396-0.058-0.569-0.179c-0.454-0.315-0.566-0.938-0.251-1.392l12.478-17.95
		c0.314-0.455,0.938-0.567,1.392-0.251c0.454,0.315,0.566,0.938,0.251,1.392l-12.478,17.95
		C30.061,45.876,29.749,46.025,29.433,46.025z"/>
	<path d="M35.669,48c-6.588,0-11.948-5.36-11.948-11.949c0-6.59,5.36-11.951,11.948-11.951c6.593,0,11.957,5.361,11.957,11.951
		C47.626,42.64,42.262,48,35.669,48z M35.669,26.1c-5.485,0-9.948,4.464-9.948,9.951c0,5.486,4.463,9.949,9.948,9.949
		c5.49,0,9.957-4.463,9.957-9.949C45.626,30.563,41.159,26.1,35.669,26.1z"/>
	<path d="M1.375,46.602c-0.268,0-0.53-0.107-0.722-0.309c-0.28-0.292-0.356-0.725-0.193-1.096l5.279-11.959
		c-1.865-3.335-2.848-7.083-2.848-10.873C2.891,10.033,12.925,0,25.258,0c12.334,0,22.368,10.033,22.368,22.366
		c0,2.896-0.56,5.74-1.665,8.454c-0.143,0.351-0.471,0.591-0.849,0.62c-0.38,0.023-0.74-0.158-0.935-0.482
		c-1.828-3.042-5.009-4.858-8.509-4.858c-5.485,0-9.948,4.464-9.948,9.951c0,2.542,0.977,4.968,2.75,6.832
		c0.262,0.275,0.345,0.675,0.215,1.031c-0.129,0.356-0.449,0.609-0.826,0.651c-0.988,0.112-1.815,0.165-2.602,0.165
		c-3.909,0-7.759-1.042-11.166-3.018l-12.353,4.82C1.621,46.579,1.497,46.602,1.375,46.602z M25.258,2
		C14.027,2,4.891,11.136,4.891,22.365c0,3.604,0.978,7.168,2.828,10.307c0.164,0.277,0.184,0.617,0.054,0.912L3.268,43.789
		l10.551-4.117c0.292-0.113,0.618-0.083,0.884,0.078c3.198,1.95,6.848,2.98,10.554,2.98c0.17,0,0.344-0.003,0.521-0.009
		c-1.337-1.964-2.058-4.274-2.058-6.671c0-6.59,5.36-11.951,11.948-11.951c3.543,0,6.812,1.544,9.065,4.21
		c0.593-1.933,0.892-3.924,0.892-5.943C45.626,11.136,36.489,2,25.258,2z"/>
</g>
</svg>
