<?xml version="1.0" encoding="utf-8"?>
<!-- Generator: Adobe Illustrator 16.0.0, SVG Export Plug-In . SVG Version: 6.00 Build 0)  -->
<!DOCTYPE svg PUBLIC "-//W3C//DTD SVG 1.1//EN" "http://www.w3.org/Graphics/SVG/1.1/DTD/svg11.dtd">
<svg version="1.1" id="Layer_1" xmlns="http://www.w3.org/2000/svg" xmlns:xlink="http://www.w3.org/1999/xlink" x="0px" y="0px"
	 width="48px" height="48px" viewBox="0 0 48 48" enable-background="new 0 0 48 48" xml:space="preserve">
<g>
	<path d="M35.674,43.139c-0.34,0-0.656-0.173-0.841-0.458l-5.938-9.218c-0.198-0.309-0.212-0.699-0.037-1.021
		s0.512-0.521,0.878-0.521h11.871c0.366,0,0.702,0.2,0.878,0.521c0.175,0.321,0.161,0.712-0.037,1.02l-5.934,9.218
		C36.331,42.966,36.014,43.139,35.674,43.139z M31.57,33.921l4.104,6.371l4.101-6.371H31.57z"/>
	<path d="M35.674,48.002c-6.59,0-11.951-5.361-11.951-11.951S29.084,24.1,35.674,24.1s11.951,5.361,11.951,11.951
		S42.264,48.002,35.674,48.002z M35.674,26.1c-5.487,0-9.951,4.464-9.951,9.951s4.464,9.951,9.951,9.951s9.951-4.464,9.951-9.951
		S41.161,26.1,35.674,26.1z"/>
	<path d="M1.375,46.604c-0.268,0-0.53-0.107-0.722-0.309C0.373,46.003,0.297,45.57,0.46,45.2l5.279-11.962
		c-1.861-3.33-2.843-7.077-2.843-10.872C2.896,10.033,12.927,0,25.258,0c12.333,0,22.367,10.034,22.367,22.367
		c0,2.902-0.561,5.747-1.667,8.454c-0.144,0.351-0.472,0.59-0.85,0.619c-0.376,0.023-0.739-0.158-0.934-0.482
		c-1.828-3.042-5.006-4.858-8.501-4.858c-5.486,0-9.949,4.464-9.949,9.951c0,2.539,0.976,4.966,2.747,6.833
		c0.261,0.275,0.344,0.675,0.214,1.031s-0.45,0.608-0.827,0.65c-0.991,0.112-1.818,0.165-2.602,0.165
		c-3.907,0-7.755-1.041-11.162-3.016l-12.356,4.82C1.621,46.581,1.497,46.604,1.375,46.604z M25.258,2
		C14.03,2,4.896,11.136,4.896,22.366c0,3.609,0.976,7.173,2.823,10.306c0.164,0.277,0.184,0.617,0.054,0.911L3.268,43.792
		l10.555-4.118c0.291-0.113,0.618-0.085,0.884,0.078c3.197,1.948,6.845,2.979,10.55,2.979c0.171,0,0.346-0.003,0.523-0.009
		c-1.336-1.966-2.056-4.275-2.056-6.671c0-6.59,5.36-11.951,11.949-11.951c3.539,0,6.806,1.545,9.06,4.212
		c0.592-1.93,0.892-3.922,0.892-5.944C45.625,11.137,36.488,2,25.258,2z"/>
</g>
</svg>
