<?xml version="1.0" encoding="utf-8"?>
<!-- Generator: Adobe Illustrator 16.0.0, SVG Export Plug-In . SVG Version: 6.00 Build 0)  -->
<!DOCTYPE svg PUBLIC "-//W3C//DTD SVG 1.1//EN" "http://www.w3.org/Graphics/SVG/1.1/DTD/svg11.dtd">
<svg version="1.1" id="Layer_1" xmlns="http://www.w3.org/2000/svg" xmlns:xlink="http://www.w3.org/1999/xlink" x="0px" y="0px"
	 width="48px" height="48px" viewBox="0 0 48 48" enable-background="new 0 0 48 48" xml:space="preserve">
<g>
	<polygon points="35.669,39.745 31.716,42.132 32.764,37.636 29.275,34.613 33.872,34.218 35.669,29.963 37.466,34.218 
		42.066,34.613 38.579,37.636 39.625,42.132 	"/>
	<path d="M35.671,48.005c-6.592,0-11.954-5.362-11.954-11.954c0-6.591,5.362-11.953,11.954-11.953s11.954,5.362,11.954,11.953
		C47.625,42.643,42.263,48.005,35.671,48.005z M35.671,26.098c-5.488,0-9.954,4.465-9.954,9.953s4.466,9.954,9.954,9.954
		s9.954-4.466,9.954-9.954S41.159,26.098,35.671,26.098z"/>
	<path d="M1.375,46.604c-0.268,0-0.53-0.107-0.722-0.309C0.373,46.003,0.297,45.57,0.46,45.2l5.274-11.961
		c-1.861-3.332-2.843-7.08-2.843-10.873C2.891,10.033,12.922,0,25.253,0c12.336,0,22.372,10.034,22.372,22.367
		c0,2.906-0.562,5.751-1.668,8.455c-0.144,0.35-0.472,0.589-0.85,0.618c-0.376,0.027-0.738-0.158-0.933-0.481
		c-1.832-3.043-5.012-4.859-8.506-4.859c-5.487,0-9.951,4.464-9.951,9.951c0,2.538,0.977,4.965,2.749,6.833
		c0.261,0.275,0.344,0.674,0.214,1.03s-0.449,0.608-0.826,0.651c-0.985,0.112-1.812,0.165-2.603,0.165
		c-3.905,0-7.753-1.041-11.161-3.016l-12.352,4.82C1.621,46.581,1.497,46.604,1.375,46.604z M25.253,2
		C14.025,2,4.891,11.136,4.891,22.366c0,3.607,0.977,7.171,2.823,10.306c0.164,0.277,0.184,0.616,0.054,0.911L3.267,43.792
		l10.552-4.118c0.291-0.113,0.618-0.085,0.884,0.078c3.198,1.948,6.846,2.979,10.549,2.979c0.172,0,0.346-0.003,0.523-0.009
		c-1.337-1.967-2.058-4.276-2.058-6.671c0-6.59,5.361-11.951,11.951-11.951c3.539,0,6.808,1.546,9.063,4.214
		c0.593-1.928,0.893-3.921,0.893-5.946C45.625,11.137,36.486,2,25.253,2z"/>
</g>
</svg>
