<?xml version="1.0" encoding="utf-8"?>
<!-- Generator: Adobe Illustrator 16.0.0, SVG Export Plug-In . SVG Version: 6.00 Build 0)  -->
<!DOCTYPE svg PUBLIC "-//W3C//DTD SVG 1.1//EN" "http://www.w3.org/Graphics/SVG/1.1/DTD/svg11.dtd">
<svg version="1.1" id="Layer_1" xmlns="http://www.w3.org/2000/svg" xmlns:xlink="http://www.w3.org/1999/xlink" x="0px" y="0px"
	 width="48px" height="48px" viewBox="0 0 48 48" enable-background="new 0 0 48 48" xml:space="preserve">
<g>
	<g>
		<path d="M35.672,40.923c-0.553,0-1-0.447-1-1v-9.585c0-0.553,0.447-1,1-1s1,0.447,1,1v9.585
			C36.672,40.476,36.225,40.923,35.672,40.923z"/>
		<path d="M35.938,42.761c-0.235,0-0.471-0.082-0.66-0.249l-5.453-4.788c-0.415-0.364-0.456-0.996-0.091-1.411
			c0.364-0.415,0.996-0.455,1.411-0.091l4.748,4.169l4.256-4.256c0.391-0.391,1.023-0.391,1.414,0s0.391,1.023,0,1.414l-4.918,4.919
			C36.45,42.662,36.194,42.761,35.938,42.761z"/>
	</g>
	<path d="M35.672,48c-6.591,0-11.953-5.36-11.953-11.949c0-6.59,5.362-11.951,11.953-11.951s11.953,5.361,11.953,11.951
		C47.625,42.64,42.263,48,35.672,48z M35.672,26.1c-5.488,0-9.953,4.464-9.953,9.951c0,5.486,4.465,9.949,9.953,9.949
		s9.953-4.463,9.953-9.949C45.625,30.563,41.16,26.1,35.672,26.1z"/>
	<path d="M1.375,46.604c-0.268,0-0.53-0.107-0.722-0.309C0.373,46.003,0.297,45.57,0.46,45.2l5.275-11.96
		c-1.864-3.339-2.846-7.088-2.846-10.874C2.889,10.033,12.925,0,25.26,0c12.332,0,22.365,10.033,22.365,22.366
		c0,2.903-0.561,5.748-1.667,8.455c-0.144,0.351-0.472,0.59-0.85,0.619c-0.376,0.023-0.739-0.158-0.934-0.482
		c-1.826-3.042-5.005-4.858-8.503-4.858c-5.488,0-9.953,4.464-9.953,9.951c0,2.537,0.977,4.964,2.75,6.833
		c0.261,0.275,0.344,0.675,0.214,1.03c-0.13,0.356-0.449,0.609-0.826,0.651c-0.987,0.112-1.813,0.165-2.598,0.165
		c-3.914,0-7.764-1.041-11.167-3.016l-12.353,4.82C1.621,46.581,1.497,46.604,1.375,46.604z M25.26,2
		C14.027,2,4.889,11.136,4.889,22.366c0,3.601,0.978,7.165,2.827,10.309c0.163,0.277,0.183,0.616,0.053,0.91L3.267,43.792
		l10.552-4.118c0.291-0.113,0.618-0.084,0.885,0.078c3.193,1.948,6.842,2.979,10.555,2.979c0.17,0,0.342-0.003,0.519-0.009
		c-1.337-1.967-2.059-4.277-2.059-6.671c0-6.59,5.362-11.951,11.953-11.951c3.542,0,6.81,1.545,9.062,4.211
		c0.592-1.929,0.892-3.921,0.892-5.944C45.625,11.136,36.489,2,25.26,2z"/>
</g>
</svg>
