<?xml version="1.0" encoding="utf-8"?>
<!-- Generator: Adobe Illustrator 16.0.0, SVG Export Plug-In . SVG Version: 6.00 Build 0)  -->
<!DOCTYPE svg PUBLIC "-//W3C//DTD SVG 1.1//EN" "http://www.w3.org/Graphics/SVG/1.1/DTD/svg11.dtd">
<svg version="1.1" id="Layer_1" xmlns="http://www.w3.org/2000/svg" xmlns:xlink="http://www.w3.org/1999/xlink" x="0px" y="0px"
	 width="48px" height="48px" viewBox="0 0 48 48" enable-background="new 0 0 48 48" xml:space="preserve">
<g>
	<g>
		<path d="M35.684,37.848c-0.553,0-1-0.447-1-1v-6.896c0-0.553,0.447-1,1-1s1,0.447,1,1v6.896
			C36.684,37.4,36.236,37.848,35.684,37.848z"/>
		<path d="M35.665,43.148c-0.553,0-1-0.447-1-1v-1.313c0-0.553,0.447-1,1-1s1,0.447,1,1v1.313
			C36.665,42.701,36.218,43.148,35.665,43.148z"/>
	</g>
	<path d="M35.675,48.001c-6.59,0-11.95-5.361-11.95-11.951s5.36-11.95,11.95-11.95s11.951,5.36,11.951,11.95
		S42.265,48.001,35.675,48.001z M35.675,26.1c-5.486,0-9.95,4.464-9.95,9.95c0,5.487,4.464,9.951,9.95,9.951
		c5.487,0,9.951-4.464,9.951-9.951C45.626,30.563,41.162,26.1,35.675,26.1z"/>
	<path d="M1.375,46.604c-0.268,0-0.53-0.107-0.722-0.309c-0.28-0.292-0.356-0.725-0.193-1.096l5.281-11.96
		c-1.863-3.329-2.845-7.077-2.845-10.873C2.896,10.033,12.927,0,25.258,0c12.334,0,22.368,10.033,22.368,22.366
		c0,2.902-0.562,5.748-1.669,8.456c-0.144,0.351-0.473,0.59-0.85,0.618c-0.375,0.023-0.74-0.158-0.934-0.483
		c-1.824-3.043-5.001-4.859-8.5-4.859c-5.486,0-9.949,4.465-9.949,9.952c0,2.536,0.977,4.964,2.75,6.835
		c0.261,0.274,0.344,0.674,0.214,1.029c-0.13,0.356-0.449,0.608-0.826,0.651c-0.984,0.112-1.812,0.165-2.604,0.165
		c-3.909,0-7.758-1.042-11.166-3.018L1.739,46.535C1.621,46.581,1.497,46.604,1.375,46.604z M25.258,2
		C14.03,2,4.896,11.136,4.896,22.366c0,3.61,0.977,7.174,2.825,10.306c0.164,0.277,0.184,0.617,0.054,0.912L3.269,43.791
		l10.551-4.119c0.292-0.113,0.618-0.083,0.884,0.078c3.198,1.95,6.848,2.98,10.554,2.98c0.173,0,0.348-0.003,0.526-0.009
		c-1.338-1.968-2.06-4.278-2.06-6.672c0-6.591,5.36-11.952,11.949-11.952c3.543,0,6.81,1.545,9.06,4.212
		c0.593-1.929,0.893-3.921,0.893-5.943C45.626,11.136,36.489,2,25.258,2z"/>
</g>
</svg>
