<?xml version="1.0" encoding="utf-8"?>
<!-- Generator: Adobe Illustrator 16.0.0, SVG Export Plug-In . SVG Version: 6.00 Build 0)  -->
<!DOCTYPE svg PUBLIC "-//W3C//DTD SVG 1.1//EN" "http://www.w3.org/Graphics/SVG/1.1/DTD/svg11.dtd">
<svg version="1.1" id="Layer_1" xmlns="http://www.w3.org/2000/svg" xmlns:xlink="http://www.w3.org/1999/xlink" x="0px" y="0px"
	 width="48px" height="48px" viewBox="0 0 48 48" enable-background="new 0 0 48 48" xml:space="preserve">
<g>
	<path d="M12.112,48c-0.252,0-0.499-0.096-0.687-0.273c-4.032-3.813-4.337-8.114-3.67-11.408H6.982C3.132,36.318,0,33.241,0,29.46
		V6.857C0,3.076,3.132,0,6.982,0h34.04C44.869,0,48,3.076,48.001,6.856V29.46c0,3.781-3.131,6.858-6.979,6.858H18.736
		c-3.602,4.379-5.648,10.909-5.669,10.977c-0.102,0.33-0.367,0.584-0.702,0.672C12.282,47.989,12.196,48,12.112,48z M6.982,2
		C4.235,2,2,4.179,2,6.857V29.46c0,2.679,2.235,4.858,4.982,4.858h2.05c0.315,0,0.612,0.148,0.801,0.4
		c0.188,0.253,0.248,0.579,0.159,0.882c-0.752,2.56-0.988,6.169,1.719,9.504c0.897-2.413,2.865-7.044,5.805-10.44
		c0.19-0.22,0.466-0.346,0.756-0.346h22.75c2.746,0,4.979-2.18,4.979-4.858V6.857C46,4.179,43.767,2,41.021,2H6.982z"/>
	<circle cx="16.208" cy="16.794" r="4.421"/>
	<circle cx="33.004" cy="16.794" r="4.42"/>
</g>
</svg>
