<?xml version="1.0" encoding="utf-8"?>
<!-- Generator: Adobe Illustrator 16.0.0, SVG Export Plug-In . SVG Version: 6.00 Build 0)  -->
<!DOCTYPE svg PUBLIC "-//W3C//DTD SVG 1.1//EN" "http://www.w3.org/Graphics/SVG/1.1/DTD/svg11.dtd">
<svg version="1.1" id="Layer_1" xmlns="http://www.w3.org/2000/svg" xmlns:xlink="http://www.w3.org/1999/xlink" x="0px" y="0px"
	 width="48px" height="48px" viewBox="0 0 48 48" enable-background="new 0 0 48 48" xml:space="preserve">
<g>
	<path d="M12.662,29.105c-0.262,0-0.519-0.103-0.71-0.296c-0.292-0.294-0.372-0.737-0.202-1.114l4.037-8.971
		c0.05-0.111,0.119-0.211,0.205-0.297L29.643,4.773C29.83,4.585,30.084,4.48,30.35,4.48l0,0c0.266,0,0.52,0.105,0.708,0.293
		l4.989,4.995c0.39,0.391,0.39,1.023-0.001,1.414L22.395,24.83c-0.087,0.088-0.19,0.158-0.303,0.208l-9.027,3.982
		C12.935,29.078,12.797,29.105,12.662,29.105z M17.535,19.712l-2.892,6.425l6.47-2.854l12.812-12.809l-3.575-3.58L17.535,19.712z"/>
	<path d="M12.111,48c-0.252,0-0.499-0.096-0.687-0.273c-4.028-3.81-4.334-8.112-3.67-11.408H6.983c-3.849,0-6.981-3.077-6.981-6.86
		V6.856C0.002,3.076,3.134,0,6.983,0h34.039c3.847,0,6.977,3.075,6.978,6.855v22.603c0,3.783-3.129,6.86-6.976,6.86H18.737
		c-3.608,4.385-5.65,10.909-5.671,10.977c-0.102,0.33-0.367,0.585-0.702,0.672C12.281,47.989,12.196,48,12.111,48z M6.983,2
		C4.236,2,2.002,4.178,2.002,6.856v22.602c0,2.68,2.234,4.86,4.981,4.86H9.03c0.315,0,0.611,0.148,0.8,0.4s0.248,0.578,0.16,0.88
		c-0.75,2.563-0.983,6.174,1.721,9.506c0.898-2.413,2.867-7.044,5.807-10.44c0.19-0.22,0.466-0.346,0.756-0.346h22.75
		c2.743,0,4.976-2.181,4.976-4.86V6.856C45.998,4.179,43.766,2,41.021,2H6.983z"/>
</g>
</svg>
