<?xml version="1.0" encoding="utf-8"?>
<!-- Generator: Adobe Illustrator 16.0.0, SVG Export Plug-In . SVG Version: 6.00 Build 0)  -->
<!DOCTYPE svg PUBLIC "-//W3C//DTD SVG 1.1//EN" "http://www.w3.org/Graphics/SVG/1.1/DTD/svg11.dtd">
<svg version="1.1" id="Layer_1" xmlns="http://www.w3.org/2000/svg" xmlns:xlink="http://www.w3.org/1999/xlink" x="0px" y="0px"
	 width="48px" height="48px" viewBox="0 0 48 48" enable-background="new 0 0 48 48" xml:space="preserve">
<g>
	<g>
		<path d="M15.134,18.604v-6.228h5.748v4.916c0,2.665-0.301,4.575-0.917,5.749c-0.86,1.611-2.186,2.823-3.998,3.639l-1.311-2.115
			c1.073-0.439,1.868-1.128,2.401-2.074c0.524-0.94,0.816-2.239,0.878-3.886H15.134z"/>
		<path d="M27.59,18.604v-6.228h5.751v4.916c0,2.665-0.307,4.575-0.923,5.749c-0.857,1.611-2.184,2.823-3.998,3.639l-1.305-2.115
			c1.066-0.439,1.867-1.128,2.396-2.074c0.529-0.94,0.821-2.239,0.879-3.886H27.59z"/>
	</g>
	<path d="M12.112,48c-0.252,0-0.499-0.096-0.687-0.273c-4.031-3.812-4.335-8.113-3.669-11.408H6.985
		c-3.851,0-6.983-3.077-6.983-6.858V6.857C0.002,3.076,3.134,0,6.985,0h34.039c3.845,0,6.975,3.076,6.976,6.856V29.46
		c0,3.781-3.129,6.858-6.976,6.858H18.736c-3.602,4.379-5.648,10.909-5.669,10.977c-0.102,0.33-0.367,0.584-0.702,0.672
		C12.282,47.989,12.196,48,12.112,48z M6.985,2C4.237,2,2.002,4.179,2.002,6.857V29.46c0,2.679,2.235,4.858,4.983,4.858h2.048
		c0.315,0,0.612,0.148,0.8,0.4c0.189,0.253,0.248,0.579,0.159,0.881c-0.751,2.562-0.988,6.172,1.718,9.505
		c0.897-2.413,2.865-7.044,5.805-10.44c0.19-0.22,0.466-0.346,0.756-0.346h22.751c2.743,0,4.976-2.18,4.976-4.858V6.857
		C45.998,4.179,43.767,2,41.023,2H6.985z"/>
</g>
</svg>
