<?xml version="1.0" encoding="utf-8"?>
<!-- Generator: Adobe Illustrator 16.0.0, SVG Export Plug-In . SVG Version: 6.00 Build 0)  -->
<!DOCTYPE svg PUBLIC "-//W3C//DTD SVG 1.1//EN" "http://www.w3.org/Graphics/SVG/1.1/DTD/svg11.dtd">
<svg version="1.1" id="Layer_1" xmlns="http://www.w3.org/2000/svg" xmlns:xlink="http://www.w3.org/1999/xlink" x="0px" y="0px"
	 width="48px" height="48px" viewBox="0 0 48 48" enable-background="new 0 0 48 48" xml:space="preserve">
<g>
	<path d="M8.658,48c-0.25,0-0.496-0.094-0.683-0.27c-2.232-2.086-3.165-4.779-2.696-7.691H5.122C2.298,40.039,0,37.799,0,35.046
		v-15.4c0-2.752,2.298-4.991,5.122-4.991h23.46c2.823,0,5.12,2.239,5.12,4.991v15.4c0,2.753-2.297,4.993-5.12,4.993H13.368
		c-2.386,2.93-3.741,7.214-3.755,7.259c-0.103,0.328-0.367,0.581-0.699,0.669C8.829,47.989,8.743,48,8.658,48z M5.122,16.655
		C3.4,16.655,2,17.997,2,19.646v15.4c0,1.65,1.4,2.993,3.122,2.993h1.411c0.315,0,0.613,0.149,0.801,0.401
		c0.189,0.253,0.247,0.58,0.157,0.883c-0.643,2.168-0.374,4.098,0.799,5.754c0.695-1.753,1.997-4.571,3.861-6.697
		c0.19-0.217,0.464-0.341,0.752-0.341h15.678c1.721,0,3.12-1.343,3.12-2.993v-15.4c0-1.649-1.399-2.991-3.12-2.991H5.122z"/>
	<path d="M39.343,33.34c-0.085,0-0.171-0.011-0.256-0.033c-0.332-0.088-0.596-0.341-0.699-0.669
		c-0.014-0.045-1.371-4.331-3.752-7.256h-1.933v-2H35.1c0.288,0,0.563,0.124,0.752,0.341c1.861,2.123,3.163,4.942,3.858,6.695
		c1.175-1.656,1.443-3.585,0.8-5.751c-0.091-0.303-0.032-0.63,0.156-0.883c0.188-0.253,0.486-0.402,0.802-0.402h1.413
		c1.72,0,3.119-1.343,3.119-2.994V4.99C46,3.341,44.601,2,42.881,2H19.42c-1.723,0-3.124,1.341-3.124,2.99v11.283h-2V4.99
		c0-2.751,2.299-4.99,5.124-4.99h23.461C45.703,0,48,2.239,48,4.99v15.398c0,2.753-2.297,4.994-5.119,4.994h-0.159
		c0.47,2.909-0.463,5.603-2.696,7.688C39.838,33.246,39.593,33.34,39.343,33.34z"/>
</g>
</svg>
