<?xml version="1.0" encoding="utf-8"?>
<!-- Generator: Adobe Illustrator 16.0.0, SVG Export Plug-In . SVG Version: 6.00 Build 0)  -->
<!DOCTYPE svg PUBLIC "-//W3C//DTD SVG 1.1//EN" "http://www.w3.org/Graphics/SVG/1.1/DTD/svg11.dtd">
<svg version="1.1" id="Layer_1" xmlns="http://www.w3.org/2000/svg" xmlns:xlink="http://www.w3.org/1999/xlink" x="0px" y="0px"
	 width="48px" height="48px" viewBox="0 0 48 48" enable-background="new 0 0 48 48" xml:space="preserve">
<g>
	<path d="M12.112,47.998c-0.242,0-0.479-0.088-0.664-0.252c-4.022-3.569-4.36-7.602-3.713-10.71H6.981
		C3.132,37.036,0,34.121,0,30.538v-3.946c0-3.584,3.132-6.5,6.981-6.5h25.658v2H6.981C4.234,22.092,2,24.11,2,26.592v3.946
		c0,2.48,2.234,4.498,4.981,4.498h2.046c0.318,0,0.617,0.151,0.806,0.407s0.244,0.587,0.149,0.891
		c-0.742,2.382-0.97,5.743,1.734,8.85c0.898-2.27,2.87-6.632,5.819-9.826c0.189-0.205,0.456-0.321,0.735-0.321h22.754
		c2.744,0,4.977-2.018,4.977-4.498v-3.946c0-2.481-2.232-4.5-4.977-4.5h-1.037v-2h1.037c3.847,0,6.977,2.916,6.977,6.5v3.946
		c0,3.583-3.13,6.498-6.977,6.498H18.714c-3.592,4.093-5.632,10.211-5.652,10.274c-0.105,0.319-0.365,0.565-0.689,0.652
		C12.286,47.986,12.199,47.998,12.112,47.998z"/>
	<path d="M35.891,27.896c-0.087,0-0.174-0.012-0.261-0.034c-0.324-0.088-0.583-0.333-0.688-0.652
		c-0.021-0.063-2.066-6.177-5.658-10.274H6.981c-1.844,0-3.584-0.667-4.902-1.879C0.738,13.824,0,12.184,0,10.439v-3.94
		c0-3.583,3.132-6.498,6.981-6.498h34.035C44.867,0.001,48,2.916,48,6.499v3.94c0,3.583-3.133,6.497-6.984,6.497h-0.754
		c0.649,3.11,0.315,7.142-3.708,10.708C36.369,27.809,36.132,27.896,35.891,27.896z M6.981,2.001C4.234,2.001,2,4.019,2,6.499v3.94
		c0,2.479,2.233,4.497,4.979,4.497h22.75c0.279,0,0.546,0.117,0.735,0.322c2.949,3.199,4.925,7.563,5.823,9.83
		c2.202-2.505,2.783-5.477,1.728-8.854c-0.096-0.304-0.04-0.634,0.148-0.891s0.487-0.408,0.806-0.408h2.047
		c2.748,0,4.984-2.018,4.984-4.497v-3.94c0-2.48-2.236-4.498-4.984-4.498H6.981z"/>
</g>
</svg>
