<?xml version="1.0" encoding="utf-8"?>
<!-- Generator: Adobe Illustrator 16.0.0, SVG Export Plug-In . SVG Version: 6.00 Build 0)  -->
<!DOCTYPE svg PUBLIC "-//W3C//DTD SVG 1.1//EN" "http://www.w3.org/Graphics/SVG/1.1/DTD/svg11.dtd">
<svg version="1.1" id="Layer_1" xmlns="http://www.w3.org/2000/svg" xmlns:xlink="http://www.w3.org/1999/xlink" x="0px" y="0px"
	 width="48px" height="48px" viewBox="0 0 48 48" enable-background="new 0 0 48 48" xml:space="preserve">
<g>
	<path d="M12.111,48c-0.252,0-0.499-0.096-0.687-0.273c-4.031-3.809-4.336-8.113-3.671-11.41H6.981c-3.849,0-6.98-3.075-6.98-6.854
		V6.854C0.001,3.075,3.132,0,6.981,0h34.041C44.868,0,47.999,3.075,48,6.854v22.608c0,3.779-3.13,6.854-6.977,6.854H18.736
		c-3.608,4.387-5.649,10.911-5.669,10.979c-0.102,0.33-0.367,0.584-0.701,0.672C12.281,47.989,12.196,48,12.111,48z M6.981,2
		c-2.746,0-4.98,2.178-4.98,4.854v22.608c0,2.677,2.234,4.854,4.98,4.854h2.048c0.315,0,0.611,0.148,0.8,0.4s0.248,0.578,0.16,0.881
		c-0.75,2.563-0.985,6.176,1.721,9.508c0.897-2.413,2.865-7.045,5.805-10.443c0.19-0.22,0.466-0.346,0.756-0.346h22.752
		c2.744,0,4.977-2.178,4.977-4.854V6.854C45.999,4.178,43.766,2,41.021,2H6.981z"/>
	<path d="M14.539,13.862c-3.557,0-5.666-2.272-5.697-2.306c-0.37-0.41-0.337-1.042,0.073-1.413c0.41-0.368,1.038-0.336,1.409,0.069
		c0.146,0.158,3.569,3.737,9.259-0.152c0.458-0.31,1.078-0.194,1.39,0.261c0.312,0.456,0.194,1.079-0.261,1.39
		C18.358,13.32,16.276,13.862,14.539,13.862z"/>
	<path d="M34.243,13.862c-3.558,0-5.667-2.272-5.697-2.306c-0.37-0.41-0.338-1.042,0.072-1.413c0.409-0.368,1.039-0.338,1.409,0.069
		c0.153,0.166,3.576,3.732,9.26-0.152c0.457-0.31,1.078-0.194,1.39,0.261c0.313,0.456,0.195,1.079-0.261,1.39
		C38.063,13.32,35.979,13.862,34.243,13.862z"/>
	<path d="M24.648,27.413c-5.813,0-9.234-3.681-9.285-3.737c-0.37-0.41-0.338-1.042,0.072-1.412c0.409-0.37,1.04-0.337,1.41,0.07
		c0.269,0.294,6.552,6.938,16.926-0.153c0.457-0.31,1.079-0.193,1.39,0.261c0.313,0.456,0.195,1.078-0.261,1.39
		C30.979,26.513,27.521,27.413,24.648,27.413z"/>
</g>
</svg>
