<?xml version="1.0" encoding="utf-8"?>
<!-- Generator: Adobe Illustrator 16.0.0, SVG Export Plug-In . SVG Version: 6.00 Build 0)  -->
<!DOCTYPE svg PUBLIC "-//W3C//DTD SVG 1.1//EN" "http://www.w3.org/Graphics/SVG/1.1/DTD/svg11.dtd">
<svg version="1.1" id="Layer_1" xmlns="http://www.w3.org/2000/svg" xmlns:xlink="http://www.w3.org/1999/xlink" x="0px" y="0px"
	 width="48px" height="48px" viewBox="0 0 48 48" enable-background="new 0 0 48 48" xml:space="preserve">
<g>
	<path d="M33.582,41.229c-0.271,0-0.53-0.109-0.719-0.305l-4.991-5.155c-0.384-0.396-0.374-1.029,0.023-1.414
		c0.397-0.382,1.03-0.374,1.414,0.023l4.261,4.401l7.479-7.97c0.378-0.403,1.01-0.422,1.414-0.045
		c0.402,0.378,0.423,1.011,0.045,1.414l-8.197,8.734c-0.188,0.199-0.448,0.313-0.722,0.315
		C33.587,41.229,33.585,41.229,33.582,41.229z"/>
	<g>
		<path d="M35.861,47.999c-6.689,0-12.131-5.443-12.131-12.134c0-6.692,5.441-12.137,12.131-12.137
			C42.555,23.729,48,29.173,48,35.865C48,42.556,42.555,47.999,35.861,47.999z M35.861,25.729c-5.586,0-10.131,4.547-10.131,10.137
			c0,5.588,4.545,10.134,10.131,10.134C41.452,45.999,46,41.453,46,35.865C46,30.275,41.452,25.729,35.861,25.729z"/>
		<path d="M12.108,47.998c-0.252,0-0.499-0.096-0.687-0.273c-4.028-3.809-4.334-8.113-3.672-11.41h-0.77
			C3.131,36.314,0,33.239,0,29.46V6.856c0-3.78,3.131-6.855,6.979-6.855h34.044C44.87,0.001,48,3.076,48,6.856v22.605
			c0,1.072-0.273,2.127-0.812,3.134c-0.187,0.349-0.565,0.558-0.955,0.525c-0.395-0.028-0.734-0.287-0.868-0.659
			c-1.446-4.028-5.266-6.734-9.504-6.734c-5.382,0-9.808,4.233-10.075,9.638c-0.026,0.532-0.466,0.95-0.999,0.95h-6.056
			c-3.61,4.387-5.647,10.911-5.668,10.979c-0.102,0.33-0.367,0.584-0.701,0.672C12.278,47.987,12.193,47.998,12.108,47.998z
			 M6.979,2.001C4.233,2.001,2,4.179,2,6.856V29.46c0,2.677,2.233,4.854,4.979,4.854h2.045c0.315,0,0.611,0.148,0.8,0.4
			c0.189,0.252,0.249,0.577,0.16,0.88c-0.748,2.563-0.98,6.176,1.723,9.507c0.897-2.413,2.863-7.044,5.804-10.441
			c0.19-0.22,0.466-0.346,0.756-0.346h5.605c0.765-6.01,5.859-10.588,11.989-10.588c4.134,0,7.934,2.145,10.139,5.541V6.856
			c0-2.677-2.232-4.855-4.977-4.855H6.979z"/>
	</g>
</g>
</svg>
