<?xml version="1.0" encoding="utf-8"?>
<!-- Generator: Adobe Illustrator 16.0.0, SVG Export Plug-In . SVG Version: 6.00 Build 0)  -->
<!DOCTYPE svg PUBLIC "-//W3C//DTD SVG 1.1//EN" "http://www.w3.org/Graphics/SVG/1.1/DTD/svg11.dtd">
<svg version="1.1" id="Layer_1" xmlns="http://www.w3.org/2000/svg" xmlns:xlink="http://www.w3.org/1999/xlink" x="0px" y="0px"
	 width="48px" height="48px" viewBox="0 0 48 48" enable-background="new 0 0 48 48" xml:space="preserve">
<g>
	<path d="M29.522,45.986c-0.197,0-0.396-0.058-0.57-0.179c-0.453-0.315-0.565-0.938-0.25-1.393l12.687-18.247
		c0.315-0.454,0.937-0.566,1.393-0.25c0.453,0.315,0.565,0.938,0.25,1.393L30.345,45.558C30.15,45.837,29.839,45.986,29.522,45.986z
		"/>
	<g>
		<path d="M35.871,47.999c-6.692,0-12.137-5.443-12.137-12.135s5.444-12.136,12.137-12.136C42.559,23.729,48,29.173,48,35.864
			S42.559,47.999,35.871,47.999z M35.871,25.729c-5.59,0-10.137,4.547-10.137,10.136c0,5.588,4.547,10.135,10.137,10.135
			C41.456,45.999,46,41.452,46,35.864C46,30.275,41.456,25.729,35.871,25.729z"/>
		<path d="M12.112,47.998c-0.252,0-0.499-0.096-0.687-0.273c-4.034-3.812-4.337-8.114-3.67-11.41H6.981
			C3.132,36.314,0,33.239,0,29.46V6.856c0-3.78,3.132-6.855,6.981-6.855h34.041C44.869,0.001,48,3.076,48,6.856v22.605
			c0,1.075-0.271,2.129-0.805,3.132c-0.186,0.35-0.542,0.566-0.955,0.527c-0.395-0.028-0.735-0.287-0.869-0.659
			c-1.446-4.028-5.264-6.734-9.499-6.734c-5.384,0-9.812,4.233-10.081,9.638c-0.026,0.532-0.466,0.95-0.999,0.95H18.74
			c-3.603,4.38-5.652,10.912-5.672,10.979c-0.103,0.329-0.368,0.583-0.702,0.671C12.282,47.987,12.196,47.998,12.112,47.998z
			 M6.981,2.001C4.234,2.001,2,4.179,2,6.856V29.46c0,2.677,2.234,4.854,4.981,4.854h2.051c0.315,0,0.612,0.148,0.801,0.4
			c0.188,0.253,0.248,0.579,0.159,0.882c-0.753,2.562-0.99,6.174,1.719,9.507c0.898-2.412,2.867-7.045,5.808-10.443
			c0.19-0.22,0.466-0.346,0.756-0.346h5.603c0.767-6.009,5.864-10.588,11.995-10.588c4.128,0,7.923,2.141,10.128,5.531V6.856
			c0-2.677-2.233-4.855-4.979-4.855H6.981z"/>
	</g>
</g>
</svg>
