<?xml version="1.0" encoding="utf-8"?>
<!-- Generator: Adobe Illustrator 16.0.0, SVG Export Plug-In . SVG Version: 6.00 Build 0)  -->
<!DOCTYPE svg PUBLIC "-//W3C//DTD SVG 1.1//EN" "http://www.w3.org/Graphics/SVG/1.1/DTD/svg11.dtd">
<svg version="1.1" id="Layer_1" xmlns="http://www.w3.org/2000/svg" xmlns:xlink="http://www.w3.org/1999/xlink" x="0px" y="0px"
	 width="48px" height="48px" viewBox="0 0 48 48" enable-background="new 0 0 48 48" xml:space="preserve">
<g>
	<g>
		<path d="M35.859,40.801c-0.553,0-1-0.447-1-1v-9.746c0-0.553,0.447-1,1-1s1,0.447,1,1v9.746
			C36.859,40.354,36.412,40.801,35.859,40.801z"/>
		<path d="M36.128,42.666c-0.235,0-0.471-0.082-0.66-0.249l-5.536-4.866c-0.415-0.364-0.455-0.996-0.091-1.411
			c0.363-0.414,0.997-0.455,1.411-0.091l4.832,4.247l4.342-4.335c0.391-0.389,1.024-0.39,1.415,0.001
			c0.39,0.392,0.39,1.024-0.001,1.415l-5.005,4.997C36.64,42.568,36.384,42.666,36.128,42.666z"/>
	</g>
	<g>
		<path d="M35.863,47.999c-6.689,0-12.131-5.441-12.131-12.13c0-6.693,5.441-12.139,12.131-12.139C42.556,23.73,48,29.176,48,35.869
			C48,42.558,42.556,47.999,35.863,47.999z M35.863,25.73c-5.586,0-10.131,4.548-10.131,10.139c0,5.586,4.545,10.13,10.131,10.13
			c5.59,0,10.137-4.544,10.137-10.13C46,30.278,41.453,25.73,35.863,25.73z"/>
		<path d="M12.111,47.999c-0.252,0-0.499-0.096-0.687-0.273c-4.03-3.81-4.335-8.112-3.671-11.407H6.981
			C3.132,36.318,0,33.242,0,29.462V6.858c0-3.781,3.132-6.857,6.981-6.857H41.02c3.849,0,6.98,3.076,6.98,6.857v22.604
			c0,1.067-0.271,2.121-0.808,3.133c-0.185,0.351-0.563,0.564-0.955,0.529c-0.396-0.028-0.736-0.287-0.87-0.66
			c-1.443-4.027-5.262-6.733-9.502-6.733c-5.382,0-9.809,4.233-10.078,9.638c-0.026,0.532-0.466,0.95-0.999,0.95h-6.054
			c-3.607,4.383-5.647,10.908-5.668,10.976c-0.102,0.33-0.367,0.584-0.701,0.672C12.281,47.988,12.196,47.999,12.111,47.999z
			 M6.981,2.001C4.234,2.001,2,4.18,2,6.858v22.604c0,2.678,2.234,4.856,4.981,4.856H9.03c0.315,0,0.611,0.148,0.8,0.4
			s0.248,0.578,0.159,0.881c-0.75,2.562-0.984,6.173,1.721,9.504c0.897-2.413,2.865-7.045,5.804-10.439
			c0.19-0.22,0.466-0.346,0.756-0.346h5.604C24.64,28.31,29.735,23.73,35.865,23.73c4.134,0,7.932,2.143,10.135,5.536V6.858
			c0-2.678-2.234-4.857-4.98-4.857H6.981z"/>
	</g>
</g>
</svg>
