<?xml version="1.0" encoding="utf-8"?>
<!-- Generator: Adobe Illustrator 16.0.0, SVG Export Plug-In . SVG Version: 6.00 Build 0)  -->
<!DOCTYPE svg PUBLIC "-//W3C//DTD SVG 1.1//EN" "http://www.w3.org/Graphics/SVG/1.1/DTD/svg11.dtd">
<svg version="1.1" id="Layer_1" xmlns="http://www.w3.org/2000/svg" xmlns:xlink="http://www.w3.org/1999/xlink" x="0px" y="0px"
	 width="48px" height="48px" viewBox="0 0 48 48" enable-background="new 0 0 48 48" xml:space="preserve">
<g>
	<g>
		<path d="M35.697,47.072c-5.266,0-9.549-4.282-9.549-9.545c0-5.266,4.283-9.549,9.549-9.549c5.264,0,9.546,4.283,9.546,9.549
			C45.243,42.79,40.961,47.072,35.697,47.072z M35.697,29.979c-4.162,0-7.549,3.387-7.549,7.549c0,4.16,3.387,7.545,7.549,7.545
			c4.161,0,7.546-3.385,7.546-7.545C43.243,33.365,39.858,29.979,35.697,29.979z"/>
		<path d="M41.059,30.697c-0.553,0-1-0.447-1-1v-3.313c0-2.615-1.956-4.742-4.361-4.742c-2.404,0-4.36,2.127-4.36,4.742v3.313
			c0,0.553-0.447,1-1,1s-1-0.447-1-1v-3.313c0-3.717,2.854-6.742,6.36-6.742c3.508,0,6.361,3.024,6.361,6.742v3.313
			C42.059,30.25,41.611,30.697,41.059,30.697z"/>
		<path d="M37.684,36.501c0-1.099-0.887-1.983-1.985-1.983c-1.097,0-1.982,0.887-1.982,1.983c0,0.903,0.616,1.638,1.441,1.875v3.606
			h1.083v-3.606C37.064,38.139,37.684,37.404,37.684,36.501z"/>
	</g>
	<path d="M12.111,47.999c-0.252,0-0.499-0.096-0.687-0.273c-4.032-3.809-4.338-8.111-3.675-11.407H6.979
		C3.131,36.318,0,33.242,0,29.462V6.859c0-3.781,3.131-6.858,6.979-6.858H41.02c3.849,0,6.98,3.077,6.98,6.858v22.603h-2V6.859
		c0-2.679-2.234-4.858-4.98-4.858H6.979C4.233,2.001,2,4.18,2,6.859v22.603c0,2.678,2.233,4.856,4.979,4.856h2.047
		c0.315,0,0.611,0.148,0.8,0.4s0.248,0.578,0.16,0.881c-0.75,2.562-0.983,6.173,1.723,9.504c0.896-2.413,2.862-7.044,5.8-10.439
		c0.19-0.22,0.466-0.346,0.756-0.346h4.436v2H18.73c-3.599,4.376-5.643,10.908-5.664,10.976c-0.102,0.33-0.367,0.584-0.701,0.672
		C12.281,47.988,12.196,47.999,12.111,47.999z"/>
</g>
</svg>
