<?xml version="1.0" encoding="utf-8"?>
<!-- Generator: Adobe Illustrator 16.0.0, SVG Export Plug-In . SVG Version: 6.00 Build 0)  -->
<!DOCTYPE svg PUBLIC "-//W3C//DTD SVG 1.1//EN" "http://www.w3.org/Graphics/SVG/1.1/DTD/svg11.dtd">
<svg version="1.1" id="Layer_1" xmlns="http://www.w3.org/2000/svg" xmlns:xlink="http://www.w3.org/1999/xlink" x="0px" y="0px"
	 width="48px" height="48px" viewBox="0 0 48 48" enable-background="new 0 0 48 48" xml:space="preserve">
<g>
	<path d="M8.743,45.025c-0.104,0-0.208-0.016-0.31-0.05c-0.412-0.134-0.69-0.518-0.69-0.95v-13.07C3.208,29.888,0,25.908,0,21.188
		c0-5.561,4.524-10.086,10.085-10.087c1.131,0,2.25,0.202,3.343,0.601c1.111-5.061,5.554-8.729,10.832-8.729
		c4.526,0,8.529,2.723,10.249,6.87c0.89-0.233,1.748-0.348,2.604-0.348C43.116,9.495,48,14.379,48,20.383
		c0,5.611-4.167,10.199-9.739,10.781c-0.111,0.047-0.232,0.072-0.358,0.072h-0.441c-0.264,0.051-0.473,0.039-0.689,0.007
		l-17.449-0.007L9.551,44.615C9.359,44.878,9.056,45.025,8.743,45.025z M10.085,13.101C5.627,13.102,2,16.729,2,21.188
		c0,4.012,2.898,7.357,6.891,7.953c0.49,0.073,0.852,0.494,0.852,0.989v10.831l8.264-11.314c0.188-0.258,0.488-0.41,0.808-0.41
		h17.949c0.131,0.005,0.219,0.016,0.307,0.029c0.163-0.013,0.255-0.024,0.351-0.028l0.196-0.001c0.066-0.021,0.135-0.034,0.205-0.04
		C42.484,28.824,46,25.035,46,20.383c0-4.901-3.986-8.888-8.887-8.888c-0.928,0-1.873,0.172-2.891,0.525
		c-0.255,0.088-0.535,0.07-0.776-0.051s-0.424-0.334-0.505-0.592c-1.213-3.831-4.701-6.404-8.682-6.404
		c-4.698,0-8.59,3.551-9.053,8.26c-0.032,0.33-0.226,0.622-0.517,0.78c-0.292,0.158-0.641,0.163-0.936,0.011
		C12.562,13.412,11.328,13.101,10.085,13.101z"/>
</g>
</svg>
