<?xml version="1.0" encoding="utf-8"?>
<!-- Generator: Adobe Illustrator 16.0.0, SVG Export Plug-In . SVG Version: 6.00 Build 0)  -->
<!DOCTYPE svg PUBLIC "-//W3C//DTD SVG 1.1//EN" "http://www.w3.org/Graphics/SVG/1.1/DTD/svg11.dtd">
<svg version="1.1" id="Layer_1" xmlns="http://www.w3.org/2000/svg" xmlns:xlink="http://www.w3.org/1999/xlink" x="0px" y="0px"
	 width="48px" height="48px" viewBox="0 0 48 48" enable-background="new 0 0 48 48" xml:space="preserve">
<g>
	<path d="M37.109,32.602c-0.108,0-0.215-0.012-0.319-0.027l-26.36-0.006c-0.257,0.043-0.457,0.037-0.665,0.006l-0.979-0.006
		c-0.212,0-0.41-0.066-0.572-0.18C3.502,31.498,0,27.331,0,22.523c0-5.563,4.524-10.09,10.084-10.09
		c1.125,0,2.245,0.202,3.342,0.601c1.107-5.059,5.551-8.726,10.832-8.726c4.523,0,8.525,2.72,10.246,6.864
		c0.887-0.233,1.745-0.347,2.604-0.347C43.113,10.825,48,15.709,48,21.712c0,5.515-4.253,10.194-9.734,10.779
		c-0.114,0.05-0.238,0.077-0.369,0.077h-0.438C37.317,32.59,37.214,32.602,37.109,32.602z M10.43,30.568h26.332
		c0.104,0,0.209,0.012,0.313,0.026l0.026,0.006c0.146-0.021,0.249-0.032,0.356-0.032h0.144c0.069-0.022,0.141-0.038,0.216-0.044
		C42.405,30.159,46,26.288,46,21.712c0-4.9-3.989-8.887-8.893-8.887c-0.931,0-1.876,0.171-2.888,0.524
		c-0.256,0.089-0.534,0.071-0.777-0.05c-0.241-0.121-0.423-0.334-0.505-0.592c-1.214-3.827-4.702-6.399-8.68-6.399
		c-4.701,0-8.592,3.548-9.052,8.254c-0.032,0.329-0.225,0.621-0.515,0.78c-0.29,0.159-0.64,0.165-0.934,0.014
		c-3.31-1.685-6.99-0.953-9.389,1.446C2.841,18.33,2,20.362,2,22.523c0,3.966,2.979,7.387,6.929,7.958
		c0.102,0.015,0.199,0.044,0.288,0.087h0.522c0.105,0,0.209,0.012,0.313,0.026C10.219,30.58,10.323,30.568,10.43,30.568z"/>
	<path d="M6.281,43.691c-0.157,0-0.317-0.037-0.466-0.115c-0.488-0.258-0.675-0.863-0.417-1.352l3.959-7.504
		c0.258-0.489,0.861-0.675,1.351-0.418c0.488,0.258,0.675,0.863,0.417,1.352l-3.959,7.504C6.987,43.498,6.641,43.691,6.281,43.691z"
		/>
	<path d="M18.275,43.691c-0.157,0-0.317-0.037-0.465-0.115c-0.489-0.258-0.676-0.863-0.418-1.352l3.958-7.504
		c0.256-0.489,0.863-0.675,1.351-0.418c0.489,0.258,0.676,0.863,0.418,1.352l-3.958,7.504
		C18.981,43.498,18.634,43.691,18.275,43.691z"/>
	<path d="M30.269,43.691c-0.157,0-0.316-0.037-0.466-0.115c-0.488-0.258-0.676-0.863-0.418-1.352l3.959-7.504
		c0.258-0.489,0.861-0.675,1.352-0.418c0.488,0.258,0.676,0.863,0.418,1.352l-3.959,7.504
		C30.975,43.498,30.628,43.691,30.269,43.691z"/>
</g>
</svg>
