<?xml version="1.0" encoding="utf-8"?>
<!-- Generator: Adobe Illustrator 16.0.0, SVG Export Plug-In . SVG Version: 6.00 Build 0)  -->
<!DOCTYPE svg PUBLIC "-//W3C//DTD SVG 1.1//EN" "http://www.w3.org/Graphics/SVG/1.1/DTD/svg11.dtd">
<svg version="1.1" id="Layer_1" xmlns="http://www.w3.org/2000/svg" xmlns:xlink="http://www.w3.org/1999/xlink" x="0px" y="0px"
	 width="48px" height="48px" viewBox="0 0 48 48" enable-background="new 0 0 48 48" xml:space="preserve">
<g>
	<path d="M24.002,14.883c-9.709,0-20.029-2.608-20.029-7.441C3.973,2.608,14.292,0,24.002,0c9.708,0,20.025,2.608,20.025,7.442
		C44.027,12.275,33.71,14.883,24.002,14.883z M24.002,2C12.832,2,5.973,5.169,5.973,7.442c0,2.272,6.859,5.441,18.029,5.441
		c11.168,0,18.025-3.169,18.025-5.441C42.027,5.169,35.17,2,24.002,2z"/>
	<path d="M24.002,25.922c-9.709,0-20.029-2.607-20.029-7.439c0-0.552,0.448-1,1-1s1,0.448,1,1c0,2.271,6.859,5.439,18.029,5.439
		c11.168,0,18.025-3.168,18.025-5.439c0-0.552,0.447-1,1-1s1,0.448,1,1C44.027,23.315,33.71,25.922,24.002,25.922z"/>
	<path d="M24.002,36.961c-9.709,0-20.029-2.608-20.029-7.441c0-0.553,0.448-1,1-1s1,0.447,1,1c0,2.272,6.859,5.441,18.029,5.441
		c11.168,0,18.025-3.169,18.025-5.441c0-0.553,0.447-1,1-1s1,0.447,1,1C44.027,34.353,33.71,36.961,24.002,36.961z"/>
	<path d="M24.002,48c-9.709,0-20.029-2.609-20.029-7.445V7.442c0-0.552,0.448-1,1-1s1,0.448,1,1c0,2.272,6.859,5.441,18.029,5.441
		c11.168,0,18.025-3.169,18.025-5.441c0-0.552,0.447-1,1-1s1,0.448,1,1v33.113C44.027,45.391,33.71,48,24.002,48z M5.973,10.831
		v29.724c0,2.273,6.859,5.445,18.029,5.445c11.168,0,18.025-3.172,18.025-5.445V10.831c-3.468,2.651-10.91,4.052-18.025,4.052
		C16.886,14.883,9.442,13.482,5.973,10.831z"/>
</g>
</svg>
