<?xml version="1.0" encoding="utf-8"?>
<!-- Generator: Adobe Illustrator 16.0.0, SVG Export Plug-In . SVG Version: 6.00 Build 0)  -->
<!DOCTYPE svg PUBLIC "-//W3C//DTD SVG 1.1//EN" "http://www.w3.org/Graphics/SVG/1.1/DTD/svg11.dtd">
<svg version="1.1" id="Layer_1" xmlns="http://www.w3.org/2000/svg" xmlns:xlink="http://www.w3.org/1999/xlink" x="0px" y="0px"
	 width="48px" height="48px" viewBox="0 0 48 48" enable-background="new 0 0 48 48" xml:space="preserve">
<g>
	<path d="M35.68,48C29,48,23.566,42.565,23.566,35.886c0-6.679,5.434-12.112,12.113-12.112c6.678,0,12.111,5.434,12.111,12.112
		C47.791,42.565,42.357,48,35.68,48z M35.68,25.773c-5.576,0-10.113,4.536-10.113,10.112C25.566,41.463,30.104,46,35.68,46
		c5.575,0,10.111-4.537,10.111-10.114C45.791,30.31,41.255,25.773,35.68,25.773z"/>
	<g>
		<path d="M20.192,14.857c-9.687,0-19.983-2.604-19.983-7.429c0-2.212,2.157-4.112,6.241-5.494C10.135,0.687,15.016,0,20.192,0
			c9.691,0,19.99,2.604,19.99,7.428C40.182,12.253,29.883,14.857,20.192,14.857z M20.192,2c-4.964,0-9.617,0.649-13.101,1.829
			C4.079,4.848,2.208,6.227,2.209,7.428c0,2.268,6.841,5.429,17.983,5.429c11.146,0,17.99-3.162,17.99-5.429
			C38.182,5.162,31.338,2,20.192,2z"/>
		<path d="M20.192,25.871c-9.687,0-19.983-2.602-19.983-7.424c0-0.552,0.448-1,1-1s1,0.448,1,1c0,2.265,6.841,5.424,17.983,5.424
			c11.146,0,17.99-3.159,17.99-5.424c0-0.552,0.447-1,1-1s1,0.448,1,1C40.182,23.269,29.883,25.871,20.192,25.871z"/>
		<path d="M20.192,36.886c-9.687,0-19.983-2.604-19.983-7.429c0-0.553,0.448-1,1-1s1,0.447,1,1c0,2.267,6.841,5.429,17.983,5.429
			c1.352,0,2.677-0.047,3.939-0.138c0.545-0.042,1.029,0.374,1.069,0.925s-0.374,1.029-0.925,1.069
			C22.965,36.838,21.592,36.886,20.192,36.886z"/>
		<path d="M20.192,47.904c-9.687,0-19.983-2.604-19.983-7.43V7.428c0-0.552,0.448-1,1-1s1,0.448,1,1
			c0,2.267,6.841,5.429,17.983,5.429c11.146,0,17.99-3.162,17.99-5.429c0-0.552,0.447-1,1-1s1,0.448,1,1v17.914c0,0.553-0.447,1-1,1
			s-1-0.447-1-1V10.814c-3.464,2.645-10.89,4.042-17.99,4.042c-7.097,0-14.521-1.397-17.983-4.042v29.66
			c0,2.268,6.841,5.43,17.983,5.43c3.692,0,7.253-0.363,10.3-1.05c0.537-0.119,1.074,0.217,1.195,0.756s-0.217,1.074-0.756,1.195
			C27.743,47.524,24.03,47.904,20.192,47.904z"/>
	</g>
</g>
</svg>
