<?xml version="1.0" encoding="utf-8"?>
<!-- Generator: Adobe Illustrator 16.0.0, SVG Export Plug-In . SVG Version: 6.00 Build 0)  -->
<!DOCTYPE svg PUBLIC "-//W3C//DTD SVG 1.1//EN" "http://www.w3.org/Graphics/SVG/1.1/DTD/svg11.dtd">
<svg version="1.1" id="Layer_1" xmlns="http://www.w3.org/2000/svg" xmlns:xlink="http://www.w3.org/1999/xlink" x="0px" y="0px"
	 width="48px" height="48px" viewBox="0 0 48 48" enable-background="new 0 0 48 48" xml:space="preserve">
<g>
	<path d="M40.654,36.887h-9.961c-0.553,0-1-0.447-1-1s0.447-1,1-1h9.961c0.553,0,1,0.447,1,1S41.207,36.887,40.654,36.887z"/>
	<g>
		<path d="M35.68,48C29,48,23.566,42.566,23.566,35.887S29,23.773,35.68,23.773c6.679,0,12.112,5.434,12.112,12.113
			S42.358,48,35.68,48z M35.68,25.773c-5.576,0-10.113,4.537-10.113,10.113S30.104,46,35.68,46s10.112-4.537,10.112-10.113
			S41.256,25.773,35.68,25.773z"/>
		<g>
			<path d="M20.191,14.856c-9.687,0-19.983-2.603-19.983-7.428S10.504,0,20.191,0c9.691,0,19.991,2.604,19.991,7.428
				S29.882,14.856,20.191,14.856z M20.191,2C9.049,2,2.208,5.162,2.208,7.428s6.841,5.428,17.983,5.428
				c11.146,0,17.991-3.161,17.991-5.428S31.337,2,20.191,2z"/>
			<path d="M20.191,25.868c-9.687,0-19.983-2.604-19.983-7.428c0-0.552,0.448-1,1-1s1,0.448,1,1c0,2.267,6.841,5.428,17.983,5.428
				c11.146,0,17.991-3.162,17.991-5.428c0-0.552,0.447-1,1-1s1,0.448,1,1C40.182,23.265,29.882,25.868,20.191,25.868z"/>
			<path d="M20.191,36.887c-9.687,0-19.983-2.604-19.983-7.433c0-0.553,0.448-1,1-1s1,0.447,1,1c0,2.269,6.841,5.433,17.983,5.433
				c1.359,0,2.685-0.047,3.94-0.138c0.555-0.043,1.03,0.374,1.07,0.925s-0.374,1.029-0.924,1.069
				C22.973,36.839,21.598,36.887,20.191,36.887z"/>
			<path d="M20.191,47.904c-9.687,0-19.983-2.604-19.983-7.432V7.428c0-0.552,0.448-1,1-1s1,0.448,1,1
				c0,2.267,6.841,5.428,17.983,5.428c11.146,0,17.991-3.161,17.991-5.428c0-0.552,0.447-1,1-1s1,0.448,1,1v17.913
				c0,0.553-0.447,1-1,1s-1-0.447-1-1V10.814c-3.464,2.645-10.891,4.042-17.991,4.042c-7.097,0-14.521-1.397-17.983-4.042v29.658
				c0,2.269,6.841,5.432,17.983,5.432c3.675,0,7.237-0.363,10.3-1.051c0.538-0.12,1.073,0.218,1.194,0.757s-0.218,1.073-0.757,1.194
				C27.725,47.524,24.011,47.904,20.191,47.904z"/>
		</g>
	</g>
</g>
</svg>
