<?xml version="1.0" encoding="utf-8"?>
<!-- Generator: Adobe Illustrator 16.0.0, SVG Export Plug-In . SVG Version: 6.00 Build 0)  -->
<!DOCTYPE svg PUBLIC "-//W3C//DTD SVG 1.1//EN" "http://www.w3.org/Graphics/SVG/1.1/DTD/svg11.dtd">
<svg version="1.1" id="Layer_1" xmlns="http://www.w3.org/2000/svg" xmlns:xlink="http://www.w3.org/1999/xlink" x="0px" y="0px"
	 width="48px" height="48px" viewBox="0 0 48 48" enable-background="new 0 0 48 48" xml:space="preserve">
<g>
	<g>
		<path d="M40.662,36.889h-9.963c-0.553,0-1-0.447-1-1s0.447-1,1-1h9.963c0.553,0,1,0.447,1,1S41.215,36.889,40.662,36.889z"/>
		<path d="M35.676,41.868c-0.553,0-1-0.447-1-1v-9.96c0-0.553,0.447-1,1-1s1,0.447,1,1v9.96
			C36.676,41.421,36.229,41.868,35.676,41.868z"/>
	</g>
	<g>
		<path d="M35.682,48c-6.677,0-12.109-5.434-12.109-12.111c0-6.68,5.433-12.113,12.109-12.113c6.678,0,12.108,5.434,12.108,12.113
			C47.79,42.566,42.358,48,35.682,48z M35.686,25.775c-5.578,0-10.113,4.537-10.113,10.113C25.572,41.464,30.107,46,35.682,46
			S45.79,41.464,45.79,35.889C45.79,30.313,41.257,25.775,35.686,25.775z"/>
		<g>
			<path d="M20.197,14.857c-9.689,0-19.987-2.603-19.987-7.428c0-2.213,2.157-4.114,6.24-5.496C10.135,0.687,15.017,0,20.197,0
				c9.688,0,19.985,2.604,19.985,7.429C40.182,12.254,29.885,14.857,20.197,14.857z M20.197,2c-4.967,0-9.622,0.649-13.105,1.828
				C4.08,4.847,2.209,6.227,2.21,7.429c0,2.267,6.843,5.428,17.987,5.428c11.143,0,17.985-3.161,17.985-5.428
				C38.182,5.162,31.34,2,20.197,2z"/>
			<path d="M20.197,25.869c-9.689,0-19.987-2.604-19.987-7.428c0-0.552,0.448-1,1-1s1,0.448,1,1c0,2.267,6.843,5.428,17.987,5.428
				c11.143,0,17.985-3.162,17.985-5.428c0-0.552,0.447-1,1-1s1,0.448,1,1C40.182,23.266,29.885,25.869,20.197,25.869z"/>
			<path d="M20.197,36.889c-9.689,0-19.987-2.605-19.987-7.434c0-0.553,0.448-1,1-1s1,0.447,1,1c0,2.269,6.843,5.434,17.987,5.434
				c1.381,0,2.705-0.047,3.932-0.14c0.554-0.035,1.03,0.371,1.072,0.922s-0.371,1.03-0.922,1.072
				C23.002,36.84,21.628,36.889,20.197,36.889z"/>
			<path d="M20.197,47.906c-9.689,0-19.987-2.604-19.987-7.432V7.429c0-0.552,0.448-1,1-1s1,0.448,1,1
				c0,2.267,6.843,5.428,17.987,5.428c11.143,0,17.985-3.161,17.985-5.428c0-0.552,0.447-1,1-1s1,0.448,1,1v17.914
				c0,0.553-0.447,1-1,1s-1-0.447-1-1V10.815c-3.463,2.644-10.888,4.042-17.985,4.042c-7.098,0-14.523-1.397-17.987-4.042v29.659
				c0,2.269,6.843,5.432,17.987,5.432c3.671,0,7.232-0.363,10.296-1.051c0.539-0.122,1.073,0.218,1.194,0.757
				s-0.218,1.073-0.757,1.194C27.725,47.526,24.013,47.906,20.197,47.906z"/>
		</g>
	</g>
</g>
</svg>
