<?xml version="1.0" encoding="utf-8"?>
<!-- Generator: Adobe Illustrator 16.0.0, SVG Export Plug-In . SVG Version: 6.00 Build 0)  -->
<!DOCTYPE svg PUBLIC "-//W3C//DTD SVG 1.1//EN" "http://www.w3.org/Graphics/SVG/1.1/DTD/svg11.dtd">
<svg version="1.1" id="Layer_1" xmlns="http://www.w3.org/2000/svg" xmlns:xlink="http://www.w3.org/1999/xlink" x="0px" y="0px"
	 width="48px" height="48px" viewBox="0 0 48 48" enable-background="new 0 0 48 48" xml:space="preserve">
<g>
	<path d="M34.079,41.247c-0.271,0-0.53-0.109-0.719-0.305l-4.981-5.147c-0.384-0.396-0.374-1.03,0.023-1.414
		c0.397-0.383,1.03-0.374,1.414,0.023l4.252,4.394l7.471-7.95c0.378-0.403,1.012-0.422,1.413-0.044
		c0.402,0.378,0.423,1.011,0.044,1.413l-8.188,8.715c-0.187,0.199-0.447,0.313-0.721,0.315
		C34.084,41.247,34.081,41.247,34.079,41.247z"/>
	<g>
		<path d="M35.68,48c-6.677,0-12.109-5.434-12.109-12.111c0-6.681,5.433-12.115,12.109-12.115c6.68,0,12.114,5.435,12.114,12.115
			C47.794,42.566,42.359,48,35.68,48z M35.68,25.773c-5.574,0-10.109,4.538-10.109,10.115C25.57,41.464,30.105,46,35.68,46
			c5.577,0,10.114-4.536,10.114-10.111C45.794,30.312,41.257,25.773,35.68,25.773z"/>
		<g>
			<path d="M20.2,14.855c-9.692,0-19.993-2.604-19.993-7.428C0.207,2.603,10.508,0,20.2,0c9.688,0,19.983,2.603,19.983,7.427
				C40.184,12.251,29.888,14.855,20.2,14.855z M20.2,2C9.052,2,2.207,5.161,2.207,7.427c0,2.267,6.845,5.428,17.993,5.428
				c11.142,0,17.983-3.162,17.983-5.428C38.184,5.161,31.342,2,20.2,2z"/>
			<path d="M20.2,25.868c-9.692,0-19.993-2.603-19.993-7.427c0-0.552,0.448-1,1-1s1,0.448,1,1c0,2.266,6.845,5.427,17.993,5.427
				c11.142,0,17.983-3.161,17.983-5.427c0-0.552,0.447-1,1-1s1,0.448,1,1C40.184,23.265,29.888,25.868,20.2,25.868z"/>
			<path d="M20.2,36.889c-9.692,0-19.993-2.605-19.993-7.435c0-0.553,0.448-1,1-1s1,0.447,1,1c0,2.27,6.845,5.435,17.993,5.435
				c1.355,0,2.677-0.047,3.93-0.14c0.537-0.044,1.03,0.372,1.071,0.923s-0.372,1.03-0.923,1.071
				C22.976,36.84,21.604,36.889,20.2,36.889z"/>
			<path d="M20.2,47.904c-9.692,0-19.993-2.604-19.993-7.432V7.427c0-0.552,0.448-1,1-1s1,0.448,1,1
				c0,2.267,6.845,5.428,17.993,5.428c11.142,0,17.983-3.162,17.983-5.428c0-0.552,0.447-1,1-1s1,0.448,1,1v17.915
				c0,0.553-0.447,1-1,1s-1-0.447-1-1V10.813c-3.463,2.644-10.887,4.042-17.983,4.042c-7.101,0-14.529-1.397-17.993-4.042v29.66
				c0,2.269,6.845,5.432,17.993,5.432c3.67,0,7.229-0.363,10.295-1.052c0.534-0.122,1.073,0.217,1.194,0.757
				c0.121,0.538-0.218,1.073-0.757,1.194C27.727,47.523,24.015,47.904,20.2,47.904z"/>
		</g>
	</g>
</g>
</svg>
