<?xml version="1.0" encoding="utf-8"?>
<!-- Generator: Adobe Illustrator 16.0.0, SVG Export Plug-In . SVG Version: 6.00 Build 0)  -->
<!DOCTYPE svg PUBLIC "-//W3C//DTD SVG 1.1//EN" "http://www.w3.org/Graphics/SVG/1.1/DTD/svg11.dtd">
<svg version="1.1" id="Layer_1" xmlns="http://www.w3.org/2000/svg" xmlns:xlink="http://www.w3.org/1999/xlink" x="0px" y="0px"
	 width="48px" height="48px" viewBox="0 0 48 48" enable-background="new 0 0 48 48" xml:space="preserve">
<g>
	<g>
		<path d="M35.68,40.427c-0.553,0-1-0.447-1-1V29.7c0-0.553,0.447-1,1-1s1,0.447,1,1v9.727C36.68,39.979,36.232,40.427,35.68,40.427
			z"/>
		<path d="M35.948,42.29c-0.235,0-0.471-0.083-0.66-0.249l-5.527-4.862c-0.415-0.365-0.455-0.997-0.091-1.411
			c0.366-0.415,0.998-0.454,1.411-0.091l4.823,4.242l4.33-4.333c0.391-0.391,1.023-0.391,1.414,0c0.391,0.39,0.391,1.023,0,1.414
			l-4.993,4.997C36.461,42.191,36.205,42.29,35.948,42.29z"/>
	</g>
	<g>
		<path d="M35.68,48C29,48,23.566,42.566,23.566,35.889c0-6.681,5.434-12.115,12.113-12.115s12.113,5.435,12.113,12.115
			C47.793,42.566,42.359,48,35.68,48z M35.68,25.773c-5.576,0-10.113,4.538-10.113,10.115C25.566,41.464,30.104,46,35.68,46
			s10.113-4.536,10.113-10.111C45.793,30.312,41.256,25.773,35.68,25.773z"/>
		<g>
			<path d="M20.2,14.855c-9.692,0-19.992-2.604-19.992-7.428c0-2.213,2.158-4.113,6.241-5.494C10.135,0.687,15.018,0,20.199,0
				c9.687,0,19.98,2.603,19.98,7.427C40.18,12.251,29.886,14.855,20.2,14.855z M20.199,2C15.23,2,10.575,2.649,7.09,3.827
				C4.079,4.846,2.208,6.225,2.208,7.426c0,2.267,6.845,5.429,17.992,5.429c11.14,0,17.979-3.162,17.979-5.428
				C38.18,5.161,31.339,2,20.199,2z"/>
			<path d="M20.2,25.869c-9.692,0-19.992-2.604-19.992-7.428c0-0.552,0.448-1,1-1s1,0.448,1,1c0,2.267,6.845,5.428,17.992,5.428
				c11.14,0,17.979-3.162,17.979-5.428c0-0.552,0.447-1,1-1s1,0.448,1,1C40.18,23.266,29.886,25.869,20.2,25.869z"/>
			<path d="M20.199,36.889c-9.692,0-19.992-2.605-19.992-7.435c0-0.553,0.448-1,1-1s1,0.447,1,1c0,2.27,6.845,5.435,17.992,5.435
				c1.355,0,2.677-0.047,3.928-0.14c0.551-0.044,1.03,0.372,1.071,0.923s-0.372,1.03-0.923,1.071
				C22.976,36.84,21.604,36.889,20.199,36.889z"/>
			<path d="M20.2,47.904c-9.692,0-19.992-2.604-19.992-7.432V7.427c0-0.552,0.448-1,1-1s1,0.448,1,1
				c0,2.267,6.845,5.428,17.992,5.428c11.14,0,17.979-3.162,17.979-5.428c0-0.552,0.447-1,1-1s1,0.448,1,1v17.916
				c0,0.553-0.447,1-1,1s-1-0.447-1-1V10.813c-3.462,2.645-10.884,4.042-17.979,4.042c-7.101,0-14.528-1.397-17.992-4.042v29.66
				c0,2.269,6.845,5.432,17.992,5.432c3.67,0,7.23-0.364,10.295-1.053c0.542-0.121,1.074,0.218,1.195,0.756
				c0.121,0.539-0.218,1.074-0.756,1.195C27.728,47.523,24.016,47.904,20.2,47.904z"/>
		</g>
	</g>
</g>
</svg>
