<?xml version="1.0" encoding="utf-8"?>
<!-- Generator: Adobe Illustrator 16.0.0, SVG Export Plug-In . SVG Version: 6.00 Build 0)  -->
<!DOCTYPE svg PUBLIC "-//W3C//DTD SVG 1.1//EN" "http://www.w3.org/Graphics/SVG/1.1/DTD/svg11.dtd">
<svg version="1.1" id="Layer_1" xmlns="http://www.w3.org/2000/svg" xmlns:xlink="http://www.w3.org/1999/xlink" x="0px" y="0px"
	 width="48px" height="48px" viewBox="0 0 48 48" enable-background="new 0 0 48 48" xml:space="preserve">
<g>
	<g>
		<g>
			<path d="M38.232,44.395c-5.265,0-9.547-4.282-9.547-9.547s4.282-9.548,9.547-9.548c5.262,0,9.543,4.283,9.543,9.548
				S43.494,44.395,38.232,44.395z M38.232,27.3c-4.161,0-7.547,3.386-7.547,7.548c0,4.161,3.386,7.547,7.547,7.547
				c4.159,0,7.543-3.386,7.543-7.547C45.775,30.686,42.392,27.3,38.232,27.3z"/>
			<path d="M43.594,28.014c-0.553,0-1-0.447-1-1v-3.313c0-2.615-1.956-4.743-4.361-4.743s-4.361,2.128-4.361,4.743v3.313
				c0,0.553-0.447,1-1,1s-1-0.447-1-1v-3.313c0-3.718,2.854-6.743,6.361-6.743s6.361,3.025,6.361,6.743v3.313
				C44.594,27.566,44.146,28.014,43.594,28.014z"/>
		</g>
		<path d="M40.214,33.814c0-1.088-0.883-1.979-1.979-1.979c-1.102,0-1.985,0.892-1.985,1.979c0,0.91,0.617,1.643,1.438,1.883v3.604
			h1.086v-3.604C39.6,35.457,40.214,34.725,40.214,33.814z"/>
	</g>
	<g>
		<path d="M20.249,14.881c-9.708,0-20.025-2.608-20.025-7.442s10.317-7.442,20.025-7.442c9.707,0,20.024,2.608,20.024,7.442
			S29.956,14.881,20.249,14.881z M20.249,1.997c-11.167,0-18.025,3.169-18.025,5.442s6.857,5.442,18.025,5.442
			c11.167,0,18.024-3.169,18.024-5.442S31.416,1.997,20.249,1.997z"/>
		<path d="M20.248,25.92c-9.707,0-20.024-2.608-20.024-7.441c0-0.552,0.448-1,1-1s1,0.448,1,1c0,2.272,6.857,5.441,18.024,5.441
			c2.286,0,4.516-0.137,6.628-0.407c0.554-0.075,1.05,0.317,1.119,0.865c0.069,0.548-0.317,1.049-0.865,1.119
			C24.934,25.777,22.618,25.92,20.248,25.92z"/>
		<path d="M20.248,36.961c-9.707,0-20.024-2.61-20.024-7.447c0-0.553,0.448-1,1-1s1,0.447,1,1c0,2.274,6.857,5.447,18.024,5.447
			c1.401,0,2.725-0.048,3.937-0.144c0.547-0.041,1.032,0.368,1.075,0.919c0.044,0.551-0.368,1.032-0.918,1.075
			C23.078,36.91,21.701,36.961,20.248,36.961z"/>
		<path d="M20.248,48c-9.707,0-20.024-2.609-20.024-7.445V7.439c0-0.552,0.448-1,1-1s1,0.448,1,1c0,2.272,6.857,5.442,18.024,5.442
			c11.168,0,18.025-3.169,18.025-5.442c0-0.552,0.447-1,1-1s1,0.448,1,1v6.442c0,0.552-0.447,1-1,1s-1-0.448-1-1v-3.052
			c-3.468,2.651-10.91,4.052-18.025,4.052c-7.114,0-14.556-1.401-18.024-4.052v29.726C2.224,42.828,9.081,46,20.248,46
			c3.68,0,7.249-0.364,10.32-1.053c0.539-0.12,1.073,0.219,1.194,0.757c0.121,0.539-0.218,1.073-0.757,1.194
			C27.793,47.619,24.073,48,20.248,48z"/>
	</g>
</g>
</svg>
