<?xml version="1.0" encoding="utf-8"?>
<!-- Generator: Adobe Illustrator 16.0.0, SVG Export Plug-In . SVG Version: 6.00 Build 0)  -->
<!DOCTYPE svg PUBLIC "-//W3C//DTD SVG 1.1//EN" "http://www.w3.org/Graphics/SVG/1.1/DTD/svg11.dtd">
<svg version="1.1" id="Layer_1" xmlns="http://www.w3.org/2000/svg" xmlns:xlink="http://www.w3.org/1999/xlink" x="0px" y="0px"
	 width="48px" height="48px" viewBox="0 0 48 48" enable-background="new 0 0 48 48" xml:space="preserve">
<g>
	<path d="M25.32,47.725c-0.261,0-0.518-0.103-0.71-0.296c-0.292-0.293-0.372-0.736-0.202-1.114l3.816-8.488
		c0.05-0.11,0.119-0.211,0.205-0.297L41.336,24.63c0.391-0.391,1.023-0.391,1.414,0l4.715,4.714c0.391,0.391,0.391,1.023,0,1.414
		l-12.9,12.909c-0.087,0.088-0.19,0.158-0.304,0.208l-8.537,3.765C25.594,47.697,25.457,47.725,25.32,47.725z M29.974,38.813
		l-2.673,5.945l5.981-2.639l12.062-12.069l-3.301-3.3L29.974,38.813z"/>
	<g>
		<path d="M20.269,14.88c-9.708,0-20.026-2.608-20.026-7.442c0-2.215,2.162-4.118,6.252-5.501C10.188,0.688,15.08,0,20.269,0
			c9.707,0,20.023,2.607,20.023,7.438C40.292,12.271,29.976,14.88,20.269,14.88z M20.269,2c-4.977,0-9.641,0.65-13.133,1.831
			C4.118,4.852,2.243,6.234,2.243,7.438c0,2.273,6.857,5.442,18.026,5.442c11.167,0,18.023-3.169,18.023-5.442
			C38.292,5.167,31.436,2,20.269,2z"/>
		<path d="M20.269,25.919c-9.708,0-20.026-2.608-20.026-7.442c0-0.552,0.448-1,1-1s1,0.448,1,1c0,2.272,6.857,5.442,18.026,5.442
			c11.167,0,18.023-3.169,18.023-5.442c0-0.552,0.447-1,1-1s1,0.448,1,1C40.292,23.311,29.976,25.919,20.269,25.919z"/>
		<path d="M20.269,36.961c-9.708,0-20.026-2.61-20.026-7.447c0-0.553,0.448-1,1-1s1,0.447,1,1c0,2.274,6.857,5.447,18.026,5.447
			c1.389,0,2.714-0.048,3.938-0.144c0.549-0.044,1.032,0.369,1.075,0.92c0.043,0.55-0.369,1.031-0.919,1.074
			C23.086,36.91,21.709,36.961,20.269,36.961z"/>
		<path d="M20.269,48c-5.188,0-10.079-0.689-13.774-1.941c-4.091-1.386-6.252-3.29-6.252-5.506V7.438c0-0.552,0.448-1,1-1
			s1,0.448,1,1c0,2.272,6.857,5.442,18.026,5.442c11.167,0,18.023-3.169,18.023-5.442c0-0.552,0.447-1,1-1s1,0.448,1,1v14.261
			c0,0.552-0.447,1-1,1s-1-0.448-1-1V10.828c-3.468,2.651-10.909,4.052-18.023,4.052c-7.115,0-14.558-1.401-18.026-4.052v29.725
			c0,1.205,1.875,2.589,4.894,3.611C10.63,45.348,15.294,46,20.269,46c0.552,0,1,0.447,1,1S20.821,48,20.269,48z"/>
	</g>
</g>
</svg>
