<?xml version="1.0" encoding="utf-8"?>
<!-- Generator: Adobe Illustrator 16.0.0, SVG Export Plug-In . SVG Version: 6.00 Build 0)  -->
<!DOCTYPE svg PUBLIC "-//W3C//DTD SVG 1.1//EN" "http://www.w3.org/Graphics/SVG/1.1/DTD/svg11.dtd">
<svg version="1.1" id="Layer_1" xmlns="http://www.w3.org/2000/svg" xmlns:xlink="http://www.w3.org/1999/xlink" x="0px" y="0px"
	 width="48px" height="48px" viewBox="0 0 48 48" enable-background="new 0 0 48 48" xml:space="preserve">
<g>
	<g>
		<path d="M27.527,37.838c-0.256,0-0.512-0.098-0.707-0.293l-7.056-7.063c-0.39-0.391-0.39-1.024,0.001-1.414
			c0.391-0.391,1.024-0.39,1.414,0l7.055,7.063c0.391,0.391,0.391,1.024,0,1.414C28.039,37.74,27.783,37.838,27.527,37.838z"/>
		<path d="M20.472,37.836c-0.256,0-0.512-0.098-0.707-0.293c-0.391-0.39-0.391-1.023,0-1.414l7.056-7.061
			c0.391-0.391,1.023-0.391,1.414,0c0.391,0.39,0.391,1.023,0,1.414l-7.055,7.061C20.984,37.738,20.728,37.836,20.472,37.836z"/>
	</g>
	<path d="M23.997,45.438c-6.688,0-12.13-5.442-12.13-12.133c0-6.688,5.441-12.128,12.13-12.128c6.692,0,12.138,5.44,12.138,12.128
		C36.135,39.995,30.689,45.438,23.997,45.438z M23.997,23.177c-5.585,0-10.13,4.543-10.13,10.128c0,5.587,4.544,10.133,10.13,10.133
		c5.59,0,10.138-4.546,10.138-10.133C34.135,27.72,29.587,23.177,23.997,23.177z"/>
	<path d="M37.109,30.859c-0.114,0-0.225-0.013-0.337-0.028l-2.253-0.008c-0.431,0-0.813-0.276-0.949-0.686
		c-1.38-4.163-5.228-6.961-9.574-6.961c-4.348,0-8.195,2.797-9.572,6.961c-0.135,0.409-0.518,0.686-0.949,0.686h-3.046
		c-0.217,0.044-0.454,0.041-0.685,0.007l-0.96-0.007c-0.212,0-0.408-0.065-0.57-0.178C3.502,29.756,0,25.586,0,20.772
		c0-5.556,4.524-10.075,10.085-10.075c1.131,0,2.25,0.2,3.342,0.596c1.111-5.061,5.556-8.731,10.835-8.731
		c4.526,0,8.528,2.722,10.246,6.868c0.882-0.234,1.741-0.348,2.604-0.348C43.115,9.082,48,13.967,48,19.972
		c0,5.519-4.261,10.203-9.75,10.782c-0.11,0.045-0.229,0.069-0.354,0.069h-0.438C37.333,30.847,37.223,30.859,37.109,30.859z
		 M35.219,28.823h1.54c0.139,0.006,0.219,0.017,0.298,0.027l0.048,0.008c0.138-0.019,0.217-0.029,0.299-0.033l0.213-0.001
		c0.064-0.021,0.132-0.033,0.2-0.039C42.405,28.419,46,24.548,46,19.972c0-4.902-3.987-8.89-8.889-8.89
		c-0.938,0-1.881,0.172-2.884,0.527c-0.254,0.09-0.537,0.073-0.779-0.048s-0.426-0.335-0.507-0.594
		c-1.21-3.831-4.698-6.405-8.679-6.405c-4.7,0-8.593,3.551-9.056,8.26c-0.032,0.33-0.225,0.621-0.516,0.78
		c-0.291,0.158-0.641,0.163-0.935,0.013c-1.192-0.609-2.427-0.918-3.671-0.918C5.627,12.697,2,16.319,2,20.772
		c0,3.97,2.978,7.394,6.927,7.965c0.102,0.015,0.198,0.044,0.286,0.086H9.74c0.137,0.007,0.215,0.017,0.292,0.027h0.106
		c0.077-0.011,0.153-0.021,0.23-0.025l2.405-0.002c1.83-4.603,6.251-7.646,11.221-7.646C28.964,21.177,33.387,24.221,35.219,28.823z
		"/>
</g>
</svg>
