<?xml version="1.0" encoding="utf-8"?>
<!-- Generator: Adobe Illustrator 16.0.0, SVG Export Plug-In . SVG Version: 6.00 Build 0)  -->
<!DOCTYPE svg PUBLIC "-//W3C//DTD SVG 1.1//EN" "http://www.w3.org/Graphics/SVG/1.1/DTD/svg11.dtd">
<svg version="1.1" id="Layer_1" xmlns="http://www.w3.org/2000/svg" xmlns:xlink="http://www.w3.org/1999/xlink" x="0px" y="0px"
	 width="48px" height="48px" viewBox="0 0 48 48" enable-background="new 0 0 48 48" xml:space="preserve">
<g>
	<g>
		<path d="M28.992,34.311h-9.984c-0.552,0-1-0.447-1-1s0.448-1,1-1h9.984c0.553,0,1,0.447,1,1S29.545,34.311,28.992,34.311z"/>
		<path d="M23.998,39.3c-0.552,0-1-0.447-1-1v-9.985c0-0.553,0.448-1,1-1c0.553,0,1,0.447,1,1V38.3
			C24.998,38.853,24.551,39.3,23.998,39.3z"/>
	</g>
	<path d="M24.002,45.439c-6.69,0-12.134-5.443-12.134-12.135c0-6.688,5.443-12.128,12.134-12.128c6.691,0,12.135,5.44,12.135,12.128
		C36.137,39.996,30.693,45.439,24.002,45.439z M24.002,23.177c-5.588,0-10.134,4.543-10.134,10.128
		c0,5.588,4.546,10.135,10.134,10.135s10.135-4.547,10.135-10.135C34.137,27.72,29.59,23.177,24.002,23.177z"/>
	<path d="M37.109,30.859c-0.112,0-0.224-0.013-0.336-0.028l-2.25-0.008c-0.431,0-0.813-0.276-0.949-0.686
		c-1.38-4.163-5.227-6.961-9.572-6.961c-4.35,0-8.197,2.797-9.574,6.961c-0.135,0.409-0.518,0.686-0.949,0.686h-3.048
		c-0.228,0.048-0.459,0.04-0.682,0.007l-0.963-0.007c-0.211,0-0.408-0.065-0.57-0.178C3.502,29.756,0,25.586,0,20.772
		c0-5.556,4.524-10.076,10.086-10.076c1.131,0,2.25,0.2,3.341,0.596c1.112-5.062,5.556-8.731,10.831-8.731
		c4.529,0,8.533,2.722,10.25,6.868c0.886-0.233,1.743-0.348,2.602-0.348C43.114,9.081,48,13.967,48,19.972
		c0,5.52-4.26,10.203-9.748,10.782c-0.11,0.045-0.229,0.069-0.354,0.069h-0.438C37.335,30.847,37.225,30.859,37.109,30.859z
		 M35.223,28.823h1.535c0.139,0.006,0.219,0.017,0.298,0.027l0.049,0.008c0.141-0.02,0.219-0.029,0.3-0.033l0.214-0.001
		c0.064-0.021,0.132-0.033,0.2-0.039C42.406,28.419,46,24.548,46,19.972c0-4.902-3.988-8.891-8.891-8.891
		c-0.931,0-1.874,0.172-2.884,0.527c-0.256,0.088-0.536,0.071-0.778-0.049c-0.242-0.121-0.425-0.335-0.506-0.593
		c-1.21-3.831-4.7-6.404-8.684-6.404c-4.695,0-8.586,3.551-9.052,8.26c-0.032,0.329-0.226,0.621-0.516,0.779
		c-0.291,0.158-0.64,0.164-0.935,0.013c-3.262-1.668-6.983-0.955-9.389,1.449C2.841,16.587,2,18.615,2,20.772
		c0,3.97,2.979,7.395,6.929,7.965c0.102,0.015,0.198,0.044,0.286,0.086h0.524c0.139,0.006,0.218,0.017,0.296,0.028h0.103
		c0.077-0.012,0.155-0.021,0.234-0.026l2.407-0.002c1.83-4.603,6.252-7.646,11.223-7.646C28.969,21.177,33.391,24.221,35.223,28.823
		z"/>
</g>
</svg>
