<?xml version="1.0" encoding="utf-8"?>
<!-- Generator: Adobe Illustrator 16.0.0, SVG Export Plug-In . SVG Version: 6.00 Build 0)  -->
<!DOCTYPE svg PUBLIC "-//W3C//DTD SVG 1.1//EN" "http://www.w3.org/Graphics/SVG/1.1/DTD/svg11.dtd">
<svg version="1.1" id="Layer_1" xmlns="http://www.w3.org/2000/svg" xmlns:xlink="http://www.w3.org/1999/xlink" x="0px" y="0px"
	 width="48px" height="48px" viewBox="0 0 48 48" enable-background="new 0 0 48 48" xml:space="preserve">
<g>
	<path d="M22.393,38.678c-0.271,0-0.531-0.11-0.719-0.306l-4.99-5.166c-0.384-0.396-0.373-1.03,0.024-1.414
		c0.398-0.381,1.031-0.371,1.414,0.025l4.261,4.41l7.485-7.975c0.379-0.403,1.01-0.422,1.414-0.045
		c0.402,0.378,0.423,1.012,0.045,1.414l-8.205,8.74c-0.187,0.199-0.448,0.313-0.722,0.315
		C22.398,38.678,22.396,38.678,22.393,38.678z"/>
	<path d="M24.002,45.439c-6.692,0-12.136-5.443-12.136-12.135c0-6.688,5.444-12.129,12.136-12.129
		c6.689,0,12.132,5.441,12.132,12.129C36.134,39.996,30.691,45.439,24.002,45.439z M24.002,23.176
		c-5.589,0-10.136,4.544-10.136,10.129c0,5.588,4.547,10.135,10.136,10.135c5.587,0,10.132-4.547,10.132-10.135
		C34.134,27.72,29.589,23.176,24.002,23.176z"/>
	<path d="M37.111,30.859c-0.119,0-0.23-0.013-0.342-0.028l-2.246-0.007c-0.431,0-0.813-0.276-0.949-0.686
		c-1.38-4.164-5.227-6.962-9.572-6.962c-4.352,0-8.2,2.798-9.575,6.961c-0.136,0.41-0.518,0.687-0.95,0.687h-3.044
		c-0.229,0.044-0.462,0.038-0.688,0.007l-0.959-0.007c-0.212,0-0.41-0.066-0.571-0.18C3.501,29.755,0,25.585,0,20.773
		c0-5.557,4.524-10.077,10.085-10.077c1.128,0,2.248,0.201,3.342,0.598c1.111-5.062,5.556-8.732,10.836-8.732
		c4.525,0,8.527,2.722,10.245,6.867c0.882-0.234,1.74-0.348,2.604-0.348C43.115,9.081,48,13.967,48,19.972
		c0,5.517-4.258,10.2-9.743,10.781c-0.11,0.046-0.23,0.071-0.356,0.071h-0.441C37.337,30.847,37.226,30.859,37.111,30.859z
		 M35.223,28.824h1.537c0.141,0.007,0.213,0.017,0.285,0.026l0.063,0.008c0.141-0.019,0.212-0.027,0.286-0.032l0.223-0.001
		c0.065-0.021,0.134-0.034,0.204-0.04c4.587-0.367,8.18-4.238,8.18-8.813c0-4.902-3.987-8.891-8.889-8.891
		c-0.938,0-1.881,0.172-2.884,0.527c-0.254,0.09-0.537,0.073-0.779-0.048c-0.242-0.121-0.426-0.335-0.507-0.594
		c-1.21-3.831-4.698-6.404-8.678-6.404c-4.7,0-8.593,3.551-9.056,8.26c-0.032,0.329-0.225,0.621-0.515,0.779
		c-0.29,0.16-0.639,0.165-0.934,0.014c-3.287-1.675-6.988-0.953-9.391,1.447C2.841,16.588,2,18.616,2,20.773
		c0,3.97,2.979,7.394,6.928,7.964c0.102,0.015,0.199,0.044,0.288,0.087h0.523c0.139,0.007,0.209,0.016,0.28,0.026h0.131
		c0.071-0.01,0.143-0.02,0.216-0.024l2.41-0.001c1.829-4.604,6.252-7.648,11.225-7.648C28.969,21.177,33.391,24.221,35.223,28.824z"
		/>
</g>
</svg>
