<?xml version="1.0" encoding="utf-8"?>
<!-- Generator: Adobe Illustrator 16.0.0, SVG Export Plug-In . SVG Version: 6.00 Build 0)  -->
<!DOCTYPE svg PUBLIC "-//W3C//DTD SVG 1.1//EN" "http://www.w3.org/Graphics/SVG/1.1/DTD/svg11.dtd">
<svg version="1.1" id="Layer_1" xmlns="http://www.w3.org/2000/svg" xmlns:xlink="http://www.w3.org/1999/xlink" x="0px" y="0px"
	 width="48px" height="48px" viewBox="0 0 48 48" enable-background="new 0 0 48 48" xml:space="preserve">
<g>
	<path d="M17.659,43.434c-0.197,0-0.396-0.058-0.57-0.179c-0.454-0.315-0.565-0.938-0.25-1.392l12.686-18.255
		c0.315-0.454,0.938-0.565,1.392-0.25c0.454,0.315,0.566,0.938,0.251,1.392L18.481,43.004
		C18.287,43.284,17.976,43.434,17.659,43.434z"/>
	<path d="M24.002,45.443c-6.692,0-12.137-5.444-12.137-12.137c0-6.689,5.444-12.131,12.137-12.131c3.24,0,6.286,1.262,8.578,3.553
		s3.555,5.338,3.555,8.578C36.135,39.999,30.692,45.443,24.002,45.443z M24.004,23.176c-5.59,0-10.139,4.545-10.139,10.131
		c0,5.59,4.547,10.137,10.137,10.137c5.587,0,10.133-4.547,10.133-10.137C34.135,27.721,29.59,23.176,24.004,23.176z"/>
	<path d="M37.111,30.861c-0.123,0-0.241-0.015-0.36-0.034l-2.226-0.007c-0.431,0-0.813-0.276-0.949-0.685
		c-1.382-4.164-5.229-6.961-9.574-6.961c-4.348,0-8.196,2.797-9.576,6.96c-0.136,0.409-0.518,0.686-0.949,0.686h-3.045
		c-0.209,0.053-0.476,0.043-0.711,0.007L8.784,30.82c-0.212,0-0.409-0.066-0.57-0.179C3.501,29.758,0,25.59,0,20.772
		c0-5.558,4.524-10.079,10.086-10.079c1.128,0,2.248,0.201,3.341,0.599c1.114-5.063,5.559-8.733,10.835-8.733
		c4.524,0,8.526,2.723,10.246,6.872c0.888-0.234,1.747-0.349,2.604-0.349C43.115,9.081,48,13.966,48,19.971
		c0,5.523-4.264,10.208-9.755,10.784c-0.107,0.042-0.224,0.065-0.345,0.065h-0.44C37.354,30.847,37.235,30.861,37.111,30.861z
		 M35.225,28.82h1.534c0.157,0.01,0.232,0.021,0.307,0.032l0.039,0.008c0.129-0.021,0.2-0.03,0.274-0.037l0.248-0.001
		c0.062-0.019,0.127-0.031,0.193-0.037c4.663-0.372,8.18-4.161,8.18-8.814c0-4.902-3.987-8.89-8.889-8.89
		c-0.928,0-1.872,0.172-2.887,0.527c-0.257,0.09-0.537,0.071-0.777-0.05c-0.242-0.121-0.425-0.334-0.506-0.592
		c-1.213-3.833-4.701-6.408-8.679-6.408c-4.695,0-8.589,3.552-9.056,8.263c-0.033,0.329-0.226,0.621-0.516,0.779
		c-0.291,0.157-0.64,0.164-0.934,0.013c-3.287-1.677-6.989-0.954-9.39,1.448C2.84,16.586,2,18.614,2,20.772
		c0,3.974,2.978,7.396,6.926,7.96c0.103,0.015,0.2,0.045,0.29,0.088h0.522c0.156,0.01,0.229,0.021,0.3,0.031
		c0.161-0.011,0.235-0.021,0.313-0.028l2.427-0.002c1.832-4.603,6.255-7.646,11.225-7.646C28.967,21.175,33.39,24.218,35.225,28.82z
		"/>
</g>
</svg>
