<?xml version="1.0" encoding="utf-8"?>
<!-- Generator: Adobe Illustrator 16.0.0, SVG Export Plug-In . SVG Version: 6.00 Build 0)  -->
<!DOCTYPE svg PUBLIC "-//W3C//DTD SVG 1.1//EN" "http://www.w3.org/Graphics/SVG/1.1/DTD/svg11.dtd">
<svg version="1.1" id="Layer_1" xmlns="http://www.w3.org/2000/svg" xmlns:xlink="http://www.w3.org/1999/xlink" x="0px" y="0px"
	 width="48px" height="48px" viewBox="0 0 48 48" enable-background="new 0 0 48 48" xml:space="preserve">
<g>
	<path d="M23.999,45.443c-6.693,0-12.138-5.444-12.138-12.137c0-6.689,5.445-12.131,12.138-12.131
		c6.691,0,12.135,5.441,12.135,12.131C36.134,39.999,30.69,45.443,23.999,45.443z M23.999,23.176
		c-5.59,0-10.138,4.545-10.138,10.131c0,5.59,4.548,10.137,10.138,10.137c5.588,0,10.135-4.547,10.135-10.137
		C34.134,27.721,29.587,23.176,23.999,23.176z"/>
	<g>
		<path d="M23.999,40.116c-0.552,0-1-0.447-1-1v-9.744c0-0.553,0.448-1,1-1c0.553,0,1,0.447,1,1v9.744
			C24.999,39.669,24.552,40.116,23.999,40.116z"/>
		<path d="M18.727,33.509c-0.256,0-0.512-0.098-0.707-0.293c-0.391-0.391-0.391-1.023,0-1.414l5.006-5.008
			c0.372-0.373,0.972-0.391,1.368-0.044l5.537,4.873c0.414,0.365,0.454,0.997,0.09,1.412c-0.366,0.415-0.998,0.454-1.412,0.09
			l-4.832-4.253l-4.343,4.344C19.239,33.411,18.983,33.509,18.727,33.509z"/>
	</g>
	<path d="M37.111,30.865c-0.119,0-0.235-0.014-0.353-0.031l-2.235-0.008c-0.431,0-0.813-0.276-0.949-0.686
		c-1.381-4.164-5.229-6.961-9.575-6.961c-4.348,0-8.197,2.797-9.577,6.961c-0.136,0.409-0.518,0.686-0.949,0.686h-3.045
		c-0.203,0.049-0.465,0.042-0.701,0.007l-0.943-0.007c-0.21,0-0.406-0.065-0.567-0.176C3.503,29.766,0,25.594,0,20.774
		c0-5.558,4.523-10.08,10.084-10.08c1.127,0,2.246,0.201,3.34,0.599c1.112-5.063,5.558-8.734,10.835-8.734
		c4.522,0,8.525,2.724,10.249,6.872c0.888-0.234,1.747-0.349,2.604-0.349C43.115,9.082,48,13.967,48,19.972
		c0,5.52-4.26,10.205-9.748,10.785c-0.11,0.045-0.229,0.069-0.354,0.069h-0.438C37.345,30.852,37.229,30.865,37.111,30.865z
		 M35.223,28.826h1.535c0.15,0.008,0.226,0.019,0.301,0.03l0.047,0.008c0.132-0.02,0.206-0.03,0.283-0.035l0.228-0.002
		c0.065-0.02,0.133-0.033,0.202-0.039C42.406,28.421,46,24.549,46,19.972c0-4.902-3.987-8.89-8.889-8.89
		c-0.928,0-1.873,0.172-2.888,0.526c-0.254,0.088-0.534,0.07-0.776-0.05c-0.242-0.121-0.424-0.334-0.506-0.592
		c-1.217-3.833-4.706-6.408-8.683-6.408c-4.697,0-8.59,3.552-9.056,8.263c-0.032,0.329-0.226,0.621-0.516,0.779
		c-0.29,0.158-0.64,0.164-0.934,0.013c-1.198-0.611-2.432-0.921-3.669-0.921C5.626,12.694,2,16.318,2,20.774
		c0,3.976,2.978,7.401,6.926,7.966c0.101,0.015,0.197,0.044,0.285,0.086h0.526c0.149,0.009,0.222,0.019,0.294,0.03h0.102
		c0.072-0.012,0.145-0.021,0.218-0.027l2.422-0.002c1.833-4.604,6.256-7.648,11.226-7.648C28.967,21.179,33.39,24.223,35.223,28.826
		z"/>
</g>
</svg>
