<?xml version="1.0" encoding="utf-8"?>
<!-- Generator: Adobe Illustrator 16.0.0, SVG Export Plug-In . SVG Version: 6.00 Build 0)  -->
<!DOCTYPE svg PUBLIC "-//W3C//DTD SVG 1.1//EN" "http://www.w3.org/Graphics/SVG/1.1/DTD/svg11.dtd">
<svg version="1.1" id="Layer_1" xmlns="http://www.w3.org/2000/svg" xmlns:xlink="http://www.w3.org/1999/xlink" x="0px" y="0px"
	 width="48px" height="48px" viewBox="0 0 48 48" enable-background="new 0 0 48 48" xml:space="preserve">
<g>
	<path d="M28.586,36.46c-0.158,0-0.318-0.037-0.468-0.116l-4.587-2.433C23.205,33.737,23,33.397,23,33.027v-7.266
		c0-0.553,0.448-1,1-1c0.553,0,1,0.447,1,1v6.664l4.056,2.15c0.487,0.259,0.674,0.864,0.415,1.353
		C29.291,36.267,28.944,36.46,28.586,36.46z"/>
	<path d="M24,45.441c-6.689,0-12.132-5.444-12.132-12.137c0-6.688,5.442-12.129,12.132-12.129c6.692,0,12.137,5.441,12.137,12.129
		C36.137,39.997,30.692,45.441,24,45.441z M24,23.176c-5.587,0-10.132,4.544-10.132,10.129c0,5.59,4.545,10.137,10.132,10.137
		c5.59,0,10.137-4.547,10.137-10.137C34.137,27.72,29.59,23.176,24,23.176z"/>
	<path d="M37.113,30.861c-0.124,0-0.24-0.015-0.357-0.032l-2.232-0.007c-0.431,0-0.813-0.276-0.949-0.685
		c-1.382-4.164-5.229-6.962-9.575-6.962c-4.349,0-8.196,2.797-9.574,6.961c-0.135,0.409-0.518,0.686-0.949,0.686h-3.045
		c-0.206,0.048-0.467,0.044-0.704,0.006l-0.944-0.006c-0.21,0-0.406-0.065-0.567-0.176C3.503,29.761,0,25.59,0,20.772
		c0-5.557,4.523-10.078,10.083-10.078c1.128,0,2.249,0.201,3.345,0.599C14.537,6.23,18.981,2.56,24.261,2.56
		c4.525,0,8.529,2.723,10.249,6.87c0.885-0.233,1.743-0.347,2.604-0.347C43.116,9.083,48,13.968,48,19.973
		c0,5.522-4.264,10.207-9.756,10.782c-0.108,0.044-0.226,0.067-0.348,0.067h-0.438C37.343,30.848,37.229,30.861,37.113,30.861z
		 M35.223,28.822h1.536c0.149,0.008,0.225,0.019,0.299,0.03l0.048,0.008c0.129-0.02,0.203-0.03,0.28-0.035l0.234-0.002
		c0.063-0.019,0.129-0.031,0.196-0.037C42.405,28.42,46,24.549,46,19.973c0-4.902-3.986-8.89-8.887-8.89
		c-0.934,0-1.878,0.172-2.886,0.525c-0.257,0.088-0.535,0.071-0.778-0.049c-0.242-0.121-0.425-0.335-0.506-0.593
		C31.73,7.134,28.241,4.56,24.261,4.56c-4.699,0-8.591,3.551-9.053,8.261c-0.032,0.329-0.225,0.621-0.515,0.779
		c-0.29,0.158-0.639,0.164-0.934,0.015c-1.202-0.611-2.438-0.921-3.674-0.921C5.625,12.694,2,16.318,2,20.772
		c0,3.974,2.977,7.398,6.925,7.964c0.101,0.015,0.197,0.044,0.285,0.086h0.531c0.149,0.009,0.222,0.019,0.294,0.03
		c0.172-0.012,0.246-0.021,0.321-0.027l2.419-0.002c1.83-4.604,6.252-7.647,11.223-7.647C28.965,21.176,33.388,24.22,35.223,28.822z
		"/>
</g>
</svg>
