<?xml version="1.0" encoding="utf-8"?>
<!-- Generator: Adobe Illustrator 16.0.0, SVG Export Plug-In . SVG Version: 6.00 Build 0)  -->
<!DOCTYPE svg PUBLIC "-//W3C//DTD SVG 1.1//EN" "http://www.w3.org/Graphics/SVG/1.1/DTD/svg11.dtd">
<svg version="1.1" id="Layer_1" xmlns="http://www.w3.org/2000/svg" xmlns:xlink="http://www.w3.org/1999/xlink" x="0px" y="0px"
	 width="48px" height="48px" viewBox="0 0 48 48" enable-background="new 0 0 48 48" xml:space="preserve">
<g>
	<path d="M24,32.839c-0.124,0-0.248-0.003-0.373-0.008c-2.349-0.098-4.52-1.107-6.111-2.844c-1.59-1.734-2.412-3.985-2.314-6.339
		c0.208-4.863,4.288-8.64,9.175-8.437c4.85,0.208,8.627,4.327,8.419,9.183C32.602,29.129,28.738,32.839,24,32.839z M23.996,17.204
		c-3.654,0-6.639,2.868-6.796,6.529c-0.076,1.82,0.56,3.561,1.79,4.903c1.23,1.341,2.906,2.121,4.72,2.197
		c3.799,0.148,6.933-2.765,7.088-6.522c0.16-3.756-2.759-6.941-6.507-7.101C24.193,17.206,24.095,17.204,23.996,17.204z"/>
	<path d="M37.111,30.037c-0.121,0-0.237-0.015-0.356-0.033l-2.231-0.008c-0.553,0-1-0.447-1-1s0.447-1,1-1h2.235
		c0.154,0.009,0.234,0.021,0.313,0.032c0.154-0.012,0.233-0.023,0.316-0.029l0.233-0.002c0.064-0.02,0.131-0.032,0.199-0.038
		c4.587-0.366,8.18-4.238,8.18-8.813c0-4.902-3.987-8.891-8.889-8.891c-0.928,0-1.873,0.172-2.888,0.526
		c-0.254,0.088-0.536,0.07-0.776-0.05c-0.242-0.121-0.425-0.334-0.506-0.592c-1.214-3.833-4.703-6.407-8.683-6.407
		c-4.699,0-8.591,3.552-9.053,8.262c-0.032,0.329-0.225,0.621-0.515,0.779c-0.29,0.158-0.64,0.164-0.934,0.014
		c-1.201-0.611-2.436-0.921-3.671-0.921C5.627,11.867,2,15.492,2,19.947c0,3.974,2.978,7.397,6.926,7.963
		c0.101,0.015,0.197,0.044,0.285,0.086h0.528c0.153,0.009,0.23,0.02,0.307,0.032c0.154-0.012,0.231-0.023,0.31-0.029l3.12-0.003
		c0.552,0,1,0.447,1,1s-0.448,1-1,1h-3.045c-0.197,0.051-0.469,0.045-0.707,0.007l-0.94-0.007c-0.21,0-0.406-0.065-0.567-0.176
		C3.503,28.935,0,24.765,0,19.947C0,14.39,4.524,9.867,10.086,9.866c1.125,0,2.245,0.201,3.34,0.599
		c1.109-5.063,5.553-8.733,10.833-8.733c4.524,0,8.528,2.723,10.249,6.872c0.888-0.234,1.747-0.349,2.604-0.349
		C43.115,8.255,48,13.141,48,19.146c0,5.52-4.261,10.205-9.749,10.782c-0.109,0.044-0.228,0.068-0.351,0.068h-0.44
		C37.349,30.022,37.232,30.037,37.111,30.037z"/>
	<path d="M33.295,46.268c-0.382,0-0.747-0.22-0.913-0.59l-6.269-13.957c-0.227-0.504-0.001-1.096,0.502-1.322
		c0.506-0.227,1.097-0.001,1.322,0.502l6.269,13.957c0.227,0.504,0.001,1.096-0.502,1.322C33.57,46.239,33.432,46.268,33.295,46.268
		z"/>
</g>
</svg>
