<?xml version="1.0" encoding="utf-8"?>
<!-- Generator: Adobe Illustrator 16.0.0, SVG Export Plug-In . SVG Version: 6.00 Build 0)  -->
<!DOCTYPE svg PUBLIC "-//W3C//DTD SVG 1.1//EN" "http://www.w3.org/Graphics/SVG/1.1/DTD/svg11.dtd">
<svg version="1.1" id="Layer_1" xmlns="http://www.w3.org/2000/svg" xmlns:xlink="http://www.w3.org/1999/xlink" x="0px" y="0px"
	 width="48px" height="48px" viewBox="0 0 48 48" enable-background="new 0 0 48 48" xml:space="preserve">
<g>
	<g>
		<g>
			<path d="M24,47.934c-5.264,0-9.546-4.282-9.546-9.545c0-5.265,4.282-9.547,9.546-9.547s9.546,4.282,9.546,9.547
				C33.546,43.651,29.264,47.934,24,47.934z M24,30.842c-4.161,0-7.546,3.386-7.546,7.547c0,4.16,3.385,7.545,7.546,7.545
				c4.161,0,7.546-3.385,7.546-7.545C31.546,34.228,28.161,30.842,24,30.842z"/>
			<path d="M29.361,31.557c-0.553,0-1-0.447-1-1V27.24c0-2.611-1.957-4.735-4.362-4.735c-2.404,0-4.36,2.124-4.36,4.735v3.316
				c0,0.553-0.448,1-1,1s-1-0.447-1-1V27.24c0-3.714,2.853-6.735,6.36-6.735c3.508,0,6.362,3.021,6.362,6.735v3.316
				C30.361,31.109,29.914,31.557,29.361,31.557z"/>
		</g>
		<path d="M25.98,37.359c0-1.092-0.881-1.979-1.981-1.979c-1.098,0-1.983,0.888-1.983,1.979c0,0.906,0.616,1.641,1.438,1.879v3.607
			h1.087v-3.607C25.363,39,25.98,38.268,25.98,37.359z"/>
	</g>
	<path d="M37.111,28.359c-0.104,0-0.203-0.01-0.304-0.022l-2.284-0.007c-0.553,0-1-0.447-1-1s0.447-1,1-1h2.234
		c0.101,0,0.199,0.01,0.299,0.022c0.196-0.012,0.298-0.022,0.402-0.022H37.6c0.069-0.022,0.142-0.038,0.216-0.044
		C42.405,25.922,46,22.049,46,17.47c0-4.901-3.987-8.889-8.889-8.889c-0.923,0-1.868,0.172-2.891,0.528
		c-0.256,0.088-0.535,0.07-0.776-0.051s-0.424-0.334-0.505-0.592c-1.211-3.828-4.7-6.399-8.682-6.399
		c-4.697,0-8.591,3.55-9.058,8.259c-0.033,0.33-0.227,0.622-0.518,0.78s-0.643,0.161-0.936,0.009
		c-1.183-0.611-2.415-0.921-3.661-0.921C5.627,10.195,2,13.822,2,18.28c0,3.969,2.978,7.391,6.926,7.96
		c0.105,0.016,0.204,0.047,0.295,0.091h0.521c0.097,0,0.193,0.01,0.291,0.021h0.103c0.097-0.012,0.194-0.021,0.291-0.021h3.048
		c0.552,0,1,0.447,1,1s-0.448,1-1,1h-3.048c-0.281,0.037-0.445,0.031-0.641,0.006l-1.003-0.006c-0.215,0-0.414-0.067-0.577-0.184
		C3.498,27.256,0,23.089,0,18.28C0,12.719,4.524,8.195,10.085,8.194c1.133,0,2.25,0.201,3.337,0.598
		c1.116-5.059,5.561-8.725,10.835-8.725c4.527,0,8.53,2.72,10.249,6.864c0.892-0.235,1.751-0.35,2.604-0.35
		C43.115,6.581,48,11.466,48,17.47c0,5.518-4.254,10.199-9.736,10.783c-0.114,0.05-0.238,0.077-0.369,0.077h-0.436
		C37.307,28.35,37.209,28.359,37.111,28.359z"/>
</g>
</svg>
