<?xml version="1.0" encoding="utf-8"?>
<!-- Generator: Adobe Illustrator 16.0.0, SVG Export Plug-In . SVG Version: 6.00 Build 0)  -->
<!DOCTYPE svg PUBLIC "-//W3C//DTD SVG 1.1//EN" "http://www.w3.org/Graphics/SVG/1.1/DTD/svg11.dtd">
<svg version="1.1" id="Layer_1" xmlns="http://www.w3.org/2000/svg" xmlns:xlink="http://www.w3.org/1999/xlink" x="0px" y="0px"
	 width="48px" height="48px" viewBox="0 0 48 48" enable-background="new 0 0 48 48" xml:space="preserve">
<g>
	<path d="M11.84,44.109c-0.262,0-0.519-0.103-0.71-0.296c-0.292-0.294-0.372-0.736-0.202-1.114l3.813-8.478
		c0.05-0.11,0.12-0.211,0.205-0.297l12.91-12.902c0.391-0.39,1.023-0.39,1.414,0l4.711,4.713c0.391,0.391,0.391,1.023,0,1.414
		L21.082,40.057c-0.088,0.088-0.191,0.158-0.304,0.208l-8.534,3.76C12.113,44.082,11.976,44.109,11.84,44.109z M16.49,35.209
		l-2.669,5.936l5.979-2.635l12.06-12.066l-3.297-3.299L16.49,35.209z"/>
	<path d="M37.113,32.188c-0.123,0-0.238-0.014-0.354-0.03l-2.236-0.007c-0.553,0-1-0.447-1-1s0.447-1,1-1h2.238
		c0.146,0.008,0.216,0.018,0.285,0.027l0.124,0.001c0.07-0.011,0.14-0.021,0.21-0.025l0.233-0.001
		c0.066-0.021,0.137-0.036,0.208-0.042C42.408,29.744,46,25.872,46,21.297c0-4.899-3.986-8.886-8.887-8.886
		c-0.93,0-1.875,0.171-2.892,0.523c-0.255,0.089-0.535,0.07-0.776-0.051c-0.241-0.121-0.423-0.335-0.504-0.592
		c-1.211-3.829-4.698-6.401-8.678-6.401c-4.701,0-8.594,3.551-9.056,8.26c-0.032,0.329-0.225,0.621-0.515,0.779
		c-0.29,0.158-0.639,0.164-0.934,0.014c-1.202-0.611-2.437-0.921-3.672-0.921c-4.459,0-8.088,3.625-8.088,8.08
		c0,3.969,2.978,7.393,6.927,7.963c0.101,0.014,0.196,0.043,0.284,0.085h0.531c0.149,0.009,0.214,0.018,0.278,0.027h0.131
		c0.066-0.009,0.132-0.019,0.2-0.024l3.125-0.003c0.552,0,1,0.447,1,1s-0.448,1-1,1h-3.043c-0.22,0.047-0.469,0.04-0.702,0.006
		L8.783,32.15c-0.211,0-0.406-0.065-0.568-0.177c-4.713-0.889-8.216-5.059-8.216-9.872c0-5.558,4.525-10.08,10.088-10.08
		c1.125,0,2.244,0.201,3.34,0.6c1.109-5.063,5.555-8.732,10.836-8.732c4.526,0,8.529,2.722,10.246,6.868
		c0.889-0.232,1.748-0.346,2.604-0.346C43.116,10.411,48,15.294,48,21.297c0,5.518-4.256,10.2-9.738,10.781
		c-0.111,0.047-0.232,0.072-0.359,0.072h-0.445C37.346,32.174,37.229,32.188,37.113,32.188z"/>
</g>
</svg>
