<?xml version="1.0" encoding="utf-8"?>
<!-- Generator: Adobe Illustrator 16.0.0, SVG Export Plug-In . SVG Version: 6.00 Build 0)  -->
<!DOCTYPE svg PUBLIC "-//W3C//DTD SVG 1.1//EN" "http://www.w3.org/Graphics/SVG/1.1/DTD/svg11.dtd">
<svg version="1.1" id="Layer_1" xmlns="http://www.w3.org/2000/svg" xmlns:xlink="http://www.w3.org/1999/xlink" x="0px" y="0px"
	 width="48px" height="48px" viewBox="0 0 48 48" enable-background="new 0 0 48 48" xml:space="preserve">
<g>
	<g>
		<path d="M39.354,39.948c-0.256,0-0.513-0.098-0.708-0.293l-6.931-6.939c-0.39-0.392-0.39-1.024,0.001-1.415
			c0.391-0.389,1.024-0.39,1.415,0.001l6.931,6.939c0.39,0.392,0.39,1.024-0.001,1.415C39.865,39.851,39.609,39.948,39.354,39.948z"
			/>
		<path d="M32.423,39.948c-0.256,0-0.512-0.098-0.707-0.292c-0.391-0.391-0.391-1.023-0.001-1.415l6.931-6.939
			c0.391-0.391,1.024-0.39,1.415-0.001c0.391,0.391,0.391,1.023,0.001,1.415l-6.931,6.939
			C32.936,39.851,32.679,39.948,32.423,39.948z"/>
	</g>
	<path d="M19.743,17.701c-4.83,0-8.759-3.879-8.759-8.648c0-4.771,3.929-8.652,8.759-8.652s8.759,3.881,8.759,8.652
		C28.502,13.822,24.573,17.701,19.743,17.701z M19.743,2.401c-3.727,0-6.759,2.984-6.759,6.652c0,3.666,3.032,6.648,6.759,6.648
		s6.759-2.982,6.759-6.648C26.502,5.385,23.47,2.401,19.743,2.401z"/>
	<path d="M35.889,47.6c-6.682,0-12.117-5.438-12.117-12.121c0-6.681,5.436-12.116,12.117-12.116C42.567,23.364,48,28.8,48,35.479
		C48,42.162,42.566,47.6,35.889,47.6z M35.889,25.363c-5.579,0-10.117,4.537-10.117,10.115c0,5.581,4.538,10.121,10.117,10.121
		C41.464,45.6,46,41.06,46,35.479C46,29.902,41.464,25.364,35.889,25.363z"/>
	<path d="M25.357,39.896H1c-0.552,0-1-0.447-1-1c0-10.748,8.857-19.494,19.743-19.495c4.798,0,9.437,1.739,13.063,4.897
		c0.268,0.232,0.392,0.59,0.325,0.938c-0.065,0.349-0.311,0.637-0.645,0.757c-4.017,1.44-6.715,5.252-6.715,9.484
		c0,0.978,0.176,1.995,0.537,3.109c0.099,0.305,0.046,0.638-0.143,0.896C25.979,39.743,25.678,39.896,25.357,39.896z M2.029,37.896
		h22.018c-0.185-0.832-0.275-1.631-0.275-2.418c0-4.497,2.538-8.597,6.463-10.672c-3.044-2.205-6.713-3.405-10.491-3.405
		C10.3,21.403,2.556,28.714,2.029,37.896z"/>
</g>
</svg>
