<?xml version="1.0" encoding="utf-8"?>
<!-- Generator: Adobe Illustrator 16.0.0, SVG Export Plug-In . SVG Version: 6.00 Build 0)  -->
<!DOCTYPE svg PUBLIC "-//W3C//DTD SVG 1.1//EN" "http://www.w3.org/Graphics/SVG/1.1/DTD/svg11.dtd">
<svg version="1.1" id="Layer_1" xmlns="http://www.w3.org/2000/svg" xmlns:xlink="http://www.w3.org/1999/xlink" x="0px" y="0px"
	 width="48px" height="48px" viewBox="0 0 48 48" enable-background="new 0 0 48 48" xml:space="preserve">
<g>
	<path d="M40.794,36.48h-9.815c-0.553,0-1-0.447-1-1s0.447-1,1-1h9.815c0.553,0,1,0.447,1,1S41.347,36.48,40.794,36.48z"/>
	<path d="M19.747,17.702c-4.829,0-8.757-3.88-8.757-8.649c0-4.771,3.928-8.651,8.757-8.651c4.827,0,8.754,3.881,8.754,8.651
		C28.501,13.822,24.574,17.702,19.747,17.702z M19.747,2.402c-3.726,0-6.757,2.984-6.757,6.651c0,3.666,3.031,6.649,6.757,6.649
		c3.724,0,6.754-2.983,6.754-6.649C26.501,5.386,23.471,2.402,19.747,2.402z"/>
	<path d="M35.889,47.598c-6.682,0-12.117-5.437-12.117-12.119c0-6.679,5.436-12.112,12.117-12.112c3.233,0,6.274,1.26,8.563,3.548
		C46.739,29.203,48,32.244,48,35.479C48,42.161,42.566,47.598,35.889,47.598z M35.891,25.366c-5.58,0-10.119,4.536-10.119,10.112
		c0,5.58,4.538,10.119,10.117,10.119C41.464,45.598,46,41.059,46,35.479C46,29.902,41.465,25.366,35.891,25.366z"/>
	<path d="M25.357,39.896H1c-0.552,0-1-0.447-1-1c0-5.209,2.056-10.106,5.788-13.788c3.729-3.678,8.686-5.704,13.958-5.704
		c0.001,0,0.001,0,0.002,0c4.801,0,9.438,1.739,13.059,4.896c0.268,0.233,0.392,0.591,0.325,0.939
		c-0.065,0.349-0.311,0.636-0.645,0.756c-4.017,1.441-6.715,5.252-6.715,9.482c0,0.981,0.176,1.998,0.537,3.108
		c0.099,0.305,0.046,0.639-0.142,0.897C25.979,39.743,25.678,39.896,25.357,39.896z M2.028,37.896h22.018
		c-0.185-0.83-0.275-1.63-0.275-2.418c0-4.495,2.538-8.595,6.464-10.67c-3.04-2.205-6.708-3.404-10.488-3.404c0,0-0.001,0-0.002,0
		c-4.743,0-9.201,1.821-12.553,5.127C4.084,29.599,2.272,33.603,2.028,37.896z"/>
</g>
</svg>
