<?xml version="1.0" encoding="utf-8"?>
<!-- Generator: Adobe Illustrator 16.0.0, SVG Export Plug-In . SVG Version: 6.00 Build 0)  -->
<!DOCTYPE svg PUBLIC "-//W3C//DTD SVG 1.1//EN" "http://www.w3.org/Graphics/SVG/1.1/DTD/svg11.dtd">
<svg version="1.1" id="Layer_1" xmlns="http://www.w3.org/2000/svg" xmlns:xlink="http://www.w3.org/1999/xlink" x="0px" y="0px"
	 width="48px" height="48px" viewBox="0 0 48 48" enable-background="new 0 0 48 48" xml:space="preserve">
<g>
	<path d="M34.305,40.771c-0.271,0-0.53-0.11-0.719-0.305l-4.902-5.072c-0.384-0.397-0.373-1.03,0.023-1.414
		c0.397-0.383,1.031-0.374,1.414,0.023l4.173,4.317l7.341-7.816c0.378-0.403,1.01-0.422,1.413-0.044
		c0.402,0.378,0.423,1.011,0.044,1.413l-8.059,8.582c-0.187,0.199-0.447,0.313-0.722,0.315
		C34.31,40.771,34.307,40.771,34.305,40.771z"/>
	<path d="M19.748,17.703c-4.829,0-8.758-3.879-8.758-8.648c0-4.77,3.929-8.65,8.758-8.65c4.825,0,8.751,3.88,8.751,8.65
		C28.499,13.824,24.573,17.703,19.748,17.703z M19.748,2.405c-3.726,0-6.758,2.983-6.758,6.65c0,3.666,3.032,6.648,6.758,6.648
		c3.723,0,6.751-2.982,6.751-6.648C26.499,5.388,23.471,2.405,19.748,2.405z"/>
	<path d="M35.887,47.596c-6.68,0-12.113-5.436-12.113-12.117c0-6.68,5.434-12.114,12.113-12.114S48,28.799,48,35.479
		C48,42.16,42.566,47.596,35.887,47.596z M35.887,25.364c-5.576,0-10.113,4.537-10.113,10.114c0,5.579,4.537,10.117,10.113,10.117
		S46,41.058,46,35.479C46,29.901,41.463,25.364,35.887,25.364z"/>
	<path d="M25.355,39.895H1c-0.552,0-1-0.447-1-1c0-5.209,2.055-10.104,5.787-13.786c3.728-3.678,8.686-5.704,13.958-5.704
		c0.001,0,0.001,0,0.002,0c4.798,0,9.436,1.739,13.061,4.896c0.268,0.232,0.392,0.59,0.325,0.938
		c-0.065,0.349-0.311,0.637-0.645,0.757c-4.018,1.441-6.717,5.252-6.717,9.482c0,0.978,0.175,1.994,0.535,3.108
		c0.099,0.305,0.046,0.638-0.143,0.896C25.976,39.741,25.676,39.895,25.355,39.895z M2.028,37.895h22.018
		c-0.184-0.831-0.274-1.63-0.274-2.416c0-4.496,2.538-8.595,6.465-10.67c-3.043-2.205-6.711-3.404-10.489-3.404c0,0-0.001,0-0.002,0
		c-4.744,0-9.202,1.821-12.554,5.127C4.084,29.598,2.272,33.601,2.028,37.895z"/>
</g>
</svg>
