<?xml version="1.0" encoding="utf-8"?>
<!-- Generator: Adobe Illustrator 16.0.0, SVG Export Plug-In . SVG Version: 6.00 Build 0)  -->
<!DOCTYPE svg PUBLIC "-//W3C//DTD SVG 1.1//EN" "http://www.w3.org/Graphics/SVG/1.1/DTD/svg11.dtd">
<svg version="1.1" id="Layer_1" xmlns="http://www.w3.org/2000/svg" xmlns:xlink="http://www.w3.org/1999/xlink" x="0px" y="0px"
	 width="48px" height="48px" viewBox="0 0 48 48" enable-background="new 0 0 48 48" xml:space="preserve">
<g>
	<path d="M29.651,45.441c-0.197,0-0.396-0.058-0.57-0.179c-0.453-0.315-0.565-0.938-0.25-1.393l12.463-17.924
		c0.315-0.454,0.938-0.565,1.393-0.25c0.453,0.315,0.565,0.938,0.25,1.393L30.474,45.013C30.279,45.292,29.968,45.441,29.651,45.441
		z"/>
	<path d="M19.748,17.703c-4.829,0-8.757-3.879-8.757-8.648c0-4.77,3.928-8.65,8.757-8.65c4.827,0,8.754,3.88,8.754,8.65
		C28.502,13.824,24.575,17.703,19.748,17.703z M19.748,2.405c-3.726,0-6.757,2.983-6.757,6.65c0,3.666,3.031,6.648,6.757,6.648
		c3.724,0,6.754-2.982,6.754-6.648C26.502,5.388,23.472,2.405,19.748,2.405z"/>
	<path d="M35.889,47.596c-6.682,0-12.117-5.436-12.117-12.117c0-6.68,5.436-12.113,12.117-12.113C42.566,23.365,48,28.799,48,35.479
		C48,42.16,42.566,47.596,35.889,47.596z M35.889,25.365c-5.579,0-10.117,4.537-10.117,10.113c0,5.579,4.538,10.117,10.117,10.117
		C41.464,45.596,46,41.058,46,35.479C46,29.902,41.464,25.365,35.889,25.365z"/>
	<path d="M25.357,39.895H1c-0.552,0-1-0.447-1-1c0-5.208,2.056-10.104,5.789-13.786c3.729-3.678,8.686-5.704,13.957-5.704
		c0.001,0,0.001,0,0.002,0c4.796,0,9.434,1.739,13.059,4.896c0.268,0.233,0.393,0.59,0.326,0.939
		c-0.065,0.349-0.311,0.637-0.645,0.757c-4.018,1.44-6.717,5.251-6.717,9.482c0,0.972,0.176,1.988,0.537,3.108
		c0.099,0.305,0.046,0.638-0.143,0.896C25.978,39.741,25.677,39.895,25.357,39.895z M2.028,37.895h22.02
		c-0.186-0.834-0.276-1.633-0.276-2.416c0-4.496,2.538-8.595,6.464-10.67c-3.043-2.205-6.711-3.404-10.487-3.404
		c0,0-0.001,0-0.002,0c-4.742,0-9.2,1.821-12.553,5.127C4.084,29.599,2.272,33.602,2.028,37.895z"/>
</g>
</svg>
