<?xml version="1.0" encoding="utf-8"?>
<!-- Generator: Adobe Illustrator 16.0.0, SVG Export Plug-In . SVG Version: 6.00 Build 0)  -->
<!DOCTYPE svg PUBLIC "-//W3C//DTD SVG 1.1//EN" "http://www.w3.org/Graphics/SVG/1.1/DTD/svg11.dtd">
<svg version="1.1" id="Layer_1" xmlns="http://www.w3.org/2000/svg" xmlns:xlink="http://www.w3.org/1999/xlink" x="0px" y="0px"
	 width="48px" height="48px" viewBox="0 0 48 48" enable-background="new 0 0 48 48" xml:space="preserve">
<g>
	<path d="M23.999,27.877c-0.552,0-1-0.447-1-1V11.453c0-0.552,0.448-1,1-1c0.553,0,1,0.448,1,1v15.424
		C24.999,27.43,24.552,27.877,23.999,27.877z"/>
	<path d="M25.6,33.667c0,0.885-0.717,1.604-1.601,1.604c-0.887,0-1.606-0.72-1.606-1.604c0-0.884,0.719-1.606,1.606-1.606
		C24.883,32.061,25.6,32.783,25.6,33.667"/>
	<path d="M24,48C10.767,48,0,37.233,0,24S10.767,0,24,0s24,10.767,24,24S37.233,48,24,48z M24,2C11.869,2,2,11.869,2,24
		s9.869,22,22,22s22-9.869,22-22S36.131,2,24,2z"/>
</g>
</svg>
