<?xml version="1.0" encoding="utf-8"?>
<!-- Generator: Adobe Illustrator 16.0.0, SVG Export Plug-In . SVG Version: 6.00 Build 0)  -->
<!DOCTYPE svg PUBLIC "-//W3C//DTD SVG 1.1//EN" "http://www.w3.org/Graphics/SVG/1.1/DTD/svg11.dtd">
<svg version="1.1" id="Layer_1" xmlns="http://www.w3.org/2000/svg" xmlns:xlink="http://www.w3.org/1999/xlink" x="0px" y="0px"
	 width="48px" height="48px" viewBox="0 0 48 48" enable-background="new 0 0 48 48" xml:space="preserve">
<g>
	<g>
		<path d="M35.896,37.273c-0.553,0-1-0.447-1-1v-6.883c0-0.553,0.447-1,1-1s1,0.447,1,1v6.883
			C36.896,36.826,36.449,37.273,35.896,37.273z"/>
		<path d="M35.878,42.566c-0.553,0-1-0.447-1-1v-1.311c0-0.553,0.447-1,1-1s1,0.447,1,1v1.311
			C36.878,42.119,36.431,42.566,35.878,42.566z"/>
	</g>
	<path d="M19.749,17.7c-4.833,0-8.765-3.879-8.765-8.647c0-4.769,3.932-8.648,8.765-8.648c4.828,0,8.756,3.88,8.756,8.648
		C28.505,13.821,24.577,17.7,19.749,17.7z M19.749,2.405c-3.73,0-6.765,2.982-6.765,6.648c0,3.665,3.035,6.647,6.765,6.647
		c3.725,0,6.756-2.982,6.756-6.647C26.505,5.387,23.474,2.405,19.749,2.405z"/>
	<path d="M35.891,47.596c-6.681,0-12.115-5.436-12.115-12.117s5.435-12.117,12.115-12.117C42.567,23.363,48,28.799,48,35.479
		C48,42.16,42.567,47.596,35.891,47.596z M35.891,25.361c-5.577,0-10.115,4.539-10.115,10.117c0,5.579,4.538,10.117,10.115,10.117
		C41.465,45.596,46,41.058,46,35.479C46,29.901,41.465,25.362,35.891,25.361z"/>
	<path d="M25.357,39.896H1c-0.552,0-1-0.447-1-1c0-10.749,8.859-19.495,19.749-19.495c4.795,0,9.433,1.739,13.06,4.896
		c0.268,0.233,0.393,0.59,0.326,0.94c-0.065,0.349-0.312,0.636-0.646,0.756c-4.017,1.438-6.716,5.25-6.716,9.484
		c0,0.971,0.176,1.988,0.536,3.112c0.098,0.304,0.044,0.637-0.145,0.895C25.978,39.744,25.677,39.896,25.357,39.896z M2.029,37.896
		h22.021c-0.185-0.836-0.276-1.635-0.276-2.418c0-4.499,2.538-8.599,6.464-10.672c-3.045-2.205-6.713-3.405-10.488-3.405
		C10.303,21.402,2.556,28.713,2.029,37.896z"/>
</g>
</svg>
