<?xml version="1.0" encoding="utf-8"?>
<!-- Generator: Adobe Illustrator 16.0.0, SVG Export Plug-In . SVG Version: 6.00 Build 0)  -->
<!DOCTYPE svg PUBLIC "-//W3C//DTD SVG 1.1//EN" "http://www.w3.org/Graphics/SVG/1.1/DTD/svg11.dtd">
<svg version="1.1" id="Layer_1" xmlns="http://www.w3.org/2000/svg" xmlns:xlink="http://www.w3.org/1999/xlink" x="0px" y="0px"
	 width="48px" height="48px" viewBox="0 0 48 48" enable-background="new 0 0 48 48" xml:space="preserve">
<g>
	<path d="M41.197,40.461c-0.158,0-0.318-0.037-0.468-0.116l-4.503-2.389c-0.327-0.174-0.531-0.514-0.531-0.884v-7.141
		c0-0.553,0.447-1,1-1s1,0.447,1,1v6.539l3.972,2.106c0.487,0.259,0.674,0.864,0.415,1.353
		C41.902,40.269,41.556,40.461,41.197,40.461z"/>
	<path d="M19.749,17.699c-4.833,0-8.764-3.88-8.764-8.648c0-4.768,3.932-8.647,8.764-8.647c4.827,0,8.754,3.879,8.754,8.647
		C28.503,13.819,24.576,17.699,19.749,17.699z M19.749,2.404c-3.73,0-6.764,2.982-6.764,6.647c0,3.666,3.034,6.648,6.764,6.648
		c3.724,0,6.754-2.982,6.754-6.648C26.503,5.386,23.473,2.404,19.749,2.404z"/>
	<path d="M35.889,47.596c-6.681,0-12.115-5.436-12.115-12.117s5.435-12.117,12.115-12.117C42.567,23.363,48,28.799,48,35.479
		C48,42.16,42.566,47.596,35.889,47.596z M35.889,25.361c-5.577,0-10.115,4.539-10.115,10.117c0,5.579,4.538,10.117,10.115,10.117
		C41.464,45.596,46,41.058,46,35.479C46,29.901,41.464,25.362,35.889,25.361z"/>
	<path d="M25.355,39.896H1c-0.552,0-1-0.447-1-1c0-10.749,8.859-19.495,19.748-19.496c4.792,0,9.431,1.739,13.061,4.896
		c0.268,0.233,0.393,0.59,0.326,0.939c-0.065,0.349-0.311,0.637-0.645,0.757c-4.018,1.44-6.717,5.253-6.717,9.486
		c0,0.972,0.175,1.99,0.534,3.113c0.098,0.304,0.044,0.637-0.145,0.895S25.675,39.896,25.355,39.896z M2.029,37.896h22.02
		c-0.185-0.835-0.275-1.635-0.275-2.418c0-4.498,2.538-8.598,6.464-10.673c-3.047-2.206-6.715-3.405-10.489-3.405
		C10.302,21.402,2.556,28.714,2.029,37.896z"/>
</g>
</svg>
