<?xml version="1.0" encoding="utf-8"?>
<!-- Generator: Adobe Illustrator 16.0.0, SVG Export Plug-In . SVG Version: 6.00 Build 0)  -->
<!DOCTYPE svg PUBLIC "-//W3C//DTD SVG 1.1//EN" "http://www.w3.org/Graphics/SVG/1.1/DTD/svg11.dtd">
<svg version="1.1" id="Layer_1" xmlns="http://www.w3.org/2000/svg" xmlns:xlink="http://www.w3.org/1999/xlink" x="0px" y="0px"
	 width="48px" height="48px" viewBox="0 0 48 48" enable-background="new 0 0 48 48" xml:space="preserve">
<g>
	<g>
		<path d="M38.638,40.639c-1.528,0-3.031-0.504-4.243-1.542c-1.308-1.118-2.104-2.716-2.241-4.497
			c-0.149-1.938,0.514-3.922,1.818-5.442l3.291-3.838c0.36-0.419,0.99-0.467,1.41-0.107c0.419,0.359,0.467,0.99,0.107,1.41
			l-3.291,3.838c-0.962,1.12-1.451,2.573-1.342,3.986c0.097,1.248,0.646,2.359,1.548,3.131c2.004,1.717,5.177,1.314,7.073-0.898
			l3.288-3.845c0.359-0.419,0.992-0.467,1.41-0.109c0.419,0.358,0.469,0.99,0.109,1.41l-3.289,3.846
			C42.789,39.729,40.69,40.639,38.638,40.639z"/>
		<path d="M27.62,48c-0.23,0-0.462-0.079-0.65-0.24c-0.42-0.36-0.469-0.991-0.109-1.41l7.425-8.663
			c0.361-0.421,0.992-0.467,1.41-0.109c0.42,0.36,0.469,0.991,0.109,1.41L28.38,47.65C28.182,47.882,27.901,48,27.62,48z"/>
	</g>
	<path d="M20.698,17.927c-5.004,0-9.075-4.021-9.075-8.963C11.623,4.021,15.694,0,20.698,0s9.075,4.021,9.075,8.964
		C29.773,13.906,25.702,17.927,20.698,17.927z M20.698,2c-3.901,0-7.075,3.124-7.075,6.964c0,3.839,3.174,6.963,7.075,6.963
		s7.075-3.124,7.075-6.963C27.773,5.124,24.6,2,20.698,2z"/>
	<path d="M22.631,41.043H1.182c-0.552,0-1-0.447-1-1c0-11.171,9.204-20.259,20.516-20.259c4.115,0,8.101,1.213,11.523,3.508
		c0.459,0.308,0.581,0.929,0.274,1.387c-0.309,0.459-0.929,0.582-1.388,0.274c-3.093-2.074-6.692-3.17-10.41-3.17
		c-9.87,0-17.96,7.654-18.489,17.259h20.421c0.552,0,1,0.447,1,1S23.183,41.043,22.631,41.043z"/>
</g>
</svg>
