<?xml version="1.0" encoding="utf-8"?>
<!-- Generator: Adobe Illustrator 16.0.0, SVG Export Plug-In . SVG Version: 6.00 Build 0)  -->
<!DOCTYPE svg PUBLIC "-//W3C//DTD SVG 1.1//EN" "http://www.w3.org/Graphics/SVG/1.1/DTD/svg11.dtd">
<svg version="1.1" id="Layer_1" xmlns="http://www.w3.org/2000/svg" xmlns:xlink="http://www.w3.org/1999/xlink" x="0px" y="0px"
	 width="48px" height="48px" viewBox="0 0 48 48" enable-background="new 0 0 48 48" xml:space="preserve">
<g>
	<g>
		<path d="M35.8,41.09c-0.125,0-0.251-0.002-0.378-0.008c-4.926-0.212-8.761-4.398-8.549-9.332c0.212-4.938,4.359-8.779,9.312-8.561
			c2.385,0.1,4.59,1.124,6.207,2.885c1.617,1.76,2.451,4.044,2.348,6.432C44.538,37.319,40.611,41.09,35.8,41.09z M35.787,25.181
			c-3.718,0-6.756,2.923-6.916,6.655c-0.164,3.832,2.813,7.083,6.636,7.248c3.828,0.155,7.074-2.825,7.234-6.663
			c0.08-1.854-0.567-3.628-1.822-4.994c-1.256-1.367-2.967-2.162-4.82-2.239C35.993,25.183,35.89,25.181,35.787,25.181z"/>
		<path d="M46.329,48c-0.317,0-0.63-0.151-0.824-0.433l-5.77-8.364c-0.313-0.454-0.199-1.077,0.256-1.391
			c0.453-0.313,1.076-0.198,1.391,0.256l5.77,8.364c0.313,0.454,0.199,1.077-0.256,1.391C46.723,47.942,46.524,48,46.329,48z"/>
	</g>
	<path d="M21.086,17.84c-4.982,0-9.036-4.001-9.036-8.92S16.104,0,21.086,0c4.98,0,9.033,4.001,9.033,8.92
		S26.066,17.84,21.086,17.84z M21.086,2c-3.88,0-7.036,3.104-7.036,6.92s3.156,6.92,7.036,6.92c3.878,0,7.033-3.104,7.033-6.92
		S24.964,2,21.086,2z"/>
	<path d="M23.002,40.826H1.672c-0.552,0-1-0.447-1-1c0-11.111,9.158-20.151,20.414-20.151c2.894,0,5.697,0.594,8.334,1.765
		c0.505,0.225,0.731,0.815,0.508,1.32c-0.225,0.504-0.814,0.733-1.32,0.508c-2.379-1.057-4.909-1.593-7.521-1.593
		c-9.813,0-17.858,7.605-18.386,17.151h20.302c0.552,0,1,0.447,1,1S23.554,40.826,23.002,40.826z"/>
</g>
</svg>
