<?xml version="1.0" encoding="utf-8"?>
<!-- Generator: Adobe Illustrator 16.0.0, SVG Export Plug-In . SVG Version: 6.00 Build 0)  -->
<!DOCTYPE svg PUBLIC "-//W3C//DTD SVG 1.1//EN" "http://www.w3.org/Graphics/SVG/1.1/DTD/svg11.dtd">
<svg version="1.1" id="Layer_1" xmlns="http://www.w3.org/2000/svg" xmlns:xlink="http://www.w3.org/1999/xlink" x="0px" y="0px"
	 width="48px" height="48px" viewBox="0 0 48 48" enable-background="new 0 0 48 48" xml:space="preserve">
<g>
	<path d="M19.747,17.699c-4.831,0-8.76-3.879-8.76-8.647c0-4.769,3.93-8.649,8.76-8.649c4.828,0,8.757,3.88,8.757,8.649
		C28.504,13.82,24.575,17.699,19.747,17.699z M19.747,2.403c-3.728,0-6.76,2.983-6.76,6.649c0,3.666,3.033,6.647,6.76,6.647
		c3.726,0,6.757-2.982,6.757-6.647C26.504,5.386,23.473,2.403,19.747,2.403z"/>
	<path d="M35.891,47.598c-6.681,0-12.115-5.437-12.115-12.119c0-6.681,5.435-12.116,12.115-12.116c3.233,0,6.274,1.26,8.562,3.548
		C46.74,29.199,48,32.242,48,35.479C48,42.161,42.567,47.598,35.891,47.598z M35.893,25.362c-5.579,0-10.117,4.538-10.117,10.116
		c0,5.58,4.538,10.119,10.115,10.119C41.465,45.598,46,41.059,46,35.479C46,29.9,41.466,25.362,35.893,25.362z"/>
	<path d="M25.355,39.896H1c-0.552,0-1-0.447-1-1c0-10.749,8.858-19.495,19.746-19.495c4.794,0,9.434,1.739,13.063,4.896
		c0.268,0.233,0.393,0.59,0.326,0.939c-0.065,0.35-0.311,0.637-0.646,0.757c-4.016,1.439-6.714,5.251-6.714,9.484
		c0,0.967,0.175,1.986,0.533,3.115c0.097,0.304,0.042,0.636-0.146,0.894C25.975,39.744,25.675,39.896,25.355,39.896z M2.029,37.896
		H24.05c-0.185-0.838-0.275-1.637-0.275-2.418c0-4.498,2.537-8.598,6.461-10.672c-3.046-2.205-6.715-3.405-10.49-3.405
		C10.301,21.402,2.556,28.713,2.029,37.896z"/>
	<path d="M40.281,33.854h-8.975c-0.553,0-1-0.447-1-1s0.447-1,1-1h8.975c0.553,0,1,0.447,1,1S40.834,33.854,40.281,33.854z"/>
	<path d="M40.281,39.896h-8.975c-0.553,0-1-0.447-1-1s0.447-1,1-1h8.975c0.553,0,1,0.447,1,1S40.834,39.896,40.281,39.896z"/>
</g>
</svg>
