<?xml version="1.0" encoding="utf-8"?>
<!-- Generator: Adobe Illustrator 16.0.0, SVG Export Plug-In . SVG Version: 6.00 Build 0)  -->
<!DOCTYPE svg PUBLIC "-//W3C//DTD SVG 1.1//EN" "http://www.w3.org/Graphics/SVG/1.1/DTD/svg11.dtd">
<svg version="1.1" id="Layer_1" xmlns="http://www.w3.org/2000/svg" xmlns:xlink="http://www.w3.org/1999/xlink" x="0px" y="0px"
	 width="48px" height="48px" viewBox="0 0 48 48" enable-background="new 0 0 48 48" xml:space="preserve">
<g>
	<path d="M19.911,17.836c-4.867,0-8.826-3.909-8.826-8.714c0-4.806,3.959-8.716,8.826-8.716c4.864,0,8.821,3.91,8.821,8.716
		C28.732,13.927,24.775,17.836,19.911,17.836z M19.911,2.406c-3.764,0-6.826,3.013-6.826,6.716c0,3.702,3.062,6.714,6.826,6.714
		c3.761,0,6.821-3.012,6.821-6.714C26.732,5.419,23.672,2.406,19.911,2.406z"/>
	<path d="M25.57,40.229H1c-0.552,0-1-0.447-1-1C0,28.39,8.932,19.571,19.911,19.571c2.651,0,5.235,0.516,7.682,1.533
		c0.51,0.212,0.752,0.797,0.54,1.307c-0.213,0.511-0.799,0.751-1.308,0.54c-2.202-0.916-4.528-1.379-6.914-1.379
		c-9.536,0-17.355,7.385-17.883,16.658H25.57c0.553,0,1,0.447,1,1S26.123,40.229,25.57,40.229z"/>
	<g>
		<g>
			<path d="M39.337,45.742c-0.553,0-1-0.447-1-1v-9.656c0-0.553,0.447-1,1-1s1,0.447,1,1v9.656
				C40.337,45.295,39.89,45.742,39.337,45.742z"/>
			<path d="M39.604,47.594c-0.235,0-0.471-0.082-0.66-0.249l-5.49-4.824c-0.415-0.364-0.456-0.996-0.091-1.411
				c0.364-0.415,0.996-0.455,1.411-0.091l4.786,4.205l4.296-4.297c0.391-0.391,1.023-0.391,1.414,0s0.391,1.023,0,1.414l-4.959,4.96
				C40.116,47.495,39.86,47.594,39.604,47.594z"/>
		</g>
		<path d="M39.337,35.434c-4.776,0-8.663-3.886-8.663-8.662c0-4.777,3.887-8.664,8.663-8.664C44.114,18.109,48,21.996,48,26.771
			C48,31.548,44.113,35.434,39.337,35.434z M39.337,20.108c-3.674,0-6.663,2.989-6.663,6.664c0,3.674,2.989,6.662,6.663,6.662
			S46,30.445,46,26.771C46,23.098,43.011,20.109,39.337,20.108z"/>
	</g>
</g>
</svg>
