<?xml version="1.0" encoding="utf-8"?>
<!-- Generator: Adobe Illustrator 16.0.0, SVG Export Plug-In . SVG Version: 6.00 Build 0)  -->
<!DOCTYPE svg PUBLIC "-//W3C//DTD SVG 1.1//EN" "http://www.w3.org/Graphics/SVG/1.1/DTD/svg11.dtd">
<svg version="1.1" id="Layer_1" xmlns="http://www.w3.org/2000/svg" xmlns:xlink="http://www.w3.org/1999/xlink" x="0px" y="0px"
	 width="48px" height="48px" viewBox="0 0 48 48" enable-background="new 0 0 48 48" xml:space="preserve">
<g>
	<path d="M19.91,17.839c-4.867,0-8.827-3.91-8.827-8.715c0-4.807,3.96-8.717,8.827-8.717c2.355,0,4.569,0.905,6.234,2.548
		c1.669,1.646,2.588,3.837,2.588,6.169C28.732,13.929,24.774,17.839,19.91,17.839z M19.912,2.407c-3.766,0-6.829,3.013-6.829,6.717
		c0,3.703,3.063,6.715,6.827,6.715c3.762,0,6.822-3.012,6.822-6.715C26.732,5.42,23.673,2.407,19.912,2.407z"/>
	<path d="M25.566,40.23H1c-0.552,0-1-0.447-1-1c0-10.84,8.932-19.659,19.91-19.659c2.656,0,5.24,0.515,7.681,1.53
		c0.51,0.212,0.752,0.797,0.539,1.308c-0.211,0.51-0.798,0.75-1.307,0.539c-2.196-0.914-4.522-1.376-6.913-1.376
		c-9.535,0-17.354,7.385-17.882,16.659h23.538c0.553,0,1,0.447,1,1S26.119,40.23,25.566,40.23z"/>
	<g>
		<g>
			<path d="M39.336,31.617c-0.553,0-1-0.447-1-1v-9.658c0-0.552,0.447-1,1-1s1,0.448,1,1v9.658
				C40.336,31.17,39.889,31.617,39.336,31.617z"/>
			<path d="M34.111,25.068c-0.256,0.001-0.513-0.098-0.708-0.293c-0.39-0.391-0.39-1.024,0.002-1.414l4.967-4.958
				c0.373-0.374,0.972-0.392,1.367-0.043l5.484,4.827c0.414,0.365,0.454,0.997,0.09,1.411c-0.366,0.415-0.997,0.453-1.412,0.09
				l-4.78-4.208l-4.304,4.295C34.623,24.972,34.367,25.068,34.111,25.068z"/>
		</g>
		<path d="M39.34,47.594c-4.778,0-8.665-3.885-8.665-8.66s3.887-8.66,8.665-8.66c4.775,0,8.66,3.885,8.66,8.66
			S44.115,47.594,39.34,47.594z M39.34,32.273c-3.675,0-6.665,2.987-6.665,6.66s2.99,6.66,6.665,6.66c3.673,0,6.66-2.987,6.66-6.66
			S43.013,32.273,39.34,32.273z"/>
	</g>
</g>
</svg>
