<?xml version="1.0" encoding="utf-8"?>
<!-- Generator: Adobe Illustrator 16.0.0, SVG Export Plug-In . SVG Version: 6.00 Build 0)  -->
<!DOCTYPE svg PUBLIC "-//W3C//DTD SVG 1.1//EN" "http://www.w3.org/Graphics/SVG/1.1/DTD/svg11.dtd">
<svg version="1.1" id="Layer_1" xmlns="http://www.w3.org/2000/svg" xmlns:xlink="http://www.w3.org/1999/xlink" x="0px" y="0px"
	 width="48px" height="48px" viewBox="0 0 48 48" enable-background="new 0 0 48 48" xml:space="preserve">
<g>
	<g>
		<path d="M23.999,15.911c-4.439,0-8.051-3.569-8.051-7.955C15.948,3.569,19.56,0,23.999,0s8.052,3.569,8.052,7.956
			C32.051,12.342,28.438,15.911,23.999,15.911z M23.999,2c-3.336,0-6.051,2.672-6.051,5.956c0,3.284,2.714,5.955,6.051,5.955
			c3.337,0,6.052-2.671,6.052-5.955C30.051,4.672,27.336,2,23.999,2z"/>
		<path d="M41.038,36.075H6.962c-0.552,0-1-0.447-1-1c0-9.813,8.091-17.797,18.037-17.797c9.946,0,18.039,7.984,18.039,17.797
			C42.038,35.628,41.591,36.075,41.038,36.075z M7.994,34.075h32.012c-0.525-8.246-7.504-14.797-16.007-14.797
			C15.497,19.278,8.52,25.829,7.994,34.075z"/>
	</g>
	<path d="M23.999,48C10.643,48,0.18,43.49,0.18,37.732c0-1.236,0.463-2.433,1.377-3.555c0.349-0.43,0.979-0.494,1.407-0.145
		c0.428,0.349,0.493,0.979,0.144,1.406c-0.616,0.758-0.928,1.528-0.928,2.293C2.18,41.725,10.948,46,23.999,46
		c13.052,0,21.819-4.275,21.819-8.268c0-0.969-0.5-1.938-1.486-2.883c-0.399-0.383-0.413-1.016-0.031-1.414
		c0.384-0.399,1.018-0.413,1.414-0.031c1.396,1.337,2.104,2.793,2.104,4.328C47.818,43.49,37.355,48,23.999,48z"/>
</g>
</svg>
