<?xml version="1.0" encoding="utf-8"?>
<!-- Generator: Adobe Illustrator 16.0.0, SVG Export Plug-In . SVG Version: 6.00 Build 0)  -->
<!DOCTYPE svg PUBLIC "-//W3C//DTD SVG 1.1//EN" "http://www.w3.org/Graphics/SVG/1.1/DTD/svg11.dtd">
<svg version="1.1" id="Layer_1" xmlns="http://www.w3.org/2000/svg" xmlns:xlink="http://www.w3.org/1999/xlink" x="0px" y="0px"
	 width="48px" height="48px" viewBox="0 0 48 48" enable-background="new 0 0 48 48" xml:space="preserve">
<g>
	<g>
		<path d="M23.997,48c-8.48,0-15.379-8.073-15.379-17.997c0-3.607,0.905-7.084,2.618-10.054c0.276-0.479,0.887-0.644,1.366-0.367
			c0.479,0.276,0.643,0.887,0.367,1.366c-1.538,2.667-2.35,5.797-2.35,9.055C10.618,38.824,16.62,46,23.997,46
			c7.381,0,13.385-7.176,13.385-15.997c0-3.314-0.844-6.498-2.44-9.206c-0.28-0.476-0.122-1.089,0.354-1.369
			c0.474-0.281,1.088-0.123,1.369,0.354c1.778,3.016,2.718,6.551,2.718,10.222C39.382,39.927,32.48,48,23.997,48z"/>
		<path d="M31.658,22.093H16.34c-2.126,0-3.729-0.768-4.512-2.161c-0.783-1.393-0.607-3.159,0.496-4.972l7.405-12.165
			C20.826,0.993,22.342,0,23.999,0c1.657,0,3.173,0.992,4.271,2.794l7.399,12.165c1.104,1.814,1.282,3.581,0.5,4.973
			C35.387,21.326,33.784,22.093,31.658,22.093z M23.999,2c-0.932,0-1.841,0.651-2.562,1.834l-7.405,12.164
			c-0.7,1.152-0.869,2.228-0.461,2.953c0.408,0.725,1.417,1.141,2.769,1.141h15.318c1.352,0,2.36-0.416,2.768-1.14
			c0.406-0.724,0.237-1.8-0.466-2.954L26.561,3.834C25.84,2.652,24.931,2,23.999,2z"/>
		<g>
			<path d="M9.67,36.374c-0.124,0-0.249-0.022-0.371-0.071c-3.75-1.498-6.268-5.938-6.57-11.587c-0.092-1.736,0.402-2.94,1.47-3.581
				c2.301-1.381,6.15,0.802,6.898,1.254c0.472,0.285,0.624,0.899,0.339,1.372c-0.284,0.473-0.899,0.626-1.372,0.34
				c-1.395-0.838-3.894-1.815-4.837-1.251c-0.476,0.286-0.535,1.115-0.501,1.759c0.256,4.787,2.343,8.648,5.315,9.836
				c0.513,0.205,0.762,0.787,0.558,1.3C10.443,36.136,10.067,36.374,9.67,36.374z"/>
			<path d="M38.326,36.374c-0.396,0-0.772-0.237-0.929-0.629c-0.205-0.513,0.045-1.095,0.558-1.3
				c2.974-1.189,5.063-5.051,5.319-9.837c0.034-0.644-0.025-1.472-0.502-1.758c-0.94-0.563-3.442,0.413-4.837,1.251
				c-0.476,0.283-1.087,0.133-1.373-0.34c-0.284-0.473-0.133-1.087,0.34-1.372c0.748-0.451,4.598-2.635,6.897-1.255
				c1.068,0.641,1.563,1.845,1.473,3.581c-0.305,5.647-2.823,10.087-6.575,11.588C38.576,36.352,38.45,36.374,38.326,36.374z"/>
		</g>
	</g>
	<g>
		<path d="M20.132,27.749c0,0.753-0.605,1.36-1.35,1.36c-0.755,0-1.362-0.607-1.362-1.36c0-0.749,0.606-1.356,1.362-1.356
			C19.526,26.393,20.132,27,20.132,27.749z"/>
		<path d="M30.576,27.749c0,0.753-0.604,1.36-1.352,1.36c-0.754,0-1.358-0.607-1.358-1.36c0-0.749,0.604-1.356,1.358-1.356
			C29.975,26.393,30.576,27,30.576,27.749z"/>
	</g>
	<path d="M23.894,39.438c-3.513,0-5.825-2.043-5.86-2.073c-0.409-0.371-0.44-1.004-0.069-1.413c0.37-0.408,1.001-0.439,1.41-0.071
		c0.178,0.156,4.068,3.503,9.354-0.084c0.457-0.312,1.079-0.191,1.389,0.266c0.311,0.457,0.191,1.079-0.266,1.389
		C27.66,38.938,25.63,39.438,23.894,39.438z"/>
</g>
</svg>
