<?xml version="1.0" encoding="utf-8"?>
<!-- Generator: Adobe Illustrator 16.0.0, SVG Export Plug-In . SVG Version: 6.00 Build 0)  -->
<!DOCTYPE svg PUBLIC "-//W3C//DTD SVG 1.1//EN" "http://www.w3.org/Graphics/SVG/1.1/DTD/svg11.dtd">
<svg version="1.1" id="Layer_1" xmlns="http://www.w3.org/2000/svg" xmlns:xlink="http://www.w3.org/1999/xlink" x="0px" y="0px"
	 width="48px" height="48px" viewBox="0 0 48 48" enable-background="new 0 0 48 48" xml:space="preserve">
<g>
	<g>
		<path d="M15.318,38.075c-0.276,0-0.551-0.113-0.749-0.336c-2.668-3.009-4.138-7.056-4.138-11.396c0-3.17,0.796-6.229,2.303-8.846
			c0.276-0.478,0.888-0.642,1.366-0.368c0.479,0.276,0.643,0.887,0.368,1.366c-1.333,2.313-2.037,5.027-2.037,7.848
			c0,3.852,1.291,7.427,3.634,10.068c0.367,0.414,0.329,1.046-0.084,1.412C15.791,37.992,15.554,38.075,15.318,38.075z"/>
		<path d="M32.74,38.014c-0.233,0-0.468-0.081-0.658-0.247c-0.416-0.363-0.458-0.995-0.095-1.411
			c2.307-2.641,3.577-6.197,3.577-10.013c0-2.872-0.729-5.631-2.11-7.98c-0.279-0.476-0.12-1.089,0.355-1.369
			c0.476-0.279,1.089-0.12,1.369,0.355c1.561,2.656,2.386,5.766,2.386,8.994c0,4.3-1.445,8.323-4.071,11.329
			C33.296,37.897,33.019,38.014,32.74,38.014z"/>
		<path d="M30.689,19.559h-13.38c-1.907,0-3.346-0.693-4.054-1.953c-0.708-1.258-0.553-2.847,0.437-4.474l6.47-10.625
			C21.143,0.891,22.505,0,23.998,0c1.492,0,2.856,0.89,3.841,2.506L34.3,13.132c0.992,1.623,1.15,3.212,0.443,4.472
			C34.036,18.865,32.597,19.559,30.689,19.559z M23.998,2c-0.767,0-1.522,0.549-2.127,1.546L15.4,14.172
			c-0.588,0.967-0.735,1.862-0.402,2.455c0.333,0.593,1.176,0.933,2.311,0.933h13.38c1.135,0,1.977-0.34,2.31-0.934
			c0.332-0.592,0.184-1.486-0.407-2.452L26.13,3.546C25.522,2.549,24.766,2,23.998,2z"/>
		<g>
			<path d="M11.481,32.032c-0.124,0-0.25-0.022-0.372-0.072c-3.323-1.331-5.554-5.253-5.823-10.235
				c-0.102-1.952,0.677-2.84,1.348-3.242c2.073-1.242,5.492,0.702,6.156,1.104c0.472,0.286,0.623,0.9,0.337,1.373
				c-0.286,0.471-0.901,0.623-1.373,0.339c-1.193-0.718-3.319-1.563-4.095-1.099c-0.381,0.229-0.4,0.987-0.377,1.419
				c0.271,5.019,2.631,7.708,4.57,8.486c0.513,0.205,0.762,0.787,0.556,1.3C12.253,31.795,11.878,32.032,11.481,32.032z"/>
			<path d="M36.52,32.032c-0.396,0-0.771-0.237-0.928-0.628c-0.206-0.513,0.043-1.095,0.556-1.3
				c1.938-0.778,4.297-3.468,4.568-8.488c0.023-0.431,0.006-1.189-0.375-1.417c-0.744-0.448-2.858,0.35-4.097,1.099
				c-0.476,0.286-1.089,0.133-1.373-0.338c-0.286-0.473-0.135-1.087,0.338-1.373c0.665-0.402,4.087-2.345,6.16-1.103
				c0.671,0.402,1.448,1.291,1.345,3.24c-0.271,4.982-2.501,8.904-5.822,10.236C36.77,32.01,36.644,32.032,36.52,32.032z"/>
		</g>
	</g>
	<g>
		<path d="M20.624,24.374c0,0.657-0.529,1.185-1.184,1.185c-0.661,0-1.19-0.527-1.19-1.185c0-0.653,0.53-1.184,1.19-1.184
			C20.095,23.189,20.624,23.72,20.624,24.374z"/>
		<path d="M29.749,24.374c0,0.657-0.528,1.185-1.181,1.185c-0.661,0-1.19-0.527-1.19-1.185c0-0.653,0.529-1.184,1.19-1.184
			C29.221,23.189,29.749,23.72,29.749,24.374z"/>
	</g>
	<path d="M23.901,35.307c-1.747,0-3.138-0.745-3.834-1.377c-0.409-0.371-0.44-1.003-0.069-1.412c0.37-0.407,0.997-0.439,1.407-0.074
		c0.096,0.085,2.292,1.955,5.296-0.082c0.457-0.31,1.079-0.19,1.39,0.267c0.31,0.458,0.19,1.079-0.267,1.39
		C26.426,34.966,25.082,35.307,23.901,35.307z"/>
	<path d="M24.465,48c-3.882,0-10.062-6.324-10.062-11.582c0-5.186,4.308-9.404,9.602-9.404c5.293,0,9.599,4.219,9.599,9.404
		C33.604,41.676,27.99,48,24.465,48z M24.005,29.014c-4.192,0-7.602,3.321-7.602,7.404c0,4.214,5.465,9.582,8.062,9.582
		c2.3,0,7.139-5.368,7.139-9.582C31.604,32.335,28.194,29.014,24.005,29.014z"/>
</g>
</svg>
