<?xml version="1.0" encoding="utf-8"?>
<!-- Generator: Adobe Illustrator 16.0.0, SVG Export Plug-In . SVG Version: 6.00 Build 0)  -->
<!DOCTYPE svg PUBLIC "-//W3C//DTD SVG 1.1//EN" "http://www.w3.org/Graphics/SVG/1.1/DTD/svg11.dtd">
<svg version="1.1" id="Layer_1" xmlns="http://www.w3.org/2000/svg" xmlns:xlink="http://www.w3.org/1999/xlink" x="0px" y="0px"
	 width="48px" height="48px" viewBox="0 0 48 48" enable-background="new 0 0 48 48" xml:space="preserve">
<g>
	<path d="M22.268,8.321c0.015,0.661-0.528,1.204-1.218,1.222c-0.697,0.015-1.268-0.503-1.284-1.167
		c-0.015-0.659,0.532-1.206,1.225-1.224C21.684,7.139,22.256,7.658,22.268,8.321z"/>
	<path d="M27.326,8.205c0.02,0.66-0.521,1.206-1.213,1.221C25.42,9.442,24.843,8.92,24.82,8.26
		c-0.012-0.664,0.537-1.207,1.238-1.222C26.749,7.023,27.313,7.542,27.326,8.205z"/>
	<path d="M25.518,25.291c0.021,0.657-0.526,1.209-1.221,1.223c-0.7,0.014-1.271-0.508-1.286-1.166
		c-0.013-0.664,0.528-1.205,1.229-1.22C24.932,24.109,25.503,24.628,25.518,25.291z"/>
	<path d="M25.669,31.766c0.019,0.656-0.53,1.202-1.221,1.225c-0.7,0.013-1.274-0.504-1.287-1.167
		c-0.015-0.658,0.528-1.205,1.234-1.222C25.083,30.584,25.652,31.104,25.669,31.766z"/>
	<path d="M25.822,38.239c0.016,0.655-0.531,1.206-1.227,1.222c-0.698,0.016-1.27-0.503-1.282-1.168
		c-0.018-0.662,0.532-1.199,1.231-1.22C25.232,37.055,25.805,37.579,25.822,38.239z"/>
	<path d="M23.894,18.956c-5.118,0-9.377-4.154-9.495-9.261c-0.059-2.53,0.874-4.932,2.626-6.763c1.752-1.831,4.114-2.871,6.65-2.929
		L23.902,0c5.111,0,9.368,4.154,9.49,9.259c0.059,2.532-0.874,4.935-2.626,6.766c-1.752,1.831-4.114,2.871-6.652,2.928
		L23.894,18.956z M23.902,2l-0.18,0.002c-2.003,0.046-3.869,0.868-5.252,2.313c-1.382,1.444-2.118,3.339-2.072,5.334
		c0.093,4.029,3.456,7.307,7.496,7.307l0.175-0.002c2.004-0.046,3.87-0.867,5.253-2.312c1.382-1.444,2.117-3.339,2.07-5.336
		C31.297,5.277,27.937,2,23.902,2z"/>
	<path d="M9.286,48.022l-0.023-0.999c-0.183-7.821,1.191-15.227,3.869-20.853c2.783-5.845,6.667-9.118,10.937-9.216l0.197-0.002
		c8.583,0,15.604,12.894,15.987,29.353l0.022,1L9.286,48.022z M24.265,18.952l-0.151,0.001c-3.477,0.08-6.735,2.949-9.177,8.078
		c-2.433,5.109-3.733,11.805-3.69,18.945l26.974-0.625C37.623,30.705,31.464,18.952,24.265,18.952z"/>
	<g>
		<path d="M10.048,42.011c-0.232,0-0.466-0.081-0.656-0.245c-1.786-1.554-8.889-12.67-9.218-26.938
			C-0.013,6.739,0.887,4.834,2.297,4.462C3.714,4.082,4.726,5.73,5.001,6.243L5.09,6.472C7,14.082,16.458,19.719,16.553,19.775
			c0.476,0.28,0.635,0.893,0.355,1.369c-0.279,0.476-0.894,0.636-1.369,0.355C15.123,21.254,5.367,15.436,3.185,7.094
			c-0.114-0.19-0.262-0.388-0.39-0.526C2.533,7.142,2.04,9.003,2.173,14.781c0.315,13.625,7.101,24.23,8.532,25.475
			c0.417,0.363,0.461,0.994,0.098,1.411C10.605,41.895,10.328,42.011,10.048,42.011z"/>
		<path d="M39.191,41.331c-0.265,0-0.528-0.104-0.725-0.312c-0.381-0.4-0.364-1.033,0.036-1.413
			c1.37-1.303,7.651-12.187,7.334-25.841c-0.135-5.771-0.712-7.609-1-8.172c-0.121,0.144-0.259,0.348-0.363,0.542
			c-1.797,8.435-11.267,14.697-11.671,14.961c-0.463,0.3-1.083,0.172-1.384-0.291c-0.302-0.462-0.172-1.082,0.29-1.384
			c0.093-0.061,9.276-6.143,10.832-13.819l0.078-0.232c0.25-0.525,1.193-2.209,2.616-1.903c1.425,0.305,2.412,2.166,2.602,10.252
			c0.331,14.301-6.246,25.712-7.957,27.337C39.687,41.24,39.438,41.331,39.191,41.331z"/>
	</g>
</g>
</svg>
