<?xml version="1.0" encoding="utf-8"?>
<!-- Generator: Adobe Illustrator 16.0.0, SVG Export Plug-In . SVG Version: 6.00 Build 0)  -->
<!DOCTYPE svg PUBLIC "-//W3C//DTD SVG 1.1//EN" "http://www.w3.org/Graphics/SVG/1.1/DTD/svg11.dtd">
<svg version="1.1" id="Layer_1" xmlns="http://www.w3.org/2000/svg" xmlns:xlink="http://www.w3.org/1999/xlink" x="0px" y="0px"
	 width="48px" height="48px" viewBox="0 0 48 48" enable-background="new 0 0 48 48" xml:space="preserve">
<g>
	<path d="M39.128,47.998H8.866l-0.299-0.422c-10.151-14.321-10.151-32.831,0-47.153l0.299-0.422h30.262l0.299,0.422
		c10.153,14.323,10.153,32.832,0,47.153L39.128,47.998z M9.904,45.998h28.187c9.261-13.418,9.261-30.578,0-43.997H9.904
		C0.645,15.42,0.645,32.58,9.904,45.998z"/>
	<path d="M33.271,47.998H14.727l-0.256-0.615c-5.927-14.204-5.927-32.562,0-46.767l0.256-0.615h18.545l0.257,0.615
		c5.928,14.206,5.928,32.563,0,46.767L33.271,47.998z M16.064,45.998h15.87c5.397-13.443,5.397-30.553,0-43.997h-15.87
		C10.667,15.445,10.667,32.555,16.064,45.998z"/>
	<g>
		<path d="M47,9.751H1c-0.552,0-1-0.448-1-1s0.448-1,1-1h46c0.553,0,1,0.448,1,1S47.553,9.751,47,9.751z"/>
		<path d="M47,40.247H1c-0.552,0-1-0.447-1-1s0.448-1,1-1h46c0.553,0,1,0.447,1,1S47.553,40.247,47,40.247z"/>
	</g>
	<path d="M23.997,47.135c-0.552,0-1-0.447-1-1V1.864c0-0.552,0.448-1,1-1c0.553,0,1,0.448,1,1v44.271
		C24.997,46.688,24.55,47.135,23.997,47.135z"/>
</g>
</svg>
