<?xml version="1.0" encoding="utf-8"?>
<!-- Generator: Adobe Illustrator 16.0.0, SVG Export Plug-In . SVG Version: 6.00 Build 0)  -->
<!DOCTYPE svg PUBLIC "-//W3C//DTD SVG 1.1//EN" "http://www.w3.org/Graphics/SVG/1.1/DTD/svg11.dtd">
<svg version="1.1" id="Layer_1" xmlns="http://www.w3.org/2000/svg" xmlns:xlink="http://www.w3.org/1999/xlink" x="0px" y="0px"
	 width="48px" height="48px" viewBox="0 0 48 48" enable-background="new 0 0 48 48" xml:space="preserve">
<g>
	<path d="M24.33,32.513c-2.186,0-4.241-0.852-5.786-2.397l-4.887-4.888c-3.72,0.31-7.331-1.031-9.956-3.656
		c-4.926-4.927-4.926-12.943,0-17.87C6.087,1.315,9.261,0,12.637,0c0,0,0,0,0,0c3.375,0,6.549,1.314,8.936,3.701
		c2.641,2.642,3.958,6.247,3.656,9.956l4.887,4.887c3.19,3.191,3.19,8.382,0.001,11.571C28.57,31.661,26.516,32.513,24.33,32.513z
		 M14.029,23.186c0.264,0,0.519,0.104,0.707,0.293l5.222,5.222c1.168,1.168,2.721,1.812,4.372,1.812s3.204-0.644,4.372-1.812
		c2.41-2.41,2.409-6.332-0.001-8.743l-5.222-5.222c-0.217-0.217-0.322-0.521-0.286-0.826c0.391-3.268-0.715-6.473-3.036-8.795
		C18.149,3.106,15.478,2,12.637,2S7.124,3.106,5.115,5.115c-4.146,4.147-4.146,10.895,0,15.042c2.306,2.307,5.551,3.422,8.795,3.036
		C13.95,23.188,13.989,23.186,14.029,23.186z"/>
	<path d="M33.358,48c-3.91,0-7.587-1.523-10.352-4.289c-0.517-0.514-1-1.075-1.441-1.675c-4.771,1.877-8.766,1.671-11.036-0.601
		c-3.337-3.335-2.17-10.217,2.973-17.533l1.636,1.15c-4.415,6.281-5.729,12.436-3.195,14.969c1.779,1.779,5.274,1.73,9.588-0.135
		c0.447-0.193,0.968-0.036,1.234,0.371c0.485,0.743,1.041,1.429,1.653,2.037c2.39,2.39,5.564,3.705,8.94,3.705
		s6.551-1.315,8.939-3.703c4.929-4.929,4.929-12.947,0-17.876c-0.624-0.624-1.31-1.181-2.037-1.655
		c-0.408-0.266-0.565-0.788-0.372-1.234c1.864-4.314,1.912-7.809,0.133-9.588c-2.557-2.556-8.768-1.205-15.103,3.289l-1.157-1.631
		c7.371-5.229,14.306-6.435,17.673-3.072c2.271,2.27,2.479,6.264,0.603,11.037c0.59,0.436,1.15,0.918,1.674,1.44
		c5.708,5.708,5.708,14.997,0,20.705C40.945,46.477,37.269,48,33.358,48z M33.358,44.793c-3.054,0-5.925-1.19-8.084-3.351
		c-0.458-0.455-0.888-0.967-1.278-1.521c-0.162-0.229-0.219-0.517-0.159-0.791c0.061-0.274,0.234-0.511,0.478-0.651
		c2.723-1.566,5.479-3.708,7.968-6.194c2.48-2.482,4.623-5.238,6.195-7.967c0.14-0.244,0.376-0.417,0.65-0.478
		c0.273-0.061,0.562-0.003,0.791,0.158c0.548,0.386,1.061,0.815,1.522,1.277c4.457,4.457,4.457,11.709,0,16.166
		C39.284,43.603,36.412,44.793,33.358,44.793z M26.303,39.62c0.125,0.141,0.252,0.275,0.383,0.404
		c0.001,0.001,0.001,0.002,0.002,0.003c1.782,1.783,4.15,2.766,6.671,2.766c2.52,0,4.889-0.982,6.671-2.766
		c3.677-3.678,3.677-9.66,0-13.338c-0.132-0.132-0.269-0.26-0.409-0.385c-1.586,2.549-3.616,5.087-5.922,7.395
		C31.386,36.009,28.849,38.038,26.303,39.62z"/>
</g>
</svg>
