<?xml version="1.0" encoding="utf-8"?>
<!-- Generator: Adobe Illustrator 16.0.0, SVG Export Plug-In . SVG Version: 6.00 Build 0)  -->
<!DOCTYPE svg PUBLIC "-//W3C//DTD SVG 1.1//EN" "http://www.w3.org/Graphics/SVG/1.1/DTD/svg11.dtd">
<svg version="1.1" id="Layer_1" xmlns="http://www.w3.org/2000/svg" xmlns:xlink="http://www.w3.org/1999/xlink" x="0px" y="0px"
	 width="48px" height="48px" viewBox="0 0 48 48" enable-background="new 0 0 48 48" xml:space="preserve">
<g>
	<path d="M24.298,23.068c-0.552,0-1-0.448-1-1V1c0-0.552,0.448-1,1-1c0.553,0,1,0.448,1,1v21.068
		C25.298,22.62,24.851,23.068,24.298,23.068z"/>
	<path d="M8.875,48c-0.141,0-0.285-0.029-0.421-0.093c-0.501-0.233-0.718-0.828-0.485-1.329l8.849-19.037v-5.473
		c0-0.552,0.448-1,1-1h5.882c0.552,0,1,0.448,1,1s-0.448,1-1,1h-4.882v4.694c0,0.146-0.032,0.289-0.093,0.422L9.782,47.422
		C9.612,47.786,9.251,48,8.875,48z"/>
	<path d="M17.018,48c-0.089,0-0.18-0.012-0.271-0.037c-0.532-0.149-0.842-0.701-0.693-1.232l2.338-8.339
		c0.149-0.533,0.699-0.843,1.233-0.693c0.532,0.149,0.842,0.701,0.693,1.232L17.98,47.27C17.856,47.712,17.455,48,17.018,48z"/>
	<path d="M24.298,48c-0.552,0-1-0.447-1-1V32.552c0-0.553,0.448-1,1-1c0.553,0,1,0.447,1,1V47C25.298,47.553,24.851,48,24.298,48z"
		/>
	<path d="M39.127,48c-0.377,0-0.738-0.214-0.908-0.578l-8.942-19.238c-0.061-0.133-0.093-0.276-0.093-0.422v-4.694h-4.886
		c-0.552,0-1-0.448-1-1s0.448-1,1-1h5.886c0.553,0,1,0.448,1,1v5.473l8.85,19.037c0.232,0.501,0.015,1.096-0.485,1.329
		C39.411,47.971,39.268,48,39.127,48z"/>
	<path d="M30.976,48c-0.437,0-0.838-0.289-0.962-0.73l-2.336-8.339c-0.149-0.531,0.161-1.083,0.693-1.232
		c0.527-0.146,1.083,0.161,1.232,0.693l2.336,8.339c0.149,0.531-0.161,1.083-0.693,1.232C31.156,47.988,31.065,48,30.976,48z"/>
	<path d="M23.699,48c-0.552,0-1-0.447-1-1V32.552c0-0.553,0.448-1,1-1s1,0.447,1,1V47C24.699,47.553,24.251,48,23.699,48z"/>
	<path d="M29.811,28.6H18.187c-0.552,0-1-0.447-1-1s0.448-1,1-1h11.624c0.553,0,1,0.447,1,1S30.363,28.6,29.811,28.6z"/>
</g>
</svg>
