<?xml version="1.0" encoding="utf-8"?>
<!-- Generator: Adobe Illustrator 16.0.0, SVG Export Plug-In . SVG Version: 6.00 Build 0)  -->
<!DOCTYPE svg PUBLIC "-//W3C//DTD SVG 1.1//EN" "http://www.w3.org/Graphics/SVG/1.1/DTD/svg11.dtd">
<svg version="1.1" id="Layer_1" xmlns="http://www.w3.org/2000/svg" xmlns:xlink="http://www.w3.org/1999/xlink" x="0px" y="0px"
	 width="48px" height="48px" viewBox="0 0 48 48" enable-background="new 0 0 48 48" xml:space="preserve">
<g>
	<path d="M35.499,48H12.504c-1.98,0-3.619-0.781-4.614-2.198c-1.076-1.533-1.245-3.649-0.465-5.807L20.652,3.406
		C21.671,0.591,23.036,0,24.001,0c0.966,0,2.331,0.591,3.348,3.406l13.229,36.589c0.779,2.159,0.608,4.275-0.468,5.808
		C39.116,47.22,37.479,48,35.499,48z M24.001,2c-0.287,0-0.915,0.556-1.468,2.086L9.306,40.675
		c-0.556,1.536-0.475,2.986,0.221,3.978C10.137,45.521,11.194,46,12.504,46h22.995c1.31,0,2.366-0.479,2.976-1.346
		c0.696-0.992,0.778-2.442,0.224-3.979L25.469,4.086C24.916,2.556,24.289,2,24.001,2z"/>
	<path d="M47,48H1c-0.552,0-1-0.447-1-1s0.448-1,1-1h46c0.553,0,1,0.447,1,1S47.553,48,47,48z"/>
	<path d="M23.648,43.408c-4.257,0-7.721-3.751-7.721-8.362s3.464-8.362,7.721-8.362c4.259,0,7.725,3.751,7.725,8.362
		S27.907,43.408,23.648,43.408z M23.648,28.684c-3.155,0-5.721,2.854-5.721,6.362s2.566,6.362,5.721,6.362
		c3.157,0,5.725-2.854,5.725-6.362S26.805,28.684,23.648,28.684z"/>
	<path d="M16.927,36.714h-6.888c-0.552,0-1-0.447-1-1s0.448-1,1-1h6.888c0.552,0,1,0.447,1,1S17.479,36.714,16.927,36.714z"/>
	<path d="M37.262,36.714h-6.889c-0.553,0-1-0.447-1-1s0.447-1,1-1h6.889c0.553,0,1,0.447,1,1S37.814,36.714,37.262,36.714z"/>
</g>
</svg>
