<?xml version="1.0" encoding="utf-8"?>
<!-- Generator: Adobe Illustrator 16.0.0, SVG Export Plug-In . SVG Version: 6.00 Build 0)  -->
<!DOCTYPE svg PUBLIC "-//W3C//DTD SVG 1.1//EN" "http://www.w3.org/Graphics/SVG/1.1/DTD/svg11.dtd">
<svg version="1.1" id="Layer_1" xmlns="http://www.w3.org/2000/svg" xmlns:xlink="http://www.w3.org/1999/xlink" x="0px" y="0px"
	 width="48px" height="48px" viewBox="0 0 48 48" enable-background="new 0 0 48 48" xml:space="preserve">
<g>
	<path d="M30.15,48c-0.309,0-0.604-0.143-0.794-0.393c-0.222-0.289-0.269-0.677-0.121-1.011c2.692-6.107,2.413-17.897,2.409-18.016
		c0-8.081-3.504-14.886-7.65-14.886c-4.144,0-7.644,6.805-7.644,14.86c-0.002,0.132-0.147,11.624,2.591,17.789
		c0.116,0.163,0.184,0.363,0.184,0.578c0,0.553-0.448,1-1,1c-0.009-0.001-0.014,0-0.02,0c-0.064,0-0.13-0.006-0.195-0.02
		C2.7,44.882,3.281,21.174,3.313,20.167C3.313,9.061,12.59,0,23.994,0c11.399,0,20.674,9.061,20.674,20.198
		c0.052,0.989,1.113,25.441-14.367,27.79C30.25,47.996,30.2,48,30.15,48z M23.994,11.695c5.411,0,9.65,7.406,9.65,16.86
		c0.012,0.434,0.248,10.373-1.905,17.058c11.869-3.717,10.941-25.138,10.93-25.364C42.668,10.164,34.291,2,23.994,2
		C13.693,2,5.313,10.164,5.313,20.198c-0.007,0.249-0.51,20.917,11.134,25.222c-2.227-6.683-2.104-16.429-2.097-16.881
		C14.35,19.101,18.586,11.695,23.994,11.695z"/>
	<ellipse cx="24" cy="6.51" rx="1.876" ry="1.84"/>
	<g>
		<path d="M16.333,10.852c0,1.02-0.839,1.843-1.876,1.843c-1.031,0-1.875-0.823-1.875-1.843c0-1.015,0.844-1.837,1.875-1.837
			C15.494,9.015,16.333,9.837,16.333,10.852z"/>
		<path d="M12.581,19.372c0,1.015-0.835,1.837-1.873,1.837s-1.873-0.822-1.873-1.837s0.835-1.837,1.873-1.837
			S12.581,18.357,12.581,19.372z"/>
		<path d="M12.581,30.393c0,1.015-0.835,1.84-1.873,1.84s-1.873-0.825-1.873-1.84c0-1.014,0.835-1.838,1.873-1.838
			S12.581,29.379,12.581,30.393z"/>
		<path d="M31.665,10.852c0,1.02,0.84,1.843,1.875,1.843s1.873-0.823,1.873-1.843c0-1.015-0.838-1.837-1.873-1.837
			S31.665,9.837,31.665,10.852z"/>
		<path d="M35.413,19.372c0,1.015,0.841,1.837,1.879,1.837c1.031,0,1.876-0.822,1.876-1.837s-0.845-1.837-1.876-1.837
			C36.254,17.535,35.413,18.357,35.413,19.372z"/>
		<path d="M35.413,30.393c0,1.015,0.841,1.84,1.879,1.84c1.031,0,1.876-0.825,1.876-1.84c0-1.014-0.845-1.838-1.876-1.838
			C36.254,28.555,35.413,29.379,35.413,30.393z"/>
	</g>
</g>
</svg>
