<?xml version="1.0" encoding="utf-8"?>
<!-- Generator: Adobe Illustrator 16.0.0, SVG Export Plug-In . SVG Version: 6.00 Build 0)  -->
<!DOCTYPE svg PUBLIC "-//W3C//DTD SVG 1.1//EN" "http://www.w3.org/Graphics/SVG/1.1/DTD/svg11.dtd">
<svg version="1.1" id="Layer_1" xmlns="http://www.w3.org/2000/svg" xmlns:xlink="http://www.w3.org/1999/xlink" x="0px" y="0px"
	 width="48px" height="48px" viewBox="0 0 48 48" enable-background="new 0 0 48 48" xml:space="preserve">
<g>
	<path d="M36.585,39.753h-25.17l-0.216-0.112C4.186,36.007,0,29.781,0,22.987c0-4.989,2.296-9.757,6.464-13.425l0.283-0.249h34.509
		l0.283,0.25C45.706,13.231,48,17.999,48,22.987c0,6.796-4.187,13.022-11.198,16.654L36.585,39.753z M11.905,37.753h24.191
		C42.303,34.458,46,28.953,46,22.987c0-4.294-1.951-8.426-5.504-11.674H7.507C3.953,14.559,2,18.691,2,22.987
		C2,28.951,5.698,34.456,11.905,37.753z"/>
	<path d="M24.003,48c-0.552,0-1-0.447-1-1v-7.232c0-0.553,0.448-1,1-1c0.553,0,1,0.447,1,1V47C25.003,47.553,24.556,48,24.003,48z"
		/>
	<g>
		<path d="M7.039,48c-0.552,0-1-0.447-1-1c0-7.015,5.919-9.17,5.979-9.19c0.521-0.188,1.091,0.092,1.274,0.612
			c0.182,0.521-0.09,1.089-0.609,1.273l0,0c-0.19,0.068-4.645,1.738-4.645,7.305C8.039,47.553,7.591,48,7.039,48z"/>
		<path d="M40.958,48c-0.553,0-1-0.447-1-1c0-5.613-4.588-7.287-4.635-7.304c-0.521-0.183-0.795-0.753-0.612-1.274
			c0.183-0.52,0.752-0.799,1.274-0.612c0.06,0.021,5.973,2.176,5.973,9.19C41.958,47.553,41.511,48,40.958,48z"/>
	</g>
	<path d="M13.995,6.913H7.606c-0.552,0-1-0.448-1-1s0.448-1,1-1h6.389c0.552,0,1,0.448,1,1S14.547,6.913,13.995,6.913z"/>
	<path d="M27.195,6.913h-6.391c-0.552,0-1-0.448-1-1s0.448-1,1-1h6.391c0.553,0,1,0.448,1,1S27.748,6.913,27.195,6.913z"/>
	<path d="M40.395,6.913h-6.393c-0.553,0-1-0.448-1-1s0.447-1,1-1h6.393c0.553,0,1,0.448,1,1S40.947,6.913,40.395,6.913z"/>
	<g>
		<path d="M20.598,2H14.21c-0.552,0-1-0.448-1-1s0.448-1,1-1h6.388c0.552,0,1,0.448,1,1S21.15,2,20.598,2z"/>
		<path d="M33.79,2h-6.388c-0.553,0-1-0.448-1-1s0.447-1,1-1h6.388c0.553,0,1,0.448,1,1S34.343,2,33.79,2z"/>
	</g>
</g>
</svg>
