<?xml version="1.0" encoding="utf-8"?>
<!-- Generator: Adobe Illustrator 16.0.0, SVG Export Plug-In . SVG Version: 6.00 Build 0)  -->
<!DOCTYPE svg PUBLIC "-//W3C//DTD SVG 1.1//EN" "http://www.w3.org/Graphics/SVG/1.1/DTD/svg11.dtd">
<svg version="1.1" id="Layer_1" xmlns="http://www.w3.org/2000/svg" xmlns:xlink="http://www.w3.org/1999/xlink" x="0px" y="0px"
	 width="48px" height="48px" viewBox="0 0 48 48" enable-background="new 0 0 48 48" xml:space="preserve">
<g>
	<path d="M2.376,47.998c-0.678,0-1.279-0.228-1.714-0.662c-1.138-1.142-0.77-3.295,0.837-4.902l9.458-9.454l1.416,1.412l-9.46,9.456
		c-0.888,0.889-1.048,1.862-0.835,2.075c0.07,0.069,0.298,0.11,0.626,0.032c0.478-0.115,1.004-0.435,1.445-0.876l9.458-9.455
		l1.414,1.414l-9.458,9.455c-0.704,0.704-1.553,1.204-2.39,1.406C2.9,47.965,2.633,47.998,2.376,47.998z"/>
	<path d="M38.181,13.874l-1.412-1.415l3.027-3.022c0.887-0.889,1.047-1.863,0.835-2.076c-0.049-0.049-0.154-0.076-0.291-0.076l0,0
		c-0.396,0-1.1,0.241-1.779,0.92l-3.346,3.346l-1.414-1.414l3.346-3.346c0.943-0.943,2.137-1.506,3.193-1.506c0,0,0.001,0,0.002,0
		c0.684,0,1.272,0.23,1.705,0.664c1.137,1.138,0.77,3.292-0.837,4.902L38.181,13.874z"/>
	<g>
		<path d="M12.331,37.27h-2c0-15.455,19.417-36.777,19.613-36.974l1.035-1.04l5.753,13.124L34.9,13.183l-4.55-10.379
			C25.986,7.748,12.331,25.098,12.331,37.27z"/>
		<path d="M10.731,37.666v-2c12.193,0,29.529-13.657,34.467-18.022l-10.381-4.546l0.803-1.832l13.124,5.748l-1.038,1.036
			C47.51,18.245,26.213,37.666,10.731,37.666z"/>
	</g>
	<rect x="22.274" y="7.41" transform="matrix(0.7071 0.7071 -0.7071 0.7071 24.2985 -9.216)" width="2" height="34.626"/>
</g>
</svg>
