<?xml version="1.0" encoding="utf-8"?>
<!-- Generator: Adobe Illustrator 16.0.0, SVG Export Plug-In . SVG Version: 6.00 Build 0)  -->
<!DOCTYPE svg PUBLIC "-//W3C//DTD SVG 1.1//EN" "http://www.w3.org/Graphics/SVG/1.1/DTD/svg11.dtd">
<svg version="1.1" id="Layer_1" xmlns="http://www.w3.org/2000/svg" xmlns:xlink="http://www.w3.org/1999/xlink" x="0px" y="0px"
	 width="48px" height="48px" viewBox="0 0 48 48" enable-background="new 0 0 48 48" xml:space="preserve">
<g>
	<path d="M41.353,21.859c-0.005,0-0.012,0.001-0.02,0H6.667c-0.552,0-1-0.448-1-1V1c0-0.552,0.448-1,1-1h34.666
		c0.413,0,0.784,0.254,0.933,0.64c0.149,0.385,0.046,0.823-0.261,1.101l-9.931,9.019l9.835,9.269
		c0.268,0.18,0.443,0.485,0.443,0.832C42.353,21.411,41.905,21.859,41.353,21.859z M7.667,19.859h31.146l-8.897-8.386
		c-0.203-0.191-0.317-0.458-0.314-0.737s0.121-0.543,0.328-0.731L38.744,2H7.667V19.859z"/>
	<path d="M6.667,48c-0.552,0-1-0.447-1-1V1c0-0.552,0.448-1,1-1s1,0.448,1,1v46C7.667,47.553,7.219,48,6.667,48z"/>
</g>
</svg>
