<?xml version="1.0" encoding="utf-8"?>
<!-- Generator: Adobe Illustrator 16.0.0, SVG Export Plug-In . SVG Version: 6.00 Build 0)  -->
<!DOCTYPE svg PUBLIC "-//W3C//DTD SVG 1.1//EN" "http://www.w3.org/Graphics/SVG/1.1/DTD/svg11.dtd">
<svg version="1.1" id="Layer_1" xmlns="http://www.w3.org/2000/svg" xmlns:xlink="http://www.w3.org/1999/xlink" x="0px" y="0px"
	 width="48px" height="48px" viewBox="0 0 48 48" enable-background="new 0 0 48 48" xml:space="preserve">
<g>
	<path d="M19.192,48c-8.696,0-17.938-2.48-17.938-7.076c0-3.237,4.956-5.897,12.626-6.778c0.552-0.065,1.045,0.33,1.108,0.879
		c0.063,0.549-0.331,1.045-0.879,1.107c-7.05,0.81-10.854,3.073-10.854,4.792C3.254,43.32,10.07,46,19.192,46
		c9.122,0,15.938-2.68,15.938-5.076c0-1.684-3.713-3.923-10.594-4.757c-0.548-0.067-0.939-0.565-0.873-1.113
		c0.066-0.549,0.561-0.937,1.113-0.873c5.973,0.725,12.354,2.876,12.354,6.743C37.13,45.52,27.888,48,19.192,48z"/>
	<g>
		<path d="M45.766,17.206c-0.004,0-0.012,0-0.02,0H19.192c-0.552,0-1-0.448-1-1V1c0-0.552,0.448-1,1-1h26.554
			c0.413,0,0.784,0.254,0.933,0.64c0.149,0.385,0.046,0.823-0.261,1.101L39,8.478l7.322,6.897c0.268,0.18,0.443,0.485,0.443,0.832
			C46.766,16.758,46.318,17.206,45.766,17.206z M20.192,15.206h23.035l-6.385-6.014C36.639,9,36.524,8.733,36.527,8.455
			s0.121-0.543,0.328-0.731L43.157,2H20.192V15.206z"/>
		<path d="M19.192,42.005c-0.552,0-1-0.447-1-1V1c0-0.552,0.448-1,1-1s1,0.448,1,1v40.005
			C20.192,41.558,19.744,42.005,19.192,42.005z"/>
	</g>
</g>
</svg>
