<?xml version="1.0" encoding="utf-8"?>
<!-- Generator: Adobe Illustrator 16.0.0, SVG Export Plug-In . SVG Version: 6.00 Build 0)  -->
<!DOCTYPE svg PUBLIC "-//W3C//DTD SVG 1.1//EN" "http://www.w3.org/Graphics/SVG/1.1/DTD/svg11.dtd">
<svg version="1.1" id="Layer_1" xmlns="http://www.w3.org/2000/svg" xmlns:xlink="http://www.w3.org/1999/xlink" x="0px" y="0px"
	 width="48px" height="48px" viewBox="0 0 48 48" enable-background="new 0 0 48 48" xml:space="preserve">
<g>
	<path d="M22.422,35.802c-9.475,0-17.184-7.709-17.184-17.185c0-9.476,7.709-17.185,17.184-17.185
		c9.474,0,17.182,7.709,17.182,17.185C39.604,28.093,31.896,35.802,22.422,35.802z M22.422,3.432
		c-8.373,0-15.184,6.812-15.184,15.185s6.812,15.185,15.184,15.185c8.371,0,15.182-6.812,15.182-15.185S30.793,3.432,22.422,3.432z"
		/>
	<path d="M22.419,40.377c-5.575,0-11.15-2.122-15.395-6.365c-0.391-0.391-0.391-1.023,0-1.414c0.39-0.391,1.023-0.391,1.414,0
		c7.709,7.707,20.252,7.707,27.959,0c3.738-3.736,5.797-8.703,5.797-13.985c0-5.282-2.059-10.247-5.797-13.98
		c-0.391-0.39-0.391-1.023,0-1.414c0.389-0.392,1.023-0.391,1.414-0.001c4.115,4.111,6.383,9.579,6.383,15.396
		s-2.268,11.286-6.383,15.399C33.569,38.255,27.994,40.377,22.419,40.377z"/>
	<g>
		<path d="M37.105,4.925c-0.256,0-0.512-0.098-0.707-0.293c-0.391-0.39-0.391-1.023,0-1.414l2.924-2.925
			c0.391-0.391,1.023-0.391,1.414,0c0.391,0.39,0.391,1.023,0,1.414l-2.924,2.925C37.617,4.827,37.361,4.925,37.105,4.925z"/>
		<path d="M4.805,37.225c-0.256,0-0.513-0.098-0.708-0.294c-0.39-0.391-0.389-1.023,0.001-1.414l2.926-2.92
			c0.391-0.39,1.024-0.39,1.415,0.002c0.39,0.391,0.389,1.023-0.001,1.414l-2.926,2.92C5.316,37.127,5.061,37.225,4.805,37.225z"/>
	</g>
	<path d="M22.422,48c-0.552,0-1-0.447-1-1v-7.719c0-0.553,0.448-1,1-1s1,0.447,1,1V47C23.422,47.553,22.974,48,22.422,48z"/>
	<path d="M36.794,48H8.047c-0.552,0-1-0.447-1-1s0.448-1,1-1h28.747c0.553,0,1,0.447,1,1S37.347,48,36.794,48z"/>
</g>
</svg>
