<?xml version="1.0" encoding="utf-8"?>
<!-- Generator: Adobe Illustrator 16.0.0, SVG Export Plug-In . SVG Version: 6.00 Build 0)  -->
<!DOCTYPE svg PUBLIC "-//W3C//DTD SVG 1.1//EN" "http://www.w3.org/Graphics/SVG/1.1/DTD/svg11.dtd">
<svg version="1.1" id="Layer_1" xmlns="http://www.w3.org/2000/svg" xmlns:xlink="http://www.w3.org/1999/xlink" x="0px" y="0px"
	 width="48px" height="48px" viewBox="0 0 48 48" enable-background="new 0 0 48 48" xml:space="preserve">
<g>
	<path d="M24,48c-6.29,0-12.237-2.418-16.746-6.809c-4.592-4.473-7.167-10.467-7.251-16.877c-0.084-6.412,2.334-12.471,6.809-17.063
		C11.368,2.575,17.473,0,24.003,0c6.291,0,12.237,2.418,16.744,6.81c4.592,4.475,7.167,10.469,7.251,16.878
		c0.083,6.41-2.335,12.468-6.81,17.06C36.633,45.424,30.529,48,24,48z M24.003,2C18.017,2,12.42,4.361,8.244,8.647
		c-4.102,4.209-6.318,9.764-6.241,15.641c0.077,5.876,2.438,11.37,6.647,15.47C12.783,43.783,18.235,46,24,46
		c5.984,0,11.58-2.361,15.755-6.648c4.103-4.208,6.318-9.762,6.242-15.638c-0.077-5.875-2.438-11.37-6.647-15.472
		C35.221,4.217,29.77,2,24.003,2z"/>
	<path d="M25.731,39.976c-1.569,0-3.049-0.422-4.621-1.051c-2.759-1.108-4.548-2.851-6.443-4.694
		c-0.627-0.61-1.25-1.229-1.872-1.848c-1.184-1.177-2.409-2.394-3.646-3.527c-1.265-1.162-5.107-4.698-7.539-3.771l-0.711-1.87
		c3.173-1.212,6.799,1.591,9.602,4.167c1.267,1.16,2.506,2.392,3.704,3.582c0.618,0.614,1.235,1.228,1.857,1.833
		c2.116,2.061,3.562,3.376,5.792,4.271c2.734,1.095,4.555,1.182,6.715,0.321c2.735-1.085,5.291-3.058,7.015-5.412
		c1.362-1.855,2.281-5.513,1.966-7.83c-0.504-3.713-3.312-6.678-6.026-9.546c-0.733-0.774-1.491-1.575-2.178-2.367
		c-0.464-0.535-0.957-1.077-1.46-1.628c-2.271-2.491-4.843-5.313-5.688-8.711l1.94-0.482c0.723,2.907,3.012,5.418,5.225,7.847
		c0.515,0.564,1.02,1.119,1.494,1.666c0.657,0.758,1.367,1.508,2.118,2.302c2.797,2.954,5.966,6.301,6.557,10.651
		c0.379,2.792-0.69,7.042-2.336,9.282c-1.938,2.648-4.813,4.868-7.888,6.088C28.025,39.759,26.855,39.976,25.731,39.976z"/>
</g>
</svg>
