<?xml version="1.0" encoding="utf-8"?>
<!-- Generator: Adobe Illustrator 16.0.0, SVG Export Plug-In . SVG Version: 6.00 Build 0)  -->
<!DOCTYPE svg PUBLIC "-//W3C//DTD SVG 1.1//EN" "http://www.w3.org/Graphics/SVG/1.1/DTD/svg11.dtd">
<svg version="1.1" id="Layer_1" xmlns="http://www.w3.org/2000/svg" xmlns:xlink="http://www.w3.org/1999/xlink" x="0px" y="0px"
	 width="48px" height="48px" viewBox="0 0 48 48" enable-background="new 0 0 48 48" xml:space="preserve">
<g>
	<path d="M23.997,48c-9.92,0-17.99-8.071-17.99-17.993c0-9.921,8.07-17.992,17.99-17.992c9.923,0,17.995,8.071,17.995,17.992
		C41.992,39.929,33.92,48,23.997,48z M23.997,14.015c-8.817,0-15.99,7.174-15.99,15.992C8.007,38.825,15.18,46,23.997,46
		c8.819,0,15.995-7.175,15.995-15.993C39.992,21.189,32.816,14.015,23.997,14.015z"/>
	<path d="M33.503,16.858c-0.553,0-1-0.448-1-1V8.624h-17.01v7.234c0,0.552-0.448,1-1,1s-1-0.448-1-1V7.624c0-0.552,0.448-1,1-1
		h19.01c0.553,0,1,0.448,1,1v8.234C34.503,16.41,34.056,16.858,33.503,16.858z"/>
	<path d="M30.559,8.124c-0.553,0-1-0.448-1-1C29.559,4.299,27.063,2,23.997,2c-3.066,0-5.56,2.299-5.56,5.124c0,0.552-0.448,1-1,1
		s-1-0.448-1-1c0-3.928,3.392-7.124,7.56-7.124c4.17,0,7.562,3.196,7.562,7.124C31.559,7.676,31.111,8.124,30.559,8.124z"/>
	<path d="M8.524,34.134c-0.107,0-0.221-0.019-0.347-0.052c-0.36-0.097-0.781-0.438-0.781-1.081h2c0-0.292-0.208-0.668-0.606-0.82
		c-0.453-0.175-0.843,0.042-0.96,0.174c0.168-0.188,0.689-1.095,1.108-1.824c2.034-3.539,2.834-4.642,3.873-4.642
		c1.158,0,2.057,1.267,3.546,3.506c0.546,0.821,1.426,2.144,1.896,2.54c0.507-0.377,1.476-1.732,2.076-2.574
		c1.583-2.217,2.537-3.472,3.719-3.472c1.158,0,2.058,1.267,3.547,3.507c0.542,0.814,1.411,2.122,1.885,2.53
		c0.492-0.398,1.406-1.724,1.976-2.549c1.536-2.228,2.463-3.488,3.634-3.488c1.095,0,1.896,1.183,3.595,4.087
		c0.482,0.824,1.143,1.952,1.387,2.172c-0.046-0.041-0.217-0.146-0.465-0.146v2c-0.884,0-1.4-0.883-2.648-3.016
		c-0.515-0.88-1.418-2.423-1.93-2.979c-0.502,0.442-1.376,1.708-1.927,2.507c-1.536,2.228-2.463,3.488-3.634,3.488
		c-1.155,0-2.052-1.264-3.537-3.498c-0.549-0.825-1.431-2.151-1.904-2.548c-0.505,0.377-1.471,1.729-2.069,2.567
		c-1.587,2.222-2.542,3.479-3.728,3.479c-1.155,0-2.052-1.265-3.539-3.499c-0.515-0.774-1.324-1.991-1.812-2.465
		c-0.592,0.68-1.658,2.534-2.207,3.49C9.558,33.464,9.174,34.133,8.524,34.134z"/>
	<rect x="8.939" y="36.873" width="30.122" height="2"/>
</g>
</svg>
