<?xml version="1.0" encoding="utf-8"?>
<!-- Generator: Adobe Illustrator 16.0.0, SVG Export Plug-In . SVG Version: 6.00 Build 0)  -->
<!DOCTYPE svg PUBLIC "-//W3C//DTD SVG 1.1//EN" "http://www.w3.org/Graphics/SVG/1.1/DTD/svg11.dtd">
<svg version="1.1" id="Layer_1" xmlns="http://www.w3.org/2000/svg" xmlns:xlink="http://www.w3.org/1999/xlink" x="0px" y="0px"
	 width="48px" height="48px" viewBox="0 0 48 48" enable-background="new 0 0 48 48" xml:space="preserve">
<g>
	<path d="M23.996,48c-9.92,0-17.99-8.071-17.99-17.993c0-9.921,8.07-17.992,17.99-17.992c9.924,0,17.997,8.071,17.997,17.992
		C41.993,39.929,33.92,48,23.996,48z M23.996,14.015c-8.817,0-15.99,7.174-15.99,15.992C8.006,38.825,15.179,46,23.996,46
		c8.821,0,15.997-7.175,15.997-15.993C39.993,21.189,32.817,14.015,23.996,14.015z"/>
	<path d="M33.507,16.858c-0.553,0-1-0.448-1-1V8.624H15.496v7.234c0,0.552-0.448,1-1,1s-1-0.448-1-1V7.624c0-0.552,0.448-1,1-1
		h19.011c0.553,0,1,0.448,1,1v8.234C34.507,16.41,34.06,16.858,33.507,16.858z"/>
	<path d="M30.563,8.124c-0.553,0-1-0.448-1-1C29.563,4.299,27.065,2,23.996,2c-3.066,0-5.56,2.299-5.56,5.124c0,0.552-0.448,1-1,1
		s-1-0.448-1-1c0-3.928,3.392-7.124,7.56-7.124c4.172,0,7.566,3.196,7.566,7.124C31.563,7.676,31.115,8.124,30.563,8.124z"/>
	<g>
		<circle cx="24.001" cy="20.992" r="1.719"/>
		<path d="M25.721,39.018c0,0.95-0.77,1.717-1.72,1.717c-0.948,0-1.719-0.767-1.719-1.717c0-0.953,0.771-1.721,1.719-1.721
			C24.951,37.297,25.721,38.064,25.721,39.018z"/>
	</g>
	<path d="M33.014,31.727c-0.951,0-1.723-0.77-1.723-1.72c0-0.948,0.771-1.719,1.723-1.719c0.946,0,1.717,0.771,1.717,1.719
		C34.73,30.957,33.96,31.727,33.014,31.727z"/>
	<path d="M23.996,31.727c-0.945,0-1.717-0.77-1.717-1.72c0-0.948,0.772-1.719,1.717-1.719c0.951,0,1.723,0.771,1.723,1.719
		C25.719,30.957,24.947,31.727,23.996,31.727z"/>
	<circle cx="14.988" cy="30.007" r="1.719"/>
</g>
</svg>
