<?xml version="1.0" encoding="utf-8"?>
<!-- Generator: Adobe Illustrator 16.0.0, SVG Export Plug-In . SVG Version: 6.00 Build 0)  -->
<!DOCTYPE svg PUBLIC "-//W3C//DTD SVG 1.1//EN" "http://www.w3.org/Graphics/SVG/1.1/DTD/svg11.dtd">
<svg version="1.1" id="Layer_1" xmlns="http://www.w3.org/2000/svg" xmlns:xlink="http://www.w3.org/1999/xlink" x="0px" y="0px"
	 width="48px" height="48px" viewBox="0 0 48 48" enable-background="new 0 0 48 48" xml:space="preserve">
<g>
	<g>
		<path d="M23.995,48c-11.76,0-21.328-6.493-21.328-14.475c0-5.151,4.112-15.268,10.012-21.547c0.189-0.201,0.453-0.315,0.729-0.315
			H34.59c0.275,0,0.539,0.114,0.729,0.315c5.901,6.276,10.015,16.393,10.015,21.547C45.333,41.507,35.761,48,23.995,48z
			 M13.845,13.663c-5.424,5.954-9.178,15.169-9.178,19.862C4.667,40.404,13.337,46,23.995,46c10.663,0,19.338-5.596,19.338-12.475
			c0-4.696-3.755-13.912-9.18-19.862H13.845z"/>
		<path d="M34.311,10.013H13.645c-0.36,0-0.693-0.194-0.87-0.507L8.241,1.493c-0.175-0.31-0.173-0.689,0.006-0.997
			C8.426,0.189,8.755,0,9.111,0h29.816c0.357,0,0.688,0.19,0.866,0.5s0.179,0.69,0,1l-4.616,8.013
			C34.999,9.822,34.668,10.013,34.311,10.013z M14.228,8.013h19.504L37.196,2H10.826L14.228,8.013z"/>
	</g>
	<path d="M16.387,39.469c-0.207,0-0.413-0.064-0.588-0.191c-0.325-0.236-0.477-0.644-0.386-1.035l1.623-6.981l-5.414-4.692
		c-0.303-0.264-0.42-0.683-0.296-1.065c0.125-0.382,0.465-0.652,0.866-0.687l7.141-0.613l2.791-6.603
		c0.156-0.37,0.519-0.611,0.921-0.611c0,0,0,0,0,0c0.402,0,0.765,0.241,0.921,0.611l2.786,6.602l7.142,0.613
		c0.399,0.034,0.741,0.305,0.865,0.687c0.124,0.383,0.008,0.802-0.296,1.065l-5.414,4.693l1.574,6.793
		c0.058,0.126,0.089,0.267,0.089,0.414c0,0.553-0.447,1-1,1c-0.005,0-0.012,0-0.02,0c-0.179,0-0.357-0.048-0.517-0.144l-6.131-3.698
		l-6.14,3.698C16.744,39.421,16.565,39.469,16.387,39.469z M14.72,26.606l4.081,3.538c0.28,0.243,0.403,0.621,0.319,0.982
		l-1.224,5.266l4.631-2.79c0.317-0.191,0.714-0.191,1.033,0l4.623,2.789l-1.221-5.266c-0.083-0.36,0.04-0.738,0.319-0.981
		l4.082-3.538l-5.386-0.462c-0.369-0.031-0.691-0.266-0.835-0.607l-2.1-4.976l-2.104,4.977c-0.144,0.341-0.466,0.575-0.835,0.606
		L14.72,26.606z"/>
</g>
</svg>
