<?xml version="1.0" encoding="utf-8"?>
<!-- Generator: Adobe Illustrator 16.0.0, SVG Export Plug-In . SVG Version: 6.00 Build 0)  -->
<!DOCTYPE svg PUBLIC "-//W3C//DTD SVG 1.1//EN" "http://www.w3.org/Graphics/SVG/1.1/DTD/svg11.dtd">
<svg version="1.1" id="Layer_1" xmlns="http://www.w3.org/2000/svg" xmlns:xlink="http://www.w3.org/1999/xlink" x="0px" y="0px"
	 width="48px" height="48px" viewBox="0 0 48 48" enable-background="new 0 0 48 48" xml:space="preserve">
<g>
	<path d="M24,31.857c-4.333,0-7.858-3.524-7.858-7.857s3.525-7.858,7.858-7.858c4.331,0,7.855,3.525,7.855,7.858
		S28.331,31.857,24,31.857z M24,18.142c-3.23,0-5.858,2.628-5.858,5.858c0,3.229,2.628,5.857,5.858,5.857
		c3.229,0,5.855-2.628,5.855-5.857C29.855,20.77,27.229,18.142,24,18.142z"/>
	<g>
		<g>
			<path d="M24,16.489c-0.552,0-1-0.448-1-1V1c0-0.552,0.448-1,1-1c0.553,0,1,0.448,1,1v14.489C25,16.042,24.553,16.489,24,16.489z"
				/>
			<g>
				<path d="M24,9.528c-0.239,0-0.479-0.085-0.671-0.259l-6.704-6.072c-0.409-0.371-0.44-1.003-0.07-1.413
					c0.37-0.409,1.003-0.44,1.413-0.07l6.704,6.072c0.41,0.371,0.441,1.003,0.07,1.413C24.544,9.417,24.272,9.528,24,9.528z"/>
				<path d="M24,9.528c-0.273,0-0.544-0.111-0.742-0.329c-0.371-0.41-0.339-1.042,0.07-1.413l6.707-6.072
					c0.409-0.371,1.041-0.339,1.412,0.07c0.371,0.41,0.34,1.042-0.07,1.413l-6.706,6.072C24.48,9.442,24.24,9.528,24,9.528z"/>
			</g>
		</g>
		<g>
			<path d="M24,48c-0.552,0-1-0.447-1-1V32.5c0-0.553,0.448-1,1-1c0.553,0,1,0.447,1,1V47C25,47.553,24.553,48,24,48z"/>
			<g>
				<path d="M30.706,46.54c-0.239,0-0.479-0.085-0.671-0.259l-6.706-6.069c-0.41-0.37-0.441-1.003-0.07-1.412
					c0.37-0.409,1.002-0.442,1.412-0.07l6.706,6.069c0.409,0.37,0.441,1.003,0.07,1.412C31.25,46.429,30.979,46.54,30.706,46.54z"/>
				<path d="M17.296,46.54c-0.273,0-0.544-0.11-0.742-0.329c-0.371-0.409-0.339-1.042,0.07-1.412l6.704-6.069
					c0.409-0.372,1.042-0.341,1.412,0.07c0.371,0.409,0.34,1.042-0.07,1.412l-6.704,6.069C17.776,46.455,17.536,46.54,17.296,46.54z
					"/>
			</g>
		</g>
	</g>
	<g>
		<g>
			<path d="M46.998,25H32.512c-0.553,0-1-0.447-1-1c0-0.552,0.447-1,1-1h14.486c0.553,0,1,0.448,1,1
				C47.998,24.553,47.551,25,46.998,25z"/>
			<g>
				<path d="M39.473,25c-0.239,0-0.479-0.085-0.671-0.259c-0.409-0.37-0.441-1.002-0.07-1.412l6.069-6.708
					c0.371-0.41,1.002-0.44,1.412-0.071c0.409,0.371,0.441,1.003,0.07,1.413l-6.069,6.708C40.017,24.889,39.745,25,39.473,25z"/>
				<path d="M45.542,31.705c-0.272,0-0.544-0.111-0.741-0.329l-6.069-6.705c-0.371-0.409-0.339-1.042,0.07-1.412
					c0.409-0.371,1.042-0.34,1.412,0.07l6.069,6.705c0.371,0.409,0.339,1.042-0.07,1.412C46.021,31.62,45.781,31.705,45.542,31.705z
					"/>
			</g>
		</g>
		<g>
			<path d="M15.495,25H1.001c-0.552,0-1-0.447-1-1c0-0.552,0.448-1,1-1h14.494c0.552,0,1,0.448,1,1
				C16.495,24.553,16.047,25,15.495,25z"/>
			<g>
				<path d="M2.461,31.705c-0.239,0-0.479-0.085-0.67-0.259c-0.41-0.37-0.441-1.003-0.071-1.412l6.067-6.705
					c0.371-0.41,1.003-0.441,1.413-0.071c0.41,0.371,0.441,1.003,0.071,1.413l-6.067,6.705C3.006,31.594,2.734,31.705,2.461,31.705z
					"/>
				<path d="M8.529,25c-0.273,0-0.545-0.111-0.742-0.329L1.72,17.963c-0.371-0.41-0.339-1.042,0.071-1.413
					c0.41-0.371,1.043-0.338,1.413,0.071l6.067,6.708c0.371,0.41,0.339,1.042-0.071,1.412C9.008,24.915,8.768,25,8.529,25z"/>
			</g>
		</g>
	</g>
</g>
</svg>
