<?xml version="1.0" encoding="utf-8"?>
<!-- Generator: Adobe Illustrator 16.0.0, SVG Export Plug-In . SVG Version: 6.00 Build 0)  -->
<!DOCTYPE svg PUBLIC "-//W3C//DTD SVG 1.1//EN" "http://www.w3.org/Graphics/SVG/1.1/DTD/svg11.dtd">
<svg version="1.1" id="Layer_1" xmlns="http://www.w3.org/2000/svg" xmlns:xlink="http://www.w3.org/1999/xlink" x="0px" y="0px"
	 width="48px" height="48px" viewBox="0 0 48 48" enable-background="new 0 0 48 48" xml:space="preserve">
<g>
	<path d="M24,35.05c-6.094,0-11.052-4.957-11.052-11.05c0-6.092,4.958-11.049,11.052-11.049c6.093,0,11.05,4.957,11.05,11.049
		C35.05,30.093,30.093,35.05,24,35.05z M24,14.951c-4.991,0-9.052,4.059-9.052,9.049c0,4.99,4.061,9.05,9.052,9.05
		c4.99,0,9.05-4.06,9.05-9.05C33.05,19.01,28.99,14.951,24,14.951z"/>
	<g>
		<g>
			<path d="M24,13.423c-0.552,0-1-0.448-1-1V1c0-0.552,0.448-1,1-1c0.553,0,1,0.448,1,1v11.423C25,12.975,24.553,13.423,24,13.423z"
				/>
			<g>
				<path d="M24,9.528c-0.239,0-0.479-0.085-0.67-0.259l-6.708-6.072c-0.41-0.371-0.441-1.003-0.07-1.412
					c0.371-0.41,1.002-0.441,1.412-0.07l6.708,6.072c0.409,0.371,0.441,1.003,0.07,1.412C24.544,9.417,24.272,9.528,24,9.528z"/>
				<path d="M24,9.528c-0.273,0-0.544-0.111-0.742-0.329c-0.371-0.409-0.339-1.042,0.07-1.412l6.707-6.072
					c0.409-0.371,1.042-0.339,1.412,0.07c0.371,0.409,0.339,1.042-0.07,1.412l-6.707,6.072C24.48,9.442,24.24,9.528,24,9.528z"/>
			</g>
		</g>
		<g>
			<path d="M24,48c-0.552,0-1-0.447-1-1V35.566c0-0.553,0.448-1,1-1c0.553,0,1,0.447,1,1V47C25,47.553,24.553,48,24,48z"/>
			<g>
				<path d="M30.707,46.54c-0.239,0-0.479-0.085-0.671-0.259l-6.707-6.067c-0.41-0.37-0.441-1.003-0.071-1.412
					c0.371-0.408,1.002-0.443,1.413-0.07l6.707,6.067c0.409,0.37,0.441,1.003,0.07,1.412C31.251,46.429,30.979,46.54,30.707,46.54z"
					/>
				<path d="M17.292,46.54c-0.273,0-0.545-0.111-0.742-0.329c-0.371-0.41-0.339-1.042,0.071-1.412l6.708-6.067
					c0.41-0.372,1.043-0.338,1.412,0.07c0.371,0.41,0.339,1.042-0.07,1.412l-6.708,6.067C17.771,46.455,17.531,46.54,17.292,46.54z"
					/>
			</g>
		</g>
	</g>
	<g>
		<g>
			<path d="M47,25H35.577c-0.553,0-1-0.447-1-1c0-0.552,0.447-1,1-1H47c0.553,0,1,0.448,1,1C48,24.553,47.553,25,47,25z"/>
			<g>
				<path d="M39.468,25c-0.239,0-0.479-0.086-0.671-0.259c-0.41-0.371-0.441-1.003-0.07-1.413l6.076-6.708
					c0.37-0.409,1.003-0.441,1.412-0.07c0.41,0.371,0.441,1.003,0.07,1.413l-6.076,6.708C40.012,24.89,39.74,25,39.468,25z"/>
				<path d="M45.544,31.705c-0.272,0-0.544-0.11-0.741-0.328l-6.076-6.705c-0.371-0.41-0.34-1.042,0.069-1.413
					c0.408-0.37,1.042-0.34,1.413,0.07l6.076,6.705c0.371,0.409,0.34,1.042-0.069,1.413C46.024,31.619,45.784,31.705,45.544,31.705z
					"/>
			</g>
		</g>
		<g>
			<path d="M12.429,25H1c-0.552,0-1-0.447-1-1c0-0.552,0.448-1,1-1h11.429c0.552,0,1,0.448,1,1C13.429,24.553,12.981,25,12.429,25z"
				/>
			<g>
				<path d="M2.462,31.705c-0.239,0-0.479-0.085-0.67-0.259c-0.41-0.37-0.441-1.002-0.071-1.412l6.065-6.705
					c0.37-0.41,1.003-0.441,1.413-0.071c0.41,0.371,0.441,1.003,0.071,1.413l-6.065,6.705C3.007,31.594,2.735,31.705,2.462,31.705z"
					/>
				<path d="M8.528,25c-0.273,0-0.545-0.111-0.742-0.329l-6.065-6.708c-0.371-0.409-0.339-1.042,0.071-1.412
					c0.41-0.371,1.042-0.338,1.412,0.071L9.27,23.33c0.371,0.409,0.339,1.042-0.071,1.413C9.007,24.915,8.767,25,8.528,25z"/>
			</g>
		</g>
	</g>
	<g>
		<g>
			<path d="M32.188,16.809c-0.256,0-0.512-0.098-0.707-0.293c-0.391-0.391-0.391-1.024,0-1.414l8.078-8.076
				c0.391-0.391,1.023-0.391,1.414,0s0.391,1.024,0,1.414l-8.078,8.076C32.699,16.711,32.443,16.809,32.188,16.809z"/>
			<g>
				<path d="M34.942,14.055c-0.529,0-0.971-0.416-0.998-0.95l-0.45-9.03c-0.027-0.552,0.397-1.021,0.949-1.048
					c0.534-0.032,1.021,0.397,1.049,0.949l0.45,9.03c0.027,0.552-0.397,1.021-0.949,1.048
					C34.977,14.055,34.959,14.055,34.942,14.055z"/>
				<path d="M43.979,14.513c-0.018,0-0.034,0-0.052-0.001l-9.035-0.458c-0.552-0.028-0.976-0.498-0.948-1.049
					c0.028-0.552,0.509-0.973,1.05-0.948l9.035,0.458c0.552,0.028,0.976,0.498,0.948,1.049
					C44.95,14.098,44.509,14.513,43.979,14.513z"/>
			</g>
		</g>
		<g>
			<path d="M7.74,41.26c-0.256,0-0.512-0.098-0.707-0.293c-0.391-0.391-0.391-1.023,0-1.414l8.078-8.08
				c0.391-0.391,1.023-0.391,1.414,0s0.391,1.023,0,1.414l-8.078,8.08C8.252,41.162,7.996,41.26,7.74,41.26z"/>
			<g>
				<path d="M13.513,44.973c-0.529,0-0.971-0.416-0.998-0.95l-0.45-9.037c-0.028-0.552,0.397-1.021,0.949-1.049
					c0.549-0.032,1.021,0.397,1.048,0.949l0.45,9.037c0.028,0.552-0.397,1.021-0.949,1.049
					C13.547,44.973,13.53,44.973,13.513,44.973z"/>
				<path d="M13.065,35.936c-0.017,0-0.034,0-0.051-0.001l-9.036-0.451c-0.552-0.027-0.977-0.497-0.949-1.049
					c0.027-0.551,0.511-0.968,1.048-0.949l9.036,0.451c0.552,0.027,0.977,0.497,0.949,1.049
					C14.036,35.52,13.594,35.936,13.065,35.936z"/>
			</g>
		</g>
	</g>
	<g>
		<g>
			<path d="M40.266,41.26c-0.256,0-0.512-0.098-0.707-0.293l-8.078-8.08c-0.391-0.391-0.391-1.023,0-1.414s1.023-0.391,1.414,0
				l8.078,8.08c0.391,0.391,0.391,1.023,0,1.414C40.777,41.162,40.521,41.26,40.266,41.26z"/>
			<g>
				<path d="M34.942,35.936c-0.529,0-0.971-0.415-0.998-0.95c-0.027-0.552,0.397-1.021,0.949-1.049l9.035-0.451
					c0.538-0.033,1.021,0.397,1.049,0.949c0.027,0.552-0.397,1.021-0.949,1.049l-9.035,0.451
					C34.977,35.936,34.959,35.936,34.942,35.936z"/>
				<path d="M34.494,44.973c-0.017,0-0.034,0-0.051-0.001c-0.552-0.027-0.977-0.497-0.949-1.049l0.45-9.037
					c0.028-0.551,0.506-0.981,1.049-0.949c0.552,0.027,0.977,0.497,0.949,1.049l-0.45,9.037
					C35.465,44.557,35.023,44.973,34.494,44.973z"/>
			</g>
		</g>
		<g>
			<path d="M15.818,16.809c-0.256,0-0.512-0.098-0.707-0.293L7.033,8.44c-0.391-0.39-0.391-1.023,0-1.414s1.023-0.391,1.414,0
				l8.078,8.076c0.391,0.39,0.391,1.023,0,1.414C16.33,16.711,16.074,16.809,15.818,16.809z"/>
			<g>
				<path d="M4.027,14.513c-0.529,0-0.971-0.415-0.998-0.949c-0.028-0.552,0.396-1.021,0.948-1.049l9.036-0.458
					c0.57-0.033,1.021,0.396,1.049,0.948c0.028,0.552-0.396,1.021-0.948,1.049l-9.036,0.458C4.061,14.513,4.044,14.513,4.027,14.513
					z"/>
				<path d="M13.065,14.055c-0.017,0-0.034,0-0.051-0.001c-0.552-0.027-0.977-0.497-0.949-1.048l0.45-9.03
					c0.027-0.552,0.5-0.981,1.048-0.949c0.552,0.027,0.977,0.497,0.949,1.048l-0.45,9.03C14.036,13.64,13.594,14.055,13.065,14.055z
					"/>
			</g>
		</g>
	</g>
</g>
</svg>
