<?xml version="1.0" encoding="utf-8"?>
<!-- Generator: Adobe Illustrator 16.0.0, SVG Export Plug-In . SVG Version: 6.00 Build 0)  -->
<!DOCTYPE svg PUBLIC "-//W3C//DTD SVG 1.1//EN" "http://www.w3.org/Graphics/SVG/1.1/DTD/svg11.dtd">
<svg version="1.1" id="Layer_1" xmlns="http://www.w3.org/2000/svg" xmlns:xlink="http://www.w3.org/1999/xlink" x="0px" y="0px"
	 width="48px" height="48px" viewBox="0 0 48 48" enable-background="new 0 0 48 48" xml:space="preserve">
<g>
	<path d="M24.005,35.05c-6.096,0-11.055-4.957-11.055-11.05c0-6.092,4.959-11.049,11.055-11.049c6.09,0,11.045,4.957,11.045,11.049
		C35.05,30.093,30.095,35.05,24.005,35.05z M24.005,14.951c-4.993,0-9.055,4.059-9.055,9.049c0,4.99,4.062,9.05,9.055,9.05
		c4.987,0,9.045-4.06,9.045-9.05C33.05,19.01,28.992,14.951,24.005,14.951z"/>
	<g>
		<g>
			<path d="M31.539,17.456c-0.256,0-0.512-0.098-0.707-0.293c-0.391-0.391-0.391-1.024,0-1.415l4.598-4.594
				c0.391-0.39,1.023-0.39,1.414,0s0.391,1.024,0,1.415l-4.598,4.594C32.051,17.358,31.795,17.456,31.539,17.456z"/>
			<path d="M11.863,37.135c-0.256,0-0.511-0.098-0.707-0.293c-0.391-0.39-0.391-1.023-0.001-1.414l4.597-4.603
				c0.39-0.391,1.023-0.391,1.414-0.001c0.391,0.391,0.391,1.024,0.001,1.415l-4.597,4.603
				C12.375,37.037,12.119,37.135,11.863,37.135z"/>
		</g>
		<g>
			<path d="M36.137,37.135c-0.256,0-0.512-0.098-0.707-0.293l-4.598-4.603c-0.391-0.391-0.391-1.024,0-1.414
				c0.391-0.391,1.023-0.391,1.414,0l4.598,4.603c0.391,0.391,0.391,1.024,0,1.414C36.648,37.037,36.393,37.135,36.137,37.135z"/>
			<path d="M16.46,17.456c-0.256,0-0.512-0.098-0.707-0.292l-4.597-4.594c-0.391-0.391-0.391-1.024,0-1.415
				c0.391-0.391,1.024-0.39,1.415,0l4.597,4.594c0.391,0.391,0.391,1.024,0,1.415C16.972,17.358,16.716,17.456,16.46,17.456z"/>
		</g>
	</g>
	<g>
		<g>
			<path d="M24.004,13.423c-0.552,0-1-0.448-1-1V1c0-0.552,0.448-1,1-1c0.553,0,1,0.448,1,1v11.423
				C25.004,12.975,24.557,13.423,24.004,13.423z"/>
			<g>
				<path d="M24.003,9.528c-0.239,0-0.479-0.085-0.67-0.258l-6.714-6.072c-0.41-0.371-0.441-1.003-0.071-1.413
					c0.37-0.409,1.002-0.441,1.413-0.071l6.714,6.072c0.409,0.371,0.441,1.003,0.07,1.413C24.548,9.417,24.276,9.528,24.003,9.528z"
					/>
				<path d="M24.004,9.528c-0.273,0-0.544-0.111-0.742-0.329c-0.371-0.41-0.339-1.042,0.07-1.413l6.705-6.072
					c0.409-0.371,1.041-0.339,1.412,0.07c0.371,0.41,0.34,1.042-0.07,1.413l-6.704,6.072C24.484,9.442,24.244,9.528,24.004,9.528z"
					/>
			</g>
		</g>
		<g>
			<path d="M24.004,48c-0.552,0-1-0.447-1-1V35.566c0-0.553,0.448-1,1-1c0.553,0,1,0.447,1,1V47C25.004,47.553,24.557,48,24.004,48z
				"/>
			<g>
				<path d="M30.708,46.54c-0.239,0-0.479-0.085-0.671-0.259l-6.704-6.069c-0.41-0.37-0.441-1.003-0.07-1.412
					c0.37-0.411,1.003-0.442,1.412-0.07l6.704,6.069c0.409,0.37,0.441,1.003,0.07,1.412C31.252,46.429,30.98,46.54,30.708,46.54z"/>
				<path d="M17.291,46.54c-0.273,0-0.545-0.111-0.742-0.329c-0.371-0.41-0.338-1.042,0.071-1.413l6.714-6.069
					c0.409-0.37,1.041-0.337,1.413,0.071c0.37,0.41,0.338,1.042-0.071,1.413l-6.714,6.069C17.77,46.455,17.529,46.54,17.291,46.54z"
					/>
			</g>
		</g>
	</g>
	<g>
		<g>
			<path d="M47.002,25H35.57c-0.553,0-1-0.447-1-1c0-0.552,0.447-1,1-1h11.432c0.553,0,1,0.448,1,1
				C48.002,24.553,47.555,25,47.002,25z"/>
			<g>
				<path d="M39.471,25c-0.239,0-0.479-0.085-0.671-0.259c-0.409-0.37-0.441-1.002-0.07-1.412l6.067-6.708
					c0.371-0.41,1.003-0.44,1.412-0.071c0.409,0.371,0.441,1.003,0.07,1.413l-6.067,6.708C40.015,24.889,39.743,25,39.471,25z"/>
				<path d="M45.538,31.705c-0.272,0-0.544-0.111-0.741-0.329l-6.067-6.705c-0.371-0.41-0.339-1.042,0.07-1.413
					c0.409-0.37,1.042-0.339,1.412,0.071l6.067,6.705c0.371,0.409,0.339,1.042-0.07,1.412C46.018,31.62,45.777,31.705,45.538,31.705
					z"/>
			</g>
		</g>
		<g>
			<path d="M12.424,25H0.999c-0.552,0-1-0.447-1-1c0-0.552,0.448-1,1-1h11.425c0.552,0,1,0.448,1,1
				C13.424,24.553,12.976,25,12.424,25z"/>
			<g>
				<path d="M2.463,31.705c-0.239,0-0.479-0.085-0.67-0.259c-0.41-0.37-0.441-1.003-0.071-1.412l6.066-6.705
					c0.372-0.41,1.003-0.441,1.413-0.071c0.41,0.371,0.441,1.003,0.071,1.413l-6.066,6.705C3.008,31.594,2.736,31.705,2.463,31.705z
					"/>
				<path d="M8.53,25c-0.273,0-0.545-0.111-0.742-0.329l-6.066-6.708c-0.371-0.41-0.339-1.042,0.071-1.413
					c0.41-0.371,1.043-0.338,1.413,0.071l6.066,6.708c0.371,0.41,0.339,1.042-0.071,1.413C9.009,24.915,8.769,25,8.53,25z"/>
			</g>
		</g>
	</g>
</g>
</svg>
