<?xml version="1.0" encoding="utf-8"?>
<!-- Generator: Adobe Illustrator 16.0.0, SVG Export Plug-In . SVG Version: 6.00 Build 0)  -->
<!DOCTYPE svg PUBLIC "-//W3C//DTD SVG 1.1//EN" "http://www.w3.org/Graphics/SVG/1.1/DTD/svg11.dtd">
<svg version="1.1" id="Layer_1" xmlns="http://www.w3.org/2000/svg" xmlns:xlink="http://www.w3.org/1999/xlink" x="0px" y="0px"
	 width="48px" height="48px" viewBox="0 0 48 48" enable-background="new 0 0 48 48" xml:space="preserve">
<g>
	<path d="M43.205,39.236H4.795c-0.394,0-0.751-0.231-0.912-0.591c-0.162-0.359-0.097-0.779,0.165-1.073l10.223-11.496H7.989
		c-0.386,0-0.737-0.222-0.903-0.569c-0.166-0.349-0.117-0.761,0.126-1.06l10.261-12.661h-3.956c-0.411,0-0.78-0.251-0.93-0.633
		c-0.151-0.382-0.052-0.817,0.248-1.098l10.486-9.786c0.384-0.358,0.981-0.358,1.365,0l10.365,9.684
		c0.27,0.179,0.447,0.485,0.447,0.833c0,0.552-0.447,1-1,1c-0.005,0-0.013,0.001-0.02,0h-3.951l10.16,12.534
		c0.212,0.183,0.346,0.455,0.346,0.756c0,0.553-0.447,1-1,1c-0.005,0-0.012,0-0.02,0h-6.281l10.22,11.496
		c0.262,0.294,0.326,0.715,0.165,1.073C43.956,39.005,43.599,39.236,43.205,39.236z M7.022,37.236h33.955L30.758,25.74
		c-0.262-0.294-0.326-0.715-0.165-1.073c0.161-0.36,0.519-0.591,0.912-0.591h6.411l-10.263-12.66c-0.243-0.3-0.292-0.712-0.126-1.06
		s0.517-0.57,0.902-0.57h3.514l-7.941-7.418l-7.948,7.418h3.517c0.386,0,0.737,0.222,0.903,0.57c0.166,0.348,0.117,0.76-0.126,1.06
		l-10.261,12.66h6.411c0.394,0,0.751,0.231,0.912,0.591c0.162,0.359,0.097,0.779-0.165,1.073L7.022,37.236z"/>
	<path d="M28.79,48h-9.576c-0.552,0-1-0.447-1-1v-8.764c0-0.553,0.448-1,1-1h9.576c0.553,0,1,0.447,1,1V47
		C29.79,47.553,29.343,48,28.79,48z M20.214,46h7.576v-6.764h-7.576V46z"/>
</g>
</svg>
