<?xml version="1.0" encoding="utf-8"?>
<!-- Generator: Adobe Illustrator 16.0.0, SVG Export Plug-In . SVG Version: 6.00 Build 0)  -->
<!DOCTYPE svg PUBLIC "-//W3C//DTD SVG 1.1//EN" "http://www.w3.org/Graphics/SVG/1.1/DTD/svg11.dtd">
<svg version="1.1" id="Layer_1" xmlns="http://www.w3.org/2000/svg" xmlns:xlink="http://www.w3.org/1999/xlink" x="0px" y="0px"
	 width="48px" height="48px" viewBox="0 0 48 48" enable-background="new 0 0 48 48" xml:space="preserve">
<g>
	<g>
		<path d="M31.143,43.107h-14.29c-0.552,0-1-0.447-1-1v-26.7c0-0.552,0.448-1,1-1h14.29c0.553,0,1,0.448,1,1v26.7
			C32.143,42.66,31.695,43.107,31.143,43.107z M17.853,41.107h12.29v-24.7h-12.29V41.107z"/>
		<path d="M39.447,48H8.548c-0.283,0-0.553-0.12-0.742-0.33L3.39,42.777c-0.265-0.293-0.332-0.715-0.171-1.076
			c0.16-0.361,0.519-0.594,0.914-0.594h39.735c0.396,0,0.754,0.232,0.914,0.594s0.093,0.783-0.172,1.076l-4.42,4.893
			C40,47.88,39.73,48,39.447,48z M8.992,46h30.011l2.613-2.893H6.381L8.992,46z"/>
		<path d="M24,14.794c-0.152,0-0.304-0.035-0.443-0.104c-0.188-0.093-4.6-2.32-5.002-6.322c-0.272-2.713,1.353-5.458,4.832-8.158
			c0.342-0.266,0.815-0.28,1.174-0.038c0.223,0.15,5.439,3.735,5.183,8.154c-0.144,2.471-1.921,4.609-5.282,6.355
			C24.316,14.756,24.158,14.794,24,14.794z M24.026,2.262c-2.496,2.078-3.667,4.063-3.481,5.906c0.23,2.296,2.497,3.9,3.465,4.485
			c2.387-1.335,3.644-2.828,3.737-4.442C27.885,5.836,25.481,3.414,24.026,2.262z"/>
	</g>
	<path d="M24.141,39.463c-0.552,0-1-0.447-1-1V19.369c0-0.552,0.448-1,1-1s1,0.448,1,1v19.094
		C25.141,39.016,24.693,39.463,24.141,39.463z"/>
</g>
</svg>
