<?xml version="1.0" encoding="utf-8"?>
<!-- Generator: Adobe Illustrator 16.0.0, SVG Export Plug-In . SVG Version: 6.00 Build 0)  -->
<!DOCTYPE svg PUBLIC "-//W3C//DTD SVG 1.1//EN" "http://www.w3.org/Graphics/SVG/1.1/DTD/svg11.dtd">
<svg version="1.1" id="Layer_1" xmlns="http://www.w3.org/2000/svg" xmlns:xlink="http://www.w3.org/1999/xlink" x="0px" y="0px"
	 width="48px" height="48px" viewBox="0 0 48 48" enable-background="new 0 0 48 48" xml:space="preserve">
<g>
	<path d="M31.146,43.107H16.856c-0.552,0-1-0.447-1-1v-26.7c0-0.552,0.448-1,1-1h14.291c0.553,0,1,0.448,1,1v26.7
		C32.146,42.66,31.699,43.107,31.146,43.107z M17.856,41.107h12.291v-24.7H17.856V41.107z"/>
	<path d="M39.452,48h-30.9c-0.283,0-0.553-0.12-0.742-0.33l-4.418-4.893c-0.265-0.293-0.332-0.715-0.172-1.076
		c0.161-0.361,0.519-0.594,0.914-0.594h39.732c0.396,0,0.753,0.232,0.914,0.594c0.16,0.361,0.093,0.783-0.172,1.076l-4.414,4.893
		C40.005,47.88,39.735,48,39.452,48z M8.996,46h30.012l2.609-2.893H6.384L8.996,46z"/>
	<path d="M24,14.794c-0.152,0-0.304-0.035-0.444-0.104c-0.188-0.093-4.597-2.319-5-6.322c-0.273-2.713,1.352-5.458,4.83-8.158
		c0.342-0.266,0.815-0.28,1.174-0.038c0.223,0.15,5.439,3.735,5.183,8.154c-0.144,2.471-1.921,4.609-5.282,6.355
		C24.316,14.756,24.158,14.794,24,14.794z M24.026,2.262c-2.492,2.075-3.662,4.057-3.48,5.899c0.225,2.285,2.497,3.901,3.466,4.491
		c2.386-1.334,3.642-2.827,3.735-4.441C27.885,5.836,25.481,3.414,24.026,2.262z"/>
</g>
</svg>
