<?xml version="1.0" encoding="utf-8"?>
<!-- Generator: Adobe Illustrator 16.0.0, SVG Export Plug-In . SVG Version: 6.00 Build 0)  -->
<!DOCTYPE svg PUBLIC "-//W3C//DTD SVG 1.1//EN" "http://www.w3.org/Graphics/SVG/1.1/DTD/svg11.dtd">
<svg version="1.1" id="Layer_1" xmlns="http://www.w3.org/2000/svg" xmlns:xlink="http://www.w3.org/1999/xlink" x="0px" y="0px"
	 width="48px" height="48px" viewBox="0 0 48 48" enable-background="new 0 0 48 48" xml:space="preserve">
<g>
	<path d="M5.047,11.833c-0.345,0-0.681-0.178-0.866-0.499c-0.277-0.478-0.114-1.089,0.364-1.367l15.428-8.947
		c0.478-0.276,1.09-0.115,1.367,0.364c0.277,0.478,0.114,1.089-0.364,1.367L5.547,11.698C5.39,11.79,5.217,11.833,5.047,11.833z"/>
	<path d="M20.475,10.108c-0.345,0-0.681-0.179-0.866-0.499c-0.277-0.478-0.114-1.09,0.364-1.366l5.575-3.227
		c0.476-0.277,1.089-0.114,1.366,0.364s0.113,1.09-0.364,1.366l-5.575,3.227C20.817,10.064,20.645,10.108,20.475,10.108z"/>
	<path d="M22.653,16.259c-0.345,0-0.681-0.179-0.866-0.499c-0.277-0.478-0.114-1.09,0.364-1.367l5.573-3.229
		c0.478-0.275,1.09-0.113,1.366,0.364c0.277,0.478,0.114,1.09-0.364,1.367l-5.572,3.229C22.996,16.215,22.823,16.259,22.653,16.259z
		"/>
	<path d="M22.653,24.208c-0.345,0-0.68-0.178-0.866-0.498c-0.277-0.478-0.115-1.089,0.363-1.367l5.573-3.236
		c0.479-0.277,1.091-0.115,1.367,0.363c0.277,0.478,0.114,1.089-0.363,1.367l-5.573,3.236
		C22.996,24.165,22.823,24.208,22.653,24.208z"/>
	<path d="M22.47,43.073c-0.345,0-0.681-0.179-0.866-0.499c-0.277-0.478-0.114-1.09,0.364-1.366l5.572-3.228
		c0.477-0.277,1.089-0.113,1.366,0.364s0.114,1.09-0.364,1.366l-5.571,3.228C22.812,43.03,22.64,43.073,22.47,43.073z"/>
	<path d="M25.256,36.496c-3.282,0-5.953-2.67-5.953-5.952c0-3.281,2.67-5.951,5.953-5.951s5.952,2.67,5.952,5.951
		C31.208,33.826,28.538,36.496,25.256,36.496z M25.256,26.593c-2.18,0-3.953,1.772-3.953,3.951c0,2.18,1.773,3.952,3.953,3.952
		s3.952-1.772,3.952-3.952C29.208,28.365,27.436,26.593,25.256,26.593z"/>
	<g>
		<path d="M29.744,27.038h-2V13.439C27.744,7.131,22.704,2,16.509,2S5.273,7.131,5.273,13.439c0,1.321,1.074,2.396,2.395,2.396
			s2.395-1.075,2.395-2.396c0-3.669,2.892-6.655,6.446-6.655c3.555,0,6.446,2.985,6.446,6.655v13.415h-2V13.439
			c0-2.567-1.995-4.655-4.446-4.655s-4.446,2.088-4.446,4.655c0,2.424-1.972,4.396-4.395,4.396s-4.395-1.972-4.395-4.396
			C3.273,6.029,9.21,0,16.509,0c7.298,0,13.235,6.029,13.235,13.439V27.038z"/>
		<path d="M25.348,48.001c-2.422,0-4.393-1.972-4.393-4.396v-9.385h2v9.385c0,1.321,1.073,2.396,2.393,2.396
			c1.321,0,2.396-1.074,2.396-2.396v-9.551h2v9.551C29.744,46.029,27.771,48.001,25.348,48.001z"/>
	</g>
	<path d="M9.666,37.65c-0.764,0-1.454-0.159-2.034-0.479c-0.638-0.352-1.464-1.079-1.78-2.555c-0.305-1.424-0.147-2.709,0.006-3.952
		c0.087-0.712,0.17-1.384,0.17-2.08c0-0.264-0.012-0.542-0.023-0.825c-0.041-0.988-0.087-2.107,0.289-3.094
		c0.633-1.674,2.063-1.569,3.008-1.5l0.39,0.026c1.202,0.063,2.307,0.434,3.375,0.792c0.292,0.098,0.583,0.196,0.872,0.286
		c0.584,0.183,1.11,0.429,1.618,0.667c0.363,0.171,0.729,0.343,1.113,0.484c1.494,0.549,4.099,1.521,4.734,1.861l-0.946,1.762
		c-0.368-0.197-2.125-0.883-4.478-1.746c-0.44-0.162-0.857-0.356-1.271-0.551c-0.468-0.219-0.91-0.427-1.363-0.568
		c-0.302-0.094-0.607-0.195-0.914-0.299c-0.984-0.33-1.914-0.643-2.842-0.691L9.156,25.16c-0.886-0.063-0.893-0.05-0.992,0.215
		c-0.231,0.605-0.195,1.468-0.161,2.302c0.013,0.313,0.025,0.618,0.025,0.908c0,0.819-0.094,1.584-0.185,2.324
		c-0.139,1.128-0.27,2.194-0.035,3.289c0.129,0.601,0.387,1,0.789,1.222c0.642,0.354,1.698,0.305,2.894-0.138
		c0.56-0.209,1.126-0.408,1.692-0.607c1.032-0.363,2.099-0.739,3.132-1.182c0.44-0.187,0.888-0.313,1.321-0.435
		c0.622-0.176,1.209-0.341,1.624-0.646l1.185,1.611c-0.707,0.521-1.535,0.754-2.266,0.96c-0.39,0.11-0.759,0.215-1.081,0.351
		c-1.091,0.466-2.189,0.853-3.251,1.227c-0.555,0.195-1.108,0.391-1.661,0.597C11.294,37.486,10.441,37.65,9.666,37.65z"/>
	<path d="M40.74,37.65c-0.775,0-1.627-0.164-2.517-0.491c-0.554-0.206-1.104-0.399-1.653-0.594
		c-1.065-0.375-2.167-0.764-3.266-1.232c-0.319-0.136-0.688-0.239-1.08-0.35c-0.73-0.206-1.558-0.44-2.266-0.96l1.184-1.611
		c0.416,0.305,1.003,0.471,1.625,0.646c0.434,0.123,0.883,0.249,1.32,0.435c1.041,0.445,2.111,0.822,3.146,1.187
		c0.562,0.198,1.123,0.396,1.684,0.604c1.195,0.44,2.251,0.49,2.892,0.137c0.402-0.222,0.66-0.621,0.789-1.222
		c0.232-1.093,0.102-2.157-0.038-3.284c-0.092-0.741-0.187-1.508-0.187-2.329c0-0.292,0.013-0.6,0.025-0.913
		c0.035-0.833,0.071-1.693-0.157-2.296c-0.099-0.259-0.107-0.28-0.998-0.216l-0.431,0.028c-0.923,0.049-1.852,0.359-2.835,0.689
		c-0.31,0.104-0.618,0.207-0.927,0.302c-0.447,0.141-0.891,0.349-1.359,0.568c-0.414,0.194-0.83,0.388-1.265,0.549
		c-1.855,0.679-4.049,1.515-4.49,1.749L29,27.28c0.709-0.377,3.805-1.519,4.736-1.86c0.379-0.14,0.743-0.313,1.106-0.482
		c0.509-0.238,1.034-0.485,1.614-0.667c0.298-0.092,0.592-0.19,0.886-0.289c1.067-0.357,2.171-0.728,3.366-0.79l0.39-0.026
		c0.945-0.067,2.375-0.174,3.013,1.5c0.374,0.986,0.328,2.104,0.286,3.089c-0.012,0.285-0.023,0.564-0.023,0.83
		c0,0.698,0.083,1.371,0.171,2.084c0.154,1.241,0.313,2.525,0.009,3.948c-0.316,1.476-1.142,2.203-1.779,2.555
		C42.195,37.491,41.505,37.65,40.74,37.65z"/>
</g>
</svg>
