<?xml version="1.0" encoding="utf-8"?>
<!-- Generator: Adobe Illustrator 16.0.0, SVG Export Plug-In . SVG Version: 6.00 Build 0)  -->
<!DOCTYPE svg PUBLIC "-//W3C//DTD SVG 1.1//EN" "http://www.w3.org/Graphics/SVG/1.1/DTD/svg11.dtd">
<svg version="1.1" id="Layer_1" xmlns="http://www.w3.org/2000/svg" xmlns:xlink="http://www.w3.org/1999/xlink" x="0px" y="0px"
	 width="48px" height="48px" viewBox="0 0 48 48" enable-background="new 0 0 48 48" xml:space="preserve">
<g>
	<path d="M24.001,48c-9.922,0-17.995-8.072-17.995-17.995c0-9.922,8.073-17.995,17.995-17.995c9.921,0,17.992,8.073,17.992,17.995
		C41.993,39.928,33.922,48,24.001,48z M24.001,14.01c-8.82,0-15.995,7.175-15.995,15.995C8.006,38.824,15.181,46,24.001,46
		c8.818,0,15.992-7.176,15.992-15.995C39.993,21.185,32.819,14.01,24.001,14.01z"/>
	<path d="M33.508,16.861c-0.553,0-1-0.448-1-1V8.624h-17.01v7.237c0,0.552-0.448,1-1,1s-1-0.448-1-1V7.624c0-0.552,0.448-1,1-1
		h19.01c0.553,0,1,0.448,1,1v8.237C34.508,16.413,34.061,16.861,33.508,16.861z"/>
	<path d="M30.563,8.123c-0.553,0-1-0.448-1-1C29.563,4.298,27.067,2,24.001,2c-3.067,0-5.563,2.298-5.563,5.123c0,0.552-0.448,1-1,1
		s-1-0.448-1-1C16.438,3.195,19.831,0,24.001,0c4.169,0,7.562,3.195,7.562,7.123C31.563,7.675,31.115,8.123,30.563,8.123z"/>
	<g>
		<rect x="25.784" y="16.32" transform="matrix(0.7071 0.7071 -0.7071 0.7071 31.0283 -9.3362)" width="2" height="32.933"/>
		<rect x="20.217" y="10.758" transform="matrix(0.7071 0.7071 -0.7071 0.7071 25.463 -7.0298)" width="2" height="32.928"/>
	</g>
</g>
</svg>
