<?xml version="1.0" encoding="utf-8"?>
<!-- Generator: Adobe Illustrator 16.0.0, SVG Export Plug-In . SVG Version: 6.00 Build 0)  -->
<!DOCTYPE svg PUBLIC "-//W3C//DTD SVG 1.1//EN" "http://www.w3.org/Graphics/SVG/1.1/DTD/svg11.dtd">
<svg version="1.1" id="Layer_1" xmlns="http://www.w3.org/2000/svg" xmlns:xlink="http://www.w3.org/1999/xlink" x="0px" y="0px"
	 width="48px" height="48px" viewBox="0 0 48 48" enable-background="new 0 0 48 48" xml:space="preserve">
<g>
	<path d="M23.995,48c-9.919,0-17.988-8.072-17.988-17.995c0-9.922,8.069-17.995,17.988-17.995c9.924,0,17.997,8.073,17.997,17.995
		C41.992,39.928,33.919,48,23.995,48z M23.995,14.01c-8.816,0-15.988,7.175-15.988,15.995C8.007,38.824,15.179,46,23.995,46
		c8.821,0,15.997-7.176,15.997-15.995C39.992,21.185,32.816,14.01,23.995,14.01z"/>
	<path d="M33.506,16.861c-0.553,0-1-0.448-1-1V8.624h-17.01v7.237c0,0.552-0.448,1-1,1s-1-0.448-1-1V7.624c0-0.552,0.448-1,1-1
		h19.01c0.553,0,1,0.448,1,1v8.237C34.506,16.413,34.059,16.861,33.506,16.861z"/>
	<path d="M30.559,8.123c-0.553,0-1-0.448-1-1C29.559,4.298,27.063,2,23.995,2c-3.066,0-5.56,2.298-5.56,5.123c0,0.552-0.448,1-1,1
		s-1-0.448-1-1c0-3.928,3.392-7.123,7.56-7.123c4.171,0,7.563,3.195,7.563,7.123C31.559,7.675,31.111,8.123,30.559,8.123z"/>
</g>
</svg>
