<?xml version="1.0" encoding="utf-8"?>
<!-- Generator: Adobe Illustrator 16.0.0, SVG Export Plug-In . SVG Version: 6.00 Build 0)  -->
<!DOCTYPE svg PUBLIC "-//W3C//DTD SVG 1.1//EN" "http://www.w3.org/Graphics/SVG/1.1/DTD/svg11.dtd">
<svg version="1.1" id="Layer_1" xmlns="http://www.w3.org/2000/svg" xmlns:xlink="http://www.w3.org/1999/xlink" x="0px" y="0px"
	 width="48px" height="48px" viewBox="0 0 48 48" enable-background="new 0 0 48 48" xml:space="preserve">
<g>
	<path d="M18.249,26.805c-0.207,0-0.413-0.064-0.588-0.191c-0.325-0.236-0.477-0.644-0.386-1.035l1.383-5.945l-4.616-4.002
		c-0.304-0.263-0.42-0.683-0.296-1.064c0.125-0.382,0.465-0.653,0.866-0.688l6.091-0.522l2.374-5.627
		c0.156-0.37,0.519-0.611,0.921-0.611h0c0.402,0,0.765,0.24,0.921,0.61l2.382,5.628l6.087,0.523c0.4,0.034,0.741,0.305,0.865,0.687
		s0.008,0.802-0.297,1.065l-4.62,4.002l1.341,5.757c0.059,0.127,0.09,0.267,0.09,0.415c0,0.553-0.447,1-1,1
		c-0.005,0.001-0.012,0.001-0.02,0c-0.179,0-0.356-0.048-0.516-0.144l-5.233-3.153l-5.232,3.153
		C18.606,26.757,18.427,26.805,18.249,26.805z M17.14,15.669l3.284,2.848c0.28,0.243,0.403,0.621,0.319,0.982l-0.984,4.229
		l3.722-2.243c0.317-0.191,0.715-0.191,1.032,0l3.723,2.243l-0.984-4.228c-0.085-0.362,0.038-0.74,0.319-0.983l3.287-2.847
		l-4.33-0.372c-0.369-0.031-0.69-0.265-0.835-0.606l-1.694-4.003l-1.688,4.002c-0.144,0.342-0.466,0.576-0.836,0.607L17.14,15.669z"
		/>
	<path d="M23.997,48L23.997,48c-0.324,0-0.628-0.157-0.816-0.422C22.54,46.674,7.477,25.317,7.477,16.529
		C7.477,7.415,14.888,0,23.997,0c9.111,0,16.524,7.415,16.524,16.529c0,8.789-15.067,30.145-15.709,31.049
		C24.625,47.843,24.321,48,23.997,48z M23.997,2c-8.006,0-14.52,6.518-14.52,14.529c0,7.052,11.345,24.087,14.52,28.716
		c3.176-4.629,14.524-21.667,14.524-28.716C38.521,8.518,32.006,2,23.997,2z"/>
</g>
</svg>
