<?xml version="1.0" encoding="utf-8"?>
<!-- Generator: Adobe Illustrator 16.0.0, SVG Export Plug-In . SVG Version: 6.00 Build 0)  -->
<!DOCTYPE svg PUBLIC "-//W3C//DTD SVG 1.1//EN" "http://www.w3.org/Graphics/SVG/1.1/DTD/svg11.dtd">
<svg version="1.1" id="Layer_1" xmlns="http://www.w3.org/2000/svg" xmlns:xlink="http://www.w3.org/1999/xlink" x="0px" y="0px"
	 width="48px" height="48px" viewBox="0 0 48 48" enable-background="new 0 0 48 48" xml:space="preserve">
<g>
	<path d="M5.651,11.555c-3.115,0-5.65-2.593-5.65-5.779s2.535-5.779,5.65-5.779s5.65,2.592,5.65,5.779S8.766,11.555,5.651,11.555z
		 M5.651,1.997c-2.013,0-3.65,1.695-3.65,3.779c0,2.084,1.637,3.779,3.65,3.779s3.65-1.695,3.65-3.779
		C9.301,3.692,7.664,1.997,5.651,1.997z"/>
	<path d="M42.348,48c-3.115,0-5.65-2.591-5.65-5.775c0-3.184,2.535-5.773,5.65-5.773c1.516,0,2.938,0.603,4.005,1.698
		c1.062,1.088,1.646,2.535,1.646,4.075C47.999,45.409,45.464,48,42.348,48z M42.35,38.451c-2.014,0-3.652,1.692-3.652,3.773
		c0,2.082,1.638,3.775,3.65,3.775c2.014,0,3.651-1.693,3.651-3.775C45.999,40.144,44.361,38.451,42.35,38.451z"/>
	<g>
		<path d="M14.827,47.999c-5.61,0-10.174-4.764-10.174-10.619V10.555c0-0.552,0.448-1,1-1s1,0.448,1,1V37.38
			c0,4.753,3.667,8.619,8.174,8.619c4.507,0,8.174-3.866,8.174-8.619V20.067c0-0.552,0.448-1,1-1c0.553,0,1,0.448,1,1V37.38
			C25.001,43.235,20.437,47.999,14.827,47.999z"/>
		<path d="M42.348,38.45c-0.553,0-1-0.447-1-1V10.617C41.348,5.866,37.68,2,33.171,2c-4.505,0-8.17,3.866-8.17,8.617v17.318
			c0,0.553-0.447,1-1,1c-0.552,0-1-0.447-1-1V10.617C23.001,4.763,27.563,0,33.171,0c5.611,0,10.177,4.763,10.177,10.617V37.45
			C43.348,38.003,42.9,38.45,42.348,38.45z"/>
	</g>
</g>
</svg>
