<?xml version="1.0" encoding="utf-8"?>
<!-- Generator: Adobe Illustrator 16.0.0, SVG Export Plug-In . SVG Version: 6.00 Build 0)  -->
<!DOCTYPE svg PUBLIC "-//W3C//DTD SVG 1.1//EN" "http://www.w3.org/Graphics/SVG/1.1/DTD/svg11.dtd">
<svg version="1.1" id="Layer_1" xmlns="http://www.w3.org/2000/svg" xmlns:xlink="http://www.w3.org/1999/xlink" x="0px" y="0px"
	 width="48px" height="48px" viewBox="0 0 48 48" enable-background="new 0 0 48 48" xml:space="preserve">
<g>
	<g>
		<path d="M24,19.473c-5.37,0-9.738-4.369-9.738-9.738S18.63-0.003,24-0.003c5.37,0,9.738,4.368,9.738,9.738S29.37,19.473,24,19.473
			z M24,1.997c-4.267,0-7.738,3.471-7.738,7.738c0,4.267,3.471,7.738,7.738,7.738s7.738-3.471,7.738-7.738
			C31.738,5.468,28.267,1.997,24,1.997z"/>
		<path d="M23.999,48c-0.552,0-1-0.447-1-1V18.47c0-0.552,0.448-1,1-1c0.553,0,1,0.448,1,1V47C24.999,47.553,24.552,48,23.999,48z"
			/>
	</g>
	<path d="M27.275,12.233c-0.097,0-0.195-0.015-0.293-0.044c-0.527-0.162-0.825-0.721-0.663-1.249
		c0.294-0.962,0.259-1.794-0.104-2.475c-0.64-1.197-2.105-1.65-2.12-1.655c-0.527-0.159-0.829-0.714-0.672-1.242
		c0.156-0.528,0.707-0.83,1.234-0.677c0.093,0.027,2.264,0.676,3.311,2.611c0.633,1.171,0.722,2.524,0.263,4.022
		C28.1,11.956,27.704,12.233,27.275,12.233z"/>
</g>
</svg>
