<?xml version="1.0" encoding="utf-8"?>
<!-- Generator: Adobe Illustrator 16.0.0, SVG Export Plug-In . SVG Version: 6.00 Build 0)  -->
<!DOCTYPE svg PUBLIC "-//W3C//DTD SVG 1.1//EN" "http://www.w3.org/Graphics/SVG/1.1/DTD/svg11.dtd">
<svg version="1.1" id="Layer_1" xmlns="http://www.w3.org/2000/svg" xmlns:xlink="http://www.w3.org/1999/xlink" x="0px" y="0px"
	 width="48px" height="48px" viewBox="0 0 48 48" enable-background="new 0 0 48 48" xml:space="preserve">
<g>
	<g>
		<g>
			<path d="M24,19.573c-5.53,0-10.029-4.391-10.029-9.787S18.47-0.001,24-0.001c5.53,0,10.029,4.391,10.029,9.787
				S29.53,19.573,24,19.573z M24,1.999c-4.427,0-8.029,3.493-8.029,7.787s3.602,7.787,8.029,7.787c4.428,0,8.029-3.493,8.029-7.787
				S28.428,1.999,24,1.999z"/>
			<path d="M23.999,42.826c-0.552,0-1-0.447-1-1V18.573c0-0.552,0.448-1,1-1c0.553,0,1,0.448,1,1v23.253
				C24.999,42.379,24.552,42.826,23.999,42.826z"/>
		</g>
		<path d="M27.382,12.293c-0.1,0-0.2-0.015-0.301-0.047c-0.526-0.166-0.819-0.728-0.653-1.254c0.307-0.97,0.274-1.776-0.097-2.463
			c-0.659-1.219-2.195-1.681-2.21-1.686c-0.532-0.15-0.841-0.702-0.691-1.233s0.703-0.841,1.233-0.691
			c0.096,0.027,2.36,0.684,3.428,2.66c0.633,1.172,0.715,2.523,0.245,4.016C28.201,12.021,27.807,12.293,27.382,12.293z"/>
	</g>
	<path d="M23.999,48c-11.635,0-24-3.24-24-9.245c0-5.151,9.345-8.243,18.606-9.022l0.168,1.992
		c-10.895,0.917-16.774,4.307-16.774,7.03c0,3.427,9.035,7.245,22,7.245c12.967,0,22.003-3.818,22.003-7.245
		c0-2.655-5.721-6.008-16.322-6.989l0.184-1.992c9.028,0.837,18.139,3.938,18.139,8.981C48.002,44.76,35.635,48,23.999,48z"/>
</g>
</svg>
