<?xml version="1.0" encoding="utf-8"?>
<!-- Generator: Adobe Illustrator 16.0.0, SVG Export Plug-In . SVG Version: 6.00 Build 0)  -->
<!DOCTYPE svg PUBLIC "-//W3C//DTD SVG 1.1//EN" "http://www.w3.org/Graphics/SVG/1.1/DTD/svg11.dtd">
<svg version="1.1" id="Layer_1" xmlns="http://www.w3.org/2000/svg" xmlns:xlink="http://www.w3.org/1999/xlink" x="0px" y="0px"
	 width="48px" height="48px" viewBox="0 0 48 48" enable-background="new 0 0 48 48" xml:space="preserve">
<g>
	<g>
		<path d="M37.489,48c-0.067,0-0.136-0.007-0.204-0.021l-26.979-5.6c-0.541-0.112-0.888-0.642-0.776-1.183
			c0.112-0.542,0.643-0.885,1.182-0.776l26.979,5.6c0.541,0.112,0.889,0.642,0.776,1.183C38.369,47.676,37.953,48,37.489,48z"/>
		<path d="M10.509,48c-0.464,0-0.88-0.324-0.978-0.797c-0.112-0.541,0.235-1.07,0.776-1.183l26.979-5.6
			c0.536-0.108,1.069,0.234,1.183,0.776c0.112,0.541-0.235,1.07-0.776,1.183l-26.979,5.6C10.645,47.993,10.576,48,10.509,48z"/>
	</g>
	<g>
		<g>
			<path d="M24.002,19.519c-5.519,0-10.009-4.379-10.009-9.761C13.993,4.377,18.482,0,24.001,0c5.517,0,10.004,4.377,10.004,9.758
				C34.005,15.14,29.518,19.519,24.002,19.519z M24.001,2c-4.416,0-8.008,3.48-8.008,7.758c0,4.28,3.593,7.761,8.009,7.761
				c4.413,0,8.003-3.481,8.003-7.761C32.005,5.48,28.414,2,24.001,2z"/>
			<path d="M24.001,39.652c-0.552,0-1-0.447-1-1V18.519c0-0.552,0.448-1,1-1c0.553,0,1,0.448,1,1v20.133
				C25.001,39.205,24.554,39.652,24.001,39.652z"/>
		</g>
		<path d="M27.371,12.264c-0.1,0-0.2-0.015-0.301-0.047c-0.526-0.166-0.819-0.727-0.653-1.254c0.305-0.967,0.273-1.771-0.098-2.455
			c-0.656-1.214-2.186-1.673-2.201-1.677c-0.532-0.15-0.842-0.702-0.692-1.233c0.149-0.532,0.698-0.842,1.234-0.692
			c0.096,0.027,2.354,0.681,3.419,2.651c0.632,1.169,0.715,2.517,0.246,4.007C28.19,11.99,27.796,12.264,27.371,12.264z"/>
	</g>
</g>
</svg>
