<?xml version="1.0" encoding="utf-8"?>
<!-- Generator: Adobe Illustrator 16.0.0, SVG Export Plug-In . SVG Version: 6.00 Build 0)  -->
<!DOCTYPE svg PUBLIC "-//W3C//DTD SVG 1.1//EN" "http://www.w3.org/Graphics/SVG/1.1/DTD/svg11.dtd">
<svg version="1.1" id="Layer_1" xmlns="http://www.w3.org/2000/svg" xmlns:xlink="http://www.w3.org/1999/xlink" x="0px" y="0px"
	 width="48px" height="48px" viewBox="0 0 48 48" enable-background="new 0 0 48 48" xml:space="preserve">
<g>
	<g>
		<path d="M24,14.96c-4.126,0-7.483-3.357-7.483-7.484C16.517,3.354,19.874,0,24,0c4.125,0,7.48,3.354,7.48,7.476
			C31.48,11.603,28.125,14.96,24,14.96z M24,2c-3.023,0-5.483,2.457-5.483,5.476c0,3.024,2.459,5.484,5.483,5.484
			c3.021,0,5.48-2.46,5.48-5.484C29.48,4.457,27.021,2,24,2z"/>
		<path d="M35.915,40.682H12.081c-0.552,0-1-0.447-1-1V27.968c0-6.426,5.231-11.655,11.66-11.655h2.515
			c6.43,0,11.66,5.229,11.66,11.655l-0.001,11.714C36.915,40.234,36.467,40.682,35.915,40.682z M13.081,38.682h21.834V27.968
			c0-2.567-1.007-4.988-2.837-6.818c-1.83-1.829-4.253-2.837-6.822-2.837h-2.515c-5.327,0-9.66,4.331-9.66,9.655V38.682z"/>
	</g>
	<path d="M24,48c-11.634,0-23.999-2.928-23.999-8.354c0-2.572,2.769-4.761,8.007-6.329c0.526-0.154,1.086,0.142,1.245,0.671
		c0.158,0.529-0.142,1.087-0.671,1.245c-4.059,1.216-6.581,2.906-6.581,4.413C2.001,42.646,11.409,46,24,46s21.999-3.355,22-6.355
		c0-1.548-2.621-3.269-6.841-4.488c-0.53-0.153-0.836-0.708-0.683-1.239c0.153-0.529,0.709-0.833,1.239-0.683
		C45.058,34.78,48,37.057,48,39.645C47.999,45.071,35.634,48,24,48z"/>
</g>
</svg>
