<?xml version="1.0" encoding="utf-8"?>
<!-- Generator: Adobe Illustrator 16.0.0, SVG Export Plug-In . SVG Version: 6.00 Build 0)  -->
<!DOCTYPE svg PUBLIC "-//W3C//DTD SVG 1.1//EN" "http://www.w3.org/Graphics/SVG/1.1/DTD/svg11.dtd">
<svg version="1.1" id="Layer_1" xmlns="http://www.w3.org/2000/svg" xmlns:xlink="http://www.w3.org/1999/xlink" x="0px" y="0px"
	 width="48px" height="48px" viewBox="0 0 48 48" enable-background="new 0 0 48 48" xml:space="preserve">
<g>
	<path d="M19.023,29.979c-0.183,0-0.367-0.05-0.531-0.152L0.47,18.526c-0.324-0.203-0.503-0.573-0.463-0.953
		c0.04-0.38,0.294-0.704,0.653-0.834L46.658,0.06c0.436-0.16,0.933,0.007,1.185,0.403c0.252,0.395,0.194,0.912-0.137,1.244
		L19.731,29.686C19.538,29.879,19.282,29.979,19.023,29.979z M3.269,17.92l15.611,9.788L43.112,3.473L3.269,17.92z"/>
	<path d="M30.32,48c-0.342,0-0.663-0.175-0.848-0.469L18.177,29.51c-0.248-0.396-0.189-0.908,0.14-1.238L46.292,0.293
		c0.332-0.332,0.85-0.388,1.244-0.137c0.396,0.251,0.563,0.744,0.403,1.185l-16.679,46c-0.131,0.359-0.454,0.613-0.835,0.653
		C30.391,47.998,30.355,48,30.32,48z M20.294,29.122l9.785,15.61L44.525,4.888L20.294,29.122z"/>
</g>
</svg>
