<?xml version="1.0" encoding="utf-8"?>
<!-- Generator: Adobe Illustrator 16.0.0, SVG Export Plug-In . SVG Version: 6.00 Build 0)  -->
<!DOCTYPE svg PUBLIC "-//W3C//DTD SVG 1.1//EN" "http://www.w3.org/Graphics/SVG/1.1/DTD/svg11.dtd">
<svg version="1.1" id="Layer_1" xmlns="http://www.w3.org/2000/svg" xmlns:xlink="http://www.w3.org/1999/xlink" x="0px" y="0px"
	 width="48px" height="48px" viewBox="0 0 48 48" enable-background="new 0 0 48 48" xml:space="preserve">
<g>
	<path d="M24.016,46.406l-0.713-0.69c-2.979-2.885-5.906-5.45-8.489-7.713C6.213,30.467,0,25.022,0,15.741
		C0,8.166,6.164,2.003,13.739,2.003c3.915,0,7.663,1.706,10.259,4.618c2.595-2.912,6.344-4.618,10.26-4.618
		C41.835,2.003,48,8.166,48,15.741c0,7.87-6.077,13.568-14.489,21.455c-2.659,2.494-5.674,5.32-8.8,8.502L24.016,46.406z
		 M13.739,4.003C7.266,4.003,2,9.269,2,15.741c0,8.374,5.928,13.568,14.132,20.757c2.395,2.099,5.083,4.455,7.848,7.095
		c2.904-2.924,5.686-5.533,8.163-7.855C40.487,27.914,46,22.745,46,15.741c0-6.473-5.268-11.738-11.742-11.738
		c-3.709,0-7.244,1.793-9.454,4.797l-0.805,1.094L23.193,8.8C20.948,5.751,17.502,4.003,13.739,4.003z"/>
	<path d="M24.519,36.986c-0.45,0-0.849-0.303-0.965-0.743l-4.26-16.033l-1.113,6.548c-0.082,0.48-0.498,0.832-0.986,0.832H6.614
		c-0.552,0-1-0.447-1-1s0.448-1,1-1h9.735l1.743-10.25c0.079-0.464,0.47-0.81,0.94-0.832c0.477-0.008,0.891,0.288,1.012,0.742
		l4.189,15.766l3.351-22.972c0.068-0.47,0.458-0.827,0.933-0.854c0.465-0.025,0.902,0.284,1.023,0.744l4.654,17.657H47
		c0.553,0,1,0.447,1,1s-0.447,1-1,1H33.425c-0.454,0-0.852-0.306-0.967-0.745l-3.602-13.663l-3.348,22.948
		c-0.068,0.47-0.458,0.826-0.932,0.854C24.558,36.985,24.538,36.986,24.519,36.986z"/>
</g>
</svg>
