<?xml version="1.0" encoding="utf-8"?>
<!-- Generator: Adobe Illustrator 16.0.0, SVG Export Plug-In . SVG Version: 6.00 Build 0)  -->
<!DOCTYPE svg PUBLIC "-//W3C//DTD SVG 1.1//EN" "http://www.w3.org/Graphics/SVG/1.1/DTD/svg11.dtd">
<svg version="1.1" id="Layer_1" xmlns="http://www.w3.org/2000/svg" xmlns:xlink="http://www.w3.org/1999/xlink" x="0px" y="0px"
	 width="48px" height="48px" viewBox="0 0 48 48" enable-background="new 0 0 48 48" xml:space="preserve">
<g>
	<g>
		<path d="M24.557,15.633c-4.294,0-7.788-3.506-7.788-7.816s3.494-7.816,7.788-7.816c4.296,0,7.791,3.506,7.791,7.816
			S28.853,15.633,24.557,15.633z M24.557,2.001c-3.191,0-5.788,2.609-5.788,5.816s2.596,5.816,5.788,5.816
			c3.193,0,5.791-2.609,5.791-5.816S27.75,2.001,24.557,2.001z"/>
		<path d="M24.557,37.887c-0.552,0-1-0.447-1-1V14.633c0-0.552,0.448-1,1-1c0.553,0,1,0.448,1,1v22.254
			C25.557,37.439,25.109,37.887,24.557,37.887z"/>
	</g>
	<g>
		<path d="M31.666,47.999c-0.217,0-0.432-0.071-0.607-0.206c-0.247-0.188-0.393-0.482-0.393-0.794V25.016
			c0-0.451,0.303-0.847,0.738-0.965l15.334-4.155c0.299-0.08,0.623-0.018,0.869,0.171C47.854,20.256,48,20.549,48,20.861V42.84
			c0,0.451-0.303,0.847-0.738,0.965l-15.334,4.159C31.842,47.987,31.754,47.999,31.666,47.999z M32.666,25.78v19.911L46,42.075
			V22.168L32.666,25.78z"/>
		<path d="M1,47.999c-0.217,0-0.431-0.071-0.607-0.206C0.145,47.604,0,47.311,0,46.999V25.016c0-0.451,0.303-0.847,0.738-0.965
			l15.333-4.155c0.301-0.082,0.622-0.018,0.869,0.171c0.248,0.189,0.393,0.483,0.393,0.794V42.84c0,0.451-0.303,0.847-0.738,0.965
			L1.262,47.964C1.175,47.987,1.087,47.999,1,47.999z M2,25.78v19.911l13.333-3.616V22.168L2,25.78z"/>
		<path d="M31.666,47.999c-0.088,0-0.176-0.012-0.262-0.035l-15.333-4.159c-0.436-0.118-0.738-0.514-0.738-0.965V20.861
			c0-0.312,0.145-0.605,0.393-0.794c0.247-0.189,0.568-0.252,0.869-0.171l15.333,4.155c0.436,0.118,0.738,0.514,0.738,0.965v21.983
			c0,0.312-0.146,0.605-0.393,0.794C32.098,47.928,31.883,47.999,31.666,47.999z M17.333,42.075l13.333,3.616V25.78l-13.333-3.612
			V42.075z"/>
	</g>
</g>
</svg>
