<?xml version="1.0" encoding="utf-8"?>
<!-- Generator: Adobe Illustrator 16.0.0, SVG Export Plug-In . SVG Version: 6.00 Build 0)  -->
<!DOCTYPE svg PUBLIC "-//W3C//DTD SVG 1.1//EN" "http://www.w3.org/Graphics/SVG/1.1/DTD/svg11.dtd">
<svg version="1.1" id="Layer_1" xmlns="http://www.w3.org/2000/svg" xmlns:xlink="http://www.w3.org/1999/xlink" x="0px" y="0px"
	 width="48px" height="48px" viewBox="0 0 48 48" enable-background="new 0 0 48 48" xml:space="preserve">
<g>
	<path d="M1,48c-0.186,0-0.371-0.052-0.534-0.154C0.176,47.663,0,47.344,0,47V8.315C0,7.93,0.222,7.578,0.569,7.413l15.335-7.315
		c0.272-0.13,0.589-0.13,0.861,0l14.906,7.11l14.897-7.109c0.31-0.148,0.674-0.127,0.964,0.057C47.824,0.337,48,0.657,48,1v38.682
		c0,0.386-0.222,0.736-0.569,0.902l-15.328,7.318c-0.271,0.131-0.59,0.131-0.861,0L16.335,40.79L1.431,47.902
		C1.294,47.968,1.147,48,1,48z M16.335,38.682c0.147,0,0.294,0.032,0.431,0.098l14.906,7.112L46,39.051V2.585L32.103,9.217
		c-0.271,0.13-0.588,0.13-0.861,0l-14.906-7.11L2,8.946v36.469l13.904-6.636C16.041,38.714,16.188,38.682,16.335,38.682z"/>
	<g>
		<g>
			<path d="M42.16,25.063c-0.256,0-0.512-0.097-0.707-0.292l-9.344-9.343c-0.391-0.391-0.391-1.023,0-1.414s1.023-0.391,1.414,0
				l9.344,9.343c0.391,0.391,0.391,1.023,0,1.415C42.672,24.965,42.416,25.063,42.16,25.063z"/>
			<path d="M32.816,25.063c-0.256,0-0.512-0.097-0.707-0.292c-0.391-0.391-0.391-1.024,0-1.415l9.344-9.343
				c0.391-0.391,1.023-0.391,1.414,0s0.391,1.023,0,1.414l-9.344,9.343C33.328,24.966,33.072,25.063,32.816,25.063z"/>
		</g>
		<g>
			<g>
				<path d="M4.874,33.388c-0.023-0.199-0.034-0.404-0.034-0.616h2c0,0.132,0.006,0.259,0.021,0.384L4.874,33.388z"/>
				<path d="M30.522,33.295c-0.121,0-0.244-0.004-0.366-0.011l0.113-1.996c0.282,0.016,0.56,0.004,0.833-0.028l0.236,1.986
					C31.069,33.278,30.796,33.295,30.522,33.295z M28.983,33.113c-0.396-0.094-0.781-0.228-1.146-0.398l0.852-1.811
					c0.238,0.112,0.493,0.201,0.755,0.264L28.983,33.113z M32.489,33.009l-0.559-1.92c0.27-0.079,0.54-0.181,0.804-0.303
					l0.842,1.814C33.221,32.765,32.855,32.902,32.489,33.009z M26.796,32.082c-0.304-0.231-0.598-0.503-0.873-0.806l1.479-1.346
					c0.197,0.217,0.396,0.4,0.607,0.562L26.796,32.082z M34.581,32.044l-1.086-1.68c0.246-0.159,0.482-0.336,0.708-0.526
					l1.291,1.527C35.199,31.614,34.893,31.843,34.581,32.044z M6.918,31.932l-1.973-0.328c0.059-0.354,0.14-0.715,0.238-1.081
					l1.932,0.518C7.035,31.342,6.967,31.641,6.918,31.932z M36.312,30.571l-1.479-1.346c0.197-0.218,0.381-0.447,0.55-0.689
					l1.641,1.145C36.808,29.99,36.568,30.29,36.312,30.571z M25.215,30.374c-0.205-0.3-0.396-0.615-0.577-0.941l1.748-0.971
					c0.151,0.271,0.31,0.534,0.479,0.783L25.215,30.374z M7.393,30.13l-1.897-0.633c0.11-0.33,0.229-0.66,0.35-0.986l1.874,0.699
					C7.606,29.513,7.495,29.821,7.393,30.13z M37.615,28.708l-1.773-0.924c0.135-0.259,0.253-0.529,0.353-0.804l1.881,0.682
					C37.945,28.02,37.791,28.372,37.615,28.708z M24.149,28.482c-0.149-0.31-0.293-0.623-0.436-0.939l1.822-0.824
					c0.136,0.301,0.273,0.601,0.415,0.895L24.149,28.482z M8.076,28.279l-1.864-0.725l0.36-0.934l1.871,0.705L8.076,28.279z
					 M23.298,26.621c-0.136-0.3-0.273-0.598-0.417-0.89l1.797-0.879c0.151,0.31,0.297,0.625,0.44,0.942L23.298,26.621z M8.79,26.35
					l-1.889-0.658c0.124-0.356,0.265-0.702,0.422-1.035l1.808,0.857C9.004,25.782,8.891,26.062,8.79,26.35z M22.441,24.892
					c-0.152-0.268-0.313-0.526-0.486-0.77l1.632-1.156c0.211,0.298,0.407,0.612,0.593,0.938L22.441,24.892z M9.557,24.734
					l-1.689-1.071c0.207-0.325,0.434-0.636,0.677-0.924l1.528,1.29C9.889,24.248,9.715,24.485,9.557,24.734z M21.407,23.451
					c-0.238-0.242-0.426-0.404-0.627-0.553l1.191-1.606c0.282,0.209,0.546,0.438,0.787,0.68l0.1,0.102L21.407,23.451z
					 M10.676,23.415l-1.32-1.502c0.288-0.253,0.599-0.487,0.926-0.697l1.081,1.683C11.12,23.055,10.889,23.229,10.676,23.415z
					 M12.132,22.479l-0.845-1.813c0.331-0.154,0.677-0.293,1.035-0.416l0.649,1.892C12.681,22.242,12.4,22.354,12.132,22.479z
					 M20.055,22.444c-0.253-0.132-0.522-0.251-0.801-0.353l0.683-1.88c0.363,0.132,0.716,0.287,1.048,0.462L20.055,22.444z
					 M13.85,21.888l-0.467-1.944c0.354-0.085,0.714-0.155,1.079-0.209l0.294,1.979C14.45,21.758,14.147,21.816,13.85,21.888z
					 M18.397,21.837c-0.292-0.068-0.591-0.122-0.893-0.16l0.253-1.984c0.371,0.047,0.737,0.113,1.096,0.197L18.397,21.837z
					 M15.673,21.618l-0.119-1.996c0.242-0.015,0.46-0.028,0.728-0.021c0.122,0,0.247,0.002,0.372,0.006l-0.06,1.999l-0.314-0.005
					C16.081,21.607,15.875,21.606,15.673,21.618z"/>
				<path d="M38.395,26.496l-1.965-0.375c0.026-0.137,0.05-0.273,0.064-0.412l1.988,0.211
					C38.462,26.113,38.431,26.305,38.395,26.496z"/>
			</g>
		</g>
	</g>
</g>
</svg>
