<?xml version="1.0" encoding="utf-8"?>
<!-- Generator: Adobe Illustrator 16.0.0, SVG Export Plug-In . SVG Version: 6.00 Build 0)  -->
<!DOCTYPE svg PUBLIC "-//W3C//DTD SVG 1.1//EN" "http://www.w3.org/Graphics/SVG/1.1/DTD/svg11.dtd">
<svg version="1.1" id="Layer_1" xmlns="http://www.w3.org/2000/svg" xmlns:xlink="http://www.w3.org/1999/xlink" x="0px" y="0px"
	 width="48px" height="48px" viewBox="0 0 48 48" enable-background="new 0 0 48 48" xml:space="preserve">
<g>
	<path d="M24.001,44.645c-11.381,0-20.64-9.261-20.64-20.645c0-5.514,2.146-10.698,6.043-14.598C13.302,5.503,18.486,3.356,24,3.356
		c11.381,0,20.641,9.261,20.641,20.644C44.641,35.384,35.382,44.645,24.001,44.645z M24,5.356c-4.98,0-9.661,1.939-13.181,5.46
		C7.299,14.338,5.36,19.02,5.361,24c0,10.28,8.362,18.645,18.64,18.645S42.641,34.28,42.641,24S34.278,5.356,24,5.356z"/>
	<path d="M24.001,30.334c-3.494,0-6.337-2.842-6.337-6.334c0-3.497,2.843-6.342,6.337-6.342c3.495,0,6.339,2.845,6.339,6.342
		C30.34,27.492,27.496,30.334,24.001,30.334z M24.001,19.658c-2.392,0-4.337,1.948-4.337,4.342c0,2.39,1.945,4.334,4.337,4.334
		c2.393,0,4.339-1.944,4.339-4.334C28.34,21.606,26.394,19.658,24.001,19.658z"/>
	<g>
		<path d="M24,10.877c-0.552,0-1-0.448-1-1V1c0-0.552,0.448-1,1-1c0.553,0,1,0.448,1,1v8.877C25,10.429,24.553,10.877,24,10.877z"/>
		<path d="M24,48c-0.552,0-1-0.447-1-1v-8.882c0-0.553,0.448-1,1-1c0.553,0,1,0.447,1,1V47C25,47.553,24.553,48,24,48z"/>
	</g>
	<g>
		<path d="M46.998,25H38.12c-0.553,0-1-0.447-1-1c0-0.552,0.447-1,1-1h8.878c0.553,0,1,0.448,1,1C47.998,24.553,47.551,25,46.998,25
			z"/>
		<path d="M9.876,25H1.001c-0.552,0-1-0.447-1-1c0-0.552,0.448-1,1-1h8.875c0.552,0,1,0.448,1,1C10.876,24.553,10.428,25,9.876,25z"
			/>
	</g>
</g>
</svg>
