<?xml version="1.0" encoding="utf-8"?>
<!-- Generator: Adobe Illustrator 16.0.0, SVG Export Plug-In . SVG Version: 6.00 Build 0)  -->
<!DOCTYPE svg PUBLIC "-//W3C//DTD SVG 1.1//EN" "http://www.w3.org/Graphics/SVG/1.1/DTD/svg11.dtd">
<svg version="1.1" id="Layer_1" xmlns="http://www.w3.org/2000/svg" xmlns:xlink="http://www.w3.org/1999/xlink" x="0px" y="0px"
	 width="48px" height="48px" viewBox="0 0 48 48" enable-background="new 0 0 48 48" xml:space="preserve">
<g>
	<g>
		<path d="M45,48H3c-1.654,0-3-1.346-3-3V3c0-1.654,1.346-3,3-3h42c1.654,0,3,1.346,3,3v42C48,46.654,46.654,48,45,48z M3,2
			C2.449,2,2,2.449,2,3v42c0,0.552,0.449,1,1,1h42c0.552,0,1-0.448,1-1V3c0-0.551-0.448-1-1-1H3z"/>
	</g>
	<rect x="1.935" y="15.38" width="44.129" height="2"/>
	<rect x="7.06" y="7.992" width="3.944" height="2"/>
	<rect x="15.232" y="7.992" width="3.944" height="2"/>
</g>
</svg>
