<?xml version="1.0" encoding="utf-8"?>
<!-- Generator: Adobe Illustrator 16.0.0, SVG Export Plug-In . SVG Version: 6.00 Build 0)  -->
<!DOCTYPE svg PUBLIC "-//W3C//DTD SVG 1.1//EN" "http://www.w3.org/Graphics/SVG/1.1/DTD/svg11.dtd">
<svg version="1.1" id="Layer_1" xmlns="http://www.w3.org/2000/svg" xmlns:xlink="http://www.w3.org/1999/xlink" x="0px" y="0px"
	 width="48px" height="48px" viewBox="0 0 48 48" enable-background="new 0 0 48 48" xml:space="preserve">
<g>
	<g>
		<g>
			<path d="M45,48H3c-1.654,0-3-1.346-3-3V3c0-1.654,1.346-3,3-3h42c1.654,0,3,1.346,3,3v42C48,46.654,46.654,48,45,48z M3,2
				C2.449,2,2,2.449,2,3v42c0,0.552,0.449,1,1,1h42c0.552,0,1-0.448,1-1V3c0-0.551-0.448-1-1-1H3z"/>
		</g>
		<rect x="1.933" y="15.38" width="44.131" height="2"/>
		<rect x="7.055" y="7.993" width="3.947" height="2"/>
		<rect x="15.227" y="7.993" width="3.945" height="2"/>
	</g>
	<g>
		<path d="M20.553,38.139c-4.975,0-9.022-4.047-9.022-9.021c0-4.972,4.047-9.016,9.022-9.016c4.972,0.001,9.017,4.046,9.017,9.016
			C29.57,34.092,25.525,38.139,20.553,38.139z M20.553,22.101c-3.872,0-7.022,3.147-7.022,7.016c0,3.872,3.15,7.021,7.022,7.021
			c3.869,0,7.017-3.149,7.017-7.021C27.57,25.249,24.422,22.102,20.553,22.101z"/>
		<path d="M35.467,43.723c-0.239,0-0.479-0.085-0.67-0.258l-8.732-7.877c-0.41-0.369-0.442-1.002-0.072-1.412
			c0.37-0.411,1.003-0.441,1.412-0.072l8.732,7.877c0.41,0.369,0.442,1.002,0.072,1.412C36.012,43.611,35.739,43.723,35.467,43.723z
			"/>
	</g>
</g>
</svg>
