<?xml version="1.0" encoding="utf-8"?>
<!-- Generator: Adobe Illustrator 16.0.0, SVG Export Plug-In . SVG Version: 6.00 Build 0)  -->
<!DOCTYPE svg PUBLIC "-//W3C//DTD SVG 1.1//EN" "http://www.w3.org/Graphics/SVG/1.1/DTD/svg11.dtd">
<svg version="1.1" id="Layer_1" xmlns="http://www.w3.org/2000/svg" xmlns:xlink="http://www.w3.org/1999/xlink" x="0px" y="0px"
	 width="48px" height="48px" viewBox="0 0 48 48" enable-background="new 0 0 48 48" xml:space="preserve">
<g>
	<g>
		<g>
			<path d="M45,48H3c-1.654,0-3-1.346-3-3V3c0-1.654,1.346-3,3-3h42c1.654,0,3,1.346,3,3v42C48,46.654,46.654,48,45,48z M3,2
				C2.449,2,2,2.449,2,3v42c0,0.552,0.449,1,1,1h42c0.552,0,1-0.448,1-1V3c0-0.551-0.448-1-1-1H3z"/>
		</g>
		<rect x="1.931" y="15.38" width="44.131" height="2"/>
		<rect x="7.055" y="7.993" width="3.949" height="2"/>
		<rect x="15.225" y="7.993" width="3.947" height="2"/>
	</g>
	<path d="M39.085,25H24.689c-0.552,0-1-0.447-1-1c0-0.552,0.448-1,1-1h14.396c0.553,0,1,0.448,1,1
		C40.085,24.553,39.638,25,39.085,25z"/>
	<path d="M39.085,32.98H24.689c-0.552,0-1-0.447-1-1s0.448-1,1-1h14.396c0.553,0,1,0.447,1,1S39.638,32.98,39.085,32.98z"/>
	<path d="M39.085,40.977H8.911c-0.552,0-1-0.447-1-1s0.448-1,1-1h30.174c0.553,0,1,0.447,1,1S39.638,40.977,39.085,40.977z"/>
	<path d="M17.197,32.98H9.028c-0.552,0-1-0.447-1-1V24c0-0.552,0.448-1,1-1h8.169c0.552,0,1,0.448,1,1v7.98
		C18.197,32.533,17.749,32.98,17.197,32.98z M10.028,30.98h6.169V25h-6.169V30.98z"/>
</g>
</svg>
