<?xml version="1.0" encoding="utf-8"?>
<!-- Generator: Adobe Illustrator 16.0.0, SVG Export Plug-In . SVG Version: 6.00 Build 0)  -->
<!DOCTYPE svg PUBLIC "-//W3C//DTD SVG 1.1//EN" "http://www.w3.org/Graphics/SVG/1.1/DTD/svg11.dtd">
<svg version="1.1" id="Layer_1" xmlns="http://www.w3.org/2000/svg" xmlns:xlink="http://www.w3.org/1999/xlink" x="0px" y="0px"
	 width="48px" height="48px" viewBox="0 0 48 48" enable-background="new 0 0 48 48" xml:space="preserve">
<g>
	<path d="M40.867,48H7.133C3.2,48,0,44.638,0,40.506V9.21c0-0.552,0.448-1,1-1h39.867C44.8,8.21,48,11.57,48,15.699v24.808
		C48,44.639,44.8,48,40.867,48z M2,10.21v30.296C2,43.535,4.303,46,7.133,46h33.734C43.697,46,46,43.536,46,40.507V15.699
		c0-3.027-2.303-5.489-5.133-5.489H2z"/>
	<path d="M22.504,9.761l-1.533-5.234C20.246,2.183,18.002,2,17.332,2H4.067C2.927,2,2,3.008,2,4.246V9.48H0V4.246
		C0,1.905,1.824,0,4.067,0h13.265c2.094,0,4.653,1.038,5.554,3.95l1.537,5.249L22.504,9.761z"/>
</g>
</svg>
