<?xml version="1.0" encoding="utf-8"?>
<!-- Generator: Adobe Illustrator 16.0.0, SVG Export Plug-In . SVG Version: 6.00 Build 0)  -->
<!DOCTYPE svg PUBLIC "-//W3C//DTD SVG 1.1//EN" "http://www.w3.org/Graphics/SVG/1.1/DTD/svg11.dtd">
<svg version="1.1" id="Layer_1" xmlns="http://www.w3.org/2000/svg" xmlns:xlink="http://www.w3.org/1999/xlink" x="0px" y="0px"
	 width="48px" height="48px" viewBox="0 0 48 48" enable-background="new 0 0 48 48" xml:space="preserve">
<g>
	<path d="M24,30.783c-5.021,0-9.107-4.849-9.107-10.809v-9.169c0-2.841,0.926-5.526,2.609-7.563C19.231,1.151,21.539,0,24,0
		c5.019,0,9.102,4.847,9.102,10.804v9.17C33.102,25.935,29.019,30.783,24,30.783z M24,2c-1.854,0-3.614,0.894-4.956,2.517
		c-1.387,1.678-2.151,3.911-2.151,6.288v9.169c0,4.857,3.188,8.809,7.107,8.809c3.916,0,7.102-3.952,7.102-8.809v-9.17
		C31.102,5.95,27.916,2,24,2z"/>
	<path d="M23.999,37.061c-8.313,0-15.075-7.778-15.075-17.338v-6.779c0-0.552,0.448-1,1-1s1,0.448,1,1v6.779
		c0,8.458,5.866,15.338,13.075,15.338c7.21,0,13.076-6.881,13.076-15.338v-6.779c0-0.552,0.447-1,1-1s1,0.448,1,1v6.779
		C39.075,29.282,32.313,37.061,23.999,37.061z"/>
	<path d="M24,48c-0.552,0-1-0.447-1-1v-9.682c0-0.553,0.448-1,1-1c0.553,0,1,0.447,1,1V47C25,47.553,24.553,48,24,48z"/>
	<path d="M30.723,48H17.275c-0.552,0-1-0.447-1-1s0.448-1,1-1h13.448c0.553,0,1,0.447,1,1S31.275,48,30.723,48z"/>
</g>
</svg>
