<?xml version="1.0" encoding="utf-8"?>
<!-- Generator: Adobe Illustrator 16.0.0, SVG Export Plug-In . SVG Version: 6.00 Build 0)  -->
<!DOCTYPE svg PUBLIC "-//W3C//DTD SVG 1.1//EN" "http://www.w3.org/Graphics/SVG/1.1/DTD/svg11.dtd">
<svg version="1.1" id="Layer_1" xmlns="http://www.w3.org/2000/svg" xmlns:xlink="http://www.w3.org/1999/xlink" x="0px" y="0px"
	 width="48px" height="48px" viewBox="0 0 48 48" enable-background="new 0 0 48 48" xml:space="preserve">
<g>
	<path d="M35.061,47.999C35.06,47.999,35.06,47.999,35.061,47.999c-8.016,0-16.962-4.163-23.934-11.135
		C5.451,31.189,1.648,24.304,0.418,17.475C-0.837,10.512,0.722,4.429,4.806,0.348c0.127-0.128,0.42-0.346,0.927-0.346
		c0.559,0,2.26,0,8.847,6.588c4.262,4.263,3.404,8.22,1.788,9.84c-0.997,0.996-2.342,1.402-3.66,1.183
		c-0.341,4.314,1.548,9.041,5.094,12.588c3.534,3.529,8.245,5.433,12.581,5.089c-0.222-1.309,0.176-2.654,1.136-3.618
		c0.021-0.021,0.091-0.081,0.114-0.102c0.968-0.978,2.173-1.505,3.514-1.505c1.929,0,4.036,1.13,6.266,3.357
		c6.591,6.59,6.588,8.291,6.587,8.85c0,0.506-0.219,0.799-0.349,0.928C44.512,46.339,40.157,47.999,35.061,47.999z M5.934,2.058
		C2.541,5.663,1.282,10.992,2.386,17.12c1.159,6.431,4.765,12.94,10.155,18.33c6.604,6.605,15.022,10.549,22.519,10.549h0.001
		c4.396,0,8.147-1.356,10.883-3.929c-0.212-0.584-1.213-2.501-5.945-7.233c-1.814-1.813-3.492-2.771-4.852-2.771
		c-0.8,0-1.509,0.32-2.165,0.979c-0.021,0.021-0.091,0.081-0.114,0.102c-0.597,0.604-0.732,1.641-0.271,2.516
		c0.148,0.283,0.154,0.62,0.014,0.907c-0.141,0.286-0.41,0.489-0.725,0.544c-0.813,0.144-1.657,0.216-2.51,0.216
		c-4.617,0-9.351-2.082-12.987-5.713c-4.32-4.322-6.429-10.262-5.504-15.502c0.056-0.314,0.258-0.583,0.544-0.724
		c0.286-0.139,0.624-0.135,0.906,0.013c0.846,0.445,1.922,0.311,2.573-0.339c1.054-1.058,1.461-3.856-1.742-7.06
		C8.435,3.272,6.518,2.27,5.934,2.058z"/>
	<g>
		<path d="M28.646,20.166c-0.256,0-0.512-0.098-0.707-0.293c-0.391-0.391-0.391-1.024,0-1.414l9.472-9.47
			c0.391-0.391,1.023-0.391,1.414,0s0.391,1.024,0,1.414l-9.472,9.47C29.158,20.068,28.902,20.166,28.646,20.166z"/>
		<path d="M38.495,19.664c-0.049,0-0.098-0.003-0.147-0.011c-0.547-0.081-0.924-0.59-0.843-1.136l1.463-9.86l-9.648,1.652
			c-0.549,0.097-1.062-0.272-1.154-0.817c-0.094-0.544,0.272-1.062,0.816-1.155L39.99,6.453C40.312,6.4,40.63,6.5,40.858,6.724
			c0.229,0.224,0.337,0.544,0.29,0.861l-1.665,11.225C39.409,19.307,38.982,19.664,38.495,19.664z"/>
	</g>
</g>
</svg>
