<?xml version="1.0" encoding="utf-8"?>
<!-- Generator: Adobe Illustrator 16.0.0, SVG Export Plug-In . SVG Version: 6.00 Build 0)  -->
<!DOCTYPE svg PUBLIC "-//W3C//DTD SVG 1.1//EN" "http://www.w3.org/Graphics/SVG/1.1/DTD/svg11.dtd">
<svg version="1.1" id="Layer_1" xmlns="http://www.w3.org/2000/svg" xmlns:xlink="http://www.w3.org/1999/xlink" x="0px" y="0px"
	 width="48px" height="48px" viewBox="0 0 48 48" enable-background="new 0 0 48 48" xml:space="preserve">
<g>
	<path d="M5.732,47.99c-0.501,0-0.793-0.214-0.922-0.342C0.722,43.563-0.836,37.48,0.417,30.52
		c1.229-6.828,5.033-13.713,10.709-19.388C18.094,4.167,27.039,0.009,35.053,0.009c5.1,0,9.457,1.66,12.602,4.799
		c0.129,0.128,0.346,0.42,0.347,0.925c0,0.558,0.001,2.254-6.593,8.851c-2.56,2.559-4.857,3.096-6.335,3.096l0,0
		c-1.395,0-2.672-0.476-3.504-1.307c-0.998-0.995-1.408-2.348-1.188-3.658c-4.339-0.348-9.045,1.556-12.586,5.086
		c-3.539,3.543-5.423,8.266-5.082,12.581c1.324-0.226,2.677,0.198,3.616,1.137c1.547,1.547,3.312,4.828-1.744,9.885
		C7.994,47.99,6.292,47.99,5.732,47.99z M35.053,2.009c-7.495,0-15.911,3.939-22.513,10.538C7.149,17.935,3.543,24.444,2.385,30.874
		C1.282,37.001,2.542,42.33,5.933,45.935c0.585-0.212,2.504-1.215,7.238-5.946c2.918-2.919,3.52-5.279,1.787-7.017
		c-0.727-0.721-1.771-0.829-2.612-0.379c-0.282,0.152-0.62,0.159-0.909,0.018c-0.288-0.141-0.492-0.41-0.547-0.726
		c-0.926-5.242,1.178-11.182,5.491-15.5c3.641-3.63,8.373-5.711,12.984-5.711c0.856,0,1.703,0.073,2.518,0.217
		c0.314,0.056,0.583,0.258,0.724,0.545c0.14,0.287,0.135,0.623-0.014,0.906c-0.46,0.873-0.323,1.903,0.341,2.564
		c0.398,0.399,1.132,0.772,2.14,0.772c1.1,0,2.846-0.436,4.921-2.51c4.729-4.73,5.735-6.648,5.949-7.234
		C43.205,3.365,39.449,2.009,35.053,2.009z"/>
</g>
</svg>
