<?xml version="1.0" encoding="utf-8"?>
<!-- Generator: Adobe Illustrator 16.0.0, SVG Export Plug-In . SVG Version: 6.00 Build 0)  -->
<!DOCTYPE svg PUBLIC "-//W3C//DTD SVG 1.1//EN" "http://www.w3.org/Graphics/SVG/1.1/DTD/svg11.dtd">
<svg version="1.1" id="Layer_1" xmlns="http://www.w3.org/2000/svg" xmlns:xlink="http://www.w3.org/1999/xlink" x="0px" y="0px"
	 width="48px" height="48px" viewBox="0 0 48 48" enable-background="new 0 0 48 48" xml:space="preserve">
<g>
	<g>
		<g>
			<path d="M45,36.948H3c-1.654,0-3-1.346-3-3V5.962c0-1.654,1.346-3,3-3h42c1.654,0,3,1.346,3,3v27.986
				C48,35.603,46.654,36.948,45,36.948z M3,4.962c-0.551,0-1,0.449-1,1v27.986c0,0.552,0.449,1,1,1h42c0.552,0,1-0.448,1-1V5.962
				c0-0.551-0.448-1-1-1H3z"/>
		</g>
		<path d="M24.001,43.756c-0.552,0-1-0.447-1-1v-6.091c0-0.553,0.448-1,1-1c0.553,0,1,0.447,1,1v6.091
			C25.001,43.309,24.554,43.756,24.001,43.756z"/>
		<path d="M37.195,45.038H10.8c-0.552,0-1-0.447-1-1s0.448-1,1-1h26.396c0.553,0,1,0.447,1,1S37.748,45.038,37.195,45.038z"/>
	</g>
	<path d="M13.064,19.151c-2.889,0-5.24-2.351-5.24-5.24c0-2.89,2.351-5.24,5.24-5.24c2.89,0,5.24,2.351,5.24,5.24
		C18.304,16.8,15.954,19.151,13.064,19.151z M13.064,10.671c-1.787,0-3.24,1.454-3.24,3.24s1.453,3.24,3.24,3.24
		s3.24-1.453,3.24-3.24S14.851,10.671,13.064,10.671z"/>
	<path d="M34.578,19.151c-2.89,0-5.24-2.351-5.24-5.24c0-2.89,2.351-5.24,5.24-5.24c2.892,0,5.244,2.351,5.244,5.24
		C39.822,16.8,37.47,19.151,34.578,19.151z M34.578,10.671c-1.787,0-3.24,1.454-3.24,3.24s1.453,3.24,3.24,3.24
		c1.789,0,3.244-1.453,3.244-3.24S36.367,10.671,34.578,10.671z"/>
	<path d="M24.001,31.895c-2.89,0-5.24-2.354-5.24-5.246c0-2.888,2.351-5.238,5.24-5.238s5.24,2.35,5.24,5.238
		C29.241,29.541,26.891,31.895,24.001,31.895z M24.001,23.41c-1.787,0-3.24,1.453-3.24,3.238c0,1.79,1.454,3.246,3.24,3.246
		c1.787,0,3.24-1.456,3.24-3.246C27.241,24.863,25.788,23.41,24.001,23.41z"/>
	<path d="M20.466,24.042c-0.273,0-0.545-0.111-0.742-0.329l-4.689-5.185c-0.371-0.41-0.339-1.042,0.071-1.413
		c0.41-0.371,1.042-0.338,1.413,0.071l4.689,5.185c0.371,0.41,0.339,1.042-0.071,1.413C20.945,23.957,20.705,24.042,20.466,24.042z"
		/>
	<path d="M27.476,24.042c-0.223,0-0.447-0.074-0.633-0.227c-0.428-0.351-0.489-0.98-0.14-1.408l4.252-5.185
		c0.351-0.426,0.98-0.49,1.407-0.139c0.428,0.351,0.489,0.98,0.14,1.408l-4.252,5.185C28.052,23.917,27.766,24.042,27.476,24.042z"
		/>
</g>
</svg>
