<?xml version="1.0" encoding="utf-8"?>
<!-- Generator: Adobe Illustrator 16.0.0, SVG Export Plug-In . SVG Version: 6.00 Build 0)  -->
<!DOCTYPE svg PUBLIC "-//W3C//DTD SVG 1.1//EN" "http://www.w3.org/Graphics/SVG/1.1/DTD/svg11.dtd">
<svg version="1.1" id="Layer_1" xmlns="http://www.w3.org/2000/svg" xmlns:xlink="http://www.w3.org/1999/xlink" x="0px" y="0px"
	 width="48px" height="48px" viewBox="0 0 48 48" enable-background="new 0 0 48 48" xml:space="preserve">
<g>
	<g>
		<path d="M45,36.948H3c-1.654,0-3-1.346-3-3V5.962c0-1.654,1.346-3,3-3h42c1.654,0,3,1.346,3,3v27.986
			C48,35.603,46.654,36.948,45,36.948z M3,4.962c-0.551,0-1,0.449-1,1v27.986c0,0.552,0.449,1,1,1h42c0.552,0,1-0.448,1-1V5.962
			c0-0.551-0.448-1-1-1H3z"/>
	</g>
	<path d="M23.999,43.754c-0.552,0-1-0.447-1-1v-6.089c0-0.553,0.448-1,1-1c0.553,0,1,0.447,1,1v6.089
		C24.999,43.307,24.552,43.754,23.999,43.754z"/>
	<path d="M37.193,45.038H10.798c-0.552,0-1-0.447-1-1s0.448-1,1-1h26.396c0.553,0,1,0.447,1,1S37.746,45.038,37.193,45.038z"/>
	<path d="M19.561,29.436c-0.552,0-1-0.447-1-1V14.468c0-0.415,0.256-0.787,0.644-0.934l15.146-5.781
		c0.307-0.119,0.653-0.076,0.924,0.11c0.271,0.187,0.433,0.495,0.433,0.824v13.279c0,0.552-0.447,1-1,1s-1-0.448-1-1V10.139
		l-13.146,5.017v13.279C20.561,28.988,20.113,29.436,19.561,29.436z"/>
	<path d="M15.039,32.873c-3.177,0-5.665-1.849-5.665-4.208s2.488-4.208,5.665-4.208s5.665,1.849,5.665,4.208
		S18.216,32.873,15.039,32.873z M15.039,26.457c-1.953,0-3.665,1.032-3.665,2.208s1.712,2.208,3.665,2.208s3.665-1.032,3.665-2.208
		S16.992,26.457,15.039,26.457z"/>
	<path d="M30.18,25.979c-3.176,0-5.664-1.85-5.664-4.21c0-2.361,2.488-4.211,5.664-4.211s5.663,1.85,5.663,4.211
		C35.843,24.129,33.355,25.979,30.18,25.979z M30.18,19.557c-1.952,0-3.664,1.033-3.664,2.211s1.712,2.21,3.664,2.21
		c1.951,0,3.663-1.033,3.663-2.21S32.131,19.557,30.18,19.557z"/>
</g>
</svg>
