<?xml version="1.0" encoding="utf-8"?>
<!-- Generator: Adobe Illustrator 16.0.0, SVG Export Plug-In . SVG Version: 6.00 Build 0)  -->
<!DOCTYPE svg PUBLIC "-//W3C//DTD SVG 1.1//EN" "http://www.w3.org/Graphics/SVG/1.1/DTD/svg11.dtd">
<svg version="1.1" id="Layer_1" xmlns="http://www.w3.org/2000/svg" xmlns:xlink="http://www.w3.org/1999/xlink" x="0px" y="0px"
	 width="48px" height="48px" viewBox="0 0 48 48" enable-background="new 0 0 48 48" xml:space="preserve">
<g>
	<path d="M40.869,43.782H7.133C3.2,43.782,0,40.582,0,36.648V16.939c0-3.935,3.2-7.136,7.133-7.136h6.282
		c1.817-3.366,5.977-5.585,10.588-5.585c4.61,0,8.767,2.22,10.582,5.585h6.284c3.932,0,7.131,3.201,7.131,7.136v19.709
		C48,40.582,44.801,43.782,40.869,43.782z M7.133,11.803C4.303,11.803,2,14.107,2,16.939v19.709c0,2.831,2.303,5.134,5.133,5.134
		h33.736c2.829,0,5.131-2.303,5.131-5.134V16.939c0-2.832-2.302-5.136-5.131-5.136h-6.907c-0.396,0-0.756-0.234-0.915-0.598
		c-1.313-2.983-4.946-4.988-9.044-4.988c-4.099,0-7.735,2.005-9.05,4.989c-0.16,0.362-0.519,0.597-0.915,0.597H7.133z"/>
	<path d="M24.003,37.871c-6.234,0-11.306-5.07-11.306-11.303s5.072-11.303,11.306-11.303c6.23,0,11.3,5.071,11.3,11.303
		S30.233,37.871,24.003,37.871z M24.003,17.265c-5.131,0-9.306,4.173-9.306,9.303s4.175,9.303,9.306,9.303
		c5.128,0,9.3-4.173,9.3-9.303S29.131,17.265,24.003,17.265z"/>
</g>
</svg>
