<?xml version="1.0" encoding="utf-8"?>
<!-- Generator: Adobe Illustrator 16.0.0, SVG Export Plug-In . SVG Version: 6.00 Build 0)  -->
<!DOCTYPE svg PUBLIC "-//W3C//DTD SVG 1.1//EN" "http://www.w3.org/Graphics/SVG/1.1/DTD/svg11.dtd">
<svg version="1.1" id="Layer_1" xmlns="http://www.w3.org/2000/svg" xmlns:xlink="http://www.w3.org/1999/xlink" x="0px" y="0px"
	 width="48px" height="48px" viewBox="0 0 48 48" enable-background="new 0 0 48 48" xml:space="preserve">
<g>
	<g>
		<path d="M45,38.221H3c-1.654,0-3-1.346-3-3V7.235c0-1.654,1.346-3,3-3h42c1.654,0,3,1.346,3,3v27.986
			C48,36.875,46.654,38.221,45,38.221z M3,6.235c-0.551,0-1,0.449-1,1v27.986c0,0.552,0.449,1,1,1h42c0.552,0,1-0.448,1-1V7.235
			c0-0.551-0.448-1-1-1H3z"/>
	</g>
	<path d="M47,43.766H1c-0.552,0-1-0.447-1-1s0.448-1,1-1h46c0.553,0,1,0.447,1,1S47.553,43.766,47,43.766z"/>
</g>
</svg>
