<?xml version="1.0" encoding="utf-8"?>
<!-- Generator: Adobe Illustrator 16.0.0, SVG Export Plug-In . SVG Version: 6.00 Build 0)  -->
<!DOCTYPE svg PUBLIC "-//W3C//DTD SVG 1.1//EN" "http://www.w3.org/Graphics/SVG/1.1/DTD/svg11.dtd">
<svg version="1.1" id="Layer_1" xmlns="http://www.w3.org/2000/svg" xmlns:xlink="http://www.w3.org/1999/xlink" x="0px" y="0px"
	 width="48px" height="48px" viewBox="0 0 48 48" enable-background="new 0 0 48 48" xml:space="preserve">
<g>
	<g>
		<path d="M45,41.083H3c-1.654,0-3-1.346-3-3V14.402c0-1.654,1.346-3,3-3h42c1.654,0,3,1.346,3,3v23.681
			C48,39.737,46.654,41.083,45,41.083z M3,13.402c-0.551,0-1,0.449-1,1v23.681c0,0.552,0.449,1,1,1h42c0.552,0,1-0.448,1-1V14.402
			c0-0.551-0.448-1-1-1H3z"/>
	</g>
	<path d="M16.587,8.917H9.036c-0.552,0-1-0.448-1-1s0.448-1,1-1h7.551c0.552,0,1,0.448,1,1S17.139,8.917,16.587,8.917z"/>
	<path d="M18.21,27.241H7.41c-0.552,0-1-0.447-1-1s0.448-1,1-1h10.8c0.552,0,1,0.447,1,1S18.762,27.241,18.21,27.241z"/>
	<path d="M12.813,32.643c-0.552,0-1-0.447-1-1v-10.8c0-0.552,0.448-1,1-1s1,0.448,1,1v10.8
		C13.813,32.195,13.365,32.643,12.813,32.643z"/>
	<g>
		<path d="M32.188,22.24c0,0.908-0.739,1.643-1.646,1.643c-0.913,0-1.651-0.735-1.651-1.643c0-0.916,0.738-1.653,1.651-1.653
			C31.447,20.587,32.188,21.324,32.188,22.24z"/>
		<path d="M40.089,22.24c0,0.908-0.737,1.643-1.646,1.643c-0.912,0-1.651-0.735-1.651-1.643c0-0.916,0.739-1.653,1.651-1.653
			C39.352,20.587,40.089,21.324,40.089,22.24z"/>
		<path d="M32.188,30.247c0,0.909-0.739,1.647-1.646,1.647c-0.913,0-1.651-0.738-1.651-1.647c0-0.906,0.738-1.651,1.651-1.651
			C31.447,28.596,32.188,29.341,32.188,30.247z"/>
		<path d="M40.089,30.247c0,0.909-0.737,1.647-1.646,1.647c-0.912,0-1.651-0.738-1.651-1.647c0-0.906,0.739-1.651,1.651-1.651
			C39.352,28.596,40.089,29.341,40.089,30.247z"/>
	</g>
</g>
</svg>
