<?xml version="1.0" encoding="utf-8"?>
<!-- Generator: Adobe Illustrator 16.0.0, SVG Export Plug-In . SVG Version: 6.00 Build 0)  -->
<!DOCTYPE svg PUBLIC "-//W3C//DTD SVG 1.1//EN" "http://www.w3.org/Graphics/SVG/1.1/DTD/svg11.dtd">
<svg version="1.1" id="Layer_1" xmlns="http://www.w3.org/2000/svg" xmlns:xlink="http://www.w3.org/1999/xlink" x="0px" y="0px"
	 width="48px" height="48px" viewBox="0 0 48 48" enable-background="new 0 0 48 48" xml:space="preserve">
<g>
	<path d="M22.094,48c-8.015,0-14.535-8.113-14.535-18.085c0-9.973,6.52-18.087,14.535-18.087s14.534,8.114,14.534,18.087
		C36.628,39.887,30.108,48,22.094,48z M22.094,13.828c-6.912,0-12.535,7.217-12.535,16.087C9.559,38.784,15.182,46,22.094,46
		c6.911,0,12.534-7.216,12.534-16.085C34.628,21.045,29.005,13.828,22.094,13.828z"/>
	<path d="M22.094,27.366c-0.552,0-1-0.447-1-1v-7.758c0-0.552,0.448-1,1-1s1,0.448,1,1v7.758
		C23.094,26.919,22.646,27.366,22.094,27.366z"/>
	<path d="M22.093,12.646c-0.515,0-0.953-0.396-0.996-0.918c-0.115-1.392,0.244-2.536,1.065-3.403
		c1.846-1.948,5.533-1.842,7.975-1.771c0.325,0.009,0.628,0.018,0.898,0.021l0.818,0.01c2.036,0.032,2.966,0.048,4.632-1.272
		C38.249,3.907,38.441,3.196,38.441,1c0-0.552,0.447-1,1-1s1,0.448,1,1c0,2.622-0.377,4.018-2.711,5.878
		c-2.227,1.767-3.77,1.74-5.908,1.708l-0.803-0.01c-0.286-0.003-0.602-0.012-0.939-0.022c-1.961-0.056-5.235-0.151-6.466,1.148
		c-0.419,0.442-0.59,1.051-0.523,1.863c0.045,0.55-0.364,1.033-0.915,1.079C22.148,12.645,22.12,12.646,22.093,12.646z"/>
</g>
</svg>
