<?xml version="1.0" encoding="utf-8"?>
<!-- Generator: Adobe Illustrator 16.0.0, SVG Export Plug-In . SVG Version: 6.00 Build 0)  -->
<!DOCTYPE svg PUBLIC "-//W3C//DTD SVG 1.1//EN" "http://www.w3.org/Graphics/SVG/1.1/DTD/svg11.dtd">
<svg version="1.1" id="Layer_1" xmlns="http://www.w3.org/2000/svg" xmlns:xlink="http://www.w3.org/1999/xlink" x="0px" y="0px"
	 width="48px" height="48px" viewBox="0 0 48 48" enable-background="new 0 0 48 48" xml:space="preserve">
<g>
	<g>
		<path d="M24.093,45.602c-0.552,0-1-0.447-1-1V3.398c0-0.552,0.448-1,1-1c0.553,0,1,0.448,1,1v41.204
			C25.093,45.154,24.646,45.602,24.093,45.602z"/>
		<path d="M40.759,45.602c-0.553,0-1-0.447-1-1V3.398c0-0.552,0.447-1,1-1s1,0.448,1,1v41.204
			C41.759,45.154,41.312,45.602,40.759,45.602z"/>
		<path d="M7.425,45.602c-0.552,0-1-0.447-1-1V3.398c0-0.552,0.448-1,1-1s1,0.448,1,1v41.204
			C8.425,45.154,7.977,45.602,7.425,45.602z"/>
	</g>
	<path d="M13.483,40.115H1c-0.552,0-1-0.447-1-1s0.448-1,1-1h12.483c0.552,0,1,0.447,1,1S14.035,40.115,13.483,40.115z"/>
	<path d="M30.332,19.271H17.849c-0.552,0-1-0.448-1-1s0.448-1,1-1h12.483c0.553,0,1,0.448,1,1S30.885,19.271,30.332,19.271z"/>
	<path d="M47,8.118H34.521c-0.553,0-1-0.448-1-1s0.447-1,1-1H47c0.553,0,1,0.448,1,1S47.553,8.118,47,8.118z"/>
</g>
</svg>
