<?xml version="1.0" encoding="utf-8"?>
<!-- Generator: Adobe Illustrator 16.0.0, SVG Export Plug-In . SVG Version: 6.00 Build 0)  -->
<!DOCTYPE svg PUBLIC "-//W3C//DTD SVG 1.1//EN" "http://www.w3.org/Graphics/SVG/1.1/DTD/svg11.dtd">
<svg version="1.1" id="Layer_1" xmlns="http://www.w3.org/2000/svg" xmlns:xlink="http://www.w3.org/1999/xlink" x="0px" y="0px"
	 width="48px" height="48px" viewBox="0 0 48 48" enable-background="new 0 0 48 48" xml:space="preserve">
<g>
	<g>
		<path d="M45,45.871H3c-1.654,0-3-1.346-3-3V15.093c0-1.654,1.346-3,3-3h42c1.654,0,3,1.346,3,3v27.778
			C48,44.525,46.654,45.871,45,45.871z M3,14.093c-0.551,0-1,0.449-1,1v27.778c0,0.552,0.449,1,1,1h42c0.552,0,1-0.448,1-1V15.093
			c0-0.551-0.448-1-1-1H3z"/>
	</g>
	<path d="M33.939,37.318c-4.6,0-8.342-3.741-8.342-8.34c0-4.598,3.742-8.339,8.342-8.339c4.601,0.001,8.344,3.742,8.344,8.339
		C42.283,33.577,38.54,37.318,33.939,37.318z M33.939,22.639c-3.497,0-6.342,2.844-6.342,6.339c0,3.496,2.845,6.34,6.342,6.34
		c3.498,0,6.344-2.844,6.344-6.34C40.283,25.483,37.438,22.64,33.939,22.639z"/>
	<g>
		<path d="M12.703,23.039c0,0.895-0.724,1.621-1.617,1.621c-0.887,0-1.612-0.727-1.612-1.621c0-0.886,0.725-1.608,1.612-1.608
			C11.979,21.431,12.703,22.153,12.703,23.039z"/>
		<path d="M19.47,23.039c0,0.895-0.724,1.621-1.618,1.621c-0.887,0-1.613-0.727-1.613-1.621c0-0.886,0.726-1.608,1.613-1.608
			C18.746,21.431,19.47,22.153,19.47,23.039z"/>
		<path d="M12.703,28.979c0,0.896-0.724,1.617-1.617,1.617c-0.887,0-1.612-0.723-1.612-1.617c0-0.883,0.725-1.611,1.612-1.611
			C11.979,27.366,12.703,28.096,12.703,28.979z"/>
		<path d="M19.47,28.979c0,0.896-0.724,1.617-1.618,1.617c-0.887,0-1.613-0.723-1.613-1.617c0-0.883,0.726-1.611,1.613-1.611
			C18.746,27.366,19.47,28.096,19.47,28.979z"/>
		<path d="M12.703,34.913c0,0.892-0.724,1.616-1.617,1.616c-0.887,0-1.612-0.727-1.612-1.616c0-0.886,0.725-1.611,1.612-1.611
			C11.979,33.302,12.703,34.027,12.703,34.913z"/>
		<path d="M19.47,34.913c0,0.892-0.724,1.616-1.618,1.616c-0.887,0-1.613-0.727-1.613-1.616c0-0.886,0.726-1.611,1.613-1.611
			C18.746,33.302,19.47,34.027,19.47,34.913z"/>
	</g>
	<path d="M11.086,13.841c-0.397,0-0.773-0.238-0.929-0.63c-0.205-0.513,0.045-1.095,0.558-1.299L35.058,2.2
		c0.508-0.203,1.094,0.044,1.299,0.558c0.205,0.513-0.045,1.095-0.559,1.299L11.457,13.77
		C11.335,13.818,11.209,13.841,11.086,13.841z"/>
</g>
</svg>
