<?xml version="1.0" encoding="utf-8"?>
<!-- Generator: Adobe Illustrator 16.0.0, SVG Export Plug-In . SVG Version: 6.00 Build 0)  -->
<!DOCTYPE svg PUBLIC "-//W3C//DTD SVG 1.1//EN" "http://www.w3.org/Graphics/SVG/1.1/DTD/svg11.dtd">
<svg version="1.1" id="Layer_1" xmlns="http://www.w3.org/2000/svg" xmlns:xlink="http://www.w3.org/1999/xlink" x="0px" y="0px"
	 width="48px" height="48px" viewBox="0 0 48 48" enable-background="new 0 0 48 48" xml:space="preserve">
<g>
	<path d="M24,19.256c-5.31,0-9.63-4.322-9.63-9.635C14.37,4.316,18.69,0,24,0c5.309,0,9.628,4.316,9.628,9.621
		C33.628,14.934,29.309,19.256,24,19.256z M24,2c-4.207,0-7.63,3.419-7.63,7.621c0,4.21,3.423,7.635,7.63,7.635
		c4.206,0,7.628-3.425,7.628-7.635C31.628,5.419,28.206,2,24,2z"/>
	<path d="M37.966,48H10.034c-0.552,0-1-0.447-1-1v-7.227H3.045c-0.299,0-0.583-0.134-0.772-0.365
		c-0.19-0.231-0.267-0.535-0.208-0.829C4.129,28.143,13.355,20.568,24,20.568c10.58,0,19.757,7.481,21.896,17.817
		c0.051,0.119,0.078,0.251,0.078,0.389c0,0.553-0.447,1-1,1c-0.004,0.001-0.012,0.001-0.02,0h-5.989V47
		C38.966,47.553,38.519,48,37.966,48z M11.034,46h25.932v-7.227c0-0.553,0.447-1,1-1H43.7C41.381,28.893,33.284,22.568,24,22.568
		c-9.282,0-17.379,6.325-19.7,15.206h5.734c0.552,0,1,0.447,1,1V46z"/>
</g>
</svg>
