<?xml version="1.0" encoding="utf-8"?>
<!-- Generator: Adobe Illustrator 16.0.0, SVG Export Plug-In . SVG Version: 6.00 Build 0)  -->
<!DOCTYPE svg PUBLIC "-//W3C//DTD SVG 1.1//EN" "http://www.w3.org/Graphics/SVG/1.1/DTD/svg11.dtd">
<svg version="1.1" id="Layer_1" xmlns="http://www.w3.org/2000/svg" xmlns:xlink="http://www.w3.org/1999/xlink" x="0px" y="0px"
	 width="48px" height="48px" viewBox="0 0 48 48" enable-background="new 0 0 48 48" xml:space="preserve">
<g>
	<g>
		<path d="M46,26.318H2c-1.103,0-2-0.897-2-2V8.172c0-1.103,0.897-2,2-2h44c1.103,0,2,0.897,2,2v16.146
			C48,25.421,47.103,26.318,46,26.318z M46,24.318v1V24.318L46,24.318L46,24.318z M2,8.172v16.146l43.997,0L46,8.172H2z"/>
	</g>
	<g>
		<path d="M43.818,47.999H4.184c-1.103,0-2-0.897-2-2V26.318c0-1.103,0.897-2,2-2H43.82c1.103,0,2,0.897,2,2v19.681
			C45.816,47.104,44.918,47.999,43.818,47.999z M43.818,45.999v1V45.999L43.818,45.999L43.818,45.999z M43.82,26.318H4.184v19.681
			h39.631L43.82,26.318z"/>
	</g>
	<path d="M24,34.607c-0.552,0-1-0.447-1-1V20.376c0-0.552,0.448-1,1-1c0.553,0,1,0.448,1,1v13.231C25,34.16,24.553,34.607,24,34.607
		z"/>
	<path d="M33.02,8.172c-0.553,0-1-0.448-1-1V2.001H15.977v5.171c0,0.552-0.448,1-1,1s-1-0.448-1-1V1.001c0-0.552,0.448-1,1-1H33.02
		c0.553,0,1,0.448,1,1v6.171C34.02,7.724,33.572,8.172,33.02,8.172z"/>
</g>
</svg>
