<?xml version="1.0" encoding="utf-8"?>
<!-- Generator: Adobe Illustrator 16.0.0, SVG Export Plug-In . SVG Version: 6.00 Build 0)  -->
<!DOCTYPE svg PUBLIC "-//W3C//DTD SVG 1.1//EN" "http://www.w3.org/Graphics/SVG/1.1/DTD/svg11.dtd">
<svg version="1.1" id="Layer_1" xmlns="http://www.w3.org/2000/svg" xmlns:xlink="http://www.w3.org/1999/xlink" x="0px" y="0px"
	 width="48px" height="48px" viewBox="0 0 48 48" enable-background="new 0 0 48 48" xml:space="preserve">
<g>
	<g>
		<path d="M46,26.316H2c-1.103,0-2-0.897-2-2V8.173c0-1.103,0.897-2,2-2h44c1.103,0,2,0.897,2,2v16.144
			C48,25.419,47.103,26.316,46,26.316z M46,24.316v1V24.316L46,24.316L46,24.316z M2,8.173v16.144l43.997,0L46,8.173H2z"/>
	</g>
	<g>
		<path d="M43.814,47.998H4.185c-1.103,0-2-0.897-2-2V26.316c0-1.103,0.897-2,2-2h39.629c1.103,0,2,0.897,2,2v19.682
			C45.814,47.101,44.917,47.998,43.814,47.998z M43.814,45.998v1V45.998L43.814,45.998L43.814,45.998z M4.185,26.316v19.682h39.626
			l0.003-19.682H4.185z"/>
	</g>
	<g>
		<path d="M13.778,34.607c-0.552,0-1-0.447-1-1V20.376c0-0.552,0.448-1,1-1s1,0.448,1,1v13.231
			C14.778,34.16,14.33,34.607,13.778,34.607z"/>
		<path d="M34.225,34.607c-0.553,0-1-0.447-1-1V20.376c0-0.552,0.447-1,1-1s1,0.448,1,1v13.231
			C35.225,34.16,34.777,34.607,34.225,34.607z"/>
	</g>
	<path d="M33.02,8.173c-0.553,0-1-0.448-1-1V2.002H15.979v5.171c0,0.552-0.448,1-1,1s-1-0.448-1-1V1.002c0-0.552,0.448-1,1-1H33.02
		c0.553,0,1,0.448,1,1v6.171C34.02,7.725,33.572,8.173,33.02,8.173z"/>
</g>
</svg>
