<?xml version="1.0" encoding="utf-8"?>
<!-- Generator: Adobe Illustrator 16.0.0, SVG Export Plug-In . SVG Version: 6.00 Build 0)  -->
<!DOCTYPE svg PUBLIC "-//W3C//DTD SVG 1.1//EN" "http://www.w3.org/Graphics/SVG/1.1/DTD/svg11.dtd">
<svg version="1.1" id="Layer_1" xmlns="http://www.w3.org/2000/svg" xmlns:xlink="http://www.w3.org/1999/xlink" x="0px" y="0px"
	 width="48px" height="48px" viewBox="0 0 48 48" enable-background="new 0 0 48 48" xml:space="preserve">
<g>
	<g>
		<path d="M38.172,48H9.828c-1.654,0-3-1.346-3-3V11.635c0-1.654,1.346-3,3-3h28.344c1.654,0,3,1.346,3,3V45
			C41.172,46.654,39.826,48,38.172,48z M9.828,10.635c-0.551,0-1,0.449-1,1V45c0,0.552,0.449,1,1,1h28.344c0.552,0,1-0.448,1-1
			V11.635c0-0.551-0.448-1-1-1H9.828z"/>
	</g>
	<path d="M32.427,14.741c-0.553,0-1-0.448-1-1C31.427,7.267,28.093,2,23.994,2c-4.094,0-7.425,5.267-7.425,11.741
		c0,0.552-0.448,1-1,1s-1-0.448-1-1C14.569,6.164,18.797,0,23.994,0c5.201,0,9.433,6.164,9.433,13.741
		C33.427,14.293,32.979,14.741,32.427,14.741z"/>
</g>
</svg>
