<?xml version="1.0" encoding="utf-8"?>
<!-- Generator: Adobe Illustrator 16.0.0, SVG Export Plug-In . SVG Version: 6.00 Build 0)  -->
<!DOCTYPE svg PUBLIC "-//W3C//DTD SVG 1.1//EN" "http://www.w3.org/Graphics/SVG/1.1/DTD/svg11.dtd">
<svg version="1.1" id="Layer_1" xmlns="http://www.w3.org/2000/svg" xmlns:xlink="http://www.w3.org/1999/xlink" x="0px" y="0px"
	 width="48px" height="48px" viewBox="0 0 48 48" enable-background="new 0 0 48 48" xml:space="preserve">
<g>
	<path d="M12.779,24.96c-2.985,0-5.876-1.075-8.139-3.026c-2.528-2.174-4.057-5.203-4.306-8.528
		c-0.248-3.324,0.813-6.544,2.99-9.069C5.699,1.581,9.148,0,12.786,0c2.985,0,5.876,1.075,8.142,3.028
		c2.526,2.173,4.056,5.201,4.304,8.524c0.248,3.324-0.813,6.546-2.99,9.073C19.868,23.38,16.419,24.96,12.779,24.96z M12.786,2
		C9.73,2,6.834,3.328,4.84,5.643c-1.827,2.12-2.719,4.824-2.51,7.614c0.208,2.792,1.493,5.335,3.616,7.161
		c1.901,1.639,4.327,2.542,6.833,2.542c3.057,0,5.954-1.327,7.947-3.64c1.828-2.122,2.719-4.827,2.51-7.618
		c-0.208-2.791-1.492-5.333-3.614-7.158C17.719,2.904,15.291,2,12.786,2z"/>
	<path d="M46.699,42.697c-0.231,0-0.464-0.08-0.652-0.242L20.831,20.731c-0.418-0.361-0.465-0.992-0.105-1.411
		c0.361-0.418,0.993-0.465,1.411-0.105l25.215,21.724c0.419,0.36,0.466,0.992,0.105,1.41C47.259,42.579,46.979,42.697,46.699,42.697
		z"/>
	<path d="M38.945,48c-0.231,0-0.464-0.08-0.652-0.242c-0.419-0.36-0.466-0.992-0.105-1.41l5.52-6.41
		c0.361-0.419,0.992-0.464,1.41-0.105c0.419,0.36,0.466,0.992,0.105,1.41l-5.52,6.41C39.505,47.882,39.226,48,38.945,48z"/>
	<path d="M36.007,42.287c-0.231,0-0.464-0.079-0.652-0.242c-0.419-0.36-0.466-0.991-0.105-1.41l3.942-4.58
		c0.359-0.42,0.993-0.467,1.41-0.105c0.419,0.36,0.466,0.991,0.105,1.41l-3.942,4.58C36.567,42.169,36.287,42.287,36.007,42.287z"/>
	<path d="M30.596,39.441c-0.231,0-0.464-0.08-0.653-0.243c-0.418-0.36-0.465-0.992-0.104-1.41l4.846-5.618
		c0.36-0.419,0.99-0.464,1.41-0.104c0.418,0.36,0.465,0.992,0.104,1.41l-4.846,5.618C31.155,39.324,30.876,39.441,30.596,39.441z"/>
</g>
</svg>
