<?xml version="1.0" encoding="utf-8"?>
<!-- Generator: Adobe Illustrator 16.0.0, SVG Export Plug-In . SVG Version: 6.00 Build 0)  -->
<!DOCTYPE svg PUBLIC "-//W3C//DTD SVG 1.1//EN" "http://www.w3.org/Graphics/SVG/1.1/DTD/svg11.dtd">
<svg version="1.1" id="Layer_1" xmlns="http://www.w3.org/2000/svg" xmlns:xlink="http://www.w3.org/1999/xlink" x="0px" y="0px"
	 width="48px" height="48px" viewBox="0 0 48 48" enable-background="new 0 0 48 48" xml:space="preserve">
<g>
	<path d="M45.264,22.262H2.735v-1C2.735,9.538,12.274,0,24,0c5.679,0,11.018,2.211,15.035,6.228
		c4.018,4.017,6.229,9.356,6.229,15.035V22.262z M4.761,20.262h38.478c-0.241-4.769-2.215-9.218-5.617-12.62
		C33.981,4.003,29.145,2,24,2C13.712,2,5.282,10.104,4.761,20.262z"/>
	<path d="M17.446,48h-0.552c-4.161,0-7.547-3.388-7.547-7.553c0-0.553,0.448-1,1-1s1,0.447,1,1c0,3.062,2.488,5.553,5.547,5.553
		h0.552C20.508,46,23,43.51,23,40.448V21.262c0-0.552,0.448-1,1-1c0.553,0,1,0.448,1,1v19.186C25,44.612,21.611,48,17.446,48z"/>
</g>
</svg>
