<?xml version="1.0" encoding="utf-8"?>
<!-- Generator: Adobe Illustrator 16.0.0, SVG Export Plug-In . SVG Version: 6.00 Build 0)  -->
<!DOCTYPE svg PUBLIC "-//W3C//DTD SVG 1.1//EN" "http://www.w3.org/Graphics/SVG/1.1/DTD/svg11.dtd">
<svg version="1.1" id="Layer_1" xmlns="http://www.w3.org/2000/svg" xmlns:xlink="http://www.w3.org/1999/xlink" x="0px" y="0px"
	 width="48px" height="48px" viewBox="0 0 48 48" enable-background="new 0 0 48 48" xml:space="preserve">
<g>
	<path d="M47,37.43H12.638c-0.552,0-1-0.447-1-1V0.999c0-0.552,0.448-1,1-1H47c0.553,0,1,0.448,1,1V36.43
		C48,36.982,47.553,37.43,47,37.43z M13.638,35.43H46V1.999H13.638V35.43z"/>
	<path d="M47,48.001H8.432C3.783,48.001,0,45.18,0,41.713c0-3.465,3.783-6.283,8.432-6.283H47c0.553,0,1,0.447,1,1v10.571
		C48,47.554,47.553,48.001,47,48.001z M8.432,37.43C4.945,37.43,2,39.392,2,41.713c0,2.324,2.945,4.288,6.432,4.288H46V37.43H8.432z
		"/>
	<path d="M1,42.713c-0.552,0-1-0.447-1-1V6.278c0-3.462,3.783-6.279,8.432-6.279h4.206c0.552,0,1,0.448,1,1s-0.448,1-1,1H8.432
		C4.945,1.999,2,3.958,2,6.278v35.435C2,42.266,1.552,42.713,1,42.713z"/>
</g>
</svg>
