<?xml version="1.0" encoding="utf-8"?>
<!-- Generator: Adobe Illustrator 16.0.0, SVG Export Plug-In . SVG Version: 6.00 Build 0)  -->
<!DOCTYPE svg PUBLIC "-//W3C//DTD SVG 1.1//EN" "http://www.w3.org/Graphics/SVG/1.1/DTD/svg11.dtd">
<svg version="1.1" id="Layer_1" xmlns="http://www.w3.org/2000/svg" xmlns:xlink="http://www.w3.org/1999/xlink" x="0px" y="0px"
	 width="48px" height="48px" viewBox="0 0 48 48" enable-background="new 0 0 48 48" xml:space="preserve">
<g>
	<g>
		<path d="M47,37.43H12.64c-0.552,0-1-0.447-1-1V1c0-0.552,0.448-1,1-1H47c0.553,0,1,0.448,1,1v35.43
			C48,36.982,47.553,37.43,47,37.43z M13.64,35.43H46V2H13.64V35.43z"/>
		<path d="M47,48H8.433C3.783,48,0,45.179,0,41.711c0-3.464,3.783-6.281,8.433-6.281H47c0.553,0,1,0.447,1,1V47
			C48,47.553,47.553,48,47,48z M8.433,37.43C4.946,37.43,2,39.391,2,41.711C2,44.036,4.946,46,8.433,46H46v-8.57H8.433z"/>
		<path d="M1,42.711c-0.552,0-1-0.447-1-1V6.28C0,2.817,3.783,0,8.433,0h4.207c0.552,0,1,0.448,1,1s-0.448,1-1,1H8.433
			C4.946,2,2,3.96,2,6.28v35.431C2,42.264,1.552,42.711,1,42.711z"/>
	</g>
	<path d="M38.164,27.828c-0.232,0-0.463-0.081-0.646-0.237l-7.818-6.63l-7.57,6.62c-0.295,0.258-0.715,0.32-1.072,0.157
		c-0.357-0.162-0.586-0.518-0.586-0.91V1.661c0-0.552,0.448-1,1-1s1,0.448,1,1v22.964l6.56-5.737c0.373-0.325,0.928-0.33,1.305-0.01
		l6.828,5.791V1.661c0-0.552,0.447-1,1-1s1,0.448,1,1v25.167c0,0.39-0.227,0.744-0.58,0.907
		C38.45,27.798,38.307,27.828,38.164,27.828z"/>
</g>
</svg>
