<?xml version="1.0" encoding="utf-8"?>
<!-- Generator: Adobe Illustrator 16.0.0, SVG Export Plug-In . SVG Version: 6.00 Build 0)  -->
<!DOCTYPE svg PUBLIC "-//W3C//DTD SVG 1.1//EN" "http://www.w3.org/Graphics/SVG/1.1/DTD/svg11.dtd">
<svg version="1.1" id="Layer_1" xmlns="http://www.w3.org/2000/svg" xmlns:xlink="http://www.w3.org/1999/xlink" x="0px" y="0px"
	 width="48px" height="48px" viewBox="0 0 48 48" enable-background="new 0 0 48 48" xml:space="preserve">
<g>
	<g>
		<path d="M32.549,48c-0.159,0-0.319-0.038-0.466-0.115l-8.078-4.249l-8.085,4.249c-0.337,0.178-0.745,0.147-1.053-0.076
			c-0.308-0.224-0.462-0.603-0.397-0.978l1.544-9.001l-6.537-6.37c-0.273-0.266-0.371-0.662-0.253-1.024s0.431-0.626,0.807-0.681
			l9.036-1.315l4.043-8.181c0.168-0.341,0.516-0.557,0.896-0.557c0,0,0,0,0,0c0.38,0,0.728,0.216,0.896,0.558l4.036,8.181
			l9.034,1.315c0.377,0.055,0.69,0.318,0.808,0.681s0.02,0.76-0.254,1.025l-6.539,6.369l1.548,9c0.064,0.376-0.09,0.755-0.397,0.979
			C32.963,47.936,32.756,48,32.549,48z M12.323,31.441l5.463,5.323c0.236,0.229,0.344,0.561,0.288,0.885l-1.291,7.522l6.757-3.551
			c0.291-0.154,0.64-0.154,0.931,0l6.75,3.55l-1.294-7.521c-0.056-0.325,0.052-0.656,0.288-0.887l5.465-5.322l-7.549-1.099
			c-0.326-0.047-0.607-0.252-0.753-0.547l-3.373-6.836l-3.378,6.837c-0.146,0.295-0.427,0.499-0.752,0.546L12.323,31.441z"/>
		<path d="M41.874,19.177H6.126c-0.552,0-1-0.448-1-1V1c0-0.552,0.448-1,1-1h35.748c0.553,0,1,0.448,1,1v17.177
			C42.874,18.729,42.427,19.177,41.874,19.177z M7.126,17.177h33.748V2H7.126V17.177z"/>
	</g>
	<path d="M31.564,10.586H16.259c-0.552,0-1-0.448-1-1s0.448-1,1-1h15.306c0.553,0,1,0.448,1,1S32.117,10.586,31.564,10.586z"/>
</g>
</svg>
