<?xml version="1.0" encoding="utf-8"?>
<!-- Generator: Adobe Illustrator 16.0.0, SVG Export Plug-In . SVG Version: 6.00 Build 0)  -->
<!DOCTYPE svg PUBLIC "-//W3C//DTD SVG 1.1//EN" "http://www.w3.org/Graphics/SVG/1.1/DTD/svg11.dtd">
<svg version="1.1" id="Layer_1" xmlns="http://www.w3.org/2000/svg" xmlns:xlink="http://www.w3.org/1999/xlink" x="0px" y="0px"
	 width="48px" height="48px" viewBox="0 0 48 48" enable-background="new 0 0 48 48" xml:space="preserve">
<g>
	<g>
		<path d="M24.001,48c-9.448,0-17.134-7.688-17.134-17.137c0-9.446,7.686-17.131,17.134-17.131c9.446,0,17.132,7.685,17.132,17.131
			C41.133,40.313,33.447,48,24.001,48z M24.001,15.732c-8.345,0-15.134,6.788-15.134,15.131C8.867,39.21,15.656,46,24.001,46
			c8.344,0,15.132-6.79,15.132-15.137C39.133,22.52,32.345,15.732,24.001,15.732z"/>
		<path d="M14.389,18.639c-0.552,0-1-0.448-1-1V9.531C13.389,4.276,17.854,0,23.341,0h1.315c5.489,0,9.955,4.276,9.955,9.531
			c0,0.552-0.447,1-1,1s-1-0.448-1-1C32.611,5.378,29.043,2,24.656,2h-1.315c-4.385,0-7.952,3.378-7.952,7.531v8.108
			C15.389,18.191,14.941,18.639,14.389,18.639z"/>
	</g>
	<path d="M26.967,27.971c0-1.639-1.328-2.97-2.966-2.97c-1.642,0-2.968,1.331-2.968,2.97c0,1.33,0.879,2.408,2.074,2.79v5.968h1.779
		v-5.968C26.084,30.379,26.967,29.301,26.967,27.971z"/>
</g>
</svg>
