<?xml version="1.0" encoding="utf-8"?>
<!-- Generator: Adobe Illustrator 16.0.0, SVG Export Plug-In . SVG Version: 6.00 Build 0)  -->
<!DOCTYPE svg PUBLIC "-//W3C//DTD SVG 1.1//EN" "http://www.w3.org/Graphics/SVG/1.1/DTD/svg11.dtd">
<svg version="1.1" id="Layer_1" xmlns="http://www.w3.org/2000/svg" xmlns:xlink="http://www.w3.org/1999/xlink" x="0px" y="0px"
	 width="48px" height="48px" viewBox="0 0 48 48" enable-background="new 0 0 48 48" xml:space="preserve">
<g>
	<path d="M19.026,38.059c-5.083,0-9.86-1.98-13.452-5.574C1.98,28.892,0,24.113,0,19.029S1.98,9.165,5.575,5.57
		c3.591-3.593,8.367-5.571,13.448-5.571c5.084,0,9.863,1.981,13.457,5.578c3.595,3.592,5.575,8.371,5.575,13.454
		s-1.98,9.861-5.575,13.454C28.888,36.079,24.109,38.059,19.026,38.059z M19.023,1.999c-4.547,0-8.821,1.771-12.034,4.985
		C3.772,10.201,2,14.479,2,19.029c0,4.55,1.772,8.826,4.989,12.042c3.214,3.217,7.489,4.988,12.037,4.988s8.824-1.771,12.04-4.988
		c3.218-3.216,4.989-7.491,4.989-12.04c0-4.549-1.771-8.825-4.989-12.04C27.85,3.771,23.573,1.999,19.023,1.999z"/>
	<path d="M46.053,47.053c-0.256,0-0.512-0.098-0.707-0.293L31.908,33.32c-0.391-0.391-0.391-1.023,0-1.414s1.023-0.391,1.414,0
		L46.76,45.346c0.391,0.391,0.391,1.023,0,1.414C46.564,46.955,46.309,47.053,46.053,47.053z"/>
	<path d="M36.018,48.002c-0.256,0-0.512-0.098-0.707-0.293c-0.391-0.391-0.391-1.023,0-1.414l10.982-10.984
		c0.391-0.391,1.023-0.391,1.414,0s0.391,1.023,0,1.414L36.725,47.709C36.529,47.904,36.273,48.002,36.018,48.002z"/>
</g>
</svg>
