<?xml version="1.0" encoding="utf-8"?>
<!-- Generator: Adobe Illustrator 16.0.0, SVG Export Plug-In . SVG Version: 6.00 Build 0)  -->
<!DOCTYPE svg PUBLIC "-//W3C//DTD SVG 1.1//EN" "http://www.w3.org/Graphics/SVG/1.1/DTD/svg11.dtd">
<svg version="1.1" id="Layer_1" xmlns="http://www.w3.org/2000/svg" xmlns:xlink="http://www.w3.org/1999/xlink" x="0px" y="0px"
	 width="48px" height="48px" viewBox="0 0 48 48" enable-background="new 0 0 48 48" xml:space="preserve">
<g>
	<path d="M29.16,47.951c-5.035,0-9.769-1.962-13.33-5.523c-7.344-7.352-7.344-19.307,0-26.651c3.558-3.557,8.29-5.516,13.325-5.516
		c5.036,0,9.768,1.959,13.323,5.518C46.039,19.34,48,24.074,48,29.109c0,5.036-1.961,9.768-5.521,13.323
		C38.924,45.99,34.194,47.951,29.16,47.951z M29.155,12.261c-4.501,0-8.731,1.751-11.911,4.93c-6.564,6.564-6.564,17.251,0,23.823
		c3.183,3.184,7.416,4.938,11.916,4.938c4.499,0,8.727-1.752,11.904-4.934C44.247,37.839,46,33.61,46,29.109
		s-1.753-8.733-4.936-11.917C37.887,14.013,33.657,12.261,29.155,12.261z"/>
	<path d="M15.706,16.653c-0.256,0-0.512-0.098-0.707-0.293L1.704,3.06c-0.391-0.391-0.391-1.024,0-1.414
		c0.391-0.391,1.024-0.391,1.414,0l13.295,13.3c0.391,0.391,0.391,1.024,0,1.414C16.218,16.555,15.962,16.653,15.706,16.653z"/>
	<path d="M1.236,15.499c-0.544,0-0.99-0.436-1-0.982L0,1.066c-0.004-0.271,0.101-0.532,0.292-0.724
		c0.191-0.192,0.466-0.288,0.723-0.294c5.02,0.076,12.657,0.175,13.406,0.145c0.413-0.058,0.83,0.155,1.024,0.547
		c0.246,0.495,0.044,1.095-0.451,1.34c-0.289,0.144-0.347,0.171-12.976-0.016l0.219,12.417c0.01,0.552-0.43,1.008-0.982,1.018
		C1.249,15.499,1.242,15.499,1.236,15.499z"/>
</g>
</svg>
