<?xml version="1.0" encoding="utf-8"?>
<!-- Generator: Adobe Illustrator 16.0.0, SVG Export Plug-In . SVG Version: 6.00 Build 0)  -->
<!DOCTYPE svg PUBLIC "-//W3C//DTD SVG 1.1//EN" "http://www.w3.org/Graphics/SVG/1.1/DTD/svg11.dtd">
<svg version="1.1" id="Layer_1" xmlns="http://www.w3.org/2000/svg" xmlns:xlink="http://www.w3.org/1999/xlink" x="0px" y="0px"
	 width="48px" height="48px" viewBox="0 0 48 48" enable-background="new 0 0 48 48" xml:space="preserve">
<g>
	<g>
		<path d="M1,20.945c-0.256,0-0.512-0.098-0.707-0.293c-0.391-0.391-0.391-1.023,0-1.414l18.12-18.119
			c0.391-0.391,1.023-0.391,1.414,0s0.391,1.023,0,1.414L1.707,20.652C1.512,20.847,1.256,20.945,1,20.945z"/>
		<path d="M19.808,9.983c-0.362,0-0.712-0.197-0.89-0.542c-0.147-0.286-0.154-0.298-0.044-7.422l-6.894,0.12
			c-0.541,0-1.007-0.431-1.017-0.983c-0.009-0.552,0.431-1.007,0.983-1.017l7.926-0.137c0.245-0.015,0.531,0.101,0.724,0.292
			c0.191,0.191,0.297,0.453,0.293,0.724c-0.043,2.791-0.104,7.328-0.088,7.857c0.043,0.399-0.158,0.801-0.536,0.997
			C20.119,9.947,19.962,9.983,19.808,9.983z"/>
	</g>
	<path d="M1,47.998c-0.552,0-1-0.447-1-1c0-0.552,0.448-1,1-1l9.527-0.002V31.667c0-0.553,0.448-1,1-1h12.346V16.333
		c0-0.552,0.448-1,1-1h12.343V1.002c0-0.552,0.447-1,1-1H47c0.553,0,1,0.448,1,1s-0.447,1-1,1h-7.784v14.331c0,0.552-0.447,1-1,1
		H25.873v14.334c0,0.553-0.447,1-1,1H12.527v14.329c0,0.552-0.448,1-1,1L1,47.998z"/>
</g>
</svg>
