<?xml version="1.0" encoding="utf-8"?>
<!-- Generator: Adobe Illustrator 16.0.0, SVG Export Plug-In . SVG Version: 6.00 Build 0)  -->
<!DOCTYPE svg PUBLIC "-//W3C//DTD SVG 1.1//EN" "http://www.w3.org/Graphics/SVG/1.1/DTD/svg11.dtd">
<svg version="1.1" id="Layer_1" xmlns="http://www.w3.org/2000/svg" xmlns:xlink="http://www.w3.org/1999/xlink" x="0px" y="0px"
	 width="48px" height="48px" viewBox="0 0 48 48" enable-background="new 0 0 48 48" xml:space="preserve">
<g>
	<g>
		<path d="M45,47.999H8.543c-1.654,0-3-1.346-3-3V3.001c0-1.654,1.346-3,3-3H45c1.654,0,3,1.346,3,3v41.998
			C48,46.653,46.654,47.999,45,47.999z M8.543,2.001c-0.551,0-1,0.449-1,1v41.998c0,0.552,0.449,1,1,1H45c0.552,0,1-0.448,1-1V3.001
			c0-0.551-0.448-1-1-1H8.543z"/>
	</g>
	<path d="M12.253,12.507H1c-0.552,0-1-0.448-1-1s0.448-1,1-1h11.253c0.552,0,1,0.448,1,1S12.805,12.507,12.253,12.507z"/>
	<path d="M12.253,25.001H1c-0.552,0-1-0.447-1-1c0-0.552,0.448-1,1-1h11.253c0.552,0,1,0.448,1,1
		C13.253,24.554,12.805,25.001,12.253,25.001z"/>
	<path d="M12.253,37.486H1c-0.552,0-1-0.447-1-1s0.448-1,1-1h11.253c0.552,0,1,0.447,1,1S12.805,37.486,12.253,37.486z"/>
</g>
</svg>
