<?xml version="1.0" encoding="utf-8"?>
<!-- Generator: Adobe Illustrator 16.0.0, SVG Export Plug-In . SVG Version: 6.00 Build 0)  -->
<!DOCTYPE svg PUBLIC "-//W3C//DTD SVG 1.1//EN" "http://www.w3.org/Graphics/SVG/1.1/DTD/svg11.dtd">
<svg version="1.1" id="Layer_1" xmlns="http://www.w3.org/2000/svg" xmlns:xlink="http://www.w3.org/1999/xlink" x="0px" y="0px"
	 width="48px" height="48px" viewBox="0 0 48 48" enable-background="new 0 0 48 48" xml:space="preserve">
<g>
	<path d="M23.455,10.415c-2.831,0-5.133-2.337-5.133-5.211c0-2.87,2.303-5.204,5.133-5.204c2.83,0,5.133,2.334,5.133,5.204
		C28.588,8.078,26.285,10.415,23.455,10.415z M23.455,2c-1.728,0-3.133,1.438-3.133,3.204c0,1.771,1.406,3.211,3.133,3.211
		s3.133-1.44,3.133-3.211C26.588,3.438,25.183,2,23.455,2z"/>
	<path d="M23.455,46.836c-0.552,0-1-0.447-1-1V9.416c0-0.552,0.448-1,1-1s1,0.448,1,1v36.42
		C24.455,46.389,24.007,46.836,23.455,46.836z"/>
	<path d="M24.005,48C13.12,48,4.264,38.986,4.264,27.906c0-0.553,0.448-1,1-1s1,0.447,1,1C6.264,37.883,14.223,46,24.005,46
		c9.779,0,17.735-8.117,17.735-18.094c0-0.553,0.447-1,1-1s1,0.447,1,1C43.74,38.986,34.887,48,24.005,48z"/>
	<path d="M29.146,16.469H17.762c-0.552,0-1-0.448-1-1s0.448-1,1-1h11.384c0.553,0,1,0.448,1,1S29.699,16.469,29.146,16.469z"/>
	<g>
		<path d="M1,32.494c-0.266,0-0.53-0.105-0.727-0.313c-0.379-0.401-0.361-1.034,0.041-1.414l4.347-4.104
			c0.397-0.375,1.024-0.36,1.405,0.032l3.874,4.006c0.384,0.397,0.374,1.03-0.023,1.414c-0.397,0.383-1.029,0.374-1.414-0.023
			l-3.188-3.296l-3.628,3.426C1.493,32.403,1.247,32.494,1,32.494z"/>
		<path d="M47,32.494c-0.246,0-0.493-0.091-0.687-0.272l-3.627-3.426L39.5,32.092c-0.383,0.398-1.017,0.407-1.414,0.023
			c-0.396-0.384-0.407-1.017-0.023-1.414l3.873-4.006c0.382-0.393,1.008-0.406,1.405-0.032l4.346,4.104
			c0.401,0.38,0.42,1.013,0.041,1.414C47.53,32.389,47.266,32.494,47,32.494z"/>
	</g>
</g>
</svg>
