<?xml version="1.0" encoding="utf-8"?>
<!-- Generator: Adobe Illustrator 16.0.0, SVG Export Plug-In . SVG Version: 6.00 Build 0)  -->
<!DOCTYPE svg PUBLIC "-//W3C//DTD SVG 1.1//EN" "http://www.w3.org/Graphics/SVG/1.1/DTD/svg11.dtd">
<svg version="1.1" id="Layer_1" xmlns="http://www.w3.org/2000/svg" xmlns:xlink="http://www.w3.org/1999/xlink" x="0px" y="0px"
	 width="48px" height="48px" viewBox="0 0 48 48" enable-background="new 0 0 48 48" xml:space="preserve">
<g>
	<path d="M42.844,48H5.157c-2.364,0-4.07-0.796-4.802-2.242c-0.681-1.343-0.384-2.999,0.836-4.664l12.783-17.436V7.844h-3.315
		c-0.552,0-1-0.448-1-1V1c0-0.552,0.448-1,1-1h26.683c0.553,0,1,0.448,1,1v5.844c0,0.552-0.447,1-1,1h-3.313v15.82l12.782,17.43
		c1.219,1.667,1.514,3.323,0.832,4.666C46.911,47.204,45.206,48,42.844,48z M11.659,5.844h3.315c0.552,0,1,0.448,1,1v17.141
		c0,0.212-0.068,0.42-0.193,0.591l-12.976,17.7c-0.741,1.011-0.984,1.95-0.666,2.578C2.502,45.571,3.631,46,5.157,46h37.687
		c1.525,0,2.652-0.428,3.017-1.146c0.318-0.627,0.077-1.567-0.663-2.578L32.223,24.583c-0.126-0.172-0.193-0.379-0.193-0.592V6.844
		c0-0.552,0.447-1,1-1h3.313V2H11.659V5.844z"/>
</g>
</svg>
