<?xml version="1.0" encoding="utf-8"?>
<!-- Generator: Adobe Illustrator 16.0.0, SVG Export Plug-In . SVG Version: 6.00 Build 0)  -->
<!DOCTYPE svg PUBLIC "-//W3C//DTD SVG 1.1//EN" "http://www.w3.org/Graphics/SVG/1.1/DTD/svg11.dtd">
<svg version="1.1" id="Layer_1" xmlns="http://www.w3.org/2000/svg" xmlns:xlink="http://www.w3.org/1999/xlink" x="0px" y="0px"
	 width="48px" height="48px" viewBox="0 0 48 48" enable-background="new 0 0 48 48" xml:space="preserve">
<g>
	<g>
		<path d="M23.998,48C10.765,48-0.001,37.014-0.001,23.51V1c0-0.552,0.448-1,1-1h12.542c0.552,0,1,0.448,1,1v22.51
			c0,5.823,4.331,10.743,9.457,10.743c5.126,0,9.457-4.92,9.457-10.743V1c0-0.552,0.447-1,1-1h12.546c0.553,0,1,0.448,1,1v22.51
			C48.001,37.014,37.233,48,23.998,48z M1.999,2v21.51C1.999,35.911,11.868,46,23.998,46c12.133,0,22.003-10.089,22.003-22.49V2
			H35.455v21.51c0,6.907-5.247,12.743-11.457,12.743c-6.21,0-11.457-5.836-11.457-12.743V2H1.999z"/>
	</g>
	<rect x="0.999" y="6.926" width="12.543" height="2"/>
	<rect x="34.455" y="6.926" width="12.546" height="2"/>
</g>
</svg>
