<?xml version="1.0" encoding="utf-8"?>
<!-- Generator: Adobe Illustrator 16.0.0, SVG Export Plug-In . SVG Version: 6.00 Build 0)  -->
<!DOCTYPE svg PUBLIC "-//W3C//DTD SVG 1.1//EN" "http://www.w3.org/Graphics/SVG/1.1/DTD/svg11.dtd">
<svg version="1.1" id="Layer_1" xmlns="http://www.w3.org/2000/svg" xmlns:xlink="http://www.w3.org/1999/xlink" x="0px" y="0px"
	 width="48px" height="48px" viewBox="0 0 48 48" enable-background="new 0 0 48 48" xml:space="preserve">
<g>
	<path d="M24.001,48c-2.684,0-5.208-1.045-7.107-2.943c-0.188-0.188-0.293-0.441-0.293-0.707V32.201
		c-5.828-2.836-9.557-8.748-9.557-15.243C7.043,7.607,14.65,0,24,0c9.351,0,16.957,7.607,16.957,16.958
		c0,6.492-3.729,12.405-9.553,15.243V44.35c0,0.266-0.105,0.521-0.294,0.708C29.209,46.955,26.685,48,24.001,48z M18.6,43.921
		C20.084,45.265,21.987,46,24.001,46c2.015,0,3.918-0.735,5.403-2.079V31.563c0-0.396,0.234-0.755,0.597-0.915
		c5.44-2.396,8.956-7.77,8.956-13.689C38.957,8.71,32.247,2,24,2C15.752,2,9.043,8.71,9.043,16.958
		c0,5.921,3.517,11.295,8.96,13.689c0.363,0.159,0.597,0.519,0.597,0.915V43.921z"/>
	<path d="M23.695,40.938c-3.954,0-6.408-1.255-6.56-1.335l0.931-1.77l-0.465,0.885l0.462-0.887
		c0.049,0.025,4.947,2.484,12.002-0.055l0.678,1.883C28.08,40.616,25.695,40.938,23.695,40.938z"/>
</g>
</svg>
