<?xml version="1.0" encoding="utf-8"?>
<!-- Generator: Adobe Illustrator 16.0.0, SVG Export Plug-In . SVG Version: 6.00 Build 0)  -->
<!DOCTYPE svg PUBLIC "-//W3C//DTD SVG 1.1//EN" "http://www.w3.org/Graphics/SVG/1.1/DTD/svg11.dtd">
<svg version="1.1" id="Layer_1" xmlns="http://www.w3.org/2000/svg" xmlns:xlink="http://www.w3.org/1999/xlink" x="0px" y="0px"
	 width="48px" height="48px" viewBox="0 0 48 48" enable-background="new 0 0 48 48" xml:space="preserve">
<g>
	<path d="M35.045,37.039H7.176C3.219,37.039,0,33.819,0,29.861V18.137c0-3.957,3.219-7.176,7.176-7.176h27.869
		c3.959,0,7.18,3.219,7.18,7.176v11.724C42.225,33.819,39.004,37.039,35.045,37.039z M7.176,12.961C4.322,12.961,2,15.283,2,18.137
		v11.724c0,2.855,2.322,5.178,5.176,5.178h27.869c2.856,0,5.18-2.322,5.18-5.178V18.137c0-2.854-2.323-5.176-5.18-5.176H7.176z"/>
	<path d="M47,30.509h-5.775c-0.553,0-1-0.447-1-1s0.447-1,1-1H46v-9.018h-4.775c-0.553,0-1-0.448-1-1s0.447-1,1-1H47
		c0.553,0,1,0.448,1,1v11.018C48,30.062,47.553,30.509,47,30.509z"/>
	<path d="M10.445,32.21c-0.552,0-1-0.447-1-1V16.685c0-0.552,0.448-1,1-1s1,0.448,1,1V31.21
		C11.445,31.763,10.997,32.21,10.445,32.21z"/>
	<path d="M20.485,32.21c-0.552,0-1-0.447-1-1V16.685c0-0.552,0.448-1,1-1s1,0.448,1,1V31.21
		C21.485,31.763,21.037,32.21,20.485,32.21z"/>
	<path d="M30.523,32.21c-0.553,0-1-0.447-1-1V16.685c0-0.552,0.447-1,1-1s1,0.448,1,1V31.21
		C31.523,31.763,31.076,32.21,30.523,32.21z"/>
</g>
</svg>
