<?xml version="1.0" encoding="utf-8"?>
<!-- Generator: Adobe Illustrator 16.0.0, SVG Export Plug-In . SVG Version: 6.00 Build 0)  -->
<!DOCTYPE svg PUBLIC "-//W3C//DTD SVG 1.1//EN" "http://www.w3.org/Graphics/SVG/1.1/DTD/svg11.dtd">
<svg version="1.1" id="Layer_1" xmlns="http://www.w3.org/2000/svg" xmlns:xlink="http://www.w3.org/1999/xlink" x="0px" y="0px"
	 width="48px" height="48px" viewBox="0 0 48 48" enable-background="new 0 0 48 48" xml:space="preserve">
<g>
	<path d="M35.047,37.04H7.177C3.219,37.04,0,33.82,0,29.863V18.137c0-3.958,3.219-7.177,7.177-7.177h27.87
		c3.956,0,7.174,3.22,7.174,7.177v11.726C42.221,33.82,39.003,37.04,35.047,37.04z M7.177,12.96C4.322,12.96,2,15.282,2,18.137
		v11.726c0,2.854,2.322,5.177,5.177,5.177h27.87c2.853,0,5.174-2.322,5.174-5.177V18.137c0-2.855-2.321-5.177-5.174-5.177H7.177z"/>
	<path d="M47,30.51h-5.779c-0.553,0-1-0.447-1-1s0.447-1,1-1H46v-9.02h-4.779c-0.553,0-1-0.448-1-1s0.447-1,1-1H47
		c0.553,0,1,0.448,1,1v11.02C48,30.063,47.553,30.51,47,30.51z"/>
	<path d="M11.119,32.211c-0.552,0-1-0.447-1-1V16.684c0-0.552,0.448-1,1-1s1,0.448,1,1v14.527
		C12.119,31.764,11.671,32.211,11.119,32.211z"/>
	<path d="M21.155,32.211c-0.552,0-1-0.447-1-1V16.684c0-0.552,0.448-1,1-1s1,0.448,1,1v14.527
		C22.155,31.764,21.707,32.211,21.155,32.211z"/>
</g>
</svg>
