<?xml version="1.0" encoding="utf-8"?>
<!-- Generator: Adobe Illustrator 16.0.0, SVG Export Plug-In . SVG Version: 6.00 Build 0)  -->
<!DOCTYPE svg PUBLIC "-//W3C//DTD SVG 1.1//EN" "http://www.w3.org/Graphics/SVG/1.1/DTD/svg11.dtd">
<svg version="1.1" id="Layer_1" xmlns="http://www.w3.org/2000/svg" xmlns:xlink="http://www.w3.org/1999/xlink" x="0px" y="0px"
	 width="48px" height="48px" viewBox="0 0 48 48" enable-background="new 0 0 48 48" xml:space="preserve">
<g>
	<path d="M24.003,48C10.767,48-0.001,37.233-0.001,24S10.767,0,24.003,0c13.232,0,23.998,10.767,23.998,24S37.235,48,24.003,48z
		 M24.003,2C11.87,2,1.999,11.869,1.999,24s9.871,22,22.004,22c12.13,0,21.998-9.869,21.998-22S36.133,2,24.003,2z"/>
	<path d="M20.667,31.796c-0.281,0-0.559-0.118-0.755-0.344l-8.207-9.437c-0.363-0.417-0.318-1.048,0.098-1.411
		c0.417-0.364,1.048-0.318,1.411,0.098l7.621,8.763l17.033-11.743c0.453-0.315,1.076-0.2,1.391,0.256
		c0.313,0.455,0.199,1.077-0.256,1.391l-17.769,12.25C21.062,31.738,20.864,31.796,20.667,31.796z"/>
</g>
</svg>
