<?xml version="1.0" encoding="utf-8"?>
<!-- Generator: Adobe Illustrator 16.0.0, SVG Export Plug-In . SVG Version: 6.00 Build 0)  -->
<!DOCTYPE svg PUBLIC "-//W3C//DTD SVG 1.1//EN" "http://www.w3.org/Graphics/SVG/1.1/DTD/svg11.dtd">
<svg version="1.1" id="Layer_1" xmlns="http://www.w3.org/2000/svg" xmlns:xlink="http://www.w3.org/1999/xlink" x="0px" y="0px"
	 width="48px" height="48px" viewBox="0 0 48 48" enable-background="new 0 0 48 48" xml:space="preserve">
<g>
	<g>
		<path d="M24.002,33.529c-0.552,0-1-0.447-1-1V13.531c0-0.552,0.448-1,1-1c0.553,0,1,0.448,1,1v18.998
			C25.002,33.082,24.555,33.529,24.002,33.529z"/>
		<path d="M24.072,35.471c-0.271,0-0.529-0.109-0.718-0.304c-3.53-3.64-8.911-9.164-9.474-9.681
			c-0.329-0.251-0.479-0.691-0.343-1.106c0.172-0.524,0.737-0.813,1.262-0.639c0.307,0.101,0.376,0.123,9.271,9.291l8.722-9.035
			c0.385-0.397,1.017-0.408,1.414-0.025s0.409,1.016,0.025,1.414l-9.44,9.779C24.604,35.36,24.344,35.471,24.072,35.471
			C24.073,35.471,24.072,35.471,24.072,35.471z"/>
	</g>
	<path d="M24.002,48C10.768,48,0.001,37.233,0.001,24S10.768,0,24.002,0c13.231,0,23.996,10.767,23.996,24S37.233,48,24.002,48z
		 M24.002,2C11.871,2,2.001,11.869,2.001,24s9.87,22,22.001,22c12.129,0,21.996-9.869,21.996-22S36.131,2,24.002,2z"/>
</g>
</svg>
