<?xml version="1.0" encoding="utf-8"?>
<!-- Generator: Adobe Illustrator 16.0.0, SVG Export Plug-In . SVG Version: 6.00 Build 0)  -->
<!DOCTYPE svg PUBLIC "-//W3C//DTD SVG 1.1//EN" "http://www.w3.org/Graphics/SVG/1.1/DTD/svg11.dtd">
<svg version="1.1" id="Layer_1" xmlns="http://www.w3.org/2000/svg" xmlns:xlink="http://www.w3.org/1999/xlink" x="0px" y="0px"
	 width="48px" height="48px" viewBox="0 0 48 48" enable-background="new 0 0 48 48" xml:space="preserve">
<g>
	<g>
		<path d="M32.533,25H13.531c-0.552,0-1-0.447-1-1c0-0.552,0.448-1,1-1h19.002c0.553,0,1,0.448,1,1
			C33.533,24.553,33.086,25,32.533,25z"/>
		<path d="M24.693,34.512c-0.104,0-0.208-0.016-0.313-0.05c-0.524-0.173-0.81-0.738-0.638-1.263c0.101-0.306,0.125-0.377,9.29-9.267
			l-9.037-8.726c-0.397-0.383-0.408-1.017-0.024-1.414c0.384-0.397,1.018-0.407,1.414-0.024l9.779,9.443
			c0.195,0.188,0.306,0.447,0.306,0.718s-0.109,0.53-0.304,0.719c-3.639,3.528-9.163,8.907-9.679,9.47
			C25.3,34.366,25.005,34.512,24.693,34.512z"/>
	</g>
	<path d="M23.998,48C10.766,48,0.001,37.233,0.001,24S10.766,0,23.998,0c13.233,0,24,10.767,24,24S37.231,48,23.998,48z M23.998,2
		C11.869,2,2.001,11.869,2.001,24s9.868,22,21.997,22c12.131,0,22-9.869,22-22S36.129,2,23.998,2z"/>
</g>
</svg>
