<?xml version="1.0" encoding="utf-8"?>
<!-- Generator: Adobe Illustrator 16.0.0, SVG Export Plug-In . SVG Version: 6.00 Build 0)  -->
<!DOCTYPE svg PUBLIC "-//W3C//DTD SVG 1.1//EN" "http://www.w3.org/Graphics/SVG/1.1/DTD/svg11.dtd">
<svg version="1.1" id="Layer_1" xmlns="http://www.w3.org/2000/svg" xmlns:xlink="http://www.w3.org/1999/xlink" x="0px" y="0px"
	 width="48px" height="48px" viewBox="0 0 48 48" enable-background="new 0 0 48 48" xml:space="preserve">
<g>
	<path d="M24,48.002C10.765,48.002-0.002,37.234-0.002,24C-0.002,10.765,10.765-0.002,24-0.002
		c13.234,0,24.002,10.767,24.002,24.002C48.002,37.234,37.234,48.002,24,48.002z M24,1.998C11.868,1.998,1.998,11.868,1.998,24
		S11.868,46.002,24,46.002S46.002,36.132,46.002,24S36.132,1.998,24,1.998z"/>
	<path d="M7.698,41.297c-0.256,0-0.512-0.098-0.707-0.293c-0.391-0.391-0.391-1.023,0-1.414l32.601-32.6
		c0.391-0.391,1.023-0.391,1.414,0s0.391,1.023,0,1.414l-32.601,32.6C8.21,41.199,7.954,41.297,7.698,41.297z"/>
</g>
</svg>
