<?xml version="1.0" encoding="utf-8"?>
<!-- Generator: Adobe Illustrator 16.0.0, SVG Export Plug-In . SVG Version: 6.00 Build 0)  -->
<!DOCTYPE svg PUBLIC "-//W3C//DTD SVG 1.1//EN" "http://www.w3.org/Graphics/SVG/1.1/DTD/svg11.dtd">
<svg version="1.1" id="Layer_1" xmlns="http://www.w3.org/2000/svg" xmlns:xlink="http://www.w3.org/1999/xlink" x="0px" y="0px"
	 width="48px" height="48px" viewBox="0 0 48 48" enable-background="new 0 0 48 48" xml:space="preserve">
<g>
	<path d="M17.886,41.041L17.886,41.041c-0.265,0-0.52-0.105-0.707-0.293L7.25,30.816c-0.391-0.391-0.391-1.023,0-1.414L36.365,0.293
		c0.391-0.391,1.023-0.391,1.414,0l9.928,9.924C47.895,10.404,48,10.659,48,10.924s-0.105,0.52-0.293,0.707L18.593,40.748
		C18.405,40.936,18.151,41.041,17.886,41.041z M9.371,30.109l8.515,8.518l27.7-27.703l-8.514-8.51L9.371,30.109z"/>
	<path d="M1,48c-0.26,0-0.516-0.102-0.707-0.293c-0.286-0.286-0.372-0.716-0.217-1.09l6.98-16.868
		c0.127-0.309,0.401-0.532,0.729-0.598c0.328-0.07,0.666,0.037,0.902,0.273l9.892,9.89c0.236,0.236,0.339,0.574,0.274,0.902
		c-0.065,0.327-0.29,0.601-0.599,0.729L1.382,47.924C1.259,47.976,1.129,48,1,48z M8.332,31.897L2.846,45.154l13.26-5.484
		L8.332,31.897z"/>
	<path d="M40.49,17.478c-0.256,0-0.512-0.098-0.707-0.293l-8.862-8.871c-0.391-0.391-0.391-1.023,0-1.414
		c0.391-0.39,1.023-0.391,1.414,0.001l8.862,8.871c0.391,0.391,0.391,1.023,0,1.414C41.002,17.38,40.746,17.478,40.49,17.478z"/>
	<path d="M15.818,33.182c-0.256,0-0.512-0.098-0.707-0.293c-0.391-0.391-0.391-1.023,0-1.414l17.411-17.411
		c0.391-0.391,1.023-0.391,1.414,0s0.391,1.023,0,1.414L16.525,32.889C16.33,33.084,16.074,33.182,15.818,33.182z"/>
</g>
</svg>
