<?xml version="1.0" encoding="utf-8"?>
<!-- Generator: Adobe Illustrator 16.0.0, SVG Export Plug-In . SVG Version: 6.00 Build 0)  -->
<!DOCTYPE svg PUBLIC "-//W3C//DTD SVG 1.1//EN" "http://www.w3.org/Graphics/SVG/1.1/DTD/svg11.dtd">
<svg version="1.1" id="Layer_1" xmlns="http://www.w3.org/2000/svg" xmlns:xlink="http://www.w3.org/1999/xlink" x="0px" y="0px"
	 width="48px" height="48px" viewBox="0 0 48 48" enable-background="new 0 0 48 48" xml:space="preserve">
<g>
	<path d="M47,47.999c-0.111,0-0.224-0.019-0.332-0.057l-10.057-3.543c-3.808,2.356-8.155,3.6-12.606,3.6
		C10.769,47.999,0,37.232,0,23.999C0,10.767,10.769,0.001,24.005,0.001C37.235,0.001,48,10.767,48,23.999
		c0,4.461-1.242,8.81-3.597,12.609l3.54,10.059c0.128,0.363,0.036,0.768-0.236,1.039C47.517,47.896,47.261,47.999,47,47.999z
		 M24.005,2.001C11.872,2.001,2,11.869,2,23.999c0,12.131,9.872,22,22.005,22c4.229,0,8.356-1.226,11.938-3.544
		c0.259-0.168,0.586-0.206,0.875-0.104l8.546,3.011l-3.009-8.548c-0.103-0.292-0.064-0.616,0.104-0.876
		c2.315-3.572,3.54-7.7,3.54-11.939C46,11.869,36.133,2.001,24.005,2.001z"/>
</g>
</svg>
