<?xml version="1.0" encoding="utf-8"?>
<!-- Generator: Adobe Illustrator 16.0.0, SVG Export Plug-In . SVG Version: 6.00 Build 0)  -->
<!DOCTYPE svg PUBLIC "-//W3C//DTD SVG 1.1//EN" "http://www.w3.org/Graphics/SVG/1.1/DTD/svg11.dtd">
<svg version="1.1" id="Layer_1" xmlns="http://www.w3.org/2000/svg" xmlns:xlink="http://www.w3.org/1999/xlink" x="0px" y="0px"
	 width="48px" height="48px" viewBox="0 0 48 48" enable-background="new 0 0 48 48" xml:space="preserve">
<g>
	<g>
		<path d="M29.561,30.559c-0.256,0-0.512-0.098-0.707-0.293L17.733,19.143c-0.391-0.391-0.391-1.024,0-1.414
			c0.391-0.391,1.023-0.391,1.414,0l11.121,11.123c0.391,0.391,0.391,1.023,0,1.414C30.072,30.461,29.816,30.559,29.561,30.559z"/>
		<path d="M18.44,30.559c-0.256,0-0.512-0.098-0.707-0.293c-0.391-0.391-0.391-1.023,0-1.414l11.121-11.123
			c0.391-0.391,1.023-0.391,1.414,0c0.391,0.39,0.391,1.023,0,1.414L19.147,30.266C18.952,30.461,18.696,30.559,18.44,30.559z"/>
	</g>
	<path d="M47,48c-0.111,0-0.224-0.019-0.332-0.057l-10.055-3.541C32.808,46.758,28.458,48,24.002,48C10.767,48,0,37.233,0,24
		S10.767,0,24.002,0C37.234,0,48,10.767,48,24c0,4.462-1.241,8.812-3.594,12.611l3.537,10.057c0.128,0.363,0.036,0.768-0.236,1.039
		C47.517,47.897,47.261,48,47,48z M24.002,2C11.87,2,2,11.869,2,24s9.87,22,22.002,22c4.233,0,8.363-1.225,11.943-3.542
		c0.259-0.168,0.585-0.206,0.875-0.104l8.544,3.009l-3.006-8.545c-0.103-0.292-0.064-0.615,0.104-0.876
		C44.776,32.369,46,28.239,46,24C46,11.869,36.132,2,24.002,2z"/>
</g>
</svg>
