<?xml version="1.0" encoding="utf-8"?>
<!-- Generator: Adobe Illustrator 16.0.0, SVG Export Plug-In . SVG Version: 6.00 Build 0)  -->
<!DOCTYPE svg PUBLIC "-//W3C//DTD SVG 1.1//EN" "http://www.w3.org/Graphics/SVG/1.1/DTD/svg11.dtd">
<svg version="1.1" id="Layer_1" xmlns="http://www.w3.org/2000/svg" xmlns:xlink="http://www.w3.org/1999/xlink" x="0px" y="0px"
	 width="48px" height="48px" viewBox="0 0 48 48" enable-background="new 0 0 48 48" xml:space="preserve">
<g>
	<g>
		<path d="M32.549,25.319c-2.421,0-4.691-0.937-6.393-2.638l-0.834-0.833c-1.702-1.701-2.639-3.972-2.639-6.394
			c0-2.422,0.937-4.693,2.639-6.396l6.422-6.418c1.699-1.702,3.97-2.64,6.393-2.64s4.693,0.938,6.392,2.641l0.833,0.827
			c3.522,3.533,3.522,9.27,0.002,12.792l-6.42,6.421C37.24,24.383,34.969,25.319,32.549,25.319z M38.137,2.001
			c-1.888,0-3.656,0.729-4.978,2.054l-6.423,6.419c-1.324,1.324-2.054,3.093-2.054,4.981s0.729,3.656,2.054,4.979l0.834,0.833
			c1.324,1.324,3.092,2.053,4.979,2.053s3.655-0.729,4.98-2.053l6.42-6.42c2.741-2.743,2.741-7.212-0.001-9.962l-0.833-0.827
			C41.792,2.73,40.024,2.001,38.137,2.001z"/>
		<path d="M9.864,48.001c-2.422,0-4.692-0.937-6.392-2.638L2.639,44.53c-3.524-3.53-3.524-9.266,0-12.786l6.419-6.424
			c1.704-1.701,3.974-2.638,6.394-2.638c2.42,0,4.69,0.937,6.392,2.638l0.834,0.83c1.705,1.704,2.643,3.976,2.643,6.397
			s-0.938,4.692-2.642,6.394l-6.421,6.422C14.556,47.064,12.286,48.001,9.864,48.001z M15.451,24.683
			c-1.886,0-3.654,0.729-4.979,2.052l-6.419,6.424c-2.745,2.742-2.744,7.209,0,9.959l0.833,0.831
			c1.323,1.324,3.09,2.053,4.978,2.053s3.656-0.729,4.979-2.052l6.421-6.422c1.325-1.324,2.055-3.092,2.055-4.979
			s-0.729-3.657-2.055-4.981l-0.834-0.83C19.105,25.411,17.337,24.683,15.451,24.683z"/>
	</g>
	<path d="M14.513,34.486c-0.256,0-0.512-0.098-0.707-0.293c-0.391-0.391-0.391-1.023,0-1.414l18.973-18.972
		c0.391-0.391,1.023-0.391,1.414,0s0.391,1.023,0,1.414L15.22,34.193C15.025,34.389,14.769,34.486,14.513,34.486z"/>
</g>
</svg>
