<?xml version="1.0" encoding="utf-8"?>
<!-- Generator: Adobe Illustrator 16.0.0, SVG Export Plug-In . SVG Version: 6.00 Build 0)  -->
<!DOCTYPE svg PUBLIC "-//W3C//DTD SVG 1.1//EN" "http://www.w3.org/Graphics/SVG/1.1/DTD/svg11.dtd">
<svg version="1.1" id="Layer_1" xmlns="http://www.w3.org/2000/svg" xmlns:xlink="http://www.w3.org/1999/xlink" x="0px" y="0px"
	 width="48px" height="48px" viewBox="0 0 48 48" enable-background="new 0 0 48 48" xml:space="preserve">
<g>
	<path d="M33.346,48c-0.255,0-0.506-0.098-0.696-0.282L15.451,31.03c-1.707,1.516-3.847,2.339-6.123,2.339
		C4.185,33.369,0,29.166,0,23.999c0-5.168,4.185-9.372,9.328-9.372c2.279,0,4.419,0.823,6.124,2.338L32.649,0.282
		c0.288-0.28,0.716-0.36,1.086-0.203s0.61,0.519,0.61,0.921v46c0,0.401-0.24,0.765-0.61,0.921C33.609,47.975,33.478,48,33.346,48z
		 M15.447,28.633c0.26,0,0.509,0.101,0.696,0.282l16.203,15.722V3.363L16.143,19.081c-0.194,0.188-0.444,0.295-0.727,0.282
		c-0.271-0.008-0.526-0.125-0.708-0.325c-1.419-1.554-3.33-2.41-5.38-2.41C5.288,16.627,2,19.934,2,23.999
		c0,4.063,3.288,7.37,7.328,7.37c2.047,0,3.958-0.856,5.381-2.411c0.183-0.199,0.438-0.316,0.708-0.325
		C15.427,28.633,15.437,28.633,15.447,28.633z"/>
	<path d="M42.234,35.516c-0.271,0-0.541-0.109-0.738-0.325c-0.372-0.408-0.344-1.04,0.063-1.413c2.864-2.618,4.441-6.091,4.44-9.78
		s-1.58-7.163-4.446-9.78c-0.407-0.373-0.436-1.005-0.063-1.413c0.373-0.409,1.005-0.436,1.413-0.064
		c3.285,3.001,5.096,6.999,5.097,11.256c0.001,4.257-1.808,8.255-5.091,11.257C42.717,35.429,42.476,35.516,42.234,35.516z"/>
</g>
</svg>
