<?xml version="1.0" encoding="utf-8"?>
<!-- Generator: Adobe Illustrator 16.0.0, SVG Export Plug-In . SVG Version: 6.00 Build 0)  -->
<!DOCTYPE svg PUBLIC "-//W3C//DTD SVG 1.1//EN" "http://www.w3.org/Graphics/SVG/1.1/DTD/svg11.dtd">
<svg version="1.1" id="Layer_1" xmlns="http://www.w3.org/2000/svg" xmlns:xlink="http://www.w3.org/1999/xlink" x="0px" y="0px"
	 width="48px" height="48px" viewBox="0 0 48 48" enable-background="new 0 0 48 48" xml:space="preserve">
<g>
	<path d="M21.127,15.388c-3.287,0-11.935-1.967-11.935-6.397c0-4.624,3.761-8.386,8.383-8.386c1.917,0,3.658,1.642,5.036,4.748
		c1.286,2.899,2.45,7.863,1.189,9.255C23.32,15.14,22.47,15.388,21.127,15.388z M17.576,2.604c-3.52,0-6.383,2.865-6.383,6.386
		c0,2.225,6.286,4.397,9.935,4.397c0.706,0,1.041-0.087,1.17-0.135c0.308-1.04-0.489-5.77-2.395-8.758
		C19.125,3.275,18.299,2.604,17.576,2.604z"/>
	<path d="M26.746,15.388C26.746,15.388,26.746,15.388,26.746,15.388c-1.343,0-2.193-0.248-2.675-0.781
		c-1.26-1.394-0.094-6.359,1.193-9.259c1.378-3.104,3.119-4.744,5.035-4.744c4.623,0,8.385,3.762,8.385,8.386
		c0,1.885-1.629,3.557-4.711,4.836C31.723,14.76,28.818,15.388,26.746,15.388z M25.575,13.252c0.13,0.048,0.465,0.135,1.17,0.135
		c1.835,0,4.432-0.566,6.461-1.408c2.178-0.904,3.478-2.021,3.478-2.989c0-3.521-2.864-6.386-6.385-6.386
		c-0.723,0-1.549,0.671-2.326,1.889C26.066,7.481,25.269,12.211,25.575,13.252z"/>
	<path d="M11.646,39.43c-0.552,0-1-0.447-1-1v-9.718c0-0.553,0.448-1,1-1s1,0.447,1,1v9.718
		C12.646,38.982,12.198,39.43,11.646,39.43z"/>
	<path d="M23.938,39.43c-0.552,0-1-0.447-1-1v-9.718c0-0.553,0.448-1,1-1s1,0.447,1,1v9.718C24.938,38.982,24.49,39.43,23.938,39.43
		z"/>
	<path d="M36.229,39.43c-0.553,0-1-0.447-1-1v-9.718c0-0.553,0.447-1,1-1s1,0.447,1,1v9.718
		C37.229,38.982,36.781,39.43,36.229,39.43z"/>
	<path d="M46.872,47.396H1c-0.552,0-1-0.447-1-1V15c0-0.552,0.448-1,1-1h45.872c0.553,0,1,0.448,1,1v31.396
		C47.872,46.949,47.425,47.396,46.872,47.396z M2,45.396h43.872V16H2V45.396z"/>
	<path d="M47,21.594H1c-0.552,0-1-0.448-1-1s0.448-1,1-1h46c0.553,0,1,0.448,1,1S47.553,21.594,47,21.594z"/>
</g>
</svg>
