<?xml version="1.0" encoding="utf-8"?>
<!-- Generator: Adobe Illustrator 16.0.0, SVG Export Plug-In . SVG Version: 6.00 Build 0)  -->
<!DOCTYPE svg PUBLIC "-//W3C//DTD SVG 1.1//EN" "http://www.w3.org/Graphics/SVG/1.1/DTD/svg11.dtd">
<svg version="1.1" id="Layer_1" xmlns="http://www.w3.org/2000/svg" xmlns:xlink="http://www.w3.org/1999/xlink" x="0px" y="0px"
	 width="48px" height="48px" viewBox="0 0 48 48" enable-background="new 0 0 48 48" xml:space="preserve">
<g>
	<path d="M35.252,48H12.748c-3.326,0-6.031-2.703-6.031-6.025V6.033C6.717,2.707,9.422,0,12.748,0h22.504
		c3.325,0,6.031,2.707,6.031,6.033v35.941C41.283,45.297,38.577,48,35.252,48z M12.748,2c-2.223,0-4.031,1.809-4.031,4.033v35.941
		c0,2.22,1.809,4.025,4.031,4.025h22.504c2.223,0,4.031-1.806,4.031-4.025V6.033C39.283,3.809,37.475,2,35.252,2H12.748z"/>
	<g>
		<path d="M28.814,31.057c-1.838,0-3.561-0.737-4.814-2.02c-1.253,1.282-2.977,2.02-4.816,2.02c-3.707,0-6.722-2.991-6.722-6.667
			c0-3.289,2.056-4.833,4.437-6.621c2.042-1.534,4.357-3.272,6.229-6.621c0.175-0.313,0.505-0.509,0.864-0.512
			c0.003,0,0.006,0,0.009,0c0.355,0,0.685,0.189,0.864,0.496c1.845,3.164,4.152,5.012,6.189,6.643
			c2.406,1.927,4.484,3.591,4.484,6.615C35.538,28.065,32.521,31.057,28.814,31.057z M24,26.443c0.338,0,0.654,0.171,0.839,0.455
			c0.877,1.352,2.363,2.158,3.976,2.158c2.604,0,4.724-2.094,4.724-4.667c0-1.972-1.28-3.089-3.734-5.054
			c-1.776-1.422-3.927-3.144-5.787-5.816c-1.906,2.836-4.104,4.487-5.917,5.849c-2.19,1.645-3.638,2.732-3.638,5.021
			c0,2.574,2.118,4.667,4.722,4.667c1.614,0,3.1-0.807,3.977-2.157C23.346,26.615,23.661,26.443,24,26.443z"/>
		<path d="M28.473,37.357h-8.944c-0.476,0-0.885-0.335-0.98-0.801c-0.095-0.466,0.151-0.934,0.589-1.119
			c0.125-0.055,3.145-1.404,3.885-4.846c0.099-0.461,0.506-0.79,0.978-0.79s0.879,0.329,0.978,0.79
			c0.74,3.441,3.762,4.791,3.89,4.847c0.435,0.189,0.679,0.658,0.583,1.122C29.354,37.024,28.946,37.357,28.473,37.357z
			 M22.614,35.357h2.772c-0.487-0.494-0.971-1.093-1.386-1.808C23.585,34.265,23.102,34.863,22.614,35.357z"/>
	</g>
</g>
</svg>
