<?xml version="1.0" encoding="utf-8"?>
<!-- Generator: Adobe Illustrator 16.0.0, SVG Export Plug-In . SVG Version: 6.00 Build 0)  -->
<!DOCTYPE svg PUBLIC "-//W3C//DTD SVG 1.1//EN" "http://www.w3.org/Graphics/SVG/1.1/DTD/svg11.dtd">
<svg version="1.1" id="Layer_1" xmlns="http://www.w3.org/2000/svg" xmlns:xlink="http://www.w3.org/1999/xlink" x="0px" y="0px"
	 width="48px" height="48px" viewBox="0 0 48 48" enable-background="new 0 0 48 48" xml:space="preserve">
<g>
	<path d="M35.253,48H12.748c-3.326,0-6.032-2.703-6.032-6.025V6.035C6.716,2.708,9.422,0,12.748,0h22.505
		c3.325,0,6.031,2.708,6.031,6.035v35.939C41.284,45.297,38.578,48,35.253,48z M12.748,2c-2.223,0-4.032,1.81-4.032,4.035v35.939
		c0,2.22,1.809,4.025,4.032,4.025h22.505c2.223,0,4.031-1.806,4.031-4.025V6.035C39.284,3.81,37.476,2,35.253,2H12.748z"/>
	<g>
		<path d="M28.143,31.105c-1.573,0-3.048-0.617-4.141-1.696c-1.093,1.079-2.567,1.696-4.14,1.696c-3.257,0-5.908-2.65-5.908-5.907
			c0-2.728,1.877-5.043,4.408-5.712c-0.178-0.567-0.27-1.158-0.27-1.753c0-3.257,2.651-5.908,5.91-5.908s5.909,2.65,5.909,5.908
			c0,0.594-0.092,1.185-0.27,1.753c2.53,0.667,4.407,2.983,4.408,5.712C34.05,28.455,31.399,31.105,28.143,31.105z M24.002,26.826
			c0.342,0,0.66,0.175,0.844,0.463c0.725,1.138,1.957,1.816,3.297,1.816c2.154,0,3.907-1.753,3.907-3.907
			c-0.001-2.135-1.737-3.887-3.871-3.906c-0.359-0.003-0.689-0.199-0.865-0.513c-0.175-0.314-0.167-0.698,0.019-1.005
			c0.385-0.633,0.579-1.32,0.579-2.041c0-2.155-1.754-3.908-3.909-3.908c-2.156,0-3.91,1.753-3.91,3.908
			c0,0.713,0.201,1.417,0.581,2.037c0.188,0.307,0.197,0.692,0.022,1.007c-0.174,0.315-0.505,0.512-0.866,0.515
			c-2.136,0.019-3.875,1.771-3.875,3.906c0,2.154,1.753,3.907,3.908,3.907c1.34,0,2.572-0.679,3.297-1.816
			C23.342,27.001,23.66,26.826,24.002,26.826z"/>
		<path d="M28.471,36.178h-8.946c-0.475,0-0.885-0.335-0.98-0.8c-0.095-0.466,0.151-0.935,0.588-1.12
			c0.125-0.055,3.147-1.406,3.89-4.846c0.1-0.461,0.507-0.789,0.978-0.789h0c0.471,0,0.878,0.329,0.977,0.79
			c0.747,3.473,3.853,4.831,3.884,4.845c0.438,0.186,0.684,0.654,0.588,1.12C29.355,35.844,28.946,36.178,28.471,36.178z
			 M22.611,34.178h2.775c-0.487-0.494-0.972-1.094-1.387-1.81C23.584,33.084,23.099,33.684,22.611,34.178z"/>
	</g>
</g>
</svg>
