<?xml version="1.0" encoding="utf-8"?>
<!-- Generator: Adobe Illustrator 16.0.0, SVG Export Plug-In . SVG Version: 6.00 Build 0)  -->
<!DOCTYPE svg PUBLIC "-//W3C//DTD SVG 1.1//EN" "http://www.w3.org/Graphics/SVG/1.1/DTD/svg11.dtd">
<svg version="1.1" id="Layer_1" xmlns="http://www.w3.org/2000/svg" xmlns:xlink="http://www.w3.org/1999/xlink" x="0px" y="0px"
	 width="48px" height="48px" viewBox="0 0 48 48" enable-background="new 0 0 48 48" xml:space="preserve">
<g>
	<path d="M35.075,48H12.921c-0.515,0-0.945-0.391-0.995-0.902l-3.06-31.236c-0.01-0.101-0.004-0.202,0.016-0.301l3.06-14.764
		C12.038,0.333,12.447,0,12.921,0h22.154c0.474,0,0.883,0.333,0.979,0.797l3.063,14.764c0.021,0.099,0.025,0.2,0.016,0.301
		L36.07,47.098C36.021,47.609,35.59,48,35.075,48z M13.828,46h20.341l2.96-30.182L34.262,2H13.735l-2.864,13.818L13.828,46z"/>
	<path d="M23.999,28.514c-0.552,0-1-0.447-1-1V9.135c0-0.552,0.448-1,1-1c0.553,0,1,0.448,1,1v18.379
		C24.999,28.066,24.552,28.514,23.999,28.514z"/>
	<path d="M28.971,15.561H19.03c-0.552,0-1-0.448-1-1s0.448-1,1-1h9.941c0.553,0,1,0.448,1,1S29.523,15.561,28.971,15.561z"/>
</g>
</svg>
