<?xml version="1.0" encoding="utf-8"?>
<!-- Generator: Adobe Illustrator 16.0.0, SVG Export Plug-In . SVG Version: 6.00 Build 0)  -->
<!DOCTYPE svg PUBLIC "-//W3C//DTD SVG 1.1//EN" "http://www.w3.org/Graphics/SVG/1.1/DTD/svg11.dtd">
<svg version="1.1" id="Layer_1" xmlns="http://www.w3.org/2000/svg" xmlns:xlink="http://www.w3.org/1999/xlink" x="0px" y="0px"
	 width="48px" height="48px" viewBox="0 0 48 48" enable-background="new 0 0 48 48" xml:space="preserve">
<g>
	<g>
		<path d="M24.002,31.291c-0.552,0-1-0.447-1-1V11.914c0-0.552,0.448-1,1-1c0.553,0,1,0.448,1,1v18.377
			C25.002,30.844,24.555,31.291,24.002,31.291z"/>
		<path d="M28.973,18.336h-9.941c-0.552,0-1-0.448-1-1s0.448-1,1-1h9.941c0.553,0,1,0.448,1,1S29.525,18.336,28.973,18.336z"/>
	</g>
	<g>
		<path d="M40.173,42.205H7.838V15.461c0-8.524,6.168-15.459,13.75-15.459h4.833c7.583,0,13.752,6.935,13.752,15.459V42.205z
			 M9.838,40.205h28.335V15.461c0-7.421-5.271-13.459-11.752-13.459h-4.833c-6.479,0-11.75,6.038-11.75,13.459V40.205z"/>
		<path d="M47,47.998H1c-0.552,0-1-0.447-1-1s0.448-1,1-1h46c0.553,0,1,0.447,1,1S47.553,47.998,47,47.998z"/>
	</g>
</g>
</svg>
