<?xml version="1.0" encoding="utf-8"?>
<!-- Generator: Adobe Illustrator 16.0.0, SVG Export Plug-In . SVG Version: 6.00 Build 0)  -->
<!DOCTYPE svg PUBLIC "-//W3C//DTD SVG 1.1//EN" "http://www.w3.org/Graphics/SVG/1.1/DTD/svg11.dtd">
<svg version="1.1" id="Layer_1" xmlns="http://www.w3.org/2000/svg" xmlns:xlink="http://www.w3.org/1999/xlink" x="0px" y="0px"
	 width="48px" height="48px" viewBox="0 0 48 48" enable-background="new 0 0 48 48" xml:space="preserve">
<g>
	<path d="M6.646,48c-0.194,0-0.387-0.057-0.554-0.167C5.813,47.647,5.646,47.335,5.646,47V17.546C5.646,7.871,12.638,0,21.233,0
		h5.537c8.593,0,15.584,7.871,15.584,17.546V47c0,0.342-0.175,0.659-0.463,0.844c-0.288,0.183-0.651,0.206-0.959,0.063l-7.15-3.33
		l-8.957,3.36c-0.225,0.083-0.473,0.086-0.699,0.001l-9.082-3.37l-8.011,3.354C6.908,47.975,6.777,48,6.646,48z M15.021,42.492
		c0.118,0,0.235,0.021,0.348,0.063l9.102,3.378l9-3.377c0.25-0.093,0.531-0.083,0.773,0.03l6.108,2.845V17.546
		C40.354,8.974,34.26,2,26.77,2h-5.537C13.741,2,7.646,8.974,7.646,17.546v27.951l6.989-2.927
		C14.758,42.519,14.89,42.492,15.021,42.492z"/>
	<g>
		<path d="M20.168,16.921c0,1.198-0.97,2.175-2.178,2.175c-1.194,0-2.164-0.977-2.164-2.175c0-1.2,0.969-2.173,2.164-2.173
			C19.198,14.748,20.168,15.721,20.168,16.921z"/>
		<path d="M32.176,16.921c0,1.198-0.97,2.175-2.171,2.175c-1.194,0-2.172-0.977-2.172-2.175c0-1.2,0.978-2.173,2.172-2.173
			C31.206,14.748,32.176,15.721,32.176,16.921z"/>
	</g>
	<path d="M23.815,37.517c-5.932,0-9.667-6.558-9.824-6.837c-0.173-0.31-0.169-0.688,0.01-0.994c0.18-0.306,0.508-0.494,0.863-0.494
		h18.27c0.376,0,0.72,0.211,0.891,0.545c0.171,0.335,0.14,0.737-0.081,1.042C30.704,35.25,27.297,37.517,23.815,37.517z
		 M16.755,31.191c1.329,1.723,3.864,4.325,7.06,4.325c2.397,0,4.836-1.453,7.27-4.325H16.755z"/>
</g>
</svg>
