<?xml version="1.0" encoding="utf-8"?>
<!-- Generator: Adobe Illustrator 16.0.0, SVG Export Plug-In . SVG Version: 6.00 Build 0)  -->
<!DOCTYPE svg PUBLIC "-//W3C//DTD SVG 1.1//EN" "http://www.w3.org/Graphics/SVG/1.1/DTD/svg11.dtd">
<svg version="1.1" id="Layer_1" xmlns="http://www.w3.org/2000/svg" xmlns:xlink="http://www.w3.org/1999/xlink" x="0px" y="0px"
	 width="48px" height="48px" viewBox="0 0 48 48" enable-background="new 0 0 48 48" xml:space="preserve">
<g>
	<g>
		<path d="M20.23,21.912c0,1.205-0.973,2.173-2.178,2.173c-1.197,0-2.167-0.968-2.167-2.173c0-1.198,0.97-2.171,2.167-2.171
			C19.258,19.741,20.23,20.714,20.23,21.912z"/>
		<path d="M32.238,21.912c0,1.205-0.973,2.173-2.17,2.173s-2.174-0.968-2.174-2.173c0-1.198,0.977-2.171,2.174-2.171
			S32.238,20.714,32.238,21.912z"/>
	</g>
	<path d="M36.568,44.9L36.568,44.9c-2.233,0-4.376-0.967-6.25-2.807c-1.874,1.84-4.018,2.807-6.25,2.807
		c-2.263,0-4.429-0.991-6.318-2.879c-1.89,1.888-4.055,2.879-6.314,2.879C5.13,44.9,0,37.268,0,27.885
		c0-9.38,5.13-17.011,11.436-17.011c2.258,0,4.423,0.99,6.313,2.876c1.89-1.886,4.056-2.876,6.318-2.876
		c2.233,0,4.376,0.968,6.25,2.811c1.875-1.843,4.018-2.811,6.25-2.811C42.872,10.874,48,18.505,48,27.885S42.872,44.898,36.568,44.9
		z M17.75,39.546L17.75,39.546c0.294,0,0.572,0.129,0.762,0.353c1.163,1.37,3.069,3.002,5.556,3.002
		c2.453,0,4.341-1.589,5.494-2.923c0.381-0.439,1.133-0.439,1.514,0c1.152,1.334,3.04,2.923,5.493,2.923
		C41.769,42.898,46,36.163,46,27.885c0-8.277-4.231-15.011-9.432-15.011c-2.451,0-4.34,1.591-5.493,2.927
		c-0.19,0.22-0.466,0.346-0.757,0.346l0,0c-0.291,0-0.567-0.126-0.757-0.347c-1.152-1.335-3.041-2.926-5.494-2.926
		c-2.486,0-4.394,1.63-5.556,2.998c-0.381,0.447-1.144,0.447-1.523,0c-1.164-1.368-3.072-2.998-5.552-2.998
		C6.233,12.874,2,19.608,2,27.885C2,36.164,6.233,42.9,11.436,42.9c2.481,0,4.389-1.633,5.552-3.002
		C17.178,39.675,17.457,39.546,17.75,39.546z"/>
	<path d="M24.003,11.703c-0.409,0-0.792-0.253-0.94-0.66c-0.635-1.752-0.675-5.646,3.721-7.838c0.497-0.246,1.096-0.045,1.341,0.449
		c0.247,0.494,0.046,1.095-0.448,1.341c-3.917,1.954-2.784,5.228-2.733,5.366c0.188,0.519-0.08,1.093-0.6,1.281
		C24.231,11.683,24.116,11.703,24.003,11.703z"/>
	<path d="M27.247,36.138c-1.7,0-3.522-0.693-4.665-1.864c-1.311-1.337-2.215-2.171-3.708-2.473c-0.9-0.183-1.875,0.004-2.368,0.447
		c-0.298,0.269-0.416,0.618-0.372,1.1c0.051,0.55-0.354,1.037-0.904,1.088c-0.555,0.059-1.037-0.355-1.087-0.904
		c-0.103-1.116,0.251-2.073,1.025-2.77c1.167-1.051,2.883-1.166,4.099-0.922c2.206,0.445,3.555,1.821,4.745,3.035
		c0.984,1.009,2.862,1.521,4.188,1.139c0.93-0.267,1.631-1.744,1.876-3.953c0.062-0.549,0.565-0.939,1.104-0.884
		c0.549,0.062,0.944,0.556,0.884,1.104c-0.202,1.815-0.9,4.965-3.313,5.654C28.277,36.072,27.768,36.138,27.247,36.138z"/>
</g>
</svg>
