<?xml version="1.0" encoding="utf-8"?>
<!-- Generator: Adobe Illustrator 16.0.0, SVG Export Plug-In . SVG Version: 6.00 Build 0)  -->
<!DOCTYPE svg PUBLIC "-//W3C//DTD SVG 1.1//EN" "http://www.w3.org/Graphics/SVG/1.1/DTD/svg11.dtd">
<svg version="1.1" id="Layer_1" xmlns="http://www.w3.org/2000/svg" xmlns:xlink="http://www.w3.org/1999/xlink" x="0px" y="0px"
	 width="48px" height="48px" viewBox="0 0 48 48" enable-background="new 0 0 48 48" xml:space="preserve">
<g>
	<g>
		<path d="M20.226,21.911c0,1.204-0.97,2.174-2.174,2.174c-1.199,0-2.168-0.97-2.168-2.174c0-1.198,0.969-2.171,2.168-2.171
			C19.256,19.74,20.226,20.713,20.226,21.911z"/>
		<path d="M32.236,21.911c0,1.204-0.971,2.174-2.17,2.174c-1.197,0-2.176-0.97-2.176-2.174c0-1.198,0.979-2.171,2.176-2.171
			C31.266,19.74,32.236,20.713,32.236,21.911z"/>
	</g>
	<path d="M36.566,44.9c-2.232,0-4.374-0.967-6.248-2.807c-1.874,1.84-4.018,2.807-6.252,2.807c-2.264,0-4.43-0.991-6.317-2.88
		c-1.89,1.889-4.056,2.88-6.318,2.88C5.127,44.9,0,37.267,0,27.884c0-9.38,5.127-17.011,11.43-17.011c2.26,0,4.426,0.99,6.318,2.876
		c1.888-1.886,4.054-2.876,6.318-2.876c2.236,0,4.379,0.967,6.252,2.81c1.872-1.842,4.014-2.81,6.248-2.81
		C42.871,10.873,48,18.504,48,27.884C48,37.267,42.871,44.9,36.566,44.9z M30.318,39.632L30.318,39.632
		c0.291,0,0.566,0.126,0.757,0.346c1.152,1.334,3.04,2.923,5.491,2.923C41.769,42.9,46,36.164,46,27.884
		c0-8.277-4.231-15.011-9.434-15.011c-2.454,0-4.34,1.591-5.49,2.926c-0.381,0.44-1.136,0.441-1.515,0
		c-1.151-1.335-3.039-2.926-5.496-2.926c-2.488,0-4.394,1.63-5.554,2.998c-0.19,0.224-0.469,0.353-0.762,0.353h0
		c-0.293,0-0.572-0.128-0.762-0.352c-1.164-1.368-3.073-2.999-5.557-2.999c-5.2,0-9.43,6.734-9.43,15.011
		C2,36.164,6.23,42.9,11.43,42.9c2.485,0,4.394-1.634,5.557-3.004c0.19-0.224,0.469-0.353,0.762-0.353h0
		c0.293,0,0.573,0.13,0.763,0.354c1.161,1.37,3.066,3.003,5.554,3.003c2.455,0,4.343-1.589,5.496-2.923
		C29.752,39.758,30.028,39.632,30.318,39.632z"/>
	<path d="M24.001,11.702c-0.409,0-0.793-0.253-0.94-0.661c-0.633-1.752-0.671-5.645,3.722-7.836
		c0.497-0.248,1.095-0.045,1.341,0.448c0.247,0.494,0.046,1.095-0.448,1.341c-3.915,1.954-2.783,5.229-2.733,5.368
		c0.188,0.519-0.081,1.092-0.601,1.28C24.229,11.682,24.114,11.702,24.001,11.702z"/>
	<path d="M17.523,36.218l-5.65-3.873c-0.456-0.313-0.572-0.936-0.259-1.391c0.313-0.454,0.935-0.57,1.39-0.26l4.59,3.146
		l6.487-3.906l6.04,3.938l5.047-2.639c0.486-0.258,1.094-0.067,1.349,0.423c0.256,0.489,0.067,1.093-0.423,1.349l-6.084,3.182
		l-5.971-3.893L17.523,36.218z"/>
</g>
</svg>
