<?xml version="1.0" encoding="utf-8"?>
<!-- Generator: Adobe Illustrator 16.0.0, SVG Export Plug-In . SVG Version: 6.00 Build 0)  -->
<!DOCTYPE svg PUBLIC "-//W3C//DTD SVG 1.1//EN" "http://www.w3.org/Graphics/SVG/1.1/DTD/svg11.dtd">
<svg version="1.1" id="Layer_1" xmlns="http://www.w3.org/2000/svg" xmlns:xlink="http://www.w3.org/1999/xlink" x="0px" y="0px"
	 width="48px" height="48px" viewBox="0 0 48 48" enable-background="new 0 0 48 48" xml:space="preserve">
<g>
	<g>
		<path d="M20.166,17.125c0,1.198-0.966,2.175-2.172,2.175c-1.199,0-2.168-0.977-2.168-2.175c0-1.2,0.97-2.175,2.168-2.175
			C19.199,14.95,20.166,15.925,20.166,17.125z"/>
		<path d="M32.177,17.125c0,1.198-0.968,2.175-2.168,2.175c-1.196,0-2.175-0.977-2.175-2.175c0-1.2,0.979-2.175,2.175-2.175
			C31.209,14.95,32.177,15.925,32.177,17.125z"/>
	</g>
	<path d="M23.999,48C13.374,48,5.281,28.481,5.281,18.714C5.281,8.395,13.678,0,23.999,0c10.322,0,18.72,8.395,18.72,18.714
		C42.719,28.481,34.626,48,23.999,48z M23.999,2C14.781,2,7.281,9.498,7.281,18.714C7.281,27.935,14.85,46,23.999,46
		c9.15,0,16.72-18.065,16.72-27.286C40.719,9.498,33.219,2,23.999,2z"/>
	<path d="M31.333,33.641H15.825c-0.552,0-1-0.447-1-1s0.448-1,1-1h15.508c0.553,0,1,0.447,1,1S31.886,33.641,31.333,33.641z"/>
	<path d="M20.166,39.387c-0.404,0-0.784-0.246-0.936-0.646l-2.169-5.746c-0.195-0.517,0.066-1.094,0.583-1.289
		c0.516-0.194,1.093,0.064,1.289,0.582l2.169,5.746c0.195,0.517-0.066,1.094-0.583,1.289C20.403,39.366,20.284,39.387,20.166,39.387
		z"/>
	<path d="M26.751,39.387c-0.117,0-0.237-0.021-0.354-0.064c-0.517-0.195-0.777-0.772-0.582-1.289l2.169-5.746
		c0.195-0.517,0.771-0.778,1.289-0.582c0.517,0.195,0.777,0.772,0.582,1.289l-2.169,5.746
		C27.535,39.141,27.155,39.387,26.751,39.387z"/>
	<path d="M36.275,7.836H12.082c-0.552,0-1-0.448-1-1s0.448-1,1-1h24.193c0.553,0,1,0.448,1,1S36.828,7.836,36.275,7.836z"/>
</g>
</svg>
