<?xml version="1.0" encoding="utf-8"?>
<!-- Generator: Adobe Illustrator 16.0.0, SVG Export Plug-In . SVG Version: 6.00 Build 0)  -->
<!DOCTYPE svg PUBLIC "-//W3C//DTD SVG 1.1//EN" "http://www.w3.org/Graphics/SVG/1.1/DTD/svg11.dtd">
<svg version="1.1" id="Layer_1" xmlns="http://www.w3.org/2000/svg" xmlns:xlink="http://www.w3.org/1999/xlink" x="0px" y="0px"
	 width="48px" height="48px" viewBox="0 0 48 48" enable-background="new 0 0 48 48" xml:space="preserve">
<g>
	<path d="M19.027,37.249l-4.433-3.044c-0.456-0.313-0.571-0.935-0.258-1.391c0.313-0.454,0.935-0.571,1.39-0.258l3.373,2.315
		l4.947-2.979l4.608,3.009l3.722-1.946c0.49-0.258,1.094-0.067,1.35,0.422s0.067,1.094-0.422,1.35l-4.761,2.491l-4.54-2.964
		L19.027,37.249z"/>
	<path d="M20.167,24.002c0,1.196-0.973,2.169-2.175,2.169c-1.198,0-2.169-0.973-2.169-2.169c0-1.204,0.972-2.175,2.169-2.175
		C19.194,21.827,20.167,22.798,20.167,24.002z"/>
	<path d="M32.172,24.002c0,1.196-0.97,2.169-2.163,2.169c-1.202,0-2.176-0.973-2.176-2.169c0-1.204,0.974-2.175,2.176-2.175
		C31.202,21.827,32.172,22.798,32.172,24.002z"/>
	<path d="M25.746,48h-3.492c-7.316,0-13.269-5.949-13.269-13.262v-21.47C8.985,5.952,14.938,0,22.254,0h3.492
		c7.315,0,13.268,5.952,13.268,13.268v21.47C39.014,42.051,33.062,48,25.746,48z M22.254,2C16.04,2,10.985,7.055,10.985,13.268
		v21.47C10.985,40.948,16.04,46,22.254,46h3.492c6.213,0,11.268-5.052,11.268-11.262v-21.47C37.014,7.055,31.959,2,25.746,2H22.254z
		"/>
	<rect x="11.288" y="11.412" width="25.423" height="2"/>
	<g>
		<path d="M18.604,17.363c-0.552,0-1-0.448-1-1V8c0-0.552,0.448-1,1-1s1,0.448,1,1v8.363C19.604,16.915,19.156,17.363,18.604,17.363
			z"/>
		<path d="M23.999,17.363c-0.552,0-1-0.448-1-1V8c0-0.552,0.448-1,1-1c0.553,0,1,0.448,1,1v8.363
			C24.999,16.915,24.552,17.363,23.999,17.363z"/>
		<path d="M29.396,17.363c-0.553,0-1-0.448-1-1V8c0-0.552,0.447-1,1-1s1,0.448,1,1v8.363C30.396,16.915,29.949,17.363,29.396,17.363
			z"/>
	</g>
	<path d="M9.985,19.166H4.197c-0.552,0-1-0.448-1-1s0.448-1,1-1h5.788c0.552,0,1,0.448,1,1S10.537,19.166,9.985,19.166z"/>
	<path d="M3.162,24.225c-0.552,0-1-0.448-1-1V12.18c0-0.552,0.448-1,1-1s1,0.448,1,1v11.045C4.162,23.777,3.714,24.225,3.162,24.225
		z"/>
	<g>
		<path d="M43.8,19.166h-5.786c-0.553,0-1-0.448-1-1s0.447-1,1-1H43.8c0.553,0,1,0.448,1,1S44.353,19.166,43.8,19.166z"/>
		<path d="M44.838,24.225c-0.553,0-1-0.448-1-1V12.18c0-0.552,0.447-1,1-1s1,0.448,1,1v11.045
			C45.838,23.777,45.391,24.225,44.838,24.225z"/>
	</g>
</g>
</svg>
