<?xml version="1.0" encoding="utf-8"?>
<!-- Generator: Adobe Illustrator 16.0.0, SVG Export Plug-In . SVG Version: 6.00 Build 0)  -->
<!DOCTYPE svg PUBLIC "-//W3C//DTD SVG 1.1//EN" "http://www.w3.org/Graphics/SVG/1.1/DTD/svg11.dtd">
<svg version="1.1" id="Layer_1" xmlns="http://www.w3.org/2000/svg" xmlns:xlink="http://www.w3.org/1999/xlink" x="0px" y="0px"
	 width="48px" height="48px" viewBox="0 0 48 48" enable-background="new 0 0 48 48" xml:space="preserve">
<g>
	<path d="M24,48C10.767,48,0,37.233,0,24S10.767,0,24,0s24,10.767,24,24S37.233,48,24,48z M24,2C11.869,2,2,11.869,2,24
		s9.869,22,22,22s22-9.869,22-22S36.131,2,24,2z"/>
	<path d="M24,48c-0.258,0-0.511-0.1-0.702-0.287c-1.514-1.49-1.519-2.651-1.524-4.258l-0.002-0.405
		c-0.016-1.698-0.571-2.929-1.59-4.604c-0.19-0.312-0.383-0.607-0.572-0.896c-0.812-1.243-1.651-2.528-1.713-4.362
		c-0.019-0.556-0.006-1.122,0.008-1.691c0.025-1.063,0.05-2.066-0.144-2.979c-0.212-1.006-0.883-1.658-2.05-1.994
		c-0.071-0.021-0.207-0.009-0.364,0.006c-0.396,0.035-0.993,0.086-1.697-0.267c-0.866-0.433-1.303-1.07-1.688-1.633
		c-0.089-0.13-0.181-0.265-0.282-0.402c-1.59-2.152-1.312-3.262-0.636-5.196c0.081-0.232,0.168-0.482,0.259-0.756
		c0.312-0.946,0.166-1.378-0.126-2.24c-0.12-0.355-0.25-0.742-0.364-1.201c-0.121-0.485-0.124-0.887-0.126-1.181
		c0-0.089-0.001-0.207-0.008-0.271c0,0,0,0,0,0c-0.025,0-0.121-0.056-0.32-0.131c-0.241-0.064-1.314-0.039-1.774,0.049
		c-0.488,0.094-0.931,0.209-1.365,0.321c-0.975,0.252-1.984,0.513-3.335,0.513v-2c1.097,0,1.903-0.208,2.835-0.449
		c0.472-0.122,0.955-0.246,1.489-0.349c0.386-0.074,2.076-0.249,2.852,0.043c1.489,0.557,1.62,1.422,1.626,2.259
		c0.002,0.236,0.003,0.458,0.067,0.715c0.099,0.399,0.213,0.734,0.317,1.041c0.336,0.991,0.653,1.927,0.131,3.508
		c-0.094,0.286-0.186,0.546-0.27,0.788c-0.562,1.611-0.679,1.946,0.356,3.348c0.116,0.157,0.222,0.312,0.324,0.46
		c0.348,0.508,0.547,0.781,0.934,0.975c0.191,0.096,0.323,0.088,0.627,0.063c0.143-0.013,0.303-0.033,0.476-0.023
		c-0.851-0.631-1.528-1.502-1.321-2.421c0.201-0.891,1.037-1.363,2.485-1.405c1.617-0.052,2.206,0.758,2.602,1.29
		c0.232,0.312,0.346,0.454,0.612,0.545c0.125,0.043,0.216,0.063,0.278,0.073c0.067-0.259,0.072-0.802,0.075-1.115
		c0.004-0.518,0.009-1.053,0.138-1.514c0.599-2.131,1.819-2.346,3.11-2.573l0.411-0.074c0.996-0.191,2.76-1.826,2.814-2.819
		c0.006-0.118,0.02-0.362-0.662-0.571c-0.624-0.193-0.663-0.148-1.121,0.433c-0.305,0.388-0.684,0.871-1.323,1.225
		c-1.081,0.598-2.438,0.544-3.299-0.128c-0.713-0.556-0.977-1.43-0.722-2.395c0.123-0.465,0.571-0.766,1.037-0.743
		c0.472,0.034,1.044-0.27,1.28-0.691c0.155-0.277,0.132-0.538-0.072-0.821c-0.348-0.303-2.057-0.59-2.597-0.42
		c-0.037,0.08-0.083,0.221-0.115,0.321c-0.123,0.381-0.291,0.904-0.78,1.218c-0.804,0.513-2.873,0.428-3.511,0.172
		c-0.741-0.299-1.187-0.954-1.546-1.479c-0.17-0.25-0.404-0.592-0.545-0.672c-0.209-0.12-0.678-0.149-1.055-0.172
		c-0.145-0.009-0.286-0.018-0.419-0.03c-0.495-0.045-0.881-0.448-0.907-0.945c-0.081-1.57-0.18-3.524,2.251-4.617
		c0.83-0.373,1.704-0.45,2.476-0.518c0.479-0.042,0.932-0.082,1.329-0.185c0.554-0.144,0.952-0.402,1.455-0.729
		c0.24-0.155,0.487-0.315,0.761-0.472c2.123-1.212,5.479-2.143,7.834-1.324c1.146,0.398,1.984,1.185,2.424,2.275
		c0.348,0.859,0.431,1.734,0.511,2.58c0.063,0.664,0.123,1.292,0.31,1.813c0.214,0.607,0.55,1.142,0.906,1.708
		c0.505,0.804,1.027,1.636,1.267,2.746l0.064,0.306c0.284,1.36,0.3,1.439,1.264,1.37c0.936-0.072,1.08-0.333,1.188-2.146
		l0.018-0.292c0.034-0.533,0.492-0.929,1.017-0.936c0.237,0.018,0.499-0.067,0.798-0.151c0.516-0.145,1.157-0.324,1.938-0.146
		c0.324,0.075,0.589,0.305,0.709,0.615c0.243,0.633,0.382,1.216,0.424,1.791c0.016,0.008,0.031,0.016,0.048,0.023
		c0.822,0.403,2.748,1.346,1.808,3.553c-0.55,1.293-1.831,1.452-2.767,1.568c-0.285,0.035-0.578,0.069-0.86,0.138
		c-0.756,0.186-1.729,0.582-2.065,1.417c-0.355,0.879,0.113,1.925,0.568,2.647c0.308,0.488,0.575,0.951,0.828,1.389
		c0.99,1.715,1.645,2.849,3.698,3.628l0.287,0.107c1.224,0.458,2.487,0.933,3.524,2.218c0.554,0.688,0.764,1.452,0.949,2.127
		c0.121,0.438,0.234,0.852,0.419,1.119l-1.645,1.137c-0.378-0.547-0.543-1.146-0.702-1.726c-0.147-0.534-0.286-1.038-0.579-1.402
		c-0.692-0.859-1.564-1.186-2.668-1.6l-0.295-0.11c-2.721-1.032-3.647-2.639-4.722-4.499c-0.24-0.417-0.495-0.857-0.787-1.321
		c-1.277-2.024-1.103-3.544-0.731-4.463c0.361-0.894,1.252-2.073,3.443-2.61c0.358-0.088,0.73-0.136,1.092-0.181
		c0.791-0.098,1.087-0.168,1.172-0.366c0.17-0.401,0.196-0.462-0.848-0.974c-0.234-0.115-0.466-0.229-0.672-0.352
		c-0.321-0.19-0.51-0.544-0.488-0.917c0.019-0.326-0.013-0.648-0.099-0.998c-0.127,0.025-0.271,0.064-0.44,0.112
		c-0.131,0.037-0.268,0.075-0.412,0.109c-0.118,1.468-0.507,3.293-2.997,3.484c-2.698,0.211-3.095-1.623-3.373-2.956l-0.062-0.293
		c-0.165-0.765-0.555-1.385-1.005-2.103c-0.398-0.633-0.811-1.288-1.098-2.102c-0.27-0.755-0.344-1.537-0.415-2.294
		c-0.07-0.736-0.136-1.431-0.374-2.02c-0.228-0.563-0.617-0.923-1.227-1.135c-1.611-0.559-4.408,0.157-6.187,1.172
		c-0.239,0.137-0.455,0.277-0.664,0.413c-0.577,0.375-1.173,0.762-2.044,0.988c-0.559,0.144-1.115,0.193-1.653,0.24
		c-0.674,0.06-1.31,0.116-1.832,0.35c-0.858,0.386-1.087,0.777-1.098,1.811c0.462,0.046,0.959,0.14,1.397,0.39
		c0.543,0.308,0.896,0.826,1.208,1.284c0.207,0.303,0.463,0.68,0.641,0.751c0.246,0.074,1.163,0.083,1.593,0.006
		c0.016-0.049,0.031-0.102,0.048-0.154c0.131-0.409,0.312-0.969,0.834-1.337c1.188-0.833,4.573-0.28,5.405,0.883
		c0.66,0.917,0.731,1.998,0.193,2.961c-0.336,0.604-0.882,1.088-1.514,1.387c0.165-0.017,0.341-0.064,0.504-0.154
		c0.284-0.157,0.485-0.413,0.718-0.709c0.533-0.681,1.335-1.711,3.282-1.109c1.962,0.603,2.102,2.012,2.07,2.59
		c-0.107,1.99-2.591,4.321-4.437,4.676l-0.439,0.079c-1.152,0.203-1.273,0.225-1.531,1.145c-0.058,0.204-0.061,0.622-0.064,0.99
		c-0.008,0.959-0.018,2.153-0.9,2.778c-0.539,0.381-1.238,0.429-2.08,0.146c0.667,0.387,1.327,0.707,2.046,0.798
		c0.465,0.06,0.896,0.063,1.313,0.067c1.242,0.013,2.527,0.025,3.87,1.526c0.179,0.201,0.342,0.389,0.495,0.565
		c0.864,0.996,1.298,1.497,2.603,1.957c0.224,0.079,0.446,0.15,0.665,0.22c1.341,0.426,3.178,1.01,3.23,3.375
		c0.051,2.308-1.643,2.848-2.763,3.205c-0.451,0.144-0.877,0.28-1.236,0.493c-0.998,0.596-1.96,1.78-2.511,3.091
		c-1.161,2.763-1.843,4.758-2.117,7.386c-0.039,0.382-0.295,0.708-0.656,0.838C24.228,47.98,24.113,48,24,48z M19.047,26.507
		c0.319,0.469,0.545,1.004,0.67,1.595c0.241,1.142,0.213,2.311,0.186,3.441c-0.013,0.53-0.026,1.059-0.008,1.575
		c0.043,1.276,0.637,2.186,1.389,3.338c0.2,0.306,0.404,0.619,0.605,0.949c0.935,1.537,1.85,3.233,1.881,5.585
		c0.375-1.277,0.87-2.56,1.496-4.048c0.718-1.709,1.963-3.217,3.331-4.033c0.558-0.331,1.139-0.517,1.652-0.681
		c1.196-0.382,1.388-0.498,1.37-1.255c-0.019-0.851-0.364-1.046-1.837-1.514c-0.238-0.076-0.482-0.154-0.726-0.24
		c-1.802-0.637-2.527-1.474-3.446-2.533c-0.147-0.17-0.304-0.35-0.476-0.542c-0.754-0.843-1.304-0.849-2.398-0.859
		c-0.453-0.004-0.965-0.009-1.547-0.083C20.392,27.1,19.694,26.835,19.047,26.507z M16.59,22.701
		c0.195,0.176,0.474,0.381,0.83,0.562c0.302,0.154,0.596,0.323,0.886,0.497c-0.208-0.203-0.364-0.411-0.497-0.59
		c-0.301-0.405-0.365-0.5-0.94-0.485C16.764,22.688,16.671,22.693,16.59,22.701z"/>
</g>
</svg>
