<?xml version="1.0" encoding="utf-8"?>
<!-- Generator: Adobe Illustrator 16.0.0, SVG Export Plug-In . SVG Version: 6.00 Build 0)  -->
<!DOCTYPE svg PUBLIC "-//W3C//DTD SVG 1.1//EN" "http://www.w3.org/Graphics/SVG/1.1/DTD/svg11.dtd">
<svg version="1.1" id="Layer_1" xmlns="http://www.w3.org/2000/svg" xmlns:xlink="http://www.w3.org/1999/xlink" x="0px" y="0px"
	 width="48px" height="48px" viewBox="0 0 48 48" enable-background="new 0 0 48 48" xml:space="preserve">
<g>
	<g>
		<path d="M22.466,29.109c-0.264,0-0.519-0.104-0.707-0.293l-10.96-10.962c-0.213-0.213-0.319-0.511-0.288-0.811
			c0.031-0.3,0.196-0.57,0.449-0.734L26.517,6.168c0.394-0.258,0.917-0.205,1.253,0.131l5.545,5.546
			c0.334,0.334,0.389,0.857,0.131,1.253L23.304,28.655c-0.165,0.253-0.435,0.418-0.734,0.448
			C22.535,29.107,22.5,29.109,22.466,29.109z M13.084,17.312l9.217,9.219l9.026-13.845l-4.398-4.398L13.084,17.312z"/>
		<path d="M20.778,32.039c-0.265,0-0.52-0.105-0.707-0.293L7.868,19.547c-0.188-0.188-0.293-0.442-0.293-0.707
			s0.105-0.52,0.293-0.707l2.312-2.313c0.391-0.391,1.023-0.391,1.414,0L23.797,28.02c0.391,0.391,0.391,1.023,0,1.414l-2.312,2.313
			C21.298,31.934,21.044,32.039,20.778,32.039z M9.989,18.84l10.789,10.785l0.898-0.898L10.887,17.942L9.989,18.84z"/>
		<path d="M32.147,13.091c-0.256,0-0.512-0.098-0.707-0.293l-4.622-4.621c-0.391-0.39-0.391-1.023,0-1.414l3.143-3.145
			c0.375-0.375,1.038-0.375,1.414,0l4.623,4.621c0.188,0.188,0.293,0.442,0.293,0.707s-0.105,0.52-0.293,0.707l-3.144,3.144
			C32.659,12.993,32.403,13.091,32.147,13.091z M28.939,7.47l3.208,3.207l1.729-1.73L30.668,5.74L28.939,7.47z"/>
		<path d="M35.288,9.947c-0.259,0-0.515-0.101-0.707-0.293L29.96,5.033c-0.316-0.316-0.384-0.803-0.167-1.193l1.851-3.326
			c0.152-0.274,0.425-0.46,0.735-0.504c0.315-0.044,0.625,0.062,0.846,0.283l6.098,6.098c0.222,0.222,0.327,0.535,0.283,0.846
			c-0.043,0.311-0.23,0.583-0.505,0.735l-3.327,1.849C35.621,9.906,35.454,9.947,35.288,9.947z M31.908,4.153l3.554,3.553
			l1.509-0.838l-4.224-4.224L31.908,4.153z"/>
	</g>
	<path d="M41.059,48H13.354c-0.552,0-1-0.447-1-1v-5.646c0-0.553,0.448-1,1-1h11.729c0.463-0.007,4.585-0.245,4.585-6.438
		c0-1.633-0.561-2.968-1.668-3.969c-1.708-1.546-4.163-1.854-4.813-1.794l-0.199-1.99c1.072-0.109,4.167,0.322,6.355,2.301
		c1.521,1.377,2.325,3.262,2.325,5.452c0,8.342-6.52,8.438-6.585,8.438H14.354V46h25.705v-2.958h-6.713
		c-0.43,0-0.811-0.274-0.948-0.682c-0.137-0.406,0.002-0.855,0.344-1.115c2.697-2.046,4.556-6.035,4.624-9.929
		c0.061-3.428-1.249-6.409-3.687-8.396c-4.041-3.292-3.295-8.458-3.261-8.677l1.977,0.306l-0.988-0.153l0.988,0.15
		c-0.025,0.173-0.591,4.267,2.548,6.824c2.923,2.383,4.494,5.927,4.423,9.982c-0.063,3.586-1.4,7.15-3.539,9.69h5.232
		c0.553,0,1,0.447,1,1V47C42.059,47.553,41.611,48,41.059,48z"/>
	<path d="M28.291,40.715c-6.983,0-8.907-3.1-9.435-4.719H6.941v-2h12.715c0.533,0,0.973,0.418,0.999,0.951
		c0.012,0.145,0.36,3.922,8.059,3.764l0.037,2C28.596,40.714,28.442,40.715,28.291,40.715z"/>
</g>
</svg>
