<?xml version="1.0" encoding="utf-8"?>
<!-- Generator: Adobe Illustrator 16.0.0, SVG Export Plug-In . SVG Version: 6.00 Build 0)  -->
<!DOCTYPE svg PUBLIC "-//W3C//DTD SVG 1.1//EN" "http://www.w3.org/Graphics/SVG/1.1/DTD/svg11.dtd">
<svg version="1.1" id="Layer_1" xmlns="http://www.w3.org/2000/svg" xmlns:xlink="http://www.w3.org/1999/xlink" x="0px" y="0px"
	 width="48px" height="48px" viewBox="0 0 48 48" enable-background="new 0 0 48 48" xml:space="preserve">
<g>
	<path d="M44.762,25.001L44.762,25.001L1,24.998c-0.552,0-1-0.448-1-1c0-0.552,0.448-1,1-1l0,0l43.762,0.003c0.553,0,1,0.448,1,1
		C45.762,24.554,45.314,25.001,44.762,25.001z"/>
	<path d="M35.716,35.984c-0.111,0-0.224-0.019-0.334-0.058c-0.521-0.185-0.793-0.756-0.608-1.276
		c0.104-0.292,0.136-0.384,10.789-10.729L35.007,13.736c-0.397-0.384-0.409-1.017-0.025-1.414c0.384-0.398,1.017-0.407,1.414-0.025
		l11.299,10.903C47.89,23.387,48,23.646,48,23.917s-0.109,0.53-0.304,0.719c-4.222,4.099-10.625,10.34-11.184,10.953
		C36.323,35.838,36.027,35.984,35.716,35.984z"/>
</g>
</svg>
