<?xml version="1.0" encoding="utf-8"?>
<!-- Generator: Adobe Illustrator 16.0.0, SVG Export Plug-In . SVG Version: 6.00 Build 0)  -->
<!DOCTYPE svg PUBLIC "-//W3C//DTD SVG 1.1//EN" "http://www.w3.org/Graphics/SVG/1.1/DTD/svg11.dtd">
<svg version="1.1" id="Layer_1" xmlns="http://www.w3.org/2000/svg" xmlns:xlink="http://www.w3.org/1999/xlink" x="0px" y="0px"
	 width="48px" height="48px" viewBox="0 0 48 48" enable-background="new 0 0 48 48" xml:space="preserve">
<g>
	<path d="M23.997,48c-0.552,0-1-0.447-1-1L22.994,3.236c0-0.552,0.448-1,1-1c0.552,0,1,0.448,1,1L24.997,47
		C24.997,47.552,24.55,48,23.997,48z"/>
	<path d="M34.984,13.295c-0.262,0-0.523-0.102-0.72-0.305L24.076,2.438c-10.345,10.656-10.438,10.688-10.733,10.79
		c-0.523,0.18-1.092-0.096-1.272-0.618c-0.146-0.42,0.005-0.87,0.341-1.125c0.616-0.562,6.853-6.961,10.948-11.181
		C23.549,0.109,23.808,0,24.078,0c0,0,0.001,0,0.001,0c0.271,0,0.53,0.11,0.718,0.305L35.704,11.6
		c0.383,0.397,0.372,1.031-0.025,1.414C35.485,13.202,35.234,13.295,34.984,13.295z"/>
</g>
</svg>
