<?xml version="1.0" encoding="utf-8"?>
<!-- Generator: Adobe Illustrator 16.0.0, SVG Export Plug-In . SVG Version: 6.00 Build 0)  -->
<!DOCTYPE svg PUBLIC "-//W3C//DTD SVG 1.1//EN" "http://www.w3.org/Graphics/SVG/1.1/DTD/svg11.dtd">
<svg version="1.1" id="Layer_1" xmlns="http://www.w3.org/2000/svg" xmlns:xlink="http://www.w3.org/1999/xlink" x="0px" y="0px"
	 width="48px" height="48px" viewBox="0 0 48 48" enable-background="new 0 0 48 48" xml:space="preserve">
<g>
	<path d="M24.004,45.76c-0.552,0-1-0.447-1-1L22.999,1c0-0.552,0.448-1,1-1c0.552,0,1,0.448,1,1l0.005,43.76
		C25.004,45.312,24.557,45.76,24.004,45.76z"/>
	<path d="M23.921,48c-0.293,0.018-0.531-0.109-0.72-0.306L12.296,36.396c-0.383-0.397-0.372-1.03,0.025-1.414
		c0.397-0.384,1.03-0.371,1.414,0.025l10.187,10.555C34.269,34.9,34.361,34.869,34.654,34.768c0.522-0.184,1.092,0.095,1.272,0.616
		c0.146,0.42-0.004,0.87-0.339,1.125c-0.613,0.56-6.852,6.964-10.949,11.188C24.45,47.891,24.191,48,23.921,48z"/>
</g>
</svg>
