<?xml version="1.0" encoding="utf-8"?>
<!-- Generator: Adobe Illustrator 16.0.0, SVG Export Plug-In . SVG Version: 6.00 Build 0)  -->
<!DOCTYPE svg PUBLIC "-//W3C//DTD SVG 1.1//EN" "http://www.w3.org/Graphics/SVG/1.1/DTD/svg11.dtd">
<svg version="1.1" id="Layer_1" xmlns="http://www.w3.org/2000/svg" xmlns:xlink="http://www.w3.org/1999/xlink" x="0px" y="0px"
	 width="48px" height="48px" viewBox="0 0 48 48" enable-background="new 0 0 48 48" xml:space="preserve">
<g>
	<g>
		<path d="M45.284,25.002L45.284,25.002l-16.791-0.008c-0.553,0-1-0.448-1-1s0.448-1,1-1l0,0l16.791,0.008c0.553,0,1,0.448,1,1
			S45.836,25.002,45.284,25.002z"/>
		<path d="M38.363,33.361c-0.113,0-0.228-0.019-0.34-0.06c-0.52-0.188-0.788-0.761-0.601-1.28c0.103-0.284,0.124-0.343,8.135-8.082
			l-7.893-7.581c-0.398-0.382-0.411-1.016-0.029-1.414c0.385-0.397,1.017-0.411,1.414-0.028l8.642,8.3
			c0.196,0.188,0.308,0.448,0.308,0.72c0,0.272-0.109,0.532-0.306,0.721c-3.205,3.096-8.072,7.815-8.543,8.321
			C38.961,33.22,38.669,33.361,38.363,33.361z"/>
	</g>
	<path d="M26.361,48H6.545c-3.608,0-6.544-3.027-6.544-6.748V6.75C0.001,3.028,2.937,0,6.545,0h19.816
		c3.608,0,6.545,3.028,6.545,6.75v11.438c0,0.552-0.447,1-1,1s-1-0.448-1-1V6.75c0-2.619-2.039-4.75-4.545-4.75H6.545
		C4.04,2,2.001,4.131,2.001,6.75v34.502C2.001,43.87,4.04,46,6.545,46h19.816c2.506,0,4.545-2.13,4.545-4.748V28.756
		c0-0.553,0.447-1,1-1s1,0.447,1,1v12.496C32.906,44.973,29.97,48,26.361,48z"/>
</g>
</svg>
