<?xml version="1.0" encoding="utf-8"?>
<!-- Generator: Adobe Illustrator 16.0.0, SVG Export Plug-In . SVG Version: 6.00 Build 0)  -->
<!DOCTYPE svg PUBLIC "-//W3C//DTD SVG 1.1//EN" "http://www.w3.org/Graphics/SVG/1.1/DTD/svg11.dtd">
<svg version="1.1" id="Layer_1" xmlns="http://www.w3.org/2000/svg" xmlns:xlink="http://www.w3.org/1999/xlink" x="0px" y="0px"
	 width="48px" height="48px" viewBox="0 0 48 48" enable-background="new 0 0 48 48" xml:space="preserve">
<g>
	<g>
		<path d="M17.56,18.554c-0.256,0-0.512-0.098-0.707-0.293L0.293,1.707c-0.391-0.39-0.391-1.023,0-1.414
			c0.39-0.391,1.023-0.391,1.414,0l16.56,16.554c0.391,0.39,0.391,1.023,0,1.414C18.072,18.457,17.816,18.554,17.56,18.554z"/>
		<path d="M19.311,20.186c-0.005,0-0.01,0-0.015,0C13,20.089,3.437,19.966,2.575,20.003c-0.428,0.058-0.854-0.162-1.044-0.57
			c-0.232-0.501-0.015-1.096,0.486-1.328c0.272-0.125,0.377-0.176,16.276,0.065L18.02,2.456c-0.009-0.552,0.431-1.008,0.982-1.018
			C19.55,1.452,20.01,1.869,20.02,2.42l0.291,16.748c0.004,0.271-0.101,0.532-0.292,0.724
			C19.831,20.081,19.576,20.186,19.311,20.186z"/>
	</g>
	<g>
		<path d="M47,48c-0.256,0-0.512-0.098-0.707-0.293L29.73,31.145c-0.391-0.391-0.391-1.023,0-1.414s1.023-0.391,1.414,0
			l16.563,16.563c0.391,0.391,0.391,1.023,0,1.414C47.512,47.902,47.256,48,47,48z"/>
		<path d="M28.979,46.563c-0.545,0-0.99-0.437-1-0.982l-0.293-16.746c-0.005-0.271,0.101-0.532,0.292-0.724s0.453-0.274,0.723-0.294
			c6.289,0.095,15.842,0.219,16.718,0.178c0.428-0.062,0.841,0.15,1.037,0.547c0.245,0.495,0.042,1.095-0.453,1.34
			c-0.283,0.141-0.383,0.189-16.299-0.049l0.275,15.713c0.01,0.553-0.431,1.008-0.982,1.018
			C28.99,46.563,28.984,46.563,28.979,46.563z"/>
	</g>
</g>
</svg>
