<?xml version="1.0" encoding="utf-8"?>
<!-- Generator: Adobe Illustrator 16.0.0, SVG Export Plug-In . SVG Version: 6.00 Build 0)  -->
<!DOCTYPE svg PUBLIC "-//W3C//DTD SVG 1.1//EN" "http://www.w3.org/Graphics/SVG/1.1/DTD/svg11.dtd">
<svg version="1.1" id="Layer_1" xmlns="http://www.w3.org/2000/svg" xmlns:xlink="http://www.w3.org/1999/xlink" x="0px" y="0px"
	 width="48px" height="48px" viewBox="0 0 48 48" enable-background="new 0 0 48 48" xml:space="preserve">
<g>
	<g>
		<path d="M44.766,12.481H1c-0.552,0-1-0.448-1-1s0.448-1,1-1h43.766c0.553,0,1,0.448,1,1S45.318,12.481,44.766,12.481z"/>
		<path d="M35.701,22.957c-0.27,0-0.538-0.108-0.735-0.323c-0.374-0.406-0.349-1.039,0.058-1.413l10.503-9.669
			C34.929,1.738,34.891,1.642,34.783,1.369c-0.203-0.514,0.049-1.095,0.563-1.298c0.416-0.164,0.88-0.03,1.147,0.304
			c0.563,0.586,6.965,6.537,11.187,10.445C47.884,11.01,48,11.276,48,11.556c0,0.279-0.117,0.545-0.322,0.734L36.379,22.693
			C36.187,22.87,35.943,22.957,35.701,22.957z"/>
	</g>
	<g>
		<path d="M3.238,37.521c-0.552,0-1-0.447-1-1c0-0.552,0.448-1,1-1L47,35.518c0.552,0,1,0.447,1,1c0,0.552-0.447,1-1,1L3.238,37.521
			z"/>
		<path d="M12.286,47.999c-0.302,0-0.591-0.138-0.781-0.375c-0.565-0.588-6.965-6.54-11.185-10.449C0.116,36.985,0,36.719,0,36.439
			c0-0.278,0.117-0.545,0.323-0.733l11.299-10.404c0.406-0.374,1.039-0.348,1.413,0.058c0.374,0.406,0.348,1.039-0.059,1.413
			L2.474,36.443c10.606,9.826,10.638,9.91,10.748,10.203c0.195,0.517-0.066,1.093-0.583,1.288
			C12.523,47.979,12.404,47.999,12.286,47.999z"/>
	</g>
</g>
</svg>
