<?xml version="1.0" encoding="utf-8"?>
<!-- Generator: Adobe Illustrator 16.0.0, SVG Export Plug-In . SVG Version: 6.00 Build 0)  -->
<!DOCTYPE svg PUBLIC "-//W3C//DTD SVG 1.1//EN" "http://www.w3.org/Graphics/SVG/1.1/DTD/svg11.dtd">
<svg version="1.1" id="Layer_1" xmlns="http://www.w3.org/2000/svg" xmlns:xlink="http://www.w3.org/1999/xlink" x="0px" y="0px"
	 width="48px" height="48px" viewBox="0 0 48 48" enable-background="new 0 0 48 48" xml:space="preserve">
<g>
	<g>
		<path d="M16.386,25.004H1.001c-0.552,0-1-0.447-1-1c0-0.552,0.448-1,1-1h15.385c0.552,0,1,0.448,1,1
			C17.386,24.557,16.938,25.004,16.386,25.004z"/>
		<path d="M11.157,31.4c-0.27,0-0.539-0.108-0.736-0.322c-0.375-0.406-0.348-1.039,0.058-1.413l6.102-5.621
			c-6.228-5.772-6.238-5.798-6.349-6.076c-0.204-0.513,0.046-1.095,0.56-1.299c0.411-0.164,0.865-0.036,1.135,0.285
			c0.408,0.415,4.365,4.095,6.808,6.358c0.205,0.189,0.321,0.456,0.32,0.735s-0.117,0.545-0.323,0.734l-6.898,6.354
			C11.642,31.313,11.399,31.4,11.157,31.4z"/>
		<path d="M1.001,48c-0.552,0-1-0.447-1-1V1c0-0.552,0.448-1,1-1s1,0.448,1,1v46C2.001,47.553,1.553,48,1.001,48z"/>
	</g>
	<g>
		<path d="M46.999,25.004H31.611c-0.553,0-1-0.447-1-1c0-0.552,0.447-1,1-1h15.388c0.553,0,1,0.448,1,1
			C47.999,24.557,47.552,25.004,46.999,25.004z"/>
		<path d="M36.839,31.398c-0.296,0-0.578-0.132-0.769-0.359c-0.413-0.422-4.364-4.095-6.803-6.353
			c-0.204-0.189-0.32-0.456-0.32-0.735c0-0.279,0.117-0.545,0.322-0.734l6.896-6.354c0.407-0.375,1.039-0.347,1.413,0.058
			c0.374,0.406,0.349,1.039-0.058,1.413l-6.101,5.621c6.234,5.773,6.245,5.802,6.354,6.091c0.195,0.518-0.066,1.094-0.583,1.288
			C37.075,31.378,36.956,31.398,36.839,31.398z"/>
		<path d="M46.999,48c-0.553,0-1-0.447-1-1V1c0-0.552,0.447-1,1-1s1,0.448,1,1v46C47.999,47.553,47.552,48,46.999,48z"/>
	</g>
</g>
</svg>
