<?xml version="1.0" encoding="utf-8"?>
<!-- Generator: Adobe Illustrator 16.0.0, SVG Export Plug-In . SVG Version: 6.00 Build 0)  -->
<!DOCTYPE svg PUBLIC "-//W3C//DTD SVG 1.1//EN" "http://www.w3.org/Graphics/SVG/1.1/DTD/svg11.dtd">
<svg version="1.1" id="Layer_1" xmlns="http://www.w3.org/2000/svg" xmlns:xlink="http://www.w3.org/1999/xlink" x="0px" y="0px"
	 width="48px" height="48px" viewBox="0 0 48 48" enable-background="new 0 0 48 48" xml:space="preserve">
<g>
	<path d="M10.61,34.607C4.76,34.607,0,29.85,0,24.001c0-5.85,4.76-10.609,10.61-10.609c2.721,0,6.267,2.07,10.539,6.154
		c0.399,0.382,0.414,1.015,0.032,1.414c-0.383,0.399-1.015,0.414-1.414,0.032c-3.778-3.611-7.03-5.6-9.157-5.6
		c-4.748,0-8.61,3.862-8.61,8.609c0,4.746,3.862,8.606,8.61,8.606c3.965,0,10.459-6.678,12.627-9.25
		c0.356-0.422,0.986-0.477,1.409-0.121c0.422,0.355,0.477,0.986,0.12,1.409C23.908,25.665,16.217,34.607,10.61,34.607z"/>
	<path d="M37.393,34.607c-2.863,0-6.625-2.28-11.181-6.776c-0.394-0.388-0.397-1.021-0.01-1.414c0.391-0.394,1.022-0.397,1.414-0.01
		c4.052,3.998,7.523,6.2,9.776,6.2c4.746,0,8.607-3.86,8.607-8.606c0-4.747-3.861-8.609-8.607-8.609
		c-3.974,0-10.464,6.679-12.629,9.252c-0.357,0.423-0.987,0.477-1.41,0.122c-0.422-0.356-0.477-0.987-0.121-1.41
		c0.858-1.02,8.546-9.965,14.16-9.965C43.241,13.392,48,18.151,48,24.001C48,29.85,43.241,34.607,37.393,34.607z"/>
</g>
</svg>
