<?xml version="1.0" encoding="utf-8"?>
<!-- Generator: Adobe Illustrator 16.0.0, SVG Export Plug-In . SVG Version: 6.00 Build 0)  -->
<!DOCTYPE svg PUBLIC "-//W3C//DTD SVG 1.1//EN" "http://www.w3.org/Graphics/SVG/1.1/DTD/svg11.dtd">
<svg version="1.1" id="Layer_1" xmlns="http://www.w3.org/2000/svg" xmlns:xlink="http://www.w3.org/1999/xlink" x="0px" y="0px"
	 width="48px" height="48px" viewBox="0 0 48 48" enable-background="new 0 0 48 48" xml:space="preserve">
<g>
	<g>
		<path d="M44.06,19.574c-0.444,0-0.85-0.298-0.967-0.748C40.866,10.282,33.14,4.315,24.302,4.315
			c-8.595,0-16.058,5.514-18.571,13.72c-0.162,0.528-0.72,0.824-1.249,0.663c-0.528-0.162-0.825-0.721-0.663-1.249
			C6.59,8.397,14.822,2.315,24.302,2.315c9.748,0,18.271,6.583,20.727,16.007c0.14,0.534-0.182,1.081-0.716,1.22
			C44.229,19.564,44.144,19.574,44.06,19.574z"/>
		<path d="M4.224,20.021c-0.126,0-0.253-0.024-0.373-0.072c-0.254-0.102-0.455-0.303-0.556-0.557l-3.224-8.077
			c-0.205-0.513,0.045-1.095,0.558-1.299c0.514-0.205,1.095,0.045,1.299,0.558l2.835,7.104l6.923-3.15
			c0.502-0.229,1.096-0.007,1.324,0.496c0.229,0.502,0.007,1.096-0.496,1.324l-7.877,3.584C4.507,19.991,4.366,20.021,4.224,20.021z
			"/>
	</g>
	<g>
		<path d="M23.698,45.686c-9.751,0-18.275-6.58-20.727-16.002c-0.139-0.534,0.182-1.081,0.716-1.22
			c0.538-0.136,1.081,0.182,1.22,0.716c2.223,8.541,9.95,14.506,18.792,14.506c8.59,0,16.055-5.512,18.574-13.716
			c0.162-0.526,0.721-0.825,1.25-0.662c0.527,0.162,0.824,0.722,0.662,1.25C41.405,39.606,33.172,45.686,23.698,45.686z"/>
		<path d="M47,38.064c-0.397,0-0.772-0.238-0.929-0.63l-2.833-7.107l-6.928,3.149c-0.507,0.232-1.097,0.005-1.324-0.496
			c-0.229-0.503-0.007-1.096,0.496-1.324l7.883-3.584c0.249-0.113,0.532-0.12,0.787-0.018c0.254,0.102,0.455,0.304,0.556,0.558
			l3.221,8.082c0.205,0.513-0.046,1.095-0.559,1.299C47.249,38.042,47.123,38.064,47,38.064z"/>
	</g>
</g>
</svg>
