<?xml version="1.0" encoding="utf-8"?>
<!-- Generator: Adobe Illustrator 16.0.0, SVG Export Plug-In . SVG Version: 6.00 Build 0)  -->
<!DOCTYPE svg PUBLIC "-//W3C//DTD SVG 1.1//EN" "http://www.w3.org/Graphics/SVG/1.1/DTD/svg11.dtd">
<svg version="1.1" id="Layer_1" xmlns="http://www.w3.org/2000/svg" xmlns:xlink="http://www.w3.org/1999/xlink" x="0px" y="0px"
	 width="48px" height="48px" viewBox="0 0 48 48" enable-background="new 0 0 48 48" xml:space="preserve">
<g>
	<path d="M46.999,41.842c-0.484,0-0.909-0.352-0.987-0.845l-1.295-8.226l-8.125,1.666c-0.545,0.109-1.07-0.238-1.181-0.778
		c-0.111-0.541,0.237-1.07,0.778-1.181l9.151-1.876c0.269-0.056,0.547,0.002,0.771,0.157c0.225,0.156,0.376,0.396,0.419,0.667
		l1.458,9.26c0.086,0.545-0.287,1.058-0.833,1.144C47.103,41.838,47.051,41.842,46.999,41.842z"/>
	<path d="M23.322,47.33C10.462,47.33,0,36.864,0,24S10.462,0.67,23.322,0.67c8.726,0,16.657,4.808,20.698,12.548
		c0.255,0.49,0.065,1.094-0.424,1.35c-0.489,0.257-1.094,0.065-1.35-0.424C38.552,7.066,31.301,2.67,23.322,2.67
		C11.565,2.67,2,12.239,2,24c0,11.762,9.565,21.33,21.322,21.33c8.59,0,16.305-5.115,19.654-13.032
		c0.215-0.509,0.802-0.747,1.311-0.531c0.509,0.215,0.746,0.802,0.531,1.311C41.155,41.735,32.718,47.33,23.322,47.33z"/>
</g>
</svg>
