<?xml version="1.0" encoding="utf-8"?>
<!-- Generator: Adobe Illustrator 16.0.0, SVG Export Plug-In . SVG Version: 6.00 Build 0)  -->
<!DOCTYPE svg PUBLIC "-//W3C//DTD SVG 1.1//EN" "http://www.w3.org/Graphics/SVG/1.1/DTD/svg11.dtd">
<svg version="1.1" id="Layer_1" xmlns="http://www.w3.org/2000/svg" xmlns:xlink="http://www.w3.org/1999/xlink" x="0px" y="0px"
	 width="48px" height="48px" viewBox="0 0 48 48" enable-background="new 0 0 48 48" xml:space="preserve">
<g>
	<path d="M37.363,21.991c-0.27,0-0.538-0.108-0.735-0.322c-0.374-0.406-0.349-1.039,0.058-1.413l8.841-8.148
		c-8.966-8.313-8.988-8.376-9.096-8.685c-0.182-0.521,0.094-1.092,0.615-1.273c0.412-0.145,0.853-0.003,1.109,0.319
		c0.519,0.54,5.948,5.594,9.524,8.908c0.205,0.189,0.32,0.456,0.32,0.735s-0.117,0.545-0.322,0.734l-9.637,8.881
		C37.849,21.904,37.605,21.991,37.363,21.991z"/>
	<path d="M37.363,45.906c-0.27,0-0.538-0.108-0.735-0.322c-0.374-0.406-0.349-1.039,0.058-1.413l8.841-8.142
		c-8.963-8.312-8.985-8.373-9.093-8.676c-0.187-0.52,0.085-1.092,0.605-1.277c0.409-0.149,0.854-0.009,1.114,0.313
		c0.515,0.533,5.947,5.592,9.526,8.909c0.205,0.189,0.32,0.456,0.32,0.735c0,0.278-0.117,0.545-0.322,0.733l-9.637,8.874
		C37.849,45.818,37.605,45.906,37.363,45.906z"/>
	<g>
		<path d="M19.655,25.003c-0.142,0-0.286-0.03-0.423-0.094c-0.5-0.234-0.716-0.828-0.482-1.328
			c0.059-0.125,6.02-12.537,20.746-12.537h6.268c0.553,0,1,0.448,1,1s-0.447,1-1,1h-6.268c-13.426,0-18.716,10.919-18.934,11.384
			C20.392,24.79,20.031,25.003,19.655,25.003z"/>
		<path d="M45.764,36.963h-6.268c-13.861,0-19.263-9.363-20.493-11.958H1c-0.552,0-1-0.447-1-1c0-0.552,0.448-1,1-1h18.656
			c0.42,0,0.796,0.263,0.94,0.658c0.169,0.459,4.332,11.3,18.9,11.3h6.268c0.553,0,1,0.447,1,1S46.316,36.963,45.764,36.963z"/>
	</g>
</g>
</svg>
