<?xml version="1.0" encoding="utf-8"?>
<!-- Generator: Adobe Illustrator 16.0.0, SVG Export Plug-In . SVG Version: 6.00 Build 0)  -->
<!DOCTYPE svg PUBLIC "-//W3C//DTD SVG 1.1//EN" "http://www.w3.org/Graphics/SVG/1.1/DTD/svg11.dtd">
<svg version="1.1" id="Layer_1" xmlns="http://www.w3.org/2000/svg" xmlns:xlink="http://www.w3.org/1999/xlink" x="0px" y="0px"
	 width="48px" height="48px" viewBox="0 0 48 48" enable-background="new 0 0 48 48" xml:space="preserve">
<g>
	<path d="M37.674,22.088c-0.27,0-0.539-0.108-0.736-0.323c-0.373-0.407-0.348-1.039,0.06-1.413l8.528-7.849
		c-8.662-8.026-8.684-8.09-8.788-8.406c-0.175-0.524,0.108-1.09,0.632-1.265c0.413-0.139,0.845,0.006,1.1,0.326
		c0.515,0.537,5.759,5.417,9.211,8.613c0.204,0.19,0.32,0.457,0.32,0.735c0,0.279-0.117,0.545-0.323,0.734l-9.326,8.582
		C38.159,22,37.916,22.088,37.674,22.088z"/>
	<path d="M37.674,45.219c-0.27,0-0.539-0.108-0.736-0.323c-0.373-0.406-0.348-1.039,0.06-1.413l8.529-7.849
		c-8.655-8.02-8.675-8.075-8.784-8.383c-0.184-0.521,0.09-1.092,0.61-1.276c0.411-0.142,0.853-0.006,1.111,0.314
		c0.505,0.523,5.757,5.41,9.216,8.614c0.205,0.189,0.32,0.456,0.32,0.735c0,0.278-0.117,0.545-0.323,0.734l-9.326,8.582
		C38.159,45.132,37.916,45.219,37.674,45.219z"/>
	<g>
		<path d="M10.259,36.568H1c-0.552,0-1-0.447-1-1s0.448-1,1-1h9.259c2.718,0,6.538-1.91,8.342-4.171l11.231-14.041
			c2.205-2.758,6.556-4.919,9.904-4.919h6.062c0.553,0,1,0.448,1,1s-0.447,1-1,1h-6.062c-2.716,0-6.536,1.909-8.342,4.168
			L20.164,31.646C17.961,34.406,13.61,36.568,10.259,36.568z"/>
		<path d="M45.798,36.568h-6.062c-3.35,0-7.7-2.162-9.904-4.923l-11.23-14.04c-1.805-2.26-5.626-4.168-8.343-4.168H1
			c-0.552,0-1-0.448-1-1s0.448-1,1-1h9.259c3.351,0,7.702,2.161,9.905,4.92l11.23,14.04c1.806,2.262,5.626,4.172,8.342,4.172h6.062
			c0.553,0,1,0.447,1,1S46.351,36.568,45.798,36.568z"/>
	</g>
</g>
</svg>
