<?xml version="1.0" encoding="utf-8"?>
<!-- Generator: Adobe Illustrator 16.0.0, SVG Export Plug-In . SVG Version: 6.00 Build 0)  -->
<!DOCTYPE svg PUBLIC "-//W3C//DTD SVG 1.1//EN" "http://www.w3.org/Graphics/SVG/1.1/DTD/svg11.dtd">
<svg version="1.1" id="Layer_1" xmlns="http://www.w3.org/2000/svg" xmlns:xlink="http://www.w3.org/1999/xlink" x="0px" y="0px"
	 width="48px" height="48px" viewBox="0 0 48 48" enable-background="new 0 0 48 48" xml:space="preserve">
<g>
	<path d="M24,48C10.767,48,0,37.233,0,24S10.767,0,24,0s24,10.767,24,24S37.233,48,24,48z M24,2C11.869,2,2,11.869,2,24
		s9.869,22,22,22s22-9.869,22-22S36.131,2,24,2z"/>
	<path d="M24.001,35.576c-6.383,0-11.576-5.193-11.576-11.576c0-6.383,5.193-11.576,11.576-11.576
		c6.383,0,11.576,5.193,11.576,11.576C35.577,30.383,30.384,35.576,24.001,35.576z M24.001,14.424c-5.28,0-9.576,4.296-9.576,9.576
		s4.296,9.576,9.576,9.576S33.577,29.28,33.577,24S29.281,14.424,24.001,14.424z"/>
</g>
</svg>
