<?xml version="1.0" encoding="utf-8"?>
<!-- Generator: Adobe Illustrator 16.0.0, SVG Export Plug-In . SVG Version: 6.00 Build 0)  -->
<!DOCTYPE svg PUBLIC "-//W3C//DTD SVG 1.1//EN" "http://www.w3.org/Graphics/SVG/1.1/DTD/svg11.dtd">
<svg version="1.1" id="Layer_1" xmlns="http://www.w3.org/2000/svg" xmlns:xlink="http://www.w3.org/1999/xlink" x="0px" y="0px"
	 width="48px" height="48px" viewBox="0 0 48 48" enable-background="new 0 0 48 48" xml:space="preserve">
<g>
	<path d="M24,48C10.767,48,0,37.233,0,24S10.767,0,24,0s24,10.767,24,24S37.233,48,24,48z M24,2C11.869,2,2,11.869,2,24
		s9.869,22,22,22s22-9.869,22-22S36.131,2,24,2z"/>
	<g>
		<path d="M26.068,39.01c-0.129,0-0.259-0.024-0.383-0.076c-0.374-0.154-0.617-0.52-0.617-0.924V9.99
			c0-0.404,0.243-0.769,0.617-0.924c0.374-0.154,0.804-0.069,1.09,0.217l14.011,14.01c0.188,0.188,0.293,0.442,0.293,0.707
			s-0.105,0.52-0.293,0.707l-14.011,14.01C26.584,38.908,26.328,39.01,26.068,39.01z M27.068,12.404v23.191L38.665,24L27.068,12.404
			z"/>
		<path d="M22.93,39.01h-9.905V8.99h9.905V39.01z M15.025,37.01h5.905V10.99h-5.905V37.01z"/>
	</g>
</g>
</svg>
