<?xml version="1.0" encoding="utf-8"?>
<!-- Generator: Adobe Illustrator 16.0.0, SVG Export Plug-In . SVG Version: 6.00 Build 0)  -->
<!DOCTYPE svg PUBLIC "-//W3C//DTD SVG 1.1//EN" "http://www.w3.org/Graphics/SVG/1.1/DTD/svg11.dtd">
<svg version="1.1" id="Layer_1" xmlns="http://www.w3.org/2000/svg" xmlns:xlink="http://www.w3.org/1999/xlink" x="0px" y="0px"
	 width="48px" height="48px" viewBox="0 0 48 48" enable-background="new 0 0 48 48" xml:space="preserve">
<g>
	<path d="M24,48C10.767,48,0,37.233,0,24S10.767,0,24,0s24,10.767,24,24S37.233,48,24,48z M24,2C11.869,2,2,11.869,2,24
		s9.869,22,22,22s22-9.869,22-22S36.131,2,24,2z"/>
	<g>
		<path d="M38.012,23.154H9.99c-0.404,0-0.769-0.244-0.924-0.617c-0.155-0.374-0.069-0.804,0.217-1.09l14.01-14.009
			c0.391-0.391,1.023-0.391,1.414,0l14.012,14.009c0.286,0.286,0.372,0.716,0.217,1.09C38.781,22.91,38.416,23.154,38.012,23.154z
			 M12.405,21.154h23.192L24,9.559L12.405,21.154z"/>
		<path d="M39.012,35.197H8.99v-9.904h30.021V35.197z M10.99,33.197h26.021v-5.904H10.99V33.197z"/>
	</g>
</g>
</svg>
