<?xml version="1.0" encoding="utf-8"?>
<!-- Generator: Adobe Illustrator 16.0.0, SVG Export Plug-In . SVG Version: 6.00 Build 0)  -->
<!DOCTYPE svg PUBLIC "-//W3C//DTD SVG 1.1//EN" "http://www.w3.org/Graphics/SVG/1.1/DTD/svg11.dtd">
<svg version="1.1" id="Layer_1" xmlns="http://www.w3.org/2000/svg" xmlns:xlink="http://www.w3.org/1999/xlink" x="0px" y="0px"
	 width="48px" height="48px" viewBox="0 0 48 48" enable-background="new 0 0 48 48" xml:space="preserve">
<g>
	<path d="M23.999,48C10.766,48,0,37.233,0,24S10.766,0,23.999,0C37.233,0,48,10.767,48,24c0,4.311-1.156,8.538-3.343,12.225
		c-0.283,0.476-0.898,0.632-1.37,0.351c-0.476-0.282-0.632-0.896-0.351-1.37C44.94,31.826,46,27.952,46,24
		c0-12.131-9.869-22-22.001-22C11.869,2,2,11.869,2,24s9.869,22,21.999,22c4.26,0,8.391-1.218,11.948-3.522
		c0.464-0.302,1.083-0.168,1.383,0.295c0.301,0.464,0.168,1.083-0.295,1.383C33.153,46.671,28.646,48,23.999,48z"/>
	<path d="M23.999,39.926c-8.781,0-15.925-7.145-15.925-15.927c0-0.517,0.023-1.03,0.071-1.568c0.049-0.55,0.532-0.955,1.084-0.908
		c0.55,0.049,0.957,0.534,0.908,1.084c-0.041,0.457-0.063,0.916-0.063,1.392c0,7.68,6.247,13.927,13.925,13.927
		c7.68,0,13.927-6.247,13.927-13.927c0-7.678-6.247-13.925-13.927-13.925c-3.72,0-7.219,1.448-9.854,4.079
		c-0.392,0.391-1.024,0.39-1.415-0.001s-0.389-1.024,0.001-1.415c3.013-3.007,7.015-4.663,11.268-4.663
		c8.782,0,15.927,7.144,15.927,15.925C39.926,32.781,32.781,39.926,23.999,39.926z"/>
	<path d="M23.999,31.283c-4.016,0-7.283-3.268-7.283-7.283c0-4.019,3.267-7.289,7.283-7.289c4.015,0,7.28,3.27,7.28,7.289
		C31.279,28.016,28.014,31.283,23.999,31.283z M23.999,18.711c-2.913,0-5.283,2.373-5.283,5.289c0,2.913,2.37,5.283,5.283,5.283
		c2.911,0,5.28-2.37,5.28-5.283C29.279,21.083,26.91,18.711,23.999,18.711z"/>
	<path d="M10.912,23.255c-3.224,0-5.846-2.62-5.846-5.84c0-3.225,2.623-5.848,5.846-5.848c3.223,0,5.846,2.624,5.846,5.848
		C16.758,20.635,14.135,23.255,10.912,23.255z M10.912,13.567c-2.121,0-3.846,1.726-3.846,3.848c0,2.117,1.726,3.84,3.846,3.84
		s3.846-1.723,3.846-3.84C14.758,15.293,13.033,13.567,10.912,13.567z"/>
	<path d="M40.691,45.902c-3.223,0-5.844-2.622-5.844-5.846c0-3.222,2.621-5.843,5.844-5.843s5.844,2.621,5.844,5.843
		C46.535,43.28,43.914,45.902,40.691,45.902z M40.691,36.214c-2.119,0-3.844,1.724-3.844,3.843c0,2.12,1.725,3.846,3.844,3.846
		s3.844-1.726,3.844-3.846C44.535,37.938,42.811,36.214,40.691,36.214z"/>
</g>
</svg>
