<?xml version="1.0" encoding="utf-8"?>
<!-- Generator: Adobe Illustrator 16.0.0, SVG Export Plug-In . SVG Version: 6.00 Build 0)  -->
<!DOCTYPE svg PUBLIC "-//W3C//DTD SVG 1.1//EN" "http://www.w3.org/Graphics/SVG/1.1/DTD/svg11.dtd">
<svg version="1.1" id="Layer_1" xmlns="http://www.w3.org/2000/svg" xmlns:xlink="http://www.w3.org/1999/xlink" x="0px" y="0px"
	 width="48px" height="48px" viewBox="0 0 48 48" enable-background="new 0 0 48 48" xml:space="preserve">
<g>
	<g>
		<path d="M42.634,18.857H29.083c-0.553,0-1-0.448-1-1V6.229c0-0.552,0.447-1,1-1h13.551c0.305,0,0.594,0.139,0.783,0.378l4.366,5.5
			c0.277,0.349,0.29,0.839,0.031,1.202l-4.366,6.128C43.261,18.701,42.957,18.857,42.634,18.857z M30.083,16.857h12.035l3.631-5.095
			L42.15,7.229H30.083V16.857z"/>
		<path d="M18.919,18.857H5.366c-0.323,0-0.627-0.156-0.814-0.42l-4.366-6.128c-0.258-0.363-0.246-0.853,0.031-1.202l4.366-5.5
			c0.189-0.239,0.478-0.378,0.783-0.378h13.553c0.552,0,1,0.448,1,1v11.628C19.919,18.409,19.471,18.857,18.919,18.857z
			 M5.881,16.857h12.038V7.229H5.849l-3.598,4.533L5.881,16.857z"/>
	</g>
	<path d="M24,48c-0.552,0-1-0.447-1-1V1c0-0.552,0.448-1,1-1c0.553,0,1,0.448,1,1v46C25,47.553,24.553,48,24,48z"/>
	<path d="M32.465,48H15.531c-0.552,0-1-0.447-1-1s0.448-1,1-1h16.934c0.553,0,1,0.447,1,1S33.018,48,32.465,48z"/>
</g>
</svg>
