<?xml version="1.0" encoding="utf-8"?>
<!-- Generator: Adobe Illustrator 16.0.0, SVG Export Plug-In . SVG Version: 6.00 Build 0)  -->
<!DOCTYPE svg PUBLIC "-//W3C//DTD SVG 1.1//EN" "http://www.w3.org/Graphics/SVG/1.1/DTD/svg11.dtd">
<svg version="1.1" id="Layer_1" xmlns="http://www.w3.org/2000/svg" xmlns:xlink="http://www.w3.org/1999/xlink" x="0px" y="0px"
	 width="48px" height="48px" viewBox="0 0 48 48" enable-background="new 0 0 48 48" xml:space="preserve">
<g>
	<path d="M24.136,31.254c-6.632,0-12.027-5.396-12.027-12.027c0-6.632,5.395-12.027,12.027-12.027s12.027,5.395,12.027,12.027
		C36.163,25.858,30.768,31.254,24.136,31.254z M24.136,9.2c-5.529,0-10.027,4.498-10.027,10.027s4.498,10.027,10.027,10.027
		c5.529,0,10.027-4.498,10.027-10.027S29.665,9.2,24.136,9.2z"/>
	<path d="M24.14,38.456c-10.605,0-19.233-8.626-19.233-19.229C4.907,8.625,13.536,0,24.141,0c10.598,0,19.22,8.625,19.22,19.227
		C43.361,29.83,34.738,38.456,24.14,38.456z M24.141,2C14.638,2,6.907,9.728,6.907,19.227c0,9.5,7.73,17.229,17.233,17.229
		c9.496,0,17.221-7.729,17.221-17.229C41.361,9.728,33.637,2,24.141,2z"/>
	<path d="M39.238,48c-0.311,0-0.606-0.145-0.797-0.396l-8.073-10.659c-0.334-0.439-0.247-1.067,0.193-1.4l7.731-5.858
		c0.212-0.161,0.476-0.234,0.74-0.193c0.263,0.036,0.5,0.175,0.66,0.387l8.07,10.658c0.222,0.292,0.266,0.682,0.114,1.016
		s-0.473,0.559-0.839,0.585l-5.116,0.373l-1.744,4.829c-0.124,0.345-0.428,0.594-0.79,0.648C39.338,47.996,39.288,48,39.238,48z
		 M32.565,36.534l6.358,8.394l1.339-3.707c0.134-0.371,0.474-0.629,0.868-0.657l3.928-0.286l-6.355-8.394L32.565,36.534z"/>
	<path d="M8.766,48c-0.05,0-0.1-0.004-0.15-0.012c-0.362-0.055-0.666-0.304-0.79-0.648l-1.745-4.829l-5.12-0.373
		c-0.366-0.026-0.688-0.251-0.838-0.585s-0.107-0.724,0.114-1.017l8.078-10.658c0.16-0.211,0.398-0.35,0.661-0.386
		c0.261-0.04,0.528,0.032,0.74,0.193l7.729,5.858c0.44,0.333,0.526,0.961,0.193,1.4L9.563,47.604C9.373,47.855,9.076,48,8.766,48z
		 M2.943,40.277l3.93,0.286c0.394,0.028,0.733,0.286,0.868,0.657l1.34,3.708l6.359-8.395l-6.135-4.65L2.943,40.277z"/>
</g>
</svg>
