<?xml version="1.0" encoding="utf-8"?>
<!-- Generator: Adobe Illustrator 16.0.0, SVG Export Plug-In . SVG Version: 6.00 Build 0)  -->
<!DOCTYPE svg PUBLIC "-//W3C//DTD SVG 1.1//EN" "http://www.w3.org/Graphics/SVG/1.1/DTD/svg11.dtd">
<svg version="1.1" id="Layer_1" xmlns="http://www.w3.org/2000/svg" xmlns:xlink="http://www.w3.org/1999/xlink" x="0px" y="0px"
	 width="48px" height="48px" viewBox="0 0 48 48" enable-background="new 0 0 48 48" xml:space="preserve">
<g>
	<path d="M1,47.462c-0.552,0-1-0.447-1-1V1.538c0-0.552,0.448-1,1-1s1,0.448,1,1v44.924C2,47.015,1.552,47.462,1,47.462z"/>
	<path d="M12.5,47.462c-0.552,0-1-0.447-1-1V33.165c0-0.553,0.448-1,1-1s1,0.447,1,1v13.297C13.5,47.015,13.052,47.462,12.5,47.462z
		"/>
	<path d="M24,47.462c-0.552,0-1-0.447-1-1V27.415c0-0.553,0.448-1,1-1c0.553,0,1,0.447,1,1v19.047
		C25,47.015,24.553,47.462,24,47.462z"/>
	<path d="M35.503,47.462c-0.553,0-1-0.447-1-1V21.665c0-0.552,0.447-1,1-1s1,0.448,1,1v24.797
		C36.503,47.015,36.056,47.462,35.503,47.462z"/>
	<path d="M47,47.462c-0.553,0-1-0.447-1-1V10.163c0-0.552,0.447-1,1-1s1,0.448,1,1v36.299C48,47.015,47.553,47.462,47,47.462z"/>
	<path d="M19.401,17.448c-0.321,0-0.637-0.154-0.83-0.441c-0.309-0.458-0.188-1.079,0.27-1.388L36.134,3.951
		c0.458-0.309,1.08-0.188,1.389,0.27c0.309,0.458,0.188,1.079-0.27,1.388L19.959,17.277C19.788,17.393,19.593,17.448,19.401,17.448z
		"/>
	<polygon points="17.629,10.895 12.735,20.946 23.887,20.164 	"/>
</g>
</svg>
