<?xml version="1.0" encoding="utf-8"?>
<!-- Generator: Adobe Illustrator 16.0.0, SVG Export Plug-In . SVG Version: 6.00 Build 0)  -->
<!DOCTYPE svg PUBLIC "-//W3C//DTD SVG 1.1//EN" "http://www.w3.org/Graphics/SVG/1.1/DTD/svg11.dtd">
<svg version="1.1" id="Layer_1" xmlns="http://www.w3.org/2000/svg" xmlns:xlink="http://www.w3.org/1999/xlink" x="0px" y="0px"
	 width="48px" height="48px" viewBox="0 0 48 48" enable-background="new 0 0 48 48" xml:space="preserve">
<g>
	<path d="M23.997,48c-12.23,0-22.18-9.953-22.18-22.188c0-8.448,4.922-16.291,12.54-19.981c0.498-0.239,1.096-0.033,1.336,0.464
		c0.241,0.497,0.033,1.095-0.464,1.336C8.19,11.041,3.817,18.008,3.817,25.813C3.817,36.944,12.87,46,23.997,46
		c5.393,0,10.462-2.1,14.273-5.912c3.813-3.813,5.912-8.882,5.911-14.273c0-7.586-4.192-14.461-10.939-17.942
		c-0.491-0.253-0.684-0.856-0.431-1.347c0.254-0.491,0.856-0.684,1.347-0.43c7.416,3.825,12.023,11.381,12.023,19.719
		c0.001,5.926-2.307,11.497-6.496,15.688C35.495,45.692,29.924,48,23.997,48z"/>
	<path d="M24,17.174c-0.552,0-1-0.448-1-1V1c0-0.552,0.448-1,1-1c0.553,0,1,0.448,1,1v15.174C25,16.726,24.553,17.174,24,17.174z"/>
</g>
</svg>
