<?xml version="1.0" encoding="utf-8"?>
<!-- Generator: Adobe Illustrator 16.0.0, SVG Export Plug-In . SVG Version: 6.00 Build 0)  -->
<!DOCTYPE svg PUBLIC "-//W3C//DTD SVG 1.1//EN" "http://www.w3.org/Graphics/SVG/1.1/DTD/svg11.dtd">
<svg version="1.1" id="Layer_1" xmlns="http://www.w3.org/2000/svg" xmlns:xlink="http://www.w3.org/1999/xlink" x="0px" y="0px"
	 width="48px" height="48px" viewBox="0 0 48 48" enable-background="new 0 0 48 48" xml:space="preserve">
<g>
	<path d="M23.992,48c-0.265,0-0.52-0.105-0.707-0.293L0.293,24.709c-0.386-0.386-0.391-1.01-0.011-1.403L22.553,0.304
		C22.741,0.11,23,0,23.271,0H47c0.553,0,1,0.448,1,1v20.496c0,0.248-0.092,0.486-0.258,0.67L24.734,47.67
		c-0.184,0.203-0.442,0.322-0.716,0.33C24.009,48,24,48,23.992,48z M2.403,23.991l21.552,21.558L46,21.112V2H23.695L2.403,23.991z"
		/>
	<path d="M32.451,24.315H15.55c-0.552,0-1-0.448-1-1s0.448-1,1-1h16.901c0.553,0,1,0.448,1,1S33.004,24.315,32.451,24.315z"/>
	<path d="M41.958,7.952c0,1.389-1.126,2.516-2.517,2.516c-1.389,0-2.516-1.127-2.516-2.516c0-1.385,1.127-2.516,2.516-2.516
		C40.832,5.436,41.958,6.566,41.958,7.952"/>
</g>
</svg>
