<?xml version="1.0" encoding="utf-8"?>
<!-- Generator: Adobe Illustrator 16.0.0, SVG Export Plug-In . SVG Version: 6.00 Build 0)  -->
<!DOCTYPE svg PUBLIC "-//W3C//DTD SVG 1.1//EN" "http://www.w3.org/Graphics/SVG/1.1/DTD/svg11.dtd">
<svg version="1.1" id="Layer_1" xmlns="http://www.w3.org/2000/svg" xmlns:xlink="http://www.w3.org/1999/xlink" x="0px" y="0px"
	 width="48px" height="48px" viewBox="0 0 48 48" enable-background="new 0 0 48 48" xml:space="preserve">
<g>
	<path d="M19.767,39.615L19.767,39.615C8.868,39.614,0,30.745,0,19.845C0,8.941,8.868,0.071,19.767,0.071
		c10.902,0,19.772,8.871,19.772,19.774C39.539,30.746,30.669,39.615,19.767,39.615z M19.767,2.071C9.97,2.071,2,10.044,2,19.845
		c0,9.797,7.97,17.769,17.767,17.77c9.799,0,17.772-7.972,17.772-17.77C37.539,10.044,29.566,2.071,19.767,2.071z"/>
	<path d="M47,47.93c-0.256,0-0.512-0.098-0.707-0.293l-13.73-13.73c-0.391-0.391-0.391-1.023,0-1.414s1.023-0.391,1.414,0
		l13.73,13.73c0.391,0.391,0.391,1.023,0,1.414C47.512,47.832,47.256,47.93,47,47.93z"/>
	<path d="M28.037,20.845H11.506c-0.552,0-1-0.448-1-1s0.448-1,1-1h16.531c0.553,0,1,0.448,1,1S28.59,20.845,28.037,20.845z"/>
	<path d="M19.771,29.107c-0.552,0-1-0.447-1-1V11.573c0-0.552,0.448-1,1-1s1,0.448,1,1v16.534
		C20.771,28.66,20.323,29.107,19.771,29.107z"/>
</g>
</svg>
