<?xml version="1.0" encoding="utf-8"?>
<!-- Generator: Adobe Illustrator 16.0.0, SVG Export Plug-In . SVG Version: 6.00 Build 0)  -->
<!DOCTYPE svg PUBLIC "-//W3C//DTD SVG 1.1//EN" "http://www.w3.org/Graphics/SVG/1.1/DTD/svg11.dtd">
<svg version="1.1" id="Layer_1" xmlns="http://www.w3.org/2000/svg" xmlns:xlink="http://www.w3.org/1999/xlink" x="0px" y="0px"
	 width="48px" height="48px" viewBox="0 0 48 48" enable-background="new 0 0 48 48" xml:space="preserve">
<g>
	<path d="M41.249,48H10.875c-0.552,0-1-0.447-1-1s0.448-1,1-1h30.374c2.617,0,4.746-2.131,4.746-4.75V6.754
		C45.995,4.133,43.866,2,41.249,2H10.397c-0.552,0-1-0.448-1-1s0.448-1,1-1h30.852c3.72,0,6.746,3.03,6.746,6.754V41.25
		C47.995,44.972,44.969,48,41.249,48z"/>
	<path d="M28.743,25.004H4.488c-0.552,0-1-0.447-1-1c0-0.552,0.448-1,1-1h24.255c0.553,0,1,0.448,1,1
		C29.743,24.557,29.296,25.004,28.743,25.004z"/>
	<path d="M14.168,38.021c-0.256,0-0.512-0.098-0.707-0.293L0.297,24.559c-0.39-0.39-0.39-1.023,0-1.414L13.461,9.976
		c0.39-0.391,1.023-0.391,1.414,0c0.391,0.39,0.391,1.023,0,1.414L2.419,23.852l12.457,12.462c0.39,0.391,0.39,1.023,0,1.414
		C14.68,37.924,14.424,38.021,14.168,38.021z"/>
</g>
</svg>
