<?xml version="1.0" encoding="utf-8"?>
<!-- Generator: Adobe Illustrator 16.0.0, SVG Export Plug-In . SVG Version: 6.00 Build 0)  -->
<!DOCTYPE svg PUBLIC "-//W3C//DTD SVG 1.1//EN" "http://www.w3.org/Graphics/SVG/1.1/DTD/svg11.dtd">
<svg version="1.1" id="Layer_1" xmlns="http://www.w3.org/2000/svg" xmlns:xlink="http://www.w3.org/1999/xlink" x="0px" y="0px"
	 width="48px" height="48px" viewBox="0 0 48 48" enable-background="new 0 0 48 48" xml:space="preserve">
<g>
	<g>
		<path d="M37.424,48H10.573c-0.552,0-1-0.447-1-1V29.127c0-0.553,0.448-1,1-1h26.851c0.553,0,1,0.447,1,1V47
			C38.424,47.553,37.977,48,37.424,48z M11.573,46h24.851V30.127H11.573V46z"/>
		<path d="M10.573,39.125H7.127c-3.929,0-7.125-3.137-7.125-6.991V16.401c0-3.858,3.196-6.997,7.125-6.997h33.746
			c3.929,0,7.125,3.139,7.125,6.997v15.732c0,3.854-3.196,6.991-7.125,6.991h-3.449c-0.553,0-1-0.447-1-1s0.447-1,1-1h3.449
			c2.826,0,5.125-2.239,5.125-4.991V16.401c0-2.755-2.299-4.997-5.125-4.997H7.127c-2.826,0-5.125,2.242-5.125,4.997v15.733
			c0,2.752,2.299,4.991,5.125,4.991h3.446c0.552,0,1,0.447,1,1S11.125,39.125,10.573,39.125z"/>
		<path d="M36.087,11.405H11.915c-0.552,0-1-0.448-1-1V1c0-0.552,0.448-1,1-1h24.172c0.553,0,1,0.448,1,1v9.405
			C37.087,10.957,36.64,11.405,36.087,11.405z M12.915,9.405h22.172V2H12.915V9.405z"/>
	</g>
	<path d="M16.924,19.84H11.19c-0.552,0-1-0.448-1-1s0.448-1,1-1h5.734c0.552,0,1,0.448,1,1S17.476,19.84,16.924,19.84z"/>
	<path d="M29.357,19.84h-5.731c-0.552,0-1-0.448-1-1s0.448-1,1-1h5.731c0.553,0,1,0.448,1,1S29.91,19.84,29.357,19.84z"/>
</g>
</svg>
