<?xml version="1.0" encoding="utf-8"?>
<!-- Generator: Adobe Illustrator 16.0.0, SVG Export Plug-In . SVG Version: 6.00 Build 0)  -->
<!DOCTYPE svg PUBLIC "-//W3C//DTD SVG 1.1//EN" "http://www.w3.org/Graphics/SVG/1.1/DTD/svg11.dtd">
<svg version="1.1" id="Layer_1" xmlns="http://www.w3.org/2000/svg" xmlns:xlink="http://www.w3.org/1999/xlink" x="0px" y="0px"
	 width="48px" height="48px" viewBox="0 0 48 48" enable-background="new 0 0 48 48" xml:space="preserve">
<g>
	<path d="M29.395,24.004c0,2.973-2.414,5.387-5.388,5.387c-2.981,0-5.398-2.414-5.398-5.387c0-2.984,2.417-5.395,5.398-5.395
		C26.98,18.609,29.395,21.02,29.395,24.004"/>
	<path d="M24.001,38.285c-7.876,0-14.284-6.406-14.284-14.281c0-7.879,6.408-14.29,14.284-14.29c7.877,0,14.285,6.411,14.285,14.29
		C38.286,31.879,31.878,38.285,24.001,38.285z M24.001,11.714c-6.773,0-12.284,5.513-12.284,12.29
		c0,6.771,5.511,12.281,12.284,12.281c6.774,0,12.285-5.51,12.285-12.281C36.286,17.227,30.775,11.714,24.001,11.714z"/>
	<path d="M24.001,48c-13.233,0-24-10.765-24-23.996C0.001,10.768,10.768,0,24.001,0c13.232,0,23.998,10.768,23.998,24.004
		C47.999,37.235,37.233,48,24.001,48z M24.001,2c-12.131,0-22,9.871-22,22.004c0,12.129,9.869,21.996,22,21.996
		c12.13,0,21.998-9.867,21.998-21.996C45.999,11.871,36.131,2,24.001,2z"/>
</g>
</svg>
