<?xml version="1.0" encoding="utf-8"?>
<!-- Generator: Adobe Illustrator 16.0.0, SVG Export Plug-In . SVG Version: 6.00 Build 0)  -->
<!DOCTYPE svg PUBLIC "-//W3C//DTD SVG 1.1//EN" "http://www.w3.org/Graphics/SVG/1.1/DTD/svg11.dtd">
<svg version="1.1" id="Layer_1" xmlns="http://www.w3.org/2000/svg" xmlns:xlink="http://www.w3.org/1999/xlink" x="0px" y="0px"
	 width="48px" height="48px" viewBox="0 0 48 48" enable-background="new 0 0 48 48" xml:space="preserve">
<g>
	<g>
		<path d="M42.75,2C44.542,2,46,3.443,46,5.217v30.861c0,1.773-1.458,3.217-3.25,3.217h-1.806h-2.138l0.143,2.133
			c0.057,0.859-0.093,1.682-0.446,2.461c-0.623-1.364-1.563-2.864-2.966-4.097l-0.565-0.497h-0.754H5.25
			c-1.792,0-3.25-1.443-3.25-3.217V5.217C2,3.443,3.458,2,5.25,2H42.75 M42.75,0H5.25C2.363,0,0,2.348,0,5.217v30.861
			c0,2.867,2.363,5.217,5.25,5.217h28.968C37.167,43.885,37.687,48,37.687,48c2.902-2.363,3.375-4.945,3.258-6.705h1.806
			c2.888,0,5.25-2.35,5.25-5.217V5.217C48,2.348,45.638,0,42.75,0L42.75,0z"/>
	</g>
</g>
</svg>
