<?xml version="1.0" encoding="utf-8"?>
<!-- Generator: Adobe Illustrator 16.0.0, SVG Export Plug-In . SVG Version: 6.00 Build 0)  -->
<!DOCTYPE svg PUBLIC "-//W3C//DTD SVG 1.1//EN" "http://www.w3.org/Graphics/SVG/1.1/DTD/svg11.dtd">
<svg version="1.1" id="Layer_1" xmlns="http://www.w3.org/2000/svg" xmlns:xlink="http://www.w3.org/1999/xlink" x="0px" y="0px"
	 width="48px" height="48px" viewBox="0 0 48 48" enable-background="new 0 0 48 48" xml:space="preserve">
<g>
	<g>
		<path d="M42.75,2C44.542,2,46,3.512,46,5.371v30.238c0,1.856-1.458,3.369-3.25,3.369H28.146H27.27l-0.596,0.646
			c-1.074,1.167-1.967,2.274-2.673,3.319c-0.707-1.045-1.6-2.153-2.676-3.32l-0.594-0.645h-0.876H5.25
			c-1.792,0-3.25-1.513-3.25-3.369V5.371C2,3.512,3.458,2,5.25,2H42.75 M42.75,0H5.25C2.362,0,0,2.417,0,5.371v30.238
			c0,2.953,2.362,5.369,5.25,5.369h14.604C21.515,42.779,23.888,45.73,24,48c0.115-2.27,2.486-5.221,4.146-7.021H42.75
			c2.889,0,5.25-2.416,5.25-5.369V5.371C48,2.417,45.639,0,42.75,0L42.75,0z"/>
	</g>
	<g>
		<rect x="8.409" y="15.914" width="31.182" height="2"/>
		<rect x="8.409" y="9.42" width="31.182" height="2"/>
		<rect x="8.409" y="22.41" width="31.182" height="2"/>
		<rect x="14.938" y="28.904" width="18.125" height="2"/>
	</g>
</g>
</svg>
