<?xml version="1.0" encoding="utf-8"?>
<!-- Generator: Adobe Illustrator 16.0.0, SVG Export Plug-In . SVG Version: 6.00 Build 0)  -->
<!DOCTYPE svg PUBLIC "-//W3C//DTD SVG 1.1//EN" "http://www.w3.org/Graphics/SVG/1.1/DTD/svg11.dtd">
<svg version="1.1" id="Layer_1" xmlns="http://www.w3.org/2000/svg" xmlns:xlink="http://www.w3.org/1999/xlink" x="0px" y="0px"
	 width="48px" height="48px" viewBox="0 0 48 48" enable-background="new 0 0 48 48" xml:space="preserve">
<g>
	<g>
		<path d="M41.805,48h-1.666v-2h1.666C44.118,46,46,44.118,46,41.805h2C48,45.221,45.221,48,41.805,48z M30.314,48h-9.824v-2h9.824
			V48z M10.667,48H6.196c-2.155,0-4.189-1.153-5.309-3.01L2.6,43.957C3.359,45.217,4.737,46,6.196,46h4.471V48z M2,34.786H0v-9.824
			h2V34.786z M48,33.744h-2V23.92h2V33.744z M2,15.138H0V6.196c0-0.352,0.03-0.705,0.089-1.048l1.971,0.34
			C2.02,5.719,2,5.957,2,6.196V15.138z M48,14.096h-2v-7.9c-0.001-0.522-0.097-1.033-0.285-1.515l1.861-0.729
			C47.856,4.666,47.999,5.42,48,6.194V14.096z M38.216,2h-9.824V0h9.824V2z M18.567,2H8.743V0h9.824V2z"/>
	</g>
	<g>
		<rect x="23" y="12.249" width="2" height="23.504"/>
		<polygon points="24,37.167 15.65,28.816 17.064,27.402 24,34.339 30.936,27.402 32.35,28.816 		"/>
	</g>
</g>
</svg>
