<?xml version="1.0" encoding="utf-8"?>
<!-- Generator: Adobe Illustrator 16.0.0, SVG Export Plug-In . SVG Version: 6.00 Build 0)  -->
<!DOCTYPE svg PUBLIC "-//W3C//DTD SVG 1.1//EN" "http://www.w3.org/Graphics/SVG/1.1/DTD/svg11.dtd">
<svg version="1.1" id="Layer_1" xmlns="http://www.w3.org/2000/svg" xmlns:xlink="http://www.w3.org/1999/xlink" x="0px" y="0px"
	 width="48px" height="48px" viewBox="0 0 48 48" enable-background="new 0 0 48 48" xml:space="preserve">
<g>
	<g>
		<g>
			<path d="M39.688,47.261h-6.942v-2h6.942c3.276,0,5.942-2.691,5.942-6V8c0-3.309-2.691-6-6-6H8.37c-3.309,0-6,2.691-6,6v31.261
				c0,3.309,2.666,6,5.943,6h6.943v2H8.313c-4.38,0-7.943-3.589-7.943-8V8c0-4.411,3.589-8,8-8h31.26c4.411,0,8,3.589,8,8v31.261
				C47.63,43.672,44.067,47.261,39.688,47.261z"/>
		</g>
	</g>
	<rect x="16.866" y="16.919" width="14.266" height="2"/>
	<g>
		<rect x="23" y="23.875" width="2" height="23.125"/>
		<polygon points="17.187,32.104 15.773,30.689 24,22.46 32.227,30.689 30.813,32.104 24,25.289 		"/>
	</g>
</g>
</svg>
