<?xml version="1.0" encoding="utf-8"?>
<!-- Generator: Adobe Illustrator 16.0.0, SVG Export Plug-In . SVG Version: 6.00 Build 0)  -->
<!DOCTYPE svg PUBLIC "-//W3C//DTD SVG 1.1//EN" "http://www.w3.org/Graphics/SVG/1.1/DTD/svg11.dtd">
<svg version="1.1" id="Layer_1" xmlns="http://www.w3.org/2000/svg" xmlns:xlink="http://www.w3.org/1999/xlink" x="0px" y="0px"
	 width="48px" height="48px" viewBox="0 0 48 48" enable-background="new 0 0 48 48" xml:space="preserve">
<g>
	<g>
		<path d="M40,48H8c-4.411,0-8-3.589-8-8V8c0-4.411,3.589-8,8-8h14.265v2H8C4.691,2,2,4.691,2,8v32c0,3.309,2.691,6,6,6h32
			c3.309,0,6-2.691,6-6V27.32h2V40C48,44.411,44.411,48,40,48z"/>
	</g>
	<g>
		<polygon points="39.329,18.557 37.915,17.143 44.854,10.207 37.915,3.272 39.329,1.858 47.682,10.207 		"/>
		<path d="M13.287,37.794l-2-0.002c0-0.286,0.433-28.585,34.98-28.585v2C13.692,11.207,13.289,36.709,13.287,37.794z"/>
	</g>
</g>
</svg>
