<?xml version="1.0" encoding="utf-8"?>
<!-- Generator: Adobe Illustrator 16.0.0, SVG Export Plug-In . SVG Version: 6.00 Build 0)  -->
<!DOCTYPE svg PUBLIC "-//W3C//DTD SVG 1.1//EN" "http://www.w3.org/Graphics/SVG/1.1/DTD/svg11.dtd">
<svg version="1.1" id="Layer_1" xmlns="http://www.w3.org/2000/svg" xmlns:xlink="http://www.w3.org/1999/xlink" x="0px" y="0px"
	 width="48px" height="48px" viewBox="0 0 48 48" enable-background="new 0 0 48 48" xml:space="preserve">
<g>
	<g>
		<path d="M40,48H8c-4.411,0-8-3.589-8-8V8c0-4.411,3.589-8,8-8h32c4.411,0,8,3.589,8,8v32C48,44.411,44.411,48,40,48z M8,2
			C4.691,2,2,4.691,2,8v32c0,3.309,2.691,6,6,6h32c3.309,0,6-2.691,6-6V8c0-3.309-2.691-6-6-6H8z"/>
	</g>
	<path d="M3.864,38.565l-1.13-1.65c0.348-0.238,0.566-0.708,0.819-1.252c0.166-0.356,0.337-0.726,0.569-1.078
		c0.28-0.427,0.598-0.812,0.906-1.185c0.251-0.306,0.504-0.609,0.723-0.93c0.684-1.006,1.382-2.133,2.2-3.547
		c0.147-0.254,0.291-0.524,0.438-0.801c0.929-1.743,2.334-4.377,5.431-3.547c1.46,0.395,2.348,1.631,3.061,2.624
		c0.203,0.282,0.4,0.559,0.605,0.806c0.427,0.514,0.881,1.006,1.335,1.498c0.637,0.69,1.294,1.404,1.885,2.18l0.187,0.249
		c1.035,1.384,1.489,1.687,1.688,1.696c0.333-0.08,0.902-1.397,1.09-1.83c0.156-0.36,0.299-0.687,0.433-0.923
		c1.511-2.688,2.963-4.942,4.317-6.704l0.241-0.313c1.087-1.416,2.212-2.88,3.209-4.35l0.167-0.25
		c0.677-1.013,1.519-2.275,2.823-2.819c3.134-1.308,5.924,2.852,8.161,6.195c0.907,1.354,1.764,2.635,2.387,3.17l-1.303,1.518
		c-0.831-0.714-1.719-2.04-2.746-3.575c-1.635-2.443-4.111-6.139-5.729-5.461c-0.746,0.311-1.402,1.293-1.929,2.083l-0.175,0.261
		c-1.031,1.521-2.175,3.008-3.279,4.447l-0.241,0.313c-1.296,1.687-2.695,3.862-4.159,6.467c-0.106,0.188-0.217,0.449-0.341,0.736
		c-0.527,1.22-1.25,2.891-2.748,3.028c-1.504,0.141-2.685-1.443-3.468-2.491l-0.175-0.232c-0.535-0.704-1.132-1.352-1.765-2.037
		c-0.477-0.518-0.955-1.036-1.404-1.577c-0.234-0.281-0.46-0.596-0.691-0.917c-0.609-0.849-1.185-1.65-1.956-1.858
		c-1.406-0.382-2.069,0.534-3.147,2.556c-0.159,0.299-0.315,0.591-0.473,0.862c-0.841,1.456-1.565,2.622-2.276,3.67
		c-0.253,0.371-0.543,0.725-0.834,1.077c-0.286,0.347-0.557,0.675-0.777,1.011c-0.152,0.23-0.285,0.518-0.426,0.821
		C5.038,37.214,4.665,38.017,3.864,38.565z"/>
	<path d="M20.585,18.967c-2.952,0-5.354-2.402-5.354-5.354s2.402-5.354,5.354-5.354c2.953,0,5.354,2.402,5.354,5.354
		S23.538,18.967,20.585,18.967z M20.585,10.259c-1.85,0-3.354,1.504-3.354,3.354s1.504,3.354,3.354,3.354s3.354-1.504,3.354-3.354
		S22.435,10.259,20.585,10.259z"/>
</g>
</svg>
