<?xml version="1.0" encoding="utf-8"?>
<!-- Generator: Adobe Illustrator 16.0.0, SVG Export Plug-In . SVG Version: 6.00 Build 0)  -->
<!DOCTYPE svg PUBLIC "-//W3C//DTD SVG 1.1//EN" "http://www.w3.org/Graphics/SVG/1.1/DTD/svg11.dtd">
<svg version="1.1" id="Layer_1" xmlns="http://www.w3.org/2000/svg" xmlns:xlink="http://www.w3.org/1999/xlink" x="0px" y="0px"
	 width="48px" height="48px" viewBox="0 0 48 48" enable-background="new 0 0 48 48" xml:space="preserve">
<g>
	<g>
		<path d="M40,48H8c-4.411,0-8-3.589-8-8V8c0-4.411,3.589-8,8-8h32c4.411,0,8,3.589,8,8v32C48,44.411,44.411,48,40,48z M8,2
			C4.691,2,2,4.691,2,8v32c0,3.309,2.691,6,6,6h32c3.309,0,6-2.691,6-6V8c0-3.309-2.691-6-6-6H8z"/>
	</g>
	<g>
		<rect x="10.23" y="1" width="2" height="6.609"/>
		<rect x="35.771" y="1" width="2" height="6.609"/>
	</g>
	<path d="M41.564,41.303H6.435V15.512h35.129V41.303z M8.435,39.303h31.129V17.512H8.435V39.303z"/>
	<g>
		<rect x="13.638" y="21.519" width="20.723" height="2"/>
		<rect x="13.638" y="27.406" width="20.723" height="2"/>
		<rect x="13.638" y="33.297" width="11.881" height="2"/>
	</g>
</g>
</svg>
