<?xml version="1.0" encoding="utf-8"?>
<!-- Generator: Adobe Illustrator 16.0.0, SVG Export Plug-In . SVG Version: 6.00 Build 0)  -->
<!DOCTYPE svg PUBLIC "-//W3C//DTD SVG 1.1//EN" "http://www.w3.org/Graphics/SVG/1.1/DTD/svg11.dtd">
<svg version="1.1" id="Layer_1" xmlns="http://www.w3.org/2000/svg" xmlns:xlink="http://www.w3.org/1999/xlink" x="0px" y="0px"
	 width="48px" height="48px" viewBox="0 0 48 48" enable-background="new 0 0 48 48" xml:space="preserve">
<g>
	<g>
		<path d="M40,48H8c-4.411,0-8-3.589-8-8V8c0-4.411,3.589-8,8-8h32c4.411,0,8,3.589,8,8v32C48,44.411,44.411,48,40,48z M8,2
			C4.691,2,2,4.691,2,8v32c0,3.309,2.691,6,6,6h32c3.309,0,6-2.691,6-6V8c0-3.309-2.691-6-6-6H8z"/>
	</g>
	<g>
		<g>
			<path d="M10.599,25v-2c2.06,0,2.517-2.203,2.589-2.66v-9.592c0-1.399,0.433-2.528,1.287-3.354
				c1.412-1.367,3.452-1.315,3.538-1.313l1.287,0v2h-1.32c-0.049-0.001-1.331-0.017-2.123,0.759
				c-0.451,0.441-0.669,1.065-0.669,1.909l-0.008,9.789C14.986,22.081,13.779,25,10.599,25z"/>
			<path d="M17.928,41.924c-0.333,0-2.158-0.063-3.453-1.317c-0.854-0.827-1.287-1.955-1.287-3.354v-9.593
				C13.118,27.213,12.664,25,10.599,25v-2c3.18,0,4.387,2.919,4.581,4.463l0.008,0.125v9.664c0,0.849,0.222,1.477,0.678,1.918
				c0.785,0.761,2.056,0.749,2.082,0.754l1.352-0.001v2h-1.32C17.976,41.923,17.958,41.924,17.928,41.924z"/>
		</g>
		<g>
			<path d="M37.4,25c-3.179,0-4.386-2.919-4.58-4.463l-0.008-0.125v-9.664c0-0.843-0.219-1.467-0.669-1.908
				c-0.796-0.779-2.082-0.758-2.098-0.76l-1.346,0v-2h1.319c0.056-0.005,2.093-0.054,3.506,1.314
				c0.854,0.827,1.287,1.955,1.287,3.354v9.592C34.883,20.787,35.337,23,37.4,23V25z"/>
			<path d="M30.051,41.923c-0.034,0-0.056,0-0.063-0.001L28.7,41.923v-2h1.319c0.034-0.008,1.329,0.017,2.123-0.762
				c0.451-0.441,0.67-1.066,0.67-1.909l0.008-9.789C33.015,25.919,34.222,23,37.4,23v2c-2.059,0-2.516,2.203-2.588,2.66v9.592
				c0,1.398-0.433,2.527-1.287,3.354C32.234,41.857,30.417,41.923,30.051,41.923z"/>
		</g>
	</g>
</g>
</svg>
