<?xml version="1.0" encoding="utf-8"?>
<!-- Generator: Adobe Illustrator 16.0.0, SVG Export Plug-In . SVG Version: 6.00 Build 0)  -->
<!DOCTYPE svg PUBLIC "-//W3C//DTD SVG 1.1//EN" "http://www.w3.org/Graphics/SVG/1.1/DTD/svg11.dtd">
<svg version="1.1" id="Layer_1" xmlns="http://www.w3.org/2000/svg" xmlns:xlink="http://www.w3.org/1999/xlink" x="0px" y="0px"
	 width="48px" height="48px" viewBox="0 0 48 48" enable-background="new 0 0 48 48" xml:space="preserve">
<g>
	<path d="M12.5,47.641C5.607,47.641,0,42.113,0,35.318V1.359h2v33.959c0,5.691,4.71,10.322,10.5,10.322S23,41.01,23,35.318V15.512h2
		v19.806C25,42.113,19.393,47.641,12.5,47.641z"/>
	<path d="M48,46.641h-2V12.682C46,6.99,41.29,2.36,35.5,2.36S25,6.99,25,12.682v19.806h-2V12.682C23,5.888,28.607,0.36,35.5,0.36
		S48,5.888,48,12.682V46.641z"/>
</g>
</svg>
