<?xml version="1.0" encoding="utf-8"?>
<!-- Generator: Adobe Illustrator 16.0.0, SVG Export Plug-In . SVG Version: 6.00 Build 0)  -->
<!DOCTYPE svg PUBLIC "-//W3C//DTD SVG 1.1//EN" "http://www.w3.org/Graphics/SVG/1.1/DTD/svg11.dtd">
<svg version="1.1" id="Layer_1" xmlns="http://www.w3.org/2000/svg" xmlns:xlink="http://www.w3.org/1999/xlink" x="0px" y="0px"
	 width="48px" height="48px" viewBox="0 0 48 48" enable-background="new 0 0 48 48" xml:space="preserve">
<g>
	<path d="M24,47.277c-3.722,0-6.75-3.216-6.75-7.168V12.998h2v27.111c0,2.85,2.131,5.168,4.75,5.168s4.75-2.318,4.75-5.168V12.998h2
		v27.111C30.75,44.062,27.722,47.277,24,47.277z"/>
	<path d="M1,47.277v-2c2.619,0,4.75-2.318,4.75-5.168V12.998h2v27.111C7.75,44.062,4.722,47.277,1,47.277z"/>
	<path d="M47,47.277c-3.722,0-6.75-3.216-6.75-7.168V12.998h2v27.111c0,2.85,2.131,5.168,4.75,5.168V47.277z"/>
	<path d="M42.25,37.878h-2V7.892c0-2.851-2.131-5.17-4.75-5.17s-4.75,2.319-4.75,5.17v29.986h-2V7.892c0-3.954,3.028-7.17,6.75-7.17
		s6.75,3.216,6.75,7.17V37.878z"/>
	<path d="M19.25,37.878h-2V7.892c0-2.851-2.131-5.17-4.75-5.17s-4.75,2.319-4.75,5.17v29.986h-2V7.892c0-3.954,3.028-7.17,6.75-7.17
		s6.75,3.216,6.75,7.17V37.878z"/>
</g>
</svg>
