<?xml version="1.0" encoding="utf-8"?>
<!-- Generator: Adobe Illustrator 16.0.0, SVG Export Plug-In . SVG Version: 6.00 Build 0)  -->
<!DOCTYPE svg PUBLIC "-//W3C//DTD SVG 1.1//EN" "http://www.w3.org/Graphics/SVG/1.1/DTD/svg11.dtd">
<svg version="1.1" id="Layer_1" xmlns="http://www.w3.org/2000/svg" xmlns:xlink="http://www.w3.org/1999/xlink" x="0px" y="0px"
	 width="48px" height="48px" viewBox="0 0 48 48" enable-background="new 0 0 48 48" xml:space="preserve">
<g>
	<g>
		<rect x="-2.412" y="8.307" transform="matrix(0.7071 0.7071 -0.7071 0.7071 9.315 -3.875)" width="23.494" height="2"/>
		<polygon points="2.029,11.804 0.029,11.804 0.029,0 11.832,0 11.832,2 2.029,2 		"/>
	</g>
	<g>
		<rect x="8.335" y="26.948" transform="matrix(0.7071 0.7071 -0.7071 0.7071 30.0952 4.7325)" width="2" height="23.493"/>
		<polygon points="11.832,48 0.029,48 0.029,36.195 2.029,36.195 2.029,46 11.832,46 		"/>
	</g>
	<g>
		<g>
			<rect x="37.665" y="-2.44" transform="matrix(0.7071 0.7071 -0.7071 0.7071 17.9053 -24.6145)" width="2" height="23.493"/>
			<polygon points="47.971,11.804 45.971,11.804 45.971,2 36.168,2 36.168,0 47.971,0 			"/>
		</g>
		<g>
			<rect x="26.919" y="37.694" transform="matrix(0.7071 0.7071 -0.7071 0.7071 38.6858 -16.007)" width="23.492" height="2"/>
			<polygon points="47.971,48 36.168,48 36.168,46 45.971,46 45.971,36.195 47.971,36.195 			"/>
		</g>
	</g>
</g>
</svg>
