<?xml version="1.0" encoding="utf-8"?>
<!-- Generator: Adobe Illustrator 16.0.0, SVG Export Plug-In . SVG Version: 6.00 Build 0)  -->
<!DOCTYPE svg PUBLIC "-//W3C//DTD SVG 1.1//EN" "http://www.w3.org/Graphics/SVG/1.1/DTD/svg11.dtd">
<svg version="1.1" id="Layer_1" xmlns="http://www.w3.org/2000/svg" xmlns:xlink="http://www.w3.org/1999/xlink" x="0px" y="0px"
	 width="48px" height="48px" viewBox="0 0 48 48" enable-background="new 0 0 48 48" xml:space="preserve">
<g>
	<g>
		<path d="M40,48H8c-4.411,0-8-3.589-8-8V8c0-4.411,3.589-8,8-8h32c4.411,0,8,3.589,8,8v32C48,44.411,44.411,48,40,48z M8,2
			C4.691,2,2,4.691,2,8v32c0,3.309,2.691,6,6,6h32c3.309,0,6-2.691,6-6V8c0-3.309-2.691-6-6-6H8z"/>
	</g>
	<g>
		<path d="M21.269,39.798H7.558V8.204h13.711V39.798z M9.558,37.798h9.711V10.204H9.558V37.798z"/>
		<path d="M40.441,21.228H27.417V8.204h13.024V21.228z M29.417,19.228h9.024v-9.024h-9.024V19.228z"/>
		<path d="M40.441,39.797H27.417V26.771h13.024V39.797z M29.417,37.797h9.024v-9.025h-9.024V37.797z"/>
	</g>
</g>
</svg>
