<?xml version="1.0" encoding="utf-8"?>
<!-- Generator: Adobe Illustrator 16.0.0, SVG Export Plug-In . SVG Version: 6.00 Build 0)  -->
<!DOCTYPE svg PUBLIC "-//W3C//DTD SVG 1.1//EN" "http://www.w3.org/Graphics/SVG/1.1/DTD/svg11.dtd">
<svg version="1.1" id="Layer_1" xmlns="http://www.w3.org/2000/svg" xmlns:xlink="http://www.w3.org/1999/xlink" x="0px" y="0px"
	 width="48px" height="48px" viewBox="0 0 48 48" enable-background="new 0 0 48 48" xml:space="preserve">
<g>
	<path d="M41.889,48H22.69c-3.371,0-6.113-2.742-6.113-6.113V31.422H6.113C2.742,31.422,0,28.681,0,25.311V6.113
		C0,2.742,2.742,0,6.113,0h19.198c3.37,0,6.112,2.742,6.112,6.113v10.464h10.466c3.37,0,6.111,2.742,6.111,6.113v19.197
		C48,45.258,45.259,48,41.889,48z M6.113,2C3.845,2,2,3.845,2,6.113v19.198c0,2.267,1.845,4.111,4.113,4.111h12.464v12.465
		c0,2.269,1.845,4.113,4.113,4.113h19.199C44.155,46,46,44.155,46,41.887V22.69c0-2.268-1.845-4.113-4.111-4.113H29.423V6.113
		C29.423,3.845,27.578,2,25.311,2H6.113z"/>
</g>
</svg>
