<?xml version="1.0" encoding="utf-8"?>
<!-- Generator: Adobe Illustrator 16.0.0, SVG Export Plug-In . SVG Version: 6.00 Build 0)  -->
<!DOCTYPE svg PUBLIC "-//W3C//DTD SVG 1.1//EN" "http://www.w3.org/Graphics/SVG/1.1/DTD/svg11.dtd">
<svg version="1.1" id="Layer_1" xmlns="http://www.w3.org/2000/svg" xmlns:xlink="http://www.w3.org/1999/xlink" x="0px" y="0px"
	 width="48px" height="48px" viewBox="0 0 48 48" enable-background="new 0 0 48 48" xml:space="preserve">
<g>
	<g>
		<path d="M23.792,31.422H8.371c-4.411,0-8-3.589-8-8V8c0-4.411,3.589-8,8-8h15.421c4.411,0,8,3.589,8,8v15.422
			C31.792,27.833,28.203,31.422,23.792,31.422z M8.371,2c-3.309,0-6,2.691-6,6v15.422c0,3.309,2.691,6,6,6h15.421
			c3.309,0,6-2.691,6-6V8c0-3.309-2.691-6-6-6H8.371z"/>
	</g>
	<g>
		<path d="M39.629,48H24.207c-4.411,0-8-3.589-8-8V24.577c0-4.411,3.589-8,8-8h15.422c4.411,0,8,3.589,8,8V40
			C47.629,44.411,44.04,48,39.629,48z M24.207,18.577c-3.309,0-6,2.691-6,6V40c0,3.309,2.691,6,6,6h15.422c3.309,0,6-2.691,6-6
			V24.577c0-3.309-2.691-6-6-6H24.207z"/>
	</g>
</g>
</svg>
