<?xml version="1.0" encoding="utf-8"?>
<!-- Generator: Adobe Illustrator 16.0.0, SVG Export Plug-In . SVG Version: 6.00 Build 0)  -->
<!DOCTYPE svg PUBLIC "-//W3C//DTD SVG 1.1//EN" "http://www.w3.org/Graphics/SVG/1.1/DTD/svg11.dtd">
<svg version="1.1" id="Layer_1" xmlns="http://www.w3.org/2000/svg" xmlns:xlink="http://www.w3.org/1999/xlink" x="0px" y="0px"
	 width="48px" height="48px" viewBox="0 0 48 48" enable-background="new 0 0 48 48" xml:space="preserve">
<g>
	<g>
		<path d="M40,48H8c-4.411,0-8-3.589-8-8V8c0-4.411,3.589-8,8-8h32c4.411,0,8,3.589,8,8v32C48,44.411,44.411,48,40,48z M8,2
			C4.691,2,2,4.691,2,8v32c0,3.309,2.691,6,6,6h32c3.309,0,6-2.691,6-6V8c0-3.309-2.691-6-6-6H8z"/>
	</g>
	<path d="M21.269,39.796H7.559V8.204h13.71V39.796z M9.559,37.796h9.71V10.204h-9.71V37.796z"/>
	<path d="M40.441,39.795H27.417V26.773h13.024V39.795z M29.417,37.795h9.024v-9.021h-9.024V37.795z"/>
</g>
</svg>
