<?xml version="1.0" encoding="utf-8"?>
<!-- Generator: Adobe Illustrator 16.0.0, SVG Export Plug-In . SVG Version: 6.00 Build 0)  -->
<!DOCTYPE svg PUBLIC "-//W3C//DTD SVG 1.1//EN" "http://www.w3.org/Graphics/SVG/1.1/DTD/svg11.dtd">
<svg version="1.1" id="Layer_1" xmlns="http://www.w3.org/2000/svg" xmlns:xlink="http://www.w3.org/1999/xlink" x="0px" y="0px"
	 width="48px" height="48px" viewBox="0 0 48 48" enable-background="new 0 0 48 48" xml:space="preserve">
<g>
	<g>
		<path d="M40,48.001H8c-4.411,0-8-3.589-8-8V7.999c0-4.411,3.589-8,8-8h32c4.411,0,8,3.589,8,8v32.002
			C48,44.412,44.411,48.001,40,48.001z M8,1.999c-3.309,0-6,2.691-6,6v32.002c0,3.309,2.691,6,6,6h32c3.309,0,6-2.691,6-6V7.999
			c0-3.309-2.691-6-6-6H8z"/>
	</g>
	<g>
		<path d="M36.297,38.627H11.703V28.543h24.594V38.627z M13.703,36.627h20.594v-6.084H13.703V36.627z"/>
		<path d="M30.512,18.981H17.487v-9.61h13.025V18.981z M19.487,16.981h9.025v-5.61h-9.025V16.981z"/>
		<rect x="9.203" y="9.371" width="29.594" height="2"/>
		<rect x="9.203" y="28.543" width="29.594" height="2"/>
	</g>
</g>
</svg>
