<?xml version="1.0" encoding="utf-8"?>
<!-- Generator: Adobe Illustrator 16.0.0, SVG Export Plug-In . SVG Version: 6.00 Build 0)  -->
<!DOCTYPE svg PUBLIC "-//W3C//DTD SVG 1.1//EN" "http://www.w3.org/Graphics/SVG/1.1/DTD/svg11.dtd">
<svg version="1.1" id="Layer_1" xmlns="http://www.w3.org/2000/svg" xmlns:xlink="http://www.w3.org/1999/xlink" x="0px" y="0px"
	 width="48px" height="48px" viewBox="0 0 48 48" enable-background="new 0 0 48 48" xml:space="preserve">
<g>
	<g>
		<path d="M39.999,48H8.001c-4.411,0-8-3.589-8-8V8c0-4.411,3.589-8,8-8h31.998c4.411,0,8,3.589,8,8v32
			C47.999,44.411,44.41,48,39.999,48z M8.001,2c-3.309,0-6,2.691-6,6v32c0,3.309,2.691,6,6,6h31.998c3.309,0,6-2.691,6-6V8
			c0-3.309-2.691-6-6-6H8.001z"/>
	</g>
	<path d="M36.297,38.628H11.703V28.544h24.594V38.628z M13.703,36.628h20.594v-6.084H13.703V36.628z"/>
	<path d="M30.512,18.982H17.488v-9.61h13.024V18.982z M19.488,16.982h9.024v-5.61h-9.024V16.982z"/>
	<rect x="9.203" y="16.982" width="29.594" height="2"/>
	<rect x="9.203" y="36.628" width="29.594" height="2"/>
</g>
</svg>
