<?xml version="1.0" encoding="utf-8"?>
<!-- Generator: Adobe Illustrator 16.0.0, SVG Export Plug-In . SVG Version: 6.00 Build 0)  -->
<!DOCTYPE svg PUBLIC "-//W3C//DTD SVG 1.1//EN" "http://www.w3.org/Graphics/SVG/1.1/DTD/svg11.dtd">
<svg version="1.1" id="Layer_1" xmlns="http://www.w3.org/2000/svg" xmlns:xlink="http://www.w3.org/1999/xlink" x="0px" y="0px"
	 width="48px" height="48px" viewBox="0 0 48 48" enable-background="new 0 0 48 48" xml:space="preserve">
<g>
	<path d="M40.195,48H40.07c-0.612,0-1.207-0.074-1.776-0.215c-2.175,0.007-24.884,0.068-30.473,0.068
		c-2.377,0-4.24-0.725-5.537-2.153c-2.173-2.393-1.865-5.86-1.851-6.007L0.428,0.82h34.249v39.834c0,2.947,2.42,5.346,5.394,5.346
		h0.125c2.975,0,5.395-2.398,5.395-5.346V1h2v39.654C47.59,44.705,44.272,48,40.195,48z M2.428,2.82v36.97
		c-0.007,0.121-0.234,2.848,1.345,4.575c0.902,0.987,2.264,1.488,4.048,1.488c4.464,0,19.857-0.039,26.973-0.059
		c-1.309-1.326-2.117-3.142-2.117-5.141V2.82H2.428z"/>
	<rect x="38.98" y="1" width="2" height="39.739"/>
</g>
</svg>
