<?xml version="1.0" encoding="utf-8"?>
<!-- Generator: Adobe Illustrator 16.0.0, SVG Export Plug-In . SVG Version: 6.00 Build 0)  -->
<!DOCTYPE svg PUBLIC "-//W3C//DTD SVG 1.1//EN" "http://www.w3.org/Graphics/SVG/1.1/DTD/svg11.dtd">
<svg version="1.1" id="Layer_1" xmlns="http://www.w3.org/2000/svg" xmlns:xlink="http://www.w3.org/1999/xlink" x="0px" y="0px"
	 width="48px" height="48px" viewBox="0 0 48 48" enable-background="new 0 0 48 48" xml:space="preserve">
<g>
	<path d="M22.118,36.949c-5.777,0-10.477-5.063-10.477-11.284V12.981h2v12.684c0,5.119,3.803,9.284,8.477,9.284
		c4.674,0,8.476-4.165,8.476-9.284v-9.141h2v9.141C32.594,31.887,27.895,36.949,22.118,36.949z"/>
	<path d="M2,26.188H0v-10.46C0,7.055,7.311,0,16.297,0s16.297,7.055,16.297,15.726v10.459h-2V15.726C30.594,8.158,24.18,2,16.297,2
		S2,8.158,2,15.727V26.188z"/>
	<path d="M24,48C10.767,48,0,38.253,0,26.271v-4.843h2v4.843C2,37.149,11.869,46,24,46s22-8.851,22-19.729V1h2v25.271
		C48,38.253,37.233,48,24,48z"/>
</g>
</svg>
