<?xml version="1.0" encoding="utf-8"?>
<!-- Generator: Adobe Illustrator 16.0.0, SVG Export Plug-In . SVG Version: 6.00 Build 0)  -->
<!DOCTYPE svg PUBLIC "-//W3C//DTD SVG 1.1//EN" "http://www.w3.org/Graphics/SVG/1.1/DTD/svg11.dtd">
<svg version="1.1" id="Layer_1" xmlns="http://www.w3.org/2000/svg" xmlns:xlink="http://www.w3.org/1999/xlink" x="0px" y="0px"
	 width="48px" height="48px" viewBox="0 0 48 48" enable-background="new 0 0 48 48" xml:space="preserve">
<g>
	<g>
		<path d="M40.277,21.642c2.758,0,5,2.243,5,5V40c0,2.757-2.242,5-5,5H7.722c-2.757,0-5-2.243-5-5V26.643c0-2.757,2.243-5,5-5
			L40.277,21.642 M40.277,19.642H7.722c-3.85,0-7,3.15-7,7V40c0,3.85,3.15,7,7,7h32.557c3.85,0,7-3.15,7-7V26.643
			C47.277,22.792,44.128,19.642,40.277,19.642L40.277,19.642z"/>
	</g>
	<path d="M24.001,38.234c-2.747,0-4.981-2.234-4.981-4.98s2.234-4.98,4.981-4.98c2.747,0,4.981,2.234,4.981,4.98
		S26.748,38.234,24.001,38.234z M24.001,30.273c-1.644,0-2.981,1.337-2.981,2.98s1.337,2.98,2.981,2.98s2.981-1.337,2.981-2.98
		S25.645,30.273,24.001,30.273z"/>
	<rect x="23" y="37.566" width="2" height="4.148"/>
	<path d="M41.195,20.416l-1.973-0.33c0.144-0.86,0.217-1.735,0.217-2.603C39.439,8.946,32.514,2,24,2c-4.123,0-8,1.61-10.915,4.534
		c-2.917,2.924-4.522,6.813-4.522,10.949c0,0.876,0.072,1.75,0.215,2.601l-1.973,0.331c-0.161-0.959-0.243-1.945-0.243-2.932
		c0-4.669,1.813-9.06,5.106-12.362C14.962,1.819,19.342,0,24,0c9.616,0,17.439,7.843,17.439,17.483
		C41.439,18.461,41.357,19.448,41.195,20.416z"/>
</g>
</svg>
