<?xml version="1.0" encoding="utf-8"?>
<!-- Generator: Adobe Illustrator 16.0.0, SVG Export Plug-In . SVG Version: 6.00 Build 0)  -->
<!DOCTYPE svg PUBLIC "-//W3C//DTD SVG 1.1//EN" "http://www.w3.org/Graphics/SVG/1.1/DTD/svg11.dtd">
<svg version="1.1" id="Layer_1" xmlns="http://www.w3.org/2000/svg" xmlns:xlink="http://www.w3.org/1999/xlink" x="0px" y="0px"
	 width="48px" height="48px" viewBox="0 0 48 48" enable-background="new 0 0 48 48" xml:space="preserve">
<g>
	<path d="M39.611,24.255c-4.626,0-8.389-5.44-8.389-12.128s3.763-12.128,8.389-12.128S48,5.439,48,12.127
		S44.237,24.255,39.611,24.255z M39.611,1.999c-3.522,0-6.389,4.543-6.389,10.128s2.866,10.128,6.389,10.128S46,17.711,46,12.127
		S43.134,1.999,39.611,1.999z"/>
	<path d="M32.223,48c-0.238,0-0.473-0.085-0.659-0.248l-6.96-6.099l-7.501,6.121c-0.371,0.304-0.904,0.302-1.273-0.007l-7.318-6.104
		l-6.848,6.084c-0.294,0.262-0.715,0.328-1.074,0.165C0.231,47.751,0,47.394,0,47V13.312C0,8.708,2.398,0,11.474,0h28.135v2H11.474
		C2.108,2,2,12.85,2,13.312v31.461l5.827-5.177c0.37-0.331,0.924-0.338,1.305-0.021l7.345,6.127l7.518-6.134
		c0.379-0.309,0.923-0.299,1.292,0.022l5.937,5.202V13.312h2V47c0,0.393-0.229,0.749-0.587,0.911C32.503,47.971,32.362,48,32.223,48
		z"/>
	<rect x="9.519" y="9.345" width="17.094" height="2"/>
	<rect x="8.137" y="17.28" width="17.095" height="2"/>
	<rect x="8.137" y="25.213" width="17.095" height="2"/>
	<rect x="8.137" y="33.148" width="17.095" height="2"/>
</g>
</svg>
