<?xml version="1.0" encoding="utf-8"?>
<!-- Generator: Adobe Illustrator 16.0.0, SVG Export Plug-In . SVG Version: 6.00 Build 0)  -->
<!DOCTYPE svg PUBLIC "-//W3C//DTD SVG 1.1//EN" "http://www.w3.org/Graphics/SVG/1.1/DTD/svg11.dtd">
<svg version="1.1" id="Layer_1" xmlns="http://www.w3.org/2000/svg" xmlns:xlink="http://www.w3.org/1999/xlink" x="0px" y="0px"
	 width="48px" height="48px" viewBox="0 0 48 48" enable-background="new 0 0 48 48" xml:space="preserve">
<g>
	<path d="M41.805,47.965H6.199c-3.417,0-6.197-2.775-6.197-6.188V11.995c0-0.082,0.004-0.162,0.009-0.243l0.001-5.644
		c-0.029-0.402-0.108-2.602,1.391-4.261C2.49,0.646,4.096,0.036,6.176,0.036h12.386c0.205,0,4.968,0.058,6.412,5.125l0.187,0.646
		h16.645c3.416,0,6.195,2.776,6.195,6.188v29.782C48,45.189,45.221,47.965,41.805,47.965z M18.564,2.036H6.176
		c-1.491,0-2.598,0.388-3.289,1.153C1.871,4.313,2.005,5.952,2.007,5.968l0.005,0.101l-0.01,35.708c0,2.309,1.883,4.188,4.197,4.188
		h35.605c2.313,0,4.195-1.879,4.195-4.188V11.995c0-2.309-1.882-4.188-4.195-4.188H23.657L23.05,5.709
		C22.02,2.091,18.705,2.037,18.564,2.036z"/>
</g>
</svg>
