<?xml version="1.0" encoding="utf-8"?>
<!-- Generator: Adobe Illustrator 16.0.0, SVG Export Plug-In . SVG Version: 6.00 Build 0)  -->
<!DOCTYPE svg PUBLIC "-//W3C//DTD SVG 1.1//EN" "http://www.w3.org/Graphics/SVG/1.1/DTD/svg11.dtd">
<svg version="1.1" id="Layer_1" xmlns="http://www.w3.org/2000/svg" xmlns:xlink="http://www.w3.org/1999/xlink" x="0px" y="0px"
	 width="48px" height="48px" viewBox="0 0 48 48" enable-background="new 0 0 48 48" xml:space="preserve">
<g>
	<g>
		<path d="M38.484,47.965c-5.246,0-9.514-4.269-9.514-9.515s4.268-9.515,9.514-9.515c5.247,0,9.516,4.269,9.516,9.515
			S43.731,47.965,38.484,47.965z M38.484,30.936c-4.143,0-7.514,3.371-7.514,7.515s3.371,7.515,7.514,7.515
			c4.145,0,7.516-3.371,7.516-7.515S42.629,30.936,38.484,30.936z"/>
		<g>
			<rect x="33.383" y="37.45" width="10.206" height="2"/>
			<rect x="37.484" y="33.346" width="2" height="10.207"/>
		</g>
	</g>
	<path d="M31.391,47.966H6.199c-3.417,0-6.196-2.776-6.196-6.188V11.996c0-0.073,0.003-0.145,0.007-0.216l0.002-5.671
		c-0.029-0.402-0.108-2.602,1.392-4.261c1.087-1.202,2.692-1.811,4.772-1.811h12.386c0.011,0,0.022,0,0.033,0
		c1.716,0,5.222,1.065,6.378,5.124l0.187,0.646h16.645c3.416,0,6.195,2.776,6.195,6.188v18.553h-2V11.995
		c0-2.309-1.882-4.188-4.195-4.188H23.659l-0.608-2.096c-1.032-3.619-4.346-3.674-4.487-3.674H6.176
		c-1.491,0-2.597,0.388-3.288,1.152c-1.016,1.124-0.882,2.764-0.88,2.78L2.012,6.07L2.003,41.777c0,2.31,1.882,4.188,4.196,4.188
		h25.191V47.966z"/>
</g>
</svg>
