<?xml version="1.0" encoding="utf-8"?>
<!-- Generator: Adobe Illustrator 16.0.0, SVG Export Plug-In . SVG Version: 6.00 Build 0)  -->
<!DOCTYPE svg PUBLIC "-//W3C//DTD SVG 1.1//EN" "http://www.w3.org/Graphics/SVG/1.1/DTD/svg11.dtd">
<svg version="1.1" id="Layer_1" xmlns="http://www.w3.org/2000/svg" xmlns:xlink="http://www.w3.org/1999/xlink" x="0px" y="0px"
	 width="48px" height="48px" viewBox="0 0 48 48" enable-background="new 0 0 48 48" xml:space="preserve">
<g>
	<path d="M18.957,42.729C8.504,42.729,0,34.225,0,23.772C0,13.319,8.504,4.815,18.957,4.815s18.957,8.504,18.957,18.957
		C37.914,34.225,29.41,42.729,18.957,42.729z M18.957,6.815C9.607,6.815,2,14.422,2,23.772s7.607,16.957,16.957,16.957
		c9.351,0,16.957-7.606,16.957-16.957S28.308,6.815,18.957,6.815z"/>
	<g>
		<path d="M18.956,20.558c-3.275,0-5.939-2.664-5.939-5.939s2.664-5.939,5.939-5.939s5.938,2.664,5.938,5.939
			S22.231,20.558,18.956,20.558z M18.956,10.68c-2.172,0-3.939,1.767-3.939,3.939s1.767,3.939,3.939,3.939s3.939-1.767,3.939-3.939
			S21.128,10.68,18.956,10.68z"/>
		<path d="M18.957,38.867c-3.275,0-5.939-2.665-5.939-5.941c0-3.274,2.664-5.938,5.939-5.938c3.274,0.001,5.938,2.665,5.938,5.938
			C24.896,36.202,22.231,38.867,18.957,38.867z M18.957,28.988c-2.171,0-3.938,1.767-3.938,3.938c0,2.173,1.767,3.941,3.939,3.941
			c2.171,0,3.938-1.769,3.938-3.941C22.895,30.756,21.128,28.989,18.957,28.988z"/>
	</g>
	<g>
		<path d="M28.109,29.712c-3.274,0-5.938-2.664-5.938-5.939s2.664-5.939,5.938-5.939c3.275,0,5.939,2.664,5.939,5.939
			S31.385,29.712,28.109,29.712z M28.109,19.834c-2.172,0-3.938,1.767-3.938,3.939c0,2.172,1.767,3.939,3.938,3.939
			s3.939-1.767,3.939-3.939C32.049,21.601,30.281,19.834,28.109,19.834z"/>
		<path d="M9.803,29.712c-3.275,0-5.939-2.664-5.939-5.939s2.664-5.939,5.939-5.939s5.939,2.664,5.939,5.939
			S13.078,29.712,9.803,29.712z M9.803,19.834c-2.172,0-3.939,1.767-3.939,3.939c0,2.172,1.767,3.939,3.939,3.939
			s3.939-1.767,3.939-3.939C13.742,21.601,11.975,19.834,9.803,19.834z"/>
	</g>
	<path d="M42.414,42.184h-2c0-2.021,0.054-4.164,0.701-6.208c0.463-1.463,1.244-2.542,1.999-3.585
		c0.211-0.291,0.426-0.588,0.639-0.9c1.396-2.041,2.337-5.038,2.239-7.128c-0.075-1.619-0.983-2.243-2.581-3.205
		c-0.64-0.385-1.3-0.783-1.929-1.31c-1.839-1.542-2.09-4.129-2.312-6.411c-0.084-0.867-0.164-1.686-0.323-2.347
		c-0.88-3.665-4.282-3.448-8.987-2.745c-1.011,0.151-1.966,0.294-2.838,0.351L26.894,6.7c0.788-0.051,1.702-0.188,2.671-0.333
		c4.158-0.623,9.851-1.474,11.229,4.255c0.191,0.796,0.277,1.682,0.368,2.621c0.194,1.994,0.394,4.055,1.606,5.072
		c0.509,0.426,1.102,0.784,1.675,1.129c1.603,0.965,3.419,2.059,3.548,4.825c0.138,2.954-1.199,6.322-2.586,8.35
		c-0.223,0.327-0.448,0.639-0.67,0.944c-0.723,0.998-1.347,1.861-1.713,3.016C42.461,38.353,42.414,40.242,42.414,42.184z"/>
</g>
</svg>
