<?xml version="1.0" encoding="utf-8"?>
<!-- Generator: Adobe Illustrator 16.0.0, SVG Export Plug-In . SVG Version: 6.00 Build 0)  -->
<!DOCTYPE svg PUBLIC "-//W3C//DTD SVG 1.1//EN" "http://www.w3.org/Graphics/SVG/1.1/DTD/svg11.dtd">
<svg version="1.1" id="Layer_1" xmlns="http://www.w3.org/2000/svg" xmlns:xlink="http://www.w3.org/1999/xlink" x="0px" y="0px"
	 width="48px" height="48px" viewBox="0 0 48 48" enable-background="new 0 0 48 48" xml:space="preserve">
<g>
	<path d="M23.387,41.854H2.968V6.147h20.419V41.854z M4.968,39.854h16.419V8.147H4.968V39.854z"/>
	<g>
		<g>
			<g>
				<path d="M21.923,8.147H4.432c-2.206,0-4-1.794-4-4V4c0-2.206,1.794-4,4-4h17.491c2.206,0,4,1.794,4,4v0.147
					C25.923,6.353,24.128,8.147,21.923,8.147z M4.432,2c-1.103,0-2,0.897-2,2v0.147c0,1.103,0.897,2,2,2h17.491c1.103,0,2-0.897,2-2
					V4c0-1.103-0.897-2-2-2H4.432z"/>
			</g>
			<g>
				<path d="M21.923,48H4.432c-2.206,0-4-1.794-4-4v-0.146c0-2.206,1.794-4,4-4h17.491c2.206,0,4,1.794,4,4V44
					C25.923,46.206,24.128,48,21.923,48z M4.432,41.854c-1.103,0-2,0.897-2,2V44c0,1.103,0.897,2,2,2h17.491c1.103,0,2-0.897,2-2
					v-0.146c0-1.103-0.897-2-2-2H4.432z"/>
			</g>
		</g>
	</g>
	<path d="M37.45,39.093H21.387V8.908h22.694c1.923,0,3.487,1.413,3.487,3.149v10.019l-6.631,2.751v11.114
		C40.938,37.679,39.373,39.093,37.45,39.093z M23.387,37.093H37.45c0.807,0,1.487-0.527,1.487-1.151v-12.45l6.631-2.751v-8.683
		c0-0.623-0.681-1.149-1.487-1.149H23.387V37.093z"/>
	<g>
		<g>
			<rect x="22.387" y="12.037" width="1.075" height="2"/>
			<path d="M44.493,14.037h-2.264v-2h2.264V14.037z M39.436,14.037h-2.794v-2h2.794V14.037z M33.847,14.037h-2.794v-2h2.794V14.037z
				 M28.259,14.037h-2.794v-2h2.794V14.037z"/>
			<rect x="45.494" y="12.037" width="1.074" height="2"/>
		</g>
	</g>
	<g>
		<g>
			<rect x="22.387" y="34.414" width="1.075" height="2"/>
			<path d="M34.868,36.414H31.8v-2h3.068V36.414z M28.73,36.414h-3.069v-2h3.069V36.414z"/>
			<rect x="38.861" y="34.414" width="1.076" height="2"/>
		</g>
	</g>
</g>
</svg>
