<?xml version="1.0" encoding="utf-8"?>
<!-- Generator: Adobe Illustrator 16.0.0, SVG Export Plug-In . SVG Version: 6.00 Build 0)  -->
<!DOCTYPE svg PUBLIC "-//W3C//DTD SVG 1.1//EN" "http://www.w3.org/Graphics/SVG/1.1/DTD/svg11.dtd">
<svg version="1.1" id="Layer_1" xmlns="http://www.w3.org/2000/svg" xmlns:xlink="http://www.w3.org/1999/xlink" x="0px" y="0px"
	 width="48px" height="48px" viewBox="0 0 48 48" enable-background="new 0 0 48 48" xml:space="preserve">
<g>
	<g>
		<g>
			<rect x="21.814" y="8.179" width="25.028" height="2"/>
			<polygon points="39.412,18.025 37.998,16.611 45.428,9.179 37.998,1.748 39.412,0.334 48.256,9.179 			"/>
		</g>
		<path d="M18.513,18.357H0.158V0h18.355V18.357z M2.158,16.357h14.355V2H2.158V16.357z"/>
	</g>
	<g>
		<g>
			<rect x="1.158" y="37.82" width="25.029" height="2"/>
			<polygon points="8.588,47.666 -0.256,38.82 8.588,29.977 10.002,31.391 2.572,38.82 10.002,46.252 			"/>
		</g>
		<path d="M47.841,48H29.486V29.645h18.354V48z M31.486,46h14.354V31.645H31.486V46z"/>
	</g>
</g>
</svg>
