<?xml version="1.0" encoding="utf-8"?>
<!-- Generator: Adobe Illustrator 16.0.0, SVG Export Plug-In . SVG Version: 6.00 Build 0)  -->
<!DOCTYPE svg PUBLIC "-//W3C//DTD SVG 1.1//EN" "http://www.w3.org/Graphics/SVG/1.1/DTD/svg11.dtd">
<svg version="1.1" id="Layer_1" xmlns="http://www.w3.org/2000/svg" xmlns:xlink="http://www.w3.org/1999/xlink" x="0px" y="0px"
	 width="48px" height="48px" viewBox="0 0 48 48" enable-background="new 0 0 48 48" xml:space="preserve">
<g>
	<polygon points="18.529,16.67 17.115,15.256 22.586,9.783 17.115,4.312 18.529,2.898 25.414,9.783 	"/>
	<path d="M41.969,45.395H6.031C2.706,45.395,0,42.688,0,39.363V14.815c0-3.325,2.706-6.031,6.031-6.031H23.17v2H6.031
		C3.809,10.784,2,12.592,2,14.815v24.548c0,2.223,1.809,4.031,4.031,4.031h35.938c2.223,0,4.03-1.809,4.03-4.031V14.815
		c0-2.223-1.808-4.031-4.03-4.031h-2.406v-2h2.406c3.325,0,6.03,2.706,6.03,6.031v24.548C47.999,42.688,45.294,45.395,41.969,45.395
		z"/>
</g>
</svg>
