<?xml version="1.0" encoding="utf-8"?>
<!-- Generator: Adobe Illustrator 16.0.0, SVG Export Plug-In . SVG Version: 6.00 Build 0)  -->
<!DOCTYPE svg PUBLIC "-//W3C//DTD SVG 1.1//EN" "http://www.w3.org/Graphics/SVG/1.1/DTD/svg11.dtd">
<svg version="1.1" id="Layer_1" xmlns="http://www.w3.org/2000/svg" xmlns:xlink="http://www.w3.org/1999/xlink" x="0px" y="0px"
	 width="48px" height="48px" viewBox="0 0 48 48" enable-background="new 0 0 48 48" xml:space="preserve">
<g>
	<g>
		<path d="M41.441,20.572l-1.414-1.414l5.559-5.557l-5.559-5.558l1.414-1.414l6.266,6.265C47.895,13.082,48,13.336,48,13.601
			s-0.105,0.52-0.293,0.707L41.441,20.572z"/>
		<path d="M24.945,24.419h-2v-5.717c0-3.364,2.736-6.101,6.099-6.101h17.114v2H29.044c-2.261,0-4.099,1.84-4.099,4.101V24.419z"/>
		<path d="M18.843,35.234H1v-2h17.843c2.262,0,4.102-1.84,4.102-4.102v-5.699h2v5.699C24.945,32.497,22.208,35.234,18.843,35.234z"
			/>
	</g>
	<path d="M41.441,41.371l-1.414-1.414l5.559-5.557l-5.559-5.557l1.414-1.414l6.266,6.264C47.895,33.881,48,34.135,48,34.4
		s-0.105,0.52-0.293,0.707L41.441,41.371z"/>
	<path d="M46.158,35.4H29.044c-1.472,0-2.896-0.536-4.009-1.509l1.316-1.506c0.749,0.654,1.705,1.015,2.692,1.015h17.114V35.4z"/>
	<path d="M21.586,15.827c-0.757-0.685-1.732-1.062-2.744-1.062H1v-2h17.843c1.508,0,2.959,0.561,4.084,1.578L21.586,15.827z"/>
</g>
</svg>
