<?xml version="1.0" encoding="utf-8"?>
<!-- Generator: Adobe Illustrator 16.0.0, SVG Export Plug-In . SVG Version: 6.00 Build 0)  -->
<!DOCTYPE svg PUBLIC "-//W3C//DTD SVG 1.1//EN" "http://www.w3.org/Graphics/SVG/1.1/DTD/svg11.dtd">
<svg version="1.1" id="Layer_1" xmlns="http://www.w3.org/2000/svg" xmlns:xlink="http://www.w3.org/1999/xlink" x="0px" y="0px"
	 width="48px" height="48px" viewBox="0 0 48 48" enable-background="new 0 0 48 48" xml:space="preserve">
<g>
	<path d="M39.072,48c-0.256,0-0.512-0.098-0.707-0.293l-6.479-6.479l1.414-1.414l5.772,5.771l5.771-5.771l1.414,1.414l-6.479,6.479
		C39.584,47.902,39.328,48,39.072,48z"/>
	<path d="M40.07,46.128h-2V30.506c0-3.557-2.894-6.451-6.449-6.451h-8.353v-2h8.353c4.659,0,8.449,3.791,8.449,8.451V46.128z"/>
	<path d="M24.708,24.054h-8.329c-4.661,0-8.452-3.791-8.452-8.449V1h2v14.605c0,3.556,2.895,6.449,6.452,6.449h8.329V24.054z"/>
	<path d="M8.927,48L8.927,48c-0.265,0-0.52-0.105-0.707-0.293l-6.477-6.479l1.414-1.414l5.77,5.771l5.771-5.771l1.414,1.414
		l-6.478,6.479C9.446,47.895,9.192,48,8.927,48z"/>
	<rect x="7.93" y="25.574" width="2" height="20.556"/>
</g>
</svg>
