<?xml version="1.0" encoding="utf-8"?>
<!-- Generator: Adobe Illustrator 16.0.0, SVG Export Plug-In . SVG Version: 6.00 Build 0)  -->
<!DOCTYPE svg PUBLIC "-//W3C//DTD SVG 1.1//EN" "http://www.w3.org/Graphics/SVG/1.1/DTD/svg11.dtd">
<svg version="1.1" id="Layer_1" xmlns="http://www.w3.org/2000/svg" xmlns:xlink="http://www.w3.org/1999/xlink" x="0px" y="0px"
	 width="48px" height="48px" viewBox="0 0 48 48" enable-background="new 0 0 48 48" xml:space="preserve">
<g>
	<g>
		<path d="M25,31.582h-2v-9.125c0-2.723-2.102-4.939-4.686-4.939h-6.372v-2h6.372C22,15.518,25,18.631,25,22.457V31.582z"/>
		<path d="M13.04,17.519H6.686C3,17.519,0,14.407,0,10.581v-9.98h2v9.98c0,2.723,2.102,4.938,4.686,4.938h6.354V17.519z"/>
	</g>
	<g>
		<path d="M25,31.582h-2v-9.125c0-3.826,2.999-6.939,6.686-6.939h6.373v2h-6.373c-2.584,0-4.686,2.216-4.686,4.939V31.582z"/>
		<path d="M41.314,17.519H34.96v-2h6.354c2.584,0,4.686-2.215,4.686-4.938v-9.98h2v9.98C48,14.407,45.001,17.519,41.314,17.519z"/>
	</g>
	<g>
		<path d="M23.999,47.598L23.999,47.598c-0.273,0-0.534-0.111-0.723-0.309l-7.165-7.486l1.445-1.383l6.442,6.731l6.444-6.731
			l1.445,1.383l-7.167,7.486C24.533,47.486,24.272,47.598,23.999,47.598z"/>
		<rect x="23.001" y="21.843" width="2" height="23.75"/>
	</g>
</g>
</svg>
