<?xml version="1.0" encoding="utf-8"?>
<!-- Generator: Adobe Illustrator 16.0.0, SVG Export Plug-In . SVG Version: 6.00 Build 0)  -->
<!DOCTYPE svg PUBLIC "-//W3C//DTD SVG 1.1//EN" "http://www.w3.org/Graphics/SVG/1.1/DTD/svg11.dtd">
<svg version="1.1" id="Layer_1" xmlns="http://www.w3.org/2000/svg" xmlns:xlink="http://www.w3.org/1999/xlink" x="0px" y="0px"
	 width="48px" height="48px" viewBox="0 0 48 48" enable-background="new 0 0 48 48" xml:space="preserve">
<g>
	<path d="M30.672,36.555H17.328c-2.178,0-3.95-1.771-3.95-3.949v-1.496H7.924c-2.328,0-4.636-1.037-6.173-2.775
		c-1.329-1.502-1.934-3.359-1.704-5.229C0.822,16.829,8.812,7.973,9.152,7.599L9.45,7.271h29.1l0.298,0.328
		c0.34,0.374,8.332,9.23,9.104,15.506c0.23,1.87-0.374,3.726-1.702,5.228c-1.537,1.738-3.846,2.776-6.174,2.776h-5.454v1.496
		C34.621,34.783,32.85,36.555,30.672,36.555z M10.342,9.271c-1.431,1.639-7.69,9.056-8.31,14.079
		c-0.159,1.293,0.273,2.593,1.216,3.659c1.164,1.315,2.911,2.101,4.675,2.101h7.454v3.496c0,1.075,0.875,1.949,1.95,1.949h13.344
		c1.075,0,1.949-0.874,1.949-1.949v-3.496h7.454c1.765,0,3.513-0.785,4.676-2.102c0.943-1.066,1.375-2.365,1.216-3.658
		c-0.619-5.028-6.879-12.441-8.31-14.079H10.342z"/>
	<path d="M24.308,40.729H6.143c-1.879,0-3.381-0.563-4.467-1.671c-1.71-1.748-1.677-4.204-1.675-4.308v-9.596h2v9.617
		c0,0.034-0.007,1.763,1.116,2.898c0.694,0.702,1.712,1.059,3.026,1.059h18.165V40.729z"/>
	<path d="M41.855,40.729H23.691v-2h18.165c1.313,0,2.331-0.356,3.025-1.059c1.124-1.136,1.118-2.865,1.118-2.882v-9.634h2v9.617
		c0.002,0.083,0.033,2.539-1.678,4.286C45.236,40.166,43.733,40.729,41.855,40.729z"/>
</g>
</svg>
