<?xml version="1.0" encoding="utf-8"?>
<!-- Generator: Adobe Illustrator 16.0.0, SVG Export Plug-In . SVG Version: 6.00 Build 0)  -->
<!DOCTYPE svg PUBLIC "-//W3C//DTD SVG 1.1//EN" "http://www.w3.org/Graphics/SVG/1.1/DTD/svg11.dtd">
<svg version="1.1" id="Layer_1" xmlns="http://www.w3.org/2000/svg" xmlns:xlink="http://www.w3.org/1999/xlink" x="0px" y="0px"
	 width="48px" height="48px" viewBox="0 0 48 48" enable-background="new 0 0 48 48" xml:space="preserve">
<g>
	<path d="M48,46.143H0V29.218h10.425l1.465,5.509h24.221l1.464-5.509H48V46.143z M2,44.143h44V31.218h-6.888l-1.464,5.509H10.352
		l-1.465-5.509H2V44.143z"/>
	<polygon points="46.038,30.491 38.453,3.858 9.547,3.858 1.962,30.491 0.038,29.944 8.037,1.858 39.963,1.858 47.962,29.944 	"/>
	<polygon points="40.001,27.467 38.001,27.467 38.001,23.269 10,23.269 10,27.467 8,27.467 8,21.269 40.001,21.269 	"/>
	<polygon points="38.21,19.137 36.21,19.137 36.21,14.939 11.79,14.939 11.79,19.137 9.79,19.137 9.79,12.939 38.21,12.939 	"/>
	<polygon points="35.672,10.807 33.672,10.807 33.672,6.61 14.328,6.61 14.328,10.807 12.328,10.807 12.328,4.61 35.672,4.61 	"/>
	<rect x="18.22" y="39.803" width="11.573" height="2"/>
</g>
</svg>
