<?xml version="1.0" encoding="utf-8"?>
<!-- Generator: Adobe Illustrator 16.0.0, SVG Export Plug-In . SVG Version: 6.00 Build 0)  -->
<!DOCTYPE svg PUBLIC "-//W3C//DTD SVG 1.1//EN" "http://www.w3.org/Graphics/SVG/1.1/DTD/svg11.dtd">
<svg version="1.1" id="Layer_1" xmlns="http://www.w3.org/2000/svg" xmlns:xlink="http://www.w3.org/1999/xlink" x="0px" y="0px"
	 width="48px" height="48px" viewBox="0 0 48 48" enable-background="new 0 0 48 48" xml:space="preserve">
<g>
	<path d="M36.646,46.814c-5.099,0-9.246-4.147-9.246-9.246s4.147-9.246,9.246-9.246s9.246,4.147,9.246,9.246
		S41.745,46.814,36.646,46.814z M36.646,30.322c-3.995,0-7.246,3.251-7.246,7.246s3.251,7.246,7.246,7.246s7.246-3.251,7.246-7.246
		S40.642,30.322,36.646,30.322z"/>
	<rect x="31.706" y="36.568" width="9.883" height="2"/>
	<path d="M23.499,36.276c-7.459,0-17.743-1.403-22.413-8.44l-0.075-0.133C0.34,26.251,0,24.714,0,23.135
		c0-6.014,4.893-10.907,10.907-10.907c0.85,0,1.699,0.103,2.536,0.306c0.925-6.457,6.455-11.347,13.103-11.347
		c6.763,0,12.413,5.118,13.153,11.773C44.62,14.719,48,19.462,48,24.729c0,4.555-3.041,6.621-5.69,7.913l-0.877-1.797
		C44.677,29.263,46,27.49,46,24.729c0-4.617-3.094-8.756-7.523-10.064l-0.674-0.199l-0.041-0.701
		C37.409,7.833,32.482,3.187,26.546,3.187c-6.006,0-10.937,4.703-11.225,10.706l-0.065,1.36l-1.278-0.469
		c-1.006-0.369-2.039-0.556-3.07-0.556C5.996,14.228,2,18.224,2,23.135c0,1.262,0.268,2.493,0.795,3.659
		c5.69,8.452,21.581,7.663,26.324,7.218l0.188,1.992C27.796,36.146,25.778,36.276,23.499,36.276z"/>
</g>
</svg>
