<?xml version="1.0" encoding="utf-8"?>
<!-- Generator: Adobe Illustrator 16.0.0, SVG Export Plug-In . SVG Version: 6.00 Build 0)  -->
<!DOCTYPE svg PUBLIC "-//W3C//DTD SVG 1.1//EN" "http://www.w3.org/Graphics/SVG/1.1/DTD/svg11.dtd">
<svg version="1.1" id="Layer_1" xmlns="http://www.w3.org/2000/svg" xmlns:xlink="http://www.w3.org/1999/xlink" x="0px" y="0px"
	 width="48px" height="48px" viewBox="0 0 48 48" enable-background="new 0 0 48 48" xml:space="preserve">
<g>
	<g>
		<rect x="7.905" y="15.073" width="17.24" height="2"/>
		<rect x="15.524" y="7.455" width="2" height="17.236"/>
	</g>
	<g>
		<path d="M16.073,32.146C7.21,32.146,0,24.937,0,16.074C0,7.211,7.21,0.001,16.073,0.001c8.863,0,16.073,7.21,16.073,16.073
			C32.146,24.937,24.937,32.146,16.073,32.146z M16.073,2.001C8.313,2.001,2,8.314,2,16.074c0,7.759,6.313,14.072,14.073,14.072
			s14.073-6.313,14.073-14.072C30.146,8.314,23.833,2.001,16.073,2.001z"/>
		<rect x="22.526" y="35.863" transform="matrix(0.7071 0.7071 -0.7071 0.7071 36.8605 -15.2686)" width="28.672" height="2"/>
	</g>
</g>
</svg>
