<?xml version="1.0" encoding="utf-8"?>
<!-- Generator: Adobe Illustrator 16.0.0, SVG Export Plug-In . SVG Version: 6.00 Build 0)  -->
<!DOCTYPE svg PUBLIC "-//W3C//DTD SVG 1.1//EN" "http://www.w3.org/Graphics/SVG/1.1/DTD/svg11.dtd">
<svg version="1.1" id="Layer_1" xmlns="http://www.w3.org/2000/svg" xmlns:xlink="http://www.w3.org/1999/xlink" x="0px" y="0px"
	 width="48px" height="48px" viewBox="0 0 48 48" enable-background="new 0 0 48 48" xml:space="preserve">
<g>
	<path d="M24,20.076c-11.926,0-24-2.557-24-7.442s12.074-7.442,24-7.442c11.927,0,24,2.556,24,7.442S35.927,20.076,24,20.076z
		 M24,7.192c-13.63,0-22,3.169-22,5.442s8.37,5.442,22,5.442c13.631,0,22-3.17,22-5.442S37.631,7.192,24,7.192z"/>
	<path d="M24,25.634c-11.926,0-24-2.354-24-6.854h2c0,1.979,8.57,4.854,22,4.854s22-2.875,22-4.854h2
		C48,23.279,35.927,25.634,24,25.634z"/>
	<path d="M24,31.361c-11.926,0-24-2.355-24-6.856h2c0,1.98,8.57,4.856,22,4.856s22-2.876,22-4.856h2
		C48,29.006,35.927,31.361,24,31.361z"/>
	<path d="M24,37.085c-11.926,0-24-2.355-24-6.856h2c0,1.98,8.57,4.856,22,4.856s22-2.876,22-4.856h2
		C48,34.729,35.927,37.085,24,37.085z"/>
	<path d="M24,42.809c-11.926,0-24-2.354-24-6.854h2c0,1.979,8.57,4.854,22,4.854s22-2.875,22-4.854h2
		C48,40.454,35.927,42.809,24,42.809z"/>
</g>
</svg>
