<?xml version="1.0" encoding="utf-8"?>
<!-- Generator: Adobe Illustrator 16.0.0, SVG Export Plug-In . SVG Version: 6.00 Build 0)  -->
<!DOCTYPE svg PUBLIC "-//W3C//DTD SVG 1.1//EN" "http://www.w3.org/Graphics/SVG/1.1/DTD/svg11.dtd">
<svg version="1.1" id="Layer_1" xmlns="http://www.w3.org/2000/svg" xmlns:xlink="http://www.w3.org/1999/xlink" x="0px" y="0px"
	 width="48px" height="48px" viewBox="0 0 48 48" enable-background="new 0 0 48 48" xml:space="preserve">
<g>
	<path d="M35.85,45.643c-5.289,0-9.593-4.304-9.593-9.593s4.304-9.592,9.593-9.592s9.592,4.303,9.592,9.592
		S41.139,45.643,35.85,45.643z M35.85,28.458c-4.187,0-7.593,3.405-7.593,7.592s3.406,7.593,7.593,7.593s7.592-3.406,7.592-7.593
		S40.036,28.458,35.85,28.458z"/>
	<g>
		<rect x="30.699" y="35.05" width="10.298" height="2"/>
		<rect x="34.848" y="30.9" width="2" height="10.298"/>
	</g>
	<g>
		<path d="M24,17.245c-11.926,0-24-2.557-24-7.443c0-4.886,12.074-7.443,24-7.443c11.927,0,24,2.557,24,7.443
			C48,14.688,35.927,17.245,24,17.245z M24,4.359c-13.63,0-22,3.17-22,5.443s8.37,5.443,22,5.443c13.631,0,22-3.17,22-5.443
			S37.631,4.359,24,4.359z"/>
		<path d="M24,22.802c-11.926,0-24-2.354-24-6.855h2c0,1.979,8.57,4.855,22,4.855s22-2.875,22-4.855h2
			C48,20.447,35.927,22.802,24,22.802z"/>
		<path d="M24,28.527c-11.926,0-24-2.355-24-6.856h2c0,1.98,8.57,4.856,22,4.856s22-2.876,22-4.856h2
			C48,26.172,35.927,28.527,24,28.527z"/>
		<path d="M27.558,34.255c-0.217,0-0.515-0.006-0.806-0.012c-0.312-0.007-0.616-0.016-0.767-0.011
			c-0.658,0.013-1.316,0.021-1.985,0.021c-11.926,0-24-2.355-24-6.856h2c0,1.98,8.57,4.856,22,4.856
			c0.655,0,1.302-0.008,1.943-0.021c0.176-0.004,0.508,0.004,0.853,0.011c0.354,0.008,0.717,0.014,0.895,0.011l0.072,1.998
			C27.709,34.254,27.639,34.255,27.558,34.255z"/>
		<path d="M43.269,31.665l-0.689-1.877C45.104,28.859,46,27.92,46,27.396h2C48,29.075,46.408,30.511,43.269,31.665z"/>
		<path d="M24,39.977c-11.926,0-24-2.354-24-6.854h2c0,1.979,8.57,4.854,22,4.854c1.405,0,2.758-0.03,4.02-0.089l0.094,1.998
			C26.82,39.946,25.437,39.977,24,39.977z"/>
		<path d="M44.597,36.843l-0.84-1.814C45.411,34.263,46,33.542,46,33.122h2C48,34.546,46.855,35.798,44.597,36.843z"/>
	</g>
</g>
</svg>
