<?xml version="1.0" encoding="utf-8"?>
<!-- Generator: Adobe Illustrator 16.0.0, SVG Export Plug-In . SVG Version: 6.00 Build 0)  -->
<!DOCTYPE svg PUBLIC "-//W3C//DTD SVG 1.1//EN" "http://www.w3.org/Graphics/SVG/1.1/DTD/svg11.dtd">
<svg version="1.1" id="Layer_1" xmlns="http://www.w3.org/2000/svg" xmlns:xlink="http://www.w3.org/1999/xlink" x="0px" y="0px"
	 width="48px" height="48px" viewBox="0 0 48 48" enable-background="new 0 0 48 48" xml:space="preserve">
<g>
	<path d="M11.422,48c-2.071,0.001-3.964-0.761-5.37-2.167l-3.885-3.886c-1.505-1.506-2.27-3.569-2.155-5.811
		c0.113-2.202,1.067-4.307,2.686-5.924L7.009,25.9c3.383-3.382,8.649-3.621,11.737-0.531l-1.414,1.414
		c-2.309-2.309-6.306-2.071-8.909,0.531l-4.311,4.313c-1.268,1.268-2.015,2.905-2.103,4.613c-0.085,1.668,0.473,3.193,1.572,4.293
		l3.885,3.886c1.1,1.101,2.625,1.656,4.293,1.572c1.708-0.088,3.346-0.834,4.613-2.103l4.311-4.312
		c1.27-1.269,2.017-2.907,2.105-4.614c0.086-1.668-0.472-3.192-1.572-4.293l1.414-1.414c1.505,1.506,2.271,3.569,2.155,5.811
		c-0.114,2.201-1.069,4.306-2.689,5.925l-4.31,4.312c-1.618,1.619-3.722,2.573-5.925,2.687C11.715,47.997,11.568,48,11.422,48z"/>
	<path d="M34.625,24.798c-2.069,0-3.962-0.76-5.368-2.166l1.414-1.414c1.101,1.1,2.625,1.653,4.293,1.571
		c1.707-0.088,3.346-0.836,4.614-2.105l4.311-4.31c1.269-1.268,2.016-2.906,2.104-4.614c0.086-1.669-0.473-3.194-1.573-4.293
		L40.533,3.58c-1.1-1.1-2.614-1.657-4.292-1.572c-1.707,0.088-3.346,0.835-4.614,2.104l-4.311,4.31
		c-1.269,1.269-2.016,2.908-2.104,4.616c-0.087,1.669,0.472,3.193,1.571,4.292l-1.414,1.415c-1.505-1.505-2.271-3.568-2.155-5.81
		c0.114-2.203,1.068-4.308,2.688-5.927l4.311-4.31c1.618-1.619,3.723-2.573,5.926-2.687c2.243-0.117,4.305,0.65,5.809,2.155
		l3.886,3.887c1.506,1.504,2.271,3.568,2.156,5.81c-0.113,2.203-1.067,4.308-2.687,5.926l-4.311,4.31
		c-1.619,1.62-3.724,2.575-5.926,2.688C34.919,24.794,34.771,24.798,34.625,24.798z"/>
	<rect x="22.996" y="12.509" transform="matrix(0.7071 0.7071 -0.7071 0.7071 24.0011 -9.937)" width="2" height="22.988"/>
</g>
</svg>
