<?xml version="1.0" encoding="utf-8"?>
<!-- Generator: Adobe Illustrator 16.0.0, SVG Export Plug-In . SVG Version: 6.00 Build 0)  -->
<!DOCTYPE svg PUBLIC "-//W3C//DTD SVG 1.1//EN" "http://www.w3.org/Graphics/SVG/1.1/DTD/svg11.dtd">
<svg version="1.1" id="Layer_1" xmlns="http://www.w3.org/2000/svg" xmlns:xlink="http://www.w3.org/1999/xlink" x="0px" y="0px"
	 width="48px" height="48px" viewBox="0 0 48 48" enable-background="new 0 0 48 48" xml:space="preserve">
<g>
	<g>
		<rect x="34.117" y="36.673" width="9.893" height="2"/>
		<g>
			<path d="M39.063,31.232c3.551,0,6.438,2.89,6.438,6.439c0,3.551-2.89,6.438-6.438,6.438s-6.438-2.889-6.438-6.438
				C32.625,34.122,35.514,31.232,39.063,31.232 M39.063,29.232c-4.66,0-8.438,3.779-8.438,8.439c0,4.659,3.777,8.438,8.438,8.438
				s8.438-3.778,8.438-8.438C47.502,33.014,43.725,29.232,39.063,29.232L39.063,29.232z"/>
		</g>
	</g>
	<path d="M39.793,31.587h-3.645v-2h2.645v-7.91H9.328v7.91h2.327v2H8.328c-0.552,0-1-0.447-1-1v-9.91c0-0.552,0.448-1,1-1h31.465
		c0.553,0,1,0.448,1,1v9.91C40.793,31.14,40.346,31.587,39.793,31.587z"/>
	<path d="M10.884,38.673h-4.45c-3.272,0-5.935-2.663-5.935-5.937V16.183c0-3.272,2.663-5.935,5.935-5.935h35.251
		c3.272,0,5.936,2.663,5.936,5.935v16.555c0,0.698-0.121,1.379-0.358,2.024l-1.877-0.691c0.156-0.424,0.235-0.872,0.235-1.333
		V16.183c0-2.17-1.766-3.935-3.936-3.935H6.434c-2.17,0-3.935,1.765-3.935,3.935v16.553c0,2.171,1.765,3.937,3.935,3.937h4.45
		V38.673z"/>
	<path d="M39.396,46.832H8.725c-0.298,0-0.581-0.133-0.771-0.363s-0.268-0.533-0.211-0.826l3.524-18.291
		c0.091-0.471,0.502-0.811,0.982-0.811h23.622c0.479,0,0.892,0.34,0.982,0.812l0.613,3.189l-1.965,0.377l-0.457-2.378h-21.97
		L9.936,44.832h29.46v0.367l0.862-0.168l0.119,0.609c0.058,0.293-0.02,0.597-0.21,0.827C39.979,46.698,39.695,46.832,39.396,46.832z
		"/>
	<path d="M34.93,12.248H13.191c-0.552,0-1-0.448-1-1V1.889c0-0.552,0.448-1,1-1H34.93c0.553,0,1,0.448,1,1v9.359
		C35.93,11.8,35.482,12.248,34.93,12.248z M14.191,10.248H33.93V2.889H14.191V10.248z"/>
</g>
</svg>
