<?xml version="1.0" encoding="utf-8"?>
<!-- Generator: Adobe Illustrator 16.0.0, SVG Export Plug-In . SVG Version: 6.00 Build 0)  -->
<!DOCTYPE svg PUBLIC "-//W3C//DTD SVG 1.1//EN" "http://www.w3.org/Graphics/SVG/1.1/DTD/svg11.dtd">
<svg version="1.1" id="Layer_1" xmlns="http://www.w3.org/2000/svg" xmlns:xlink="http://www.w3.org/1999/xlink" x="0px" y="0px"
	 width="48px" height="48px" viewBox="0 0 48 48" enable-background="new 0 0 48 48" xml:space="preserve">
<g>
	<path d="M38.914,48c-0.216,0-0.431-0.07-0.609-0.207L19.062,33.009c-0.034-0.025-0.065-0.054-0.095-0.083h-5.662
		c-2.878,0-5.219-2.706-5.219-6.031v-5.789c0-3.325,2.341-6.031,5.219-6.031h5.662c0.03-0.029,0.061-0.057,0.095-0.083L38.305,0.207
		c0.303-0.232,0.709-0.273,1.052-0.104C39.697,0.271,39.914,0.619,39.914,1v46c0,0.381-0.217,0.729-0.558,0.897
		C39.216,47.966,39.064,48,38.914,48z M20.646,31.704l17.268,13.267V3.029L20.646,16.297c-0.101,0.446-0.5,0.778-0.976,0.778h-6.366
		c-1.775,0-3.219,1.808-3.219,4.031v5.789c0,2.223,1.444,4.031,3.219,4.031h6.366C20.147,30.926,20.545,31.259,20.646,31.704z"/>
</g>
</svg>
