<?xml version="1.0" encoding="utf-8"?>
<!-- Generator: Adobe Illustrator 16.0.0, SVG Export Plug-In . SVG Version: 6.00 Build 0)  -->
<!DOCTYPE svg PUBLIC "-//W3C//DTD SVG 1.1//EN" "http://www.w3.org/Graphics/SVG/1.1/DTD/svg11.dtd">
<svg version="1.1" id="Layer_1" xmlns="http://www.w3.org/2000/svg" xmlns:xlink="http://www.w3.org/1999/xlink" x="0px" y="0px"
	 width="48px" height="48px" viewBox="0 0 48 48" enable-background="new 0 0 48 48" xml:space="preserve">
<g>
	<g>
		<rect x="30.647" y="23.001" transform="matrix(0.7072 0.707 -0.707 0.7072 28.7489 -21.4134)" width="19.158" height="2"/>
		<rect x="39.226" y="14.422" transform="matrix(0.7071 0.7071 -0.7071 0.7071 28.753 -21.4145)" width="2" height="19.158"/>
	</g>
	<path d="M30.496,47.743c-0.216,0-0.431-0.07-0.609-0.207L10.858,32.918c-0.032-0.024-0.063-0.051-0.091-0.079H5.173
		C2.32,32.839,0,30.158,0,26.863v-5.724c0-3.295,2.32-5.976,5.173-5.976h5.594c0.029-0.028,0.06-0.055,0.092-0.08l19.028-14.62
		c0.303-0.231,0.709-0.273,1.052-0.104c0.341,0.168,0.558,0.516,0.558,0.897v45.487c0,0.381-0.217,0.729-0.558,0.897
		C30.798,47.709,30.646,47.743,30.496,47.743z M12.442,31.612l17.054,13.102V3.285L12.442,16.388
		c-0.102,0.444-0.5,0.775-0.975,0.775H5.173C3.423,17.163,2,18.947,2,21.139v5.724c0,2.155,1.453,3.976,3.173,3.976h6.295
		C11.942,30.839,12.339,31.169,12.442,31.612z"/>
</g>
</svg>
