<?xml version="1.0" encoding="utf-8"?>
<!-- Generator: Adobe Illustrator 16.0.0, SVG Export Plug-In . SVG Version: 6.00 Build 0)  -->
<!DOCTYPE svg PUBLIC "-//W3C//DTD SVG 1.1//EN" "http://www.w3.org/Graphics/SVG/1.1/DTD/svg11.dtd">
<svg version="1.1" id="Layer_1" xmlns="http://www.w3.org/2000/svg" xmlns:xlink="http://www.w3.org/1999/xlink" x="0px" y="0px"
	 width="48px" height="48px" viewBox="0 0 48 48" enable-background="new 0 0 48 48" xml:space="preserve">
<g>
	<path d="M29.66,47.1c-0.216,0-0.431-0.07-0.609-0.207L10.562,32.688c-0.029-0.022-0.056-0.046-0.082-0.07H5.054
		C2.267,32.617,0,30,0,26.782V21.22c0-3.218,2.267-5.835,5.054-5.835h5.424c0.026-0.025,0.054-0.049,0.083-0.072L29.051,1.107
		c0.304-0.232,0.709-0.273,1.052-0.104C30.443,1.171,30.66,1.519,30.66,1.9v44.2c0,0.381-0.217,0.729-0.558,0.897
		C29.962,47.065,29.811,47.1,29.66,47.1z M12.143,31.38L28.66,44.07V3.929L12.143,16.62c-0.106,0.438-0.501,0.765-0.972,0.765H5.054
		C3.398,17.385,2,19.141,2,21.22v5.562c0,2.079,1.398,3.835,3.054,3.835h6.117C11.642,30.617,12.036,30.942,12.143,31.38z"/>
	<path d="M33.269,44.358l-0.625-1.9C40.633,39.833,46,32.415,46,24c0-8.558-5.485-16.013-13.648-18.551l0.594-1.91
		C41.95,6.339,48,14.562,48,24C48,33.281,42.08,41.463,33.269,44.358z"/>
	<path d="M32.376,37.729l-0.779-1.842c4.787-2.023,7.88-6.689,7.88-11.888c0-5.208-3.102-9.878-7.901-11.897l0.775-1.844
		c5.544,2.332,9.126,7.726,9.126,13.741C41.477,30.004,37.904,35.393,32.376,37.729z"/>
</g>
</svg>
