<?xml version="1.0" encoding="utf-8"?>
<!-- Generator: Adobe Illustrator 16.0.0, SVG Export Plug-In . SVG Version: 6.00 Build 0)  -->
<!DOCTYPE svg PUBLIC "-//W3C//DTD SVG 1.1//EN" "http://www.w3.org/Graphics/SVG/1.1/DTD/svg11.dtd">
<svg version="1.1" id="Layer_1" xmlns="http://www.w3.org/2000/svg" xmlns:xlink="http://www.w3.org/1999/xlink" x="0px" y="0px"
	 width="48px" height="48px" viewBox="0 0 48 48" enable-background="new 0 0 48 48" xml:space="preserve">
<g>
	<path d="M24.042,48.001C10.785,48.001,0,37.216,0,23.958C0,11.53,9.695,1.008,22.073,0.002c0.475-0.042,0.913,0.264,1.043,0.723
		c0.13,0.459-0.082,0.946-0.506,1.164c-5.874,3.006-9.522,8.967-9.522,15.557c0,9.632,7.836,17.469,17.468,17.469
		c6.587,0,12.547-3.649,15.556-9.523c0.217-0.424,0.705-0.635,1.163-0.506c0.459,0.131,0.762,0.567,0.724,1.043
		C46.991,38.306,36.469,48.001,24.042,48.001z M17.635,2.875C8.575,5.651,2,14.158,2,23.958c0,12.154,9.888,22.043,22.042,22.043
		c9.8,0,18.308-6.576,21.082-15.636c-3.643,4.123-8.897,6.55-14.569,6.55c-10.734,0-19.468-8.733-19.468-19.469
		C11.087,11.772,13.513,6.517,17.635,2.875z"/>
</g>
</svg>
