<?xml version="1.0" encoding="utf-8"?>
<!-- Generator: Adobe Illustrator 16.0.0, SVG Export Plug-In . SVG Version: 6.00 Build 0)  -->
<!DOCTYPE svg PUBLIC "-//W3C//DTD SVG 1.1//EN" "http://www.w3.org/Graphics/SVG/1.1/DTD/svg11.dtd">
<svg version="1.1" id="Layer_1" xmlns="http://www.w3.org/2000/svg" xmlns:xlink="http://www.w3.org/1999/xlink" x="0px" y="0px"
	 width="48px" height="48px" viewBox="0 0 48 48" enable-background="new 0 0 48 48" xml:space="preserve">
<g>
	<g>
		<path d="M24,2c12.131,0,22,9.869,22,22s-9.869,22-22,22S2,36.131,2,24S11.869,2,24,2 M24,0C10.745,0,0,10.746,0,24
			c0,13.256,10.745,24,24,24s24-10.744,24-24C48,10.746,37.255,0,24,0L24,0z"/>
	</g>
	<g>
		<path d="M25.831,7.495C34.129,8.409,40.605,15.462,40.605,24c0,8.538-6.477,15.591-14.774,16.505V7.495 M24,5.395
			c-0.056,0-0.112,0.004-0.169,0.004v37.203c0.057,0.002,0.113,0.004,0.169,0.004c10.275,0,18.605-8.33,18.605-18.605
			S34.275,5.395,24,5.395L24,5.395z"/>
	</g>
</g>
</svg>
