<?xml version="1.0" encoding="utf-8"?>
<!-- Generator: Adobe Illustrator 16.0.0, SVG Export Plug-In . SVG Version: 6.00 Build 0)  -->
<!DOCTYPE svg PUBLIC "-//W3C//DTD SVG 1.1//EN" "http://www.w3.org/Graphics/SVG/1.1/DTD/svg11.dtd">
<svg version="1.1" id="Layer_1" xmlns="http://www.w3.org/2000/svg" xmlns:xlink="http://www.w3.org/1999/xlink" x="0px" y="0px"
	 width="48px" height="48px" viewBox="0 0 48 48" enable-background="new 0 0 48 48" xml:space="preserve">
<g>
	<g>
		<path d="M23.391,11.177v2c7.267,0,14.628,3.679,21.902,10.94c-2.842,3.109-10.855,10.706-21.313,10.706
			c-7.262,0-14.435-3.661-21.341-10.888c2.642-3.082,10.273-10.757,20.749-10.758L23.391,11.177 M23.388,11.177
			C9.167,11.179,0,24.031,0,24.031c8.653,9.595,16.868,12.792,23.98,12.792C38.201,36.823,48,24.031,48,24.031
			C38.873,14.39,30.5,11.177,23.388,11.177L23.388,11.177z"/>
	</g>
	<path d="M24,34.908c-6.016,0-10.91-4.895-10.91-10.91c0-6.015,4.894-10.908,10.91-10.908c6.016,0,10.91,4.894,10.91,10.908
		C34.91,30.014,30.016,34.908,24,34.908z M24,15.09c-4.913,0-8.91,3.996-8.91,8.908c0,4.913,3.997,8.91,8.91,8.91
		s8.91-3.997,8.91-8.91C32.91,19.086,28.913,15.09,24,15.09z"/>
	<path d="M24,30.384c-3.52,0-6.383-2.864-6.383-6.385c0-0.074,0.004-0.146,0.009-0.219l0.029-0.862l0.861-0.174l2.943-0.336
		l-2.465-2.497l0.794-0.7c1.166-1.027,2.662-1.592,4.211-1.592c3.52,0,6.383,2.862,6.383,6.381C30.383,27.52,27.52,30.384,24,30.384
		z M19.675,24.624c0.328,2.156,2.143,3.76,4.325,3.76c2.417,0,4.383-1.967,4.383-4.385c0-2.416-1.966-4.381-4.383-4.381
		c-0.701,0-1.387,0.169-2.002,0.487l3.772,3.822L19.675,24.624z"/>
</g>
</svg>
