<?xml version="1.0" encoding="utf-8"?>
<!-- Generator: Adobe Illustrator 16.0.0, SVG Export Plug-In . SVG Version: 6.00 Build 0)  -->
<!DOCTYPE svg PUBLIC "-//W3C//DTD SVG 1.1//EN" "http://www.w3.org/Graphics/SVG/1.1/DTD/svg11.dtd">
<svg version="1.1" id="Layer_1" xmlns="http://www.w3.org/2000/svg" xmlns:xlink="http://www.w3.org/1999/xlink" x="0px" y="0px"
	 width="48px" height="48px" viewBox="0 0 48 48" enable-background="new 0 0 48 48" xml:space="preserve">
<g>
	<g>
		<path d="M23.39,5.344v2l0,0c7.317,0,14.803,5.644,22.264,16.779c-2.219,3.732-10.631,16.533-21.674,16.533
			c-7.309,0-14.596-5.615-21.67-16.694c2.044-3.68,10.021-16.616,21.078-16.618L23.39,5.344 M23.388,5.344
			C9.167,5.347,0,24.046,0,24.046c8.653,13.959,16.868,18.61,23.98,18.61c14.221,0,24.02-18.61,24.02-18.61
			C38.873,10.018,30.5,5.343,23.388,5.344L23.388,5.344z"/>
	</g>
	<path d="M24,39.041c-8.294,0-15.042-6.748-15.042-15.042S15.706,8.957,24,8.957s15.042,6.748,15.042,15.042
		S32.294,39.041,24,39.041z M24,10.957c-7.191,0-13.042,5.851-13.042,13.042S16.809,37.041,24,37.041s13.042-5.851,13.042-13.042
		S31.191,10.957,24,10.957z"/>
	<path d="M24.001,33.682c-5.338,0-9.68-4.344-9.68-9.683c0-0.116,0.007-0.23,0.015-0.345l0.049-0.976l6.84-0.783l-4.405-4.46
		l0.797-0.7c1.773-1.557,4.04-2.415,6.383-2.415c5.336,0,9.68,4.341,9.682,9.678C33.682,29.338,29.339,33.682,24.001,33.682z
		 M16.335,24.468c0.243,4.018,3.588,7.213,7.666,7.213c4.235,0,7.681-3.446,7.681-7.683c-0.002-4.233-3.447-7.678-7.682-7.678
		c-1.502,0-2.965,0.445-4.215,1.27l5.752,5.824L16.335,24.468z"/>
</g>
</svg>
