<?xml version="1.0" encoding="utf-8"?>
<!-- Generator: Adobe Illustrator 16.0.0, SVG Export Plug-In . SVG Version: 6.00 Build 0)  -->
<!DOCTYPE svg PUBLIC "-//W3C//DTD SVG 1.1//EN" "http://www.w3.org/Graphics/SVG/1.1/DTD/svg11.dtd">
<svg version="1.1" id="Layer_1" xmlns="http://www.w3.org/2000/svg" xmlns:xlink="http://www.w3.org/1999/xlink" x="0px" y="0px"
	 width="48px" height="48px" viewBox="0 0 48 48" enable-background="new 0 0 48 48" xml:space="preserve">
<g>
	<path d="M24,47.953c-13.233,0-24-10.757-24-23.978C0,10.753,10.767-0.003,24-0.003s24,10.756,24,23.978
		C48,37.196,37.233,47.953,24,47.953z M24,1.997c-12.131,0-22,9.859-22,21.978s9.869,21.978,22,21.978s22-9.859,22-21.978
		S36.131,1.997,24,1.997z"/>
	<path d="M30.768,22.488c-0.231,0-0.459-0.081-0.641-0.232l-7.508-6.267c-0.228-0.19-0.359-0.471-0.359-0.768V7.724
		c0-0.316,0.149-0.613,0.402-0.802l7.618-5.678c0.259-0.193,0.596-0.248,0.902-0.151c0.146,0.047,3.616,1.169,6.347,3.08
		c3.623,2.534,5.153,4.75,5.217,4.842c0.179,0.262,0.223,0.594,0.118,0.893l-3.423,9.785c-0.108,0.31-0.362,0.547-0.68,0.634
		l-7.729,2.125C30.945,22.476,30.856,22.488,30.768,22.488z M24.26,14.753l6.747,5.631l6.72-1.847l3.07-8.779
		c-0.566-0.691-1.97-2.238-4.414-3.947c-1.921-1.344-4.324-2.285-5.331-2.647L24.26,8.226V14.753z"/>
	<path d="M14.411,22.488c-0.113,0-0.227-0.019-0.336-0.058l-6.274-2.237c-0.263-0.094-0.476-0.294-0.584-0.551l-3.352-7.901
		c-0.14-0.329-0.093-0.707,0.122-0.992C9.078,3.986,15.4,1.516,15.776,1.516c0.204,0,0.403,0.063,0.571,0.179l7.485,5.208
		c0.269,0.187,0.429,0.494,0.429,0.821v7.497c0,0.324-0.157,0.628-0.422,0.816l-8.85,6.267
		C14.818,22.425,14.615,22.488,14.411,22.488z M8.886,18.457l5.371,1.915l8.003-5.667V8.247L15.66,3.653
		c-1.431,0.652-5.885,2.955-9.726,7.844L8.886,18.457z"/>
	<path d="M5.328,38.386c-0.331,0-0.646-0.166-0.833-0.445l0.831-0.557l-0.833,0.554c-0.498-0.742-4.853-7.41-4.465-12.935
		c0.02-0.274,0.151-0.529,0.364-0.704l7.11-5.822c0.271-0.222,0.64-0.286,0.97-0.168l6.274,2.237
		c0.295,0.105,0.523,0.342,0.618,0.641l3.248,10.297c0.101,0.32,0.035,0.67-0.177,0.932l-3.635,4.476
		c-0.162,0.198-0.394,0.328-0.648,0.361l-8.696,1.125C5.413,38.383,5.37,38.386,5.328,38.386z M2.005,25.564
		c-0.076,4.13,2.821,9.145,3.821,10.748l7.672-0.992l3.044-3.748l-2.937-9.31l-5.274-1.88L2.005,25.564z"/>
	<path d="M42.671,38.386c-0.034,0-0.069-0.002-0.104-0.006l-10.782-1.125c-0.281-0.029-0.536-0.176-0.703-0.403l-3.361-4.588
		c-0.17-0.231-0.231-0.525-0.17-0.806l2.242-10.185c0.08-0.363,0.354-0.651,0.712-0.75l7.728-2.124
		c0.304-0.083,0.633-0.019,0.883,0.178l8.413,6.61c0.233,0.184,0.373,0.462,0.382,0.759c0.149,5.523-4.237,11.756-4.425,12.019
		C43.297,38.23,42.992,38.386,42.671,38.386z M32.434,35.313l9.742,1.017c0.94-1.448,3.632-5.926,3.734-9.868l-7.635-5.999
		l-6.659,1.83l-2.015,9.154L32.434,35.313z"/>
	<path d="M24.649,48.001L24.649,48.001c-3.643,0-7.107-0.928-7.253-0.968c-0.312-0.084-0.563-0.314-0.676-0.617l-3.635-9.808
		c-0.123-0.332-0.062-0.704,0.161-0.979l3.635-4.475c0.197-0.241,0.495-0.374,0.807-0.369l10.87,0.335
		c0.29,0.01,0.563,0.145,0.745,0.37l3.359,4.141c0.214,0.264,0.279,0.618,0.174,0.941l-3.359,10.244
		c-0.102,0.31-0.347,0.55-0.658,0.645C27.647,47.82,26.244,48.001,24.649,48.001z M18.412,45.225
		c1.051,0.245,3.632,0.776,6.238,0.776l0,0c1.173,0,2.211-0.106,3.096-0.318l3.021-9.214l-2.728-3.362l-9.917-0.306l-2.963,3.647
		L18.412,45.225z"/>
</g>
</svg>
