<?xml version="1.0" encoding="utf-8"?>
<!-- Generator: Adobe Illustrator 16.0.0, SVG Export Plug-In . SVG Version: 6.00 Build 0)  -->
<!DOCTYPE svg PUBLIC "-//W3C//DTD SVG 1.1//EN" "http://www.w3.org/Graphics/SVG/1.1/DTD/svg11.dtd">
<svg version="1.1" id="Layer_1" xmlns="http://www.w3.org/2000/svg" xmlns:xlink="http://www.w3.org/1999/xlink" x="0px" y="0px"
	 width="48px" height="48px" viewBox="0 0 48 48" enable-background="new 0 0 48 48" xml:space="preserve">
<g>
	<path d="M24,48C10.767,48,0,37.233,0,24S10.767,0,24,0s24,10.767,24,24S37.233,48,24,48z M24,2C11.869,2,2,11.869,2,24
		s9.869,22,22,22s22-9.869,22-22S36.131,2,24,2z"/>
	<g>
		<path d="M9.267,41.126l-1.203-1.598c4.758-3.581,7.487-9.046,7.487-14.991c0-6.586-3.359-12.571-8.985-16.009l1.043-1.707
			c6.226,3.804,9.942,10.427,9.942,17.716C17.551,31.117,14.531,37.163,9.267,41.126z"/>
		<path d="M38.732,41.126c-5.265-3.963-8.284-10.009-8.284-16.589c0-7.289,3.717-13.912,9.943-17.716l1.043,1.707
			c-5.627,3.438-8.986,9.422-8.986,16.009c0,5.945,2.729,11.41,7.487,14.991L38.732,41.126z"/>
	</g>
	<rect x="13.068" y="23.7" width="6.792" height="2"/>
	<rect x="12.218" y="18.888" width="6.793" height="2"/>
	<rect x="12.313" y="28.32" width="6.792" height="2"/>
	<rect x="10.332" y="14.171" width="6.792" height="2"/>
	<rect x="10.426" y="32.943" width="6.793" height="2"/>
	<rect x="27.452" y="23.7" width="6.792" height="2"/>
	<rect x="28.301" y="18.888" width="6.792" height="2"/>
	<rect x="28.207" y="28.32" width="6.792" height="2"/>
	<rect x="30.188" y="14.171" width="6.791" height="2"/>
	<rect x="30.094" y="32.943" width="6.793" height="2"/>
</g>
</svg>
