<?xml version="1.0" encoding="utf-8"?>
<!-- Generator: Adobe Illustrator 16.0.0, SVG Export Plug-In . SVG Version: 6.00 Build 0)  -->
<!DOCTYPE svg PUBLIC "-//W3C//DTD SVG 1.1//EN" "http://www.w3.org/Graphics/SVG/1.1/DTD/svg11.dtd">
<svg version="1.1" id="Layer_1" xmlns="http://www.w3.org/2000/svg" xmlns:xlink="http://www.w3.org/1999/xlink" x="0px" y="0px"
	 width="48px" height="48px" viewBox="0 0 48 48" enable-background="new 0 0 48 48" xml:space="preserve">
<g>
	<g>
		<path d="M24,2c0.651,0,1.849,1.551,1.849,4.086c0,1.124-0.245,2.191-0.691,3.01c-0.01,0.017-0.02,0.034-0.029,0.051
			c-0.101,0.181-0.214,0.349-0.338,0.498c-0.082,0.1-0.154,0.207-0.217,0.321c-0.415,0.765-0.67,1.613-0.767,2.524
			c-0.203-1.583-0.676-2.765-0.842-3.143c-0.031-0.077-0.067-0.153-0.107-0.227c-0.454-0.82-0.704-1.898-0.704-3.034
			C22.153,3.551,23.349,2,24,2 M23.871,14.736c0.193,1.273,0.643,2.624,1.347,4.01c0.103,0.202,0.238,0.385,0.402,0.541
			c2.222,2.121,4.613,8.421,4.613,17.243c0,3.362-0.353,6.604-1.024,9.471H18.791c-0.672-2.867-1.024-6.108-1.024-9.471
			c0-6.63,1.399-12.791,3.652-16.09c0.008-0.011,0.015-0.021,0.022-0.032c0.215-0.313,0.442-0.601,0.676-0.856
			c0.069-0.075,0.132-0.155,0.188-0.239C23.333,17.778,23.761,16.188,23.871,14.736 M24,0c-2.126,0-3.847,2.725-3.847,6.086
			c0,1.535,0.361,2.932,0.953,4.002h-0.002c0,0,2.069,4.332-0.461,8.111c-0.294,0.32-0.578,0.678-0.852,1.076
			c-0.004,0.004-0.005,0.006-0.008,0.008h0.002c-2.407,3.504-4.02,9.914-4.02,17.246c0,4.268,0.547,8.219,1.478,11.471h13.512
			c0.931-3.252,1.478-7.203,1.478-11.471c0-8.502-2.169-15.766-5.232-18.689c-0.869-1.711-1.924-4.611-0.67-6.92
			c0.197-0.238,0.381-0.506,0.545-0.801c0.008-0.01,0.014-0.02,0.023-0.031h-0.005c0.592-1.07,0.954-2.467,0.954-4.002
			C27.849,2.725,26.126,0,24,0L24,0z"/>
	</g>
</g>
</svg>
