<?xml version="1.0" encoding="utf-8"?>
<!-- Generator: Adobe Illustrator 16.0.0, SVG Export Plug-In . SVG Version: 6.00 Build 0)  -->
<!DOCTYPE svg PUBLIC "-//W3C//DTD SVG 1.1//EN" "http://www.w3.org/Graphics/SVG/1.1/DTD/svg11.dtd">
<svg version="1.1" id="Layer_1" xmlns="http://www.w3.org/2000/svg" xmlns:xlink="http://www.w3.org/1999/xlink" x="0px" y="0px"
	 width="48px" height="48px" viewBox="0 0 48 48" enable-background="new 0 0 48 48" xml:space="preserve">
<g>
	<path d="M24,48C10.767,48,0,37.233,0,24S10.767,0,24,0s24,10.767,24,24S37.233,48,24,48z M24,2C11.869,2,2,11.869,2,24
		s9.869,22,22,22s22-9.869,22-22S36.131,2,24,2z"/>
	<path d="M24,37.626c-7.513,0-13.626-6.112-13.626-13.626c0-7.513,6.113-13.626,13.626-13.626c7.514,0,13.626,6.113,13.626,13.626
		C37.626,31.514,31.514,37.626,24,37.626z M24,12.374c-6.411,0-11.626,5.215-11.626,11.626c0,6.41,5.215,11.626,11.626,11.626
		c6.41,0,11.626-5.216,11.626-11.626C35.626,17.589,30.41,12.374,24,12.374z"/>
	<g>
		<path d="M19.823,27.096c0-1.557,0.93-2.66,2.45-3.305l-0.019-0.056c-1.367-0.646-1.957-1.709-1.957-2.774
			c0-1.956,1.652-3.287,3.818-3.287c2.393,0,3.59,1.501,3.59,3.04c0,1.044-0.514,2.166-2.032,2.888v0.056
			c1.539,0.608,2.489,1.691,2.489,3.191c0,2.146-1.844,3.59-4.199,3.59C21.38,30.438,19.823,28.9,19.823,27.096z M26.473,27.02
			c0-1.5-1.046-2.223-2.718-2.698c-1.443,0.419-2.222,1.37-2.222,2.545c-0.057,1.254,0.893,2.355,2.469,2.355
			C25.503,29.225,26.473,28.292,26.473,27.02z M21.875,20.846c0,1.235,0.931,1.9,2.356,2.28c1.063-0.361,1.88-1.121,1.88-2.241
			c0-0.988-0.59-2.014-2.09-2.014C22.635,18.872,21.875,19.783,21.875,20.846z"/>
	</g>
</g>
</svg>
