<?xml version="1.0" encoding="utf-8"?>
<!-- Generator: Adobe Illustrator 16.0.0, SVG Export Plug-In . SVG Version: 6.00 Build 0)  -->
<!DOCTYPE svg PUBLIC "-//W3C//DTD SVG 1.1//EN" "http://www.w3.org/Graphics/SVG/1.1/DTD/svg11.dtd">
<svg version="1.1" id="Layer_1" xmlns="http://www.w3.org/2000/svg" xmlns:xlink="http://www.w3.org/1999/xlink" x="0px" y="0px"
	 width="48px" height="48px" viewBox="0 0 48 48" enable-background="new 0 0 48 48" xml:space="preserve">
<g>
	<g>
		<polygon points="14.81,27.505 0.832,3.913 6.83,-0.447 21.442,23.561 19.734,24.601 6.25,2.447 3.48,4.459 16.53,26.485 		"/>
	</g>
	<g>
		<polygon points="33.189,27.505 31.469,26.485 44.519,4.459 41.75,2.447 28.267,24.601 26.558,23.561 41.17,-0.447 47.167,3.913 		
			"/>
	</g>
	<polygon points="37.493,7.868 10.284,7.868 9.293,6.216 38.518,6.216 	"/>
	<rect x="9.822" y="5.716" width="28.159" height="2"/>
	<rect x="6.749" width="34.419" height="2"/>
	<path d="M24,48.002c-7.158,0-12.981-5.823-12.981-12.98c0-7.158,5.823-12.981,12.981-12.981c7.157,0,12.98,5.823,12.98,12.981
		C36.98,42.179,31.157,48.002,24,48.002z M24,24.04c-6.055,0-10.981,4.926-10.981,10.981c0,6.055,4.926,10.98,10.981,10.98
		s10.98-4.926,10.98-10.98C34.98,28.966,30.055,24.04,24,24.04z"/>
	<g>
		<path d="M28.352,43.759h-8.788c-0.294,0-0.573-0.129-0.763-0.354c-0.19-0.224-0.272-0.52-0.224-0.81l0.207-1.251
			c0.058-0.351,0.297-0.644,0.628-0.771l2.273-0.873v-2.44l-2.904-1.361c-0.32-0.149-0.537-0.458-0.571-0.81l-0.716-7.432
			c-0.027-0.28,0.066-0.56,0.255-0.769c0.189-0.208,0.458-0.327,0.74-0.327h10.936c0.282,0,0.551,0.119,0.74,0.328
			c0.189,0.208,0.282,0.487,0.255,0.769l-0.719,7.432c-0.034,0.352-0.251,0.658-0.57,0.809l-2.901,1.361v2.44l2.272,0.873
			c0.331,0.127,0.57,0.42,0.628,0.771l0.207,1.251c0.048,0.29-0.033,0.586-0.224,0.81C28.924,43.63,28.646,43.759,28.352,43.759z
			 M21.907,41.759h4.102l-1.137-0.437c-0.387-0.148-0.642-0.52-0.642-0.934v-3.764c0-0.388,0.224-0.74,0.575-0.905l2.961-1.389
			l0.558-5.769h-8.733l0.556,5.769l2.963,1.389c0.351,0.164,0.576,0.518,0.576,0.905v3.764c0,0.414-0.255,0.785-0.642,0.934
			L21.907,41.759z"/>
	</g>
</g>
</svg>
