<?xml version="1.0" encoding="utf-8"?>
<!-- Generator: Adobe Illustrator 16.0.0, SVG Export Plug-In . SVG Version: 6.00 Build 0)  -->
<!DOCTYPE svg PUBLIC "-//W3C//DTD SVG 1.1//EN" "http://www.w3.org/Graphics/SVG/1.1/DTD/svg11.dtd">
<svg version="1.1" id="Layer_1" xmlns="http://www.w3.org/2000/svg" xmlns:xlink="http://www.w3.org/1999/xlink" x="0px" y="0px"
	 width="48px" height="48px" viewBox="0 0 48 48" enable-background="new 0 0 48 48" xml:space="preserve">
<g>
	<g>
		<path d="M24,30.675c-4.086,0-7.41-4.935-7.41-11V11c0-6.065,3.324-11,7.41-11s7.41,4.935,7.41,11v8.675
			C31.41,25.74,28.086,30.675,24,30.675z M24,2c-2.933,0-5.41,4.122-5.41,9v8.675c0,4.879,2.478,9,5.41,9s5.41-4.121,5.41-9V11
			C29.41,6.122,26.933,2,24,2z"/>
	</g>
	<g>
		<path d="M24,30.675c-4.086,0-7.41-4.935-7.41-11V11c0-6.065,3.324-11,7.41-11s7.41,4.935,7.41,11v8.675
			C31.41,25.74,28.086,30.675,24,30.675z M24,2c-2.933,0-5.41,4.122-5.41,9v8.675c0,4.879,2.478,9,5.41,9s5.41-4.121,5.41-9V11
			C29.41,6.122,26.933,2,24,2z"/>
	</g>
	<path d="M24.258,35.188h-0.517c-5.686,0-10.312-5.128-10.312-11.431v-6.284h2v6.284c0,5.2,3.729,9.431,8.312,9.431h0.517
		c4.584,0,8.313-4.23,8.313-9.431v-6.284h2v6.284C34.57,30.06,29.944,35.188,24.258,35.188z"/>
	<rect x="23" y="34.689" width="2" height="12.311"/>
	<rect x="17.478" y="46" width="13.045" height="2"/>
	<rect x="17.978" y="14.339" width="12.043" height="2"/>
</g>
</svg>
