<?xml version="1.0" encoding="utf-8"?>
<!-- Generator: Adobe Illustrator 16.0.0, SVG Export Plug-In . SVG Version: 6.00 Build 0)  -->
<!DOCTYPE svg PUBLIC "-//W3C//DTD SVG 1.1//EN" "http://www.w3.org/Graphics/SVG/1.1/DTD/svg11.dtd">
<svg version="1.1" id="Layer_1" xmlns="http://www.w3.org/2000/svg" xmlns:xlink="http://www.w3.org/1999/xlink" x="0px" y="0px"
	 width="48px" height="48px" viewBox="0 0 48 48" enable-background="new 0 0 48 48" xml:space="preserve">
<g>
	<path d="M17.565,30.726c-2.181,0-4.248-0.812-5.82-2.284c-1.667-1.561-2.616-3.693-2.674-6.005
		c-0.058-2.306,0.78-4.504,2.358-6.188L24.066,2.76C25.709,1.006,28.031,0,30.436,0c2.181,0,4.247,0.811,5.82,2.283
		c3.447,3.231,3.589,8.7,0.316,12.192l-12.636,13.49C22.292,29.72,19.97,30.726,17.565,30.726z M30.436,2
		c-1.854,0-3.644,0.775-4.91,2.128L12.888,17.616c-1.217,1.298-1.862,2.993-1.818,4.771c0.044,1.772,0.77,3.404,2.042,4.596
		c1.201,1.124,2.782,1.743,4.453,1.743c1.854,0,3.644-0.775,4.912-2.128l12.637-13.49c2.518-2.688,2.417-6.889-0.225-9.366
		C33.688,2.619,32.106,2,30.436,2z"/>
	<rect x="19.024" y="34.448" width="2" height="12.552"/>
	<rect x="13.374" y="46" width="13.302" height="2"/>
	<path d="M19.713,34.979c-1.183,0-2.866-0.221-4.143-1.282c-1.156-0.961-1.742-2.375-1.742-4.205h2c0,1.224,0.333,2.097,1.02,2.667
		c1.41,1.172,3.909,0.746,3.933,0.741c0.061-0.011,0.117-0.034,0.185-0.017c0.002,0,0.005,0,0.008,0
		c4.015,0,4.247-4.805,4.259-5.354c0.093-3.748,0.001-15.088,0-15.202l2-0.017c0.001,0.115,0.093,11.487,0,15.268
		c-0.065,2.7-1.443,7.257-6.184,7.305C20.844,34.915,20.352,34.979,19.713,34.979z"/>
</g>
</svg>
