<?xml version="1.0" encoding="utf-8"?>
<!-- Generator: Adobe Illustrator 16.0.0, SVG Export Plug-In . SVG Version: 6.00 Build 0)  -->
<!DOCTYPE svg PUBLIC "-//W3C//DTD SVG 1.1//EN" "http://www.w3.org/Graphics/SVG/1.1/DTD/svg11.dtd">
<svg version="1.1" id="Layer_1" xmlns="http://www.w3.org/2000/svg" xmlns:xlink="http://www.w3.org/1999/xlink" x="0px" y="0px"
	 width="48px" height="48px" viewBox="0 0 48 48" enable-background="new 0 0 48 48" xml:space="preserve">
<g>
	<path d="M29.863,48H12.338L9.291,10.563h23.621L29.863,48z M14.182,46H28.02l2.722-33.437H11.459L14.182,46z"/>
	<path d="M19.966,24.28c-0.29,0-0.587-0.026-0.892-0.082c-0.974-0.18-1.715-0.743-2.37-1.241c-0.501-0.381-0.974-0.74-1.426-0.821
		c-0.519-0.094-1.118-0.031-1.425,0.149c-0.103,0.061-0.307,0.236-0.487,0.391c-0.545,0.468-1.163,1-1.878,1.021l-0.06-1.999
		c-0.061,0.002-0.095,0.014-0.096,0.014c0.149-0.054,0.527-0.378,0.73-0.553c0.267-0.229,0.518-0.445,0.775-0.597
		c0.864-0.508,2.01-0.537,2.795-0.394c0.924,0.165,1.646,0.714,2.283,1.198c0.522,0.397,1.016,0.772,1.521,0.866
		c1.354,0.251,2.577-0.498,3.992-1.365c1.17-0.715,2.379-1.456,3.795-1.672c1.426-0.215,3.091-0.248,4.631,1.152l-1.346,1.479
		c-0.761-0.691-1.57-0.87-2.984-0.655c-1.017,0.156-2.005,0.761-3.052,1.401C23.153,23.38,21.682,24.28,19.966,24.28z"/>
	<path d="M24.012,22.494l-1.946-0.461l4.697-19.787c0.418-1.129,2.082-2.985,5.368-1.936c3.442,1.102,5.767,2.023,5.863,2.062
		l-0.738,1.858c-0.023-0.009-2.362-0.936-5.734-2.015C29.404,1.54,28.766,2.661,28.655,2.9L24.012,22.494z"/>
</g>
</svg>
