<?xml version="1.0" encoding="utf-8"?>
<!-- Generator: Adobe Illustrator 16.0.0, SVG Export Plug-In . SVG Version: 6.00 Build 0)  -->
<!DOCTYPE svg PUBLIC "-//W3C//DTD SVG 1.1//EN" "http://www.w3.org/Graphics/SVG/1.1/DTD/svg11.dtd">
<svg version="1.1" id="Layer_1" xmlns="http://www.w3.org/2000/svg" xmlns:xlink="http://www.w3.org/1999/xlink" x="0px" y="0px"
	 width="48px" height="48px" viewBox="0 0 48 48" enable-background="new 0 0 48 48" xml:space="preserve">
<g>
	<path d="M32.762,48H15.238L12.19,10.564h23.62L32.762,48z M17.082,46h13.836l2.722-33.436H14.36L17.082,46z"/>
	<path d="M36.18,9.511h-24.36L15.473,0h17.054L36.18,9.511z M14.73,7.511H33.27L31.152,2H16.847L14.73,7.511z"/>
	<path d="M24,36.009c-4.137,0-7.502-3.365-7.502-7.502s3.365-7.502,7.502-7.502s7.502,3.365,7.502,7.502S28.137,36.009,24,36.009z
		 M24,23.005c-3.034,0-5.502,2.468-5.502,5.502s2.468,5.502,5.502,5.502c3.034,0,5.502-2.468,5.502-5.502S27.034,23.005,24,23.005z"
		/>
	<rect x="19.108" y="3.755" width="9.785" height="2"/>
	<rect x="23" y="14.317" width="2" height="5.125"/>
	<rect x="23" y="38.355" width="2" height="5.123"/>
	<path d="M32.762,48H15.238l-3.047-37.436H35.81L32.762,48z M17.082,46h13.836l2.722-33.436H14.36L17.082,46z"/>
</g>
</svg>
