<?xml version="1.0" encoding="utf-8"?>
<!-- Generator: Adobe Illustrator 16.0.0, SVG Export Plug-In . SVG Version: 6.00 Build 0)  -->
<!DOCTYPE svg PUBLIC "-//W3C//DTD SVG 1.1//EN" "http://www.w3.org/Graphics/SVG/1.1/DTD/svg11.dtd">
<svg version="1.1" id="Layer_1" xmlns="http://www.w3.org/2000/svg" xmlns:xlink="http://www.w3.org/1999/xlink" x="0px" y="0px"
	 width="48px" height="48px" viewBox="0 0 48 48" enable-background="new 0 0 48 48" xml:space="preserve">
<g>
	<g>
		<path d="M23.999,25.518c-12.813,0-23.236-10.423-23.236-23.235c0-0.316,0.02-0.627,0.04-0.938L0.876,0h46.243l0.075,1.319
			c0.021,0.319,0.042,0.638,0.042,0.963C47.236,15.094,36.813,25.518,23.999,25.518z M2.769,2C2.766,2.094,2.763,2.188,2.763,2.282
			c0,11.709,9.526,21.235,21.236,21.235c11.71,0,21.237-9.526,21.237-21.235c0-0.095-0.002-0.188-0.006-0.282H2.769z"/>
		<rect x="22.999" y="24.52" width="2" height="22.48"/>
		<rect x="13.167" y="46" width="21.664" height="2"/>
	</g>
	<path d="M42.434,13.041c-1.334-1.703-3.521-2.833-5.483-3.713c-0.893-0.4-1.855-0.774-2.712-1.052
		c-1.257-0.408-2.33-0.488-3.758-0.488c-3.239,0.002-6.271,0.698-9.349,1.473c-1.047,0.262-2.129,0.625-3.175,0.976
		c-0.557,0.187-1.112,0.373-1.664,0.546c-2.019,0.63-4.078,0.715-5.826,0.715c-1.948,0-3.507-0.133-5.056-0.432
		c-0.307-0.06-0.697-0.185-1.111-0.317c-0.325-0.104-0.868-0.278-1.033-0.292L3.141,8.463c0.425-0.042,0.922,0.109,1.769,0.38
		c0.334,0.107,0.66,0.215,0.88,0.258c1.418,0.274,2.861,0.396,4.677,0.396c1.597,0,3.468-0.074,5.229-0.625
		c0.539-0.168,1.081-0.351,1.625-0.533c1.083-0.363,2.203-0.739,3.324-1.02c3.204-0.806,6.368-1.531,9.835-1.533
		c1.589,0,2.874,0.098,4.376,0.586c0.923,0.3,1.957,0.701,2.913,1.129c2.187,0.98,4.637,2.259,6.239,4.305L42.434,13.041z"/>
</g>
</svg>
