<?xml version="1.0" encoding="utf-8"?>
<!-- Generator: Adobe Illustrator 16.0.0, SVG Export Plug-In . SVG Version: 6.00 Build 0)  -->
<!DOCTYPE svg PUBLIC "-//W3C//DTD SVG 1.1//EN" "http://www.w3.org/Graphics/SVG/1.1/DTD/svg11.dtd">
<svg version="1.1" id="Layer_1" xmlns="http://www.w3.org/2000/svg" xmlns:xlink="http://www.w3.org/1999/xlink" x="0px" y="0px"
	 width="48px" height="48px" viewBox="0 0 48 48" enable-background="new 0 0 48 48" xml:space="preserve">
<g>
	<path d="M23.179,42.934c-8.476,0-15.371-9.698-15.371-21.62c0-1.524,0.116-3.058,0.344-4.558l0.129-0.85h29.795l0.129,0.85
		c0.229,1.5,0.344,3.034,0.344,4.558C38.55,33.235,31.654,42.934,23.179,42.934z M10.014,17.906
		c-0.137,1.127-0.206,2.271-0.206,3.408c0,10.818,5.998,19.62,13.371,19.62c7.373,0,13.371-8.802,13.371-19.62
		c0-1.137-0.068-2.28-0.205-3.408H10.014z"/>
	<path d="M23.179,48c-5.396,0-10.476-0.267-14.304-0.75c-5.619-0.709-6.748-1.591-6.748-2.782s1.129-2.072,6.748-2.782
		c3.828-0.483,8.908-0.75,14.304-0.75c5.395,0,10.475,0.267,14.303,0.75c5.619,0.71,6.748,1.591,6.748,2.782
		s-1.129,2.073-6.748,2.782C33.655,47.733,28.575,48,23.179,48z M4.833,44.468C7.163,45.201,13.738,46,23.179,46
		c9.441,0,16.016-0.799,18.345-1.532c-2.33-0.733-8.904-1.532-18.345-1.532S7.164,43.734,4.833,44.468z"/>
	<path d="M40.058,35.618c-0.135,0-0.27-0.01-0.404-0.028c-2.769-0.381-4.337-4.444-3.649-9.452c0.682-4.964,3.297-8.497,6.063-8.119
		c1.428,0.196,2.576,1.379,3.23,3.331c0.576,1.716,0.725,3.89,0.418,6.121C45.066,32.191,42.688,35.618,40.058,35.618z
		 M41.66,19.991c-1.321,0-3.155,2.636-3.676,6.418c-0.534,3.895,0.584,7.013,1.941,7.2c1.364,0.188,3.271-2.502,3.809-6.41
		c0.265-1.933,0.146-3.784-0.333-5.213c-0.389-1.159-0.99-1.901-1.607-1.986C41.749,19.994,41.705,19.991,41.66,19.991z"/>
	<g>
		<path d="M17.974,13.527c-1.238-3.046-1.073-4.612,0.766-7.284c1.179-1.716,0.809-2.878-0.404-4.686l1.66-1.114
			c1.529,2.278,2.181,4.329,0.392,6.934c-1.473,2.14-1.557,2.947-0.561,5.398L17.974,13.527z"/>
		<path d="M22.726,13.527c-1.238-3.045-1.073-4.611,0.767-7.284c1.177-1.716,0.807-2.878-0.406-4.686l1.66-1.115
			c1.529,2.278,2.182,4.328,0.395,6.933c-1.474,2.142-1.558,2.949-0.563,5.399L22.726,13.527z"/>
		<path d="M27.476,13.528c-1.237-3.044-1.073-4.61,0.767-7.285c1.179-1.716,0.809-2.878-0.405-4.686l1.66-1.115
			c1.529,2.278,2.182,4.329,0.394,6.934c-1.474,2.143-1.558,2.95-0.562,5.398L27.476,13.528z"/>
	</g>
</g>
</svg>
