<?xml version="1.0" encoding="utf-8"?>
<!-- Generator: Adobe Illustrator 16.0.0, SVG Export Plug-In . SVG Version: 6.00 Build 0)  -->
<!DOCTYPE svg PUBLIC "-//W3C//DTD SVG 1.1//EN" "http://www.w3.org/Graphics/SVG/1.1/DTD/svg11.dtd">
<svg version="1.1" id="Layer_1" xmlns="http://www.w3.org/2000/svg" xmlns:xlink="http://www.w3.org/1999/xlink" x="0px" y="0px"
	 width="48px" height="48px" viewBox="0 0 48 48" enable-background="new 0 0 48 48" xml:space="preserve">
<g>
	<path d="M23.613,24.267c-1.366,0-2.701-0.419-3.82-1.189c-0.87,0.294-1.776,0.443-2.701,0.443c-4.646,0-8.426-3.779-8.426-8.425
		c0-4.018,2.829-7.437,6.694-8.243C16.218,2.897,19.747,0,23.859,0c4.058,0,7.564,2.838,8.471,6.724
		c3.932,0.452,7.003,3.813,7.001,7.851c0,4.359-3.547,7.906-7.907,7.906c-0.949,0-1.874-0.168-2.759-0.501
		C27.396,23.425,25.563,24.267,23.613,24.267z M19.956,20.948c0.229,0,0.456,0.079,0.638,0.23c0.847,0.702,1.918,1.088,3.019,1.088
		c1.568,0,3.03-0.776,3.911-2.075c0.282-0.415,0.823-0.56,1.273-0.334c0.831,0.414,1.715,0.623,2.627,0.623
		c3.257,0,5.907-2.65,5.907-5.907c0.002-3.225-2.623-5.872-5.852-5.901c-0.498-0.004-0.916-0.374-0.982-0.867
		C30.053,4.496,27.198,2,23.859,2c-3.362,0-6.218,2.516-6.643,5.852c-0.058,0.456-0.419,0.813-0.876,0.867
		c-3.235,0.378-5.674,3.12-5.674,6.378c0,3.542,2.883,6.425,6.426,6.425c0.855,0,1.689-0.167,2.48-0.496
		C19.696,20.974,19.826,20.948,19.956,20.948z"/>
	<path d="M23.859,48L23.859,48c-0.447,0-0.839-0.296-0.962-0.726l-6.978-24.49c-0.087-0.305-0.024-0.633,0.17-0.885
		c0.194-0.251,0.511-0.373,0.813-0.389c0.018,0,0.134,0.007,0.152,0.008c0.911,0.023,1.73-0.164,2.521-0.493
		c0.342-0.143,0.736-0.084,1.022,0.154c0.847,0.702,1.919,1.088,3.019,1.088c1.567,0,3.029-0.776,3.91-2.075
		c0.281-0.415,0.823-0.559,1.275-0.333c0.733,0.367,1.535,0.571,2.381,0.607c0.306,0.013,0.589,0.166,0.768,0.414
		c0.18,0.248,0.235,0.565,0.151,0.859l-7.28,25.534C24.698,47.704,24.306,48,23.859,48z M18.188,23.451l5.671,19.9l5.997-21.035
		c-0.406-0.081-0.803-0.194-1.188-0.337c-1.269,1.446-3.103,2.289-5.053,2.289c-1.366,0-2.702-0.419-3.82-1.189
		C19.271,23.256,18.734,23.38,18.188,23.451z"/>
</g>
</svg>
