<?xml version="1.0" encoding="utf-8"?>
<!-- Generator: Adobe Illustrator 16.0.0, SVG Export Plug-In . SVG Version: 6.00 Build 0)  -->
<!DOCTYPE svg PUBLIC "-//W3C//DTD SVG 1.1//EN" "http://www.w3.org/Graphics/SVG/1.1/DTD/svg11.dtd">
<svg version="1.1" id="Layer_1" xmlns="http://www.w3.org/2000/svg" xmlns:xlink="http://www.w3.org/1999/xlink" x="0px" y="0px"
	 width="48px" height="48px" viewBox="0 0 48 48" enable-background="new 0 0 48 48" xml:space="preserve">
<g>
	<path d="M39.421,48H9.138c-0.508,0-0.936-0.381-0.994-0.886l-3.138-27.26c-0.032-0.283,0.058-0.567,0.247-0.78
		C5.443,18.862,5.715,18.74,6,18.74h35.701c0.279,0,0.547,0.117,0.736,0.323c0.189,0.206,0.283,0.481,0.26,0.76l-2.28,27.259
		C40.374,47.602,39.94,48,39.421,48z M10.03,46h28.471l2.113-25.26H7.122L10.03,46z"/>
	<g>
		<rect x="7.276" y="32.371" transform="matrix(0.0701 0.9975 -0.9975 0.0701 47.4066 15.8859)" width="15.812" height="2"/>
		<rect x="16.218" y="32.371" transform="matrix(0.0157 0.9999 -0.9999 0.0157 57.0947 8.7462)" width="15.775" height="2"/>
		<rect x="32.026" y="25.478" transform="matrix(0.9992 0.0391 -0.0391 0.9992 1.3291 -1.2649)" width="2" height="15.785"/>
	</g>
	<path d="M43.961,20.74H3.681c-0.386,0-0.738-0.223-0.903-0.571c-0.534-1.126-0.805-2.318-0.805-3.545
		c0-4.283,3.259-7.819,7.429-8.26C10.127,3.607,14.245,0,19.142,0c3.064,0,5.901,1.402,7.764,3.794
		c0.851-0.426,1.783-0.647,2.744-0.647c3.2,0,5.839,2.449,6.142,5.572c0.789-0.265,1.618-0.401,2.456-0.401
		c4.289,0,7.779,3.49,7.779,7.78c0,1.477-0.423,2.922-1.223,4.179C44.621,20.565,44.303,20.74,43.961,20.74z M4.346,18.74h39.038
		c0.422-0.819,0.644-1.723,0.644-2.642c0-3.188-2.593-5.78-5.779-5.78c-1.057,0-2.096,0.293-3.004,0.849
		c-0.336,0.207-0.765,0.195-1.091-0.031c-0.325-0.225-0.487-0.621-0.413-1.01c0.053-0.277,0.08-0.549,0.08-0.808
		c0-2.3-1.871-4.171-4.17-4.171c-0.876,0-1.72,0.275-2.44,0.795c-0.223,0.161-0.504,0.225-0.774,0.171
		c-0.271-0.052-0.508-0.214-0.655-0.447C24.327,3.371,21.845,2,19.142,2c-4.144,0-7.587,3.241-7.839,7.378
		c-0.032,0.528-0.469,0.939-0.998,0.939c-3.502,0-6.332,2.829-6.332,6.306C3.973,17.348,4.098,18.057,4.346,18.74z"/>
</g>
</svg>
