<?xml version="1.0" encoding="utf-8"?>
<!-- Generator: Adobe Illustrator 16.0.0, SVG Export Plug-In . SVG Version: 6.00 Build 0)  -->
<!DOCTYPE svg PUBLIC "-//W3C//DTD SVG 1.1//EN" "http://www.w3.org/Graphics/SVG/1.1/DTD/svg11.dtd">
<svg version="1.1" id="Layer_1" xmlns="http://www.w3.org/2000/svg" xmlns:xlink="http://www.w3.org/1999/xlink" x="0px" y="0px"
	 width="48px" height="48px" viewBox="0 0 48 48" enable-background="new 0 0 48 48" xml:space="preserve">
<g>
	<g>
		<path d="M40,48H8c-4.411,0-8-3.589-8-8V12.056c0-4.411,3.589-8,8-8h32c4.411,0,8,3.589,8,8V40C48,44.411,44.411,48,40,48z
			 M8,6.056c-3.309,0-6,2.691-6,6V40c0,3.309,2.691,6,6,6h32c3.309,0,6-2.691,6-6V12.056c0-3.309-2.691-6-6-6H8z"/>
	</g>
	<g>
		<rect x="9.344" y="1" width="2" height="8.728"/>
		<rect x="36.656" y="1" width="2" height="8.728"/>
	</g>
	<path d="M15.458,26.311H7.126c-0.552,0-1-0.447-1-1v-8.332c0-0.552,0.448-1,1-1h8.332c0.552,0,1,0.448,1,1v8.332
		C16.458,25.863,16.01,26.311,15.458,26.311z M8.126,24.311h6.332v-6.332H8.126V24.311z"/>
	<path d="M28.166,26.311h-8.331c-0.552,0-1-0.447-1-1v-8.332c0-0.552,0.448-1,1-1h8.331c0.553,0,1,0.448,1,1v8.332
		C29.166,25.863,28.719,26.311,28.166,26.311z M20.835,24.311h6.331v-6.332h-6.331V24.311z"/>
	<path d="M40.876,26.311h-8.332c-0.553,0-1-0.447-1-1v-8.332c0-0.552,0.447-1,1-1h8.332c0.553,0,1,0.448,1,1v8.332
		C41.876,25.863,41.429,26.311,40.876,26.311z M33.544,24.311h6.332v-6.332h-6.332V24.311z"/>
	<path d="M15.458,38.626H7.126c-0.552,0-1-0.447-1-1v-8.331c0-0.553,0.448-1,1-1h8.332c0.552,0,1,0.447,1,1v8.331
		C16.458,38.179,16.01,38.626,15.458,38.626z M8.126,36.626h6.332v-6.331H8.126V36.626z"/>
	<path d="M28.166,38.626h-8.331c-0.552,0-1-0.447-1-1v-8.331c0-0.553,0.448-1,1-1h8.331c0.553,0,1,0.447,1,1v8.331
		C29.166,38.179,28.719,38.626,28.166,38.626z M20.835,36.626h6.331v-6.331h-6.331V36.626z"/>
	<path d="M40.876,38.626h-8.332c-0.553,0-1-0.447-1-1v-8.331c0-0.553,0.447-1,1-1h8.332c0.553,0,1,0.447,1,1v8.331
		C41.876,38.179,41.429,38.626,40.876,38.626z M33.544,36.626h6.332v-6.331h-6.332V36.626z"/>
</g>
</svg>
