<?xml version="1.0" encoding="utf-8"?>
<!-- Generator: Adobe Illustrator 16.0.0, SVG Export Plug-In . SVG Version: 6.00 Build 0)  -->
<!DOCTYPE svg PUBLIC "-//W3C//DTD SVG 1.1//EN" "http://www.w3.org/Graphics/SVG/1.1/DTD/svg11.dtd">
<svg version="1.1" id="Layer_1" xmlns="http://www.w3.org/2000/svg" xmlns:xlink="http://www.w3.org/1999/xlink" x="0px" y="0px"
	 width="48px" height="48px" viewBox="0 0 48 48" enable-background="new 0 0 48 48" xml:space="preserve">
<g>
	<path d="M14.076,16.126c-0.028,0-0.057-0.001-0.085-0.004c-0.265-0.022-0.509-0.149-0.68-0.352l-8.32-9.886
		C4.635,5.461,4.689,4.83,5.112,4.475l5.037-4.239c0.203-0.171,0.464-0.258,0.729-0.231c0.265,0.022,0.509,0.149,0.68,0.352
		l8.32,9.886c0.355,0.423,0.301,1.054-0.121,1.409l-5.037,4.24C14.539,16.043,14.311,16.126,14.076,16.126z M7.165,5.361
		l7.032,8.356l3.507-2.952L10.672,2.41L7.165,5.361z"/>
	<path d="M39.665,46.526c-0.285,0-0.568-0.121-0.766-0.355l-8.322-9.883c-0.171-0.203-0.254-0.466-0.231-0.729
		c0.022-0.265,0.149-0.509,0.352-0.68l5.039-4.243c0.424-0.357,1.055-0.301,1.409,0.12l8.322,9.883
		c0.171,0.203,0.254,0.466,0.231,0.729c-0.022,0.265-0.149,0.509-0.352,0.68l-5.039,4.243
		C40.121,46.449,39.892,46.526,39.665,46.526z M32.751,35.765l7.034,8.353l3.509-2.955L36.26,32.81L32.751,35.765z"/>
	<path d="M34.825,47.999c-6.639,0-15.496-5.425-22.564-13.819C2.626,22.734-0.53,9.701,5.074,4.508
		c0.201-0.186,0.468-0.28,0.742-0.265C6.088,4.26,6.343,4.388,6.519,4.597l8.322,9.884c0.17,0.203,0.254,0.465,0.231,0.729
		c-0.022,0.264-0.149,0.509-0.352,0.68c-1.721,1.449-2.208,3.562-1.445,6.281c0.647,2.309,2.181,4.979,4.32,7.52
		c3.522,4.184,6.981,6.488,9.74,6.488c1.224,0,2.325-0.427,3.367-1.304c0.423-0.355,1.054-0.3,1.408,0.122l8.32,9.885
		c0.177,0.209,0.259,0.481,0.229,0.753c-0.03,0.271-0.17,0.52-0.388,0.686C38.813,47.435,36.98,47.999,34.825,47.999z M5.728,6.763
		c-3.656,4.92-0.252,16.25,8.063,26.129c6.601,7.84,15.054,13.107,21.034,13.107c1.274,0,2.392-0.237,3.336-0.709l-6.974-8.285
		c-1.187,0.779-2.479,1.174-3.853,1.174c-4.305,0-8.505-3.916-11.27-7.201c-1.342-1.595-3.74-4.789-4.715-8.267
		c-0.87-3.102-0.398-5.728,1.359-7.657L5.728,6.763z"/>
</g>
</svg>
