<?xml version="1.0" encoding="utf-8"?>
<!-- Generator: Adobe Illustrator 16.0.0, SVG Export Plug-In . SVG Version: 6.00 Build 0)  -->
<!DOCTYPE svg PUBLIC "-//W3C//DTD SVG 1.1//EN" "http://www.w3.org/Graphics/SVG/1.1/DTD/svg11.dtd">
<svg version="1.1" id="Layer_1" xmlns="http://www.w3.org/2000/svg" xmlns:xlink="http://www.w3.org/1999/xlink" x="0px" y="0px"
	 width="48px" height="48px" viewBox="0 0 48 48" enable-background="new 0 0 48 48" xml:space="preserve">
<g>
	<path d="M24,48C10.767,48,0,37.233,0,24S10.767,0,24,0s24,10.767,24,24S37.233,48,24,48z M24,2C11.869,2,2,11.869,2,24
		s9.869,22,22,22s22-9.869,22-22S36.131,2,24,2z"/>
	<g>
		<path d="M15.83,25.344c-2.559,0-4.563-2.938-4.563-6.69s2.004-6.69,4.563-6.69s4.563,2.938,4.563,6.69S18.389,25.344,15.83,25.344
			z M15.83,13.964c-1.212,0-2.563,1.926-2.563,4.69s1.351,4.69,2.563,4.69s2.563-1.926,2.563-4.69S17.042,13.964,15.83,13.964z"/>
		<path d="M32.171,25.344c-2.559,0-4.563-2.938-4.563-6.69s2.005-6.69,4.563-6.69s4.563,2.938,4.563,6.69
			S34.729,25.344,32.171,25.344z M32.171,13.964c-1.213,0-2.563,1.926-2.563,4.69s1.351,4.69,2.563,4.69s2.563-1.926,2.563-4.69
			S33.384,13.964,32.171,13.964z"/>
	</g>
	<path d="M24.051,38.662c-4.718,0-9.079-2.358-11.666-6.308l1.673-1.096c2.216,3.384,5.952,5.403,9.993,5.403
		c3.973,0,7.674-1.968,9.902-5.264l1.656,1.121C33.009,36.365,28.688,38.662,24.051,38.662z"/>
	<path d="M30.051,42.589c-0.913,0-1.75-0.233-2.5-0.698c-2.043-1.265-2.607-3.802-2.63-3.909l1.954-0.424
		c0.005,0.019,0.422,1.831,1.737,2.639c0.687,0.421,1.506,0.503,2.501,0.247c1.143-0.293,1.351-0.835,1.418-1.014
		c0.448-1.17-0.581-3.129-0.977-3.723l1.664-1.109c0.215,0.322,2.073,3.217,1.181,5.548c-0.295,0.769-1.018,1.781-2.79,2.235
		C31.068,42.52,30.549,42.589,30.051,42.589z"/>
</g>
</svg>
