<?xml version="1.0" encoding="utf-8"?>
<!-- Generator: Adobe Illustrator 16.0.0, SVG Export Plug-In . SVG Version: 6.00 Build 0)  -->
<!DOCTYPE svg PUBLIC "-//W3C//DTD SVG 1.1//EN" "http://www.w3.org/Graphics/SVG/1.1/DTD/svg11.dtd">
<svg version="1.1" id="Layer_1" xmlns="http://www.w3.org/2000/svg" xmlns:xlink="http://www.w3.org/1999/xlink" x="0px" y="0px"
	 width="48px" height="48px" viewBox="0 0 48 48" enable-background="new 0 0 48 48" xml:space="preserve">
<g>
	<path d="M24,47.999c-13.233,0-24-10.767-24-24s10.767-24,24-24s24,10.767,24,24S37.233,47.999,24,47.999z M24,1.999
		c-12.131,0-22,9.869-22,22s9.869,22,22,22s22-9.869,22-22S36.131,1.999,24,1.999z"/>
	<path d="M32.169,25.343c-2.558,0-4.562-2.938-4.562-6.69c0-3.752,2.004-6.692,4.562-6.692c2.559,0,4.563,2.939,4.563,6.692
		C36.732,22.404,34.728,25.343,32.169,25.343z M32.169,13.961c-1.212,0-2.562,1.927-2.562,4.692c0,2.764,1.35,4.69,2.562,4.69
		c1.213,0,2.563-1.926,2.563-4.69C34.732,15.888,33.382,13.961,32.169,13.961z"/>
	<path d="M24.05,38.661c-4.719,0-9.08-2.357-11.666-6.307l-1.67-2.551l2.857,1.066c0.047,0.018,4.784,1.761,10.45,1.761
		c5.677,0,10.385-1.602,10.432-1.618l2.832-0.977l-1.676,2.481C33.009,36.364,28.688,38.661,24.05,38.661z M16.169,33.695
		c2.15,1.893,4.934,2.966,7.881,2.966c2.896,0,5.646-1.045,7.787-2.887c-2,0.43-4.757,0.856-7.817,0.856
		C20.955,34.631,18.183,34.165,16.169,33.695z"/>
	<path d="M15.828,25.343c-2.559,0-4.563-2.938-4.563-6.69l0.002-1.026h9.124v1C20.391,22.404,18.387,25.343,15.828,25.343z
		 M13.323,19.627c0.271,2.232,1.441,3.716,2.505,3.716s2.235-1.484,2.505-3.716H13.323z"/>
</g>
</svg>
