<?xml version="1.0" encoding="utf-8"?>
<!-- Generator: Adobe Illustrator 16.0.0, SVG Export Plug-In . SVG Version: 6.00 Build 0)  -->
<!DOCTYPE svg PUBLIC "-//W3C//DTD SVG 1.1//EN" "http://www.w3.org/Graphics/SVG/1.1/DTD/svg11.dtd">
<svg version="1.1" id="Layer_1" xmlns="http://www.w3.org/2000/svg" xmlns:xlink="http://www.w3.org/1999/xlink" x="0px" y="0px"
	 width="48px" height="48px" viewBox="0 0 48 48" enable-background="new 0 0 48 48" xml:space="preserve">
<g>
	<path d="M24,47.999C10.767,47.999,0.001,37.233,0.001,24C0.001,10.767,10.767,0.001,24,0.001c13.233,0,23.999,10.766,23.999,23.999
		C47.999,37.233,37.233,47.999,24,47.999z M24,2.001C11.87,2.001,2.001,11.87,2.001,24c0,12.13,9.869,21.999,21.999,21.999
		c12.13,0,21.999-9.869,21.999-21.999C45.999,11.87,36.13,2.001,24,2.001z"/>
	<g>
		<path d="M15.828,25.344c-2.558,0-4.562-2.938-4.562-6.69s2.004-6.69,4.562-6.69s4.562,2.938,4.562,6.69
			S18.386,25.344,15.828,25.344z M15.828,13.964c-1.212,0-2.562,1.926-2.562,4.69s1.35,4.69,2.562,4.69s2.562-1.926,2.562-4.69
			S17.04,13.964,15.828,13.964z"/>
		<path d="M32.17,25.344c-2.559,0-4.563-2.938-4.563-6.69s2.004-6.69,4.563-6.69s4.563,2.938,4.563,6.69S34.729,25.344,32.17,25.344
			z M32.17,13.964c-1.212,0-2.563,1.926-2.563,4.69s1.351,4.69,2.563,4.69s2.563-1.926,2.563-4.69S33.382,13.964,32.17,13.964z"/>
	</g>
	<g>
		<rect x="22.999" y="26.511" transform="matrix(0.5787 0.8155 -0.8155 0.5787 38.4392 -4.9383)" width="2" height="16.449"/>
		<rect x="15.775" y="33.735" transform="matrix(0.8154 0.5789 -0.5789 0.8154 24.5367 -7.481)" width="16.449" height="2"/>
	</g>
</g>
</svg>
