<?xml version="1.0" encoding="utf-8"?>
<!-- Generator: Adobe Illustrator 16.0.0, SVG Export Plug-In . SVG Version: 6.00 Build 0)  -->
<!DOCTYPE svg PUBLIC "-//W3C//DTD SVG 1.1//EN" "http://www.w3.org/Graphics/SVG/1.1/DTD/svg11.dtd">
<svg version="1.1" id="Layer_1" xmlns="http://www.w3.org/2000/svg" xmlns:xlink="http://www.w3.org/1999/xlink" x="0px" y="0px"
	 width="48px" height="48px" viewBox="0 0 48 48" enable-background="new 0 0 48 48" xml:space="preserve">
<g>
	<path d="M24,48C10.767,48,0,37.233,0,24S10.767,0,24,0s24,10.767,24,24S37.233,48,24,48z M24,2C11.869,2,2,11.869,2,24
		s9.869,22,22,22s22-9.869,22-22S36.131,2,24,2z"/>
	<path d="M24.626,48c-6.37,0-11.437-3.43-12.608-8.535c-1.393-6.071,2.923-12.189,11.546-16.365
		c7.149-3.461,10.701-8.646,9.503-13.871C32.106,5.041,28.293,2,23.999,2V0c5.217,0,9.851,3.693,11.018,8.782
		c1.421,6.197-2.534,12.222-10.581,16.118c-9.095,4.404-11.371,10.181-10.468,14.117C14.925,43.194,19.209,46,24.626,46V48z"/>
	<path d="M22.675,16.535c-2.792,0-5.064-2.271-5.064-5.064s2.271-5.064,5.064-5.064c2.792,0,5.063,2.271,5.063,5.064
		S25.467,16.535,22.675,16.535z M22.675,8.407c-1.689,0-3.064,1.375-3.064,3.064s1.375,3.064,3.064,3.064s3.063-1.375,3.063-3.064
		S24.364,8.407,22.675,8.407z"/>
	<path d="M24.927,41.607c-2.792,0-5.064-2.271-5.064-5.064s2.271-5.064,5.064-5.064c2.793,0,5.064,2.271,5.064,5.064
		S27.72,41.607,24.927,41.607z M24.927,33.479c-1.689,0-3.064,1.375-3.064,3.064s1.375,3.064,3.064,3.064s3.064-1.375,3.064-3.064
		S26.616,33.479,24.927,33.479z"/>
</g>
</svg>
