<?xml version="1.0" encoding="utf-8"?>
<!-- Generator: Adobe Illustrator 16.0.0, SVG Export Plug-In . SVG Version: 6.00 Build 0)  -->
<!DOCTYPE svg PUBLIC "-//W3C//DTD SVG 1.1//EN" "http://www.w3.org/Graphics/SVG/1.1/DTD/svg11.dtd">
<svg version="1.1" id="Layer_1" xmlns="http://www.w3.org/2000/svg" xmlns:xlink="http://www.w3.org/1999/xlink" x="0px" y="0px"
	 width="48px" height="48px" viewBox="0 0 48 48" enable-background="new 0 0 48 48" xml:space="preserve">
<g>
	<path d="M20.233,48c-0.514,0-1.056-0.04-1.577-0.08c-0.431-0.032-0.846-0.064-1.208-0.064c-1.612,0-2.897-0.241-4.004-1.361
		c-0.302,0.238-0.75,0.536-1.354,0.536c0,0,0,0,0,0c-0.286,0-0.572-0.067-0.85-0.201c-0.393-0.188-0.766-0.505-1.126-0.812
		c-0.208-0.176-0.521-0.442-0.649-0.499c-1.854-0.817-3.107-2.126-3.726-3.89c-1.336-3.808,0.674-9,2.596-12.686
		c1.016-1.947,2.195-3.72,3.334-5.434c0.539-0.811,1.083-1.628,1.619-2.476l0.756-1.207c1.622-2.6,3.299-5.289,5.327-7.379
		c0.028-0.028,0.057-0.055,0.088-0.08l0.11-0.09c0.857-0.7,1.345-1.049,1.801-1.141c0.046-0.009,0.092-0.015,0.139-0.018
		c3.143-0.188,4.447,0.909,6.358,2.477l0.533,0.436c1.985,1.61,3.682,3.543,5.321,5.414c0.497,0.567,0.993,1.133,1.495,1.687
		c2.077,2.289,4.195,4.799,5.62,7.641c1.547,3.078,1.994,5.148,1.838,8.517c-0.043,0.944-0.228,1.743-0.406,2.515
		c-0.141,0.609-0.273,1.185-0.335,1.816c-0.141,1.429-0.308,2.235-1.229,3.469c-1.087,1.447-2.29,2.15-3.681,2.15
		c-0.807,0-1.55-0.237-2.205-0.446c-0.677-0.218-1.313-0.406-1.788-0.296c-0.234,0.056-0.374,0.176-0.645,0.422
		c-0.458,0.419-1.146,1.067-2.626,0.938c-1.003-0.09-1.868-0.421-2.705-0.74c-0.75-0.288-1.459-0.559-2.214-0.632
		c-0.113-0.011-0.22-0.016-0.318-0.016c-0.526,0-0.686,0.129-1.071,0.439c-0.354,0.285-0.839,0.676-1.645,0.907
		C21.373,47.939,20.859,48,20.233,48z M17.388,45.855c0.468,0,0.934,0.034,1.418,0.07c0.915,0.071,1.934,0.115,2.447-0.032
		c0.416-0.119,0.647-0.306,0.94-0.541c0.55-0.443,1.205-1.013,2.834-0.857c1.027,0.099,1.897,0.432,2.739,0.754
		c0.742,0.283,1.442,0.552,2.168,0.616c0.548,0.054,0.715-0.071,1.101-0.424c0.331-0.302,0.784-0.715,1.535-0.892
		c0.945-0.221,1.961,0.052,2.854,0.338c0.566,0.181,1.102,0.352,1.597,0.352c0.496,0,1.182-0.154,2.08-1.351
		c0.62-0.828,0.719-1.231,0.84-2.463c0.074-0.761,0.228-1.428,0.377-2.072c0.165-0.717,0.322-1.393,0.356-2.155
		c0.14-3.011-0.241-4.77-1.628-7.528c-1.316-2.628-3.332-5.011-5.313-7.195c-0.51-0.563-1.013-1.136-1.518-1.711
		c-1.585-1.807-3.224-3.676-5.077-5.179l-0.542-0.443c-1.835-1.506-2.62-2.133-4.853-2.033c-0.153,0.099-0.719,0.562-0.911,0.718
		l-0.067,0.055c-1.862,1.933-3.47,4.51-5.025,7.003l-0.762,1.216c-0.544,0.861-1.096,1.692-1.644,2.516
		c-1.162,1.748-2.26,3.398-3.227,5.252c-1.739,3.334-3.581,7.966-2.482,11.098c0.434,1.238,1.299,2.129,2.645,2.722
		c0.396,0.174,0.773,0.495,1.138,0.806c0.238,0.203,0.535,0.455,0.695,0.531c-0.01-0.008,0.122-0.116,0.208-0.188
		c0.277-0.229,0.657-0.543,1.207-0.543c0.305,0,0.756,0.104,1.167,0.596c0.614,0.73,1.271,0.966,2.701,0.966
		C17.387,45.855,17.388,45.855,17.388,45.855z"/>
	<path d="M22.688,12.501L22.688,12.501c-0.389,0-0.79-0.078-1.225-0.238c-1.606-0.589-2.337-1.892-2.983-3.041
		c-0.334-0.596-0.56-1.116-0.778-1.619c-0.272-0.628-0.529-1.222-0.913-1.788c-0.285-0.42-0.732-0.893-1.205-1.393
		c-0.889-0.94-1.809-1.912-2.135-3.019c-0.154-0.522,0.139-1.072,0.659-1.236l0.267-0.084c0.145-0.046,0.298-0.058,0.45-0.035
		c1.552,0.236,2.917,0.284,4.496,0.339l0.922,0.034c0.872,0.035,1.153,0.042,1.749-0.177c0.812-0.295,1.654-0.267,2.73-0.154
		l0.433,0.045c0.477,0.046,0.972,0.067,1.472,0.089c0.808,0.036,1.643,0.072,2.463,0.208c0.658,0.108,1.574,0.343,1.926,1.13
		c0.366,0.821-0.125,1.591-0.521,2.21c-0.146,0.23-0.307,0.476-0.428,0.736c-0.178,0.382-0.31,0.758-0.441,1.129
		c-0.244,0.688-0.496,1.4-0.979,2.127c-0.739,1.105-1.51,1.752-2.327,2.437c-0.218,0.183-0.443,0.373-0.68,0.58
		c-0.159,0.14-0.307,0.284-0.449,0.423C24.565,11.813,23.859,12.501,22.688,12.501z M16.285,2.233
		c0.241,0.276,0.502,0.552,0.752,0.815c0.507,0.537,1.032,1.091,1.408,1.646c0.488,0.721,0.795,1.429,1.093,2.114
		c0.207,0.478,0.402,0.929,0.656,1.38c0.66,1.176,1.09,1.879,1.96,2.198c0.668,0.246,0.854,0.153,1.641-0.613
		c0.167-0.162,0.339-0.329,0.524-0.492c0.248-0.218,0.486-0.418,0.716-0.61c0.765-0.641,1.368-1.147,1.946-2.014
		c0.346-0.519,0.538-1.06,0.76-1.686c0.151-0.428,0.307-0.862,0.512-1.303c0.169-0.362,0.375-0.686,0.557-0.97
		c0.048-0.075,0.105-0.165,0.159-0.253c-0.059-0.013-0.127-0.025-0.204-0.038c-0.703-0.116-1.477-0.15-2.226-0.183
		c-0.535-0.023-1.065-0.047-1.578-0.097l-0.449-0.046C23.741,2,23.168,1.946,22.678,2.124C21.84,2.432,21.39,2.47,20.164,2.421
		L19.25,2.388C18.25,2.352,17.284,2.318,16.285,2.233z"/>
</g>
</svg>
