<?xml version="1.0" encoding="utf-8"?>
<!-- Generator: Adobe Illustrator 16.0.0, SVG Export Plug-In . SVG Version: 6.00 Build 0)  -->
<!DOCTYPE svg PUBLIC "-//W3C//DTD SVG 1.1//EN" "http://www.w3.org/Graphics/SVG/1.1/DTD/svg11.dtd">
<svg version="1.1" id="Layer_1" xmlns="http://www.w3.org/2000/svg" xmlns:xlink="http://www.w3.org/1999/xlink" x="0px" y="0px"
	 width="48px" height="48px" viewBox="0 0 48 48" enable-background="new 0 0 48 48" xml:space="preserve">
<g>
	<g>
		<g>
			<rect x="7.226" y="34.126" width="2" height="5.653"/>
			<rect x="38.773" y="34.126" width="2" height="5.653"/>
		</g>
		<path d="M41.969,33.674H6.031C2.706,33.674,0,30.968,0,27.643v-2.51c0-2.574,1.641-4.847,4.046-5.687l5.265-11.64
			c0.162-0.358,0.519-0.588,0.911-0.588h27.875c0.4,0,0.762,0.238,0.919,0.606l4.987,11.639C46.38,20.318,48,22.583,48,25.133v2.51
			C48,30.968,45.294,33.674,41.969,33.674z M10.867,9.219L5.682,20.682c-0.125,0.275-0.367,0.479-0.659,0.556
			C3.243,21.701,2,23.303,2,25.133v2.51c0,2.223,1.809,4.031,4.031,4.031h35.938c2.223,0,4.031-1.809,4.031-4.031v-2.51
			c0-1.815-1.231-3.414-2.994-3.888c-0.296-0.08-0.539-0.291-0.659-0.572L37.438,9.219H10.867z"/>
		<path d="M39.764,20.643H8.5c-0.337,0-0.651-0.169-0.836-0.451c-0.185-0.281-0.215-0.637-0.082-0.946l3.667-8.47
			c0.158-0.366,0.519-0.603,0.917-0.603h23.746c0.393,0,0.748,0.229,0.91,0.586l3.851,8.47c0.141,0.31,0.114,0.669-0.069,0.956
			C40.42,20.47,40.104,20.643,39.764,20.643z M10.022,18.643h28.188l-2.941-6.47H12.824L10.022,18.643z"/>
		<g>
			<path d="M7.952,30.352c-2.188,0-3.969-1.78-3.969-3.969s1.781-3.969,3.969-3.969s3.969,1.78,3.969,3.969
				S10.141,30.352,7.952,30.352z M7.952,24.414c-1.086,0-1.969,0.883-1.969,1.969s0.883,1.969,1.969,1.969
				c1.085,0,1.969-0.883,1.969-1.969S9.038,24.414,7.952,24.414z"/>
			<path d="M40.048,30.352c-2.188,0-3.968-1.78-3.968-3.969c0-2.188,1.78-3.968,3.968-3.968s3.968,1.78,3.968,3.968
				C44.016,28.571,42.235,30.352,40.048,30.352z M40.048,24.415c-1.085,0-1.968,0.883-1.968,1.968c0,1.086,0.883,1.969,1.968,1.969
				s1.968-0.883,1.968-1.969C42.016,25.298,41.133,24.415,40.048,24.415z"/>
		</g>
	</g>
	<g>
		<rect x="16.2" y="22.813" width="15.601" height="2"/>
		<rect x="16.2" y="27.191" width="15.601" height="2"/>
	</g>
</g>
</svg>
