<?xml version="1.0" encoding="utf-8"?>
<!-- Generator: Adobe Illustrator 16.0.0, SVG Export Plug-In . SVG Version: 6.00 Build 0)  -->
<!DOCTYPE svg PUBLIC "-//W3C//DTD SVG 1.1//EN" "http://www.w3.org/Graphics/SVG/1.1/DTD/svg11.dtd">
<svg version="1.1" id="Layer_1" xmlns="http://www.w3.org/2000/svg" xmlns:xlink="http://www.w3.org/1999/xlink" x="0px" y="0px"
	 width="48px" height="48px" viewBox="0 0 48 48" enable-background="new 0 0 48 48" xml:space="preserve">
<g>
	<g>
		<path d="M33.67,38.98H14.866c-4.411,0-8-3.589-8-8V8c0-4.411,3.589-8,8-8H33.67c4.411,0,8,3.589,8,8v22.98
			C41.67,35.392,38.081,38.98,33.67,38.98z M14.866,2c-3.309,0-6,2.691-6,6v22.98c0,3.309,2.691,6,6,6H33.67c3.309,0,6-2.691,6-6V8
			c0-3.309-2.691-6-6-6H14.866z"/>
	</g>
	<g>
		<path d="M32.544,26.188H15.99c-2.757,0-5-2.243-5-5V8.873c0-2.757,2.243-5,5-5h16.554c2.757,0,5,2.243,5,5v12.315
			C37.544,23.945,35.301,26.188,32.544,26.188z M15.99,5.873c-1.654,0-3,1.346-3,3v12.315c0,1.654,1.346,3,3,3h16.554
			c1.654,0,3-1.346,3-3V8.873c0-1.654-1.346-3-3-3H15.99z"/>
	</g>
	<g>
		<path d="M21.649,33.917h-9.223c-0.552,0-1-0.447-1-1V28.68c0-0.553,0.448-1,1-1h9.223c0.552,0,1,0.447,1,1v4.237
			C22.649,33.47,22.201,33.917,21.649,33.917z M13.426,31.917h7.223V29.68h-7.223V31.917z"/>
		<path d="M36.107,33.917h-9.221c-0.553,0-1-0.447-1-1V28.68c0-0.553,0.447-1,1-1h9.221c0.553,0,1,0.447,1,1v4.237
			C37.107,33.47,36.66,33.917,36.107,33.917z M27.887,31.917h7.221V29.68h-7.221V31.917z"/>
	</g>
	<rect x="9.384" y="37.044" transform="matrix(0.8281 0.5605 -0.5605 0.8281 25.6024 1.4826)" width="2" height="10.893"/>
	<rect x="32.17" y="41.49" transform="matrix(0.5607 0.828 -0.828 0.5607 51.7085 -12.4807)" width="10.893" height="2"/>
</g>
</svg>
