<?xml version="1.0" encoding="utf-8"?>
<!-- Generator: Adobe Illustrator 16.0.0, SVG Export Plug-In . SVG Version: 6.00 Build 0)  -->
<!DOCTYPE svg PUBLIC "-//W3C//DTD SVG 1.1//EN" "http://www.w3.org/Graphics/SVG/1.1/DTD/svg11.dtd">
<svg version="1.1" id="Layer_1" xmlns="http://www.w3.org/2000/svg" xmlns:xlink="http://www.w3.org/1999/xlink" x="0px" y="0px"
	 width="48px" height="48px" viewBox="0 0 48 48" enable-background="new 0 0 48 48" xml:space="preserve">
<g>
	<path d="M31.807,36.632c-8.926,0-16.188-4.89-16.188-10.899c0-0.562,0.062-1.121,0.184-1.664c1.203-5.35,7.934-9.232,16.004-9.232
		C40.735,14.836,48,19.724,48,25.732C48,31.742,40.735,36.632,31.807,36.632z M31.807,16.836c-7.028,0-13.07,3.298-14.053,7.672
		c-0.09,0.398-0.135,0.811-0.135,1.225c0,4.907,6.365,8.899,14.188,8.899C39.633,34.632,46,30.64,46,25.732
		C46,20.827,39.633,16.836,31.807,16.836z"/>
	<rect x="10.219" y="21.321" width="7.339" height="2"/>
	<path d="M5.61,27.93C2.517,27.93,0,25.413,0,22.32s2.517-5.61,5.61-5.61c3.094,0,5.61,2.517,5.61,5.61S8.704,27.93,5.61,27.93z
		 M5.61,18.71C3.619,18.71,2,20.329,2,22.32s1.619,3.61,3.61,3.61s3.61-1.619,3.61-3.61S7.601,18.71,5.61,18.71z"/>
	<rect x="29.291" y="6.449" width="2" height="9.387"/>
	<rect x="13.732" y="5.449" width="33.118" height="2"/>
	<path d="M43.116,29.133H30.83c-0.498,0-0.921-0.367-0.99-0.86l-1.34-9.53c-0.038-0.272,0.037-0.548,0.209-0.763
		s0.424-0.35,0.698-0.373c5.355-0.445,9.406,0.699,11.958,3.384c2.925,3.079,2.758,7.027,2.75,7.193
		C44.088,28.716,43.648,29.133,43.116,29.133z M31.699,27.133h10.363c-0.138-1.155-0.604-3.152-2.166-4.784
		c-1.954-2.043-5.068-2.989-9.266-2.816L31.699,27.133z"/>
	<path d="M44.047,42.552H19.002c-0.273,0-0.535-0.112-0.724-0.311c-0.188-0.197-0.288-0.465-0.275-0.737
		c0.254-5.264,3.133-8.448,3.255-8.582l1.472,1.355L21.994,33.6l0.738,0.675c-0.023,0.025-2.131,2.388-2.638,6.277h22.719
		c-0.389-1.454-1.347-4.041-3.538-6.037l1.348-1.479c3.773,3.438,4.392,8.193,4.416,8.395c0.035,0.284-0.054,0.569-0.243,0.784
		C44.605,42.429,44.333,42.552,44.047,42.552z"/>
</g>
</svg>
