<?xml version="1.0" encoding="utf-8"?>
<!-- Generator: Adobe Illustrator 16.0.0, SVG Export Plug-In . SVG Version: 6.00 Build 0)  -->
<!DOCTYPE svg PUBLIC "-//W3C//DTD SVG 1.1//EN" "http://www.w3.org/Graphics/SVG/1.1/DTD/svg11.dtd">
<svg version="1.1" id="Layer_1" xmlns="http://www.w3.org/2000/svg" xmlns:xlink="http://www.w3.org/1999/xlink" x="0px" y="0px"
	 width="48px" height="48px" viewBox="0 0 48 48" enable-background="new 0 0 48 48" xml:space="preserve">
<g>
	<path d="M33.527,48H14.474c-0.265,0-0.52-0.105-0.707-0.293L0.293,34.234C0.105,34.047,0,33.793,0,33.527V14.473
		c0-0.265,0.105-0.52,0.293-0.707L13.767,0.293C13.955,0.105,14.209,0,14.474,0h19.053c0.266,0,0.52,0.105,0.707,0.293
		l13.473,13.473C47.895,13.954,48,14.208,48,14.473v19.054c0,0.266-0.105,0.52-0.293,0.707L34.234,47.707
		C34.047,47.895,33.793,48,33.527,48z M14.888,46h18.225L46,33.113V14.887L33.113,2H14.888L2,14.887v18.226L14.888,46z"/>
	<path d="M30.736,41.264H17.265c-0.265,0-0.52-0.105-0.707-0.293l-9.529-9.527c-0.188-0.188-0.293-0.441-0.293-0.707V17.264
		c0-0.265,0.105-0.52,0.293-0.707l9.529-9.528C16.746,6.841,17,6.736,17.265,6.736h13.471c0.266,0,0.52,0.105,0.707,0.293
		l9.527,9.528c0.188,0.188,0.293,0.442,0.293,0.707v13.472c0,0.266-0.105,0.52-0.293,0.707l-9.527,9.527
		C31.256,41.158,31.002,41.264,30.736,41.264z M17.679,39.264h12.643l8.941-8.941V17.678l-8.941-8.942H17.679l-8.943,8.942v12.644
		L17.679,39.264z"/>
	<g>
		<path d="M14.445,26.273c0.385,0.235,0.947,0.435,1.54,0.435c0.879,0,1.392-0.464,1.392-1.136c0-0.621-0.355-0.977-1.253-1.321
			c-1.085-0.386-1.756-0.949-1.756-1.886c0-1.035,0.858-1.807,2.151-1.807c0.682,0,1.175,0.159,1.47,0.326l-0.237,0.702
			c-0.217-0.118-0.661-0.316-1.263-0.316c-0.908,0-1.253,0.543-1.253,0.998c0,0.622,0.404,0.926,1.323,1.282
			c1.125,0.435,1.698,0.978,1.698,1.954c0,1.027-0.76,1.915-2.33,1.915c-0.642,0-1.342-0.188-1.698-0.423L14.445,26.273z"/>
		<path d="M20.692,21.399h-2.024v-0.732h4.925v0.732H21.56v5.921h-0.868V21.399z"/>
		<path d="M29.751,23.925c0,2.289-1.394,3.503-3.09,3.503c-1.757,0-2.991-1.361-2.991-3.376c0-2.111,1.313-3.494,3.089-3.494
			C28.575,20.558,29.751,21.951,29.751,23.925z M24.589,24.034c0,1.42,0.771,2.694,2.121,2.694c1.363,0,2.132-1.254,2.132-2.764
			c0-1.323-0.689-2.704-2.121-2.704C25.299,21.26,24.589,22.572,24.589,24.034z"/>
		<path d="M30.863,20.748c0.416-0.069,0.959-0.129,1.648-0.129c0.85,0,1.471,0.198,1.865,0.552c0.365,0.316,0.583,0.801,0.583,1.393
			c0,0.602-0.178,1.076-0.515,1.42c-0.453,0.484-1.193,0.731-2.033,0.731c-0.256,0-0.493-0.011-0.689-0.061v2.666h-0.859V20.748z
			 M31.723,23.955c0.188,0.049,0.426,0.067,0.711,0.067c1.037,0,1.668-0.503,1.668-1.42c0-0.877-0.621-1.303-1.568-1.303
			c-0.375,0-0.661,0.03-0.811,0.069V23.955z"/>
	</g>
</g>
</svg>
