<?xml version="1.0" encoding="utf-8"?>
<!-- Generator: Adobe Illustrator 16.0.0, SVG Export Plug-In . SVG Version: 6.00 Build 0)  -->
<!DOCTYPE svg PUBLIC "-//W3C//DTD SVG 1.1//EN" "http://www.w3.org/Graphics/SVG/1.1/DTD/svg11.dtd">
<svg version="1.1" id="Layer_1" xmlns="http://www.w3.org/2000/svg" xmlns:xlink="http://www.w3.org/1999/xlink" x="0px" y="0px"
	 width="48px" height="48px" viewBox="0 0 48 48" enable-background="new 0 0 48 48" xml:space="preserve">
<g>
	<path d="M28.944,33.93H6.031c-1.74,0-3.156-1.416-3.156-3.156V17.225c0-1.74,1.416-3.156,3.156-3.156l16.537-0.001L28.944,33.93z
		 M6.031,16.068c-0.637,0-1.156,0.52-1.156,1.157v13.548c0,0.638,0.519,1.156,1.156,1.156h20.171L21.11,16.068H6.031z"/>
	<path d="M36.471,36.805H6.031C2.706,36.805,0,34.099,0,30.773V17.225c0-3.326,2.706-6.031,6.031-6.031h30.439
		c3.325,0,6.031,2.706,6.031,6.031v0.563h3.061c1.344,0,2.438,1.093,2.438,2.437v7.546c0,1.345-1.094,2.438-2.438,2.438h-3.062
		v0.563C42.501,34.099,39.796,36.805,36.471,36.805z M6.031,13.194C3.809,13.194,2,15.002,2,17.225v13.548
		c0,2.223,1.809,4.031,4.031,4.031h30.439c2.223,0,4.03-1.809,4.03-4.031V28.21h5.062C45.8,28.21,46,28.009,46,27.771v-7.546
		c0-0.237-0.2-0.437-0.438-0.437h-5.061v-2.563c0-2.223-1.809-4.031-4.031-4.031H6.031z"/>
	<rect x="4.711" y="23.001" transform="matrix(0.317 0.9484 -0.9484 0.317 32.4119 2.9918)" width="18.835" height="2"/>
</g>
</svg>
