<?xml version="1.0" encoding="utf-8"?>
<!-- Generator: Adobe Illustrator 16.0.0, SVG Export Plug-In . SVG Version: 6.00 Build 0)  -->
<!DOCTYPE svg PUBLIC "-//W3C//DTD SVG 1.1//EN" "http://www.w3.org/Graphics/SVG/1.1/DTD/svg11.dtd">
<svg version="1.1" id="Layer_1" xmlns="http://www.w3.org/2000/svg" xmlns:xlink="http://www.w3.org/1999/xlink" x="0px" y="0px"
	 width="48px" height="48px" viewBox="0 0 48 48" enable-background="new 0 0 48 48" xml:space="preserve">
<g>
	<path d="M20.673,47.999c-10.414,0-18.886-8.472-18.886-18.886s8.472-18.886,18.886-18.886c10.414,0,18.886,8.472,18.886,18.886
		S31.087,47.999,20.673,47.999z M20.673,12.227c-9.311,0-16.886,7.575-16.886,16.886c0,9.311,7.575,16.886,16.886,16.886
		c9.311,0,16.886-7.575,16.886-16.886C37.559,19.802,29.983,12.227,20.673,12.227z"/>
	<path d="M12.146,14.174c-0.8-1.088-1.224-2.381-1.224-3.737c0-3.485,2.836-6.321,6.321-6.321s6.321,2.835,6.321,6.321
		c0,0.523-0.065,1.045-0.194,1.553l-1.938-0.49c0.088-0.348,0.132-0.706,0.132-1.063c0-2.382-1.938-4.321-4.321-4.321
		c-2.383,0-4.321,1.938-4.321,4.321c0,0.927,0.289,1.81,0.835,2.553L12.146,14.174z"/>
	<path d="M35.683,10.651c-0.681,0-1.361-0.155-1.997-0.464c-1.796-0.871-3.015-2.401-4.192-3.88
		c-1.112-1.397-2.163-2.716-3.624-3.43c-2.005-0.979-5.055-0.998-7.057-0.715c-1.138,0.16-1.843,0.63-1.841,2.477l-2,0.003
		c-0.003-2.627,1.195-4.127,3.563-4.46c2.391-0.338,5.805-0.277,8.213,0.899c1.866,0.912,3.109,2.472,4.311,3.981
		c1.087,1.365,2.113,2.654,3.5,3.326c0.623,0.302,1.321,0.345,1.964,0.118c0.699-0.248,1.272-0.787,1.615-1.518l1.811,0.849
		c-0.57,1.218-1.55,2.125-2.758,2.554C36.699,10.564,36.19,10.651,35.683,10.651z"/>
	<path d="M41.746,8.775c-0.202,0-0.401-0.002-0.594-0.003L40.65,8.768v-2l0.521,0.003c1.193,0.01,2.688,0.024,3.521-0.482
		l1.041,1.708C44.588,8.695,43.075,8.775,41.746,8.775z"/>
	<path d="M40.716,6.741l-1.74-0.984c0.457-0.81,2.211-2.324,3.18-2.612l0.568,1.918C42.306,5.19,40.955,6.319,40.716,6.741z"/>
	<path d="M37.186,6.11c-0.555-0.994-1.266-3.026-0.416-4.34l1.68,1.087c-0.214,0.33,0.025,1.458,0.482,2.278L37.186,6.11z"/>
	<path d="M20.671,44.29c-8.367,0-15.174-6.809-15.174-15.177h2c0,7.266,5.91,13.177,13.174,13.177V44.29z"/>
</g>
</svg>
