<?xml version="1.0" encoding="utf-8"?>
<!-- Generator: Adobe Illustrator 16.0.0, SVG Export Plug-In . SVG Version: 6.00 Build 0)  -->
<!DOCTYPE svg PUBLIC "-//W3C//DTD SVG 1.1//EN" "http://www.w3.org/Graphics/SVG/1.1/DTD/svg11.dtd">
<svg version="1.1" id="Layer_1" xmlns="http://www.w3.org/2000/svg" xmlns:xlink="http://www.w3.org/1999/xlink" x="0px" y="0px"
	 width="48px" height="48px" viewBox="0 0 48 48" enable-background="new 0 0 48 48" xml:space="preserve">
<g>
	<path d="M44.125,45.055H3.875C1.738,45.055,0,43.316,0,41.18V20.951c0-1.526,0.672-2.875,1.753-3.519
		c0.167-0.101,0.285-0.192,0.419-0.295c0.196-0.15,0.417-0.319,0.775-0.545l1.067,1.691c-0.289,0.183-0.467,0.32-0.626,0.441
		c-0.195,0.149-0.368,0.28-0.612,0.426C2.319,19.423,2,20.164,2,20.951V41.18c0,1.034,0.841,1.875,1.875,1.875h40.25
		c1.034,0,1.875-0.841,1.875-1.875V20.951c0-0.748-0.312-1.475-0.759-1.769c-0.295-0.194-0.451-0.307-0.674-0.467l-0.501-0.357
		l1.148-1.637l0.521,0.371c0.2,0.144,0.34,0.245,0.604,0.419C47.349,18.174,48,19.524,48,20.951V41.18
		C48,43.316,46.262,45.055,44.125,45.055z"/>
	<path d="M34.064,31.521c-0.001,0-0.003,0-0.004,0l-20.215-0.086c-0.264-0.001-0.517-0.106-0.703-0.293L1.232,19.226l1.414-1.414
		l11.62,11.625l19.386,0.082l11.703-11.708l1.414,1.414L34.771,31.229C34.584,31.416,34.33,31.521,34.064,31.521z"/>
	<rect x="6.672" y="27.668" transform="matrix(0.7522 0.659 -0.659 0.7522 26.0331 4.02)" width="2.001" height="17.907"/>
	<rect x="31.567" y="35.622" transform="matrix(0.6588 0.7523 -0.7523 0.6588 41.3771 -17.989)" width="17.907" height="2"/>
	<path d="M2.513,19.338L1.365,17.7L21.249,3.752c1.534-1.077,3.941-1.078,5.478,0L46.61,17.7l-1.148,1.638L25.578,5.39
		c-0.848-0.595-2.333-0.594-3.181,0L2.513,19.338z"/>
</g>
</svg>
