<?xml version="1.0" encoding="utf-8"?>
<!-- Generator: Adobe Illustrator 16.0.0, SVG Export Plug-In . SVG Version: 6.00 Build 0)  -->
<!DOCTYPE svg PUBLIC "-//W3C//DTD SVG 1.1//EN" "http://www.w3.org/Graphics/SVG/1.1/DTD/svg11.dtd">
<svg version="1.1" id="Layer_1" xmlns="http://www.w3.org/2000/svg" xmlns:xlink="http://www.w3.org/1999/xlink" x="0px" y="0px"
	 width="48px" height="48px" viewBox="0 0 48 48" enable-background="new 0 0 48 48" xml:space="preserve">
<g>
	<path d="M24,48C10.767,48,0,37.233,0,24S10.767,0,24,0s24,10.767,24,24S37.233,48,24,48z M24,2C11.869,2,2,11.869,2,24
		s9.869,22,22,22s22-9.869,22-22S36.131,2,24,2z"/>
	<polygon points="31.274,20.072 16.411,20.048 2.23,16.936 2.659,14.982 16.733,18.072 31.085,18.072 45.49,15.317 45.865,17.282 	
		"/>
	<polygon points="20.166,46.979 17.73,31.579 1.102,25.165 1.822,23.299 19.525,30.128 22.142,46.666 	"/>
	<polygon points="28.298,46.979 26.323,46.666 28.935,30.128 46.641,23.299 47.359,25.165 30.729,31.579 	"/>
	<polygon points="6.196,22.706 4.197,22.644 4.331,18.371 11.859,20.539 11.305,22.461 6.25,21.005 	"/>
	<polygon points="37.491,24.031 35.491,23.969 35.61,20.146 42.729,19.101 43.021,21.079 37.558,21.881 	"/>
</g>
</svg>
