<?xml version="1.0" encoding="utf-8"?>
<!-- Generator: Adobe Illustrator 16.0.0, SVG Export Plug-In . SVG Version: 6.00 Build 0)  -->
<!DOCTYPE svg PUBLIC "-//W3C//DTD SVG 1.1//EN" "http://www.w3.org/Graphics/SVG/1.1/DTD/svg11.dtd">
<svg version="1.1" id="Layer_1" xmlns="http://www.w3.org/2000/svg" xmlns:xlink="http://www.w3.org/1999/xlink" x="0px" y="0px"
	 width="48px" height="48px" viewBox="0 0 48 48" enable-background="new 0 0 48 48" xml:space="preserve">
<g>
	<path d="M24,45.098c-5.655,0-10.255-4.601-10.255-10.256c0-5.654,4.6-10.255,10.255-10.255c5.654,0,10.255,4.601,10.255,10.255
		C34.255,40.497,29.654,45.098,24,45.098z M24,26.587c-4.552,0-8.255,3.703-8.255,8.255c0,4.553,3.703,8.256,8.255,8.256
		s8.255-3.703,8.255-8.256C32.255,30.29,28.552,26.587,24,26.587z"/>
	<path d="M46.257,14.821C40.584,8.517,32.472,4.902,24,4.902S7.416,8.517,1.743,14.821l-1.486-1.338
		C6.308,6.758,14.962,2.902,24,2.902s17.692,3.856,23.743,10.581L46.257,14.821z"/>
	<path d="M40.119,24.632c-3.535-5.565-9.561-8.887-16.119-8.887c-6.559,0-12.584,3.322-16.119,8.887l-1.688-1.073
		c3.903-6.145,10.56-9.814,17.807-9.814c7.246,0,13.903,3.669,17.807,9.814L40.119,24.632z"/>
	<path d="M46.257,14.821C40.584,8.517,32.472,4.902,24,4.902S7.416,8.517,1.743,14.821l-1.486-1.338
		C6.308,6.758,14.962,2.902,24,2.902s17.692,3.856,23.743,10.581L46.257,14.821z"/>
</g>
</svg>
