<?xml version="1.0" encoding="utf-8"?>
<!-- Generator: Adobe Illustrator 16.0.0, SVG Export Plug-In . SVG Version: 6.00 Build 0)  -->
<!DOCTYPE svg PUBLIC "-//W3C//DTD SVG 1.1//EN" "http://www.w3.org/Graphics/SVG/1.1/DTD/svg11.dtd">
<svg version="1.1" id="Layer_1" xmlns="http://www.w3.org/2000/svg" xmlns:xlink="http://www.w3.org/1999/xlink" x="0px" y="0px"
	 width="48px" height="48px" viewBox="0 0 48 48" enable-background="new 0 0 48 48" xml:space="preserve">
<g>
	<path d="M24,45.419c-4.495,0-8.152-3.656-8.152-8.151c0-4.493,3.657-8.149,8.152-8.149s8.152,3.656,8.152,8.149
		C32.152,41.763,28.495,45.419,24,45.419z M24,31.118c-3.392,0-6.152,2.759-6.152,6.149c0,3.392,2.76,6.151,6.152,6.151
		c3.393,0,6.152-2.76,6.152-6.151C30.152,33.877,27.393,31.118,24,31.118z"/>
	<path d="M41.03,21.947c-4.344-4.823-10.551-7.59-17.03-7.59c-6.48,0-12.688,2.767-17.03,7.59l-1.486-1.338
		c4.721-5.244,11.47-8.252,18.516-8.252c7.046,0,13.795,3.008,18.517,8.252L41.03,21.947z"/>
	<path d="M1.683,13.398l-1.366-1.461C6.767,5.904,15.177,2.581,24,2.581c8.823,0,17.234,3.323,23.684,9.356l-1.367,1.46
		C40.239,7.712,32.314,4.581,24,4.581C15.687,4.581,7.761,7.712,1.683,13.398z"/>
	<path d="M11.736,29.498l-1.688-1.072c3.059-4.814,8.274-7.689,13.952-7.689c5.679,0,10.895,2.875,13.951,7.689l-1.688,1.072
		C33.575,25.265,28.99,22.737,24,22.737C19.01,22.737,14.425,25.265,11.736,29.498z"/>
	<path d="M41.03,21.947c-4.344-4.823-10.551-7.59-17.03-7.59c-6.48,0-12.688,2.767-17.03,7.59l-1.486-1.338
		c4.721-5.244,11.47-8.252,18.516-8.252c7.046,0,13.795,3.008,18.517,8.252L41.03,21.947z"/>
</g>
</svg>
