<?xml version="1.0" encoding="utf-8"?>
<!-- Generator: Adobe Illustrator 16.0.0, SVG Export Plug-In . SVG Version: 6.00 Build 0)  -->
<!DOCTYPE svg PUBLIC "-//W3C//DTD SVG 1.1//EN" "http://www.w3.org/Graphics/SVG/1.1/DTD/svg11.dtd">
<svg version="1.1" id="Layer_1" xmlns="http://www.w3.org/2000/svg" xmlns:xlink="http://www.w3.org/1999/xlink" x="0px" y="0px"
	 width="48px" height="48px" viewBox="0 0 48 48" enable-background="new 0 0 48 48" xml:space="preserve">
<g>
	<path d="M24,38.996c-2.798,0-6.276-0.663-7.648-2.522c-1.051-1.425-1.289-3.397-1.588-5.895c-0.361-3.003-0.81-6.741-2.897-10.895
		l-0.128-0.252c-0.323-0.625-0.54-1.179-0.666-1.697c-0.429-1.304-0.657-2.727-0.657-4.152C10.416,6.094,16.51,0,24,0
		s13.584,6.094,13.584,13.584c0,1.424-0.229,2.846-0.678,4.227c-0.101,0.435-0.316,0.989-0.64,1.617l-0.135,0.261
		c-2.085,4.15-2.534,7.888-2.896,10.891c-0.3,2.497-0.536,4.47-1.588,5.895C30.276,38.333,26.798,38.996,24,38.996z M24,2
		c-6.387,0-11.584,5.197-11.584,11.584c0,1.214,0.195,2.428,0.58,3.607c0.107,0.43,0.274,0.849,0.518,1.32l0.145,0.286
		c2.239,4.457,2.711,8.386,3.091,11.543c0.265,2.205,0.474,3.946,1.212,4.946c0.743,1.007,3.226,1.71,6.039,1.71
		c2.813,0,5.296-0.703,6.039-1.71c0.738-1,0.947-2.741,1.212-4.945c0.38-3.158,0.852-7.088,3.096-11.554l0.144-0.279
		c0.242-0.472,0.409-0.89,0.492-1.238c0.406-1.259,0.602-2.473,0.602-3.686C35.584,7.197,30.388,2,24,2z"/>
	<path d="M28.717,47.999h-9.178c-1.924,0-3.49-1.565-3.49-3.489v-8.771h2v8.771c0,0.821,0.668,1.489,1.49,1.489h9.178
		c0.82,0,1.488-0.668,1.488-1.489v-8.771h2v8.771C32.205,46.434,30.641,47.999,28.717,47.999z"/>
	<g>
		<path d="M21.798,35.793l-1.997-0.106c0.006-0.116,0.562-11.724-3.96-22.29l1.839-0.787C22.39,23.617,21.825,35.301,21.798,35.793z
			"/>
		<path d="M26.201,35.793c-0.026-0.492-0.592-12.176,4.118-23.184l1.838,0.787c-4.527,10.583-3.965,22.174-3.958,22.289
			L26.201,35.793z"/>
	</g>
	<path d="M23.415,18.84c-0.004,0-0.007,0-0.011,0c-0.436-0.005-0.818-0.291-0.945-0.708l-1.445-4.729
		c-2.424,3.034-5.452,2.92-5.601,2.912l0.094-1.998c0.137,0.007,3.063,0.053,4.929-3.733c0.181-0.368,0.575-0.592,0.978-0.554
		c0.409,0.033,0.756,0.312,0.876,0.704l1.164,3.806l1.474-4.459c0.137-0.417,0.543-0.675,0.97-0.685
		c0.438,0.009,0.82,0.303,0.941,0.725c0.016,0.055,1.608,5.501,5.42,5.271l0.107,1.997c-3.258,0.188-5.268-2.2-6.367-4.177
		l-1.632,4.942C24.229,18.563,23.846,18.84,23.415,18.84z"/>
</g>
</svg>
