<?xml version="1.0" encoding="utf-8"?>
<!-- Generator: Adobe Illustrator 16.0.0, SVG Export Plug-In . SVG Version: 6.00 Build 0)  -->
<!DOCTYPE svg PUBLIC "-//W3C//DTD SVG 1.1//EN" "http://www.w3.org/Graphics/SVG/1.1/DTD/svg11.dtd">
<svg version="1.1" id="Layer_1" xmlns="http://www.w3.org/2000/svg" xmlns:xlink="http://www.w3.org/1999/xlink" x="0px" y="0px"
	 width="48px" height="48px" viewBox="0 0 48 48" enable-background="new 0 0 48 48" xml:space="preserve">
<g>
	<path d="M24,48c-6.339,0-11.497-5.158-11.497-11.498c0-4.352,2.458-8.309,6.316-10.259V5.271C18.819,2.365,21.143,0,24,0
		c2.857,0,5.182,2.365,5.182,5.271v20.973c3.857,1.949,6.315,5.906,6.315,10.259C35.497,42.843,30.34,48,24,48z M24,2
		c-1.754,0-3.181,1.467-3.181,3.271v21.607c0,0.397-0.236,0.758-0.601,0.917c-3.472,1.512-5.715,4.93-5.715,8.707
		C14.503,41.739,18.763,46,24,46c5.236,0,9.497-4.261,9.497-9.497c0-3.778-2.243-7.196-5.715-8.707
		c-0.364-0.159-0.601-0.519-0.601-0.917V5.271C27.182,3.467,25.754,2,24,2z"/>
	<path d="M24,44.406c-4.357,0-7.903-3.546-7.903-7.903c0-3.146,1.867-5.989,4.756-7.245l1.56-0.678v-9.652
		c0-0.91,0.727-1.678,1.587-1.678s1.587,0.769,1.587,1.678v9.652l1.56,0.678c2.89,1.257,4.756,4.101,4.756,7.245
		C31.902,40.86,28.357,44.406,24,44.406z M24,30.046c-0.058,0.042-0.121,0.078-0.188,0.107l-2.161,0.938
		c-2.158,0.938-3.553,3.063-3.553,5.411c0,3.255,2.648,5.903,5.903,5.903s5.902-2.648,5.902-5.903c0-2.349-1.395-4.473-3.553-5.411
		l-2.161-0.938C24.121,30.124,24.058,30.088,24,30.046z"/>
</g>
</svg>
