<?xml version="1.0" encoding="utf-8"?>
<!-- Generator: Adobe Illustrator 16.0.0, SVG Export Plug-In . SVG Version: 6.00 Build 0)  -->
<!DOCTYPE svg PUBLIC "-//W3C//DTD SVG 1.1//EN" "http://www.w3.org/Graphics/SVG/1.1/DTD/svg11.dtd">
<svg version="1.1" id="Layer_1" xmlns="http://www.w3.org/2000/svg" xmlns:xlink="http://www.w3.org/1999/xlink" x="0px" y="0px"
	 width="48px" height="48px" viewBox="0 0 48 48" enable-background="new 0 0 48 48" xml:space="preserve">
<g>
	<path d="M30.123,42.052c-0.264,0-0.518-0.104-0.705-0.291L7.506,19.993c-0.286-0.284-0.374-0.711-0.222-1.085l1.631-4.029
		l-1.93-1.919c-0.188-0.187-0.294-0.441-0.295-0.706s0.104-0.52,0.291-0.708l4.483-4.514c0.187-0.188,0.441-0.295,0.707-0.296
		c0.001,0,0.002,0,0.003,0c0.264,0,0.518,0.104,0.705,0.291l1.931,1.918l4.02-1.659c0.37-0.153,0.799-0.07,1.086,0.215L41.83,29.268
		c0.188,0.187,0.294,0.44,0.295,0.706c0.001,0.265-0.104,0.52-0.291,0.708L30.832,41.757C30.645,41.944,30.358,42.089,30.123,42.052
		z M9.387,19.042l20.731,20.595l9.593-9.656L18.979,9.388l-4.021,1.659c-0.372,0.153-0.801,0.069-1.086-0.215L12.18,9.151
		l-3.075,3.096l1.692,1.682c0.286,0.284,0.373,0.711,0.222,1.084L9.387,19.042z"/>
	<rect x="-0.782" y="4.439" transform="matrix(0.7094 0.7048 -0.7048 0.7094 5.3887 -2.1908)" width="12.267" height="2"/>
	<path d="M36.836,47.884c-0.255,0-0.51-0.097-0.704-0.29L33.63,45.11c-0.188-0.188-0.295-0.441-0.296-0.706
		c-0.001-0.266,0.104-0.521,0.291-0.709l1.598-1.607l-3.086-3.063c-0.188-0.188-0.295-0.441-0.296-0.706
		c-0.001-0.266,0.104-0.521,0.291-0.709l5.563-5.6c0.187-0.188,0.44-0.294,0.706-0.295c0.001,0,0.002,0,0.003,0
		c0.265,0,0.518,0.104,0.705,0.291l3.082,3.065l1.598-1.609c0.392-0.391,1.023-0.393,1.415-0.005l2.501,2.483
		c0.188,0.188,0.294,0.441,0.295,0.706c0.001,0.266-0.104,0.521-0.29,0.709L37.546,47.589C37.35,47.785,37.093,47.884,36.836,47.884
		z M35.749,44.396l1.082,1.074l8.755-8.814l-1.082-1.074l-1.599,1.61c-0.188,0.188-0.441,0.294-0.707,0.295
		c-0.292,0.037-0.52-0.104-0.708-0.291l-3.082-3.065l-4.153,4.18l3.086,3.063c0.188,0.188,0.295,0.441,0.296,0.707
		c0.001,0.265-0.104,0.52-0.291,0.708L35.749,44.396z"/>
	<rect x="30.02" y="30.727" transform="matrix(0.7091 0.7052 -0.7052 0.7091 32.9625 -11.9969)" width="2" height="6.439"/>
	<rect x="26.786" y="30.377" transform="matrix(0.71 0.7042 -0.7042 0.71 30.8786 -10.1682)" width="2" height="4.065"/>
	<rect x="24.962" y="25.698" transform="matrix(0.7093 0.7049 -0.7049 0.7093 27.933 -9.8937)" width="2" height="6.443"/>
	<rect x="21.725" y="25.35" transform="matrix(0.7093 0.7049 -0.7049 0.7093 25.9089 -8.0587)" width="2" height="4.066"/>
	<rect x="19.901" y="20.674" transform="matrix(0.7098 0.7044 -0.7044 0.7098 22.8979 -7.7878)" width="1.999" height="6.443"/>
	<rect x="16.667" y="20.325" transform="matrix(0.7091 0.7052 -0.7052 0.7091 20.9056 -5.9527)" width="2" height="4.067"/>
	<rect x="14.841" y="15.648" transform="matrix(0.7095 0.7047 -0.7047 0.7095 17.897 -5.6823)" width="2" height="6.44"/>
</g>
</svg>
