<?xml version="1.0" encoding="utf-8"?>
<!-- Generator: Adobe Illustrator 16.0.0, SVG Export Plug-In . SVG Version: 6.00 Build 0)  -->
<!DOCTYPE svg PUBLIC "-//W3C//DTD SVG 1.1//EN" "http://www.w3.org/Graphics/SVG/1.1/DTD/svg11.dtd">
<svg version="1.1" id="Layer_1" xmlns="http://www.w3.org/2000/svg" xmlns:xlink="http://www.w3.org/1999/xlink" x="0px" y="0px"
	 width="48px" height="48px" viewBox="0 0 48 48" enable-background="new 0 0 48 48" xml:space="preserve">
<g>
	<path d="M28.044,35.734c-11.131,0-20.186-9.056-20.186-20.188c0-4.863,1.758-9.563,4.949-13.234
		c0.348-0.399,0.945-0.459,1.365-0.136L44.53,25.53c0.42,0.323,0.516,0.918,0.218,1.355C40.979,32.427,34.734,35.734,28.044,35.734z
		 M13.718,4.351c-2.496,3.189-3.86,7.129-3.86,11.196c0,10.028,8.158,18.188,18.186,18.188c5.713,0,11.065-2.678,14.5-7.208
		L13.718,4.351z"/>
	<path d="M4.08,48c-0.384,0-0.734-0.22-0.901-0.566c-0.167-0.346-0.121-0.757,0.119-1.057l10.719-13.448
		c0.38-0.477,1.185-0.477,1.564,0l10.721,13.446c0.239,0.3,0.285,0.711,0.119,1.057c-0.167,0.347-0.518,0.566-0.901,0.566L4.08,48z
		 M14.799,35.156L6.156,46l17.287-0.002L14.799,35.156z"/>
	<path d="M35.767,16.006l-1.881-0.682L38.114,3.67l-10.146,7.207L26.81,9.246l12.758-9.061c0.357-0.253,0.837-0.245,1.185,0.02
		c0.349,0.265,0.483,0.726,0.335,1.137L35.767,16.006z"/>
</g>
</svg>
