<?xml version="1.0" encoding="utf-8"?>
<!-- Generator: Adobe Illustrator 16.0.0, SVG Export Plug-In . SVG Version: 6.00 Build 0)  -->
<!DOCTYPE svg PUBLIC "-//W3C//DTD SVG 1.1//EN" "http://www.w3.org/Graphics/SVG/1.1/DTD/svg11.dtd">
<svg version="1.1" id="Layer_1" xmlns="http://www.w3.org/2000/svg" xmlns:xlink="http://www.w3.org/1999/xlink" x="0px" y="0px"
	 width="48px" height="48px" viewBox="0 0 48 48" enable-background="new 0 0 48 48" xml:space="preserve">
<g>
	<polygon points="1.707,28.445 0.293,27.031 3.392,23.933 6.487,27.031 5.072,28.445 3.391,26.762 	"/>
	<polygon points="46.293,28.445 44.608,26.762 42.929,28.444 41.513,27.032 44.606,23.933 47.707,27.031 	"/>
	<path d="M24,9.69c-2.672,0-4.845-2.173-4.845-4.845C19.155,2.173,21.328,0,24,0s4.846,2.173,4.846,4.845
		C28.846,7.517,26.672,9.69,24,9.69z M24,2c-1.569,0-2.845,1.276-2.845,2.845c0,1.568,1.276,2.845,2.845,2.845
		c1.569,0,2.846-1.276,2.846-2.845C26.846,3.276,25.569,2,24,2z"/>
	<path d="M24,47.543c-11.915,0-21.609-9.694-21.609-21.611h2c0,10.813,8.796,19.611,19.609,19.611
		c10.812,0,19.607-8.798,19.607-19.611h2C45.607,37.849,35.914,47.543,24,47.543z"/>
	<rect x="23" y="8.689" width="2" height="38.311"/>
	<rect x="18.135" y="13.358" width="11.73" height="2"/>
</g>
</svg>
