<?xml version="1.0" encoding="utf-8"?>
<!-- Generator: Adobe Illustrator 16.0.0, SVG Export Plug-In . SVG Version: 6.00 Build 0)  -->
<!DOCTYPE svg PUBLIC "-//W3C//DTD SVG 1.1//EN" "http://www.w3.org/Graphics/SVG/1.1/DTD/svg11.dtd">
<svg version="1.1" id="Layer_1" xmlns="http://www.w3.org/2000/svg" xmlns:xlink="http://www.w3.org/1999/xlink" x="0px" y="0px"
	 width="48px" height="48px" viewBox="0 0 48 48" enable-background="new 0 0 48 48" xml:space="preserve">
<g>
	<g>
		<path d="M24,2c12.131,0,22,9.869,22,22s-9.869,22-22,22S2,36.131,2,24S11.869,2,24,2 M24,0C10.746,0,0,10.746,0,24
			c0,13.256,10.746,24,24,24c13.256,0,24-10.744,24-24C48,10.746,37.256,0,24,0L24,0z"/>
	</g>
	<g>
		<path d="M24,11.988c6.623,0,12.012,5.389,12.012,12.012c0,6.624-5.389,12.014-12.012,12.014S11.988,30.624,11.988,24
			C11.988,17.377,17.377,11.988,24,11.988 M24,9.988C16.262,9.988,9.988,16.262,9.988,24c0,7.738,6.274,14.014,14.012,14.014
			c7.738,0,14.012-6.274,14.012-14.014S31.738,9.988,24,9.988L24,9.988z"/>
	</g>
	<g>
		<g>
			<path d="M17.15,13.41c-2.184-0.651-4.079-2.324-5.07-4.476c-0.866-1.88-0.921-3.863-0.158-5.583l1.828,0.813
				c-0.527,1.187-0.476,2.583,0.146,3.934c0.742,1.612,2.208,2.914,3.824,3.395L17.15,13.41z"/>
			<path d="M9.684,19.967c-1.104,0-2.276-0.299-3.421-0.896c-2.393-1.25-3.938-3.402-3.938-5.484h2c0,1.305,1.178,2.831,2.864,3.711
				c1.628,0.851,3.269,0.893,4.39,0.113l1.143,1.642C11.845,19.662,10.799,19.967,9.684,19.967z"/>
		</g>
		<g>
			<path d="M5.645,35.757c-0.998,0-1.965-0.225-2.848-0.671L3.7,33.301c1.158,0.587,2.557,0.605,3.936,0.052
				c1.647-0.66,3.02-2.059,3.582-3.648l1.886,0.666c-0.759,2.148-2.524,3.958-4.723,4.839C7.469,35.574,6.544,35.757,5.645,35.757z"
				/>
			<path d="M12.749,45.191c-0.071,0-0.142-0.002-0.213-0.005l0.101-1.998c1.293,0.076,2.886-1.033,3.85-2.674
				c0.932-1.584,1.056-3.222,0.333-4.38l1.697-1.059c1.124,1.803,1.01,4.215-0.306,6.452C16.889,43.775,14.766,45.191,12.749,45.191
				z"/>
		</g>
	</g>
	<g>
		<g>
			<path d="M35.943,44.598l-1.828-0.813c0.527-1.186,0.476-2.582-0.146-3.933c-0.742-1.613-2.208-2.914-3.824-3.396l0.57-1.916
				c2.185,0.65,4.08,2.324,5.071,4.477C36.651,40.896,36.707,42.879,35.943,44.598z"/>
			<path d="M45.541,34.363h-2c0-1.305-1.178-2.83-2.864-3.711c-1.629-0.851-3.27-0.893-4.391-0.111L35.144,28.9
				c1.743-1.216,4.157-1.224,6.459-0.021C43.995,30.129,45.541,32.281,45.541,34.363z"/>
		</g>
		<g>
			<path d="M36.647,18.246l-1.885-0.667c0.759-2.147,2.525-3.956,4.723-4.837c1.923-0.77,3.904-0.726,5.584,0.122l-0.902,1.785
				c-1.158-0.585-2.557-0.603-3.937-0.051C38.583,15.258,37.21,16.656,36.647,18.246z"/>
			<path d="M29.35,12.874c-1.124-1.801-1.011-4.212,0.304-6.449c1.367-2.327,3.593-3.771,5.676-3.661l-0.1,1.997
				c-1.286-0.051-2.888,1.036-3.852,2.677c-0.931,1.583-1.054,3.219-0.331,4.376L29.35,12.874z"/>
		</g>
	</g>
</g>
</svg>
