<?xml version="1.0" encoding="utf-8"?>
<!-- Generator: Adobe Illustrator 16.0.0, SVG Export Plug-In . SVG Version: 6.00 Build 0)  -->
<!DOCTYPE svg PUBLIC "-//W3C//DTD SVG 1.1//EN" "http://www.w3.org/Graphics/SVG/1.1/DTD/svg11.dtd">
<svg version="1.1" id="Layer_1" xmlns="http://www.w3.org/2000/svg" xmlns:xlink="http://www.w3.org/1999/xlink" x="0px" y="0px"
	 width="48px" height="48px" viewBox="0 0 48 48" enable-background="new 0 0 48 48" xml:space="preserve">
<g>
	<path d="M33.691,8.313h-2V6.606c0-2.496-1.568-4.604-3.424-4.604h-8.53c-1.856,0-3.425,2.108-3.425,4.604v1.707h-2V6.606
		c0-3.642,2.434-6.604,5.425-6.604h8.53c2.99,0,5.424,2.962,5.424,6.604V8.313z"/>
	<path d="M42.581,47.999H5.425C2.434,47.998,0,45.035,0,41.395V13.917c0-3.642,2.434-6.604,5.425-6.604h37.156
		c2.988,0,5.419,2.962,5.419,6.604v27.478C48,45.036,45.569,47.999,42.581,47.999z M5.425,9.313C3.568,9.313,2,11.421,2,13.917
		v27.478c0,2.495,1.568,4.604,3.425,4.604h37.156c1.854,0,3.419-2.108,3.419-4.604V13.917c0-2.496-1.565-4.604-3.419-4.604H5.425z"
		/>
	<rect x="1" y="21.991" width="8.059" height="2"/>
	<rect x="38.941" y="21.991" width="8.059" height="2"/>
	<rect x="15.189" y="21.991" width="17.622" height="2"/>
	<g>
		<path d="M12.124,36.335c-2.64,0-4.065-4.179-4.065-8.11V24.74c0-3.926,1.425-8.098,4.065-8.098s4.065,4.172,4.065,8.098v3.484
			C16.189,32.156,14.764,36.335,12.124,36.335z M12.124,18.642c-0.728,0-2.065,2.315-2.065,6.098v3.484
			c0,3.79,1.337,6.11,2.065,6.11s2.065-2.32,2.065-6.11V24.74C14.189,20.958,12.852,18.642,12.124,18.642z"/>
		<path d="M35.877,36.335c-2.642,0-4.066-4.179-4.066-8.11V24.74c0-3.926,1.425-8.098,4.066-8.098c2.64,0,4.064,4.172,4.064,8.098
			v3.484C39.941,32.156,38.517,36.335,35.877,36.335z M35.877,18.642c-0.729,0-2.066,2.315-2.066,6.098v3.484
			c0,3.79,1.338,6.11,2.066,6.11c0.728,0,2.064-2.32,2.064-6.11V24.74C37.941,20.958,36.604,18.642,35.877,18.642z"/>
	</g>
</g>
</svg>
