<?xml version="1.0" encoding="utf-8"?>
<!-- Generator: Adobe Illustrator 16.0.0, SVG Export Plug-In . SVG Version: 6.00 Build 0)  -->
<!DOCTYPE svg PUBLIC "-//W3C//DTD SVG 1.1//EN" "http://www.w3.org/Graphics/SVG/1.1/DTD/svg11.dtd">
<svg version="1.1" id="Layer_1" xmlns="http://www.w3.org/2000/svg" xmlns:xlink="http://www.w3.org/1999/xlink" x="0px" y="0px"
	 width="48px" height="48px" viewBox="0 0 48 48" enable-background="new 0 0 48 48" xml:space="preserve">
<g>
	<g>
		<path d="M32.884,48H15.116c-4.411,0-8-3.589-8-8V8c0-4.411,3.589-8,8-8h17.768c4.411,0,8,3.589,8,8v32
			C40.884,44.411,37.295,48,32.884,48z M15.116,2c-3.309,0-6,2.691-6,6v32c0,3.309,2.691,6,6,6h17.768c3.309,0,6-2.691,6-6V8
			c0-3.309-2.691-6-6-6H15.116z"/>
	</g>
	<path d="M36.375,15.364h-24.75V5.025h24.75V15.364z M13.625,13.364h20.75V7.025h-20.75V13.364z"/>
	<path d="M18.267,25.372h-6.642v-6.447h6.642V25.372z M13.625,23.372h2.642v-2.447h-2.642V23.372z"/>
	<path d="M27.322,25.372h-6.644v-6.447h6.644V25.372z M22.678,23.372h2.644v-2.447h-2.644V23.372z"/>
	<path d="M36.375,25.372h-6.643v-6.447h6.643V25.372z M31.732,23.372h2.643v-2.447h-2.643V23.372z"/>
	<path d="M18.267,33.268h-6.642v-6.449h6.642V33.268z M13.625,31.268h2.642v-2.449h-2.642V31.268z"/>
	<path d="M27.322,33.268h-6.644v-6.449h6.644V33.268z M22.678,31.268h2.644v-2.449h-2.644V31.268z"/>
	<path d="M36.375,33.268h-6.643v-6.449h6.643V33.268z M31.732,31.268h2.643v-2.449h-2.643V31.268z"/>
	<path d="M18.267,41.16h-6.642v-6.447h6.642V41.16z M13.625,39.16h2.642v-2.447h-2.642V39.16z"/>
	<path d="M27.322,41.16h-6.644v-6.447h6.644V41.16z M22.678,39.16h2.644v-2.447h-2.644V39.16z"/>
	<path d="M36.375,41.16h-6.643v-6.447h6.643V41.16z M31.732,39.16h2.643v-2.447h-2.643V39.16z"/>
</g>
</svg>
