<?xml version="1.0" encoding="utf-8"?>
<!-- Generator: Adobe Illustrator 16.0.0, SVG Export Plug-In . SVG Version: 6.00 Build 0)  -->
<!DOCTYPE svg PUBLIC "-//W3C//DTD SVG 1.1//EN" "http://www.w3.org/Graphics/SVG/1.1/DTD/svg11.dtd">
<svg version="1.1" id="Layer_1" xmlns="http://www.w3.org/2000/svg" xmlns:xlink="http://www.w3.org/1999/xlink" x="0px" y="0px"
	 width="48px" height="48px" viewBox="0 0 48 48" enable-background="new 0 0 48 48" xml:space="preserve">
<g>
	<path d="M24.001,34.467c-9.392,0-17.033-7.643-17.033-17.036C6.968,8.04,14.609,0.4,24.001,0.4c4.549,0,8.826,1.772,12.043,4.989
		c3.217,3.217,4.988,7.494,4.988,12.042C41.032,26.824,33.392,34.467,24.001,34.467z M24.003,2.4
		c-8.291,0-15.035,6.743-15.035,15.031c0,8.291,6.744,15.036,15.033,15.036c8.288,0,15.031-6.745,15.031-15.036
		C39.032,9.143,32.29,2.4,24.003,2.4z"/>
	<rect x="22.999" y="32.861" width="2" height="14.541"/>
	<rect x="19.242" y="42.057" width="9.515" height="2"/>
</g>
</svg>
