<?xml version="1.0" encoding="utf-8"?>
<!-- Generator: Adobe Illustrator 16.0.0, SVG Export Plug-In . SVG Version: 6.00 Build 0)  -->
<!DOCTYPE svg PUBLIC "-//W3C//DTD SVG 1.1//EN" "http://www.w3.org/Graphics/SVG/1.1/DTD/svg11.dtd">
<svg version="1.1" id="Layer_1" xmlns="http://www.w3.org/2000/svg" xmlns:xlink="http://www.w3.org/1999/xlink" x="0px" y="0px"
	 width="48px" height="48px" viewBox="0 0 48 48" enable-background="new 0 0 48 48" xml:space="preserve">
<g>
	<path d="M39.519,44.886H9.315l0.295-1.233c0.352-1.464,3.337-13.606,6.566-17.06l-0.07-0.141l0.787-0.479
		c0.14-0.085,0.302-0.18,0.477-0.281c1.361-0.787,2.063-1.336,2.086-1.631c-0.021-0.294-0.724-0.845-2.091-1.634
		c-0.173-0.1-0.333-0.193-0.471-0.276l-0.48-0.292v-0.082c-0.251-0.228-0.501-0.507-0.756-0.844
		c-0.341-0.453-0.691-1.016-1.041-1.676c-2.619-4.919-4.91-14.382-5.006-14.782L9.314,3.239h30.203l-0.296,1.233
		c-0.009,0.036-0.882,3.66-2.137,7.554c-0.362,1.121-0.726,2.173-1.081,3.128c-1.181,3.165-2.281,5.269-3.345,6.383l0.065,0.13
		l-0.784,0.481c-0.138,0.083-0.297,0.175-0.469,0.275c-1.369,0.79-2.074,1.341-2.095,1.638c0.023,0.292,0.725,0.841,2.083,1.628
		c0.178,0.104,0.342,0.198,0.482,0.284l0.783,0.479l-0.069,0.139c3.229,3.453,6.215,15.597,6.566,17.061L39.519,44.886z
		 M11.861,42.886h25.11c-1.45-5.674-4.125-13.929-6.099-15.216l-0.087-0.057c-0.102-0.061-0.212-0.124-0.328-0.191
		c-1.301-0.754-3.081-1.785-3.081-3.361c0-1.583,1.789-2.615,3.095-3.369c0.118-0.068,0.229-0.132,0.33-0.192l0.071-0.046
		c0.405-0.265,1.534-1.378,3.257-5.997c0.345-0.927,0.698-1.952,1.052-3.044c0.791-2.456,1.428-4.802,1.783-6.173H11.868
		c0.714,2.743,2.554,9.393,4.516,13.078c0.301,0.568,0.594,1.042,0.871,1.41c0.326,0.431,0.565,0.634,0.708,0.728l0.055,0.036
		c0.106,0.063,0.224,0.131,0.349,0.203c1.304,0.753,3.09,1.786,3.09,3.367c0,1.577-1.783,2.609-3.084,3.362
		c-0.108,0.063-0.21,0.121-0.304,0.177l-0.107,0.07C15.985,28.958,13.311,37.212,11.861,42.886z M17.5,15.15c-0.552,0-1-0.448-1-1
		s0.448-1,1-1s1,0.448,1,1S18.052,15.15,17.5,15.15z"/>
	<path d="M40.706,5.238H7.294V0h33.412V5.238z M9.294,3.238h29.412V2H9.294V3.238z"/>
	<path d="M40.706,48H7.294v-5.236h33.412V48z M9.294,46h29.412v-1.236H9.294V46z"/>
	<path d="M34.909,41.291H13.924l0.373-1.28c1.223-4.195,3.12-9.572,4.444-10.92l0.204-0.159l0.179-0.104
		c1.919-1.106,3.925-2.456,3.925-4.767c0-2.497-2.429-3.903-3.88-4.744l-0.448-0.312c-0.037-0.041-0.101-0.118-0.172-0.21
		l-0.951-1.228l15.051-3.557l-0.787,1.827c-0.923,2.142-1.53,2.929-1.749,3.168L29.68,19.31c-0.56,0.322-1.309,0.753-2.001,1.315
		l-0.29,0.249c-1.081,0.972-1.606,2.015-1.606,3.188c0,1.094,0.456,2.071,1.395,2.987l0.511,0.453
		c0.687,0.559,1.435,0.99,1.981,1.306l0.422,0.284c1.324,1.348,3.223,6.725,4.445,10.92L34.909,41.291z M16.599,39.291h15.634
		c-1.438-4.695-2.813-7.887-3.49-8.71l-0.071-0.041c-0.597-0.344-1.407-0.812-2.204-1.452l-1.451-0.944l0.191-0.283
		c-0.316-0.381-0.58-0.777-0.791-1.187c-1.037,2.01-3.101,3.199-4.255,3.864l-0.072,0.041
		C19.414,31.399,18.038,34.593,16.599,39.291z M21.817,18.624c0.957,0.685,1.967,1.604,2.598,2.825
		c0.268-0.52,0.62-1.017,1.056-1.49l-0.085-0.148l1.112-0.798c0.736-0.604,1.6-1.101,2.171-1.429l0.044-0.025
		c0.079-0.107,0.22-0.313,0.416-0.662L21.817,18.624z"/>
</g>
</svg>
