<?xml version="1.0" encoding="utf-8"?>
<!-- Generator: Adobe Illustrator 16.0.0, SVG Export Plug-In . SVG Version: 6.00 Build 0)  -->
<!DOCTYPE svg PUBLIC "-//W3C//DTD SVG 1.1//EN" "http://www.w3.org/Graphics/SVG/1.1/DTD/svg11.dtd">
<svg version="1.1" id="Layer_1" xmlns="http://www.w3.org/2000/svg" xmlns:xlink="http://www.w3.org/1999/xlink" x="0px" y="0px"
	 width="48px" height="48px" viewBox="0 0 48 48" enable-background="new 0 0 48 48" xml:space="preserve">
<g>
	<path d="M36.09,47.14l-12.805-3.647L35.428,0.855l12.806,3.647L36.09,47.14z M25.756,42.117l8.959,2.552L45.763,5.878l-8.96-2.551
		L25.756,42.117z"/>
	<path d="M31.671,42.613c-2.348,0-4.257-1.91-4.257-4.258c0-2.347,1.909-4.256,4.257-4.256s4.257,1.909,4.257,4.256
		C35.928,40.703,34.019,42.613,31.671,42.613z M31.671,36.1c-1.244,0-2.257,1.012-2.257,2.256c0,1.245,1.013,2.258,2.257,2.258
		s2.257-1.013,2.257-2.258C33.928,37.111,32.915,36.1,31.671,36.1z"/>
	<rect x="33.637" y="10.588" transform="matrix(0.9618 0.2739 -0.2739 0.9618 4.6762 -10.3191)" width="11.315" height="2"/>
	<rect x="32.729" y="13.777" transform="matrix(0.9617 0.2739 -0.2739 0.9617 5.5165 -9.9505)" width="11.317" height="2.001"/>
	<rect x="31.821" y="16.965" transform="matrix(0.9618 0.2739 -0.2739 0.9618 6.3526 -9.5772)" width="11.316" height="2"/>
	<path d="M24.32,47.14l-12.806-3.646L23.658,0.856l12.805,3.647L24.32,47.14z M13.986,42.118l8.958,2.551l11.048-38.79l-8.958-2.552
		L13.986,42.118z"/>
	<path d="M19.902,42.613c-2.347,0-4.257-1.91-4.257-4.258c0-2.347,1.91-4.256,4.257-4.256c2.348,0,4.257,1.909,4.257,4.256
		C24.159,40.703,22.25,42.613,19.902,42.613z M19.902,36.1c-1.245,0-2.257,1.012-2.257,2.256c0,1.245,1.012,2.258,2.257,2.258
		s2.257-1.013,2.257-2.258C22.159,37.111,21.146,36.1,19.902,36.1z"/>
	<rect x="21.867" y="10.587" transform="matrix(0.9618 0.2738 -0.2738 0.9618 4.2251 -7.0944)" width="11.318" height="2"/>
	<rect x="20.959" y="13.777" transform="matrix(0.9618 0.2739 -0.2739 0.9618 5.0655 -6.7258)" width="11.318" height="2"/>
	<rect x="20.052" y="16.964" transform="matrix(0.9618 0.2739 -0.2739 0.9618 5.9033 -6.3545)" width="11.315" height="2"/>
	<path d="M12.573,47.146l-12.809-3.647L11.908,0.856l12.809,3.647L12.573,47.146z M2.236,42.123l8.961,2.552L22.245,5.879
		l-8.961-2.552L2.236,42.123z"/>
	<path d="M8.151,42.614c-2.348,0-4.258-1.91-4.258-4.259c0-2.348,1.91-4.258,4.258-4.258c2.348,0,4.258,1.91,4.258,4.258
		C12.409,40.704,10.499,42.614,8.151,42.614z M8.151,36.098c-1.245,0-2.258,1.013-2.258,2.258s1.013,2.259,2.258,2.259
		s2.258-1.014,2.258-2.259S9.396,36.098,8.151,36.098z"/>
	<rect x="10.118" y="10.587" transform="matrix(0.9618 0.2739 -0.2739 0.9618 3.7765 -3.8774)" width="11.316" height="2"/>
	<rect x="9.209" y="13.777" transform="matrix(0.9617 0.274 -0.274 0.9617 4.617 -3.5076)" width="11.316" height="2"/>
	<rect x="8.301" y="16.964" transform="matrix(0.9618 0.2739 -0.2739 0.9618 5.4535 -3.136)" width="11.316" height="2"/>
</g>
</svg>
