<?xml version="1.0" encoding="utf-8"?>
<!-- Generator: Adobe Illustrator 16.0.0, SVG Export Plug-In . SVG Version: 6.00 Build 0)  -->
<!DOCTYPE svg PUBLIC "-//W3C//DTD SVG 1.1//EN" "http://www.w3.org/Graphics/SVG/1.1/DTD/svg11.dtd">
<svg version="1.1" id="Layer_1" xmlns="http://www.w3.org/2000/svg" xmlns:xlink="http://www.w3.org/1999/xlink" x="0px" y="0px"
	 width="48px" height="48px" viewBox="0 0 48 48" enable-background="new 0 0 48 48" xml:space="preserve">
<g>
	<g>
		<g>
			<path d="M40,47.999H8c-4.411,0-8-3.589-8-8V22.794c0-4.411,3.589-8,8-8h32c4.411,0,8,3.589,8,8v17.205
				C48,44.41,44.411,47.999,40,47.999z M8,16.794c-3.309,0-6,2.691-6,6v17.205c0,3.309,2.691,6,6,6h32c3.309,0,6-2.691,6-6V22.794
				c0-3.309-2.691-6-6-6H8z"/>
		</g>
		<path d="M39.37,16.499L25.632,2.676c-0.433-0.435-1.012-0.675-1.631-0.675c0,0,0,0,0,0c-0.619,0-1.199,0.24-1.633,0.675
			L8.63,16.499l-1.419-1.41L20.95,1.266C21.762,0.45,22.846,0.001,24,0.001c0,0,0.001,0,0.001,0c1.154,0,2.237,0.449,3.048,1.265
			l13.738,13.823L39.37,16.499z"/>
	</g>
	<g>
		<path d="M15.924,34.146c-0.71,0.694-1.585,1.041-2.625,1.041s-1.916-0.347-2.627-1.041c-0.711-0.693-1.067-1.559-1.067-2.592
			s0.355-1.896,1.067-2.589c0.711-0.696,1.587-1.043,2.627-1.043s1.915,0.347,2.625,1.043c0.711,0.692,1.067,1.556,1.067,2.589
			S16.636,33.453,15.924,34.146z M15.393,31.561c0-0.627-0.202-1.162-0.604-1.604c-0.402-0.443-0.897-0.665-1.484-0.665
			c-0.586,0-1.082,0.222-1.484,0.665c-0.403,0.441-0.604,0.977-0.604,1.604c0,0.629,0.201,1.164,0.604,1.602
			c0.402,0.439,0.897,0.658,1.484,0.658c0.587,0,1.082-0.219,1.484-0.658C15.19,32.725,15.393,32.189,15.393,31.561z"/>
		<path d="M23.165,28.714c0.493,0.419,0.739,1.063,0.739,1.933s-0.253,1.504-0.759,1.906s-1.279,0.604-2.319,0.604h-0.937v1.964
			H18.32v-7.034h2.485C21.886,28.085,22.672,28.295,23.165,28.714z M22.013,31.482c0.187-0.215,0.282-0.522,0.282-0.928
			c0-0.406-0.123-0.695-0.368-0.863c-0.246-0.174-0.625-0.26-1.142-0.26h-0.896v2.364h1.058
			C21.469,31.797,21.825,31.691,22.013,31.482z"/>
		<path d="M30.204,28.085v1.397h-3.502v1.449h3.149v1.338h-3.149v1.461h3.612v1.389h-5.183v-7.034H30.204z"/>
		<path d="M36.634,28.085h1.57v7.034h-1.57l-3.351-4.408v4.408h-1.57v-7.034h1.469l3.452,4.528V28.085z"/>
	</g>
</g>
</svg>
