<?xml version="1.0" encoding="utf-8"?>
<!-- Generator: Adobe Illustrator 16.0.0, SVG Export Plug-In . SVG Version: 6.00 Build 0)  -->
<!DOCTYPE svg PUBLIC "-//W3C//DTD SVG 1.1//EN" "http://www.w3.org/Graphics/SVG/1.1/DTD/svg11.dtd">
<svg version="1.1" id="Layer_1" xmlns="http://www.w3.org/2000/svg" xmlns:xlink="http://www.w3.org/1999/xlink" x="0px" y="0px"
	 width="48px" height="48px" viewBox="0 0 48 48" enable-background="new 0 0 48 48" xml:space="preserve">
<g>
	<path d="M41.471,40.145L41.471,40.145c-4.292,0-12.654-9.101-13.594-10.139c-1.163-1.291-2.472-1.945-3.892-1.945
		c-2.346,0-4.328,1.707-4.614,1.966c-1.05,1.252-8.638,10.116-12.842,10.116c-0.23,0-0.454-0.023-0.665-0.071
		C4.333,39.724,3,38.697,2.004,37.104c-2.134-3.418-2.599-9.199-1.211-15.086C2.725,13.812,7.531,7.856,12.222,7.856
		c0.398,0,0.795,0.044,1.179,0.131c1.457,0.327,2.742,1.283,3.729,2.773c2.233,1.202,4.559,1.811,6.916,1.811
		c3.583,0,6.168-1.401,6.808-1.784c0.985-1.501,2.275-2.467,3.744-2.799c0.384-0.087,0.78-0.131,1.179-0.131
		c4.689,0,9.497,5.956,11.432,14.161c1.387,5.89,0.922,11.672-1.212,15.09c-0.995,1.593-2.329,2.618-3.857,2.966
		C41.927,40.12,41.703,40.145,41.471,40.145z M23.985,26.061c2.011,0,3.82,0.877,5.376,2.605c3.317,3.663,9.541,9.479,12.109,9.479
		l0,0c0.084,0,0.16-0.008,0.227-0.022c1.01-0.229,1.886-0.927,2.603-2.074c1.834-2.937,2.211-8.264,0.961-13.572
		c-1.668-7.076-5.834-12.62-9.484-12.62c-0.25,0-0.498,0.028-0.737,0.082c-1.016,0.23-1.898,0.941-2.621,2.115
		c-0.104,0.167-0.25,0.295-0.418,0.376c-0.651,0.406-3.683,2.141-7.955,2.141c-2.739,0-5.429-0.713-7.997-2.122
		c-0.188-0.077-0.352-0.212-0.465-0.395c-0.727-1.176-1.609-1.888-2.622-2.116C9.192,9.085,4.52,14.915,2.739,22.476
		c-1.25,5.305-0.872,10.631,0.961,13.569c0.717,1.147,1.593,1.846,2.604,2.075c0.065,0.016,0.141,0.022,0.223,0.022
		c2.516,0,8.297-5.796,11.349-9.449c0.024-0.028,0.05-0.056,0.078-0.082C18.064,28.507,20.668,26.061,23.985,26.061z"/>
	<g>
		<path d="M35.354,20.853c-1.736,0-3.149-1.413-3.149-3.15s1.413-3.15,3.149-3.15c1.737,0,3.15,1.413,3.15,3.15
			S37.091,20.853,35.354,20.853z M35.354,16.553c-0.634,0-1.149,0.516-1.149,1.15s0.516,1.15,1.149,1.15
			c0.635,0,1.15-0.516,1.15-1.15S35.988,16.553,35.354,16.553z"/>
		<path d="M35.354,30.55c-1.736,0-3.149-1.413-3.149-3.149c0-1.737,1.413-3.15,3.149-3.15c1.737,0,3.15,1.413,3.15,3.15
			C38.504,29.137,37.091,30.55,35.354,30.55z M35.354,26.25c-0.634,0-1.149,0.516-1.149,1.15c0,0.634,0.516,1.149,1.149,1.149
			c0.635,0,1.15-0.516,1.15-1.149C36.504,26.766,35.988,26.25,35.354,26.25z"/>
	</g>
	<g>
		<path d="M40.165,25.7c-1.736,0-3.149-1.413-3.149-3.15c0-1.737,1.413-3.15,3.149-3.15s3.149,1.413,3.149,3.15
			C43.314,24.287,41.901,25.7,40.165,25.7z M40.165,21.4c-0.634,0-1.149,0.516-1.149,1.15s0.516,1.15,1.149,1.15
			s1.149-0.516,1.149-1.15S40.799,21.4,40.165,21.4z"/>
		<path d="M30.541,25.7c-1.737,0-3.15-1.413-3.15-3.15c0-1.737,1.413-3.15,3.15-3.15s3.15,1.413,3.15,3.15
			C33.691,24.287,32.278,25.7,30.541,25.7z M30.541,21.4c-0.635,0-1.15,0.516-1.15,1.15s0.516,1.15,1.15,1.15s1.15-0.516,1.15-1.15
			S31.176,21.4,30.541,21.4z"/>
	</g>
	<path d="M12.137,27.968c-3.858,0-6.997-3.139-6.997-6.997c0-3.859,3.139-6.999,6.997-6.999c3.86,0,7,3.14,7,6.999
		C19.137,24.829,15.997,27.968,12.137,27.968z M12.137,15.972c-2.755,0-4.997,2.243-4.997,4.999c0,2.755,2.242,4.997,4.997,4.997
		c2.757,0,5-2.242,5-4.997C17.137,18.215,14.894,15.972,12.137,15.972z"/>
</g>
</svg>
