<?xml version="1.0" encoding="utf-8"?>
<!-- Generator: Adobe Illustrator 16.0.0, SVG Export Plug-In . SVG Version: 6.00 Build 0)  -->
<!DOCTYPE svg PUBLIC "-//W3C//DTD SVG 1.1//EN" "http://www.w3.org/Graphics/SVG/1.1/DTD/svg11.dtd">
<svg version="1.1" id="Layer_1" xmlns="http://www.w3.org/2000/svg" xmlns:xlink="http://www.w3.org/1999/xlink" x="0px" y="0px"
	 width="48px" height="48px" viewBox="0 0 48 48" enable-background="new 0 0 48 48" xml:space="preserve">
<g>
	<g>
		<path d="M22.979,46.216C7.847,45.899,6.691,29.841,6.681,29.678l-0.002-8.926c0-10.459,7.77-18.969,17.32-18.969
			c9.551,0,17.321,8.509,17.321,18.969v8.865h-2v-8.865c0-9.356-6.873-16.969-15.321-16.969c-8.447,0-15.32,7.612-15.32,16.969
			v8.865c0.035,0.525,1.065,14.321,14.342,14.599L22.979,46.216z"/>
		<g>
			<path d="M6.104,30.617H0V18.858h6.104V30.617z M2,28.617h2.104v-7.759H2V28.617z"/>
			<path d="M48,30.617h-6.104V18.858H48V30.617z M43.896,28.617H46v-7.759h-2.104V28.617z"/>
		</g>
	</g>
	<path d="M22.751,44.145c-2.503,0-4.464-1.35-4.464-3.072S20.248,38,22.751,38s4.464,1.35,4.464,3.072S25.254,44.145,22.751,44.145z
		 M22.751,40c-1.528,0-2.464,0.694-2.464,1.072s0.936,1.072,2.464,1.072s2.464-0.694,2.464-1.072S24.279,40,22.751,40z"/>
</g>
</svg>
