<?xml version="1.0" encoding="utf-8"?>
<!-- Generator: Adobe Illustrator 16.0.0, SVG Export Plug-In . SVG Version: 6.00 Build 0)  -->
<!DOCTYPE svg PUBLIC "-//W3C//DTD SVG 1.1//EN" "http://www.w3.org/Graphics/SVG/1.1/DTD/svg11.dtd">
<svg version="1.1" id="Layer_1" xmlns="http://www.w3.org/2000/svg" xmlns:xlink="http://www.w3.org/1999/xlink" x="0px" y="0px"
	 width="48px" height="48px" viewBox="0 0 48 48" enable-background="new 0 0 48 48" xml:space="preserve">
<g>
	<g>
		<path d="M40,42.216H8c-4.411,0-8-3.589-8-8V19.71c0-4.411,3.589-8,8-8h32c4.411,0,8,3.589,8,8v14.506
			C48,38.627,44.411,42.216,40,42.216z M8,13.71c-3.309,0-6,2.691-6,6v14.506c0,3.309,2.691,6,6,6h32c3.309,0,6-2.691,6-6V19.71
			c0-3.309-2.691-6-6-6H8z"/>
	</g>
	<path d="M15.596,38.389c-6.301,0-11.427-5.126-11.427-11.427s5.126-11.427,11.427-11.427s11.427,5.126,11.427,11.427
		S21.897,38.389,15.596,38.389z M15.596,17.535c-5.198,0-9.427,4.229-9.427,9.427c0,5.198,4.229,9.427,9.427,9.427
		s9.427-4.229,9.427-9.427C25.023,21.764,20.794,17.535,15.596,17.535z"/>
	<path d="M38.305,23.103c-2.203,0-3.996-1.792-3.996-3.995s1.793-3.995,3.996-3.995c2.202,0,3.994,1.792,3.994,3.995
		S40.507,23.103,38.305,23.103z M38.305,17.113c-1.101,0-1.996,0.895-1.996,1.995s0.896,1.995,1.996,1.995
		c1.1,0,1.994-0.895,1.994-1.995S39.404,17.113,38.305,17.113z"/>
	<path d="M38.305,30.957c-2.203,0-3.996-1.792-3.996-3.995s1.793-3.995,3.996-3.995c2.202,0,3.994,1.792,3.994,3.995
		S40.507,30.957,38.305,30.957z M38.305,24.967c-1.101,0-1.996,0.895-1.996,1.995s0.896,1.995,1.996,1.995
		c1.1,0,1.994-0.895,1.994-1.995S39.404,24.967,38.305,24.967z"/>
	<path d="M38.305,38.811c-2.203,0-3.996-1.793-3.996-3.996c0-2.202,1.793-3.994,3.996-3.994c2.202,0,3.994,1.792,3.994,3.994
		C42.299,37.018,40.507,38.811,38.305,38.811z M38.305,32.82c-1.101,0-1.996,0.895-1.996,1.994c0,1.101,0.896,1.996,1.996,1.996
		c1.1,0,1.994-0.896,1.994-1.996C40.299,33.715,39.404,32.82,38.305,32.82z"/>
	<g>
		<rect x="7.313" y="42.46" width="3.794" height="2"/>
		<rect x="36.893" y="42.46" width="3.795" height="2"/>
	</g>
	<polygon points="41.139,12.71 39.139,12.71 39.139,11.285 5.561,5.527 5.899,3.555 41.139,9.599 	"/>
</g>
</svg>
