<?xml version="1.0" encoding="utf-8"?>
<!-- Generator: Adobe Illustrator 16.0.0, SVG Export Plug-In . SVG Version: 6.00 Build 0)  -->
<!DOCTYPE svg PUBLIC "-//W3C//DTD SVG 1.1//EN" "http://www.w3.org/Graphics/SVG/1.1/DTD/svg11.dtd">
<svg version="1.1" id="Layer_1" xmlns="http://www.w3.org/2000/svg" xmlns:xlink="http://www.w3.org/1999/xlink" x="0px" y="0px"
	 width="48px" height="48px" viewBox="0 0 48 48" enable-background="new 0 0 48 48" xml:space="preserve">
<g>
	<path d="M10.747,24.021L0.648,20.225C0.256,20.078-0.002,19.702,0,19.284s0.265-0.791,0.658-0.934l22.999-8.374
		c0.222-0.081,0.463-0.081,0.684,0l23.001,8.372c0.394,0.143,0.656,0.516,0.658,0.934s-0.257,0.794-0.648,0.941l-10.1,3.798
		l-0.703-1.872l7.569-2.847l-20.119-7.323L3.882,19.304l7.569,2.845L10.747,24.021z"/>
	<path d="M24,38.085c-1.423,0-13.901-0.109-13.901-3.894c0-3.785,12.478-3.895,13.901-3.895s13.9,0.109,13.9,3.895
		C37.9,37.976,25.423,38.085,24,38.085z M12.18,34.191c0.815,0.738,5.077,1.894,11.82,1.894s11.004-1.155,11.819-1.894
		c-0.814-0.739-5.075-1.895-11.819-1.895S12.995,33.452,12.18,34.191z"/>
	<path d="M36.9,34.828h-0.111c-0.361,0-0.695-0.195-0.872-0.511C35.485,33.594,31.134,32.3,24,32.3
		c-7.133,0-11.484,1.294-11.917,2.019c-0.18,0.302-0.52,0.51-0.872,0.51h-0.113c-0.552,0-1-0.447-1-1V22.134
		c0-3.784,12.478-3.894,13.901-3.894s13.9,0.109,13.9,3.892v11.696C37.9,34.381,37.453,34.828,36.9,34.828z M12.099,22.218v9.756
		C14.797,30.762,19.797,30.3,24,30.3c4.202,0,9.202,0.462,11.9,1.675V22.22C35.34,21.489,31.013,20.24,24,20.24
		C16.99,20.24,12.662,21.488,12.099,22.218z"/>
</g>
</svg>
