<?xml version="1.0" encoding="utf-8"?>
<!-- Generator: Adobe Illustrator 16.0.0, SVG Export Plug-In . SVG Version: 6.00 Build 0)  -->
<!DOCTYPE svg PUBLIC "-//W3C//DTD SVG 1.1//EN" "http://www.w3.org/Graphics/SVG/1.1/DTD/svg11.dtd">
<svg version="1.1" id="Layer_1" xmlns="http://www.w3.org/2000/svg" xmlns:xlink="http://www.w3.org/1999/xlink" x="0px" y="0px"
	 width="48px" height="48px" viewBox="0 0 48 48" enable-background="new 0 0 48 48" xml:space="preserve">
<g>
	<g>
		<rect x="29.299" y="15.143" width="2" height="5.492"/>
		<path d="M31.299,4.923h-2V2H18.702v2.691h-2V1c0-0.552,0.448-1,1-1h12.597c0.553,0,1,0.448,1,1V4.923z"/>
		<rect x="16.702" y="15.369" width="2" height="5.492"/>
		<path d="M30.299,48H17.702c-0.552,0-1-0.447-1-1V31.079h2V46h10.597V31.311h2V47C31.299,47.553,30.852,48,30.299,48z"/>
	</g>
	<path d="M40.729,32.5c-0.006,0-0.012,0-0.019,0L1.502,31.781c-0.545-0.01-0.981-0.455-0.981-1v-9.624c0-0.545,0.437-0.99,0.981-1
		l39.208-0.719c0.252,0.005,0.519,0.095,0.708,0.276l5.75,5.475c0.197,0.188,0.31,0.447,0.311,0.72
		c0.001,0.271-0.108,0.532-0.303,0.722l-5.75,5.587C41.238,32.398,40.988,32.5,40.729,32.5z M2.521,29.8l37.809,0.692l4.706-4.572
		l-4.7-4.475L2.521,22.139V29.8z"/>
	<path d="M7.271,16.559c-0.26,0-0.51-0.101-0.697-0.283l-5.75-5.588c-0.195-0.189-0.305-0.451-0.303-0.723
		c0.001-0.271,0.113-0.531,0.311-0.719l5.75-5.474c0.19-0.181,0.439-0.27,0.708-0.276l39.208,0.718c0.545,0.01,0.981,0.455,0.981,1
		v9.625c0,0.545-0.437,0.99-0.981,1L7.29,16.559C7.283,16.559,7.277,16.559,7.271,16.559z M2.963,9.979l4.706,4.573l37.81-0.694
		V6.197L7.663,5.504L2.963,9.979z"/>
</g>
</svg>
