<?xml version="1.0" encoding="utf-8"?>
<!-- Generator: Adobe Illustrator 16.0.0, SVG Export Plug-In . SVG Version: 6.00 Build 0)  -->
<!DOCTYPE svg PUBLIC "-//W3C//DTD SVG 1.1//EN" "http://www.w3.org/Graphics/SVG/1.1/DTD/svg11.dtd">
<svg version="1.1" id="Layer_1" xmlns="http://www.w3.org/2000/svg" xmlns:xlink="http://www.w3.org/1999/xlink" x="0px" y="0px"
	 width="48px" height="48px" viewBox="0 0 48 48" enable-background="new 0 0 48 48" xml:space="preserve">
<g>
	<path d="M26.158,48.002h-4.313c-1.344,0-2.438-1.094-2.438-2.438v-3.23c-1.799-0.449-3.514-1.161-5.117-2.125l-2.289,2.289
		c-0.92,0.92-2.531,0.92-3.449-0.002l-3.048-3.049c-0.458-0.455-0.711-1.065-0.712-1.718C4.792,37.075,5.045,36.461,5.505,36
		l2.288-2.288c-0.961-1.598-1.673-3.313-2.124-5.116H2.438C1.094,28.596,0,27.502,0,26.157v-4.313c0-1.343,1.093-2.437,2.436-2.437
		h3.233c0.451-1.803,1.163-3.518,2.125-5.117l-2.288-2.288c-0.46-0.46-0.714-1.074-0.713-1.727c0-0.652,0.254-1.263,0.714-1.721
		l3.045-3.048c0.458-0.46,1.07-0.713,1.723-0.713c0,0,0,0,0,0c0.652,0,1.265,0.253,1.724,0.713l2.289,2.288
		c1.6-0.962,3.314-1.674,5.116-2.125V2.437c0-1.344,1.094-2.438,2.438-2.438h4.313c1.344,0,2.438,1.094,2.438,2.438v3.231
		c1.802,0.45,3.518,1.162,5.117,2.125l2.288-2.288c0.918-0.919,2.532-0.92,3.448,0.002l3.049,3.046
		c0.459,0.458,0.713,1.069,0.713,1.721c0.001,0.653-0.252,1.267-0.713,1.727l-2.287,2.288c0.962,1.599,1.674,3.314,2.124,5.117
		h3.229c1.341,0,2.436,1.092,2.44,2.434v4.317c0,1.345-1.094,2.438-2.438,2.438h-3.229c-0.45,1.803-1.162,3.518-2.124,5.116
		L42.498,36c0.46,0.458,0.713,1.07,0.713,1.724s-0.253,1.266-0.714,1.725l-3.049,3.05c-0.913,0.919-2.527,0.922-3.448-0.001
		l-2.287-2.288c-1.602,0.964-3.317,1.676-5.117,2.126v3.229C28.596,46.908,27.502,48.002,26.158,48.002z M14.018,37.653l0.681,0.449
		c1.815,1.199,3.803,2.024,5.908,2.454l0.8,0.163v4.845c0,0.237,0.201,0.438,0.438,0.438h4.313c0.237,0,0.438-0.2,0.438-0.438V40.72
		l0.8-0.163c2.107-0.43,4.096-1.256,5.908-2.453l0.682-0.45l3.43,3.431c0.111,0.111,0.242,0.128,0.311,0.128
		c0.067,0,0.198-0.017,0.307-0.126l3.052-3.053c0.111-0.11,0.127-0.241,0.127-0.31s-0.016-0.199-0.126-0.309l-3.43-3.433l0.45-0.681
		c1.195-1.808,2.021-3.795,2.451-5.906l0.163-0.8h4.845c0.237,0,0.438-0.201,0.438-0.438v-4.313
		c-0.001-0.235-0.202-0.438-0.44-0.438h-4.845l-0.163-0.8c-0.432-2.112-1.256-4.099-2.451-5.908l-0.45-0.681l3.429-3.431
		c0.111-0.111,0.128-0.242,0.127-0.311c0-0.068-0.016-0.198-0.126-0.307l-3.052-3.05c-0.11-0.111-0.24-0.127-0.308-0.127
		c-0.068,0-0.2,0.016-0.311,0.127l-3.43,3.431l-0.682-0.451c-1.811-1.197-3.798-2.022-5.908-2.452l-0.8-0.164V2.437
		c0-0.237-0.2-0.438-0.438-0.438h-4.313c-0.237,0-0.438,0.201-0.438,0.438v4.846l-0.8,0.164c-2.11,0.431-4.098,1.256-5.908,2.452
		l-0.681,0.451l-3.43-3.431c-0.111-0.11-0.242-0.127-0.31-0.127s-0.199,0.016-0.308,0.126L6.92,9.969
		c-0.111,0.111-0.127,0.241-0.127,0.309c0,0.068,0.016,0.2,0.127,0.311l3.431,3.43L9.9,14.7c-1.196,1.809-2.021,3.796-2.452,5.908
		l-0.164,0.8H2.438c-0.156,0-0.261,0.081-0.309,0.129C2.081,21.585,2,21.689,2,21.844v4.313c0,0.237,0.201,0.438,0.438,0.438h4.846
		l0.164,0.8c0.432,2.114,1.256,4.101,2.452,5.906l0.451,0.681L6.92,37.414c-0.111,0.111-0.127,0.243-0.127,0.312
		s0.017,0.197,0.125,0.306l3.052,3.053c0.11,0.111,0.24,0.128,0.308,0.128s0.199-0.017,0.31-0.128L14.018,37.653z"/>
	<path d="M24,30.318c-3.484,0-6.319-2.834-6.319-6.318s2.834-6.319,6.319-6.319s6.318,2.834,6.318,6.319S27.484,30.318,24,30.318z
		 M24,19.681c-2.381,0-4.319,1.938-4.319,4.319c0,2.381,1.938,4.318,4.319,4.318c2.381,0,4.318-1.938,4.318-4.318
		C28.318,21.619,26.381,19.681,24,19.681z"/>
</g>
</svg>
