<?xml version="1.0" encoding="utf-8"?>
<!-- Generator: Adobe Illustrator 16.0.0, SVG Export Plug-In . SVG Version: 6.00 Build 0)  -->
<!DOCTYPE svg PUBLIC "-//W3C//DTD SVG 1.1//EN" "http://www.w3.org/Graphics/SVG/1.1/DTD/svg11.dtd">
<svg version="1.1" id="Layer_1" xmlns="http://www.w3.org/2000/svg" xmlns:xlink="http://www.w3.org/1999/xlink" x="0px" y="0px"
	 width="48px" height="48px" viewBox="0 0 48 48" enable-background="new 0 0 48 48" xml:space="preserve">
<g>
	<g>
		<path d="M23.999,48c-5.312,0-8.178-12.365-8.178-24s2.866-24,8.178-24c5.312,0,8.178,12.365,8.178,24S29.311,48,23.999,48z
			 M23.999,2c-2.58,0-6.178,8.37-6.178,22c0,13.631,3.599,22,6.178,22c2.58,0,6.178-8.369,6.178-22C30.177,10.37,26.579,2,23.999,2z
			"/>
		<path d="M8.163,38.051c-2.511,0-4.187-0.703-4.981-2.088C0.54,31.352,9.839,22.706,19.93,16.911
			c7.459-4.284,15.085-6.944,19.902-6.944c2.514,0,4.191,0.703,4.986,2.091c2.643,4.607-6.656,13.251-16.748,19.046
			C20.607,35.389,12.979,38.051,8.163,38.051z M39.832,11.966c-4.487,0-11.731,2.559-18.906,6.679
			C9.103,25.435,3.633,32.728,4.917,34.968c0.4,0.698,1.554,1.083,3.247,1.083c4.487,0,11.733-2.561,18.911-6.682
			C38.898,22.58,44.367,15.29,43.083,13.052C42.682,12.352,41.527,11.966,39.832,11.966z"/>
		<path d="M39.8,38.424c-4.813,0-12.493-2.845-20.044-7.424c-8.87-5.378-15.549-11.935-16.62-16.314
			c-0.297-1.216-0.183-2.268,0.339-3.128c0.793-1.308,2.383-1.971,4.727-1.971c4.812,0,12.492,2.845,20.043,7.425
			c5.338,3.237,9.973,6.939,13.05,10.426c3.374,3.824,4.491,6.942,3.23,9.018C43.732,37.762,42.143,38.424,39.8,38.424z
			 M8.202,11.586c-1.551,0-2.623,0.358-3.018,1.009c-0.237,0.39-0.272,0.933-0.106,1.615c0.938,3.837,7.4,10.038,15.714,15.079
			c7.147,4.335,14.608,7.135,19.007,7.135c1.551,0,2.622-0.357,3.017-1.007c0.717-1.182-0.44-3.731-3.021-6.656
			c-2.946-3.339-7.417-6.905-12.587-10.04C20.061,14.387,12.601,11.586,8.202,11.586z"/>
	</g>
	<path d="M24,28.291c-2.366,0-4.291-1.925-4.291-4.291s1.925-4.291,4.291-4.291s4.291,1.925,4.291,4.291S26.366,28.291,24,28.291z
		 M24,21.709c-1.263,0-2.291,1.028-2.291,2.291c0,1.264,1.028,2.291,2.291,2.291c1.264,0,2.291-1.027,2.291-2.291
		C26.291,22.737,25.264,21.709,24,21.709z"/>
</g>
</svg>
