<?xml version="1.0" encoding="utf-8"?>
<!-- Generator: Adobe Illustrator 16.0.0, SVG Export Plug-In . SVG Version: 6.00 Build 0)  -->
<!DOCTYPE svg PUBLIC "-//W3C//DTD SVG 1.1//EN" "http://www.w3.org/Graphics/SVG/1.1/DTD/svg11.dtd">
<svg version="1.1" id="Layer_1" xmlns="http://www.w3.org/2000/svg" xmlns:xlink="http://www.w3.org/1999/xlink" x="0px" y="0px"
	 width="48px" height="48px" viewBox="0 0 48 48" enable-background="new 0 0 48 48" xml:space="preserve">
<g>
	<g>
		<path d="M16.254,8.739l26.557,9.518l-8.916,6.632L5.816,14.395L16.254,8.739 M16.087,6.554L1,14.73l33.215,12.415L47,17.633
			L16.087,6.554L16.087,6.554z"/>
	</g>
	<polygon points="34.607,31.553 0.721,18.257 1.451,16.395 34.305,29.285 46.302,20.358 47.495,21.962 	"/>
	<polygon points="34.607,35.05 0.721,21.754 1.451,19.892 34.305,32.782 46.302,23.854 47.495,25.458 	"/>
	<polygon points="34.607,38.687 0.721,25.39 1.451,23.528 34.305,36.419 46.302,27.491 47.495,29.095 	"/>
	<polygon points="34.607,42.579 0.721,29.282 1.451,27.421 34.305,40.312 46.302,31.385 47.495,32.99 	"/>
</g>
</svg>
