<?xml version="1.0" encoding="utf-8"?>
<!-- Generator: Adobe Illustrator 16.0.0, SVG Export Plug-In . SVG Version: 6.00 Build 0)  -->
<!DOCTYPE svg PUBLIC "-//W3C//DTD SVG 1.1//EN" "http://www.w3.org/Graphics/SVG/1.1/DTD/svg11.dtd">
<svg version="1.1" id="Layer_1" xmlns="http://www.w3.org/2000/svg" xmlns:xlink="http://www.w3.org/1999/xlink" x="0px" y="0px"
	 width="48px" height="48px" viewBox="0 0 48 48" enable-background="new 0 0 48 48" xml:space="preserve">
<g>
	<path d="M18.951,32.738c-0.226,0-0.441-0.032-0.642-0.098c-1.119-0.364-1.699-1.665-2.259-2.923
		c-0.279-0.627-0.662-1.485-0.93-1.68c-0.269-0.194-1.203-0.293-1.885-0.365c-1.371-0.146-2.789-0.296-3.48-1.248
		c-0.692-0.952-0.397-2.347-0.111-3.695c0.142-0.67,0.337-1.589,0.234-1.906c-0.103-0.316-0.801-0.945-1.311-1.405
		c-1.022-0.922-2.08-1.875-2.08-3.051s1.057-2.129,2.08-3.05c0.51-0.459,1.208-1.089,1.311-1.405
		c0.103-0.318-0.092-1.239-0.234-1.911c-0.285-1.347-0.581-2.74,0.112-3.691c0.691-0.952,2.108-1.102,3.479-1.247
		c0.682-0.072,1.617-0.171,1.886-0.366c0.267-0.194,0.649-1.052,0.929-1.679c0.561-1.258,1.142-2.56,2.262-2.922
		C18.509,0.033,18.725,0,18.95,0c0.938,0,1.937,0.576,2.903,1.133c0.595,0.343,1.41,0.812,1.742,0.812
		c0.333,0,1.147-0.469,1.742-0.812c1.198-0.691,2.511-1.371,3.546-1.035c1.119,0.362,1.699,1.664,2.26,2.921
		c0.28,0.627,0.663,1.485,0.932,1.681c0.268,0.194,1.201,0.292,1.883,0.365c1.371,0.145,2.789,0.294,3.48,1.247
		c0.691,0.951,0.396,2.343,0.111,3.689c-0.143,0.672-0.338,1.593-0.234,1.911c0.103,0.317,0.801,0.947,1.312,1.406
		c1.022,0.922,2.079,1.875,2.079,3.05c0,1.176-1.058,2.129-2.079,3.05c-0.511,0.46-1.209,1.089-1.312,1.406
		c-0.104,0.318,0.092,1.237,0.234,1.909c0.285,1.347,0.58,2.739-0.11,3.69c-0.691,0.952-2.108,1.103-3.479,1.248
		c-0.683,0.072-1.617,0.171-1.887,0.366c-0.269,0.194-0.651,1.054-0.931,1.681c-0.562,1.258-1.141,2.558-2.259,2.922
		c-1.04,0.336-2.348-0.345-3.546-1.035c-0.595-0.343-1.41-0.813-1.743-0.813c-0.332,0-1.146,0.47-1.74,0.813
		C20.888,32.162,19.889,32.738,18.951,32.738z M18.95,2c-0.317,0.135-0.81,1.241-1.075,1.835c-0.452,1.015-0.879,1.973-1.581,2.483
		c-0.704,0.51-1.747,0.62-2.851,0.736c-0.647,0.068-1.853,0.196-2.075,0.438c-0.155,0.277,0.096,1.46,0.23,2.096
		c0.231,1.088,0.449,2.116,0.18,2.942c-0.267,0.825-1.048,1.528-1.874,2.273c-0.482,0.435-1.381,1.245-1.418,1.57
		c0.038,0.314,0.936,1.125,1.418,1.56c0.826,0.745,1.606,1.448,1.874,2.274c0.268,0.825,0.05,1.851-0.18,2.938
		c-0.135,0.637-0.386,1.823-0.224,2.108c0.216,0.234,1.422,0.362,2.07,0.431c1.104,0.117,2.146,0.228,2.848,0.734
		c0.703,0.511,1.131,1.47,1.583,2.485c0.265,0.595,0.758,1.701,1.057,1.837l0.018-0.002c0.403,0,1.271-0.5,1.905-0.866
		c0.962-0.555,1.872-1.079,2.739-1.079c0.868,0,1.778,0.524,2.741,1.079c0.635,0.365,1.503,0.866,1.906,0.866
		c0.315-0.135,0.809-1.24,1.073-1.834c0.453-1.017,0.881-1.976,1.584-2.485c0.702-0.509,1.745-0.619,2.85-0.736
		c0.647-0.068,1.852-0.196,2.074-0.438c0.154-0.276-0.097-1.461-0.231-2.097c-0.23-1.088-0.448-2.115-0.18-2.941
		c0.268-0.825,1.048-1.529,1.874-2.274c0.483-0.435,1.381-1.245,1.419-1.571c-0.038-0.314-0.936-1.123-1.418-1.558
		c-0.827-0.745-1.607-1.449-1.875-2.275c-0.269-0.826-0.051-1.854,0.18-2.942c0.135-0.635,0.386-1.818,0.225-2.104
		c-0.215-0.233-1.421-0.361-2.069-0.429c-1.104-0.117-2.147-0.227-2.849-0.736c-0.702-0.511-1.129-1.469-1.582-2.484
		c-0.265-0.594-0.758-1.699-1.056-1.836C27.838,2,26.97,2.5,26.336,2.866c-0.963,0.555-1.873,1.079-2.741,1.079
		c-0.867,0-1.777-0.524-2.74-1.079C20.221,2.5,19.353,2,18.95,2z"/>
	<path d="M21.068,48c-0.272,0-0.539-0.111-0.731-0.317l-3.903-4.179l-5.752,1.802c-0.372,0.118-0.779,0.007-1.042-0.284
		c-0.262-0.291-0.331-0.707-0.176-1.066l6.532-15.146l1.837,0.793l-5.669,13.144l4.271-1.338c0.366-0.116,0.766-0.01,1.03,0.271
		l2.834,3.034l1.488-14.35l1.989,0.207l-1.714,16.533c-0.041,0.39-0.305,0.72-0.676,0.845C21.282,47.983,21.174,48,21.068,48z"/>
	<path d="M30.078,47.745c-0.087,0-0.175-0.012-0.261-0.034c-0.375-0.102-0.657-0.411-0.725-0.794l-2.654-15.188l1.971-0.344
		l2.285,13.078l2.91-3.451c0.247-0.294,0.641-0.419,1.015-0.323l3.789,0.979l-7.866-13.181l1.717-1.025l9.113,15.271
		c0.208,0.349,0.186,0.788-0.058,1.112c-0.244,0.324-0.658,0.47-1.051,0.368l-5.536-1.431l-3.885,4.607
		C30.649,47.618,30.368,47.745,30.078,47.745z"/>
</g>
</svg>
