<?xml version="1.0" encoding="utf-8"?>
<!-- Generator: Adobe Illustrator 16.0.0, SVG Export Plug-In . SVG Version: 6.00 Build 0)  -->
<!DOCTYPE svg PUBLIC "-//W3C//DTD SVG 1.1//EN" "http://www.w3.org/Graphics/SVG/1.1/DTD/svg11.dtd">
<svg version="1.1" id="Layer_1" xmlns="http://www.w3.org/2000/svg" xmlns:xlink="http://www.w3.org/1999/xlink" x="0px" y="0px"
	 width="48px" height="48px" viewBox="0 0 48 48" enable-background="new 0 0 48 48" xml:space="preserve">
<g>
	<path d="M24,40.208c-8.938,0-16.209-7.271-16.209-16.209S15.063,7.79,24,7.79s16.209,7.271,16.209,16.209S32.938,40.208,24,40.208z
		 M24,9.79c-7.835,0-14.209,6.374-14.209,14.209S16.165,38.208,24,38.208s14.209-6.374,14.209-14.209S31.835,9.79,24,9.79z"/>
	<path d="M6.105,31.002c-3.291,0-5.767-0.494-6.07-1.919c-0.249-1.18,0.485-2.886,8.436-5.655l0.658,1.889
		c-5.018,1.748-6.538,2.889-6.976,3.331c1.763,0.777,10.156,0.505,22.391-2.089c12.235-2.594,20.016-5.751,21.311-7.179
		c-0.579-0.226-2.432-0.652-7.723-0.215l-0.164-1.993c8.383-0.69,9.747,0.569,9.998,1.745c0.242,1.14-0.38,2.633-6.827,5.073
		c-4.247,1.607-9.994,3.215-16.181,4.526C23.302,28.866,12.946,31.002,6.105,31.002z"/>
</g>
</svg>
