<?xml version="1.0" encoding="utf-8"?>
<!-- Generator: Adobe Illustrator 16.0.0, SVG Export Plug-In . SVG Version: 6.00 Build 0)  -->
<!DOCTYPE svg PUBLIC "-//W3C//DTD SVG 1.1//EN" "http://www.w3.org/Graphics/SVG/1.1/DTD/svg11.dtd">
<svg version="1.1" id="Layer_1" xmlns="http://www.w3.org/2000/svg" xmlns:xlink="http://www.w3.org/1999/xlink" x="0px" y="0px"
	 width="48px" height="48px" viewBox="0 0 48 48" enable-background="new 0 0 48 48" xml:space="preserve">
<g>
	<g>
		<path d="M40,48H8c-4.411,0-8-3.589-8-8V8c0-4.411,3.589-8,8-8h32c4.411,0,8,3.589,8,8v32C48,44.411,44.411,48,40,48z M8,2
			C4.691,2,2,4.691,2,8v32c0,3.309,2.691,6,6,6h32c3.309,0,6-2.691,6-6V8c0-3.309-2.691-6-6-6H8z"/>
	</g>
	<g>
		<g>
			<path d="M5.06,37.071l-1.502-1.32l10.921-12.412c0.206-0.234,0.513-0.356,0.822-0.337c0.312,0.022,0.595,0.188,0.766,0.45
				l5.111,7.81l9.757-15.248c0.177-0.275,0.477-0.447,0.804-0.46c0.349-0.015,0.64,0.135,0.837,0.396l4.615,6.109l5.016-10.952
				l1.818,0.833l-5.713,12.475c-0.146,0.32-0.45,0.54-0.801,0.578c-0.352,0.035-0.694-0.11-0.906-0.392l-4.759-6.299l-9.816,15.339
				c-0.183,0.286-0.498,0.459-0.837,0.461c-0.306-0.001-0.656-0.169-0.842-0.452l-5.237-8.004L5.06,37.071z"/>
			<g>
				<g>
					<path d="M44.861,20.97c-0.314,0.043-0.604-0.178-0.648-0.492l-1.207-8.715l-7.386,4.78c-0.267,0.172-0.624,0.097-0.796-0.17
						c-0.172-0.266-0.094-0.623,0.17-0.795l8.145-5.269c0.166-0.106,0.373-0.124,0.553-0.039c0.179,0.081,0.304,0.247,0.33,0.443
						l1.332,9.608c0.016,0.112-0.004,0.223-0.047,0.318C45.227,20.811,45.063,20.939,44.861,20.97z"/>
					<path d="M44.783,21.476c-0.533,0-0.991-0.399-1.065-0.928l-1.1-7.938l-6.727,4.354c-0.482,0.313-1.178,0.164-1.488-0.319
						c-0.319-0.495-0.178-1.162,0.317-1.484l8.146-5.27c0.315-0.202,0.711-0.227,1.038-0.071c0.331,0.15,0.563,0.461,0.611,0.828
						l1.332,9.606c0.028,0.201-0.002,0.406-0.086,0.593c-0.156,0.334-0.463,0.563-0.824,0.62L44.783,21.476z M43.394,10.917
						l1.314,9.493c0.006,0.041,0.043,0.066,0.075,0.066v0.5l0.011-0.501l0.064-0.085l-1.332-9.608l-0.388-0.473l0.271,0.42
						l-8.145,5.269c-0.032,0.021-0.043,0.07-0.021,0.104l0.376,0.441l-0.271-0.42L43.394,10.917z"/>
				</g>
			</g>
		</g>
	</g>
</g>
</svg>
