<?xml version="1.0" encoding="utf-8"?>
<!-- Generator: Adobe Illustrator 16.0.0, SVG Export Plug-In . SVG Version: 6.00 Build 0)  -->
<!DOCTYPE svg PUBLIC "-//W3C//DTD SVG 1.1//EN" "http://www.w3.org/Graphics/SVG/1.1/DTD/svg11.dtd">
<svg version="1.1" id="Layer_1" xmlns="http://www.w3.org/2000/svg" xmlns:xlink="http://www.w3.org/1999/xlink" x="0px" y="0px"
	 width="48px" height="48px" viewBox="0 0 48 48" enable-background="new 0 0 48 48" xml:space="preserve">
<g>
	<path d="M37.84,48H0.579v-8.768h4.773V4.298C5.352,1.928,7.28,0,9.649,0H28.77c2.369,0,4.297,1.928,4.297,4.298V39.23h4.773V48z
		 M2.579,46H35.84v-4.77h-4.773V4.298C31.066,3.031,30.036,2,28.77,2H9.649C8.382,2,7.352,3.031,7.352,4.298v36.935H2.579V46z"/>
	<path d="M26.232,22.973H12.184V7.435h14.048V22.973z M14.184,20.973h10.048V9.435H14.184V20.973z"/>
	<path d="M44.233,40.079c-1.268,0-2.753-0.612-3.615-1.508c-1.04-1.082-1.653-2.589-2.193-3.92c-0.149-0.367-0.297-0.729-0.448-1.07
		c-1.618-3.642-2.844-5.855-6.214-5.886l0.018-2c4.901,0.044,6.633,3.942,8.024,7.074c0.16,0.361,0.314,0.741,0.473,1.129
		c0.496,1.22,1.009,2.482,1.782,3.286c0.453,0.471,1.479,0.95,2.283,0.891c0.478-0.029,0.627-0.229,0.677-0.296
		c1.215-1.627-0.626-5.072-1.727-7.131c-0.237-0.445-0.453-0.85-0.623-1.198c-1.226-2.51-1.448-5.039-1.664-7.484
		c-0.109-1.236-0.222-2.514-0.463-3.787l1.965-0.372c0.26,1.37,0.377,2.698,0.49,3.983c0.209,2.369,0.406,4.606,1.469,6.783
		c0.161,0.329,0.365,0.712,0.591,1.133c1.409,2.638,3.539,6.625,1.563,9.271c-0.492,0.659-1.237,1.038-2.154,1.095
		C44.39,40.076,44.313,40.079,44.233,40.079z"/>
	<path d="M42.158,20.015l-6.483-2.271l0.188-0.866c0.012-0.056,1.172-5.57-2.031-7.17l0.766-1.843
		c0.266,0.089,6.544,2.236,8.247,6.386c0.662,1.612,0.564,3.288-0.291,4.981L42.158,20.015z M37.963,16.426l3.135,1.098
		c0.268-0.867,0.232-1.694-0.102-2.511c-0.582-1.419-1.952-2.585-3.331-3.455C38.223,13.383,38.104,15.328,37.963,16.426z"/>
</g>
</svg>
