<?xml version="1.0" encoding="utf-8"?>
<!-- Generator: Adobe Illustrator 16.0.0, SVG Export Plug-In . SVG Version: 6.00 Build 0)  -->
<!DOCTYPE svg PUBLIC "-//W3C//DTD SVG 1.1//EN" "http://www.w3.org/Graphics/SVG/1.1/DTD/svg11.dtd">
<svg version="1.1" id="Layer_1" xmlns="http://www.w3.org/2000/svg" xmlns:xlink="http://www.w3.org/1999/xlink" x="0px" y="0px"
	 width="48px" height="48px" viewBox="0 0 48 48" enable-background="new 0 0 48 48" xml:space="preserve">
<g>
	<path d="M44.954,48H3.046V32.697h41.908V48z M5.046,46h37.908V34.697H5.046V46z"/>
	<polygon points="30.295,42.682 28.295,42.682 28.295,41.35 19.705,41.35 19.705,42.682 17.705,42.682 17.705,39.35 30.295,39.35 	
		"/>
	<path d="M44.954,34.816H3.046V19.513h41.908V34.816z M5.046,32.816h37.908V21.513H5.046V32.816z"/>
	<polygon points="30.295,29.497 28.295,29.497 28.295,28.165 19.705,28.165 19.705,29.497 17.705,29.497 17.705,26.165 
		30.295,26.165 	"/>
	<path d="M44.954,21.631H3.046V6.328h41.908V21.631z M5.046,19.631h37.908V8.328H5.046V19.631z"/>
	<path d="M43.954,8.328H4.046c-0.436,0-0.821-0.282-0.953-0.697s0.02-0.868,0.376-1.119l8.951-6.328C12.589,0.064,12.791,0,12.997,0
		h21.366c0.195,0,0.388,0.058,0.551,0.166l9.591,6.328c0.368,0.243,0.534,0.699,0.407,1.122S44.396,8.328,43.954,8.328z
		 M7.193,6.328h33.43L34.063,2H13.315L7.193,6.328z"/>
	<polygon points="30.295,16.314 28.295,16.314 28.295,14.98 19.705,14.98 19.705,16.314 17.705,16.314 17.705,12.98 30.295,12.98 	
		"/>
</g>
</svg>
