<?xml version="1.0" encoding="utf-8"?>
<!-- Generator: Adobe Illustrator 16.0.0, SVG Export Plug-In . SVG Version: 6.00 Build 0)  -->
<!DOCTYPE svg PUBLIC "-//W3C//DTD SVG 1.1//EN" "http://www.w3.org/Graphics/SVG/1.1/DTD/svg11.dtd">
<svg version="1.1" id="Layer_1" xmlns="http://www.w3.org/2000/svg" xmlns:xlink="http://www.w3.org/1999/xlink" x="0px" y="0px"
	 width="48px" height="48px" viewBox="0 0 48 48" enable-background="new 0 0 48 48" xml:space="preserve">
<g>
	<path d="M14.888,30.07h-2v-3.346c0-0.547,0.438-0.991,0.983-1c-0.469-1.163-0.713-2.406-0.713-3.664
		c0-1.944,0.566-3.827,1.637-5.443l1.667,1.104c-0.853,1.288-1.304,2.789-1.304,4.339c0,1.455,0.411,2.885,1.188,4.136
		c0.191,0.309,0.201,0.696,0.024,1.014c-0.177,0.317-0.511,0.514-0.874,0.514h-0.608V30.07z"/>
	<path d="M17.977,16.034L16.693,14.5c1.768-1.479,4.012-2.294,6.32-2.294c1.623,0,3.231,0.403,4.653,1.165l-0.945,1.763
		c-1.132-0.606-2.414-0.927-3.708-0.927C21.174,14.206,19.386,14.855,17.977,16.034z"/>
	<path d="M32.006,26.074l-1.824-0.82c0.456-1.012,0.687-2.085,0.687-3.193c0-2.128-0.837-4.121-2.355-5.609l1.4-1.429
		c1.905,1.868,2.955,4.367,2.955,7.038C32.868,23.453,32.578,24.804,32.006,26.074z"/>
	<path d="M32.139,48h-18.25c-0.552,0-1-0.447-1-1V35.302h2V46h16.25V30.152h2V47C33.139,47.553,32.691,48,32.139,48z"/>
	<path d="M23.013,45.566c-2.569,0-4.582-2.637-4.582-6.002c0-3.364,2.013-6,4.582-6c2.57,0,4.583,2.636,4.583,6
		C27.596,42.93,25.583,45.566,23.013,45.566z M23.013,35.564c-1.399,0-2.582,1.832-2.582,4c0,2.169,1.183,4.002,2.582,4.002
		c1.4,0,2.583-1.833,2.583-4.002C25.596,37.396,24.413,35.564,23.013,35.564z"/>
	<g>
		<path d="M23.147,23.035c-0.187,0-0.375-0.052-0.542-0.16L2.704,10.001c-0.232-0.15-0.391-0.389-0.441-0.66
			C2.214,9.069,2.278,8.79,2.442,8.568l4.085-5.542C6.708,2.781,6.99,2.631,7.295,2.62c0.293-0.016,0.598,0.117,0.796,0.348
			l15.816,18.416c0.324,0.377,0.321,0.935-0.005,1.309C23.705,22.917,23.428,23.035,23.147,23.035z M4.683,8.899l13.198,8.538
			L7.392,5.224L4.683,8.899z"/>
		<path d="M23.149,23.035c-0.203,0-0.407-0.062-0.583-0.188c-0.404-0.29-0.534-0.833-0.304-1.273L33.19,0.539
			c0.128-0.245,0.35-0.426,0.615-0.501c0.269-0.074,0.55-0.037,0.787,0.105l5.904,3.542c0.261,0.157,0.437,0.424,0.477,0.726
			s-0.06,0.606-0.271,0.825L23.871,22.729C23.676,22.931,23.414,23.035,23.149,23.035z M34.476,2.404l-7.248,13.951L38.392,4.753
			L34.476,2.404z"/>
		<path d="M9.801,42.622c-0.22,0-0.437-0.073-0.613-0.21l-5.442-4.22c-0.241-0.187-0.383-0.473-0.387-0.777s0.131-0.594,0.367-0.787
			l18.789-15.365c0.013-0.01,0.026-0.021,0.039-0.031c0,0,0,0,0,0c0.001-0.001,0.002-0.001,0.003-0.002c0,0,0,0,0,0
			c0.106-0.079,0.225-0.134,0.35-0.165c0,0,0,0,0,0c0.001,0,0.002,0,0.003,0c0-0.001,0.001,0,0.002-0.001c0,0,0,0,0,0
			c0.001,0,0.001,0,0.002,0c0,0,0.002,0,0.002-0.001c0,0,0,0,0,0c0.033-0.008,0.066-0.014,0.101-0.019c0.003,0,0.006,0,0.009-0.001
			l0,0c0.001,0,0.001,0,0.002,0c0,0,0.002,0,0.002,0s0,0,0,0c0.001,0,0.001,0,0.002,0c0,0,0,0,0.002,0h0c0.001,0,0.001,0,0.002,0
			c0,0,0.001,0,0.003,0c0-0.001,0.001,0,0.002,0s0.001,0,0.002,0c0.001-0.001,0.002,0,0.002,0c0.002,0,0.003,0,0.005,0
			c0,0,0.001,0,0.002,0h0c0.153-0.016,0.31,0.007,0.457,0.064c0,0,0,0,0,0c0,0,0.001,0,0.001,0c0.016,0.006,0.032,0.013,0.048,0.021
			l21.599,9.755c0.252,0.113,0.445,0.325,0.535,0.587c0.089,0.261,0.067,0.547-0.062,0.791l-3.212,6.089
			c-0.143,0.27-0.399,0.459-0.699,0.516c-0.297,0.057-0.607-0.026-0.838-0.225L23.346,23.524L10.627,42.186
			c-0.155,0.228-0.398,0.381-0.67,0.424C9.905,42.618,9.853,42.622,9.801,42.622z M5.964,37.382l3.609,2.799l8.854-12.991
			L5.964,37.382z M29.046,25.796l12.196,10.508l2.13-4.038L29.046,25.796z"/>
	</g>
</g>
</svg>
