<?xml version="1.0" encoding="utf-8"?>
<!-- Generator: Adobe Illustrator 16.0.0, SVG Export Plug-In . SVG Version: 6.00 Build 0)  -->
<!DOCTYPE svg PUBLIC "-//W3C//DTD SVG 1.1//EN" "http://www.w3.org/Graphics/SVG/1.1/DTD/svg11.dtd">
<svg version="1.1" id="Layer_1" xmlns="http://www.w3.org/2000/svg" xmlns:xlink="http://www.w3.org/1999/xlink" x="0px" y="0px"
	 width="48px" height="48px" viewBox="0 0 48 48" enable-background="new 0 0 48 48" xml:space="preserve">
<g>
	<path d="M33.134,35.959c-6.346,0-10.536-2.66-14.232-5.007c-3.082-1.956-5.743-3.646-9.173-3.646c-5.724,0-7.332,3.984-7.757,5.698
		c-0.131,0.526-0.656,0.851-1.187,0.735c-0.53-0.118-0.869-0.636-0.765-1.168L1.694,24l-1.675-8.57
		c-0.104-0.532,0.235-1.051,0.765-1.168c0.532-0.117,1.056,0.208,1.188,0.735c0.426,1.713,2.034,5.697,7.757,5.697
		c3.43,0,6.091-1.689,9.173-3.646c3.696-2.347,7.887-5.007,14.232-5.007c11.762,0,14.684,7.433,14.803,7.749
		c0.145,0.385,0.038,0.819-0.268,1.094L44.208,24l3.461,3.118c0.306,0.275,0.412,0.709,0.268,1.095
		C47.817,28.529,44.896,35.959,33.134,35.959z M9.728,25.307c4.011,0,7.039,1.922,10.245,3.957
		c3.636,2.309,7.396,4.695,13.161,4.695c8.496,0,11.727-4.269,12.636-5.86l-3.725-3.355c-0.211-0.189-0.331-0.46-0.331-0.743
		c0-0.284,0.12-0.554,0.331-0.743l3.729-3.357c-0.898-1.603-4.092-5.859-12.64-5.859c-5.765,0-9.525,2.387-13.161,4.695
		c-3.206,2.035-6.234,3.958-10.245,3.958c-3.091,0-5.224-0.981-6.69-2.242l0.656,3.356c0.025,0.127,0.025,0.257,0,0.384
		l-0.656,3.357C4.504,26.287,6.637,25.307,9.728,25.307z"/>
	<path d="M37.376,23.61c-1.839,0-3.335-1.496-3.335-3.335s1.496-3.335,3.335-3.335s3.335,1.496,3.335,3.335
		S39.215,23.61,37.376,23.61z M37.376,18.94c-0.736,0-1.335,0.599-1.335,1.335s0.599,1.335,1.335,1.335s1.335-0.599,1.335-1.335
		S38.112,18.94,37.376,18.94z"/>
	<path d="M28.354,35.25c-3.878-3.979-5.706-8.111-5.432-12.286c0.408-6.204,5.321-10.139,5.53-10.303l1.238,1.57
		c-0.045,0.035-4.435,3.575-4.773,8.883c-0.229,3.578,1.41,7.191,4.869,10.739L28.354,35.25z"/>
</g>
</svg>
