<?xml version="1.0" encoding="utf-8"?>
<!-- Generator: Adobe Illustrator 16.0.0, SVG Export Plug-In . SVG Version: 6.00 Build 0)  -->
<!DOCTYPE svg PUBLIC "-//W3C//DTD SVG 1.1//EN" "http://www.w3.org/Graphics/SVG/1.1/DTD/svg11.dtd">
<svg version="1.1" id="Layer_1" xmlns="http://www.w3.org/2000/svg" xmlns:xlink="http://www.w3.org/1999/xlink" x="0px" y="0px"
	 width="48px" height="48px" viewBox="0 0 48 48" enable-background="new 0 0 48 48" xml:space="preserve">
<g>
	<g>
		<path d="M39.314,48H9.231c-2.436,0-4.418-1.981-4.418-4.418V22.618h38.919v20.964C43.732,46.019,41.751,48,39.314,48z
			 M6.813,24.618v18.964C6.813,44.915,7.897,46,9.231,46h30.083c1.333,0,2.418-1.085,2.418-2.418V24.618H6.813z"/>
		<g>
			<path d="M45.486,22.336H4.087v-7.025h41.399V22.336z M6.087,20.336h37.399v-3.025H6.087V20.336z"/>
			<rect x="13.251" y="15.258" transform="matrix(0.7071 0.7071 -0.7071 0.7071 17.5051 -4.555)" width="2" height="7.19"/>
			<rect x="23.786" y="15.259" transform="matrix(0.7071 0.7071 -0.7071 0.7071 20.5908 -12.0045)" width="2" height="7.188"/>
			<rect x="34.322" y="15.259" transform="matrix(0.7071 0.7071 -0.7071 0.7071 23.6768 -19.4547)" width="2" height="7.188"/>
		</g>
		<g>
			<path d="M4.254,18.172l-1.982-6.741L41.992-0.241L43.972,6.5L4.254,18.172z M4.755,12.786l0.854,2.904L41.489,5.144l-0.853-2.903
				L4.755,12.786z"/>
			<rect x="12.023" y="8.37" transform="matrix(0.8778 0.479 -0.479 0.8778 7.3212 -4.7759)" width="2" height="7.189"/>
			<rect x="22.131" y="5.398" transform="matrix(0.8778 0.479 -0.479 0.8778 7.1329 -9.9803)" width="2" height="7.189"/>
			<rect x="32.239" y="2.429" transform="matrix(0.8778 0.479 -0.479 0.8778 6.9453 -15.1841)" width="2" height="7.188"/>
		</g>
	</g>
	<rect x="7.005" y="37.283" width="35.726" height="2"/>
	<rect x="22.123" y="25.003" width="2" height="13.28"/>
</g>
</svg>
