<?xml version="1.0" encoding="utf-8"?>
<!-- Generator: Adobe Illustrator 16.0.0, SVG Export Plug-In . SVG Version: 6.00 Build 0)  -->
<!DOCTYPE svg PUBLIC "-//W3C//DTD SVG 1.1//EN" "http://www.w3.org/Graphics/SVG/1.1/DTD/svg11.dtd">
<svg version="1.1" id="Layer_1" xmlns="http://www.w3.org/2000/svg" xmlns:xlink="http://www.w3.org/1999/xlink" x="0px" y="0px"
	 width="48px" height="48px" viewBox="0 0 48 48" enable-background="new 0 0 48 48" xml:space="preserve">
<g>
	<rect x="23" y="22.044" width="2" height="24.956"/>
	<rect x="10.288" y="46" width="27.424" height="2"/>
	<path d="M24,23.043c-3.105,0-5.631-2.526-5.631-5.631s2.526-5.631,5.631-5.631c3.104,0,5.631,2.526,5.631,5.631
		S27.104,23.043,24,23.043z M24,13.781c-2.002,0-3.631,1.629-3.631,3.631s1.629,3.631,3.631,3.631s3.631-1.629,3.631-3.631
		S26.002,13.781,24,13.781z"/>
	<g>
		<path d="M14.597,28.137c-3.537-2.737-5.566-6.868-5.566-11.333c0-3.995,1.688-7.837,4.63-10.542l1.354,1.473
			c-2.532,2.327-3.983,5.633-3.983,9.07c0,3.842,1.746,7.396,4.79,9.751L14.597,28.137z"/>
		<path d="M8.221,34.587C2.997,30.141,0,23.658,0,16.801C0,10.565,2.428,4.703,6.837,0.293l1.414,1.414C4.22,5.739,2,11.1,2,16.801
			c0,6.27,2.74,12.197,7.517,16.263L8.221,34.587z"/>
		<path d="M33.402,28.137l-1.225-1.582c3.045-2.356,4.791-5.911,4.791-9.751c0-3.437-1.452-6.742-3.983-9.07l1.354-1.473
			c2.942,2.706,4.63,6.548,4.63,10.542C38.969,21.268,36.939,25.398,33.402,28.137z"/>
		<path d="M39.779,34.587l-1.297-1.523C43.26,28.998,46,23.071,46,16.801c0-5.7-2.221-11.06-6.252-15.094l1.414-1.414
			C45.571,4.705,48,10.567,48,16.801C48,23.658,45.004,30.141,39.779,34.587z"/>
	</g>
</g>
</svg>
