<?xml version="1.0" encoding="utf-8"?>
<!-- Generator: Adobe Illustrator 16.0.0, SVG Export Plug-In . SVG Version: 6.00 Build 0)  -->
<!DOCTYPE svg PUBLIC "-//W3C//DTD SVG 1.1//EN" "http://www.w3.org/Graphics/SVG/1.1/DTD/svg11.dtd">
<svg version="1.1" id="Layer_1" xmlns="http://www.w3.org/2000/svg" xmlns:xlink="http://www.w3.org/1999/xlink" x="0px" y="0px"
	 width="48px" height="48px" viewBox="0 0 48 48" enable-background="new 0 0 48 48" xml:space="preserve">
<g>
	<g>
		<path d="M35.912,48H12.088c-3.309,0-6-2.691-6-6V6c0-3.309,2.691-6,6-6h23.824c3.309,0,6,2.691,6,6v36
			C41.912,45.309,39.221,48,35.912,48z M12.088,2c-2.206,0-4,1.794-4,4v36c0,2.206,1.794,4,4,4h23.824c2.206,0,4-1.794,4-4V6
			c0-2.206-1.794-4-4-4H12.088z"/>
	</g>
	<path d="M24,44.62c-7.697,0-13.959-6.262-13.959-13.959c0-7.697,6.262-13.959,13.959-13.959c7.697,0,13.959,6.262,13.959,13.959
		C37.959,38.358,31.697,44.62,24,44.62z M24,18.702c-6.594,0-11.959,5.365-11.959,11.959c0,6.594,5.365,11.959,11.959,11.959
		c6.594,0,11.959-5.365,11.959-11.959C35.959,24.067,30.594,18.702,24,18.702z"/>
	<path d="M23.999,14.804c-3.463,0-6.28-2.817-6.28-6.28s2.817-6.28,6.28-6.28s6.28,2.817,6.28,6.28S27.462,14.804,23.999,14.804z
		 M23.999,4.244c-2.36,0-4.28,1.92-4.28,4.28c0,2.36,1.92,4.28,4.28,4.28s4.28-1.92,4.28-4.28
		C28.279,6.164,26.359,4.244,23.999,4.244z"/>
	<path d="M24,36.376c-3.151,0-5.715-2.563-5.715-5.715s2.563-5.716,5.715-5.716s5.715,2.564,5.715,5.716S27.151,36.376,24,36.376z
		 M24,26.945c-2.048,0-3.715,1.667-3.715,3.716s1.667,3.715,3.715,3.715c2.049,0,3.715-1.666,3.715-3.715S26.049,26.945,24,26.945z"
		/>
</g>
</svg>
