<?xml version="1.0" encoding="utf-8"?>
<!-- Generator: Adobe Illustrator 16.0.0, SVG Export Plug-In . SVG Version: 6.00 Build 0)  -->
<!DOCTYPE svg PUBLIC "-//W3C//DTD SVG 1.1//EN" "http://www.w3.org/Graphics/SVG/1.1/DTD/svg11.dtd">
<svg version="1.1" id="Layer_1" xmlns="http://www.w3.org/2000/svg" xmlns:xlink="http://www.w3.org/1999/xlink" x="0px" y="0px"
	 width="48px" height="48px" viewBox="0 0 48 48" enable-background="new 0 0 48 48" xml:space="preserve">
<g>
	<path d="M24.04,29.587c-1.859,0-8.157-0.381-11.153-5.278c-2.755-4.501-1.806-11.373,2.821-20.421
		c0.165-0.322,0.49-0.53,0.851-0.544c0.361,0,0.702,0.167,0.891,0.475l4.165,6.769c0.155-2.194,0.538-5,1.471-7.02
		c0.152-0.331,0.473-0.552,0.836-0.578c0.358-0.023,0.712,0.147,0.91,0.452c0.065,0.1,0.994,1.537,1.902,3.372
		c0.455-1.574,1.325-3.23,2.917-4.645c0.219-0.195,0.515-0.283,0.806-0.242c0.292,0.042,0.55,0.21,0.706,0.459
		c0.346,0.552,8.41,13.607,4.321,21.531c-1.771,3.429-5.482,5.334-11.033,5.661C24.443,29.579,24.299,29.587,24.04,29.587z
		 M16.694,6.407c-3.605,7.576-4.313,13.243-2.102,16.858c2.517,4.114,8.312,4.322,9.447,4.322c0.183,0,0.29-0.005,0.303-0.006
		c4.786-0.281,7.939-1.822,9.363-4.579c2.942-5.697-1.791-15.201-3.591-18.437C28.31,6.778,28.194,9.454,28.32,11
		c0.104,0.47,0.168,0.912,0.188,1.314c0.024,0.517-0.349,0.965-0.86,1.037c-0.517,0.067-0.995-0.261-1.113-0.764
		c-0.029-0.128-0.13-0.588-0.194-1.274c-0.391-1.644-1.339-3.566-2.1-4.943c-0.82,3.325-0.722,7.521-0.721,7.572
		c0.012,0.452-0.281,0.856-0.714,0.985c-0.437,0.127-0.9-0.05-1.137-0.435L16.694,6.407z"/>
	<path d="M21.473,48H9.513c-0.32,0-0.621-0.153-0.809-0.412l-4.926-6.782C-5.637,26.813,5.132,7.152,8.695,1.403
		c0.183-0.351,0.357-0.637,0.517-0.853C9.375,0.332,9.622,0,10.128,0c0.365,0,0.701,0.199,0.877,0.519
		c0.287,0.522,0.024,0.934-0.167,1.234l-0.404,0.642C8.428,6.305,5.01,18.713,9.089,23.854c4.932,6.214,12.938,22.024,13.276,22.694
		c0.157,0.311,0.141,0.68-0.041,0.976C22.143,47.819,21.82,48,21.473,48z M10.023,46h9.813c-2.132-4.122-8.361-15.923-12.313-20.902
		c-2.602-3.278-2.703-8.488-1.947-13.253C2.2,19.969-0.357,31.078,5.417,39.659L10.023,46z"/>
	<path d="M38.488,48H26.527c-0.348,0-0.67-0.181-0.852-0.476c-0.183-0.296-0.197-0.665-0.041-0.976
		c0.339-0.67,8.345-16.48,13.275-22.694c4.082-5.144,0.66-17.551-1.347-21.461l-0.404-0.642c-0.191-0.299-0.452-0.709-0.166-1.231
		C37.169,0.2,37.505,0,37.87,0c0.507,0,0.754,0.332,0.917,0.552c0.159,0.214,0.332,0.5,0.516,0.85
		c3.563,5.749,14.335,25.408,4.94,39.375l-4.945,6.811C39.109,47.847,38.809,48,38.488,48z M28.164,46h9.814l4.625-6.369
		c5.761-8.563,3.199-19.666-0.18-27.788c0.757,4.765,0.656,9.975-1.947,13.255C36.524,30.078,30.297,41.877,28.164,46z"/>
	<rect x="23.489" y="28.58" width="2" height="18.42"/>
</g>
</svg>
