<?xml version="1.0" encoding="utf-8"?>
<!-- Generator: Adobe Illustrator 16.0.0, SVG Export Plug-In . SVG Version: 6.00 Build 0)  -->
<!DOCTYPE svg PUBLIC "-//W3C//DTD SVG 1.1//EN" "http://www.w3.org/Graphics/SVG/1.1/DTD/svg11.dtd">
<svg version="1.1" id="Layer_1" xmlns="http://www.w3.org/2000/svg" xmlns:xlink="http://www.w3.org/1999/xlink" x="0px" y="0px"
	 width="48px" height="48px" viewBox="0 0 48 48" enable-background="new 0 0 48 48" xml:space="preserve">
<g>
	<path d="M37.502,31.186H9.335v-9.079h28.167V31.186z M11.335,29.186h24.167v-5.079H11.335V29.186z"/>
	<path d="M32.304,48H14.535l-2.968-18.813h23.705L32.304,48z M16.244,46h14.351l2.337-14.813H13.907L16.244,46z"/>
	<path d="M27.016,21.831c-0.117,0-0.233-0.002-0.349-0.008l-0.17,0.002c-0.57,0-1.152-0.436-1.164-1.269
		c-0.017-1.027-0.129-1.901-0.354-2.748c-0.295-1.115-0.395-2.296-0.303-3.611c0.132-1.901,1.534-4.235,3.265-5.428
		c1.846-1.273,3.997-1.786,6.077-2.282c2-0.477,3.89-0.927,5.42-2.001l1.226-0.86l0.325,1.462c0.168,0.757,0.105,1.597,0.045,2.409
		c-0.026,0.35-0.053,0.69-0.053,0.997c0,0.284,0.006,0.571,0.012,0.86c0.022,1.196,0.047,2.432-0.286,3.653
		c-0.608,2.235-2.426,5.264-4.977,6.632c-1.556,0.835-3.377,1.26-4.982,1.634l-0.266,0.062c-0.838,0.197-1.894,0.418-2.93,0.479
		h-0.004C27.369,21.825,27.191,21.831,27.016,21.831z M39.063,7c-1.461,0.688-3.041,1.065-4.582,1.433
		c-1.989,0.474-3.868,0.922-5.406,1.983c-1.235,0.852-2.313,2.61-2.403,3.92c-0.077,1.093,0.002,2.061,0.24,2.959
		c0.211,0.792,0.341,1.625,0.395,2.529c0.92-0.039,1.925-0.25,2.719-0.437l0.268-0.063c1.558-0.363,3.168-0.739,4.491-1.449
		c1.939-1.04,3.477-3.501,3.992-5.396c0.257-0.943,0.237-1.985,0.216-3.088c-0.006-0.302-0.012-0.602-0.012-0.899
		c0-0.352,0.028-0.743,0.058-1.146C39.047,7.233,39.056,7.116,39.063,7z"/>
	<path d="M19.018,20.173L19.018,20.173h-0.322l-0.116-0.072c-1.259-0.234-2.573-0.831-3.592-1.333l-0.268-0.132
		c-1.471-0.725-3.139-1.547-4.46-2.705c-2.173-1.902-3.26-5.265-3.35-7.584C6.858,7.077,7.164,5.869,7.458,4.7
		c0.069-0.272,0.137-0.542,0.2-0.811c0.069-0.3,0.121-0.641,0.175-0.99c0.123-0.802,0.25-1.63,0.583-2.329l0.645-1.355l1.002,1.117
		c1.25,1.393,2.989,2.258,4.831,3.174c1.914,0.953,3.894,1.938,5.405,3.594c1.414,1.551,2.255,4.141,1.956,6.023
		c-0.212,1.313-0.575,2.44-1.109,3.448c-0.413,0.781-0.719,1.607-0.964,2.6C19.997,19.912,19.439,20.173,19.018,20.173z
		 M9.862,2.867C9.844,2.979,9.827,3.091,9.81,3.203c-0.062,0.402-0.123,0.793-0.204,1.14c-0.065,0.28-0.137,0.563-0.208,0.846
		C9.137,6.22,8.868,7.286,8.907,8.27c0.076,1.966,1.018,4.712,2.669,6.158c1.124,0.985,2.6,1.712,4.026,2.415l0.269,0.133
		c0.75,0.37,1.675,0.796,2.551,1.038c0.254-0.864,0.569-1.647,0.956-2.378c0.43-0.813,0.725-1.738,0.901-2.83
		c0.206-1.294-0.448-3.25-1.458-4.358c-1.26-1.38-2.988-2.24-4.819-3.151C12.584,4.591,11.131,3.868,9.862,2.867z"/>
</g>
</svg>
