<?xml version="1.0" encoding="utf-8"?>
<!-- Generator: Adobe Illustrator 16.0.0, SVG Export Plug-In . SVG Version: 6.00 Build 0)  -->
<!DOCTYPE svg PUBLIC "-//W3C//DTD SVG 1.1//EN" "http://www.w3.org/Graphics/SVG/1.1/DTD/svg11.dtd">
<svg version="1.1" id="Layer_1" xmlns="http://www.w3.org/2000/svg" xmlns:xlink="http://www.w3.org/1999/xlink" x="0px" y="0px"
	 width="48px" height="48px" viewBox="0 0 48 48" enable-background="new 0 0 48 48" xml:space="preserve">
<g>
	<path d="M38.492,47.999h-22.39c-0.288,0-0.562-0.124-0.752-0.341c-0.189-0.216-0.277-0.504-0.24-0.789
		c0.503-3.829,0.744-10.623-0.749-12.556c-0.625-0.809-1.603-1.87-2.639-2.995c-2.942-3.192-6.276-6.812-6.389-9.515
		c-0.139-3.311,3.227-5.048,4.45-5.569l0.578-1.348C10.463,13.036,11.702,0,26.143,0c13.783,0,16.1,8.73,16.455,12.484
		c0.146,1.457,0.027,17.501,0.014,19.327c-0.002,0.255-0.102,0.501-0.278,0.685c-1.442,1.503-2.968,3.698-2.853,4.446
		c0.277,1.806,0.039,9.248,0.011,10.091C39.474,47.571,39.031,47.999,38.492,47.999z M17.225,45.999h20.298
		c0.075-2.68,0.167-7.547-0.019-8.753c-0.293-1.903,2.032-4.677,3.11-5.843c0.054-7.126,0.097-17.694,0.002-18.633
		C40.229,8.687,37.847,2,26.143,2C12.633,2,12.357,14.586,12.352,15.123c-0.001,0.132-0.029,0.263-0.081,0.384l-0.814,1.899
		c-0.111,0.259-0.327,0.46-0.594,0.552c-0.035,0.012-3.635,1.296-3.532,3.762c0.082,1.97,3.423,5.596,5.862,8.244
		c1.066,1.157,2.073,2.25,2.751,3.127C18.034,35.796,17.526,43.082,17.225,45.999z"/>
	<path d="M23.791,20.902c-7.432,0-12.917-4.157-13.003-4.224l1.226-1.58c0.504,0.39,12.494,9.411,24.724-1.543l1.334,1.489
		C33.106,19.491,28.118,20.902,23.791,20.902z"/>
	<rect x="16.292" y="40.714" width="13.728" height="2"/>
</g>
</svg>
