<?xml version="1.0" encoding="utf-8"?>
<!-- Generator: Adobe Illustrator 16.0.0, SVG Export Plug-In . SVG Version: 6.00 Build 0)  -->
<!DOCTYPE svg PUBLIC "-//W3C//DTD SVG 1.1//EN" "http://www.w3.org/Graphics/SVG/1.1/DTD/svg11.dtd">
<svg version="1.1" id="Layer_1" xmlns="http://www.w3.org/2000/svg" xmlns:xlink="http://www.w3.org/1999/xlink" x="0px" y="0px"
	 width="48px" height="48px" viewBox="0 0 48 48" enable-background="new 0 0 48 48" xml:space="preserve">
<g>
	<g>
		<g>
			<path d="M40,39.419H8c-4.411,0-8-3.589-8-8V9.311c0-4.411,3.589-8,8-8h32c4.411,0,8,3.589,8,8v22.108
				C48,35.83,44.411,39.419,40,39.419z M8,3.311c-3.309,0-6,2.691-6,6v22.108c0,3.309,2.691,6,6,6h32c3.309,0,6-2.691,6-6V9.311
				c0-3.309-2.691-6-6-6H8z"/>
		</g>
		<rect x="1" y="28.096" width="46" height="2"/>
		<path d="M31.313,46.689H16.687c-0.552,0-1-0.447-1-1v-7.271c0-0.553,0.448-1,1-1h14.625c0.553,0,1,0.447,1,1v7.271
			C32.313,46.242,31.865,46.689,31.313,46.689z M17.687,44.689h12.625v-5.271H17.687V44.689z"/>
		<rect x="6.645" y="44.688" width="34.708" height="2"/>
	</g>
	<rect x="6.262" y="32.943" width="6.511" height="2"/>
	<rect x="17.583" y="32.943" width="6.514" height="2"/>
	<rect x="28.907" y="32.943" width="6.513" height="2"/>
</g>
</svg>
