<?xml version="1.0" encoding="utf-8"?>
<!-- Generator: Adobe Illustrator 16.0.0, SVG Export Plug-In . SVG Version: 6.00 Build 0)  -->
<!DOCTYPE svg PUBLIC "-//W3C//DTD SVG 1.1//EN" "http://www.w3.org/Graphics/SVG/1.1/DTD/svg11.dtd">
<svg version="1.1" id="Layer_1" xmlns="http://www.w3.org/2000/svg" xmlns:xlink="http://www.w3.org/1999/xlink" x="0px" y="0px"
	 width="48px" height="48px" viewBox="0 0 48 48" enable-background="new 0 0 48 48" xml:space="preserve">
<g>
	<g>
		<path d="M16.41,22.055c-3.246,0-5.886-2.641-5.886-5.886s2.641-5.886,5.886-5.886s5.886,2.64,5.886,5.886
			S19.656,22.055,16.41,22.055z M16.41,12.283c-2.143,0-3.886,1.743-3.886,3.886c0,2.143,1.743,3.886,3.886,3.886
			c2.143,0,3.886-1.743,3.886-3.886C20.296,14.026,18.553,12.283,16.41,12.283z"/>
		<path d="M31.588,22.055c-3.245,0-5.886-2.641-5.886-5.886s2.641-5.886,5.886-5.886c3.246,0,5.887,2.64,5.887,5.886
			S34.834,22.055,31.588,22.055z M31.588,12.283c-2.143,0-3.886,1.743-3.886,3.886c0,2.143,1.743,3.886,3.886,3.886
			c2.144,0,3.887-1.743,3.887-3.886C35.475,14.026,33.731,12.283,31.588,12.283z"/>
	</g>
	<path d="M23.999,29.82c-2.496,0-4.526-2.118-4.526-4.723s2.03-4.724,4.526-4.724c2.496,0,4.526,2.119,4.526,4.724
		S26.495,29.82,23.999,29.82z M23.999,22.374c-1.393,0-2.526,1.222-2.526,2.724c0,1.501,1.133,2.723,2.526,2.723
		s2.526-1.222,2.526-2.723C26.525,23.596,25.392,22.374,23.999,22.374z"/>
	<path d="M24.076,48.001L23.987,48c-0.001,0-0.002,0-0.003,0c-1.662,0-9.766-0.559-12.716-11.489L9.78,30.997l3.274,4.682
		c0.042,0.059,4.229,5.936,10.958,6.013c6.704-0.077,10.891-5.954,10.933-6.014L38.218,31l-1.486,5.511
		C33.779,47.446,25.671,48.001,24.076,48.001z M15.035,40.462c3.105,5.22,7.803,5.539,8.891,5.539h0.149
		c1.087,0,5.782-0.318,8.886-5.535c-2.139,1.623-5.17,3.183-8.95,3.226C20.217,43.648,17.178,42.086,15.035,40.462z"/>
	<g>
		<rect x="23.001" y="36.971" width="2" height="4.295"/>
		<rect x="20.639" y="36.971" width="2" height="3.973"/>
		<rect x="18.278" y="36.25" width="2" height="3.973"/>
		<rect x="15.918" y="35.307" width="2" height="3.328"/>
		<rect x="25.359" y="36.971" width="2" height="3.973"/>
		<rect x="27.721" y="36.25" width="2" height="3.973"/>
		<rect x="30.082" y="35.307" width="2" height="3.328"/>
	</g>
	<path d="M23.999,35.953c-5.081,0-9.823-1.953-13.354-5.5l-0.248-0.248l-0.093-0.837c-0.071-0.632-0.142-1.266-0.174-1.894
		c-0.07-1.431-0.355-2.292-1.09-3.296c-0.462-0.631-1.036-1.282-1.644-1.971c-0.556-0.63-1.131-1.283-1.664-1.971l-0.177-0.228
		l-0.028-0.287C5.47,19.129,5.44,18.542,5.44,17.977C5.44,8.064,13.766,0,23.999,0c4.95,0,9.607,1.866,13.111,5.254
		c3.515,3.397,5.449,7.916,5.448,12.723c0,0.561-0.029,1.132-0.089,1.744l-0.028,0.288l-0.177,0.229
		c-0.534,0.687-1.108,1.338-1.663,1.968c-0.608,0.69-1.183,1.342-1.647,1.974c-0.731,1.001-1.017,1.863-1.087,3.294
		c-0.031,0.628-0.103,1.262-0.174,1.893l-0.093,0.839l-0.247,0.248C33.823,34,29.08,35.953,23.999,35.953z M12.309,29.284
		c3.125,3.014,7.263,4.669,11.69,4.669c4.429,0,8.566-1.655,11.691-4.669l0.016-0.143c0.066-0.59,0.135-1.181,0.163-1.767
		c0.076-1.522,0.354-2.85,1.472-4.377c0.519-0.706,1.121-1.39,1.76-2.114c0.472-0.535,0.957-1.085,1.404-1.645
		c0.036-0.439,0.054-0.854,0.054-1.261c0.001-4.261-1.717-8.268-4.838-11.285C32.591,3.667,28.428,2,23.999,2
		C14.868,2,7.44,9.167,7.44,17.977c0,0.408,0.018,0.832,0.053,1.261c0.447,0.56,0.934,1.112,1.405,1.647
		c0.638,0.724,1.241,1.408,1.756,2.112c1.121,1.53,1.4,2.857,1.474,4.378c0.029,0.586,0.097,1.178,0.164,1.769L12.309,29.284z"/>
</g>
</svg>
