<?xml version="1.0" encoding="utf-8"?>
<!-- Generator: Adobe Illustrator 16.0.0, SVG Export Plug-In . SVG Version: 6.00 Build 0)  -->
<!DOCTYPE svg PUBLIC "-//W3C//DTD SVG 1.1//EN" "http://www.w3.org/Graphics/SVG/1.1/DTD/svg11.dtd">
<svg version="1.1" id="Layer_1" xmlns="http://www.w3.org/2000/svg" xmlns:xlink="http://www.w3.org/1999/xlink" x="0px" y="0px"
	 width="48px" height="48px" viewBox="0 0 48 48" enable-background="new 0 0 48 48" xml:space="preserve">
<g>
	<g>
		<path d="M35.774,22.268c-3.328,0-6.447-1.471-8.559-4.036c-3.895-4.729-3.209-11.761,1.527-15.673C30.738,0.909,33.258,0,35.838,0
			c3.327,0,6.447,1.47,8.559,4.033c3.895,4.731,3.21,11.762-1.525,15.674C40.876,21.358,38.355,22.268,35.774,22.268z M35.838,2
			c-2.116,0-4.184,0.746-5.821,2.099c-3.888,3.212-4.451,8.981-1.257,12.861c1.73,2.102,4.287,3.307,7.015,3.307
			c2.116,0,4.185-0.747,5.822-2.102c3.887-3.211,4.45-8.98,1.256-12.861C41.123,3.205,38.565,2,35.838,2z"/>
		<path d="M6.153,40.512c-0.29,0-0.576-0.126-0.772-0.364l-3.849-4.674c-0.32-0.39-0.301-0.956,0.045-1.323L25.025,9.354
			l1.453,1.374L3.637,34.884l2.725,3.309l28.01-17.873l1.076,1.687L6.691,40.354C6.525,40.461,6.338,40.512,6.153,40.512z"/>
		<path d="M9.041,48.005c-1.151,0-2.271-0.177-3.359-0.533c-2.494-0.814-4.87-3.209-4.587-6.208
			c0.154-1.633,1.476-4.325,3.464-4.923l0.575,1.916c-0.952,0.285-1.938,2.024-2.048,3.194c-0.184,1.954,1.479,3.552,3.217,4.12
			c3.15,1.028,6.726,0.205,10.626-2.446c0.785-0.533,1.516-1.149,2.29-1.802c0.987-0.832,2.007-1.691,3.155-2.373
			c2.335-1.384,5.208-1.702,7.963-1.84c3.784-0.177,5.269,1.59,6.814,3.473c0.574,0.7,1.169,1.424,1.94,2.144
			c1.977,1.844,3.5,2.168,5.969,2.168v2c-2.875,0-4.895-0.431-7.332-2.705c-0.87-0.811-1.535-1.622-2.123-2.337
			c-1.475-1.798-2.35-2.878-5.169-2.744c-2.328,0.116-4.983,0.343-7.043,1.563c-1.005,0.597-1.919,1.366-2.886,2.182
			c-0.779,0.656-1.584,1.334-2.454,1.927C14.895,46.927,11.877,48.005,9.041,48.005z"/>
	</g>
	<rect x="39.137" y="4.348" transform="matrix(0.6689 0.7434 -0.7434 0.6689 17.1617 -27.8316)" width="1.37" height="2"/>
	<rect x="39.375" y="7.407" transform="matrix(0.6689 0.7434 -0.7434 0.6689 19.5147 -26.9958)" width="1.37" height="2"/>
	<rect x="36.27" y="7.407" transform="matrix(0.6689 0.7434 -0.7434 0.6689 18.4867 -24.6879)" width="1.37" height="2"/>
	<rect x="35.811" y="4.348" transform="matrix(0.6689 0.7434 -0.7434 0.6689 16.0606 -25.3597)" width="1.37" height="2"/>
	<rect x="36.727" y="10.408" transform="matrix(0.6689 0.7433 -0.7433 0.6689 20.8668 -24.0336)" width="1.371" height="2"/>
	<rect x="32.985" y="7.407" transform="matrix(0.6693 0.743 -0.743 0.6693 17.3828 -22.2375)" width="1.37" height="2"/>
	<rect x="39.833" y="10.408" transform="matrix(0.6677 0.7444 -0.7444 0.6677 21.9549 -26.3713)" width="1.369" height="1.999"/>
	<rect x="42.6" y="8.425" transform="matrix(0.6689 0.7434 -0.7434 0.6689 21.3396 -29.0565)" width="1.37" height="2"/>
	<rect x="32.527" y="4.087" transform="matrix(0.6689 0.7433 -0.7433 0.6689 14.7776 -23.0042)" width="1.371" height="2"/>
	<rect x="33.221" y="10.916" transform="matrix(0.6698 0.7425 -0.7425 0.6698 20.0426 -21.2416)" width="1.37" height="2"/>
	<rect x="36.27" y="13.625" transform="matrix(0.6694 0.7429 -0.7429 0.6694 23.0803 -22.6179)" width="1.37" height="2"/>
	<rect x="39.137" y="14.134" transform="matrix(0.6689 0.7434 -0.7434 0.6689 24.4366 -24.5911)" width="1.37" height="2"/>
	<rect x="42.6" y="12.103" transform="matrix(0.6689 0.7434 -0.7434 0.6689 24.0736 -27.8387)" width="1.37" height="2"/>
	<rect x="36.27" y="1.571" transform="matrix(0.6693 0.743 -0.743 0.6693 14.1327 -26.608)" width="1.37" height="2"/>
	<rect x="38.679" y="17.223" transform="matrix(0.6708 0.7417 -0.7417 0.6708 26.4759 -23.1955)" width="1.37" height="1.999"/>
	<rect x="35.58" y="18.24" transform="matrix(0.6693 0.743 -0.743 0.6693 26.2886 -20.5823)" width="1.372" height="2"/>
	<rect x="33.221" y="15.153" transform="matrix(0.6697 0.7427 -0.7427 0.6697 23.1966 -19.8455)" width="1.371" height="1.999"/>
	<rect x="29.974" y="13.116" transform="matrix(0.6681 0.7441 -0.7441 0.6681 20.6778 -18.1271)" width="1.37" height="2"/>
	<rect x="29.058" y="9.625" transform="matrix(0.6694 0.7429 -0.7429 0.6694 17.7248 -18.5827)" width="1.37" height="2"/>
	<rect x="29.514" y="5.749" transform="matrix(0.6691 0.7432 -0.7432 0.6691 15.009 -20.2108)" width="1.371" height="2"/>
	<rect x="30.645" y="17.731" transform="matrix(0.6685 0.7437 -0.7437 0.6685 24.3163 -17.0909)" width="1.37" height="2.001"/>
</g>
</svg>
