<?xml version="1.0" encoding="utf-8"?>
<!-- Generator: Adobe Illustrator 16.0.0, SVG Export Plug-In . SVG Version: 6.00 Build 0)  -->
<!DOCTYPE svg PUBLIC "-//W3C//DTD SVG 1.1//EN" "http://www.w3.org/Graphics/SVG/1.1/DTD/svg11.dtd">
<svg version="1.1" id="Layer_1" xmlns="http://www.w3.org/2000/svg" xmlns:xlink="http://www.w3.org/1999/xlink" x="0px" y="0px"
	 width="48px" height="48px" viewBox="0 0 48 48" enable-background="new 0 0 48 48" xml:space="preserve">
<g>
	<path d="M24,48C10.767,48,0,37.233,0,24S10.767,0,24,0s24,10.767,24,24S37.233,48,24,48z M24,2C11.869,2,2,11.869,2,24
		s9.869,22,22,22s22-9.869,22-22S36.131,2,24,2z"/>
	<rect x="23.02" y="1.296" transform="matrix(0.7071 0.7071 -0.7071 0.7071 24.1331 -9.9022)" width="2" height="45.769"/>
	<g>
		<path d="M35.105,38.723c-1.994,0-3.617-1.623-3.617-3.617s1.623-3.616,3.617-3.616s3.617,1.622,3.617,3.616
			S37.1,38.723,35.105,38.723z M35.105,33.489c-0.892,0-1.617,0.725-1.617,1.616s0.726,1.617,1.617,1.617s1.617-0.726,1.617-1.617
			S35.997,33.489,35.105,33.489z"/>
		<path d="M17.071,22.187c-0.683-0.683-1.06-1.591-1.06-2.557s0.376-1.874,1.06-2.557c1.366-1.366,3.75-1.366,5.116,0l-1.414,1.414
			c-0.611-0.61-1.677-0.61-2.288,0c-0.305,0.306-0.474,0.711-0.474,1.143s0.168,0.837,0.474,1.143L17.071,22.187z"/>
		<path d="M32.547,37.663L32.547,37.663l-22.21-22.208c-1.41-1.412-1.409-3.708,0-5.118c1.367-1.367,3.75-1.367,5.117,0
			l22.205,22.207l-1.409,1.419l-0.004-0.004c-0.611-0.609-1.675-0.607-2.283,0.003c-0.306,0.307-0.475,0.712-0.475,1.145
			c0,0.432,0.168,0.838,0.474,1.143L32.547,37.663z M12.895,11.277c-0.432,0-0.838,0.168-1.144,0.474
			c-0.63,0.631-0.63,1.658,0,2.288L31.672,33.96c0.176-0.526,0.472-1.008,0.875-1.411c0.403-0.404,0.886-0.701,1.412-0.876
			l-19.92-19.922C13.733,11.446,13.327,11.277,12.895,11.277z"/>
	</g>
	<path d="M38.903,31.677c-0.123-0.181-2.999-4.475-2.164-8.736c0.156-0.792,0.443-1.497,0.775-2.313
		c0.69-1.693,1.635-4.011,1.956-8.851l1.996,0.133c-0.343,5.162-1.358,7.653-2.1,9.473c-0.306,0.749-0.547,1.341-0.665,1.943
		c-0.677,3.451,1.83,7.188,1.855,7.226L38.903,31.677z"/>
</g>
</svg>
