<?xml version="1.0" encoding="utf-8"?>
<!-- Generator: Adobe Illustrator 16.0.0, SVG Export Plug-In . SVG Version: 6.00 Build 0)  -->
<!DOCTYPE svg PUBLIC "-//W3C//DTD SVG 1.1//EN" "http://www.w3.org/Graphics/SVG/1.1/DTD/svg11.dtd">
<svg version="1.1" id="Layer_1" xmlns="http://www.w3.org/2000/svg" xmlns:xlink="http://www.w3.org/1999/xlink" x="0px" y="0px"
	 width="48px" height="48px" viewBox="0 0 48 48" enable-background="new 0 0 48 48" xml:space="preserve">
<g>
	<g>
		<path d="M35.203,19.177c-1.704,0-3.306-0.663-4.511-1.866c-1.207-1.203-1.872-2.803-1.874-4.506
			c-0.001-1.703,0.661-3.304,1.865-4.509c1.205-1.203,2.807-1.865,4.51-1.865c1.704,0,3.306,0.662,4.51,1.864
			c1.206,1.204,1.871,2.805,1.873,4.507c0.002,1.703-0.66,3.304-1.864,4.508S36.906,19.177,35.203,19.177z M35.193,8.431
			c-1.17,0-2.27,0.455-3.097,1.28c-0.825,0.826-1.279,1.924-1.278,3.092c0.002,1.168,0.458,2.266,1.286,3.092
			c0.828,0.827,1.929,1.282,3.099,1.282c1.169,0,2.269-0.455,3.095-1.281s1.28-1.924,1.278-3.092
			c-0.001-1.168-0.458-2.267-1.285-3.094C37.464,8.886,36.364,8.431,35.193,8.431z"/>
		<path d="M24.006,30.373c-1.703,0-3.306-0.663-4.512-1.867c-1.207-1.203-1.871-2.804-1.873-4.506
			c-0.001-1.702,0.662-3.303,1.865-4.506c1.204-1.204,2.806-1.867,4.509-1.867c1.704,0,3.305,0.663,4.512,1.866
			c1.205,1.205,1.869,2.805,1.871,4.507c0.001,1.703-0.661,3.304-1.865,4.507C27.311,29.709,25.71,30.373,24.006,30.373z
			 M23.996,19.626c-1.169,0-2.269,0.455-3.095,1.281c-0.826,0.826-1.28,1.923-1.279,3.091c0.001,1.168,0.457,2.267,1.285,3.092
			c0.83,0.827,1.93,1.283,3.1,1.283c1.168,0,2.267-0.456,3.093-1.282c0.826-0.825,1.28-1.922,1.279-3.09
			c-0.002-1.168-0.457-2.267-1.284-3.093C26.267,20.082,25.166,19.626,23.996,19.626z"/>
		<path d="M12.807,41.568c-1.704,0-3.306-0.663-4.511-1.866s-1.871-2.804-1.872-4.506c-0.002-1.702,0.66-3.304,1.864-4.509
			c1.204-1.204,2.805-1.867,4.509-1.867c1.704,0,3.306,0.663,4.512,1.866c1.206,1.205,1.871,2.806,1.873,4.508
			c0.001,1.703-0.661,3.304-1.865,4.507C16.112,40.905,14.51,41.568,12.807,41.568z M12.796,30.82c-1.169,0-2.269,0.455-3.094,1.281
			s-1.28,1.925-1.279,3.093c0.001,1.168,0.458,2.266,1.285,3.092c0.828,0.827,1.928,1.282,3.098,1.282
			c1.169,0,2.269-0.455,3.095-1.281s1.28-1.923,1.279-3.091s-0.458-2.267-1.286-3.094S13.967,30.82,12.796,30.82z"/>
	</g>
	<g>
		<path d="M40,48H8c-4.411,0-8-3.589-8-8V8c0-4.411,3.589-8,8-8h32c4.411,0,8,3.589,8,8v32C48,44.411,44.411,48,40,48z M8,2
			C4.691,2,2,4.691,2,8v32c0,3.309,2.691,6,6,6h32c3.309,0,6-2.691,6-6V8c0-3.309-2.691-6-6-6H8z"/>
	</g>
</g>
</svg>
