<?xml version="1.0" encoding="utf-8"?>
<!-- Generator: Adobe Illustrator 16.0.0, SVG Export Plug-In . SVG Version: 6.00 Build 0)  -->
<!DOCTYPE svg PUBLIC "-//W3C//DTD SVG 1.1//EN" "http://www.w3.org/Graphics/SVG/1.1/DTD/svg11.dtd">
<svg version="1.1" id="Layer_1" xmlns="http://www.w3.org/2000/svg" xmlns:xlink="http://www.w3.org/1999/xlink" x="0px" y="0px"
	 width="48px" height="48px" viewBox="0 0 48 48" enable-background="new 0 0 48 48" xml:space="preserve">
<g>
	<g>
		<path d="M40,48H8c-4.411,0-8-3.589-8-8V8c0-4.411,3.589-8,8-8h32c4.411,0,8,3.589,8,8v32C48,44.411,44.411,48,40,48z M8,2
			C4.691,2,2,4.691,2,8v32c0,3.309,2.691,6,6,6h32c3.309,0,6-2.691,6-6V8c0-3.309-2.691-6-6-6H8z"/>
	</g>
	<g>
		<g>
			<path d="M14.388,44.675c-3.518,0-6.379-2.861-6.379-6.379s2.862-6.379,6.379-6.379s6.379,2.861,6.379,6.379
				S17.906,44.675,14.388,44.675z M14.388,33.917c-2.415,0-4.379,1.965-4.379,4.379s1.964,4.379,4.379,4.379
				c2.415,0,4.379-1.965,4.379-4.379S16.803,33.917,14.388,33.917z"/>
			<path d="M14.388,30.379c-3.518,0-6.379-2.861-6.379-6.379s2.862-6.379,6.379-6.379s6.379,2.861,6.379,6.379
				S17.906,30.379,14.388,30.379z M14.388,19.621c-2.415,0-4.379,1.964-4.379,4.379c0,2.414,1.964,4.379,4.379,4.379
				c2.415,0,4.379-1.965,4.379-4.379C18.767,21.585,16.803,19.621,14.388,19.621z"/>
			<path d="M14.388,16.083c-3.518,0-6.379-2.861-6.379-6.379s2.862-6.379,6.379-6.379s6.379,2.861,6.379,6.379
				S17.906,16.083,14.388,16.083z M14.388,5.325c-2.415,0-4.379,1.964-4.379,4.379s1.964,4.379,4.379,4.379
				c2.415,0,4.379-1.964,4.379-4.379S16.803,5.325,14.388,5.325z"/>
		</g>
		<g>
			<path d="M33.611,44.675c-3.518,0-6.379-2.861-6.379-6.379s2.861-6.379,6.379-6.379s6.379,2.861,6.379,6.379
				S37.129,44.675,33.611,44.675z M33.611,33.917c-2.414,0-4.379,1.965-4.379,4.379s1.965,4.379,4.379,4.379
				s4.379-1.965,4.379-4.379S36.025,33.917,33.611,33.917z"/>
			<path d="M33.611,30.379c-3.518,0-6.379-2.861-6.379-6.379s2.861-6.379,6.379-6.379S39.99,20.482,39.99,24
				S37.129,30.379,33.611,30.379z M33.611,19.621c-2.414,0-4.379,1.964-4.379,4.379c0,2.414,1.965,4.379,4.379,4.379
				S37.99,26.414,37.99,24C37.99,21.585,36.025,19.621,33.611,19.621z"/>
			<path d="M33.611,16.083c-3.518,0-6.379-2.861-6.379-6.379s2.861-6.379,6.379-6.379s6.379,2.861,6.379,6.379
				S37.129,16.083,33.611,16.083z M33.611,5.325c-2.414,0-4.379,1.964-4.379,4.379s1.965,4.379,4.379,4.379s4.379-1.964,4.379-4.379
				S36.025,5.325,33.611,5.325z"/>
		</g>
	</g>
</g>
</svg>
