<?xml version="1.0" encoding="utf-8"?>
<!-- Generator: Adobe Illustrator 16.0.0, SVG Export Plug-In . SVG Version: 6.00 Build 0)  -->
<!DOCTYPE svg PUBLIC "-//W3C//DTD SVG 1.1//EN" "http://www.w3.org/Graphics/SVG/1.1/DTD/svg11.dtd">
<svg version="1.1" id="Layer_1" xmlns="http://www.w3.org/2000/svg" xmlns:xlink="http://www.w3.org/1999/xlink" x="0px" y="0px"
	 width="48px" height="48px" viewBox="0 0 48 48" enable-background="new 0 0 48 48" xml:space="preserve">
<g>
	<path d="M27.404,48C17.353,48,9.176,39.822,9.176,29.771c0-10.052,8.177-18.229,18.229-18.229c10.052,0,18.229,8.178,18.229,18.229
		C45.634,39.822,37.456,48,27.404,48z M27.404,13.542c-8.948,0-16.229,7.281-16.229,16.229C11.176,38.72,18.456,46,27.404,46
		c8.949,0,16.229-7.28,16.229-16.229C43.634,20.823,36.354,13.542,27.404,13.542z"/>
	<path d="M27.437,14.296l-9.958-8.069l4.735-6.009h9.86l5.329,5.146L27.437,14.296z M20.271,5.916l7.101,5.753l7.096-6.36
		l-3.202-3.091h-8.081L20.271,5.916z"/>
	<g>
		<rect x="8.925" y="0.862" transform="matrix(0.194 0.981 -0.981 0.194 14.2758 -3.5529)" width="0.75" height="12.098"/>
		<rect x="3.278" y="6.536" transform="matrix(0.1906 0.9817 -0.9817 0.1906 14.3114 -3.535)" width="12.042" height="0.75"/>
		<rect x="4.629" y="6.536" transform="matrix(0.8309 0.5565 -0.5565 0.8309 5.4191 -4.0067)" width="9.344" height="0.75"/>
		<rect x="8.925" y="2.225" transform="matrix(0.8284 0.5601 -0.5601 0.8284 5.4658 -4.0232)" width="0.75" height="9.37"/>
	</g>
</g>
</svg>
