<?xml version="1.0" encoding="utf-8"?>
<!-- Generator: Adobe Illustrator 16.0.0, SVG Export Plug-In . SVG Version: 6.00 Build 0)  -->
<!DOCTYPE svg PUBLIC "-//W3C//DTD SVG 1.1//EN" "http://www.w3.org/Graphics/SVG/1.1/DTD/svg11.dtd">
<svg version="1.1" id="Layer_1" xmlns="http://www.w3.org/2000/svg" xmlns:xlink="http://www.w3.org/1999/xlink" x="0px" y="0px"
	 width="48px" height="48px" viewBox="0 0 48 48" enable-background="new 0 0 48 48" xml:space="preserve">
<g>
	<path d="M45.979,46.076H2.021V2.119h43.958V46.076z M4.021,44.076h39.958V4.119H4.021V44.076z"/>
	<g>
		<g>
			<rect x="4.637" width="2" height="3.119"/>
			<rect x="9.228" width="2" height="3.119"/>
			<rect x="13.818" width="2" height="3.119"/>
			<rect x="18.409" width="2" height="3.119"/>
			<rect x="23" width="2" height="3.119"/>
			<rect x="27.591" width="2" height="3.119"/>
			<rect x="32.182" width="2" height="3.119"/>
			<rect x="36.773" width="2" height="3.119"/>
			<rect x="41.365" width="2" height="3.119"/>
		</g>
		<g>
			<rect x="4.637" y="44.879" width="2" height="3.121"/>
			<rect x="9.228" y="44.879" width="2" height="3.121"/>
			<rect x="13.818" y="44.879" width="2" height="3.121"/>
			<rect x="18.409" y="44.879" width="2" height="3.121"/>
			<rect x="23" y="44.879" width="2" height="3.121"/>
			<rect x="27.591" y="44.879" width="2" height="3.121"/>
			<rect x="32.182" y="44.879" width="2" height="3.121"/>
			<rect x="36.773" y="44.879" width="2" height="3.121"/>
			<rect x="41.365" y="44.879" width="2" height="3.121"/>
		</g>
	</g>
	<g>
		<g>
			<rect x="44.88" y="4.635" width="3.12" height="2"/>
			<rect x="44.88" y="9.227" width="3.12" height="2"/>
			<rect x="44.88" y="13.818" width="3.12" height="2"/>
			<rect x="44.88" y="18.408" width="3.12" height="2"/>
			<rect x="44.88" y="23" width="3.12" height="2"/>
			<rect x="44.88" y="27.59" width="3.12" height="2"/>
			<rect x="44.88" y="32.182" width="3.12" height="2"/>
			<rect x="44.88" y="36.773" width="3.12" height="2"/>
			<rect x="44.88" y="41.363" width="3.12" height="2"/>
		</g>
		<g>
			<rect y="4.635" width="3.121" height="2"/>
			<rect y="9.227" width="3.121" height="2"/>
			<rect y="13.818" width="3.121" height="2"/>
			<rect y="18.408" width="3.121" height="2"/>
			<rect y="23" width="3.121" height="2"/>
			<rect y="27.59" width="3.121" height="2"/>
			<rect y="32.182" width="3.121" height="2"/>
			<rect y="36.773" width="3.121" height="2"/>
			<rect y="41.363" width="3.121" height="2"/>
		</g>
	</g>
	<path d="M24,40.414l-2.34-2.338C12.913,29.347,6.593,23.039,6.593,18.033c0-5.424,4.414-9.836,9.839-9.836
		c2.977,0,5.714,1.31,7.568,3.564c1.855-2.255,4.593-3.564,7.57-3.564c5.425,0,9.838,4.413,9.838,9.836
		c0,5.006-5.976,10.969-15.02,19.995L24,40.414z M16.432,10.197c-4.323,0-7.839,3.516-7.839,7.836c0,4.176,6.39,10.554,14.48,18.628
		L24,37.587l0.976-0.975c8.379-8.361,14.433-14.403,14.433-18.579c0-4.321-3.516-7.836-7.838-7.836c-2.77,0-5.279,1.424-6.713,3.809
		L24,15.431l-0.856-1.425C21.709,11.621,19.201,10.197,16.432,10.197z"/>
</g>
</svg>
