<?xml version="1.0" encoding="utf-8"?>
<!-- Generator: Adobe Illustrator 16.0.0, SVG Export Plug-In . SVG Version: 6.00 Build 0)  -->
<!DOCTYPE svg PUBLIC "-//W3C//DTD SVG 1.1//EN" "http://www.w3.org/Graphics/SVG/1.1/DTD/svg11.dtd">
<svg version="1.1" id="Layer_1" xmlns="http://www.w3.org/2000/svg" xmlns:xlink="http://www.w3.org/1999/xlink" x="0px" y="0px"
	 width="48px" height="48px" viewBox="0 0 48 48" enable-background="new 0 0 48 48" xml:space="preserve">
<g>
	<path d="M36.118,48H11.882l-12-24l12-24h24.236l12,24L36.118,48z M13.118,46h21.764l11-22l-11-22H13.118l-11,22L13.118,46z"/>
	<path d="M24,32.777c-4.839,0-8.777-3.938-8.777-8.777c0-4.839,3.938-8.777,8.777-8.777c4.84,0,8.777,3.938,8.777,8.777
		C32.777,28.84,28.84,32.777,24,32.777z M24,17.223c-3.737,0-6.777,3.04-6.777,6.777c0,3.737,3.04,6.777,6.777,6.777
		c3.737,0,6.777-3.04,6.777-6.777C30.777,20.263,27.737,17.223,24,17.223z"/>
</g>
</svg>
