<?xml version="1.0" encoding="utf-8"?>
<!-- Generator: Adobe Illustrator 16.0.0, SVG Export Plug-In . SVG Version: 6.00 Build 0)  -->
<!DOCTYPE svg PUBLIC "-//W3C//DTD SVG 1.1//EN" "http://www.w3.org/Graphics/SVG/1.1/DTD/svg11.dtd">
<svg version="1.1" id="Layer_1" xmlns="http://www.w3.org/2000/svg" xmlns:xlink="http://www.w3.org/1999/xlink" x="0px" y="0px"
	 width="48px" height="48px" viewBox="0 0 48 48" enable-background="new 0 0 48 48" xml:space="preserve">
<g>
	<path d="M21.563,47.059C9.673,47.059,0,37.386,0,25.495C0,13.606,9.673,3.933,21.563,3.932c1.857,0,3.705,0.238,5.491,0.708
		l0.967,0.255l-5.16,19.6h20.267v1C43.127,37.386,33.453,47.059,21.563,47.059z M21.563,5.932C10.776,5.933,2,14.709,2,25.495
		c0,10.787,8.776,19.563,19.563,19.563c10.453,0,19.017-8.238,19.539-18.563H20.266l5.305-20.15
		C24.257,6.071,22.913,5.932,21.563,5.932z"/>
	<path d="M48,22.83H25.141L30.96,0.72l0.967,0.254C41.391,3.458,48,12.035,48,21.83V22.83z M27.734,20.83h18.24
		c-0.414-8.134-5.843-15.18-13.596-17.644L27.734,20.83z"/>
</g>
</svg>
