<?xml version="1.0" encoding="utf-8"?>
<!-- Generator: Adobe Illustrator 16.0.0, SVG Export Plug-In . SVG Version: 6.00 Build 0)  -->
<!DOCTYPE svg PUBLIC "-//W3C//DTD SVG 1.1//EN" "http://www.w3.org/Graphics/SVG/1.1/DTD/svg11.dtd">
<svg version="1.1" id="Layer_1" xmlns="http://www.w3.org/2000/svg" xmlns:xlink="http://www.w3.org/1999/xlink" x="0px" y="0px"
	 width="48px" height="48px" viewBox="0 0 48 48" enable-background="new 0 0 48 48" xml:space="preserve">
<g>
	<path d="M10.535,45.772c-1.722,0-3.428-0.417-4.988-1.238c-2.505-1.32-4.324-3.518-5.121-6.188
		c-1.646-5.522,1.596-11.384,7.229-13.065l14.877-4.439c4.826-1.437,10.037,0.672,12.394,5.02l-1.758,0.953
		c-1.911-3.521-6.145-5.226-10.064-4.056L8.227,27.197c-4.576,1.367-7.216,6.111-5.884,10.577c0.641,2.15,2.11,3.923,4.136,4.989
		c2.034,1.072,4.369,1.299,6.58,0.638l14.879-4.438c1.979-0.588,3.69-1.86,4.818-3.582l1.674,1.096
		c-1.388,2.117-3.49,3.681-5.921,4.403l-14.879,4.437C12.612,45.622,11.571,45.772,10.535,45.772z"/>
	<path d="M27.914,35.749c-2.179,0-4.363-0.676-6.217-2.076c-2.075-1.565-3.471-3.855-3.93-6.448l1.97-0.35
		c0.371,2.094,1.495,3.941,3.166,5.202c3.721,2.81,9.09,1.996,11.968-1.811l9.355-12.375c1.411-1.865,2.012-4.162,1.69-6.469
		c-0.311-2.231-1.453-4.194-3.217-5.526c-3.72-2.81-9.089-1.999-11.968,1.808l-9.356,12.373l-1.596-1.206l9.356-12.373
		c3.545-4.688,10.171-5.672,14.769-2.198c2.19,1.654,3.608,4.085,3.993,6.847c0.394,2.836-0.344,5.66-2.076,7.951l-9.355,12.375
		C34.351,34.27,31.138,35.748,27.914,35.749z"/>
</g>
</svg>
