<?xml version="1.0" encoding="utf-8"?>
<!-- Generator: Adobe Illustrator 16.0.0, SVG Export Plug-In . SVG Version: 6.00 Build 0)  -->
<!DOCTYPE svg PUBLIC "-//W3C//DTD SVG 1.1//EN" "http://www.w3.org/Graphics/SVG/1.1/DTD/svg11.dtd">
<svg version="1.1" id="Layer_1" xmlns="http://www.w3.org/2000/svg" xmlns:xlink="http://www.w3.org/1999/xlink" x="0px" y="0px"
	 width="48px" height="48px" viewBox="0 0 48 48" enable-background="new 0 0 48 48" xml:space="preserve">
<g>
	<rect y="1" width="2" height="46"/>
	<rect x="4.342" y="1" width="2" height="33.025"/>
	<rect x="9.868" y="1" width="3" height="33.025"/>
	<rect x="16.393" y="1" width="2" height="33.025"/>
	<rect x="21.314" y="1" width="4" height="33.025"/>
	<rect x="29.676" y="1" width="2" height="33.025"/>
	<rect x="34.701" y="1" width="4" height="33.025"/>
	<rect x="41.727" y="1" width="2" height="33.025"/>
	<rect x="46" y="1" width="2" height="46"/>
	<g>
		<path d="M7.812,44.752c-0.903,0-1.578-0.305-2.027-0.919c-0.448-0.614-0.673-1.435-0.673-2.458c0-1.025,0.225-1.844,0.673-2.457
			c0.449-0.613,1.124-0.921,2.027-0.921c0.904,0,1.58,0.308,2.028,0.921c0.448,0.613,0.673,1.432,0.673,2.457
			c0,1.023-0.225,1.844-0.673,2.458C9.392,44.447,8.716,44.752,7.812,44.752z M6.85,39.801c-0.206,0.399-0.309,0.926-0.309,1.58
			c0,0.653,0.103,1.18,0.309,1.578s0.527,0.6,0.962,0.6c0.437,0,0.758-0.201,0.963-0.6s0.308-0.925,0.308-1.578
			c0-0.654-0.103-1.181-0.308-1.58c-0.205-0.398-0.527-0.599-0.963-0.599C7.377,39.202,7.056,39.402,6.85,39.801z"/>
		<path d="M15.194,44.752c-0.904,0-1.579-0.305-2.027-0.919c-0.449-0.614-0.674-1.435-0.674-2.458c0-1.025,0.225-1.844,0.674-2.457
			c0.448-0.613,1.123-0.921,2.027-0.921c0.903,0,1.58,0.308,2.027,0.921c0.449,0.613,0.674,1.432,0.674,2.457
			c0,1.023-0.225,1.844-0.674,2.458C16.774,44.447,16.098,44.752,15.194,44.752z M14.232,39.801
			c-0.206,0.399-0.309,0.926-0.309,1.58c0,0.653,0.103,1.18,0.309,1.578s0.526,0.6,0.962,0.6s0.757-0.201,0.962-0.6
			c0.206-0.398,0.309-0.925,0.309-1.578c0-0.654-0.103-1.181-0.309-1.58c-0.205-0.398-0.526-0.599-0.962-0.599
			S14.438,39.402,14.232,39.801z"/>
		<path d="M19.642,38.146h2.645v6.531h-1.402v-5.287h-1.243V38.146z"/>
		<path d="M27.336,40.691c0.165-0.231,0.247-0.459,0.247-0.676c0-0.219-0.069-0.399-0.214-0.547
			c-0.145-0.146-0.326-0.221-0.551-0.221c-0.412,0-0.803,0.294-1.168,0.88l-1.168-0.692c0.305-0.472,0.64-0.83,1.004-1.074
			c0.363-0.243,0.828-0.364,1.393-0.364c0.563,0,1.059,0.18,1.484,0.537c0.428,0.358,0.641,0.846,0.641,1.464
			c0,0.335-0.086,0.658-0.256,0.966c-0.173,0.31-0.488,0.703-0.949,1.183l-1.178,1.226H29.2v1.308h-4.604v-1.082l1.913-1.965
			C26.896,41.24,27.172,40.926,27.336,40.691z"/>
		<path d="M31.34,39.391v-1.244h3.999v1.012l-1.335,1.521c0.521,0.088,0.928,0.307,1.215,0.658c0.286,0.352,0.428,0.758,0.428,1.221
			c0,0.686-0.23,1.223-0.694,1.609c-0.464,0.393-1.058,0.584-1.779,0.584s-1.456-0.255-2.196-0.766l0.6-1.156
			c0.615,0.434,1.168,0.652,1.652,0.652c0.293,0,0.535-0.072,0.725-0.215c0.189-0.145,0.285-0.351,0.285-0.621
			c0-0.271-0.109-0.486-0.326-0.646c-0.219-0.157-0.521-0.238-0.907-0.238c-0.205,0-0.495,0.061-0.868,0.178v-1.073l1.252-1.478
			H31.34V39.391z"/>
		<path d="M40.059,41.855v-1.14h1.4v1.14h0.739v1.263h-0.739v1.562h-1.4v-1.562h-2.627v-1.112l2.326-3.859h1.59l-2.216,3.711h0.927
			V41.855z"/>
	</g>
</g>
</svg>
