<?xml version="1.0" encoding="utf-8"?>
<!-- Generator: Adobe Illustrator 16.0.0, SVG Export Plug-In . SVG Version: 6.00 Build 0)  -->
<!DOCTYPE svg PUBLIC "-//W3C//DTD SVG 1.1//EN" "http://www.w3.org/Graphics/SVG/1.1/DTD/svg11.dtd">
<svg version="1.1" id="Layer_1" xmlns="http://www.w3.org/2000/svg" xmlns:xlink="http://www.w3.org/1999/xlink" x="0px" y="0px"
	 width="48px" height="48px" viewBox="0 0 48 48" enable-background="new 0 0 48 48" xml:space="preserve">
<g>
	<path d="M17.509,47.56c-0.434,0-0.848-0.13-1.196-0.375l-5.185-3.646c-0.987-0.692-1.193-2.128-0.46-3.2l15.138-22.191
		c-1.952-3.36-1.922-7.351,0.132-10.361l2.327-3.414c1.706-2.5,4.521-3.935,7.723-3.935c0.773,0,1.554,0.087,2.319,0.26l1.436,0.324
		L32.12,12.193c-0.066,0.097-0.042,0.24,0.052,0.306l5.41,3.801c0.058,0.041,0.148,0.112,0.26-0.051l7.642-11.202L46.3,6.317
		c2.214,3.439,2.27,7.678,0.143,10.798l-2.33,3.413c-1.683,2.467-4.571,3.94-7.727,3.94l0,0c-0.597,0-1.196-0.052-1.789-0.155
		L19.466,46.49C19.009,47.16,18.277,47.56,17.509,47.56z M35.987,2.438c-2.53,0-4.743,1.116-6.07,3.061L27.59,8.913
		c-1.727,2.532-1.611,5.98,0.294,8.786l0.562,0.826l-0.826,0.563c-0.041,0.028-0.082,0.071-0.119,0.126L12.319,41.468
		c-0.131,0.191-0.101,0.393-0.042,0.435l5.232,3.657c0.085,0,0.212-0.062,0.305-0.197l15.183-22.254
		c0.034-0.05,0.061-0.109,0.075-0.169l0.236-0.983l0.98,0.248c0.691,0.175,1.396,0.263,2.097,0.263c2.531,0,4.745-1.118,6.074-3.067
		l2.33-3.413c1.401-2.055,1.582-4.752,0.561-7.197l-5.857,8.586c-0.664,0.972-2.101,1.236-3.063,0.559l-5.41-3.801
		c-0.984-0.694-1.232-2.07-0.553-3.068l5.882-8.621C36.229,2.441,36.107,2.438,35.987,2.438z M16.749,43.523
		c-1.391,0-2.523-1.143-2.523-2.547c0-1.402,1.132-2.543,2.523-2.543c1.39,0,2.521,1.141,2.521,2.543
		C19.27,42.381,18.139,43.523,16.749,43.523z M16.749,40.434c-0.289,0-0.523,0.243-0.523,0.543c0,0.302,0.234,0.547,0.523,0.547
		c0.287,0,0.521-0.245,0.521-0.547C17.27,40.677,17.036,40.434,16.749,40.434z"/>
	<path d="M32.094,48c-0.154,0-0.311-0.018-0.468-0.052c-0.669-0.146-1.282-0.595-1.682-1.23l-5.675-8.952l1.689-1.07l5.677,8.955
		c0.175,0.277,0.403,0.367,0.466,0.349l5.418-3.542c0.028-0.045,0.056-0.31-0.127-0.598l-7.851-12.391l1.689-1.07l7.85,12.39
		c0.752,1.184,0.542,2.684-0.468,3.343l-5.438,3.552C32.854,47.892,32.481,48,32.094,48z"/>
	<path d="M18.798,29.131l-3.152-4.971c-0.64-1.012-0.597-2.211,0.041-2.967l-5.315-8.388l-5.605,4.253l-5.158-8.138l14.36-8.67
		l7.578-0.319L18.21,6.856l-1.726,1.31l5.612,8.853c0.315-0.086,0.657-0.095,0.998-0.021c0.67,0.145,1.285,0.593,1.688,1.229
		l1.169,1.846l-1.689,1.07l-1.169-1.846c-0.174-0.274-0.412-0.366-0.469-0.35l-1.183,0.773L13.811,7.684l2.807-2.13l1.678-3.485
		l-3.732,0.157L2.392,9.575l2.899,4.574l5.605-4.253l7.496,11.829l-1.188,0.766c-0.022,0.041-0.052,0.307,0.133,0.599l3.151,4.971
		L18.798,29.131z"/>
</g>
</svg>
