<?xml version="1.0" encoding="utf-8"?>
<!-- Generator: Adobe Illustrator 16.0.0, SVG Export Plug-In . SVG Version: 6.00 Build 0)  -->
<!DOCTYPE svg PUBLIC "-//W3C//DTD SVG 1.1//EN" "http://www.w3.org/Graphics/SVG/1.1/DTD/svg11.dtd">
<svg version="1.1" id="Layer_1" xmlns="http://www.w3.org/2000/svg" xmlns:xlink="http://www.w3.org/1999/xlink" x="0px" y="0px"
	 width="48px" height="48px" viewBox="0 0 48 48" enable-background="new 0 0 48 48" xml:space="preserve">
<g>
	<path d="M40.201,48H6.906c-3.239,0-5.874-1.996-5.874-4.45c0-2.163,2.008-3.953,4.723-4.357V15.341
		c-2.679-0.544-4.723-2.942-4.723-5.744V5.874C1.032,2.635,3.667,0,6.906,0h31.979c1.564,0,3.038,0.613,4.151,1.725
		c1.112,1.113,1.725,2.586,1.724,4.149v3.723c0,3.239-2.636,5.874-5.876,5.874H23.896V39.1h16.305c3.239,0,5.874,1.997,5.874,4.451
		C46.075,46.004,43.44,48,40.201,48z M6.906,2C4.77,2,3.032,3.738,3.032,5.874v3.723c0,2.062,1.684,3.792,3.754,3.857l0.969,0.03
		v27.602l-0.977,0.022c-2.031,0.047-3.746,1.165-3.746,2.44c0,1.328,1.774,2.45,3.874,2.45h33.295c2.1,0,3.874-1.122,3.874-2.449
		c0-1.329-1.774-2.451-3.874-2.451H21.896V13.471h16.988c2.138,0,3.876-1.738,3.876-3.874V5.874c0.001-1.029-0.403-2-1.139-2.734
		C40.887,2.405,39.915,2,38.885,2H6.906z"/>
	<path d="M14.771,42.555c-2.457,0-4.382-3.003-4.382-6.836s1.925-6.836,4.382-6.836s4.382,3.003,4.382,6.836
		S17.228,42.555,14.771,42.555z M14.771,30.883c-1.125,0-2.382,2.068-2.382,4.836s1.257,4.836,2.382,4.836s2.382-2.068,2.382-4.836
		S15.896,30.883,14.771,30.883z"/>
	<path d="M39.467,41.041h-7.18c-4.136,0-7.501-3.364-7.501-7.499V19.625h22.182v13.917C46.968,37.677,43.603,41.041,39.467,41.041z
		 M26.786,21.625v11.917c0,3.032,2.468,5.499,5.501,5.499h7.18c3.033,0,5.501-2.467,5.501-5.499V21.625H26.786z"/>
	<rect x="34.877" y="14.471" width="2" height="6.154"/>
</g>
</svg>
