<?xml version="1.0" encoding="utf-8"?>
<!-- Generator: Adobe Illustrator 16.0.0, SVG Export Plug-In . SVG Version: 6.00 Build 0)  -->
<!DOCTYPE svg PUBLIC "-//W3C//DTD SVG 1.1//EN" "http://www.w3.org/Graphics/SVG/1.1/DTD/svg11.dtd">
<svg version="1.1" id="Layer_1" xmlns="http://www.w3.org/2000/svg" xmlns:xlink="http://www.w3.org/1999/xlink" x="0px" y="0px"
	 width="48px" height="48px" viewBox="0 0 48 48" enable-background="new 0 0 48 48" xml:space="preserve">
<g>
	<path d="M42.29,48H30.087c-0.553,0-1-0.447-1-1V34.544c0-2.48-2.118-4.498-4.722-4.498h-0.73c-2.604,0-4.722,2.018-4.722,4.498V47
		c0,0.553-0.448,1-1,1H5.71c-0.552,0-1-0.447-1-1V24.098H1c-0.408,0-0.775-0.248-0.928-0.626c-0.152-0.379-0.06-0.812,0.235-1.095
		l5.178-4.974V5.288c0-0.552,0.448-1,1-1h4.375c0.552,0,1,0.448,1,1v5.989L23.307,0.279c0.387-0.372,1-0.372,1.385,0l23,22.098
		c0.295,0.283,0.388,0.716,0.235,1.095c-0.152,0.378-0.52,0.626-0.928,0.626h-3.71V47C43.29,47.553,42.843,48,42.29,48z M31.087,46
		H41.29V23.098c0-0.552,0.447-1,1-1h2.226L24,2.387L11.553,14.346c-0.289,0.278-0.716,0.355-1.085,0.199
		c-0.369-0.157-0.608-0.519-0.608-0.92V6.288H7.485v11.541c0,0.272-0.111,0.533-0.307,0.721l-3.693,3.548H5.71c0.552,0,1,0.448,1,1
		V46h10.203V34.544c0-3.583,3.015-6.498,6.722-6.498h0.73c3.706,0,6.722,2.915,6.722,6.498V46z"/>
</g>
</svg>
