<?xml version="1.0" encoding="utf-8"?>
<!-- Generator: Adobe Illustrator 16.0.0, SVG Export Plug-In . SVG Version: 6.00 Build 0)  -->
<!DOCTYPE svg PUBLIC "-//W3C//DTD SVG 1.1//EN" "http://www.w3.org/Graphics/SVG/1.1/DTD/svg11.dtd">
<svg version="1.1" id="Layer_1" xmlns="http://www.w3.org/2000/svg" xmlns:xlink="http://www.w3.org/1999/xlink" x="0px" y="0px"
	 width="48px" height="48px" viewBox="0 0 48 48" enable-background="new 0 0 48 48" xml:space="preserve">
<g>
	<path d="M29.833,48h-10.78V18.517h10.78V48z M21.053,46h6.78V20.517h-6.78V46z"/>
	<path d="M34.736,20.517H14.149L24.442,8.975L34.736,20.517z M18.612,18.517h11.661l-5.832-6.538L18.612,18.517z"/>
	<path d="M16.396,48H0V23.784h5.087v4.929h0.674v-4.929h4.675v4.929h0.674v-4.929h5.286V48z M2,46h12.396V25.784H13.11v4.929H8.436
		v-4.929H7.761v4.929H3.087v-4.929H2V46z"/>
	<path d="M48,48H31.605V23.784h5.086v4.929h0.674v-4.929h4.675v4.929h0.675v-4.929H48V48z M33.605,46H46V25.784h-1.285v4.929H40.04
		v-4.929h-0.675v4.929h-4.674v-4.929h-1.086V46z"/>
	<rect x="23.442" y="1" width="2" height="10.107"/>
	<polygon points="24.777,8.573 24.433,6.603 28.295,5.928 24.214,4.192 24.997,2.352 35.301,6.734 	"/>
</g>
</svg>
