<?xml version="1.0" encoding="utf-8"?>
<!-- Generator: Adobe Illustrator 16.0.0, SVG Export Plug-In . SVG Version: 6.00 Build 0)  -->
<!DOCTYPE svg PUBLIC "-//W3C//DTD SVG 1.1//EN" "http://www.w3.org/Graphics/SVG/1.1/DTD/svg11.dtd">
<svg version="1.1" id="Layer_1" xmlns="http://www.w3.org/2000/svg" xmlns:xlink="http://www.w3.org/1999/xlink" x="0px" y="0px"
	 width="48px" height="48px" viewBox="0 0 48 48" enable-background="new 0 0 48 48" xml:space="preserve">
<g>
	<path d="M42.781,48H5.219V13.512H16.28L24,6.458l7.72,7.054h11.062V48z M7.219,46h33.563V15.512h-9.837L24,9.167l-6.944,6.345
		H7.219V46z"/>
	<path d="M48.76,15.512H30.944L24,9.167l-6.947,6.345H-0.76L8.479,0h31.04L48.76,15.512z M31.72,13.512H45.24L38.383,2H9.616
		L2.76,13.512h13.518L24,6.458L31.72,13.512z"/>
	<path d="M30.57,48.001H17.43V27.313h13.14V48.001z M19.43,46.001h9.14V29.313h-9.14V46.001z"/>
	<g>
		<path d="M15.716,39.975H9.763V27.313h5.953V39.975z M11.763,37.975h1.953v-8.662h-1.953V37.975z"/>
		<path d="M38.238,39.975h-5.953V27.313h5.953V39.975z M34.285,37.975h1.953v-8.662h-1.953V37.975z"/>
	</g>
	<path d="M29.191,23.157H18.808v-5.474h10.383V23.157z M20.808,21.157h6.383v-1.474h-6.383V21.157z"/>
</g>
</svg>
