<?xml version="1.0" encoding="utf-8"?>
<!-- Generator: Adobe Illustrator 16.0.0, SVG Export Plug-In . SVG Version: 6.00 Build 0)  -->
<!DOCTYPE svg PUBLIC "-//W3C//DTD SVG 1.1//EN" "http://www.w3.org/Graphics/SVG/1.1/DTD/svg11.dtd">
<svg version="1.1" id="Layer_1" xmlns="http://www.w3.org/2000/svg" xmlns:xlink="http://www.w3.org/1999/xlink" x="0px" y="0px"
	 width="48px" height="48px" viewBox="0 0 48 48" enable-background="new 0 0 48 48" xml:space="preserve">
<g>
	<path d="M13.5,48H5.059c-0.552,0-1-0.447-1-1V8.553c0-0.17,0.043-0.337,0.126-0.486l4.2-7.553C8.561,0.197,8.895,0.001,9.257,0
		c0,0,0.001,0,0.002,0c0.361,0,0.695,0.195,0.872,0.51l4.241,7.553c0.084,0.15,0.128,0.318,0.128,0.49V47
		C14.5,47.553,14.052,48,13.5,48z M6.059,46H12.5V8.815L9.263,3.05L6.059,8.813V46z"/>
	<path d="M28.221,48H19.78c-0.552,0-1-0.447-1-1V8.553c0-0.17,0.043-0.337,0.126-0.486l4.199-7.553
		c0.176-0.317,0.51-0.513,0.872-0.514c0,0,0.001,0,0.002,0c0.361,0,0.695,0.195,0.872,0.51l4.242,7.553
		c0.084,0.149,0.128,0.318,0.128,0.49V47C29.221,47.553,28.773,48,28.221,48z M20.78,46h6.441V8.815L23.983,3.05L20.78,8.813V46z"/>
	<path d="M42.941,48H34.5c-0.553,0-1-0.447-1-1V8.553c0-0.17,0.043-0.337,0.126-0.486l4.201-7.553C38.003,0.197,38.337,0,38.699,0
		C38.7,0,38.7,0,38.701,0c0.361,0,0.695,0.195,0.872,0.51l4.24,7.553c0.084,0.15,0.128,0.318,0.128,0.49V47
		C43.941,47.553,43.494,48,42.941,48z M35.5,46h6.441V8.815L38.705,3.05L35.5,8.813V46z"/>
	<path d="M5.059,22.882H1c-0.552,0-1-0.448-1-1V13.63c0-0.552,0.448-1,1-1h4.059c0.552,0,1,0.448,1,1v8.252
		C6.059,22.434,5.611,22.882,5.059,22.882z M2,20.882h2.059V14.63H2V20.882z"/>
	<path d="M47,22.882h-4.059c-0.553,0-1-0.448-1-1V13.63c0-0.552,0.447-1,1-1H47c0.553,0,1,0.448,1,1v8.252
		C48,22.434,47.553,22.882,47,22.882z M43.941,20.882H46V14.63h-2.059V20.882z"/>
	<rect x="13.5" y="12.63" width="6.28" height="2"/>
	<rect x="13.5" y="20.883" width="6.28" height="2"/>
	<rect x="28.221" y="12.63" width="6.279" height="2"/>
	<rect x="28.221" y="20.883" width="6.279" height="2"/>
	<path d="M5.059,38.605H1c-0.552,0-1-0.447-1-1v-8.252c0-0.553,0.448-1,1-1h4.059c0.552,0,1,0.447,1,1v8.252
		C6.059,38.158,5.611,38.605,5.059,38.605z M2,36.605h2.059v-6.252H2V36.605z"/>
	<path d="M47,38.605h-4.059c-0.553,0-1-0.447-1-1v-8.252c0-0.553,0.447-1,1-1H47c0.553,0,1,0.447,1,1v8.252
		C48,38.158,47.553,38.605,47,38.605z M43.941,36.605H46v-6.252h-2.059V36.605z"/>
	<rect x="13.5" y="28.354" width="6.28" height="2"/>
	<rect x="13.5" y="36.605" width="6.28" height="2"/>
	<rect x="28.221" y="28.354" width="6.279" height="2"/>
	<rect x="28.221" y="36.605" width="6.279" height="2"/>
</g>
</svg>
