<?xml version="1.0" encoding="utf-8"?>
<!-- Generator: Adobe Illustrator 16.0.0, SVG Export Plug-In . SVG Version: 6.00 Build 0)  -->
<!DOCTYPE svg PUBLIC "-//W3C//DTD SVG 1.1//EN" "http://www.w3.org/Graphics/SVG/1.1/DTD/svg11.dtd">
<svg version="1.1" id="Layer_1" xmlns="http://www.w3.org/2000/svg" xmlns:xlink="http://www.w3.org/1999/xlink" x="0px" y="0px"
	 width="48px" height="48px" viewBox="0 0 48 48" enable-background="new 0 0 48 48" xml:space="preserve">
<g>
	<g>
		<path d="M40,48H8c-4.411,0-8-3.589-8-8V8c0-4.411,3.589-8,8-8h32c4.411,0,8,3.589,8,8v32C48,44.411,44.411,48,40,48z M8,2
			C4.691,2,2,4.691,2,8v32c0,3.309,2.691,6,6,6h32c3.309,0,6-2.691,6-6V8c0-3.309-2.691-6-6-6H8z"/>
	</g>
	<path d="M41.505,34.969H6.495V5.838h35.01V34.969z M8.495,32.969h31.01V7.838H8.495V32.969z"/>
	<g>
		<path d="M24,20.085c-2.938,0-5.328-2.39-5.328-5.328c0-2.938,2.39-5.328,5.328-5.328c2.938,0,5.328,2.39,5.328,5.328
			C29.328,17.695,26.938,20.085,24,20.085z M24,11.429c-1.835,0-3.328,1.493-3.328,3.328s1.493,3.328,3.328,3.328
			s3.328-1.493,3.328-3.328S25.835,11.429,24,11.429z"/>
		<path d="M35.542,31.377H12.458l0.033-1.032c0.202-6.251,5.257-11.148,11.509-11.148c6.25,0,11.305,4.896,11.507,11.148
			L35.542,31.377z M14.579,29.377h18.842c-0.649-4.662-4.605-8.18-9.42-8.18C19.185,21.197,15.228,24.715,14.579,29.377z"/>
	</g>
</g>
</svg>
