<?xml version="1.0" encoding="utf-8"?>
<!-- Generator: Adobe Illustrator 16.0.0, SVG Export Plug-In . SVG Version: 6.00 Build 0)  -->
<!DOCTYPE svg PUBLIC "-//W3C//DTD SVG 1.1//EN" "http://www.w3.org/Graphics/SVG/1.1/DTD/svg11.dtd">
<svg version="1.1" id="Layer_1" xmlns="http://www.w3.org/2000/svg" xmlns:xlink="http://www.w3.org/1999/xlink" x="0px" y="0px"
	 width="48px" height="48px" viewBox="0 0 48 48" enable-background="new 0 0 48 48" xml:space="preserve">
<g>
	<path d="M48,34.895H0V4.286h48V34.895z M2,32.895h44V6.286H2V32.895z"/>
	<rect x="23" y="1" width="2" height="4.874"/>
	<g>
		<rect x="9.934" y="33.47" transform="matrix(0.9667 0.2558 -0.2558 0.9667 10.6869 -1.4544)" width="2" height="13.76"/>
		<rect x="30.186" y="39.35" transform="matrix(0.2563 0.9666 -0.9666 0.2563 66.5691 -5.8189)" width="13.76" height="2"/>
	</g>
	<path d="M40.234,19.004l-0.072-3.809c-1.62-0.139-3.575-0.304-3.758-0.313l0.037-1.999c0.053,0,0.178,0,4.789,0.397l0.896,0.077
		l0.107,5.609L40.234,19.004z"/>
	<polygon points="26.468,26.26 18.582,17.23 5.836,26.248 4.681,24.615 18.9,14.554 26.788,23.586 40.298,14.057 41.45,15.691 	"/>
</g>
</svg>
