<?xml version="1.0" encoding="utf-8"?>
<!-- Generator: Adobe Illustrator 16.0.0, SVG Export Plug-In . SVG Version: 6.00 Build 0)  -->
<!DOCTYPE svg PUBLIC "-//W3C//DTD SVG 1.1//EN" "http://www.w3.org/Graphics/SVG/1.1/DTD/svg11.dtd">
<svg version="1.1" id="Layer_1" xmlns="http://www.w3.org/2000/svg" xmlns:xlink="http://www.w3.org/1999/xlink" x="0px" y="0px"
	 width="48px" height="48px" viewBox="0 0 48 48" enable-background="new 0 0 48 48" xml:space="preserve">
<g>
	<g>
		<path d="M33.563,34.064H1c-0.552,0-1-0.447-1-1V1c0-0.552,0.448-1,1-1h32.563c0.553,0,1,0.448,1,1v32.064
			C34.563,33.617,34.115,34.064,33.563,34.064z M2,32.064h30.563V2H2V32.064z"/>
		<path d="M38.15,38.641H5.589c-0.552,0-1-0.447-1-1v-4.578h2v3.578H37.15V6.575h-3.588v-2h4.588c0.553,0,1,0.448,1,1v32.065
			C39.15,38.193,38.703,38.641,38.15,38.641z"/>
		<path d="M42.576,43.32H10.013c-0.552,0-1-0.447-1-1v-4.576h2v3.576h30.563V11.256h-3.59v-2h4.59c0.553,0,1,0.448,1,1V42.32
			C43.576,42.873,43.129,43.32,42.576,43.32z"/>
		<path d="M47,48H14.438c-0.552,0-1-0.447-1-1v-4.576h2V46H46V15.935h-3.59v-2H47c0.553,0,1,0.448,1,1V47C48,47.553,47.553,48,47,48
			z"/>
	</g>
	<path d="M12.164,26.086c-3.487,0-6.116-1.611-6.116-3.748c0-2.136,2.629-3.746,6.116-3.746c2.697,0,5.038,1.028,5.824,2.557
		c0.195,0.381,0.293,0.781,0.293,1.189C18.281,24.475,15.651,26.086,12.164,26.086z M12.164,20.592
		c-2.513,0-4.116,1.034-4.116,1.746c0,0.713,1.604,1.748,4.116,1.748c2.513,0,4.117-1.035,4.117-1.748
		c0-0.089-0.024-0.18-0.073-0.276C15.842,21.35,14.3,20.592,12.164,20.592z"/>
	<path d="M18.281,22.338h-2V8.603c0-0.346,0.179-0.667,0.473-0.849c0.293-0.184,0.661-0.2,0.971-0.047
		c0.052,0.026,5.149,2.502,8.669,0.637l0.938,1.767c-3.15,1.671-6.999,0.72-9.051-0.014V22.338z"/>
</g>
</svg>
