<?xml version="1.0" encoding="utf-8"?>
<!-- Generator: Adobe Illustrator 16.0.0, SVG Export Plug-In . SVG Version: 6.00 Build 0)  -->
<!DOCTYPE svg PUBLIC "-//W3C//DTD SVG 1.1//EN" "http://www.w3.org/Graphics/SVG/1.1/DTD/svg11.dtd">
<svg version="1.1" id="Layer_1" xmlns="http://www.w3.org/2000/svg" xmlns:xlink="http://www.w3.org/1999/xlink" x="0px" y="0px"
	 width="48px" height="48px" viewBox="0 0 48 48" enable-background="new 0 0 48 48" xml:space="preserve">
<g>
	<path d="M48,48H0V7.343h48V48z M2,46h44V9.343H2V46z"/>
	<polygon points="1.211,9.32 0.789,7.365 36.063,-0.239 36.063,8.343 34.063,8.343 34.063,2.239 	"/>
	<path d="M42.738,20.091h-18.78v-8.707h18.78V20.091z M25.958,18.091h14.78v-4.707h-14.78V18.091z"/>
	<rect x="7.341" y="23.662" width="34.397" height="2"/>
	<rect x="7.341" y="28.203" width="34.397" height="2"/>
	<rect x="7.341" y="32.744" width="34.397" height="2"/>
	<rect x="25.799" y="37.285" width="15.938" height="2"/>
	<rect x="25.799" y="41.104" width="15.938" height="2"/>
</g>
</svg>
