<?xml version="1.0" encoding="utf-8"?>
<!-- Generator: Adobe Illustrator 16.0.0, SVG Export Plug-In . SVG Version: 6.00 Build 0)  -->
<!DOCTYPE svg PUBLIC "-//W3C//DTD SVG 1.1//EN" "http://www.w3.org/Graphics/SVG/1.1/DTD/svg11.dtd">
<svg version="1.1" id="Layer_1" xmlns="http://www.w3.org/2000/svg" xmlns:xlink="http://www.w3.org/1999/xlink" x="0px" y="0px"
	 width="48px" height="48px" viewBox="0 0 48 48" enable-background="new 0 0 48 48" xml:space="preserve">
<g>
	<rect x="1" y="46" width="46" height="2"/>
	<path d="M44.161,48H3.841V31.631c0-3.651,2.706-6.621,6.031-6.621H38.13c3.325,0,6.031,2.97,6.031,6.621V48z M5.841,46h36.32
		V31.631c0-2.548-1.809-4.621-4.031-4.621H9.872c-2.223,0-4.031,2.073-4.031,4.621V46z"/>
	<path d="M8.485,41.538c-2.153,0-3.727-0.693-3.763-0.709l0.83-1.82l-0.415,0.91l0.412-0.911c0.257,0.114,6.368,2.743,10.185-4.529
		l0.759-1.446l0.944,1.335c0.034,0.048,3.454,4.813,7.765,4.828c0.006,0,0.013,0,0.02,0c2.444,0,4.795-1.549,6.986-4.604
		l1.123-1.564l0.634,1.818c0.063,0.172,1.688,4.35,8.903,4.35c0.093,0,0.186,0,0.28-0.002l0.029,2
		c-6.146,0.061-9.042-2.503-10.284-4.221c-2.343,2.804-4.919,4.222-7.671,4.223c-0.013,0-0.025,0-0.038,0
		c-3.854-0.019-6.944-2.842-8.429-4.502C14.208,40.619,10.963,41.538,8.485,41.538z"/>
	<path d="M28.802,27.01h-10.35V12.262h10.35V27.01z M20.452,25.01h6.35V14.262h-6.35V25.01z"/>
	<path d="M26.207,14.05l-1.23-1.576c0.123-0.096,0.239-0.213,0.357-0.328c0.9-0.879,1.301-1.985,1.205-3.301
		c-0.143-1.94-1.308-4.011-2.672-5.542c-0.056,0.334-0.151,0.683-0.305,1.053c-0.369,0.89-0.933,1.65-1.479,2.385
		c-0.206,0.277-0.41,0.552-0.597,0.828c-0.541,0.802-0.842,1.447-0.78,2.365c0.049,0.726,0.438,1.829,0.704,2.001
		c-0.01-0.006-0.052-0.025-0.108-0.026l-0.021,2c-1.886-0.021-2.502-2.85-2.57-3.839c-0.107-1.566,0.474-2.665,1.118-3.62
		c0.203-0.3,0.424-0.599,0.648-0.9c0.495-0.667,0.962-1.296,1.237-1.958c0.29-0.698,0.237-1.248,0.157-2.08l-0.039-0.425
		c-0.033-0.39,0.165-0.763,0.505-0.955c0.34-0.193,0.761-0.169,1.079,0.061c2.358,1.709,4.873,5.182,5.116,8.509
		c0.14,1.904-0.479,3.586-1.789,4.864C26.56,13.744,26.388,13.91,26.207,14.05z"/>
</g>
</svg>
