<?xml version="1.0" encoding="utf-8"?>
<!-- Generator: Adobe Illustrator 16.0.0, SVG Export Plug-In . SVG Version: 6.00 Build 0)  -->
<!DOCTYPE svg PUBLIC "-//W3C//DTD SVG 1.1//EN" "http://www.w3.org/Graphics/SVG/1.1/DTD/svg11.dtd">
<svg version="1.1" id="Layer_1" xmlns="http://www.w3.org/2000/svg" xmlns:xlink="http://www.w3.org/1999/xlink" x="0px" y="0px"
	 width="48px" height="48px" viewBox="0 0 48 48" enable-background="new 0 0 48 48" xml:space="preserve">
<g>
	<path d="M47,48H25.18c-0.553,0-1-0.447-1-1V1c0-0.468,0.324-0.873,0.78-0.976c0.46-0.102,0.923,0.125,1.123,0.547l21.82,46
		c0.147,0.31,0.125,0.674-0.059,0.963C47.662,47.824,47.343,48,47,48z M26.18,46h19.239L26.18,5.441V46z"/>
	<path d="M25.18,48H1c-0.552,0-1-0.447-1-1V31.238c0-0.553,0.448-1,1-1h7.059v-9.023c0-0.552,0.448-1,1-1h7.06V11.57
		c0-0.552,0.448-1,1-1h8.061c0.553,0,1,0.448,1,1V47C26.18,47.553,25.732,48,25.18,48z M2,46h22.18V12.57h-6.061v8.645
		c0,0.552-0.448,1-1,1h-7.06v9.023c0,0.553-0.448,1-1,1H2V46z"/>
</g>
</svg>
