<?xml version="1.0" encoding="utf-8"?>
<!-- Generator: Adobe Illustrator 16.0.0, SVG Export Plug-In . SVG Version: 6.00 Build 0)  -->
<!DOCTYPE svg PUBLIC "-//W3C//DTD SVG 1.1//EN" "http://www.w3.org/Graphics/SVG/1.1/DTD/svg11.dtd">
<svg version="1.1" id="Layer_1" xmlns="http://www.w3.org/2000/svg" xmlns:xlink="http://www.w3.org/1999/xlink" x="0px" y="0px"
	 width="48px" height="48px" viewBox="0 0 48 48" enable-background="new 0 0 48 48" xml:space="preserve">
<g>
	<rect y="4.53" width="2" height="38.941"/>
	<path d="M48,43.471h-2V28.255H1.663v-2H47c0.553,0,1,0.447,1,1V43.471z"/>
	<rect x="1" y="32.697" width="46" height="2"/>
	<path d="M45.393,28.255H13.629c-0.552,0-1-0.447-1-1v-3.092c0-3.326,2.351-6.031,5.24-6.031H41.15c2.891,0,5.242,2.706,5.242,6.031
		v3.092C46.393,27.808,45.945,28.255,45.393,28.255z M14.629,26.255h29.764v-2.092c0-2.223-1.454-4.031-3.242-4.031H17.869
		c-1.787,0-3.24,1.809-3.24,4.031V26.255z"/>
	<path d="M7.252,28.254L7.252,28.254L7.252,28.254L7.252,28.254c-2.792,0-5.064-2.271-5.064-5.063c0-2.79,2.271-5.06,5.062-5.06
		c2.792,0,5.064,2.27,5.064,5.06c0,1.353-0.526,2.625-1.482,3.581C9.876,27.728,8.604,28.254,7.252,28.254z M7.25,20.131
		c-1.688,0-3.062,1.373-3.062,3.06c0,1.689,1.374,3.063,3.062,3.063h0.002c0.818,0,1.587-0.318,2.166-0.896s0.896-1.348,0.896-2.167
		C10.314,21.503,8.939,20.131,7.25,20.131z"/>
</g>
</svg>
