<?xml version="1.0" encoding="utf-8"?>
<!-- Generator: Adobe Illustrator 16.0.0, SVG Export Plug-In . SVG Version: 6.00 Build 0)  -->
<!DOCTYPE svg PUBLIC "-//W3C//DTD SVG 1.1//EN" "http://www.w3.org/Graphics/SVG/1.1/DTD/svg11.dtd">
<svg version="1.1" id="Layer_1" xmlns="http://www.w3.org/2000/svg" xmlns:xlink="http://www.w3.org/1999/xlink" x="0px" y="0px"
	 width="48px" height="48px" viewBox="0 0 48 48" enable-background="new 0 0 48 48" xml:space="preserve">
<g>
	<path d="M49.229,50.348h-46c-0.552,0-1-0.447-1-1v-46c0-0.552,0.448-1,1-1h46c0.553,0,1,0.448,1,1v46
		C50.229,49.9,49.781,50.348,49.229,50.348z M4.229,48.348h44v-44h-44V48.348z"/>
	<g>
		<rect x="12.932" y="3.348" width="2" height="46"/>
		<rect x="25.229" y="3.348" width="2" height="46"/>
		<rect x="37.527" y="3.348" width="2" height="46"/>
	</g>
	<path d="M19.387,28.695h-6.455V2.348h6.455V28.695z M14.932,26.695h2.455V4.348h-2.455V26.695z"/>
	<path d="M31.685,28.695h-6.456V2.348h6.456V28.695z M27.229,26.695h2.456V4.348h-2.456V26.695z"/>
	<path d="M43.982,28.695h-6.455V2.348h6.455V28.695z M39.527,26.695h2.455V4.348h-2.455V26.695z"/>
</g>
</svg>
