<?xml version="1.0" encoding="utf-8"?>
<!-- Generator: Adobe Illustrator 16.0.0, SVG Export Plug-In . SVG Version: 6.00 Build 0)  -->
<!DOCTYPE svg PUBLIC "-//W3C//DTD SVG 1.1//EN" "http://www.w3.org/Graphics/SVG/1.1/DTD/svg11.dtd">
<svg version="1.1" id="Layer_1" xmlns="http://www.w3.org/2000/svg" xmlns:xlink="http://www.w3.org/1999/xlink" x="0px" y="0px"
	 width="48px" height="48px" viewBox="0 0 48 48" enable-background="new 0 0 48 48" xml:space="preserve">
<g>
	<path d="M9.822,19.348c-1.562,0-2.833-1.271-2.833-2.833s1.271-2.833,2.833-2.833s2.833,1.271,2.833,2.833
		S11.384,19.348,9.822,19.348z M9.822,15.682c-0.459,0-0.833,0.374-0.833,0.833s0.374,0.833,0.833,0.833
		c0.459,0,0.833-0.374,0.833-0.833S10.281,15.682,9.822,15.682z"/>
	<path d="M38.561,43.977h-6.213c-0.553,0-1-0.447-1-1v-7.623c-3.424,1-7.2,1.285-10.923,0.782l-0.221,6.873
		c-0.018,0.539-0.46,0.968-1,0.968h-6.438c-0.537,0-0.978-0.424-0.999-0.96l-0.396-9.978c-0.684-0.413-1.334-0.86-1.938-1.334
		c-0.339-0.235-0.777-0.52-1.275-0.842c-2.205-1.428-5.537-3.586-7.038-5.894c-1.958-3.008-0.761-6.858-0.709-7.021
		c0.14-0.437,0.553-0.729,1.018-0.693c0.001,0,0.002,0,0.003,0c1.51,0,2.733-2.262,2.992-3.474c0.292-1.349,1.712-2.797,2.44-3.466
		c-0.089-1.172-0.637-3.609-1.007-5.04C5.761,4.907,5.883,4.516,6.171,4.268s0.695-0.312,1.043-0.164
		c2.336,0.99,4.421,3.073,5.89,4.855c3.251-1.571,7.006-2.398,10.916-2.398c7.631,0,14.663,3.269,18.002,8.349l5.48,3.188
		c0.249,0.145,0.424,0.391,0.479,0.673c0.056,0.283-0.015,0.576-0.191,0.804c-0.188,0.241-0.791,0.802-2.351,0.802l0,0
		c-0.438,0-0.924-0.044-1.453-0.133c0.046,0.408,0.068,0.816,0.068,1.224c0,3.441-1.592,6.771-4.494,9.42v12.088
		C39.561,43.529,39.113,43.977,38.561,43.977z M33.348,41.977h4.213V30.439c0-0.29,0.126-0.566,0.346-0.757
		c2.676-2.312,4.148-5.229,4.148-8.214c0-0.762-0.098-1.53-0.289-2.283c-0.088-0.346,0.015-0.712,0.269-0.961
		c0.255-0.249,0.626-0.343,0.967-0.25c0.192,0.053,0.38,0.102,0.561,0.144l-2.752-1.601c-0.139-0.081-0.257-0.194-0.343-0.331
		c-2.925-4.633-9.381-7.626-16.447-7.626c-3.885,0-7.591,0.878-10.719,2.541c-0.429,0.229-0.96,0.115-1.259-0.269
		C11.258,9.824,9.908,8.245,8.335,7.07c0.29,1.342,0.578,2.92,0.534,3.741c-0.015,0.275-0.142,0.532-0.352,0.71
		c-0.793,0.674-1.982,1.951-2.14,2.681c-0.325,1.52-1.754,4.539-4.215,4.998c-0.198,1.026-0.406,3.084,0.632,4.68
		c1.27,1.951,4.386,3.969,6.449,5.305c0.526,0.341,0.988,0.641,1.344,0.889c0.02,0.013,0.038,0.027,0.057,0.041
		c0.672,0.529,1.411,1.023,2.196,1.468c0.301,0.171,0.492,0.484,0.506,0.83l0.38,9.564h4.509l0.227-7.036
		c0.009-0.29,0.145-0.563,0.37-0.745c0.226-0.183,0.52-0.26,0.806-0.207c1.444,0.259,2.918,0.39,4.381,0.39
		c2.805,0,5.495-0.451,7.993-1.342c0.306-0.107,0.646-0.062,0.912,0.125c0.266,0.188,0.424,0.492,0.424,0.817V41.977z"/>
</g>
</svg>
