<?xml version="1.0" encoding="utf-8"?>
<!-- Generator: Adobe Illustrator 16.0.0, SVG Export Plug-In . SVG Version: 6.00 Build 0)  -->
<!DOCTYPE svg PUBLIC "-//W3C//DTD SVG 1.1//EN" "http://www.w3.org/Graphics/SVG/1.1/DTD/svg11.dtd">
<svg version="1.1" id="Layer_1" xmlns="http://www.w3.org/2000/svg" xmlns:xlink="http://www.w3.org/1999/xlink" x="0px" y="0px"
	 width="48px" height="48px" viewBox="0 0 48 48" enable-background="new 0 0 48 48" xml:space="preserve">
<g>
	<path d="M1,38.451c-0.175,0-0.351-0.046-0.507-0.138C0.188,38.134,0,37.806,0,37.451V10.549c0-0.354,0.187-0.681,0.491-0.86
		c0.304-0.18,0.68-0.186,0.99-0.016l17.69,9.708l-0.962,1.753L2,12.238v23.514l16.205-9.001l0.971,1.748l-17.69,9.826
		C1.334,38.409,1.167,38.451,1,38.451z"/>
	<path d="M47,38.451c-0.167,0-0.335-0.042-0.485-0.126l-17.689-9.826l0.971-1.748L46,35.752V12.238l-16.208,8.895l-0.963-1.753
		l17.689-9.708c0.312-0.17,0.688-0.163,0.991,0.016c0.304,0.18,0.49,0.507,0.49,0.86v26.902c0,0.354-0.188,0.683-0.493,0.862
		C47.351,38.405,47.176,38.451,47,38.451z"/>
	<path d="M23.987,32.134c-3.913,0-7.096-3.649-7.096-8.135s3.183-8.135,7.096-8.135s7.096,3.649,7.096,8.135
		S27.899,32.134,23.987,32.134z M23.987,17.864c-2.81,0-5.096,2.752-5.096,6.135s2.286,6.135,5.096,6.135
		c2.81,0,5.096-2.752,5.096-6.135S26.797,17.864,23.987,17.864z"/>
</g>
</svg>
