<?xml version="1.0" encoding="utf-8"?>
<!-- Generator: Adobe Illustrator 16.0.0, SVG Export Plug-In . SVG Version: 6.00 Build 0)  -->
<!DOCTYPE svg PUBLIC "-//W3C//DTD SVG 1.1//EN" "http://www.w3.org/Graphics/SVG/1.1/DTD/svg11.dtd">
<svg version="1.1" id="Layer_1" xmlns="http://www.w3.org/2000/svg" xmlns:xlink="http://www.w3.org/1999/xlink" x="0px" y="0px"
	 width="48px" height="48px" viewBox="0 0 48 48" enable-background="new 0 0 48 48" xml:space="preserve">
<g>
	<path d="M26.059,12.382h-4.042c-0.282,0-0.55-0.119-0.739-0.327l-5.411-5.944c-0.332-0.364-0.349-0.915-0.041-1.299
		C18.385,1.619,21.134,0,23.997,0c4.855,0,8.089,4.676,8.225,4.875c0.259,0.38,0.225,0.888-0.083,1.23l-5.336,5.944
		C26.613,12.261,26.343,12.382,26.059,12.382z M22.459,10.382h3.153l4.479-4.989C29.143,4.273,26.865,2,23.997,2
		c-2.038,0-4.075,1.146-6.063,3.41L22.459,10.382z"/>
	<path d="M24,48c-0.237,0-0.474-0.084-0.663-0.252l-10.752-9.529c-0.301-0.266-0.413-0.687-0.285-1.066l8.769-26.088
		c0.137-0.407,0.518-0.681,0.948-0.681h3.965c0.43,0,0.812,0.274,0.948,0.682l8.769,26.088c0.128,0.38,0.016,0.801-0.285,1.066
		l-10.751,9.529C24.474,47.916,24.237,48,24,48z M14.407,37.161L24,45.664l9.592-8.503l-8.328-24.778h-2.528L14.407,37.161z"/>
</g>
</svg>
