<?xml version="1.0" encoding="utf-8"?>
<!-- Generator: Adobe Illustrator 16.0.0, SVG Export Plug-In . SVG Version: 6.00 Build 0)  -->
<!DOCTYPE svg PUBLIC "-//W3C//DTD SVG 1.1//EN" "http://www.w3.org/Graphics/SVG/1.1/DTD/svg11.dtd">
<svg version="1.1" id="Layer_1" xmlns="http://www.w3.org/2000/svg" xmlns:xlink="http://www.w3.org/1999/xlink" x="0px" y="0px"
	 width="48px" height="48px" viewBox="0 0 48 48" enable-background="new 0 0 48 48" xml:space="preserve">
<g>
	<path d="M24,14.487c-3.994,0-7.243-3.249-7.243-7.243S20.006,0.001,24,0.001c3.994,0,7.243,3.25,7.243,7.243
		S27.994,14.487,24,14.487z M24,2.001c-2.891,0-5.243,2.352-5.243,5.243c0,2.891,2.352,5.243,5.243,5.243
		c2.891,0,5.243-2.352,5.243-5.243C29.243,4.353,26.891,2.001,24,2.001z"/>
	<path d="M24.247,29.566h-0.494c-1.835,0-3.329-1.493-3.329-3.328V13.039h2v13.199c0,0.732,0.596,1.328,1.329,1.328h0.494
		c0.731,0,1.327-0.596,1.327-1.328V13.039h2v13.199C27.574,28.073,26.082,29.566,24.247,29.566z"/>
	<path d="M43.121,48H4.879C2.188,48,0,45.47,0,42.359c0-3.109,2.188-5.639,4.879-5.639h38.242C45.812,36.724,48,39.253,48,42.359
		C48,45.47,45.812,48,43.121,48z M4.879,38.721C3.318,38.721,2,40.387,2,42.359C2,44.333,3.318,46,4.879,46h38.242
		C44.682,46,46,44.333,46,42.359c0-1.971-1.318-3.638-2.88-3.639H4.879z"/>
	<g>
		<path d="M5.806,37.771l-1.998-0.096c0.16-3.391,2.039-9.804,8.008-9.804h7.356c0.481,0,0.895,0.343,0.983,0.816
			c0.053,0.257,0.626,2.585,3.845,2.585v2c-3.313,0-4.952-1.918-5.563-3.401h-6.621C6.263,29.872,5.822,37.448,5.806,37.771z"/>
		<path d="M42.194,37.771c-0.016-0.323-0.458-7.899-6.011-7.899h-6.62c-0.611,1.483-2.25,3.401-5.563,3.401v-2
			c3.324,0,3.825-2.479,3.845-2.585c0.089-0.474,0.502-0.816,0.983-0.816h7.355c5.969,0,7.849,6.413,8.009,9.804L42.194,37.771z"/>
	</g>
</g>
</svg>
