<?xml version="1.0" encoding="utf-8"?>
<!-- Generator: Adobe Illustrator 16.0.0, SVG Export Plug-In . SVG Version: 6.00 Build 0)  -->
<!DOCTYPE svg PUBLIC "-//W3C//DTD SVG 1.1//EN" "http://www.w3.org/Graphics/SVG/1.1/DTD/svg11.dtd">
<svg version="1.1" id="Layer_1" xmlns="http://www.w3.org/2000/svg" xmlns:xlink="http://www.w3.org/1999/xlink" x="0px" y="0px"
	 width="48px" height="48px" viewBox="0 0 48 48" enable-background="new 0 0 48 48" xml:space="preserve">
<g>
	<path d="M13.183,31.753c-0.249,0-0.496-0.093-0.686-0.271L0.315,20.021c-0.234-0.22-0.348-0.539-0.307-0.858
		c0.042-0.318,0.233-0.597,0.516-0.75L34.341,0.121c0.378-0.205,0.846-0.145,1.161,0.151l12.184,11.461
		c0.233,0.22,0.348,0.539,0.306,0.857c-0.041,0.319-0.233,0.598-0.516,0.75L13.658,31.633
		C13.508,31.714,13.345,31.753,13.183,31.753z M2.694,19.513L13.341,29.53l31.964-17.29L34.657,2.223L2.694,19.513z"/>
	<path d="M13.183,39.846c-0.249,0-0.496-0.093-0.686-0.271L0.315,28.112c-0.234-0.221-0.348-0.539-0.307-0.857
		c0.042-0.319,0.233-0.598,0.516-0.751l5.462-2.953l0.951,1.759l-4.243,2.294l10.647,10.018l31.965-17.293l-4.45-4.187l1.371-1.457
		l5.458,5.136c0.233,0.22,0.348,0.539,0.306,0.858c-0.041,0.318-0.233,0.597-0.516,0.75L13.658,39.726
		C13.508,39.807,13.345,39.846,13.183,39.846z"/>
	<path d="M13.183,48c-0.249,0-0.496-0.093-0.686-0.271L0.315,36.268c-0.234-0.221-0.348-0.539-0.307-0.857s0.233-0.598,0.516-0.751
		l5.462-2.953l0.951,1.76L2.694,35.76l10.647,10.018l31.965-17.291l-4.45-4.188l1.371-1.456l5.458,5.136
		c0.233,0.221,0.348,0.539,0.306,0.857c-0.041,0.318-0.233,0.598-0.516,0.751L13.658,47.88C13.508,47.961,13.345,48,13.183,48z"/>
</g>
</svg>
