<?xml version="1.0" encoding="utf-8"?>
<!-- Generator: Adobe Illustrator 16.0.0, SVG Export Plug-In . SVG Version: 6.00 Build 0)  -->
<!DOCTYPE svg PUBLIC "-//W3C//DTD SVG 1.1//EN" "http://www.w3.org/Graphics/SVG/1.1/DTD/svg11.dtd">
<svg version="1.1" id="Layer_1" xmlns="http://www.w3.org/2000/svg" xmlns:xlink="http://www.w3.org/1999/xlink" x="0px" y="0px"
	 width="48px" height="48px" viewBox="0 0 48 48" enable-background="new 0 0 48 48" xml:space="preserve">
<g>
	<g>
		<path d="M23.998,5.281c0.266,0,0.441,0.074,0.497,0.113l17.138,11.948L6.365,17.338L23.501,5.394
			C23.557,5.355,23.732,5.281,23.998,5.281 M23.998,3.281c-0.595,0-1.189,0.157-1.64,0.472L1.641,18.194
			C0.738,18.823,0.9,19.337,2,19.338l44,0.005c0,0,0.001,0,0.002,0c1.098,0,1.26-0.515,0.357-1.144L25.639,3.753
			C25.188,3.438,24.592,3.281,23.998,3.281L23.998,3.281z"/>
	</g>
	<g>
		<path d="M10.332,46.391c-0.552,0-1-0.447-1-1V18.766c0-0.552,0.448-1,1-1s1,0.448,1,1v26.625
			C11.332,45.943,10.884,46.391,10.332,46.391z"/>
		<path d="M23.998,46.391c-0.552,0-1-0.447-1-1V18.766c0-0.552,0.448-1,1-1c0.553,0,1,0.448,1,1v26.625
			C24.998,45.943,24.551,46.391,23.998,46.391z"/>
		<path d="M37.664,46.391c-0.553,0-1-0.447-1-1V18.766c0-0.552,0.447-1,1-1s1,0.448,1,1v26.625
			C38.664,45.943,38.217,46.391,37.664,46.391z"/>
	</g>
	<path d="M44.123,46.391H3.874c-0.552,0-1-0.447-1-1s0.448-1,1-1h40.249c0.553,0,1,0.447,1,1S44.676,46.391,44.123,46.391z"/>
</g>
</svg>
