<?xml version="1.0" encoding="utf-8"?>
<!-- Generator: Adobe Illustrator 16.0.0, SVG Export Plug-In . SVG Version: 6.00 Build 0)  -->
<!DOCTYPE svg PUBLIC "-//W3C//DTD SVG 1.1//EN" "http://www.w3.org/Graphics/SVG/1.1/DTD/svg11.dtd">
<svg version="1.1" id="Layer_1" xmlns="http://www.w3.org/2000/svg" xmlns:xlink="http://www.w3.org/1999/xlink" x="0px" y="0px"
	 width="48px" height="48px" viewBox="0 0 48 48" enable-background="new 0 0 48 48" xml:space="preserve">
<g>
	<g>
		<path d="M46,12.421V45.9H2V12.421H46 M46,10.421H2c-1.1,0-2,0.9-2,2V45.9c0,1.1,0.9,2,2,2h44c1.1,0,2-0.9,2-2V12.421
			C48,11.321,47.1,10.421,46,10.421L46,10.421z"/>
	</g>
	<path d="M36.256,12.038h-2c0-5.513-4.601-9.998-10.256-9.998c-5.653,0-10.253,4.485-10.253,9.998h-2
		C11.747,5.422,17.244,0.04,24,0.04C30.758,0.04,36.256,5.422,36.256,12.038z"/>
	<g>
		<path d="M37.329,24.904H10.67c-0.552,0-1-0.447-1-1s0.448-1,1-1h26.659c0.553,0,1,0.448,1,1S37.882,24.904,37.329,24.904z"/>
		<path d="M37.329,35.418H10.67c-0.552,0-1-0.447-1-1s0.448-1,1-1h26.659c0.553,0,1,0.447,1,1S37.882,35.418,37.329,35.418z"/>
	</g>
</g>
</svg>
