<?xml version="1.0" encoding="utf-8"?>
<!-- Generator: Adobe Illustrator 16.0.0, SVG Export Plug-In . SVG Version: 6.00 Build 0)  -->
<!DOCTYPE svg PUBLIC "-//W3C//DTD SVG 1.1//EN" "http://www.w3.org/Graphics/SVG/1.1/DTD/svg11.dtd">
<svg version="1.1" id="Layer_1" xmlns="http://www.w3.org/2000/svg" xmlns:xlink="http://www.w3.org/1999/xlink" x="0px" y="0px"
	 width="48px" height="48px" viewBox="0 0 48 48" enable-background="new 0 0 48 48" xml:space="preserve">
<g>
	<g>
		<path d="M36.357,47.801H11.643c-3.367,0-6.11-2.919-6.145-6.521L2.607,19.708l1.982-0.266L7.498,41.21
			c0,2.531,1.859,4.591,4.145,4.591h24.714c2.285,0,4.145-2.06,4.145-4.591l0.009-0.133l2.9-21.635l1.982,0.266l-2.892,21.571
			C42.467,44.882,39.724,47.801,36.357,47.801z"/>
		<g>
			<path d="M46,10.56v8.82H2v-8.82H46 M46,8.56H2c-1.1,0-2,0.9-2,2v8.82c0,1.1,0.9,2,2,2h44c1.1,0,2-0.9,2-2v-8.82
				C48,9.459,47.1,8.56,46,8.56L46,8.56z"/>
		</g>
		<g>
			<path d="M12.49,10.656c-0.305,0-0.606-0.139-0.802-0.402L5.375,1.797c-0.331-0.442-0.24-1.069,0.203-1.399
				c0.442-0.33,1.07-0.238,1.399,0.203l6.313,8.457c0.331,0.442,0.24,1.069-0.203,1.399C12.908,10.592,12.698,10.656,12.49,10.656z"
				/>
			<path d="M35.509,10.656c-0.208,0-0.418-0.064-0.598-0.199c-0.442-0.331-0.533-0.957-0.203-1.399l6.313-8.457
				c0.33-0.442,0.957-0.534,1.4-0.203c0.442,0.331,0.533,0.957,0.203,1.399l-6.313,8.457C36.114,10.518,35.813,10.656,35.509,10.656
				z"/>
		</g>
	</g>
	<g>
		<circle cx="18.241" cy="32.52" r="2.094"/>
		<circle cx="29.76" cy="32.52" r="2.096"/>
	</g>
</g>
</svg>
