<?xml version="1.0" encoding="utf-8"?>
<!-- Generator: Adobe Illustrator 16.0.0, SVG Export Plug-In . SVG Version: 6.00 Build 0)  -->
<!DOCTYPE svg PUBLIC "-//W3C//DTD SVG 1.1//EN" "http://www.w3.org/Graphics/SVG/1.1/DTD/svg11.dtd">
<svg version="1.1" id="Layer_1" xmlns="http://www.w3.org/2000/svg" xmlns:xlink="http://www.w3.org/1999/xlink" x="0px" y="0px"
	 width="48px" height="48px" viewBox="0 0 48 48" enable-background="new 0 0 48 48" xml:space="preserve">
<g>
	<path d="M34.771,48.001H13.229c-4.194,0-7.606-3.218-7.606-7.172V7.308h2v33.521c0,2.852,2.515,5.172,5.606,5.172h21.542
		c3.091,0,5.605-2.32,5.605-5.172V7.308h2v33.521C42.377,44.783,38.965,48.001,34.771,48.001z"/>
	<path d="M46.904,8.308H1.095c-0.552,0-1-0.448-1-1s0.448-1,1-1h45.809c0.553,0,1,0.448,1,1S47.457,8.308,46.904,8.308z"/>
	<g>
		<path d="M18.457,41.1c-0.552,0-1-0.447-1-1V14.211c0-0.552,0.448-1,1-1s1,0.448,1,1V40.1C19.457,40.652,19.009,41.1,18.457,41.1z"
			/>
		<path d="M29.543,41.1c-0.553,0-1-0.447-1-1V14.211c0-0.552,0.447-1,1-1s1,0.448,1,1V40.1C30.543,40.652,30.096,41.1,29.543,41.1z"
			/>
	</g>
	<path d="M32.412,2H15.588c-0.552,0-1-0.448-1-1s0.448-1,1-1h16.824c0.553,0,1,0.448,1,1S32.965,2,32.412,2z"/>
</g>
</svg>
