<?xml version="1.0" encoding="utf-8"?>
<!-- Generator: Adobe Illustrator 16.0.0, SVG Export Plug-In . SVG Version: 6.00 Build 0)  -->
<!DOCTYPE svg PUBLIC "-//W3C//DTD SVG 1.1//EN" "http://www.w3.org/Graphics/SVG/1.1/DTD/svg11.dtd">
<svg version="1.1" id="Layer_1" xmlns="http://www.w3.org/2000/svg" xmlns:xlink="http://www.w3.org/1999/xlink" x="0px" y="0px"
	 width="48px" height="48px" viewBox="0 0 48 48" enable-background="new 0 0 48 48" xml:space="preserve">
<g>
	<g>
		<path d="M46,2v44H2V2H46 M46,0H2C0.9,0,0,0.9,0,2v44c0,1.1,0.9,2,2,2h44c1.1,0,2-0.9,2-2V2C48,0.9,47.1,0,46,0L46,0z"/>
	</g>
	<g>
		<path d="M35.775,2v14.677H12.218V2H35.775 M36.775,0H11.218c-0.55,0-1,0.45-1,1v16.677c0,0.55,0.45,1,1,1h25.56c0.55,0,1-0.45,1-1
			V1C37.775,0.45,37.326,0,36.775,0L36.775,0z"/>
	</g>
	<g>
		<path d="M24.001,39.221c-4.917,0-8.917-3.997-8.917-8.91c0-4.915,4-8.915,8.917-8.915c4.912,0,8.909,4,8.909,8.915
			C32.91,35.224,28.913,39.221,24.001,39.221z M24.001,23.396c-3.814,0-6.917,3.102-6.917,6.915c0,3.811,3.103,6.91,6.917,6.91
			c3.81,0,6.909-3.1,6.909-6.91C30.91,26.498,27.811,23.396,24.001,23.396z"/>
		<path d="M36.387,41.68c-0.233,0-0.467-0.081-0.656-0.246l-5.65-4.919c-0.417-0.362-0.461-0.994-0.098-1.41
			c0.363-0.418,0.995-0.458,1.41-0.098l5.65,4.919c0.417,0.362,0.461,0.994,0.098,1.41C36.943,41.563,36.665,41.68,36.387,41.68z"/>
	</g>
</g>
</svg>
