<?xml version="1.0" encoding="utf-8"?>
<!-- Generator: Adobe Illustrator 16.0.0, SVG Export Plug-In . SVG Version: 6.00 Build 0)  -->
<!DOCTYPE svg PUBLIC "-//W3C//DTD SVG 1.1//EN" "http://www.w3.org/Graphics/SVG/1.1/DTD/svg11.dtd">
<svg version="1.1" id="Layer_1" xmlns="http://www.w3.org/2000/svg" xmlns:xlink="http://www.w3.org/1999/xlink" x="0px" y="0px"
	 width="48px" height="48px" viewBox="0 0 48 48" enable-background="new 0 0 48 48" xml:space="preserve">
<g>
	<rect x="19.646" y="38.247" width="9.237" height="2"/>
	<path d="M41.249,40.247h-2.062v-2h2.062c2.62,0,4.751-2.129,4.751-4.746v-9.617H25.498c-0.553,0-1-0.448-1-1V5.066H6.751
		C4.131,5.066,2,7.198,2,9.818v23.683c0,2.617,2.131,4.746,4.751,4.746h2.91v2h-2.91C3.028,40.247,0,37.221,0,33.501V9.818
		c0-3.723,3.028-6.752,6.751-6.752h18.747c0.553,0,1,0.448,1,1v17.818H47c0.553,0,1,0.448,1,1v10.617
		C48,37.221,44.972,40.247,41.249,40.247z"/>
	<path d="M46.087,23.467L34.984,7.725h-10.5v-2h11.019c0.325,0,0.63,0.158,0.817,0.424l11.401,16.166L46.087,23.467z"/>
	<path d="M14.234,44.932c-3.555,0-6.447-2.893-6.447-6.447s2.892-6.446,6.447-6.446c3.555,0,6.447,2.892,6.447,6.446
		S17.789,44.932,14.234,44.932z M14.234,34.038c-2.452,0-4.447,1.994-4.447,4.446s1.995,4.447,4.447,4.447s4.447-1.995,4.447-4.447
		S16.686,34.038,14.234,34.038z"/>
	<path d="M34.323,44.932c-3.555,0-6.447-2.893-6.447-6.447s2.893-6.446,6.447-6.446s6.446,2.892,6.446,6.446
		S37.878,44.932,34.323,44.932z M34.323,34.038c-2.452,0-4.447,1.994-4.447,4.446s1.995,4.447,4.447,4.447s4.446-1.995,4.446-4.447
		S36.775,34.038,34.323,34.038z"/>
</g>
</svg>
