<?xml version="1.0" encoding="utf-8"?>
<!-- Generator: Adobe Illustrator 16.0.0, SVG Export Plug-In . SVG Version: 6.00 Build 0)  -->
<!DOCTYPE svg PUBLIC "-//W3C//DTD SVG 1.1//EN" "http://www.w3.org/Graphics/SVG/1.1/DTD/svg11.dtd">
<svg version="1.1" id="Layer_1" xmlns="http://www.w3.org/2000/svg" xmlns:xlink="http://www.w3.org/1999/xlink" x="0px" y="0px"
	 width="48px" height="48px" viewBox="0 0 48 48" enable-background="new 0 0 48 48" xml:space="preserve">
<g>
	<g>
		<path d="M23.998,47.999C10.766,47.999,0,37.233,0,24.001c0-13.234,10.766-24,23.998-24c7.187,0,13.936,3.183,18.517,8.732
			c0.352,0.426,0.291,1.057-0.135,1.408c-0.428,0.351-1.057,0.29-1.408-0.135c-4.199-5.088-10.386-8.006-16.974-8.006
			C11.868,2.001,2,11.87,2,24.001c0,12.13,9.868,21.998,21.998,21.998C36.13,45.999,46,36.131,46,24.001c0-0.552,0.447-1,1-1
			s1,0.448,1,1C48,37.233,37.232,47.999,23.998,47.999z"/>
		<path d="M43.238,12.216c-0.053,0-0.105-0.004-0.158-0.013l-7.217-1.156c-0.545-0.087-0.917-0.6-0.829-1.146
			s0.599-0.917,1.146-0.829l6.132,0.982l0.391-6.003c0.036-0.551,0.514-0.976,1.063-0.933c0.552,0.036,0.97,0.512,0.934,1.063
			l-0.462,7.1c-0.019,0.281-0.154,0.541-0.374,0.717C43.684,12.14,43.463,12.216,43.238,12.216z"/>
	</g>
	<g>
		<path d="M11.271,31.943v-1.352l1.725-1.677c4.157-3.957,6.037-6.061,6.059-8.516c0-1.65-0.801-3.18-3.229-3.18
			c-1.479,0-2.703,0.752-3.457,1.377l-0.699-1.554c1.129-0.95,2.731-1.652,4.607-1.652c3.504,0,4.985,2.404,4.985,4.732
			c0,3.005-2.18,5.437-5.61,8.739l-1.305,1.203v0.052h7.313v1.825H11.271V31.943z"/>
		<path d="M30.926,31.943v-4.43h-7.561v-1.453l7.257-10.395h2.382v10.119h2.275v1.729h-2.275v4.43H30.926z M30.926,25.786v-5.434
			c0-0.853,0.021-1.703,0.073-2.555h-0.073c-0.505,0.954-0.902,1.652-1.352,2.402l-3.983,5.535v0.052H30.926z"/>
	</g>
</g>
</svg>
