<?xml version="1.0" encoding="utf-8"?>
<!-- Generator: Adobe Illustrator 16.0.0, SVG Export Plug-In . SVG Version: 6.00 Build 0)  -->
<!DOCTYPE svg PUBLIC "-//W3C//DTD SVG 1.1//EN" "http://www.w3.org/Graphics/SVG/1.1/DTD/svg11.dtd">
<svg version="1.1" id="Layer_1" xmlns="http://www.w3.org/2000/svg" xmlns:xlink="http://www.w3.org/1999/xlink" x="0px" y="0px"
	 width="48px" height="48px" viewBox="0 0 48 48" enable-background="new 0 0 48 48" xml:space="preserve">
<g>
	<path d="M35.01,48H12.987c-2.186,0-3.965-1.775-3.965-3.957V20.791c0-0.941-0.644-1.404-1.537-1.125l-0.797,0.243
		c-0.383,0.118-0.786,0.178-1.194,0.178c-1.734,0-3.325-1.059-3.959-2.636l-1.106-2.783c-0.766-1.909-0.135-4.458,1.436-5.799
		l9.46-8.033C11.968,0.29,12.704,0,13.453,0c1.223,0,2.296,0.791,2.8,2.063c0.001,0.001,1.278,2.612,7.758,2.691
		c6.454-0.079,7.731-2.69,7.744-2.716C32.249,0.791,33.322,0,34.545,0c0.749,0,1.485,0.289,2.13,0.836l9.459,8.031
		c1.573,1.344,2.204,3.892,1.437,5.804l-1.109,2.778c-0.634,1.578-2.225,2.637-3.958,2.637c0,0,0.001,0,0,0
		c-0.408,0-0.811-0.06-1.196-0.178l-0.787-0.241c-0.911-0.279-1.543,0.182-1.543,1.124v23.252C38.977,46.225,37.197,48,35.01,48z
		 M7.988,17.584c1.758,0,3.034,1.349,3.034,3.207v23.252c0,1.079,0.881,1.957,1.965,1.957H35.01c1.085,0,1.967-0.878,1.967-1.957
		V20.791c0-1.858,1.276-3.207,3.034-3.207c0.36,0,0.729,0.058,1.098,0.172l0.784,0.24c1.054,0.323,2.31-0.291,2.712-1.291
		l1.109-2.777c0.444-1.107,0.034-2.759-0.877-3.538L35.38,2.361c-0.688-0.584-1.439-0.414-1.776,0.439
		c-0.158,0.396-1.766,3.859-9.592,3.954c-7.854-0.095-9.459-3.558-9.617-3.952c-0.339-0.856-1.088-1.027-1.774-0.442l-9.458,8.031
		c-0.909,0.776-1.319,2.429-0.875,3.535l1.106,2.782c0.4,0.996,1.666,1.61,2.71,1.288l0.795-0.242
		C7.26,17.642,7.629,17.584,7.988,17.584z"/>
</g>
</svg>
