<?xml version="1.0" encoding="utf-8"?>
<!-- Generator: Adobe Illustrator 16.0.0, SVG Export Plug-In . SVG Version: 6.00 Build 0)  -->
<!DOCTYPE svg PUBLIC "-//W3C//DTD SVG 1.1//EN" "http://www.w3.org/Graphics/SVG/1.1/DTD/svg11.dtd">
<svg version="1.1" id="Layer_1" xmlns="http://www.w3.org/2000/svg" xmlns:xlink="http://www.w3.org/1999/xlink" x="0px" y="0px"
	 width="48px" height="48px" viewBox="0 0 48 48" enable-background="new 0 0 48 48" xml:space="preserve">
<g>
	<g>
		<path d="M10.701,42.072C10.701,42.072,10.701,42.072,10.701,42.072C4.8,42.07,0,37.687,0,32.301c0-5.385,4.8-9.766,10.701-9.766
			c5.903,0,10.705,4.381,10.705,9.766C21.406,37.688,16.604,42.072,10.701,42.072z M10.701,24.535C5.903,24.535,2,28.019,2,32.301
			c0,4.283,3.903,7.77,8.702,7.771c4.799,0,8.705-3.486,8.705-7.771C19.406,28.019,15.501,24.535,10.701,24.535z"/>
		<path d="M37.297,42.072c-5.901,0-10.703-4.384-10.703-9.771s4.802-9.771,10.703-9.771S48,26.913,48,32.301
			S43.198,42.072,37.297,42.072z M37.297,24.529c-4.799,0-8.703,3.486-8.703,7.771s3.904,7.771,8.703,7.771S46,36.586,46,32.301
			S42.096,24.529,37.297,24.529z"/>
	</g>
	<path d="M28.396,28.379c-0.256,0-0.512-0.098-0.707-0.293c-3.64-3.637-7.226-0.148-7.378,0.002
		c-0.392,0.39-1.024,0.387-1.414-0.003c-0.39-0.392-0.389-1.025,0.003-1.415c1.767-1.759,6.174-4.023,10.203,0.002
		c0.391,0.39,0.391,1.023,0,1.414C28.908,28.281,28.652,28.379,28.396,28.379z"/>
	<g>
		<path d="M1.94,29.377c-0.123,0-0.249-0.022-0.37-0.071c-0.513-0.204-0.763-0.786-0.559-1.299L8.805,8.459
			C8.83,8.396,8.861,8.337,8.897,8.281c0.057-0.087,1.426-2.138,3.736-2.337c1.582-0.14,3.136,0.604,4.63,2.202
			c0.377,0.403,0.356,1.036-0.047,1.414c-0.404,0.375-1.036,0.356-1.414-0.047c-1.048-1.122-2.051-1.652-2.985-1.576
			c-1.158,0.093-1.991,1.099-2.199,1.375L2.87,28.747C2.714,29.139,2.338,29.377,1.94,29.377z"/>
		<path d="M46.059,29.377c-0.397,0-0.772-0.238-0.929-0.63L37.381,9.311c-0.203-0.271-1.037-1.282-2.199-1.375
			c-0.923-0.067-1.937,0.455-2.985,1.577c-0.379,0.403-1.012,0.423-1.413,0.047c-0.403-0.377-0.425-1.01-0.048-1.414
			c1.492-1.597,3.052-2.34,4.63-2.202c2.311,0.199,3.68,2.25,3.737,2.337c0.036,0.056,0.067,0.115,0.092,0.178l7.793,19.548
			c0.205,0.513-0.045,1.095-0.559,1.299C46.308,29.354,46.182,29.377,46.059,29.377z"/>
	</g>
</g>
</svg>
