<?xml version="1.0" encoding="utf-8"?>
<!-- Generator: Adobe Illustrator 16.0.0, SVG Export Plug-In . SVG Version: 6.00 Build 0)  -->
<!DOCTYPE svg PUBLIC "-//W3C//DTD SVG 1.1//EN" "http://www.w3.org/Graphics/SVG/1.1/DTD/svg11.dtd">
<svg version="1.1" id="Layer_1" xmlns="http://www.w3.org/2000/svg" xmlns:xlink="http://www.w3.org/1999/xlink" x="0px" y="0px"
	 width="48px" height="48px" viewBox="0 0 48 48" enable-background="new 0 0 48 48" xml:space="preserve">
<g>
	<path d="M26.462,48h-4.927c-0.446,0-0.839-0.296-0.961-0.726c-1.597-5.59-6.51-6.425-9.296-6.425c-0.637,0-1.038,0.05-1.042,0.051
		c-0.544,0.064-1.04-0.311-1.117-0.851c-1.142-7.999,2.41-11.545,2.562-11.692c0.187-0.181,0.436-0.281,0.696-0.281h23.248
		c0.26,0,0.509,0.101,0.695,0.281c0.152,0.147,3.706,3.693,2.56,11.692c-0.077,0.542-0.577,0.924-1.119,0.85
		c-0.002,0-0.402-0.05-1.038-0.05c-2.787,0-7.702,0.835-9.298,6.425C27.301,47.704,26.908,48,26.462,48z M22.267,46h3.464
		c2.251-6.436,8.388-7.15,10.991-7.15c0.101,0,0.197,0.002,0.289,0.004c0.521-5.198-1.181-7.932-1.842-8.777H12.83
		c-0.655,0.839-2.362,3.573-1.843,8.776C13.426,38.798,19.927,39.313,22.267,46z"/>
	<g>
		<path d="M15.616,22.883c-4.218,0-7.649-2.813-7.649-6.27c0-3.46,3.432-6.275,7.649-6.275c4.216,0,7.646,2.815,7.646,6.275
			C23.262,20.07,19.832,22.883,15.616,22.883z M15.616,12.338c-3.115,0-5.649,1.917-5.649,4.275c0,2.354,2.534,4.27,5.649,4.27
			c3.113,0,5.646-1.916,5.646-4.27C21.262,14.255,18.729,12.338,15.616,12.338z"/>
		<path d="M32.389,22.883c-4.219,0-7.65-2.813-7.65-6.27c0-3.46,3.432-6.275,7.65-6.275c4.216,0,7.646,2.815,7.646,6.275
			C40.034,20.07,36.604,22.883,32.389,22.883z M32.389,12.338c-3.115,0-5.65,1.917-5.65,4.275c0,2.354,2.535,4.27,5.65,4.27
			c3.113,0,5.646-1.916,5.646-4.27C38.034,14.255,35.502,12.338,32.389,12.338z"/>
	</g>
	<path d="M32.311,22.883H15.687c-0.552,0-1-0.448-1-1s0.448-1,1-1h16.624c0.553,0,1,0.448,1,1S32.863,22.883,32.311,22.883z"/>
	<g>
		<path d="M15.613,11.592c-0.552,0-1-0.448-1-1V1c0-0.552,0.448-1,1-1s1,0.448,1,1v9.592C16.613,11.144,16.165,11.592,15.613,11.592
			z"/>
		<path d="M32.389,11.592c-0.553,0-1-0.448-1-1V1c0-0.552,0.447-1,1-1s1,0.448,1,1v9.592C33.389,11.144,32.941,11.592,32.389,11.592
			z"/>
	</g>
</g>
</svg>
