<?xml version="1.0" encoding="utf-8"?>
<!-- Generator: Adobe Illustrator 16.0.0, SVG Export Plug-In . SVG Version: 6.00 Build 0)  -->
<!DOCTYPE svg PUBLIC "-//W3C//DTD SVG 1.1//EN" "http://www.w3.org/Graphics/SVG/1.1/DTD/svg11.dtd">
<svg version="1.1" id="Layer_1" xmlns="http://www.w3.org/2000/svg" xmlns:xlink="http://www.w3.org/1999/xlink" x="0px" y="0px"
	 width="48px" height="48px" viewBox="0 0 48 48" enable-background="new 0 0 48 48" xml:space="preserve">
<g>
	<path d="M33.781,47.364H14.218c-0.552,0-1-0.447-1-1v-27.18l-6.813,8.49c-0.179,0.224-0.446,0.359-0.732,0.373
		c-0.291,0.012-0.565-0.097-0.765-0.302l-4.625-4.76c-0.26-0.267-0.349-0.657-0.232-1.01c1.177-3.563,7.347-21.34,13.244-21.34
		h21.411c5.896,0,12.067,17.776,13.244,21.34c0.117,0.354,0.027,0.743-0.232,1.011l-4.627,4.759
		c-0.199,0.206-0.467,0.317-0.765,0.302c-0.286-0.014-0.553-0.149-0.732-0.373l-6.812-8.49v27.18
		C34.781,46.917,34.334,47.364,33.781,47.364z M15.218,45.364h17.563V16.34c0-0.424,0.268-0.803,0.668-0.943
		c0.401-0.141,0.847-0.015,1.112,0.317l7.884,9.825l3.413-3.51c-2.79-8.245-7.954-19.393-11.153-19.393H13.294
		c-3.201,0-8.363,11.148-11.152,19.393l3.412,3.511l7.885-9.825c0.265-0.331,0.711-0.458,1.111-0.317
		c0.4,0.141,0.668,0.519,0.668,0.943V45.364z"/>
	<path d="M24,46.508c-0.552,0-1-0.447-1-1V17.34L14.3,3.012c-0.287-0.472-0.136-1.087,0.336-1.374
		c0.473-0.285,1.087-0.136,1.374,0.336l8.845,14.567C24.95,16.697,25,16.877,25,17.06v28.448C25,46.061,24.553,46.508,24,46.508z"/>
	<path d="M24.44,17.752c-0.19,0-0.383-0.054-0.554-0.168c-0.459-0.307-0.583-0.927-0.277-1.387L32.995,2.12
		c0.306-0.46,0.926-0.584,1.387-0.277c0.46,0.307,0.584,0.927,0.277,1.387l-9.387,14.077C25.08,17.596,24.763,17.752,24.44,17.752z"
		/>
</g>
</svg>
