<?xml version="1.0" encoding="utf-8"?>
<!-- Generator: Adobe Illustrator 16.0.0, SVG Export Plug-In . SVG Version: 6.00 Build 0)  -->
<!DOCTYPE svg PUBLIC "-//W3C//DTD SVG 1.1//EN" "http://www.w3.org/Graphics/SVG/1.1/DTD/svg11.dtd">
<svg version="1.1" id="Layer_1" xmlns="http://www.w3.org/2000/svg" xmlns:xlink="http://www.w3.org/1999/xlink" x="0px" y="0px"
	 width="48px" height="48px" viewBox="0 0 48 48" enable-background="new 0 0 48 48" xml:space="preserve">
<g>
	<path d="M41.021,48H6.977c-2.338,0-4.241-1.851-4.241-4.125V25.123c0-2.275,1.903-4.126,4.241-4.126h11.856c0.552,0,1,0.448,1,1
		s-0.448,1-1,1H6.977c-1.236,0-2.241,0.954-2.241,2.126v18.752C4.736,45.047,5.741,46,6.977,46h34.044
		c1.236,0,2.242-0.953,2.242-2.125V25.123c0-1.172-1.006-2.126-2.242-2.126H29.093c-0.553,0-1-0.448-1-1s0.447-1,1-1h11.929
		c2.339,0,4.242,1.851,4.242,4.126v18.752C45.264,46.149,43.36,48,41.021,48z"/>
	<path d="M43.12,22.997H28.646c-0.553,0-1-0.448-1-1s0.447-1,1-1H43.12c1.234,0,2.239-0.954,2.239-2.126v-4.196
		c0-1.172-1.005-2.126-2.239-2.126H4.882c-1.236,0-2.242,0.954-2.242,2.126v4.196c0,1.172,1.006,2.126,2.242,2.126h14.472
		c0.552,0,1,0.448,1,1s-0.448,1-1,1H4.882c-2.339,0-4.242-1.851-4.242-4.126v-4.196c0-2.275,1.903-4.126,4.242-4.126H43.12
		c2.338,0,4.239,1.851,4.239,4.126v4.196C47.359,21.146,45.458,22.997,43.12,22.997z"/>
	<path d="M28.311,48h-8.62c-0.552,0-1-0.447-1-1V11.549c0-0.552,0.448-1,1-1h8.62c0.553,0,1,0.448,1,1V47
		C29.311,47.553,28.863,48,28.311,48z M20.691,46h6.62V12.549h-6.62V46z"/>
	<g>
		<path d="M27.755,12.549c-0.553,0-1-0.448-1-1s0.447-1,1-1c0.592-0.052,5.616-1.089,6.75-3.495c0.431-0.914,0.217-1.97-0.655-3.226
			c-1.499-2.159-2.641-1.861-3.018-1.762c-2.796,0.733-5.53,7.006-5.669,8.139c0.022,0.511-0.349,0.964-0.866,1.034
			c-0.549,0.067-1.051-0.311-1.125-0.858c-0.167-1.239,2.851-8.611,6.671-10.094c1.432-0.555,3.572-0.59,5.648,2.4
			c1.677,2.415,1.327,4.263,0.738,5.388C34.451,11.476,28.274,12.549,27.755,12.549z"/>
		<path d="M20.245,12.549c-0.519,0-6.694-1.073-8.474-4.474c-0.588-1.125-0.938-2.972,0.738-5.388
			c2.075-2.989,4.216-2.956,5.647-2.4c3.82,1.482,6.837,8.854,6.67,10.094c-0.074,0.547-0.578,0.924-1.125,0.858
			c-0.517-0.07-0.888-0.522-0.866-1.034c-0.139-1.133-2.873-7.406-5.668-8.139c-0.375-0.098-1.517-0.396-3.016,1.762
			c-0.872,1.256-1.086,2.312-0.655,3.226c1.133,2.405,6.156,3.443,6.792,3.496c0.534,0.044,0.958,0.503,0.935,1.039
			C21.203,12.125,20.781,12.549,20.245,12.549z"/>
	</g>
</g>
</svg>
