<?xml version="1.0" encoding="utf-8"?>
<!-- Generator: Adobe Illustrator 16.0.0, SVG Export Plug-In . SVG Version: 6.00 Build 0)  -->
<!DOCTYPE svg PUBLIC "-//W3C//DTD SVG 1.1//EN" "http://www.w3.org/Graphics/SVG/1.1/DTD/svg11.dtd">
<svg version="1.1" id="Layer_1" xmlns="http://www.w3.org/2000/svg" xmlns:xlink="http://www.w3.org/1999/xlink" x="0px" y="0px"
	 width="48px" height="48px" viewBox="0 0 48 48" enable-background="new 0 0 48 48" xml:space="preserve">
<g>
	<path d="M17.854,47.999c-1.257,0-2.497-0.519-3.403-1.425L1.434,33.559c-1.842-1.842-1.912-4.77-0.156-6.525l26.47-26.468
		C28.14,0.174,28.737,0,29.687,0c3.834,0,13.835,3.007,14.259,3.135c0.316,0.096,0.565,0.342,0.665,0.657
		c3.064,9.737,4.018,15.277,2.833,16.467l-26.47,26.469C20.153,47.548,19.045,47.999,17.854,47.999z M29.092,2.05l-26.4,26.397
		c-0.976,0.977-0.906,2.635,0.156,3.697L15.864,45.16c1.015,1.015,2.763,1.087,3.695,0.154l26.397-26.396
		c0.39-1.278-1.264-8.111-3.096-14.019C40.768,4.286,32.767,2,29.687,2C29.339,2,29.164,2.032,29.092,2.05z"/>
	<path d="M34.615,18.868c-1.462,0-2.837-0.569-3.872-1.603c-2.137-2.134-2.137-5.61-0.001-7.747
		c1.035-1.036,2.411-1.605,3.873-1.605c1.463,0,2.839,0.569,3.875,1.604c1.035,1.037,1.604,2.413,1.604,3.876
		c0,1.464-0.57,2.839-1.606,3.873C37.452,18.299,36.077,18.868,34.615,18.868z M34.615,9.914c-0.928,0-1.802,0.362-2.459,1.019
		c-1.355,1.356-1.355,3.563,0,4.918c1.314,1.313,3.603,1.313,4.919,0c0.656-0.656,1.019-1.529,1.019-2.458
		c0.001-0.929-0.36-1.803-1.018-2.461C36.419,10.275,35.544,9.914,34.615,9.914z"/>
</g>
</svg>
