<?xml version="1.0" encoding="utf-8"?>
<!-- Generator: Adobe Illustrator 16.0.0, SVG Export Plug-In . SVG Version: 6.00 Build 0)  -->
<!DOCTYPE svg PUBLIC "-//W3C//DTD SVG 1.1//EN" "http://www.w3.org/Graphics/SVG/1.1/DTD/svg11.dtd">
<svg version="1.1" id="Layer_1" xmlns="http://www.w3.org/2000/svg" xmlns:xlink="http://www.w3.org/1999/xlink" x="0px" y="0px"
	 width="48px" height="48px" viewBox="0 0 48 48" enable-background="new 0 0 48 48" xml:space="preserve">
<g>
	<path d="M30.55,47.768c-0.212,0-0.422-0.067-0.597-0.197L24,43.146l-5.95,4.424c-0.251,0.188-0.577,0.245-0.879,0.156
		c-0.301-0.088-0.543-0.313-0.654-0.607l-2.609-6.939l-7.396,0.506c-0.313,0.017-0.618-0.105-0.824-0.343
		c-0.206-0.237-0.288-0.558-0.222-0.864l1.552-7.249l-6.499-3.574c-0.275-0.151-0.463-0.423-0.508-0.733
		c-0.045-0.311,0.059-0.625,0.28-0.848l5.229-5.262l-3.536-6.521c-0.15-0.276-0.161-0.606-0.031-0.892s0.388-0.493,0.694-0.561
		l7.239-1.597l0.555-7.394c0.023-0.313,0.192-0.597,0.457-0.767c0.263-0.169,0.592-0.206,0.887-0.097l6.951,2.567l4.465-5.921
		c0.189-0.25,0.484-0.398,0.798-0.398l0,0c0.314,0,0.609,0.147,0.799,0.398l4.464,5.921l6.953-2.567
		c0.295-0.107,0.623-0.072,0.887,0.097c0.265,0.169,0.434,0.453,0.457,0.766l0.557,7.394l7.241,1.597
		c0.308,0.068,0.564,0.275,0.694,0.561c0.131,0.286,0.119,0.616-0.03,0.893l-3.538,6.521l5.227,5.262
		c0.221,0.224,0.324,0.537,0.28,0.848c-0.045,0.311-0.233,0.582-0.508,0.733l-6.495,3.574l1.551,7.249
		c0.066,0.307-0.017,0.627-0.222,0.864c-0.205,0.236-0.501,0.354-0.824,0.343l-7.396-0.506l-2.61,6.939
		c-0.11,0.294-0.353,0.52-0.653,0.607C30.739,47.754,30.645,47.768,30.55,47.768z M24,40.9c0.209,0,0.419,0.065,0.597,0.197
		l5.484,4.075l2.405-6.394c0.154-0.414,0.544-0.662,1.004-0.646l6.814,0.467l-1.429-6.679c-0.093-0.432,0.108-0.872,0.495-1.085
		l5.984-3.293l-4.815-4.849c-0.311-0.313-0.38-0.793-0.169-1.182l3.259-6.008l-6.67-1.471c-0.432-0.095-0.749-0.461-0.782-0.901
		l-0.513-6.813l-6.406,2.365c-0.415,0.153-0.88,0.016-1.146-0.336L24,2.893l-4.115,5.456c-0.266,0.353-0.733,0.487-1.145,0.336
		l-6.404-2.365l-0.512,6.813c-0.033,0.44-0.351,0.807-0.782,0.902l-6.669,1.471l3.257,6.008c0.21,0.388,0.142,0.868-0.169,1.181
		l-4.817,4.849l5.987,3.293c0.387,0.213,0.588,0.653,0.496,1.085L7.698,38.6l6.815-0.467c0.441-0.014,0.849,0.232,1.004,0.646
		l2.404,6.394l5.481-4.075C23.581,40.966,23.79,40.9,24,40.9z"/>
	<g>
		<path d="M21.794,19.339c0,4.359-2.289,6.522-4.966,6.522c-2.574,0-4.803-2.067-4.832-6.235c0-4.137,2.258-6.458,4.994-6.458
			C19.885,13.167,21.794,15.393,21.794,19.339z M14.222,19.53c-0.067,2.642,0.923,4.646,2.672,4.646
			c1.845,0,2.672-1.972,2.672-4.709c0-2.513-0.73-4.614-2.672-4.614C15.146,14.853,14.222,16.922,14.222,19.53z M16.639,34.547
			l12.155-21.379h1.782L18.421,34.547H16.639z M35.251,27.898c0,4.358-2.29,6.522-4.931,6.522c-2.576,0-4.803-2.067-4.836-6.205
			c0-4.168,2.26-6.49,4.996-6.49C33.378,21.727,35.251,23.953,35.251,27.898z M27.682,28.09c-0.031,2.641,0.987,4.646,2.703,4.646
			c1.848,0,2.672-1.973,2.672-4.709c0-2.512-0.729-4.615-2.672-4.615C28.635,23.412,27.682,25.48,27.682,28.09z"/>
	</g>
</g>
</svg>
