<?xml version="1.0" encoding="utf-8"?>
<!-- Generator: Adobe Illustrator 16.0.0, SVG Export Plug-In . SVG Version: 6.00 Build 0)  -->
<!DOCTYPE svg PUBLIC "-//W3C//DTD SVG 1.1//EN" "http://www.w3.org/Graphics/SVG/1.1/DTD/svg11.dtd">
<svg version="1.1" id="Layer_1" xmlns="http://www.w3.org/2000/svg" xmlns:xlink="http://www.w3.org/1999/xlink" x="0px" y="0px"
	 width="48px" height="48px" viewBox="0 0 48 48" enable-background="new 0 0 48 48" xml:space="preserve">
<g>
	<path d="M30.547,47.768c-0.213,0-0.422-0.067-0.597-0.197l-5.952-4.426l-5.951,4.426c-0.251,0.188-0.577,0.245-0.878,0.156
		c-0.301-0.088-0.543-0.313-0.654-0.606l-2.61-6.939l-7.396,0.505c-0.317,0.017-0.618-0.105-0.824-0.343
		c-0.206-0.237-0.288-0.558-0.222-0.864l1.552-7.25l-6.496-3.573c-0.275-0.151-0.463-0.423-0.508-0.733
		c-0.045-0.311,0.059-0.625,0.28-0.848l5.226-5.261l-3.534-6.52c-0.149-0.276-0.161-0.606-0.03-0.892s0.387-0.493,0.694-0.561
		l7.238-1.599l0.557-7.393c0.023-0.313,0.192-0.597,0.457-0.766c0.265-0.169,0.593-0.205,0.887-0.097l6.952,2.566L23.2,0.631
		c0.378-0.501,1.218-0.501,1.597,0l4.464,5.922l6.953-2.567c0.294-0.108,0.624-0.073,0.887,0.097
		c0.265,0.169,0.434,0.453,0.457,0.766l0.557,7.393l7.238,1.599c0.307,0.068,0.563,0.275,0.694,0.561
		c0.13,0.286,0.118,0.616-0.031,0.892l-3.535,6.52l5.229,5.261c0.222,0.223,0.325,0.537,0.281,0.848
		c-0.045,0.311-0.233,0.582-0.509,0.733l-6.498,3.573l1.555,7.249c0.066,0.308-0.016,0.627-0.222,0.864
		c-0.205,0.237-0.501,0.355-0.824,0.344l-7.398-0.506l-2.611,6.94c-0.11,0.294-0.353,0.519-0.653,0.606
		C30.736,47.754,30.642,47.768,30.547,47.768z M23.998,40.898c0.21,0,0.419,0.065,0.597,0.197l5.483,4.077l2.406-6.394
		c0.155-0.413,0.546-0.662,1.004-0.646l6.816,0.466l-1.433-6.679c-0.093-0.432,0.108-0.873,0.496-1.086l5.987-3.292l-4.817-4.848
		c-0.312-0.313-0.381-0.793-0.17-1.182l3.257-6.006l-6.668-1.473c-0.431-0.095-0.748-0.461-0.781-0.901l-0.513-6.812l-6.407,2.365
		c-0.413,0.153-0.88,0.017-1.146-0.336l-4.112-5.456L19.885,8.35c-0.266,0.353-0.733,0.487-1.145,0.336l-6.405-2.365l-0.513,6.812
		c-0.033,0.44-0.351,0.806-0.781,0.901l-6.667,1.473l3.256,6.006c0.21,0.388,0.141,0.868-0.17,1.181l-4.815,4.848l5.984,3.292
		c0.387,0.213,0.588,0.653,0.496,1.085l-1.43,6.68l6.815-0.466c0.426-0.015,0.849,0.232,1.004,0.646l2.405,6.393l5.482-4.077
		C23.579,40.964,23.788,40.898,23.998,40.898z"/>
	<g>
		<path d="M11.181,19.1c0.618-0.129,1.589-0.227,2.583-0.227c1.411,0,2.32,0.244,3.004,0.795c0.568,0.424,0.909,1.071,0.909,1.934
			c0,1.054-0.702,1.981-1.852,2.4v0.034c1.039,0.261,2.257,1.121,2.257,2.743c0,0.941-0.374,1.656-0.927,2.193
			c-0.76,0.699-1.997,1.021-3.782,1.021c-0.973,0-1.72-0.063-2.191-0.13L11.181,19.1L11.181,19.1z M12.593,23.583h1.284
			c1.494,0,2.373-0.78,2.373-1.835c0-1.282-0.978-1.787-2.404-1.787c-0.652,0-1.024,0.048-1.252,0.099L12.593,23.583L12.593,23.583z
			 M12.593,28.824c0.278,0.05,0.684,0.066,1.186,0.066c1.462,0,2.808-0.537,2.808-2.127c0-1.494-1.283-2.111-2.822-2.111h-1.171
			L12.593,28.824L12.593,28.824z"/>
		<path d="M21.397,18.953v6.479c0,2.452,1.089,3.491,2.55,3.491c1.625,0,2.665-1.071,2.665-3.491v-6.479h1.426v6.383
			c0,3.357-1.766,4.74-4.138,4.74c-2.241,0-3.928-1.285-3.928-4.678v-6.446L21.397,18.953L21.397,18.953z"/>
		<path d="M32.932,29.898v-4.645l-3.459-6.302h1.609l1.541,3.021c0.424,0.829,0.748,1.496,1.089,2.257h0.031
			c0.309-0.714,0.682-1.428,1.104-2.257l1.574-3.021h1.607l-3.67,6.286v4.66H32.932z"/>
	</g>
</g>
</svg>
