<?xml version="1.0" encoding="utf-8"?>
<!-- Generator: Adobe Illustrator 16.0.0, SVG Export Plug-In . SVG Version: 6.00 Build 0)  -->
<!DOCTYPE svg PUBLIC "-//W3C//DTD SVG 1.1//EN" "http://www.w3.org/Graphics/SVG/1.1/DTD/svg11.dtd">
<svg version="1.1" id="Layer_1" xmlns="http://www.w3.org/2000/svg" xmlns:xlink="http://www.w3.org/1999/xlink" x="0px" y="0px"
	 width="48px" height="48px" viewBox="0 0 48 48" enable-background="new 0 0 48 48" xml:space="preserve">
<g>
	<path d="M36.801,48h-25.6c-4.003,0-7.259-3.256-7.259-7.259V9.865h2v30.876c0,2.899,2.359,5.259,5.259,5.259h25.6
		c2.9,0,5.26-2.359,5.26-5.259V9.865h2v30.876C44.061,44.744,40.804,48,36.801,48z"/>
	<g>
		<path d="M45.783,10.865H2.217c-1.103,0-2-0.897-2-2V2c0-1.103,0.897-2,2-2h43.566c1.103,0,2,0.897,2,2v6.865
			C47.783,9.968,46.886,10.865,45.783,10.865z M45.783,8.865v1V8.865L45.783,8.865L45.783,8.865z M2.217,2v6.865H45.78L45.783,2
			H2.217z"/>
	</g>
	<g>
		<path d="M36.082,30.02H11.916c-1.103,0-2-0.897-2-2v-8.038c0-1.103,0.897-2,2-2h24.166c1.103,0,2,0.897,2,2v8.038
			C38.082,29.122,37.185,30.02,36.082,30.02z M36.082,28.02v1V28.02L36.082,28.02L36.082,28.02z M11.916,19.982v8.038h24.163
			l0.003-8.038H11.916z"/>
	</g>
</g>
</svg>
