<?xml version="1.0" encoding="utf-8"?>
<!-- Generator: Adobe Illustrator 16.0.0, SVG Export Plug-In . SVG Version: 6.00 Build 0)  -->
<!DOCTYPE svg PUBLIC "-//W3C//DTD SVG 1.1//EN" "http://www.w3.org/Graphics/SVG/1.1/DTD/svg11.dtd">
<svg version="1.1" id="Layer_1" xmlns="http://www.w3.org/2000/svg" xmlns:xlink="http://www.w3.org/1999/xlink" x="0px" y="0px"
	 width="48px" height="48px" viewBox="0 0 48 48" enable-background="new 0 0 48 48" xml:space="preserve">
<g>
	<path d="M4.073,44.632c-1.785,0-2.751-0.823-3.248-1.514c-1.037-1.442-1.102-3.742-0.184-6.475
		c1.418-4.221,5.596-8.984,5.773-9.186c0.259-0.292,0.664-0.411,1.039-0.295c0.374,0.112,0.648,0.433,0.702,0.819
		c0.117,0.844,0.458,3.306,4.009,3.604c-3.233-2.275-3.09-5.706-3.087-5.751c0.016-0.271,0.141-0.525,0.348-0.703l7.117-6.095
		c0.267-0.229,0.634-0.3,0.968-0.188c0.333,0.111,0.583,0.39,0.659,0.733c0.415,1.887,2.055,3.3,3.56,4.23
		c-1.46-3.373-1.601-6.653-1.608-6.83c-0.012-0.333,0.142-0.65,0.412-0.846l5.813-4.219c0.265-0.193,0.606-0.243,0.914-0.136
		c0.309,0.107,0.545,0.357,0.635,0.671c0.634,2.229,2.164,3.744,3.502,4.69c-1.051-3.549-0.82-7.461-0.807-7.669
		c0.021-0.335,0.209-0.637,0.5-0.804c6.218-3.568,10.567-5.303,13.3-5.303c2.005,0,2.879,0.943,3.26,1.735
		c1.535,3.193-2.568,9.482-3.387,10.506c-7.163,8.972-21.045,19.905-34.543,27.207C7.496,44.021,5.596,44.632,4.073,44.632z
		 M6.728,30.231c-1.31,1.678-3.345,4.532-4.19,7.049c-0.687,2.045-0.72,3.791-0.088,4.671c0.833,1.16,3.177,0.81,6.319-0.894
		c13.284-7.186,26.92-17.914,33.932-26.696c1.37-1.714,3.979-6.66,3.146-8.391c-0.079-0.165-0.289-0.602-1.457-0.602
		c-1.573,0-4.896,0.835-11.822,4.762c-0.031,1.522,0.036,5.972,1.716,8.718c0.221,0.359,0.191,0.818-0.072,1.147
		s-0.709,0.456-1.104,0.321c-0.209-0.072-4.721-1.661-6.659-6.002l-4.289,3.112c0.134,1.371,0.685,5.178,2.809,8.081
		c0.258,0.353,0.258,0.83,0,1.182c-0.258,0.354-0.713,0.499-1.126,0.356c-0.238-0.08-5.256-1.813-7.101-5.546l-5.649,4.838
		c0.108,1.045,0.814,3.873,5.234,4.867c0.444,0.1,0.765,0.486,0.78,0.941s-0.278,0.863-0.714,0.992
		c-0.065,0.02-1.621,0.477-3.49,0.477C9.856,33.616,7.726,32.431,6.728,30.231z"/>
</g>
</svg>
