<?xml version="1.0" encoding="utf-8"?>
<!-- Generator: Adobe Illustrator 16.0.0, SVG Export Plug-In . SVG Version: 6.00 Build 0)  -->
<!DOCTYPE svg PUBLIC "-//W3C//DTD SVG 1.1//EN" "http://www.w3.org/Graphics/SVG/1.1/DTD/svg11.dtd">
<svg version="1.1" id="Layer_1" xmlns="http://www.w3.org/2000/svg" xmlns:xlink="http://www.w3.org/1999/xlink" x="0px" y="0px"
	 width="48px" height="48px" viewBox="0 0 48 48" enable-background="new 0 0 48 48" xml:space="preserve">
<g>
	<path d="M34.457,17.31c-2.517,0-4.564-2.049-4.564-4.568c0-1.039,0.358-2.056,1.008-2.863c0.875-1.083,2.171-1.702,3.557-1.702
		c2.521,0.002,4.57,2.05,4.57,4.566c0,1.218-0.476,2.365-1.34,3.23C36.825,16.835,35.678,17.31,34.457,17.31z M34.456,10.177
		c-0.778,0-1.507,0.349-1.998,0.958c-0.37,0.458-0.565,1.015-0.565,1.608c0,1.416,1.15,2.568,2.564,2.568
		c0.687,0,1.332-0.267,1.816-0.751c0.486-0.486,0.754-1.131,0.754-1.815C37.027,11.329,35.874,10.178,34.456,10.177z"/>
	<path d="M13.542,39.861c-2.518,0-4.567-2.049-4.567-4.567s2.049-4.567,4.567-4.567s4.567,2.049,4.567,4.567
		S16.06,39.861,13.542,39.861z M13.542,32.727c-1.416,0-2.567,1.151-2.567,2.567s1.151,2.567,2.567,2.567s2.567-1.151,2.567-2.567
		S14.958,32.727,13.542,32.727z"/>
	<path d="M24,48C10.767,48,0,37.233,0,24S10.767,0,24,0s24,10.767,24,24S37.233,48,24,48z M24,2C11.869,2,2,11.869,2,24
		s9.869,22,22,22s22-9.869,22-22S36.131,2,24,2z"/>
	<path d="M24.001,40.525c-2.989,0-5.919-0.808-8.473-2.335l1.026-1.717c2.244,1.343,4.819,2.052,7.447,2.052
		c8.01,0,14.526-6.516,14.526-14.525c0-2.902-0.855-5.707-2.474-8.109l1.658-1.117c1.842,2.734,2.815,5.924,2.815,9.227
		C40.527,33.112,33.113,40.525,24.001,40.525z"/>
	<path d="M10.521,33.565C8.528,30.76,7.474,27.452,7.474,24c0-9.112,7.414-16.526,16.527-16.526c3.068,0,6.064,0.848,8.663,2.452
		l-1.051,1.702c-2.282-1.409-4.915-2.154-7.612-2.154C15.991,9.474,9.474,15.99,9.474,24c0,3.034,0.926,5.941,2.677,8.407
		L10.521,33.565z"/>
	<path d="M24,31.893c-4.352,0-7.892-3.541-7.892-7.893s3.541-7.892,7.892-7.892s7.893,3.541,7.893,7.892S28.352,31.893,24,31.893z
		 M24,18.108c-3.249,0-5.892,2.643-5.892,5.892s2.643,5.893,5.892,5.893s5.893-2.644,5.893-5.893S27.249,18.108,24,18.108z"/>
	<rect x="1" y="23" width="46" height="2"/>
	<rect x="23" y="1" width="2" height="46"/>
</g>
</svg>
