<?xml version="1.0" encoding="utf-8"?>
<!-- Generator: Adobe Illustrator 16.0.0, SVG Export Plug-In . SVG Version: 6.00 Build 0)  -->
<!DOCTYPE svg PUBLIC "-//W3C//DTD SVG 1.1//EN" "http://www.w3.org/Graphics/SVG/1.1/DTD/svg11.dtd">
<svg version="1.1" id="Layer_1" xmlns="http://www.w3.org/2000/svg" xmlns:xlink="http://www.w3.org/1999/xlink" x="0px" y="0px"
	 width="48px" height="48px" viewBox="0 0 48 48" enable-background="new 0 0 48 48" xml:space="preserve">
<g>
	<path d="M40.895,44.959H7.102C3.186,44.959,0,41.772,0,37.855V19.224c0-3.917,3.186-7.104,7.102-7.104h33.792
		c3.918,0,7.105,3.187,7.105,7.104v18.631C48,41.772,44.813,44.959,40.895,44.959z M7.102,14.12C4.289,14.12,2,16.41,2,19.224
		v18.631c0,2.814,2.289,5.104,5.102,5.104h33.792c2.815,0,5.105-2.289,5.105-5.104V19.224c0-2.814-2.29-5.104-5.105-5.104H7.102z"/>
	<path d="M20.373,14.119c-0.292,0-0.582-0.127-0.779-0.373c-0.346-0.43-0.279-1.06,0.151-1.406l9.679-7.798
		c0.121-0.093,2.484-1.867,5.039-1.433c1.348,0.229,2.468,1.007,3.33,2.312c2.768,4.19,4.601,6.805,4.619,6.831
		c0.317,0.452,0.208,1.076-0.244,1.393s-1.076,0.208-1.393-0.244c-0.019-0.026-1.866-2.662-4.65-6.877
		c-0.553-0.836-1.206-1.308-1.998-1.442c-1.678-0.283-3.454,1.023-3.472,1.036L21,13.898C20.814,14.047,20.593,14.119,20.373,14.119
		z"/>
	<path d="M5.405,14.119c-0.292,0-0.582-0.127-0.779-0.373c-0.346-0.43-0.279-1.06,0.151-1.406l9.682-7.798
		c0.122-0.093,2.489-1.863,5.04-1.433c1.347,0.23,2.467,1.007,3.328,2.312c0.976,1.475,1.828,2.75,2.531,3.785
		c0.311,0.457,0.191,1.079-0.266,1.389c-0.457,0.312-1.078,0.191-1.389-0.265c-0.707-1.041-1.563-2.323-2.545-3.806
		c-0.55-0.833-1.201-1.305-1.988-1.441c-1.686-0.29-3.464,1.023-3.482,1.037l-9.657,7.779C5.847,14.047,5.625,14.119,5.405,14.119z"
		/>
	<path d="M37.74,33.393c-2.674,0-4.85-2.177-4.85-4.852s2.176-4.852,4.85-4.852c2.676,0,4.854,2.177,4.854,4.852
		S40.416,33.393,37.74,33.393z M37.74,25.689c-1.571,0-2.85,1.279-2.85,2.852s1.278,2.852,2.85,2.852
		c1.573,0,2.854-1.279,2.854-2.852S39.313,25.689,37.74,25.689z"/>
</g>
</svg>
