<?xml version="1.0" encoding="utf-8"?>
<!-- Generator: Adobe Illustrator 16.0.0, SVG Export Plug-In . SVG Version: 6.00 Build 0)  -->
<!DOCTYPE svg PUBLIC "-//W3C//DTD SVG 1.1//EN" "http://www.w3.org/Graphics/SVG/1.1/DTD/svg11.dtd">
<svg version="1.1" id="Layer_1" xmlns="http://www.w3.org/2000/svg" xmlns:xlink="http://www.w3.org/1999/xlink" x="0px" y="0px"
	 width="48px" height="48px" viewBox="0 0 48 48" enable-background="new 0 0 48 48" xml:space="preserve">
<g>
	<g>
		<path d="M40.891,43.975H7.104C3.187,43.975,0,40.787,0,36.869V7.557C0,3.64,3.187,0.453,7.104,0.453h33.787
			C44.811,0.453,48,3.64,48,7.557v29.312C48,40.787,44.811,43.975,40.891,43.975z M7.104,2.453C4.29,2.453,2,4.743,2,7.557v29.312
			c0,2.815,2.29,5.105,5.104,5.105h33.787c2.817,0,5.109-2.29,5.109-5.105V7.557c0-2.814-2.292-5.104-5.109-5.104H7.104z"/>
		<path d="M36.313,27.063c-2.674,0-4.85-2.176-4.85-4.85c0-2.675,2.176-4.852,4.85-4.852c2.676,0,4.854,2.177,4.854,4.852
			C41.166,24.887,38.988,27.063,36.313,27.063z M36.313,19.361c-1.571,0-2.85,1.279-2.85,2.852c0,1.571,1.278,2.85,2.85,2.85
			c1.573,0,2.854-1.278,2.854-2.85C39.166,20.64,37.886,19.361,36.313,19.361z"/>
		<g>
			<path d="M10.2,18.7c-0.552,0-1-0.448-1-1V8.3c0-0.552,0.448-1,1-1s1,0.448,1,1v9.4C11.2,18.252,10.752,18.7,10.2,18.7z"/>
			<path d="M10.2,37.126c-0.552,0-1-0.447-1-1v-9.399c0-0.553,0.448-1,1-1s1,0.447,1,1v9.399C11.2,36.679,10.752,37.126,10.2,37.126
				z"/>
		</g>
	</g>
	<g>
		<path d="M11.341,47.548c-0.552,0-1-0.447-1-1v-3.573c0-0.553,0.448-1,1-1s1,0.447,1,1v3.573
			C12.341,47.101,11.893,47.548,11.341,47.548z"/>
		<path d="M36.658,47.548c-0.553,0-1-0.447-1-1v-3.573c0-0.553,0.447-1,1-1s1,0.447,1,1v3.573
			C37.658,47.101,37.211,47.548,36.658,47.548z"/>
	</g>
</g>
</svg>
