<?xml version="1.0" encoding="utf-8"?>
<!-- Generator: Adobe Illustrator 16.0.0, SVG Export Plug-In . SVG Version: 6.00 Build 0)  -->
<!DOCTYPE svg PUBLIC "-//W3C//DTD SVG 1.1//EN" "http://www.w3.org/Graphics/SVG/1.1/DTD/svg11.dtd">
<svg version="1.1" id="Layer_1" xmlns="http://www.w3.org/2000/svg" xmlns:xlink="http://www.w3.org/1999/xlink" x="0px" y="0px"
	 width="48px" height="48px" viewBox="0 0 48 48" enable-background="new 0 0 48 48" xml:space="preserve">
<g>
	<path d="M40.797,15.322h-2.525c-0.553,0-1-0.448-1-1s0.447-1,1-1h2.525c2.869,0,5.203-2.334,5.203-5.203V7.566
		c0-2.869-2.334-5.203-5.203-5.203H7.203C4.334,2.363,2,4.697,2,7.566v0.553c0,2.869,2.334,5.203,5.203,5.203h3.004
		c0.552,0,1,0.448,1,1s-0.448,1-1,1H7.203C3.231,15.322,0,12.091,0,8.119V7.566c0-3.972,3.231-7.203,7.203-7.203h33.594
		C44.769,0.363,48,3.594,48,7.566v0.553C48,12.091,44.769,15.322,40.797,15.322z"/>
	<g>
		<path d="M35.791,47.637H12.203c-1.654,0-3-1.346-3-3V8.577c0-1.654,1.346-3,3-3h23.588c1.654,0,3,1.346,3,3v36.06
			C38.791,46.291,37.445,47.637,35.791,47.637z M12.203,7.577c-0.551,0-1,0.449-1,1v36.06c0,0.552,0.449,1,1,1h23.588
			c0.552,0,1-0.448,1-1V8.577c0-0.551-0.448-1-1-1H12.203z"/>
	</g>
	<path d="M26.191,43.693c-0.553,0-1-0.447-1-1V10.842c0-0.552,0.447-1,1-1s1,0.448,1,1v31.852
		C27.191,43.246,26.744,43.693,26.191,43.693z"/>
</g>
</svg>
