<?xml version="1.0" encoding="utf-8"?>
<!-- Generator: Adobe Illustrator 16.0.0, SVG Export Plug-In . SVG Version: 6.00 Build 0)  -->
<!DOCTYPE svg PUBLIC "-//W3C//DTD SVG 1.1//EN" "http://www.w3.org/Graphics/SVG/1.1/DTD/svg11.dtd">
<svg version="1.1" id="Layer_1" xmlns="http://www.w3.org/2000/svg" xmlns:xlink="http://www.w3.org/1999/xlink" x="0px" y="0px"
	 width="48px" height="48px" viewBox="0 0 48 48" enable-background="new 0 0 48 48" xml:space="preserve">
<g>
	<path d="M40.796,15.324h-2.524c-0.553,0-1-0.448-1-1s0.447-1,1-1h2.524C43.665,13.324,46,10.99,46,8.12V7.567
		c0-2.869-2.335-5.203-5.204-5.203H7.2C4.333,2.364,2,4.698,2,7.567V8.12c0,2.87,2.333,5.204,5.2,5.204h3.005c0.552,0,1,0.448,1,1
		s-0.448,1-1,1H7.2c-3.97,0-7.2-3.232-7.2-7.204V7.567c0-3.972,3.23-7.203,7.2-7.203h33.596C44.769,0.364,48,3.595,48,7.567V8.12
		C48,12.092,44.769,15.324,40.796,15.324z"/>
	<g>
		<path d="M35.793,47.636H12.205c-1.654,0-3-1.346-3-3V8.578c0-1.654,1.346-3,3-3h23.588c1.654,0,3,1.346,3,3v36.058
			C38.793,46.29,37.447,47.636,35.793,47.636z M12.205,7.578c-0.551,0-1,0.449-1,1v36.058c0,0.552,0.449,1,1,1h23.588
			c0.552,0,1-0.448,1-1V8.578c0-0.551-0.448-1-1-1H12.205z"/>
	</g>
	<path d="M24.002,21.375c-4.356,0-7.901-3.543-7.901-7.899c0-4.355,3.544-7.898,7.901-7.898c4.355,0,7.898,3.543,7.898,7.898
		C31.9,17.832,28.357,21.375,24.002,21.375z M24.002,7.578c-3.254,0-5.901,2.646-5.901,5.898c0,3.252,2.647,5.899,5.901,5.899
		c3.252,0,5.898-2.646,5.898-5.899C29.9,10.224,27.254,7.578,24.002,7.578z"/>
</g>
</svg>
