<?xml version="1.0" encoding="utf-8"?>
<!-- Generator: Adobe Illustrator 16.0.0, SVG Export Plug-In . SVG Version: 6.00 Build 0)  -->
<!DOCTYPE svg PUBLIC "-//W3C//DTD SVG 1.1//EN" "http://www.w3.org/Graphics/SVG/1.1/DTD/svg11.dtd">
<svg version="1.1" id="Layer_1" xmlns="http://www.w3.org/2000/svg" xmlns:xlink="http://www.w3.org/1999/xlink" x="0px" y="0px"
	 width="48px" height="48px" viewBox="0 0 48 48" enable-background="new 0 0 48 48" xml:space="preserve">
<g>
	<path d="M33.098,47.995c-1.018,0-2.076-0.151-3.132-0.461l-5.982-1.756c-4.269-1.251-7.612-5.349-7.612-9.328V35.6
		c0-0.553,0.448-1,1-1s1,0.447,1,1v0.851c0,3.087,2.77,6.411,6.175,7.408l5.982,1.756c2.401,0.704,4.768,0.43,6.327-0.738
		c1.149-0.861,1.758-2.12,1.758-3.64V7.503c0-1.578-0.646-2.948-1.87-3.963c-1.577-1.31-3.935-1.827-6.312-1.379l-5.98,1.131
		c-3.41,0.641-6.08,3.572-6.08,6.672v2.049c0,0.552-0.448,1-1,1s-1-0.448-1-1V9.965c0-4.031,3.386-7.825,7.709-8.638l5.981-1.131
		C33.057-0.367,35.959,0.291,38.021,2c1.672,1.387,2.593,3.341,2.593,5.502v33.733c0,2.144-0.909,4.005-2.56,5.241
		C36.718,47.478,34.977,47.995,33.098,47.995z"/>
	<path d="M27.92,39.12c-0.553,0-1-0.447-1-1V9.883c0-0.552,0.447-1,1-1s1,0.448,1,1V38.12C28.92,38.673,28.473,39.12,27.92,39.12z"
		/>
	<path d="M20.372,36.989c-7.16,0-12.985-5.826-12.985-12.987c0-7.162,5.825-12.988,12.985-12.988c2.98,0,5.81,1.026,8.182,2.968
		l0.366,0.3v19.441l-0.368,0.3C26.175,35.964,23.346,36.989,20.372,36.989z M20.372,13.014c-6.057,0-10.985,4.929-10.985,10.988
		s4.928,10.987,10.985,10.987c2.357,0,4.611-0.769,6.548-2.227V15.241C24.988,13.783,22.734,13.014,20.372,13.014z"/>
</g>
</svg>
