<?xml version="1.0" encoding="utf-8"?>
<!-- Generator: Adobe Illustrator 16.0.0, SVG Export Plug-In . SVG Version: 6.00 Build 0)  -->
<!DOCTYPE svg PUBLIC "-//W3C//DTD SVG 1.1//EN" "http://www.w3.org/Graphics/SVG/1.1/DTD/svg11.dtd">
<svg version="1.1" id="Layer_1" xmlns="http://www.w3.org/2000/svg" xmlns:xlink="http://www.w3.org/1999/xlink" x="0px" y="0px"
	 width="48px" height="48px" viewBox="0 0 48 48" enable-background="new 0 0 48 48" xml:space="preserve">
<g>
	<g>
		<path d="M28.454,11.812h-9.548c-0.371,0-0.712-0.206-0.885-0.534l-5.166-9.812c-0.163-0.31-0.152-0.683,0.029-0.982
			C13.065,0.183,13.39,0,13.74,0h20.527c0.359,0,0.691,0.193,0.869,0.505s0.175,0.696-0.009,1.005l-5.813,9.812
			C29.135,11.625,28.808,11.812,28.454,11.812z M19.51,9.812h8.374L32.513,2H15.397L19.51,9.812z"/>
		<path d="M27.652,47.999c-2.104,0-4.201-0.109-6.228-0.216c-2.017-0.105-4.102-0.215-6.184-0.215c-2.973,0-9.85-0.437-11.392-4.479
			c-1.12-2.931-0.068-7.496,0.658-9.957c0.457-1.553,1.168-2.981,1.856-4.364c0.166-0.333,0.332-0.667,0.495-1.004
			c0.281-0.587,0.521-1.21,0.754-1.813c0.313-0.811,0.638-1.649,1.079-2.461c0.467-0.852,1.058-1.611,1.629-2.346
			c0.478-0.613,0.928-1.192,1.305-1.812l0.116-0.194c1.085-1.81,2.724-4.545,5.242-5.05c0.84-0.168,2.071-0.14,3.247-0.073
			c0.47,0.027,0.926,0.054,1.341,0.054c0.63,0,1.42-0.058,2.256-0.118c0.995-0.072,2.024-0.147,3.015-0.147
			c1.129,0,2.015,0.103,2.708,0.313c1.625,0.498,3.015,2.197,4.029,3.438l0.399,0.483c2.574,3.029,4.435,6.361,6.429,10.089
			l0.332,0.619c1.445,2.69,2.94,5.472,3.695,8.51c0.834,3.309-0.752,7.932-4.362,9.271c-3.091,1.149-7.103,1.308-10.326,1.434
			C29.043,47.987,28.346,47.999,27.652,47.999z M18.595,15.952c-0.498,0-0.897,0.032-1.22,0.096c-1.65,0.331-3.07,2.701-3.919,4.117
			l-0.121,0.201c-0.438,0.723-0.947,1.375-1.438,2.006c-0.547,0.703-1.064,1.367-1.452,2.075c-0.378,0.696-0.665,1.438-0.969,2.225
			c-0.247,0.639-0.501,1.298-0.818,1.96c-0.168,0.347-0.338,0.688-0.507,1.027c-0.68,1.364-1.321,2.653-1.728,4.038
			c-1.114,3.776-1.373,6.938-0.708,8.679c0.899,2.356,5.645,3.192,9.436,3.192c2.223,0,4.335,0.11,6.377,0.218
			c2.653,0.139,5.387,0.283,8.137,0.176c3.081-0.121,6.916-0.271,9.708-1.311c2.754-1.021,3.672-4.714,3.118-6.911
			c-0.695-2.798-2.065-5.349-3.517-8.049l-0.334-0.622c-1.938-3.624-3.742-6.859-6.191-9.739c-0.132-0.156-0.272-0.328-0.422-0.51
			c-0.805-0.984-2.021-2.471-3.064-2.791c-0.5-0.152-1.195-0.226-2.124-0.226c-0.918,0-1.91,0.072-2.87,0.142
			c-0.874,0.063-1.698,0.124-2.401,0.124c-0.45,0-0.945-0.028-1.456-0.057C19.611,15.982,19.094,15.952,18.595,15.952z"/>
	</g>
	<g>
		<path d="M23.085,41.989v-2.731c-1.571-0.025-3.191-0.515-4.139-1.189l0.646-1.813c0.977,0.648,2.381,1.163,3.897,1.163
			c1.923,0,3.217-1.108,3.217-2.649c0-1.488-1.054-2.406-3.054-3.22c-2.758-1.081-4.459-2.325-4.459-4.677
			c0-2.245,1.594-3.948,4.082-4.357v-2.729h1.675v2.623c1.623,0.053,2.731,0.488,3.517,0.946l-0.678,1.785
			c-0.568-0.324-1.676-0.919-3.403-0.919c-2.086,0-2.872,1.245-2.872,2.324c0,1.407,1,2.109,3.354,3.084
			c2.786,1.139,4.194,2.541,4.194,4.95c0,2.136-1.488,4.137-4.275,4.597v2.813L23.085,41.989L23.085,41.989z"/>
	</g>
</g>
</svg>
