<?xml version="1.0" encoding="utf-8"?>
<!-- Generator: Adobe Illustrator 16.0.0, SVG Export Plug-In . SVG Version: 6.00 Build 0)  -->
<!DOCTYPE svg PUBLIC "-//W3C//DTD SVG 1.1//EN" "http://www.w3.org/Graphics/SVG/1.1/DTD/svg11.dtd">
<svg version="1.1" id="Layer_1" xmlns="http://www.w3.org/2000/svg" xmlns:xlink="http://www.w3.org/1999/xlink" x="0px" y="0px"
	 width="48px" height="48px" viewBox="0 0 48 48" enable-background="new 0 0 48 48" xml:space="preserve">
<g>
	<g>
		<path d="M28.456,11.812h-9.555c-0.372,0-0.712-0.206-0.885-0.535l-5.162-9.812c-0.163-0.31-0.152-0.683,0.029-0.982
			S13.389,0,13.739,0h20.528c0.359,0,0.69,0.193,0.869,0.505c0.178,0.312,0.175,0.696-0.009,1.005l-5.812,9.812
			C29.137,11.625,28.81,11.812,28.456,11.812z M19.505,9.812h8.381L32.513,2H15.395L19.505,9.812z"/>
		<path d="M27.646,48c-2.096,0-4.184-0.108-6.204-0.215c-2.007-0.104-4.083-0.213-6.155-0.213h-0.119
			c-2.892,0-9.779-0.437-11.32-4.481c-1.123-2.932-0.071-7.498,0.656-9.958c0.458-1.56,1.173-2.994,1.865-4.383
			c0.163-0.327,0.326-0.655,0.487-0.985c0.283-0.591,0.515-1.188,0.759-1.821C7.928,25.136,8.25,24.3,8.691,23.49
			c0.466-0.85,1.054-1.607,1.623-2.34c0.477-0.614,0.927-1.195,1.303-1.815l0.122-0.203c1.086-1.809,2.726-4.541,5.244-5.041
			c0.83-0.17,2.065-0.143,3.243-0.074c0.471,0.027,0.928,0.055,1.344,0.055c0.632,0,1.423-0.058,2.26-0.119
			c0.994-0.073,2.022-0.148,3.012-0.148c1.126,0,2.01,0.103,2.701,0.313c1.621,0.494,3.01,2.187,4.023,3.423
			c0.146,0.178,0.283,0.345,0.409,0.495c2.587,3.052,4.443,6.376,6.433,10.092l0.398,0.746c1.418,2.65,2.884,5.392,3.625,8.384
			c0.834,3.307-0.752,7.93-4.362,9.27c-3.1,1.152-7.107,1.309-10.328,1.434C29.039,47.988,28.341,48,27.646,48z M15.288,45.572
			c2.124,0,4.226,0.109,6.259,0.216c2.646,0.139,5.373,0.283,8.117,0.175c3.078-0.12,6.909-0.27,9.71-1.311
			c2.504-0.929,3.731-4.477,3.118-6.91c-0.683-2.754-2.025-5.266-3.448-7.925l-0.399-0.748c-1.933-3.611-3.733-6.839-6.193-9.741
			c-0.133-0.157-0.277-0.333-0.431-0.52c-0.804-0.98-2.018-2.46-3.06-2.778c-0.5-0.152-1.192-0.227-2.118-0.227
			c-0.916,0-1.907,0.072-2.866,0.143c-0.875,0.063-1.701,0.124-2.406,0.124c-0.452,0-0.949-0.028-1.46-0.058
			c-1.002-0.058-2.089-0.093-2.732,0.038c-1.653,0.328-3.02,2.604-3.923,4.109l-0.125,0.208c-0.437,0.722-0.944,1.375-1.435,2.007
			c-0.545,0.702-1.06,1.365-1.448,2.073c-0.377,0.693-0.663,1.433-0.966,2.215c-0.248,0.642-0.504,1.305-0.824,1.97
			c-0.165,0.34-0.332,0.674-0.498,1.008c-0.683,1.371-1.328,2.666-1.736,4.057c-1.116,3.775-1.373,6.938-0.707,8.679
			c0.899,2.358,5.652,3.195,9.45,3.195H15.288z"/>
	</g>
	<path d="M25.594,37.959c-2.999,0-5.122-1.337-6.198-3.57h8.297v-1.621h-8.85c-0.148-0.668-0.25-1.367-0.25-2.137
		c0-0.543,0.046-1.052,0.117-1.544h8.984v-1.623h-8.597c0.989-2.803,3.394-4.353,6.611-4.353c1.51,0,2.783,0.327,3.676,0.759
		l0.567-1.92c-0.619-0.323-2.056-0.81-4.327-0.81c-4.488,0-7.815,2.462-9.008,6.324h-2.876v1.623h2.507
		c-0.076,0.527-0.144,1.062-0.144,1.626c0,0.729,0.065,1.407,0.172,2.055H13.74v1.621h2.972c1.265,3.607,4.441,5.545,8.397,5.545
		c2.219,0,3.951-0.431,4.814-0.865l-0.49-1.865C28.49,37.663,27.029,37.959,25.594,37.959z"/>
</g>
</svg>
