<?xml version="1.0" encoding="utf-8"?>
<!-- Generator: Adobe Illustrator 16.0.0, SVG Export Plug-In . SVG Version: 6.00 Build 0)  -->
<!DOCTYPE svg PUBLIC "-//W3C//DTD SVG 1.1//EN" "http://www.w3.org/Graphics/SVG/1.1/DTD/svg11.dtd">
<svg version="1.1" id="Layer_1" xmlns="http://www.w3.org/2000/svg" xmlns:xlink="http://www.w3.org/1999/xlink" x="0px" y="0px"
	 width="48px" height="48px" viewBox="0 0 48 48" enable-background="new 0 0 48 48" xml:space="preserve">
<g>
	<g>
		<path d="M14.176,44.406h-4.83c-0.552,0-1-0.447-1-1v-6.828c-0.015-0.069-0.023-0.141-0.023-0.213c0-0.092,0.011-0.182,0.026-0.271
			c-0.003-3.961-2.964-7.36-7.042-8.011c-0.387-0.062-0.702-0.343-0.807-0.72C0.168,26.163,0,24.967,0,23.807
			c0-1.791,0.378-3.57,1.123-5.287c0.215-0.496,0.785-0.731,1.289-0.531c0.674,0.269,1.366,0.406,2.056,0.406
			c2.977,0,5.389-2.404,5.491-5.473c0.095-3.107-1.394-6.058-2.817-7.483C6.876,5.174,6.782,4.785,6.895,4.429
			C7.008,4.073,7.31,3.81,7.678,3.747c0.036-0.006,0.9-0.153,2.183-0.153c2.315,0,6.534,0.497,9.422,3.727
			c0.626-0.052,1.321-0.096,2.032-0.096c11.755,0,21.32,7.438,21.32,16.582c0,5.032-2.859,9.69-7.867,12.856v6.741
			c0,0.553-0.447,1-1,1h-4.84c-0.553,0-1-0.447-1-1v-3.836c-4.077,1.04-8.454,1.116-12.752,0.082v3.756
			C15.176,43.959,14.728,44.406,14.176,44.406z M10.346,42.406h2.83V38.35c0-0.314,0.148-0.611,0.4-0.8
			c0.252-0.19,0.577-0.251,0.88-0.16c4.786,1.396,9.706,1.292,14.175-0.098c0.305-0.095,0.634-0.039,0.89,0.149
			s0.407,0.487,0.407,0.806v4.157h2.84v-6.301c0-0.353,0.186-0.679,0.487-0.858c4.69-2.798,7.38-6.967,7.38-11.438
			c0-8.041-8.667-14.582-19.32-14.582c-0.831,0-1.628,0.064-2.367,0.133c-0.34,0.029-0.664-0.108-0.874-0.371
			c-2.364-2.953-6.161-3.394-8.213-3.394c-0.016,0-0.031,0-0.046,0c1.251,1.901,2.229,4.571,2.142,7.392
			c-0.138,4.156-3.428,7.409-7.49,7.409c-0.617,0-1.233-0.079-1.839-0.234C2.211,21.358,2,22.582,2,23.807
			c0,0.79,0.094,1.603,0.279,2.426c4.713,1.053,8.067,5.131,8.067,9.933c0,0.036-0.001,0.072-0.004,0.107
			c0.003,0.032,0.004,0.064,0.004,0.097V42.406z"/>
		<path d="M41.634,22.185c-0.475,0-0.896-0.338-0.983-0.822c-0.098-0.543,0.263-1.064,0.807-1.162
			c3.225-0.584,4.623-3.512,4.637-3.542c0.231-0.5,0.825-0.718,1.328-0.484c0.501,0.233,0.718,0.828,0.484,1.329
			c-0.073,0.159-1.86,3.898-6.094,4.665C41.753,22.18,41.692,22.185,41.634,22.185z"/>
	</g>
	<path d="M29.916,23.995h-11.83c-0.552,0-1-0.448-1-1s0.448-1,1-1h11.83c0.553,0,1,0.448,1,1S30.469,23.995,29.916,23.995z"/>
</g>
</svg>
