<?xml version="1.0" encoding="utf-8"?>
<!-- Generator: Adobe Illustrator 16.0.0, SVG Export Plug-In . SVG Version: 6.00 Build 0)  -->
<!DOCTYPE svg PUBLIC "-//W3C//DTD SVG 1.1//EN" "http://www.w3.org/Graphics/SVG/1.1/DTD/svg11.dtd">
<svg version="1.1" id="Layer_1" xmlns="http://www.w3.org/2000/svg" xmlns:xlink="http://www.w3.org/1999/xlink" x="0px" y="0px"
	 width="48px" height="48px" viewBox="0 0 48 48" enable-background="new 0 0 48 48" xml:space="preserve">
<g>
	<g>
		<path d="M12.863,48h-11.1c-0.552,0-1-0.447-1-1V10.431c0-0.552,0.448-1,1-1h11.1c0.552,0,1,0.448,1,1V47
			C13.863,47.553,13.415,48,12.863,48z M2.763,46h9.1V11.431h-9.1V46z"/>
		<path d="M24.033,48.001H12.936c-0.552,0-1-0.447-1-1V26.313c0-0.553,0.448-1,1-1h11.097c0.553,0,1,0.447,1,1v20.688
			C25.033,47.554,24.586,48.001,24.033,48.001z M13.936,46.001h9.097V27.313h-9.097V46.001z"/>
		<path d="M35.134,48H24.033c-0.552,0-1-0.447-1-1V19.837c0-0.552,0.448-1,1-1h11.101c0.553,0,1,0.448,1,1V47
			C36.134,47.553,35.687,48,35.134,48z M25.033,46h9.101V20.837h-9.101V46z"/>
		<path d="M46.238,48H35.134c-0.553,0-1-0.447-1-1V33.419c0-0.553,0.447-1,1-1h11.104c0.553,0,1,0.447,1,1V47
			C47.238,47.553,46.791,48,46.238,48z M36.134,46h9.104V34.419h-9.104V46z"/>
	</g>
	<g>
		<path d="M44.45,17.517c-0.217,0-0.435-0.07-0.618-0.215L29.547,6.044l-7.476,5.208c-0.335,0.231-0.776,0.238-1.116,0.018
			L6.431,1.839c-0.463-0.301-0.595-0.92-0.294-1.383c0.302-0.463,0.92-0.594,1.383-0.294l13.96,9.065l7.533-5.247
			c0.36-0.251,0.844-0.237,1.19,0.036L45.07,15.732c0.434,0.342,0.508,0.97,0.166,1.404C45.039,17.386,44.746,17.517,44.45,17.517z"
			/>
		<path d="M45.318,18.389h-6.383c-0.553,0-1-0.448-1-1s0.447-1,1-1h5.23l-0.705-4.967c-0.077-0.547,0.303-1.053,0.85-1.131
			c0.547-0.083,1.053,0.302,1.131,0.85l0.867,6.108c0.041,0.287-0.045,0.577-0.235,0.796C45.884,18.264,45.608,18.389,45.318,18.389
			z"/>
	</g>
</g>
</svg>
