<?xml version="1.0" encoding="utf-8"?>
<!-- Generator: Adobe Illustrator 16.0.0, SVG Export Plug-In . SVG Version: 6.00 Build 0)  -->
<!DOCTYPE svg PUBLIC "-//W3C//DTD SVG 1.1//EN" "http://www.w3.org/Graphics/SVG/1.1/DTD/svg11.dtd">
<svg version="1.1" id="Layer_1" xmlns="http://www.w3.org/2000/svg" xmlns:xlink="http://www.w3.org/1999/xlink" x="0px" y="0px"
	 width="48px" height="48px" viewBox="0 0 48 48" enable-background="new 0 0 48 48" xml:space="preserve">
<g>
	<g>
		<path d="M12.649,48H1.33c-0.552,0-1-0.447-1-1V13.369c0-0.552,0.448-1,1-1h11.319c0.552,0,1,0.448,1,1V47
			C13.649,47.553,13.201,48,12.649,48z M2.33,46h9.319V14.369H2.33V46z"/>
		<path d="M24.039,48h-11.32c-0.552,0-1-0.447-1-1V27.975c0-0.553,0.448-1,1-1h11.32c0.553,0,1,0.447,1,1V47
			C25.039,47.553,24.592,48,24.039,48z M13.719,46h9.32V28.975h-9.32V46z"/>
		<path d="M35.354,48H24.039c-0.552,0-1-0.447-1-1V22.019c0-0.552,0.448-1,1-1h11.314c0.553,0,1,0.448,1,1V47
			C36.354,47.553,35.906,48,35.354,48z M25.039,46h9.314V23.019h-9.314V46z"/>
		<path d="M46.671,48H35.354c-0.553,0-1-0.447-1-1V34.511c0-0.553,0.447-1,1-1h11.317c0.553,0,1,0.447,1,1V47
			C47.671,47.553,47.224,48,46.671,48z M36.354,46h9.317V35.511h-9.317V46z"/>
	</g>
	<g>
		<path d="M43.912,17.172c-0.172,0-0.346-0.044-0.504-0.137L28.753,8.46l-7.434,5.708c-0.349,0.268-0.833,0.276-1.19,0.021
			L4.431,2.962C3.981,2.641,3.877,2.017,4.199,1.567C4.52,1.119,5.143,1.014,5.594,1.335l15.095,10.796l7.379-5.667
			c0.323-0.248,0.765-0.274,1.114-0.07l15.235,8.914c0.477,0.279,0.637,0.892,0.358,1.368C44.59,16.995,44.256,17.172,43.912,17.172
			z"/>
		<path d="M5.263,8.483c-0.471,0-0.89-0.333-0.981-0.813l-1.18-6.178C3.047,1.208,3.119,0.914,3.299,0.686
			c0.179-0.228,0.449-0.366,0.738-0.38l6.502-0.305c0.56-0.006,1.02,0.4,1.046,0.952s-0.4,1.02-0.952,1.046L5.283,2.25l0.964,5.045
			c0.104,0.542-0.252,1.066-0.795,1.17C5.389,8.477,5.325,8.483,5.263,8.483z"/>
	</g>
</g>
</svg>
