<?xml version="1.0" encoding="utf-8"?>
<!-- Generator: Adobe Illustrator 16.0.0, SVG Export Plug-In . SVG Version: 6.00 Build 0)  -->
<!DOCTYPE svg PUBLIC "-//W3C//DTD SVG 1.1//EN" "http://www.w3.org/Graphics/SVG/1.1/DTD/svg11.dtd">
<svg version="1.1" id="Layer_1" xmlns="http://www.w3.org/2000/svg" xmlns:xlink="http://www.w3.org/1999/xlink" x="0px" y="0px"
	 width="48px" height="48px" viewBox="0 0 48 48" enable-background="new 0 0 48 48" xml:space="preserve">
<g>
	<path d="M47,47.917H1c-0.552,0-1-0.447-1-1V1.083c0-0.552,0.448-1,1-1s1,0.448,1,1v44.834h45c0.553,0,1,0.447,1,1
		S47.553,47.917,47,47.917z"/>
	<path d="M13.915,42.482H6.163c-0.552,0-1-0.447-1-1v-13.19c0-0.553,0.448-1,1-1h7.752c0.552,0,1,0.447,1,1v13.19
		C14.915,42.035,14.467,42.482,13.915,42.482z M7.163,40.482h5.752v-11.19H7.163V40.482z"/>
	<path d="M28.998,42.482h-7.752c-0.552,0-1-0.447-1-1V5.309c0-0.552,0.448-1,1-1h7.752c0.553,0,1,0.448,1,1v36.173
		C29.998,42.035,29.551,42.482,28.998,42.482z M22.246,40.482h5.752V6.309h-5.752V40.482z"/>
	<path d="M44.079,42.482h-7.748c-0.553,0-1-0.447-1-1V15.1c0-0.552,0.447-1,1-1h7.748c0.553,0,1,0.448,1,1v26.382
		C45.079,42.035,44.632,42.482,44.079,42.482z M37.331,40.482h5.748V16.1h-5.748V40.482z"/>
</g>
</svg>
