<?xml version="1.0" encoding="utf-8"?>
<!-- Generator: Adobe Illustrator 16.0.0, SVG Export Plug-In . SVG Version: 6.00 Build 0)  -->
<!DOCTYPE svg PUBLIC "-//W3C//DTD SVG 1.1//EN" "http://www.w3.org/Graphics/SVG/1.1/DTD/svg11.dtd">
<svg version="1.1" id="Layer_1" xmlns="http://www.w3.org/2000/svg" xmlns:xlink="http://www.w3.org/1999/xlink" x="0px" y="0px"
	 width="48px" height="48px" viewBox="0 0 48 48" enable-background="new 0 0 48 48" xml:space="preserve">
<g>
	<g>
		<path d="M1,48.051c-0.552,0-1-0.447-1-1V35.264c0-0.553,0.448-1,1-1s1,0.447,1,1v11.787C2,47.604,1.552,48.051,1,48.051z"/>
		<path d="M16.332,48.051c-0.552,0-1-0.447-1-1v-19.21c0-0.553,0.448-1,1-1s1,0.447,1,1v19.21
			C17.332,47.604,16.884,48.051,16.332,48.051z"/>
		<path d="M31.665,48.051c-0.553,0-1-0.447-1-1V19.928c0-0.552,0.447-1,1-1s1,0.448,1,1v27.123
			C32.665,47.604,32.218,48.051,31.665,48.051z"/>
		<path d="M47,48.051c-0.553,0-1-0.447-1-1V3.657c0-0.552,0.447-1,1-1s1,0.448,1,1v43.394C48,47.604,47.553,48.051,47,48.051z"/>
	</g>
	<path d="M6.083,23.519c-2.615,0-4.34-0.375-4.4-0.388c-0.538-0.124-0.873-0.66-0.75-1.198c0.123-0.538,0.658-0.875,1.197-0.751
		c0.799,0.183,19.662,4.206,26.503-17.821c0.163-0.527,0.723-0.823,1.252-0.659c0.527,0.164,0.822,0.724,0.658,1.251
		C25.226,21.077,12.758,23.519,6.083,23.519z"/>
	<path d="M33.143,9.532c-0.396,0-0.771-0.237-0.928-0.626l-2.448-6.069L24.455,5.54c-0.494,0.25-1.095,0.053-1.345-0.438
		c-0.25-0.492-0.055-1.094,0.438-1.345l6.284-3.199c0.251-0.127,0.542-0.144,0.805-0.045c0.263,0.098,0.472,0.302,0.577,0.563
		l2.857,7.081c0.206,0.512-0.041,1.095-0.554,1.301C33.395,9.508,33.268,9.532,33.143,9.532z"/>
</g>
</svg>
