<?xml version="1.0" encoding="utf-8"?>
<!-- Generator: Adobe Illustrator 16.0.0, SVG Export Plug-In . SVG Version: 6.00 Build 0)  -->
<!DOCTYPE svg PUBLIC "-//W3C//DTD SVG 1.1//EN" "http://www.w3.org/Graphics/SVG/1.1/DTD/svg11.dtd">
<svg version="1.1" id="Layer_1" xmlns="http://www.w3.org/2000/svg" xmlns:xlink="http://www.w3.org/1999/xlink" x="0px" y="0px"
	 width="48px" height="48px" viewBox="0 0 48 48" enable-background="new 0 0 48 48" xml:space="preserve">
<g>
	<g>
		<path d="M38.286,48H9.714c-1.654,0-3-1.346-3-3V3c0-1.654,1.346-3,3-3h28.572c1.654,0,3,1.346,3,3v42
			C41.286,46.654,39.94,48,38.286,48z M9.714,2c-0.551,0-1,0.449-1,1v42c0,0.552,0.449,1,1,1h28.572c0.552,0,1-0.448,1-1V3
			c0-0.551-0.448-1-1-1H9.714z"/>
	</g>
	<g>
		<path d="M15.39,13.184h-1.616c-0.552,0-1-0.448-1-1s0.448-1,1-1h1.616c0.552,0,1,0.448,1,1S15.942,13.184,15.39,13.184z"/>
		<path d="M34.229,13.184H20.266c-0.552,0-1-0.448-1-1s0.448-1,1-1h13.962c0.553,0,1,0.448,1,1S34.781,13.184,34.229,13.184z"/>
		<path d="M15.39,21.061h-1.616c-0.552,0-1-0.448-1-1s0.448-1,1-1h1.616c0.552,0,1,0.448,1,1S15.942,21.061,15.39,21.061z"/>
		<path d="M34.229,21.061H20.266c-0.552,0-1-0.448-1-1s0.448-1,1-1h13.962c0.553,0,1,0.448,1,1S34.781,21.061,34.229,21.061z"/>
		<path d="M15.39,28.938h-1.616c-0.552,0-1-0.447-1-1s0.448-1,1-1h1.616c0.552,0,1,0.447,1,1S15.942,28.938,15.39,28.938z"/>
		<path d="M34.229,28.938H20.266c-0.552,0-1-0.447-1-1s0.448-1,1-1h13.962c0.553,0,1,0.447,1,1S34.781,28.938,34.229,28.938z"/>
		<path d="M15.39,36.816h-1.616c-0.552,0-1-0.447-1-1s0.448-1,1-1h1.616c0.552,0,1,0.447,1,1S15.942,36.816,15.39,36.816z"/>
		<path d="M34.229,36.816H20.266c-0.552,0-1-0.447-1-1s0.448-1,1-1h13.962c0.553,0,1,0.447,1,1S34.781,36.816,34.229,36.816z"/>
	</g>
</g>
</svg>
