<?xml version="1.0" encoding="utf-8"?>
<!-- Generator: Adobe Illustrator 16.0.0, SVG Export Plug-In . SVG Version: 6.00 Build 0)  -->
<!DOCTYPE svg PUBLIC "-//W3C//DTD SVG 1.1//EN" "http://www.w3.org/Graphics/SVG/1.1/DTD/svg11.dtd">
<svg version="1.1" id="Layer_1" xmlns="http://www.w3.org/2000/svg" xmlns:xlink="http://www.w3.org/1999/xlink" x="0px" y="0px"
	 width="48px" height="48px" viewBox="0 0 48 48" enable-background="new 0 0 48 48" xml:space="preserve">
<g>
	<path d="M29.025,11.666H15.189c-0.552,0-1-0.448-1-1s0.448-1,1-1h13.836c0.553,0,1,0.448,1,1S29.578,11.666,29.025,11.666z"/>
	<path d="M29.025,19.474H15.189c-0.552,0-1-0.448-1-1s0.448-1,1-1h13.836c0.553,0,1,0.448,1,1S29.578,19.474,29.025,19.474z"/>
	<path d="M29.025,27.281H15.189c-0.552,0-1-0.447-1-1s0.448-1,1-1h13.836c0.553,0,1,0.447,1,1S29.578,27.281,29.025,27.281z"/>
	<g>
		<path d="M31.471,47.796h-18.15c-0.552,0-1-0.447-1-1s0.448-1,1-1h18.15c2.483,0,4.504-2.282,4.504-5.087V7.291
			c0-0.552,0.447-1,1-1s1,0.448,1,1v33.418C37.975,44.617,35.057,47.796,31.471,47.796z"/>
		<path d="M7.825,36.743c-0.552,0-1-0.447-1-1V7.291c0-3.908,2.914-7.087,6.496-7.087h28.695c0.553,0,1,0.448,1,1s-0.447,1-1,1
			H13.321c-2.479,0-4.496,2.282-4.496,5.087v28.452C8.825,36.296,8.377,36.743,7.825,36.743z"/>
		<path d="M5.989,47.796C2.687,47.796,0,44.869,0,41.271c0-3.6,2.687-6.528,5.989-6.528h26.657c0.553,0,1,0.447,1,1s-0.447,1-1,1
			H5.989C3.79,36.743,2,38.774,2,41.271c0,2.495,1.79,4.524,3.989,4.524c0.161,0,26.655-0.045,26.655-0.045l0.004,2
			C32.648,47.751,6.129,47.796,5.989,47.796z"/>
		<path d="M32.034,47.796c-3.303,0-5.99-2.927-5.99-6.524s2.688-6.525,5.99-6.525s5.989,2.928,5.989,6.525
			S35.337,47.796,32.034,47.796z M32.034,36.746c-2.2,0-3.99,2.03-3.99,4.525s1.79,4.524,3.99,4.524
			c2.199,0,3.989-2.029,3.989-4.524S34.233,36.746,32.034,36.746z"/>
		<path d="M42.016,13.254c-3.304,0-5.992-2.926-5.992-6.523c0-3.6,2.688-6.528,5.992-6.528C45.315,0.204,48,3.133,48,6.731
			C48,10.328,45.315,13.254,42.016,13.254z M42.016,2.203c-2.201,0-3.992,2.031-3.992,4.528c0,2.494,1.791,4.523,3.992,4.523
			c2.197,0,3.984-2.029,3.984-4.523C46,4.235,44.213,2.204,42.016,2.203z"/>
	</g>
</g>
</svg>
