<?xml version="1.0" encoding="utf-8"?>
<!-- Generator: Adobe Illustrator 16.0.0, SVG Export Plug-In . SVG Version: 6.00 Build 0)  -->
<!DOCTYPE svg PUBLIC "-//W3C//DTD SVG 1.1//EN" "http://www.w3.org/Graphics/SVG/1.1/DTD/svg11.dtd">
<svg version="1.1" id="Layer_1" xmlns="http://www.w3.org/2000/svg" xmlns:xlink="http://www.w3.org/1999/xlink" x="0px" y="0px"
	 width="48px" height="48px" viewBox="0 0 48 48" enable-background="new 0 0 48 48" xml:space="preserve">
<g>
	<path d="M38.213,46.875c-0.199,0-0.399-0.06-0.571-0.18l-13.644-9.494l-13.643,9.494c-0.349,0.245-0.814,0.239-1.159-0.012
		c-0.344-0.25-0.493-0.69-0.369-1.098l4.812-15.911L0.396,19.631c-0.339-0.257-0.478-0.701-0.347-1.106
		c0.132-0.405,0.505-0.682,0.931-0.691l16.615-0.337l5.459-15.701c0.14-0.402,0.519-0.671,0.944-0.671s0.805,0.27,0.944,0.671
		l5.461,15.701l16.617,0.337c0.426,0.009,0.799,0.286,0.931,0.691s-0.008,0.849-0.347,1.106L34.359,29.675l4.811,15.911
		c0.123,0.407-0.024,0.848-0.369,1.098C38.626,46.812,38.419,46.875,38.213,46.875z M23.998,34.982c0.2,0,0.399,0.06,0.571,0.179
		l11.854,8.25l-4.179-13.823c-0.121-0.399,0.02-0.833,0.353-1.086l11.507-8.727l-14.437-0.292c-0.418-0.009-0.786-0.276-0.924-0.671
		L23.998,5.169l-4.744,13.642c-0.137,0.395-0.506,0.663-0.924,0.671L3.896,19.775l11.506,8.727c0.333,0.253,0.474,0.687,0.353,1.086
		l-4.181,13.823l11.853-8.249C23.599,35.042,23.798,34.982,23.998,34.982z"/>
</g>
</svg>
