<?xml version="1.0" encoding="utf-8"?>
<!-- Generator: Adobe Illustrator 16.0.0, SVG Export Plug-In . SVG Version: 6.00 Build 0)  -->
<!DOCTYPE svg PUBLIC "-//W3C//DTD SVG 1.1//EN" "http://www.w3.org/Graphics/SVG/1.1/DTD/svg11.dtd">
<svg version="1.1" id="Layer_1" xmlns="http://www.w3.org/2000/svg" xmlns:xlink="http://www.w3.org/1999/xlink" x="0px" y="0px"
	 width="48px" height="48px" viewBox="0 0 48 48" enable-background="new 0 0 48 48" xml:space="preserve">
<g>
	<path d="M27.2,48c-0.241,0-0.476-0.087-0.658-0.248C26.324,47.563,26.2,47.288,26.2,47v-9.813c0-0.464,0.319-0.867,0.771-0.974
		c4.544-1.071,8.172-4.7,9.241-9.245c0.106-0.451,0.51-0.771,0.974-0.771h9.813c0.288,0,0.563,0.124,0.752,0.341
		c0.19,0.218,0.277,0.506,0.239,0.791c-1.432,10.733-9.927,19.229-20.658,20.661C27.288,47.997,27.244,48,27.2,48z M28.2,37.956
		v7.871c8.925-1.667,15.959-8.703,17.627-17.629h-7.873C36.575,32.857,32.858,36.575,28.2,37.956z"/>
	<path d="M21.03,48c-0.044,0-0.088-0.003-0.132-0.009C8.985,46.398,0.002,36.135,0.002,24.117C0.002,10.819,10.819,0,24.115,0
		c11.95,0,22.166,8.885,23.847,20.703c0.036,0.104,0.056,0.215,0.056,0.332c0,0.552-0.447,1-1,1c-0.005,0-0.012,0.001-0.02,0h-9.813
		c-0.464,0-0.867-0.319-0.974-0.771c-1.331-5.655-6.306-9.605-12.097-9.605c-6.872,0-12.462,5.589-12.462,12.459
		c0,5.792,3.95,10.766,9.606,12.097c0.452,0.106,0.771,0.51,0.771,0.974V47c0,0.288-0.125,0.563-0.341,0.753
		C21.505,47.913,21.271,48,21.03,48z M24.115,2C11.922,2,2.002,11.922,2.002,24.117c0,10.636,7.672,19.773,18.028,21.71v-7.869
		C13.88,36.157,9.653,30.575,9.653,24.117c0-7.973,6.488-14.459,14.462-14.459c6.458,0,12.04,4.228,13.84,10.376h7.87
		C43.888,9.675,34.75,2,24.115,2z"/>
</g>
</svg>
