<?xml version="1.0" encoding="utf-8"?>
<!-- Generator: Adobe Illustrator 16.0.0, SVG Export Plug-In . SVG Version: 6.00 Build 0)  -->
<!DOCTYPE svg PUBLIC "-//W3C//DTD SVG 1.1//EN" "http://www.w3.org/Graphics/SVG/1.1/DTD/svg11.dtd">
<svg version="1.1" id="Layer_1" xmlns="http://www.w3.org/2000/svg" xmlns:xlink="http://www.w3.org/1999/xlink" x="0px" y="0px"
	 width="48px" height="48px" viewBox="0 0 48 48" enable-background="new 0 0 48 48" xml:space="preserve">
<g>
	<path d="M46.932,48H1.068c-0.552,0-1-0.447-1-1V1c0-0.552,0.448-1,1-1s1,0.448,1,1v45h44.864c0.553,0,1,0.447,1,1
		S47.484,48,46.932,48z"/>
	<path d="M42.07,48c-0.553,0-1-0.447-1-1c0-22.061-17.945-40.009-40.002-40.009c-0.552,0-1-0.448-1-1s0.448-1,1-1
		C24.228,4.991,43.07,23.836,43.07,47C43.07,47.553,42.623,48,42.07,48z"/>
	<path d="M30.367,17.333c-0.273,0-0.546-0.112-0.744-0.332c-0.369-0.411-0.335-1.043,0.075-1.412l6.701-6.023
		c0.411-0.369,1.042-0.336,1.413,0.075c0.369,0.411,0.335,1.043-0.075,1.412l-6.701,6.023
		C30.845,17.249,30.605,17.333,30.367,17.333z"/>
	<path d="M18.042,9.802c-0.168,0-0.339-0.042-0.496-0.132c-0.479-0.275-0.645-0.886-0.371-1.365l3.53-6.16
		C20.98,1.666,21.591,1.5,22.07,1.774c0.479,0.275,0.645,0.886,0.371,1.365l-3.53,6.16C18.726,9.622,18.389,9.802,18.042,9.802z"/>
	<path d="M38.455,31.128c-0.364,0-0.715-0.199-0.892-0.545c-0.251-0.492-0.057-1.094,0.436-1.346l7.108-3.633
		c0.492-0.25,1.095-0.056,1.346,0.436c0.251,0.492,0.057,1.094-0.436,1.346l-7.108,3.633C38.764,31.093,38.608,31.128,38.455,31.128
		z"/>
</g>
</svg>
