<?xml version="1.0" encoding="utf-8"?>
<!-- Generator: Adobe Illustrator 16.0.0, SVG Export Plug-In . SVG Version: 6.00 Build 0)  -->
<!DOCTYPE svg PUBLIC "-//W3C//DTD SVG 1.1//EN" "http://www.w3.org/Graphics/SVG/1.1/DTD/svg11.dtd">
<svg version="1.1" id="Layer_1" xmlns="http://www.w3.org/2000/svg" xmlns:xlink="http://www.w3.org/1999/xlink" x="0px" y="0px"
	 width="48px" height="48px" viewBox="0 0 48 48" enable-background="new 0 0 48 48" xml:space="preserve">
<g>
	<path d="M40.813,43.195H7.186C3.224,43.195,0,39.971,0,36.008V17.124c0-3.963,3.224-7.187,7.186-7.187h21.138V5.806
		c0-0.552,0.447-1,1-1h9.119c0.553,0,1,0.448,1,1v4.131h1.369c3.963,0,7.188,3.224,7.188,7.187v18.884
		C48,39.971,44.775,43.195,40.813,43.195z M7.186,11.937C4.327,11.937,2,14.264,2,17.124v18.884c0,2.86,2.327,5.188,5.186,5.188
		h33.626c2.86,0,5.188-2.327,5.188-5.188V17.124c0-2.86-2.327-5.187-5.188-5.187h-2.369c-0.553,0-1-0.448-1-1V6.806h-7.119v4.131
		c0,0.552-0.447,1-1,1H7.186z"/>
	<path d="M28.064,38.094c-6.527,0-11.837-5.31-11.837-11.835s5.31-11.834,11.837-11.834c6.524,0,11.832,5.309,11.832,11.834
		S34.589,38.094,28.064,38.094z M28.064,16.425c-5.424,0-9.837,4.412-9.837,9.834c0,5.423,4.413,9.835,9.837,9.835
		c5.422,0,9.832-4.412,9.832-9.835C37.896,20.836,33.486,16.425,28.064,16.425z"/>
	<path d="M9.102,36.241c-0.552,0-1-0.447-1-1V17.278c0-0.552,0.448-1,1-1s1,0.448,1,1v17.963
		C10.102,35.794,9.654,36.241,9.102,36.241z"/>
</g>
</svg>
