<?xml version="1.0" encoding="utf-8"?>
<!-- Generator: Adobe Illustrator 16.0.0, SVG Export Plug-In . SVG Version: 6.00 Build 0)  -->
<!DOCTYPE svg PUBLIC "-//W3C//DTD SVG 1.1//EN" "http://www.w3.org/Graphics/SVG/1.1/DTD/svg11.dtd">
<svg version="1.1" id="Layer_1" xmlns="http://www.w3.org/2000/svg" xmlns:xlink="http://www.w3.org/1999/xlink" x="0px" y="0px"
	 width="48px" height="48px" viewBox="0 0 48 48" enable-background="new 0 0 48 48" xml:space="preserve">
<g>
	<g>
		<path d="M24.003,42.723c-5.845,0-10.6-4.906-10.6-10.938c0-6.03,4.755-10.937,10.6-10.937c5.844,0,10.599,4.907,10.599,10.937
			C34.602,37.816,29.847,42.723,24.003,42.723z M24.003,22.848c-4.742,0-8.6,4.009-8.6,8.937s3.858,8.938,8.6,8.938
			c4.741,0,8.599-4.01,8.599-8.938S28.744,22.848,24.003,22.848z"/>
		<path d="M40.661,48H7.343c-3.933,0-7.132-3.294-7.132-7.343V22.915c0-4.051,3.199-7.346,7.132-7.346h9.517v-3.385
			c0-0.552,0.448-1,1-1h12.287c0.553,0,1,0.448,1,1v3.385h9.515c3.93,0,7.127,3.295,7.127,7.346v17.741
			C47.788,44.706,44.591,48,40.661,48z M7.343,17.569c-2.83,0-5.132,2.398-5.132,5.346v17.742C2.211,43.604,4.513,46,7.343,46
			h33.318c2.827,0,5.127-2.397,5.127-5.344V22.915c0-2.948-2.3-5.346-5.127-5.346H30.146c-0.553,0-1-0.448-1-1v-3.385H18.86v3.385
			c0,0.552-0.448,1-1,1H7.343z"/>
	</g>
	<g>
		<path d="M33.307,13.154H13.499c-1.654,0-3-1.346-3-3V3c0-1.654,1.346-3,3-3h19.808c1.654,0,3,1.346,3,3v7.154
			C36.307,11.808,34.961,13.154,33.307,13.154z M13.499,2c-0.551,0-1,0.449-1,1v7.154c0,0.551,0.449,1,1,1h19.808
			c0.552,0,1-0.449,1-1V3c0-0.551-0.448-1-1-1H13.499z"/>
	</g>
	<path d="M28.583,7.576H18.225c-0.552,0-1-0.448-1-1s0.448-1,1-1h10.358c0.553,0,1,0.448,1,1S29.136,7.576,28.583,7.576z"/>
</g>
</svg>
