<?xml version="1.0" encoding="utf-8"?>
<!-- Generator: Adobe Illustrator 16.0.0, SVG Export Plug-In . SVG Version: 6.00 Build 0)  -->
<!DOCTYPE svg PUBLIC "-//W3C//DTD SVG 1.1//EN" "http://www.w3.org/Graphics/SVG/1.1/DTD/svg11.dtd">
<svg version="1.1" id="Layer_1" xmlns="http://www.w3.org/2000/svg" xmlns:xlink="http://www.w3.org/1999/xlink" x="0px" y="0px"
	 width="48px" height="48px" viewBox="0 0 48 48" enable-background="new 0 0 48 48" xml:space="preserve">
<g>
	<path d="M39.122,31.277l-1.398-1.43l8.143-7.957C42.87,12.527,33.965,6.039,24,6.039c-9.964,0-18.87,6.49-21.866,15.854
		l7.638,7.497L8.37,30.817l-8.071-7.922c-0.263-0.258-0.362-0.64-0.26-0.993C3.099,11.384,12.952,4.039,24,4.039
		c11.05,0,20.902,7.346,23.96,17.863c0.104,0.354,0.003,0.737-0.261,0.995L39.122,31.277z"/>
	<path d="M23.979,43.961c-1.615,0-3.13-0.625-4.265-1.758L8.781,31.27c-1.135-1.136-1.76-2.65-1.76-4.266s0.625-3.129,1.76-4.263
		l10.932-10.933c1.135-1.136,2.65-1.762,4.266-1.762c1.615,0,3.13,0.626,4.265,1.762l10.932,10.933
		c1.136,1.133,1.761,2.647,1.761,4.263s-0.625,3.13-1.761,4.266L28.243,42.202C27.108,43.336,25.594,43.961,23.979,43.961z
		 M23.979,12.046c-1.081,0-2.094,0.417-2.851,1.176L10.195,24.155c-0.757,0.757-1.174,1.769-1.174,2.849
		c0,1.081,0.417,2.094,1.174,2.852l10.932,10.933c0.757,0.756,1.77,1.173,2.852,1.173c1.081,0,2.094-0.417,2.851-1.173
		l10.932-10.933c0.758-0.758,1.175-1.771,1.175-2.852c0-1.08-0.417-2.092-1.175-2.848L26.829,13.222
		C26.071,12.464,25.06,12.046,23.979,12.046z"/>
	<g>
		<path d="M23.979,19.336c-2.561,0-4.644-2.083-4.644-4.644s2.083-4.644,4.644-4.644c2.561,0,4.644,2.083,4.644,4.644
			S26.54,19.336,23.979,19.336z M23.979,12.048c-1.458,0-2.644,1.186-2.644,2.644s1.186,2.644,2.644,2.644
			c1.458,0,2.644-1.186,2.644-2.644S25.437,12.048,23.979,12.048z"/>
		<path d="M23.979,43.962c-2.561,0-4.644-2.083-4.644-4.644s2.083-4.645,4.644-4.645c2.561,0,4.644,2.084,4.644,4.645
			S26.54,43.962,23.979,43.962z M23.979,36.674c-1.458,0-2.644,1.187-2.644,2.645s1.186,2.644,2.644,2.644
			c1.458,0,2.644-1.186,2.644-2.644S25.437,36.674,23.979,36.674z"/>
	</g>
	<g>
		<path d="M36.29,31.646c-2.561,0-4.644-2.083-4.644-4.644c0-2.56,2.083-4.643,4.644-4.643s4.644,2.083,4.644,4.643
			C40.934,29.563,38.851,31.646,36.29,31.646z M36.29,24.36c-1.458,0-2.644,1.186-2.644,2.643c0,1.458,1.186,2.644,2.644,2.644
			s2.644-1.186,2.644-2.644C38.934,25.546,37.748,24.36,36.29,24.36z"/>
		<path d="M11.663,31.646c-2.56,0-4.643-2.083-4.643-4.644c0-2.56,2.083-4.643,4.643-4.643s4.643,2.083,4.643,4.643
			C16.306,29.563,14.223,31.646,11.663,31.646z M11.663,24.36c-1.458,0-2.643,1.186-2.643,2.643c0,1.458,1.186,2.644,2.643,2.644
			s2.643-1.186,2.643-2.644C14.306,25.546,13.121,24.36,11.663,24.36z"/>
	</g>
</g>
</svg>
