<?xml version="1.0" encoding="utf-8"?>
<!-- Generator: Adobe Illustrator 16.0.0, SVG Export Plug-In . SVG Version: 6.00 Build 0)  -->
<!DOCTYPE svg PUBLIC "-//W3C//DTD SVG 1.1//EN" "http://www.w3.org/Graphics/SVG/1.1/DTD/svg11.dtd">
<svg version="1.1" id="Layer_1" xmlns="http://www.w3.org/2000/svg" xmlns:xlink="http://www.w3.org/1999/xlink" x="0px" y="0px"
	 width="48px" height="48px" viewBox="0 0 48 48" enable-background="new 0 0 48 48" xml:space="preserve">
<g>
	<path d="M24,48C10.767,48,0,37.233,0,24S10.767,0,24,0s24,10.767,24,24S37.233,48,24,48z M24,2C11.869,2,2,11.869,2,24
		s9.869,22,22,22s22-9.869,22-22S36.131,2,24,2z"/>
	<path d="M12.279,24h-2c0-1.449,0.225-2.876,0.669-4.243l1.902,0.618C12.471,21.542,12.279,22.762,12.279,24z M35.158,20.395
		c-0.378-1.169-0.938-2.27-1.664-3.27l1.619-1.175c0.85,1.171,1.505,2.46,1.947,3.831L35.158,20.395z M14.519,17.107l-1.616-1.178
		c0.85-1.166,1.872-2.187,3.038-3.035l1.176,1.618C16.119,15.238,15.246,16.11,14.519,17.107z M30.901,14.526
		c-0.998-0.728-2.097-1.291-3.267-1.672l0.619-1.901c1.371,0.447,2.658,1.105,3.825,1.957L30.901,14.526z M20.386,12.848
		l-0.616-1.902c1.362-0.441,2.786-0.665,4.23-0.666l0.012,2C22.765,12.28,21.549,12.471,20.386,12.848z"/>
	<path d="M41.453,31.759H6.547c-0.413,0-0.783-0.254-0.933-0.639c-0.882-2.279-1.33-4.675-1.33-7.12
		C4.284,13.129,13.128,4.284,24,4.284c10.872,0,19.717,8.845,19.717,19.716c0,2.445-0.448,4.841-1.331,7.12
		C42.236,31.505,41.866,31.759,41.453,31.759z M7.246,29.759h33.508c0.64-1.855,0.963-3.789,0.963-5.759
		c0-9.769-7.947-17.716-17.717-17.716C14.231,6.284,6.284,14.231,6.284,24C6.284,25.97,6.607,27.904,7.246,29.759z"/>
	<path d="M28.634,30.371h-2c0-1.453-1.182-2.635-2.634-2.635c-1.453,0-2.636,1.182-2.636,2.635h-2c0-2.556,2.08-4.635,4.636-4.635
		C26.555,25.736,28.634,27.815,28.634,30.371z"/>
	<rect x="11.491" y="17.913" transform="matrix(0.3343 0.9425 -0.9425 0.3343 31.1346 -6.2546)" width="17.008" height="2"/>
</g>
</svg>
