<?xml version="1.0" encoding="utf-8"?>
<!-- Generator: Adobe Illustrator 16.0.0, SVG Export Plug-In . SVG Version: 6.00 Build 0)  -->
<!DOCTYPE svg PUBLIC "-//W3C//DTD SVG 1.1//EN" "http://www.w3.org/Graphics/SVG/1.1/DTD/svg11.dtd">
<svg version="1.1" id="Layer_1" xmlns="http://www.w3.org/2000/svg" xmlns:xlink="http://www.w3.org/1999/xlink" x="0px" y="0px"
	 width="48px" height="48px" viewBox="0 0 48 48" enable-background="new 0 0 48 48" xml:space="preserve">
<g>
	<path d="M42.68,34.76H5.321c-0.552,0-1-0.447-1-1c0-10.851,8.828-19.679,19.679-19.679c10.852,0,19.68,8.828,19.68,19.679
		C43.68,34.313,43.232,34.76,42.68,34.76z M6.349,32.76h35.303C41.132,23.475,33.413,16.081,24,16.081
		C14.587,16.081,6.869,23.475,6.349,32.76z"/>
	<path d="M43.701,42.229H4.298c-0.552,0-1-0.447-1-1V33.76c0-0.553,0.448-1,1-1h39.403c0.553,0,1,0.447,1,1v7.469
		C44.701,41.781,44.254,42.229,43.701,42.229z M5.298,40.229h37.403V34.76H5.298V40.229z"/>
	<g>
		<path d="M5.988,27.749c-0.097-0.076-9.626-7.774-4.422-21.692c0.163-0.436,0.602-0.7,1.066-0.641
			c0.461,0.061,0.82,0.431,0.865,0.895c0.011,0.11,1.154,11.04,7.679,13.232l-0.637,1.896c-4.871-1.636-7.167-6.911-8.214-10.732
			c-1.859,9.957,4.59,15.227,4.899,15.472L5.988,27.749z"/>
		<path d="M42.013,27.749l-1.238-1.57c0.31-0.246,6.758-5.515,4.898-15.472c-1.046,3.822-3.341,9.096-8.212,10.731l-0.637-1.896
			c6.524-2.192,7.666-13.122,7.677-13.232c0.045-0.463,0.404-0.834,0.865-0.895c0.456-0.062,0.903,0.204,1.066,0.641
			C51.639,19.975,42.109,27.673,42.013,27.749z"/>
	</g>
	<g>
		<rect x="19.512" y="15.396" width="2" height="26.197"/>
		<rect x="26.488" y="15.396" width="2" height="26.197"/>
	</g>
</g>
</svg>
