<?xml version="1.0" encoding="utf-8"?>
<!-- Generator: Adobe Illustrator 16.0.0, SVG Export Plug-In . SVG Version: 6.00 Build 0)  -->
<!DOCTYPE svg PUBLIC "-//W3C//DTD SVG 1.1//EN" "http://www.w3.org/Graphics/SVG/1.1/DTD/svg11.dtd">
<svg version="1.1" id="Layer_1" xmlns="http://www.w3.org/2000/svg" xmlns:xlink="http://www.w3.org/1999/xlink" x="0px" y="0px"
	 width="48px" height="48px" viewBox="0 0 48 48" enable-background="new 0 0 48 48" xml:space="preserve">
<g>
	<path d="M6.642,47.999c-0.724,0-1.436-0.245-2.003-0.691l-1.417-1.113c-0.681-0.536-1.113-1.307-1.215-2.171
		c-0.103-0.862,0.136-1.711,0.671-2.39l7.751-9.862l-7.333-5.763c-0.208-0.164-0.344-0.403-0.375-0.667
		c-0.032-0.264,0.042-0.528,0.207-0.737L20.17,2.664c0.447-0.57,0.94-1.108,1.463-1.6c0.242-0.227,0.583-0.317,0.907-0.246
		c0.324,0.074,0.59,0.304,0.71,0.614c0.336,0.869,0.896,1.628,1.619,2.195c0.922,0.724,2.025,1.106,3.193,1.106
		c1.601,0,3.084-0.721,4.069-1.977c0.215-0.274,0.401-0.568,0.554-0.871c0.12-0.239,0.331-0.42,0.585-0.502
		c0.255-0.083,0.532-0.06,0.769,0.063c0.575,0.298,1.224,0.456,1.874,0.456c1.247,0,2.41-0.558,3.19-1.53
		c0.264-0.328,0.703-0.455,1.1-0.322c0.108,0.036,0.211,0.091,0.302,0.163c6.273,4.933,7.361,14.056,2.426,20.336L25.688,42.49
		c-0.341,0.434-0.97,0.511-1.404,0.168l-7.334-5.763l-7.751,9.865C8.581,47.548,7.648,47.999,6.642,47.999z M5.117,25.055
		l7.333,5.763c0.209,0.164,0.344,0.403,0.375,0.667c0.032,0.264-0.042,0.528-0.207,0.737l-8.37,10.649
		c-0.205,0.26-0.296,0.585-0.256,0.917c0.04,0.333,0.205,0.629,0.465,0.834l1.417,1.113c0.524,0.411,1.344,0.31,1.752-0.211
		l8.369-10.651c0.164-0.208,0.404-0.343,0.667-0.375c0.265-0.031,0.529,0.043,0.737,0.207l7.334,5.763l16.624-21.152
		c4.066-5.175,3.39-12.588-1.401-16.946c-1.581,1.408-3.911,1.902-5.961,1.224c-0.092,0.135-0.188,0.267-0.289,0.397
		c-1.369,1.744-3.426,2.743-5.645,2.743c-1.62,0-3.151-0.53-4.428-1.534c-0.611-0.479-1.137-1.056-1.561-1.705
		c-0.113,0.132-0.224,0.267-0.331,0.403L5.117,25.055z"/>
	<path d="M25.339,33.814l-1.574-1.234L35,18.241c5.006-5.778,2.305-10.326,2.187-10.517L38.88,6.66
		c0.152,0.24,3.646,5.951-2.337,12.853L25.339,33.814z"/>
</g>
</svg>
