<?xml version="1.0" encoding="utf-8"?>
<!-- Generator: Adobe Illustrator 16.0.0, SVG Export Plug-In . SVG Version: 6.00 Build 0)  -->
<!DOCTYPE svg PUBLIC "-//W3C//DTD SVG 1.1//EN" "http://www.w3.org/Graphics/SVG/1.1/DTD/svg11.dtd">
<svg version="1.1" id="Layer_1" xmlns="http://www.w3.org/2000/svg" xmlns:xlink="http://www.w3.org/1999/xlink" x="0px" y="0px"
	 width="48px" height="48px" viewBox="0 0 48 48" enable-background="new 0 0 48 48" xml:space="preserve">
<g>
	<path d="M30.46,48c-0.015,0-0.03,0-0.045-0.001c-0.491-0.022-0.894-0.398-0.949-0.887L24.873,6.479l-5.279,20.371
		c-0.114,0.44-0.512,0.749-0.967,0.749l-10.102,0.01l-0.002-2l9.329-0.009l6.439-24.852c0.122-0.467,0.584-0.769,1.039-0.747
		c0.481,0.034,0.869,0.406,0.924,0.885l4.493,39.748l4.733-23.038c0.096-0.467,0.469-0.83,0.985-0.799
		c0.478,0.003,0.886,0.343,0.977,0.811l1.845,9.59H47v2h-8.539c-0.479,0-0.892-0.34-0.982-0.812l-1.051-5.464l-4.988,24.277
		C31.344,47.668,30.933,48,30.46,48z"/>
	<path d="M4.762,31.371C2.136,31.371,0,29.235,0,26.609s2.136-4.762,4.762-4.762c2.625,0,4.762,2.136,4.762,4.762
		S7.388,31.371,4.762,31.371z M4.762,23.847C3.239,23.847,2,25.086,2,26.609c0,1.522,1.239,2.762,2.762,2.762
		s2.762-1.239,2.762-2.762C7.524,25.086,6.285,23.847,4.762,23.847z"/>
</g>
</svg>
