<?xml version="1.0" encoding="utf-8"?>
<!-- Generator: Adobe Illustrator 16.0.0, SVG Export Plug-In . SVG Version: 6.00 Build 0)  -->
<!DOCTYPE svg PUBLIC "-//W3C//DTD SVG 1.1//EN" "http://www.w3.org/Graphics/SVG/1.1/DTD/svg11.dtd">
<svg version="1.1" id="Layer_1" xmlns="http://www.w3.org/2000/svg" xmlns:xlink="http://www.w3.org/1999/xlink" x="0px" y="0px"
	 width="48px" height="48px" viewBox="0 0 48 48" enable-background="new 0 0 48 48" xml:space="preserve">
<g>
	<path d="M20.002,38.639c-1.393,0-2.912-0.29-4.559-0.974c-2.783-1.156-4.702-3.306-5.549-6.215C8.599,27,10.088,22.034,11.56,19.93
		c5.208-7.451,10.324-11.024,15.219-10.632c4.272,0.346,7.175,3.628,8.622,5.75l1.684-4.104l1.85,0.759L31.54,29.726
		C31.493,29.839,27.674,38.639,20.002,38.639z M26.042,11.268c-3.974,0-8.292,3.296-12.843,9.808
		c-1.208,1.728-2.483,6.042-1.384,9.816c0.681,2.34,2.16,3.997,4.396,4.926c8.905,3.706,13.3-6.428,13.483-6.86l4.768-11.623
		c-0.744-1.324-3.521-5.698-7.854-6.043C26.42,11.276,26.231,11.268,26.042,11.268z"/>
	<path d="M23.154,47.791c-6.229,0-12.365-2.863-16.865-7.876c-4.692-5.226-6.925-12.11-6.128-18.889
		C1.89,6.338,15.489-0.526,28.021,0.275c6.085,0.391,11.463,2.994,15.143,7.332c3.558,4.194,5.283,9.753,4.733,15.253
		c-0.492,4.924-2.918,9.332-6.831,12.411c-3.047,2.398-6.702,3.72-9.32,3.353c-1.724-0.239-2.601-1.141-3.032-1.854
		c-1.337-2.208-0.259-5.385-0.132-5.74l1.884,0.674c-0.256,0.72-0.76,2.849-0.039,4.034c0.306,0.503,0.827,0.8,1.595,0.906
		c1.723,0.24,4.804-0.579,7.808-2.943c2.017-1.587,5.488-5.131,6.078-11.039c0.496-4.962-1.06-9.978-4.269-13.76
		c-3.325-3.919-8.207-6.274-13.746-6.629C16.291,1.525,3.73,7.81,2.147,21.26c-0.73,6.208,1.322,12.521,5.63,17.319
		c4.162,4.637,9.834,7.284,15.549,7.211c11.196-0.104,18.142-5.702,21.998-10.38l1.543,1.271
		c-4.126,5.006-11.556,10.997-23.522,11.108C23.282,47.791,23.218,47.791,23.154,47.791z"/>
</g>
</svg>
