<?xml version="1.0" encoding="utf-8"?>
<!-- Generator: Adobe Illustrator 16.0.0, SVG Export Plug-In . SVG Version: 6.00 Build 0)  -->
<!DOCTYPE svg PUBLIC "-//W3C//DTD SVG 1.1//EN" "http://www.w3.org/Graphics/SVG/1.1/DTD/svg11.dtd">
<svg version="1.1" id="Layer_1" xmlns="http://www.w3.org/2000/svg" xmlns:xlink="http://www.w3.org/1999/xlink" x="0px" y="0px"
	 width="48px" height="48px" viewBox="0 0 48 48" enable-background="new 0 0 48 48" xml:space="preserve">
<g>
	<g>
		<path d="M36,32.846H14.907c-6.617,0-12-3.538-12-7.887c0-4.349,5.383-7.887,12-7.887H36c6.617,0,12,3.538,12,7.887
			C48,29.308,42.617,32.846,36,32.846z M14.907,19.072c-5.42,0-10,2.696-10,5.887s4.58,5.887,10,5.887H36c5.421,0,10-2.695,10-5.887
			s-4.579-5.887-10-5.887H14.907z"/>
	</g>
	<g>
		<rect x="13.356" y="18.072" width="2" height="13.774"/>
		<rect x="35.551" y="18.072" width="2" height="13.774"/>
	</g>
	<g>
		<path d="M14.356,40.661c-1.931,0-3.501-1.57-3.501-3.501s1.57-3.501,3.501-3.501s3.501,1.57,3.501,3.501
			S16.287,40.661,14.356,40.661z M14.356,35.659c-0.828,0-1.501,0.673-1.501,1.501s0.673,1.501,1.501,1.501s1.501-0.673,1.501-1.501
			S15.184,35.659,14.356,35.659z"/>
		<path d="M36.55,40.66c-1.93,0-3.5-1.57-3.5-3.5s1.57-3.5,3.5-3.5s3.5,1.57,3.5,3.5S38.479,40.66,36.55,40.66z M36.55,35.66
			c-0.827,0-1.5,0.673-1.5,1.5s0.673,1.5,1.5,1.5s1.5-0.673,1.5-1.5S37.377,35.66,36.55,35.66z"/>
	</g>
	<rect x="18.806" y="33.659" width="13.295" height="2"/>
	<path d="M3.907,27.764H1c-0.552,0-1-0.447-1-1v-2.796c0-0.552,0.448-1,1-1h2.907v2H2v0.796h1.907V27.764z"/>
	<path d="M34.05,16.896h-6.14c-0.553,0-1-0.448-1-1V8.339c0-0.552,0.447-1,1-1h6.14c0.553,0,1,0.448,1,1v7.557
		C35.05,16.448,34.603,16.896,34.05,16.896z M28.91,14.896h4.14V9.339h-4.14V14.896z"/>
	<path d="M26.15,16.895H15.491c-0.552,0-1-0.448-1-1v-3.779c0-0.552,0.448-1,1-1H26.15c0.553,0,1,0.448,1,1v3.779
		C27.15,16.447,26.703,16.895,26.15,16.895z M16.491,14.895h8.659v-1.779h-8.659V14.895z"/>
</g>
</svg>
