<?xml version="1.0" encoding="utf-8"?>
<!-- Generator: Adobe Illustrator 16.0.0, SVG Export Plug-In . SVG Version: 6.00 Build 0)  -->
<!DOCTYPE svg PUBLIC "-//W3C//DTD SVG 1.1//EN" "http://www.w3.org/Graphics/SVG/1.1/DTD/svg11.dtd">
<svg version="1.1" id="Layer_1" xmlns="http://www.w3.org/2000/svg" xmlns:xlink="http://www.w3.org/1999/xlink" x="0px" y="0px"
	 width="48px" height="48px" viewBox="0 0 48 48" enable-background="new 0 0 48 48" xml:space="preserve">
<g>
	<g>
		<path d="M29.354,31.692c-0.763,0-1.52-0.051-2.321-0.105l-1.8-0.116c-1.17-0.079-2.262-0.158-3.37-0.117
			c-0.504,0.015-1.021,0.066-1.535,0.118c-0.642,0.063-1.305,0.129-1.949,0.129l0,0c-0.107,0-0.213-0.002-0.318-0.006
			c-0.04-0.001-0.079-0.005-0.119-0.011L17.8,31.562c-0.193-0.03-0.373-0.117-0.518-0.248c-0.336-0.306-0.506-0.704-0.48-1.122
			c0.01-0.159,0.051-0.354,0.16-0.561c-0.032-0.046-0.065-0.093-0.101-0.143c-0.307-0.109-0.734-0.307-0.927-0.8
			c-0.145-0.371-0.083-0.693,0.006-0.922c-0.069-0.084-0.156-0.173-0.265-0.284c-0.379-0.384-0.897-0.91-1.033-1.911
			c-0.142-1.05-0.021-2.311,0.076-3.325l0.012-0.128c0.204-2.105,1.042-4.622,2.298-6.906c0.738-1.338,4.209-5.698,5.403-6.533
			c1.844-1.294,3.937-2.762,6.404-3.563c2.642-0.859,5.223-1.313,7.464-1.313c3.671,0,6.524,1.16,8.481,3.449
			c3.744,4.383,4.245,9.788,1.308,14.104c-2.904,4.262-7.154,6.717-12.005,9.265C32.274,31.57,30.605,31.692,29.354,31.692z
			 M22.435,29.345c0.981,0,1.929,0.063,2.933,0.13l1.802,0.117c0.767,0.052,1.49,0.101,2.186,0.101c1.538,0,2.675-0.252,3.8-0.843
			c4.608-2.421,8.638-4.74,11.281-8.62c2.443-3.59,2.005-7.957-1.175-11.679c-1.56-1.823-3.901-2.748-6.961-2.748
			c-2.033,0-4.4,0.42-6.846,1.216c-2.183,0.708-4.06,2.025-5.875,3.299c-0.81,0.566-4.083,4.563-4.799,5.859
			c-1.113,2.023-1.883,4.316-2.059,6.132l-0.012,0.128c-0.087,0.911-0.196,2.044-0.084,2.865c0.044,0.327,0.17,0.466,0.476,0.775
			c0.268,0.272,0.602,0.61,0.834,1.142c0.098,0.224,0.12,0.434,0.104,0.618c0.114,0.076,0.223,0.175,0.318,0.305l0.067,0.093
			c0.263,0.361,0.56,0.771,0.692,1.33c0,0.003,0.001,0.005,0.001,0.007c0.327-0.023,0.666-0.057,1.016-0.091
			c0.56-0.056,1.123-0.111,1.672-0.128C22.013,29.348,22.224,29.345,22.435,29.345z"/>
		<path d="M9.612,44.201C9.612,44.201,9.612,44.201,9.612,44.201c-1.754-0.001-3.401-0.856-4.407-2.29
			c-0.799-1.142-1.112-2.52-0.91-3.864c-1.334-0.273-2.53-1.043-3.322-2.173c-1.701-2.427-1.109-5.786,1.318-7.487
			c0.909-0.638,1.975-0.975,3.082-0.975c1.665,0,3.233,0.771,4.248,2.077l5.757-4.036c0.219-0.154,0.49-0.217,0.753-0.165
			c0.263,0.048,0.496,0.198,0.646,0.419c0.096,0.141,0.212,0.254,0.327,0.371c0.266,0.273,0.598,0.613,0.83,1.142
			c0.098,0.224,0.12,0.434,0.104,0.618c0.114,0.076,0.222,0.174,0.316,0.303l0.071,0.099c0.262,0.36,0.558,0.77,0.689,1.327
			c0,0.002,0.001,0.004,0.001,0.006c0.324-0.023,0.66-0.057,1.006-0.092c0.454-0.042,0.884,0.221,1.042,0.646
			c0.159,0.426,0.015,0.905-0.357,1.166l-6.651,4.666c1.516,2.412,0.889,5.62-1.463,7.269C11.784,43.864,10.719,44.201,9.612,44.201
			z M5.574,36.152c0.326,0,0.632,0.158,0.819,0.427c0.196,0.279,0.235,0.641,0.104,0.956c-0.446,1.076-0.317,2.283,0.345,3.229
			c0.631,0.899,1.666,1.437,2.769,1.438c0,0,0,0,0,0c0.694,0,1.362-0.212,1.933-0.612c1.524-1.067,1.894-3.178,0.825-4.705
			c-0.11-0.155-0.238-0.296-0.37-0.43c-0.207-0.21-0.312-0.499-0.285-0.793c0.026-0.293,0.181-0.56,0.422-0.729l5.15-3.613
			c-0.001-0.001-0.002-0.002-0.003-0.003c-0.337-0.305-0.509-0.703-0.484-1.121c0.01-0.16,0.051-0.355,0.161-0.563
			c-0.032-0.046-0.066-0.094-0.101-0.143c-0.307-0.11-0.734-0.307-0.926-0.799c-0.146-0.372-0.083-0.696,0.006-0.925
			c-0.043-0.054-0.091-0.106-0.145-0.163l-5.898,4.134c-0.241,0.17-0.545,0.225-0.829,0.148c-0.285-0.075-0.522-0.271-0.648-0.537
			c-0.081-0.171-0.171-0.34-0.283-0.501c-0.629-0.897-1.664-1.435-2.765-1.435c-0.694,0-1.363,0.212-1.934,0.611
			c-1.525,1.069-1.896,3.179-0.829,4.702c0.628,0.896,1.664,1.431,2.771,1.431l0.15-0.003C5.545,36.152,5.56,36.152,5.574,36.152z"
			/>
	</g>
	<path d="M31.594,25.986l-0.607-1.906c10.138-3.231,9.414-9.834,9.378-10.114l1.981-0.273
		C42.357,13.778,43.405,22.222,31.594,25.986z"/>
</g>
</svg>
