<?xml version="1.0" encoding="utf-8"?>
<!-- Generator: Adobe Illustrator 16.0.0, SVG Export Plug-In . SVG Version: 6.00 Build 0)  -->
<!DOCTYPE svg PUBLIC "-//W3C//DTD SVG 1.1//EN" "http://www.w3.org/Graphics/SVG/1.1/DTD/svg11.dtd">
<svg version="1.1" id="Layer_1" xmlns="http://www.w3.org/2000/svg" xmlns:xlink="http://www.w3.org/1999/xlink" x="0px" y="0px"
	 width="48px" height="48px" viewBox="0 0 48 48" enable-background="new 0 0 48 48" xml:space="preserve">
<g>
	<path d="M42.578,20.476c-1.773,0-3.266-1.223-3.678-2.868h-0.093c-0.428,1.669-1.907,2.868-3.661,2.868
		c-1.772,0-3.265-1.223-3.677-2.868h-0.078c-0.412,1.646-1.904,2.868-3.676,2.868c-1.771,0-3.262-1.223-3.673-2.868h-0.096
		c-0.427,1.669-1.907,2.868-3.662,2.868c-1.772,0-3.264-1.223-3.675-2.868h-0.08c-0.412,1.646-1.903,2.868-3.674,2.868
		c-1.772,0-3.264-1.223-3.676-2.868h-0.08c-0.412,1.646-1.904,2.868-3.676,2.868c-1.771,0-3.263-1.223-3.674-2.868H1
		c-0.392,0-0.749-0.229-0.911-0.586c-0.162-0.357-0.101-0.776,0.158-1.072l8.617-9.858C9.054,5.875,9.329,5.75,9.617,5.75h28.77
		c0.289,0,0.563,0.125,0.753,0.342l8.613,9.858c0.258,0.295,0.319,0.715,0.157,1.072s-0.518,0.586-0.91,0.586h-0.762
		C45.812,19.277,44.332,20.476,42.578,20.476z M37.932,15.608h1.861c0.553,0,1,0.448,1,1c0,0.036-0.005,0.111-0.009,0.146
		c0.003,0.92,0.807,1.722,1.794,1.722c0.985,0,1.787-0.802,1.787-1.787c0-0.389,0.22-0.766,0.543-0.955L37.933,7.75H10.071
		l-6.969,7.972c0.318,0.167,0.536,0.501,0.536,0.886c-0.002,1.066,0.799,1.868,1.785,1.868c0.986,0,1.789-0.802,1.789-1.787
		c0-0.552,0.443-1.081,0.995-1.081h1.863c0.271,0,0.532,0.11,0.72,0.306s0.289,0.46,0.279,0.731
		c-0.003,1.029,0.799,1.831,1.786,1.831c0.985,0,1.787-0.802,1.787-1.787c0-0.552,0.444-1.081,0.996-1.081H17.5c0.552,0,1,0.448,1,1
		c0,0.024-0.003,0.087-0.004,0.111c0,0.956,0.803,1.757,1.789,1.757c0.986,0,1.789-0.802,1.789-1.787
		c0-0.552,0.444-1.081,0.997-1.081h1.862c0.553,0,1,0.448,1,1c-0.002,1.066,0.799,1.868,1.784,1.868
		c0.986,0,1.788-0.802,1.788-1.787c0-0.552,0.443-1.081,0.996-1.081h1.863c0.278,0,0.544,0.116,0.733,0.32s0.285,0.478,0.264,0.755
		c-0.003,0.991,0.8,1.793,1.786,1.793c0.985,0,1.787-0.802,1.787-1.787C36.934,16.137,37.379,15.608,37.932,15.608z"/>
	<path d="M42.743,42.25H5.124c-0.552,0-1-0.447-1-1V19.397h2V40.25h35.619V19.397h2V41.25C43.743,41.803,43.296,42.25,42.743,42.25z
		"/>
	<rect x="5.124" y="28.602" width="37.619" height="2"/>
</g>
</svg>
