<?xml version="1.0" encoding="utf-8"?>
<!-- Generator: Adobe Illustrator 16.0.0, SVG Export Plug-In . SVG Version: 6.00 Build 0)  -->
<!DOCTYPE svg PUBLIC "-//W3C//DTD SVG 1.1//EN" "http://www.w3.org/Graphics/SVG/1.1/DTD/svg11.dtd">
<svg version="1.1" id="Layer_1" xmlns="http://www.w3.org/2000/svg" xmlns:xlink="http://www.w3.org/1999/xlink" x="0px" y="0px"
	 width="48px" height="48px" viewBox="0 0 48 48" enable-background="new 0 0 48 48" xml:space="preserve">
<g>
	<g>
		<path d="M23.425,37.78c-1.366,0-2.733-0.17-4.063-0.506c-9.451-2.386-15.058-12.572-12.5-22.709
			C9.027,5.99,16.311,0.001,24.577,0.001c1.365,0,2.733,0.17,4.064,0.506c4.591,1.159,8.419,4.168,10.777,8.475
			c2.346,4.282,2.957,9.337,1.721,14.233C38.976,31.791,31.691,37.78,23.425,37.78z M24.577,2.001
			c-7.349,0-13.836,5.368-15.775,13.053C6.513,24.122,11.47,33.22,19.851,35.335c1.171,0.296,2.374,0.445,3.574,0.445
			c7.348,0,13.835-5.368,15.775-13.054c1.112-4.406,0.567-8.946-1.535-12.784c-2.089-3.813-5.467-6.475-9.514-7.496
			C26.98,2.15,25.778,2.001,24.577,2.001z"/>
		<path d="M11.506,15.738l-1.939-0.49C11.721,6.718,19.945,1.413,27.908,3.42l-0.49,1.939C20.53,3.618,13.39,8.276,11.506,15.738z"
			/>
		<path d="M21.3,42.013c-0.396,0-0.778-0.046-1.138-0.136c-0.172-0.043-0.347-0.084-0.524-0.124
			c-0.676-0.156-1.441-0.333-2.118-0.692c-0.508-0.266-1.29-0.956-1.399-1.783l-0.028-0.141l0.019-0.246
			c0.038-0.221,0.152-0.894,1.605-2.114c0.379-0.315,0.785-0.572,1.281-0.813l0.157-0.076c0.338-0.167,0.759-0.375,1.209-0.378
			c0.853,0,1.466,0.651,1.69,0.931c0.657,0.82,0.971,1.711,1.275,2.572c0.083,0.232,0.165,0.467,0.255,0.698
			c0.109,0.236,0.334,0.72,0.057,1.296c-0.2,0.42-0.608,0.721-1.179,0.865C22.096,41.965,21.704,42.013,21.3,42.013z M18.205,39.092
			c0.079,0.081,0.178,0.163,0.249,0.2c0.449,0.238,1.051,0.377,1.634,0.512c0.191,0.044,0.38,0.088,0.563,0.134
			c0.27,0.067,0.6,0.09,0.908,0.064c-0.039-0.107-0.077-0.216-0.115-0.322c-0.26-0.737-0.506-1.434-0.95-1.988
			c-0.058-0.072-0.115-0.125-0.158-0.158c-0.07,0.037-0.21,0.105-0.294,0.147l-0.187,0.091c-0.336,0.162-0.604,0.331-0.854,0.539
			C18.615,38.634,18.353,38.907,18.205,39.092z"/>
	</g>
	<path d="M20.081,47.061c-0.168-2.779,2.065-3.219,3.543-3.51l0.156-0.03c1.456-0.29,2.417-0.787,2.552-1.034
		c0.385-1.06-0.487-1.715-2.726-2.871c-1.21-0.625-2.255-1.165-2.731-2.029l1.752-0.965c0.183,0.332,1.173,0.844,1.896,1.217
		c1.888,0.975,4.738,2.447,3.683,5.346c-0.513,1.403-2.749,2.042-4.037,2.298l-0.159,0.032c-1.772,0.349-1.989,0.509-1.934,1.426
		L20.081,47.061z"/>
</g>
</svg>
