<?xml version="1.0" encoding="utf-8"?>
<!-- Generator: Adobe Illustrator 16.0.0, SVG Export Plug-In . SVG Version: 6.00 Build 0)  -->
<!DOCTYPE svg PUBLIC "-//W3C//DTD SVG 1.1//EN" "http://www.w3.org/Graphics/SVG/1.1/DTD/svg11.dtd">
<svg version="1.1" id="Layer_1" xmlns="http://www.w3.org/2000/svg" xmlns:xlink="http://www.w3.org/1999/xlink" x="0px" y="0px"
	 width="48px" height="48px" viewBox="0 0 48 48" enable-background="new 0 0 48 48" xml:space="preserve">
<g>
	<path d="M26.835,48c-0.24,0-0.479-0.087-0.665-0.253L0.336,24.748c-0.213-0.189-0.335-0.462-0.335-0.747s0.122-0.557,0.335-0.747
		L26.17,0.253c0.295-0.262,0.717-0.326,1.074-0.166C27.604,0.249,27.835,0.606,27.835,1v15.723l18.499-16.47
		c0.294-0.262,0.716-0.326,1.074-0.166C47.768,0.249,47.999,0.606,47.999,1v46c0,0.394-0.231,0.751-0.591,0.912
		c-0.358,0.163-0.78,0.097-1.074-0.165L27.835,31.28V47c0,0.394-0.231,0.751-0.591,0.912C27.113,47.972,26.974,48,26.835,48z
		 M26.835,28.052c0.24,0,0.479,0.087,0.665,0.253l18.499,16.467V3.229L27.5,19.699c-0.295,0.262-0.717,0.326-1.074,0.166
		c-0.359-0.162-0.591-0.519-0.591-0.913V3.229L2.505,24.001l23.33,20.77V29.052c0-0.394,0.231-0.751,0.591-0.912
		C26.557,28.08,26.696,28.052,26.835,28.052z"/>
</g>
</svg>
