<?xml version="1.0" encoding="utf-8"?>
<!-- Generator: Adobe Illustrator 16.0.0, SVG Export Plug-In . SVG Version: 6.00 Build 0)  -->
<!DOCTYPE svg PUBLIC "-//W3C//DTD SVG 1.1//EN" "http://www.w3.org/Graphics/SVG/1.1/DTD/svg11.dtd">
<svg version="1.1" id="Layer_1" xmlns="http://www.w3.org/2000/svg" xmlns:xlink="http://www.w3.org/1999/xlink" x="0px" y="0px"
	 width="48px" height="48px" viewBox="0 0 48 48" enable-background="new 0 0 48 48" xml:space="preserve">
<g>
	<g>
		<path d="M34.5,48h-21c-1.267,0-2.46-0.496-3.36-1.396c-0.9-0.9-1.396-2.094-1.396-3.36V18.847c0-2.389,1.798-4.411,4.183-4.703
			c0.09-0.01,0.09-0.01,3.983-0.016c0.798-0.001,1.566-0.002,2.128-0.003L20.358,0h8.036l1.318,14.128
			c0.543,0.001,1.298,0.003,2.063,0.005c3.275,0.008,3.279,0.009,3.372,0.021c2.35,0.334,4.109,2.351,4.109,4.693v24.396
			C39.257,45.866,37.123,48,34.5,48z M22.18,2l-1.312,14.048l-0.834,0.07c-0.063,0.005-0.063,0.005-3.121,0.01
			c-1.771,0.003-3.688,0.005-3.837,0.008c-1.29,0.163-2.333,1.331-2.333,2.71v24.396c0,0.733,0.287,1.424,0.81,1.946
			S12.768,46,13.5,46h21c1.521,0,2.757-1.236,2.757-2.757V18.847c0-1.335-0.994-2.487-2.32-2.703
			c-0.31-0.004-1.757-0.007-3.166-0.011c-2.991-0.008-2.994-0.008-3.079-0.017l-0.811-0.089L26.571,2H22.18z"/>
		<rect x="20.833" y="3.394" width="7.085" height="2"/>
	</g>
	<g>
		<polygon points="25.748,40.618 14.49,40.618 14.49,23.941 25.605,23.941 25.605,25.941 16.49,25.941 16.49,38.618 25.748,38.618 
					"/>
		<polygon points="33.51,40.618 22.252,40.618 22.252,38.618 31.51,38.618 31.51,25.941 22.394,25.941 22.394,23.941 33.51,23.941 
					"/>
	</g>
</g>
</svg>
