<?xml version="1.0" encoding="utf-8"?>
<!-- Generator: Adobe Illustrator 16.0.0, SVG Export Plug-In . SVG Version: 6.00 Build 0)  -->
<!DOCTYPE svg PUBLIC "-//W3C//DTD SVG 1.1//EN" "http://www.w3.org/Graphics/SVG/1.1/DTD/svg11.dtd">
<svg version="1.1" id="Layer_1" xmlns="http://www.w3.org/2000/svg" xmlns:xlink="http://www.w3.org/1999/xlink" x="0px" y="0px"
	 width="48px" height="48px" viewBox="0 0 48 48" enable-background="new 0 0 48 48" xml:space="preserve">
<g>
	<polygon points="14.037,37.995 -0.375,37.995 4.919,21.673 6.821,22.291 2.375,35.995 12.479,35.995 16.235,21.081 18.175,21.569 	
		"/>
	<path d="M20.96,30.507c-1.811,0-3.827-0.587-5.919-2.066l1.155-1.633c3.161,2.235,6.51,2.272,8.96,0.098
		c2.04-1.813,2.782-4.645,1.727-6.589l1.758-0.954c1.512,2.785,0.604,6.586-2.156,9.039C25.122,29.61,23.198,30.506,20.96,30.507z"
		/>
	<path d="M21.426,26.548c-2.721-1.878-3.59-5.487-3.626-5.64l1.947-0.457c0.007,0.03,0.739,3.018,2.815,4.451L21.426,26.548z"/>
	<path d="M44.48,19.33c-1.973,0-3.519-2.048-3.519-4.663s1.546-4.663,3.519-4.663c1.974,0,3.52,2.048,3.52,4.663
		S46.454,19.33,44.48,19.33z M44.48,12.004c-0.718,0-1.519,1.094-1.519,2.663s0.801,2.663,1.519,2.663
		c0.719,0,1.52-1.094,1.52-2.663S45.199,12.004,44.48,12.004z"/>
	<path d="M3.234,23.138l4.98-11.066h4.887l3.508-2.068h28.554l0.338,1.898l-1.082,0.12c-0.703,0.063-1.456,1.142-1.456,2.645
		c0,1.401,0.657,2.436,1.292,2.627l0.886,0.268l-0.354,1.618l-0.743,0.139L3.234,23.138z M9.507,14.072l-3.04,6.754l35.224-3.296
		c-0.461-0.793-0.729-1.79-0.729-2.863c0-0.995,0.228-1.911,0.621-2.663H17.155l-3.508,2.068H9.507z"/>
	<rect x="17.205" y="13.667" width="7.385" height="2"/>
	<rect x="9.517" y="21.03" transform="matrix(0.9638 0.2666 -0.2666 0.9638 8.1542 -1.7484)" width="2" height="16.26"/>
</g>
</svg>
