<?xml version="1.0" encoding="utf-8"?>
<!-- Generator: Adobe Illustrator 16.0.0, SVG Export Plug-In . SVG Version: 6.00 Build 0)  -->
<!DOCTYPE svg PUBLIC "-//W3C//DTD SVG 1.1//EN" "http://www.w3.org/Graphics/SVG/1.1/DTD/svg11.dtd">
<svg version="1.1" id="Layer_1" xmlns="http://www.w3.org/2000/svg" xmlns:xlink="http://www.w3.org/1999/xlink" x="0px" y="0px"
	 width="48px" height="48px" viewBox="0 0 48 48" enable-background="new 0 0 48 48" xml:space="preserve">
<g>
	<path d="M31.732,14.407H16.27l0.07-1.066c0.173-2.603,1.689-4.935,3.916-6.189c-0.522-0.752-0.813-1.654-0.813-2.594
		C19.443,2.045,21.487,0,24,0c2.514,0,4.559,2.045,4.559,4.558c0,0.939-0.291,1.841-0.813,2.594
		c2.226,1.254,3.742,3.586,3.916,6.189L31.732,14.407z M18.512,12.407H29.49c-0.493-1.85-1.913-3.379-3.774-3.969L24,7.895
		l-1.714,0.543C20.424,9.028,19.004,10.557,18.512,12.407z M24,2c-1.41,0-2.557,1.147-2.557,2.558c0,0.839,0.414,1.625,1.108,2.104
		l1.449,1l1.45-1c0.694-0.479,1.108-1.265,1.108-2.104C26.559,3.147,25.411,2,24,2z"/>
	<g>
		<path d="M48.068,48H32.604l0.07-1.066c0.174-2.604,1.69-4.936,3.917-6.188c-0.521-0.753-0.812-1.655-0.812-2.595
			c0-2.514,2.045-4.56,4.558-4.56c2.515,0,4.56,2.046,4.56,4.56c0,0.939-0.291,1.843-0.814,2.596
			c2.227,1.253,3.742,3.584,3.916,6.188L48.068,48z M34.846,46h10.98c-0.493-1.851-1.913-3.379-3.773-3.966l-1.717-0.543
			l-1.717,0.542C36.759,42.621,35.339,44.15,34.846,46z M40.337,35.591c-1.41,0-2.558,1.148-2.558,2.56
			c0,0.84,0.414,1.628,1.107,2.107l1.448,1.001l1.45-1.002c0.696-0.48,1.111-1.268,1.111-2.106
			C42.896,36.739,41.748,35.591,40.337,35.591z"/>
		<path d="M31.732,48H16.27l0.07-1.066c0.173-2.604,1.689-4.936,3.916-6.188c-0.522-0.752-0.813-1.655-0.813-2.595
			c0-2.514,2.044-4.56,4.557-4.56c2.514,0,4.559,2.046,4.559,4.56c0,0.94-0.291,1.843-0.813,2.596
			c2.227,1.252,3.742,3.584,3.916,6.188L31.732,48z M18.511,46H29.49c-0.493-1.851-1.913-3.379-3.773-3.966L24,41.491l-1.716,0.542
			C20.423,42.621,19.004,44.149,18.511,46z M24,35.591c-1.41,0-2.557,1.148-2.557,2.56c0,0.84,0.415,1.627,1.108,2.107l1.447,1
			l1.452-1.001c0.694-0.479,1.108-1.267,1.108-2.106C26.559,36.739,25.411,35.591,24,35.591z"/>
		<path d="M15.396,48H-0.069l0.071-1.066c0.173-2.604,1.69-4.936,3.916-6.188c-0.522-0.753-0.813-1.656-0.813-2.596
			c0-2.514,2.045-4.56,4.558-4.56s4.558,2.046,4.558,4.56c0,0.939-0.291,1.842-0.813,2.595c2.227,1.253,3.744,3.585,3.917,6.188
			L15.396,48z M2.174,46h10.979c-0.492-1.85-1.912-3.379-3.773-3.967l-1.716-0.542l-1.716,0.542C4.087,42.621,2.667,44.149,2.174,46
			z M7.664,35.591c-1.411,0-2.558,1.148-2.558,2.56c0,0.84,0.415,1.628,1.108,2.106l1.45,1.002l1.448-1.001
			c0.695-0.481,1.11-1.269,1.11-2.107C10.222,36.739,9.075,35.591,7.664,35.591z"/>
	</g>
	<polygon points="41.338,31.425 39.338,31.425 39.338,22.507 8.664,22.507 8.664,31.425 6.664,31.425 6.664,20.507 41.338,20.507 	
		"/>
	<rect x="23" y="15.66" width="2" height="15.765"/>
</g>
</svg>
