<?xml version="1.0" encoding="utf-8"?>
<!-- Generator: Adobe Illustrator 16.0.0, SVG Export Plug-In . SVG Version: 6.00 Build 0)  -->
<!DOCTYPE svg PUBLIC "-//W3C//DTD SVG 1.1//EN" "http://www.w3.org/Graphics/SVG/1.1/DTD/svg11.dtd">
<svg version="1.1" id="Layer_1" xmlns="http://www.w3.org/2000/svg" xmlns:xlink="http://www.w3.org/1999/xlink" x="0px" y="0px"
	 width="48px" height="48px" viewBox="0 0 48 48" enable-background="new 0 0 48 48" xml:space="preserve">
<g>
	<path d="M44.816,45.896l-45.96-14.933L37.743,1.875l0.584,0.885c16.283,24.648,7.279,41.696,6.888,42.41L44.816,45.896z
		 M3.144,30.255l40.66,13.21c1.453-3.433,6.428-18.398-6.566-38.713L3.144,30.255z"/>
	<path d="M39.397,43.603l-1.629-1.162c0.181-0.253,0.385-0.516,0.596-0.787c0.644-0.826,1.372-1.764,1.493-2.634
		c0.092-0.662-0.127-1.532-0.339-2.373c-0.176-0.696-0.357-1.415-0.398-2.119c-0.082-1.396,0.523-2.43,1.058-3.342
		c0.557-0.95,0.89-1.574,0.721-2.406c-0.207-1.017-0.735-1.913-1.295-2.862c-0.745-1.265-1.517-2.573-1.65-4.309
		c-0.061-0.79-0.063-1.539-0.065-2.262c-0.005-1.869-0.009-3.483-1.028-5.142c-0.533-0.867-1.245-1.544-2-2.261
		c-1.299-1.236-2.643-2.514-3.017-4.762l1.973-0.328c0.265,1.588,1.265,2.54,2.423,3.641c0.813,0.774,1.655,1.575,2.324,2.664
		c1.314,2.138,1.32,4.194,1.325,6.183c0.002,0.687,0.004,1.397,0.06,2.113c0.099,1.274,0.721,2.33,1.38,3.448
		c0.618,1.049,1.257,2.134,1.53,3.479c0.331,1.623-0.382,2.839-0.954,3.816c-0.447,0.763-0.833,1.422-0.787,2.213
		c0.03,0.515,0.182,1.113,0.341,1.747c0.26,1.027,0.527,2.09,0.381,3.137c-0.193,1.401-1.098,2.563-1.895,3.588
		C39.75,43.13,39.563,43.37,39.397,43.603z"/>
	<path d="M29.784,26.462c-2.758,0-5.001-2.244-5.001-5.001s2.243-5.001,5.001-5.001s5.001,2.244,5.001,5.001
		S32.542,26.462,29.784,26.462z M29.784,18.46c-1.654,0-3.001,1.346-3.001,3.001s1.347,3.001,3.001,3.001s3.001-1.346,3.001-3.001
		S31.438,18.46,29.784,18.46z"/>
	<path d="M32.301,37.271c-2.621,0-4.754-2.133-4.754-4.754s2.133-4.754,4.754-4.754s4.754,2.133,4.754,4.754
		S34.922,37.271,32.301,37.271z M32.301,29.764c-1.519,0-2.754,1.235-2.754,2.754s1.235,2.754,2.754,2.754s2.754-1.235,2.754-2.754
		S33.819,29.764,32.301,29.764z"/>
	<path d="M19.753,32.076c-2.486,0-4.508-2.022-4.508-4.508c0-2.486,2.022-4.508,4.508-4.508s4.508,2.022,4.508,4.508
		C24.261,30.054,22.239,32.076,19.753,32.076z M19.753,25.061c-1.383,0-2.508,1.125-2.508,2.508s1.125,2.508,2.508,2.508
		s2.508-1.125,2.508-2.508S21.136,25.061,19.753,25.061z"/>
</g>
</svg>
