<?xml version="1.0" encoding="utf-8"?>
<!-- Generator: Adobe Illustrator 16.0.0, SVG Export Plug-In . SVG Version: 6.00 Build 0)  -->
<!DOCTYPE svg PUBLIC "-//W3C//DTD SVG 1.1//EN" "http://www.w3.org/Graphics/SVG/1.1/DTD/svg11.dtd">
<svg version="1.1" id="Layer_1" xmlns="http://www.w3.org/2000/svg" xmlns:xlink="http://www.w3.org/1999/xlink" x="0px" y="0px"
	 width="48px" height="48px" viewBox="0 0 48 48" enable-background="new 0 0 48 48" xml:space="preserve">
<g>
	<path d="M30.571,36.095L12.64,19.693l4.821-5.28c1.1-1.206,3.154-1.298,4.36-0.194l3.532,3.229
		c1.307-2.691,3.507-5.808,6.202-8.758c4.746-5.197,9.939-8.688,12.923-8.688c0.806,0,1.471,0.233,1.975,0.694
		c2.715,2.485-1.276,9.709-6.623,15.562c-2.693,2.95-5.6,5.422-8.164,6.966l3.533,3.23c1.254,1.145,1.344,3.101,0.199,4.36
		L30.571,36.095z M15.464,19.566l14.98,13.702l3.475-3.803c0.402-0.442,0.372-1.133-0.069-1.536l-5.633-5.15l1.299-0.652
		c2.631-1.32,5.853-3.952,8.837-7.22c6.089-6.666,7.653-11.91,6.75-12.737c-0.123-0.112-0.334-0.17-0.625-0.17
		c-2.04,0-6.627,2.761-11.446,8.038c-2.987,3.27-5.318,6.715-6.396,9.453l-0.532,1.353l-5.632-5.149
		c-0.426-0.391-1.145-0.358-1.534,0.067L15.464,19.566z"/>
	<path d="M22.399,48.393l-1.066-0.481c-0.351-0.158-8.65-3.952-13.885-10.344l-0.501-0.611l1.908-2.501l-2.942,2.161l-0.604-0.688
		c-4.884-5.564-4.74-6.152-4.613-6.672l0.124-0.506l0.527-0.238c4.155-1.624,5.256-2.21,11.617-9.174l1.477,1.349
		c-5.918,6.479-7.5,7.712-11.396,9.302c0.643,0.91,1.915,2.474,3.167,3.928l12.676-9.313L9.504,36.901
		c3.9,4.455,9.42,7.553,11.655,8.698c2.035-5.225,8.036-11,8.31-11.26l1.382,1.445c-0.068,0.065-6.784,6.529-8.142,11.479
		L22.399,48.393z"/>
	<path d="M40.148,10.103c-1.384,0-2.51-1.126-2.51-2.51c0-1.384,1.126-2.51,2.51-2.51c1.385,0,2.511,1.126,2.511,2.51
		C42.659,8.977,41.533,10.103,40.148,10.103z M40.148,7.083c-0.281,0-0.51,0.229-0.51,0.51s0.229,0.51,0.51,0.51
		s0.511-0.229,0.511-0.51S40.43,7.083,40.148,7.083z"/>
	<path d="M20.384,42.024l-1.799-0.875c0.066-0.136,1.668-3.384,5.497-7.195l1.411,1.418C21.902,38.946,20.399,41.994,20.384,42.024z
		"/>
</g>
</svg>
