<?xml version="1.0" encoding="utf-8"?>
<!-- Generator: Adobe Illustrator 16.0.0, SVG Export Plug-In . SVG Version: 6.00 Build 0)  -->
<!DOCTYPE svg PUBLIC "-//W3C//DTD SVG 1.1//EN" "http://www.w3.org/Graphics/SVG/1.1/DTD/svg11.dtd">
<svg version="1.1" id="Layer_1" xmlns="http://www.w3.org/2000/svg" xmlns:xlink="http://www.w3.org/1999/xlink" x="0px" y="0px"
	 width="48px" height="48px" viewBox="0 0 48 48" enable-background="new 0 0 48 48" xml:space="preserve">
<g>
	<path d="M14.294,43.794L-0.399,24.107L25.78,4.57l8.496,0.892l7.357,9.861l-1.135,8.917L14.294,43.794z M2.399,24.514L14.7,40.995
		l23.922-17.851l0.926-7.273l-6.352-8.513L26.349,6.64L2.399,24.514z"/>
	<path d="M32.002,19.278c-2.219,0-4.023-1.805-4.023-4.024s1.805-4.024,4.023-4.024s4.023,1.805,4.023,4.024
		S34.221,19.278,32.002,19.278z M32.002,13.23c-1.116,0-2.023,0.908-2.023,2.024s0.907,2.024,2.023,2.024s2.023-0.908,2.023-2.024
		S33.118,13.23,32.002,13.23z"/>
	<path d="M36.254,40.921c-0.693,0-1.395-0.063-2.104-0.239c-0.589-0.148-1.127-0.354-1.646-0.554
		c-0.817-0.313-1.592-0.607-2.399-0.599l-0.025-2c0.023,0,0.047,0,0.071,0c1.162,0,2.132,0.371,3.069,0.731
		c0.486,0.187,0.945,0.362,1.416,0.48c1.273,0.315,2.619,0.153,4.046-0.02l0.747-0.088c1.193-0.132,3.195-0.661,3.203-2.727
		c0.003-0.857-0.403-1.526-0.917-2.373l-0.206-0.341c-0.827-1.387-1.16-2.979-1.046-5.009c0.146-2.645,1.54-4.021,2.888-5.352
		c0.472-0.466,0.96-0.948,1.418-1.5c1.418-1.709,1.793-5,0.152-6.683c-0.321-0.328-0.739-0.577-1.183-0.842
		c-0.196-0.117-0.393-0.235-0.586-0.36c-0.216-0.141-0.42-0.322-0.623-0.508c-0.166-0.152-0.372-0.342-0.488-0.379
		c-0.503-0.163-2.756-0.177-3.243,0.021c0.063-0.026,0.249-0.149,0.35-0.406l-1.863-0.729c0.615-1.572,5.098-0.881,5.38-0.788
		c0.526,0.171,0.909,0.523,1.218,0.806c0.121,0.111,0.237,0.224,0.363,0.307c0.169,0.109,0.344,0.214,0.519,0.318
		c0.508,0.303,1.084,0.647,1.587,1.161c2.46,2.521,1.951,6.954-0.043,9.357c-0.521,0.628-1.045,1.146-1.552,1.646
		c-1.272,1.258-2.192,2.166-2.297,4.041c-0.092,1.636,0.146,2.83,0.768,3.873l0.197,0.327c0.597,0.982,1.214,1.998,1.208,3.419
		c-0.01,2.564-1.919,4.368-4.983,4.707l-0.727,0.085C38.049,40.813,37.158,40.921,36.254,40.921z"/>
	<path d="M34.265,15.44c-0.629,0-1.354-0.156-1.847-0.776c-0.521-0.653-0.528-1.449-0.025-2.366l1.754,0.963
		c-0.041,0.073-0.068,0.13-0.087,0.172c0.116,0.015,0.373,0.024,0.899-0.079c0.173-0.034,0.352-0.104,0.528-0.169
		c0.16-0.059,0.318-0.116,0.473-0.163c0.267-0.08,0.512-0.199,0.693-0.339c0.352-0.271,0.602-0.704,0.594-1.03l2-0.047
		c0.026,1.163-0.693,2.138-1.375,2.663c-0.377,0.289-0.84,0.52-1.338,0.669c-0.115,0.034-0.235,0.079-0.357,0.124
		c-0.25,0.092-0.533,0.196-0.834,0.255C35.106,15.362,34.709,15.44,34.265,15.44z"/>
</g>
</svg>
