<?xml version="1.0" encoding="utf-8"?>
<!-- Generator: Adobe Illustrator 16.0.0, SVG Export Plug-In . SVG Version: 6.00 Build 0)  -->
<!DOCTYPE svg PUBLIC "-//W3C//DTD SVG 1.1//EN" "http://www.w3.org/Graphics/SVG/1.1/DTD/svg11.dtd">
<svg version="1.1" id="Layer_1" xmlns="http://www.w3.org/2000/svg" xmlns:xlink="http://www.w3.org/1999/xlink" x="0px" y="0px"
	 width="48px" height="48px" viewBox="0 0 48 48" enable-background="new 0 0 48 48" xml:space="preserve">
<g>
	<g>
		<rect x="1" y="6.031" width="9.821" height="2"/>
		<rect x="15.61" y="6.031" width="31.39" height="2"/>
		<path d="M16.609,13.172H9.821V0h6.788V13.172z M11.821,11.172h2.788V2h-2.788V11.172z"/>
	</g>
	<g>
		<rect x="25.217" y="23" width="21.783" height="2"/>
		<rect x="1" y="23" width="19.505" height="2"/>
		<path d="M26.293,30.587h-6.788V17.415h6.788V30.587z M21.505,28.587h2.788v-9.172h-2.788V28.587z"/>
	</g>
	<g>
		<rect x="1" y="40.415" width="36.25" height="2"/>
		<rect x="42.039" y="40.415" width="4.961" height="2"/>
		<path d="M43.039,48H36.25V34.827h6.789V48z M38.25,46h2.789v-9.173H38.25V46z"/>
	</g>
</g>
</svg>
