<?xml version="1.0" encoding="utf-8"?>
<!-- Generator: Adobe Illustrator 16.0.0, SVG Export Plug-In . SVG Version: 6.00 Build 0)  -->
<!DOCTYPE svg PUBLIC "-//W3C//DTD SVG 1.1//EN" "http://www.w3.org/Graphics/SVG/1.1/DTD/svg11.dtd">
<svg version="1.1" id="Layer_1" xmlns="http://www.w3.org/2000/svg" xmlns:xlink="http://www.w3.org/1999/xlink" x="0px" y="0px"
	 width="48px" height="48px" viewBox="0 0 48 48" enable-background="new 0 0 48 48" xml:space="preserve">
<g>
	<path d="M47,48c-0.255,0-0.507-0.098-0.697-0.283L22.654,24.718c-0.193-0.188-0.303-0.447-0.303-0.717s0.109-0.529,0.303-0.717
		L46.303,0.283c0.288-0.281,0.718-0.361,1.086-0.205C47.76,0.235,48,0.598,48,1v46c0,0.402-0.24,0.765-0.611,0.921
		C47.264,47.975,47.131,48,47,48z M24.785,24.001L46,44.633V3.368L24.785,24.001z"/>
	<path d="M15.953,48H1c-0.552,0-1-0.447-1-1V1c0-0.552,0.448-1,1-1h14.953c0.552,0,1,0.448,1,1v46
		C16.953,47.553,16.505,48,15.953,48z M2,46h12.953V2H2V46z"/>
</g>
</svg>
