<?xml version="1.0" encoding="utf-8"?>
<!-- Generator: Adobe Illustrator 16.0.0, SVG Export Plug-In . SVG Version: 6.00 Build 0)  -->
<!DOCTYPE svg PUBLIC "-//W3C//DTD SVG 1.1//EN" "http://www.w3.org/Graphics/SVG/1.1/DTD/svg11.dtd">
<svg version="1.1" id="Layer_1" xmlns="http://www.w3.org/2000/svg" xmlns:xlink="http://www.w3.org/1999/xlink" x="0px" y="0px"
	 width="48px" height="48px" viewBox="0 0 48 48" enable-background="new 0 0 48 48" xml:space="preserve">
<g>
	<path d="M40.88,37.791c-4.625,0-7.12-9.06-7.12-17.583c0-8.524,2.495-17.583,7.12-17.583S48,11.684,48,20.208
		C48,28.731,45.505,37.791,40.88,37.791z M40.88,4.625c-2.417,0-5.12,6.664-5.12,15.583s2.703,15.583,5.12,15.583
		S46,29.127,46,20.208S43.297,4.625,40.88,4.625z"/>
	<path d="M7.305,17.675l-0.088-1.998c10.995-0.485,23.947-5.117,24.077-5.164l0.678,1.882C31.432,12.59,18.602,17.176,7.305,17.675z
		"/>
	<path d="M12.279,45.376H4.333c-0.569,0-1.43-0.375-1.982-1.433c-0.506-0.974-0.317-1.857-0.294-1.954L6.66,27.593
		c-1.983-0.348-3.187-0.528-3.194-0.529l-0.46-0.069l-0.244-0.396C2.301,25.846,0,22.005,0,20.208c0-1.795,2.301-5.637,2.762-6.389
		l0.243-0.396l0.46-0.069c0.25-0.038,25.083-3.836,35.138-9.886L39.75,5.1c-1.981,1.612-3.988,7.319-3.988,15.108
		c0,7.79,2.007,13.497,3.989,15.107l-1.146,1.634c-4.111-2.473-11.387-4.944-21.078-7.166L15.095,42.41
		c-0.016,0.147-0.179,1.239-0.779,1.932C13.444,45.347,12.396,45.376,12.279,45.376z M4.421,43.376h7.829
		c0.057-0.008,0.305-0.056,0.555-0.344c0.133-0.154,0.274-0.619,0.316-0.939l2.832-14.713l1.005,0.225
		c8.153,1.822,14.561,3.77,19.128,5.809c-1.448-3.237-2.325-7.997-2.325-13.205c0-5.209,0.877-9.97,2.326-13.208
		c-10.743,4.793-28.651,7.753-31.858,8.258C3.116,17.137,2,19.447,2,20.208c0,0.762,1.116,3.072,2.229,4.95
		c0.681,0.107,2.067,0.333,3.909,0.666l1.122,0.203L4.005,42.455c-0.008,0.079-0.014,0.307,0.12,0.563
		C4.255,43.268,4.375,43.352,4.421,43.376z"/>
</g>
</svg>
