<?xml version="1.0" encoding="utf-8"?>
<!-- Generator: Adobe Illustrator 16.0.0, SVG Export Plug-In . SVG Version: 6.00 Build 0)  -->
<!DOCTYPE svg PUBLIC "-//W3C//DTD SVG 1.1//EN" "http://www.w3.org/Graphics/SVG/1.1/DTD/svg11.dtd">
<svg version="1.1" id="Layer_1" xmlns="http://www.w3.org/2000/svg" xmlns:xlink="http://www.w3.org/1999/xlink" x="0px" y="0px"
	 width="48px" height="48px" viewBox="0 0 48 48" enable-background="new 0 0 48 48" xml:space="preserve">
<g>
	<g>
		<path d="M40,48H8c-4.411,0-8-3.589-8-8V8c0-4.411,3.589-8,8-8h32c4.411,0,8,3.589,8,8v32C48,44.411,44.411,48,40,48z M8,2
			C4.691,2,2,4.691,2,8v32c0,3.309,2.691,6,6,6h32c3.309,0,6-2.691,6-6V8c0-3.309-2.691-6-6-6H8z"/>
	</g>
	<g>
		<g>
			<path d="M43.732,22.591H25.454V4.313h12.248c3.325,0,6.03,2.706,6.03,6.031V22.591z M27.454,20.591h14.278V10.344
				c0-2.223-1.808-4.031-4.03-4.031H27.454V20.591z"/>
			<path d="M37.702,43.688H25.454V25.409h18.278v12.247C43.732,40.981,41.027,43.688,37.702,43.688z M27.454,41.688h10.248
				c2.223,0,4.03-1.809,4.03-4.031V27.409H27.454V41.688z"/>
		</g>
		<g>
			<path d="M22.546,22.591H4.267V10.344c0-3.325,2.706-6.031,6.031-6.031h12.248V22.591z M6.267,20.591h14.279V6.313H10.298
				c-2.223,0-4.031,1.808-4.031,4.031V20.591z"/>
			<path d="M22.546,43.688H10.298c-3.325,0-6.031-2.706-6.031-6.031V25.409h18.279V43.688z M6.267,27.409v10.247
				c0,2.223,1.808,4.031,4.031,4.031h10.248V27.409H6.267z"/>
		</g>
	</g>
</g>
</svg>
