<?xml version="1.0" encoding="utf-8"?>
<!-- Generator: Adobe Illustrator 16.0.0, SVG Export Plug-In . SVG Version: 6.00 Build 0)  -->
<!DOCTYPE svg PUBLIC "-//W3C//DTD SVG 1.1//EN" "http://www.w3.org/Graphics/SVG/1.1/DTD/svg11.dtd">
<svg version="1.1" id="Layer_1" xmlns="http://www.w3.org/2000/svg" xmlns:xlink="http://www.w3.org/1999/xlink" x="0px" y="0px"
	 width="48px" height="48px" viewBox="0 0 48 48" enable-background="new 0 0 48 48" xml:space="preserve">
<g>
	<path d="M23.428,10.108c-2.787,0-5.054-2.267-5.054-5.054C18.374,2.267,20.641,0,23.428,0c2.787,0,5.054,2.267,5.054,5.054
		C28.482,7.841,26.215,10.108,23.428,10.108z M23.428,2c-1.684,0-3.054,1.37-3.054,3.054c0,1.684,1.37,3.054,3.054,3.054
		s3.054-1.37,3.054-3.054C26.482,3.37,25.112,2,23.428,2z"/>
	<path d="M34.027,47.019l-2-0.037c0.217-11.545-3.808-14.223-7.358-16.585c-1.302-0.866-2.532-1.685-3.426-2.874
		c-2.556-3.395-1.405-11.462-0.492-15.968c0.18-0.89,0.58-2.811,0.58-2.811l1.958,0.407c0,0-0.398,1.914-0.578,2.801
		c-1.42,7.003-1.371,12.375,0.13,14.369c0.689,0.916,1.73,1.608,2.937,2.411C29.358,31.114,34.264,34.378,34.027,47.019z"/>
	<path d="M14.907,46.837l-1.6-1.201c3.866-5.15,9.55-14.521,8.345-17.735l1.873-0.701C25.508,32.488,15.998,45.384,14.907,46.837z"
		/>
	<path d="M35.4,26.333c-9.515-0.78-13.297-10.737-14.225-13.738c-2.566,0.309-4.51,1.321-5.783,3.014
		c-2.91,3.87-1.57,10.074-1.556,10.137l-1.952,0.436c-0.065-0.291-1.548-7.175,1.91-11.774c1.77-2.353,4.479-3.659,8.055-3.88
		l0.832-0.052l0.201,0.81c0.031,0.123,3.148,12.273,12.683,13.054L35.4,26.333z"/>
</g>
</svg>
