<?xml version="1.0" encoding="utf-8"?>
<!-- Generator: Adobe Illustrator 16.0.0, SVG Export Plug-In . SVG Version: 6.00 Build 0)  -->
<!DOCTYPE svg PUBLIC "-//W3C//DTD SVG 1.1//EN" "http://www.w3.org/Graphics/SVG/1.1/DTD/svg11.dtd">
<svg version="1.1" id="Layer_1" xmlns="http://www.w3.org/2000/svg" xmlns:xlink="http://www.w3.org/1999/xlink" x="0px" y="0px"
	 width="48px" height="48px" viewBox="0 0 48 48" enable-background="new 0 0 48 48" xml:space="preserve">
<g>
	<path d="M30.399,47.629l-1.555-1.258c3.226-3.985,4.56-6.719,4.196-8.604c-0.431-2.232-3.389-3.885-7.481-6.172L24.1,30.778
		c-2.143-1.21-3.388-2.953-3.699-5.181c-1.037-7.403,9.017-17.69,9.446-18.124l1.424,1.404c-0.098,0.1-9.79,10.016-8.889,16.443
		c0.225,1.601,1.108,2.815,2.702,3.715l1.451,0.813c4.565,2.551,7.864,4.394,8.471,7.539C35.501,39.966,34.124,43.028,30.399,47.629
		z"/>
	<path d="M14.035,40.593c-1.802,0-3.842-0.238-6.116-0.716l0.411-1.957c6.072,1.274,10.154,0.768,12.133-1.513
		c2.644-3.044,0.737-8.425,0.717-8.479l1.88-0.682c0.097,0.266,2.319,6.55-1.087,10.472C20.312,39.633,17.652,40.593,14.035,40.593z
		"/>
	<path d="M38.724,24.481c-4.508,0-7.761-1.272-9.681-3.791c-2.551-3.346-1.934-7.866-1.484-9.857
		c-4.536-1.198-8.159-0.917-10.776,0.838c-3.638,2.44-4.12,6.952-4.124,6.998l-1.99-0.195c0.022-0.223,0.586-5.502,5-8.463
		c3.314-2.223,7.821-2.502,13.395-0.831l0.978,0.293l-0.313,0.973c-0.018,0.055-1.748,5.559,0.912,9.039
		c1.666,2.178,4.758,3.18,9.19,2.97l0.094,1.998C39.514,24.472,39.114,24.481,38.724,24.481z"/>
	<path d="M33.188,10.108c-2.787,0-5.055-2.267-5.055-5.054C28.133,2.267,30.4,0,33.188,0s5.054,2.267,5.054,5.054
		C38.241,7.841,35.975,10.108,33.188,10.108z M33.188,2c-1.685,0-3.055,1.37-3.055,3.054c0,1.684,1.37,3.054,3.055,3.054
		c1.684,0,3.054-1.37,3.054-3.054C36.241,3.37,34.871,2,33.188,2z"/>
</g>
</svg>
