<?xml version="1.0" encoding="utf-8"?>
<!-- Generator: Adobe Illustrator 16.0.0, SVG Export Plug-In . SVG Version: 6.00 Build 0)  -->
<!DOCTYPE svg PUBLIC "-//W3C//DTD SVG 1.1//EN" "http://www.w3.org/Graphics/SVG/1.1/DTD/svg11.dtd">
<svg version="1.1" id="Layer_1" xmlns="http://www.w3.org/2000/svg" xmlns:xlink="http://www.w3.org/1999/xlink" x="0px" y="0px"
	 width="48px" height="48px" viewBox="0 0 48 48" enable-background="new 0 0 48 48" xml:space="preserve">
<g>
	<g>
		<g>
			<path d="M5.401,41.198l-1.958-0.407c0.013-0.064,0.14-0.652,0.482-1.528l1.862,0.729C5.505,40.711,5.402,41.193,5.401,41.198z"/>
			<path d="M32.016,47.862c-1.38-0.312-2.576-1.157-3.658-2.586l1.594-1.207c0.797,1.051,1.592,1.636,2.504,1.842L32.016,47.862z
				 M36.424,47.384l-0.762-1.85c1.015-0.418,1.955-1.114,2.719-2.013l1.523,1.295C38.936,45.957,37.732,46.845,36.424,47.384z
				 M26.289,41.773l-0.342-0.678c-0.455-0.904-0.927-1.841-1.438-2.728l1.732-1c0.54,0.937,1.024,1.898,1.492,2.829l0.339,0.67
				L26.289,41.773z M41.95,41.079l-1.906-0.604c0.318-1.006,0.48-2.088,0.481-3.215l-0.004-0.293l2-0.055l0.004,0.349
				C42.524,38.595,42.331,39.879,41.95,41.079z M6.978,37.709l-1.661-1.113c0.804-1.2,1.775-2.231,2.887-3.063l1.199,1.6
				C8.472,35.829,7.656,36.696,6.978,37.709z M22.375,35.424c-0.861-0.891-1.786-1.516-2.828-1.912l0.71-1.869
				c1.323,0.502,2.486,1.284,3.556,2.391L22.375,35.424z M12.552,33.545l-0.586-1.912c1.265-0.388,2.646-0.6,4.104-0.631l0.042,2
				C14.838,33.028,13.641,33.211,12.552,33.545z M39.932,33.399c-0.335-1.12-0.815-2.262-1.428-3.393l1.76-0.951
				c0.677,1.251,1.209,2.52,1.584,3.77L39.932,33.399z"/>
			<path d="M36.839,27.381c-0.267-0.365-0.55-0.732-0.848-1.103l1.557-1.256c0.319,0.396,0.62,0.788,0.906,1.179L36.839,27.381z"/>
		</g>
	</g>
	<path d="M3.738,46.757C1.677,46.757,0,45.043,0,42.936s1.677-3.822,3.738-3.822c2.062,0,3.738,1.715,3.738,3.822
		S5.799,46.757,3.738,46.757z M3.738,41.113C2.78,41.113,2,41.931,2,42.936c0,1.004,0.78,1.821,1.738,1.821
		c0.958,0,1.738-0.817,1.738-1.821C5.476,41.931,4.696,41.113,3.738,41.113z"/>
	<path d="M35.881,27.573c-2.062,0-3.738-1.715-3.738-3.822s1.677-3.822,3.738-3.822s3.738,1.714,3.738,3.822
		S37.942,27.573,35.881,27.573z M35.881,21.929c-0.958,0-1.738,0.817-1.738,1.822c0,1.005,0.78,1.822,1.738,1.822
		s1.738-0.817,1.738-1.822C37.619,22.747,36.839,21.929,35.881,21.929z"/>
	<path d="M37.048,20.931h-2V1c0-0.351,0.184-0.676,0.484-0.857c0.301-0.182,0.673-0.19,0.985-0.026l10.952,5.82
		c0.347,0.185,0.553,0.555,0.528,0.947c-0.025,0.392-0.277,0.733-0.645,0.872l-10.306,3.9V20.931z M37.048,2.664v6.853l7.532-2.85
		L37.048,2.664z"/>
</g>
</svg>
