<?xml version="1.0" encoding="utf-8"?>
<!-- Generator: Adobe Illustrator 16.0.0, SVG Export Plug-In . SVG Version: 6.00 Build 0)  -->
<!DOCTYPE svg PUBLIC "-//W3C//DTD SVG 1.1//EN" "http://www.w3.org/Graphics/SVG/1.1/DTD/svg11.dtd">
<svg version="1.1" id="Layer_1" xmlns="http://www.w3.org/2000/svg" xmlns:xlink="http://www.w3.org/1999/xlink" x="0px" y="0px"
	 width="48px" height="48px" viewBox="0 0 48 48" enable-background="new 0 0 48 48" xml:space="preserve">
<g>
	<path d="M42.076,48.001H5.924c-0.421,0-0.797-0.264-0.94-0.659c-0.143-0.396-0.023-0.84,0.3-1.109
		c0.343-0.285,8.253-6.802,17.184-7.812c0.206-3.349,0.713-15.984-2.739-22.898c-2.092,1.552-7.173,5.792-6.938,10.209
		c0.026,0.497-0.317,0.938-0.805,1.034c-0.491,0.095-0.973-0.182-1.137-0.651c-0.119-0.341-2.438-7.176,0.853-12.666
		c-1.77,0.823-3.686,2.116-4.252,3.994c-0.144,0.476-0.616,0.772-1.107,0.7c-0.492-0.075-0.854-0.499-0.85-0.997
		c0.026-3.271,1.374-9.175,6.064-10.449C10.8,5.468,9.975,3.552,10.249,1.313c0.067-0.546,0.561-0.943,1.108-0.872
		c0.154,0.018,3.289,0.41,5.297,2.74c1.034-1.324,2.884-3.18,5.135-3.18c0.456,0,0.907,0.078,1.342,0.232
		c0.314,0.111,0.553,0.373,0.635,0.696s-0.002,0.667-0.226,0.915c-0.014,0.016-1.31,1.495-1.375,3.139
		c1.07-0.271,2.775-0.604,4.691-0.604c3.489,0,6.265,1.072,8.247,3.187c0.301,0.321,0.356,0.8,0.137,1.182
		c-0.219,0.382-0.662,0.577-1.09,0.477c-0.012-0.002-1.157-0.26-2.621-0.26c-0.868,0-1.993,0.093-3.04,0.462
		c2.041,1.921,5.995,6.362,5.757,11.748c-0.018,0.401-0.273,0.752-0.648,0.893c-0.378,0.142-0.8,0.042-1.076-0.248
		c-0.035-0.038-3.034-3.177-6.519-5.615c1.164,4.362,3.347,13.603,3.471,21.962c2.354,0.761,9.771,3.455,13.399,8.229
		c0.23,0.303,0.269,0.71,0.1,1.05C42.803,47.786,42.456,48.001,42.076,48.001z M8.987,46.001h30.828
		c-4.312-4.023-11.527-6.108-11.609-6.132c-0.43-0.122-0.727-0.515-0.727-0.962c0-11.056-4.061-24.512-4.102-24.647
		c-0.119-0.39,0.011-0.813,0.329-1.07c0.318-0.256,0.758-0.294,1.115-0.095c2.738,1.528,5.41,3.79,7.154,5.4
		c-1.197-4.818-5.824-8.461-5.879-8.503c-0.253-0.196-0.397-0.503-0.387-0.824c0.011-0.32,0.174-0.617,0.439-0.796
		c1.199-0.808,2.715-1.271,4.516-1.382C29.55,6.584,28.277,6.38,26.855,6.38c-2.818,0-5.161,0.821-5.185,0.83
		C21.415,7.3,21.133,7.283,20.89,7.162c-0.243-0.122-0.426-0.336-0.508-0.596c-0.522-1.665-0.024-3.265,0.562-4.403
		c-1.538,0.569-2.957,2.482-3.438,3.296c-0.186,0.315-0.554,0.484-0.894,0.491c-0.365-0.012-0.695-0.222-0.86-0.547
		c-0.821-1.623-2.445-2.382-3.534-2.721c0.213,2.323,1.844,4.057,1.863,4.077c0.274,0.287,0.354,0.711,0.201,1.078
		c-0.153,0.367-0.508,0.609-0.905,0.616c-3.095,0.051-4.563,2.544-5.259,4.85c2.678-2.129,6.316-2.932,6.534-2.978
		c0.452-0.095,0.909,0.128,1.109,0.543c0.201,0.415,0.092,0.913-0.264,1.206c-3.029,2.5-3.623,6.11-3.513,8.95
		c2.331-4.404,7.263-7.623,7.54-7.802c0.227-0.146,0.505-0.195,0.767-0.133c0.263,0.061,0.49,0.225,0.63,0.456
		c4.943,8.163,3.543,25.159,3.481,25.879c-0.042,0.49-0.435,0.877-0.925,0.912C17.666,40.751,12.061,43.937,8.987,46.001z"/>
</g>
</svg>
