<?xml version="1.0" encoding="utf-8"?>
<!-- Generator: Adobe Illustrator 16.0.0, SVG Export Plug-In . SVG Version: 6.00 Build 0)  -->
<!DOCTYPE svg PUBLIC "-//W3C//DTD SVG 1.1//EN" "http://www.w3.org/Graphics/SVG/1.1/DTD/svg11.dtd">
<svg version="1.1" id="Layer_1" xmlns="http://www.w3.org/2000/svg" xmlns:xlink="http://www.w3.org/1999/xlink" x="0px" y="0px"
	 width="48px" height="48px" viewBox="0 0 48 48" enable-background="new 0 0 48 48" xml:space="preserve">
<g>
	<path d="M30.527,22.203h-1.842c-5.169,0-9.375-4.456-9.375-9.932V0.5H39.9v11.771C39.9,17.748,35.695,22.203,30.527,22.203z
		 M20.311,1.5v10.771c0,4.925,3.757,8.932,8.375,8.932h1.842c4.617,0,8.373-4.007,8.373-8.932V1.5H20.311z"/>
	<path d="M30.396,48.001h-1.584c-2.007,0-3.639-1.632-3.639-3.638v-16.1c0-0.03,0-0.061,0.001-0.091
		c-6.413-1.426-11.129-7.206-11.129-13.852V0h6.764v12.271c0,4.649,3.532,8.432,7.874,8.432h1.842c4.341,0,7.873-3.783,7.873-8.432
		V0h6.765v14.321c0,6.646-4.717,12.426-11.13,13.852c0.001,0.03,0.001,0.061,0.001,0.091v16.1
		C34.034,46.369,32.402,48.001,30.396,48.001z M16.046,2v12.321c0,6.008,4.488,11.193,10.44,12.061l1.223,0.178l-0.43,1.159
		c-0.071,0.191-0.105,0.37-0.105,0.545v16.1c0,0.903,0.735,1.638,1.639,1.638h1.584c0.903,0,1.638-0.734,1.638-1.638v-16.1
		c0-0.176-0.034-0.354-0.105-0.547l-0.426-1.157l1.22-0.178c5.952-0.868,10.44-6.053,10.44-12.061V2h-2.765v10.271
		c0,5.752-4.429,10.432-9.873,10.432h-1.842c-5.444,0-9.874-4.68-9.874-10.432V2H16.046z"/>
	<path d="M12.514,34.509c-0.148,0-0.298-0.004-0.449-0.011c-3.99-0.187-5.622-2.577-7.342-5.683
		c-1.914-3.463-1.966-6.949-1.855-10.223c0.134-3.885,0.944-7.493,2.342-10.434c2.179-4.571,6.479-7.53,10.017-6.889l-0.359,1.968
		c-2.586-0.475-6.107,2.122-7.852,5.78c-1.281,2.695-2.024,6.029-2.149,9.643c-0.127,3.748,0.095,6.453,1.606,9.187
		c1.695,3.061,2.809,4.518,5.686,4.652c4.156,0.219,7.665-3.199,10.531-6.547l1.52,1.301C21.124,30.857,17.334,34.509,12.514,34.509
		z"/>
	<path d="M27.61,21.821l-1.861-0.729c0.326-0.834,0.705-1.787,1.108-2.803c1.313-3.303,2.945-7.413,3.862-10.135
		c0.709-2.115,1.555-3.693,2.741-5.114c1.155-1.388,3.445-2.051,5.117-2.536l0.536-0.157l0.572,1.916l-0.552,0.162
		c-1.344,0.389-3.374,0.977-4.138,1.895c-1.021,1.223-1.755,2.602-2.382,4.471c-0.935,2.774-2.578,6.912-3.898,10.236
		C28.314,20.039,27.937,20.989,27.61,21.821z"/>
</g>
</svg>
