<?xml version="1.0" encoding="utf-8"?>
<!-- Generator: Adobe Illustrator 16.0.0, SVG Export Plug-In . SVG Version: 6.00 Build 0)  -->
<!DOCTYPE svg PUBLIC "-//W3C//DTD SVG 1.1//EN" "http://www.w3.org/Graphics/SVG/1.1/DTD/svg11.dtd">
<svg version="1.1" id="Layer_1" xmlns="http://www.w3.org/2000/svg" xmlns:xlink="http://www.w3.org/1999/xlink" x="0px" y="0px"
	 width="48px" height="48px" viewBox="0 0 48 48" enable-background="new 0 0 48 48" xml:space="preserve">
<g>
	<g>
		<path d="M37.543,48H10.457c-1.654,0-3-1.346-3-3V3c0-1.654,1.346-3,3-3h27.086c1.654,0,3,1.346,3,3v42
			C40.543,46.654,39.197,48,37.543,48z M10.457,2c-0.551,0-1,0.449-1,1v42c0,0.552,0.449,1,1,1h27.086c0.552,0,1-0.448,1-1V3
			c0-0.551-0.448-1-1-1H10.457z"/>
	</g>
	<path d="M24,43.502c-6.575,0-11.925-5.35-11.925-11.925c0-6.577,5.35-11.928,11.925-11.928c6.578,0,11.93,5.351,11.93,11.928
		C35.93,38.152,30.578,43.502,24,43.502z M24,21.649c-5.473,0-9.925,4.454-9.925,9.928c0,5.473,4.452,9.925,9.925,9.925
		c5.476,0,9.93-4.452,9.93-9.925C33.93,26.103,29.476,21.649,24,21.649z"/>
	<path d="M23.999,16.735c-3.325,0-6.03-2.706-6.03-6.033s2.705-6.033,6.03-6.033c3.327,0,6.034,2.707,6.034,6.033
		S27.326,16.735,23.999,16.735z M23.999,6.669c-2.222,0-4.03,1.809-4.03,4.033c0,2.224,1.808,4.033,4.03,4.033
		c2.225,0,4.034-1.809,4.034-4.033C28.033,8.478,26.224,6.669,23.999,6.669z"/>
	<path d="M23.999,37.484c-3.325,0-6.03-2.707-6.03-6.034c0-3.326,2.705-6.032,6.03-6.032c3.327,0,6.034,2.706,6.034,6.032
		C30.033,34.777,27.326,37.484,23.999,37.484z M23.999,27.418c-2.222,0-4.03,1.809-4.03,4.032c0,2.225,1.808,4.034,4.03,4.034
		c2.225,0,4.034-1.81,4.034-4.034C28.033,29.227,26.224,27.418,23.999,27.418z"/>
</g>
</svg>
