<?xml version="1.0" encoding="utf-8"?>
<!-- Generator: Adobe Illustrator 16.0.0, SVG Export Plug-In . SVG Version: 6.00 Build 0)  -->
<!DOCTYPE svg PUBLIC "-//W3C//DTD SVG 1.1//EN" "http://www.w3.org/Graphics/SVG/1.1/DTD/svg11.dtd">
<svg version="1.1" id="Layer_1" xmlns="http://www.w3.org/2000/svg" xmlns:xlink="http://www.w3.org/1999/xlink" x="0px" y="0px"
	 width="48px" height="48px" viewBox="0 0 48 48" enable-background="new 0 0 48 48" xml:space="preserve">
<g>
	<path d="M47,39.077H1c-0.552,0-1-0.447-1-1V7.253c0-0.552,0.448-1,1-1h46c0.553,0,1,0.448,1,1v30.824
		C48,38.63,47.553,39.077,47,39.077z M2,37.077h44V8.253H2V37.077z"/>
	<path d="M33.152,34.172H5.92c-0.552,0-1-0.447-1-1V12.234c0-0.552,0.448-1,1-1h27.232c0.553,0,1,0.448,1,1v20.938
		C34.152,33.725,33.705,34.172,33.152,34.172z M6.92,32.172h25.232V13.234H6.92V32.172z"/>
	<path d="M43.57,19.86h-7.129c-0.553,0-1-0.448-1-1v-6.626c0-0.552,0.447-1,1-1h7.129c0.553,0,1,0.448,1,1v6.626
		C44.57,19.412,44.123,19.86,43.57,19.86z M37.441,17.86h5.129v-4.626h-5.129V17.86z"/>
	<path d="M42.29,27.628H39c-0.553,0-1-0.447-1-1v-3.291c0-0.552,0.447-1,1-1h3.29c0.553,0,1,0.448,1,1v3.291
		C43.29,27.181,42.843,27.628,42.29,27.628z M40,25.628h1.29v-1.291H40V25.628z"/>
	<path d="M42.438,34.172H39c-0.553,0-1-0.447-1-1v-3.438c0-0.553,0.447-1,1-1h3.438c0.553,0,1,0.447,1,1v3.438
		C43.438,33.725,42.99,34.172,42.438,34.172z M40,32.172h1.438v-1.438H40V32.172z"/>
	<g>
		<rect x="4.4" y="39.746" width="6.287" height="2"/>
		<rect x="37.313" y="39.746" width="6.287" height="2"/>
	</g>
</g>
</svg>
