<?xml version="1.0" encoding="utf-8"?>
<!-- Generator: Adobe Illustrator 16.0.0, SVG Export Plug-In . SVG Version: 6.00 Build 0)  -->
<!DOCTYPE svg PUBLIC "-//W3C//DTD SVG 1.1//EN" "http://www.w3.org/Graphics/SVG/1.1/DTD/svg11.dtd">
<svg version="1.1" id="Layer_1" xmlns="http://www.w3.org/2000/svg" xmlns:xlink="http://www.w3.org/1999/xlink" x="0px" y="0px"
	 width="48px" height="48px" viewBox="0 0 48 48" enable-background="new 0 0 48 48" xml:space="preserve">
<g>
	<g>
		<rect x="8.069" y="45.563" width="6.288" height="2"/>
		<rect x="33.646" y="45.563" width="6.287" height="2"/>
	</g>
	<path d="M41.969,45.494H6.031C2.706,45.494,0,42.788,0,39.463V6.467c0-3.325,2.706-6.031,6.031-6.031h35.938
		C45.294,0.436,48,3.142,48,6.467v32.996C48,42.788,45.294,45.494,41.969,45.494z M6.031,2.436C3.809,2.436,2,4.244,2,6.467v32.996
		c0,2.223,1.809,4.031,4.031,4.031h35.938c2.223,0,4.031-1.809,4.031-4.031V6.467c0-2.223-1.809-4.031-4.031-4.031H6.031z"/>
	<path d="M24.001,39.934c-6.997,0-12.69-5.692-12.69-12.689s5.693-12.69,12.69-12.69s12.69,5.693,12.69,12.69
		S30.998,39.934,24.001,39.934z M24.001,16.554c-5.895,0-10.69,4.795-10.69,10.69s4.795,10.689,10.69,10.689
		s10.69-4.795,10.69-10.689S29.896,16.554,24.001,16.554z"/>
	<path d="M24,34.523c-4.014,0-7.28-3.266-7.28-7.279c0-4.014,3.266-7.28,7.28-7.28c4.014,0,7.279,3.266,7.279,7.28
		C31.279,31.258,28.014,34.523,24,34.523z M24,21.964c-2.911,0-5.28,2.369-5.28,5.28c0,2.911,2.369,5.279,5.28,5.279
		s5.279-2.368,5.279-5.279C29.279,24.333,26.911,21.964,24,21.964z"/>
	<rect x="1.687" y="10.001" width="45.313" height="2"/>
	<rect x="6.083" y="5.029" width="6.228" height="2"/>
	<rect x="14.605" y="5.029" width="6.23" height="2"/>
	<rect x="23.13" y="5.029" width="6.228" height="2"/>
</g>
</svg>
