<?xml version="1.0" encoding="utf-8"?>
<!-- Generator: Adobe Illustrator 16.0.0, SVG Export Plug-In . SVG Version: 6.00 Build 0)  -->
<!DOCTYPE svg PUBLIC "-//W3C//DTD SVG 1.1//EN" "http://www.w3.org/Graphics/SVG/1.1/DTD/svg11.dtd">
<svg version="1.1" id="Layer_1" xmlns="http://www.w3.org/2000/svg" xmlns:xlink="http://www.w3.org/1999/xlink" x="0px" y="0px"
	 width="48px" height="48px" viewBox="0 0 48 48" enable-background="new 0 0 48 48" xml:space="preserve">
<g>
	<path d="M47,48H1c-0.552,0-1-0.447-1-1V24c0-0.552,0.448-1,1-1h46c0.553,0,1,0.448,1,1v23C48,47.553,47.553,48,47,48z M2,46h44V25
		H2V46z"/>
	<path d="M47,25H1c-0.413,0-0.784-0.254-0.933-0.64c-0.149-0.385-0.046-0.823,0.26-1.101l6.469-5.879
		c0.184-0.167,0.424-0.26,0.672-0.26h33.063c0.249,0,0.488,0.093,0.673,0.26l6.469,5.879c0.306,0.278,0.409,0.715,0.26,1.101
		C47.784,24.746,47.413,25,47,25z M3.587,23h40.826l-4.269-3.879H7.855L3.587,23z"/>
	<rect x="22.527" y="18.121" width="2" height="5.471"/>
	<path d="M6.642,17.75L2.219,1.259C2.139,0.958,2.202,0.638,2.392,0.391C2.581,0.145,2.874,0,3.185,0H24
		c0.27,0,0.529,0.109,0.717,0.303C24.905,0.497,25.008,0.759,25,1.029l-0.474,16.49l-1.999-0.058L22.971,2H4.489l4.085,15.231
		L6.642,17.75z"/>
	<rect x="5.012" y="41.798" width="3.109" height="2"/>
	<rect x="10.704" y="41.798" width="3.109" height="2"/>
</g>
</svg>
