<?xml version="1.0" encoding="utf-8"?>
<!-- Generator: Adobe Illustrator 16.0.0, SVG Export Plug-In . SVG Version: 6.00 Build 0)  -->
<!DOCTYPE svg PUBLIC "-//W3C//DTD SVG 1.1//EN" "http://www.w3.org/Graphics/SVG/1.1/DTD/svg11.dtd">
<svg version="1.1" id="Layer_1" xmlns="http://www.w3.org/2000/svg" xmlns:xlink="http://www.w3.org/1999/xlink" x="0px" y="0px"
	 width="48px" height="48px" viewBox="0 0 48 48" enable-background="new 0 0 48 48" xml:space="preserve">
<g>
	<path d="M34.29,48H13.71c-1.74,0-3.156-1.416-3.156-3.156V3.156C10.554,1.416,11.97,0,13.71,0h20.58
		c1.74,0,3.155,1.416,3.155,3.156v41.688C37.445,46.584,36.03,48,34.29,48z M13.71,2c-0.637,0-1.156,0.519-1.156,1.156v41.688
		c0,0.638,0.519,1.156,1.156,1.156h20.58c0.637,0,1.155-0.519,1.155-1.156V3.156C35.445,2.519,34.927,2,34.29,2H13.71z"/>
	<rect x="11.554" y="17.121" width="24.891" height="2"/>
	<rect x="14.74" y="5.859" width="2" height="9.141"/>
	<rect x="14.74" y="21.711" width="2" height="16.314"/>
</g>
</svg>
