<?xml version="1.0" encoding="utf-8"?>
<!-- Generator: Adobe Illustrator 16.0.0, SVG Export Plug-In . SVG Version: 6.00 Build 0)  -->
<!DOCTYPE svg PUBLIC "-//W3C//DTD SVG 1.1//EN" "http://www.w3.org/Graphics/SVG/1.1/DTD/svg11.dtd">
<svg version="1.1" id="Layer_1" xmlns="http://www.w3.org/2000/svg" xmlns:xlink="http://www.w3.org/1999/xlink" x="0px" y="0px"
	 width="48px" height="48px" viewBox="0 0 48 48" enable-background="new 0 0 48 48" xml:space="preserve">
<g>
	<path d="M24,48.052c-13.233,0-24-10.767-24-24s10.767-24,24-24s24,10.767,24,24S37.233,48.052,24,48.052z M24,2.052
		c-12.131,0-22,9.869-22,22s9.869,22,22,22s22-9.869,22-22S36.131,2.052,24,2.052z"/>
	<g>
		<path d="M14.591,29.537c-3.024,0-5.485-2.461-5.485-5.485s2.46-5.485,5.485-5.485s5.485,2.46,5.485,5.485
			S17.615,29.537,14.591,29.537z M14.591,20.567c-1.921,0-3.485,1.563-3.485,3.485c0,1.922,1.563,3.485,3.485,3.485
			c1.922,0,3.485-1.563,3.485-3.485C18.076,22.13,16.513,20.567,14.591,20.567z"/>
		<path d="M33.411,29.536c-3.024,0-5.484-2.46-5.484-5.484c0-3.024,2.46-5.484,5.484-5.484c3.023,0,5.483,2.46,5.483,5.484
			C38.895,27.076,36.435,29.536,33.411,29.536z M33.411,20.568c-1.921,0-3.484,1.563-3.484,3.484s1.563,3.484,3.484,3.484
			s3.483-1.563,3.483-3.484S35.332,20.568,33.411,20.568z"/>
	</g>
	<path d="M23.464,39.871c-6.81,0-10.782-5.041-10.839-5.114l1.588-1.217l-0.794,0.608l0.792-0.61
		c0.286,0.369,7.138,8.962,18.625,0.931l1.146,1.639C29.99,38.899,26.453,39.871,23.464,39.871z"/>
	<path d="M1.407,21.025l-0.104-1.997C20.228,18.038,22.985,0.973,23.011,0.801l1.979,0.294C24.961,1.284,21.947,19.95,1.407,21.025z
		"/>
	<path d="M46.594,21.025C26.055,19.95,23.038,1.284,23.01,1.096L24.988,0.8c0.106,0.703,2.831,17.24,21.711,18.229L46.594,21.025z"
		/>
</g>
</svg>
