<?xml version="1.0" encoding="utf-8"?>
<!-- Generator: Adobe Illustrator 16.0.0, SVG Export Plug-In . SVG Version: 6.00 Build 0)  -->
<!DOCTYPE svg PUBLIC "-//W3C//DTD SVG 1.1//EN" "http://www.w3.org/Graphics/SVG/1.1/DTD/svg11.dtd">
<svg version="1.1" id="Layer_1" xmlns="http://www.w3.org/2000/svg" xmlns:xlink="http://www.w3.org/1999/xlink" x="0px" y="0px"
	 width="48px" height="48px" viewBox="0 0 48 48" enable-background="new 0 0 48 48" xml:space="preserve">
<g>
	<path d="M25.863,11.669c-0.469,0-0.934-0.056-1.381-0.166c-2.622-0.635-4.455-2.965-4.455-5.667C20.028,2.618,22.646,0,25.863,0
		s5.835,2.618,5.835,5.836C31.698,9.052,29.081,11.669,25.863,11.669z M25.863,2c-2.115,0-3.835,1.721-3.835,3.836
		c0,1.775,1.204,3.307,2.928,3.724c0.295,0.073,0.599,0.109,0.907,0.109c2.114,0,3.835-1.72,3.835-3.833
		C29.698,3.721,27.978,2,25.863,2z"/>
	<path d="M29.826,47.489l-9.67-17.25c-0.116-0.206-0.154-0.446-0.11-0.678l3.693-19.217l1.964,0.377L22.079,29.58l9.492,16.931
		L29.826,47.489z"/>
	<rect x="16.223" y="28.313" transform="matrix(0.9034 0.4288 -0.4288 0.9034 17.6105 -3.792)" width="2" height="17.761"/>
	<path d="M37.802,24.766l-9.29-0.703c-0.257-0.02-0.496-0.137-0.668-0.328l-5.068-5.632l1.486-1.338l4.8,5.334l8.89,0.672
		L37.802,24.766z"/>
	<rect x="35.925" y="16.262" transform="matrix(0.9958 0.0918 -0.0918 0.9958 3.0615 -3.255)" width="2.001" height="30.802"/>
	<path d="M15.828,28.806c-0.336,0-0.667-0.06-0.983-0.176l-4.307-1.586c-1.479-0.546-2.238-2.19-1.693-3.667l4.36-11.837
		c0.411-1.118,1.49-1.87,2.684-1.87c0.336,0,0.668,0.06,0.985,0.177l4.309,1.586c0.713,0.262,1.283,0.789,1.604,1.482
		c0.32,0.694,0.353,1.469,0.09,2.183l-4.361,11.839C18.1,28.055,17.021,28.806,15.828,28.806z M15.887,11.669
		c-0.359,0-0.683,0.226-0.807,0.561l-4.36,11.838c-0.164,0.443,0.065,0.936,0.508,1.099l4.307,1.586
		c0.434,0.161,0.943-0.08,1.102-0.509l4.36-11.837c0.078-0.212,0.068-0.444-0.028-0.653c-0.097-0.208-0.267-0.367-0.479-0.445
		l-4.31-1.587C16.085,11.688,15.986,11.669,15.887,11.669z"/>
</g>
</svg>
