<?xml version="1.0" encoding="utf-8"?>
<!-- Generator: Adobe Illustrator 16.0.0, SVG Export Plug-In . SVG Version: 6.00 Build 0)  -->
<!DOCTYPE svg PUBLIC "-//W3C//DTD SVG 1.1//EN" "http://www.w3.org/Graphics/SVG/1.1/DTD/svg11.dtd">
<svg version="1.1" id="Layer_1" xmlns="http://www.w3.org/2000/svg" xmlns:xlink="http://www.w3.org/1999/xlink" x="0px" y="0px"
	 width="48px" height="48px" viewBox="0 0 48 48" enable-background="new 0 0 48 48" xml:space="preserve">
<g>
	<path d="M20.835,48.438L-0.294,26.409L25.554,0H47.9v20.667L20.835,48.438z M2.491,26.423l18.356,19.139L45.9,19.853V2H26.396
		L2.491,26.423z"/>
	<rect x="17.461" y="23.1" transform="matrix(0.7071 0.7071 -0.7071 0.7071 23.9563 -9.6319)" width="12.285" height="2"/>
	<rect x="11.145" y="29.418" transform="matrix(0.7071 0.7071 -0.7071 0.7071 26.5708 -3.3152)" width="12.285" height="2"/>
	<path d="M35.057,17.4c-2.512,0-4.555-2.043-4.555-4.554c0-2.511,2.043-4.554,4.555-4.554c2.511,0,4.553,2.043,4.553,4.554
		C39.609,15.357,37.567,17.4,35.057,17.4z M35.057,10.292c-1.408,0-2.555,1.146-2.555,2.554s1.146,2.554,2.555,2.554
		c1.407,0,2.553-1.146,2.553-2.554S36.464,10.292,35.057,10.292z"/>
</g>
</svg>
