<?xml version="1.0" encoding="utf-8"?>
<!-- Generator: Adobe Illustrator 16.0.0, SVG Export Plug-In . SVG Version: 6.00 Build 0)  -->
<!DOCTYPE svg PUBLIC "-//W3C//DTD SVG 1.1//EN" "http://www.w3.org/Graphics/SVG/1.1/DTD/svg11.dtd">
<svg version="1.1" id="Layer_1" xmlns="http://www.w3.org/2000/svg" xmlns:xlink="http://www.w3.org/1999/xlink" x="0px" y="0px"
	 width="48px" height="48px" viewBox="0 0 48 48" enable-background="new 0 0 48 48" xml:space="preserve">
<g>
	<path d="M20.835,48.438L-0.293,26.409L25.554,0H47.9v20.667L20.835,48.438z M2.492,26.423l18.355,19.139L45.9,19.854V2H26.396
		L2.492,26.423z"/>
	<path d="M35.057,17.401c-2.512,0-4.556-2.043-4.556-4.555c0-2.512,2.044-4.555,4.556-4.555s4.555,2.043,4.555,4.555
		C39.611,15.357,37.568,17.401,35.057,17.401z M35.057,10.291c-1.409,0-2.556,1.146-2.556,2.555s1.146,2.555,2.556,2.555
		c1.408,0,2.555-1.146,2.555-2.555S36.465,10.291,35.057,10.291z"/>
</g>
</svg>
