<?xml version="1.0" encoding="utf-8"?>
<!-- Generator: Adobe Illustrator 16.0.0, SVG Export Plug-In . SVG Version: 6.00 Build 0)  -->
<!DOCTYPE svg PUBLIC "-//W3C//DTD SVG 1.1//EN" "http://www.w3.org/Graphics/SVG/1.1/DTD/svg11.dtd">
<svg version="1.1" id="Layer_1" xmlns="http://www.w3.org/2000/svg" xmlns:xlink="http://www.w3.org/1999/xlink" x="0px" y="0px"
	 width="48px" height="48px" viewBox="0 0 48 48" enable-background="new 0 0 48 48" xml:space="preserve">
<g>
	<path d="M34.352,11.35h-20.7V2.497C13.652,1.12,14.771,0,16.148,0h15.706c1.377,0,2.498,1.12,2.498,2.497V11.35z M15.652,9.35h16.7
		V2.497C32.352,2.223,32.128,2,31.854,2H16.148c-0.273,0-0.496,0.223-0.496,0.497V9.35z"/>
	<path d="M40.27,48H7.733c-1.376,0-2.496-1.119-2.496-2.495V11.846c0-1.376,1.12-2.496,2.496-2.496H40.27
		c1.377,0,2.498,1.12,2.498,2.496v33.659C42.768,46.881,41.646,48,40.27,48z M7.733,11.35c-0.273,0-0.496,0.223-0.496,0.496v33.659
		C7.237,45.778,7.459,46,7.733,46H40.27c0.274,0,0.498-0.222,0.498-0.495V11.846c0-0.273-0.224-0.496-0.498-0.496H7.733z"/>
	<rect x="1.187" y="9.35" width="45.625" height="2"/>
</g>
</svg>
