<?xml version="1.0" encoding="utf-8"?>
<!-- Generator: Adobe Illustrator 16.0.0, SVG Export Plug-In . SVG Version: 6.00 Build 0)  -->
<!DOCTYPE svg PUBLIC "-//W3C//DTD SVG 1.1//EN" "http://www.w3.org/Graphics/SVG/1.1/DTD/svg11.dtd">
<svg version="1.1" id="Layer_1" xmlns="http://www.w3.org/2000/svg" xmlns:xlink="http://www.w3.org/1999/xlink" x="0px" y="0px"
	 width="48px" height="48px" viewBox="0 0 48 48" enable-background="new 0 0 48 48" xml:space="preserve">
<g>
	<g>
		<path d="M39.075,48H8.925c-1.654,0-3-1.346-3-3V3c0-1.654,1.346-3,3-3h30.15c1.654,0,3,1.346,3,3v42
			C42.075,46.654,40.729,48,39.075,48z M8.925,2c-0.551,0-1,0.449-1,1v42c0,0.552,0.449,1,1,1h30.15c0.552,0,1-0.448,1-1V3
			c0-0.551-0.448-1-1-1H8.925z"/>
	</g>
	<path d="M34.745,22.704h-21.49c-0.552,0-1-0.448-1-1V6.492c0-0.552,0.448-1,1-1h21.49c0.553,0,1,0.448,1,1v15.212
		C35.745,22.256,35.298,22.704,34.745,22.704z M14.255,20.704h19.49V7.492h-19.49V20.704z"/>
	<path d="M23.997,41.525c-4.113,0-7.46-3.348-7.46-7.463c0-4.116,3.347-7.465,7.46-7.465c4.118,0,7.469,3.349,7.469,7.465
		C31.466,38.178,28.115,41.525,23.997,41.525z M23.997,28.598c-3.011,0-5.46,2.451-5.46,5.465c0,3.013,2.449,5.463,5.46,5.463
		c3.016,0,5.469-2.45,5.469-5.463C29.466,31.049,27.013,28.598,23.997,28.598z"/>
</g>
</svg>
