<?xml version="1.0" encoding="utf-8"?>
<!-- Generator: Adobe Illustrator 16.0.0, SVG Export Plug-In . SVG Version: 6.00 Build 0)  -->
<!DOCTYPE svg PUBLIC "-//W3C//DTD SVG 1.1//EN" "http://www.w3.org/Graphics/SVG/1.1/DTD/svg11.dtd">
<svg version="1.1" id="Layer_1" xmlns="http://www.w3.org/2000/svg" xmlns:xlink="http://www.w3.org/1999/xlink" x="0px" y="0px"
	 width="48px" height="48px" viewBox="0 0 48 48" enable-background="new 0 0 48 48" xml:space="preserve">
<g>
	<path d="M45.16,47.922H2.517C1.129,47.922,0,46.793,0,45.406V2.595c0-1.388,1.129-2.517,2.517-2.517H45.16
		c1.387,0,2.516,1.129,2.516,2.517v42.811C47.676,46.793,46.547,47.922,45.16,47.922z M2.517,2.078C2.232,2.078,2,2.31,2,2.595
		v42.811c0,0.284,0.232,0.516,0.517,0.516H45.16c0.284,0,0.516-0.231,0.516-0.516V2.595c0-0.285-0.231-0.517-0.516-0.517H2.517z"/>
	<rect x="9.081" y="8.982" width="29.021" height="2"/>
	<rect x="9.081" y="16.565" width="29.021" height="2"/>
	<rect x="9.081" y="24.146" width="29.021" height="2"/>
	<path d="M30.318,42.314H17.687c-1.389,0-2.518-1.129-2.518-2.516v-4.244H1.006v-2h16.163v6.244c0,0.284,0.232,0.516,0.518,0.516
		h12.631c0.285,0,0.517-0.231,0.517-0.516v-6.244H47v2H32.835v4.244C32.835,41.186,31.706,42.314,30.318,42.314z"/>
</g>
</svg>
