<?xml version="1.0" encoding="utf-8"?>
<!-- Generator: Adobe Illustrator 16.0.0, SVG Export Plug-In . SVG Version: 6.00 Build 0)  -->
<!DOCTYPE svg PUBLIC "-//W3C//DTD SVG 1.1//EN" "http://www.w3.org/Graphics/SVG/1.1/DTD/svg11.dtd">
<svg version="1.1" id="Layer_1" xmlns="http://www.w3.org/2000/svg" xmlns:xlink="http://www.w3.org/1999/xlink" x="0px" y="0px"
	 width="48px" height="48px" viewBox="0 0 48 48" enable-background="new 0 0 48 48" xml:space="preserve">
<g>
	<path d="M30.316,42.316H17.683c-1.387,0-2.516-1.129-2.516-2.516v-4.244H1v-2h16.167v6.244c0,0.284,0.231,0.516,0.516,0.516h12.633
		c0.285,0,0.517-0.231,0.517-0.516v-6.244H47v2H32.833v4.244C32.833,41.188,31.704,42.316,30.316,42.316z"/>
	<path d="M45.482,47.924H2.518C1.129,47.924,0,46.796,0,45.41V14.797c0-1.388,1.129-2.517,2.518-2.517h4.545v2H2.518
		C2.232,14.28,2,14.512,2,14.797V45.41c0,0.283,0.232,0.514,0.518,0.514h42.964c0.285,0,0.518-0.23,0.518-0.514V14.797
		c0-0.285-0.232-0.517-0.518-0.517h-4.941v-2h4.941c1.389,0,2.518,1.129,2.518,2.517V45.41C48,46.796,46.871,47.924,45.482,47.924z"
		/>
	<path d="M41.707,34.711h-2V2.593c0-0.285-0.232-0.517-0.518-0.517H8.745c-0.285,0-0.516,0.232-0.516,0.517v32.118h-2V2.593
		c0-1.388,1.129-2.517,2.516-2.517h30.444c1.389,0,2.518,1.129,2.518,2.517V34.711z"/>
	<rect x="15.144" y="8.981" width="17.316" height="2"/>
	<rect x="15.144" y="16.565" width="17.316" height="2"/>
	<rect x="15.144" y="24.148" width="17.316" height="2"/>
</g>
</svg>
