<?xml version="1.0" encoding="utf-8"?>
<!-- Generator: Adobe Illustrator 16.0.0, SVG Export Plug-In . SVG Version: 6.00 Build 0)  -->
<!DOCTYPE svg PUBLIC "-//W3C//DTD SVG 1.1//EN" "http://www.w3.org/Graphics/SVG/1.1/DTD/svg11.dtd">
<svg version="1.1" id="Layer_1" xmlns="http://www.w3.org/2000/svg" xmlns:xlink="http://www.w3.org/1999/xlink" x="0px" y="0px"
	 width="48px" height="48px" viewBox="0 0 48 48" enable-background="new 0 0 48 48" xml:space="preserve">
<g>
	<path d="M20.39,31.646c0,1.149-0.932,2.082-2.084,2.082c-1.148,0-2.088-0.933-2.088-2.082c0-1.151,0.939-2.088,2.088-2.088
		C19.458,29.559,20.39,30.495,20.39,31.646z"/>
	<path d="M31.779,31.646c0,1.149-0.928,2.082-2.084,2.082c-1.146,0-2.086-0.933-2.086-2.082c0-1.151,0.938-2.088,2.086-2.088
		C30.852,29.559,31.779,30.495,31.779,31.646z"/>
	<g>
		<g>
			<path d="M11.439,6.646c0,0.839-0.684,1.522-1.519,1.522c-0.843,0-1.532-0.683-1.532-1.522c0-0.841,0.689-1.525,1.532-1.525
				C10.755,5.121,11.439,5.805,11.439,6.646z"/>
			<path d="M11.439,13.918c0,0.839-0.684,1.523-1.519,1.523c-0.843,0-1.532-0.684-1.532-1.523c0-0.841,0.689-1.522,1.532-1.522
				C10.755,12.396,11.439,13.077,11.439,13.918z"/>
		</g>
		<g>
			<path d="M13.551,11.805c-0.845,0-1.527-0.681-1.527-1.518c0-0.841,0.683-1.531,1.527-1.531c0.842,0,1.523,0.69,1.523,1.531
				C15.074,11.124,14.393,11.805,13.551,11.805z"/>
			<path d="M6.277,11.805c-0.843,0-1.524-0.681-1.524-1.518c0-0.841,0.681-1.531,1.524-1.531c0.839,0,1.523,0.69,1.523,1.531
				C7.801,11.124,7.117,11.805,6.277,11.805z"/>
		</g>
	</g>
	<g>
		<g>
			<path d="M39.609,6.646c0,0.839-0.685,1.522-1.517,1.522c-0.845,0-1.532-0.683-1.532-1.522c0-0.841,0.688-1.525,1.532-1.525
				C38.926,5.121,39.609,5.805,39.609,6.646z"/>
			<path d="M39.609,13.918c0,0.839-0.685,1.523-1.517,1.523c-0.845,0-1.532-0.684-1.532-1.523c0-0.841,0.688-1.522,1.532-1.522
				C38.926,12.396,39.609,13.077,39.609,13.918z"/>
		</g>
		<g>
			<path d="M41.725,11.805c-0.843,0-1.524-0.681-1.524-1.518c0-0.841,0.683-1.531,1.524-1.531c0.84,0,1.523,0.69,1.523,1.531
				C43.248,11.124,42.564,11.805,41.725,11.805z"/>
			<path d="M34.449,11.805c-0.84,0-1.523-0.681-1.523-1.518c0-0.841,0.686-1.531,1.523-1.531c0.844,0,1.523,0.69,1.523,1.531
				C35.975,11.124,35.293,11.805,34.449,11.805z"/>
		</g>
	</g>
	<path d="M31.779,41.881H16.218c-0.552,0-1-0.447-1-1s0.448-1,1-1h15.562c0.553,0,1,0.447,1,1S32.332,41.881,31.779,41.881z"/>
	<path d="M9.916,20.194C4.448,20.194,0,15.747,0,10.28s4.448-9.915,9.916-9.915c5.466,0,9.913,4.448,9.913,9.915
		S15.382,20.194,9.916,20.194z M9.916,2.365C5.551,2.365,2,5.916,2,10.28c0,4.364,3.551,7.914,7.916,7.914
		c4.363,0,7.913-3.55,7.913-7.914C17.829,5.916,14.279,2.365,9.916,2.365z"/>
	<path d="M38.088,20.194c-5.468,0-9.917-4.447-9.917-9.914s4.449-9.915,9.917-9.915C43.554,0.365,48,4.813,48,10.28
		S43.554,20.194,38.088,20.194z M38.088,2.365c-4.365,0-7.917,3.55-7.917,7.915c0,4.364,3.552,7.914,7.917,7.914
		c4.362,0,7.912-3.55,7.912-7.914C46,5.916,42.45,2.365,38.088,2.365z"/>
	<path d="M40.927,47.635H7.073c-3.9,0-7.073-3.173-7.073-7.072V18.56c0-1.551,0.523-3.044,1.512-4.317l0.895-1.152l0.752,1.25
		c1.452,2.413,3.978,3.854,6.757,3.854c3.6,0,6.74-2.449,7.636-5.955l0.192-0.752h12.51l0.192,0.752
		c0.896,3.506,4.038,5.955,7.641,5.955c2.779,0,5.305-1.44,6.754-3.852l0.75-1.247l0.896,1.146C47.477,15.508,48,17.001,48,18.56
		v22.002C48,44.462,44.827,47.635,40.927,47.635z M2.38,16.682C2.129,17.281,2,17.915,2,18.56v22.002
		c0,2.797,2.276,5.072,5.073,5.072h33.854c2.798,0,5.073-2.275,5.073-5.072V18.56c0-0.647-0.129-1.281-0.378-1.878
		c-1.866,2.223-4.585,3.512-7.534,3.512c-4.254,0-7.995-2.721-9.354-6.707h-9.467c-1.358,3.986-5.098,6.707-9.35,6.707
		C6.967,20.194,4.248,18.905,2.38,16.682z"/>
</g>
</svg>
