<?xml version="1.0" encoding="utf-8"?>
<!-- Generator: Adobe Illustrator 16.0.0, SVG Export Plug-In . SVG Version: 6.00 Build 0)  -->
<!DOCTYPE svg PUBLIC "-//W3C//DTD SVG 1.1//EN" "http://www.w3.org/Graphics/SVG/1.1/DTD/svg11.dtd">
<svg version="1.1" id="Layer_1" xmlns="http://www.w3.org/2000/svg" xmlns:xlink="http://www.w3.org/1999/xlink" x="0px" y="0px"
	 width="48px" height="48px" viewBox="0 0 48 48" enable-background="new 0 0 48 48" xml:space="preserve">
<g>
	<path d="M45.262,44.691H2.738C1.228,44.691,0,43.464,0,41.954V6.046c0-1.51,1.228-2.739,2.738-2.739h42.524
		C46.772,3.309,48,4.537,48,6.046v35.908C48,43.464,46.771,44.691,45.262,44.691z M2.738,5.307C2.331,5.307,2,5.639,2,6.046v35.908
		c0,0.406,0.331,0.737,0.738,0.737h42.524c0.407,0,0.738-0.331,0.738-0.737V6.046c0-0.407-0.332-0.738-0.739-0.739H2.738z"/>
	<path d="M23.424,34.293H7.877V10.554h15.547V34.293z M9.877,32.293h11.547V12.554H9.877V32.293z"/>
	<rect x="28.17" y="10.554" width="12.919" height="2"/>
	<rect x="28.17" y="16.638" width="12.919" height="2"/>
	<rect x="28.17" y="22.722" width="12.919" height="2"/>
	<rect x="28.17" y="28.807" width="12.919" height="2"/>
</g>
</svg>
