<?xml version="1.0" encoding="utf-8"?>
<!-- Generator: Adobe Illustrator 16.0.0, SVG Export Plug-In . SVG Version: 6.00 Build 0)  -->
<!DOCTYPE svg PUBLIC "-//W3C//DTD SVG 1.1//EN" "http://www.w3.org/Graphics/SVG/1.1/DTD/svg11.dtd">
<svg version="1.1" id="Layer_1" xmlns="http://www.w3.org/2000/svg" xmlns:xlink="http://www.w3.org/1999/xlink" x="0px" y="0px"
	 width="48px" height="48px" viewBox="0 0 48 48" enable-background="new 0 0 48 48" xml:space="preserve">
<g>
	<path d="M42.553,48H5.448V20.176h37.104V48z M7.448,46h33.104V22.176H7.448V46z"/>
	<path d="M36.501,21.176h-2V7.456C34.501,4.448,32.054,2,29.045,2H18.957c-3.008,0-5.456,2.448-5.456,5.456v13.72h-2V7.456
		C11.501,3.345,14.846,0,18.957,0h10.088c4.111,0,7.456,3.345,7.456,7.456V21.176z"/>
	<path d="M24.001,40.333c-2.553,0-4.631-2.078-4.631-4.633v-6.052c0-2.554,2.078-4.631,4.631-4.631c2.554,0,4.631,2.077,4.631,4.631
		V35.7C28.632,38.255,26.555,40.333,24.001,40.333z M24.001,27.018c-1.451,0-2.631,1.181-2.631,2.631V35.7
		c0,1.452,1.18,2.633,2.631,2.633c1.45,0,2.631-1.181,2.631-2.633v-6.052C26.632,28.198,25.451,27.018,24.001,27.018z"/>
</g>
</svg>
