<?xml version="1.0" encoding="utf-8"?>
<!-- Generator: Adobe Illustrator 16.0.0, SVG Export Plug-In . SVG Version: 6.00 Build 0)  -->
<!DOCTYPE svg PUBLIC "-//W3C//DTD SVG 1.1//EN" "http://www.w3.org/Graphics/SVG/1.1/DTD/svg11.dtd">
<svg version="1.1" id="Layer_1" xmlns="http://www.w3.org/2000/svg" xmlns:xlink="http://www.w3.org/1999/xlink" x="0px" y="0px"
	 width="48px" height="48px" viewBox="0 0 48 48" enable-background="new 0 0 48 48" xml:space="preserve">
<g>
	<path d="M42.553,48H5.448V20.176h37.104V48z M7.448,46h33.104V22.176H7.448V46z"/>
	<path d="M13.499,21.176h-2V7.457C11.499,3.345,14.844,0,18.955,0h10.088c4.111,0,7.456,3.345,7.456,7.457v5.649h-2V7.457
		C34.499,4.448,32.052,2,29.043,2H18.955c-3.008,0-5.456,2.448-5.456,5.457V21.176z"/>
	<path d="M23.999,40.333c-2.553,0-4.631-2.077-4.631-4.631v-6.054c0-2.554,2.078-4.631,4.631-4.631c2.554,0,4.631,2.077,4.631,4.631
		v6.054C28.63,38.256,26.553,40.333,23.999,40.333z M23.999,27.018c-1.451,0-2.631,1.181-2.631,2.631v6.054
		c0,1.45,1.18,2.631,2.631,2.631c1.45,0,2.631-1.181,2.631-2.631v-6.054C26.63,28.198,25.449,27.018,23.999,27.018z"/>
</g>
</svg>
