<?xml version="1.0" encoding="utf-8"?>
<!-- Generator: Adobe Illustrator 16.0.0, SVG Export Plug-In . SVG Version: 6.00 Build 0)  -->
<!DOCTYPE svg PUBLIC "-//W3C//DTD SVG 1.1//EN" "http://www.w3.org/Graphics/SVG/1.1/DTD/svg11.dtd">
<svg version="1.1" id="Layer_1" xmlns="http://www.w3.org/2000/svg" xmlns:xlink="http://www.w3.org/1999/xlink" x="0px" y="0px"
	 width="48px" height="48px" viewBox="0 0 48 48" enable-background="new 0 0 48 48" xml:space="preserve">
<g>
	<g>
		<path d="M45,48H3c-1.654,0-3-1.346-3-3V3c0-1.654,1.346-3,3-3h42c1.654,0,3,1.346,3,3v42C48,46.654,46.654,48,45,48z M3,2
			C2.449,2,2,2.449,2,3v42c0,0.552,0.449,1,1,1h42c0.552,0,1-0.448,1-1V3c0-0.551-0.448-1-1-1H3z"/>
	</g>
	<path d="M24.002,42.146C13.994,42.146,5.851,34.006,5.851,24c0-10.008,8.143-18.15,18.151-18.15
		c10.006,0,18.146,8.142,18.146,18.15C42.148,34.006,34.008,42.146,24.002,42.146z M24.002,7.85C15.096,7.85,7.851,15.095,7.851,24
		c0,8.903,7.245,16.146,16.151,16.146c8.903,0,16.146-7.243,16.146-16.146C40.148,15.095,32.905,7.85,24.002,7.85z"/>
	<path d="M24,30.948c-3.831,0-6.948-3.117-6.948-6.948s3.117-6.948,6.948-6.948s6.948,3.117,6.948,6.948S27.831,30.948,24,30.948z
		 M24,19.052c-2.729,0-4.948,2.22-4.948,4.948s2.22,4.948,4.948,4.948s4.948-2.22,4.948-4.948S26.729,19.052,24,19.052z"/>
	<circle cx="7.029" cy="6.85" r="2.624"/>
	<path d="M42.898,6.85c0,1.448-1.174,2.624-2.619,2.624c-1.449,0-2.627-1.176-2.627-2.624c0-1.449,1.178-2.622,2.627-2.622
		C41.727,4.228,42.898,5.401,42.898,6.85z"/>
	<path d="M9.653,40.971c0,1.453-1.175,2.627-2.626,2.627c-1.451,0-2.622-1.174-2.622-2.627c0-1.447,1.171-2.621,2.622-2.621
		C8.479,38.35,9.653,39.523,9.653,40.971z"/>
	<path d="M42.898,40.971c0,1.453-1.174,2.627-2.619,2.627c-1.449,0-2.627-1.174-2.627-2.627c0-1.447,1.178-2.621,2.627-2.621
		C41.727,38.35,42.898,39.523,42.898,40.971z"/>
</g>
</svg>
