<?xml version="1.0" encoding="utf-8"?>
<!-- Generator: Adobe Illustrator 16.0.0, SVG Export Plug-In . SVG Version: 6.00 Build 0)  -->
<!DOCTYPE svg PUBLIC "-//W3C//DTD SVG 1.1//EN" "http://www.w3.org/Graphics/SVG/1.1/DTD/svg11.dtd">
<svg version="1.1" id="Layer_1" xmlns="http://www.w3.org/2000/svg" xmlns:xlink="http://www.w3.org/1999/xlink" x="0px" y="0px"
	 width="48px" height="48px" viewBox="0 0 48 48" enable-background="new 0 0 48 48" xml:space="preserve">
<g>
	<path d="M36.979,17.382H6.39c-1.991,0-3.611-1.62-3.611-3.612V3.864c0-1.992,1.62-3.612,3.611-3.612h30.588
		c1.991,0,3.611,1.621,3.611,3.612v9.906C40.59,15.762,38.97,17.382,36.979,17.382z M6.39,2.252c-0.889,0-1.611,0.723-1.611,1.612
		v9.906c0,0.889,0.723,1.612,1.611,1.612h30.588c0.889,0,1.611-0.723,1.611-1.612V3.864c0-0.889-0.723-1.612-1.611-1.612H6.39z"/>
	<path d="M26.734,47.748h-3.309c-1.511,0-2.741-1.229-2.741-2.74V28.459h8.792v16.549C29.477,46.519,28.246,47.748,26.734,47.748z
		 M22.685,30.459v14.549c0,0.408,0.333,0.74,0.741,0.74h3.309c0.409,0,0.742-0.332,0.742-0.74V30.459H22.685z"/>
	<polygon points="26.08,29.459 24.08,29.459 24.08,20.742 46,20.742 46,9.817 39.59,9.817 39.59,7.817 48,7.817 48,22.742 
		26.08,22.742 	"/>
	<rect x="1" y="7.817" width="2.779" height="2"/>
</g>
</svg>
