<?xml version="1.0" encoding="utf-8"?>
<!-- Generator: Adobe Illustrator 16.0.0, SVG Export Plug-In . SVG Version: 6.00 Build 0)  -->
<!DOCTYPE svg PUBLIC "-//W3C//DTD SVG 1.1//EN" "http://www.w3.org/Graphics/SVG/1.1/DTD/svg11.dtd">
<svg version="1.1" id="Layer_1" xmlns="http://www.w3.org/2000/svg" xmlns:xlink="http://www.w3.org/1999/xlink" x="0px" y="0px"
	 width="48px" height="48px" viewBox="0 0 48 48" enable-background="new 0 0 48 48" xml:space="preserve">
<g>
	<path d="M34.226,47.848c-4.525,0-12.027-2.108-22.072-12.154C-6.097,17.445,1.479,7.581,1.811,7.17l0.103-0.109l8.068-7.396
		L19.92,13.03l-4.438,4.436l14.955,14.956l6.012-5.11L48.447,38.28l-7.769,7.756C40.587,46.11,38.386,47.848,34.226,47.848z
		 M3.335,8.47c-0.484,0.7-6.018,9.56,10.232,25.809c9.561,9.562,16.51,11.568,20.658,11.568c3.147,0,4.906-1.16,5.169-1.348
		l6.158-6.155L36.4,29.978l-6.072,5.163L12.653,17.466l4.631-4.629l-7.585-10.2L3.335,8.47z"/>
	<polygon points="44.584,16.955 30.29,16.955 30.29,1.454 32.29,1.454 32.29,14.955 44.584,14.955 	"/>
</g>
</svg>
