<?xml version="1.0" encoding="utf-8"?>
<!-- Generator: Adobe Illustrator 16.0.0, SVG Export Plug-In . SVG Version: 6.00 Build 0)  -->
<!DOCTYPE svg PUBLIC "-//W3C//DTD SVG 1.1//EN" "http://www.w3.org/Graphics/SVG/1.1/DTD/svg11.dtd">
<svg version="1.1" id="Layer_1" xmlns="http://www.w3.org/2000/svg" xmlns:xlink="http://www.w3.org/1999/xlink" x="0px" y="0px"
	 width="48px" height="48px" viewBox="0 0 48 48" enable-background="new 0 0 48 48" xml:space="preserve">
<g>
	<path d="M34.228,47.849c-4.525,0-12.028-2.108-22.073-12.155C-6.094,17.446,1.478,7.581,1.81,7.17l0.103-0.11l8.069-7.396
		l9.939,13.365l-4.436,4.437l14.956,14.956l6.012-5.11L48.446,38.28l-7.767,7.758C40.588,46.112,38.387,47.849,34.228,47.849z
		 M3.334,8.47C2.85,9.171-2.68,18.032,13.569,34.279c9.561,9.563,16.511,11.569,20.659,11.569c3.146,0,4.904-1.159,5.168-1.347
		l6.158-6.157l-9.151-8.367l-6.072,5.163L12.656,17.466l4.628-4.629L9.699,2.636L3.334,8.47z"/>
	<polygon points="41.958,20.487 39.958,20.487 39.958,6.985 27.665,6.985 27.665,4.985 41.958,4.985 	"/>
</g>
</svg>
