<?xml version="1.0" encoding="utf-8"?>
<!-- Generator: Adobe Illustrator 16.0.0, SVG Export Plug-In . SVG Version: 6.00 Build 0)  -->
<!DOCTYPE svg PUBLIC "-//W3C//DTD SVG 1.1//EN" "http://www.w3.org/Graphics/SVG/1.1/DTD/svg11.dtd">
<svg version="1.1" id="Layer_1" xmlns="http://www.w3.org/2000/svg" xmlns:xlink="http://www.w3.org/1999/xlink" x="0px" y="0px"
	 width="48px" height="48px" viewBox="0 0 48 48" enable-background="new 0 0 48 48" xml:space="preserve">
<g>
	<path d="M18.576,47.999c-9.857,0-17.877-8.02-17.877-17.877s8.02-17.877,17.877-17.877s17.877,8.02,17.877,17.877
		S28.434,47.999,18.576,47.999z M18.576,14.245c-8.754,0-15.877,7.123-15.877,15.877c0,8.755,7.123,15.877,15.877,15.877
		c8.755,0,15.877-7.122,15.877-15.877C34.453,21.368,27.331,14.245,18.576,14.245z"/>
	<polygon points="47.3,13.244 45.3,13.244 45.3,2 32.4,2 32.4,0 47.3,0 	"/>
	<rect x="37.212" y="-2.258" transform="matrix(0.7206 0.6933 -0.6933 0.7206 17.1983 -23.8639)" width="2" height="23.335"/>
</g>
</svg>
