<?xml version="1.0" encoding="utf-8"?>
<!-- Generator: Adobe Illustrator 16.0.0, SVG Export Plug-In . SVG Version: 6.00 Build 0)  -->
<!DOCTYPE svg PUBLIC "-//W3C//DTD SVG 1.1//EN" "http://www.w3.org/Graphics/SVG/1.1/DTD/svg11.dtd">
<svg version="1.1" id="Layer_1" xmlns="http://www.w3.org/2000/svg" xmlns:xlink="http://www.w3.org/1999/xlink" x="0px" y="0px"
	 width="48px" height="48px" viewBox="0 0 48 48" enable-background="new 0 0 48 48" xml:space="preserve">
<g>
	<path d="M8.377,32.378C3.758,32.378,0,28.62,0,24.001s3.758-8.377,8.377-8.377s8.377,3.758,8.377,8.377S12.996,32.378,8.377,32.378
		z M8.377,17.624C4.861,17.624,2,20.485,2,24.001c0,3.517,2.861,6.377,6.377,6.377s6.377-2.86,6.377-6.377
		C14.754,20.485,11.893,17.624,8.377,17.624z"/>
	<path d="M39.623,16.755c-4.619,0-8.377-3.758-8.377-8.377s3.758-8.377,8.377-8.377S48,3.759,48,8.378S44.242,16.755,39.623,16.755z
		 M39.623,2.001c-3.517,0-6.377,2.861-6.377,6.377s2.86,6.377,6.377,6.377S46,11.894,46,8.378S43.14,2.001,39.623,2.001z"/>
	<path d="M39.623,48c-4.619,0-8.377-3.758-8.377-8.377s3.758-8.377,8.377-8.377S48,35.004,48,39.623S44.242,48,39.623,48z
		 M39.623,33.246c-3.517,0-6.377,2.86-6.377,6.377S36.106,46,39.623,46S46,43.14,46,39.623S43.14,33.246,39.623,33.246z"/>
	<rect x="23.432" y="5.643" transform="matrix(0.4511 0.8925 -0.8925 0.4511 27.1258 -13.3696)" width="2" height="19.45"/>
	<rect x="13.358" y="31.293" transform="matrix(0.9052 0.425 -0.425 0.9052 15.9576 -6.9533)" width="20.415" height="2"/>
</g>
</svg>
