<?xml version="1.0" encoding="utf-8"?>
<!-- Generator: Adobe Illustrator 16.0.0, SVG Export Plug-In . SVG Version: 6.00 Build 0)  -->
<!DOCTYPE svg PUBLIC "-//W3C//DTD SVG 1.1//EN" "http://www.w3.org/Graphics/SVG/1.1/DTD/svg11.dtd">
<svg version="1.1" id="Layer_1" xmlns="http://www.w3.org/2000/svg" xmlns:xlink="http://www.w3.org/1999/xlink" x="0px" y="0px"
	 width="48px" height="48px" viewBox="0 0 48 48" enable-background="new 0 0 48 48" xml:space="preserve">
<g>
	<g>
		<polygon points="47.041,48 0.911,48 0.946,28.71 8.413,1.332 18.842,1.332 18.842,3.332 9.94,3.332 2.911,29.106 2.911,46 
			45.041,46 45.041,29.111 37.748,3.332 30.186,3.332 30.186,1.332 39.262,1.332 47.041,28.973 		"/>
		<path d="M23.974,38.467c-5.15,0-9.34-4.19-9.34-9.342h2c0,4.048,3.293,7.342,7.34,7.342c4.048,0,7.342-3.294,7.342-7.342h2
			C33.316,34.276,29.125,38.467,23.974,38.467z"/>
		<rect x="1.911" y="28.125" width="14.663" height="2"/>
		<rect x="31.396" y="28.125" width="14.693" height="2"/>
	</g>
	<g>
		<rect x="22.79" y="1" width="2" height="24.919"/>
		<polygon points="23.598,27.536 12.764,13.255 14.358,12.046 23.654,24.301 33.664,12.019 35.215,13.283 		"/>
	</g>
</g>
</svg>
