<?xml version="1.0" encoding="utf-8"?>
<!-- Generator: Adobe Illustrator 16.0.0, SVG Export Plug-In . SVG Version: 6.00 Build 0)  -->
<!DOCTYPE svg PUBLIC "-//W3C//DTD SVG 1.1//EN" "http://www.w3.org/Graphics/SVG/1.1/DTD/svg11.dtd">
<svg version="1.1" id="Layer_1" xmlns="http://www.w3.org/2000/svg" xmlns:xlink="http://www.w3.org/1999/xlink" x="0px" y="0px"
	 width="48px" height="48px" viewBox="0 0 48 48" enable-background="new 0 0 48 48" xml:space="preserve">
<g>
	<g>
		<polygon points="47.04,48 0.911,48 0.946,28.71 8.413,1.333 18.842,1.333 18.842,3.333 9.94,3.333 2.911,29.106 2.911,46 
			45.04,46 45.04,29.111 37.749,3.333 30.188,3.333 30.188,1.333 39.263,1.333 47.04,28.973 		"/>
		<path d="M23.974,38.465c-5.15,0-9.34-4.189-9.34-9.34h2c0,4.047,3.293,7.34,7.34,7.34c4.048,0,7.342-3.293,7.342-7.34h2
			C33.316,34.275,29.125,38.465,23.974,38.465z"/>
		<rect x="1.911" y="28.125" width="14.662" height="2"/>
		<rect x="31.396" y="28.125" width="14.692" height="2"/>
	</g>
	<g>
		<rect x="23.21" y="1" width="2" height="24.917"/>
		<polygon points="14.335,14.899 12.785,13.635 24.399,-0.618 35.234,13.663 33.641,14.872 24.343,2.618 		"/>
	</g>
</g>
</svg>
