<?xml version="1.0" encoding="utf-8"?>
<!-- Generator: Adobe Illustrator 16.0.0, SVG Export Plug-In . SVG Version: 6.00 Build 0)  -->
<!DOCTYPE svg PUBLIC "-//W3C//DTD SVG 1.1//EN" "http://www.w3.org/Graphics/SVG/1.1/DTD/svg11.dtd">
<svg version="1.1" id="Layer_1" xmlns="http://www.w3.org/2000/svg" xmlns:xlink="http://www.w3.org/1999/xlink" x="0px" y="0px"
	 width="48px" height="48px" viewBox="0 0 48 48" enable-background="new 0 0 48 48" xml:space="preserve">
<g>
	<g>
		<rect x="32.939" y="37.613" width="14.061" height="2"/>
	</g>
	<path d="M27.357,39.613H4.764C2.137,39.613,0,37.478,0,34.852V13.149c0-2.626,2.137-4.763,4.764-4.763h31.443
		c2.627,0,4.764,2.137,4.764,4.763v12.041h-2V13.149c0-1.523-1.24-2.763-2.764-2.763H4.764C3.24,10.386,2,11.625,2,13.149v21.703
		c0,1.522,1.24,2.762,2.764,2.762h22.593V39.613z"/>
	<polygon points="19.646,25.288 1.982,10.838 3.249,9.29 19.654,22.711 37.14,8.607 38.396,10.164 	"/>
</g>
</svg>
