<?xml version="1.0" encoding="utf-8"?>
<!-- Generator: Adobe Illustrator 16.0.0, SVG Export Plug-In . SVG Version: 6.00 Build 0)  -->
<!DOCTYPE svg PUBLIC "-//W3C//DTD SVG 1.1//EN" "http://www.w3.org/Graphics/SVG/1.1/DTD/svg11.dtd">
<svg version="1.1" id="Layer_1" xmlns="http://www.w3.org/2000/svg" xmlns:xlink="http://www.w3.org/1999/xlink" x="0px" y="0px"
	 width="48px" height="48px" viewBox="0 0 48 48" enable-background="new 0 0 48 48" xml:space="preserve">
<g>
	<g>
		<rect x="34.437" y="35.697" transform="matrix(0.7071 0.7071 -0.7071 0.7071 38.1904 -18.8063)" width="14.718" height="2"/>
		<rect x="40.796" y="29.338" transform="matrix(0.7071 0.7071 -0.7071 0.7071 38.1904 -18.8063)" width="2" height="14.718"/>
	</g>
	<path d="M28.596,37.697H4.94c-2.724,0-4.94-2.216-4.94-4.94V10.039C0,7.316,2.216,5.1,4.94,5.1h32.917
		c2.723,0,4.938,2.216,4.938,4.939v12.604h-2V10.039c0-1.621-1.318-2.939-2.938-2.939H4.94C3.319,7.1,2,8.418,2,10.039v22.718
		c0,1.621,1.319,2.94,2.94,2.94h23.656V37.697z"/>
	<polygon points="20.521,22.685 2.057,7.583 3.323,6.035 20.53,20.109 38.86,5.322 40.116,6.878 	"/>
</g>
</svg>
