<?xml version="1.0" encoding="utf-8"?>
<!-- Generator: Adobe Illustrator 16.0.0, SVG Export Plug-In . SVG Version: 6.00 Build 0)  -->
<!DOCTYPE svg PUBLIC "-//W3C//DTD SVG 1.1//EN" "http://www.w3.org/Graphics/SVG/1.1/DTD/svg11.dtd">
<svg version="1.1" id="Layer_1" xmlns="http://www.w3.org/2000/svg" xmlns:xlink="http://www.w3.org/1999/xlink" x="0px" y="0px"
	 width="48px" height="48px" viewBox="0 0 48 48" enable-background="new 0 0 48 48" xml:space="preserve">
<g>
	<path d="M11.794,24.113c-3.066,0-5.971-1.171-8.18-3.299C-1.069,16.301-1.21,8.817,3.298,4.131C5.542,1.8,8.56,0.516,11.797,0.516
		c3.067,0,5.975,1.172,8.188,3.3c4.683,4.513,4.822,11.996,0.311,16.682C18.05,22.829,15.031,24.113,11.794,24.113z M11.797,2.516
		c-2.689,0-5.195,1.066-7.058,3.002C0.995,9.41,1.112,15.625,5.002,19.374c1.834,1.767,4.246,2.739,6.792,2.739
		c2.689,0,5.196-1.066,7.061-3.002c3.746-3.892,3.631-10.107-0.257-13.854C16.76,3.489,14.345,2.516,11.797,2.516z"/>
	<path d="M39.882,47.484c-0.231,0-0.463-0.08-0.651-0.241L12.296,24.141c-0.419-0.36-0.468-0.991-0.108-1.41
		c0.36-0.42,0.991-0.467,1.41-0.108L39.816,45.11l5.809-6.033L22.164,13.724c-0.375-0.405-0.351-1.038,0.055-1.413
		c0.404-0.375,1.037-0.352,1.413,0.055l24.103,26.046c0.359,0.389,0.354,0.99-0.014,1.372l-7.118,7.394
		C40.406,47.381,40.145,47.484,39.882,47.484z"/>
	<path d="M32.398,33.15c-0.25,0-0.5-0.093-0.693-0.279l-6.295-6.06c-0.398-0.383-0.41-1.017-0.027-1.414
		c0.384-0.398,1.019-0.408,1.414-0.027l6.295,6.06c0.398,0.383,0.41,1.017,0.027,1.414C32.923,33.048,32.66,33.15,32.398,33.15z"/>
</g>
</svg>
