<?xml version="1.0" encoding="utf-8"?>
<!-- Generator: Adobe Illustrator 16.0.0, SVG Export Plug-In . SVG Version: 6.00 Build 0)  -->
<!DOCTYPE svg PUBLIC "-//W3C//DTD SVG 1.1//EN" "http://www.w3.org/Graphics/SVG/1.1/DTD/svg11.dtd">
<svg version="1.1" id="Layer_1" xmlns="http://www.w3.org/2000/svg" xmlns:xlink="http://www.w3.org/1999/xlink" x="0px" y="0px"
	 width="48px" height="48px" viewBox="0 0 48 48" enable-background="new 0 0 48 48" xml:space="preserve">
<g>
	<path d="M45.477,44.82H11.662c-1.392,0-2.524-1.133-2.524-2.524V14.842c0-1.391,1.132-2.523,2.524-2.523h33.814
		c1.392,0,2.523,1.132,2.523,2.523v27.454C48,43.688,46.868,44.82,45.477,44.82z M11.662,14.319c-0.289,0-0.524,0.234-0.524,0.523
		v27.454c0,0.289,0.235,0.524,0.524,0.524h33.814c0.289,0,0.523-0.235,0.523-0.524V14.842c0-0.289-0.234-0.523-0.523-0.523H11.662z"
		/>
	<path d="M5.646,35.68H2.522C1.131,35.68,0,34.549,0,33.158V5.703C0,4.312,1.131,3.18,2.522,3.18h33.816
		c1.392,0,2.523,1.131,2.523,2.522v3.313h-2V5.702c0-0.288-0.234-0.522-0.523-0.522H2.522C2.234,5.18,2,5.415,2,5.703v27.455
		c0,0.287,0.234,0.521,0.522,0.521h3.124V35.68z"/>
	<polygon points="14.404,44.522 12.98,43.118 27.171,28.729 33.342,35.086 39.45,28.79 47.647,35.76 46.353,37.283 39.581,31.526 
		33.342,37.957 27.159,31.588 	"/>
	<path d="M18.932,28.702c-2.512,0-4.555-2.043-4.555-4.555c0-2.512,2.043-4.555,4.555-4.555c2.511,0,4.555,2.043,4.555,4.555
		C23.487,26.659,21.443,28.702,18.932,28.702z M18.932,21.592c-1.409,0-2.555,1.146-2.555,2.555s1.146,2.555,2.555,2.555
		s2.555-1.146,2.555-2.555S20.341,21.592,18.932,21.592z"/>
</g>
</svg>
