<?xml version="1.0" encoding="utf-8"?>
<!-- Generator: Adobe Illustrator 16.0.0, SVG Export Plug-In . SVG Version: 6.00 Build 0)  -->
<!DOCTYPE svg PUBLIC "-//W3C//DTD SVG 1.1//EN" "http://www.w3.org/Graphics/SVG/1.1/DTD/svg11.dtd">
<svg version="1.1" id="Layer_1" xmlns="http://www.w3.org/2000/svg" xmlns:xlink="http://www.w3.org/1999/xlink" x="0px" y="0px"
	 width="48px" height="48px" viewBox="0 0 48 48" enable-background="new 0 0 48 48" xml:space="preserve">
<g>
	<path d="M45.102,44.031H2.901c-1.6,0-2.901-1.302-2.901-2.902V6.87c0-1.599,1.301-2.9,2.901-2.9h42.201C46.7,3.97,48,5.271,48,6.87
		v34.259C48,42.729,46.7,44.031,45.102,44.031z M2.901,5.97C2.404,5.97,2,6.374,2,6.87v34.259c0,0.497,0.404,0.902,0.901,0.902
		h42.201c0.495,0,0.898-0.405,0.898-0.902V6.87c0-0.496-0.403-0.9-0.898-0.9H2.901z"/>
	<polygon points="6.146,43.666 4.726,42.258 22.257,24.554 29.956,32.488 37.595,24.614 47.647,33.163 46.353,34.687 37.726,27.351 
		29.956,35.361 22.243,27.411 	"/>
	<path d="M11.975,23.918c-2.998,0-5.437-2.439-5.437-5.437s2.439-5.437,5.437-5.437s5.437,2.439,5.437,5.437
		S14.973,23.918,11.975,23.918z M11.975,15.044c-1.895,0-3.437,1.542-3.437,3.437s1.542,3.437,3.437,3.437s3.437-1.542,3.437-3.437
		S13.87,15.044,11.975,15.044z"/>
</g>
</svg>
