<?xml version="1.0" encoding="utf-8"?>
<!-- Generator: Adobe Illustrator 16.0.0, SVG Export Plug-In . SVG Version: 6.00 Build 0)  -->
<!DOCTYPE svg PUBLIC "-//W3C//DTD SVG 1.1//EN" "http://www.w3.org/Graphics/SVG/1.1/DTD/svg11.dtd">
<svg version="1.1" id="Layer_1" xmlns="http://www.w3.org/2000/svg" xmlns:xlink="http://www.w3.org/1999/xlink" x="0px" y="0px"
	 width="48px" height="48px" viewBox="0 0 48 48" enable-background="new 0 0 48 48" xml:space="preserve">
<g>
	<g>
		<rect x="16.017" y="31.539" width="15.125" height="2"/>
		<rect x="22.579" y="24.977" width="2" height="15.127"/>
	</g>
	<path d="M46.113,47.775H1.887C0.847,47.775,0,46.93,0,45.891V6.579c0-1.041,0.847-1.887,1.887-1.887H9.27v2H2v39.083h44V6.692
		h-7.299v-2h7.412c1.04,0,1.887,0.847,1.887,1.887v39.312C48,46.93,47.153,47.775,46.113,47.775z"/>
	<rect x="1" y="17.333" width="46" height="2"/>
	<g>
		<path d="M15.908,10.718h-4.941c-0.999,0-1.782-0.701-1.782-1.596V1.82c0-0.894,0.783-1.595,1.782-1.595h4.941
			c1,0,1.783,0.701,1.783,1.595v7.302C17.691,10.017,16.908,10.718,15.908,10.718z M11.185,8.718h4.506V2.225h-4.506V8.718z"/>
		<path d="M37.033,10.718h-4.941c-0.982,0-1.781-0.716-1.781-1.596V1.82c0-0.894,0.782-1.595,1.781-1.595h4.941
			c1,0,1.783,0.701,1.783,1.595v7.302C38.816,10.017,38.033,10.718,37.033,10.718z M32.311,8.718h4.506V2.225h-4.506V8.718z"/>
	</g>
	<rect x="17.583" y="4.691" width="12.858" height="2"/>
</g>
</svg>
