<?xml version="1.0" encoding="utf-8"?>
<!-- Generator: Adobe Illustrator 16.0.0, SVG Export Plug-In . SVG Version: 6.00 Build 0)  -->
<!DOCTYPE svg PUBLIC "-//W3C//DTD SVG 1.1//EN" "http://www.w3.org/Graphics/SVG/1.1/DTD/svg11.dtd">
<svg version="1.1" id="Layer_1" xmlns="http://www.w3.org/2000/svg" xmlns:xlink="http://www.w3.org/1999/xlink" x="0px" y="0px"
	 width="48px" height="48px" viewBox="0 0 48 48" enable-background="new 0 0 48 48" xml:space="preserve">
<g>
	<g>
		<rect x="15.937" y="31.623" width="15.277" height="2"/>
	</g>
	<path d="M46.332,48H1.67c-1.045,0-1.896-0.851-1.896-1.896V6.408c0-1.045,0.851-1.896,1.896-1.896h7.455v2H1.774V46h44.453V6.513
		h-7.381v-2h7.486c1.045,0,1.895,0.851,1.895,1.896v39.694C48.227,47.149,47.377,48,46.332,48z"/>
	<rect x="0.773" y="17.277" width="46.454" height="2"/>
	<g>
		<path d="M15.828,10.577h-4.99c-1.004,0-1.79-0.704-1.79-1.602V1.602C9.048,0.719,9.851,0,10.838,0h4.99
			c0.988,0,1.792,0.719,1.792,1.602v7.373C17.62,9.874,16.833,10.577,15.828,10.577z M11.048,8.577l4.572,0V2l-4.572,0V8.577z"/>
		<path d="M37.162,10.577h-4.99c-1.004,0-1.79-0.704-1.79-1.602V1.602c0-0.898,0.786-1.602,1.79-1.602h4.99
			c1.005,0,1.792,0.704,1.792,1.602v7.373C38.954,9.874,38.167,10.577,37.162,10.577z M32.382,8.577l4.572,0V2l-4.572,0V8.577z"/>
	</g>
	<rect x="17.52" y="4.512" width="12.986" height="2"/>
</g>
</svg>
