<?xml version="1.0" encoding="utf-8"?>
<!-- Generator: Adobe Illustrator 16.0.0, SVG Export Plug-In . SVG Version: 6.00 Build 0)  -->
<!DOCTYPE svg PUBLIC "-//W3C//DTD SVG 1.1//EN" "http://www.w3.org/Graphics/SVG/1.1/DTD/svg11.dtd">
<svg version="1.1" id="Layer_1" xmlns="http://www.w3.org/2000/svg" xmlns:xlink="http://www.w3.org/1999/xlink" x="0px" y="0px"
	 width="48px" height="48px" viewBox="0 0 48 48" enable-background="new 0 0 48 48" xml:space="preserve">
<g>
	<g>
		<rect x="16.016" y="31.539" transform="matrix(0.7071 0.7072 -0.7072 0.7071 29.918 -7.1432)" width="15.13" height="2"/>
		<rect x="22.581" y="24.974" transform="matrix(0.7071 0.7071 -0.7071 0.7071 29.9153 -7.1437)" width="2" height="15.13"/>
	</g>
	<path d="M46.113,47.777H1.888C0.845,47.773,0,46.926,0,45.889V6.579c0-1.041,0.847-1.887,1.888-1.887h7.383v2H2v39.085h44V6.692
		h-7.3v-2h7.413c1.04,0,1.887,0.847,1.887,1.887v39.31C48,46.93,47.153,47.777,46.113,47.777z"/>
	<rect x="1" y="17.333" width="46" height="2"/>
	<g>
		<path d="M15.908,10.717h-4.941c-0.999,0-1.782-0.701-1.782-1.596V1.819c0-0.88,0.799-1.596,1.782-1.596h4.941
			c0.983,0,1.784,0.716,1.784,1.596v7.302C17.692,10.001,16.892,10.717,15.908,10.717z M11.185,8.717h4.507V2.223h-4.507V8.717z"/>
		<path d="M37.034,10.717h-4.941c-0.999,0-1.782-0.701-1.782-1.596V1.819c0-0.895,0.783-1.596,1.782-1.596h4.941
			c0.982,0,1.782,0.716,1.782,1.596v7.302C38.816,10.016,38.033,10.717,37.034,10.717z M32.311,8.716l4.506,0V2.223h-4.506V8.716z"
			/>
	</g>
	<rect x="17.583" y="4.691" width="12.858" height="2"/>
</g>
</svg>
