<?xml version="1.0" encoding="utf-8"?>
<!-- Generator: Adobe Illustrator 16.0.0, SVG Export Plug-In . SVG Version: 6.00 Build 0)  -->
<!DOCTYPE svg PUBLIC "-//W3C//DTD SVG 1.1//EN" "http://www.w3.org/Graphics/SVG/1.1/DTD/svg11.dtd">
<svg version="1.1" id="Layer_1" xmlns="http://www.w3.org/2000/svg" xmlns:xlink="http://www.w3.org/1999/xlink" x="0px" y="0px"
	 width="48px" height="48px" viewBox="0 0 48 48" enable-background="new 0 0 48 48" xml:space="preserve">
<g>
	<rect x="23.001" y="12.045" transform="matrix(0.7071 0.7071 -0.7071 0.7071 23.8415 -10.0072)" width="2" height="23.461"/>
	<rect x="11.702" y="22.912" transform="matrix(0.7071 0.7071 -0.7071 0.7071 23.9362 -9.9663)" width="24.595" height="2"/>
	<path d="M46.109,48H1.888c-1.041,0-1.887-0.848-1.887-1.889V1.889C0.001,0.848,0.848,0,1.888,0h44.221
		c1.042,0,1.89,0.848,1.89,1.889v44.222C47.999,47.152,47.151,48,46.109,48z M2.001,46h43.998V2H2.001V46z"/>
</g>
</svg>
