<?xml version="1.0" encoding="utf-8"?>
<!-- Generator: Adobe Illustrator 16.0.0, SVG Export Plug-In . SVG Version: 6.00 Build 0)  -->
<!DOCTYPE svg PUBLIC "-//W3C//DTD SVG 1.1//EN" "http://www.w3.org/Graphics/SVG/1.1/DTD/svg11.dtd">
<svg version="1.1" id="Layer_1" xmlns="http://www.w3.org/2000/svg" xmlns:xlink="http://www.w3.org/1999/xlink" x="0px" y="0px"
	 width="48px" height="48px" viewBox="0 0 48 48" enable-background="new 0 0 48 48" xml:space="preserve">
<g>
	<g>
		<path d="M45,48H3c-1.654,0-3-1.346-3-3V3c0-1.654,1.346-3,3-3h42c1.654,0,3,1.346,3,3v42C48,46.654,46.654,48,45,48z M3,2
			C2.449,2,2,2.449,2,3v42c0,0.552,0.449,1,1,1h42c0.552,0,1-0.448,1-1V3c0-0.551-0.448-1-1-1H3z"/>
	</g>
	<path d="M20.83,42.09c-9.236,0-16.75-7.516-16.75-16.753S11.594,8.585,20.83,8.585c9.238,0,16.754,7.515,16.754,16.752
		S30.068,42.09,20.83,42.09z M20.83,10.585c-8.133,0-14.75,6.618-14.75,14.752c0,8.135,6.617,14.753,14.75,14.753
		c8.136,0,14.754-6.618,14.754-14.753C35.584,17.203,28.966,10.585,20.83,10.585z"/>
	<path d="M20.83,32.657c-4.034,0-7.316-3.284-7.316-7.32c0-4.035,3.282-7.317,7.316-7.317c4.036,0,7.32,3.282,7.32,7.317
		C28.15,29.373,24.866,32.657,20.83,32.657z M20.83,20.02c-2.931,0-5.316,2.385-5.316,5.317c0,2.934,2.385,5.32,5.316,5.32
		c2.934,0,5.32-2.387,5.32-5.32C26.15,22.405,23.764,20.02,20.83,20.02z"/>
	<path d="M29.351,34.871c-0.293,0-0.584-0.128-0.781-0.375c-0.346-0.431-0.276-1.06,0.155-1.405l11.945-9.574V1.727
		c0-0.552,0.447-1,1-1s1,0.448,1,1v22.27c0,0.304-0.138,0.591-0.375,0.78l-12.32,9.874C29.79,34.799,29.569,34.871,29.351,34.871z"
		/>
</g>
</svg>
