<?xml version="1.0" encoding="utf-8"?>
<!-- Generator: Adobe Illustrator 16.0.0, SVG Export Plug-In . SVG Version: 6.00 Build 0)  -->
<!DOCTYPE svg PUBLIC "-//W3C//DTD SVG 1.1//EN" "http://www.w3.org/Graphics/SVG/1.1/DTD/svg11.dtd">
<svg version="1.1" id="Layer_1" xmlns="http://www.w3.org/2000/svg" xmlns:xlink="http://www.w3.org/1999/xlink" x="0px" y="0px"
	 width="48px" height="48px" viewBox="0 0 48 48" enable-background="new 0 0 48 48" xml:space="preserve">
<g>
	<rect x="45.182" width="2" height="48"/>
	<rect x="0.818" y="11.2" width="2" height="25.599"/>
	<rect x="22.999" y="-11.605" transform="matrix(0.2446 0.9696 -0.9696 0.2446 29.0597 -14.7549)" width="2" height="45.755"/>
	<rect x="1.122" y="36.189" transform="matrix(0.9696 0.2448 -0.2448 0.9696 9.8327 -4.743)" width="45.755" height="2"/>
	<path d="M24.071,47.254c-6.727,0-12.199-4.787-12.199-10.672c0-0.803,0.102-1.605,0.303-2.385l1.937,0.5
		c-0.159,0.615-0.239,1.25-0.239,1.885c0,4.781,4.575,8.672,10.199,8.672c4.304,0,8.168-2.318,9.617-5.77l1.844,0.773
		C33.776,44.442,29.171,47.254,24.071,47.254z"/>
</g>
</svg>
