<?xml version="1.0" encoding="utf-8"?>
<!-- Generator: Adobe Illustrator 16.0.0, SVG Export Plug-In . SVG Version: 6.00 Build 0)  -->
<!DOCTYPE svg PUBLIC "-//W3C//DTD SVG 1.1//EN" "http://www.w3.org/Graphics/SVG/1.1/DTD/svg11.dtd">
<svg version="1.1" id="Layer_1" xmlns="http://www.w3.org/2000/svg" xmlns:xlink="http://www.w3.org/1999/xlink" x="0px" y="0px"
	 width="48px" height="48px" viewBox="0 0 48 48" enable-background="new 0 0 48 48" xml:space="preserve">
<g>
	<path d="M46,22.299v22.986c0,0.26-0.209,0.469-0.469,0.469H2.469c-0.258,0-0.467-0.209-0.467-0.469V2.714
		c0-0.259,0.209-0.468,0.467-0.468H25.76v-2H2.469C1.109,0.246,0,1.353,0,2.714v42.571c0,1.363,1.109,2.469,2.469,2.469h43.063
		c1.361,0,2.469-1.105,2.469-2.469V22.299H46z"/>
	<polygon points="47.885,0.354 47.885,0.246 31.879,0.246 31.879,2.246 44.352,2.246 29.053,17.545 30.467,18.96 46,3.427 
		46,16.359 48,16.359 48,0.354 	"/>
</g>
</svg>
