<?xml version="1.0" encoding="utf-8"?>
<!-- Generator: Adobe Illustrator 16.0.0, SVG Export Plug-In . SVG Version: 6.00 Build 0)  -->
<!DOCTYPE svg PUBLIC "-//W3C//DTD SVG 1.1//EN" "http://www.w3.org/Graphics/SVG/1.1/DTD/svg11.dtd">
<svg version="1.1" id="Layer_1" xmlns="http://www.w3.org/2000/svg" xmlns:xlink="http://www.w3.org/1999/xlink" x="0px" y="0px"
	 width="48px" height="48px" viewBox="0 0 48 48" enable-background="new 0 0 48 48" xml:space="preserve">
<g>
	<g>
		<rect x="29.849" y="24.432" transform="matrix(0.7071 0.7072 -0.7072 0.7071 29.6717 -20.7625)" width="20.095" height="2"/>
		<rect x="38.896" y="15.385" transform="matrix(0.7071 0.7071 -0.7071 0.7071 29.6685 -20.7618)" width="2" height="20.095"/>
	</g>
	<path d="M36.361,47.673H4.534c-2.5,0-4.534-2.034-4.534-4.534V4.862c0-2.5,2.034-4.535,4.534-4.535h31.827
		c2.5,0,4.533,2.034,4.533,4.535v5.962h-2V4.862c0-1.397-1.137-2.535-2.533-2.535H4.534C3.137,2.327,2,3.464,2,4.862v38.277
		c0,1.397,1.137,2.534,2.534,2.534h31.827c1.396,0,2.533-1.137,2.533-2.534v-2.432h2v2.432
		C40.895,45.639,38.861,47.673,36.361,47.673z"/>
</g>
</svg>
