<?xml version="1.0" encoding="utf-8"?>
<!-- Generator: Adobe Illustrator 16.0.0, SVG Export Plug-In . SVG Version: 6.00 Build 0)  -->
<!DOCTYPE svg PUBLIC "-//W3C//DTD SVG 1.1//EN" "http://www.w3.org/Graphics/SVG/1.1/DTD/svg11.dtd">
<svg version="1.1" id="Layer_1" xmlns="http://www.w3.org/2000/svg" xmlns:xlink="http://www.w3.org/1999/xlink" x="0px" y="0px"
	 width="48px" height="48px" viewBox="0 0 48 48" enable-background="new 0 0 48 48" xml:space="preserve">
<g>
	<g>
		<rect x="28.109" y="24.346" width="18.891" height="2"/>
	</g>
	<path d="M4.316,46.309c-1.15,0-2.233-0.448-3.048-1.263C0.45,44.229,0,43.143,0,41.986V6.012C0,3.629,1.938,1.69,4.321,1.69h29.914
		c2.384,0,4.322,1.938,4.322,4.321v5.605h-2V6.011c0-1.28-1.042-2.321-2.322-2.321H4.321C3.041,3.69,2,4.732,2,6.012v35.974
		c0,0.622,0.242,1.206,0.681,1.645c0.437,0.438,1.018,0.678,1.636,0.678c0,0,0.001,0,0.002,0h29.915c1.28,0,2.322-1.042,2.322-2.322
		v-2.284h2v2.284c0,2.384-1.938,4.322-4.322,4.322H4.321C4.319,46.309,4.317,46.309,4.316,46.309z"/>
</g>
</svg>
