<?xml version="1.0" encoding="utf-8"?>
<!-- Generator: Adobe Illustrator 16.0.0, SVG Export Plug-In . SVG Version: 6.00 Build 0)  -->
<!DOCTYPE svg PUBLIC "-//W3C//DTD SVG 1.1//EN" "http://www.w3.org/Graphics/SVG/1.1/DTD/svg11.dtd">
<svg version="1.1" id="Layer_1" xmlns="http://www.w3.org/2000/svg" xmlns:xlink="http://www.w3.org/1999/xlink" x="0px" y="0px"
	 width="48px" height="48px" viewBox="0 0 48 48" enable-background="new 0 0 48 48" xml:space="preserve">
<g>
	<g>
		<path d="M6.503,14.232C2.917,14.232,0,11.315,0,7.729s2.917-6.503,6.503-6.503s6.503,2.917,6.503,6.503
			S10.089,14.232,6.503,14.232z M6.503,3.226C4.02,3.226,2,5.246,2,7.729s2.02,4.503,4.503,4.503s4.503-2.02,4.503-4.503
			S8.986,3.226,6.503,3.226z"/>
		<path d="M23.999,14.233c-3.586,0-6.504-2.917-6.504-6.504s2.917-6.504,6.504-6.504c3.586,0,6.504,2.917,6.504,6.504
			S27.585,14.233,23.999,14.233z M23.999,3.225c-2.483,0-4.504,2.021-4.504,4.504s2.021,4.504,4.504,4.504s4.504-2.021,4.504-4.504
			S26.482,3.225,23.999,3.225z"/>
		<path d="M41.496,14.233c-3.586,0-6.504-2.917-6.504-6.504s2.918-6.504,6.504-6.504S48,4.143,48,7.729S45.082,14.233,41.496,14.233
			z M41.496,3.225c-2.483,0-4.504,2.021-4.504,4.504s2.021,4.504,4.504,4.504S46,10.212,46,7.729S43.979,3.225,41.496,3.225z"/>
	</g>
	<g>
		<path d="M6.503,30.503C2.917,30.503,0,27.586,0,24s2.917-6.503,6.503-6.503s6.503,2.917,6.503,6.503S10.089,30.503,6.503,30.503z
			 M6.503,19.497C4.02,19.497,2,21.517,2,24c0,2.483,2.02,4.503,4.503,4.503s4.503-2.02,4.503-4.503
			C11.006,21.517,8.986,19.497,6.503,19.497z"/>
		<path d="M23.999,30.504c-3.586,0-6.504-2.918-6.504-6.504c0-3.586,2.917-6.504,6.504-6.504c3.586,0,6.504,2.917,6.504,6.504
			C30.503,27.586,27.585,30.504,23.999,30.504z M23.999,19.496c-2.483,0-4.504,2.021-4.504,4.504s2.021,4.504,4.504,4.504
			s4.504-2.021,4.504-4.504S26.482,19.496,23.999,19.496z"/>
		<path d="M41.496,30.504c-3.586,0-6.504-2.918-6.504-6.504c0-3.586,2.918-6.504,6.504-6.504S48,20.414,48,24
			C48,27.586,45.082,30.504,41.496,30.504z M41.496,19.496c-2.483,0-4.504,2.021-4.504,4.504s2.021,4.504,4.504,4.504
			S46,26.483,46,24S43.979,19.496,41.496,19.496z"/>
	</g>
	<g>
		<path d="M6.503,46.775C2.917,46.775,0,43.857,0,40.271c0-3.585,2.917-6.502,6.503-6.502s6.503,2.917,6.503,6.502
			C13.006,43.857,10.089,46.775,6.503,46.775z M6.503,35.77C4.02,35.77,2,37.789,2,40.271c0,2.483,2.02,4.504,4.503,4.504
			s4.503-2.021,4.503-4.504C11.006,37.789,8.986,35.77,6.503,35.77z"/>
		<path d="M23.999,46.775c-3.586,0-6.504-2.918-6.504-6.504s2.917-6.504,6.504-6.504c3.586,0,6.504,2.918,6.504,6.504
			S27.585,46.775,23.999,46.775z M23.999,35.768c-2.483,0-4.504,2.021-4.504,4.504s2.021,4.504,4.504,4.504s4.504-2.021,4.504-4.504
			S26.482,35.768,23.999,35.768z"/>
		<path d="M41.496,46.775c-3.586,0-6.504-2.918-6.504-6.504s2.918-6.504,6.504-6.504S48,36.686,48,40.271
			S45.082,46.775,41.496,46.775z M41.496,35.768c-2.483,0-4.504,2.021-4.504,4.504s2.021,4.504,4.504,4.504S46,42.755,46,40.271
			S43.979,35.768,41.496,35.768z"/>
	</g>
</g>
</svg>
