<?xml version="1.0" encoding="utf-8"?>
<!-- Generator: Adobe Illustrator 16.0.0, SVG Export Plug-In . SVG Version: 6.00 Build 0)  -->
<!DOCTYPE svg PUBLIC "-//W3C//DTD SVG 1.1//EN" "http://www.w3.org/Graphics/SVG/1.1/DTD/svg11.dtd">
<svg version="1.1" id="Layer_1" xmlns="http://www.w3.org/2000/svg" xmlns:xlink="http://www.w3.org/1999/xlink" x="0px" y="0px"
	 width="48px" height="48px" viewBox="0 0 48 48" enable-background="new 0 0 48 48" xml:space="preserve">
<g>
	<path d="M35.46,40.023H13.122L5.104,25.792L23.902-0.723l18.983,26.494L35.46,40.023z M14.291,38.023h19.957l6.296-12.087
		L23.911,2.723L7.468,25.915L14.291,38.023z"/>
	<path d="M40.133,48H7.866c-1.423,0-2.58-1.157-2.58-2.58v-4.814c0-1.423,1.157-2.58,2.58-2.58h32.267
		c1.423,0,2.581,1.157,2.581,2.58v4.814C42.714,46.843,41.556,48,40.133,48z M7.866,40.025c-0.32,0-0.58,0.26-0.58,0.58v4.814
		c0,0.32,0.26,0.58,0.58,0.58h32.267c0.32,0,0.581-0.26,0.581-0.58v-4.814c0-0.32-0.261-0.58-0.581-0.58H7.866z"/>
	<rect x="23" y="1" width="2" height="12.242"/>
	<path d="M24,32.605c-3.364,0-6.101-2.737-6.101-6.103c0-3.364,2.737-6.1,6.101-6.1c3.365,0,6.104,2.736,6.104,6.1
		C30.104,29.868,27.365,32.605,24,32.605z M24,22.403c-2.261,0-4.101,1.839-4.101,4.1c0,2.262,1.84,4.103,4.101,4.103
		c2.263,0,4.104-1.841,4.104-4.103C28.104,24.242,26.263,22.403,24,22.403z"/>
</g>
</svg>
