<?xml version="1.0" encoding="utf-8"?>
<!-- Generator: Adobe Illustrator 16.0.0, SVG Export Plug-In . SVG Version: 6.00 Build 0)  -->
<!DOCTYPE svg PUBLIC "-//W3C//DTD SVG 1.1//EN" "http://www.w3.org/Graphics/SVG/1.1/DTD/svg11.dtd">
<svg version="1.1" id="Layer_1" xmlns="http://www.w3.org/2000/svg" xmlns:xlink="http://www.w3.org/1999/xlink" x="0px" y="0px"
	 width="48px" height="48px" viewBox="0 0 48 48" enable-background="new 0 0 48 48" xml:space="preserve">
<g>
	<g>
		<path d="M12.502,48H1c-0.552,0-1-0.447-1-1V1c0-0.552,0.448-1,1-1h11.502c0.552,0,1,0.448,1,1v46
			C13.502,47.553,13.054,48,12.502,48z M2,46h9.502V2H2V46z"/>
		<path d="M24,48H12.502c-0.552,0-1-0.447-1-1V1c0-0.552,0.448-1,1-1H24c0.553,0,1,0.448,1,1v46C25,47.553,24.553,48,24,48z
			 M13.502,46H23V2h-9.498V46z"/>
		<path d="M35.502,48H24c-0.552,0-1-0.447-1-1V1c0-0.552,0.448-1,1-1h11.502c0.553,0,1,0.448,1,1v46
			C36.502,47.553,36.055,48,35.502,48z M25,46h9.502V2H25V46z"/>
		<path d="M47,48H35.502c-0.553,0-1-0.447-1-1V1c0-0.552,0.447-1,1-1H47c0.553,0,1,0.448,1,1v46C48,47.553,47.553,48,47,48z
			 M36.502,46H46V2h-9.498V46z"/>
	</g>
	<path d="M10.264,26.809c-0.552,0-1-0.447-1-1V2.615c0-0.552,0.448-1,1-1s1,0.448,1,1v23.193
		C11.264,26.361,10.816,26.809,10.264,26.809z"/>
	<path d="M21.067,26.809c-0.552,0-1-0.447-1-1V2.615c0-0.552,0.448-1,1-1s1,0.448,1,1v23.193
		C22.067,26.361,21.619,26.809,21.067,26.809z"/>
	<path d="M32.57,26.809c-0.553,0-1-0.447-1-1V2.615c0-0.552,0.447-1,1-1s1,0.448,1,1v23.193
		C33.57,26.361,33.123,26.809,32.57,26.809z"/>
	<path d="M44.117,26.809c-0.553,0-1-0.447-1-1V2.615c0-0.552,0.447-1,1-1s1,0.448,1,1v23.193
		C45.117,26.361,44.67,26.809,44.117,26.809z"/>
</g>
</svg>
