<?xml version="1.0" encoding="utf-8"?>
<!-- Generator: Adobe Illustrator 16.0.0, SVG Export Plug-In . SVG Version: 6.00 Build 0)  -->
<!DOCTYPE svg PUBLIC "-//W3C//DTD SVG 1.1//EN" "http://www.w3.org/Graphics/SVG/1.1/DTD/svg11.dtd">
<svg version="1.1" id="Layer_1" xmlns="http://www.w3.org/2000/svg" xmlns:xlink="http://www.w3.org/1999/xlink" x="0px" y="0px"
	 width="48px" height="48px" viewBox="0 0 48 48" enable-background="new 0 0 48 48" xml:space="preserve">
<g>
	<path d="M33.55,48H14.451c-2.473,0-4.49-1.992-4.528-4.456L5.078,7.468h37.843l-4.846,36.076C38.038,46.008,36.022,48,33.55,48z
		 M7.364,9.468l4.559,34.005c0,1.394,1.134,2.527,2.528,2.527H33.55c1.393,0,2.526-1.134,2.526-2.527l0.009-0.133l4.549-33.872
		H7.364z"/>
	<path d="M45.16,9.468H2.84c-0.552,0-1-0.448-1-1s0.448-1,1-1h42.32c0.553,0,1,0.448,1,1S45.713,9.468,45.16,9.468z"/>
	<path d="M24,9.539c-8.641,0-8.641-0.465-8.641-1.486V2.174C15.36,0.975,16.336,0,17.536,0h12.929c1.2,0,2.176,0.975,2.176,2.174
		v5.879C32.641,9.074,32.641,9.539,24,9.539z M17.36,7.304C18.361,7.42,20.625,7.539,24,7.539c3.375,0,5.639-0.119,6.64-0.235v-5.13
		C30.641,2.078,30.562,2,30.465,2H17.536c-0.097,0-0.176,0.078-0.176,0.174V7.304z"/>
	<rect x="15.686" y="18.535" width="16.626" height="2"/>
	<rect x="15.686" y="26.341" width="16.626" height="2"/>
	<rect x="15.686" y="26.341" width="16.626" height="2"/>
	<rect x="15.686" y="34.146" width="16.626" height="2"/>
</g>
</svg>
