<?xml version="1.0" encoding="utf-8"?>
<!-- Generator: Adobe Illustrator 16.0.0, SVG Export Plug-In . SVG Version: 6.00 Build 0)  -->
<!DOCTYPE svg PUBLIC "-//W3C//DTD SVG 1.1//EN" "http://www.w3.org/Graphics/SVG/1.1/DTD/svg11.dtd">
<svg version="1.1" id="Layer_1" xmlns="http://www.w3.org/2000/svg" xmlns:xlink="http://www.w3.org/1999/xlink" x="0px" y="0px"
	 width="48px" height="48px" viewBox="0 0 48 48" enable-background="new 0 0 48 48" xml:space="preserve">
<g>
	<path d="M20.839,41.527C9.348,41.527,0,32.18,0,20.689S9.348-0.15,20.839-0.15c11.49,0,20.839,9.348,20.839,20.839
		S32.329,41.527,20.839,41.527z M20.839,1.85C10.451,1.85,2,10.301,2,20.689c0,10.387,8.451,18.838,18.839,18.838
		s18.839-8.451,18.839-18.838C39.678,10.301,31.227,1.85,20.839,1.85z"/>
	<rect x="32.17" y="40.006" transform="matrix(0.7071 0.7071 -0.7071 0.7071 40.9599 -16.8799)" width="17.375" height="2"/>
</g>
</svg>
