<?xml version="1.0" encoding="utf-8"?>
<!-- Generator: Adobe Illustrator 16.0.0, SVG Export Plug-In . SVG Version: 6.00 Build 0)  -->
<!DOCTYPE svg PUBLIC "-//W3C//DTD SVG 1.1//EN" "http://www.w3.org/Graphics/SVG/1.1/DTD/svg11.dtd">
<svg version="1.1" id="Layer_1" xmlns="http://www.w3.org/2000/svg" xmlns:xlink="http://www.w3.org/1999/xlink" x="0px" y="0px"
	 width="48px" height="48px" viewBox="0 0 48 48" enable-background="new 0 0 48 48" xml:space="preserve">
<g>
	<path d="M20.859,41.421c-11.419,0-20.71-9.29-20.71-20.71c0-11.419,9.291-20.71,20.71-20.71s20.709,9.291,20.709,20.71
		C41.568,32.131,32.278,41.421,20.859,41.421z M20.859,2.001c-10.317,0-18.71,8.393-18.71,18.71c0,10.316,8.393,18.71,18.71,18.71
		s18.709-8.394,18.709-18.71C39.568,10.394,31.176,2.001,20.859,2.001z"/>
	<rect x="32.118" y="39.897" transform="matrix(0.7071 0.7072 -0.7072 0.7071 40.8579 -16.8356)" width="17.262" height="2"/>
	<g>
		<rect x="15.211" y="19.716" width="11.469" height="2"/>
	</g>
</g>
</svg>
