<?xml version="1.0" encoding="utf-8"?>
<!-- Generator: Adobe Illustrator 16.0.0, SVG Export Plug-In . SVG Version: 6.00 Build 0)  -->
<!DOCTYPE svg PUBLIC "-//W3C//DTD SVG 1.1//EN" "http://www.w3.org/Graphics/SVG/1.1/DTD/svg11.dtd">
<svg version="1.1" id="Layer_1" xmlns="http://www.w3.org/2000/svg" xmlns:xlink="http://www.w3.org/1999/xlink" x="0px" y="0px"
	 width="48px" height="48px" viewBox="0 0 48 48" enable-background="new 0 0 48 48" xml:space="preserve">
<g>
	<path d="M24,44.346c-1.748,0-3.168-1.418-3.168-3.168h-2.111c0,2.916,2.363,5.279,5.279,5.279s5.279-2.363,5.279-5.279h-2.111
		C27.168,42.928,25.752,44.346,24,44.346z"/>
	<path d="M10.611,36.955H5.25c0.543-2.367,1.992-4.451,4.07-5.811l0.953-0.625v-1.141v-9.317c0-5.8,3.684-10.997,9.166-12.931
		l1.369-0.482l0.039-1.452C20.893,3.467,22.279,2.112,24,2.112c1.723,0,3.107,1.354,3.156,3.084l0.037,1.452l1.371,0.482
		c1.404,0.496,2.688,1.208,3.822,2.087l1.305-1.658c-1.326-1.026-2.814-1.852-4.426-2.42C29.189,2.289,26.869,0,24,0
		c-2.865,0-5.188,2.289-5.264,5.14C12.582,7.311,8.162,13.163,8.162,20.062v9.317C5.396,31.188,3.451,34.121,3,37.549
		c-0.068,0.141-0.117,0.293-0.117,0.461c0,0.105,0.031,0.199,0.061,0.293c-0.018,0.256-0.061,0.504-0.061,0.764h1.057h1.055h3.959
		L10.611,36.955z"/>
	<path d="M45.117,38.01c0-0.168-0.047-0.32-0.117-0.461c-0.449-3.428-2.396-6.361-5.162-8.17v-9.317c0-2.754-0.713-5.336-1.951-7.59
		l-1.443,1.837c0.824,1.769,1.283,3.723,1.283,5.753v9.317v1.141l0.955,0.625c2.076,1.359,3.525,3.443,4.068,5.811H18.666
		l-1.658,2.111h25.998h1.057h1.055c0-0.26-0.041-0.508-0.057-0.764C45.086,38.209,45.117,38.115,45.117,38.01z"/>
	<rect x="-4.674" y="23.362" transform="matrix(0.6175 -0.7865 0.7865 0.6175 -9.8425 28.5937)" width="58.309" height="2.11"/>
</g>
</svg>
