<?xml version="1.0" encoding="utf-8"?>
<!-- Generator: Adobe Illustrator 16.0.0, SVG Export Plug-In . SVG Version: 6.00 Build 0)  -->
<!DOCTYPE svg PUBLIC "-//W3C//DTD SVG 1.1//EN" "http://www.w3.org/Graphics/SVG/1.1/DTD/svg11.dtd">
<svg version="1.1" id="Layer_1" xmlns="http://www.w3.org/2000/svg" xmlns:xlink="http://www.w3.org/1999/xlink" x="0px" y="0px"
	 width="48px" height="48px" viewBox="0 0 48 48" enable-background="new 0 0 48 48" xml:space="preserve">
<g>
	<g>
		<path d="M19.137,2.604v16.941H2.195V2.604H19.137 M21.334,0.407H0v21.334h21.334V0.407L21.334,0.407z"/>
	</g>
	<g>
		<path d="M45.805,2.604v16.941H28.861V2.604H45.805 M48,0.407H26.666v21.334H48V0.407L48,0.407z"/>
	</g>
	<g>
		<path d="M19.137,28.456v16.941H2.195V28.456H19.137 M21.334,26.259H0v21.334h21.334V26.259L21.334,26.259z"/>
	</g>
	<g>
		<path d="M45.805,28.456v16.941H28.861V28.456H45.805 M48,26.259H26.666v21.334H48V26.259L48,26.259z"/>
	</g>
</g>
</svg>
