<?xml version="1.0" encoding="utf-8"?>
<!-- Generator: Adobe Illustrator 16.0.0, SVG Export Plug-In . SVG Version: 6.00 Build 0)  -->
<!DOCTYPE svg PUBLIC "-//W3C//DTD SVG 1.1//EN" "http://www.w3.org/Graphics/SVG/1.1/DTD/svg11.dtd">
<svg version="1.1" id="Layer_1" xmlns="http://www.w3.org/2000/svg" xmlns:xlink="http://www.w3.org/1999/xlink" x="0px" y="0px"
	 width="48px" height="48px" viewBox="0 0 48 48" enable-background="new 0 0 48 48" xml:space="preserve">
<g>
	<g>
		<rect x="0.001" y="0.408" fill="#FFFFFF" width="13.771" height="13.773"/>
		<path d="M11.577,2.604v9.383H2.196V2.604H11.577 M13.772,0.408H0.001v13.773h13.771V0.408L13.772,0.408z"/>
	</g>
	<g>
		<rect x="17.216" y="0.408" fill="#FFFFFF" width="13.773" height="13.773"/>
		<path d="M28.794,2.604v9.383h-9.383V2.604H28.794 M30.989,0.408H17.216v13.773h13.773V0.408L30.989,0.408z"/>
	</g>
	<rect x="0.001" y="17.099" fill="#FFFFFF" width="13.771" height="13.772"/>
	<path d="M11.577,19.295v9.381H2.196v-9.381H11.577 M13.772,17.099H0.001v13.772h13.771V17.099L13.772,17.099z"/>
	<g>
		<rect x="17.216" y="17.099" fill="#FFFFFF" width="13.773" height="13.772"/>
		<path d="M28.794,19.295v9.381h-9.383v-9.381H28.794 M30.989,17.099H17.216v13.772h13.773V17.099L30.989,17.099z"/>
	</g>
	<g>
		<rect x="34.226" y="0.408" fill="#FFFFFF" width="13.773" height="13.773"/>
		<path d="M45.804,2.604v9.383h-9.381V2.604H45.804 M47.999,0.408H34.226v13.773h13.773V0.408L47.999,0.408z"/>
	</g>
	<g>
		<rect x="34.226" y="17.099" fill="#FFFFFF" width="13.773" height="13.772"/>
		<path d="M45.804,19.295v9.381h-9.381v-9.381H45.804 M47.999,17.099H34.226v13.772h13.773V17.099L47.999,17.099z"/>
	</g>
	<g>
		<rect x="0.001" y="33.818" fill="#FFFFFF" width="13.771" height="13.773"/>
		<path d="M11.577,36.016v9.381H2.196v-9.381H11.577 M13.772,33.818H0.001v13.773h13.771V33.818L13.772,33.818z"/>
	</g>
	<g>
		<rect x="17.216" y="33.818" fill="#FFFFFF" width="13.773" height="13.773"/>
		<path d="M28.794,36.016v9.381h-9.383v-9.381H28.794 M30.989,33.818H17.216v13.773h13.773V33.818L30.989,33.818z"/>
	</g>
	<g>
		<rect x="34.226" y="33.818" fill="#FFFFFF" width="13.773" height="13.773"/>
		<path d="M45.804,36.016v9.381h-9.381v-9.381H45.804 M47.999,33.818H34.226v13.773h13.773V33.818L47.999,33.818z"/>
	</g>
</g>
</svg>
