<?xml version="1.0" encoding="utf-8"?>
<!-- Generator: Adobe Illustrator 16.0.0, SVG Export Plug-In . SVG Version: 6.00 Build 0)  -->
<!DOCTYPE svg PUBLIC "-//W3C//DTD SVG 1.1//EN" "http://www.w3.org/Graphics/SVG/1.1/DTD/svg11.dtd">
<svg version="1.1" id="Layer_1" xmlns="http://www.w3.org/2000/svg" xmlns:xlink="http://www.w3.org/1999/xlink" x="0px" y="0px"
	 width="48px" height="48px" viewBox="0 0 48 48" enable-background="new 0 0 48 48" xml:space="preserve">
<g>
	<path d="M18.013,48c-4.686,0-8.498-3.813-8.498-8.5c0-4.684,3.812-8.494,8.498-8.494s8.499,3.811,8.499,8.494
		C26.512,44.187,22.699,48,18.013,48z M18.013,33.006c-3.583,0-6.498,2.913-6.498,6.494c0,3.584,2.915,6.5,6.498,6.5
		c3.583,0,6.499-2.916,6.499-6.5C24.512,35.919,21.597,33.006,18.013,33.006z"/>
	<path d="M25.512,40.427c-0.553,0-1-0.447-1-1V1c0-0.34,0.173-0.658,0.46-0.842c0.288-0.184,0.647-0.208,0.957-0.067
		c0.181,0.083,18.053,8.523,10.839,26.569c-0.205,0.515-0.788,0.762-1.3,0.558c-0.513-0.205-0.763-0.787-0.558-1.3
		c5.415-13.546-4.535-20.969-8.398-23.25v36.758C26.512,39.979,26.064,40.427,25.512,40.427z"/>
</g>
</svg>
