<?xml version="1.0" encoding="utf-8"?>
<!-- Generator: Adobe Illustrator 16.0.0, SVG Export Plug-In . SVG Version: 6.00 Build 0)  -->
<!DOCTYPE svg PUBLIC "-//W3C//DTD SVG 1.1//EN" "http://www.w3.org/Graphics/SVG/1.1/DTD/svg11.dtd">
<svg version="1.1" id="Layer_1" xmlns="http://www.w3.org/2000/svg" xmlns:xlink="http://www.w3.org/1999/xlink" x="0px" y="0px"
	 width="48px" height="48px" viewBox="0 0 48 48" enable-background="new 0 0 48 48" xml:space="preserve">
<g>
	<path d="M24.966,42.965H4.178V2.56H25.77v11.797h0.78h0.781h10.017v10.884c0.53,0.067,1.049,0.166,1.561,0.29V13.033L26.873,1
		H2.617v43.525h23.086C25.426,44.023,25.184,43.502,24.966,42.965z M27.332,3.664l9.132,9.133h-9.132V3.664z"/>
	<path d="M35.835,48c-5.817,0-10.55-4.733-10.55-10.552c0-5.816,4.732-10.548,10.55-10.548c5.816,0,10.548,4.731,10.548,10.548
		C46.383,43.267,41.651,48,35.835,48z M35.835,28.9c-4.715,0-8.55,3.835-8.55,8.548c0,4.716,3.835,8.552,8.55,8.552
		c4.713,0,8.548-3.836,8.548-8.552C44.383,32.735,40.548,28.9,35.835,28.9z"/>
	<g>
		<rect x="31.21" y="36.448" width="9.248" height="2"/>
		<rect x="34.835" y="32.825" width="2" height="9.248"/>
	</g>
</g>
</svg>
