<?xml version="1.0" encoding="utf-8"?>
<!-- Generator: Adobe Illustrator 16.0.0, SVG Export Plug-In . SVG Version: 6.00 Build 0)  -->
<!DOCTYPE svg PUBLIC "-//W3C//DTD SVG 1.1//EN" "http://www.w3.org/Graphics/SVG/1.1/DTD/svg11.dtd">
<svg version="1.1" id="Layer_1" xmlns="http://www.w3.org/2000/svg" xmlns:xlink="http://www.w3.org/1999/xlink" x="0px" y="0px"
	 width="48px" height="48px" viewBox="0 0 48 48" enable-background="new 0 0 48 48" xml:space="preserve">
<g>
	<path fill-rule="evenodd" clip-rule="evenodd" d="M30.738,0H3.988v48h40.023V13.271L30.738,0z M31.242,2.938l10.072,10.07H31.242
		V2.938z M42.289,46.279H5.711V1.722h23.811V14.73h0.861h0.859h11.047V46.279z"/>
	<rect x="11.494" y="9.228" fill-rule="evenodd" clip-rule="evenodd" width="11.715" height="1.673"/>
	<rect x="11.494" y="14.247" fill-rule="evenodd" clip-rule="evenodd" width="11.715" height="1.673"/>
	<rect x="11.494" y="24.287" fill-rule="evenodd" clip-rule="evenodd" width="11.449" height="1.674"/>
	<rect x="11.494" y="19.268" fill-rule="evenodd" clip-rule="evenodd" width="11.449" height="1.673"/>
	<path fill-rule="evenodd" clip-rule="evenodd" d="M27.201,19.268v1.673v3.347v1.674h1.674h4.502h1.672v-1.674V20.94v-1.673h-1.672
		h-4.502H27.201z M33.377,24.287h-4.502V20.94h4.502V24.287z"/>
	<rect x="11.494" y="29.307" fill-rule="evenodd" clip-rule="evenodd" width="23.428" height="1.674"/>
	<rect x="11.494" y="34.328" fill-rule="evenodd" clip-rule="evenodd" width="23.428" height="1.672"/>
	<rect x="11.494" y="39.348" fill-rule="evenodd" clip-rule="evenodd" width="23.428" height="1.674"/>
</g>
</svg>
