<?xml version="1.0" encoding="utf-8"?>
<!-- Generator: Adobe Illustrator 16.0.0, SVG Export Plug-In . SVG Version: 6.00 Build 0)  -->
<!DOCTYPE svg PUBLIC "-//W3C//DTD SVG 1.1//EN" "http://www.w3.org/Graphics/SVG/1.1/DTD/svg11.dtd">
<svg version="1.1" id="Layer_1" xmlns="http://www.w3.org/2000/svg" xmlns:xlink="http://www.w3.org/1999/xlink" x="0px" y="0px"
	 width="48px" height="48px" viewBox="0 0 48 48" enable-background="new 0 0 48 48" xml:space="preserve">
<g>
	<path d="M12.169,47.934H1c-0.552,0-1-0.447-1-1s0.448-1,1-1h11.169c0.552,0,1,0.447,1,1S12.721,47.934,12.169,47.934z"/>
	<path d="M12.169,40.378H1c-0.552,0-1-0.447-1-1s0.448-1,1-1h11.169c0.552,0,1,0.447,1,1S12.721,40.378,12.169,40.378z"/>
	<path d="M12.169,32.826H1c-0.552,0-1-0.447-1-1s0.448-1,1-1h11.169c0.552,0,1,0.447,1,1S12.721,32.826,12.169,32.826z"/>
	<path d="M12.169,25.271H1c-0.552,0-1-0.448-1-1s0.448-1,1-1h11.169c0.552,0,1,0.448,1,1S12.721,25.271,12.169,25.271z"/>
	<path d="M12.169,17.715H1c-0.552,0-1-0.448-1-1s0.448-1,1-1h11.169c0.552,0,1,0.448,1,1S12.721,17.715,12.169,17.715z"/>
	<path d="M29.588,47.934H18.415c-0.552,0-1-0.447-1-1s0.448-1,1-1h11.173c0.553,0,1,0.447,1,1S30.141,47.934,29.588,47.934z"/>
	<path d="M29.588,40.378H18.415c-0.552,0-1-0.447-1-1s0.448-1,1-1h11.173c0.553,0,1,0.447,1,1S30.141,40.378,29.588,40.378z"/>
	<path d="M29.588,32.826H18.415c-0.552,0-1-0.447-1-1s0.448-1,1-1h11.173c0.553,0,1,0.447,1,1S30.141,32.826,29.588,32.826z"/>
	<path d="M29.588,25.271H18.415c-0.552,0-1-0.448-1-1s0.448-1,1-1h11.173c0.553,0,1,0.448,1,1S30.141,25.271,29.588,25.271z"/>
	<path d="M29.588,17.715H18.415c-0.552,0-1-0.448-1-1s0.448-1,1-1h11.173c0.553,0,1,0.448,1,1S30.141,17.715,29.588,17.715z"/>
	<path d="M29.588,9.894H18.415c-0.552,0-1-0.448-1-1s0.448-1,1-1h11.173c0.553,0,1,0.448,1,1S30.141,9.894,29.588,9.894z"/>
	<path d="M29.588,2.067H18.415c-0.552,0-1-0.448-1-1s0.448-1,1-1h11.173c0.553,0,1,0.448,1,1S30.141,2.067,29.588,2.067z"/>
	<path d="M47,47.934H35.837c-0.553,0-1-0.447-1-1s0.447-1,1-1H47c0.553,0,1,0.447,1,1S47.553,47.934,47,47.934z"/>
	<path d="M47,40.378H35.837c-0.553,0-1-0.447-1-1s0.447-1,1-1H47c0.553,0,1,0.447,1,1S47.553,40.378,47,40.378z"/>
	<path d="M47,32.826H35.837c-0.553,0-1-0.447-1-1s0.447-1,1-1H47c0.553,0,1,0.447,1,1S47.553,32.826,47,32.826z"/>
</g>
</svg>
