<?xml version="1.0" encoding="utf-8"?>
<!-- Generator: Adobe Illustrator 16.0.0, SVG Export Plug-In . SVG Version: 6.00 Build 0)  -->
<!DOCTYPE svg PUBLIC "-//W3C//DTD SVG 1.1//EN" "http://www.w3.org/Graphics/SVG/1.1/DTD/svg11.dtd">
<svg version="1.1" id="Layer_1" xmlns="http://www.w3.org/2000/svg" xmlns:xlink="http://www.w3.org/1999/xlink" x="0px" y="0px"
	 width="48px" height="48px" viewBox="0 0 48 48" enable-background="new 0 0 48 48" xml:space="preserve">
<g>
	<path d="M24,46.055c-12.698,0-23.028-10.331-23.028-23.029S11.302-0.002,24-0.002c12.697,0,23.027,10.33,23.027,23.028
		S36.697,46.055,24,46.055z M24,1.998c-11.595,0-21.028,9.433-21.028,21.028c0,11.595,9.433,21.029,21.028,21.029
		s21.027-9.434,21.027-21.029C45.027,11.431,35.595,1.998,24,1.998z"/>
	<g>
		<path d="M23.999,16.762c-3.047,0-5.526-2.479-5.526-5.526c0-3.047,2.479-5.526,5.526-5.526s5.526,2.479,5.526,5.526
			C29.525,14.283,27.046,16.762,23.999,16.762z M23.999,7.71c-1.944,0-3.526,1.582-3.526,3.526s1.582,3.526,3.526,3.526
			s3.526-1.582,3.526-3.526S25.943,7.71,23.999,7.71z"/>
		<path d="M23.999,40.344c-3.047,0-5.526-2.479-5.526-5.525s2.479-5.526,5.526-5.526s5.526,2.479,5.526,5.526
			S27.046,40.344,23.999,40.344z M23.999,31.292c-1.944,0-3.526,1.582-3.526,3.526s1.582,3.525,3.526,3.525s3.526-1.581,3.526-3.525
			S25.943,31.292,23.999,31.292z"/>
	</g>
	<g>
		<path d="M35.795,28.552c-3.051,0-5.533-2.479-5.533-5.526c0-3.046,2.482-5.525,5.533-5.525c3.046,0,5.523,2.479,5.523,5.525
			C41.318,26.073,38.841,28.552,35.795,28.552z M35.795,19.501c-1.948,0-3.533,1.581-3.533,3.525s1.585,3.526,3.533,3.526
			c1.942,0,3.523-1.582,3.523-3.526S37.737,19.501,35.795,19.501z"/>
		<path d="M12.209,28.552c-3.048,0-5.528-2.479-5.528-5.526c0-3.046,2.48-5.525,5.528-5.525c3.049,0,5.53,2.479,5.53,5.525
			C17.739,26.073,15.258,28.552,12.209,28.552z M12.209,19.501c-1.945,0-3.528,1.581-3.528,3.525s1.583,3.526,3.528,3.526
			c1.947,0,3.53-1.582,3.53-3.526S14.156,19.501,12.209,19.501z"/>
	</g>
	<path d="M46.028,48c-0.067,0-0.135-0.007-0.203-0.021L31.06,44.929c-0.541-0.112-0.889-0.641-0.777-1.182s0.643-0.886,1.182-0.777
		l14.766,3.051c0.541,0.112,0.889,0.641,0.777,1.182C46.909,47.675,46.493,48,46.028,48z"/>
</g>
</svg>
