<?xml version="1.0" encoding="utf-8"?>
<!-- Generator: Adobe Illustrator 16.0.0, SVG Export Plug-In . SVG Version: 6.00 Build 0)  -->
<!DOCTYPE svg PUBLIC "-//W3C//DTD SVG 1.1//EN" "http://www.w3.org/Graphics/SVG/1.1/DTD/svg11.dtd">
<svg version="1.1" id="Layer_1" xmlns="http://www.w3.org/2000/svg" xmlns:xlink="http://www.w3.org/1999/xlink" x="0px" y="0px"
	 width="48px" height="48px" viewBox="0 0 48 48" enable-background="new 0 0 48 48" xml:space="preserve">
<g>
	<path fill-rule="evenodd" clip-rule="evenodd" d="M43.826,45.392H4.174C1.868,45.392,0,43.521,0,41.218V12
		c0-2.306,1.868-4.174,4.174-4.174h9.917c0.496-2.368,1.352-5.218,2.605-5.218c2.141,0,13.675,0,15.652,0
		c1.156,0,2.029,2.85,2.555,5.218h8.924C46.131,7.826,48,9.694,48,12v29.218C48,43.521,46.131,45.392,43.826,45.392z M45.912,12
		c0-1.153-0.934-2.087-2.086-2.087h-8.516h-1.975l-0.695-2.087h0.141c-0.334-1.385-0.709-2.556-1.023-3.131h-14.5
		c-0.32,0.555-0.691,1.732-1.012,3.131h0.156l-0.695,2.087h-1.994h-9.54c-1.152,0-2.087,0.934-2.087,2.087v2.087h43.825V12z
		 M45.912,16.174H2.087v25.044c0,1.15,0.935,2.086,2.087,2.086h39.652c1.152,0,2.086-0.936,2.086-2.086V16.174z M41.738,21.392
		c-0.576,0-1.043-0.467-1.043-1.044c0-0.576,0.467-1.043,1.043-1.043s1.043,0.467,1.043,1.043
		C42.781,20.925,42.314,21.392,41.738,21.392z M24,39.13c-5.188,0-9.393-4.205-9.393-9.391c0-5.187,4.205-9.392,9.393-9.392
		c5.185,0,9.39,4.205,9.39,9.392C33.391,34.925,29.186,39.13,24,39.13z M24,22.435c-4.033,0-7.305,3.27-7.305,7.305
		c0,4.033,3.271,7.303,7.305,7.303c4.033,0,7.302-3.27,7.302-7.303C31.303,25.704,28.033,22.435,24,22.435z"/>
</g>
</svg>
