<?xml version="1.0" encoding="utf-8"?>
<!-- Generator: Adobe Illustrator 16.0.0, SVG Export Plug-In . SVG Version: 6.00 Build 0)  -->
<!DOCTYPE svg PUBLIC "-//W3C//DTD SVG 1.1//EN" "http://www.w3.org/Graphics/SVG/1.1/DTD/svg11.dtd">
<svg version="1.1" id="Layer_1" xmlns="http://www.w3.org/2000/svg" xmlns:xlink="http://www.w3.org/1999/xlink" x="0px" y="0px"
	 width="48px" height="48px" viewBox="0 0 48 48" enable-background="new 0 0 48 48" xml:space="preserve">
<g>
	<g>
		<path d="M35.58,43.865H2c-1.103,0-2-0.897-2-2v-26.05c0-1.103,0.897-2,2-2h33.58c1.103,0,2,0.897,2,2v26.05
			C37.58,42.968,36.683,43.865,35.58,43.865z M35.58,41.865v1V41.865L35.58,41.865L35.58,41.865z M2,15.815v26.05h33.577
			l0.003-26.05H2z"/>
	</g>
	<path d="M47,40.732c-0.163,0-0.327-0.04-0.476-0.12l-9.387-5.073c-0.485-0.263-0.667-0.869-0.404-1.355
		c0.262-0.486,0.868-0.668,1.355-0.404L46,38.056V19.673l-7.892,4.498c-0.48,0.273-1.091,0.106-1.364-0.374
		c-0.273-0.48-0.105-1.09,0.374-1.364l9.387-5.35c0.31-0.176,0.689-0.175,0.997,0.004C47.811,17.267,48,17.596,48,17.952v21.78
		c0,0.353-0.186,0.679-0.488,0.859C47.354,40.686,47.178,40.732,47,40.732z"/>
	<g>
		<path d="M26.214,34.341c-2.544,0-4.614-2.07-4.614-4.614s2.07-4.613,4.614-4.613s4.614,2.069,4.614,4.613
			S28.758,34.341,26.214,34.341z M26.214,27.113c-1.441,0-2.614,1.172-2.614,2.613s1.172,2.614,2.614,2.614s2.614-1.173,2.614-2.614
			S27.655,27.113,26.214,27.113z"/>
		<path d="M11.363,34.343c-2.545,0-4.616-2.071-4.616-4.616s2.071-4.615,4.616-4.615c2.545,0,4.616,2.07,4.616,4.615
			S13.908,34.343,11.363,34.343z M11.363,27.111c-1.442,0-2.616,1.173-2.616,2.615s1.173,2.616,2.616,2.616s2.616-1.174,2.616-2.616
			S12.805,27.111,11.363,27.111z"/>
	</g>
	<path d="M10.858,14.626c-0.552,0-1-0.448-1-1V8.229c0-0.552,0.448-1,1-1h12.87c0.552,0,1,0.448,1,1s-0.448,1-1,1h-11.87v4.397
		C11.858,14.178,11.41,14.626,10.858,14.626z"/>
	<path d="M30.158,12.329c-4.236,0-7.431-1.763-7.431-4.1c0-2.334,3.195-4.094,7.431-4.094c4.231,0,7.422,1.76,7.422,4.094
		C37.58,10.566,34.39,12.329,30.158,12.329z M30.158,6.135c-3.265,0-5.432,1.26-5.432,2.094c0,0.856,2.116,2.1,5.432,2.1
		c3.31,0,5.422-1.244,5.422-2.1C35.58,7.375,33.468,6.135,30.158,6.135z"/>
</g>
</svg>
