<?xml version="1.0" encoding="utf-8"?>
<!-- Generator: Adobe Illustrator 16.0.0, SVG Export Plug-In . SVG Version: 6.00 Build 0)  -->
<!DOCTYPE svg PUBLIC "-//W3C//DTD SVG 1.1//EN" "http://www.w3.org/Graphics/SVG/1.1/DTD/svg11.dtd">
<svg version="1.1" id="Layer_1" xmlns="http://www.w3.org/2000/svg" xmlns:xlink="http://www.w3.org/1999/xlink" x="0px" y="0px"
	 width="48px" height="48px" viewBox="0 0 48 48" enable-background="new 0 0 48 48" xml:space="preserve">
<g>
	<path d="M36.072,48c-0.916,0-1.785-0.365-2.447-1.029L21.373,34.719h-9.446c-1.917,0-3.477-1.559-3.477-3.477V16.756
		c0-1.915,1.56-3.477,3.477-3.477h9.446l12.25-12.252C34.287,0.365,35.156,0,36.072,0c1.918,0,3.477,1.56,3.477,3.477v41.047
		C39.549,46.439,37.99,48,36.072,48z M11.927,15.404c-0.733,0-1.353,0.619-1.353,1.352v14.486c0,0.734,0.619,1.354,1.353,1.354
		h10.325l12.873,12.875c0.264,0.26,0.6,0.404,0.947,0.404c0.732,0,1.354-0.619,1.354-1.352V3.477c0-0.733-0.621-1.353-1.354-1.353
		c-0.348,0-0.684,0.145-0.947,0.405L22.252,15.404H11.927z"/>
</g>
</svg>
