<?xml version="1.0" encoding="utf-8"?>
<!-- Generator: Adobe Illustrator 16.0.0, SVG Export Plug-In . SVG Version: 6.00 Build 0)  -->
<!DOCTYPE svg PUBLIC "-//W3C//DTD SVG 1.1//EN" "http://www.w3.org/Graphics/SVG/1.1/DTD/svg11.dtd">
<svg version="1.1" id="Layer_1" xmlns="http://www.w3.org/2000/svg" xmlns:xlink="http://www.w3.org/1999/xlink" x="0px" y="0px"
	 width="48px" height="48px" viewBox="0 0 48 48" enable-background="new 0 0 48 48" xml:space="preserve">
<g>
	<g>
		<path d="M42.866,23.068H5.134L42.866,0V23.068z M10.712,21.498h30.584V2.8L10.712,21.498z"/>
		<path d="M42.866,48L5.134,24.93h37.732V48z M10.712,26.5l30.584,18.699V26.5H10.712z"/>
	</g>
	<path d="M39.493,21.257c-0.82,0-1.486-0.668-1.486-1.488s0.666-1.487,1.486-1.487s1.488,0.667,1.488,1.487
		S40.313,21.257,39.493,21.257z M39.493,19.065c-0.387,0-0.701,0.316-0.701,0.703c0,0.388,0.314,0.703,0.701,0.703
		c0.389,0,0.703-0.315,0.703-0.703C40.196,19.382,39.882,19.065,39.493,19.065z"/>
	<path d="M34.919,21.257c-0.82,0-1.488-0.668-1.488-1.488s0.668-1.487,1.488-1.487s1.488,0.667,1.488,1.487
		S35.739,21.257,34.919,21.257z M34.919,19.065c-0.389,0-0.703,0.316-0.703,0.703c0,0.388,0.314,0.703,0.703,0.703
		c0.387,0,0.703-0.315,0.703-0.703C35.622,19.382,35.306,19.065,34.919,19.065z"/>
	<path d="M30.343,21.257c-0.82,0-1.488-0.668-1.488-1.488s0.668-1.487,1.488-1.487s1.488,0.667,1.488,1.487
		S31.163,21.257,30.343,21.257z M30.343,19.065c-0.389,0-0.703,0.316-0.703,0.703c0,0.388,0.314,0.703,0.703,0.703
		s0.703-0.315,0.703-0.703C31.046,19.382,30.731,19.065,30.343,19.065z"/>
	<path d="M25.767,21.257c-0.82,0-1.486-0.668-1.486-1.488s0.666-1.487,1.486-1.487s1.488,0.667,1.488,1.487
		S26.587,21.257,25.767,21.257z M25.767,19.065c-0.387,0-0.701,0.316-0.701,0.703c0,0.388,0.314,0.703,0.701,0.703
		c0.389,0,0.703-0.315,0.703-0.703C26.47,19.382,26.155,19.065,25.767,19.065z"/>
	<path d="M21.19,21.257c-0.82,0-1.486-0.668-1.486-1.488s0.666-1.487,1.486-1.487s1.488,0.667,1.488,1.487
		S22.011,21.257,21.19,21.257z M21.19,19.065c-0.387,0-0.701,0.316-0.701,0.703c0,0.388,0.314,0.703,0.701,0.703
		c0.389,0,0.703-0.315,0.703-0.703C21.894,19.382,21.579,19.065,21.19,19.065z"/>
	<path d="M16.616,21.257c-0.82,0-1.488-0.668-1.488-1.488s0.668-1.487,1.488-1.487s1.488,0.667,1.488,1.487
		S17.437,21.257,16.616,21.257z M16.616,19.065c-0.387,0-0.703,0.316-0.703,0.703c0,0.388,0.316,0.703,0.703,0.703
		c0.389,0,0.703-0.315,0.703-0.703C17.319,19.382,17.005,19.065,16.616,19.065z"/>
	<path d="M39.493,17.269c-0.82,0-1.486-0.667-1.486-1.487s0.666-1.487,1.486-1.487s1.488,0.667,1.488,1.487
		S40.313,17.269,39.493,17.269z M39.493,15.078c-0.387,0-0.701,0.315-0.701,0.703s0.314,0.702,0.701,0.702
		c0.389,0,0.703-0.314,0.703-0.702S39.882,15.078,39.493,15.078z"/>
	<path d="M34.919,17.269c-0.82,0-1.488-0.667-1.488-1.487s0.668-1.487,1.488-1.487s1.488,0.667,1.488,1.487
		S35.739,17.269,34.919,17.269z M34.919,15.078c-0.389,0-0.703,0.315-0.703,0.703s0.314,0.702,0.703,0.702
		c0.387,0,0.703-0.314,0.703-0.702S35.306,15.078,34.919,15.078z"/>
	<path d="M30.343,17.269c-0.82,0-1.488-0.667-1.488-1.487s0.668-1.487,1.488-1.487s1.488,0.667,1.488,1.487
		S31.163,17.269,30.343,17.269z M30.343,15.078c-0.389,0-0.703,0.315-0.703,0.703s0.314,0.702,0.703,0.702s0.703-0.314,0.703-0.702
		S30.731,15.078,30.343,15.078z"/>
	<path d="M25.767,17.269c-0.82,0-1.486-0.667-1.486-1.487s0.666-1.487,1.486-1.487s1.488,0.667,1.488,1.487
		S26.587,17.269,25.767,17.269z M25.767,15.078c-0.387,0-0.701,0.315-0.701,0.703s0.314,0.702,0.701,0.702
		c0.389,0,0.703-0.314,0.703-0.702S26.155,15.078,25.767,15.078z"/>
	<path d="M39.493,12.976c-0.82,0-1.486-0.667-1.486-1.487s0.666-1.486,1.486-1.486s1.488,0.666,1.488,1.486
		S40.313,12.976,39.493,12.976z M39.493,10.786c-0.387,0-0.701,0.314-0.701,0.702c0,0.389,0.314,0.702,0.701,0.702
		c0.389,0,0.703-0.313,0.703-0.702C40.196,11.101,39.882,10.786,39.493,10.786z"/>
	<path d="M34.919,12.976c-0.82,0-1.488-0.667-1.488-1.487s0.668-1.486,1.488-1.486s1.488,0.666,1.488,1.486
		S35.739,12.976,34.919,12.976z M34.919,10.786c-0.389,0-0.703,0.314-0.703,0.702c0,0.389,0.314,0.702,0.703,0.702
		c0.387,0,0.703-0.313,0.703-0.702C35.622,11.101,35.306,10.786,34.919,10.786z"/>
	<path d="M30.343,12.976c-0.82,0-1.488-0.667-1.488-1.487s0.668-1.486,1.488-1.486s1.488,0.666,1.488,1.486
		S31.163,12.976,30.343,12.976z M30.343,10.786c-0.389,0-0.703,0.314-0.703,0.702c0,0.389,0.314,0.702,0.703,0.702
		s0.703-0.313,0.703-0.702C31.046,11.101,30.731,10.786,30.343,10.786z"/>
	<path d="M39.493,8.683c-0.82,0-1.486-0.667-1.486-1.487s0.666-1.486,1.486-1.486s1.488,0.666,1.488,1.486
		S40.313,8.683,39.493,8.683z M39.493,6.493c-0.387,0-0.701,0.314-0.701,0.702c0,0.389,0.314,0.702,0.701,0.702
		c0.389,0,0.703-0.313,0.703-0.702C40.196,6.808,39.882,6.493,39.493,6.493z"/>
</g>
</svg>
