<?xml version="1.0" encoding="utf-8"?>
<!-- Generator: Adobe Illustrator 16.0.0, SVG Export Plug-In . SVG Version: 6.00 Build 0)  -->
<!DOCTYPE svg PUBLIC "-//W3C//DTD SVG 1.1//EN" "http://www.w3.org/Graphics/SVG/1.1/DTD/svg11.dtd">
<svg version="1.1" id="Layer_1" xmlns="http://www.w3.org/2000/svg" xmlns:xlink="http://www.w3.org/1999/xlink" x="0px" y="0px"
	 width="48px" height="48px" viewBox="0 0 48 48" enable-background="new 0 0 48 48" xml:space="preserve">
<g>
	<g>
		<path d="M35.577,37.792H2c-1.103,0-2-0.897-2-2V12.209c0-1.103,0.897-2,2-2h33.577c1.103,0,2,0.897,2,2v23.583
			C37.577,36.895,36.68,37.792,35.577,37.792z M35.577,35.792v1V35.792L35.577,35.792L35.577,35.792z M2,12.209v23.583h33.574
			l0.003-23.583H2z"/>
	</g>
	<path d="M47,35.893c-0.163,0-0.327-0.04-0.476-0.12l-9.387-5.078c-0.486-0.263-0.667-0.87-0.404-1.355
		c0.264-0.485,0.868-0.665,1.355-0.404L46,33.215V14.831l-7.892,4.499c-0.48,0.274-1.091,0.106-1.364-0.374s-0.105-1.09,0.374-1.364
		l9.387-5.351c0.31-0.176,0.689-0.176,0.997,0.004C47.811,12.424,48,12.753,48,13.11v21.783c0,0.353-0.186,0.679-0.488,0.859
		C47.354,35.846,47.178,35.893,47,35.893z"/>
	<g>
		<path d="M7.352,16.513v6.257h7.232v-6.257h1.948v14.949h-1.948v-7.005H7.352v7.005H5.421V16.513H7.352z"/>
		<path d="M19.892,16.717c1.178-0.179,2.572-0.314,4.103-0.314c2.771,0,4.745,0.647,6.053,1.864
			c1.332,1.221,2.106,2.952,2.106,5.368c0,2.438-0.752,4.436-2.147,5.813c-1.397,1.398-3.702,2.148-6.61,2.148
			c-1.376,0-2.526-0.066-3.504-0.179L19.892,16.717L19.892,16.717z M21.821,29.936c0.49,0.086,1.196,0.108,1.954,0.108
			c4.124,0,6.364-2.303,6.364-6.343c0.021-3.525-1.977-5.767-6.059-5.767c-0.992,0-1.749,0.091-2.259,0.202V29.936z"/>
	</g>
</g>
</svg>
