<?xml version="1.0" encoding="utf-8"?>
<!-- Generator: Adobe Illustrator 16.0.0, SVG Export Plug-In . SVG Version: 6.00 Build 0)  -->
<!DOCTYPE svg PUBLIC "-//W3C//DTD SVG 1.1//EN" "http://www.w3.org/Graphics/SVG/1.1/DTD/svg11.dtd">
<svg version="1.1" id="Layer_1" xmlns="http://www.w3.org/2000/svg" xmlns:xlink="http://www.w3.org/1999/xlink" x="0px" y="0px"
	 width="48px" height="48px" viewBox="0 0 48 48" enable-background="new 0 0 48 48" xml:space="preserve">
<g>
	<polygon points="37.893,48 0,48 0,0 19.541,0 37.893,12.451 37.893,24 35.893,24 35.893,13.511 18.927,2 2,2 2,46 35.893,46 
		35.893,35.165 37.893,35.165 	"/>
	<polygon points="25.983,15.234 18.445,2.351 20.171,1.341 27.071,13.134 36.095,12.36 36.265,14.354 	"/>
	<rect x="7.228" y="11.438" width="11.4" height="2"/>
	<rect x="7.228" y="28.441" width="17.433" height="2"/>
	<rect x="7.228" y="36.666" width="17.433" height="2"/>
	<rect x="7.228" y="19.939" width="23.437" height="2"/>
	<g>
		<path d="M31.173,39.459c-0.199,0-0.397-0.06-0.568-0.177c-0.324-0.224-0.486-0.617-0.415-1.004l1.53-8.316
			c0.024-0.131,0.074-0.256,0.146-0.367l8.779-13.401c0.304-0.461,0.921-0.59,1.384-0.29l5.518,3.605
			c0.46,0.301,0.592,0.916,0.295,1.377L38.884,34.84c-0.083,0.129-0.193,0.236-0.324,0.315l-6.869,4.159
			C31.531,39.411,31.352,39.459,31.173,39.459z M33.65,30.521L32.56,36.45l4.767-2.886l8.296-12.924l-3.851-2.516L33.65,30.521z"/>
		<path d="M36.935,34.344c-1.052-2.599-3.569-2.909-3.676-2.922l0.203-1.989c0.155,0.016,3.813,0.419,5.326,4.161L36.935,34.344z"/>
	</g>
</g>
</svg>
