<?xml version="1.0" encoding="utf-8"?>
<!-- Generator: Adobe Illustrator 16.0.0, SVG Export Plug-In . SVG Version: 6.00 Build 0)  -->
<!DOCTYPE svg PUBLIC "-//W3C//DTD SVG 1.1//EN" "http://www.w3.org/Graphics/SVG/1.1/DTD/svg11.dtd">
<svg version="1.1" id="Layer_1" xmlns="http://www.w3.org/2000/svg" xmlns:xlink="http://www.w3.org/1999/xlink" x="0px" y="0px"
	 width="48px" height="48px" viewBox="0 0 48 48" enable-background="new 0 0 48 48" xml:space="preserve">
<g>
	<polygon points="48,13.039 33.723,13.039 33.723,11.039 46,11.039 46,2 2,2 2,11.039 14.259,11.039 14.259,13.039 0,13.039 0,0 
		48,0 	"/>
	<polygon points="24.324,37.188 12.971,37.188 12.971,4.207 35.025,4.207 35.025,28.055 33.025,28.055 33.025,6.207 14.971,6.207 
		14.971,35.188 24.324,35.188 	"/>
	<path d="M42.954,48H28.45l-0.264-0.593c-1.42-3.187-3.74-7.996-4.453-8.71c-0.973-0.972-1.271-3.774-1.537-9.305
		c-0.05-1.052-0.094-1.961-0.149-2.481c-0.223-2.07-1.732-6.743-2.033-7.272l-0.376-0.661l0.519-0.567
		c0.071-0.071,1.759-1.744,3.969-1.744c1.329,0,3.248,0.616,4.844,3.55c0.948,1.747,1.579,3.263,2.087,4.482
		c0.448,1.077,1.062,2.553,1.38,2.553l0,0c0.069,0,0.246-0.027,0.603-0.229l0.411-15.721l1.688,1.957
		c0.977,1.131,9.545,11.156,9.792,14.879c0.154,2.309-1.283,5.473-2.551,8.265c-0.637,1.401-1.429,3.146-1.407,3.642
		c0.058,1.362,1.166,5.273,1.589,6.666L42.954,48z M29.747,46h10.523c-0.481-1.688-1.238-4.532-1.295-5.87
		c-0.041-0.928,0.545-2.268,1.584-4.555c1.112-2.449,2.497-5.498,2.376-7.305c-0.13-1.961-4.233-7.559-7.622-11.695l-0.302,11.541
		l-0.418,0.289c-0.838,0.577-1.522,0.847-2.156,0.847c0,0,0,0-0.001,0c-1.651,0-2.312-1.588-3.226-3.784
		c-0.49-1.176-1.099-2.64-1.998-4.296c-0.903-1.662-1.941-2.504-3.086-2.504c-0.82,0-1.57,0.411-2.042,0.744
		c0.673,1.754,1.76,5.508,1.951,7.287c0.062,0.58,0.107,1.515,0.159,2.598c0.104,2.161,0.347,7.222,0.964,8
		C26.252,38.39,28.795,43.892,29.747,46z"/>
</g>
</svg>
