<?xml version="1.0" encoding="utf-8"?>
<!-- Generator: Adobe Illustrator 16.0.0, SVG Export Plug-In . SVG Version: 6.00 Build 0)  -->
<!DOCTYPE svg PUBLIC "-//W3C//DTD SVG 1.1//EN" "http://www.w3.org/Graphics/SVG/1.1/DTD/svg11.dtd">
<svg version="1.1" id="Layer_1" xmlns="http://www.w3.org/2000/svg" xmlns:xlink="http://www.w3.org/1999/xlink" x="0px" y="0px"
	 width="48px" height="48px" viewBox="0 0 48 48" enable-background="new 0 0 48 48" xml:space="preserve">
<g>
	<polygon points="1.479,11.371 0,11.371 0,0 11.369,0 11.369,1.479 1.479,1.479 	"/>
	<polygon points="48,11.371 46.521,11.371 46.521,1.479 36.629,1.479 36.629,0 48,0 	"/>
	<polygon points="48,48 36.629,48 36.629,46.521 46.521,46.521 46.521,36.629 48,36.629 	"/>
	<polygon points="11.369,48 0,48 0,36.629 1.479,36.629 1.479,46.521 11.369,46.521 	"/>
	<g>
		<rect x="13.289" y="23.262" width="21.42" height="1.479"/>
		<rect x="23.259" y="13.291" width="1.479" height="21.418"/>
	</g>
</g>
</svg>
