<?xml version="1.0" encoding="utf-8"?>
<!-- Generator: Adobe Illustrator 16.0.0, SVG Export Plug-In . SVG Version: 6.00 Build 0)  -->
<!DOCTYPE svg PUBLIC "-//W3C//DTD SVG 1.1//EN" "http://www.w3.org/Graphics/SVG/1.1/DTD/svg11.dtd">
<svg version="1.1" id="Layer_1" xmlns="http://www.w3.org/2000/svg" xmlns:xlink="http://www.w3.org/1999/xlink" x="0px" y="0px"
	 width="48px" height="48px" viewBox="0 0 48 48" enable-background="new 0 0 48 48" xml:space="preserve">
<g>
	<path d="M24,1.501c12.406,0,22.498,10.093,22.498,22.499S36.406,46.498,24,46.498S1.502,36.406,1.502,24S11.594,1.501,24,1.501
		 M24,0C10.744,0,0,10.745,0,24c0,13.256,10.744,24,24,24c13.254,0,24-10.744,24-24C48,10.745,37.254,0,24,0L24,0z"/>
	<path d="M24,9.198c8.162,0,14.801,6.64,14.801,14.802S32.162,38.803,24,38.803S9.197,32.162,9.197,24S15.838,9.198,24,9.198
		 M24,7.697C14.996,7.697,7.695,14.996,7.695,24S14.996,40.303,24,40.303S40.303,33.004,40.303,24S33.004,7.697,24,7.697L24,7.697z"
		/>
	<path d="M24,16.421c4.18,0,7.578,3.4,7.578,7.579c0,4.178-3.398,7.578-7.578,7.578s-7.58-3.4-7.58-7.578
		C16.42,19.821,19.82,16.421,24,16.421 M24,14.92c-5.016,0-9.08,4.065-9.08,9.08c0,5.014,4.064,9.08,9.08,9.08s9.08-4.066,9.08-9.08
		C33.08,18.985,29.016,14.92,24,14.92L24,14.92z"/>
	<rect x="23.25" y="0.631" width="1.5" height="46.738"/>
</g>
</svg>
