<?xml version="1.0" encoding="utf-8"?>
<!-- Generator: Adobe Illustrator 16.0.0, SVG Export Plug-In . SVG Version: 6.00 Build 0)  -->
<!DOCTYPE svg PUBLIC "-//W3C//DTD SVG 1.1//EN" "http://www.w3.org/Graphics/SVG/1.1/DTD/svg11.dtd">
<svg version="1.1" id="Layer_1" xmlns="http://www.w3.org/2000/svg" xmlns:xlink="http://www.w3.org/1999/xlink" x="0px" y="0px"
	 width="48px" height="48px" viewBox="0 0 48 48" enable-background="new 0 0 48 48" xml:space="preserve">
<g>
	<g>
		<path d="M45,46.917H3c-1.654,0-3-1.346-3-3V13.904c0-1.654,1.346-3,3-3h42c1.654,0,3,1.346,3,3v30.013
			C48,45.571,46.654,46.917,45,46.917z M3,12.904c-0.551,0-1,0.449-1,1v30.013c0,0.552,0.449,1,1,1h42c0.552,0,1-0.448,1-1V13.904
			c0-0.551-0.448-1-1-1H3z"/>
	</g>
	<g>
		<path d="M31.667,41.932H6.859c-1.103,0-2-0.897-2-2V17.886c0-1.103,0.897-2,2-2h24.808c1.103,0,2,0.897,2,2v22.046
			C33.667,41.034,32.77,41.932,31.667,41.932z M31.667,39.932v1V39.932L31.667,39.932L31.667,39.932z M6.859,17.886v22.046h24.804
			l0.004-22.046H6.859z"/>
	</g>
	<path d="M41.666,29.875c0,1.148-0.932,2.079-2.075,2.079c-1.147,0-2.079-0.931-2.079-2.079c0-1.145,0.932-2.074,2.079-2.074
		C40.734,27.801,41.666,28.73,41.666,29.875z"/>
	<path d="M41.666,37.297c0,1.146-0.932,2.076-2.075,2.076c-1.147,0-2.079-0.93-2.079-2.076s0.932-2.078,2.079-2.078
		C40.734,35.219,41.666,36.15,41.666,37.297z"/>
	<path d="M21.066,12.719l-8.861-8.222c-0.405-0.375-0.429-1.008-0.053-1.413c0.375-0.406,1.009-0.428,1.413-0.053l7.555,7.01
		l10.2-8.718c0.42-0.359,1.051-0.31,1.409,0.11c0.359,0.42,0.31,1.051-0.11,1.41L21.066,12.719z"/>
</g>
</svg>
