<?xml version="1.0" encoding="utf-8"?>
<!-- Generator: Adobe Illustrator 16.0.0, SVG Export Plug-In . SVG Version: 6.00 Build 0)  -->
<!DOCTYPE svg PUBLIC "-//W3C//DTD SVG 1.1//EN" "http://www.w3.org/Graphics/SVG/1.1/DTD/svg11.dtd">
<svg version="1.1" id="Layer_1" xmlns="http://www.w3.org/2000/svg" xmlns:xlink="http://www.w3.org/1999/xlink" x="0px" y="0px"
	 width="48px" height="48px" viewBox="0 0 48 48" enable-background="new 0 0 48 48" xml:space="preserve">
<g>
	<path d="M38.422,14.167v19.666L23.64,24.001L38.422,14.167 M39.916,11.378L20.943,24.001L39.916,36.62V11.378L39.916,11.378z"/>
	<path d="M17.48,14.167v19.666L2.697,24.001L17.48,14.167 M18.972,11.378L0,24.001L18.972,36.62V11.378L18.972,11.378z"/>
	<path d="M48,43.003h-1.494v-2.152H48V43.003z M48,34.876h-1.494v-5.977H48V34.876z M48,22.924h-1.494v-5.976H48V22.924z M48,10.973
		h-1.494V4.997H48V10.973z"/>
</g>
</svg>
