<?xml version="1.0" encoding="utf-8"?>
<!-- Generator: Adobe Illustrator 16.0.0, SVG Export Plug-In . SVG Version: 6.00 Build 0)  -->
<!DOCTYPE svg PUBLIC "-//W3C//DTD SVG 1.1//EN" "http://www.w3.org/Graphics/SVG/1.1/DTD/svg11.dtd">
<svg version="1.1" id="Layer_1" xmlns="http://www.w3.org/2000/svg" xmlns:xlink="http://www.w3.org/1999/xlink" x="0px" y="0px"
	 width="48px" height="48px" viewBox="0 0 48 48" enable-background="new 0 0 48 48" xml:space="preserve">
<g>
	<g>
		<polygon points="48,46.314 45.365,46.314 45.365,44.824 46.51,44.824 46.51,18.609 30.02,18.609 30.02,17.119 48,17.119 		"/>
		<path d="M27.574,18.968L42.268,44.42h-24.99L2.582,18.968H27.574 M28.434,17.477H0l16.418,28.436H44.85L28.434,17.477
			L28.434,17.477z"/>
	</g>
	<g>
		<line x1="32.189" y1="8.772" x2="15.068" y2="8.772"/>
		<g>
			<rect x="24.063" y="8.027" width="8.127" height="1.49"/>
			<g>
				<path d="M15.068,8.772c4.232-1.57,9.482-4.25,12.738-7.087l-2.564,7.087l2.564,7.087C24.551,13.021,19.301,10.342,15.068,8.772z
					"/>
			</g>
		</g>
	</g>
</g>
</svg>
