<?xml version="1.0" encoding="utf-8"?>
<!-- Generator: Adobe Illustrator 16.0.0, SVG Export Plug-In . SVG Version: 6.00 Build 0)  -->
<!DOCTYPE svg PUBLIC "-//W3C//DTD SVG 1.1//EN" "http://www.w3.org/Graphics/SVG/1.1/DTD/svg11.dtd">
<svg version="1.1" id="Layer_1" xmlns="http://www.w3.org/2000/svg" xmlns:xlink="http://www.w3.org/1999/xlink" x="0px" y="0px"
	 width="48px" height="48px" viewBox="0 0 48 48" enable-background="new 0 0 48 48" xml:space="preserve">
<g>
	<g>
		<path d="M45,48H3c-1.654,0-3-1.346-3-3V3c0-1.654,1.346-3,3-3h42c1.654,0,3,1.346,3,3v42C48,46.654,46.654,48,45,48z M3,2
			C2.449,2,2,2.449,2,3v42c0,0.552,0.449,1,1,1h42c0.552,0,1-0.448,1-1V3c0-0.551-0.448-1-1-1H3z"/>
	</g>
	<g>
		<path d="M45.865,11.612H2.132c-0.552,0-1-0.448-1-1s0.448-1,1-1h43.733c0.553,0,1,0.448,1,1S46.418,11.612,45.865,11.612z"/>
		<path d="M45.865,38.389H2.132c-0.552,0-1-0.447-1-1s0.448-1,1-1h43.733c0.553,0,1,0.447,1,1S46.418,38.389,45.865,38.389z"/>
	</g>
	<path d="M12.44,10.484c-0.552,0-1-0.448-1-1V1.551c0-0.552,0.448-1,1-1s1,0.448,1,1v7.933C13.44,10.036,12.992,10.484,12.44,10.484
		z"/>
	<path d="M23.996,10.484c-0.552,0-1-0.448-1-1V1.551c0-0.552,0.448-1,1-1c0.553,0,1,0.448,1,1v7.933
		C24.996,10.036,24.549,10.484,23.996,10.484z"/>
	<path d="M35.553,10.484c-0.553,0-1-0.448-1-1V1.551c0-0.552,0.447-1,1-1s1,0.448,1,1v7.933
		C36.553,10.036,36.105,10.484,35.553,10.484z"/>
	<path d="M12.44,46.879c-0.552,0-1-0.447-1-1v-7.936c0-0.553,0.448-1,1-1s1,0.447,1,1v7.936
		C13.44,46.432,12.992,46.879,12.44,46.879z"/>
	<path d="M23.996,46.879c-0.552,0-1-0.447-1-1v-7.936c0-0.553,0.448-1,1-1c0.553,0,1,0.447,1,1v7.936
		C24.996,46.432,24.549,46.879,23.996,46.879z"/>
	<path d="M35.553,46.879c-0.553,0-1-0.447-1-1v-7.936c0-0.553,0.447-1,1-1s1,0.447,1,1v7.936
		C36.553,46.432,36.105,46.879,35.553,46.879z"/>
	<path d="M17.533,34.93c-0.151,0-0.302-0.034-0.442-0.104c-0.341-0.168-0.558-0.516-0.558-0.896V14.07
		c0-0.381,0.216-0.729,0.558-0.897c0.34-0.168,0.749-0.128,1.051,0.104l12.932,9.93c0.246,0.189,0.391,0.482,0.391,0.793
		s-0.145,0.604-0.391,0.793l-12.932,9.93C17.964,34.859,17.75,34.93,17.533,34.93z M18.533,16.099v15.803L28.823,24L18.533,16.099z"
		/>
</g>
</svg>
