<?xml version="1.0" encoding="utf-8"?>
<!-- Generator: Adobe Illustrator 16.0.0, SVG Export Plug-In . SVG Version: 6.00 Build 0)  -->
<!DOCTYPE svg PUBLIC "-//W3C//DTD SVG 1.1//EN" "http://www.w3.org/Graphics/SVG/1.1/DTD/svg11.dtd">
<svg version="1.1" id="Layer_1" xmlns="http://www.w3.org/2000/svg" xmlns:xlink="http://www.w3.org/1999/xlink" x="0px" y="0px"
	 width="48px" height="48px" viewBox="0 0 48 48" enable-background="new 0 0 48 48" xml:space="preserve">
<g>
	<path d="M20.624,24.502c-0.151,0-0.302-0.034-0.442-0.103c-0.342-0.168-0.558-0.516-0.558-0.897V6.17
		c0-0.381,0.216-0.729,0.558-0.897c0.342-0.168,0.749-0.128,1.051,0.104l11.286,8.665c0.246,0.189,0.391,0.482,0.391,0.793
		c0,0.311-0.145,0.604-0.391,0.793l-11.286,8.667C21.055,24.432,20.84,24.502,20.624,24.502z M21.624,8.199v13.274l8.644-6.638
		L21.624,8.199z"/>
	<path d="M47,2.247H1c-0.552,0-1-0.448-1-1s0.448-1,1-1h46c0.553,0,1,0.448,1,1S47.553,2.247,47,2.247z"/>
	<g>
		<path d="M41.016,29.423H6.991c-1.654,0-3-1.346-3-3V3.247c0-1.654,1.346-3,3-3h34.024c1.654,0,3,1.346,3,3v23.176
			C44.016,28.077,42.67,29.423,41.016,29.423z M6.991,2.247c-0.551,0-1,0.449-1,1v23.176c0,0.552,0.449,1,1,1h34.024
			c0.552,0,1-0.448,1-1V3.247c0-0.551-0.448-1-1-1H6.991z"/>
	</g>
	<path d="M23.489,46.334c-0.552,0-1-0.447-1-1V29.355c0-0.553,0.448-1,1-1s1,0.447,1,1v15.979
		C24.489,45.887,24.042,46.334,23.489,46.334z"/>
	<path d="M11.633,47.753c-0.294,0-0.586-0.13-0.784-0.378c-0.343-0.433-0.271-1.062,0.162-1.405l11.856-9.411
		c0.432-0.342,1.062-0.271,1.405,0.161c0.344,0.433,0.271,1.062-0.162,1.405l-11.856,9.411
		C12.071,47.682,11.851,47.753,11.633,47.753z"/>
	<path d="M35.345,47.753c-0.218,0-0.437-0.07-0.621-0.217l-11.856-9.411c-0.433-0.344-0.505-0.973-0.162-1.405
		c0.343-0.432,0.973-0.506,1.405-0.161l11.857,9.411c0.433,0.344,0.505,0.973,0.161,1.405C35.932,47.623,35.64,47.753,35.345,47.753
		z"/>
</g>
</svg>
