<?xml version="1.0" encoding="utf-8"?>
<!-- Generator: Adobe Illustrator 16.0.0, SVG Export Plug-In . SVG Version: 6.00 Build 0)  -->
<!DOCTYPE svg PUBLIC "-//W3C//DTD SVG 1.1//EN" "http://www.w3.org/Graphics/SVG/1.1/DTD/svg11.dtd">
<svg version="1.1" id="Layer_1" xmlns="http://www.w3.org/2000/svg" xmlns:xlink="http://www.w3.org/1999/xlink" x="0px" y="0px"
	 width="48px" height="48px" viewBox="0 0 48 48" enable-background="new 0 0 48 48" xml:space="preserve">
<g>
	<polygon points="33.646,21.417 32.322,19.918 42.604,10.833 32.322,1.75 33.646,0.25 45.623,10.833 	"/>
	<polygon points="33.646,47.749 32.322,46.251 42.604,37.166 32.322,28.081 33.646,26.583 45.623,37.166 	"/>
	<rect x="3.886" y="9.834" width="17.354" height="2"/>
	<path d="M21.459,38.087H3.886v-2h17.111C21.668,35.711,24,34.178,24,31.014V16.908c0-2.447,1.357-7.075,6.495-7.075h13.618v2
		H30.495c-4.34,0-4.492,4.558-4.495,5.078v14.103c0,4.924-4.164,6.899-4.341,6.981L21.459,38.087z"/>
	<rect x="27.895" y="36.166" width="16.219" height="2"/>
</g>
</svg>
