<?xml version="1.0" encoding="utf-8"?>
<!-- Generator: Adobe Illustrator 16.0.0, SVG Export Plug-In . SVG Version: 6.00 Build 0)  -->
<!DOCTYPE svg PUBLIC "-//W3C//DTD SVG 1.1//EN" "http://www.w3.org/Graphics/SVG/1.1/DTD/svg11.dtd">
<svg version="1.1" id="Layer_1" xmlns="http://www.w3.org/2000/svg" xmlns:xlink="http://www.w3.org/1999/xlink" x="0px" y="0px"
	 width="48px" height="48px" viewBox="0 0 48 48" enable-background="new 0 0 48 48" xml:space="preserve">
<g>
	<g>
		<g>
			<path d="M47.651,12.138c-0.277-0.462-0.852-1.011-1.998-1.011H13.696l-1.552-3.351c-0.092-0.23-0.218-0.453-0.403-0.703
				c-0.11-0.145-0.229-0.278-0.426-0.455c-0.127-0.11-0.262-0.211-0.403-0.299l-0.078-0.044c-0.143-0.083-0.291-0.155-0.444-0.212
				L10.288,6.03C10.138,5.979,9.986,5.937,9.83,5.911L9.611,5.887C9.514,5.872,9.417,5.862,9.318,5.862h-6.27
				C1.368,5.862,0,7.229,0,8.909c0,1.682,1.367,3.05,3.048,3.05h4.314l1.743,3.769c0.425,1.246,1.024,2.321,1.027,2.321l4.307,9.667
				c0.035,0.078,0.077,0.15,0.138,0.246l0.804,1.709c0.309,1.01,1.11,1.771,2.094,2.055l-0.01,0.131h20.922l0.959-0.016
				l-0.012-0.121c0.973-0.287,1.766-1.049,2.072-2.049l5.23-11.587C46.995,17.404,48.729,13.921,47.651,12.138z M45.083,17.31
				l-4.963,11.02l-0.137-0.037l-0.223,0.824c-0.156,0.584-0.684,0.988-1.34,0.988h-0.008l-0.988-0.029l0.004,0.045H19.255
				l-0.936-0.012c-0.604,0-1.135-0.408-1.292-0.992l-0.226-0.822l-0.134,0.035l-4.992-11.074c-0.006-0.01-0.566-1.016-0.94-2.128
				l-2.264-4.904H3.048c-0.723,0-1.312-0.59-1.312-1.313c0-0.723,0.589-1.311,1.312-1.311l6.33,0.007l0.158,0.017
				c0.068,0.013,0.131,0.03,0.238,0.064c0.067,0.025,0.131,0.058,0.227,0.11c0.061,0.039,0.117,0.083,0.201,0.153
				c0.057,0.052,0.107,0.109,0.17,0.189c0.069,0.095,0.122,0.188,0.178,0.325l2.035,4.398h33.068c0.408,0,0.484,0.124,0.512,0.171
				C46.538,13.651,45.915,15.726,45.083,17.31z M21.655,33.608c-2.351,0-4.263,1.912-4.263,4.264s1.912,4.266,4.263,4.266
				c2.353,0,4.264-1.914,4.264-4.266S24.007,33.608,21.655,33.608z M21.655,40.597c-1.501,0-2.724-1.221-2.724-2.725
				c0-1.502,1.223-2.723,2.724-2.723c1.503,0,2.725,1.221,2.725,2.723C24.38,39.376,23.158,40.597,21.655,40.597z M36.44,33.608
				c-2.354,0-4.266,1.912-4.266,4.264s1.912,4.266,4.266,4.266c2.35,0,4.264-1.914,4.264-4.266S38.79,33.608,36.44,33.608z
				 M36.44,40.597c-1.504,0-2.725-1.221-2.725-2.725c0-1.502,1.221-2.723,2.725-2.723c1.5,0,2.723,1.221,2.723,2.723
				C39.163,39.376,37.94,40.597,36.44,40.597z"/>
		</g>
	</g>
</g>
</svg>
