<?xml version="1.0" encoding="utf-8"?>
<!-- Generator: Adobe Illustrator 16.0.0, SVG Export Plug-In . SVG Version: 6.00 Build 0)  -->
<!DOCTYPE svg PUBLIC "-//W3C//DTD SVG 1.1//EN" "http://www.w3.org/Graphics/SVG/1.1/DTD/svg11.dtd">
<svg version="1.1" id="Layer_1" xmlns="http://www.w3.org/2000/svg" xmlns:xlink="http://www.w3.org/1999/xlink" x="0px" y="0px"
	 width="48px" height="48px" viewBox="0 0 48 48" enable-background="new 0 0 48 48" xml:space="preserve">
<g>
	<rect x="6.143" y="29.225" width="22.246" height="2"/>
	<rect x="6.143" y="34.617" width="12.396" height="2"/>
	<path d="M42.342,27.604v13.205c0,0.178-0.143,0.322-0.322,0.322H2.076c-0.178,0-0.322-0.145-0.322-0.322V14.245
		c0-0.178,0.145-0.322,0.322-0.322h22.703c0.059-0.599,0.174-1.181,0.311-1.753H2.076C0.93,12.17,0,13.1,0,14.245v26.563
		c0,1.145,0.93,2.075,2.076,2.075H42.02c1.146,0,2.076-0.932,2.076-2.075V26.832C43.535,27.135,42.947,27.385,42.342,27.604z"/>
	<g>
		<path d="M37.859,7.115c4.488,0,8.141,3.651,8.141,8.14c0,4.489-3.652,8.142-8.141,8.142c-4.487,0-8.139-3.652-8.139-8.142
			C29.721,10.767,33.372,7.115,37.859,7.115 M37.859,5.115c-5.601,0-10.139,4.54-10.139,10.14c0,5.601,4.538,10.142,10.139,10.142
			C43.461,25.396,48,20.855,48,15.255S43.461,5.115,37.859,5.115L37.859,5.115z"/>
	</g>
	<g>
		<rect x="32.666" y="14.255" width="10.389" height="2"/>
	</g>
</g>
</svg>
