<?xml version="1.0" encoding="utf-8"?>
<!-- Generator: Adobe Illustrator 16.0.0, SVG Export Plug-In . SVG Version: 6.00 Build 0)  -->
<!DOCTYPE svg PUBLIC "-//W3C//DTD SVG 1.1//EN" "http://www.w3.org/Graphics/SVG/1.1/DTD/svg11.dtd">
<svg version="1.1" id="Layer_1" xmlns="http://www.w3.org/2000/svg" xmlns:xlink="http://www.w3.org/1999/xlink" x="0px" y="0px"
	 width="48px" height="48px" viewBox="0 0 48 48" enable-background="new 0 0 48 48" xml:space="preserve">
<g>
	<path d="M11.269,37.8v-0.655l-5.044,0.78L6.182,37.93c-0.133,0-0.247-0.101-0.266-0.23l-0.689-4.441l6.042-0.936v-2.995
		l-6.495,1.009L2.482,15.547C2.46,15.398,2.561,15.26,2.71,15.236l33.353-5.162c0.133,0,0.248,0.098,0.269,0.23l0.629,4.068h1.499
		l-0.666-4.295c-0.146-0.947-1.018-1.615-1.999-1.462L2.482,13.774c-0.953,0.147-1.608,1.044-1.462,1.999l3.433,22.152
		c0.133,0.859,0.859,1.482,1.728,1.482c0.09,0,0.18-0.009,0.27-0.021l5.196-0.805C11.418,38.396,11.269,38.116,11.269,37.8z"/>
	<rect x="15.714" y="27.867" width="18.771" height="2"/>
	<rect x="15.714" y="32.418" width="10.459" height="2"/>
	<g>
		<path d="M45.988,39.813H12.279c-1.109,0-2.011-0.903-2.011-2.013V15.383c0-1.109,0.902-2.011,2.011-2.011h33.709
			c1.109,0,2.012,0.902,2.012,2.011V37.8C48,38.909,47.098,39.813,45.988,39.813z M12.279,15.372L12.268,37.8l33.72,0.013
			c0.005,0,0.012-0.006,0.012-0.013V15.383L12.279,15.372z"/>
		<rect x="15.714" y="27.867" width="18.771" height="2"/>
		<rect x="15.714" y="32.418" width="10.459" height="2"/>
	</g>
</g>
</svg>
