<?xml version="1.0" encoding="utf-8"?>
<!-- Generator: Adobe Illustrator 16.0.0, SVG Export Plug-In . SVG Version: 6.00 Build 0)  -->
<!DOCTYPE svg PUBLIC "-//W3C//DTD SVG 1.1//EN" "http://www.w3.org/Graphics/SVG/1.1/DTD/svg11.dtd">
<svg version="1.1" id="Layer_1" xmlns="http://www.w3.org/2000/svg" xmlns:xlink="http://www.w3.org/1999/xlink" x="0px" y="0px"
	 width="48px" height="48px" viewBox="0 0 48 48" enable-background="new 0 0 48 48" xml:space="preserve">
<g>
	<rect x="1" y="23" width="46" height="2"/>
	<rect x="23" y="3.734" width="2" height="40.532"/>
	<path d="M1.778,45.053c-0.476,0-0.923-0.186-1.259-0.523C0.184,44.193,0,43.746,0,43.271V4.729c0-0.982,0.799-1.781,1.781-1.781
		h44.439C47.202,2.948,48,3.747,48,4.729v38.542c0,0.982-0.798,1.781-1.779,1.781H1.781l-0.003-1V45.053z M2,43.053h44V4.948H2
		V43.053z"/>
	<text transform="matrix(1 0 0 1 9.9775 17.6729)" font-family="'ArialMT'" font-size="10.1579">$</text>
	<text transform="matrix(1 0 0 1 33.4199 17.6729)" font-family="'ArialMT'" font-size="10.1579">£</text>
	<text transform="matrix(1 0 0 1 9.9775 38.7686)" font-family="'ArialMT'" font-size="10.1579">€</text>
	<text transform="matrix(1 0 0 1 33.4199 38.7686)" font-family="'ArialMT'" font-size="10.1579">¥</text>
</g>
</svg>
