<?xml version="1.0" encoding="utf-8"?>
<!-- Generator: Adobe Illustrator 16.0.0, SVG Export Plug-In . SVG Version: 6.00 Build 0)  -->
<!DOCTYPE svg PUBLIC "-//W3C//DTD SVG 1.1//EN" "http://www.w3.org/Graphics/SVG/1.1/DTD/svg11.dtd">
<svg version="1.1" id="Layer_1" xmlns="http://www.w3.org/2000/svg" xmlns:xlink="http://www.w3.org/1999/xlink" x="0px" y="0px"
	 width="48px" height="48px" viewBox="0 0 48 48" enable-background="new 0 0 48 48" xml:space="preserve">
<g>
	<g>
		<path d="M45,42.438H3c-1.654,0-3-1.346-3-3V8.563c0-1.654,1.346-3,3-3h42c1.654,0,3,1.346,3,3v30.875
			C48,41.092,46.654,42.438,45,42.438z M3,7.563c-0.551,0-1,0.449-1,1v30.875c0,0.552,0.449,1,1,1h42c0.552,0,1-0.448,1-1V8.563
			c0-0.551-0.448-1-1-1H3z"/>
	</g>
	<path d="M3.525,38.202l-1.983-0.121c0.014-0.977,0.817-1.589,1.404-2.036c0.147-0.112,0.29-0.217,0.396-0.321
		c0.259-0.253,0.532-0.498,0.805-0.744c0.492-0.441,0.957-0.858,1.331-1.324c0.383-0.474,0.76-0.945,1.136-1.416
		c0.765-0.957,1.527-1.911,2.318-2.854c1.124-1.341,2.091-2.699,3.116-4.137c0.305-0.428,0.61-0.856,0.921-1.286
		c0.146-0.203,0.312-0.484,0.497-0.796c0.88-1.482,2.354-3.963,4.501-2.946c1.339,0.633,2.117,1.813,2.803,2.854
		c0.459,0.696,0.893,1.354,1.436,1.787c1.93,1.523,3.472,3.038,4.849,4.762c0.178,0.222,0.342,0.492,0.505,0.771
		c0.167,0.282,0.396,0.67,0.556,0.758c0.171,0.096,0.352,0.016,1.018-0.615c0.114-0.108,0.226-0.214,0.336-0.312l0.249-0.224
		c0.869-0.774,1.768-1.576,2.379-2.486l0.3-0.454c0.342-0.524,0.695-1.066,1.199-1.593c2.224-2.353,4.604-0.828,6.178,0.18
		c1.264,0.809,2.447,1.734,3.591,2.629c1.231,0.963,2.394,1.872,3.661,2.659l-1.057,1.699c-1.357-0.845-2.618-1.83-3.836-2.783
		c-1.107-0.866-2.253-1.762-3.438-2.519c-1.952-1.252-2.71-1.478-3.65-0.487c-0.379,0.396-0.654,0.818-0.973,1.307
		c-0.103,0.159-0.208,0.319-0.317,0.481c-0.751,1.116-1.744,2.003-2.705,2.859l-0.25,0.224c-0.097,0.086-0.192,0.177-0.289,0.27
		c-0.646,0.612-1.85,1.754-3.361,0.917c-0.639-0.351-1.013-0.985-1.313-1.495c-0.113-0.192-0.222-0.383-0.345-0.536
		c-1.279-1.603-2.718-3.015-4.529-4.443c-0.796-0.635-1.338-1.457-1.863-2.253c-0.594-0.902-1.155-1.753-1.989-2.147
		c-0.497-0.233-1.499,1.443-1.926,2.16c-0.22,0.371-0.42,0.704-0.595,0.946c-0.309,0.427-0.611,0.852-0.914,1.275
		c-1.002,1.405-2.038,2.859-3.212,4.262c-0.782,0.93-1.534,1.871-2.288,2.815c-0.378,0.475-0.758,0.949-1.142,1.424
		c-0.475,0.59-1.022,1.081-1.552,1.557c-0.252,0.227-0.503,0.452-0.743,0.687c-0.158,0.154-0.364,0.315-0.583,0.481
		C3.959,37.787,3.59,38.068,3.525,38.202z"/>
	<path d="M30.023,21.16c-2.845,0-5.158-2.314-5.158-5.159c0-2.842,2.313-5.155,5.158-5.155c2.843,0,5.156,2.313,5.156,5.155
		C35.18,18.846,32.866,21.16,30.023,21.16z M30.023,12.846c-1.741,0-3.158,1.415-3.158,3.155c0,1.742,1.417,3.159,3.158,3.159
		c1.74,0,3.156-1.417,3.156-3.159C33.18,14.261,31.764,12.846,30.023,12.846z"/>
</g>
</svg>
