<?xml version="1.0" encoding="utf-8"?>
<!-- Generator: Adobe Illustrator 16.0.0, SVG Export Plug-In . SVG Version: 6.00 Build 0)  -->
<!DOCTYPE svg PUBLIC "-//W3C//DTD SVG 1.1//EN" "http://www.w3.org/Graphics/SVG/1.1/DTD/svg11.dtd">
<svg version="1.1" id="Layer_1" xmlns="http://www.w3.org/2000/svg" xmlns:xlink="http://www.w3.org/1999/xlink" x="0px" y="0px"
	 width="48px" height="48px" viewBox="0 0 48 48" enable-background="new 0 0 48 48" xml:space="preserve">
<g>
	<path fill="#010101" d="M45.904,45.158H2.097c-1.11,0-2.013-0.902-2.013-2.012V11.089c0-1.109,0.903-2.012,2.013-2.012h43.809
		c1.107,0,2.009,0.902,2.009,2.012v32.058C47.913,44.257,47.011,45.158,45.904,45.158z M2.097,11.077L2.084,43.146l43.82,0.012
		c0.01,0,0.01-0.009,0.01-0.012l0.001-32.058L2.097,11.077z"/>
	<path fill="#010101" d="M23.563,29.826c-13.351,0-22.964-6.142-23.111-6.238l1.095-1.673c0.214,0.141,21.833,13.899,44.909-1.051
		l1.088,1.679C39.063,28.036,30.769,29.826,23.563,29.826z"/>
	<g>
		<rect x="19.573" y="24.834" fill="#FFFFFF" width="8.854" height="8.678"/>
		<path fill="#010101" d="M29.428,34.512H18.573V23.834h10.854V34.512z M20.573,32.512h6.854v-6.678h-6.854V32.512z"/>
	</g>
	<g>
		<path fill="#FFFFFF" d="M34.951,9.067c0,0.557-0.452,1.01-1.012,1.01h-19.88c-0.56,0-1.013-0.453-1.013-1.01V4.854
			c0-0.558,0.453-1.012,1.013-1.012h19.88c0.56,0,1.012,0.454,1.012,1.012V9.067z"/>
		<path fill="#010101" d="M33.939,11.077h-19.88c-1.11,0-2.013-0.902-2.013-2.01V4.854c0-1.109,0.903-2.012,2.013-2.012h19.88
			c1.109,0,2.012,0.903,2.012,2.012v4.213C35.951,10.175,35.049,11.077,33.939,11.077z M14.059,4.842l-0.013,4.225l19.894,0.01
			c0.009,0,0.012-0.007,0.012-0.01V4.854L14.059,4.842z"/>
	</g>
</g>
</svg>
