<?xml version="1.0" encoding="utf-8"?>
<!-- Generator: Adobe Illustrator 16.0.0, SVG Export Plug-In . SVG Version: 6.00 Build 0)  -->
<!DOCTYPE svg PUBLIC "-//W3C//DTD SVG 1.1//EN" "http://www.w3.org/Graphics/SVG/1.1/DTD/svg11.dtd">
<svg version="1.1" id="Layer_1" xmlns="http://www.w3.org/2000/svg" xmlns:xlink="http://www.w3.org/1999/xlink" x="0px" y="0px"
	 width="48px" height="48px" viewBox="0 0 48 48" enable-background="new 0 0 48 48" xml:space="preserve">
<g>
	<path d="M43.5,2.852c1.375,0,2.492,1.118,2.492,2.493v36.908l-8.186-8.316l-0.59-0.6h-0.842H4.502
		c-1.375,0-2.492-1.119-2.492-2.492v-25.5c0-1.375,1.117-2.493,2.492-2.493H43.5 M43.5,0.843H4.502C2.016,0.843,0,2.859,0,5.345
		v25.5c0,2.484,2.016,4.5,4.502,4.5h31.873L48,47.157V5.345C48,2.859,45.984,0.843,43.5,0.843L43.5,0.843z"/>
	<rect x="15.869" y="17.233" width="16.057" height="1.004"/>
	<rect x="23.395" y="9.707" width="1.006" height="16.058"/>
</g>
</svg>
