<?xml version="1.0" encoding="utf-8"?>
<!-- Generator: Adobe Illustrator 16.0.0, SVG Export Plug-In . SVG Version: 6.00 Build 0)  -->
<!DOCTYPE svg PUBLIC "-//W3C//DTD SVG 1.1//EN" "http://www.w3.org/Graphics/SVG/1.1/DTD/svg11.dtd">
<svg version="1.1" id="Layer_1" xmlns="http://www.w3.org/2000/svg" xmlns:xlink="http://www.w3.org/1999/xlink" x="0px" y="0px"
	 width="48px" height="48px" viewBox="0 0 48 48" enable-background="new 0 0 48 48" xml:space="preserve">
<g>
	<g>
		<path d="M5.484,44.722c-1.031,0-1.938-0.76-2.156-1.807l-0.021-0.15c-0.148-0.99,0.416-1.645,0.795-2.08l0.139-0.162
			c0.242-0.273,0.465-0.518,0.693-0.764c1.268-1.371,2.572-2.787,3.535-5.723C3.074,30.724,0,25.909,0,20.719
			c0-9.616,10.768-17.44,24-17.44c13.234,0,24,7.824,24,17.44s-10.766,17.44-24,17.44c-1.082,0-2.211-0.055-3.369-0.164
			c-3.416,2.93-7.408,4.992-11.873,6.129c-0.877,0.242-1.881,0.436-3.045,0.586L5.484,44.722z M5.383,42.532
			c0.027,0.074,0.078,0.102,0.098,0.104c1.037-0.135,1.959-0.311,2.738-0.527c4.314-1.1,8.135-3.107,11.375-5.979l0.346-0.305
			l0.457,0.049c1.24,0.133,2.455,0.199,3.604,0.199c12.084,0,21.914-6.887,21.914-15.354c0-8.466-9.83-15.354-21.914-15.354
			S2.086,12.253,2.086,20.719c0,4.646,2.967,8.993,8.135,11.931l0.709,0.402l-0.221,0.787c-1.111,3.945-2.775,5.746-4.242,7.336
			c-0.219,0.236-0.436,0.471-0.646,0.709l-0.143,0.168c-0.117,0.133-0.289,0.332-0.311,0.406L5.383,42.532z"/>
	</g>
	<g>
		<path d="M12.559,25.175c-2.229,0-4.039-1.813-4.039-4.038c0-2.229,1.811-4.04,4.039-4.04c2.227,0,4.039,1.812,4.039,4.04
			C16.598,23.362,14.785,25.175,12.559,25.175z M12.559,18.14c-1.652,0-2.996,1.345-2.996,2.997c0,1.651,1.344,2.995,2.996,2.995
			s2.996-1.344,2.996-2.995C15.555,19.484,14.211,18.14,12.559,18.14z"/>
		<path d="M23.111,25.175c-2.229,0-4.039-1.813-4.039-4.038c0-2.229,1.811-4.04,4.039-4.04c2.227,0,4.041,1.812,4.041,4.04
			C27.152,23.362,25.338,25.175,23.111,25.175z M23.111,18.14c-1.65,0-2.996,1.345-2.996,2.997c0,1.651,1.346,2.995,2.996,2.995
			c1.652,0,2.998-1.344,2.998-2.995C26.109,19.484,24.764,18.14,23.111,18.14z"/>
		<path d="M33.377,25.089c-2.221,0-4.025-1.805-4.025-4.023c0-2.221,1.805-4.028,4.025-4.028s4.027,1.808,4.027,4.028
			C37.404,23.284,35.598,25.089,33.377,25.089z M33.377,18.08c-1.646,0-2.982,1.339-2.982,2.985c0,1.643,1.336,2.98,2.982,2.98
			s2.984-1.338,2.984-2.98C36.361,19.419,35.023,18.08,33.377,18.08z"/>
	</g>
</g>
</svg>
