<?xml version="1.0" encoding="utf-8"?>
<!-- Generator: Adobe Illustrator 16.0.0, SVG Export Plug-In . SVG Version: 6.00 Build 0)  -->
<!DOCTYPE svg PUBLIC "-//W3C//DTD SVG 1.1//EN" "http://www.w3.org/Graphics/SVG/1.1/DTD/svg11.dtd">
<svg version="1.1" id="Layer_1" xmlns="http://www.w3.org/2000/svg" xmlns:xlink="http://www.w3.org/1999/xlink" x="0px" y="0px"
	 width="48px" height="48px" viewBox="0 0 48 48" enable-background="new 0 0 48 48" xml:space="preserve">
<g>
	<path fill-rule="evenodd" clip-rule="evenodd" d="M24.001,42.617c-2.348,0-4.607-0.305-6.748-0.852l-7.861,5.355l0.005-8.85
		C3.692,34.457,0,28.488,0,21.749c0-11.527,10.744-20.87,24.001-20.87C37.256,0.879,48,10.222,48,21.749
		C48,33.273,37.256,42.617,24.001,42.617z M24.001,2.967c-12.104,0-21.914,8.408-21.914,18.782c0,6.378,3.719,12.007,9.391,15.401v2
		l0.035,4.207l3.287-2.336c-0.036-0.012-0.074-0.021-0.113-0.033l1.899-1.584c2.319,0.715,4.808,1.127,7.415,1.127
		c12.101,0,21.911-8.408,21.911-18.782S36.102,2.967,24.001,2.967z"/>
</g>
</svg>
