<?xml version="1.0" encoding="utf-8"?>
<!-- Generator: Adobe Illustrator 16.0.0, SVG Export Plug-In . SVG Version: 6.00 Build 0)  -->
<!DOCTYPE svg PUBLIC "-//W3C//DTD SVG 1.1//EN" "http://www.w3.org/Graphics/SVG/1.1/DTD/svg11.dtd">
<svg version="1.1" id="Layer_1" xmlns="http://www.w3.org/2000/svg" xmlns:xlink="http://www.w3.org/1999/xlink" x="0px" y="0px"
	 width="48px" height="48px" viewBox="0 0 48 48" enable-background="new 0 0 48 48" xml:space="preserve">
<g>
	<path d="M19.539,21.932H0V0h42.801v19.022l-1.514-0.907c-2.609-1.563-5.604-2.389-8.664-2.389c-4.909,0-9.569,2.135-12.785,5.859
		L19.539,21.932z M2,19.932h16.631c3.583-3.949,8.655-6.205,13.992-6.205c2.844,0,5.639,0.639,8.178,1.858v-4.032H2V19.932z
		 M2,9.553h38.801V2H2V9.553z"/>
	<path d="M15.71,32.313H0V19.933h21.265l-1.427,1.653c-2.393,2.771-3.796,6.16-4.061,9.798L15.71,32.313z M2,30.313h11.873
		c0.368-3.027,1.45-5.879,3.173-8.379H2V30.313z"/>
	<path d="M18.946,42.691H0V30.313h15.851l-0.074,1.068c-0.028,0.41-0.049,0.826-0.049,1.242c0,3.015,0.806,5.975,2.329,8.561
		L18.946,42.691z M2,40.691h13.536c-1.187-2.512-1.808-5.27-1.808-8.068c0-0.104,0.001-0.207,0.003-0.311H2V40.691z"/>
	<path d="M37.313,32.55c-0.44-0.44-1.013-0.817-1.711-1.126c-0.367-0.158-1.119-0.379-2.252-0.663V24.27
		c0.73,0.15,1.312,0.46,1.732,0.931c0.419,0.472,0.695,1.15,0.829,2.033l2.325-0.352c-0.197-1.425-0.791-2.546-1.773-3.364
		c-0.768-0.642-1.805-1.026-3.113-1.151v-1.075h-1.328v1.075c-1.492,0.152-2.619,0.56-3.377,1.226
		c-1.133,0.992-1.699,2.289-1.699,3.891c0,0.899,0.195,1.705,0.582,2.414c0.389,0.709,0.939,1.264,1.656,1.662
		c0.969,0.543,1.916,0.901,2.838,1.076v7.166c-0.883-0.092-1.642-0.537-2.275-1.338c-0.441-0.564-0.748-1.454-0.926-2.663
		l-2.262,0.425c0.082,1.168,0.379,2.156,0.893,2.965c0.515,0.81,1.121,1.396,1.826,1.758c0.707,0.361,1.619,0.613,2.744,0.757v2.252
		h1.328V41.68c1.575-0.072,2.858-0.633,3.852-1.675c0.992-1.043,1.488-2.342,1.488-3.901c0-0.709-0.119-1.367-0.355-1.979
		C38.096,33.516,37.756,32.992,37.313,32.55z M32.021,30.473c-1.025-0.307-1.752-0.721-2.181-1.238
		c-0.429-0.516-0.644-1.158-0.644-1.924c0-0.775,0.25-1.447,0.756-2.016c0.505-0.566,1.193-0.917,2.068-1.05V30.473L32.021,30.473z
		 M35.521,38.665c-0.572,0.651-1.295,1.03-2.172,1.138v-6.854c1.209,0.393,2.017,0.836,2.42,1.332
		c0.404,0.496,0.606,1.152,0.606,1.971C36.376,37.211,36.09,38.016,35.521,38.665z"/>
	<path d="M32.623,48c-8.479,0-15.377-6.898-15.377-15.377c0-8.479,6.898-15.377,15.377-15.377C41.102,17.246,48,24.144,48,32.623
		C48,41.102,41.102,48,32.623,48z M32.623,19.246c-7.376,0-13.377,6.001-13.377,13.377S25.247,46,32.623,46S46,39.999,46,32.623
		S39.999,19.246,32.623,19.246z"/>
</g>
</svg>
