<?xml version="1.0" encoding="utf-8"?>
<!-- Generator: Adobe Illustrator 16.0.0, SVG Export Plug-In . SVG Version: 6.00 Build 0)  -->
<!DOCTYPE svg PUBLIC "-//W3C//DTD SVG 1.1//EN" "http://www.w3.org/Graphics/SVG/1.1/DTD/svg11.dtd">
<svg version="1.1" id="Layer_1" xmlns="http://www.w3.org/2000/svg" xmlns:xlink="http://www.w3.org/1999/xlink" x="0px" y="0px"
	 width="48px" height="48px" viewBox="0 0 48 48" enable-background="new 0 0 48 48" xml:space="preserve">
<g>
	<path d="M35.473,48H7.939v-5.174l4.861-2.045v-6.153H6.918c-3.505,0-6.357-3.009-6.357-6.707V6.706C0.561,3.008,3.412,0,6.917,0
		h29.577C40,0,42.852,3.008,42.852,6.706v1.525h-2V6.706C40.852,4.111,38.896,2,36.494,2H6.917C4.515,2,2.561,4.111,2.561,6.706
		v21.215c0,2.596,1.955,4.707,4.357,4.707H14.8v9.481l-4.861,2.045V46h23.534v-1.846l-4.861-2.045v-9.481h7.883
		c2.402,0,4.357-2.111,4.357-4.707v-9.235h2v9.235c0,3.698-2.852,6.707-6.357,6.707h-5.883v6.153l4.861,2.045V48z"/>
	<g>
		<g>
			<path d="M3.528,25c-0.001,0-0.001,0-0.002,0l0-2c0.18,0,18.164-0.136,36.037-11.018l1.041,1.708C22.248,24.866,4.315,25,3.528,25
				z"/>
			<g>
				<path d="M46.439,8.486c-2.254,3.139-4.698,7.552-5.65,11.121l-1.571-6.255L34.009,9.55C37.676,10.006,42.686,9.396,46.439,8.486
					z"/>
			</g>
		</g>
	</g>
	<circle cx="4.338" cy="23.854" r="1.55"/>
	<path d="M16.461,22.302c0,0.857-0.692,1.552-1.552,1.552c-0.855,0-1.548-0.694-1.548-1.552c0-0.856,0.693-1.55,1.548-1.55
		C15.769,20.752,16.461,21.446,16.461,22.302z"/>
	<circle cx="29.104" cy="18.261" r="1.551"/>
</g>
</svg>
