<?xml version="1.0" encoding="utf-8"?>
<!-- Generator: Adobe Illustrator 16.0.0, SVG Export Plug-In . SVG Version: 6.00 Build 0)  -->
<!DOCTYPE svg PUBLIC "-//W3C//DTD SVG 1.1//EN" "http://www.w3.org/Graphics/SVG/1.1/DTD/svg11.dtd">
<svg version="1.1" id="Layer_1" xmlns="http://www.w3.org/2000/svg" xmlns:xlink="http://www.w3.org/1999/xlink" x="0px" y="0px"
	 width="48px" height="48px" viewBox="0 0 48 48" enable-background="new 0 0 48 48" xml:space="preserve">
<g>
	<path d="M43.266,27.639H29.816v-2h13.449c1.508,0,2.734-1.369,2.734-3.052v-9.692c0-1.683-1.227-3.052-2.734-3.052H4.735
		C3.227,9.843,2,11.212,2,12.895v9.692c0,1.683,1.227,3.052,2.735,3.052h13.469v2H4.735C2.124,27.639,0,25.372,0,22.587v-9.692
		c0-2.786,2.124-5.052,4.735-5.052h38.531c2.61,0,4.734,2.267,4.734,5.052v9.692C48,25.372,45.876,27.639,43.266,27.639z"/>
	<path d="M41.322,48H6.68c-2.61,0-4.733-2.268-4.733-5.055V24.348l1.517,0.915c0.413,0.25,0.841,0.376,1.271,0.376h14.033v2H4.735
		c-0.266,0-0.529-0.024-0.788-0.073v15.38C3.947,44.63,5.173,46,6.68,46h34.642c1.508,0,2.734-1.37,2.734-3.055V27.563
		c-0.261,0.05-0.525,0.075-0.791,0.075H29.289v-2h13.977c0.428,0,0.857-0.127,1.279-0.378l1.512-0.902v18.587
		C46.057,45.732,43.933,48,41.322,48z"/>
	<path d="M30.49,41.061H17.511V21.568H30.49V41.061z M19.511,39.061h8.979V23.568h-8.979V39.061z"/>
	<path d="M32.504,8.843h-2V5.052C30.504,3.369,29.277,2,27.77,2h-7.54c-1.508,0-2.735,1.369-2.735,3.052v3.791h-2V5.052
		C15.495,2.266,17.619,0,20.23,0h7.54c2.61,0,4.734,2.266,4.734,5.052V8.843z"/>
</g>
</svg>
