<?xml version="1.0" encoding="utf-8"?>
<!-- Generator: Adobe Illustrator 16.0.0, SVG Export Plug-In . SVG Version: 6.00 Build 0)  -->
<!DOCTYPE svg PUBLIC "-//W3C//DTD SVG 1.1//EN" "http://www.w3.org/Graphics/SVG/1.1/DTD/svg11.dtd">
<svg version="1.1" id="Layer_1" xmlns="http://www.w3.org/2000/svg" xmlns:xlink="http://www.w3.org/1999/xlink" x="0px" y="0px"
	 width="48px" height="48px" viewBox="0 0 48 48" enable-background="new 0 0 48 48" xml:space="preserve">
<g>
	<path d="M47.125,47.125H0.875V0.875h46.25V47.125z M1.125,46.875h45.75V1.125H1.125V46.875z"/>
	<path d="M47.641,47.641H0.359V0.359h47.282V47.641z M2.359,45.641h43.282V2.359H2.359V45.641z"/>
	<path d="M24.299,28.268H4.33V6.315h19.969V28.268z M6.33,26.268h15.969V8.315H6.33V26.268z"/>
	<rect x="22.591" y="35.668" width="20.078" height="5.018"/>
	<rect x="5.33" y="35.668" width="10.039" height="5.018"/>
	<rect x="27.032" y="7.315" width="15.637" height="3.383"/>
	<rect x="27.032" y="13.616" width="3.325" height="2.567"/>
	<rect x="33.188" y="13.616" width="3.326" height="2.567"/>
	<rect x="39.343" y="13.616" width="3.326" height="2.567"/>
	<rect x="27.032" y="18.983" width="3.325" height="2.568"/>
	<rect x="33.188" y="18.983" width="3.326" height="2.568"/>
	<rect x="39.343" y="18.983" width="3.326" height="2.568"/>
	<rect x="27.032" y="24.348" width="3.325" height="2.568"/>
	<rect x="33.188" y="24.348" width="3.326" height="2.568"/>
	<rect x="39.343" y="24.348" width="3.326" height="2.568"/>
	<rect x="3.706" y="30.678" width="40.069" height="2"/>
</g>
</svg>
