<?xml version="1.0" encoding="utf-8"?>
<!-- Generator: Adobe Illustrator 16.0.0, SVG Export Plug-In . SVG Version: 6.00 Build 0)  -->
<!DOCTYPE svg PUBLIC "-//W3C//DTD SVG 1.1//EN" "http://www.w3.org/Graphics/SVG/1.1/DTD/svg11.dtd">
<svg version="1.1" id="Layer_1" xmlns="http://www.w3.org/2000/svg" xmlns:xlink="http://www.w3.org/1999/xlink" x="0px" y="0px"
	 width="48px" height="48px" viewBox="0 0 48 48" enable-background="new 0 0 48 48" xml:space="preserve">
<g>
	<g>
		<path d="M26.32,48C14.96,48,5.46,38.18,4.691,25.644l1.996-0.123C7.392,37.005,16.016,46,26.32,46
			c10.851,0,19.679-9.869,19.679-22.001C45.999,11.869,37.171,2,26.32,2V0c11.954,0,21.679,10.766,21.679,23.999
			C47.999,37.233,38.274,48,26.32,48z"/>
		<g>
			<polygon points="1.001,31.089 2.062,31.95 5.873,26.129 10.816,30.779 11.662,29.663 5.641,23.999 			"/>
		</g>
	</g>
	<path d="M28.811,30.195c-7.47,0-13.546-6.077-13.546-13.546c0-7.469,6.077-13.546,13.546-13.546
		c7.469,0,13.545,6.077,13.545,13.546C42.355,24.119,36.279,30.195,28.811,30.195z M28.811,5.103
		c-6.367,0-11.546,5.18-11.546,11.546c0,6.367,5.18,11.546,11.546,11.546c6.366,0,11.545-5.18,11.545-11.546
		C40.355,10.283,35.177,5.103,28.811,5.103z"/>
	<g>
		<path d="M28.297,26.323v-1.922c-0.96-0.122-1.742-0.337-2.341-0.646c-0.603-0.311-1.123-0.809-1.561-1.501
			c-0.438-0.69-0.692-1.533-0.764-2.531l1.936-0.363c0.146,1.034,0.408,1.791,0.787,2.275c0.541,0.684,1.188,1.064,1.942,1.145
			v-6.12c-0.789-0.149-1.598-0.456-2.423-0.92c-0.612-0.34-1.084-0.815-1.414-1.418c-0.332-0.606-0.496-1.292-0.496-2.061
			c0-1.368,0.483-2.475,1.449-3.319c0.648-0.571,1.611-0.919,2.884-1.047V6.976h1.134v0.918c1.118,0.104,2.002,0.434,2.658,0.981
			c0.839,0.698,1.344,1.655,1.518,2.873l-1.987,0.296c-0.114-0.754-0.349-1.331-0.71-1.733c-0.357-0.403-0.852-0.667-1.479-0.797
			v5.542c0.969,0.243,1.606,0.433,1.922,0.566c0.6,0.266,1.086,0.584,1.461,0.961c0.379,0.378,0.668,0.825,0.871,1.346
			c0.205,0.521,0.305,1.083,0.305,1.689c0,1.329-0.424,2.441-1.271,3.33c-0.848,0.891-1.944,1.368-3.288,1.432v1.942L28.297,26.323
			L28.297,26.323z M28.297,9.495c-0.744,0.115-1.336,0.413-1.77,0.897c-0.428,0.484-0.646,1.057-0.646,1.719
			c0,0.654,0.187,1.203,0.552,1.644c0.365,0.44,0.987,0.796,1.862,1.057L28.297,9.495L28.297,9.495z M29.43,22.781
			c0.747-0.094,1.366-0.419,1.853-0.974c0.489-0.554,0.731-1.242,0.731-2.06c0-0.699-0.173-1.259-0.518-1.682
			c-0.346-0.424-1.035-0.803-2.066-1.139V22.781z"/>
	</g>
</g>
</svg>
