<?xml version="1.0" encoding="utf-8"?>
<!-- Generator: Adobe Illustrator 16.0.0, SVG Export Plug-In . SVG Version: 6.00 Build 0)  -->
<!DOCTYPE svg PUBLIC "-//W3C//DTD SVG 1.1//EN" "http://www.w3.org/Graphics/SVG/1.1/DTD/svg11.dtd">
<svg version="1.1" id="Layer_1" xmlns="http://www.w3.org/2000/svg" xmlns:xlink="http://www.w3.org/1999/xlink" x="0px" y="0px"
	 width="48px" height="48px" viewBox="0 0 48 48" enable-background="new 0 0 48 48" xml:space="preserve">
<g>
	<g>
		<path d="M26.686,17.919l-0.42-0.596c-0.336,0.165-0.634,0.265-0.896,0.296c-0.261,0.034-0.535-0.013-0.827-0.134
			c-0.294-0.122-0.56-0.33-0.801-0.624l0.541-0.522c0.273,0.288,0.523,0.467,0.75,0.537c0.324,0.098,0.615,0.078,0.874-0.058
			l-1.341-1.901c-0.289,0.123-0.613,0.2-0.98,0.231c-0.271,0.022-0.526-0.022-0.766-0.141c-0.24-0.116-0.442-0.294-0.612-0.535
			c-0.302-0.423-0.386-0.87-0.262-1.339c0.083-0.315,0.313-0.627,0.694-0.937l-0.202-0.286l0.365-0.24l0.201,0.284
			c0.382-0.205,0.739-0.291,1.07-0.26c0.421,0.038,0.793,0.228,1.113,0.57l-0.57,0.516c-0.2-0.21-0.404-0.338-0.608-0.387
			c-0.204-0.05-0.419-0.027-0.649,0.067l1.216,1.719c0.365-0.13,0.611-0.208,0.742-0.233c0.25-0.044,0.477-0.048,0.681-0.009
			c0.202,0.035,0.396,0.113,0.574,0.231c0.18,0.118,0.335,0.271,0.469,0.459c0.292,0.413,0.399,0.85,0.323,1.303
			c-0.076,0.457-0.323,0.838-0.741,1.145l0.427,0.603L26.686,17.919z M22.991,12.693c-0.213,0.195-0.335,0.412-0.367,0.655
			c-0.032,0.243,0.022,0.465,0.169,0.671c0.142,0.203,0.322,0.335,0.537,0.394c0.215,0.058,0.492,0.035,0.831-0.068L22.991,12.693z
			 M26.271,16.578c0.22-0.187,0.347-0.418,0.383-0.696c0.033-0.275-0.039-0.54-0.219-0.793c-0.152-0.217-0.332-0.356-0.537-0.414
			c-0.203-0.057-0.506-0.028-0.91,0.087L26.271,16.578z"/>
	</g>
	<g>
		<path d="M16.794,20.06c0.453,0.64,0.282,1.513-0.376,1.949c-0.661,0.439-1.563,0.276-2.016-0.364
			c-0.451-0.64-0.283-1.513,0.378-1.951C15.44,19.258,16.343,19.422,16.794,20.06z"/>
		<path d="M35.055,7.967c0.451,0.641,0.282,1.512-0.378,1.95c-0.661,0.437-1.563,0.274-2.017-0.366
			c-0.451-0.639-0.28-1.512,0.381-1.951C33.699,7.165,34.602,7.329,35.055,7.967z"/>
	</g>
	<path d="M25.027,20.479c-1.938,0-3.777-0.964-4.918-2.578c-0.93-1.315-1.285-2.881-0.999-4.409
		c0.269-1.431,1.079-2.658,2.281-3.454c0.893-0.592,1.943-0.905,3.037-0.905c1.938,0,3.775,0.963,4.917,2.577
		c0.931,1.317,1.285,2.883,0.998,4.411c-0.269,1.432-1.079,2.659-2.283,3.456C27.169,20.167,26.12,20.479,25.027,20.479z
		 M24.429,11.133c-0.699,0-1.368,0.198-1.932,0.572c-0.748,0.495-1.252,1.26-1.42,2.155c-0.186,0.991,0.051,2.016,0.666,2.886
		c0.767,1.085,1.996,1.732,3.285,1.732c0.699,0,1.366-0.197,1.93-0.57c0.749-0.496,1.253-1.261,1.421-2.156
		c0.187-0.992-0.05-2.017-0.665-2.888C26.945,11.781,25.718,11.133,24.429,11.133z"/>
	<polygon points="21.841,26.378 20.727,24.718 39.627,12.04 32.791,2.37 9.83,17.578 15.187,25.153 13.554,26.308 7.006,17.048 
		33.305,-0.37 42.443,12.56 	"/>
	<rect x="32.433" y="11.41" transform="matrix(0.5547 0.8321 -0.8321 0.5547 31.8741 -18.7267)" width="2" height="18.011"/>
	<rect x="6.51" y="21.804" transform="matrix(0.5771 0.8167 -0.8167 0.5771 22.7247 1.7247)" width="6.374" height="2"/>
	<rect x="33.895" y="15.739" transform="matrix(0.5488 0.8359 -0.8359 0.5488 34.1186 -19.2527)" width="2" height="12.485"/>
	<rect x="6.503" y="23.37" transform="matrix(0.5776 0.8163 -0.8163 0.5776 23.1771 3.9471)" width="2.543" height="2"/>
	<path d="M48,48H1.915v-6.42H0V30.829h1.915v-6.422H48V48z M3.915,46H46V26.407H3.915v6.422H2v6.751h1.915V46z"/>
	<path d="M14.183,38.855H2.652v-5.303h11.531V38.855z M4.652,36.855h7.531v-1.303H4.652V36.855z"/>
</g>
</svg>
