<?xml version="1.0" encoding="utf-8"?>
<!-- Generator: Adobe Illustrator 16.0.0, SVG Export Plug-In . SVG Version: 6.00 Build 0)  -->
<!DOCTYPE svg PUBLIC "-//W3C//DTD SVG 1.1//EN" "http://www.w3.org/Graphics/SVG/1.1/DTD/svg11.dtd">
<svg version="1.1" id="Layer_1" xmlns="http://www.w3.org/2000/svg" xmlns:xlink="http://www.w3.org/1999/xlink" x="0px" y="0px"
	 width="48px" height="48px" viewBox="0 0 48 48" enable-background="new 0 0 48 48" xml:space="preserve">
<g>
	<path d="M47,18.32H1c-0.381,0-0.73-0.217-0.898-0.56s-0.126-0.751,0.107-1.052L12.73,0.53c0.189-0.245,0.481-0.388,0.791-0.388
		h20.956c0.31,0,0.602,0.143,0.791,0.388l12.523,16.178c0.233,0.302,0.274,0.71,0.106,1.053C47.729,18.103,47.382,18.32,47,18.32z
		 M3.039,16.32h41.922L33.986,2.142H14.012L3.039,16.32z"/>
	<path d="M24.042,48h-0.086c-0.31,0-0.602-0.144-0.791-0.389L0.209,17.932c-0.233-0.302-0.275-0.71-0.107-1.052
		C0.271,16.537,0.619,16.32,1,16.32h46c0.382,0,0.729,0.217,0.897,0.56c0.168,0.342,0.127,0.75-0.106,1.052L24.833,47.612
		C24.644,47.856,24.352,48,24.042,48z M3.038,18.32l20.961,27.101L44.962,18.32H3.038z"/>
	<path d="M24.016,48h-0.033c-0.448,0-0.841-0.298-0.962-0.729l-8.388-29.68c-0.085-0.301-0.024-0.625,0.165-0.875
		c0.189-0.25,0.484-0.396,0.797-0.396h16.809c0.313,0,0.608,0.147,0.798,0.396c0.188,0.25,0.25,0.574,0.164,0.875l-8.388,29.68
		C24.856,47.702,24.464,48,24.016,48z M16.917,18.32L24,43.382l7.083-25.062H16.917z"/>
	<path d="M32.404,18.32H15.595c-0.349,0-0.672-0.182-0.854-0.479s-0.195-0.668-0.036-0.978l8.388-16.32
		c0.343-0.667,1.47-0.667,1.812,0l8.389,16.32c0.159,0.31,0.146,0.681-0.036,0.978S32.753,18.32,32.404,18.32z M17.233,16.32h13.532
		L24,3.155L17.233,16.32z"/>
</g>
</svg>
