<?xml version="1.0" encoding="utf-8"?>
<!-- Generator: Adobe Illustrator 16.0.0, SVG Export Plug-In . SVG Version: 6.00 Build 0)  -->
<!DOCTYPE svg PUBLIC "-//W3C//DTD SVG 1.1//EN" "http://www.w3.org/Graphics/SVG/1.1/DTD/svg11.dtd">
<svg version="1.1" id="Layer_1" xmlns="http://www.w3.org/2000/svg" xmlns:xlink="http://www.w3.org/1999/xlink" x="0px" y="0px"
	 width="48px" height="48px" viewBox="0 0 48 48" enable-background="new 0 0 48 48" xml:space="preserve">
<g>
	<path d="M47.914,15.164H0.2V9.192l24.545-9.265l23.169,9.28V15.164z M2.2,13.164h43.714v-2.604l-21.19-8.488L2.2,10.575V13.164z"/>
	<g>
		<path d="M12.894,40.639H5.01V19.552H3.482v-4.354h10.939v4.354h-1.527V40.639z M7.01,38.639h3.884V17.552h1.527v-0.354H5.482
			v0.354H7.01V38.639z"/>
		<path d="M27.998,40.639h-7.883V19.552h-1.528v-4.354h10.938v4.354h-1.527V40.639z M22.115,38.639h3.883V17.552h1.527v-0.354
			h-6.938v0.354h1.528V38.639z"/>
		<path d="M43.105,40.639h-7.885V19.552h-1.527v-4.354h10.939v4.354h-1.527V40.639z M37.221,38.639h3.885V17.552h1.527v-0.354
			h-6.939v0.354h1.527V38.639z"/>
	</g>
	<path d="M48,48H0v-4.712h2.237v-2.671h43.527v2.671H48V48z M2,46h44v-0.712h-2.236v-2.671H4.237v2.671H2V46z"/>
</g>
</svg>
