<?xml version="1.0" encoding="utf-8"?>
<!-- Generator: Adobe Illustrator 16.0.0, SVG Export Plug-In . SVG Version: 6.00 Build 0)  -->
<!DOCTYPE svg PUBLIC "-//W3C//DTD SVG 1.1//EN" "http://www.w3.org/Graphics/SVG/1.1/DTD/svg11.dtd">
<svg version="1.1" id="Layer_1" xmlns="http://www.w3.org/2000/svg" xmlns:xlink="http://www.w3.org/1999/xlink" x="0px" y="0px"
	 width="48px" height="48px" viewBox="0 0 48 48" enable-background="new 0 0 48 48" xml:space="preserve">
<g>
	<path d="M48,46.908H33.344V15.027H48V46.908z M35.344,44.908H46V17.027H35.344V44.908z"/>
	<path d="M31.328,46.908H16.672V22.533h14.656V46.908z M18.672,44.908h10.656V24.533H18.672V44.908z"/>
	<path d="M14.659,46.908H0V27.953h14.659V46.908z M2,44.908h10.659V29.953H2V44.908z"/>
	<g>
		<g>
			<rect x="20.14" y="-7.985" transform="matrix(0.3716 0.9284 -0.9284 0.3716 26.0088 -11.0121)" width="2" height="43.386"/>
			<g>
				<path d="M47,3.355c-2.291,2.076-4.949,5.117-6.297,7.75l-0.172-5.16l-3.436-3.853C39.889,3.068,43.91,3.435,47,3.355z"/>
			</g>
		</g>
	</g>
</g>
</svg>
