<?xml version="1.0" encoding="utf-8"?>
<!-- Generator: Adobe Illustrator 16.0.0, SVG Export Plug-In . SVG Version: 6.00 Build 0)  -->
<!DOCTYPE svg PUBLIC "-//W3C//DTD SVG 1.1//EN" "http://www.w3.org/Graphics/SVG/1.1/DTD/svg11.dtd">
<svg version="1.1" id="Layer_1" xmlns="http://www.w3.org/2000/svg" xmlns:xlink="http://www.w3.org/1999/xlink" x="0px" y="0px"
	 width="48px" height="48px" viewBox="0 0 48 48" enable-background="new 0 0 48 48" xml:space="preserve">
<g>
	<g>
		<path d="M44.92,48H3.081c-1.654,0-3-1.346-3-3V3c0-1.654,1.346-3,3-3H44.92c1.654,0,3,1.346,3,3v42
			C47.92,46.654,46.574,48,44.92,48z M3.081,2c-0.551,0-1,0.449-1,1v42c0,0.552,0.449,1,1,1H44.92c0.552,0,1-0.448,1-1V3
			c0-0.551-0.448-1-1-1H3.081z"/>
	</g>
	<path d="M24.001,23.029c-4.634,0-8.405-3.771-8.405-8.405c0-4.635,3.771-8.405,8.405-8.405c4.635,0,8.405,3.771,8.405,8.405
		C32.406,19.258,28.636,23.029,24.001,23.029z M24.001,8.219c-3.532,0-6.405,2.874-6.405,6.405s2.873,6.405,6.405,6.405
		c3.532,0,6.405-2.873,6.405-6.405S27.533,8.219,24.001,8.219z"/>
	<path d="M41.053,48c-0.553,0-1-0.447-1-1c0-9.798-7.2-17.77-16.05-17.77C15.151,29.23,7.95,37.202,7.95,47c0,0.553-0.448,1-1,1
		s-1-0.447-1-1c0-10.901,8.099-19.77,18.053-19.77c9.953,0,18.05,8.868,18.05,19.77C42.053,47.553,41.605,48,41.053,48z"/>
</g>
</svg>
