<?xml version="1.0" encoding="utf-8"?>
<!-- Generator: Adobe Illustrator 16.0.0, SVG Export Plug-In . SVG Version: 6.00 Build 0)  -->
<!DOCTYPE svg PUBLIC "-//W3C//DTD SVG 1.1//EN" "http://www.w3.org/Graphics/SVG/1.1/DTD/svg11.dtd">
<svg version="1.1" id="Layer_1" xmlns="http://www.w3.org/2000/svg" xmlns:xlink="http://www.w3.org/1999/xlink" x="0px" y="0px"
	 width="48px" height="48px" viewBox="0 0 48 48" enable-background="new 0 0 48 48" xml:space="preserve">
<g>
	<path d="M42.245,48L42.245,48c-1.76,0-3.513-0.738-4.809-2.024L17.518,24.911c-1.532,0.606-3.191,0.925-4.842,0.925
		c-3.465,0-6.722-1.341-9.17-3.774C2.539,21.1,1.732,19.99,1.108,18.764l-0.603-1.183l13.703-2.656L13.044,8.99L-0.31,11.578
		l0.335-1.492c0.539-2.397,1.743-4.577,3.481-6.303C5.963,1.343,9.227,0,12.698,0s6.735,1.343,9.19,3.783
		c3.675,3.648,4.786,9.163,2.873,13.93l21.175,19.755c1.318,1.311,2.063,3.054,2.063,4.806c0.001,1.572-0.587,3.023-1.655,4.086
		C45.275,47.418,43.82,48,42.245,48z M18.521,23.062l20.346,21.517C39.77,45.474,41.009,46,42.245,46c1.045,0,2-0.376,2.689-1.06
		c0.687-0.684,1.065-1.631,1.064-2.666c0-1.224-0.528-2.45-1.45-3.366L22.812,18.615l-0.43-0.492l0.277-0.591
		c1.946-4.148,1.069-9.104-2.18-12.331C18.401,3.137,15.638,2,12.698,2S6.995,3.137,4.916,5.202
		c-1.092,1.084-1.934,2.381-2.48,3.807l10.294-1.996c1.05-0.2,2.061,0.498,2.262,1.517l1.195,6.088c0.1,0.5-0.003,1.013-0.292,1.441
		c-0.289,0.43-0.728,0.72-1.235,0.817L3.577,19.023c0.393,0.583,0.841,1.125,1.339,1.62c2.071,2.059,4.827,3.193,7.76,3.193
		c1.605,0,3.22-0.355,4.669-1.026l0.693-0.321L18.521,23.062z"/>
	<path d="M41.395,44.634c-0.859,0-1.668-0.333-2.278-0.938c-0.609-0.604-0.945-1.409-0.945-2.266
		c-0.001-0.858,0.335-1.664,0.944-2.271c1.225-1.21,3.343-1.206,4.554,0.001c0.607,0.604,0.943,1.409,0.943,2.267
		c0,0.858-0.335,1.665-0.944,2.271C43.06,44.302,42.252,44.634,41.395,44.634z M41.394,40.223c-0.328,0-0.638,0.127-0.87,0.357
		c-0.227,0.226-0.353,0.528-0.353,0.849s0.126,0.621,0.354,0.848c0.463,0.459,1.271,0.461,1.734,0.003
		c0.228-0.227,0.354-0.529,0.354-0.851s-0.126-0.623-0.354-0.85C42.027,40.349,41.722,40.223,41.394,40.223z"/>
</g>
</svg>
