<?xml version="1.0" encoding="utf-8"?>
<!-- Generator: Adobe Illustrator 16.0.0, SVG Export Plug-In . SVG Version: 6.00 Build 0)  -->
<!DOCTYPE svg PUBLIC "-//W3C//DTD SVG 1.1//EN" "http://www.w3.org/Graphics/SVG/1.1/DTD/svg11.dtd">
<svg version="1.1" id="Layer_1" xmlns="http://www.w3.org/2000/svg" xmlns:xlink="http://www.w3.org/1999/xlink" x="0px" y="0px"
	 width="48px" height="48px" viewBox="0 0 48 48" enable-background="new 0 0 48 48" xml:space="preserve">
<g>
	<path d="M2.518,48.001c-0.402,0-0.77-0.156-1.066-0.453L0.453,46.55C0.148,46.245-0.008,45.864,0,45.45
		c0.018-0.742,0.561-1.336,0.752-1.52c2.68-3.221,1.855-5.178,1.818-5.262C2.439,38.38,2.496,38.024,2.723,37.8l23.387-23.387
		l1.086,1.085L4.135,38.56c0.23,1.014,0.326,3.334-2.234,6.391c-0.021,0.025-0.045,0.049-0.068,0.072
		c-0.145,0.135-0.295,0.369-0.295,0.459l0.076,0.055l0.926,0.926l0,0c0.076,0,0.324-0.168,0.439-0.293
		c0.023-0.025,0.047-0.049,0.072-0.07c3.055-2.561,5.375-2.465,6.391-2.234L32.5,20.805l1.086,1.086L10.201,45.278
		c-0.232,0.232-0.586,0.291-0.883,0.146c-0.07-0.031-2.027-0.857-5.248,1.824c-0.184,0.189-0.777,0.734-1.52,0.752
		C2.539,48.001,2.529,48.001,2.518,48.001z"/>
	<path d="M37.15,19.062l-1.086-1.086l9.318-9.318c1.441-1.441,1.441-3.788,0-5.229L44.57,2.615c-1.439-1.44-3.785-1.44-5.229,0
		l-9.318,9.319l-1.086-1.086l9.318-9.319c2.041-2.041,5.361-2.039,7.402,0l0.813,0.813c2.039,2.041,2.039,5.361,0,7.401
		L37.15,19.062z"/>
	<path d="M27.621,10.879l9.5,9.5l-1.748,1.748l-9.502-9.5L27.621,10.879 M27.621,9.269c-0.348,0-0.695,0.133-0.959,0.396
		l-2.004,2.003c-0.527,0.527-0.527,1.391,0,1.917l9.756,9.755c0.264,0.266,0.611,0.396,0.959,0.396s0.695-0.131,0.959-0.396
		l2.004-2.002c0.527-0.527,0.527-1.391,0-1.918L28.58,9.665C28.316,9.401,27.969,9.269,27.621,9.269L27.621,9.269z"/>
</g>
</svg>
