<?xml version="1.0" encoding="utf-8"?>
<!-- Generator: Adobe Illustrator 16.0.0, SVG Export Plug-In . SVG Version: 6.00 Build 0)  -->
<!DOCTYPE svg PUBLIC "-//W3C//DTD SVG 1.1//EN" "http://www.w3.org/Graphics/SVG/1.1/DTD/svg11.dtd">
<svg version="1.1" id="Layer_1" xmlns="http://www.w3.org/2000/svg" xmlns:xlink="http://www.w3.org/1999/xlink" x="0px" y="0px"
	 width="48px" height="48px" viewBox="0 0 48 48" enable-background="new 0 0 48 48" xml:space="preserve">
<g>
	<path d="M25.906,21.894c-0.074,0-0.15-0.013-0.223-0.035l-4.977-1.58c-0.234-0.074-0.416-0.262-0.484-0.498L14.832,0.938
		c-0.088-0.311,0.037-0.643,0.309-0.819c0.27-0.176,0.627-0.154,0.873,0.056c0.186,0.155,4.596,3.964,9.043,15.665
		c0.348,0.915,0.857,2.59,1.559,5.122c0.072,0.26-0.006,0.539-0.199,0.726C26.277,21.822,26.094,21.894,25.906,21.894z
		 M21.529,18.996l3.301,1.05c-0.498-1.75-0.885-2.987-1.148-3.685c-2.43-6.392-4.859-10.364-6.516-12.614L21.529,18.996z"/>
	<path d="M29.947,48L29.947,48c-2.348,0-4.5-1.791-5.232-4.357c-0.723-2.523,0.109-5.09,1.984-6.359l-1.969-6.881l-1.766-1.375
		c-0.125-0.096-0.213-0.229-0.256-0.377l-0.303-1.057c-0.072-0.258,0-0.537,0.191-0.727c0.191-0.188,0.471-0.258,0.729-0.18
		c1.547,0.465,2.805,0.828,3.092,0.91l0.014,0.004l0.539-0.182c0.266-0.088,0.563-0.018,0.76,0.188
		c0.197,0.201,0.26,0.5,0.164,0.766l-0.461,1.256l1.969,6.881c2.273,0.092,4.334,1.854,5.047,4.35
		c0.42,1.465,0.324,2.992-0.273,4.297c-0.613,1.346-1.68,2.295-2.998,2.672C30.777,47.943,30.363,48,29.947,48z M28.291,37.736
		c-0.035,0.232-0.18,0.443-0.402,0.553c-1.586,0.785-2.342,2.912-1.76,4.949c0.545,1.906,2.15,3.291,3.818,3.291l0,0
		c0.279,0,0.557-0.039,0.824-0.117c0.9-0.256,1.635-0.918,2.066-1.867c0.451-0.986,0.521-2.15,0.197-3.283
		c-0.586-2.045-2.318-3.439-4.111-3.27C28.676,38.018,28.441,37.916,28.291,37.736z M24.938,28.699l0.887,0.689
		c0.041,0.033,0.076,0.068,0.107,0.104c0.008-0.049,0.02-0.098,0.037-0.145l0.117-0.314l-0.023-0.008
		C25.893,28.977,25.49,28.861,24.938,28.699z"/>
	<path d="M41.795,34.662h-0.002c-0.666,0-1.332-0.104-1.98-0.309c-2.502-0.795-4.182-2.908-4.199-5.172l-6.822-2.166l-2.123,0.711
		c-0.141,0.049-0.293,0.051-0.436,0.01c-0.301-0.086-7.402-2.127-9.758-3.102c-11.57-4.781-15.248-9.296-15.4-9.487
		c-0.201-0.253-0.213-0.609-0.029-0.876s0.52-0.382,0.83-0.283l26.072,8.277c0.148,0.047,0.277,0.139,0.369,0.266l1.326,1.804
		l6.822,2.166c0.953-1.316,2.598-2.111,4.436-2.111c0.666,0,1.332,0.104,1.979,0.309c3.049,0.969,4.842,3.92,3.998,6.582
		C46.234,33.305,44.191,34.662,41.795,34.662z M36.873,28.107c0.174,0.156,0.268,0.393,0.236,0.639
		c-0.225,1.756,1.129,3.564,3.148,4.205c0.504,0.158,1.021,0.242,1.535,0.242h0.002c1.752,0,3.23-0.947,3.68-2.357
		c0.598-1.889-0.766-4.012-3.041-4.734c-0.504-0.158-1.02-0.24-1.533-0.24c-1.529,0-2.857,0.713-3.465,1.859
		C37.318,27.939,37.105,28.078,36.873,28.107z M25.24,25.916c0.529,0.154,0.943,0.275,1.178,0.344l2.133-0.715
		c0.049-0.016,0.1-0.027,0.148-0.033c-0.035-0.033-0.07-0.07-0.1-0.111l-1.326-1.805l-1.033-0.328
		c0.096,0.145,0.172,0.307,0.221,0.48c0.129,0.447,0.076,0.918-0.15,1.328c-0.229,0.408-0.6,0.705-1.051,0.832
		C25.254,25.912,25.248,25.912,25.24,25.916z M4.613,16.402c2.201,1.721,6.102,4.262,12.422,6.874
		c1.291,0.533,4.17,1.432,6.441,2.113c-0.172-0.191-0.303-0.422-0.377-0.68c-0.248-0.871,0.213-1.781,1.041-2.109L4.613,16.402z
		 M24.781,23.949c-0.025,0-0.051,0.004-0.076,0.012c-0.146,0.041-0.232,0.195-0.191,0.344c0.049,0.174,0.219,0.225,0.344,0.189
		c0.096-0.027,0.145-0.094,0.166-0.131c0.02-0.039,0.051-0.117,0.023-0.211C25.008,24.014,24.883,23.949,24.781,23.949z"/>
</g>
</svg>
