<?xml version="1.0" encoding="utf-8"?>
<!-- Generator: Adobe Illustrator 16.0.0, SVG Export Plug-In . SVG Version: 6.00 Build 0)  -->
<!DOCTYPE svg PUBLIC "-//W3C//DTD SVG 1.1//EN" "http://www.w3.org/Graphics/SVG/1.1/DTD/svg11.dtd">
<svg version="1.1" id="Layer_1" xmlns="http://www.w3.org/2000/svg" xmlns:xlink="http://www.w3.org/1999/xlink" x="0px" y="0px"
	 width="48px" height="48px" viewBox="0 0 48 48" enable-background="new 0 0 48 48" xml:space="preserve">
<g>
	<path d="M31.187,26.449l-0.965-1.092l5.26-4.646c0.055-0.064,0.953-1.084,0.238-1.886c-1.188-1.332-3.779-4.511-3.889-4.646
		l-0.457-0.562l9.932-8.189c0.693-0.572,1.086-1.231,1.139-1.908c0.039-0.525-0.135-1.063-0.467-1.436s-0.846-0.607-1.373-0.627
		c-0.674-0.034-1.379,0.289-2.025,0.912l-9.27,8.935l-0.504-0.519c-0.123-0.125-2.984-3.063-4.172-4.394
		c-0.74-0.828-1.904,0.026-1.953,0.063l-5.529,4.807l-0.955-1.099l5.572-4.84c0.828-0.622,2.658-1.351,3.951,0.1
		c0.871,0.976,2.727,2.9,3.623,3.826l8.225-7.928c1.186-1.143,2.336-1.349,3.092-1.32c0.928,0.036,1.805,0.442,2.404,1.113
		c0.6,0.673,0.902,1.59,0.832,2.517c-0.059,0.754-0.393,1.872-1.662,2.92l-8.816,7.268c0.818,0.996,2.52,3.06,3.389,4.037
		c1.295,1.449,0.361,3.185-0.313,3.899L31.187,26.449z M39.284,5.915c-0.426,0.001-0.816-0.15-1.09-0.458
		c-0.242-0.271-0.363-0.64-0.342-1.035c0.033-0.563,0.342-1.146,0.848-1.597c0.381-0.34,0.838-0.567,1.285-0.638
		c0.557-0.088,1.061,0.071,1.387,0.437c0.324,0.364,0.426,0.885,0.275,1.427c-0.121,0.437-0.396,0.864-0.779,1.205
		C40.378,5.692,39.804,5.915,39.284,5.915z M40.255,3.62c-0.117,0.009-0.344,0.075-0.586,0.292c-0.244,0.217-0.334,0.435-0.357,0.55
		c0.117-0.009,0.344-0.076,0.588-0.293C40.142,3.953,40.233,3.736,40.255,3.62z"/>
	<path d="M20.64,48c-0.51,0-1-0.115-1.459-0.342c-1.838-0.9-1.811-2.85-1.787-4.416c0.006-0.547,0.014-1.063-0.049-1.502
		c-0.23-1.602-0.82-3.475-1.4-4.398c-0.186,1.613-0.676,3.68-2.963,3.83c-0.096,0.006-0.189,0.008-0.279,0.008H12.7
		c-3.121,0-3.121-3.428-3.121-4.555c0-0.494,0.006-0.99,0.014-1.49c0.02-1.396,0.039-2.84-0.104-4.193
		c-0.109-1.043-0.275-2.244-0.836-3.281c-0.504-0.934-4.262-7.939-4.262-7.939l-0.297-0.553l12.32-9.162L31.546,26.09l-4.506,5.365
		c1.391,1.053,1.404,1.346,1.416,1.607l0.014,0.357l-0.287,0.268c-0.176,0.15-0.354,0.289-0.525,0.422
		c-0.76,0.596-1.098,0.889-1.1,1.57c-0.002,0.379,0.076,0.752,0.158,1.148c0.189,0.904,0.404,1.93-0.373,3.068
		c-0.488,0.721-1.145,1.117-1.842,1.117c-0.51,0-1.002-0.215-1.42-0.604c0.123,0.328,0.326,0.672,0.545,1.039
		c0.527,0.885,1.123,1.889,0.889,3.184C24.181,46.49,22.442,48,20.64,48z M14.687,35.281l0.686,0.031
		c2.461,0.111,3.322,5.596,3.414,6.221c0.078,0.551,0.07,1.15,0.063,1.73c-0.023,1.613,0.031,2.625,0.973,3.088
		c0.26,0.127,0.533,0.191,0.818,0.191c1.113,0,2.232-0.992,2.441-2.168c0.139-0.762-0.254-1.42-0.705-2.184
		c-0.5-0.838-1.064-1.787-0.824-2.951l0.09-0.428l0.42-0.123c0.223-0.064,0.48-0.078,0.656-0.078c0.184,0,0.451,0.014,0.678,0.084
		l0.258,0.08l0.145,0.23c0.416,0.658,0.9,0.723,1.344,0.072c0.406-0.598,0.326-1.105,0.148-1.951
		c-0.09-0.434-0.191-0.922-0.189-1.455c0.008-1.365,0.824-2.053,1.576-2.643c-0.313-0.26-0.746-0.588-1.117-0.852l-0.643-0.457
		l4.682-5.576L16.243,11.947L5.97,19.586c0.898,1.674,3.547,6.609,3.963,7.381c0.689,1.271,0.879,2.639,1.004,3.822
		c0.152,1.439,0.133,2.928,0.111,4.367c-0.006,0.49-0.014,0.982-0.014,1.469c0.002,2.727,0.732,3.168,1.852,3.094
		c1.197-0.078,1.486-1.055,1.68-3.217c0.016-0.186,0.031-0.365,0.051-0.537L14.687,35.281z"/>
</g>
</svg>
