<?xml version="1.0" encoding="utf-8"?>
<!-- Generator: Adobe Illustrator 16.0.0, SVG Export Plug-In . SVG Version: 6.00 Build 0)  -->
<!DOCTYPE svg PUBLIC "-//W3C//DTD SVG 1.1//EN" "http://www.w3.org/Graphics/SVG/1.1/DTD/svg11.dtd">
<svg version="1.1" id="Layer_1" xmlns="http://www.w3.org/2000/svg" xmlns:xlink="http://www.w3.org/1999/xlink" x="0px" y="0px"
	 width="48px" height="48px" viewBox="0 0 48 48" enable-background="new 0 0 48 48" xml:space="preserve">
<g>
	<path d="M46.498,7.339v33.322H1.502V7.339H46.498 M48,5.837H0v36.326h48V5.837L48,5.837z"/>
	<path d="M42.373,11.464v25.072H5.625V11.464H42.373 M43.875,9.962H4.125v28.076h39.75V9.962L43.875,9.962z"/>
	<path d="M5.426,29.729l-0.387-1.451c0.465-0.125,0.959-0.545,1.439-0.955c0.307-0.264,0.627-0.535,0.965-0.754
		c0.447-0.293,0.902-0.541,1.342-0.783c0.564-0.309,1.098-0.6,1.6-0.967l0.234-0.172c1.168-0.855,2.273-1.662,3.164-2.761
		c0.393-0.484,0.771-1.006,1.172-1.559c0.846-1.168,1.721-2.375,2.799-3.292c0.928-0.789,2.285-1.042,3.375-0.631
		c0.82,0.31,1.203,0.952,1.512,1.469c0.127,0.215,0.248,0.417,0.385,0.575c0.182,0.211,0.449,0.393,0.73,0.584
		c0.203,0.139,0.406,0.278,0.588,0.429c0.441,0.367,0.617,0.694,0.771,0.983c0.063,0.115,0.129,0.24,0.227,0.386
		c0.313,0.453,0.766,0.862,1.244,1.293c0.307,0.279,0.611,0.553,0.883,0.84c0.182,0.195,0.346,0.418,0.502,0.635
		c0.256,0.352,0.547,0.75,0.82,0.846c0.277,0.098,0.395,0.049,0.885-0.379c0.184-0.162,0.395-0.346,0.641-0.498
		c0.389-0.242,0.801-0.371,1.164-0.484c0.324-0.1,0.629-0.197,0.883-0.355c0.385-0.24,0.76-0.545,1.156-0.87
		c0.4-0.326,0.814-0.664,1.264-0.953c0.178-0.112,0.396-0.271,0.641-0.446c1.176-0.848,2.641-1.901,3.877-1.63
		c0.611,0.135,1.141,0.646,1.652,1.143c0.203,0.198,0.414,0.401,0.561,0.506l0.467,0.328c0.498,0.35,0.971,0.681,1.445,1.059
		l-0.936,1.175c-0.439-0.35-0.893-0.666-1.373-1.004L40.645,21.7c-0.24-0.172-0.482-0.404-0.736-0.651
		c-0.256-0.249-0.734-0.712-0.932-0.755c-0.58-0.137-1.996,0.892-2.676,1.383c-0.27,0.195-0.512,0.369-0.709,0.494
		c-0.377,0.24-0.74,0.537-1.123,0.852c-0.416,0.338-0.846,0.688-1.311,0.979c-0.416,0.26-0.848,0.396-1.229,0.514
		c-0.307,0.096-0.596,0.186-0.82,0.326c-0.143,0.09-0.289,0.219-0.445,0.354c-0.488,0.428-1.227,1.072-2.375,0.666
		c-0.711-0.25-1.164-0.875-1.531-1.377c-0.129-0.178-0.252-0.352-0.383-0.488c-0.244-0.26-0.518-0.506-0.795-0.754
		c-0.523-0.473-1.064-0.961-1.477-1.563c-0.135-0.196-0.227-0.367-0.311-0.523c-0.127-0.239-0.191-0.358-0.41-0.538
		c-0.145-0.121-0.309-0.23-0.473-0.342c-0.332-0.228-0.709-0.484-1.02-0.844c-0.225-0.258-0.393-0.54-0.541-0.789
		c-0.27-0.451-0.438-0.714-0.75-0.832c-0.576-0.219-1.365-0.063-1.873,0.369c-0.941,0.801-1.762,1.934-2.557,3.029
		c-0.395,0.544-0.803,1.108-1.221,1.624c-1.014,1.25-2.195,2.111-3.443,3.027l-0.232,0.17c-0.582,0.424-1.186,0.754-1.768,1.074
		c-0.434,0.238-0.844,0.463-1.244,0.723c-0.256,0.166-0.525,0.396-0.809,0.639C6.873,28.96,6.219,29.519,5.426,29.729z"/>
	<path d="M32.625,23.235c-0.357-1.555-1.723-2.641-3.32-2.641c-1.371,0-2.604,0.816-3.139,2.08l-1.383-0.586
		c0.771-1.819,2.547-2.996,4.521-2.996c2.303,0,4.27,1.564,4.783,3.805L32.625,23.235z"/>
</g>
</svg>
