<?xml version="1.0" encoding="utf-8"?>
<!-- Generator: Adobe Illustrator 16.0.0, SVG Export Plug-In . SVG Version: 6.00 Build 0)  -->
<!DOCTYPE svg PUBLIC "-//W3C//DTD SVG 1.1//EN" "http://www.w3.org/Graphics/SVG/1.1/DTD/svg11.dtd">
<svg version="1.1" id="Layer_1" xmlns="http://www.w3.org/2000/svg" xmlns:xlink="http://www.w3.org/1999/xlink" x="0px" y="0px"
	 width="48px" height="48px" viewBox="0 0 48 48" enable-background="new 0 0 48 48" xml:space="preserve">
<g>
	<path d="M6.465,20.13c0.606,0,1.174,0.233,1.598,0.658l18.446,18.446c0.881,0.881,0.881,2.314,0,3.195l-2,1.998
		c-0.422,0.424-0.99,0.656-1.597,0.656s-1.174-0.232-1.598-0.656L2.868,25.98c-0.88-0.881-0.88-2.313,0-3.195l1.999-1.997
		C5.291,20.363,5.858,20.13,6.465,20.13 M6.465,18.624c-0.965,0-1.932,0.366-2.663,1.098l-1.999,2c-1.464,1.462-1.464,3.858,0,5.325
		l18.446,18.445c0.733,0.732,1.698,1.1,2.663,1.1c0.966,0,1.931-0.367,2.663-1.1l1.998-1.998c1.465-1.463,1.465-3.861,0-5.326
		L9.128,19.722C8.395,18.99,7.43,18.624,6.465,18.624L6.465,18.624z"/>
	<polygon points="29.015,48 26.042,45.025 27.106,43.961 29.015,45.869 34.954,39.932 20.627,25.604 30.153,16.077 31.218,17.143 
		22.758,25.604 37.085,39.932 	"/>
	<path d="M45.669,1.507L45.669,1.507c0.051,0,0.09,0.002,0.121,0.006c0.146,0.88-1.25,4.51-5.824,9.084
		c-3.783,3.783-7.445,5.824-8.971,5.824c-0.051,0-0.092-0.003-0.123-0.007c-0.145-0.88,1.254-4.51,5.826-9.084
		C40.481,3.548,44.144,1.507,45.669,1.507 M45.669,0c-2.186,0-6.213,2.444-10.035,6.265c-4.719,4.72-7.338,9.754-5.848,11.243
		c0.283,0.284,0.697,0.419,1.209,0.419c2.188,0,6.215-2.443,10.035-6.265c4.721-4.719,7.338-9.752,5.846-11.243
		C46.593,0.136,46.183-0.001,45.669,0L45.669,0z"/>
</g>
</svg>
