<?xml version="1.0" encoding="utf-8"?>
<!-- Generator: Adobe Illustrator 16.0.0, SVG Export Plug-In . SVG Version: 6.00 Build 0)  -->
<!DOCTYPE svg PUBLIC "-//W3C//DTD SVG 1.1//EN" "http://www.w3.org/Graphics/SVG/1.1/DTD/svg11.dtd">
<svg version="1.1" id="Layer_1" xmlns="http://www.w3.org/2000/svg" xmlns:xlink="http://www.w3.org/1999/xlink" x="0px" y="0px"
	 width="48px" height="48px" viewBox="0 0 48 48" enable-background="new 0 0 48 48" xml:space="preserve">
<g>
	<path d="M12.931,37.261c-0.23,0-0.455-0.111-0.596-0.311L0.132,19.577c-0.137-0.193-0.17-0.441-0.09-0.663
		c0.078-0.223,0.262-0.393,0.488-0.456l27.196-7.599c0.041-0.011,0.439-0.12,1.023-0.12c0.512,0,1.012,0.081,1.488,0.242
		c1.18,0.4,2.352,1.372,2.4,1.413l14.334,11.962c0.309,0.256,0.35,0.715,0.092,1.023c-0.256,0.309-0.713,0.352-1.023,0.096l0,0
		c-0.004,0-0.268-0.166-0.91-0.289c-0.393-0.074-1.039-0.002-1.215,0.029L13.197,37.21C13.111,37.245,13.021,37.261,12.931,37.261z
		 M1.916,19.583l11.283,16.063l30.249-11.809c0.035-0.014,0.074-0.025,0.111-0.033c0.012-0.004,0.168-0.035,0.4-0.064L31.707,13.513
		c-0.01-0.009-1.016-0.84-1.938-1.151c-0.324-0.11-0.666-0.166-1.02-0.166c-0.379,0-0.633,0.066-0.635,0.067L1.916,19.583z"/>
	<g>
		<rect x="13.236" y="33.117" transform="matrix(0.3458 0.9383 -0.9383 0.3458 40.141 9.0222)" width="0.729" height="0.363"/>
		<path d="M14.58,33.325l-0.254-0.684l0.682-0.252l0.254,0.684L14.58,33.325z M15.943,32.819l-0.254-0.682l0.682-0.252l0.254,0.682
			L15.943,32.819z M17.306,32.315l-0.254-0.682l0.684-0.252l0.252,0.682L17.306,32.315z M18.669,31.812l-0.254-0.682l0.682-0.254
			l0.254,0.684L18.669,31.812z M20.033,31.308l-0.254-0.684l0.682-0.25l0.254,0.682L20.033,31.308z M21.396,30.802l-0.252-0.68
			l0.682-0.254l0.252,0.682L21.396,30.802z M22.759,30.298l-0.252-0.682l0.682-0.254l0.252,0.684L22.759,30.298z M24.125,29.794
			l-0.254-0.682l0.682-0.254l0.254,0.684L24.125,29.794z M25.486,29.29l-0.252-0.684l0.682-0.252l0.252,0.684L25.486,29.29z
			 M26.85,28.784l-0.252-0.682l0.682-0.252l0.254,0.682L26.85,28.784z M28.215,28.28l-0.254-0.682l0.682-0.252l0.254,0.682
			L28.215,28.28z M29.578,27.776l-0.254-0.684l0.682-0.25l0.254,0.682L29.578,27.776z M30.941,27.272l-0.254-0.684l0.682-0.252
			l0.254,0.684L30.941,27.272z M32.305,26.769l-0.254-0.684l0.682-0.252l0.254,0.682L32.305,26.769z M33.668,26.263l-0.254-0.682
			l0.682-0.252l0.254,0.682L33.668,26.263z M35.031,25.759l-0.252-0.684l0.682-0.25l0.252,0.682L35.031,25.759z M36.395,25.255
			l-0.252-0.684l0.682-0.252l0.252,0.684L36.395,25.255z M37.758,24.751l-0.252-0.684l0.682-0.252l0.254,0.682L37.758,24.751z"/>
		<rect x="38.802" y="23.659" transform="matrix(0.3482 0.9374 -0.9374 0.3482 47.8795 -21.1757)" width="0.729" height="0.365"/>
	</g>
	<g>
		<rect x="9.678" y="29.343" transform="matrix(0.3323 0.9432 -0.9432 0.3323 34.5538 10.2434)" width="0.729" height="0.364"/>
		<path d="M11.033,29.562l-0.242-0.686l0.699-0.246l0.242,0.686L11.033,29.562z M12.429,29.071l-0.24-0.688l0.697-0.244l0.242,0.686
			L12.429,29.071z M13.828,28.581l-0.242-0.688l0.699-0.246l0.24,0.688L13.828,28.581z M15.224,28.089l-0.242-0.688l0.699-0.246
			l0.242,0.688L15.224,28.089z M16.621,27.599l-0.24-0.688l0.699-0.246l0.24,0.688L16.621,27.599z M18.019,27.106l-0.242-0.688
			l0.699-0.246l0.242,0.688L18.019,27.106z M19.416,26.614l-0.24-0.686l0.697-0.246l0.242,0.688L19.416,26.614z M20.814,26.124
			l-0.242-0.688l0.699-0.244l0.24,0.686L20.814,26.124z M22.21,25.632l-0.24-0.686l0.697-0.246l0.242,0.688L22.21,25.632z
			 M23.609,25.142l-0.242-0.686l0.699-0.246l0.24,0.686L23.609,25.142z M25.006,24.651l-0.242-0.688l0.699-0.246l0.242,0.688
			L25.006,24.651z M26.404,24.159l-0.242-0.686l0.697-0.246l0.242,0.688L26.404,24.159z M27.801,23.669l-0.242-0.688l0.699-0.246
			l0.242,0.688L27.801,23.669z M29.197,23.177l-0.242-0.686l0.699-0.246l0.242,0.688L29.197,23.177z M30.596,22.687l-0.242-0.688
			l0.697-0.246l0.242,0.688L30.596,22.687z M31.992,22.194l-0.242-0.688l0.699-0.244l0.242,0.686L31.992,22.194z M33.389,21.703
			l-0.24-0.687l0.697-0.245l0.242,0.687L33.389,21.703z"/>
		<rect x="34.474" y="20.626" transform="matrix(0.3327 0.943 -0.943 0.3327 42.8709 -18.9678)" width="0.728" height="0.364"/>
	</g>
	<g>
		<rect x="6.985" y="25.247" transform="matrix(0.3138 0.9495 -0.9495 0.3138 29.188 10.4716)" width="0.728" height="0.364"/>
		<path d="M8.308,25.497L8.08,24.804l0.67-0.223l0.229,0.691L8.308,25.497z M9.65,25.05l-0.229-0.691l0.67-0.221l0.23,0.689
			L9.65,25.05z M10.992,24.604l-0.229-0.689l0.672-0.223l0.229,0.691L10.992,24.604z M12.335,24.161l-0.229-0.691l0.67-0.223
			l0.229,0.691L12.335,24.161z M13.677,23.716l-0.229-0.691l0.672-0.223l0.229,0.691L13.677,23.716z M15.019,23.271l-0.229-0.691
			l0.672-0.223l0.229,0.691L15.019,23.271z M16.363,22.825l-0.23-0.691l0.672-0.221l0.23,0.689L16.363,22.825z M17.705,22.38
			l-0.229-0.69l0.672-0.223l0.229,0.69L17.705,22.38z M19.046,21.937l-0.229-0.692l0.672-0.223l0.229,0.691L19.046,21.937z
			 M20.39,21.491L20.162,20.8l0.67-0.224l0.229,0.691L20.39,21.491z M21.732,21.046l-0.229-0.692l0.67-0.222l0.23,0.69
			L21.732,21.046z M23.076,20.601l-0.23-0.691l0.672-0.222l0.229,0.69L23.076,20.601z M24.417,20.155l-0.229-0.69l0.67-0.223
			l0.229,0.691L24.417,20.155z M25.76,19.711l-0.229-0.691l0.672-0.223l0.229,0.691L25.76,19.711z M27.102,19.267l-0.229-0.692
			l0.672-0.223l0.229,0.691L27.102,19.267z M28.445,18.82l-0.229-0.69l0.67-0.223l0.23,0.691L28.445,18.82z M29.787,18.376
			l-0.229-0.69l0.672-0.223l0.229,0.69L29.787,18.376z"/>
		<rect x="30.824" y="17.346" transform="matrix(0.3142 0.9494 -0.9494 0.3142 38.0285 -17.5872)" width="0.727" height="0.364"/>
	</g>
	<g>
		<rect x="4.334" y="20.821" transform="matrix(0.3057 0.9521 -0.9521 0.3057 23.2576 10.1078)" width="0.728" height="0.363"/>
		<path d="M5.664,21.074L5.441,20.38l0.68-0.216l0.223,0.691L5.664,21.074z M7.023,20.638L6.8,19.944l0.68-0.218l0.223,0.692
			L7.023,20.638z M8.382,20.201L8.16,19.509l0.68-0.219l0.223,0.693L8.382,20.201z M9.742,19.767l-0.223-0.694l0.68-0.219
			l0.223,0.693L9.742,19.767z M11.101,19.33l-0.223-0.694l0.68-0.218l0.223,0.692L11.101,19.33z M12.46,18.893L12.238,18.2
			l0.682-0.219l0.221,0.693L12.46,18.893z M13.822,18.456l-0.225-0.692l0.68-0.219l0.225,0.694L13.822,18.456z M15.179,18.02
			l-0.221-0.692l0.68-0.218l0.221,0.693L15.179,18.02z M16.539,17.584l-0.221-0.692l0.68-0.218l0.221,0.692L16.539,17.584z
			 M17.9,17.148l-0.223-0.693l0.68-0.218l0.223,0.692L17.9,17.148z M19.259,16.712l-0.223-0.693l0.68-0.218l0.223,0.693
			L19.259,16.712z M20.619,16.276l-0.223-0.693l0.68-0.219l0.223,0.693L20.619,16.276z M21.978,15.84l-0.223-0.693l0.68-0.218
			l0.223,0.694L21.978,15.84z M23.337,15.403l-0.223-0.693l0.68-0.218l0.223,0.693L23.337,15.403z M24.697,14.967l-0.223-0.693
			l0.68-0.218l0.223,0.693L24.697,14.967z M26.057,14.53l-0.223-0.692l0.682-0.217l0.221,0.692L26.057,14.53z"/>
		<rect x="27.114" y="13.511" transform="matrix(0.3054 0.9522 -0.9522 0.3054 32.127 -16.6541)" width="0.729" height="0.365"/>
	</g>
	<path d="M16.371,32.636l-2.746-14.773l5.348-1.983l13.362,10.839l-4.783,1.775l-3.223-2.66l-4.199,1.559l0.789,3.563L16.371,32.636
		z M14.453,18.331l2.477,13.322l3.141-1.162l-0.789-3.563l5.188-1.924l3.223,2.66l3.193-1.186l-12.049-9.774L14.453,18.331z
		 M18.683,25.386l-0.734-3.357c-0.102-0.475-0.264-1.031-0.418-1.568c-0.105-0.364-0.209-0.723-0.293-1.048l-0.08-0.311l0.508-0.204
		l0.217,0.135l0.33,0.301c0.623,0.571,1.33,1.219,1.955,1.732l3.121,2.613L18.683,25.386z M18.261,20.363
		c0.148,0.517,0.299,1.044,0.398,1.511l0.557,2.539l2.643-0.98l-2.158-1.807C19.242,21.246,18.742,20.8,18.261,20.363z"/>
	<path d="M42.469,30.337c-0.959,0-1.76-0.229-2.285-0.668c-0.42-0.352-0.65-0.834-0.648-1.357c0-0.063,0.008-0.123,0.021-0.182
		c0.025-0.092,0.506-1.83,2.855-2.471l-0.143-0.078l0.699-1.277l0.912,0.5l-0.178-1.006c1.404-0.252,2.676,0.014,3.486,0.725
		c0.555,0.488,0.842,1.158,0.809,1.887c-0.082,1.725-1.961,3.398-4.275,3.811C43.283,30.298,42.861,30.337,42.469,30.337z
		 M41.004,28.401c0.018,0.047,0.049,0.096,0.117,0.152c0.295,0.248,1.086,0.459,2.346,0.234c1.76-0.314,3.033-1.543,3.076-2.447
		c0.014-0.289-0.09-0.525-0.314-0.725c-0.363-0.318-0.988-0.479-1.684-0.449l0.66,0.361c0.299,0.164,0.443,0.512,0.35,0.838
		c-0.092,0.328-0.404,0.547-0.74,0.527C41.965,26.731,41.176,28.017,41.004,28.401z"/>
	<rect x="37.939" y="27.057" transform="matrix(0.6329 0.7742 -0.7742 0.6329 36.0284 -20.4207)" width="3.222" height="1.456"/>
</g>
</svg>
