<?xml version="1.0" encoding="utf-8"?>
<!-- Generator: Adobe Illustrator 16.0.0, SVG Export Plug-In . SVG Version: 6.00 Build 0)  -->
<!DOCTYPE svg PUBLIC "-//W3C//DTD SVG 1.1//EN" "http://www.w3.org/Graphics/SVG/1.1/DTD/svg11.dtd">
<svg version="1.1" id="Layer_1" xmlns="http://www.w3.org/2000/svg" xmlns:xlink="http://www.w3.org/1999/xlink" x="0px" y="0px"
	 width="48px" height="48px" viewBox="0 0 48 48" enable-background="new 0 0 48 48" xml:space="preserve">
<g>
	<path d="M38.026,29.867c4.816,4.35,5.863,13.156,6.09,16.654H18.547c0.227-3.5,1.274-12.307,6.089-16.654H38.026 M38.573,28.389
		H24.087C17.014,34.182,17.006,48,17.006,48h28.651C45.657,48,45.649,34.182,38.573,28.389L38.573,28.389z"/>
	<path d="M35.573,22.624l0.719,2.576H26.37l0.719-2.576H35.573 M36.696,21.146h-10.73l-1.541,5.532h13.814L36.696,21.146
		L36.696,21.146z"/>
	<g>
		<path d="M3.854,44.615c-0.197,0-0.391-0.012-0.576-0.021L3.05,44.582c-0.198-0.008-0.385-0.096-0.518-0.242
			c-0.133-0.148-0.201-0.342-0.188-0.541c0.035-0.604,0.73-2.002,2.973-5.988c0.399-0.713,0.715-1.27,0.822-1.49
			c0.033-0.064,0.074-0.127,0.125-0.18c0.383-0.408,0.25-1.73,0.154-2.693c-0.08-0.809-0.156-1.572-0.04-2.176l0.073-0.365
			c0.126-0.615,0.494-2.416,0.234-2.988c-0.025-0.023-0.05-0.049-0.074-0.074c-1.197-1.332-0.298-6.508-0.054-7.114
			c0.285-0.714,0.64-1.412,0.982-2.088c0.809-1.595,1.571-3.101,1.491-4.77c-0.015-0.302,0.157-0.584,0.434-0.709
			c0.275-0.124,0.601-0.068,0.818,0.143c0.502,0.484,0.818,1.032,1.018,1.61c0.43-1.472,0.992-2.7,1.676-3.66
			c0.512-0.717,1.139-1.179,1.746-1.625c0.42-0.309,0.818-0.601,1.139-0.957c0.339-0.375,0.48-0.845,0.646-1.388
			c0.118-0.393,0.241-0.797,0.448-1.207c0.104-0.205,0.295-0.35,0.52-0.394s0.457,0.02,0.629,0.173
			c0.087,0.075,0.164,0.16,0.232,0.25c1.244-2.327,4.283-3.513,6.097-4.221c3.134-1.221,5.779-1.79,8.708-1.863
			c0.252-0.032,0.504-0.033,0.754-0.002c0.387,0.049,0.67,0.391,0.645,0.78c-0.023,0.39-0.348,0.692-0.736,0.692
			c-0.188,0-0.371,0.002-0.557,0.006c-1.748,0.293-3.826,3.228-4.584,4.989c-0.205,0.477-0.396,0.956-0.584,1.434
			c-0.645,1.626-1.305,3.293-2.525,4.687c0.492,0.123,0.906,0.388,1.039,0.914c0.078,0.307-0.049,0.63-0.316,0.802
			c-0.83,0.534-1.273,1.598-1.701,2.622c-0.097,0.234-0.195,0.464-0.292,0.687c-0.336,0.749-0.729,1.385-1.267,2.021
			c0.129,0.098,0.235,0.227,0.309,0.396c0.314,0.739-0.391,1.423-0.729,1.752c-0.652,0.635-1.314,0.895-1.957,1.135
			c0.132,0.008,0.26,0.02,0.385,0.039c0.318,0.047,0.57,0.297,0.621,0.617c0.137,0.875-0.528,1.728-1.014,2.351
			c-0.102,0.129-0.194,0.248-0.264,0.352c-0.93,1.352-1.542,2.082-3.135,2.918c-1.927,1.01-3.637,1.996-5.051,3.803
			c-1.665,2.129-2.808,3.922-3.596,5.643c-0.154,0.338-0.311,0.744-0.48,1.182c-0.654,1.695-1.469,3.805-3.025,4.541
			C4.687,44.568,4.263,44.615,3.854,44.615z M7.42,37.063c-0.145,0.277-0.432,0.791-0.815,1.473c-0.619,1.1-1.879,3.34-2.472,4.588
			c0.122-0.014,0.23-0.035,0.314-0.076c1.023-0.484,1.75-2.365,2.279-3.738c0.182-0.469,0.35-0.904,0.515-1.262
			c0.837-1.83,2.037-3.717,3.776-5.939c1.594-2.039,3.446-3.109,5.527-4.203c1.254-0.658,1.704-1.137,2.604-2.445
			c0.083-0.121,0.194-0.266,0.316-0.422c0.1-0.129,0.279-0.361,0.436-0.593c-0.418,0.056-0.848,0.173-1.198,0.339
			c-0.209,0.1-0.454,0.316-0.713,0.545c-0.548,0.484-1.225,1.08-2.157,1.035c-0.257-0.014-0.488-0.162-0.611-0.389
			c-0.121-0.227-0.116-0.502,0.014-0.725c0.82-1.392,2.025-2.41,3.909-3.297c0.319-0.151,0.624-0.266,0.918-0.377
			c0.548-0.205,0.988-0.37,1.409-0.745c-0.258-0.034-0.482-0.202-0.584-0.448c-0.119-0.284-0.049-0.611,0.175-0.822
			c0.922-0.87,1.446-1.579,1.871-2.529c0.095-0.211,0.186-0.43,0.278-0.65c0.33-0.791,0.689-1.653,1.257-2.371
			c-0.236,0.015-0.498,0.047-0.746,0.101c-0.346,0.076-0.697-0.104-0.836-0.431c-0.141-0.325-0.029-0.704,0.264-0.903
			c1.937-1.313,2.722-3.297,3.554-5.397c0.193-0.491,0.389-0.984,0.602-1.475c0.477-1.107,1.494-2.813,2.779-4.105
			c-1.641,0.277-3.287,0.756-5.115,1.467c-2.755,1.075-5.696,2.441-5.713,5.063c-0.003,0.325-0.218,0.613-0.53,0.704
			c-0.314,0.091-0.649-0.032-0.828-0.306c-0.073-0.112-0.137-0.23-0.192-0.351c-0.16,0.435-0.379,0.881-0.747,1.287
			c-0.422,0.468-0.899,0.819-1.361,1.158c-0.537,0.395-1.043,0.768-1.416,1.291c-0.678,0.949-1.244,2.293-1.641,3.886
			c-0.076,0.307-0.119,0.647-0.164,1.009c-0.111,0.868-0.235,1.854-0.891,2.631c-0.195,0.232-0.516,0.32-0.803,0.224
			c-0.287-0.098-0.486-0.361-0.502-0.664c-0.018-0.39-0.018-0.792-0.017-1.192c0.001-0.532,0.002-1.053-0.046-1.541
			c-0.32,0.991-0.795,1.926-1.261,2.845c-0.343,0.678-0.667,1.316-0.929,1.97c-0.332,0.841-0.719,4.965-0.219,5.574
			c-0.043-0.053-0.168-0.092-0.236-0.072l0.092,0.324l0.232-0.184c0.715,0.912,0.441,2.613,0.102,4.279l-0.07,0.35
			c-0.076,0.393-0.007,1.082,0.06,1.75C8.023,34.641,8.174,36.154,7.42,37.063z"/>
		<path d="M7.643,36.719l-1.372-0.553c0.071-0.174,7.125-17.519,16.109-28.142l1.129,0.953C14.676,19.424,7.711,36.549,7.643,36.719
			z"/>
	</g>
</g>
</svg>
