<?xml version="1.0" encoding="utf-8"?>
<!-- Generator: Adobe Illustrator 16.0.0, SVG Export Plug-In . SVG Version: 6.00 Build 0)  -->
<!DOCTYPE svg PUBLIC "-//W3C//DTD SVG 1.1//EN" "http://www.w3.org/Graphics/SVG/1.1/DTD/svg11.dtd">
<svg version="1.1" id="Layer_1" xmlns="http://www.w3.org/2000/svg" xmlns:xlink="http://www.w3.org/1999/xlink" x="0px" y="0px"
	 width="48px" height="48px" viewBox="0 0 48 48" enable-background="new 0 0 48 48" xml:space="preserve">
<g>
	<g>
		<path d="M46.999,43.807c-0.43,0-0.819-0.277-0.952-0.698c-3.313-10.473-11.492-13.143-16.072-13.802
			c-2.078-0.3-5.647-0.451-10.608-0.451c-8.505,0-18.222,0.455-18.319,0.46c-0.273,0.024-0.54-0.087-0.738-0.275
			C0.112,28.852,0,28.59,0,28.316v-9.561c0-0.273,0.112-0.535,0.31-0.724c0.198-0.188,0.463-0.278,0.738-0.275
			c0.097,0.005,9.814,0.459,18.319,0.459c4.961,0,8.53-0.151,10.608-0.45c4.58-0.661,12.759-3.332,16.072-13.802
			c0.148-0.47,0.625-0.761,1.105-0.687C47.641,3.353,48,3.773,48,4.266v38.541c0,0.493-0.359,0.913-0.848,0.988
			C47.102,43.803,47.05,43.807,46.999,43.807z M19.366,26.855c5.057,0,8.722,0.158,10.894,0.471
			C34.553,27.945,41.716,30.165,46,37.91V9.162c-4.284,7.744-11.447,9.965-15.74,10.584c-2.172,0.313-5.837,0.471-10.894,0.471
			c-6.911,0-14.613-0.298-17.366-0.416v7.471C4.753,27.154,12.456,26.855,19.366,26.855z"/>
		<g>
			<path d="M29.445,44.732H5.527c-1.654,0-3-1.346-3-3V30.329c0-1.654,1.346-3,3-3h23.918c1.654,0,3,1.346,3,3v11.403
				C32.445,43.387,31.1,44.732,29.445,44.732z M5.527,29.329c-0.551,0-1,0.448-1,1v11.403c0,0.552,0.449,1,1,1h23.918
				c0.552,0,1-0.448,1-1V30.329c0-0.552-0.448-1-1-1H5.527z"/>
		</g>
		<g>
			<path d="M13.833,38.1c-0.552,0-1-0.447-1-1v-8.106c0-0.553,0.448-1,1-1s1,0.447,1,1V37.1C14.833,37.652,14.385,38.1,13.833,38.1z
				"/>
			<path d="M21.141,38.1c-0.552,0-1-0.447-1-1v-8.106c0-0.553,0.448-1,1-1s1,0.447,1,1V37.1C22.141,37.652,21.693,38.1,21.141,38.1z
				"/>
		</g>
	</g>
</g>
</svg>
