<?xml version="1.0" encoding="utf-8"?>
<!-- Generator: Adobe Illustrator 16.0.0, SVG Export Plug-In . SVG Version: 6.00 Build 0)  -->
<!DOCTYPE svg PUBLIC "-//W3C//DTD SVG 1.1//EN" "http://www.w3.org/Graphics/SVG/1.1/DTD/svg11.dtd">
<svg version="1.1" id="Layer_1" xmlns="http://www.w3.org/2000/svg" xmlns:xlink="http://www.w3.org/1999/xlink" x="0px" y="0px"
	 width="48px" height="48px" viewBox="0 0 48 48" enable-background="new 0 0 48 48" xml:space="preserve">
<g>
	<path stroke="#231F20" stroke-width="2" stroke-miterlimit="10" d="M34.793,12.205"/>
	<path d="M41.252,14.444l-4.789-1.718l0.986-2.76l4.789,1.718L41.252,14.444z M38.314,11.851l2.061,0.74l0.012-0.031l-2.063-0.739
		L38.314,11.851z"/>
	<path d="M41.664,12.602l-4.461-1.599l0.137-0.768c0.033-0.183,0.066-0.361,0.088-0.531l0.063-0.48
		c0.09-0.724,0.193-1.544,0.471-2.34c0.295-0.85,0.75-1.839,1.076-2.48c0.521-1.017,1.209-1.916,1.695-2.492
		c0.287-0.341,0.559-0.603,0.91-0.876c0.113-0.088,0.227-0.171,0.34-0.254c0.109-0.079,0.221-0.159,0.33-0.247l0.076-0.065
		c0.158-0.141,0.377-0.332,0.695-0.362L44.262,0L43.77,1.226c-0.096,0.239-0.172,0.426-0.197,0.604
		c-0.047,0.342-0.053,0.687-0.014,0.973c0.074,0.593,0.287,1.132,0.535,1.724c0.418,1,0.377,2.607-0.1,3.916
		c-0.264,0.713-0.598,1.418-0.945,1.982c-0.088,0.145-0.188,0.321-0.293,0.51c-0.232,0.415-0.496,0.886-0.77,1.245L41.664,12.602z
		 M38.842,10.051l2.279,0.817c0.127-0.207,0.254-0.433,0.371-0.644c0.115-0.204,0.225-0.397,0.32-0.557
		c0.295-0.48,0.594-1.109,0.82-1.726c0.387-1.054,0.365-2.279,0.125-2.854c-0.225-0.534-0.531-1.267-0.637-2.101
		c-0.018-0.134-0.029-0.272-0.033-0.416c-0.084,0.085-0.164,0.174-0.248,0.273c-0.438,0.52-1.055,1.325-1.512,2.217
		c-0.305,0.598-0.727,1.517-1,2.299c-0.225,0.651-0.314,1.359-0.4,2.043l-0.064,0.495C38.857,9.949,38.852,9.999,38.842,10.051z"/>
	<path d="M27.283,48l-1.328-0.477l-0.006-0.504c0-0.029-0.008-0.717,0.115-1.854c0.115-1.227,0.393-2.809,0.777-4.445l1.41,0.332
		c-0.367,1.563-0.631,3.063-0.744,4.229c0.684-1.018,1.447-2.381,2.164-3.85c0.252-0.523,0.506-1.09,0.762-1.674l1.326,0.584
		c-0.264,0.6-0.523,1.182-0.785,1.721c-0.752,1.547-1.563,2.986-2.281,4.055c-0.623,0.949-1.066,1.477-1.084,1.498L27.283,48z"/>
	<g>
		<path d="M40.162,24.984c-0.693,0-1.316-0.16-1.656-0.246l0.361-1.404c1.932,0.496,2.484-0.029,2.797-0.668
			c0.092-0.189,0.15-0.41,0.191-0.608c-0.342-1.316-0.922-2.593-1.721-3.797l1.207-0.801c0.924,1.39,1.582,2.871,1.961,4.403
			l0.037,0.151l-0.029,0.151c-0.057,0.318-0.15,0.736-0.344,1.137C42.307,24.654,41.16,24.984,40.162,24.984z"/>
		<path d="M23.652,41.016c-11.047,0-20.033-7.191-20.033-16.031c0-8.841,8.986-16.033,20.033-16.033c4.6,0,9.092,1.277,12.649,3.598
			l-0.793,1.214c-3.322-2.169-7.533-3.363-11.856-3.363c-10.248,0-18.584,6.543-18.584,14.585c0,8.041,8.336,14.582,18.584,14.582
			c5.208,0,10.188-1.727,13.709-4.748c0.205-1.221,0.113-2.301-0.252-2.857c-0.631-0.965-1.93-1.521-3.184-2.059
			c-0.803-0.342-1.629-0.695-2.309-1.164c-1.025-0.709-1.789-2.135-1.813-3.393c-0.018-0.914,0.352-1.703,1.041-2.219
			c0.176-0.131,0.373-0.25,0.605-0.363l0.641,1.299c-0.152,0.076-0.275,0.148-0.377,0.225c-0.318,0.238-0.471,0.576-0.461,1.031
			c0.016,0.881,0.629,1.842,1.188,2.229c0.559,0.385,1.285,0.697,2.053,1.025c1.387,0.592,2.957,1.264,3.828,2.596
			c0.859,1.314,0.578,3.355,0.418,4.172l-0.049,0.238l-0.184,0.164C34.717,39.094,29.303,41.016,23.652,41.016z M18.15,36.197
			c-2.34,0-4.244-1.678-4.244-3.74s1.904-3.74,4.244-3.74c2.338,0,4.242,1.678,4.242,3.74S20.488,36.197,18.15,36.197z
			 M18.15,30.166c-1.541,0-2.795,1.029-2.795,2.291c0,1.264,1.254,2.291,2.795,2.291c1.539,0,2.793-1.027,2.793-2.291
			C20.943,31.195,19.689,30.166,18.15,30.166z M12.119,30.166c-2.34,0-4.242-1.676-4.242-3.738s1.902-3.74,4.242-3.74
			s4.242,1.678,4.242,3.74S14.458,30.166,12.119,30.166z M12.119,24.137c-1.541,0-2.795,1.027-2.795,2.291
			c0,1.262,1.254,2.289,2.795,2.289s2.793-1.027,2.793-2.289C14.912,25.164,13.66,24.137,12.119,24.137z M15.636,21.926
			c-2.34,0-4.242-1.679-4.242-3.74c0-2.063,1.902-3.74,4.242-3.74s4.244,1.678,4.244,3.74C19.88,20.247,17.976,21.926,15.636,21.926
			z M15.636,15.895c-1.541,0-2.793,1.027-2.793,2.291c0,1.263,1.252,2.291,2.793,2.291s2.795-1.028,2.795-2.291
			C18.431,16.922,17.177,15.895,15.636,15.895z M25.186,18.91c-2.34,0-4.243-1.679-4.243-3.74s1.902-3.74,4.243-3.74
			c2.34,0,4.242,1.679,4.242,3.74S27.525,18.91,25.186,18.91z M25.186,12.879c-1.542,0-2.793,1.027-2.793,2.291
			c0,1.263,1.252,2.291,2.793,2.291c1.541,0,2.795-1.028,2.795-2.291C27.98,13.906,26.727,12.879,25.186,12.879z"/>
	</g>
	<path d="M36.504,29.25l-1.342-0.547c0.84-2.057,1.664-4.248,2.447-6.514c0.377-1.089,0.727-2.148,1.051-3.157l0.248-0.781
		c0.23-0.722,0.447-1.404,0.619-2.051c0.164-0.637,0.287-1.297,0.365-1.965l-2.25-0.808c-0.359,0.563-0.684,1.149-0.965,1.755
		c-0.275,0.6-0.537,1.26-0.816,1.957l-0.313,0.782c-0.387,0.979-0.789,2.019-1.189,3.103c-0.689,1.86-1.34,3.743-1.932,5.595
		l-1.379-0.439c0.598-1.873,1.254-3.777,1.951-5.659c0.404-1.094,0.811-2.145,1.205-3.139l0.311-0.777
		c0.285-0.716,0.555-1.392,0.846-2.03c0.398-0.851,0.867-1.668,1.398-2.433l0.316-0.456l4.361,1.564l-0.045,0.555
		c-0.078,0.937-0.234,1.867-0.463,2.761c-0.184,0.688-0.404,1.385-0.641,2.125l-0.248,0.779c-0.328,1.023-0.682,2.094-1.061,3.194
		C38.186,24.955,37.354,27.172,36.504,29.25z"/>
</g>
</svg>
