<?xml version="1.0" encoding="utf-8"?>
<!-- Generator: Adobe Illustrator 16.0.0, SVG Export Plug-In . SVG Version: 6.00 Build 0)  -->
<!DOCTYPE svg PUBLIC "-//W3C//DTD SVG 1.1//EN" "http://www.w3.org/Graphics/SVG/1.1/DTD/svg11.dtd">
<svg version="1.1" id="Layer_1" xmlns="http://www.w3.org/2000/svg" xmlns:xlink="http://www.w3.org/1999/xlink" x="0px" y="0px"
	 width="48px" height="48px" viewBox="0 0 48 48" enable-background="new 0 0 48 48" xml:space="preserve">
<g>
	<path d="M4.399,45.798l-0.17-1.445c3.303-0.387,5.594-1.391,6.809-2.98c1.01-1.322,1.334-3.061,0.992-5.313
		c-0.008-0.045-0.014-0.088-0.02-0.133c-2.48-0.328-4.869-1.088-6.996-2.803c-2.445-1.969-2.484-4.666-1.262-6.375
		c-0.697-0.826-1.252-1.49-1.537-1.859c-1.584-2.045-2.436-5.003-2.166-7.537C0.547,12.64,3.934,8.769,10.114,5.847
		c3.744-1.77,7.529-2.279,11.535-2.819l1.457-0.198c4.153-0.58,10.172-1.181,14.469,0.297c4.525,1.557,8.254,5.203,9.729,9.514
		c1.293,3.774,0.773,7.729-1.459,11.136c-3.133,4.785-8.285,7.332-12.422,9.014c-4.016,1.631-8.932,3.305-14.934,3.365l-0.264,0.002
		c-1.568,0.016-3.156,0.033-4.723-0.08c0.338,2.52-0.102,4.598-1.307,6.178C10.711,44.198,8.161,45.358,4.399,45.798z
		 M13.317,34.608c1.58,0.127,3.221,0.111,4.895,0.094l0.262-0.002c4.643-0.047,8.815-0.992,14.401-3.26
		c3.941-1.604,8.84-4.014,11.752-8.461c1.982-3.023,2.443-6.527,1.301-9.868c-1.332-3.895-4.715-7.194-8.826-8.608
		c-4.002-1.376-9.789-0.791-13.793-0.231l-1.463,0.199c-3.893,0.523-7.568,1.021-11.107,2.692c-5.77,2.729-8.793,6.112-9.24,10.343
		c-0.23,2.18,0.502,4.727,1.869,6.491c0.266,0.344,0.781,0.963,1.436,1.738c1.342-0.891,3.311-1.055,5.365,0.451
		c2.527,1.852,2.82,4.947,3.08,7.678C13.27,34.116,13.293,34.364,13.317,34.608z M4.741,27.913
		c-0.592,1.121-0.465,2.748,1.188,4.078c1.242,1,2.59,1.639,4.016,2.043c-1.027-1.234-2.459-2.91-3.777-4.453
		C5.676,29.009,5.194,28.444,4.741,27.913z M5.754,26.858c0.479,0.561,0.994,1.164,1.518,1.777c1.744,2.039,3.535,4.137,4.523,5.357
		c-0.24-2.541-0.492-5.168-2.49-6.633C7.92,26.345,6.647,26.349,5.754,26.858z"/>
</g>
</svg>
