<?xml version="1.0" encoding="utf-8"?>
<!-- Generator: Adobe Illustrator 16.0.0, SVG Export Plug-In . SVG Version: 6.00 Build 0)  -->
<!DOCTYPE svg PUBLIC "-//W3C//DTD SVG 1.1//EN" "http://www.w3.org/Graphics/SVG/1.1/DTD/svg11.dtd">
<svg version="1.1" id="Layer_1" xmlns="http://www.w3.org/2000/svg" xmlns:xlink="http://www.w3.org/1999/xlink" x="0px" y="0px"
	 width="48px" height="48px" viewBox="0 0 48 48" enable-background="new 0 0 48 48" xml:space="preserve">
<g>
	<g>
		<path d="M28.123,9.275l5.275,5.275l0.043,0.044l5.285,5.284c-2.447,2.327-7.721,8.132-8.945,15.866
			c-0.557-0.043-1.248-0.076-2.063-0.076c-4.195,0-11.797,0.887-20.902,5.963l1.518-1.973l-1.955,1.502
			c6.053-10.83,6.16-19.488,5.879-22.943C19.99,16.993,25.795,11.721,28.123,9.275 M28.063,7.093c0,0-7.227,8.965-17.479,9.816
			c0,0,2.77,13.756-10.342,30.809L0,47.962c0.045-0.037,0.092-0.072,0.137-0.107c-0.035,0.047-0.07,0.092-0.104,0.139l0.24-0.24
			C12.26,38.54,22.621,37.169,27.719,37.169c2.156,0,3.373,0.246,3.373,0.246c0.852-10.252,9.82-17.476,9.82-17.476l-6.41-6.406
			l-0.031-0.034L28.063,7.093L28.063,7.093z"/>
		<path d="M33.938,2.129l11.938,11.938l-3.135,3.136L30.801,5.265L33.938,2.129 M33.938,0.007l-5.262,5.258L42.74,19.325L48,14.066
			L33.938,0.007L33.938,0.007z"/>
		<path d="M22.045,30.019c-1.086,0-2.107-0.422-2.875-1.189c-0.768-0.77-1.191-1.789-1.191-2.875s0.424-2.107,1.191-2.875
			s1.789-1.189,2.875-1.189s2.105,0.422,2.875,1.189c0.768,0.768,1.189,1.791,1.189,2.875c0,1.086-0.422,2.107-1.189,2.875
			C24.15,29.597,23.131,30.019,22.045,30.019z M22.045,23.39c-0.686,0-1.33,0.268-1.814,0.752s-0.75,1.127-0.75,1.813
			c0,0.684,0.268,1.328,0.75,1.813c0.969,0.969,2.658,0.969,3.627,0c0.484-0.482,0.752-1.127,0.752-1.813
			c0-0.684-0.268-1.328-0.752-1.813S22.729,23.39,22.045,23.39z"/>
		<rect x="10.318" y="25.044" transform="matrix(0.7078 0.7065 -0.7065 0.7078 29.3225 2.9726)" width="1.501" height="23.768"/>
	</g>
	<g>
		<g>
			<line x1="36.91" y1="42.452" x2="47.992" y2="42.452"/>
			<rect x="36.91" y="41.7" width="11.082" height="1.502"/>
		</g>
		<g>
			<line x1="42.451" y1="36.911" x2="42.451" y2="47.993"/>
			<rect x="41.701" y="36.911" width="1.5" height="11.082"/>
		</g>
	</g>
</g>
</svg>
