<?xml version="1.0" encoding="utf-8"?>
<!-- Generator: Adobe Illustrator 16.0.0, SVG Export Plug-In . SVG Version: 6.00 Build 0)  -->
<!DOCTYPE svg PUBLIC "-//W3C//DTD SVG 1.1//EN" "http://www.w3.org/Graphics/SVG/1.1/DTD/svg11.dtd">
<svg version="1.1" id="Layer_1" xmlns="http://www.w3.org/2000/svg" xmlns:xlink="http://www.w3.org/1999/xlink" x="0px" y="0px"
	 width="48px" height="48px" viewBox="0 0 48 48" enable-background="new 0 0 48 48" xml:space="preserve">
<g>
	<path d="M11.064,48.249c-3.69,0-6.529-0.967-8.438-2.875c-3.185-3.185-3.742-9.149-1.568-16.796
		c1.675-5.889,4.893-12.166,7.652-14.923c2.109-2.108,4.994-3.222,8.342-3.222c4.884,0,10.025,2.338,14.104,6.417
		c3.385,3.384,5.6,7.55,6.235,11.731c0.652,4.295-0.426,8.098-3.038,10.708C30.7,42.941,19.811,48.249,11.064,48.249z
		 M17.052,12.433c-2.807,0-5.202,0.912-6.928,2.637c-2.13,2.129-5.357,7.779-7.142,14.057C1.843,33.132,0.466,40.386,4.04,43.96
		c1.52,1.519,3.883,2.289,7.024,2.289c8.116,0,18.542-5.041,21.875-8.375c2.15-2.15,3.029-5.344,2.475-8.993
		c-0.572-3.762-2.586-7.533-5.672-10.618C26.09,14.612,21.346,12.433,17.052,12.433z"/>
	<g>
		<path d="M30.791,16.689c-0.259,0-0.513-0.101-0.704-0.29c-0.146-0.144-3.557-3.584-3.193-8.188
			c0.241-3.061,2.073-5.844,5.446-8.272c0.133-0.096,0.288-0.158,0.451-0.18c1.344-0.189,3.575,4.866,3.96,6.271
			c1.3,4.749-0.678,8.506-5.569,10.58C31.056,16.663,30.923,16.689,30.791,16.689z M32.717,2.165
			c-2.368,1.908-3.655,3.991-3.829,6.204c-0.22,2.786,1.362,5.117,2.163,6.104c2.168-1.06,3.487-2.485,3.924-4.245
			C35.741,7.142,33.744,3.68,32.717,2.165z"/>
		<path d="M39.107,21.134c-4.26,0-7.371-3.09-7.501-3.221c-0.286-0.289-0.369-0.721-0.211-1.094
			c2.089-4.927,5.406-5.961,7.821-5.961c4.393,0,8.493,3.303,8.665,3.444c0.41,0.334,0.488,0.93,0.18,1.359
			C45.447,19.292,42.435,21.134,39.107,21.134z M33.533,16.947c0.928,0.749,3.04,2.188,5.574,2.188c2.409,0,4.67-1.294,6.729-3.85
			c-1.283-0.868-3.957-2.427-6.619-2.427C36.734,12.857,34.87,14.197,33.533,16.947z"/>
	</g>
	<g>
		<path d="M17.949,21.116c-0.773,0.775-2.036,0.775-2.813,0c-0.776-0.78-0.776-2.04,0-2.816c0.776-0.776,2.039-0.776,2.813,0
			C18.731,19.076,18.731,20.335,17.949,21.116z"/>
		<path d="M23.829,26.989c-0.776,0.774-2.039,0.774-2.815,0c-0.776-0.777-0.776-2.037,0-2.813c0.776-0.781,2.039-0.781,2.815,0
			C24.607,24.952,24.607,26.212,23.829,26.989z"/>
		<path d="M29.7,32.865c-0.773,0.779-2.036,0.779-2.813,0c-0.775-0.776-0.775-2.035,0-2.813c0.776-0.779,2.039-0.779,2.813,0
			C30.482,30.83,30.482,32.089,29.7,32.865z"/>
		<path d="M14.97,29.969c-0.775,0.775-2.035,0.775-2.813,0c-0.779-0.779-0.779-2.039,0-2.814c0.777-0.78,2.037-0.78,2.813,0
			C15.753,27.93,15.753,29.188,14.97,29.969z"/>
		<path d="M20.845,35.843c-0.771,0.775-2.033,0.775-2.811,0c-0.781-0.776-0.781-2.036,0-2.815c0.777-0.776,2.039-0.776,2.811,0
			C21.625,33.807,21.625,35.064,20.845,35.843z"/>
		<circle cx="10.803" cy="37.202" r="1.989"/>
	</g>
</g>
</svg>
