<?xml version="1.0" encoding="utf-8"?>
<!-- Generator: Adobe Illustrator 16.0.0, SVG Export Plug-In . SVG Version: 6.00 Build 0)  -->
<!DOCTYPE svg PUBLIC "-//W3C//DTD SVG 1.1//EN" "http://www.w3.org/Graphics/SVG/1.1/DTD/svg11.dtd">
<svg version="1.1" id="Layer_1" xmlns="http://www.w3.org/2000/svg" xmlns:xlink="http://www.w3.org/1999/xlink" x="0px" y="0px"
	 width="48px" height="48px" viewBox="0 0 48 48" enable-background="new 0 0 48 48" xml:space="preserve">
<g>
	<path d="M22.776,41.152C22.775,41.152,22.775,41.152,22.776,41.152c-6.43,0-12.366-2.827-15.686-7.424
		c-0.33,0.057-0.674,0.086-1.017,0.086c-2.857,0-5.358-2.037-5.946-4.844c-0.666-3.208,1.336-6.362,4.486-7.145
		c1.525-7.032,7.827-12.805,15.917-14.491c1.556-0.324,3.137-0.488,4.699-0.488c6.423,0,12.356,2.827,15.679,7.424
		c0.331-0.057,0.676-0.086,1.018-0.086c2.862,0,5.362,2.037,5.945,4.843c0.331,1.591,0.024,3.216-0.865,4.576
		c-0.848,1.296-2.127,2.203-3.62,2.57c-1.519,7.031-7.818,12.805-15.913,14.49C25.918,40.988,24.337,41.152,22.776,41.152z
		 M7.515,31.581c0.332,0,0.65,0.166,0.838,0.454c2.859,4.39,8.385,7.117,14.422,7.117c0,0,0,0,0,0c1.425,0,2.869-0.15,4.29-0.446
		c7.569-1.576,13.391-7.035,14.486-13.583c0.074-0.443,0.436-0.783,0.884-0.83l0.179-0.015c0.051-0.003,0.103-0.004,0.154-0.015
		c1.055-0.22,1.969-0.844,2.564-1.755c0.598-0.913,0.804-2.004,0.581-3.074c-0.392-1.884-2.068-3.25-3.987-3.25
		c-0.278,0-0.559,0.029-0.834,0.086c-0.054,0.012-0.091,0.028-0.128,0.042l-0.182,0.063c-0.425,0.132-0.89-0.034-1.135-0.409
		c-2.862-4.391-8.387-7.119-14.418-7.119c-1.426,0-2.869,0.15-4.291,0.446c-7.565,1.576-13.389,7.035-14.491,13.584
		c-0.073,0.433-0.419,0.768-0.854,0.825c-0.078,0.01-0.157,0.017-0.237,0.022c-0.041,0.002-0.083,0.003-0.124,0.011
		c-2.186,0.457-3.604,2.624-3.147,4.828c0.395,1.884,2.072,3.252,3.988,3.252c0.279,0,0.562-0.029,0.838-0.087
		c0.05-0.012,0.083-0.025,0.117-0.038c0.068-0.024,0.136-0.048,0.205-0.068C7.327,31.594,7.421,31.581,7.515,31.581z"/>
</g>
</svg>
