<?xml version="1.0" encoding="utf-8"?>
<!-- Generator: Adobe Illustrator 16.0.0, SVG Export Plug-In . SVG Version: 6.00 Build 0)  -->
<!DOCTYPE svg PUBLIC "-//W3C//DTD SVG 1.1//EN" "http://www.w3.org/Graphics/SVG/1.1/DTD/svg11.dtd">
<svg version="1.1" id="Layer_1" xmlns="http://www.w3.org/2000/svg" xmlns:xlink="http://www.w3.org/1999/xlink" x="0px" y="0px"
	 width="48px" height="48px" viewBox="0 0 48 48" enable-background="new 0 0 48 48" xml:space="preserve">
<g>
	<path d="M10.585,48c-5.314,0-9.638-4.323-9.638-9.637c0-5.312,4.324-9.633,9.638-9.633c5.311,0,9.632,4.321,9.632,9.633
		C20.217,43.677,15.896,48,10.585,48z M10.585,30.73c-4.212,0-7.638,3.424-7.638,7.633c0,4.211,3.426,7.637,7.638,7.637
		c4.208,0,7.632-3.426,7.632-7.637C18.217,34.154,14.793,30.73,10.585,30.73z"/>
	<path d="M37.421,48c-5.313,0-9.635-4.323-9.635-9.637c0-5.312,4.322-9.633,9.635-9.633s9.634,4.321,9.634,9.633
		C47.055,43.677,42.733,48,37.421,48z M37.421,30.73c-4.21,0-7.635,3.424-7.635,7.633c0,4.211,3.425,7.637,7.635,7.637
		c4.209,0,7.634-3.426,7.634-7.637C45.055,34.154,41.63,30.73,37.421,30.73z"/>
	<path d="M11.582,29.725c-0.174,0-0.351-0.046-0.511-0.142c-0.475-0.282-0.63-0.896-0.347-1.37
		c0.107-0.181,10.671-18.155,3.364-26.557c-0.363-0.417-0.318-1.048,0.098-1.411c0.417-0.363,1.049-0.319,1.411,0.098
		c8.255,9.492-2.686,28.105-3.155,28.894C12.255,29.551,11.923,29.725,11.582,29.725z"/>
	<path d="M36.556,29.725c-0.022,0-0.044-0.001-0.066-0.002c-0.552-0.036-0.969-0.513-0.933-1.063
		c0.939-14.23-17.908-18.15-18.099-18.188c-0.542-0.108-0.893-0.634-0.786-1.176c0.107-0.542,0.628-0.897,1.175-0.786
		c0.208,0.041,20.761,4.296,19.706,20.281C37.518,29.319,37.078,29.725,36.556,29.725z"/>
	<path d="M34.86,16.428c-1.381,0-2.896-0.2-4.505-0.593c-0.453-0.11-0.77-0.52-0.763-0.986c0.002-0.141,0.349-14.032,12.446-14.032
		c0.951,0,1.961,0.089,3.003,0.264c0.454,0.076,0.797,0.453,0.831,0.912c0.021,0.292,0.489,7.193-3.392,11.375
		C40.597,15.398,38.033,16.428,34.86,16.428z M31.64,14.075c4.154,0.848,7.316,0.153,9.376-2.067
		c2.594-2.794,2.881-7.266,2.884-9.071c-0.644-0.079-1.267-0.118-1.86-0.118C33.319,2.818,31.877,11.356,31.64,14.075z"/>
</g>
</svg>
