<?xml version="1.0" encoding="utf-8"?>
<!-- Generator: Adobe Illustrator 16.0.0, SVG Export Plug-In . SVG Version: 6.00 Build 0)  -->
<!DOCTYPE svg PUBLIC "-//W3C//DTD SVG 1.1//EN" "http://www.w3.org/Graphics/SVG/1.1/DTD/svg11.dtd">
<svg version="1.1" id="Layer_1" xmlns="http://www.w3.org/2000/svg" xmlns:xlink="http://www.w3.org/1999/xlink" x="0px" y="0px"
	 width="48px" height="48px" viewBox="0 0 48 48" enable-background="new 0 0 48 48" xml:space="preserve">
<g>
	<path d="M23.187,48c-3.86,0-7.972-1.702-11.28-4.67C5.705,37.765,4.118,29.382,8.37,24.643c1.839-2.049,4.569-3.178,7.688-3.178
		c3.859,0,7.968,1.702,11.272,4.669c6.203,5.563,7.791,13.947,3.539,18.691C29.031,46.873,26.303,48,23.187,48z M16.058,23.464
		c-2.543,0-4.744,0.893-6.199,2.514c-3.515,3.918-1.997,11.034,3.384,15.863C16.188,44.484,19.813,46,23.187,46
		c2.541,0,4.74-0.892,6.193-2.51c3.516-3.923,1.997-11.041-3.386-15.868C23.052,24.979,19.43,23.464,16.058,23.464z"/>
	<path d="M31.724,41.8c-0.539,0-0.984-0.431-0.999-0.974c-0.047-1.751-0.791-3.235-2.214-4.414c-2.087-1.729-5.479-2.57-8.437-2.09
		c-0.477,0.076-0.944,0.16-1.406,0.243c-1.533,0.275-3.119,0.553-4.832,0.534c-3.249-0.048-5.239-1.27-7.579-3.364
		c-0.412-0.368-0.446-1.001-0.078-1.412c0.369-0.411,1-0.447,1.412-0.078c2.081,1.862,3.623,2.815,6.274,2.854
		c1.518,0.017,2.943-0.233,4.45-0.503c0.474-0.085,0.952-0.171,1.44-0.249c3.545-0.575,7.485,0.415,10.032,2.524
		c1.859,1.54,2.875,3.581,2.938,5.901c0.015,0.552-0.421,1.012-0.974,1.026C31.742,41.8,31.733,41.8,31.724,41.8z"/>
	<path d="M30.186,24.313c-2.356,0-4.823-0.5-7.134-1.447c-7.715-3.161-12.042-10.537-9.646-16.442C15.015,2.461,19.315,0,24.629,0
		c2.356,0,4.823,0.5,7.134,1.446c7.716,3.162,12.041,10.538,9.643,16.443C39.795,21.851,35.496,24.313,30.186,24.313z M24.629,2
		c-4.483,0-8.073,1.983-9.369,5.175c-1.983,4.887,1.852,11.095,8.551,13.84c2.072,0.849,4.276,1.298,6.375,1.298
		c4.48,0,8.069-1.983,9.366-5.177c1.985-4.886-1.849-11.094-8.547-13.839C28.933,2.448,26.728,2,24.629,2z"/>
	<path d="M21.652,16.101c-1.342,0-2.648-0.208-3.823-0.634c-2.273-0.824-3.919-2.406-4.76-4.576
		c-0.199-0.515,0.057-1.094,0.571-1.294c0.517-0.199,1.094,0.057,1.294,0.571c0.634,1.638,1.837,2.788,3.576,3.418
		c2.543,0.922,6.01,0.57,8.624-0.877c0.404-0.225,0.801-0.454,1.193-0.68c1.361-0.787,2.769-1.601,4.409-2.161
		c3.081-1.054,5.361-0.569,8.263,0.621c0.511,0.21,0.755,0.794,0.545,1.305c-0.209,0.512-0.797,0.755-1.305,0.545
		c-2.519-1.035-4.358-1.434-6.856-0.579c-1.455,0.498-2.718,1.228-4.056,2c-0.401,0.232-0.807,0.466-1.223,0.698
		C26.154,15.539,23.856,16.101,21.652,16.101z"/>
</g>
</svg>
