<?xml version="1.0" encoding="utf-8"?>
<!-- Generator: Adobe Illustrator 16.0.0, SVG Export Plug-In . SVG Version: 6.00 Build 0)  -->
<!DOCTYPE svg PUBLIC "-//W3C//DTD SVG 1.1//EN" "http://www.w3.org/Graphics/SVG/1.1/DTD/svg11.dtd">
<svg version="1.1" id="Layer_1" xmlns="http://www.w3.org/2000/svg" xmlns:xlink="http://www.w3.org/1999/xlink" x="0px" y="0px"
	 width="48px" height="48px" viewBox="0 0 48 48" enable-background="new 0 0 48 48" xml:space="preserve">
<g>
	<path d="M20.86,48.059c0,0-0.001,0-0.001,0c-5.768,0-10.689-3.489-13.218-5.69c-0.083-0.039-0.16-0.091-0.229-0.155
		c0,0-0.295-0.272-0.75-0.742c-0.444-0.421-0.722-0.72-0.722-0.72c-0.065-0.07-0.119-0.148-0.161-0.233
		C2.803,37.135-5.073,26.323,4.997,16.186c5.032-5.073,10.791-6.615,14.995-7.741c1.717-0.46,3.2-0.857,4.123-1.377
		c0.565-0.318,1.368-0.995,2.297-1.779c2.675-2.256,6.339-5.347,10.521-5.347c2.642,0,5.089,1.259,7.276,3.742
		c7.738,6.715,1.741,13.928-1.484,17.807c-0.776,0.935-1.447,1.742-1.762,2.309c-0.513,0.926-0.897,2.409-1.345,4.127
		c-1.095,4.215-2.595,9.986-7.634,15.059C28.644,46.352,24.9,48.059,20.86,48.059z M8.599,40.582
		c0.064,0.034,0.125,0.076,0.182,0.125c2.256,1.999,6.825,5.352,12.079,5.352c0,0,0.001,0,0.001,0c3.487,0,6.753-1.508,9.705-4.483
		c4.658-4.689,6.079-10.159,7.117-14.152c0.48-1.849,0.896-3.446,1.53-4.593c0.406-0.733,1.133-1.607,1.975-2.619
		c4.212-5.066,7.509-10.03,1.663-15.059c-0.036-0.031-0.069-0.065-0.101-0.101c-1.828-2.093-3.731-3.111-5.817-3.111
		c-3.452,0-6.793,2.818-9.231,4.875c-1.007,0.849-1.876,1.583-2.605,1.993c-1.143,0.644-2.739,1.072-4.586,1.566
		c-3.985,1.067-9.442,2.529-14.093,7.218c-8.793,8.853-2.212,18.183,1.026,21.784c0.053,0.059,0.097,0.122,0.133,0.188
		c0.114,0.116,0.282,0.283,0.494,0.485C8.297,40.286,8.478,40.465,8.599,40.582z"/>
	<path d="M19.124,37.398c-2.367,0-4.516-0.839-6.05-2.361c-1.843-1.828-2.67-4.437-2.329-7.345c0.33-2.817,1.727-5.593,3.935-7.816
		c2.567-2.588,5.886-4.073,9.103-4.073c2.365,0,4.511,0.838,6.043,2.359c1.844,1.83,2.673,4.439,2.334,7.348
		c-0.328,2.819-1.726,5.597-3.933,7.82C25.656,35.917,22.339,37.398,19.124,37.398z M23.783,17.803
		c-2.688,0-5.488,1.269-7.684,3.482c-1.894,1.907-3.089,4.265-3.368,6.64c-0.268,2.285,0.354,4.307,1.751,5.692
		c1.174,1.166,2.779,1.781,4.641,1.781c2.686,0,5.487-1.267,7.685-3.477c1.893-1.907,3.088-4.266,3.365-6.643
		c0.267-2.286-0.357-4.309-1.757-5.697C27.245,18.418,25.643,17.803,23.783,17.803z"/>
</g>
</svg>
