<?xml version="1.0" encoding="utf-8"?>
<!-- Generator: Adobe Illustrator 16.0.0, SVG Export Plug-In . SVG Version: 6.00 Build 0)  -->
<!DOCTYPE svg PUBLIC "-//W3C//DTD SVG 1.1//EN" "http://www.w3.org/Graphics/SVG/1.1/DTD/svg11.dtd">
<svg version="1.1" id="Layer_1" xmlns="http://www.w3.org/2000/svg" xmlns:xlink="http://www.w3.org/1999/xlink" x="0px" y="0px"
	 width="48px" height="48px" viewBox="0 0 48 48" enable-background="new 0 0 48 48" xml:space="preserve">
<g>
	<path d="M1,48c-0.206,0-0.411-0.063-0.583-0.188C0.155,47.625,0,47.322,0,47V25.38c0-0.42,0.262-0.795,0.657-0.939l46-16.812
		c0.31-0.111,0.648-0.067,0.917,0.12C47.841,7.936,48,8.241,48,8.568v22.818c0,0.429-0.272,0.81-0.679,0.947l-46,15.614
		C1.217,47.982,1.108,48,1,48z M2,26.079v19.525l44-14.936V9.998L2,26.079z"/>
	<path d="M1,25.516c-0.112,0-0.227-0.019-0.338-0.059c-0.52-0.188-0.79-0.76-0.603-1.28L8.275,1.326
		c0.126-0.352,0.439-0.604,0.81-0.653c1.205-0.16,29.639-3.776,38.688,7.261c0.35,0.427,0.288,1.058-0.14,1.408
		c-0.428,0.351-1.058,0.286-1.407-0.139C38.561-0.149,14.104,2.123,9.947,2.585L1.941,24.854C1.794,25.262,1.41,25.516,1,25.516z"/>
	<path d="M12.094,33.797c-3.756,0-6.812-2.939-6.812-6.553c0-3.616,3.056-6.558,6.812-6.558c3.759,0,6.817,2.942,6.817,6.558
		C18.911,30.857,15.853,33.797,12.094,33.797z M12.094,22.686c-2.653,0-4.812,2.044-4.812,4.558c0,2.511,2.158,4.553,4.812,4.553
		c2.656,0,4.817-2.042,4.817-4.553C16.911,24.73,14.75,22.686,12.094,22.686z"/>
	<path d="M35.98,35.048c-3.756,0-6.812-2.94-6.812-6.555s3.056-6.555,6.812-6.555c3.758,0,6.814,2.941,6.814,6.555
		S39.738,35.048,35.98,35.048z M35.98,23.938c-2.653,0-4.812,2.043-4.812,4.555s2.158,4.555,4.812,4.555
		c2.654,0,4.814-2.043,4.814-4.555S38.635,23.938,35.98,23.938z"/>
</g>
</svg>
