<?xml version="1.0" encoding="utf-8"?>
<!-- Generator: Adobe Illustrator 16.0.0, SVG Export Plug-In . SVG Version: 6.00 Build 0)  -->
<!DOCTYPE svg PUBLIC "-//W3C//DTD SVG 1.1//EN" "http://www.w3.org/Graphics/SVG/1.1/DTD/svg11.dtd">
<svg version="1.1" id="Layer_1" xmlns="http://www.w3.org/2000/svg" xmlns:xlink="http://www.w3.org/1999/xlink" x="0px" y="0px"
	 width="48px" height="48px" viewBox="0 0 48 48" enable-background="new 0 0 48 48" xml:space="preserve">
<g>
	<path d="M11.61,48.047c-3.107,0-6.026-1.206-8.217-3.396c-4.536-4.543-4.513-11.952,0.05-16.519
		c0.497-0.496,12.25-12.139,20.999-12.139c2.195,0,4.032,0.724,5.46,2.151c2.228,2.227,3.907,6.582-0.745,14.679
		c-3.18,5.535-7.879,10.416-9.243,11.78C17.692,46.824,14.744,48.047,11.61,48.047z M24.442,17.993
		c-6.345,0-15.585,7.557-19.584,11.553c-3.784,3.787-3.807,9.929-0.05,13.69c1.813,1.813,4.229,2.811,6.803,2.811
		c2.599,0,5.046-1.015,6.89-2.857c1.32-1.32,5.866-6.041,8.923-11.362c3.229-5.62,3.588-9.748,1.065-12.269
		C27.435,18.505,26.111,17.993,24.442,17.993z"/>
	<path d="M30.962,23.29c-0.099,0-0.198-0.015-0.296-0.045c-0.354-0.11-0.619-0.407-0.688-0.771c-0.22-1.178-0.708-2.132-1.49-2.916
		c-0.81-0.807-1.818-1.284-3.081-1.456c-0.377-0.051-0.691-0.312-0.813-0.671c-0.122-0.36-0.028-0.757,0.24-1.026l6.662-6.67
		c-1.073-1.081-1.665-2.516-1.665-4.042c0-1.533,0.598-2.975,1.682-4.059c1.085-1.084,2.527-1.681,4.06-1.681
		s2.972,0.597,4.053,1.683c1.369,1.36,1.921,3.287,1.586,5.102c1.829-0.338,3.773,0.249,5.108,1.585
		c1.084,1.083,1.681,2.525,1.681,4.058s-0.597,2.975-1.681,4.058c-1.085,1.084-2.526,1.681-4.058,1.681
		c-1.525,0-2.96-0.592-4.043-1.668l-6.551,6.545C31.479,23.188,31.223,23.29,30.962,23.29z M27.487,16.579
		c0.916,0.353,1.724,0.876,2.414,1.565c0.654,0.655,1.167,1.412,1.531,2.262l6.155-6.149c0.215-0.215,0.518-0.324,0.818-0.286
		c0.303,0.034,0.573,0.204,0.735,0.461c0.129,0.205,0.289,0.403,0.476,0.59c1.414,1.417,3.874,1.418,5.289,0.003
		c0.706-0.706,1.095-1.645,1.095-2.644s-0.389-1.938-1.095-2.644c-1.231-1.231-3.275-1.429-4.718-0.469
		c-0.401,0.267-0.94,0.209-1.275-0.14l-0.117-0.122c-0.324-0.338-0.37-0.856-0.11-1.247c0.983-1.478,0.785-3.458-0.473-4.708
		c-1.414-1.419-3.873-1.414-5.285-0.002c-0.707,0.706-1.096,1.645-1.096,2.644s0.389,1.938,1.096,2.644
		c0.177,0.178,0.379,0.339,0.6,0.482c0.254,0.164,0.421,0.433,0.453,0.734s-0.073,0.6-0.287,0.813L27.487,16.579z"/>
</g>
</svg>
