<?xml version="1.0" encoding="utf-8"?>
<!-- Generator: Adobe Illustrator 16.0.0, SVG Export Plug-In . SVG Version: 6.00 Build 0)  -->
<!DOCTYPE svg PUBLIC "-//W3C//DTD SVG 1.1//EN" "http://www.w3.org/Graphics/SVG/1.1/DTD/svg11.dtd">
<svg version="1.1" id="Layer_1" xmlns="http://www.w3.org/2000/svg" xmlns:xlink="http://www.w3.org/1999/xlink" x="0px" y="0px"
	 width="48px" height="48px" viewBox="0 0 48 48" enable-background="new 0 0 48 48" xml:space="preserve">
<g>
	<path d="M30.706,36.499C30.706,36.499,30.707,36.499,30.706,36.499c-5.758,0-12.015-2.904-18.607-8.636L1.593,35.6
		c-0.303,0.223-0.707,0.258-1.044,0.087C0.212,35.517,0,35.171,0,34.794v-21.59c0-0.377,0.212-0.722,0.549-0.893
		c0.337-0.17,0.741-0.136,1.044,0.087l10.505,7.738c6.593-5.731,12.851-8.636,18.609-8.636c11.646,0,16.982,11.594,17.204,12.087
		c0.117,0.261,0.117,0.559,0,0.819C47.69,24.901,42.353,36.499,30.706,36.499z M12.155,25.58c0.239,0,0.477,0.086,0.666,0.254
		c6.438,5.75,12.457,8.665,17.885,8.665c9.203,0,14.149-8.513,15.179-10.5c-1.032-1.984-5.999-10.498-15.177-10.498
		c-5.43,0-11.448,2.915-17.887,8.665c-0.354,0.315-0.879,0.339-1.259,0.059L2,15.183v17.633l9.562-7.041
		C11.739,25.645,11.947,25.58,12.155,25.58z"/>
	<circle cx="35.445" cy="23.998" r="2.521"/>
	<path d="M27.52,31.216c-0.419,0-0.81-0.265-0.949-0.684c-2.698-8.105-0.007-12.413,0.109-12.592
		c0.299-0.464,0.917-0.598,1.383-0.297c0.462,0.298,0.596,0.914,0.301,1.376c-0.047,0.077-2.252,3.801,0.105,10.88
		c0.174,0.524-0.109,1.091-0.633,1.266C27.73,31.199,27.624,31.216,27.52,31.216z"/>
</g>
</svg>
