<?xml version="1.0" encoding="utf-8"?>
<!-- Generator: Adobe Illustrator 16.0.0, SVG Export Plug-In . SVG Version: 6.00 Build 0)  -->
<!DOCTYPE svg PUBLIC "-//W3C//DTD SVG 1.1//EN" "http://www.w3.org/Graphics/SVG/1.1/DTD/svg11.dtd">
<svg version="1.1" id="Layer_1" xmlns="http://www.w3.org/2000/svg" xmlns:xlink="http://www.w3.org/1999/xlink" x="0px" y="0px"
	 width="48px" height="48px" viewBox="0 0 48 48" enable-background="new 0 0 48 48" xml:space="preserve">
<g>
	<path d="M26.182,25.035c-0.599,0-1.202-0.054-1.795-0.106c-0.612-0.054-1.157-0.098-1.708-0.094c-0.975,0-2.25-0.043-3.354-0.84
		c-1.507-1.082-2.105-3.533-2.585-5.503c-0.092-0.38-0.178-0.73-0.262-1.029c-0.168-0.592-0.374-1.203-0.583-1.824
		c-0.578-1.718-1.175-3.495-1.191-5.32c0-0.062,0.004-0.122,0.015-0.18c-0.003-0.015-0.005-0.029-0.007-0.044
		c-0.177-1.405,0.168-2.503,0.972-3.093c1.047-0.771,2.938-0.875,4.649-0.875h3.86c0.363,0,0.728-0.004,1.095-0.008
		c2.053-0.022,4.179-0.046,6.177,0.597c1.092,0.348,1.812,0.887,2.196,1.647c0.609,1.203,0.152,2.561-0.25,3.76
		c-0.083,0.246-0.166,0.494-0.241,0.74c-0.27,0.901-0.434,1.804-0.607,2.759c-0.195,1.076-0.397,2.188-0.765,3.299
		c-0.104,0.316-0.201,0.653-0.3,0.999c-0.539,1.878-1.276,4.451-3.911,4.986C27.127,25.001,26.656,25.035,26.182,25.035z
		 M22.854,22.835c0.563,0,1.146,0.052,1.709,0.102c0.919,0.082,1.87,0.166,2.622,0.011c1.347-0.273,1.82-1.594,2.389-3.578
		c0.107-0.372,0.212-0.736,0.324-1.075c0.322-0.978,0.504-1.974,0.695-3.029c0.177-0.967,0.358-1.967,0.66-2.977
		c0.081-0.269,0.171-0.537,0.261-0.803c0.291-0.867,0.593-1.763,0.361-2.218c-0.16-0.316-0.645-0.526-1.022-0.647
		c-1.69-0.544-3.653-0.523-5.544-0.502c-0.375,0.004-0.748,0.008-1.118,0.008h-3.86c-2.439,0-3.218,0.305-3.465,0.487
		c-0.125,0.092-0.26,0.533-0.172,1.231c0.013,0.101,0.01,0.2-0.006,0.295c0.009,0.052,0.014,0.105,0.014,0.16
		c0.014,1.507,0.56,3.131,1.087,4.701c0.219,0.652,0.434,1.293,0.611,1.918c0.09,0.32,0.182,0.694,0.28,1.098
		c0.359,1.475,0.903,3.702,1.81,4.354C21.095,22.806,21.842,22.828,22.854,22.835z"/>
	<path d="M12.551,30.527c-0.106,0-0.214-0.003-0.325-0.01c-3.295-0.19-4.775-3.265-5.755-5.3c-0.269-0.559-0.613-1.137-0.978-1.749
		c-0.866-1.452-1.761-2.954-1.933-4.639c-0.328-3.13,2.029-4.986,3.437-6.095l0.443-0.349c1.637-1.292,3.33-2.627,5.375-3.457
		c0.514-0.208,1.095,0.04,1.303,0.551c0.208,0.512-0.039,1.095-0.551,1.303c-1.783,0.723-3.361,1.969-4.888,3.173l-0.446,0.352
		c-1.878,1.479-2.863,2.606-2.684,4.317c0.127,1.247,0.907,2.556,1.661,3.821c0.372,0.623,0.755,1.267,1.063,1.906
		c1.066,2.214,2.109,4.056,4.071,4.17c1.313,0.08,2.099-0.606,3.278-1.729c0.299-0.285,0.603-0.574,0.925-0.851
		c0.482-0.416,2.002-1.869,1.259-3.049c-0.294-0.467-0.154-1.085,0.313-1.379c0.468-0.292,1.085-0.154,1.379,0.313
		c1.076,1.708,0.46,3.814-1.646,5.631c-0.297,0.255-0.575,0.521-0.85,0.783C15.874,29.315,14.602,30.527,12.551,30.527z"/>
	<path d="M3.278,41.89c-0.03,0-0.06-0.001-0.089-0.001c-0.825-0.018-1.538-0.316-2.063-0.866c-1.208-1.265-1.151-3.529-1.109-5.184
		c0.006-0.261,0.013-0.504,0.013-0.722c0-2.903,0.545-5.62,1.079-7.896c0.166-0.695,0.277-1.49,0.395-2.333
		c0.268-1.912,0.572-4.079,1.648-5.698c0.305-0.459,0.925-0.584,1.387-0.279c0.46,0.306,0.585,0.927,0.279,1.387
		c-0.825,1.241-1.083,3.085-1.333,4.868c-0.125,0.891-0.243,1.732-0.43,2.516c-0.506,2.16-1.025,4.736-1.025,7.436
		c0,0.232-0.006,0.493-0.014,0.772c-0.031,1.229-0.078,3.088,0.557,3.751c0.106,0.111,0.277,0.24,0.658,0.248
		c0.016,0.001,0.032,0.001,0.047,0.001c1.901,0,3.283-2.403,3.94-3.845c0.983-2.167,1.952-4.494,2.378-6.818
		c0.1-0.542,0.617-0.905,1.164-0.803c0.543,0.1,0.903,0.62,0.803,1.164c-0.464,2.536-1.488,5-2.525,7.285
		C7.562,40.112,5.519,41.89,3.278,41.89z"/>
	<g>
		<path d="M35.449,30.527c-2.052,0-3.323-1.212-4.452-2.288c-0.274-0.261-0.553-0.527-0.848-0.78
			c-2.108-1.816-2.722-3.922-1.644-5.633c0.295-0.467,0.911-0.605,1.379-0.313c0.467,0.294,0.607,0.912,0.313,1.379
			c-0.745,1.184,0.773,2.634,1.256,3.05c0.32,0.275,0.625,0.564,0.924,0.85c1.179,1.123,1.96,1.8,3.278,1.729
			c1.96-0.114,3.004-1.957,4.073-4.172c0.307-0.638,0.691-1.283,1.063-1.907c0.754-1.265,1.533-2.572,1.661-3.817
			c0.178-1.715-0.809-2.841-2.689-4.319l-0.435-0.343c-1.529-1.208-3.11-2.458-4.897-3.182c-0.513-0.207-0.759-0.791-0.552-1.302
			c0.207-0.512,0.793-0.759,1.302-0.551c2.053,0.832,3.748,2.17,5.388,3.466L41,12.734c1.409,1.107,3.767,2.96,3.443,6.097
			c-0.174,1.684-1.068,3.185-1.934,4.636c-0.366,0.613-0.711,1.191-0.979,1.751c-0.982,2.035-2.466,5.109-5.757,5.3
			C35.664,30.524,35.556,30.527,35.449,30.527z"/>
		<path d="M44.724,41.89c-2.242,0-4.285-1.776-5.761-5.015c-1.038-2.283-2.063-4.745-2.524-7.289
			c-0.098-0.544,0.263-1.064,0.806-1.163c0.55-0.098,1.064,0.264,1.163,0.806c0.422,2.329,1.392,4.653,2.376,6.817
			c0.656,1.44,2.037,3.843,3.94,3.844c0.016,0,0.031,0,0.047-0.001c0.382-0.008,0.553-0.137,0.659-0.248
			c0.633-0.663,0.586-2.52,0.555-3.748c-0.007-0.28-0.014-0.542-0.014-0.775c0-2.688-0.519-5.27-1.025-7.439
			c-0.186-0.779-0.303-1.619-0.427-2.508c-0.249-1.785-0.507-3.63-1.333-4.872c-0.307-0.46-0.182-1.081,0.278-1.387
			c0.458-0.306,1.08-0.182,1.386,0.278c1.079,1.621,1.383,3.79,1.649,5.703c0.118,0.842,0.229,1.636,0.393,2.326
			c0.534,2.285,1.079,5.007,1.079,7.898c0,0.219,0.006,0.463,0.013,0.725c0.042,1.652,0.1,3.916-1.107,5.181
			c-0.524,0.549-1.238,0.849-2.063,0.866C44.783,41.889,44.753,41.89,44.724,41.89z"/>
	</g>
</g>
</svg>
