<?xml version="1.0" encoding="utf-8"?>
<!-- Generator: Adobe Illustrator 16.0.0, SVG Export Plug-In . SVG Version: 6.00 Build 0)  -->
<!DOCTYPE svg PUBLIC "-//W3C//DTD SVG 1.1//EN" "http://www.w3.org/Graphics/SVG/1.1/DTD/svg11.dtd">
<svg version="1.1" id="Layer_1" xmlns="http://www.w3.org/2000/svg" xmlns:xlink="http://www.w3.org/1999/xlink" x="0px" y="0px"
	 width="48px" height="48px" viewBox="0 0 48 48" enable-background="new 0 0 48 48" xml:space="preserve">
<g>
	<path d="M17.317,17.893c0,0.562-0.454,1.016-1.014,1.016c-0.563,0-1.017-0.455-1.017-1.016c0-0.564,0.455-1.019,1.017-1.019
		C16.863,16.875,17.317,17.329,17.317,17.893z"/>
	<path d="M25.018,17.893c0,0.562-0.457,1.016-1.017,1.016c-0.567,0-1.019-0.455-1.019-1.016c0-0.564,0.452-1.019,1.019-1.019
		C24.561,16.875,25.018,17.329,25.018,17.893z"/>
	<path d="M32.71,17.893c0,0.562-0.452,1.016-1.017,1.016c-0.563,0-1.017-0.455-1.017-1.016c0-0.564,0.454-1.019,1.017-1.019
		C32.258,16.875,32.71,17.329,32.71,17.893z"/>
	<circle cx="20.152" cy="12.809" r="1.016"/>
	<circle cx="27.848" cy="12.809" r="1.016"/>
	<path d="M41.068,25.292H6.932c-0.552,0-1-0.447-1-1c0-10.823,8.105-19.628,18.069-19.628c9.962,0,18.067,8.805,18.067,19.628
		C42.068,24.845,41.621,25.292,41.068,25.292z M7.958,23.292h32.085c-0.475-9.256-7.488-16.628-16.042-16.628
		C15.447,6.664,8.432,14.036,7.958,23.292z"/>
	<g>
		<path d="M45,33.469H3c-1.654,0-3-1.346-3-3v-4.178c0-1.654,1.346-3,3-3h42c1.654,0,3,1.346,3,3v4.178
			C48,32.123,46.654,33.469,45,33.469z M3,25.291c-0.551,0-1,0.448-1,1v4.178c0,0.552,0.449,1,1,1h42c0.552,0,1-0.448,1-1v-4.178
			c0-0.552-0.448-1-1-1H3z"/>
	</g>
	<g>
		<path d="M41.691,43.337H6.311c-1.103,0-2-0.897-2-2v-7.868c0-1.103,0.897-2,2-2h35.38c1.103,0,2,0.897,2,2v7.868
			C43.691,42.439,42.794,43.337,41.691,43.337z M41.691,41.337v1V41.337L41.691,41.337L41.691,41.337z M6.311,33.469v7.868h35.377
			l0.003-7.868H6.311z"/>
	</g>
</g>
</svg>
