<?xml version="1.0" encoding="utf-8"?>
<!-- Generator: Adobe Illustrator 16.0.0, SVG Export Plug-In . SVG Version: 6.00 Build 0)  -->
<!DOCTYPE svg PUBLIC "-//W3C//DTD SVG 1.1//EN" "http://www.w3.org/Graphics/SVG/1.1/DTD/svg11.dtd">
<svg version="1.1" id="Layer_1" xmlns="http://www.w3.org/2000/svg" xmlns:xlink="http://www.w3.org/1999/xlink" x="0px" y="0px"
	 width="48px" height="48px" viewBox="0 0 48 48" enable-background="new 0 0 48 48" xml:space="preserve">
<g>
	<path d="M10.109,39.725c0,0.736-0.595,1.33-1.331,1.33c-0.732,0-1.333-0.594-1.333-1.33c0-0.74,0.6-1.334,1.333-1.334
		C9.514,38.391,10.109,38.984,10.109,39.725z"/>
	<path d="M11.443,32.585c0,0.735-0.595,1.333-1.327,1.333c-0.743,0-1.338-0.598-1.338-1.333c0-0.737,0.595-1.331,1.338-1.331
		C10.848,31.254,11.443,31.848,11.443,32.585z"/>
	<path d="M17.343,37.782c0,0.735-0.595,1.331-1.329,1.331c-0.737,0-1.336-0.596-1.336-1.331c0-0.739,0.599-1.332,1.336-1.332
		C16.748,36.45,17.343,37.043,17.343,37.782z"/>
	<path d="M10.979,48c-2.923,0-5.672-1.139-7.741-3.206c-2.068-2.065-3.207-4.813-3.207-7.737c0-2.923,1.139-5.672,3.207-7.74
		c2.068-2.066,4.816-3.203,7.738-3.203c2.922,0,5.669,1.138,7.735,3.203c4.268,4.271,4.271,11.214,0.007,15.478
		C16.651,46.861,13.902,48,10.979,48z M10.977,28.113c-2.388,0-4.634,0.93-6.325,2.617c-1.69,1.69-2.621,3.938-2.621,6.326
		c0,2.389,0.931,4.635,2.621,6.323C6.343,45.069,8.59,46,10.979,46s4.636-0.931,6.326-2.62c3.484-3.484,3.48-9.158-0.008-12.649
		C15.61,29.042,13.365,28.113,10.977,28.113z"/>
	<path d="M18.904,44.609l-1.414-1.414l23.594-23.597c1.883-1.881,2.987-4.32,3.109-6.868c0.12-2.512-0.733-4.815-2.403-6.485
		c-1.669-1.669-3.979-2.514-6.483-2.402c-2.55,0.122-4.99,1.226-6.873,3.108L4.841,30.549l-1.414-1.414L27.02,5.537
		c2.235-2.235,5.145-3.546,8.191-3.691c3.084-0.152,5.922,0.914,7.993,2.985c2.073,2.073,3.134,4.913,2.986,7.995
		c-0.146,3.046-1.457,5.954-3.692,8.187L18.904,44.609z"/>
	<path d="M42.496,6.538c-0.254,0-0.507-0.096-0.702-0.288c-0.394-0.388-0.397-1.021-0.01-1.415l4.473-4.538
		c0.388-0.393,1.021-0.397,1.414-0.01c0.394,0.388,0.397,1.021,0.01,1.415L43.208,6.24C43.013,6.438,42.754,6.538,42.496,6.538z"/>
</g>
</svg>
