<?xml version="1.0" encoding="utf-8"?>
<!-- Generator: Adobe Illustrator 16.0.0, SVG Export Plug-In . SVG Version: 6.00 Build 0)  -->
<!DOCTYPE svg PUBLIC "-//W3C//DTD SVG 1.1//EN" "http://www.w3.org/Graphics/SVG/1.1/DTD/svg11.dtd">
<svg version="1.1" id="Layer_1" xmlns="http://www.w3.org/2000/svg" xmlns:xlink="http://www.w3.org/1999/xlink" x="0px" y="0px"
	 width="48px" height="48px" viewBox="0 0 48 48" enable-background="new 0 0 48 48" xml:space="preserve">
<g>
	<g>
		<path d="M18.826,17.638c-0.006,0.875-0.724,1.581-1.613,1.579c-0.878,0-1.6-0.713-1.6-1.588s0.725-1.583,1.611-1.577
			C18.108,16.051,18.83,16.76,18.826,17.638z"/>
		<path d="M25.52,17.652c0.008,0.874-0.718,1.586-1.599,1.577c-0.886,0-1.603-0.712-1.603-1.583c0-0.874,0.717-1.586,1.603-1.58
			C24.814,16.066,25.533,16.774,25.52,17.652z"/>
		<path d="M32.229,17.671c0,0.874-0.728,1.583-1.606,1.58c-0.886-0.003-1.604-0.715-1.604-1.589c0-0.875,0.728-1.578,1.613-1.574
			C31.514,16.083,32.229,16.792,32.229,17.671z"/>
		<path d="M22.166,24.305c0,0.872-0.718,1.581-1.603,1.581c-0.886-0.003-1.607-0.715-1.601-1.589
			c-0.006-0.875,0.721-1.582,1.604-1.582C21.456,22.715,22.173,23.43,22.166,24.305z"/>
		<path d="M28.868,24.32c0,0.875-0.722,1.581-1.611,1.581c-0.88,0-1.606-0.711-1.598-1.588c0-0.871,0.724-1.583,1.612-1.577
			C28.146,22.734,28.868,23.445,28.868,24.32z"/>
		<path d="M25.516,30.727c0,0.877-0.727,1.582-1.613,1.584c-0.886-0.006-1.597-0.715-1.604-1.588c0.007-0.875,0.725-1.58,1.609-1.58
			C24.797,29.146,25.516,29.855,25.516,30.727z"/>
	</g>
	<path d="M24.436,48c-0.369,0-0.708-0.203-0.881-0.528L2.292,7.773C2.04,7.301,2.204,6.713,2.664,6.44
		C9.878,2.167,17.261,0,24.608,0c12.546,0,20.51,6.253,20.843,6.52c0.371,0.297,0.481,0.814,0.265,1.238L25.325,47.457
		c-0.17,0.33-0.509,0.54-0.88,0.543C24.442,48,24.439,48,24.436,48z M4.512,7.681l19.906,37.167L43.543,7.61
		C41.44,6.18,34.451,2,24.608,2C17.903,2,11.147,3.911,4.512,7.681z"/>
	<path d="M8.187,15.389c-0.265,0-0.53-0.105-0.726-0.313c-0.38-0.401-0.362-1.034,0.039-1.414
		c0.456-0.432,11.423-10.452,34.455-0.959c0.511,0.21,0.754,0.795,0.544,1.305c-0.211,0.512-0.797,0.756-1.306,0.543
		C19.345,5.549,8.977,15.019,8.875,15.115C8.681,15.298,8.434,15.389,8.187,15.389z"/>
</g>
</svg>
