<?xml version="1.0" encoding="utf-8"?>
<!-- Generator: Adobe Illustrator 16.0.0, SVG Export Plug-In . SVG Version: 6.00 Build 0)  -->
<!DOCTYPE svg PUBLIC "-//W3C//DTD SVG 1.1//EN" "http://www.w3.org/Graphics/SVG/1.1/DTD/svg11.dtd">
<svg version="1.1" id="Layer_1" xmlns="http://www.w3.org/2000/svg" xmlns:xlink="http://www.w3.org/1999/xlink" x="0px" y="0px"
	 width="48px" height="48px" viewBox="0 0 48 48" enable-background="new 0 0 48 48" xml:space="preserve">
<g>
	<path d="M2.197,48c-0.219,0-0.435-0.072-0.611-0.209C1.34,47.602,1.197,47.31,1.197,47V31.736c0-0.445,0.294-0.837,0.721-0.96
		L45.622,18.1c0.304-0.087,0.628-0.028,0.879,0.161c0.251,0.188,0.399,0.485,0.399,0.799v16.549c0,0.455-0.308,0.853-0.748,0.968
		L2.449,47.968C2.366,47.989,2.281,48,2.197,48z M3.197,32.487v13.219L44.9,34.837V20.391L3.197,32.487z"/>
	<path d="M45.411,19.931c-4.929-2.782-12.416-4.561-22.256-5.289l0.147-1.994c10.136,0.749,17.904,2.613,23.091,5.542L45.411,19.931
		z"/>
	<path d="M3.191,31.277l-1.989-0.205L3.011,13.46c0.049-0.481,0.436-0.858,0.918-0.895c0.028-0.002,2.894-0.218,7.159-0.272l0.025,2
		c-2.856,0.036-5.068,0.146-6.2,0.212L3.191,31.277z"/>
	<path d="M2.097,39.807c-0.19,0-0.382-0.054-0.552-0.167c-0.46-0.305-0.586-0.926-0.281-1.386c2.012-3.032,8.78-3.998,10.807-4.223
		c1.846-0.204,3.84-0.176,5.771-0.146c3.099,0.046,6.302,0.095,8.748-0.851c1.541-0.599,2.38-1.401,3.268-2.252
		c1.477-1.414,3.003-2.877,7.294-3.162c0.459-0.03,0.902-0.053,1.331-0.074c1.884-0.095,3.372-0.17,4.663-0.868
		c0.951-0.512,1.709-1.722,1.742-2.156c0.042-0.552,0.529-0.968,1.072-0.922c0.551,0.042,0.964,0.522,0.922,1.072
		c-0.095,1.258-1.397,3.019-2.787,3.767c-1.688,0.912-3.46,1.002-5.513,1.104c-0.417,0.021-0.85,0.043-1.298,0.073
		c-3.565,0.236-4.714,1.337-6.044,2.61c-0.943,0.904-2.014,1.93-3.929,2.673c-2.81,1.085-6.208,1.034-9.5,0.984
		c-1.868-0.028-3.8-0.057-5.521,0.135c-4.611,0.51-8.373,1.852-9.36,3.34C2.739,39.649,2.421,39.807,2.097,39.807z"/>
	<path d="M17.185,24.806c-4.305,0-7.807-3.384-7.807-7.542c0-4.159,3.502-7.543,7.807-7.543c4.303,0,7.801,3.384,7.801,7.543
		C24.986,21.422,21.486,24.806,17.185,24.806z M17.188,11.72c-3.205,0-5.81,2.486-5.81,5.543c0,3.056,2.605,5.542,5.807,5.542
		c3.199,0,5.801-2.486,5.801-5.542C22.986,14.207,20.385,11.72,17.188,11.72z"/>
	<path d="M17.186,11.143c-0.537,0-0.98-0.426-0.999-0.966c-0.01-0.307-0.204-7.545,4.265-10.049
		c0.481-0.271,1.092-0.098,1.361,0.383c0.271,0.481,0.099,1.091-0.383,1.361c-2.836,1.59-3.303,6.485-3.243,8.237
		c0.019,0.552-0.414,1.015-0.965,1.034C17.208,11.143,17.197,11.143,17.186,11.143z"/>
</g>
</svg>
