<?xml version="1.0" encoding="utf-8"?>
<!-- Generator: Adobe Illustrator 16.0.0, SVG Export Plug-In . SVG Version: 6.00 Build 0)  -->
<!DOCTYPE svg PUBLIC "-//W3C//DTD SVG 1.1//EN" "http://www.w3.org/Graphics/SVG/1.1/DTD/svg11.dtd">
<svg version="1.1" id="Layer_1" xmlns="http://www.w3.org/2000/svg" xmlns:xlink="http://www.w3.org/1999/xlink" x="0px" y="0px"
	 width="48px" height="48px" viewBox="0 0 48 48" enable-background="new 0 0 48 48" xml:space="preserve">
<g>
	<g>
		<path d="M45,48H3c-1.654,0-3-1.346-3-3V30.909c0-1.654,1.346-3,3-3h42c1.654,0,3,1.346,3,3V45C48,46.654,46.654,48,45,48z
			 M3,29.909c-0.551,0-1,0.448-1,1V45c0,0.552,0.449,1,1,1h42c0.552,0,1-0.448,1-1V30.909c0-0.552-0.448-1-1-1H3z"/>
	</g>
	<g>
		<path d="M39.324,29.909H8.681c-1.654,0-3-1.346-3-3v-9.627c0-1.654,1.346-3,3-3h30.644c1.654,0,3,1.346,3,3v9.627
			C42.323,28.563,40.978,29.909,39.324,29.909z M8.681,16.282c-0.551,0-1,0.449-1,1v9.627c0,0.552,0.449,1,1,1h30.643
			c0.552,0,1-0.448,1-1l0.001-9.627c0-0.551-0.448-1-1-1H8.681z"/>
	</g>
	<g>
		<path d="M13.19,35.609H6.259c-0.552,0-1-0.447-1-1s0.448-1,1-1h6.931c0.552,0,1,0.447,1,1S13.742,35.609,13.19,35.609z"/>
		<path d="M27.463,35.609h-6.922c-0.552,0-1-0.447-1-1s0.448-1,1-1h6.922c0.553,0,1,0.447,1,1S28.016,35.609,27.463,35.609z"/>
		<path d="M41.74,35.609h-6.924c-0.553,0-1-0.447-1-1s0.447-1,1-1h6.924c0.553,0,1,0.447,1,1S42.293,35.609,41.74,35.609z"/>
	</g>
	<g>
		<path d="M14.932,25.277c-0.552,0-1-0.447-1-1v-4.369c0-0.552,0.448-1,1-1s1,0.448,1,1v4.369
			C15.932,24.83,15.484,25.277,14.932,25.277z"/>
		<path d="M24.002,25.277c-0.552,0-1-0.447-1-1v-4.369c0-0.552,0.448-1,1-1c0.553,0,1,0.448,1,1v4.369
			C25.002,24.83,24.555,25.277,24.002,25.277z"/>
		<path d="M33.073,25.277c-0.553,0-1-0.447-1-1v-4.369c0-0.552,0.447-1,1-1s1,0.448,1,1v4.369
			C34.073,24.83,33.626,25.277,33.073,25.277z"/>
	</g>
	<g>
		<path d="M14.932,16.282c-0.552,0-1-0.448-1-1V7.134c0-0.552,0.448-1,1-1s1,0.448,1,1v8.148
			C15.932,15.834,15.484,16.282,14.932,16.282z"/>
		<path d="M24.002,16.282c-0.552,0-1-0.448-1-1V7.134c0-0.552,0.448-1,1-1c0.553,0,1,0.448,1,1v8.148
			C25.002,15.834,24.555,16.282,24.002,16.282z"/>
		<path d="M33.073,16.282c-0.553,0-1-0.448-1-1V7.134c0-0.552,0.447-1,1-1s1,0.448,1,1v8.148
			C34.073,15.834,33.626,16.282,33.073,16.282z"/>
	</g>
	<g>
		<path d="M14.932,4.161c-0.552,0-1-0.448-1-1V1c0-0.552,0.448-1,1-1s1,0.448,1,1v2.161C15.932,3.713,15.484,4.161,14.932,4.161z"/>
		<path d="M24.002,4.161c-0.552,0-1-0.448-1-1V1c0-0.552,0.448-1,1-1c0.553,0,1,0.448,1,1v2.161
			C25.002,3.713,24.555,4.161,24.002,4.161z"/>
		<path d="M33.073,4.161c-0.553,0-1-0.448-1-1V1c0-0.552,0.447-1,1-1s1,0.448,1,1v2.161C34.073,3.713,33.626,4.161,33.073,4.161z"/>
	</g>
</g>
</svg>
