<?xml version="1.0" encoding="utf-8"?>
<!-- Generator: Adobe Illustrator 16.0.0, SVG Export Plug-In . SVG Version: 6.00 Build 0)  -->
<!DOCTYPE svg PUBLIC "-//W3C//DTD SVG 1.1//EN" "http://www.w3.org/Graphics/SVG/1.1/DTD/svg11.dtd">
<svg version="1.1" id="Layer_1" xmlns="http://www.w3.org/2000/svg" xmlns:xlink="http://www.w3.org/1999/xlink" x="0px" y="0px"
	 width="48px" height="48px" viewBox="0 0 48 48" enable-background="new 0 0 48 48" xml:space="preserve">
<g>
	<g>
		<path d="M29.193,48H7.751c-4.206,0-7.627-3.422-7.627-7.628V9.654c0-0.552,0.448-1,1-1h34.694c0.553,0,1,0.448,1,1v30.718
			C36.818,44.578,33.397,48,29.193,48z M2.124,10.654v29.718C2.124,43.476,4.648,46,7.751,46h21.442
			c3.102,0,5.625-2.524,5.625-5.628V10.654H2.124z"/>
		<path d="M35.818,35.965c-0.246,0-0.492-0.09-0.686-0.271c-0.402-0.379-0.421-1.012-0.043-1.414
			c0.204-0.217,0.48-0.499,0.813-0.839c2.875-2.934,11.625-11.864,9.7-17.405c-0.457-1.318-1.178-2.128-2.203-2.479
			c-2.353-0.801-5.876,0.989-7.034,1.748c-0.463,0.304-1.081,0.173-1.385-0.289c-0.302-0.462-0.173-1.082,0.289-1.384
			c0.203-0.134,5.024-3.246,8.775-1.968c1.625,0.555,2.785,1.805,3.447,3.716c2.331,6.711-6.745,15.974-10.161,19.461
			c-0.321,0.328-0.589,0.601-0.785,0.81C36.35,35.859,36.084,35.965,35.818,35.965z"/>
	</g>
	<path d="M22.566,7.026c-0.552,0-1-0.448-1-1V1c0-0.552,0.448-1,1-1s1,0.448,1,1v5.026C23.566,6.578,23.118,7.026,22.566,7.026z"/>
	<path d="M17.259,7.026c-0.552,0-1-0.448-1-1V1c0-0.552,0.448-1,1-1s1,0.448,1,1v5.026C18.259,6.578,17.811,7.026,17.259,7.026z"/>
	<path d="M11.953,7.026c-0.552,0-1-0.448-1-1V1c0-0.552,0.448-1,1-1s1,0.448,1,1v5.026C12.953,6.578,12.505,7.026,11.953,7.026z"/>
</g>
</svg>
