<?xml version="1.0" encoding="utf-8"?>
<!-- Generator: Adobe Illustrator 16.0.0, SVG Export Plug-In . SVG Version: 6.00 Build 0)  -->
<!DOCTYPE svg PUBLIC "-//W3C//DTD SVG 1.1//EN" "http://www.w3.org/Graphics/SVG/1.1/DTD/svg11.dtd">
<svg version="1.1" id="Layer_1" xmlns="http://www.w3.org/2000/svg" xmlns:xlink="http://www.w3.org/1999/xlink" x="0px" y="0px"
	 width="48px" height="48px" viewBox="0 0 48 48" enable-background="new 0 0 48 48" xml:space="preserve">
<g>
	<g>
		<path d="M21.146,32.136L21.146,32.136c-0.279,0-0.545-0.116-0.734-0.32L3.164,13.177c-0.27-0.292-0.342-0.715-0.183-1.08
			s0.519-0.6,0.917-0.6h34.506c0.397,0,0.757,0.235,0.916,0.6s0.088,0.788-0.183,1.08L21.88,31.815
			C21.69,32.02,21.424,32.136,21.146,32.136z M6.186,13.498l14.96,16.166l14.969-16.166H6.186z"/>
		<path d="M21.146,48c-0.552,0-1-0.447-1-1V31.988c0-0.553,0.448-1,1-1s1,0.447,1,1V47C22.146,47.553,21.698,48,21.146,48z"/>
		<path d="M26.855,48H15.445c-0.552,0-1-0.447-1-1s0.448-1,1-1h11.411c0.553,0,1,0.447,1,1S27.408,48,26.855,48z"/>
	</g>
	<path d="M31.49,20.92H11.823c-0.552,0-1-0.448-1-1s0.448-1,1-1H31.49c0.553,0,1,0.448,1,1S32.043,20.92,31.49,20.92z"/>
	<path d="M34.333,21.536c-1.084,0-2.159-0.162-3.196-0.482c-0.527-0.163-0.823-0.723-0.66-1.25c0.162-0.528,0.718-0.824,1.25-0.661
		c0.846,0.261,1.723,0.394,2.606,0.394c4.835,0,8.769-3.934,8.769-8.77C43.102,5.933,39.168,2,34.333,2
		c-2.341,0-4.54,0.912-6.194,2.567c-1.655,1.656-2.565,3.857-2.565,6.198c0,0.434,0.02,0.772,0.062,1.067
		c0.077,0.547-0.303,1.053-0.85,1.131c-0.55,0.076-1.053-0.303-1.131-0.85c-0.055-0.39-0.081-0.819-0.081-1.349
		c0-2.875,1.118-5.579,3.15-7.612C28.756,1.12,31.458,0,34.333,0c5.938,0,10.769,4.83,10.769,10.766
		C45.102,16.705,40.271,21.536,34.333,21.536z"/>
	<path d="M34.009,11.474c-0.099,0-0.197-0.015-0.293-0.044c-0.272-0.083-0.496-0.279-0.615-0.539L29.523,3.11
		c-0.231-0.501-0.012-1.095,0.49-1.326c0.504-0.231,1.097-0.011,1.326,0.491l3.109,6.762l7.492-4.548
		c0.473-0.285,1.088-0.136,1.373,0.336c0.287,0.472,0.137,1.087-0.336,1.374l-8.451,5.13C34.37,11.425,34.189,11.474,34.009,11.474z
		"/>
</g>
</svg>
