<?xml version="1.0" encoding="utf-8"?>
<!-- Generator: Adobe Illustrator 16.0.0, SVG Export Plug-In . SVG Version: 6.00 Build 0)  -->
<!DOCTYPE svg PUBLIC "-//W3C//DTD SVG 1.1//EN" "http://www.w3.org/Graphics/SVG/1.1/DTD/svg11.dtd">
<svg version="1.1" id="Layer_1" xmlns="http://www.w3.org/2000/svg" xmlns:xlink="http://www.w3.org/1999/xlink" x="0px" y="0px"
	 width="48px" height="48px" viewBox="0 0 48 48" enable-background="new 0 0 48 48" xml:space="preserve">
<g>
	<g>
		<path d="M31.934,48H13.233c-0.521,0-0.956-0.401-0.997-0.921L9.135,7.851C9.113,7.573,9.208,7.298,9.397,7.093
			c0.189-0.205,0.456-0.321,0.734-0.321h24.902c0.279,0,0.545,0.117,0.734,0.321c0.189,0.205,0.284,0.479,0.263,0.757l-3.101,39.229
			C32.89,47.599,32.455,48,31.934,48z M14.157,46H31.01l2.942-37.228H11.214L14.157,46z"/>
		<path d="M33.223,20.573H12.115c-0.552,0-1-0.448-1-1s0.448-1,1-1h21.107c0.553,0,1,0.448,1,1S33.775,20.573,33.223,20.573z"/>
	</g>
	<path d="M24.354,19.57c-0.138,0-0.277-0.029-0.411-0.089c-0.503-0.227-0.728-0.819-0.5-1.323l7.928-17.57
		c0.211-0.471,0.747-0.704,1.234-0.535l5.587,1.909c0.522,0.179,0.802,0.747,0.623,1.27c-0.178,0.523-0.745,0.801-1.27,0.623
		L32.818,2.24l-7.553,16.741C25.099,19.351,24.734,19.57,24.354,19.57z"/>
</g>
</svg>
