<?xml version="1.0" encoding="utf-8"?>
<!-- Generator: Adobe Illustrator 16.0.0, SVG Export Plug-In . SVG Version: 6.00 Build 0)  -->
<!DOCTYPE svg PUBLIC "-//W3C//DTD SVG 1.1//EN" "http://www.w3.org/Graphics/SVG/1.1/DTD/svg11.dtd">
<svg version="1.1" id="Layer_1" xmlns="http://www.w3.org/2000/svg" xmlns:xlink="http://www.w3.org/1999/xlink" x="0px" y="0px"
	 width="48px" height="48px" viewBox="0 0 48 48" enable-background="new 0 0 48 48" xml:space="preserve">
<g>
	<path d="M32.078,48h-16.16c-0.519,0-0.952-0.396-0.996-0.914L12.235,16.01c-0.024-0.279,0.07-0.556,0.259-0.762
		c0.189-0.207,0.457-0.324,0.737-0.324h21.535c0.28,0,0.548,0.118,0.737,0.324s0.283,0.483,0.259,0.762l-2.688,31.076
		C33.029,47.604,32.597,48,32.078,48z M16.835,46h14.326l2.515-29.076H14.321L16.835,46z"/>
	<path d="M36.154,16.924H11.847c-0.552,0-1-0.448-1-1c0-4.76,2.964-9.008,7.611-10.998V1c0-0.552,0.448-1,1-1h9.084
		c0.553,0,1,0.448,1,1v3.926c4.646,1.989,7.61,6.237,7.612,10.998c0,0.265-0.105,0.52-0.293,0.708S36.42,16.924,36.154,16.924z
		 M12.901,14.924h22.2c-0.402-3.721-3.023-6.945-6.906-8.383c-0.392-0.146-0.652-0.52-0.652-0.938V2h-7.084v3.603
		c0,0.418-0.26,0.792-0.652,0.938C15.923,7.979,13.302,11.204,12.901,14.924z"/>
</g>
</svg>
