<?xml version="1.0" encoding="utf-8"?>
<!-- Generator: Adobe Illustrator 16.0.0, SVG Export Plug-In . SVG Version: 6.00 Build 0)  -->
<!DOCTYPE svg PUBLIC "-//W3C//DTD SVG 1.1//EN" "http://www.w3.org/Graphics/SVG/1.1/DTD/svg11.dtd">
<svg version="1.1" id="Layer_1" xmlns="http://www.w3.org/2000/svg" xmlns:xlink="http://www.w3.org/1999/xlink" x="0px" y="0px"
	 width="48px" height="48px" viewBox="0 0 48 48" enable-background="new 0 0 48 48" xml:space="preserve">
<g>
	<g>
		<path d="M38.684,41.525H9.317c-0.552,0-1-0.447-1-1V7.471c0-0.552,0.448-1,1-1h29.367c0.553,0,1,0.448,1,1v33.054
			C39.684,41.078,39.236,41.525,38.684,41.525z M10.317,39.525h27.367V8.471H10.317V39.525z"/>
		<path d="M32.512,48H15.485c-0.273,0-0.535-0.112-0.724-0.311l-6.168-6.475c-0.276-0.289-0.353-0.716-0.195-1.083
			c0.157-0.368,0.519-0.606,0.919-0.606h29.367c0.4,0,0.762,0.238,0.919,0.606c0.158,0.367,0.081,0.794-0.195,1.084l-6.172,6.475
			C33.047,47.888,32.785,48,32.512,48z M15.914,46h16.169l4.266-4.475H11.651L15.914,46z"/>
		<path d="M38.703,8.471c-0.005,0-0.013,0-0.02,0H9.317c-0.4,0-0.762-0.238-0.919-0.606C8.24,7.497,8.317,7.071,8.593,6.781
			l6.168-6.471C14.95,0.112,15.211,0,15.485,0h17.027c0.273,0,0.535,0.112,0.724,0.31L39.3,6.668
			c0.245,0.182,0.403,0.474,0.403,0.803C39.703,8.023,39.256,8.471,38.703,8.471z M11.651,6.471h24.696L32.084,2H15.913
			L11.651,6.471z"/>
	</g>
	<path d="M24,32.234c-5.346,0-9.695-3.694-9.695-8.236c0-4.542,4.349-8.236,9.695-8.236s9.695,3.694,9.695,8.236
		C33.695,28.54,29.346,32.234,24,32.234z M24,17.762c-4.243,0-7.695,2.797-7.695,6.236s3.452,6.236,7.695,6.236
		s7.695-2.798,7.695-6.236S28.243,17.762,24,17.762z"/>
	<path d="M14.296,24.998h-4.202c-0.552,0-1-0.447-1-1c0-0.552,0.448-1,1-1h4.202c0.552,0,1,0.448,1,1
		C15.296,24.551,14.848,24.998,14.296,24.998z"/>
	<path d="M37.637,24.998h-4.203c-0.553,0-1-0.447-1-1c0-0.552,0.447-1,1-1h4.203c0.553,0,1,0.448,1,1
		C38.637,24.551,38.189,24.998,37.637,24.998z"/>
</g>
</svg>
