<?xml version="1.0" encoding="utf-8"?>
<!-- Generator: Adobe Illustrator 16.0.0, SVG Export Plug-In . SVG Version: 6.00 Build 0)  -->
<!DOCTYPE svg PUBLIC "-//W3C//DTD SVG 1.1//EN" "http://www.w3.org/Graphics/SVG/1.1/DTD/svg11.dtd">
<svg version="1.1" id="Layer_1" xmlns="http://www.w3.org/2000/svg" xmlns:xlink="http://www.w3.org/1999/xlink" x="0px" y="0px"
	 width="48px" height="48px" viewBox="0 0 48 48" enable-background="new 0 0 48 48" xml:space="preserve">
<g>
	<path d="M38.659,48H9.339c-0.518,0-0.95-0.396-0.996-0.912l-2.176-24.57c-0.025-0.28,0.069-0.557,0.258-0.764
		s0.457-0.325,0.738-0.325h33.673c0.28,0,0.548,0.118,0.737,0.325s0.283,0.484,0.259,0.764l-2.177,24.57
		C39.609,47.604,39.178,48,38.659,48z M10.254,46h27.49l1.999-22.571H8.255L10.254,46z"/>
	<path d="M40.662,23.428H7.338c-0.286,0-0.558-0.122-0.748-0.335c-0.189-0.213-0.279-0.498-0.246-0.782
		c0.953-8.084,8.543-14.18,17.656-14.18c9.11,0,16.7,6.096,17.654,14.18c0.033,0.284-0.056,0.568-0.246,0.782
		C41.22,23.306,40.947,23.428,40.662,23.428z M8.514,21.428h30.971c-1.374-6.515-7.819-11.297-15.484-11.297
		C16.334,10.131,9.888,14.914,8.514,21.428z"/>
	<path d="M46.998,23.429H1.001c-0.552,0-1-0.448-1-1s0.448-1,1-1h45.997c0.553,0,1,0.448,1,1S47.551,23.429,46.998,23.429z"/>
	<path d="M24.001,10.131c-2.781,0-5.044-2.272-5.044-5.066C18.958,2.272,21.221,0,24.001,0c2.78,0,5.042,2.272,5.042,5.065
		C29.043,7.858,26.781,10.131,24.001,10.131z M24.001,2c-1.678,0-3.043,1.375-3.044,3.065c0,1.69,1.366,3.065,3.044,3.065
		c1.678,0,3.042-1.375,3.042-3.066C27.043,3.375,25.679,2,24.001,2z"/>
</g>
</svg>
