<?xml version="1.0" encoding="utf-8"?>
<!-- Generator: Adobe Illustrator 16.0.0, SVG Export Plug-In . SVG Version: 6.00 Build 0)  -->
<!DOCTYPE svg PUBLIC "-//W3C//DTD SVG 1.1//EN" "http://www.w3.org/Graphics/SVG/1.1/DTD/svg11.dtd">
<svg version="1.1" id="Layer_1" xmlns="http://www.w3.org/2000/svg" xmlns:xlink="http://www.w3.org/1999/xlink" x="0px" y="0px"
	 width="48px" height="48px" viewBox="0 0 48 48" enable-background="new 0 0 48 48" xml:space="preserve">
<g>
	<path d="M34.277,48H14.646c-0.536,0-0.976-0.422-0.999-0.957l-1.456-33.909c-0.012-0.272,0.088-0.538,0.277-0.735
		s0.45-0.308,0.722-0.308h22.544c0.272,0,0.533,0.111,0.722,0.308c0.189,0.197,0.289,0.462,0.277,0.735l-1.457,33.909
		C35.254,47.578,34.813,48,34.277,48z M15.604,46h17.715l1.371-31.909H14.234L15.604,46z"/>
	<path d="M35.618,14.092H13.302c-0.286,0-0.558-0.122-0.748-0.336c-0.19-0.214-0.279-0.499-0.246-0.782
		c0.665-5.579,5.89-9.786,12.153-9.786c6.269,0,11.491,4.208,12.149,9.787c0.033,0.284-0.056,0.568-0.246,0.782
		C36.176,13.97,35.903,14.092,35.618,14.092z M14.509,12.092h19.903c-1.06-4.005-5.133-6.904-9.95-6.904
		C19.648,5.188,15.574,8.086,14.509,12.092z"/>
	<path d="M14.172,37.033c-0.394,0-0.767-0.234-0.926-0.621L3.848,13.47c-0.126-0.308-0.091-0.659,0.095-0.936
		c0.186-0.277,0.497-0.443,0.831-0.443h4.57c0.328,0,0.634,0.16,0.821,0.429l4.097,5.892c0.315,0.453,0.204,1.077-0.25,1.392
		c-0.453,0.316-1.076,0.205-1.392-0.25L8.82,14.091H6.263l8.834,21.563c0.209,0.511-0.035,1.095-0.546,1.305
		C14.427,37.01,14.298,37.033,14.172,37.033z"/>
	<path d="M34.624,39.932c-0.189,0-0.381-0.054-0.551-0.166c-0.461-0.305-0.587-0.926-0.282-1.386
		c4.338-6.553,9.742-16.935,8.178-19.497c-0.552-0.906-1.206-1.414-2.002-1.553c-1.735-0.307-3.586,1.171-3.604,1.186
		c-0.431,0.346-1.061,0.276-1.405-0.151c-0.346-0.429-0.28-1.057,0.147-1.404c0.104-0.084,2.563-2.053,5.196-1.603
		c1.382,0.239,2.518,1.075,3.376,2.484c2.79,4.57-6.356,18.83-8.218,21.642C35.267,39.774,34.948,39.932,34.624,39.932z"/>
	<path d="M24.462,4.495c-0.552,0-1-0.448-1-1V1c0-0.552,0.448-1,1-1c0.553,0,1,0.448,1,1v2.495
		C25.462,4.047,25.015,4.495,24.462,4.495z"/>
</g>
</svg>
