<?xml version="1.0" encoding="utf-8"?>
<!-- Generator: Adobe Illustrator 16.0.0, SVG Export Plug-In . SVG Version: 6.00 Build 0)  -->
<!DOCTYPE svg PUBLIC "-//W3C//DTD SVG 1.1//EN" "http://www.w3.org/Graphics/SVG/1.1/DTD/svg11.dtd">
<svg version="1.1" id="Layer_1" xmlns="http://www.w3.org/2000/svg" xmlns:xlink="http://www.w3.org/1999/xlink" x="0px" y="0px"
	 width="48px" height="48px" viewBox="0 0 48 48" enable-background="new 0 0 48 48" xml:space="preserve">
<g>
	<path d="M7.962,15.436H6.1c-3.364,0-6.1-2.735-6.1-6.096V1.104c0-0.552,0.448-1,1-1s1,0.448,1,1V9.34
		c0,2.259,1.839,4.096,4.1,4.096h1.862c2.259,0,4.097-1.837,4.097-4.096V1.104c0-0.552,0.448-1,1-1s1,0.448,1,1V9.34
		C14.059,12.701,11.324,15.436,7.962,15.436z"/>
	<path d="M7.028,47.896c-0.552,0-1-0.447-1-1V1.104c0-0.552,0.448-1,1-1s1,0.448,1,1v45.792C8.028,47.449,7.58,47.896,7.028,47.896z
		"/>
	<path d="M26.025,47.896c-0.553,0-1-0.447-1-1V21.978c0-0.552,0.447-1,1-1s1,0.448,1,1v24.918
		C27.025,47.449,26.578,47.896,26.025,47.896z"/>
	<path d="M47,47.896c-0.553,0-1-0.447-1-1v-22.69l-6.711-0.142c-0.512-0.011-0.932-0.406-0.975-0.916
		c-1.671-19.87,7.997-22.886,8.409-23.005c0.3-0.088,0.626-0.028,0.878,0.162C47.853,0.494,48,0.79,48,1.104v22.118
		c0,0.003,0,0.006,0,0.009v23.666C48,47.449,47.553,47.896,47,47.896z M40.239,22.083L46,22.206V2.757
		C43.741,4.324,39.356,9.078,40.239,22.083z"/>
	<path d="M26.025,22.256c-4.667,0-8.463-4.969-8.463-11.076c0-6.107,3.797-11.076,8.463-11.076c4.668,0,8.465,4.969,8.465,11.076
		C34.49,17.287,30.693,22.256,26.025,22.256z M26.025,2.104c-3.564,0-6.463,4.072-6.463,9.076s2.899,9.076,6.463,9.076
		c3.564,0,6.465-4.071,6.465-9.076S29.59,2.104,26.025,2.104z"/>
</g>
</svg>
