<?xml version="1.0" encoding="utf-8"?>
<!-- Generator: Adobe Illustrator 16.0.0, SVG Export Plug-In . SVG Version: 6.00 Build 0)  -->
<!DOCTYPE svg PUBLIC "-//W3C//DTD SVG 1.1//EN" "http://www.w3.org/Graphics/SVG/1.1/DTD/svg11.dtd">
<svg version="1.1" id="Layer_1" xmlns="http://www.w3.org/2000/svg" xmlns:xlink="http://www.w3.org/1999/xlink" x="0px" y="0px"
	 width="48px" height="48px" viewBox="0 0 48 48" enable-background="new 0 0 48 48" xml:space="preserve">
<g>
	<path d="M27.863,48c-7.369,0-13.364-5.996-13.364-13.365c0-0.553,0.448-1,1-1h24.726c0.553,0,1,0.447,1,1
		C41.225,42.004,35.23,48,27.863,48z M16.542,35.635C17.051,41.435,21.934,46,27.863,46c5.928,0,10.81-4.565,11.317-10.365H16.542z"
		/>
	<path d="M15.499,34.557c-0.552,0-1-0.447-1-1V7.543c0.004-0.094,0.127-2.167-1.316-3.713C12.048,2.616,10.229,2,7.775,2
		c-0.552,0-1-0.448-1-1s0.448-1,1-1c3.047,0,5.366,0.838,6.893,2.49c2.034,2.201,1.837,5.013,1.828,5.131l0.003,25.935
		C16.499,34.109,16.051,34.557,15.499,34.557z"/>
</g>
</svg>
