<?xml version="1.0" encoding="utf-8"?>
<!-- Generator: Adobe Illustrator 16.0.0, SVG Export Plug-In . SVG Version: 6.00 Build 0)  -->
<!DOCTYPE svg PUBLIC "-//W3C//DTD SVG 1.1//EN" "http://www.w3.org/Graphics/SVG/1.1/DTD/svg11.dtd">
<svg version="1.1" id="Layer_1" xmlns="http://www.w3.org/2000/svg" xmlns:xlink="http://www.w3.org/1999/xlink" x="0px" y="0px"
	 width="48px" height="48px" viewBox="0 0 48 48" enable-background="new 0 0 48 48" xml:space="preserve">
<g>
	<g>
		<path d="M28.768,34.736H2c-1.103,0-2-0.897-2-2V15.262c0-1.103,0.897-2,2-2h26.768c1.103,0,2,0.897,2,2v17.474
			C30.768,33.839,29.87,34.736,28.768,34.736z M28.768,32.736v1V32.736L28.768,32.736z M2,15.262v17.474h26.766l0.002-17.474H2z"/>
	</g>
	<path d="M47,20.949H29.768c-0.553,0-1-0.448-1-1s0.447-1,1-1H46v-3.687H19.23c-0.552,0-1-0.448-1-1s0.448-1,1-1H47
		c0.553,0,1,0.448,1,1v5.687C48,20.501,47.553,20.949,47,20.949z"/>
</g>
</svg>
