<?xml version="1.0" encoding="utf-8"?>
<!-- Generator: Adobe Illustrator 16.0.0, SVG Export Plug-In . SVG Version: 6.00 Build 0)  -->
<!DOCTYPE svg PUBLIC "-//W3C//DTD SVG 1.1//EN" "http://www.w3.org/Graphics/SVG/1.1/DTD/svg11.dtd">
<svg version="1.1" id="Layer_1" xmlns="http://www.w3.org/2000/svg" xmlns:xlink="http://www.w3.org/1999/xlink" x="0px" y="0px"
	 width="48px" height="48px" viewBox="0 0 48 48" enable-background="new 0 0 48 48" xml:space="preserve">
<g>
	<g>
		<path d="M36.368,48H11.631c-0.813,0-1.56-0.322-2.1-0.906c-0.541-0.585-0.803-1.354-0.74-2.166l2.78-35.253
			c0.126-1.607,1.541-2.916,3.154-2.916h18.548c1.611,0,3.026,1.307,3.155,2.914l2.779,35.255c0.064,0.811-0.198,1.58-0.738,2.165
			C37.929,47.678,37.183,48,36.368,48z M14.725,8.759c-0.573,0-1.116,0.501-1.16,1.072l-2.78,35.253
			c-0.02,0.25,0.057,0.481,0.214,0.652C11.157,45.906,11.381,46,11.631,46h24.737c0.25,0,0.475-0.094,0.632-0.265
			c0.158-0.17,0.233-0.401,0.214-0.65L34.435,9.832c-0.047-0.581-0.578-1.073-1.161-1.073H14.725z"/>
	</g>
	<path d="M29.361,8.017c-0.553,0-1-0.448-1-1V2h-8.722v5.017c0,0.552-0.448,1-1,1s-1-0.448-1-1V1c0-0.552,0.448-1,1-1h10.722
		c0.553,0,1,0.448,1,1v6.017C30.361,7.569,29.914,8.017,29.361,8.017z"/>
	<path d="M21.387,16.224c0,0.789-0.642,1.429-1.432,1.429c-0.787,0-1.424-0.64-1.424-1.429c0-0.787,0.637-1.429,1.424-1.429
		C20.745,14.795,21.387,15.437,21.387,16.224z"/>
	<circle cx="28.045" cy="16.224" r="1.428"/>
	<path d="M21.387,23.661c0,0.789-0.642,1.429-1.432,1.429c-0.787,0-1.424-0.64-1.424-1.429c0-0.791,0.637-1.429,1.424-1.429
		C20.745,22.232,21.387,22.871,21.387,23.661z"/>
	<circle cx="28.045" cy="23.661" r="1.428"/>
	<path d="M21.387,31.096c0,0.79-0.642,1.43-1.432,1.43c-0.787,0-1.424-0.64-1.424-1.43c0-0.785,0.637-1.427,1.424-1.427
		C20.745,29.669,21.387,30.311,21.387,31.096z"/>
	<path d="M29.473,31.096c0,0.79-0.641,1.43-1.431,1.43c-0.787,0-1.425-0.64-1.425-1.43c0-0.785,0.638-1.427,1.425-1.427
		C28.832,29.669,29.473,30.311,29.473,31.096z"/>
	<path d="M21.387,38.532c0,0.792-0.642,1.428-1.432,1.428c-0.787,0-1.424-0.636-1.424-1.428c0-0.786,0.637-1.427,1.424-1.427
		C20.745,37.105,21.387,37.746,21.387,38.532z"/>
	<path d="M29.473,38.532c0,0.792-0.641,1.428-1.431,1.428c-0.787,0-1.425-0.636-1.425-1.428c0-0.786,0.638-1.427,1.425-1.427
		C28.832,37.105,29.473,37.746,29.473,38.532z"/>
</g>
</svg>
