<?xml version="1.0" encoding="utf-8"?>
<!-- Generator: Adobe Illustrator 16.0.0, SVG Export Plug-In . SVG Version: 6.00 Build 0)  -->
<!DOCTYPE svg PUBLIC "-//W3C//DTD SVG 1.1//EN" "http://www.w3.org/Graphics/SVG/1.1/DTD/svg11.dtd">
<svg version="1.1" id="Layer_1" xmlns="http://www.w3.org/2000/svg" xmlns:xlink="http://www.w3.org/1999/xlink" x="0px" y="0px"
	 width="48px" height="48px" viewBox="0 0 48 48" enable-background="new 0 0 48 48" xml:space="preserve">
<g>
	<ellipse cx="33.932" cy="6.979" rx="1.43" ry="1.51"/>
	<path d="M35.359,12.482c0,0.834-0.641,1.513-1.428,1.513c-0.789,0-1.43-0.679-1.43-1.513c0-0.832,0.641-1.507,1.43-1.507
		C34.719,10.975,35.359,11.65,35.359,12.482z"/>
	<path d="M47.02,42.525c-0.005,0.001-0.012,0-0.02,0H1c-0.311,0-0.604-0.145-0.792-0.391c-0.189-0.246-0.254-0.566-0.174-0.866
		l6.128-23.064c0.116-0.438,0.513-0.743,0.966-0.743H40.87c0.453,0,0.85,0.305,0.967,0.743l6.08,22.879
		c0.066,0.134,0.103,0.283,0.103,0.442C48.02,42.078,47.572,42.525,47.02,42.525z M2.3,40.525h43.399l-5.598-21.064H7.897
		L2.3,40.525z"/>
	<path d="M40.95,19.461H7.048c-0.552,0-1-0.448-1-1V1c0-0.552,0.448-1,1-1H40.95c0.553,0,1,0.448,1,1v17.461
		C41.95,19.013,41.503,19.461,40.95,19.461z M8.048,17.461H39.95V2H8.048V17.461z"/>
	<path d="M23.356,14.996H12.225c-0.552,0-1-0.448-1-1V5.469c0-0.552,0.448-1,1-1h11.131c0.552,0,1,0.448,1,1v8.527
		C24.356,14.548,23.908,14.996,23.356,14.996z M13.225,12.996h9.131V6.469h-9.131V12.996z"/>
	<path d="M47,48H1c-0.552,0-1-0.447-1-1s0.448-1,1-1h46c0.553,0,1,0.447,1,1S47.553,48,47,48z"/>
</g>
</svg>
