<?xml version="1.0" encoding="utf-8"?>
<!-- Generator: Adobe Illustrator 16.0.0, SVG Export Plug-In . SVG Version: 6.00 Build 0)  -->
<!DOCTYPE svg PUBLIC "-//W3C//DTD SVG 1.1//EN" "http://www.w3.org/Graphics/SVG/1.1/DTD/svg11.dtd">
<svg version="1.1" id="Layer_1" xmlns="http://www.w3.org/2000/svg" xmlns:xlink="http://www.w3.org/1999/xlink" x="0px" y="0px"
	 width="48px" height="48px" viewBox="0 0 48 48" enable-background="new 0 0 48 48" xml:space="preserve">
<g>
	<g>
		<path d="M26.889,39.374c0,1.633-1.298,2.964-2.899,2.964c-1.583,0-2.876-1.331-2.876-2.964c0-1.634,1.292-2.961,2.876-2.961
			C25.591,36.413,26.889,37.74,26.889,39.374z"/>
		<path d="M37.842,48H10.156c-3.934,0-7.134-2.776-7.134-6.189v-5.307c0-3.411,3.2-6.186,7.134-6.186h6.743v-2.013
			c-7.065-2.453-11.76-8.364-11.76-14.909c0-0.217,0.03-0.425,0.065-0.633c0.014-0.084,0.03-0.168,0.036-0.254l0.064-0.931h37.403
			l0.054,0.943c0.005,0.085,0.021,0.169,0.035,0.253c0.034,0.204,0.064,0.409,0.064,0.622c0,6.544-4.695,12.455-11.762,14.909v2.013
			h6.743c1.867,0,3.635,0.625,4.978,1.76c1.392,1.176,2.157,2.748,2.156,4.427v5.306C44.977,45.224,41.776,48,37.842,48z
			 M10.156,32.318c-2.831,0-5.134,1.878-5.134,4.186v5.307c0,2.311,2.303,4.189,5.134,4.189h27.686c2.831,0,5.135-1.879,5.135-4.189
			v-5.307c0.001-1.08-0.514-2.109-1.447-2.898c-0.982-0.83-2.291-1.287-3.687-1.287H29.1v-5.476l0.706-0.218
			C36.35,24.61,40.77,19.383,40.86,13.579H7.141c0.09,5.804,4.509,11.031,11.053,13.046l0.706,0.218v5.476H10.156z"/>
		<path d="M24,13.579c-0.552,0-1-0.448-1-1V5.264h19.979V1c0-0.552,0.447-1,1-1s1,0.448,1,1v6.264H25v5.315
			C25,13.131,24.553,13.579,24,13.579z"/>
	</g>
	<path d="M47,48H1c-0.552,0-1-0.447-1-1s0.448-1,1-1h46c0.553,0,1,0.447,1,1S47.553,48,47,48z"/>
</g>
</svg>
