<?xml version="1.0" encoding="utf-8"?>
<!-- Generator: Adobe Illustrator 16.0.0, SVG Export Plug-In . SVG Version: 6.00 Build 0)  -->
<!DOCTYPE svg PUBLIC "-//W3C//DTD SVG 1.1//EN" "http://www.w3.org/Graphics/SVG/1.1/DTD/svg11.dtd">
<svg version="1.1" id="Layer_1" xmlns="http://www.w3.org/2000/svg" xmlns:xlink="http://www.w3.org/1999/xlink" x="0px" y="0px"
	 width="48px" height="48px" viewBox="0 0 48 48" enable-background="new 0 0 48 48" xml:space="preserve">
<g>
	<path d="M24,48C10.767,48,0,37.233,0,24S10.767,0,24,0s24,10.767,24,24S37.233,48,24,48z M24,2C11.869,2,2,11.869,2,24
		s9.869,22,22,22s22-9.869,22-22S36.131,2,24,2z"/>
	<g>
		<g>
			<path d="M24,6.979c-0.552,0-1-0.448-1-1V1c0-0.552,0.448-1,1-1c0.553,0,1,0.448,1,1v4.979C25,6.531,24.553,6.979,24,6.979z"/>
			<path d="M24,46.548c-0.552,0-1-0.447-1-1v-4.981c0-0.553,0.448-1,1-1c0.553,0,1,0.447,1,1v4.981
				C25,46.101,24.553,46.548,24,46.548z"/>
		</g>
		<g>
			<path d="M46.271,24.272H41.29c-0.553,0-1-0.448-1-1s0.447-1,1-1h4.981c0.553,0,1,0.448,1,1S46.824,24.272,46.271,24.272z"/>
			<path d="M6.71,24.272H1.725c-0.552,0-1-0.448-1-1s0.448-1,1-1H6.71c0.552,0,1,0.448,1,1S7.262,24.272,6.71,24.272z"/>
		</g>
	</g>
	<g>
		<g>
			<path d="M36.273,12.097c-0.258,0-0.515-0.099-0.71-0.296c-0.389-0.393-0.387-1.025,0.006-1.415l3.539-3.507
				c0.394-0.388,1.026-0.386,1.414,0.006c0.389,0.393,0.387,1.025-0.006,1.415l-3.539,3.507C36.782,12,36.528,12.097,36.273,12.097z
				"/>
			<path d="M8.185,39.954c-0.257,0-0.515-0.099-0.71-0.296c-0.389-0.392-0.386-1.025,0.006-1.414l3.533-3.504
				c0.392-0.389,1.026-0.387,1.414,0.006c0.389,0.392,0.386,1.025-0.006,1.414l-3.533,3.504C8.694,39.857,8.439,39.954,8.185,39.954
				z"/>
		</g>
		<g>
			<path d="M39.686,40.094c-0.257,0-0.515-0.099-0.71-0.296l-3.514-3.539c-0.389-0.392-0.387-1.024,0.006-1.414
				c0.39-0.389,1.024-0.388,1.414,0.006l3.514,3.539c0.389,0.392,0.387,1.024-0.006,1.414C40.195,39.997,39.94,40.094,39.686,40.094
				z"/>
			<path d="M11.824,11.995c-0.257,0-0.515-0.099-0.71-0.296L7.607,8.162C7.218,7.77,7.221,7.137,7.613,6.748
				C8.006,6.359,8.64,6.362,9.027,6.754l3.507,3.537c0.389,0.392,0.386,1.025-0.006,1.414
				C12.333,11.898,12.079,11.995,11.824,11.995z"/>
		</g>
	</g>
</g>
</svg>
