<?xml version="1.0" encoding="utf-8"?>
<!-- Generator: Adobe Illustrator 16.0.0, SVG Export Plug-In . SVG Version: 6.00 Build 0)  -->
<!DOCTYPE svg PUBLIC "-//W3C//DTD SVG 1.1//EN" "http://www.w3.org/Graphics/SVG/1.1/DTD/svg11.dtd">
<svg version="1.1" id="Layer_1" xmlns="http://www.w3.org/2000/svg" xmlns:xlink="http://www.w3.org/1999/xlink" x="0px" y="0px"
	 width="48px" height="48px" viewBox="0 0 48 48" enable-background="new 0 0 48 48" xml:space="preserve">
<g>
	<path d="M24.003,48C10.768,48,0,37.233,0,24S10.768,0,24.003,0C37.235,0,48,10.767,48,24S37.235,48,24.003,48z M24.003,2
		C11.871,2,2,11.869,2,24s9.871,22,22.003,22C36.132,46,46,36.131,46,24S36.132,2,24.003,2z"/>
	<path d="M6.71,24.273H1.725c-0.552,0-1-0.448-1-1s0.448-1,1-1H6.71c0.552,0,1,0.448,1,1S7.262,24.273,6.71,24.273z"/>
	<path d="M8.185,39.953c-0.257,0-0.515-0.099-0.71-0.296c-0.389-0.393-0.386-1.025,0.006-1.414l3.535-3.503
		c0.394-0.389,1.026-0.387,1.415,0.006s0.386,1.025-0.006,1.414l-3.535,3.503C8.694,39.856,8.439,39.953,8.185,39.953z"/>
	<path d="M11.825,11.995c-0.257,0-0.515-0.099-0.71-0.296L7.607,8.161C7.218,7.769,7.221,7.136,7.613,6.747
		C8.006,6.358,8.64,6.362,9.027,6.753l3.508,3.538c0.389,0.392,0.386,1.025-0.006,1.414C12.334,11.898,12.08,11.995,11.825,11.995z"
		/>
	<path d="M24.003,47.979c-0.552,0-1-0.447-1-1V1.368c0-0.552,0.448-1,1-1c0.553,0,1,0.448,1,1v45.61
		C25.003,47.531,24.556,47.979,24.003,47.979z"/>
</g>
</svg>
