<?xml version="1.0" encoding="utf-8"?>
<!-- Generator: Adobe Illustrator 16.0.0, SVG Export Plug-In . SVG Version: 6.00 Build 0)  -->
<!DOCTYPE svg PUBLIC "-//W3C//DTD SVG 1.1//EN" "http://www.w3.org/Graphics/SVG/1.1/DTD/svg11.dtd">
<svg version="1.1" id="Layer_1" xmlns="http://www.w3.org/2000/svg" xmlns:xlink="http://www.w3.org/1999/xlink" x="0px" y="0px"
	 width="48px" height="48px" viewBox="0 0 48 48" enable-background="new 0 0 48 48" xml:space="preserve">
<g>
	<path d="M24.001,48c-13.233,0-24-10.768-24-24.003C0.001,10.765,10.768,0,24.001,0c13.232,0,23.998,10.765,23.998,23.997
		C47.999,37.232,37.233,48,24.001,48z M24.001,2c-12.131,0-22,9.868-22,21.997C2.001,36.13,11.87,46,24.001,46
		c12.13,0,21.998-9.87,21.998-22.003C45.999,11.868,36.131,2,24.001,2z"/>
	<path d="M11.826,11.993c-0.257,0-0.514-0.099-0.709-0.295l-3.51-3.535C7.217,7.771,7.219,7.138,7.611,6.749
		c0.391-0.39,1.025-0.387,1.414,0.005l3.51,3.535c0.389,0.392,0.387,1.025-0.005,1.414C12.336,11.896,12.081,11.993,11.826,11.993z"
		/>
	<path d="M24.635,24.997H1.001c-0.552,0-1-0.447-1-1c0-0.552,0.448-1,1-1h21.634V1.368c0-0.552,0.448-1,1-1s1,0.448,1,1V24.997z"/>
</g>
</svg>
