<?xml version="1.0" encoding="utf-8"?>
<!-- Generator: Adobe Illustrator 16.0.0, SVG Export Plug-In . SVG Version: 6.00 Build 0)  -->
<!DOCTYPE svg PUBLIC "-//W3C//DTD SVG 1.1//EN" "http://www.w3.org/Graphics/SVG/1.1/DTD/svg11.dtd">
<svg version="1.1" id="Layer_1" xmlns="http://www.w3.org/2000/svg" xmlns:xlink="http://www.w3.org/1999/xlink" x="0px" y="0px"
	 width="48px" height="48px" viewBox="0 0 48 48" enable-background="new 0 0 48 48" xml:space="preserve">
<g>
	<path d="M23.997,48C10.766,48,0.001,37.233,0.001,23.999C0.001,10.766,10.766,0,23.997,0c13.234,0,24.002,10.766,24.002,23.999
		C47.999,37.233,37.231,48,23.997,48z M23.997,2C11.868,2,2.001,11.869,2.001,23.999C2.001,36.131,11.868,46,23.997,46
		c12.132,0,22.002-9.869,22.002-22.001C45.999,11.869,36.129,2,23.997,2z"/>
	<path d="M24.634,24.999H12.315c-0.552,0-1-0.447-1-1c0-0.552,0.448-1,1-1h10.319V5.246c0-0.552,0.448-1,1-1s1,0.448,1,1V24.999z"/>
</g>
</svg>
