<?xml version="1.0" encoding="utf-8"?>
<!-- Generator: Adobe Illustrator 16.0.0, SVG Export Plug-In . SVG Version: 6.00 Build 0)  -->
<!DOCTYPE svg PUBLIC "-//W3C//DTD SVG 1.1//EN" "http://www.w3.org/Graphics/SVG/1.1/DTD/svg11.dtd">
<svg version="1.1" id="Layer_1" xmlns="http://www.w3.org/2000/svg" xmlns:xlink="http://www.w3.org/1999/xlink" x="0px" y="0px"
	 width="48px" height="48px" viewBox="0 0 48 48" enable-background="new 0 0 48 48" xml:space="preserve">
<g>
	<path d="M35.312,33.857c-0.216,0-0.433-0.069-0.615-0.213l-11.695-9.16V5.245c0-0.552,0.448-1,1-1c0.553,0,1,0.448,1,1v18.266
		l10.928,8.559c0.436,0.341,0.512,0.969,0.171,1.403C35.902,33.726,35.608,33.857,35.312,33.857z"/>
	<path d="M24.001,48c-13.233,0-24-10.768-24-24.002C0.001,10.766,10.768,0,24.001,0c13.232,0,23.998,10.766,23.998,23.998
		C47.999,37.232,37.233,48,24.001,48z M24.001,2c-12.131,0-22,9.868-22,21.998C2.001,36.13,11.87,46,24.001,46
		c12.13,0,21.998-9.87,21.998-22.002C45.999,11.868,36.131,2,24.001,2z"/>
</g>
</svg>
