<?xml version="1.0" encoding="utf-8"?>
<!-- Generator: Adobe Illustrator 16.0.0, SVG Export Plug-In . SVG Version: 6.00 Build 0)  -->
<!DOCTYPE svg PUBLIC "-//W3C//DTD SVG 1.1//EN" "http://www.w3.org/Graphics/SVG/1.1/DTD/svg11.dtd">
<svg version="1.1" id="Layer_1" xmlns="http://www.w3.org/2000/svg" xmlns:xlink="http://www.w3.org/1999/xlink" x="0px" y="0px"
	 width="48px" height="48px" viewBox="0 0 48 48" enable-background="new 0 0 48 48" xml:space="preserve">
<g>
	<path d="M32.084,34.164H15.916c-2.641,0-4.793-1.705-4.833-3.813L9.181,12.621c-0.059-0.549,0.338-1.042,0.887-1.101
		c0.555-0.062,1.042,0.338,1.101,0.887l1.914,17.885c0,0.997,1.324,1.872,2.833,1.872h16.168c1.508,0,2.83-0.875,2.83-1.872
		l0.006-0.107l1.914-17.777c0.059-0.548,0.526-0.954,1.102-0.887c0.549,0.059,0.946,0.552,0.887,1.101l-1.909,17.729
		C36.874,32.459,34.723,34.164,32.084,34.164z"/>
	<path d="M42.419,13.12c-0.17,0-0.342-0.043-0.499-0.134L23.195,2.168L6.115,12.965c-0.467,0.295-1.084,0.156-1.379-0.311
		S4.58,11.57,5.047,11.275l17.591-11.12c0.314-0.198,0.712-0.207,1.034-0.021l19.248,11.12c0.479,0.276,0.643,0.888,0.366,1.366
		C43.101,12.941,42.765,13.12,42.419,13.12z"/>
	<path d="M24.004,26.85c-4.85,0-8.795-3.943-8.795-8.791c0-4.849,3.945-8.794,8.795-8.794c4.846,0,8.788,3.945,8.788,8.794
		C32.792,22.906,28.85,26.85,24.004,26.85z M24.004,11.265c-3.747,0-6.795,3.048-6.795,6.794c0,3.744,3.048,6.791,6.795,6.791
		c3.743,0,6.788-3.046,6.788-6.791C30.792,14.313,27.747,11.265,24.004,11.265z"/>
	<path d="M24.004,39.684c-0.552,0-1-0.447-1-1v-5.52c0-0.553,0.448-1,1-1c0.553,0,1,0.447,1,1v5.52
		C25.004,39.236,24.557,39.684,24.004,39.684z"/>
	<path d="M24.004,48c-2.846,0-5.161-2.314-5.161-5.159c0-2.844,2.315-5.157,5.161-5.157c2.84,0,5.15,2.313,5.15,5.157
		C29.154,45.686,26.844,48,24.004,48z M24.004,39.684c-1.743,0-3.161,1.416-3.161,3.157c0,1.742,1.418,3.159,3.161,3.159
		c1.737,0,3.15-1.417,3.15-3.159C27.154,41.1,25.741,39.684,24.004,39.684z"/>
</g>
</svg>
