<?xml version="1.0" encoding="utf-8"?>
<!-- Generator: Adobe Illustrator 16.0.0, SVG Export Plug-In . SVG Version: 6.00 Build 0)  -->
<!DOCTYPE svg PUBLIC "-//W3C//DTD SVG 1.1//EN" "http://www.w3.org/Graphics/SVG/1.1/DTD/svg11.dtd">
<svg version="1.1" id="Layer_1" xmlns="http://www.w3.org/2000/svg" xmlns:xlink="http://www.w3.org/1999/xlink" x="0px" y="0px"
	 width="48px" height="48px" viewBox="0 0 48 48" enable-background="new 0 0 48 48" xml:space="preserve">
<g>
	<path d="M44.527,35.721H3.473c-0.321,0-0.622-0.153-0.81-0.413c-0.188-0.26-0.24-0.594-0.14-0.898
		c0.097-0.296,2.401-7.282,4.312-9.777c4.406-5.757,3.705-12.986,3.697-13.058c-0.012-0.249-0.14-4.545,3.058-7.871
		C15.954,1.246,19.457,0,24,0c4.542,0,8.043,1.246,10.406,3.702c3.199,3.325,3.07,7.623,3.063,7.804
		c-0.012,0.139-0.707,7.369,3.696,13.126c1.79,2.345,3.901,8.542,4.306,9.76c0.102,0.305,0.053,0.646-0.136,0.907
		C45.148,35.561,44.849,35.721,44.527,35.721z M4.873,33.721h38.253c-0.946-2.676-2.424-6.399-3.549-7.874
		c-4.9-6.406-4.136-14.158-4.101-14.485c0,0,0,0,0,0c-0.003,0,0.07-3.606-2.53-6.292C30.975,3.033,27.965,2,24,2
		c-3.966,0-6.978,1.033-8.95,3.071c-2.612,2.699-2.525,6.325-2.523,6.361c0.03,0.255,0.8,8.008-4.104,14.416
		C7.259,27.368,5.73,31.302,4.873,33.721z"/>
	<path d="M24,48c-5.436,0-9.858-4.424-9.858-9.861c0-1.329,0.257-2.609,0.764-3.807c0.215-0.508,0.801-0.746,1.311-0.53
		c0.509,0.216,0.746,0.803,0.531,1.312c-0.402,0.948-0.606,1.966-0.606,3.025C16.142,42.474,19.667,46,24,46
		c4.334,0,7.859-3.527,7.859-7.863c0-1.054-0.209-2.083-0.621-3.058c-0.215-0.509,0.022-1.096,0.531-1.311
		c0.508-0.214,1.096,0.023,1.311,0.531c0.518,1.224,0.779,2.515,0.779,3.837C33.859,43.575,29.437,48,24,48z"/>
</g>
</svg>
