<?xml version="1.0" encoding="utf-8"?>
<!-- Generator: Adobe Illustrator 16.0.0, SVG Export Plug-In . SVG Version: 6.00 Build 0)  -->
<!DOCTYPE svg PUBLIC "-//W3C//DTD SVG 1.1//EN" "http://www.w3.org/Graphics/SVG/1.1/DTD/svg11.dtd">
<svg version="1.1" id="Layer_1" xmlns="http://www.w3.org/2000/svg" xmlns:xlink="http://www.w3.org/1999/xlink" x="0px" y="0px"
	 width="48px" height="48px" viewBox="0 0 48 48" enable-background="new 0 0 48 48" xml:space="preserve">
<g>
	<g>
		<path d="M44.527,35.719H3.467c-0.321,0-0.622-0.153-0.81-0.413s-0.24-0.595-0.14-0.899c0.098-0.296,2.405-7.28,4.315-9.774
			c4.41-5.757,3.705-12.985,3.698-13.058c-0.012-0.249-0.14-4.546,3.06-7.871C15.954,1.246,19.457,0,24,0
			c4.542,0,8.043,1.246,10.406,3.702c3.199,3.325,3.07,7.623,3.063,7.804c-0.012,0.139-0.712,7.368,3.692,13.126
			c1.794,2.344,3.905,8.54,4.31,9.758c0.102,0.305,0.053,0.646-0.136,0.907C45.148,35.559,44.849,35.719,44.527,35.719z
			 M4.867,33.719h38.259c-0.947-2.676-2.425-6.397-3.552-7.871c-4.902-6.409-4.133-14.16-4.098-14.487l0,0
			c-0.003,0,0.07-3.605-2.53-6.291C30.975,3.033,27.965,2,24,2c-3.966,0-6.978,1.033-8.951,3.071
			c-2.613,2.699-2.527,6.325-2.525,6.361c0.03,0.255,0.805,8.007-4.104,14.417C7.255,27.369,5.725,31.3,4.867,33.719z"/>
		<path d="M24,48c-5.435,0-9.857-4.424-9.857-9.861c0-1.332,0.256-2.613,0.761-3.808c0.215-0.508,0.801-0.745,1.311-0.531
			c0.508,0.215,0.747,0.802,0.531,1.311c-0.4,0.946-0.603,1.965-0.603,3.028C16.143,42.474,19.667,46,24,46
			c4.334,0,7.859-3.526,7.859-7.861c0-1.046-0.21-2.077-0.623-3.065c-0.213-0.51,0.027-1.096,0.537-1.309
			c0.508-0.212,1.096,0.027,1.309,0.537c0.516,1.233,0.777,2.524,0.777,3.837C33.859,43.576,29.437,48,24,48z"/>
	</g>
	<path d="M1.002,48c-0.256,0-0.512-0.098-0.707-0.293c-0.391-0.391-0.391-1.023,0-1.414l45.996-46c0.391-0.391,1.023-0.391,1.414,0
		s0.391,1.023,0,1.414l-45.996,46C1.514,47.902,1.258,48,1.002,48z"/>
</g>
</svg>
