<?xml version="1.0" encoding="utf-8"?>
<!-- Generator: Adobe Illustrator 16.0.0, SVG Export Plug-In . SVG Version: 6.00 Build 0)  -->
<!DOCTYPE svg PUBLIC "-//W3C//DTD SVG 1.1//EN" "http://www.w3.org/Graphics/SVG/1.1/DTD/svg11.dtd">
<svg version="1.1" id="Layer_1" xmlns="http://www.w3.org/2000/svg" xmlns:xlink="http://www.w3.org/1999/xlink" x="0px" y="0px"
	 width="48px" height="48px" viewBox="0 0 48 48" enable-background="new 0 0 48 48" xml:space="preserve">
<g>
	<g>
		<path d="M41.855,35.668H1c-0.321,0-0.622-0.153-0.81-0.413c-0.188-0.26-0.24-0.594-0.14-0.898
			c0.097-0.295,2.392-7.249,4.291-9.729c4.401-5.751,3.688-12.919,3.68-12.991c-0.012-0.249-0.14-4.527,3.044-7.838
			c2.353-2.446,5.839-3.686,10.361-3.686c4.521,0,8.007,1.24,10.36,3.686c3.186,3.311,3.058,7.589,3.051,7.77
			c-0.012,0.139-0.707,7.331,3.673,13.06c1.9,2.48,4.198,9.434,4.295,9.729c0.1,0.305,0.048,0.64-0.141,0.899
			C42.478,35.515,42.176,35.668,41.855,35.668z M2.4,33.668h38.055c-0.854-2.408-2.376-6.315-3.533-7.825
			c-4.877-6.38-4.112-14.096-4.077-14.421c0,0,0,0,0,0c-0.003,0,0.069-3.586-2.517-6.257c-1.962-2.026-4.957-3.054-8.901-3.054
			c-3.958,0-6.958,1.034-8.92,3.073c-2.601,2.704-2.494,6.27-2.493,6.306c0.03,0.257,0.797,7.973-4.085,14.352
			C4.773,27.353,3.254,31.26,2.4,33.668z"/>
		<path d="M21.427,47.889c-5.411,0-9.813-4.404-9.813-9.818c0-1.315,0.254-2.59,0.755-3.787c0.213-0.51,0.798-0.749,1.308-0.537
			c0.51,0.214,0.75,0.8,0.537,1.309c-0.398,0.952-0.6,1.967-0.6,3.016c0,4.312,3.505,7.818,7.813,7.818
			c4.309,0,7.814-3.507,7.814-7.818c0-1.056-0.207-2.08-0.616-3.043c-0.216-0.509,0.021-1.096,0.53-1.312
			c0.507-0.213,1.095,0.021,1.312,0.53c0.514,1.212,0.774,2.498,0.774,3.824C31.241,43.484,26.839,47.889,21.427,47.889z"/>
	</g>
	<g>
		<path d="M36.967,9.367l2.197-4.852c0.213-0.445,0.423-0.848,0.652-1.297l-0.01-0.026l-3.779,0.889l-0.236-1.025l5.32-1.255
			l0.17,0.799l-2.158,4.785c-0.198,0.457-0.405,0.871-0.641,1.307l0.009,0.028l4.082-0.96l0.237,1.01l-5.668,1.333L36.967,9.367z"/>
		<path d="M43.109,8.184l1.459-3.231c0.144-0.301,0.283-0.566,0.436-0.863l-0.002-0.02l-2.52,0.589l-0.157-0.68l3.543-0.836
			l0.112,0.534L44.543,6.86c-0.13,0.309-0.268,0.583-0.423,0.874l0.003,0.017l2.723-0.637L47,7.784l-3.773,0.887L43.109,8.184z"/>
	</g>
</g>
</svg>
