<?xml version="1.0" encoding="utf-8"?>
<!-- Generator: Adobe Illustrator 16.0.0, SVG Export Plug-In . SVG Version: 6.00 Build 0)  -->
<!DOCTYPE svg PUBLIC "-//W3C//DTD SVG 1.1//EN" "http://www.w3.org/Graphics/SVG/1.1/DTD/svg11.dtd">
<svg version="1.1" id="Layer_1" xmlns="http://www.w3.org/2000/svg" xmlns:xlink="http://www.w3.org/1999/xlink" x="0px" y="0px"
	 width="48px" height="48px" viewBox="0 0 48 48" enable-background="new 0 0 48 48" xml:space="preserve">
<g>
	<g>
		<path d="M44.999,48H3.001c-1.654,0-3-1.346-3-3V3c0-1.654,1.346-3,3-3h41.998c1.654,0,3,1.346,3,3v42
			C47.999,46.654,46.653,48,44.999,48z M3.001,2c-0.551,0-1,0.449-1,1v42c0,0.552,0.449,1,1,1h41.998c0.552,0,1-0.448,1-1V3
			c0-0.551-0.448-1-1-1H3.001z"/>
	</g>
	<path d="M46.462,13.741H1.536c-0.552,0-1-0.448-1-1s0.448-1,1-1h44.926c0.553,0,1,0.448,1,1S47.015,13.741,46.462,13.741z"/>
	<g>
		<path d="M15.03,7.534h-2.117c-0.552,0-1-0.448-1-1s0.448-1,1-1h2.117c0.552,0,1,0.448,1,1S15.582,7.534,15.03,7.534z"/>
		<path d="M35.089,7.534h-2.118c-0.553,0-1-0.448-1-1s0.447-1,1-1h2.118c0.553,0,1,0.448,1,1S35.642,7.534,35.089,7.534z"/>
	</g>
	<g>
		<path d="M8.389,21.52c1.013-0.152,2.226-0.271,3.542-0.271c2.396,0,4.102,0.559,5.228,1.612c1.151,1.054,1.823,2.543,1.823,4.632
			c0,2.106-0.655,3.83-1.858,5.015c-1.208,1.206-3.2,1.858-5.709,1.858c-1.185,0-2.185-0.058-3.025-0.153L8.389,21.52L8.389,21.52z
			 M10.057,32.932c0.417,0.075,1.037,0.098,1.684,0.098c3.562,0,5.496-1.99,5.496-5.479c0.019-3.046-1.709-4.98-5.228-4.98
			c-0.865,0-1.511,0.078-1.952,0.174V32.932z"/>
		<path d="M27.832,28.202H22.82v4.655h5.584v1.396h-7.256V21.346h6.971v1.399H22.82v4.077h5.012V28.202z"/>
		<path d="M39.598,33.83c-0.615,0.311-1.842,0.613-3.41,0.613c-3.641,0-6.379-2.297-6.379-6.526c0-4.042,2.738-6.781,6.742-6.781
			c1.604,0,2.619,0.345,3.063,0.574l-0.403,1.363c-0.631-0.308-1.53-0.539-2.604-0.539c-3.024,0-5.037,1.935-5.037,5.325
			c0,3.158,1.82,5.188,4.967,5.188c1.011,0,2.044-0.208,2.712-0.537L39.598,33.83z"/>
	</g>
</g>
</svg>
