<?xml version="1.0" encoding="utf-8"?>
<!-- Generator: Adobe Illustrator 16.0.0, SVG Export Plug-In . SVG Version: 6.00 Build 0)  -->
<!DOCTYPE svg PUBLIC "-//W3C//DTD SVG 1.1//EN" "http://www.w3.org/Graphics/SVG/1.1/DTD/svg11.dtd">
<svg version="1.1" id="Layer_1" xmlns="http://www.w3.org/2000/svg" xmlns:xlink="http://www.w3.org/1999/xlink" x="0px" y="0px"
	 width="48px" height="48px" viewBox="0 0 48 48" enable-background="new 0 0 48 48" xml:space="preserve">
<g>
	<g>
		<path d="M22.267,43.568C11.481,43.568,2.706,34.79,2.706,24c0-10.791,8.775-19.569,19.561-19.569
			c10.792,0,19.572,8.778,19.572,19.569C41.839,34.79,33.059,43.568,22.267,43.568z M22.267,6.431
			C12.584,6.431,4.706,14.313,4.706,24s7.878,17.568,17.561,17.568c9.689,0,17.572-7.881,17.572-17.568S31.956,6.431,22.267,6.431z"
			/>
		<g>
			<path d="M34.67,48H9.868c-0.552,0-1-0.447-1-1v-7.854c0-0.553,0.448-1,1-1s1,0.447,1,1V46H33.67v-6.854c0-0.553,0.447-1,1-1
				s1,0.447,1,1V47C35.67,47.553,35.223,48,34.67,48z"/>
			<path d="M34.67,9.848c-0.553,0-1-0.448-1-1V2H10.868v6.848c0,0.552-0.448,1-1,1s-1-0.448-1-1V1c0-0.552,0.448-1,1-1H34.67
				c0.553,0,1,0.448,1,1v7.848C35.67,9.4,35.223,9.848,34.67,9.848z"/>
		</g>
	</g>
	<path d="M32.491,25H22.274c-0.552,0-1-0.447-1-1V11.607c0-0.552,0.448-1,1-1s1,0.448,1,1V23h9.217c0.553,0,1,0.448,1,1
		C33.491,24.553,33.044,25,32.491,25z"/>
	<path d="M44.294,25.921h-2.671c-0.553,0-1-0.447-1-1c0-0.552,0.447-1,1-1h2.671c0.553,0,1,0.448,1,1
		C45.294,25.474,44.847,25.921,44.294,25.921z"/>
</g>
</svg>
