<?xml version="1.0" encoding="utf-8"?>
<!-- Generator: Adobe Illustrator 16.0.0, SVG Export Plug-In . SVG Version: 6.00 Build 0)  -->
<!DOCTYPE svg PUBLIC "-//W3C//DTD SVG 1.1//EN" "http://www.w3.org/Graphics/SVG/1.1/DTD/svg11.dtd">
<svg version="1.1" id="Layer_1" xmlns="http://www.w3.org/2000/svg" xmlns:xlink="http://www.w3.org/1999/xlink" x="0px" y="0px"
	 width="48px" height="48px" viewBox="0 0 48 48" enable-background="new 0 0 48 48" xml:space="preserve">
<g>
	<g>
		<path d="M45,39.896H3c-1.654,0-3-1.346-3-3V11.104c0-1.654,1.346-3,3-3h42c1.654,0,3,1.346,3,3v25.792
			C48,38.551,46.654,39.896,45,39.896z M3,10.104c-0.551,0-1,0.449-1,1v25.792c0,0.552,0.449,1,1,1h42c0.552,0,1-0.448,1-1V11.104
			c0-0.551-0.448-1-1-1H3z"/>
	</g>
	<path d="M24.001,30.792c-1.974,0-3.821-0.82-5.2-2.311L2.768,11.173c-0.375-0.405-0.352-1.038,0.054-1.413
		c0.404-0.375,1.038-0.352,1.413,0.054l16.034,17.309c0.997,1.077,2.322,1.67,3.733,1.67s2.736-0.593,3.733-1.67l16.03-17.309
		c0.373-0.405,1.008-0.43,1.413-0.054c0.405,0.375,0.43,1.008,0.054,1.414l-16.03,17.309C27.822,29.971,25.976,30.792,24.001,30.792
		z"/>
</g>
</svg>
