<?xml version="1.0" encoding="utf-8"?>
<!-- Generator: Adobe Illustrator 16.0.0, SVG Export Plug-In . SVG Version: 6.00 Build 0)  -->
<!DOCTYPE svg PUBLIC "-//W3C//DTD SVG 1.1//EN" "http://www.w3.org/Graphics/SVG/1.1/DTD/svg11.dtd">
<svg version="1.1" id="Layer_1" xmlns="http://www.w3.org/2000/svg" xmlns:xlink="http://www.w3.org/1999/xlink" x="0px" y="0px"
	 width="48px" height="48px" viewBox="0 0 48 48" enable-background="new 0 0 48 48" xml:space="preserve">
<g>
	<path d="M40.866,48H7.136C3.201,48,0,44.626,0,40.479V21.854c0-2.485,1.17-4.809,3.131-6.214c0.448-0.323,1.073-0.219,1.395,0.23
		c0.322,0.449,0.219,1.073-0.23,1.395C2.858,18.296,2,20.012,2,21.854v18.625C2,43.523,4.304,46,7.136,46h33.73
		C43.697,46,46,43.523,46,40.479V21.854c0-1.731-0.748-3.338-2.052-4.408c-0.428-0.35-0.489-0.98-0.14-1.407
		c0.352-0.426,0.98-0.49,1.407-0.139C46.985,17.351,48,19.521,48,21.854v18.625C48,44.626,44.8,48,40.866,48z"/>
	<path d="M45.063,18.202c-0.231,0-0.464-0.08-0.652-0.242l-8.092-6.968c-0.419-0.36-0.466-0.992-0.105-1.41
		c0.361-0.42,0.993-0.466,1.41-0.105l8.092,6.968c0.419,0.36,0.466,0.992,0.105,1.41C45.622,18.084,45.343,18.202,45.063,18.202z"/>
	<path d="M2.94,18.202c-0.281,0-0.56-0.118-0.758-0.347c-0.361-0.418-0.314-1.05,0.104-1.41l7.702-6.638
		c0.418-0.362,1.049-0.314,1.41,0.104s0.314,1.05-0.104,1.41l-7.702,6.638C3.404,18.123,3.171,18.202,2.94,18.202z"/>
	<g>
		<path d="M2.893,45.884c-0.241,0-0.483-0.087-0.676-0.264c-0.407-0.373-0.434-1.006-0.061-1.412l12.291-13.395
			c0.189-0.207,0.457-0.324,0.737-0.324h17.63c0.28,0,0.547,0.117,0.736,0.324l12.295,13.395c0.374,0.406,0.347,1.039-0.061,1.412
			c-0.405,0.373-1.039,0.346-1.412-0.061l-11.998-13.07H15.624L3.63,45.56C3.433,45.774,3.163,45.884,2.893,45.884z"/>
	</g>
	<g>
		<path d="M32.814,32.489h-17.63c-0.28,0-0.547-0.117-0.737-0.324L2.156,18.767c-0.374-0.407-0.346-1.04,0.061-1.413
			c0.407-0.375,1.04-0.347,1.413,0.061l11.994,13.074h16.751l11.998-13.075c0.371-0.408,1.007-0.434,1.412-0.061
			c0.407,0.374,0.435,1.006,0.061,1.413L33.551,32.165C33.362,32.372,33.095,32.489,32.814,32.489z"/>
	</g>
	<path d="M36.566,27.789c-0.553,0-1-0.447-1-1V2H12.118v24.789c0,0.553-0.448,1-1,1s-1-0.447-1-1V1c0-0.552,0.448-1,1-1h25.448
		c0.553,0,1,0.448,1,1v25.789C37.566,27.342,37.119,27.789,36.566,27.789z"/>
	<path d="M29.463,9.863H17.832c-0.552,0-1-0.448-1-1s0.448-1,1-1h11.631c0.553,0,1,0.448,1,1S30.016,9.863,29.463,9.863z"/>
	<path d="M29.463,18.202H17.832c-0.552,0-1-0.448-1-1s0.448-1,1-1h11.631c0.553,0,1,0.448,1,1S30.016,18.202,29.463,18.202z"/>
	<path d="M29.463,26.544H17.832c-0.552,0-1-0.447-1-1s0.448-1,1-1h11.631c0.553,0,1,0.447,1,1S30.016,26.544,29.463,26.544z"/>
</g>
</svg>
