<?xml version="1.0" encoding="utf-8"?>
<!-- Generator: Adobe Illustrator 16.0.0, SVG Export Plug-In . SVG Version: 6.00 Build 0)  -->
<!DOCTYPE svg PUBLIC "-//W3C//DTD SVG 1.1//EN" "http://www.w3.org/Graphics/SVG/1.1/DTD/svg11.dtd">
<svg version="1.1" id="Layer_1" xmlns="http://www.w3.org/2000/svg" xmlns:xlink="http://www.w3.org/1999/xlink" x="0px" y="0px"
	 width="48px" height="48px" viewBox="0 0 48 48" enable-background="new 0 0 48 48" xml:space="preserve">
<g>
	<path d="M24.002,22.525c-0.001,0-0.002,0-0.004,0c-1.959-0.001-3.792-0.815-5.16-2.292L2.928,3.06
		C2.552,2.654,2.576,2.021,2.981,1.646C3.385,1.271,4.019,1.295,4.395,1.7l15.911,17.174c0.986,1.064,2.298,1.65,3.694,1.651
		c0.001,0,0.002,0,0.003,0c1.398,0,2.713-0.586,3.703-1.652L43.604,1.701c0.373-0.406,1.008-0.43,1.413-0.055
		s0.43,1.008,0.054,1.413L29.171,20.233C27.799,21.712,25.963,22.525,24.002,22.525z"/>
	<path d="M35.775,48c-6.644,0-12.049-5.405-12.049-12.05c0-6.641,5.405-12.044,12.049-12.044c6.642,0,12.045,5.403,12.045,12.044
		C47.82,42.595,42.417,48,35.775,48z M35.775,25.906c-5.541,0-10.049,4.506-10.049,10.044c0,5.541,4.508,10.05,10.049,10.05
		c5.539,0,10.045-4.509,10.045-10.05C45.82,30.412,41.314,25.906,35.775,25.906z"/>
	<path d="M26.188,31.559H7.264c-3.906,0-7.084-3.177-7.084-7.083V7.09C0.18,3.181,3.358,0,7.264,0h33.47
		c3.907,0,7.086,3.181,7.086,7.09v17.386c0,2.152-0.992,4.17-2.722,5.537c-0.21,0.167-0.479,0.241-0.742,0.208
		c-0.265-0.032-0.506-0.17-0.67-0.381c-1.93-2.5-4.813-3.934-7.911-3.934c-3.583,0-6.923,1.972-8.718,5.145
		C26.881,31.364,26.548,31.559,26.188,31.559z M7.264,2C4.461,2,2.18,4.283,2.18,7.09v17.386c0,2.802,2.281,5.083,5.084,5.083H25.62
		c2.21-3.501,6.048-5.652,10.155-5.652c3.359,0,6.505,1.398,8.786,3.871c0.809-0.92,1.259-2.082,1.259-3.301V7.09
		c0-2.807-2.281-5.09-5.086-5.09H7.264z"/>
	<g>
		<path d="M39.275,40.455c-0.256,0-0.512-0.098-0.707-0.293l-7.004-7.004c-0.391-0.391-0.391-1.023,0-1.414s1.023-0.391,1.414,0
			l7.004,7.004c0.391,0.391,0.391,1.023,0,1.414C39.787,40.357,39.531,40.455,39.275,40.455z"/>
		<path d="M32.271,40.449c-0.256,0-0.512-0.098-0.707-0.293c-0.391-0.391-0.391-1.024,0-1.414l7.004-6.998
			c0.391-0.391,1.023-0.391,1.414,0s0.391,1.024,0,1.414l-7.004,6.998C32.783,40.352,32.527,40.449,32.271,40.449z"/>
	</g>
</g>
</svg>
