<?xml version="1.0" encoding="utf-8"?>
<!-- Generator: Adobe Illustrator 16.0.0, SVG Export Plug-In . SVG Version: 6.00 Build 0)  -->
<!DOCTYPE svg PUBLIC "-//W3C//DTD SVG 1.1//EN" "http://www.w3.org/Graphics/SVG/1.1/DTD/svg11.dtd">
<svg version="1.1" id="Layer_1" xmlns="http://www.w3.org/2000/svg" xmlns:xlink="http://www.w3.org/1999/xlink" x="0px" y="0px"
	 width="48px" height="48px" viewBox="0 0 48 48" enable-background="new 0 0 48 48" xml:space="preserve">
<g>
	<path d="M24.002,22.526c-0.001,0-0.003,0-0.004,0c-1.959-0.001-3.79-0.815-5.157-2.292L2.927,3.06
		C2.551,2.654,2.575,2.022,2.98,1.646C3.385,1.272,4.018,1.294,4.394,1.7l15.915,17.175c0.985,1.064,2.295,1.65,3.69,1.651
		c0.001,0,0.002,0,0.003,0c1.398,0,2.711-0.586,3.7-1.651L43.604,1.701c0.373-0.406,1.008-0.43,1.413-0.055s0.43,1.008,0.054,1.413
		L29.169,20.234C27.798,21.713,25.963,22.526,24.002,22.526z"/>
	<path d="M35.773,48c-6.642,0-12.045-5.405-12.045-12.05c0-6.643,5.403-12.046,12.045-12.046c6.643,0,12.047,5.403,12.047,12.046
		C47.82,42.595,42.416,48,35.773,48z M35.773,25.904c-5.539,0-10.045,4.507-10.045,10.046c0,5.541,4.506,10.05,10.045,10.05
		c5.54,0,10.047-4.509,10.047-10.05C45.82,30.411,41.313,25.904,35.773,25.904z"/>
	<path d="M26.188,31.559H7.267c-3.908,0-7.087-3.177-7.087-7.083V7.09C0.18,3.181,3.359,0,7.267,0h33.469
		c3.906,0,7.084,3.181,7.084,7.09v17.386c0,2.154-0.99,4.172-2.718,5.537c-0.209,0.165-0.478,0.245-0.741,0.208
		c-0.266-0.032-0.507-0.169-0.67-0.38c-1.936-2.502-4.822-3.937-7.918-3.937c-3.58,0-6.919,1.972-8.716,5.146
		C26.881,31.364,26.548,31.559,26.188,31.559z M7.267,2C4.462,2,2.18,4.283,2.18,7.09v17.386c0,2.802,2.282,5.083,5.087,5.083
		h18.354c2.21-3.502,6.048-5.654,10.152-5.654c3.357,0,6.505,1.399,8.791,3.874c0.807-0.919,1.256-2.082,1.256-3.302V7.09
		c0-2.807-2.28-5.09-5.084-5.09H7.267z"/>
	<path d="M40.727,36.95H30.82c-0.553,0-1-0.447-1-1s0.447-1,1-1h9.906c0.553,0,1,0.447,1,1S41.279,36.95,40.727,36.95z"/>
</g>
</svg>
