<?xml version="1.0" encoding="utf-8"?>
<!-- Generator: Adobe Illustrator 16.0.0, SVG Export Plug-In . SVG Version: 6.00 Build 0)  -->
<!DOCTYPE svg PUBLIC "-//W3C//DTD SVG 1.1//EN" "http://www.w3.org/Graphics/SVG/1.1/DTD/svg11.dtd">
<svg version="1.1" id="Layer_1" xmlns="http://www.w3.org/2000/svg" xmlns:xlink="http://www.w3.org/1999/xlink" x="0px" y="0px"
	 width="48px" height="48px" viewBox="0 0 48 48" enable-background="new 0 0 48 48" xml:space="preserve">
<g>
	<g>
		<path d="M24.001,22.525c-0.002,0-0.005,0-0.007,0c-1.958-0.002-3.788-0.817-5.153-2.295L2.928,3.06
			C2.552,2.655,2.576,2.022,2.981,1.646C3.386,1.272,4.019,1.294,4.395,1.7l15.914,17.172c0.983,1.065,2.292,1.652,3.687,1.653
			c0.002,0,0.004,0,0.005,0c1.398,0,2.712-0.587,3.701-1.654L43.605,1.7c0.373-0.405,1.007-0.43,1.413-0.054
			c0.405,0.375,0.43,1.008,0.054,1.414L29.169,20.231C27.797,21.711,25.962,22.525,24.001,22.525z"/>
		<path d="M35.777,48c-6.646,0-12.053-5.405-12.053-12.05c0-6.646,5.407-12.052,12.053-12.052c6.641,0,12.043,5.406,12.043,12.052
			C47.82,42.595,42.418,48,35.777,48z M35.777,25.898c-5.543,0-10.053,4.509-10.053,10.052c0,5.541,4.51,10.05,10.053,10.05
			c5.538,0,10.043-4.509,10.043-10.05C45.82,30.407,41.315,25.898,35.777,25.898z"/>
		<path d="M26.193,31.561H7.265c-3.907,0-7.086-3.178-7.086-7.084V7.085C0.179,3.178,3.358,0,7.265,0h33.473
			c3.904,0,7.082,3.178,7.084,7.084v17.392c0,2.157-0.992,4.174-2.722,5.537c-0.209,0.164-0.478,0.238-0.741,0.206
			c-0.265-0.032-0.505-0.17-0.668-0.381c-1.936-2.504-4.819-3.939-7.912-3.939c-3.582,0-6.921,1.975-8.715,5.153
			C26.887,31.366,26.554,31.561,26.193,31.561z M7.265,2C4.461,2,2.179,4.281,2.179,7.085v17.391c0,2.803,2.282,5.084,5.086,5.084
			h18.361c2.208-3.507,6.046-5.662,10.153-5.662c3.355,0,6.502,1.401,8.786,3.879c0.808-0.918,1.257-2.08,1.257-3.301V7.085
			C45.82,4.281,43.54,2,40.738,2H7.265z"/>
	</g>
	<path d="M34.075,42.077c-0.271,0-0.531-0.11-0.72-0.306l-4.947-5.127c-0.384-0.397-0.372-1.03,0.025-1.414
		c0.398-0.384,1.031-0.371,1.414,0.025l4.218,4.37l7.42-7.91c0.378-0.402,1.01-0.422,1.414-0.045
		c0.402,0.378,0.423,1.011,0.045,1.414l-8.14,8.677c-0.188,0.199-0.448,0.313-0.723,0.315C34.08,42.077,34.077,42.077,34.075,42.077
		z"/>
</g>
</svg>
