<?xml version="1.0" encoding="utf-8"?>
<!-- Generator: Adobe Illustrator 16.0.0, SVG Export Plug-In . SVG Version: 6.00 Build 0)  -->
<!DOCTYPE svg PUBLIC "-//W3C//DTD SVG 1.1//EN" "http://www.w3.org/Graphics/SVG/1.1/DTD/svg11.dtd">
<svg version="1.1" id="Layer_1" xmlns="http://www.w3.org/2000/svg" xmlns:xlink="http://www.w3.org/1999/xlink" x="0px" y="0px"
	 width="48px" height="48px" viewBox="0 0 48 48" enable-background="new 0 0 48 48" xml:space="preserve">
<g>
	<path d="M24.001,22.526c-0.001,0-0.003,0-0.005,0c-1.958-0.001-3.789-0.815-5.156-2.291L2.933,3.061
		C2.558,2.655,2.583,2.022,2.987,1.647c0.404-0.375,1.038-0.351,1.414,0.054l15.907,17.175c0.984,1.063,2.294,1.649,3.689,1.65
		c0.001,0,0.002,0,0.003,0c1.397,0,2.711-0.586,3.7-1.651L43.608,1.701c0.375-0.405,1.008-0.429,1.413-0.054
		c0.405,0.375,0.43,1.008,0.054,1.414L29.167,20.236C27.795,21.713,25.961,22.526,24.001,22.526z"/>
	<path d="M35.777,48c-6.643,0-12.047-5.405-12.047-12.05c0-6.643,5.404-12.046,12.047-12.046c6.641,0,12.043,5.403,12.043,12.046
		C47.82,42.595,42.418,48,35.777,48z M35.777,25.904c-5.54,0-10.047,4.507-10.047,10.046c0,5.541,4.507,10.05,10.047,10.05
		c5.538,0,10.043-4.509,10.043-10.05C45.82,30.411,41.315,25.904,35.777,25.904z"/>
	<path d="M26.195,31.559H7.267c-3.908,0-7.087-3.178-7.087-7.083V7.088C0.18,3.18,3.359,0,7.267,0h33.469
		c3.906,0,7.084,3.18,7.084,7.088v17.388c0,2.146-0.988,4.164-2.711,5.535c-0.21,0.167-0.48,0.243-0.743,0.211
		c-0.266-0.032-0.507-0.17-0.671-0.381c-1.934-2.501-4.82-3.935-7.918-3.935c-3.584,0-6.922,1.971-8.711,5.144
		C26.889,31.364,26.557,31.559,26.195,31.559z M7.267,2C4.462,2,2.18,4.282,2.18,7.088v17.387c0,2.803,2.282,5.083,5.087,5.083
		h18.361c2.204-3.501,6.04-5.652,10.149-5.652c3.357,0,6.505,1.397,8.789,3.869c0.806-0.922,1.254-2.083,1.254-3.299V7.088
		C45.82,4.282,43.54,2,40.736,2H7.267z"/>
	<path d="M35.779,43.445c-0.34,0-0.656-0.173-0.841-0.458l-5.989-9.295c-0.198-0.308-0.212-0.699-0.037-1.021
		s0.512-0.521,0.878-0.521h11.974c0.366,0,0.703,0.2,0.878,0.521s0.161,0.712-0.037,1.02l-5.984,9.295
		C36.437,43.272,36.119,43.445,35.779,43.445z M31.624,34.15l4.155,6.448l4.151-6.448H31.624z"/>
</g>
</svg>
