<?xml version="1.0" encoding="utf-8"?>
<!-- Generator: Adobe Illustrator 16.0.0, SVG Export Plug-In . SVG Version: 6.00 Build 0)  -->
<!DOCTYPE svg PUBLIC "-//W3C//DTD SVG 1.1//EN" "http://www.w3.org/Graphics/SVG/1.1/DTD/svg11.dtd">
<svg version="1.1" id="Layer_1" xmlns="http://www.w3.org/2000/svg" xmlns:xlink="http://www.w3.org/1999/xlink" x="0px" y="0px"
	 width="48px" height="48px" viewBox="0 0 48 48" enable-background="new 0 0 48 48" xml:space="preserve">
<g>
	<path d="M24.003,22.525c-0.001,0-0.002,0-0.004,0c-1.958-0.001-3.79-0.815-5.157-2.292L2.933,3.06
		C2.557,2.654,2.581,2.021,2.986,1.646C3.391,1.271,4.024,1.295,4.399,1.7l15.91,17.174c0.985,1.063,2.295,1.65,3.69,1.651
		c0.001,0,0.002,0,0.003,0c1.397,0,2.711-0.586,3.699-1.651L43.608,1.7c0.375-0.405,1.008-0.43,1.413-0.054s0.43,1.008,0.054,1.414
		L29.169,20.234C27.797,21.712,25.963,22.525,24.003,22.525z"/>
	<path d="M35.775,48c-6.642,0-12.045-5.406-12.045-12.052c0-6.641,5.403-12.044,12.045-12.044c6.641,0,12.043,5.403,12.043,12.044
		C47.818,42.594,42.416,48,35.775,48z M35.775,25.904c-5.539,0-10.045,4.506-10.045,10.044C25.73,41.491,30.236,46,35.775,46
		c5.538,0,10.043-4.509,10.043-10.052C45.818,30.41,41.313,25.904,35.775,25.904z"/>
	<path d="M26.189,31.557H7.265c-3.906,0-7.083-3.177-7.083-7.083V7.088C0.182,3.18,3.359,0,7.265,0h33.471
		c3.905,0,7.082,3.18,7.082,7.088v17.387c0,2.152-0.99,4.169-2.718,5.536c-0.209,0.166-0.473,0.237-0.742,0.208
		c-0.265-0.032-0.507-0.17-0.67-0.381c-1.929-2.5-4.813-3.934-7.913-3.934c-3.584,0-6.924,1.971-8.715,5.144
		C26.883,31.362,26.55,31.557,26.189,31.557z M7.265,2C4.462,2,2.182,4.282,2.182,7.088v17.386c0,2.802,2.28,5.083,5.083,5.083
		h18.357c2.206-3.501,6.044-5.652,10.153-5.652c3.361,0,6.508,1.398,8.787,3.871c0.807-0.92,1.256-2.082,1.256-3.3V7.088
		c0-2.806-2.28-5.088-5.082-5.088H7.265z"/>
	<path d="M35.775,40.691c-0.553,0-1-0.447-1-1v-9.67c0-0.553,0.447-1,1-1s1,0.447,1,1v9.67
		C36.775,40.244,36.328,40.691,35.775,40.691z"/>
	<path d="M36.039,42.543c-0.235,0-0.471-0.083-0.66-0.249l-5.493-4.831c-0.415-0.365-0.455-0.997-0.091-1.411
		c0.364-0.415,0.999-0.454,1.411-0.091l4.789,4.212l4.305-4.301c0.391-0.391,1.023-0.391,1.414,0s0.391,1.024,0,1.414l-4.968,4.964
		C36.552,42.444,36.295,42.543,36.039,42.543z"/>
</g>
</svg>
