<?xml version="1.0" encoding="utf-8"?>
<!-- Generator: Adobe Illustrator 16.0.0, SVG Export Plug-In . SVG Version: 6.00 Build 0)  -->
<!DOCTYPE svg PUBLIC "-//W3C//DTD SVG 1.1//EN" "http://www.w3.org/Graphics/SVG/1.1/DTD/svg11.dtd">
<svg version="1.1" id="Layer_1" xmlns="http://www.w3.org/2000/svg" xmlns:xlink="http://www.w3.org/1999/xlink" x="0px" y="0px"
	 width="48px" height="48px" viewBox="0 0 48 48" enable-background="new 0 0 48 48" xml:space="preserve">
<g>
	<g>
		<path d="M24.001,22.526c-0.001,0-0.001,0-0.002,0c-1.959,0-3.792-0.814-5.159-2.29L2.93,3.06C2.555,2.654,2.58,2.021,2.984,1.646
			C3.389,1.271,4.021,1.295,4.398,1.7l15.909,17.176c0.985,1.063,2.296,1.649,3.692,1.649c0,0,0.001,0,0.002,0
			c1.398,0,2.711-0.586,3.699-1.65L43.605,1.701c0.373-0.406,1.007-0.43,1.413-0.055c0.405,0.375,0.43,1.008,0.054,1.413
			L29.167,20.235C27.797,21.713,25.962,22.526,24.001,22.526z"/>
		<path d="M35.779,48c-6.645,0-12.051-5.406-12.051-12.051c0-6.642,5.406-12.045,12.051-12.045c6.64,0,12.041,5.403,12.041,12.045
			C47.82,42.594,42.419,48,35.779,48z M35.779,25.904c-5.542,0-10.051,4.506-10.051,10.045C25.729,41.491,30.237,46,35.779,46
			c5.537,0,10.041-4.509,10.041-10.051C45.82,30.41,41.316,25.904,35.779,25.904z"/>
		<path d="M26.189,31.557H7.269c-3.909,0-7.089-3.177-7.089-7.081V7.089C0.18,3.18,3.36,0,7.269,0h33.465
			c3.907,0,7.086,3.18,7.086,7.089v17.387c0,2.152-0.99,4.169-2.718,5.537c-0.208,0.165-0.478,0.245-0.741,0.208
			c-0.266-0.032-0.507-0.169-0.67-0.381c-1.935-2.501-4.818-3.936-7.912-3.936c-3.584,0-6.925,1.972-8.72,5.145
			C26.883,31.362,26.55,31.557,26.189,31.557z M7.269,2C4.463,2,2.18,4.283,2.18,7.089v17.387c0,2.801,2.283,5.081,5.089,5.081
			h18.353c2.21-3.501,6.049-5.652,10.157-5.652c3.354,0,6.501,1.398,8.785,3.873c0.807-0.92,1.256-2.082,1.256-3.301V7.089
			C45.82,4.283,43.539,2,40.734,2H7.269z"/>
	</g>
	<path d="M35.768,37.543c-0.553,0-1-0.447-1-1v-6.95c0-0.553,0.447-1,1-1s1,0.447,1,1v6.95
		C36.768,37.096,36.32,37.543,35.768,37.543z"/>
	<path d="M35.75,42.895c-0.553,0-1-0.447-1-1v-1.328c0-0.553,0.447-1,1-1s1,0.447,1,1v1.328
		C36.75,42.447,36.303,42.895,35.75,42.895z"/>
</g>
</svg>
