<?xml version="1.0" encoding="utf-8"?>
<!-- Generator: Adobe Illustrator 16.0.0, SVG Export Plug-In . SVG Version: 6.00 Build 0)  -->
<!DOCTYPE svg PUBLIC "-//W3C//DTD SVG 1.1//EN" "http://www.w3.org/Graphics/SVG/1.1/DTD/svg11.dtd">
<svg version="1.1" id="Layer_1" xmlns="http://www.w3.org/2000/svg" xmlns:xlink="http://www.w3.org/1999/xlink" x="0px" y="0px"
	 width="48px" height="48px" viewBox="0 0 48 48" enable-background="new 0 0 48 48" xml:space="preserve">
<g>
	<g>
		<path d="M45,41.325H3c-1.654,0-3-1.346-3-3V9.675c0-1.654,1.346-3,3-3h42c1.654,0,3,1.346,3,3v28.65
			C48,39.979,46.654,41.325,45,41.325z M3,8.675c-0.551,0-1,0.449-1,1v28.65c0,0.552,0.449,1,1,1h42c0.552,0,1-0.448,1-1V9.675
			c0-0.551-0.448-1-1-1H3z"/>
	</g>
	<path d="M41.46,23.568h-8.442c-0.553,0-1-0.448-1-1V12.53c0-0.552,0.447-1,1-1h8.442c0.553,0,1,0.448,1,1v10.038
		C42.46,23.12,42.013,23.568,41.46,23.568z M34.018,21.568h6.442V13.53h-6.442V21.568z"/>
	<path d="M23.517,25.822H10.263c-0.552,0-1-0.447-1-1c0-0.552,0.448-1,1-1h13.254c0.552,0,1,0.448,1,1
		C24.517,25.375,24.069,25.822,23.517,25.822z"/>
	<path d="M23.517,32.061H10.263c-0.552,0-1-0.447-1-1s0.448-1,1-1h13.254c0.552,0,1,0.447,1,1S24.069,32.061,23.517,32.061z"/>
</g>
</svg>
