<?xml version="1.0" encoding="utf-8"?>
<!-- Generator: Adobe Illustrator 16.0.0, SVG Export Plug-In . SVG Version: 6.00 Build 0)  -->
<!DOCTYPE svg PUBLIC "-//W3C//DTD SVG 1.1//EN" "http://www.w3.org/Graphics/SVG/1.1/DTD/svg11.dtd">
<svg version="1.1" id="Layer_1" xmlns="http://www.w3.org/2000/svg" xmlns:xlink="http://www.w3.org/1999/xlink" x="0px" y="0px"
	 width="48px" height="48px" viewBox="0 0 48 48" enable-background="new 0 0 48 48" xml:space="preserve">
<g>
	<path d="M20.74,26.943H1.024c-0.529,0-0.967-0.412-0.998-0.94C0.009,25.893,0,25.805,0,25.714V14.867
		C0,8.291,4.879,2.941,10.877,2.941c6.002,0,10.885,5.35,10.885,11.926v10.847c0,0.086-0.009,0.17-0.021,0.255
		C21.741,26.521,21.292,26.943,20.74,26.943z M2,24.943h17.762V14.867c0-5.473-3.986-9.926-8.885-9.926
		C5.982,4.941,2,9.394,2,14.867V24.943z"/>
	<path d="M46.98,26.943H20.741c-0.552,0-1-0.447-1-1c0-0.09,0.009-0.175,0.021-0.258l0-10.818c0-5.473-3.986-9.926-8.885-9.926
		c-0.552,0-1-0.448-1-1s0.448-1,1-1h26.246C43.121,2.941,48,8.291,48,14.867v10.847c0,0.082-0.008,0.161-0.018,0.24
		C47.982,26.507,47.533,26.943,46.98,26.943z M21.762,24.943h24.237L46,14.867c0-5.473-3.982-9.926-8.877-9.926H16.905
		c2.926,2.14,4.857,5.791,4.857,9.926V24.943z"/>
	<path d="M14.474,17.748H7.287c-0.552,0-1-0.448-1-1s0.448-1,1-1h7.187c0.552,0,1,0.448,1,1S15.026,17.748,14.474,17.748z"/>
	<path d="M40.436,13.529H27.307c-0.553,0-1-0.448-1-1s0.447-1,1-1h13.129c0.553,0,1,0.448,1,1S40.988,13.529,40.436,13.529z"/>
	<path d="M36.411,16.692c-0.553,0-1-0.448-1-1V8.698c0-0.552,0.447-1,1-1s1,0.448,1,1v6.994
		C37.411,16.244,36.964,16.692,36.411,16.692z"/>
	<path d="M24.624,45.059c-0.552,0-1-0.447-1-1v-17.25c0-0.553,0.448-1,1-1c0.553,0,1,0.447,1,1v17.25
		C25.624,44.611,25.177,45.059,24.624,45.059z"/>
</g>
</svg>
