<?xml version="1.0" encoding="utf-8"?>
<!-- Generator: Adobe Illustrator 16.0.0, SVG Export Plug-In . SVG Version: 6.00 Build 0)  -->
<!DOCTYPE svg PUBLIC "-//W3C//DTD SVG 1.1//EN" "http://www.w3.org/Graphics/SVG/1.1/DTD/svg11.dtd">
<svg version="1.1" id="Layer_1" xmlns="http://www.w3.org/2000/svg" xmlns:xlink="http://www.w3.org/1999/xlink" x="0px" y="0px"
	 width="48px" height="48px" viewBox="0 0 48 48" enable-background="new 0 0 48 48" xml:space="preserve">
<g>
	<path d="M41.148,39.201H11.937c-0.552,0-1-0.447-1-1s0.448-1,1-1h29.211c2.675,0,4.852-2.176,4.852-4.85V15.646
		c0-2.672-2.177-4.846-4.852-4.846H8.994c-2.675,0-4.851,2.174-4.851,4.846c0,0.552-0.448,1-1,1s-1-0.448-1-1
		c0-3.775,3.073-6.846,6.851-6.846h32.154C44.927,8.8,48,11.871,48,15.646v16.706C48,36.129,44.927,39.201,41.148,39.201z"/>
	<path d="M25.075,30.521L25.075,30.521c-1.894,0-3.665-0.786-4.989-2.213L4.793,11.803c-0.375-0.405-0.352-1.038,0.054-1.413
		c0.404-0.375,1.038-0.353,1.413,0.054l15.292,16.504c0.941,1.015,2.192,1.573,3.522,1.573h0.001c1.331,0,2.583-0.559,3.526-1.574
		l15.28-16.502c0.373-0.406,1.007-0.431,1.413-0.055c0.405,0.375,0.43,1.008,0.054,1.413L30.067,28.307
		C28.741,29.735,26.968,30.521,25.075,30.521z"/>
	<path d="M8.642,22.246H1c-0.552,0-1-0.448-1-1s0.448-1,1-1h7.642c0.552,0,1,0.448,1,1S9.194,22.246,8.642,22.246z"/>
	<path d="M11.698,27.887H4.051c-0.552,0-1-0.447-1-1s0.448-1,1-1h7.647c0.552,0,1,0.447,1,1S12.25,27.887,11.698,27.887z"/>
	<path d="M14.754,33.538h-7.64c-0.552,0-1-0.447-1-1s0.448-1,1-1h7.64c0.552,0,1,0.447,1,1S15.306,33.538,14.754,33.538z"/>
</g>
</svg>
