<?xml version="1.0" encoding="utf-8"?>
<!-- Generator: Adobe Illustrator 16.0.0, SVG Export Plug-In . SVG Version: 6.00 Build 0)  -->
<!DOCTYPE svg PUBLIC "-//W3C//DTD SVG 1.1//EN" "http://www.w3.org/Graphics/SVG/1.1/DTD/svg11.dtd">
<svg version="1.1" id="Layer_1" xmlns="http://www.w3.org/2000/svg" xmlns:xlink="http://www.w3.org/1999/xlink" x="0px" y="0px"
	 width="48px" height="48px" viewBox="0 0 48 48" enable-background="new 0 0 48 48" xml:space="preserve">
<g>
	<path d="M47,2H1C0.448,2,0,1.552,0,1s0.448-1,1-1h46c0.553,0,1,0.448,1,1S47.553,2,47,2z"/>
	<path d="M30.523,11.198H1c-0.552,0-1-0.448-1-1s0.448-1,1-1h29.523c0.553,0,1,0.448,1,1S31.076,11.198,30.523,11.198z"/>
	<path d="M47,20.399H1c-0.552,0-1-0.448-1-1s0.448-1,1-1h46c0.553,0,1,0.448,1,1S47.553,20.399,47,20.399z"/>
	<path d="M30.523,29.598H1c-0.552,0-1-0.447-1-1s0.448-1,1-1h29.523c0.553,0,1,0.447,1,1S31.076,29.598,30.523,29.598z"/>
	<path d="M47,38.797H1c-0.552,0-1-0.447-1-1s0.448-1,1-1h46c0.553,0,1,0.447,1,1S47.553,38.797,47,38.797z"/>
	<path d="M30.523,48H1c-0.552,0-1-0.447-1-1s0.448-1,1-1h29.523c0.553,0,1,0.447,1,1S31.076,48,30.523,48z"/>
</g>
</svg>
