<?xml version="1.0" encoding="utf-8"?>
<!-- Generator: Adobe Illustrator 16.0.0, SVG Export Plug-In . SVG Version: 6.00 Build 0)  -->
<!DOCTYPE svg PUBLIC "-//W3C//DTD SVG 1.1//EN" "http://www.w3.org/Graphics/SVG/1.1/DTD/svg11.dtd">
<svg version="1.1" id="Layer_1" xmlns="http://www.w3.org/2000/svg" xmlns:xlink="http://www.w3.org/1999/xlink" x="0px" y="0px"
	 width="48px" height="48px" viewBox="0 0 48 48" enable-background="new 0 0 48 48" xml:space="preserve">
<g>
	<path d="M47,2.001H1c-0.552,0-1-0.448-1-1s0.448-1,1-1h46c0.553,0,1,0.448,1,1S47.553,2.001,47,2.001z"/>
	<path d="M38.764,11.2H9.238c-0.552,0-1-0.448-1-1s0.448-1,1-1h29.526c0.553,0,1,0.448,1,1S39.316,11.2,38.764,11.2z"/>
	<path d="M47,20.398H1c-0.552,0-1-0.448-1-1s0.448-1,1-1h46c0.553,0,1,0.448,1,1S47.553,20.398,47,20.398z"/>
	<path d="M38.764,29.602H9.238c-0.552,0-1-0.447-1-1s0.448-1,1-1h29.526c0.553,0,1,0.447,1,1S39.316,29.602,38.764,29.602z"/>
	<path d="M47,38.8H1c-0.552,0-1-0.447-1-1s0.448-1,1-1h46c0.553,0,1,0.447,1,1S47.553,38.8,47,38.8z"/>
	<path d="M38.764,47.999H9.238c-0.552,0-1-0.447-1-1s0.448-1,1-1h29.526c0.553,0,1,0.447,1,1S39.316,47.999,38.764,47.999z"/>
</g>
</svg>
