<?xml version="1.0" encoding="utf-8"?>
<!-- Generator: Adobe Illustrator 16.0.0, SVG Export Plug-In . SVG Version: 6.00 Build 0)  -->
<!DOCTYPE svg PUBLIC "-//W3C//DTD SVG 1.1//EN" "http://www.w3.org/Graphics/SVG/1.1/DTD/svg11.dtd">
<svg version="1.1" id="Layer_1" xmlns="http://www.w3.org/2000/svg" xmlns:xlink="http://www.w3.org/1999/xlink" x="0px" y="0px"
	 width="48px" height="48px" viewBox="0 0 48 48" enable-background="new 0 0 48 48" xml:space="preserve">
<g>
	<path d="M47,2.002H1c-0.552,0-1-0.448-1-1s0.448-1,1-1h46c0.553,0,1,0.448,1,1S47.553,2.002,47,2.002z"/>
	<path d="M47,11.201H17.477c-0.552,0-1-0.448-1-1s0.448-1,1-1H47c0.553,0,1,0.448,1,1S47.553,11.201,47,11.201z"/>
	<path d="M47,20.4H1c-0.552,0-1-0.448-1-1s0.448-1,1-1h46c0.553,0,1,0.448,1,1S47.553,20.4,47,20.4z"/>
	<path d="M47,29.604H17.477c-0.552,0-1-0.447-1-1s0.448-1,1-1H47c0.553,0,1,0.447,1,1S47.553,29.604,47,29.604z"/>
	<path d="M47,38.8H1c-0.552,0-1-0.447-1-1s0.448-1,1-1h46c0.553,0,1,0.447,1,1S47.553,38.8,47,38.8z"/>
	<path d="M47,47.998H17.477c-0.552,0-1-0.447-1-1s0.448-1,1-1H47c0.553,0,1,0.447,1,1S47.553,47.998,47,47.998z"/>
</g>
</svg>
