<?xml version="1.0" encoding="utf-8"?>
<!-- Generator: Adobe Illustrator 16.0.0, SVG Export Plug-In . SVG Version: 6.00 Build 0)  -->
<!DOCTYPE svg PUBLIC "-//W3C//DTD SVG 1.1//EN" "http://www.w3.org/Graphics/SVG/1.1/DTD/svg11.dtd">
<svg version="1.1" id="Layer_1" xmlns="http://www.w3.org/2000/svg" xmlns:xlink="http://www.w3.org/1999/xlink" x="0px" y="0px"
	 width="48px" height="48px" viewBox="0 0 48 48" enable-background="new 0 0 48 48" xml:space="preserve">
<g>
	<path d="M46.977,2.013H1c-0.552,0-1-0.448-1-1s0.448-1,1-1h45.977c0.553,0,1,0.448,1,1S47.529,2.013,46.977,2.013z"/>
	<path d="M47,11.207H1c-0.552,0-1-0.448-1-1s0.448-1,1-1h46c0.553,0,1,0.448,1,1S47.553,11.207,47,11.207z"/>
	<path d="M46.977,20.401H1c-0.552,0-1-0.448-1-1s0.448-1,1-1h45.977c0.553,0,1,0.448,1,1S47.529,20.401,46.977,20.401z"/>
	<path d="M47,29.598H1c-0.552,0-1-0.447-1-1s0.448-1,1-1h46c0.553,0,1,0.447,1,1S47.553,29.598,47,29.598z"/>
	<path d="M46.977,38.791H1c-0.552,0-1-0.447-1-1s0.448-1,1-1h45.977c0.553,0,1,0.447,1,1S47.529,38.791,46.977,38.791z"/>
	<path d="M30.504,47.986H1c-0.552,0-1-0.447-1-1s0.448-1,1-1h29.504c0.553,0,1,0.447,1,1S31.057,47.986,30.504,47.986z"/>
</g>
</svg>
