<?xml version="1.0" encoding="utf-8"?>
<!-- Generator: Adobe Illustrator 16.0.0, SVG Export Plug-In . SVG Version: 6.00 Build 0)  -->
<!DOCTYPE svg PUBLIC "-//W3C//DTD SVG 1.1//EN" "http://www.w3.org/Graphics/SVG/1.1/DTD/svg11.dtd">
<svg version="1.1" id="Layer_1" xmlns="http://www.w3.org/2000/svg" xmlns:xlink="http://www.w3.org/1999/xlink" x="0px" y="0px"
	 width="48px" height="48px" viewBox="0 0 48 48" enable-background="new 0 0 48 48" xml:space="preserve">
<g>
	<g>
		<path d="M47,5.72H21.426c-0.552,0-1-0.448-1-1s0.448-1,1-1H47c0.553,0,1,0.448,1,1S47.553,5.72,47,5.72z"/>
		<path d="M37.839,13.432H21.426c-0.552,0-1-0.448-1-1s0.448-1,1-1h16.413c0.553,0,1,0.448,1,1S38.392,13.432,37.839,13.432z"/>
		<path d="M47,21.144H21.426c-0.552,0-1-0.448-1-1s0.448-1,1-1H47c0.553,0,1,0.448,1,1S47.553,21.144,47,21.144z"/>
		<path d="M37.839,28.854H21.426c-0.552,0-1-0.447-1-1s0.448-1,1-1h16.413c0.553,0,1,0.447,1,1S38.392,28.854,37.839,28.854z"/>
		<path d="M47,36.568H21.426c-0.552,0-1-0.447-1-1s0.448-1,1-1H47c0.553,0,1,0.447,1,1S47.553,36.568,47,36.568z"/>
		<path d="M37.839,44.275H21.426c-0.552,0-1-0.447-1-1s0.448-1,1-1h16.413c0.553,0,1,0.447,1,1S38.392,44.275,37.839,44.275z"/>
	</g>
	<path d="M16.279,47.997c-0.552,0-1-0.447-1-1V1.003c0-0.552,0.448-1,1-1s1,0.448,1,1v45.994
		C17.279,47.55,16.831,47.997,16.279,47.997z"/>
	<g>
		<path d="M10.539,25.001H1c-0.552,0-1-0.447-1-1c0-0.552,0.448-1,1-1h9.539c0.552,0,1,0.448,1,1
			C11.539,24.554,11.091,25.001,10.539,25.001z"/>
		<path d="M6.374,29.885c-0.294,0-0.585-0.129-0.783-0.377c-0.344-0.433-0.273-1.062,0.159-1.405l5.194-4.136l-5.228-4.555
			C5.3,19.048,5.256,18.417,5.619,18c0.362-0.416,0.994-0.46,1.411-0.097l6.133,5.344c0.224,0.195,0.35,0.479,0.343,0.776
			c-0.006,0.297-0.145,0.576-0.376,0.76l-6.133,4.884C6.812,29.813,6.592,29.885,6.374,29.885z"/>
	</g>
</g>
</svg>
