<?xml version="1.0" encoding="utf-8"?>
<!-- Generator: Adobe Illustrator 16.0.0, SVG Export Plug-In . SVG Version: 6.00 Build 0)  -->
<!DOCTYPE svg PUBLIC "-//W3C//DTD SVG 1.1//EN" "http://www.w3.org/Graphics/SVG/1.1/DTD/svg11.dtd">
<svg version="1.1" id="Layer_1" xmlns="http://www.w3.org/2000/svg" xmlns:xlink="http://www.w3.org/1999/xlink" x="0px" y="0px"
	 width="48px" height="48px" viewBox="0 0 48 48" enable-background="new 0 0 48 48" xml:space="preserve">
<g>
	<g>
		<path d="M21.634,9.761H1c-0.552,0-1-0.448-1-1s0.448-1,1-1h20.634c0.552,0,1,0.448,1,1S22.186,9.761,21.634,9.761z"/>
		<path d="M11.32,40.239c-0.552,0-1-0.447-1-1V8.761c0-0.552,0.448-1,1-1s1,0.448,1,1v30.479
			C12.32,39.792,11.872,40.239,11.32,40.239z"/>
	</g>
	<g>
		<path d="M47,9.761H26.369c-0.553,0-1-0.448-1-1s0.447-1,1-1H47c0.553,0,1,0.448,1,1S47.553,9.761,47,9.761z"/>
		<path d="M36.686,40.239c-0.553,0-1-0.447-1-1V8.761c0-0.552,0.447-1,1-1s1,0.448,1,1v30.479
			C37.686,39.792,37.238,40.239,36.686,40.239z"/>
	</g>
</g>
</svg>
