<?xml version="1.0" encoding="utf-8"?>
<!-- Generator: Adobe Illustrator 16.0.0, SVG Export Plug-In . SVG Version: 6.00 Build 0)  -->
<!DOCTYPE svg PUBLIC "-//W3C//DTD SVG 1.1//EN" "http://www.w3.org/Graphics/SVG/1.1/DTD/svg11.dtd">
<svg version="1.1" id="Layer_1" xmlns="http://www.w3.org/2000/svg" xmlns:xlink="http://www.w3.org/1999/xlink" x="0px" y="0px"
	 width="48px" height="48px" viewBox="0 0 48 48" enable-background="new 0 0 48 48" xml:space="preserve">
<g>
	<path d="M1,47.67c-0.268,0-0.53-0.107-0.723-0.309c-0.28-0.293-0.355-0.726-0.192-1.096l5.373-12.162
		c-1.896-3.387-2.896-7.197-2.896-11.055c0-12.527,10.19-22.718,22.715-22.718C37.807,0.331,48,10.522,48,23.048
		c0,12.526-10.193,22.718-22.723,22.718c-3.969,0-7.881-1.059-11.347-3.066L1.363,47.602C1.246,47.647,1.122,47.67,1,47.67z
		 M25.277,2.331c-11.422,0-20.715,9.294-20.715,20.718c0,3.672,0.995,7.298,2.877,10.486c0.164,0.278,0.184,0.618,0.053,0.913
		L2.894,44.857l10.764-4.199c0.29-0.112,0.618-0.085,0.883,0.077c3.257,1.982,6.97,3.03,10.736,3.03
		C36.704,43.766,46,34.472,46,23.048C46,11.625,36.704,2.331,25.277,2.331z"/>
	<g>
		<path d="M16.423,23.072v-6.226h5.751v4.915c0,2.663-0.305,4.58-0.921,5.755c-0.858,1.605-2.188,2.814-3.993,3.635l-1.314-2.117
			c1.074-0.436,1.867-1.129,2.398-2.069c0.528-0.942,0.819-2.239,0.879-3.892H16.423z"/>
		<path d="M28.883,23.072v-6.226h5.751v4.915c0,2.663-0.308,4.58-0.926,5.755c-0.854,1.605-2.183,2.814-3.995,3.635l-1.309-2.117
			c1.07-0.436,1.869-1.129,2.396-2.069c0.53-0.942,0.821-2.239,0.883-3.892H28.883z"/>
	</g>
</g>
</svg>
