<?xml version="1.0" encoding="utf-8"?>
<!-- Generator: Adobe Illustrator 16.0.0, SVG Export Plug-In . SVG Version: 6.00 Build 0)  -->
<!DOCTYPE svg PUBLIC "-//W3C//DTD SVG 1.1//EN" "http://www.w3.org/Graphics/SVG/1.1/DTD/svg11.dtd">
<svg version="1.1" id="Layer_1" xmlns="http://www.w3.org/2000/svg" xmlns:xlink="http://www.w3.org/1999/xlink" x="0px" y="0px"
	 width="48px" height="48px" viewBox="0 0 48 48" enable-background="new 0 0 48 48" xml:space="preserve">
<g>
	<path d="M1,47.673c-0.268,0-0.53-0.107-0.722-0.309c-0.28-0.292-0.356-0.725-0.193-1.096l5.371-12.164
		C3.56,30.717,2.56,26.905,2.56,23.049c0-12.528,10.19-22.721,22.715-22.721C37.806,0.328,48,10.52,48,23.048
		C48,35.576,37.806,45.77,25.275,45.77c-3.973,0-7.885-1.061-11.346-3.071L1.364,47.604C1.246,47.65,1.123,47.673,1,47.673z
		 M25.275,2.328c-11.422,0-20.715,9.295-20.715,20.721c0,3.671,0.995,7.298,2.876,10.488C7.6,33.814,7.62,34.154,7.49,34.449
		L2.894,44.86l10.764-4.203c0.291-0.114,0.619-0.084,0.885,0.078c3.251,1.985,6.963,3.034,10.733,3.034
		C36.703,43.77,46,34.474,46,23.048C46,11.623,36.703,2.328,25.275,2.328z"/>
	<path d="M17.565,19.56c-2.34,0-4.293-1.241-5.306-2.3c-0.382-0.399-0.368-1.032,0.032-1.414c0.398-0.381,1.031-0.367,1.412,0.03
		c0.378,0.389,3.748,3.625,7.737-0.043c0.406-0.375,1.04-0.347,1.413,0.059c0.374,0.406,0.348,1.039-0.059,1.413
		C20.988,18.966,19.184,19.56,17.565,19.56z"/>
	<path d="M34.529,19.56c-2.34,0-4.292-1.241-5.304-2.3c-0.382-0.399-0.367-1.032,0.031-1.414c0.399-0.381,1.03-0.366,1.412,0.03
		c0.375,0.386,3.743,3.628,7.735-0.042c0.407-0.373,1.039-0.348,1.413,0.059c0.374,0.406,0.347,1.039-0.06,1.413
		C37.952,18.966,36.148,19.56,34.529,19.56z"/>
	<path d="M24.698,34.42c-6.131,0-10.49-4.45-10.555-4.518c-0.381-0.399-0.367-1.03,0.031-1.412c0.398-0.381,1.03-0.369,1.414,0.028
		c0.344,0.357,8.537,8.657,17.997-0.044c0.407-0.372,1.039-0.348,1.413,0.06c0.374,0.406,0.347,1.039-0.06,1.413
		C31.293,33.3,27.772,34.42,24.698,34.42z"/>
</g>
</svg>
