<?xml version="1.0" encoding="utf-8"?>
<!-- Generator: Adobe Illustrator 16.0.0, SVG Export Plug-In . SVG Version: 6.00 Build 0)  -->
<!DOCTYPE svg PUBLIC "-//W3C//DTD SVG 1.1//EN" "http://www.w3.org/Graphics/SVG/1.1/DTD/svg11.dtd">
<svg version="1.1" id="Layer_1" xmlns="http://www.w3.org/2000/svg" xmlns:xlink="http://www.w3.org/1999/xlink" x="0px" y="0px"
	 width="48px" height="48px" viewBox="0 0 48 48" enable-background="new 0 0 48 48" xml:space="preserve">
<g>
	<path d="M40.586,37.051h-9.82c-0.553,0-1-0.447-1-1s0.447-1,1-1h9.82c0.553,0,1,0.447,1,1S41.139,37.051,40.586,37.051z"/>
	<path d="M35.673,48.004c-6.591,0-11.952-5.362-11.952-11.953s5.361-11.953,11.952-11.953s11.953,5.362,11.953,11.953
		S42.264,48.004,35.673,48.004z M35.673,26.098c-5.487,0-9.952,4.465-9.952,9.953s4.465,9.953,9.952,9.953
		c5.488,0,9.953-4.465,9.953-9.953S41.161,26.098,35.673,26.098z"/>
	<path d="M1.375,46.604c-0.268,0-0.53-0.107-0.722-0.309C0.373,46.003,0.297,45.57,0.46,45.2l5.278-11.962
		c-1.864-3.339-2.847-7.087-2.847-10.872C2.891,10.033,12.924,0,25.256,0c12.335,0,22.37,10.034,22.37,22.367
		c0,2.902-0.561,5.747-1.667,8.454c-0.144,0.351-0.472,0.59-0.85,0.619c-0.377,0.023-0.739-0.158-0.934-0.482
		c-1.827-3.042-5.006-4.858-8.504-4.858c-5.487,0-9.951,4.464-9.951,9.951c0,2.539,0.976,4.966,2.748,6.833
		c0.261,0.275,0.344,0.674,0.214,1.03s-0.449,0.608-0.826,0.651c-0.985,0.112-1.812,0.165-2.601,0.165
		c-3.91,0-7.758-1.041-11.161-3.016l-12.356,4.82C1.621,46.581,1.497,46.604,1.375,46.604z M25.256,2
		C14.027,2,4.891,11.136,4.891,22.366c0,3.6,0.978,7.163,2.828,10.307c0.163,0.277,0.183,0.616,0.053,0.91L3.268,43.792
		l10.555-4.118c0.29-0.113,0.618-0.084,0.884,0.078C17.9,41.7,21.548,42.73,25.256,42.73c0.171,0,0.345-0.003,0.521-0.009
		c-1.336-1.966-2.057-4.276-2.057-6.671c0-6.59,5.361-11.951,11.951-11.951c3.542,0,6.81,1.545,9.063,4.212
		c0.592-1.93,0.892-3.922,0.892-5.944C45.626,11.137,36.488,2,25.256,2z"/>
</g>
</svg>
