<?xml version="1.0" encoding="utf-8"?>
<!-- Generator: Adobe Illustrator 16.0.0, SVG Export Plug-In . SVG Version: 6.00 Build 0)  -->
<!DOCTYPE svg PUBLIC "-//W3C//DTD SVG 1.1//EN" "http://www.w3.org/Graphics/SVG/1.1/DTD/svg11.dtd">
<svg version="1.1" id="Layer_1" xmlns="http://www.w3.org/2000/svg" xmlns:xlink="http://www.w3.org/1999/xlink" x="0px" y="0px"
	 width="48px" height="48px" viewBox="0 0 48 48" enable-background="new 0 0 48 48" xml:space="preserve">
<g>
	<g>
		<path d="M35.678,42.759c-0.553,0-1-0.447-1-1v-9.583c0-0.553,0.447-1,1-1s1,0.447,1,1v9.583
			C36.678,42.312,36.23,42.759,35.678,42.759z"/>
		<path d="M30.49,36.264c-0.256,0-0.512-0.098-0.707-0.293c-0.391-0.39-0.391-1.023,0-1.414l4.921-4.926
			c0.372-0.373,0.972-0.391,1.367-0.044l5.448,4.793c0.415,0.365,0.455,0.997,0.091,1.411c-0.366,0.415-0.999,0.454-1.411,0.091
			l-4.744-4.173l-4.258,4.262C31.002,36.166,30.746,36.264,30.49,36.264z"/>
	</g>
	<path d="M35.678,48c-6.591,0-11.953-5.36-11.953-11.949c0-6.59,5.362-11.951,11.953-11.951c6.588,0,11.947,5.361,11.947,11.951
		C47.625,42.64,42.266,48,35.678,48z M35.678,26.1c-5.488,0-9.953,4.464-9.953,9.951c0,5.486,4.465,9.949,9.953,9.949
		c5.485,0,9.947-4.463,9.947-9.949C45.625,30.563,41.163,26.1,35.678,26.1z"/>
	<path d="M1.375,46.602c-0.268,0-0.53-0.107-0.722-0.309c-0.28-0.292-0.356-0.725-0.193-1.096l5.28-11.959
		c-1.863-3.335-2.846-7.083-2.846-10.873C2.894,10.033,12.927,0,25.259,0s22.366,10.033,22.367,22.366
		c0,2.909-0.562,5.755-1.668,8.456c-0.144,0.351-0.473,0.59-0.85,0.618c-0.376,0.023-0.739-0.158-0.934-0.482
		c-1.826-3.042-5.003-4.858-8.497-4.858c-5.488,0-9.953,4.464-9.953,9.951c0,2.538,0.976,4.965,2.746,6.834
		c0.261,0.274,0.344,0.674,0.214,1.03c-0.13,0.355-0.45,0.608-0.827,0.65c-0.989,0.112-1.815,0.165-2.6,0.165
		c-3.91,0-7.759-1.042-11.165-3.018l-12.355,4.82C1.621,46.579,1.497,46.602,1.375,46.602z M25.259,2
		C14.03,2,4.894,11.136,4.894,22.365c0,3.604,0.978,7.168,2.827,10.307c0.163,0.277,0.183,0.617,0.053,0.912L3.268,43.789
		l10.554-4.117c0.29-0.114,0.617-0.084,0.884,0.078c3.195,1.95,6.844,2.98,10.552,2.98c0.171,0,0.345-0.003,0.522-0.009
		c-1.335-1.967-2.056-4.276-2.056-6.671c0-6.59,5.362-11.951,11.953-11.951c3.539,0,6.805,1.545,9.057,4.212
		c0.592-1.926,0.892-3.918,0.892-5.945C45.625,11.136,36.488,2,25.259,2z"/>
</g>
</svg>
