<?xml version="1.0" encoding="utf-8"?>
<!-- Generator: Adobe Illustrator 16.0.0, SVG Export Plug-In . SVG Version: 6.00 Build 0)  -->
<!DOCTYPE svg PUBLIC "-//W3C//DTD SVG 1.1//EN" "http://www.w3.org/Graphics/SVG/1.1/DTD/svg11.dtd">
<svg version="1.1" id="Layer_1" xmlns="http://www.w3.org/2000/svg" xmlns:xlink="http://www.w3.org/1999/xlink" x="0px" y="0px"
	 width="48px" height="48px" viewBox="0 0 48 48" enable-background="new 0 0 48 48" xml:space="preserve">
<g>
	<path d="M40.187,39.743c-0.158,0-0.318-0.037-0.468-0.117l-4.508-2.394c-0.327-0.173-0.531-0.513-0.531-0.883v-7.15
		c0-0.553,0.447-1,1-1s1,0.447,1,1v6.549l3.977,2.112c0.488,0.259,0.674,0.864,0.414,1.352
		C40.891,39.551,40.545,39.743,40.187,39.743z"/>
	<path d="M35.669,48c-6.586,0-11.944-5.36-11.944-11.949c0-6.59,5.358-11.951,11.944-11.951c6.593,0,11.956,5.361,11.956,11.951
		C47.625,42.64,42.262,48,35.669,48z M35.669,26.1c-5.483,0-9.944,4.464-9.944,9.951c0,5.486,4.461,9.949,9.944,9.949
		c5.49,0,9.956-4.463,9.956-9.949C45.625,30.563,41.159,26.1,35.669,26.1z"/>
	<path d="M1.375,46.604c-0.268,0-0.53-0.107-0.722-0.309C0.373,46.003,0.297,45.57,0.46,45.2l5.28-11.961
		c-1.863-3.328-2.845-7.075-2.845-10.873C2.895,10.033,12.927,0,25.259,0c12.333,0,22.366,10.034,22.366,22.367
		c0,2.902-0.561,5.747-1.667,8.454c-0.144,0.351-0.472,0.59-0.85,0.619c-0.376,0.023-0.739-0.158-0.934-0.482
		c-1.826-3.042-5.006-4.858-8.506-4.858c-5.483,0-9.944,4.464-9.944,9.951c0,2.541,0.976,4.968,2.746,6.833
		c0.261,0.275,0.344,0.675,0.214,1.03c-0.13,0.356-0.45,0.609-0.827,0.651c-0.991,0.112-1.817,0.165-2.6,0.165
		c-3.91,0-7.759-1.041-11.164-3.016l-12.355,4.82C1.621,46.581,1.497,46.604,1.375,46.604z M25.259,2
		C14.03,2,4.895,11.136,4.895,22.366c0,3.612,0.977,7.176,2.825,10.305c0.164,0.278,0.184,0.617,0.054,0.913L3.268,43.792
		l10.554-4.118c0.29-0.113,0.618-0.084,0.884,0.078c3.196,1.948,6.845,2.979,10.552,2.979c0.171,0,0.344-0.003,0.521-0.009
		c-1.335-1.965-2.055-4.274-2.055-6.671c0-6.59,5.358-11.951,11.944-11.951c3.543,0,6.812,1.545,9.064,4.211
		c0.592-1.929,0.892-3.921,0.892-5.943C45.625,11.137,36.488,2,25.259,2z"/>
</g>
</svg>
