<?xml version="1.0" encoding="utf-8"?>
<!-- Generator: Adobe Illustrator 16.0.0, SVG Export Plug-In . SVG Version: 6.00 Build 0)  -->
<!DOCTYPE svg PUBLIC "-//W3C//DTD SVG 1.1//EN" "http://www.w3.org/Graphics/SVG/1.1/DTD/svg11.dtd">
<svg version="1.1" id="Layer_1" xmlns="http://www.w3.org/2000/svg" xmlns:xlink="http://www.w3.org/1999/xlink" x="0px" y="0px"
	 width="48px" height="48px" viewBox="0 0 48 48" enable-background="new 0 0 48 48" xml:space="preserve">
<g>
	<path d="M26.354,47.678c-0.224,0-0.446-0.075-0.628-0.222c-0.322-0.261-0.451-0.692-0.323-1.086l3.033-9.383
		c0.037-0.115,0.095-0.224,0.171-0.318L40.698,21.59c0.166-0.207,0.407-0.34,0.671-0.369c0.271-0.026,0.529,0.048,0.735,0.214
		l5.521,4.435c0.431,0.346,0.499,0.975,0.154,1.405l-12.096,15.08c-0.078,0.097-0.172,0.178-0.279,0.239l-8.551,4.947
		C26.698,47.634,26.525,47.678,26.354,47.678z M30.282,37.777l-2.177,6.731l6.136-3.55l11.354-14.154l-3.962-3.183L30.282,37.777z"
		/>
	<path d="M1,47.73c-0.268,0-0.53-0.107-0.722-0.309c-0.28-0.292-0.356-0.725-0.193-1.096l5.386-12.197
		c-1.899-3.395-2.9-7.215-2.9-11.083c0-12.559,10.217-22.776,22.775-22.776c10.979,0,20.397,7.825,22.394,18.606
		c0.101,0.543-0.259,1.065-0.802,1.166c-0.542,0.098-1.064-0.258-1.165-0.801C43.952,9.407,35.361,2.27,25.346,2.27
		c-11.456,0-20.775,9.32-20.775,20.776c0,3.683,0.996,7.319,2.88,10.517c0.164,0.277,0.184,0.617,0.054,0.912L2.894,44.918
		l10.799-4.215c0.291-0.114,0.619-0.084,0.885,0.078c1.956,1.195,4.074,2.053,6.294,2.55c0.539,0.12,0.878,0.655,0.758,1.193
		c-0.121,0.54-0.65,0.88-1.194,0.758c-2.273-0.508-4.448-1.361-6.471-2.538L1.364,47.662C1.246,47.708,1.122,47.73,1,47.73z"/>
</g>
</svg>
