<?xml version="1.0" encoding="utf-8"?>
<!-- Generator: Adobe Illustrator 16.0.0, SVG Export Plug-In . SVG Version: 6.00 Build 0)  -->
<!DOCTYPE svg PUBLIC "-//W3C//DTD SVG 1.1//EN" "http://www.w3.org/Graphics/SVG/1.1/DTD/svg11.dtd">
<svg version="1.1" id="Layer_1" xmlns="http://www.w3.org/2000/svg" xmlns:xlink="http://www.w3.org/1999/xlink" x="0px" y="0px"
	 width="48px" height="48px" viewBox="0 0 48 48" enable-background="new 0 0 48 48" xml:space="preserve">
<g>
	<g>
		<path d="M38.413,47.996c-5.283,0-9.581-4.298-9.581-9.581s4.298-9.581,9.581-9.581s9.581,4.298,9.581,9.581
			S43.696,47.996,38.413,47.996z M38.413,30.834c-4.181,0-7.581,3.4-7.581,7.581s3.4,7.581,7.581,7.581s7.581-3.4,7.581-7.581
			S42.594,30.834,38.413,30.834z"/>
		<path d="M43.8,31.555c-0.553,0-1-0.447-1-1v-3.334c0-2.626-1.968-4.763-4.386-4.763c-2.416,0-4.381,2.137-4.381,4.763v3.334
			c0,0.553-0.447,1-1,1s-1-0.447-1-1v-3.334c0-3.729,2.862-6.763,6.381-6.763c3.521,0,6.386,3.034,6.386,6.763v3.334
			C44.8,31.107,44.353,31.555,43.8,31.555z"/>
		<path d="M40.406,37.389c0-1.104-0.891-1.992-1.992-1.992c-1.104,0-1.991,0.889-1.991,1.992c0,0.906,0.617,1.641,1.447,1.883v3.617
			h1.087v-3.617C39.786,39.027,40.406,38.295,40.406,37.389z"/>
	</g>
	<path d="M1.006,47.535c-0.268,0-0.53-0.107-0.722-0.309c-0.28-0.292-0.356-0.725-0.193-1.096L5.486,33.91
		c-1.901-3.4-2.904-7.228-2.904-11.101C2.582,10.232,12.816,0,25.395,0C36.396,0,45.828,7.838,47.82,18.636
		c0.101,0.543-0.259,1.065-0.802,1.165c-0.549,0.101-1.065-0.26-1.165-0.802C44.036,9.149,35.433,2,25.395,2
		C13.918,2,4.582,11.335,4.582,22.809c0,3.688,0.998,7.331,2.885,10.535c0.163,0.277,0.183,0.617,0.053,0.912L2.899,44.723
		L13.722,40.5c0.29-0.113,0.617-0.085,0.884,0.078c1.962,1.195,4.083,2.054,6.303,2.552c0.539,0.12,0.878,0.655,0.757,1.194
		c-0.12,0.538-0.651,0.878-1.194,0.757c-2.273-0.509-4.449-1.363-6.478-2.54L1.369,47.467C1.251,47.513,1.128,47.535,1.006,47.535z"
		/>
</g>
</svg>
