<?xml version="1.0" encoding="utf-8"?>
<!-- Generator: Adobe Illustrator 16.0.0, SVG Export Plug-In . SVG Version: 6.00 Build 0)  -->
<!DOCTYPE svg PUBLIC "-//W3C//DTD SVG 1.1//EN" "http://www.w3.org/Graphics/SVG/1.1/DTD/svg11.dtd">
<svg version="1.1" id="Layer_1" xmlns="http://www.w3.org/2000/svg" xmlns:xlink="http://www.w3.org/1999/xlink" x="0px" y="0px"
	 width="48px" height="48px" viewBox="0 0 48 48" enable-background="new 0 0 48 48" xml:space="preserve">
<g>
	<path d="M39.143,36.128c-4.075,0-7.606-2.769-8.588-6.733c-1.169-4.738,1.733-9.546,6.471-10.718
		c0.699-0.173,1.415-0.26,2.129-0.26c4.076,0,7.606,2.769,8.584,6.733c1.174,4.734-1.726,9.543-6.464,10.718
		C40.574,36.04,39.857,36.128,39.143,36.128z M39.154,20.416c-0.552,0-1.106,0.068-1.648,0.202c-3.667,0.907-5.915,4.629-5.01,8.297
		c0.76,3.068,3.493,5.213,6.646,5.213c0.554,0,1.108-0.068,1.651-0.202c3.667-0.909,5.911-4.631,5.003-8.297
		C45.04,22.559,42.309,20.416,39.154,20.416z"/>
	<path d="M25.526,47.968c-0.2,0-0.402-0.06-0.578-0.185c-0.451-0.32-0.556-0.944-0.236-1.395l8.623-12.129
		c0.32-0.45,0.943-0.557,1.395-0.236c0.45,0.32,0.556,0.944,0.236,1.395l-8.623,12.129C26.147,47.821,25.839,47.968,25.526,47.968z"
		/>
	<path d="M1,47.636c-0.268,0-0.53-0.107-0.723-0.309c-0.28-0.293-0.355-0.726-0.192-1.096l5.405-12.235
		c-1.906-3.407-2.912-7.24-2.912-11.119c0-12.596,10.248-22.844,22.845-22.844c11.016,0,20.46,7.849,22.456,18.663
		c0.101,0.543-0.259,1.065-0.802,1.165c-0.541,0.097-1.064-0.259-1.165-0.802C44.092,9.194,35.475,2.033,25.424,2.033
		c-11.494,0-20.845,9.351-20.845,20.844c0,3.693,1,7.342,2.892,10.553c0.164,0.277,0.184,0.617,0.053,0.912l-4.63,10.481
		l10.842-4.229c0.291-0.113,0.618-0.085,0.884,0.078c1.963,1.196,4.087,2.057,6.313,2.557c0.539,0.121,0.877,0.656,0.756,1.194
		c-0.121,0.54-0.654,0.881-1.195,0.757c-2.278-0.512-4.458-1.367-6.487-2.545L1.363,47.567C1.246,47.613,1.122,47.636,1,47.636z"/>
</g>
</svg>
