<?xml version="1.0" encoding="utf-8"?>
<!-- Generator: Adobe Illustrator 16.0.0, SVG Export Plug-In . SVG Version: 6.00 Build 0)  -->
<!DOCTYPE svg PUBLIC "-//W3C//DTD SVG 1.1//EN" "http://www.w3.org/Graphics/SVG/1.1/DTD/svg11.dtd">
<svg version="1.1" id="Layer_1" xmlns="http://www.w3.org/2000/svg" xmlns:xlink="http://www.w3.org/1999/xlink" x="0px" y="0px"
	 width="48px" height="48px" viewBox="0 0 48 48" enable-background="new 0 0 48 48" xml:space="preserve">
<g>
	<path d="M12.116,48c-0.252,0-0.499-0.096-0.687-0.273c-4.034-3.813-4.339-8.116-3.673-11.41H6.983c-3.849,0-6.98-3.076-6.98-6.857
		V6.856C0.003,3.076,3.134,0,6.983,0h34.041c3.846,0,6.974,3.076,6.974,6.856v22.603c0,3.781-3.128,6.857-6.974,6.857H18.737
		c-3.608,4.385-5.645,10.911-5.666,10.978c-0.102,0.331-0.367,0.585-0.701,0.673C12.287,47.989,12.201,48,12.116,48z M6.983,2
		c-2.746,0-4.98,2.178-4.98,4.856v22.603c0,2.679,2.234,4.857,4.98,4.857h2.05c0.315,0,0.612,0.148,0.801,0.4
		c0.188,0.253,0.248,0.579,0.159,0.882c-0.752,2.561-0.987,6.171,1.722,9.506c0.896-2.414,2.862-7.046,5.802-10.442
		c0.19-0.22,0.466-0.346,0.756-0.346h22.75c2.742,0,4.974-2.179,4.974-4.857V6.856C45.997,4.178,43.766,2,41.023,2H6.983z"/>
</g>
</svg>
