<?xml version="1.0" encoding="utf-8"?>
<!-- Generator: Adobe Illustrator 16.0.0, SVG Export Plug-In . SVG Version: 6.00 Build 0)  -->
<!DOCTYPE svg PUBLIC "-//W3C//DTD SVG 1.1//EN" "http://www.w3.org/Graphics/SVG/1.1/DTD/svg11.dtd">
<svg version="1.1" id="Layer_1" xmlns="http://www.w3.org/2000/svg" xmlns:xlink="http://www.w3.org/1999/xlink" x="0px" y="0px"
	 width="48px" height="48px" viewBox="0 0 48 48" enable-background="new 0 0 48 48" xml:space="preserve">
<g>
	<path d="M12.11,48c-0.252,0-0.499-0.096-0.687-0.273c-4.028-3.81-4.334-8.112-3.67-11.408H6.982C3.132,36.318,0,33.241,0,29.46
		V6.856C0,3.076,3.132,0,6.982,0H41.02C44.868,0,48,3.076,48,6.856V29.46c0,3.781-3.132,6.858-6.98,6.858H18.734
		c-3.608,4.385-5.648,10.909-5.669,10.977c-0.102,0.33-0.367,0.584-0.701,0.672C12.28,47.989,12.195,48,12.11,48z M6.982,2
		C4.235,2,2,4.178,2,6.856V29.46c0,2.679,2.235,4.858,4.982,4.858h2.047c0.315,0,0.611,0.148,0.8,0.4s0.248,0.578,0.16,0.88
		c-0.75,2.563-0.983,6.174,1.72,9.506c0.898-2.413,2.865-7.045,5.805-10.44c0.19-0.22,0.466-0.346,0.756-0.346h22.75
		c2.746,0,4.98-2.18,4.98-4.858V6.856C46,4.178,43.766,2,41.02,2H6.982z"/>
	<path d="M36.555,13.375H11.446c-0.552,0-1-0.448-1-1s0.448-1,1-1h25.109c0.553,0,1,0.448,1,1S37.107,13.375,36.555,13.375z"/>
	<path d="M29.102,23.247H11.446c-0.552,0-1-0.448-1-1s0.448-1,1-1h17.656c0.553,0,1,0.448,1,1S29.654,23.247,29.102,23.247z"/>
</g>
</svg>
