<?xml version="1.0" encoding="utf-8"?>
<!-- Generator: Adobe Illustrator 16.0.0, SVG Export Plug-In . SVG Version: 6.00 Build 0)  -->
<!DOCTYPE svg PUBLIC "-//W3C//DTD SVG 1.1//EN" "http://www.w3.org/Graphics/SVG/1.1/DTD/svg11.dtd">
<svg version="1.1" id="Layer_1" xmlns="http://www.w3.org/2000/svg" xmlns:xlink="http://www.w3.org/1999/xlink" x="0px" y="0px"
	 width="48px" height="48px" viewBox="0 0 48 48" enable-background="new 0 0 48 48" xml:space="preserve">
<g>
	<g>
		<path d="M39.227,40.393c-0.256,0-0.512-0.098-0.707-0.293l-7.055-7.056c-0.391-0.391-0.391-1.023,0-1.414s1.023-0.391,1.414,0
			l7.055,7.056c0.391,0.391,0.391,1.023,0,1.414C39.738,40.295,39.482,40.393,39.227,40.393z"/>
		<path d="M32.172,40.393c-0.256,0-0.512-0.098-0.707-0.293c-0.391-0.391-0.391-1.023,0-1.414l7.055-7.056
			c0.391-0.391,1.023-0.391,1.414,0s0.391,1.023,0,1.414L32.879,40.1C32.684,40.295,32.428,40.393,32.172,40.393z"/>
	</g>
	<g>
		<path d="M35.869,48c-6.691,0-12.135-5.443-12.135-12.134c0-6.693,5.443-12.14,12.135-12.14c6.689,0,12.131,5.446,12.131,12.14
			C48,42.557,42.559,48,35.869,48z M35.869,25.727c-5.588,0-10.135,4.549-10.135,10.14C25.734,41.454,30.281,46,35.869,46
			C41.455,46,46,41.454,46,35.866C46,30.275,41.455,25.727,35.869,25.727z"/>
		<path d="M12.111,48c-0.252,0-0.499-0.096-0.687-0.273c-4.038-3.815-4.341-8.118-3.67-11.412H6.982C3.132,36.314,0,33.24,0,29.461
			V6.855C0,3.075,3.132,0,6.982,0h34.04C44.869,0,48,3.075,48,6.855v22.607c0,1.066-0.271,2.119-0.806,3.131
			c-0.185,0.351-0.544,0.563-0.955,0.529c-0.395-0.027-0.736-0.286-0.87-0.659c-1.444-4.029-5.263-6.736-9.5-6.736
			c-5.382,0-9.809,4.233-10.078,9.638c-0.026,0.532-0.466,0.95-0.999,0.95h-6.053c-3.61,4.39-5.652,10.913-5.672,10.98
			c-0.102,0.33-0.367,0.584-0.701,0.672C12.281,47.989,12.196,48,12.111,48z M6.982,2C4.235,2,2,4.178,2,6.855v22.606
			c0,2.676,2.235,4.854,4.982,4.854h2.05c0.315,0,0.612,0.148,0.801,0.401c0.189,0.252,0.248,0.579,0.158,0.882
			c-0.755,2.561-0.994,6.171,1.719,9.508c0.897-2.412,2.866-7.045,5.808-10.445c0.19-0.22,0.466-0.346,0.756-0.346h5.604
			c0.767-6.009,5.863-10.588,11.992-10.588c4.131,0,7.927,2.142,10.131,5.535V6.855C46,4.178,43.767,2,41.021,2H6.982z"/>
	</g>
</g>
</svg>
