<?xml version="1.0" encoding="utf-8"?>
<!-- Generator: Adobe Illustrator 16.0.0, SVG Export Plug-In . SVG Version: 6.00 Build 0)  -->
<!DOCTYPE svg PUBLIC "-//W3C//DTD SVG 1.1//EN" "http://www.w3.org/Graphics/SVG/1.1/DTD/svg11.dtd">
<svg version="1.1" id="Layer_1" xmlns="http://www.w3.org/2000/svg" xmlns:xlink="http://www.w3.org/1999/xlink" x="0px" y="0px"
	 width="48px" height="48px" viewBox="0 0 48 48" enable-background="new 0 0 48 48" xml:space="preserve">
<g>
	<path d="M40.855,36.866h-9.98c-0.553,0-1-0.447-1-1s0.447-1,1-1h9.98c0.553,0,1,0.447,1,1S41.408,36.866,40.855,36.866z"/>
	<g>
		<path d="M35.863,48c-6.69,0-12.133-5.443-12.133-12.134c0-6.693,5.442-12.14,12.133-12.14c6.691,0.002,12.135,5.448,12.135,12.14
			C47.998,42.557,42.555,48,35.863,48z M35.863,25.727c-5.587,0-10.133,4.549-10.133,10.14C25.73,41.454,30.276,46,35.863,46
			c5.588,0,10.135-4.546,10.135-10.134C45.998,30.277,41.451,25.729,35.863,25.727z"/>
		<path d="M12.112,48c-0.252,0-0.499-0.096-0.687-0.273c-4.034-3.813-4.34-8.115-3.675-11.41H6.981c-3.849,0-6.98-3.075-6.98-6.854
			V6.856C0.001,3.076,3.132,0,6.981,0H41.02c3.848,0,6.979,3.076,6.979,6.855v22.605c0,1.071-0.271,2.125-0.803,3.131
			c-0.185,0.351-0.543,0.567-0.955,0.529c-0.395-0.027-0.736-0.286-0.87-0.659c-1.446-4.028-5.268-6.735-9.508-6.735
			c-5.382,0-9.808,4.234-10.075,9.64c-0.026,0.532-0.466,0.95-0.999,0.95h-6.052c-3.604,4.38-5.649,10.911-5.67,10.979
			c-0.102,0.33-0.367,0.584-0.701,0.672C12.282,47.989,12.196,48,12.112,48z M6.981,2c-2.746,0-4.98,2.178-4.98,4.856v22.606
			c0,2.677,2.234,4.854,4.98,4.854h2.046c0.315,0,0.612,0.148,0.8,0.4c0.189,0.252,0.248,0.579,0.159,0.881
			c-0.751,2.562-0.985,6.173,1.724,9.507c0.897-2.412,2.865-7.045,5.807-10.442c0.19-0.22,0.466-0.346,0.756-0.346h5.601
			c0.765-6.011,5.859-10.59,11.989-10.59c4.132,0,7.93,2.141,10.136,5.531V6.856C45.998,4.179,43.765,2,41.02,2H6.981z"/>
	</g>
</g>
</svg>
