<?xml version="1.0" encoding="utf-8"?>
<!-- Generator: Adobe Illustrator 16.0.0, SVG Export Plug-In . SVG Version: 6.00 Build 0)  -->
<!DOCTYPE svg PUBLIC "-//W3C//DTD SVG 1.1//EN" "http://www.w3.org/Graphics/SVG/1.1/DTD/svg11.dtd">
<svg version="1.1" id="Layer_1" xmlns="http://www.w3.org/2000/svg" xmlns:xlink="http://www.w3.org/1999/xlink" x="0px" y="0px"
	 width="48px" height="48px" viewBox="0 0 48 48" enable-background="new 0 0 48 48" xml:space="preserve">
<g>
	<g>
		<path d="M40.348,36.864h-9.98c-0.553,0-1-0.447-1-1s0.447-1,1-1h9.98c0.553,0,1,0.447,1,1S40.9,36.864,40.348,36.864z"/>
		<path d="M35.354,41.854c-0.553,0-1-0.447-1-1v-9.978c0-0.553,0.447-1,1-1s1,0.447,1,1v9.978
			C36.354,41.406,35.906,41.854,35.354,41.854z"/>
	</g>
	<g>
		<path d="M35.865,47.999c-6.689,0-12.131-5.443-12.131-12.135c0-6.692,5.441-12.138,12.131-12.138
			C42.557,23.727,48,29.172,48,35.864C48,42.556,42.557,47.999,35.865,47.999z M35.865,25.727c-5.586,0-10.131,4.548-10.131,10.138
			c0,5.588,4.545,10.135,10.131,10.135C41.453,45.999,46,41.452,46,35.864C46,30.274,41.453,25.727,35.865,25.727z"/>
		<path d="M12.109,47.998c-0.252,0-0.499-0.096-0.687-0.273c-4.03-3.81-4.335-8.113-3.67-11.41h-0.77C3.132,36.314,0,33.239,0,29.46
			V6.855c0-3.779,3.132-6.854,6.982-6.854h34.042C44.87,0.001,48,3.076,48,6.855v22.606c0,1.076-0.273,2.131-0.813,3.135
			c-0.187,0.348-0.563,0.553-0.955,0.524c-0.395-0.029-0.734-0.288-0.867-0.66c-1.44-4.027-5.258-6.733-9.499-6.733
			c-5.383,0-9.809,4.233-10.076,9.638c-0.026,0.532-0.466,0.95-0.999,0.95h-6.055c-3.601,4.378-5.651,10.912-5.671,10.979
			c-0.103,0.329-0.368,0.584-0.702,0.671C12.279,47.987,12.193,47.998,12.109,47.998z M6.982,2.001C4.235,2.001,2,4.179,2,6.855
			V29.46c0,2.677,2.235,4.854,4.982,4.854h2.046c0.315,0,0.611,0.148,0.8,0.4s0.248,0.578,0.16,0.881
			c-0.75,2.563-0.985,6.176,1.721,9.507c0.898-2.412,2.868-7.046,5.806-10.442c0.19-0.22,0.466-0.346,0.756-0.346h5.605
			c0.765-6.01,5.859-10.588,11.99-10.588c4.135,0,7.933,2.143,10.134,5.536V6.855c0-2.676-2.232-4.854-4.977-4.854H6.982z"/>
	</g>
</g>
</svg>
