<?xml version="1.0" encoding="utf-8"?>
<!-- Generator: Adobe Illustrator 16.0.0, SVG Export Plug-In . SVG Version: 6.00 Build 0)  -->
<!DOCTYPE svg PUBLIC "-//W3C//DTD SVG 1.1//EN" "http://www.w3.org/Graphics/SVG/1.1/DTD/svg11.dtd">
<svg version="1.1" id="Layer_1" xmlns="http://www.w3.org/2000/svg" xmlns:xlink="http://www.w3.org/1999/xlink" x="0px" y="0px"
	 width="48px" height="48px" viewBox="0 0 48 48" enable-background="new 0 0 48 48" xml:space="preserve">
<g>
	<path d="M35.869,43.464c-0.34,0-0.656-0.173-0.841-0.458l-6.037-9.366c-0.198-0.308-0.212-0.699-0.037-1.021
		s0.512-0.521,0.878-0.521H41.9c0.366,0,0.703,0.2,0.878,0.521s0.161,0.712-0.037,1.02l-6.031,9.366
		C36.526,43.291,36.209,43.464,35.869,43.464z M31.666,34.098l4.203,6.52l4.198-6.52H31.666z"/>
	<g>
		<path d="M35.867,48c-6.69,0-12.133-5.443-12.133-12.135c0-6.693,5.442-12.139,12.133-12.139S48,29.172,48,35.865
			C48,42.557,42.558,48,35.867,48z M35.867,25.727c-5.587,0-10.133,4.548-10.133,10.139C25.734,41.453,30.28,46,35.867,46
			S46,41.453,46,35.865C46,30.274,41.454,25.727,35.867,25.727z"/>
		<path d="M12.111,48c-0.252,0-0.499-0.096-0.687-0.273c-4.031-3.811-4.336-8.115-3.671-11.412H6.981C3.132,36.314,0,33.24,0,29.461
			V6.854C0,3.075,3.132,0,6.981,0h34.041C44.869,0,48,3.075,48,6.854v22.607c0,1.079-0.272,2.134-0.811,3.136
			c-0.187,0.348-0.549,0.56-0.955,0.524c-0.395-0.029-0.734-0.288-0.867-0.66c-1.442-4.028-5.26-6.734-9.499-6.734
			c-5.384,0-9.812,4.233-10.081,9.638c-0.026,0.532-0.466,0.95-0.999,0.95h-6.051c-3.601,4.38-5.65,10.914-5.67,10.98
			c-0.102,0.33-0.368,0.584-0.702,0.672C12.281,47.989,12.195,48,12.111,48z M6.981,2C4.234,2,2,4.178,2,6.854v22.607
			c0,2.676,2.234,4.854,4.981,4.854h2.048c0.315,0,0.611,0.148,0.8,0.4s0.248,0.578,0.16,0.881c-0.75,2.563-0.985,6.177,1.721,9.509
			c0.898-2.413,2.866-7.046,5.806-10.444c0.19-0.22,0.466-0.346,0.756-0.346h5.602c0.767-6.009,5.864-10.588,11.995-10.588
			c4.132,0,7.929,2.143,10.132,5.536V6.854C46,4.178,43.767,2,41.021,2H6.981z"/>
	</g>
</g>
</svg>
