<?xml version="1.0" encoding="utf-8"?>
<!-- Generator: Adobe Illustrator 16.0.0, SVG Export Plug-In . SVG Version: 6.00 Build 0)  -->
<!DOCTYPE svg PUBLIC "-//W3C//DTD SVG 1.1//EN" "http://www.w3.org/Graphics/SVG/1.1/DTD/svg11.dtd">
<svg version="1.1" id="Layer_1" xmlns="http://www.w3.org/2000/svg" xmlns:xlink="http://www.w3.org/1999/xlink" x="0px" y="0px"
	 width="48px" height="48px" viewBox="0 0 48 48" enable-background="new 0 0 48 48" xml:space="preserve">
<g>
	<polygon points="35.871,39.621 31.85,42.046 32.914,37.477 29.368,34.404 34.045,34.005 35.871,29.677 37.693,34.005 42.37,34.404 
		38.824,37.477 39.889,42.046 	"/>
	<g>
		<path d="M35.871,48c-6.691,0-12.135-5.443-12.135-12.135c0-6.693,5.443-12.139,12.135-12.139C42.559,23.727,48,29.172,48,35.865
			C48,42.557,42.559,48,35.871,48z M35.871,25.727c-5.588,0-10.135,4.548-10.135,10.139C25.736,41.453,30.283,46,35.871,46
			C41.456,46,46,41.453,46,35.865C46,30.274,41.456,25.727,35.871,25.727z"/>
		<path d="M12.109,48c-0.252,0-0.499-0.096-0.687-0.273c-4.033-3.814-4.336-8.116-3.669-11.41H6.986C3.134,36.316,0,33.241,0,29.462
			V6.856C0,3.076,3.134,0,6.986,0h34.04C44.871,0,48,3.076,48,6.856v22.606c0,1.077-0.271,2.131-0.808,3.134
			c-0.187,0.349-0.569,0.557-0.955,0.526c-0.395-0.029-0.735-0.288-0.868-0.66c-1.441-4.028-5.258-6.735-9.497-6.735
			c-5.384,0-9.812,4.234-10.08,9.64c-0.026,0.532-0.466,0.95-0.999,0.95H18.74c-3.602,4.38-5.655,10.912-5.676,10.979
			c-0.102,0.33-0.368,0.584-0.702,0.671C12.279,47.989,12.193,48,12.109,48z M6.986,2C4.237,2,2,4.178,2,6.856v22.606
			c0,2.677,2.237,4.854,4.986,4.854h2.045c0.315,0,0.612,0.148,0.801,0.401c0.189,0.252,0.248,0.578,0.159,0.881
			C9.237,38.159,9,41.77,11.709,45.105c0.899-2.412,2.87-7.045,5.81-10.443c0.19-0.22,0.466-0.346,0.756-0.346h5.604
			c0.766-6.011,5.862-10.59,11.994-10.59c4.131,0,7.926,2.141,10.128,5.531V6.856C46,4.178,43.769,2,41.025,2H6.986z"/>
	</g>
</g>
</svg>
