<?xml version="1.0" encoding="utf-8"?>
<!-- Generator: Adobe Illustrator 16.0.0, SVG Export Plug-In . SVG Version: 6.00 Build 0)  -->
<!DOCTYPE svg PUBLIC "-//W3C//DTD SVG 1.1//EN" "http://www.w3.org/Graphics/SVG/1.1/DTD/svg11.dtd">
<svg version="1.1" id="Layer_1" xmlns="http://www.w3.org/2000/svg" xmlns:xlink="http://www.w3.org/1999/xlink" x="0px" y="0px"
	 width="48px" height="48px" viewBox="0 0 48 48" enable-background="new 0 0 48 48" xml:space="preserve">
<g>
	<g>
		<path d="M35.867,42.668c-0.553,0-1-0.447-1-1v-9.743c0-0.553,0.447-1,1-1s1,0.447,1,1v9.743
			C36.867,42.221,36.42,42.668,35.867,42.668z"/>
		<path d="M30.593,36.063c-0.256,0-0.512-0.098-0.707-0.293c-0.391-0.391-0.391-1.023,0-1.414l5.009-5.008
			c0.373-0.372,0.972-0.392,1.368-0.044l5.541,4.877c0.414,0.365,0.454,0.997,0.09,1.412c-0.366,0.415-0.997,0.453-1.412,0.09
			l-4.836-4.258L31.3,35.77C31.104,35.965,30.849,36.063,30.593,36.063z"/>
	</g>
	<g>
		<path d="M35.867,48c-6.692,0-12.137-5.441-12.137-12.131c0-6.693,5.444-12.139,12.137-12.139C42.558,23.73,48,29.176,48,35.869
			C48,42.559,42.558,48,35.867,48z M35.867,25.73c-5.59,0-10.137,4.548-10.137,10.139C25.73,41.455,30.277,46,35.867,46
			C41.454,46,46,41.455,46,35.869C46,30.278,41.454,25.73,35.867,25.73z"/>
		<path d="M12.112,48c-0.252,0-0.499-0.096-0.687-0.273c-4.029-3.807-4.336-8.111-3.673-11.408H6.979
			C3.131,36.318,0,33.242,0,29.462V6.858C0,3.077,3.131,0,6.979,0h34.042C44.869,0,48,3.077,48,6.858v22.604
			c0,1.073-0.272,2.129-0.812,3.137c-0.187,0.349-0.565,0.554-0.955,0.526c-0.395-0.028-0.734-0.287-0.868-0.659
			c-1.445-4.028-5.262-6.735-9.498-6.735c-5.385,0-9.814,4.233-10.084,9.638c-0.026,0.532-0.466,0.95-0.999,0.95h-6.051
			c-3.6,4.376-5.645,10.909-5.666,10.977c-0.102,0.33-0.367,0.584-0.701,0.672C12.282,47.989,12.197,48,12.112,48z M6.979,2
			C4.233,2,2,4.179,2,6.858v22.604c0,2.678,2.233,4.856,4.979,4.856h2.049c0.315,0,0.611,0.148,0.8,0.4
			c0.188,0.252,0.248,0.578,0.16,0.88c-0.749,2.563-0.981,6.176,1.723,9.506c0.897-2.413,2.863-7.046,5.801-10.44
			c0.19-0.22,0.466-0.346,0.756-0.346h5.602c0.767-6.009,5.865-10.588,11.998-10.588c4.132,0,7.93,2.145,10.133,5.54V6.858
			C46,4.179,43.767,2,41.021,2H6.979z"/>
	</g>
</g>
</svg>
