<?xml version="1.0" encoding="utf-8"?>
<!-- Generator: Adobe Illustrator 16.0.0, SVG Export Plug-In . SVG Version: 6.00 Build 0)  -->
<!DOCTYPE svg PUBLIC "-//W3C//DTD SVG 1.1//EN" "http://www.w3.org/Graphics/SVG/1.1/DTD/svg11.dtd">
<svg version="1.1" id="Layer_1" xmlns="http://www.w3.org/2000/svg" xmlns:xlink="http://www.w3.org/1999/xlink" x="0px" y="0px"
	 width="48px" height="48px" viewBox="0 0 48 48" enable-background="new 0 0 48 48" xml:space="preserve">
<g>
	<path d="M40.449,40.658c-0.158,0-0.318-0.037-0.468-0.116l-4.587-2.432c-0.327-0.174-0.531-0.514-0.531-0.884v-7.266
		c0-0.553,0.447-1,1-1s1,0.447,1,1v6.664l4.056,2.149c0.487,0.259,0.674,0.864,0.415,1.353
		C41.154,40.465,40.808,40.658,40.449,40.658z"/>
	<g>
		<path d="M35.865,48.003c-6.691,0-12.135-5.443-12.135-12.135s5.443-12.136,12.135-12.136S48,29.177,48,35.868
			S42.557,48.003,35.865,48.003z M35.865,25.732c-5.588,0-10.135,4.547-10.135,10.136c0,5.588,4.547,10.135,10.135,10.135
			S46,41.456,46,35.868C46,30.279,41.453,25.732,35.865,25.732z"/>
		<path d="M12.111,48c-0.252,0-0.499-0.096-0.687-0.273c-4.031-3.81-4.338-8.112-3.675-11.406H6.978C3.13,36.32,0,33.243,0,29.462
			V6.858C0,3.077,3.13,0,6.978,0h34.043C44.869,0,48,3.077,48,6.858v22.604c0,1.069-0.272,2.124-0.811,3.136
			c-0.185,0.35-0.544,0.562-0.955,0.527c-0.395-0.028-0.735-0.287-0.869-0.66c-1.443-4.028-5.263-6.734-9.502-6.734
			c-5.384,0-9.813,4.234-10.081,9.64c-0.026,0.532-0.466,0.95-0.999,0.95h-6.052c-3.6,4.376-5.644,10.907-5.665,10.975
			c-0.102,0.33-0.367,0.584-0.701,0.672C12.281,47.989,12.195,48,12.111,48z M6.978,2C4.233,2,2,4.179,2,6.858v22.604
			c0,2.679,2.233,4.858,4.978,4.858h2.047c0.315,0,0.611,0.148,0.8,0.4s0.248,0.578,0.16,0.88c-0.749,2.562-0.981,6.171,1.725,9.504
			c0.896-2.413,2.862-7.044,5.8-10.438c0.19-0.22,0.466-0.346,0.756-0.346h5.603c0.766-6.011,5.863-10.59,11.995-10.59
			c4.135,0,7.934,2.144,10.137,5.539V6.858C46,4.179,43.767,2,41.021,2H6.978z"/>
	</g>
</g>
</svg>
