<?xml version="1.0" encoding="utf-8"?>
<!-- Generator: Adobe Illustrator 16.0.0, SVG Export Plug-In . SVG Version: 6.00 Build 0)  -->
<!DOCTYPE svg PUBLIC "-//W3C//DTD SVG 1.1//EN" "http://www.w3.org/Graphics/SVG/1.1/DTD/svg11.dtd">
<svg version="1.1" id="Layer_1" xmlns="http://www.w3.org/2000/svg" xmlns:xlink="http://www.w3.org/1999/xlink" x="0px" y="0px"
	 width="48px" height="48px" viewBox="0 0 48 48" enable-background="new 0 0 48 48" xml:space="preserve">
<g>
	<path d="M32.474,37.12c-0.123,0-0.247-0.003-0.371-0.008c-2.324-0.097-4.472-1.095-6.048-2.81c-1.581-1.72-2.396-3.953-2.296-6.289
		c0.203-4.814,4.252-8.559,9.084-8.354c2.323,0.095,4.472,1.091,6.048,2.805c1.581,1.719,2.396,3.953,2.296,6.289
		C40.993,33.444,37.166,37.12,32.474,37.12z M32.464,21.652c-3.608,0-6.555,2.832-6.707,6.447c-0.077,1.803,0.552,3.525,1.771,4.852
		c1.214,1.32,2.868,2.089,4.659,2.164c3.757,0.147,6.849-2.731,7.002-6.444c0.077-1.804-0.551-3.525-1.771-4.851
		c-1.214-1.32-2.868-2.087-4.659-2.161C32.658,21.654,32.561,21.652,32.464,21.652z"/>
	<path d="M47.304,47.709c-0.296,0-0.589-0.131-0.786-0.381l-9.064-11.503c-0.342-0.434-0.268-1.063,0.166-1.404
		c0.435-0.341,1.063-0.267,1.404,0.166l9.064,11.503c0.342,0.434,0.268,1.063-0.166,1.404
		C47.738,47.639,47.521,47.709,47.304,47.709z"/>
	<path d="M12.293,47.759c-0.252,0-0.499-0.096-0.687-0.273c-3.986-3.77-4.294-8.024-3.64-11.286h-0.75
		c-3.814,0-6.917-3.049-6.917-6.797V7.037c0-3.747,3.103-6.796,6.917-6.796h33.692c3.811,0,6.91,3.049,6.91,6.796v22.365h-2V7.037
		c0-2.645-2.203-4.796-4.91-4.796H7.216c-2.711,0-4.917,2.151-4.917,4.796v22.365c0,2.645,2.206,4.797,4.917,4.797h2.026
		c0.315,0,0.611,0.148,0.8,0.4s0.248,0.578,0.159,0.881c-0.74,2.528-0.971,6.091,1.691,9.381c0.891-2.393,2.835-6.963,5.737-10.316
		c0.19-0.22,0.466-0.346,0.756-0.346h4.388v2h-3.923c-3.559,4.329-5.582,10.788-5.602,10.854c-0.102,0.33-0.367,0.584-0.702,0.672
		C12.463,47.748,12.377,47.759,12.293,47.759z"/>
</g>
</svg>
