<?xml version="1.0" encoding="utf-8"?>
<!-- Generator: Adobe Illustrator 16.0.0, SVG Export Plug-In . SVG Version: 6.00 Build 0)  -->
<!DOCTYPE svg PUBLIC "-//W3C//DTD SVG 1.1//EN" "http://www.w3.org/Graphics/SVG/1.1/DTD/svg11.dtd">
<svg version="1.1" id="Layer_1" xmlns="http://www.w3.org/2000/svg" xmlns:xlink="http://www.w3.org/1999/xlink" x="0px" y="0px"
	 width="48px" height="48px" viewBox="0 0 48 48" enable-background="new 0 0 48 48" xml:space="preserve">
<g>
	<g>
		<path d="M39.2,40.408c-0.256,0-0.512-0.098-0.707-0.293l-7.041-7.039c-0.391-0.391-0.391-1.023,0-1.414s1.023-0.391,1.414,0
			l7.041,7.039c0.391,0.391,0.391,1.023,0,1.414C39.712,40.311,39.456,40.408,39.2,40.408z"/>
		<path d="M32.159,40.408c-0.256,0-0.512-0.098-0.707-0.293c-0.391-0.391-0.391-1.023,0-1.414l7.041-7.039
			c0.391-0.391,1.023-0.391,1.414,0s0.391,1.023,0,1.414l-7.041,7.039C32.671,40.311,32.415,40.408,32.159,40.408z"/>
	</g>
	<g>
		<path d="M35.678,48c-6.676,0-12.107-5.434-12.107-12.111c0-6.681,5.432-12.115,12.107-12.115c6.68,0,12.114,5.435,12.114,12.115
			C47.792,42.566,42.357,48,35.678,48z M35.678,25.773c-5.573,0-10.107,4.538-10.107,10.115C25.57,41.464,30.104,46,35.678,46
			c5.577,0,10.114-4.536,10.114-10.111C45.792,30.312,41.255,25.773,35.678,25.773z"/>
		<g>
			<path d="M20.198,14.856c-9.691,0-19.99-2.603-19.99-7.428S10.507,0,20.198,0c9.688,0,19.985,2.604,19.985,7.428
				S29.887,14.856,20.198,14.856z M20.198,2C9.052,2,2.208,5.162,2.208,7.428s6.844,5.428,17.99,5.428
				c11.144,0,17.985-3.161,17.985-5.428S31.342,2,20.198,2z"/>
			<path d="M20.198,25.868c-9.691,0-19.99-2.603-19.99-7.427c0-0.552,0.448-1,1-1s1,0.448,1,1c0,2.266,6.844,5.427,17.99,5.427
				c11.144,0,17.985-3.161,17.985-5.427c0-0.552,0.447-1,1-1s1,0.448,1,1C40.184,23.265,29.887,25.868,20.198,25.868z"/>
			<path d="M20.198,36.889c-9.691,0-19.99-2.605-19.99-7.435c0-0.553,0.448-1,1-1s1,0.447,1,1c0,2.27,6.844,5.435,17.99,5.435
				c1.359,0,2.681-0.047,3.929-0.141c0.55-0.043,1.031,0.372,1.072,0.923s-0.372,1.03-0.922,1.071
				C22.979,36.84,21.607,36.889,20.198,36.889z"/>
			<path d="M20.198,47.904c-9.691,0-19.99-2.604-19.99-7.43V7.428c0-0.552,0.448-1,1-1s1,0.448,1,1c0,2.267,6.844,5.428,17.99,5.428
				c11.144,0,17.985-3.161,17.985-5.428c0-0.552,0.447-1,1-1s1,0.448,1,1v17.914c0,0.553-0.447,1-1,1s-1-0.447-1-1V10.814
				c-3.463,2.644-10.888,4.042-17.985,4.042c-7.1,0-14.527-1.397-17.99-4.042v29.661c0,2.268,6.844,5.43,17.99,5.43
				c3.674,0,7.234-0.363,10.298-1.051c0.54-0.12,1.074,0.218,1.194,0.757c0.121,0.539-0.218,1.073-0.757,1.194
				C27.729,47.524,24.017,47.904,20.198,47.904z"/>
		</g>
	</g>
</g>
</svg>
