<?xml version="1.0" encoding="utf-8"?>
<!-- Generator: Adobe Illustrator 16.0.0, SVG Export Plug-In . SVG Version: 6.00 Build 0)  -->
<!DOCTYPE svg PUBLIC "-//W3C//DTD SVG 1.1//EN" "http://www.w3.org/Graphics/SVG/1.1/DTD/svg11.dtd">
<svg version="1.1" id="Layer_1" xmlns="http://www.w3.org/2000/svg" xmlns:xlink="http://www.w3.org/1999/xlink" x="0px" y="0px"
	 width="48px" height="48px" viewBox="0 0 48 48" enable-background="new 0 0 48 48" xml:space="preserve">
<g>
	<g>
		<path d="M35.678,48c-6.68,0-12.113-5.434-12.113-12.111c0-6.681,5.434-12.115,12.113-12.115s12.114,5.435,12.114,12.115
			C47.792,42.566,42.357,48,35.678,48z M35.678,25.773c-5.576,0-10.113,4.538-10.113,10.115C25.564,41.464,30.102,46,35.678,46
			c5.577,0,10.114-4.536,10.114-10.111C45.792,30.312,41.255,25.773,35.678,25.773z"/>
		<g>
			<path d="M20.195,14.856c-9.689,0-19.987-2.603-19.987-7.428S10.506,0,20.195,0s19.987,2.604,19.987,7.428
				S29.884,14.856,20.195,14.856z M20.195,2C9.051,2,2.208,5.162,2.208,7.428s6.843,5.428,17.987,5.428s17.987-3.161,17.987-5.428
				S31.339,2,20.195,2z"/>
			<path d="M20.195,25.868c-9.689,0-19.987-2.604-19.987-7.428c0-0.552,0.448-1,1-1s1,0.448,1,1c0,2.267,6.843,5.428,17.987,5.428
				s17.987-3.162,17.987-5.428c0-0.552,0.447-1,1-1s1,0.448,1,1C40.182,23.265,29.884,25.868,20.195,25.868z"/>
			<path d="M20.195,36.889c-9.689,0-19.987-2.605-19.987-7.435c0-0.553,0.448-1,1-1s1,0.447,1,1c0,2.27,6.843,5.435,17.987,5.435
				c1.348,0,2.671-0.048,3.934-0.141c0.539-0.043,1.03,0.372,1.071,0.923s-0.372,1.03-0.923,1.071
				C22.964,36.84,21.591,36.889,20.195,36.889z"/>
			<path d="M20.195,47.904c-9.689,0-19.987-2.604-19.987-7.43V7.428c0-0.552,0.448-1,1-1s1,0.448,1,1
				c0,2.267,6.843,5.428,17.987,5.428s17.987-3.161,17.987-5.428c0-0.552,0.447-1,1-1s1,0.448,1,1v17.914c0,0.553-0.447,1-1,1
				s-1-0.447-1-1V10.814c-3.463,2.644-10.889,4.042-17.987,4.042S5.671,13.458,2.208,10.814v29.66c0,2.268,6.843,5.43,17.987,5.43
				c3.678,0,7.238-0.363,10.294-1.051c0.544-0.123,1.074,0.217,1.195,0.756s-0.218,1.074-0.756,1.195
				C27.729,47.524,24.018,47.904,20.195,47.904z"/>
		</g>
	</g>
	<path d="M29.329,46.001c-0.197,0-0.396-0.058-0.569-0.179c-0.454-0.315-0.566-0.938-0.251-1.392l12.658-18.21
		c0.315-0.455,0.938-0.566,1.392-0.251c0.454,0.315,0.566,0.938,0.251,1.392l-12.658,18.21
		C29.957,45.852,29.646,46.001,29.329,46.001z"/>
</g>
</svg>
