<?xml version="1.0" encoding="utf-8"?>
<!-- Generator: Adobe Illustrator 16.0.0, SVG Export Plug-In . SVG Version: 6.00 Build 0)  -->
<!DOCTYPE svg PUBLIC "-//W3C//DTD SVG 1.1//EN" "http://www.w3.org/Graphics/SVG/1.1/DTD/svg11.dtd">
<svg version="1.1" id="Layer_1" xmlns="http://www.w3.org/2000/svg" xmlns:xlink="http://www.w3.org/1999/xlink" x="0px" y="0px"
	 width="48px" height="48px" viewBox="0 0 48 48" enable-background="new 0 0 48 48" xml:space="preserve">
<g>
	<g>
		<path d="M35.68,48c-6.677,0-12.109-5.434-12.109-12.111c0-6.68,5.433-12.113,12.109-12.113c6.68,0,12.11,5.434,12.11,12.113
			C47.79,42.566,42.357,48,35.68,48z M35.684,25.775c-5.578,0-10.113,4.537-10.113,10.113C25.57,41.464,30.105,46,35.68,46
			c5.575,0,10.11-4.536,10.11-10.111C45.79,30.313,41.256,25.775,35.684,25.775z"/>
		<g>
			<path d="M20.193,14.857c-9.687,0-19.983-2.603-19.983-7.428c0-2.214,2.157-4.114,6.239-5.496C10.133,0.687,15.014,0,20.192,0
				c9.691,0,19.99,2.604,19.99,7.429C40.182,12.254,29.883,14.857,20.193,14.857z M20.192,2C15.226,2,10.573,2.649,7.09,3.828
				c-3.01,1.019-4.88,2.398-4.88,3.601c0,2.267,6.841,5.428,17.983,5.428c11.145,0,17.989-3.161,17.989-5.428
				C38.182,5.162,31.338,2,20.192,2z"/>
			<path d="M20.193,25.869c-9.687,0-19.983-2.604-19.983-7.428c0-0.552,0.448-1,1-1s1,0.448,1,1c0,2.267,6.841,5.428,17.983,5.428
				c11.145,0,17.989-3.162,17.989-5.428c0-0.552,0.447-1,1-1s1,0.448,1,1C40.182,23.266,29.883,25.869,20.193,25.869z"/>
			<path d="M20.193,36.889c-9.687,0-19.983-2.605-19.983-7.434c0-0.553,0.448-1,1-1s1,0.447,1,1c0,2.269,6.841,5.434,17.983,5.434
				c1.363,0,2.689-0.047,3.939-0.139c0.56-0.045,1.031,0.373,1.071,0.924c0.041,0.551-0.373,1.03-0.924,1.07
				C22.98,36.84,21.605,36.889,20.193,36.889z"/>
			<path d="M20.193,47.906c-9.687,0-19.983-2.604-19.983-7.432V7.429c0-0.552,0.448-1,1-1s1,0.448,1,1
				c0,2.267,6.841,5.428,17.983,5.428c11.145,0,17.989-3.161,17.989-5.428c0-0.552,0.447-1,1-1s1,0.448,1,1v17.914
				c0,0.553-0.447,1-1,1s-1-0.447-1-1V10.815c-3.463,2.645-10.89,4.042-17.989,4.042c-7.097,0-14.521-1.397-17.983-4.042v29.659
				c0,2.269,6.841,5.432,17.983,5.432c3.666,0,7.228-0.363,10.301-1.051c0.546-0.122,1.074,0.219,1.194,0.757
				c0.121,0.539-0.219,1.074-0.757,1.194C27.717,47.526,24.003,47.906,20.193,47.906z"/>
		</g>
	</g>
	<path d="M35.68,43.324c-0.34,0-0.656-0.173-0.841-0.458l-6.025-9.348c-0.198-0.308-0.212-0.699-0.037-1.021
		s0.512-0.521,0.878-0.521h12.047c0.366,0,0.703,0.2,0.878,0.521s0.161,0.712-0.037,1.021l-6.021,9.348
		C36.336,43.151,36.02,43.324,35.68,43.324z M31.488,33.977l4.191,6.502l4.188-6.502H31.488z"/>
</g>
</svg>
