<?xml version="1.0" encoding="utf-8"?>
<!-- Generator: Adobe Illustrator 16.0.0, SVG Export Plug-In . SVG Version: 6.00 Build 0)  -->
<!DOCTYPE svg PUBLIC "-//W3C//DTD SVG 1.1//EN" "http://www.w3.org/Graphics/SVG/1.1/DTD/svg11.dtd">
<svg version="1.1" id="Layer_1" xmlns="http://www.w3.org/2000/svg" xmlns:xlink="http://www.w3.org/1999/xlink" x="0px" y="0px"
	 width="48px" height="48px" viewBox="0 0 48 48" enable-background="new 0 0 48 48" xml:space="preserve">
<g>
	<polygon points="35.68,39.38 31.669,41.801 32.729,37.239 29.188,34.173 33.854,33.771 35.68,29.454 37.499,33.771 42.169,34.173 
		38.63,37.239 39.689,41.801 	"/>
	<g>
		<path d="M35.68,48c-6.678,0-12.111-5.434-12.111-12.111c0-6.681,5.434-12.115,12.111-12.115c6.679,0,12.112,5.435,12.112,12.115
			C47.792,42.566,42.358,48,35.68,48z M35.68,25.773c-5.575,0-10.111,4.538-10.111,10.115C25.568,41.464,30.104,46,35.68,46
			c5.576,0,10.112-4.536,10.112-10.111C45.792,30.312,41.256,25.773,35.68,25.773z"/>
		<g>
			<path d="M20.196,14.856c-9.689,0-19.987-2.603-19.987-7.428c0-2.214,2.157-4.114,6.24-5.495C10.133,0.687,15.015,0,20.195,0
				c9.689,0,19.987,2.604,19.987,7.428S29.885,14.856,20.196,14.856z M20.195,2C15.227,2,10.573,2.649,7.09,3.828
				c-3.011,1.019-4.881,2.398-4.881,3.6c0,2.267,6.843,5.428,17.987,5.428c11.143,0,17.986-3.161,17.986-5.428S31.339,2,20.195,2z"
				/>
			<path d="M20.196,25.868c-9.689,0-19.987-2.604-19.987-7.428c0-0.552,0.448-1,1-1s1,0.448,1,1c0,2.267,6.843,5.428,17.987,5.428
				c11.143,0,17.986-3.162,17.986-5.428c0-0.552,0.447-1,1-1s1,0.448,1,1C40.182,23.265,29.885,25.868,20.196,25.868z"/>
			<path d="M20.196,36.889c-9.689,0-19.987-2.605-19.987-7.435c0-0.553,0.448-1,1-1s1,0.447,1,1c0,2.27,6.843,5.435,17.987,5.435
				c1.347,0,2.67-0.048,3.934-0.141c0.538-0.043,1.03,0.372,1.071,0.923s-0.372,1.03-0.923,1.071
				C22.964,36.84,21.591,36.889,20.196,36.889z"/>
			<path d="M20.196,47.904c-9.689,0-19.987-2.604-19.987-7.43V7.428c0-0.552,0.448-1,1-1s1,0.448,1,1
				c0,2.267,6.843,5.428,17.987,5.428c11.143,0,17.986-3.161,17.986-5.428c0-0.552,0.447-1,1-1s1,0.448,1,1v17.914
				c0,0.553-0.447,1-1,1s-1-0.447-1-1V10.814c-3.463,2.644-10.888,4.042-17.986,4.042S5.672,13.458,2.209,10.814v29.66
				c0,2.268,6.843,5.43,17.987,5.43c3.673,0,7.234-0.363,10.298-1.051c0.538-0.12,1.073,0.218,1.194,0.757s-0.218,1.073-0.757,1.194
				C27.727,47.524,24.014,47.904,20.196,47.904z"/>
		</g>
	</g>
</g>
</svg>
