<?xml version="1.0" encoding="utf-8"?>
<!-- Generator: Adobe Illustrator 16.0.0, SVG Export Plug-In . SVG Version: 6.00 Build 0)  -->
<!DOCTYPE svg PUBLIC "-//W3C//DTD SVG 1.1//EN" "http://www.w3.org/Graphics/SVG/1.1/DTD/svg11.dtd">
<svg version="1.1" id="Layer_1" xmlns="http://www.w3.org/2000/svg" xmlns:xlink="http://www.w3.org/1999/xlink" x="0px" y="0px"
	 width="48px" height="48px" viewBox="0 0 48 48" enable-background="new 0 0 48 48" xml:space="preserve">
<g>
	<g>
		<path d="M35.68,42.684c-0.553,0-1-0.447-1-1v-9.729c0-0.553,0.447-1,1-1s1,0.447,1,1v9.729
			C36.68,42.236,36.232,42.684,35.68,42.684z"/>
		<path d="M30.416,36.086c-0.256,0-0.513-0.098-0.708-0.293c-0.39-0.391-0.39-1.024,0.001-1.414l4.996-4.991
			c0.375-0.373,0.972-0.392,1.367-0.043l5.529,4.861c0.415,0.364,0.455,0.996,0.091,1.411c-0.364,0.416-0.999,0.455-1.411,0.091
			l-4.825-4.242l-4.333,4.328C30.928,35.988,30.672,36.086,30.416,36.086z"/>
	</g>
	<g>
		<path d="M35.68,48c-6.678,0-12.111-5.433-12.111-12.109c0-6.681,5.434-12.115,12.111-12.115c6.681,0,12.112,5.435,12.112,12.115
			C47.792,42.567,42.358,48,35.68,48z M35.684,25.775c-5.579,0-10.115,4.538-10.115,10.115C25.568,41.465,30.104,46,35.68,46
			c5.576,0,10.112-4.535,10.112-10.109C45.792,30.313,41.257,25.775,35.684,25.775z"/>
		<g>
			<path d="M20.195,14.857c-9.688,0-19.986-2.603-19.986-7.428c0-2.213,2.157-4.114,6.24-5.496C10.134,0.687,15.015,0,20.194,0
				c9.691,0,19.99,2.604,19.99,7.429C40.184,12.254,29.885,14.857,20.195,14.857z M20.194,2c-4.966,0-9.62,0.649-13.104,1.828
				C4.079,4.847,2.208,6.227,2.209,7.429c0,2.267,6.842,5.428,17.986,5.428c11.145,0,17.989-3.161,17.989-5.428
				C38.184,5.162,31.34,2,20.194,2z"/>
			<path d="M20.195,25.87c-9.688,0-19.986-2.604-19.986-7.429c0-0.552,0.448-1,1-1s1,0.448,1,1c0,2.267,6.842,5.429,17.986,5.429
				c11.145,0,17.989-3.162,17.989-5.429c0-0.552,0.447-1,1-1s1,0.448,1,1C40.184,23.267,29.885,25.87,20.195,25.87z"/>
			<path d="M20.195,36.891c-9.688,0-19.986-2.606-19.986-7.436c0-0.553,0.448-1,1-1s1,0.447,1,1c0,2.27,6.842,5.436,17.986,5.436
				c1.348,0,2.671-0.048,3.933-0.141c0.54-0.045,1.03,0.372,1.071,0.923s-0.372,1.03-0.923,1.071
				C22.965,36.842,21.592,36.891,20.195,36.891z"/>
			<path d="M20.195,47.906c-9.688,0-19.986-2.604-19.986-7.432V7.429c0-0.552,0.448-1,1-1s1,0.448,1,1
				c0,2.267,6.842,5.428,17.986,5.428c11.145,0,17.989-3.161,17.989-5.428c0-0.552,0.447-1,1-1s1,0.448,1,1v17.914
				c0,0.553-0.447,1-1,1s-1-0.447-1-1V10.815c-3.463,2.645-10.89,4.042-17.989,4.042c-7.098,0-14.523-1.397-17.986-4.042v29.659
				c0,2.269,6.842,5.432,17.986,5.432c3.671,0,7.232-0.363,10.297-1.052c0.537-0.124,1.073,0.218,1.194,0.757
				s-0.218,1.073-0.757,1.194C27.723,47.525,24.011,47.906,20.195,47.906z"/>
		</g>
	</g>
</g>
</svg>
