<?xml version="1.0" encoding="utf-8"?>
<!-- Generator: Adobe Illustrator 16.0.0, SVG Export Plug-In . SVG Version: 6.00 Build 0)  -->
<!DOCTYPE svg PUBLIC "-//W3C//DTD SVG 1.1//EN" "http://www.w3.org/Graphics/SVG/1.1/DTD/svg11.dtd">
<svg version="1.1" id="Layer_1" xmlns="http://www.w3.org/2000/svg" xmlns:xlink="http://www.w3.org/1999/xlink" x="0px" y="0px"
	 width="48px" height="48px" viewBox="0 0 48 48" enable-background="new 0 0 48 48" xml:space="preserve">
<g>
	<g>
		<path d="M35.689,38.001c-0.553,0-1-0.447-1-1v-6.993c0-0.553,0.447-1,1-1s1,0.447,1,1v6.993
			C36.689,37.554,36.242,38.001,35.689,38.001z"/>
		<path d="M35.671,43.381c-0.553,0-1-0.447-1-1V41.05c0-0.553,0.447-1,1-1s1,0.447,1,1v1.331
			C36.671,42.934,36.224,43.381,35.671,43.381z"/>
	</g>
	<g>
		<path d="M35.68,48c-6.678,0-12.111-5.434-12.111-12.111c0-6.681,5.434-12.115,12.111-12.115c6.68,0,12.113,5.435,12.113,12.115
			C47.793,42.566,42.359,48,35.68,48z M35.68,25.773c-5.575,0-10.111,4.538-10.111,10.115C25.568,41.464,30.104,46,35.68,46
			c5.576,0,10.113-4.536,10.113-10.111C45.793,30.312,41.256,25.773,35.68,25.773z"/>
		<g>
			<path d="M20.192,14.856c-9.688,0-19.985-2.603-19.985-7.428S10.504,0,20.192,0c9.691,0,19.99,2.604,19.99,7.428
				S29.883,14.856,20.192,14.856z M20.192,2C9.049,2,2.207,5.162,2.207,7.428s6.842,5.428,17.985,5.428
				c11.146,0,17.99-3.161,17.99-5.428S31.338,2,20.192,2z"/>
			<path d="M20.192,25.868c-9.688,0-19.985-2.603-19.985-7.427c0-0.552,0.448-1,1-1s1,0.448,1,1c0,2.266,6.842,5.427,17.985,5.427
				c11.146,0,17.99-3.161,17.99-5.427c0-0.552,0.447-1,1-1s1,0.448,1,1C40.182,23.265,29.883,25.868,20.192,25.868z"/>
			<path d="M20.192,36.889c-9.688,0-19.985-2.605-19.985-7.435c0-0.553,0.448-1,1-1s1,0.447,1,1c0,2.27,6.842,5.435,17.985,5.435
				c1.348,0,2.673-0.048,3.938-0.141c0.552-0.043,1.03,0.373,1.071,0.924s-0.373,1.03-0.923,1.07
				C22.963,36.84,21.589,36.889,20.192,36.889z"/>
			<path d="M20.192,47.904c-9.688,0-19.985-2.604-19.985-7.43V7.428c0-0.552,0.448-1,1-1s1,0.448,1,1
				c0,2.267,6.842,5.428,17.985,5.428c11.146,0,17.99-3.161,17.99-5.428c0-0.552,0.447-1,1-1s1,0.448,1,1v17.914
				c0,0.553-0.447,1-1,1s-1-0.447-1-1V10.814c-3.464,2.645-10.89,4.042-17.99,4.042c-7.098,0-14.522-1.397-17.985-4.042v29.66
				c0,2.268,6.842,5.43,17.985,5.43c3.676,0,7.239-0.363,10.304-1.051c0.54-0.12,1.074,0.218,1.194,0.757
				c0.121,0.539-0.218,1.073-0.757,1.194C27.728,47.524,24.013,47.904,20.192,47.904z"/>
		</g>
	</g>
</g>
</svg>
