<?xml version="1.0" encoding="utf-8"?>
<!-- Generator: Adobe Illustrator 16.0.0, SVG Export Plug-In . SVG Version: 6.00 Build 0)  -->
<!DOCTYPE svg PUBLIC "-//W3C//DTD SVG 1.1//EN" "http://www.w3.org/Graphics/SVG/1.1/DTD/svg11.dtd">
<svg version="1.1" id="Layer_1" xmlns="http://www.w3.org/2000/svg" xmlns:xlink="http://www.w3.org/1999/xlink" x="0px" y="0px"
	 width="48px" height="48px" viewBox="0 0 48 48" enable-background="new 0 0 48 48" xml:space="preserve">
<g>
	<path d="M40.252,40.134c-0.157,0-0.317-0.037-0.467-0.116l-4.576-2.423c-0.327-0.173-0.532-0.514-0.532-0.884v-7.257
		c0-0.553,0.447-1,1-1s1,0.447,1,1v6.654l4.044,2.142c0.488,0.259,0.675,0.863,0.416,1.352C40.957,39.94,40.61,40.134,40.252,40.134
		z"/>
	<g>
		<path d="M35.68,48.001c-6.68,0-12.113-5.434-12.113-12.112c0-6.678,5.434-12.111,12.113-12.111
			c6.678,0,12.111,5.434,12.111,12.111C47.791,42.567,42.357,48.001,35.68,48.001z M35.68,25.777
			c-5.576,0-10.113,4.536-10.113,10.111c0,5.576,4.537,10.112,10.113,10.112c5.575,0,10.111-4.536,10.111-10.112
			C45.791,30.313,41.255,25.777,35.68,25.777z"/>
		<g>
			<path d="M20.196,14.855c-9.689,0-19.987-2.604-19.987-7.428c0-2.213,2.157-4.112,6.239-5.494C10.133,0.687,15.015,0,20.196,0
				c9.689,0,19.986,2.603,19.986,7.427C40.182,12.251,29.885,14.855,20.196,14.855z M20.196,2c-4.968,0-9.623,0.649-13.106,1.828
				c-3.011,1.019-4.881,2.397-4.88,3.599c0,2.267,6.843,5.429,17.987,5.429c11.143,0,17.986-3.162,17.986-5.428
				C38.182,5.161,31.339,2,20.196,2z"/>
			<path d="M20.196,25.869c-9.689,0-19.987-2.604-19.987-7.428c0-0.552,0.448-1,1-1s1,0.448,1,1c0,2.267,6.843,5.428,17.987,5.428
				c11.143,0,17.986-3.162,17.986-5.428c0-0.552,0.447-1,1-1s1,0.448,1,1C40.182,23.266,29.885,25.869,20.196,25.869z"/>
			<path d="M20.196,36.889c-9.689,0-19.987-2.605-19.987-7.435c0-0.553,0.448-1,1-1s1,0.447,1,1c0,2.27,6.843,5.435,17.987,5.435
				c1.367,0,2.69-0.047,3.933-0.14c0.538-0.044,1.03,0.372,1.071,0.923s-0.372,1.03-0.923,1.071
				C22.986,36.84,21.612,36.889,20.196,36.889z"/>
			<path d="M20.196,47.904c-9.689,0-19.987-2.604-19.987-7.432V7.427c0-0.552,0.448-1,1-1s1,0.448,1,1
				c0,2.267,6.843,5.428,17.987,5.428c11.143,0,17.986-3.162,17.986-5.428c0-0.552,0.447-1,1-1s1,0.448,1,1v17.915
				c0,0.553-0.447,1-1,1s-1-0.447-1-1V10.813c-3.463,2.645-10.888,4.042-17.986,4.042S5.672,13.458,2.209,10.813v29.66
				c0,2.269,6.843,5.432,17.987,5.432c3.672,0,7.233-0.363,10.298-1.052c0.535-0.122,1.073,0.217,1.194,0.757
				c0.121,0.538-0.218,1.073-0.757,1.194C27.726,47.523,24.013,47.904,20.196,47.904z"/>
		</g>
	</g>
</g>
</svg>
