<?xml version="1.0" encoding="utf-8"?>
<!-- Generator: Adobe Illustrator 16.0.0, SVG Export Plug-In . SVG Version: 6.00 Build 0)  -->
<!DOCTYPE svg PUBLIC "-//W3C//DTD SVG 1.1//EN" "http://www.w3.org/Graphics/SVG/1.1/DTD/svg11.dtd">
<svg version="1.1" id="Layer_1" xmlns="http://www.w3.org/2000/svg" xmlns:xlink="http://www.w3.org/1999/xlink" x="0px" y="0px"
	 width="48px" height="48px" viewBox="0 0 48 48" enable-background="new 0 0 48 48" xml:space="preserve">
<g>
	<path d="M35.305,43.097c-0.123,0-0.247-0.003-0.372-0.008c-4.853-0.206-8.632-4.326-8.426-9.184
		c0.207-4.865,4.286-8.656,9.171-8.44c2.351,0.101,4.521,1.111,6.113,2.847c1.592,1.734,2.412,3.984,2.312,6.335
		C43.904,39.385,40.04,43.097,35.305,43.097z M35.296,27.457c-3.652,0-6.635,2.869-6.791,6.533c-0.159,3.755,2.763,6.94,6.513,7.101
		c3.76,0.157,6.93-2.769,7.087-6.529c0.078-1.818-0.557-3.558-1.787-4.898s-2.908-2.122-4.726-2.2
		C35.493,27.459,35.395,27.457,35.296,27.457z"/>
	<path d="M46.426,47.986c-0.271,0-0.542-0.11-0.739-0.327l-5.292-5.814c-0.372-0.408-0.342-1.041,0.066-1.412
		s1.041-0.342,1.412,0.066l5.292,5.814c0.372,0.408,0.343,1.041-0.066,1.412C46.907,47.9,46.666,47.986,46.426,47.986z"/>
	<g>
		<path d="M20.599,14.879c-9.707,0-20.024-2.607-20.024-7.44C0.575,2.607,10.892,0,20.599,0c9.708,0,20.026,2.607,20.026,7.439
			C40.625,12.271,30.308,14.879,20.599,14.879z M20.599,2C9.432,2,2.575,5.168,2.575,7.439c0,2.271,6.857,5.44,18.024,5.44
			c11.168,0,18.026-3.168,18.026-5.44C38.625,5.168,31.768,2,20.599,2z"/>
		<path d="M20.599,25.918c-9.707,0-20.024-2.608-20.024-7.441c0-0.552,0.448-1,1-1s1,0.448,1,1c0,2.272,6.857,5.441,18.024,5.441
			c11.168,0,18.026-3.169,18.026-5.441c0-0.552,0.447-1,1-1s1,0.448,1,1C40.625,23.31,30.308,25.918,20.599,25.918z"/>
		<path d="M20.599,36.961c-9.707,0-20.024-2.61-20.024-7.447c0-0.553,0.448-1,1-1s1,0.447,1,1c0,2.274,6.857,5.447,18.024,5.447
			c0.612,0,1.208-0.014,1.804-0.031c0.561-0.001,1.012,0.419,1.028,0.971c0.016,0.553-0.418,1.013-0.971,1.029
			C21.847,36.947,21.231,36.961,20.599,36.961z"/>
		<path d="M20.599,48c-9.707,0-20.024-2.61-20.024-7.448V7.439c0-0.552,0.448-1,1-1s1,0.448,1,1c0,2.271,6.857,5.44,18.024,5.44
			c11.168,0,18.026-3.168,18.026-5.44c0-0.552,0.447-1,1-1s1,0.448,1,1v15.372c0,0.552-0.447,1-1,1s-1-0.448-1-1V10.828
			c-3.468,2.651-10.911,4.051-18.026,4.051c-7.114,0-14.556-1.4-18.024-4.051v29.724C2.575,42.827,9.432,46,20.599,46
			c3.682,0,7.25-0.364,10.319-1.053c0.537-0.12,1.073,0.218,1.194,0.757s-0.218,1.073-0.757,1.194
			C28.146,47.619,24.426,48,20.599,48z"/>
	</g>
</g>
</svg>
