<?xml version="1.0" encoding="utf-8"?>
<!-- Generator: Adobe Illustrator 16.0.0, SVG Export Plug-In . SVG Version: 6.00 Build 0)  -->
<!DOCTYPE svg PUBLIC "-//W3C//DTD SVG 1.1//EN" "http://www.w3.org/Graphics/SVG/1.1/DTD/svg11.dtd">
<svg version="1.1" id="Layer_1" xmlns="http://www.w3.org/2000/svg" xmlns:xlink="http://www.w3.org/1999/xlink" x="0px" y="0px"
	 width="48px" height="48px" viewBox="0 0 48 48" enable-background="new 0 0 48 48" xml:space="preserve">
<g>
	<g>
		<path d="M19.619,15.098C10.108,15.098,0,12.539,0,7.796c0-4.742,10.108-7.301,19.619-7.301c9.509,0,19.615,2.559,19.615,7.301
			C39.234,12.539,29.128,15.098,19.619,15.098z M19.619,2.495C8.703,2.495,2,5.583,2,7.796c0,2.214,6.703,5.302,17.619,5.302
			c10.914,0,17.615-3.088,17.615-5.302C37.234,5.583,30.533,2.495,19.619,2.495z"/>
		<path d="M19.619,25.9C10.108,25.898,0,23.338,0,18.596c0-0.552,0.448-1,1-1s1,0.448,1,1c0,2.213,6.703,5.302,17.619,5.304
			c10.914,0,17.615-3.089,17.615-5.304c0-0.552,0.447-1,1-1s1,0.448,1,1C39.234,23.34,29.128,25.9,19.619,25.9z"/>
		<path d="M19.619,36.704C10.108,36.704,0,34.143,0,29.396c0-0.553,0.448-1,1-1s1,0.447,1,1c0,2.216,6.703,5.308,17.619,5.308
			c0.79,0,1.562-0.019,2.323-0.055c0.563-0.04,1.02,0.399,1.047,0.951c0.026,0.552-0.4,1.021-0.951,1.047
			C21.245,36.686,20.441,36.704,19.619,36.704z"/>
		<path d="M19.619,47.505C10.108,47.505,0,44.943,0,40.195V7.796c0-0.552,0.448-1,1-1s1,0.448,1,1c0,2.214,6.703,5.302,17.619,5.302
			c10.914,0,17.615-3.088,17.615-5.302c0-0.552,0.447-1,1-1s1,0.448,1,1v17.565c0,0.553-0.447,1-1,1s-1-0.447-1-1V11.153
			c-3.414,2.582-10.674,3.945-17.615,3.945c-6.943,0-14.204-1.364-17.619-3.945v29.042c0,2.217,6.703,5.31,17.619,5.31
			c3.591,0,7.081-0.356,10.095-1.029c0.538-0.122,1.073,0.219,1.193,0.758c0.121,0.539-0.219,1.073-0.758,1.193
			C26.996,47.132,23.354,47.505,19.619,47.505z"/>
	</g>
	<g>
		<path d="M34.376,42.155c-1.645,0-3.29-0.59-4.602-1.665l-3.743-3.058c-0.428-0.35-0.491-0.979-0.142-1.407
			c0.347-0.428,0.978-0.491,1.407-0.142l3.744,3.059c1.086,0.891,2.482,1.318,3.813,1.189c1.178-0.118,2.216-0.66,2.923-1.527
			c1.581-1.94,1.13-4.94-1.007-6.688l-3.742-3.058c-0.428-0.35-0.491-0.979-0.142-1.407c0.348-0.428,0.978-0.491,1.407-0.142
			l3.742,3.058c2.989,2.444,3.568,6.705,1.292,9.5c-1.046,1.282-2.563,2.082-4.274,2.254C34.828,42.145,34.603,42.155,34.376,42.155
			z"/>
		<path d="M46.999,47.143c-0.223,0-0.446-0.074-0.632-0.226l-8.447-6.908c-0.428-0.35-0.491-0.979-0.142-1.407
			c0.351-0.428,0.98-0.49,1.407-0.142l8.447,6.908c0.428,0.35,0.491,0.979,0.142,1.407C47.576,47.018,47.289,47.143,46.999,47.143z"
			/>
	</g>
</g>
</svg>
