<?xml version="1.0" encoding="utf-8"?>
<!-- Generator: Adobe Illustrator 16.0.0, SVG Export Plug-In . SVG Version: 6.00 Build 0)  -->
<!DOCTYPE svg PUBLIC "-//W3C//DTD SVG 1.1//EN" "http://www.w3.org/Graphics/SVG/1.1/DTD/svg11.dtd">
<svg version="1.1" id="Layer_1" xmlns="http://www.w3.org/2000/svg" xmlns:xlink="http://www.w3.org/1999/xlink" x="0px" y="0px"
	 width="48px" height="48px" viewBox="0 0 48 48" enable-background="new 0 0 48 48" xml:space="preserve">
<g>
	<path d="M28.99,34.305h-9.989c-0.552,0-1-0.447-1-1s0.448-1,1-1h9.989c0.553,0,1,0.447,1,1S29.543,34.305,28.99,34.305z"/>
	<path d="M24,45.439c-6.691,0-12.135-5.443-12.135-12.135c0-6.688,5.444-12.129,12.135-12.129c6.69,0,12.133,5.441,12.133,12.129
		C36.133,39.996,30.69,45.439,24,45.439z M24,23.176c-5.588,0-10.135,4.544-10.135,10.129c0,5.588,4.546,10.135,10.135,10.135
		c5.587,0,10.133-4.547,10.133-10.135C34.133,27.72,29.587,23.176,24,23.176z"/>
	<path d="M37.107,30.859c-0.116,0-0.231-0.013-0.347-0.029l-2.239-0.007c-0.431,0-0.813-0.276-0.949-0.686
		c-1.381-4.163-5.228-6.961-9.572-6.961c-4.349,0-8.197,2.797-9.576,6.961c-0.135,0.409-0.518,0.686-0.949,0.686h-3.046
		c-0.217,0.045-0.469,0.039-0.696,0.006l-0.949-0.006c-0.211,0-0.408-0.065-0.569-0.178C3.502,29.756,0,25.586,0,20.772
		c0-5.557,4.524-10.077,10.086-10.077c1.13,0,2.249,0.2,3.339,0.596c1.11-5.061,5.555-8.73,10.834-8.73
		c4.524,0,8.525,2.721,10.244,6.867c0.883-0.234,1.741-0.348,2.604-0.348C43.113,9.08,48,13.966,48,19.972
		c0,5.519-4.261,10.203-9.75,10.782c-0.11,0.045-0.229,0.069-0.354,0.069h-0.438C37.337,30.847,37.225,30.859,37.107,30.859z
		 M35.221,28.823h1.541c0.144,0.008,0.212,0.017,0.279,0.026l0.063,0.01c0.14-0.02,0.21-0.028,0.282-0.033l0.228-0.002
		c0.065-0.02,0.133-0.033,0.202-0.039C42.405,28.419,46,24.548,46,19.972c0-4.903-3.989-8.892-8.893-8.892
		c-0.937,0-1.88,0.172-2.884,0.527c-0.256,0.09-0.537,0.074-0.779-0.048c-0.242-0.121-0.426-0.335-0.507-0.594
		c-1.211-3.831-4.698-6.404-8.678-6.404c-4.7,0-8.592,3.55-9.055,8.259c-0.032,0.329-0.225,0.621-0.516,0.78
		c-0.29,0.157-0.641,0.163-0.935,0.013c-1.192-0.609-2.426-0.918-3.669-0.918C5.627,12.695,2,16.318,2,20.772
		c0,3.971,2.978,7.395,6.927,7.964c0.102,0.016,0.198,0.045,0.287,0.087H9.74c0.144,0.008,0.21,0.017,0.276,0.026l0.132,0.001
		c0.068-0.01,0.135-0.02,0.205-0.024l2.422-0.002c1.831-4.604,6.254-7.647,11.225-7.647C28.966,21.177,33.388,24.221,35.221,28.823z
		"/>
</g>
</svg>
