<?xml version="1.0" encoding="utf-8"?>
<!-- Generator: Adobe Illustrator 16.0.0, SVG Export Plug-In . SVG Version: 6.00 Build 0)  -->
<!DOCTYPE svg PUBLIC "-//W3C//DTD SVG 1.1//EN" "http://www.w3.org/Graphics/SVG/1.1/DTD/svg11.dtd">
<svg version="1.1" id="Layer_1" xmlns="http://www.w3.org/2000/svg" xmlns:xlink="http://www.w3.org/1999/xlink" x="0px" y="0px"
	 width="48px" height="48px" viewBox="0 0 48 48" enable-background="new 0 0 48 48" xml:space="preserve">
<g>
	<path d="M24.004,38.989c-0.34,0-0.656-0.173-0.84-0.458l-6.036-9.362c-0.198-0.308-0.213-0.699-0.038-1.021
		s0.512-0.521,0.878-0.521h12.069c0.366,0,0.703,0.2,0.878,0.521s0.161,0.713-0.037,1.021l-6.033,9.362
		C24.66,38.816,24.344,38.989,24.004,38.989z M19.802,29.627l4.202,6.517l4.199-6.517H19.802z"/>
	<path d="M24.001,45.441c-6.69,0-12.134-5.444-12.134-12.137c0-6.688,5.443-12.13,12.134-12.13c6.691,0,12.136,5.441,12.136,12.13
		C36.137,39.997,30.692,45.441,24.001,45.441z M24.001,23.175c-5.588,0-10.134,4.544-10.134,10.13
		c0,5.59,4.546,10.137,10.134,10.137c5.589,0,10.136-4.547,10.136-10.137C34.137,27.719,29.59,23.175,24.001,23.175z"/>
	<path d="M37.111,30.863c-0.119,0-0.234-0.014-0.352-0.032l-2.234-0.008c-0.431,0-0.813-0.275-0.949-0.685
		c-1.386-4.165-5.234-6.963-9.575-6.963c-4.352,0-8.198,2.797-9.572,6.961c-0.135,0.41-0.518,0.687-0.95,0.687h-3.05
		c-0.204,0.052-0.463,0.045-0.702,0.007l-0.944-0.007c-0.211,0-0.407-0.065-0.569-0.178C3.502,29.761,0,25.591,0,20.773
		c0-5.558,4.523-10.079,10.083-10.079c1.13,0,2.249,0.201,3.342,0.599C14.54,6.23,18.983,2.56,24.257,2.56
		c4.528,0,8.532,2.723,10.251,6.871c0.885-0.233,1.744-0.348,2.604-0.348C43.115,9.083,48,13.968,48,19.972
		c0,5.521-4.262,10.206-9.753,10.783c-0.109,0.044-0.228,0.068-0.351,0.068h-0.438C37.339,30.85,37.222,30.863,37.111,30.863z
		 M35.224,28.823h1.533c0.148,0.008,0.231,0.019,0.313,0.031l0.033,0.007c0.134-0.02,0.213-0.03,0.29-0.036l0.226-0.001
		c0.063-0.02,0.13-0.032,0.198-0.038C42.405,28.42,46,24.548,46,19.972c0-4.901-3.987-8.889-8.889-8.889
		c-0.933,0-1.877,0.172-2.886,0.526c-0.256,0.089-0.536,0.071-0.778-0.049c-0.242-0.121-0.425-0.335-0.506-0.593
		C31.729,7.135,28.24,4.56,24.257,4.56c-4.693,0-8.586,3.552-9.054,8.263c-0.033,0.329-0.226,0.621-0.516,0.779
		c-0.291,0.157-0.64,0.162-0.934,0.013c-1.195-0.611-2.429-0.921-3.667-0.921C5.625,12.694,2,16.318,2,20.773
		c0,3.974,2.977,7.398,6.925,7.963c0.102,0.015,0.198,0.045,0.287,0.087h0.527c0.146,0.008,0.224,0.019,0.303,0.031
		c0.159-0.012,0.239-0.023,0.32-0.029l2.417-0.001c1.827-4.604,6.25-7.648,11.223-7.648C28.963,21.176,33.386,24.22,35.224,28.823z"
		/>
</g>
</svg>
