<?xml version="1.0" encoding="utf-8"?>
<!-- Generator: Adobe Illustrator 16.0.0, SVG Export Plug-In . SVG Version: 6.00 Build 0)  -->
<!DOCTYPE svg PUBLIC "-//W3C//DTD SVG 1.1//EN" "http://www.w3.org/Graphics/SVG/1.1/DTD/svg11.dtd">
<svg version="1.1" id="Layer_1" xmlns="http://www.w3.org/2000/svg" xmlns:xlink="http://www.w3.org/1999/xlink" x="0px" y="0px"
	 width="48px" height="48px" viewBox="0 0 48 48" enable-background="new 0 0 48 48" xml:space="preserve">
<g>
	<polygon points="23.997,37.064 19.98,39.49 21.042,34.92 17.498,31.85 22.174,31.443 23.997,27.122 25.825,31.443 30.501,31.85 
		26.954,34.92 28.018,39.49 	"/>
	<path d="M23.997,45.441c-6.688,0-12.13-5.444-12.13-12.137c0-6.688,5.441-12.13,12.13-12.13c6.693,0,12.14,5.441,12.14,12.13
		C36.137,39.997,30.69,45.441,23.997,45.441z M23.997,23.175c-5.585,0-10.13,4.544-10.13,10.13c0,5.59,4.544,10.137,10.13,10.137
		c5.591,0,10.14-4.547,10.14-10.137C34.137,27.719,29.588,23.175,23.997,23.175z"/>
	<path d="M37.113,30.861c-0.121,0-0.237-0.014-0.354-0.031l-2.234-0.007c-0.431,0-0.813-0.275-0.949-0.685
		c-1.384-4.164-5.232-6.962-9.577-6.962c-4.347,0-8.193,2.797-9.572,6.961c-0.135,0.409-0.518,0.686-0.949,0.686h-3.049
		c-0.207,0.048-0.47,0.04-0.698,0.006l-0.945-0.006c-0.211,0-0.407-0.065-0.569-0.178c-4.713-0.886-8.216-5.055-8.216-9.872
		c0-5.558,4.524-10.08,10.086-10.08c1.124,0,2.243,0.201,3.34,0.599c1.108-5.063,5.553-8.734,10.834-8.734
		c4.525,0,8.528,2.723,10.247,6.871c0.887-0.234,1.746-0.348,2.604-0.348C43.115,9.082,48,13.967,48,19.972
		c0,5.518-4.256,10.199-9.74,10.778c-0.112,0.047-0.234,0.073-0.361,0.073H37.46C37.345,30.848,37.229,30.861,37.113,30.861z
		 M35.225,28.823h1.539c0.147,0.008,0.22,0.019,0.292,0.029l0.052,0.008c0.134-0.02,0.205-0.029,0.279-0.034l0.221-0.001
		c0.067-0.022,0.139-0.037,0.212-0.043C42.406,28.419,46,24.549,46,19.972c0-4.902-3.987-8.89-8.889-8.89
		c-0.93,0-1.874,0.172-2.887,0.526c-0.257,0.09-0.537,0.071-0.777-0.05c-0.242-0.121-0.425-0.335-0.506-0.593
		c-1.212-3.832-4.7-6.406-8.681-6.406c-4.7,0-8.592,3.551-9.054,8.261c-0.032,0.329-0.225,0.62-0.514,0.779
		c-0.289,0.159-0.639,0.164-0.933,0.016c-1.204-0.611-2.44-0.92-3.673-0.92c-4.458,0-8.086,3.625-8.086,8.08
		c0,3.973,2.978,7.396,6.927,7.962c0.102,0.015,0.198,0.045,0.287,0.087h0.528c0.148,0.009,0.219,0.019,0.289,0.029h0.109
		c0.07-0.011,0.14-0.021,0.21-0.026l2.427-0.002c1.831-4.603,6.253-7.647,11.221-7.647C28.964,21.177,33.388,24.221,35.225,28.823z"
		/>
</g>
</svg>
