<?xml version="1.0" encoding="utf-8"?>
<!-- Generator: Adobe Illustrator 16.0.0, SVG Export Plug-In . SVG Version: 6.00 Build 0)  -->
<!DOCTYPE svg PUBLIC "-//W3C//DTD SVG 1.1//EN" "http://www.w3.org/Graphics/SVG/1.1/DTD/svg11.dtd">
<svg version="1.1" id="Layer_1" xmlns="http://www.w3.org/2000/svg" xmlns:xlink="http://www.w3.org/1999/xlink" x="0px" y="0px"
	 width="48px" height="48px" viewBox="0 0 48 48" enable-background="new 0 0 48 48" xml:space="preserve">
<g>
	<g>
		<path d="M24.001,38.244c-0.552,0-1-0.447-1-1V27.5c0-0.553,0.448-1,1-1c0.553,0,1,0.447,1,1v9.744
			C25.001,37.797,24.554,38.244,24.001,38.244z"/>
		<path d="M24.267,40.115c-0.235,0-0.471-0.083-0.661-0.249l-5.539-4.872c-0.415-0.365-0.455-0.997-0.09-1.411
			c0.365-0.414,0.997-0.455,1.412-0.091l4.834,4.253l4.343-4.347c0.391-0.391,1.023-0.391,1.414,0c0.391,0.39,0.391,1.023,0,1.414
			l-5.006,5.01C24.78,40.017,24.523,40.115,24.267,40.115z"/>
	</g>
	<path d="M24.001,45.441c-6.693,0-12.139-5.443-12.139-12.135c0-6.689,5.446-12.132,12.139-12.132
		c6.689,0,12.131,5.442,12.131,12.132C36.132,39.998,30.69,45.441,24.001,45.441z M24.001,23.175
		c-5.591,0-10.139,4.545-10.139,10.132c0,5.588,4.548,10.135,10.139,10.135c5.586,0,10.131-4.547,10.131-10.135
		C34.132,27.72,29.587,23.175,24.001,23.175z"/>
	<path d="M37.111,30.863c-0.124,0-0.239-0.015-0.355-0.033l-2.232-0.007c-0.432,0-0.813-0.276-0.949-0.686
		c-1.379-4.164-5.226-6.962-9.573-6.962c-4.35,0-8.199,2.798-9.578,6.962c-0.135,0.409-0.518,0.686-0.949,0.686h-3.042
		c-0.209,0.05-0.462,0.045-0.7,0.007l-0.947-0.007c-0.211,0-0.407-0.065-0.569-0.178C3.503,29.76,0,25.59,0,20.773
		c0-5.558,4.523-10.08,10.082-10.08c1.128,0,2.248,0.201,3.345,0.6c1.108-5.063,5.553-8.733,10.835-8.733
		c4.524,0,8.526,2.723,10.245,6.871c0.89-0.234,1.749-0.348,2.604-0.348C43.115,9.082,48,13.967,48,19.972
		c0,5.521-4.261,10.206-9.749,10.783c-0.109,0.044-0.228,0.068-0.351,0.068h-0.441C37.346,30.849,37.23,30.863,37.111,30.863z
		 M35.223,28.823h1.541c0.149,0.008,0.23,0.02,0.311,0.032l0.03,0.006c0.129-0.02,0.208-0.03,0.29-0.036l0.228-0.001
		c0.063-0.02,0.13-0.032,0.198-0.038c4.663-0.372,8.18-4.161,8.18-8.814c0-4.902-3.987-8.89-8.889-8.89
		c-0.927,0-1.872,0.172-2.891,0.526c-0.256,0.088-0.535,0.07-0.776-0.051c-0.241-0.122-0.424-0.335-0.505-0.592
		c-1.213-3.832-4.699-6.406-8.677-6.406c-4.702,0-8.595,3.552-9.055,8.261c-0.032,0.329-0.225,0.621-0.515,0.78
		c-0.29,0.158-0.64,0.164-0.934,0.014c-3.299-1.679-6.992-0.955-9.392,1.446C2.84,16.586,2,18.615,2,20.773
		c0,3.973,2.978,7.397,6.927,7.963c0.102,0.015,0.198,0.045,0.287,0.087h0.523c0.15,0.008,0.231,0.02,0.312,0.032
		c0.153-0.013,0.233-0.024,0.317-0.03l2.408-0.002c1.832-4.603,6.255-7.647,11.227-7.647C28.97,21.176,33.392,24.22,35.223,28.823z"
		/>
</g>
</svg>
