<?xml version="1.0" encoding="utf-8"?>
<!-- Generator: Adobe Illustrator 16.0.0, SVG Export Plug-In . SVG Version: 6.00 Build 0)  -->
<!DOCTYPE svg PUBLIC "-//W3C//DTD SVG 1.1//EN" "http://www.w3.org/Graphics/SVG/1.1/DTD/svg11.dtd">
<svg version="1.1" id="Layer_1" xmlns="http://www.w3.org/2000/svg" xmlns:xlink="http://www.w3.org/1999/xlink" x="0px" y="0px"
	 width="48px" height="48px" viewBox="0 0 48 48" enable-background="new 0 0 48 48" xml:space="preserve">
<g>
	<path d="M24.002,45.441c-6.692,0-12.137-5.443-12.137-12.135c0-6.688,5.444-12.13,12.137-12.13c3.24,0,6.286,1.262,8.579,3.553
		s3.556,5.337,3.556,8.577C36.137,39.998,30.693,45.441,24.002,45.441z M24.004,23.177c-5.59,0-10.139,4.544-10.139,10.13
		c0,5.588,4.547,10.135,10.137,10.135c5.588,0,10.135-4.547,10.135-10.135C34.137,27.721,29.591,23.177,24.004,23.177z"/>
	<g>
		<path d="M24.008,35.122c-0.552,0-1-0.447-1-1v-7.011c0-0.553,0.448-1,1-1c0.553,0,1,0.447,1,1v7.011
			C25.008,34.675,24.561,35.122,24.008,35.122z"/>
		<path d="M23.993,40.504c-0.552,0-1-0.447-1-1v-1.329c0-0.553,0.448-1,1-1c0.553,0,1,0.447,1,1v1.329
			C24.993,40.057,24.546,40.504,23.993,40.504z"/>
	</g>
	<path d="M37.109,30.861c-0.122,0-0.241-0.015-0.361-0.034l-2.223-0.007c-0.431,0-0.813-0.275-0.949-0.685
		c-1.386-4.163-5.233-6.96-9.575-6.96c-4.351,0-8.198,2.796-9.573,6.958c-0.136,0.41-0.519,0.687-0.95,0.687h-3.05
		c-0.189,0.052-0.472,0.044-0.715,0.006L8.781,30.82c-0.21,0-0.406-0.065-0.567-0.176C3.502,29.76,0,25.589,0,20.771
		c0-5.557,4.524-10.077,10.084-10.077c1.128,0,2.247,0.201,3.34,0.599C14.537,6.23,18.981,2.56,24.256,2.56
		c4.527,0,8.532,2.723,10.252,6.871c0.89-0.234,1.748-0.349,2.604-0.349C43.115,9.082,48,13.967,48,19.972
		c0,5.523-4.266,10.208-9.761,10.783c-0.107,0.042-0.224,0.065-0.345,0.065h-0.438C37.345,30.847,37.225,30.861,37.109,30.861z
		 M35.224,28.82h1.533c0.156,0.01,0.23,0.021,0.305,0.032l0.04,0.007c0.131-0.02,0.202-0.03,0.273-0.036l0.245-0.001
		c0.063-0.019,0.128-0.031,0.194-0.037C42.404,28.419,46,24.548,46,19.972c0-4.902-3.987-8.89-8.889-8.89
		c-0.926,0-1.871,0.172-2.888,0.526c-0.257,0.088-0.535,0.07-0.777-0.05c-0.241-0.121-0.424-0.334-0.505-0.592
		c-1.213-3.832-4.703-6.406-8.686-6.406c-4.695,0-8.587,3.552-9.053,8.262c-0.033,0.329-0.226,0.62-0.516,0.779
		c-0.291,0.158-0.64,0.164-0.934,0.013c-1.196-0.61-2.43-0.92-3.666-0.92C5.626,12.694,2,16.317,2,20.771
		c0,3.974,2.977,7.397,6.923,7.963c0.101,0.015,0.197,0.044,0.285,0.086h0.531c0.154,0.01,0.222,0.02,0.292,0.031
		c0.168-0.011,0.24-0.021,0.313-0.027l2.435-0.003c1.828-4.602,6.25-7.646,11.223-7.646C28.963,21.176,33.386,24.219,35.224,28.82z"
		/>
</g>
</svg>
