<?xml version="1.0" encoding="utf-8"?>
<!-- Generator: Adobe Illustrator 16.0.0, SVG Export Plug-In . SVG Version: 6.00 Build 0)  -->
<!DOCTYPE svg PUBLIC "-//W3C//DTD SVG 1.1//EN" "http://www.w3.org/Graphics/SVG/1.1/DTD/svg11.dtd">
<svg version="1.1" id="Layer_1" xmlns="http://www.w3.org/2000/svg" xmlns:xlink="http://www.w3.org/1999/xlink" x="0px" y="0px"
	 width="48px" height="48px" viewBox="0 0 48 48" enable-background="new 0 0 48 48" xml:space="preserve">
<g>
	<g>
		<path d="M23.787,34.131c-0.772,0-1.555-0.14-2.321-0.422c-1.72-0.632-3.139-1.904-3.996-3.582l-2.25-4.4
			c-0.251-0.491-0.057-1.094,0.435-1.345c0.491-0.253,1.095-0.056,1.345,0.435l2.25,4.4c0.628,1.229,1.66,2.157,2.906,2.615
			c1.217,0.447,2.488,0.387,3.578-0.17c2.281-1.17,3.088-4.176,1.796-6.7l-2.252-4.401c-0.251-0.492-0.057-1.094,0.436-1.346
			c0.49-0.252,1.092-0.057,1.346,0.435l2.252,4.402c1.793,3.504,0.597,7.717-2.666,9.391C25.751,33.9,24.777,34.131,23.787,34.131z"
			/>
		<path d="M31.267,43.479c-0.363,0-0.714-0.198-0.892-0.545l-5.078-9.926c-0.251-0.491-0.057-1.094,0.436-1.346
			c0.489-0.251,1.093-0.059,1.346,0.436l5.078,9.926c0.251,0.491,0.057,1.094-0.436,1.346C31.575,43.443,31.42,43.479,31.267,43.479
			z"/>
	</g>
	<path d="M10.084,32.824c-0.123,0-0.245-0.015-0.365-0.034l-0.941-0.006c-0.21,0-0.404-0.064-0.565-0.175
		C3.501,31.726,0,27.554,0,22.735c0-5.557,4.523-10.079,10.084-10.079c1.129,0,2.248,0.201,3.34,0.598
		c1.115-5.062,5.559-8.732,10.833-8.732c4.524,0,8.529,2.723,10.251,6.871c0.888-0.233,1.746-0.347,2.604-0.347
		C43.115,11.046,48,15.931,48,21.935c0,5.52-4.262,10.204-9.753,10.78c-0.109,0.044-0.228,0.068-0.351,0.068h-0.442
		c-0.22,0.052-0.473,0.043-0.704,0.007l-2.227-0.007c-0.553,0-1-0.447-1-1s0.447-1,1-1h2.231c0.155,0.009,0.229,0.02,0.301,0.031
		h0.101c0.071-0.012,0.143-0.021,0.215-0.027l0.245-0.002c0.064-0.021,0.132-0.033,0.201-0.039C42.405,30.381,46,26.51,46,21.935
		c0-4.901-3.987-8.889-8.889-8.889c-0.929,0-1.874,0.171-2.888,0.524c-0.257,0.088-0.536,0.071-0.777-0.05s-0.424-0.334-0.505-0.592
		c-1.215-3.832-4.705-6.406-8.685-6.406c-4.694,0-8.587,3.552-9.055,8.262c-0.033,0.329-0.226,0.621-0.516,0.779
		c-0.291,0.158-0.639,0.163-0.935,0.012c-1.192-0.61-2.426-0.919-3.667-0.919C5.626,14.656,2,18.28,2,22.735
		c0,3.974,2.975,7.398,6.92,7.964c0.1,0.015,0.195,0.044,0.283,0.085h0.535c0.154,0.01,0.222,0.02,0.291,0.03l0.104,0.001
		c0.069-0.012,0.137-0.021,0.206-0.027l3.136-0.004c0.552,0,1,0.447,1,1s-0.448,1-1,1h-3.049
		C10.333,32.809,10.213,32.824,10.084,32.824z"/>
</g>
</svg>
