<?xml version="1.0" encoding="utf-8"?>
<!-- Generator: Adobe Illustrator 16.0.0, SVG Export Plug-In . SVG Version: 6.00 Build 0)  -->
<!DOCTYPE svg PUBLIC "-//W3C//DTD SVG 1.1//EN" "http://www.w3.org/Graphics/SVG/1.1/DTD/svg11.dtd">
<svg version="1.1" id="Layer_1" xmlns="http://www.w3.org/2000/svg" xmlns:xlink="http://www.w3.org/1999/xlink" x="0px" y="0px"
	 width="48px" height="48px" viewBox="0 0 48 48" enable-background="new 0 0 48 48" xml:space="preserve">
<g>
	<path d="M23.998,20.77c-5.801,0-10.521-4.659-10.521-10.386C13.478,4.658,18.198,0,23.998,0c5.798,0,10.516,4.658,10.516,10.384
		C34.514,16.111,29.796,20.77,23.998,20.77z M23.998,2c-4.698,0-8.52,3.761-8.521,8.384c0,4.624,3.822,8.386,8.521,8.386
		c4.695,0,8.516-3.762,8.516-8.386C32.514,5.761,28.693,2,23.998,2z"/>
	<path d="M46.999,48H1.001c-0.552,0-1-0.447-1-1c0-13.059,10.765-23.683,23.997-23.683c13.234,0,24.001,10.625,24.001,23.683
		C47.999,47.553,47.552,48,46.999,48z M2.024,46h43.952C45.444,34.506,35.79,25.316,23.998,25.316
		C12.208,25.316,2.556,34.506,2.024,46z"/>
</g>
</svg>
