<?xml version="1.0" encoding="utf-8"?>
<!-- Generator: Adobe Illustrator 16.0.0, SVG Export Plug-In . SVG Version: 6.00 Build 0)  -->
<!DOCTYPE svg PUBLIC "-//W3C//DTD SVG 1.1//EN" "http://www.w3.org/Graphics/SVG/1.1/DTD/svg11.dtd">
<svg version="1.1" id="Layer_1" xmlns="http://www.w3.org/2000/svg" xmlns:xlink="http://www.w3.org/1999/xlink" x="0px" y="0px"
	 width="48px" height="48px" viewBox="0 0 48 48" enable-background="new 0 0 48 48" xml:space="preserve">
<g>
	<g>
		<path d="M40.795,36.48h-9.813c-0.553,0-1-0.447-1-1s0.447-1,1-1h9.813c0.553,0,1,0.447,1,1S41.348,36.48,40.795,36.48z"/>
		<path d="M35.887,41.384c-0.553,0-1-0.447-1-1v-9.805c0-0.553,0.447-1,1-1s1,0.447,1,1v9.805
			C36.887,40.937,36.439,41.384,35.887,41.384z"/>
	</g>
	<path d="M19.747,17.7c-4.829,0-8.757-3.879-8.757-8.647c0-4.771,3.928-8.652,8.757-8.652c4.83,0,8.759,3.881,8.759,8.652
		C28.506,13.821,24.577,17.7,19.747,17.7z M19.747,2.401c-3.726,0-6.757,2.984-6.757,6.652c0,3.665,3.031,6.647,6.757,6.647
		c3.727,0,6.759-2.982,6.759-6.647C26.506,5.385,23.474,2.401,19.747,2.401z"/>
	<path d="M35.891,47.598c-6.683,0-12.119-5.437-12.119-12.119c0-6.68,5.437-12.113,12.119-12.113C42.567,23.365,48,28.799,48,35.479
		C48,42.161,42.567,47.598,35.891,47.598z M35.891,25.365c-5.58,0-10.119,4.537-10.119,10.113c0,5.58,4.539,10.119,10.119,10.119
		C41.465,45.598,46,41.059,46,35.479C46,29.902,41.465,25.365,35.891,25.365z"/>
	<path d="M25.359,39.896H1c-0.552,0-1-0.447-1-1c0-10.748,8.858-19.493,19.747-19.493c4.797,0,9.435,1.738,13.06,4.895
		c0.268,0.233,0.393,0.59,0.326,0.939c-0.065,0.349-0.311,0.637-0.645,0.757c-4.018,1.442-6.717,5.254-6.717,9.484
		c0,0.971,0.177,1.988,0.539,3.11c0.099,0.305,0.046,0.638-0.143,0.896C25.979,39.743,25.68,39.896,25.359,39.896z M2.029,37.896
		h22.02c-0.186-0.835-0.277-1.635-0.277-2.418c0-4.496,2.538-8.596,6.465-10.672c-3.044-2.204-6.712-3.403-10.489-3.403
		C10.302,21.404,2.556,28.715,2.029,37.896z"/>
</g>
</svg>
