<?xml version="1.0" encoding="utf-8"?>
<!-- Generator: Adobe Illustrator 16.0.0, SVG Export Plug-In . SVG Version: 6.00 Build 0)  -->
<!DOCTYPE svg PUBLIC "-//W3C//DTD SVG 1.1//EN" "http://www.w3.org/Graphics/SVG/1.1/DTD/svg11.dtd">
<svg version="1.1" id="Layer_1" xmlns="http://www.w3.org/2000/svg" xmlns:xlink="http://www.w3.org/1999/xlink" x="0px" y="0px"
	 width="48px" height="48px" viewBox="0 0 48 48" enable-background="new 0 0 48 48" xml:space="preserve">
<g>
	<g>
		<path d="M22.391,29.188l-0.063-0.83c-0.191-1.719,0.381-3.596,1.974-5.504c1.433-1.688,2.229-2.932,2.229-4.363
			c0-1.624-1.02-2.707-3.026-2.739c-1.145,0-2.418,0.383-3.214,0.988l-0.765-2.004c1.05-0.766,2.866-1.276,4.553-1.276
			c3.661,0,5.317,2.26,5.317,4.681c0,2.165-1.211,3.725-2.739,5.539c-1.4,1.658-1.91,3.055-1.814,4.678l0.032,0.83H22.391z
			 M21.69,33.646c0-1.181,0.797-2.008,1.91-2.008c1.113,0,1.878,0.827,1.878,2.008c0,1.111-0.732,1.973-1.911,1.973
			C22.455,35.618,21.69,34.758,21.69,33.646z"/>
	</g>
	<path d="M24,48C10.767,48,0,37.233,0,24S10.767,0,24,0s24,10.767,24,24S37.233,48,24,48z M24,2C11.869,2,2,11.869,2,24
		s9.869,22,22,22s22-9.869,22-22S36.131,2,24,2z"/>
</g>
</svg>
