<?xml version="1.0" encoding="utf-8"?>
<!-- Generator: Adobe Illustrator 16.0.0, SVG Export Plug-In . SVG Version: 6.00 Build 0)  -->
<!DOCTYPE svg PUBLIC "-//W3C//DTD SVG 1.1//EN" "http://www.w3.org/Graphics/SVG/1.1/DTD/svg11.dtd">
<svg version="1.1" id="Layer_1" xmlns="http://www.w3.org/2000/svg" xmlns:xlink="http://www.w3.org/1999/xlink" x="0px" y="0px"
	 width="48px" height="48px" viewBox="0 0 48 48" enable-background="new 0 0 48 48" xml:space="preserve">
<g>
	<path d="M23.995,29.245c-0.552,0-1-0.447-1-1v-6.744c0-0.552,0.448-1,1-1c0.553,0,1,0.448,1,1v6.744
		C24.995,28.798,24.548,29.245,23.995,29.245z"/>
	<path d="M25.591,34.984c0,0.881-0.717,1.594-1.588,1.594c-0.884,0-1.594-0.713-1.594-1.594c0-0.873,0.71-1.588,1.594-1.588
		C24.874,33.396,25.591,34.111,25.591,34.984"/>
	<path d="M45.21,44.641H2.788c-1.131,0-2.04-0.454-2.491-1.247c-0.458-0.805-0.381-1.841,0.213-2.843L21.611,4.916
		C22.196,3.927,23.067,3.36,24,3.36c0.933,0,1.804,0.567,2.388,1.556l21.102,35.635c0.594,1.002,0.671,2.038,0.213,2.843
		C47.25,44.187,46.342,44.641,45.21,44.641z M24,5.36c-0.202,0-0.458,0.22-0.668,0.575L2.23,41.57
		c-0.236,0.398-0.269,0.705-0.196,0.833c0.063,0.109,0.297,0.237,0.753,0.237H45.21c0.457,0,0.691-0.128,0.754-0.237
		c0.073-0.128,0.041-0.435-0.195-0.833L24.667,5.934C24.457,5.58,24.202,5.36,24,5.36z"/>
</g>
</svg>
