<?xml version="1.0" encoding="utf-8"?>
<!-- Generator: Adobe Illustrator 16.0.0, SVG Export Plug-In . SVG Version: 6.00 Build 0)  -->
<!DOCTYPE svg PUBLIC "-//W3C//DTD SVG 1.1//EN" "http://www.w3.org/Graphics/SVG/1.1/DTD/svg11.dtd">
<svg version="1.1" id="Layer_1" xmlns="http://www.w3.org/2000/svg" xmlns:xlink="http://www.w3.org/1999/xlink" x="0px" y="0px"
	 width="48px" height="48px" viewBox="0 0 48 48" enable-background="new 0 0 48 48" xml:space="preserve">
<g>
	<g>
		<path d="M35.889,42.184c-0.553,0-1-0.447-1-1v-9.576c0-0.553,0.447-1,1-1s1,0.447,1,1v9.576
			C36.889,41.736,36.441,42.184,35.889,42.184z"/>
		<path d="M30.707,35.691c-0.256,0-0.512-0.098-0.707-0.293c-0.391-0.391-0.391-1.023,0-1.414l4.914-4.916
			c0.372-0.373,0.971-0.393,1.367-0.044l5.445,4.781c0.415,0.364,0.456,0.996,0.091,1.411c-0.364,0.414-0.996,0.456-1.411,0.091
			l-4.74-4.162l-4.252,4.253C31.219,35.594,30.963,35.691,30.707,35.691z"/>
	</g>
	<path d="M19.749,17.7c-4.83,0-8.759-3.88-8.759-8.648s3.929-8.648,8.759-8.648c4.826,0,8.752,3.879,8.752,8.648
		S24.575,17.7,19.749,17.7z M19.749,2.404c-3.727,0-6.759,2.982-6.759,6.648c0,3.666,3.032,6.648,6.759,6.648
		c3.723,0,6.752-2.982,6.752-6.648C26.501,5.386,23.472,2.404,19.749,2.404z"/>
	<path d="M35.889,47.596c-6.68,0-12.113-5.435-12.113-12.115c0-6.683,5.434-12.119,12.113-12.119C42.566,23.362,48,28.798,48,35.48
		C48,42.161,42.566,47.596,35.889,47.596z M35.889,25.361c-5.576,0-10.113,4.54-10.113,10.119c0,5.577,4.537,10.115,10.113,10.115
		C41.464,45.596,46,41.058,46,35.48C46,29.901,41.464,25.361,35.889,25.361z"/>
	<path d="M25.355,39.896H1c-0.552,0-1-0.447-1-1c0-10.749,8.859-19.495,19.748-19.496c4.792,0,9.431,1.739,13.061,4.897
		c0.268,0.233,0.393,0.59,0.326,0.939c-0.065,0.35-0.311,0.637-0.646,0.757c-4.017,1.439-6.716,5.251-6.716,9.486
		c0,0.975,0.175,1.992,0.534,3.11c0.098,0.304,0.044,0.637-0.145,0.895C25.976,39.744,25.675,39.896,25.355,39.896z M2.029,37.896
		h22.019c-0.184-0.833-0.274-1.632-0.274-2.416c0-4.499,2.538-8.6,6.463-10.674c-3.046-2.206-6.714-3.406-10.488-3.406
		C10.302,21.402,2.556,28.714,2.029,37.896z"/>
</g>
</svg>
