<?xml version="1.0" encoding="utf-8"?>
<!-- Generator: Adobe Illustrator 16.0.0, SVG Export Plug-In . SVG Version: 6.00 Build 0)  -->
<!DOCTYPE svg PUBLIC "-//W3C//DTD SVG 1.1//EN" "http://www.w3.org/Graphics/SVG/1.1/DTD/svg11.dtd">
<svg version="1.1" id="Layer_1" xmlns="http://www.w3.org/2000/svg" xmlns:xlink="http://www.w3.org/1999/xlink" x="0px" y="0px"
	 width="48px" height="48px" viewBox="0 0 48 48" enable-background="new 0 0 48 48" xml:space="preserve">
<g>
	<g>
		<g>
			<path d="M38.669,47.432c-5.148,0-9.337-4.188-9.337-9.334c0-5.147,4.188-9.336,9.337-9.336c5.146,0,9.331,4.188,9.331,9.336
				C48,43.244,43.814,47.432,38.669,47.432z M38.669,30.762c-4.046,0-7.337,3.291-7.337,7.336c0,4.044,3.291,7.334,7.337,7.334
				c4.042,0,7.331-3.29,7.331-7.334C46,34.053,42.711,30.762,38.669,30.762z"/>
			<path d="M43.898,31.461c-0.553,0-1-0.447-1-1v-3.23c0-2.537-1.897-4.602-4.229-4.602c-2.331,0-4.228,2.064-4.228,4.602v3.23
				c0,0.553-0.447,1-1,1s-1-0.447-1-1v-3.23c0-3.64,2.794-6.602,6.228-6.602c3.435,0,6.229,2.961,6.229,6.602v3.23
				C44.898,31.014,44.451,31.461,43.898,31.461z"/>
		</g>
		<path d="M40.604,37.098c0-1.068-0.865-1.933-1.935-1.933c-1.073,0-1.938,0.864-1.938,1.933c0,0.879,0.601,1.596,1.408,1.829v3.517
			h1.057v-3.517C40.004,38.691,40.604,37.977,40.604,37.098z"/>
	</g>
	<path d="M19.606,17.754c-4.797,0-8.7-3.854-8.7-8.592c0-4.738,3.903-8.592,8.7-8.592c4.797,0,8.701,3.854,8.701,8.592
		C28.307,13.899,24.403,17.754,19.606,17.754z M19.606,2.57c-3.694,0-6.7,2.958-6.7,6.592s3.005,6.592,6.7,6.592
		c3.695,0,6.701-2.957,6.701-6.592S23.301,2.57,19.606,2.57z"/>
	<path d="M25.176,39.79H1c-0.552,0-1-0.447-1-1c0-5.175,2.041-10.038,5.747-13.695c3.702-3.653,8.624-5.665,13.857-5.665
		c0.001,0,0.001,0,0.002,0c3.455,0,6.849,0.904,9.814,2.616c0.479,0.276,0.643,0.888,0.366,1.366
		c-0.277,0.479-0.89,0.641-1.366,0.366c-2.661-1.536-5.709-2.348-8.814-2.348c0,0-0.001,0-0.002,0
		c-4.705,0-9.127,1.807-12.453,5.088C4.07,29.56,2.272,33.53,2.028,37.79h23.147c0.553,0,1,0.447,1,1S25.729,39.79,25.176,39.79z"/>
</g>
</svg>
