<?xml version="1.0" encoding="utf-8"?>
<!-- Generator: Adobe Illustrator 16.0.0, SVG Export Plug-In . SVG Version: 6.00 Build 0)  -->
<!DOCTYPE svg PUBLIC "-//W3C//DTD SVG 1.1//EN" "http://www.w3.org/Graphics/SVG/1.1/DTD/svg11.dtd">
<svg version="1.1" id="Layer_1" xmlns="http://www.w3.org/2000/svg" xmlns:xlink="http://www.w3.org/1999/xlink" x="0px" y="0px"
	 width="48px" height="48px" viewBox="0 0 48 48" enable-background="new 0 0 48 48" xml:space="preserve">
<g>
	<path d="M25.936,47.297c-0.261,0-0.518-0.103-0.71-0.296c-0.291-0.293-0.372-0.736-0.202-1.114l3.748-8.337
		c0.05-0.11,0.119-0.211,0.205-0.297l12.682-12.681c0.188-0.188,0.441-0.293,0.707-0.293l0,0c0.266,0,0.52,0.105,0.707,0.293
		l4.635,4.637c0.391,0.391,0.391,1.023,0,1.414L35.03,43.307c-0.087,0.088-0.19,0.158-0.304,0.208l-8.388,3.697
		C26.209,47.27,26.072,47.297,25.936,47.297z M30.521,38.537l-2.604,5.794l5.832-2.571l11.838-11.844l-3.221-3.223L30.521,38.537z"
		/>
	<path d="M19.749,18.004c-4.829,0-8.757-3.88-8.757-8.65c0-4.771,3.928-8.652,8.757-8.652c4.827,0.001,8.755,3.882,8.755,8.652
		S24.576,18.004,19.749,18.004z M19.749,2.702c-3.726,0-6.757,2.984-6.757,6.652c0,3.667,3.031,6.65,6.757,6.65
		c3.725,0,6.755-2.983,6.755-6.65S23.474,2.703,19.749,2.702z"/>
	<path d="M21.604,40.207H1c-0.552,0-1-0.447-1-1c0-10.752,8.859-19.501,19.748-19.502c4.8,0,9.441,1.74,13.068,4.9
		c0.416,0.362,0.46,0.994,0.097,1.411c-0.362,0.417-0.995,0.459-1.411,0.097c-3.263-2.843-7.437-4.408-11.754-4.408
		c-9.446,0.001-17.192,7.315-17.719,16.502h19.575c0.552,0,1,0.447,1,1S22.156,40.207,21.604,40.207z"/>
</g>
</svg>
