<?xml version="1.0" encoding="utf-8"?>
<!-- Generator: Adobe Illustrator 16.0.0, SVG Export Plug-In . SVG Version: 6.00 Build 0)  -->
<!DOCTYPE svg PUBLIC "-//W3C//DTD SVG 1.1//EN" "http://www.w3.org/Graphics/SVG/1.1/DTD/svg11.dtd">
<svg version="1.1" id="Layer_1" xmlns="http://www.w3.org/2000/svg" xmlns:xlink="http://www.w3.org/1999/xlink" x="0px" y="0px"
	 width="48px" height="48px" viewBox="0 0 48 48" enable-background="new 0 0 48 48" xml:space="preserve">
<g>
	<path d="M19.31,17.698c-4.729,0-8.576-3.798-8.576-8.467c0-4.67,3.847-8.469,8.576-8.469c4.727,0,8.573,3.799,8.573,8.469
		C27.883,13.9,24.037,17.698,19.31,17.698z M19.31,2.762c-3.626,0-6.576,2.902-6.576,6.469c0,3.566,2.95,6.467,6.576,6.467
		c3.624,0,6.573-2.901,6.573-6.467C25.883,5.664,22.934,2.762,19.31,2.762z"/>
	<path d="M21.603,39.373H1c-0.552,0-1-0.447-1-1c0-10.51,8.662-19.06,19.309-19.06c3.217,0,6.413,0.81,9.243,2.342
		c0.485,0.263,0.666,0.87,0.402,1.355c-0.263,0.486-0.871,0.667-1.355,0.403c-2.538-1.374-5.404-2.101-8.29-2.101
		c-9.204,0-16.752,7.117-17.28,16.06h19.574c0.552,0,1,0.447,1,1S22.155,39.373,21.603,39.373z"/>
	<g>
		<path d="M41.313,44.939c-1.785,0.942-3.609,1.299-5.787,1.299c-5.334,0-9.849-3.899-9.849-10.143
			c0-6.695,4.647-12.479,11.865-12.479c5.653,0,9.458,3.964,9.458,9.39c0,4.879-2.729,7.737-5.783,7.737
			c-1.301,0-2.508-0.877-2.408-2.858h-0.131c-1.136,1.914-2.632,2.858-4.582,2.858c-1.887,0-3.512-1.523-3.512-4.092
			c0-4.034,3.184-7.702,7.702-7.702c1.399,0,2.636,0.286,3.479,0.677l-1.104,5.884c-0.489,2.472-0.098,3.605,0.971,3.64
			c1.662,0.037,3.514-2.178,3.514-5.944c0-4.715-2.83-8.097-7.867-8.097c-5.299,0-9.75,4.197-9.75,10.793
			c0,5.431,3.544,8.777,8.352,8.777c1.854,0,3.579-0.39,4.908-1.14L41.313,44.939z M39.525,30.896
			c-0.327-0.099-0.879-0.226-1.629-0.226c-2.858,0-5.17,2.696-5.17,5.853c0,1.43,0.719,2.47,2.146,2.47
			c1.887,0,3.611-2.408,3.967-4.425L39.525,30.896z"/>
	</g>
</g>
</svg>
