<?xml version="1.0" encoding="utf-8"?>
<!-- Generator: Adobe Illustrator 16.0.0, SVG Export Plug-In . SVG Version: 6.00 Build 0)  -->
<!DOCTYPE svg PUBLIC "-//W3C//DTD SVG 1.1//EN" "http://www.w3.org/Graphics/SVG/1.1/DTD/svg11.dtd">
<svg version="1.1" id="Layer_1" xmlns="http://www.w3.org/2000/svg" xmlns:xlink="http://www.w3.org/1999/xlink" x="0px" y="0px"
	 width="48px" height="48px" viewBox="0 0 48 48" enable-background="new 0 0 48 48" xml:space="preserve">
<g>
	<path d="M20.358,24.143c0,0.671-0.575,1.218-1.271,1.218c-0.715,0-1.279-0.547-1.279-1.218c0-0.676,0.563-1.216,1.279-1.216
		C19.783,22.927,20.358,23.467,20.358,24.143z"/>
	<path d="M30.191,24.143c0,0.671-0.563,1.218-1.27,1.218c-0.71,0-1.281-0.547-1.281-1.218c0-0.676,0.571-1.216,1.281-1.216
		C29.628,22.927,30.191,23.467,30.191,24.143z"/>
	<path d="M28.92,44.339c0,1.47-2.258,2.66-5.034,2.66c-2.8,0-5.059-1.19-5.059-2.66c0-1.471,2.259-2.663,5.059-2.663
		C26.662,41.676,28.92,42.868,28.92,44.339z"/>
	<path d="M24,47.999c-11.198,0-13.651-17.396-13.651-24.098c0-7.014,6.124-12.721,13.651-12.721c7.528,0,13.652,5.707,13.652,12.721
		C37.652,30.538,33.454,47.999,24,47.999z M24,13.18c-6.424,0-11.651,4.809-11.651,10.721c0,5.733,2.141,22.098,11.651,22.098
		c7.569,0,11.652-15.685,11.652-22.098C35.652,17.989,30.425,13.18,24,13.18z"/>
	<g>
		<path d="M10.899,30.59H1c-0.406,0-0.771-0.245-0.925-0.62c-0.154-0.375-0.066-0.807,0.223-1.092l11.449-11.306
			c0.393-0.387,1.026-0.384,1.414,0.009c0.388,0.393,0.384,1.026-0.009,1.414L3.436,28.59h7.463c0.552,0,1,0.447,1,1
			S11.451,30.59,10.899,30.59z"/>
		<path d="M47,30.59h-9.902c-0.553,0-1-0.447-1-1s0.447-1,1-1h7.467l-9.717-9.595c-0.394-0.388-0.397-1.021-0.01-1.414
			c0.39-0.393,1.022-0.396,1.414-0.009l11.45,11.306c0.289,0.285,0.377,0.717,0.223,1.092C47.771,30.345,47.405,30.59,47,30.59z"/>
	</g>
	<g>
		<path d="M20.759,13.179c-0.033,0-0.066-0.001-0.099-0.005c-0.55-0.054-0.951-0.543-0.897-1.093
			c0.125-1.268-0.055-2.162-0.506-2.516c-0.588-0.461-1.671-0.099-1.682-0.096l-0.127,0.037c-8.116,1.75-13.48,1.216-15.941-1.592
			C-0.811,5.272,0.408,1.76,0.461,1.611C0.647,1.092,1.22,0.821,1.74,1.007c0.519,0.186,0.79,0.755,0.606,1.274
			C2.33,2.326,1.479,4.866,3.02,6.607c1.34,1.516,4.851,2.909,13.948,0.957c0.421-0.139,2.167-0.624,3.509,0.417
			c1.048,0.812,1.477,2.257,1.276,4.297C21.702,12.793,21.267,13.179,20.759,13.179z"/>
		<path d="M7.123,9.851c-0.267,0-0.534-0.106-0.73-0.317C4.16,7.145,5.326,1.432,5.466,0.788c0.118-0.54,0.647-0.883,1.189-0.764
			c0.54,0.117,0.882,0.65,0.765,1.189C6.979,3.25,6.706,6.939,7.854,8.168c0.377,0.403,0.356,1.036-0.048,1.413
			C7.613,9.762,7.368,9.851,7.123,9.851z"/>
		<path d="M12.29,9.851c-0.267,0-0.532-0.106-0.729-0.316c-2.243-2.39-1.074-8.104-0.933-8.748c0.118-0.54,0.648-0.883,1.19-0.763
			c0.54,0.117,0.881,0.65,0.764,1.189c-0.443,2.036-0.715,5.725,0.437,6.953c0.378,0.402,0.358,1.035-0.045,1.413
			C12.781,9.761,12.536,9.851,12.29,9.851z"/>
		<path d="M27.24,13.179c-0.509,0-0.943-0.386-0.994-0.902c-0.201-2.039,0.229-3.484,1.276-4.296
			c1.345-1.043,3.092-0.557,3.512-0.417c9.094,1.953,12.605,0.56,13.945-0.956c1.547-1.749,0.684-4.301,0.675-4.327
			c-0.181-0.52,0.092-1.09,0.611-1.273c0.521-0.183,1.089,0.086,1.273,0.604c0.054,0.148,1.271,3.662-1.045,6.304
			c-2.462,2.806-7.825,3.341-15.939,1.591l-0.133-0.039c-0.006-0.002-1.09-0.365-1.68,0.098c-0.451,0.354-0.631,1.248-0.506,2.515
			c0.055,0.55-0.348,1.039-0.897,1.093C27.306,13.178,27.272,13.179,27.24,13.179z"/>
		<path d="M40.873,9.851c-0.245,0-0.49-0.089-0.684-0.27c-0.403-0.377-0.424-1.01-0.046-1.414c1.154-1.232,0.881-4.919,0.438-6.954
			c-0.117-0.54,0.225-1.072,0.765-1.19c0.538-0.12,1.072,0.225,1.19,0.764c0.14,0.644,1.305,6.357-0.934,8.747
			C41.406,9.745,41.14,9.851,40.873,9.851z"/>
		<path d="M35.709,9.851c-0.245,0-0.491-0.089-0.684-0.271c-0.403-0.377-0.424-1.01-0.046-1.414
			c1.151-1.229,0.881-4.917,0.439-6.954c-0.116-0.54,0.226-1.072,0.766-1.189c0.536-0.12,1.071,0.225,1.189,0.764
			c0.14,0.644,1.305,6.357-0.936,8.747C36.242,9.745,35.976,9.851,35.709,9.851z"/>
	</g>
</g>
</svg>
