<?xml version="1.0" encoding="utf-8"?>
<!-- Generator: Adobe Illustrator 16.0.0, SVG Export Plug-In . SVG Version: 6.00 Build 0)  -->
<!DOCTYPE svg PUBLIC "-//W3C//DTD SVG 1.1//EN" "http://www.w3.org/Graphics/SVG/1.1/DTD/svg11.dtd">
<svg version="1.1" id="Layer_1" xmlns="http://www.w3.org/2000/svg" xmlns:xlink="http://www.w3.org/1999/xlink" x="0px" y="0px"
	 width="48px" height="48px" viewBox="0 0 48 48" enable-background="new 0 0 48 48" xml:space="preserve">
<g>
	<g>
		<path d="M22.513,11.386c0.012,0.598-0.47,1.096-1.101,1.108c-0.63,0.019-1.15-0.454-1.162-1.056
			c-0.016-0.594,0.482-1.09,1.113-1.105C21.994,10.321,22.498,10.791,22.513,11.386z"/>
		<path d="M27.753,11.386c0.009,0.598-0.474,1.096-1.104,1.108c-0.627,0.019-1.149-0.454-1.162-1.056
			c-0.012-0.594,0.486-1.09,1.113-1.105C27.229,10.321,27.738,10.791,27.753,11.386z"/>
	</g>
	<path d="M25.135,25.918c0.014,0.602-0.482,1.096-1.104,1.107c-0.636,0.015-1.153-0.455-1.162-1.057
		c-0.019-0.599,0.479-1.087,1.107-1.1C24.605,24.852,25.122,25.323,25.135,25.918z"/>
	<path d="M25.135,31.783c0.014,0.596-0.482,1.092-1.104,1.105c-0.633,0.012-1.153-0.457-1.165-1.059
		c-0.016-0.596,0.482-1.09,1.113-1.104C24.605,30.71,25.122,31.184,25.135,31.783z"/>
	<path d="M25.135,37.643c0.014,0.596-0.482,1.092-1.106,1.105c-0.634,0.016-1.15-0.454-1.163-1.055
		c-0.016-0.601,0.482-1.09,1.113-1.105C24.604,36.57,25.119,37.038,25.135,37.643z"/>
	<path d="M23.997,48C15.121,48,7.9,41.106,7.9,32.634c0-6.116,3.74-11.55,9.473-14.009c-1.61-1.62-2.535-3.777-2.535-6.041
		c0-4.835,4.109-8.769,9.159-8.769c5.054,0,9.165,3.934,9.165,8.769c0,2.271-0.925,4.428-2.536,6.043
		c5.736,2.462,9.478,7.895,9.476,14.007C40.102,41.106,32.877,48,23.997,48z M23.997,5.815c-3.948,0-7.159,3.037-7.159,6.769
		c0,2.194,1.147,4.267,3.069,5.545c0.322,0.214,0.492,0.594,0.436,0.977s-0.327,0.698-0.696,0.812
		C13.817,21.709,9.9,26.819,9.9,32.634C9.9,40.004,16.224,46,23.997,46c7.777,0,14.104-5.996,14.104-13.366
		c0.002-5.812-3.918-10.921-9.755-12.716c-0.37-0.114-0.641-0.431-0.696-0.814c-0.055-0.383,0.116-0.764,0.439-0.977
		c1.924-1.268,3.072-3.34,3.072-5.543C31.162,8.852,27.948,5.815,23.997,5.815z"/>
	<path d="M32.292,5.815H15.708c-0.552,0-1-0.448-1-1s0.448-1,1-1h16.584c0.553,0,1,0.448,1,1S32.845,5.815,32.292,5.815z"/>
	<path d="M26.878,2h-5.756c-0.552,0-1-0.448-1-1s0.448-1,1-1h5.756c0.553,0,1,0.448,1,1S27.431,2,26.878,2z"/>
	<g>
		<path d="M4.297,25.113c-0.104,0-0.21-0.017-0.315-0.052c-0.524-0.174-0.808-0.739-0.634-1.264c0.799-2.41,2.208-4.077,4.189-4.955
			c3.838-1.705,8.383,0.262,8.575,0.347c0.504,0.223,0.733,0.812,0.511,1.317s-0.81,0.734-1.317,0.514
			c-0.039-0.017-3.944-1.694-6.966-0.346c-1.439,0.642-2.48,1.904-3.094,3.753C5.107,24.848,4.716,25.113,4.297,25.113z"/>
		<path d="M43.703,25.113c-0.419,0-0.81-0.266-0.949-0.686c-0.614-1.85-1.655-3.112-3.096-3.754
			c-3.021-1.345-6.926,0.33-6.964,0.347c-0.507,0.221-1.095-0.009-1.317-0.514c-0.222-0.505,0.007-1.094,0.512-1.317
			c0.192-0.084,4.731-2.048,8.572-0.348c1.98,0.878,3.391,2.546,4.191,4.956c0.174,0.524-0.11,1.09-0.634,1.264
			C43.914,25.097,43.808,25.113,43.703,25.113z"/>
	</g>
</g>
</svg>
