<?xml version="1.0" encoding="utf-8"?>
<!-- Generator: Adobe Illustrator 16.0.0, SVG Export Plug-In . SVG Version: 6.00 Build 0)  -->
<!DOCTYPE svg PUBLIC "-//W3C//DTD SVG 1.1//EN" "http://www.w3.org/Graphics/SVG/1.1/DTD/svg11.dtd">
<svg version="1.1" id="Layer_1" xmlns="http://www.w3.org/2000/svg" xmlns:xlink="http://www.w3.org/1999/xlink" x="0px" y="0px"
	 width="48px" height="48px" viewBox="0 0 48 48" enable-background="new 0 0 48 48" xml:space="preserve">
<g>
	<path d="M43.998,21.983H29.557v-2h14.441c1.104,0,2.002-0.891,2.002-1.985V12.39c0-1.097-0.898-1.989-2.002-1.989H4
		c-1.102,0-1.999,0.893-1.999,1.989v5.608c0,1.094,0.897,1.985,1.999,1.985h14.266v2H4c-2.205,0-3.999-1.788-3.999-3.985V12.39
		c0-2.2,1.794-3.989,3.999-3.989h39.998c2.207,0,4.002,1.79,4.002,3.989v5.608C48,20.195,46.205,21.983,43.998,21.983z"/>
	<path d="M40.452,48H7.545c-2.207,0-4.002-1.79-4.002-3.99V23.973c0-2.2,1.795-3.989,4.002-3.989h11.561v2H7.545
		c-1.104,0-2.002,0.893-2.002,1.989V44.01c0,1.098,0.898,1.99,2.002,1.99h32.907c1.103,0,1.999-0.893,1.999-1.99V23.972
		c0-1.097-0.896-1.989-1.999-1.989H28.807v-2h11.646c2.205,0,3.999,1.79,3.999,3.989V44.01C44.451,46.21,42.657,48,40.452,48z"/>
	<path d="M30.414,48H17.582V8.401h12.832V48z M19.582,46h8.832V10.401h-8.832V46z"/>
	<g>
		<path d="M27.047,10.307l-0.592-1.911c1.168-0.361,2.297-0.358,3.4-0.354c0.037,0,0.074,0,0.11,0c3.822,0,4.604-1.008,4.617-2.52
			c0.007-0.575-0.078-2.491-1.447-3.12c-1.409-0.646-2.707-0.515-3.973,0.4c-2.337,1.693-3.523,5.318-3.451,5.958l-1.983,0.26
			c-0.197-1.503,1.406-5.731,4.209-7.799c1.861-1.373,3.947-1.594,6.031-0.636c1.663,0.764,2.641,2.617,2.613,4.958
			c-0.041,4.531-5.007,4.511-6.665,4.5C28.858,10.036,27.923,10.036,27.047,10.307z"/>
		<path d="M20.948,10.306c-0.873-0.271-1.81-0.27-2.802-0.265c-1.703-0.005-6.697,0.033-6.735-4.503
			c-0.02-2.339,0.958-4.191,2.615-4.954c2.089-0.959,4.178-0.737,6.043,0.641c2.802,2.072,4.399,6.296,4.199,7.795l-1.982-0.264
			c0.073-0.638-1.109-4.258-3.445-5.953c-1.266-0.918-2.569-1.051-3.979-0.403c-1.365,0.629-1.456,2.547-1.451,3.121
			c0.013,1.526,0.768,2.53,4.658,2.52c1.171-0.004,2.308-0.007,3.472,0.355L20.948,10.306z"/>
	</g>
</g>
</svg>
