<?xml version="1.0" encoding="utf-8"?>
<!-- Generator: Adobe Illustrator 16.0.0, SVG Export Plug-In . SVG Version: 6.00 Build 0)  -->
<!DOCTYPE svg PUBLIC "-//W3C//DTD SVG 1.1//EN" "http://www.w3.org/Graphics/SVG/1.1/DTD/svg11.dtd">
<svg version="1.1" id="Layer_1" xmlns="http://www.w3.org/2000/svg" xmlns:xlink="http://www.w3.org/1999/xlink" x="0px" y="0px"
	 width="48px" height="48px" viewBox="0 0 48 48" enable-background="new 0 0 48 48" xml:space="preserve">
<g>
	<path d="M47,23.895c-0.26,0-0.516-0.102-0.707-0.293L24.525,1.84c-0.286-0.286-0.372-0.716-0.217-1.09
		c0.155-0.374,0.52-0.617,0.924-0.617H47c0.553,0,1,0.448,1,1v21.762c0,0.404-0.243,0.769-0.617,0.924
		C47.259,23.87,47.129,23.895,47,23.895z M27.647,2.133L46,20.481V2.133H27.647z"/>
	<path d="M19.396,42.032L19.396,42.032c-0.265,0-0.52-0.105-0.707-0.293L6.394,29.441c-0.391-0.391-0.391-1.023,0-1.414
		L29.261,5.158c0.188-0.188,0.441-0.293,0.707-0.293l0,0c0.266,0,0.52,0.105,0.707,0.293l12.296,12.301
		c0.391,0.391,0.391,1.024,0,1.414L20.103,41.739C19.916,41.927,19.661,42.032,19.396,42.032z M8.515,28.734l10.881,10.884
		L40.85,18.166L29.968,7.28L8.515,28.734z"/>
	<rect x="20.053" y="16.868" transform="matrix(0.9841 0.1775 -0.1775 0.9841 3.6515 -5.0877)" width="20.425" height="1.999"/>
	<rect x="12.868" y="24.046" transform="matrix(0.9842 0.1773 -0.1773 0.9842 4.806 -3.6953)" width="20.428" height="2"/>
	<rect x="9.239" y="31.491" transform="matrix(0.9842 0.177 -0.177 0.9842 6.0306 -2.6077)" width="16.78" height="2"/>
	<rect x="9.342" y="33.675" transform="matrix(0.7071 0.7071 -0.7071 0.7071 29.7485 3.755)" width="2" height="8.225"/>
	<path d="M10.126,44.387c-0.256,0-0.512-0.098-0.707-0.293l-5.384-5.383c-0.391-0.391-0.391-1.023,0-1.414s1.023-0.391,1.414,0
		l5.384,5.383c0.391,0.391,0.391,1.023,0,1.414C10.638,44.289,10.382,44.387,10.126,44.387z"/>
	<path d="M6.386,47.867c-0.256,0-0.512-0.098-0.707-0.293l-5.386-5.385c-0.391-0.391-0.391-1.023,0-1.414s1.023-0.391,1.414,0
		l5.386,5.385c0.391,0.391,0.391,1.023,0,1.414C6.897,47.77,6.642,47.867,6.386,47.867z"/>
</g>
</svg>
