<?xml version="1.0" encoding="utf-8"?>
<!-- Generator: Adobe Illustrator 16.0.0, SVG Export Plug-In . SVG Version: 6.00 Build 0)  -->
<!DOCTYPE svg PUBLIC "-//W3C//DTD SVG 1.1//EN" "http://www.w3.org/Graphics/SVG/1.1/DTD/svg11.dtd">
<svg version="1.1" id="Layer_1" xmlns="http://www.w3.org/2000/svg" xmlns:xlink="http://www.w3.org/1999/xlink" x="0px" y="0px"
	 width="48px" height="48px" viewBox="0 0 48 48" enable-background="new 0 0 48 48" xml:space="preserve">
<g>
	<g>
		<g>
			<path d="M39.226,45.139c-0.508,0-0.942-0.385-0.994-0.9L34.118,3.09C34.061,2.509,33.498,2,32.915,2H15.083
				c-0.583,0-1.146,0.51-1.204,1.09L9.768,44.238c-0.055,0.549-0.534,0.941-1.095,0.896c-0.549-0.055-0.95-0.545-0.896-1.095
				l4.111-41.148C12.049,1.296,13.482,0,15.083,0h17.832c1.603,0,3.035,1.297,3.193,2.892l4.113,41.147
				c0.055,0.55-0.346,1.04-0.896,1.095C39.292,45.137,39.259,45.139,39.226,45.139z"/>
		</g>
		<path d="M23.113,48.045c-13.903,0-22.182-5.643-22.688-5.998c-0.452-0.316-0.561-0.939-0.245-1.392
			c0.316-0.451,0.94-0.563,1.392-0.246c0.176,0.123,17.923,12.146,45.03,0.428c0.507-0.221,1.096,0.015,1.314,0.521
			s-0.015,1.095-0.521,1.314C38.118,46.685,29.938,48.045,23.113,48.045z"/>
	</g>
	<path d="M24,40.59c-4.252,0-7.712-3.46-7.712-7.712c0-4.256,3.459-7.718,7.712-7.718c4.252,0,7.712,3.462,7.712,7.718
		C31.712,37.13,28.252,40.59,24,40.59z M24,27.16c-3.149,0-5.712,2.565-5.712,5.718c0,3.149,2.563,5.712,5.712,5.712
		s5.712-2.563,5.712-5.712C29.712,29.726,27.149,27.16,24,27.16z"/>
	<path d="M16.055,33.878h-5.173c-0.552,0-1-0.447-1-1s0.448-1,1-1h5.173c0.552,0,1,0.447,1,1S16.607,33.878,16.055,33.878z"/>
	<path d="M37.241,33.878h-5.173c-0.553,0-1-0.447-1-1s0.447-1,1-1h5.173c0.553,0,1,0.447,1,1S37.794,33.878,37.241,33.878z"/>
</g>
</svg>
