<?xml version="1.0" encoding="utf-8"?>
<!-- Generator: Adobe Illustrator 16.0.0, SVG Export Plug-In . SVG Version: 6.00 Build 0)  -->
<!DOCTYPE svg PUBLIC "-//W3C//DTD SVG 1.1//EN" "http://www.w3.org/Graphics/SVG/1.1/DTD/svg11.dtd">
<svg version="1.1" id="Layer_1" xmlns="http://www.w3.org/2000/svg" xmlns:xlink="http://www.w3.org/1999/xlink" x="0px" y="0px"
	 width="48px" height="48px" viewBox="0 0 48 48" enable-background="new 0 0 48 48" xml:space="preserve">
<g>
	<path d="M23.999,20.208c-0.243,0-0.486-0.088-0.678-0.265c-6.429-5.922-10.98-10.366-10.98-13.619C12.341,2.837,15.385,0,19.126,0
		C20.988,0,22.733,0.707,24,1.935C25.268,0.707,27.014,0,28.874,0c3.741,0,6.784,2.837,6.784,6.324
		c0,3.251-4.974,8.091-10.982,13.62C24.485,20.12,24.242,20.208,23.999,20.208z M19.126,2c-2.639,0-4.785,1.94-4.785,4.324
		c0,2.494,5.381,7.578,9.659,11.524c3.898-3.594,9.659-9.035,9.659-11.524C33.658,3.94,31.512,2,28.874,2
		c-1.65,0-3.165,0.764-4.054,2.042c-0.187,0.269-0.494,0.43-0.821,0.43h0c-0.328,0-0.635-0.161-0.822-0.431
		C22.292,2.763,20.777,2,19.126,2z"/>
	<g>
		<path d="M38.83,37.273C38.829,37.273,38.829,37.273,38.83,37.273c-3.443,0-8.683-4.562-14.673-10.072
			c-0.206-0.189-0.323-0.456-0.323-0.736c0-0.279,0.117-0.546,0.323-0.735c6.198-5.709,11.214-10.076,14.672-10.076
			c3.739,0,6.782,2.836,6.782,6.323c0,1.712-0.733,3.313-2.013,4.487c1.279,1.174,2.013,2.773,2.013,4.487
			C45.611,34.435,42.569,37.271,38.83,37.273z M26.312,26.464c3.921,3.597,9.769,8.809,12.518,8.81
			c2.637-0.002,4.782-1.94,4.782-4.322c0-1.465-0.82-2.82-2.194-3.624c-0.307-0.18-0.495-0.508-0.495-0.863
			c0-0.354,0.188-0.684,0.494-0.863c1.375-0.805,2.195-2.16,2.195-3.624c0-2.384-2.146-4.323-4.782-4.323
			C36.053,17.654,30.591,22.532,26.312,26.464z"/>
		<path d="M9.167,37.273L9.167,37.273c-3.739-0.002-6.78-2.839-6.78-6.322c0-1.713,0.733-3.313,2.014-4.487
			c-1.28-1.175-2.014-2.775-2.014-4.487c0-3.487,3.044-6.323,6.786-6.323c3.455,0,8.472,4.367,14.671,10.076
			c0.206,0.189,0.323,0.456,0.323,0.735c0,0.28-0.117,0.547-0.323,0.736C17.852,32.712,12.612,37.273,9.167,37.273z M9.173,17.654
			c-2.639,0-4.786,1.939-4.786,4.323c0,1.463,0.821,2.818,2.196,3.624c0.307,0.18,0.495,0.509,0.495,0.863
			c0,0.355-0.188,0.684-0.495,0.863c-1.375,0.805-2.196,2.159-2.196,3.624c0,2.382,2.145,4.32,4.78,4.322
			c2.751-0.001,8.6-5.213,12.522-8.81C17.409,22.532,11.945,17.654,9.173,17.654z"/>
	</g>
	<path d="M30.481,48c-0.215,0-0.433-0.069-0.615-0.212c-8.799-6.882-6.937-18.629-6.854-19.126c0.092-0.544,0.604-0.915,1.151-0.819
		c0.544,0.091,0.912,0.605,0.822,1.15c-0.019,0.11-1.736,11.081,6.113,17.219c0.435,0.341,0.512,0.969,0.172,1.404
		C31.073,47.868,30.779,48,30.481,48z"/>
</g>
</svg>
