<?xml version="1.0" encoding="utf-8"?>
<!-- Generator: Adobe Illustrator 16.0.0, SVG Export Plug-In . SVG Version: 6.00 Build 0)  -->
<!DOCTYPE svg PUBLIC "-//W3C//DTD SVG 1.1//EN" "http://www.w3.org/Graphics/SVG/1.1/DTD/svg11.dtd">
<svg version="1.1" id="Layer_1" xmlns="http://www.w3.org/2000/svg" xmlns:xlink="http://www.w3.org/1999/xlink" x="0px" y="0px"
	 width="48px" height="48px" viewBox="0 0 48 48" enable-background="new 0 0 48 48" xml:space="preserve">
<g>
	<path d="M24.001,48c-13.234,0-24-10.766-24-23.999C0.001,10.767,10.767,0,24.001,0c13.232,0,23.997,10.767,23.997,24.001
		C47.998,37.234,37.233,48,24.001,48z M24.001,2c-12.131,0-22,9.87-22,22.001c0,12.13,9.869,21.999,22,21.999
		c12.129,0,21.997-9.869,21.997-21.999C45.998,11.87,36.13,2,24.001,2z"/>
	<path d="M34.952,44.702C3.388,21.828,13.762,3.074,14.219,2.287l1.729,1.004l-0.865-0.502l0.866,0.5
		c-0.416,0.727-9.835,18.045,20.176,39.794L34.952,44.702z"/>
	<path d="M5.324,36.149l-1.96-0.396c0.104-0.517,2.676-12.729,13.516-19.796c7.359-4.796,16.688-6,27.726-3.573l-0.43,1.953
		c-10.482-2.305-19.294-1.201-26.185,3.283C7.855,24.215,5.348,36.031,5.324,36.149z"/>
	<path d="M46.58,29.363c-2.091,0-19.485-5.062-22.63-15.679c-0.831-2.805-0.522-5.102,0.916-6.827
		c3.313-3.972,11.476-3.139,11.821-3.101l-0.214,1.988C36.399,5.739,29.027,4.989,26.4,8.141c-0.996,1.195-1.17,2.823-0.532,4.975
		c2.765,9.334,18.859,14.221,20.703,14.248l0.03,2C46.595,29.363,46.588,29.363,46.58,29.363z"/>
	<path d="M13.125,43.933l-1.951-0.439c1.649-7.312,2.625-14.766-1.369-19.76c-0.799-1-1.653-1.454-2.612-1.446
		c-2.221,0.063-4.634,2.787-5.376,3.831l-1.632-1.155c0.132-0.187,3.272-4.566,6.947-4.674c1.598-0.037,3.033,0.692,4.236,2.196
		C15.889,28.138,14.885,36.134,13.125,43.933z"/>
</g>
</svg>
