<?xml version="1.0" encoding="utf-8"?>
<!-- Generator: Adobe Illustrator 16.0.0, SVG Export Plug-In . SVG Version: 6.00 Build 0)  -->
<!DOCTYPE svg PUBLIC "-//W3C//DTD SVG 1.1//EN" "http://www.w3.org/Graphics/SVG/1.1/DTD/svg11.dtd">
<svg version="1.1" id="Layer_1" xmlns="http://www.w3.org/2000/svg" xmlns:xlink="http://www.w3.org/1999/xlink" x="0px" y="0px"
	 width="48px" height="48px" viewBox="0 0 48 48" enable-background="new 0 0 48 48" xml:space="preserve">
<g>
	<path d="M24,48C12.264,48,2.717,38.45,2.717,26.712C2.717,14.975,12.264,5.426,24,5.426c11.735,0,21.283,9.549,21.283,21.286
		C45.283,38.45,35.735,48,24,48z M24,7.426c-10.633,0-19.283,8.652-19.283,19.286C4.717,37.348,13.367,46,24,46
		s19.283-8.652,19.283-19.288C43.283,16.078,34.633,7.426,24,7.426z"/>
	<path d="M29.324,7.321c-0.553,0-1-0.448-1-1C28.324,3.938,26.385,2,24,2c-2.385,0-4.326,1.938-4.326,4.321c0,0.552-0.448,1-1,1
		s-1-0.448-1-1C17.674,2.835,20.512,0,24,0c3.487,0,6.324,2.835,6.324,6.321C30.324,6.873,29.877,7.321,29.324,7.321z"/>
	<g>
		<g>
			<path d="M24,12.313c-0.552,0-1-0.448-1-1V6.662c0-0.552,0.448-1,1-1c0.553,0,1,0.448,1,1v4.651
				C25,11.865,24.553,12.313,24,12.313z"/>
			<path d="M24,47.768c-0.552,0-1-0.447-1-1v-4.654c0-0.553,0.448-1,1-1c0.553,0,1,0.447,1,1v4.654
				C25,47.32,24.553,47.768,24,47.768z"/>
		</g>
		<g>
			<path d="M44.053,27.712h-4.648c-0.553,0-1-0.447-1-1s0.447-1,1-1h4.648c0.553,0,1,0.447,1,1S44.605,27.712,44.053,27.712z"/>
			<path d="M8.6,27.712H3.946c-0.552,0-1-0.447-1-1s0.448-1,1-1H8.6c0.552,0,1,0.447,1,1S9.152,27.712,8.6,27.712z"/>
		</g>
	</g>
	<path d="M13.401,38.309c-0.259,0-0.515-0.101-0.708-0.293c-0.322-0.322-0.386-0.822-0.154-1.215l7.859-13.338
		c0.086-0.146,0.208-0.268,0.354-0.354l13.337-7.853c0.394-0.23,0.894-0.167,1.215,0.155c0.322,0.322,0.386,0.822,0.154,1.215
		l-7.857,13.336c-0.086,0.146-0.208,0.268-0.354,0.354l-13.34,7.855C13.75,38.264,13.575,38.309,13.401,38.309z M21.99,24.701
		l-5.765,9.783l9.785-5.762l5.764-9.782L21.99,24.701z"/>
</g>
</svg>
