<?xml version="1.0" encoding="utf-8"?>
<!-- Generator: Adobe Illustrator 16.0.0, SVG Export Plug-In . SVG Version: 6.00 Build 0)  -->
<!DOCTYPE svg PUBLIC "-//W3C//DTD SVG 1.1//EN" "http://www.w3.org/Graphics/SVG/1.1/DTD/svg11.dtd">
<svg version="1.1" id="Layer_1" xmlns="http://www.w3.org/2000/svg" xmlns:xlink="http://www.w3.org/1999/xlink" x="0px" y="0px"
	 width="48px" height="48px" viewBox="0 0 48 48" enable-background="new 0 0 48 48" xml:space="preserve">
<g>
	<path d="M25.221,46.256L0.665,24.147l22.113-24.56l24.557,22.114L25.221,46.256z M3.489,23.999l21.583,19.433L44.511,21.85
		L22.926,2.412L3.489,23.999z"/>
	<path d="M9.2,48.125l15.233-16.922l16.922,15.239L9.2,48.125z M24.582,34.027L13.916,45.875l22.514-1.177L24.582,34.027z"/>
	<rect x="8.172" y="16.114" transform="matrix(0.0524 0.9986 -0.9986 0.0524 39.5446 -7.4444)" width="31.046" height="2"/>
	<path d="M2.846,24.713l-1.538-1.279c0.371-0.446,9.233-10.932,22.331-11.788c7.937-0.52,15.665,2.642,22.963,9.396l-1.357,1.468
		c-6.88-6.366-14.111-9.349-21.475-8.868C11.521,14.442,2.931,24.61,2.846,24.713z"/>
</g>
</svg>
