<?xml version="1.0" encoding="utf-8"?>
<!-- Generator: Adobe Illustrator 16.0.0, SVG Export Plug-In . SVG Version: 6.00 Build 0)  -->
<!DOCTYPE svg PUBLIC "-//W3C//DTD SVG 1.1//EN" "http://www.w3.org/Graphics/SVG/1.1/DTD/svg11.dtd">
<svg version="1.1" id="Layer_1" xmlns="http://www.w3.org/2000/svg" xmlns:xlink="http://www.w3.org/1999/xlink" x="0px" y="0px"
	 width="48px" height="48px" viewBox="0 0 48 48" enable-background="new 0 0 48 48" xml:space="preserve">
<g>
	<path d="M11.846,48C5.314,48,0,42.745,0,36.286c0-6.457,5.314-11.71,11.846-11.71c6.531,0,11.845,5.253,11.845,11.71
		C23.691,42.745,18.377,48,11.846,48z M11.846,26.576C6.417,26.576,2,30.932,2,36.286C2,41.643,6.417,46,11.846,46
		c5.428,0,9.845-4.357,9.845-9.714C21.691,30.932,17.274,26.576,11.846,26.576z"/>
	<rect x="10.846" y="1" width="2" height="24.609"/>
	<path d="M36.15,48c-6.532,0-11.846-5.255-11.846-11.714c0-6.457,5.313-11.71,11.846-11.71c6.534,0,11.85,5.253,11.85,11.71
		C48,42.745,42.685,48,36.15,48z M36.15,26.576c-5.429,0-9.846,4.355-9.846,9.71c0,5.356,4.417,9.714,9.846,9.714
		c5.431,0,9.85-4.357,9.85-9.714C46,30.932,41.581,26.576,36.15,26.576z"/>
	<rect x="35.15" y="1" width="2" height="24.609"/>
</g>
</svg>
