<?xml version="1.0" encoding="utf-8"?>
<!-- Generator: Adobe Illustrator 16.0.0, SVG Export Plug-In . SVG Version: 6.00 Build 0)  -->
<!DOCTYPE svg PUBLIC "-//W3C//DTD SVG 1.1//EN" "http://www.w3.org/Graphics/SVG/1.1/DTD/svg11.dtd">
<svg version="1.1" id="Layer_1" xmlns="http://www.w3.org/2000/svg" xmlns:xlink="http://www.w3.org/1999/xlink" x="0px" y="0px"
	 width="48px" height="48px" viewBox="0 0 48 48" enable-background="new 0 0 48 48" xml:space="preserve">
<g>
	<g>
		<path d="M41.318,48H6.681c-1.654,0-3-1.346-3-3v-8.02c0-1.654,1.346-3,3-3H41.32c1.654,0,3,1.346,3,3V45
			C44.317,46.655,42.971,48,41.318,48z M6.681,35.98c-0.551,0-1,0.448-1,1V45c0,0.552,0.449,1,1,1h34.637c0.552,0,1-0.448,1-1
			l0.002-8.02c0-0.552-0.448-1-1-1H6.681z"/>
	</g>
	<path d="M39.54,35.452c-0.506,0-0.939-0.382-0.993-0.896C37.205,21.814,26.27,13.604,22.639,11.208
		c-3.693,16.314-11.154,23.651-11.478,23.963c-0.397,0.384-1.029,0.372-1.413-0.025c-0.383-0.396-0.372-1.029,0.024-1.413
		c0.077-0.075,7.776-7.691,11.21-24.328c0.064-0.312,0.274-0.575,0.564-0.708c0.289-0.132,0.625-0.119,0.904,0.037
		c0.667,0.373,16.371,9.333,18.085,25.612c0.059,0.549-0.34,1.041-0.89,1.099C39.61,35.45,39.575,35.452,39.54,35.452z"/>
	<path d="M20.704,10.609c-2.928,0-5.31-2.381-5.31-5.308c0-2.923,2.382-5.301,5.31-5.301c2.921,0,5.298,2.378,5.298,5.301
		C26.002,8.228,23.625,10.609,20.704,10.609z M20.704,2c-1.825,0-3.31,1.481-3.31,3.301c0,1.824,1.485,3.308,3.31,3.308
		c1.818,0,3.298-1.484,3.298-3.308C24.002,3.481,22.522,2,20.704,2z"/>
</g>
</svg>
