<?xml version="1.0" encoding="utf-8"?>
<!-- Generator: Adobe Illustrator 16.0.0, SVG Export Plug-In . SVG Version: 6.00 Build 0)  -->
<!DOCTYPE svg PUBLIC "-//W3C//DTD SVG 1.1//EN" "http://www.w3.org/Graphics/SVG/1.1/DTD/svg11.dtd">
<svg version="1.1" id="Layer_1" xmlns="http://www.w3.org/2000/svg" xmlns:xlink="http://www.w3.org/1999/xlink" x="0px" y="0px"
	 width="48px" height="48px" viewBox="0 0 48 48" enable-background="new 0 0 48 48" xml:space="preserve">
<g>
	<g>
		<g>
			<path d="M24.493,25.494c-0.256,0-0.512-0.098-0.707-0.293L6.856,8.268c-0.391-0.391-0.391-1.024,0-1.414
				c0.391-0.391,1.023-0.391,1.414,0L25.2,23.787c0.391,0.391,0.391,1.023,0,1.414C25.005,25.396,24.749,25.494,24.493,25.494z"/>
			<g>
				<path d="M3.81,14.396c-0.529,0-0.971-0.416-0.998-0.951c-0.028-0.551,0.397-1.021,0.949-1.048l9.132-0.453
					c0.545-0.02,1.021,0.397,1.048,0.949c0.028,0.551-0.397,1.021-0.949,1.048L3.86,14.395C3.844,14.396,3.827,14.396,3.81,14.396z"
					/>
				<path d="M12.944,13.943c-0.017,0-0.034,0-0.051-0.001c-0.551-0.027-0.977-0.497-0.949-1.048l0.454-9.13
					c0.028-0.552,0.508-0.972,1.048-0.949c0.551,0.027,0.977,0.497,0.949,1.048l-0.454,9.13
					C13.915,13.527,13.473,13.943,12.944,13.943z"/>
			</g>
		</g>
		<g>
			<path d="M40.439,41.441c-0.256,0-0.512-0.098-0.707-0.293L23.896,25.307c-0.391-0.391-0.391-1.024,0-1.414
				c0.391-0.391,1.023-0.391,1.414,0l15.836,15.842c0.391,0.391,0.391,1.023,0,1.414C40.951,41.344,40.695,41.441,40.439,41.441z"/>
			<g>
				<path d="M35.06,36.061c-0.529,0-0.971-0.416-0.998-0.95c-0.027-0.552,0.397-1.021,0.949-1.049l9.133-0.455
					c0.531-0.042,1.021,0.397,1.049,0.949c0.027,0.552-0.397,1.021-0.949,1.049L35.11,36.06
					C35.094,36.061,35.076,36.061,35.06,36.061z"/>
				<path d="M34.604,45.188c-0.017,0-0.034,0-0.051-0.001c-0.552-0.028-0.977-0.497-0.949-1.049l0.457-9.127
					c0.028-0.552,0.502-0.978,1.049-0.949c0.552,0.028,0.977,0.497,0.949,1.049l-0.457,9.127
					C35.575,44.772,35.134,45.188,34.604,45.188z"/>
			</g>
		</g>
	</g>
	<g>
		<g>
			<path d="M24.604,24.399c-0.256,0-0.512-0.098-0.707-0.293c-0.391-0.391-0.391-1.024,0-1.414L39.732,6.859
				c0.391-0.391,1.023-0.391,1.414,0s0.391,1.024,0,1.414L25.311,24.106C25.115,24.301,24.859,24.399,24.604,24.399z"/>
			<g>
				<path d="M35.06,13.943c-0.529,0-0.971-0.416-0.998-0.95l-0.457-9.13c-0.027-0.551,0.397-1.021,0.949-1.048
					c0.536-0.045,1.021,0.397,1.049,0.949l0.457,9.13c0.027,0.551-0.397,1.021-0.949,1.048
					C35.094,13.942,35.076,13.943,35.06,13.943z"/>
				<path d="M44.194,14.396c-0.017,0-0.033,0-0.051-0.001l-9.133-0.453c-0.552-0.027-0.977-0.497-0.949-1.048
					c0.027-0.552,0.47-0.985,1.049-0.949l9.133,0.453c0.552,0.027,0.977,0.497,0.949,1.048
					C45.166,13.98,44.724,14.396,44.194,14.396z"/>
			</g>
		</g>
		<g>
			<path d="M7.563,41.441c-0.256,0-0.512-0.098-0.707-0.293c-0.391-0.391-0.391-1.023,0-1.414l15.835-15.842
				c0.39-0.391,1.023-0.391,1.414,0c0.391,0.39,0.391,1.023,0,1.414L8.27,41.148C8.075,41.344,7.819,41.441,7.563,41.441z"/>
			<g>
				<path d="M13.396,45.188c-0.529,0-0.971-0.416-0.998-0.95l-0.454-9.127c-0.028-0.552,0.397-1.021,0.949-1.049
					c0.545-0.032,1.021,0.397,1.048,0.949l0.454,9.127c0.028,0.552-0.397,1.021-0.949,1.049
					C13.43,45.188,13.413,45.188,13.396,45.188z"/>
				<path d="M12.944,36.061c-0.017,0-0.034,0-0.051-0.001l-9.132-0.455c-0.552-0.027-0.977-0.497-0.949-1.049
					s0.509-0.979,1.048-0.949l9.132,0.455c0.552,0.027,0.977,0.497,0.949,1.049C13.915,35.645,13.473,36.061,12.944,36.061z"/>
			</g>
		</g>
	</g>
	<g>
		<path d="M24.001,48c-0.552,0-1-0.447-1-1V1c0-0.552,0.448-1,1-1c0.553,0,1,0.448,1,1v46C25.001,47.553,24.554,48,24.001,48z"/>
		<path d="M47.003,25.002H0.997c-0.552,0-1-0.447-1-1c0-0.552,0.448-1,1-1h46.006c0.553,0,1,0.448,1,1
			C48.003,24.555,47.556,25.002,47.003,25.002z"/>
	</g>
</g>
</svg>
