<?xml version="1.0" encoding="utf-8"?>
<!-- Generator: Adobe Illustrator 16.0.0, SVG Export Plug-In . SVG Version: 6.00 Build 0)  -->
<!DOCTYPE svg PUBLIC "-//W3C//DTD SVG 1.1//EN" "http://www.w3.org/Graphics/SVG/1.1/DTD/svg11.dtd">
<svg version="1.1" id="Layer_1" xmlns="http://www.w3.org/2000/svg" xmlns:xlink="http://www.w3.org/1999/xlink" x="0px" y="0px"
	 width="48px" height="48px" viewBox="0 0 48 48" enable-background="new 0 0 48 48" xml:space="preserve">
<g>
	<g>
		<g>
			<path d="M24.144,34.197c-2.705,0-4.905-2.199-4.905-4.902c0-2.702,2.2-4.9,4.905-4.9c2.707,0,4.908,2.198,4.908,4.9
				C29.052,31.998,26.851,34.197,24.144,34.197z M24.144,26.395c-1.602,0-2.905,1.301-2.905,2.9c0,1.601,1.303,2.902,2.905,2.902
				c1.603,0,2.908-1.302,2.908-2.902C27.052,27.695,25.747,26.395,24.144,26.395z"/>
			<g>
				<path d="M14.052,36.398c-2.707,0-4.827-3.12-4.827-7.104c0-3.982,2.12-7.102,4.827-7.102c1.617,0,5.568,1.286,8.08,3.3
					c0.431,0.346,0.5,0.976,0.155,1.406c-0.346,0.431-0.975,0.499-1.406,0.154c-2.178-1.747-5.708-2.861-6.829-2.861
					c-1.337,0-2.827,2.095-2.827,5.102c0,3.008,1.49,5.104,2.827,5.104c1.011,0,4.226-0.977,6.446-2.571
					c0.447-0.325,1.073-0.221,1.396,0.228c0.322,0.449,0.22,1.073-0.229,1.396C19.317,35.138,15.709,36.398,14.052,36.398z"/>
				<path d="M34.244,36.398c-1.664,0-5.274-1.261-7.617-2.948c-0.447-0.323-0.549-0.948-0.227-1.396
					c0.322-0.447,0.944-0.549,1.396-0.227c2.214,1.595,5.433,2.571,6.447,2.571c1.331,0,2.814-2.096,2.814-5.104
					c0-3.007-1.483-5.102-2.814-5.102c-1.125,0-4.66,1.114-6.831,2.86c-0.431,0.347-1.062,0.276-1.406-0.152
					c-0.346-0.431-0.277-1.061,0.152-1.406c2.506-2.015,6.462-3.301,8.085-3.301c2.699,0,4.814,3.12,4.814,7.102
					C39.059,33.278,36.943,36.398,34.244,36.398z"/>
			</g>
		</g>
		<path d="M19.199,48c-0.119,0-0.238-0.021-0.353-0.064c-0.389-0.146-0.647-0.52-0.647-0.936V34.006c0-0.553,0.448-1,1-1
			s1,0.447,1,1V44.35l2.944-3.346c0.184-0.21,0.447-0.332,0.726-0.34c0.28-0.009,0.548,0.103,0.742,0.303l3.478,3.572V33.973
			c0-0.553,0.447-1,1-1s1,0.447,1,1V47c0,0.407-0.246,0.773-0.624,0.927c-0.373,0.15-0.808,0.063-1.093-0.229l-4.44-4.562
			L19.95,47.66C19.756,47.881,19.481,48,19.199,48z"/>
	</g>
	<path d="M38.091,28.498c-0.193,0-0.388-0.056-0.56-0.172c-0.458-0.311-0.577-0.932-0.268-1.389
		c1.787-2.637,2.731-5.731,2.731-8.948C39.995,9.173,32.819,2,24,2C15.18,2,8.004,9.173,8.004,17.989
		c0,3.202,0.941,6.288,2.722,8.926c0.309,0.458,0.188,1.079-0.269,1.389c-0.458,0.309-1.08,0.188-1.388-0.27
		c-2.005-2.97-3.064-6.443-3.064-10.045C6.004,8.07,14.077,0,24,0s17.995,8.07,17.995,17.989c0,3.619-1.063,7.101-3.075,10.069
		C38.727,28.345,38.411,28.498,38.091,28.498z M18.576,25.462c-0.227,0-0.456-0.077-0.643-0.234
		c-2.143-1.803-3.372-4.441-3.372-7.24c0-5.204,4.234-9.438,9.439-9.438c5.204,0,9.438,4.234,9.438,9.438
		c0,2.793-1.219,5.421-3.345,7.212c-0.424,0.354-1.056,0.301-1.409-0.121c-0.356-0.422-0.302-1.053,0.12-1.409
		c1.674-1.41,2.634-3.481,2.634-5.683c0-4.102-3.337-7.438-7.438-7.438c-4.102,0-7.439,3.336-7.439,7.438
		c0,2.207,0.969,4.288,2.659,5.709c0.423,0.355,0.477,0.986,0.122,1.409C19.144,25.341,18.861,25.462,18.576,25.462z"/>
</g>
</svg>
