<?xml version="1.0" encoding="utf-8"?>
<!-- Generator: Adobe Illustrator 16.0.0, SVG Export Plug-In . SVG Version: 6.00 Build 0)  -->
<!DOCTYPE svg PUBLIC "-//W3C//DTD SVG 1.1//EN" "http://www.w3.org/Graphics/SVG/1.1/DTD/svg11.dtd">
<svg version="1.1" id="Layer_1" xmlns="http://www.w3.org/2000/svg" xmlns:xlink="http://www.w3.org/1999/xlink" x="0px" y="0px"
	 width="48px" height="48px" viewBox="0 0 48 48" enable-background="new 0 0 48 48" xml:space="preserve">
<g>
	<g>
		<path d="M37.867,41.676H10.133c-0.394,0-0.751-0.231-0.912-0.591c-0.162-0.358-0.097-0.779,0.165-1.073l6.969-7.841h-3.919
			c-0.386,0-0.737-0.222-0.903-0.569c-0.166-0.349-0.117-0.761,0.126-1.061l7.047-8.691h-2.272c-0.411,0-0.779-0.251-0.93-0.633
			c-0.151-0.382-0.053-0.817,0.248-1.098l7.567-7.071c0.384-0.359,0.98-0.359,1.365,0l7.46,6.969
			c0.27,0.179,0.447,0.485,0.447,0.833c0,0.552-0.447,1-1,1c-0.004,0.001-0.012,0-0.02,0h-2.272l6.938,8.565
			c0.212,0.183,0.346,0.454,0.346,0.756c0,0.553-0.447,1-1,1c-0.004,0.001-0.012,0.001-0.02,0h-3.919l6.971,7.841
			c0.262,0.294,0.326,0.715,0.165,1.073C38.618,41.444,38.261,41.676,37.867,41.676z M12.359,39.676h23.28l-6.971-7.841
			c-0.262-0.294-0.326-0.715-0.165-1.073c0.161-0.359,0.519-0.591,0.912-0.591h4.049l-7.042-8.691
			c-0.242-0.299-0.291-0.712-0.125-1.06c0.166-0.348,0.517-0.57,0.902-0.57h1.835L24,15.147l-5.032,4.703h1.835
			c0.386,0,0.737,0.222,0.903,0.57s0.117,0.76-0.126,1.06l-7.047,8.691h4.048c0.394,0,0.751,0.231,0.912,0.59
			c0.162,0.359,0.097,0.78-0.165,1.074L12.359,39.676z"/>
		<path d="M27.457,48h-6.914c-0.552,0-1-0.447-1-1v-6.324c0-0.553,0.448-1,1-1h6.914c0.553,0,1,0.447,1,1V47
			C28.457,47.553,28.01,48,27.457,48z M21.543,46h4.914v-4.324h-4.914V46z"/>
	</g>
	<polygon points="24,10.405 20.2,12.698 21.202,8.372 17.852,5.468 22.271,5.083 24,1 25.729,5.083 30.15,5.468 26.798,8.372 
		27.807,12.698 	"/>
</g>
</svg>
