<?xml version="1.0" encoding="utf-8"?>
<!-- Generator: Adobe Illustrator 16.0.0, SVG Export Plug-In . SVG Version: 6.00 Build 0)  -->
<!DOCTYPE svg PUBLIC "-//W3C//DTD SVG 1.1//EN" "http://www.w3.org/Graphics/SVG/1.1/DTD/svg11.dtd">
<svg version="1.1" id="Layer_1" xmlns="http://www.w3.org/2000/svg" xmlns:xlink="http://www.w3.org/1999/xlink" x="0px" y="0px"
	 width="48px" height="48px" viewBox="0 0 48 48" enable-background="new 0 0 48 48" xml:space="preserve">
<g>
	<g>
		<path d="M24.001,18.46c-4.092,0-7.422-3.33-7.422-7.422s3.33-7.422,7.422-7.422c4.092,0,7.42,3.33,7.42,7.422
			S28.093,18.46,24.001,18.46z M24.001,5.616c-2.99,0-5.422,2.432-5.422,5.422s2.432,5.422,5.422,5.422
			c2.988,0,5.42-2.432,5.42-5.422S26.989,5.616,24.001,5.616z"/>
		<g>
			<path d="M7.398,22.08c-4.086,0-7.287-4.85-7.287-11.042C0.111,4.849,3.312,0,7.398,0C9.901,0,16.32,2.11,20.29,5.292
				c0.431,0.345,0.5,0.975,0.155,1.406c-0.345,0.431-0.975,0.5-1.406,0.155C15.283,3.842,9.367,2,7.398,2
				c-2.866,0-5.287,4.139-5.287,9.038c0,4.901,2.421,9.042,5.287,9.042c1.968,0,7.349-1.736,10.975-4.354
				c0.45-0.322,1.073-0.221,1.396,0.226c0.323,0.448,0.222,1.073-0.226,1.396C15.481,20.28,9.732,22.08,7.398,22.08z"/>
			<path d="M40.609,22.08c-2.335,0-8.086-1.8-12.147-4.732c-0.448-0.323-0.549-0.949-0.226-1.396
				c0.323-0.447,0.948-0.549,1.396-0.226c3.626,2.618,9.009,4.354,10.978,4.354c2.861,0,5.279-4.141,5.279-9.042
				C45.889,6.139,43.471,2,40.609,2c-1.975,0-7.895,1.842-11.643,4.852c-0.431,0.346-1.06,0.277-1.405-0.154
				c-0.347-0.431-0.277-1.06,0.153-1.406C31.677,2.111,38.1,0,40.609,0c4.082,0,7.279,4.849,7.279,11.038
				C47.889,17.23,44.691,22.08,40.609,22.08z"/>
		</g>
	</g>
	<path d="M15.866,48c-0.119,0-0.238-0.021-0.353-0.064c-0.389-0.146-0.647-0.52-0.647-0.936V18.789c0-0.552,0.448-1,1-1s1,0.448,1,1
		V44.35l5.966-6.779c0.184-0.21,0.447-0.332,0.726-0.34c0.274-0.005,0.547,0.103,0.741,0.302l6.833,7.01V18.737c0-0.552,0.447-1,1-1
		s1,0.448,1,1V47c0,0.407-0.246,0.773-0.623,0.927c-0.377,0.15-0.81,0.063-1.093-0.229l-7.795-7.997l-7.003,7.959
		C16.423,47.881,16.148,48,15.866,48z"/>
</g>
</svg>
