<?xml version="1.0" encoding="utf-8"?>
<!-- Generator: Adobe Illustrator 16.0.0, SVG Export Plug-In . SVG Version: 6.00 Build 0)  -->
<!DOCTYPE svg PUBLIC "-//W3C//DTD SVG 1.1//EN" "http://www.w3.org/Graphics/SVG/1.1/DTD/svg11.dtd">
<svg version="1.1" id="Layer_1" xmlns="http://www.w3.org/2000/svg" xmlns:xlink="http://www.w3.org/1999/xlink" x="0px" y="0px"
	 width="48px" height="48px" viewBox="0 0 48 48" enable-background="new 0 0 48 48" xml:space="preserve">
<g>
	<path d="M25.661,14.313H13.646c-3.318,0-6.018-2.647-6.018-5.902V5.9c0-3.253,2.7-5.9,6.018-5.9H25.66
		c3.32,0,6.021,2.646,6.021,5.9v2.511C31.682,11.666,28.98,14.313,25.661,14.313z M13.646,2c-2.215,0-4.018,1.75-4.018,3.9v2.511
		c0,2.151,1.803,3.902,4.018,3.902h12.015c2.217,0,4.021-1.75,4.021-3.902V5.9c0-2.15-1.804-3.9-4.021-3.9H13.646z"/>
	<path d="M33.06,48.001c-1.901,0-3.623-0.717-4.643-1.401c-0.032-0.021-0.063-0.046-0.094-0.071L12.391,32.852
		c-0.221-0.19-0.349-0.467-0.349-0.759V13.437c0-0.552,0.448-1,1-1s1,0.448,1,1v18.196l15.533,13.334
		c0.479,0.303,4.438,2.628,7.459-0.896c1.007-1.177,1.449-2.376,1.313-3.563c-0.254-2.211-2.39-3.805-2.411-3.82l-9.949-7.919
		c-0.238-0.189-0.377-0.478-0.377-0.782V13.22c0-0.552,0.447-1,1-1s1,0.448,1,1v14.284l9.539,7.594
		c0.081,0.058,2.819,2.078,3.184,5.164c0.208,1.769-0.391,3.488-1.779,5.111C36.862,47.345,34.879,48.001,33.06,48.001z"/>
	<path d="M26.208,43.825c-0.273,0-0.546-0.111-0.743-0.331c-0.37-0.411-0.336-1.043,0.074-1.412l8.942-8.043
		c0.411-0.369,1.042-0.337,1.412,0.074s0.336,1.043-0.074,1.412l-8.942,8.043C26.686,43.74,26.446,43.825,26.208,43.825z"/>
	<path d="M18.607,37.865c-0.064,0-0.129-0.006-0.195-0.019c-0.542-0.107-0.895-0.634-0.787-1.176
		c2.156-10.899-4.115-12.594-4.383-12.661c-0.533-0.133-0.863-0.672-0.734-1.206c0.128-0.534,0.66-0.868,1.196-0.74
		c0.084,0.02,8.429,2.125,5.883,14.995C19.493,37.535,19.075,37.865,18.607,37.865z"/>
</g>
</svg>
