<?xml version="1.0" encoding="utf-8"?>
<!-- Generator: Adobe Illustrator 16.0.0, SVG Export Plug-In . SVG Version: 6.00 Build 0)  -->
<!DOCTYPE svg PUBLIC "-//W3C//DTD SVG 1.1//EN" "http://www.w3.org/Graphics/SVG/1.1/DTD/svg11.dtd">
<svg version="1.1" id="Layer_1" xmlns="http://www.w3.org/2000/svg" xmlns:xlink="http://www.w3.org/1999/xlink" x="0px" y="0px"
	 width="48px" height="48px" viewBox="0 0 48 48" enable-background="new 0 0 48 48" xml:space="preserve">
<g>
	<path d="M20.118,35.993c-2.175,0-4.03-0.705-5.363-2.039c-3.621-3.625-2.228-10.916,3.106-16.253
		c3.228-3.226,7.3-5.152,10.894-5.152c2.175,0,4.03,0.705,5.365,2.037c3.621,3.625,2.228,10.917-3.108,16.255
		C27.782,34.067,23.709,35.993,20.118,35.993z M28.755,14.549c-3.075,0-6.619,1.707-9.479,4.566
		c-4.555,4.558-5.948,10.58-3.106,13.425c0.95,0.95,2.315,1.453,3.948,1.453c3.074,0,6.618-1.707,9.48-4.566
		c4.556-4.558,5.95-10.581,3.108-13.426C31.755,15.052,30.389,14.549,28.755,14.549z"/>
	<path d="M13.442,48c-0.01,0-0.02,0-0.03,0c-0.394-0.012-0.744-0.254-0.894-0.617l-2.272-5.485l-3.519,0.832
		c-0.299,0.073-0.614,0.001-0.854-0.191c-0.24-0.191-0.379-0.483-0.376-0.79l0.041-4.4l-4.91-1.987
		c-0.384-0.155-0.633-0.532-0.625-0.946c0.008-0.415,0.271-0.781,0.662-0.922l12.139-4.361c0.516-0.187,1.092,0.083,1.279,0.604
		c0.187,0.52-0.083,1.092-0.603,1.279l-9.674,3.476l3.113,1.26c0.381,0.154,0.629,0.525,0.625,0.936L7.509,40.49l3.105-0.734
		c0.476-0.116,0.966,0.137,1.154,0.59l1.747,4.217l4.88-10.046c0.241-0.498,0.841-0.704,1.336-0.463
		c0.497,0.241,0.704,0.84,0.462,1.336l-5.852,12.047C14.174,47.782,13.824,48,13.442,48z"/>
	<path d="M34.958,20.29c-0.371,0-0.728-0.207-0.9-0.563c-0.241-0.497-0.034-1.095,0.462-1.336l10.042-4.88l-4.214-1.748
		c-0.453-0.188-0.703-0.677-0.591-1.154l0.735-3.106l-3.805,0.038c-0.447-0.012-0.783-0.245-0.937-0.625l-1.258-3.111l-3.475,9.673
		c-0.187,0.52-0.763,0.79-1.279,0.603c-0.52-0.187-0.79-0.759-0.604-1.279l4.36-12.14C33.637,0.271,34.003,0.008,34.418,0
		c0.394,0.001,0.791,0.24,0.946,0.625l1.985,4.909l4.399-0.044c0.338,0.004,0.599,0.136,0.791,0.375
		c0.191,0.24,0.263,0.556,0.192,0.854l-0.833,3.521l5.48,2.274c0.364,0.151,0.605,0.501,0.617,0.895
		c0.011,0.393-0.209,0.757-0.563,0.929l-12.04,5.851C35.253,20.258,35.104,20.29,34.958,20.29z"/>
</g>
</svg>
