<?xml version="1.0" encoding="utf-8"?>
<!-- Generator: Adobe Illustrator 16.0.0, SVG Export Plug-In . SVG Version: 6.00 Build 0)  -->
<!DOCTYPE svg PUBLIC "-//W3C//DTD SVG 1.1//EN" "http://www.w3.org/Graphics/SVG/1.1/DTD/svg11.dtd">
<svg version="1.1" id="Layer_1" xmlns="http://www.w3.org/2000/svg" xmlns:xlink="http://www.w3.org/1999/xlink" x="0px" y="0px"
	 width="48px" height="48px" viewBox="0 0 48 48" enable-background="new 0 0 48 48" xml:space="preserve">
<g>
	<path d="M23.997,31.188c-8.599,0-15.594-6.994-15.594-15.591C8.403,6.997,15.398,0,23.997,0C32.6,0,39.598,6.997,39.598,15.596
		C39.598,24.193,32.6,31.188,23.997,31.188z M23.997,2c-7.496,0-13.594,6.099-13.594,13.596c0,7.494,6.098,13.591,13.594,13.591
		c7.499,0,13.601-6.097,13.601-13.591C37.598,8.099,31.496,2,23.997,2z"/>
	<path d="M23.995,25.187c-5.285,0-9.584-4.302-9.584-9.59c0-5.291,4.299-9.595,9.584-9.595c5.292,0,9.598,4.304,9.598,9.595
		C33.593,20.884,29.287,25.187,23.995,25.187z M23.995,8.001c-4.182,0-7.584,3.407-7.584,7.595c0,4.185,3.402,7.59,7.584,7.59
		c4.189,0,7.598-3.405,7.598-7.59C31.593,11.408,28.185,8.001,23.995,8.001z"/>
	<path d="M26.932,15.596c0,1.617-1.309,2.929-2.935,2.929c-1.613,0-2.927-1.312-2.927-2.929c0-1.622,1.314-2.931,2.927-2.931
		C25.623,12.665,26.932,13.974,26.932,15.596z"/>
	<path d="M23.997,48c-0.552,0-1-0.447-1-1V30.188c0-0.553,0.448-1,1-1c0.553,0,1,0.447,1,1V47C24.997,47.553,24.55,48,23.997,48z"/>
</g>
</svg>
