<?xml version="1.0" encoding="utf-8"?>
<!-- Generator: Adobe Illustrator 16.0.0, SVG Export Plug-In . SVG Version: 6.00 Build 0)  -->
<!DOCTYPE svg PUBLIC "-//W3C//DTD SVG 1.1//EN" "http://www.w3.org/Graphics/SVG/1.1/DTD/svg11.dtd">
<svg version="1.1" id="Layer_1" xmlns="http://www.w3.org/2000/svg" xmlns:xlink="http://www.w3.org/1999/xlink" x="0px" y="0px"
	 width="48px" height="48px" viewBox="0 0 48 48" enable-background="new 0 0 48 48" xml:space="preserve">
<g>
	<path d="M33.889,48c-2.25,0-4.298-1.33-5.219-3.39l-4.349-9.758L19.036,44.94c-0.993,1.887-2.934,3.058-5.065,3.058
		c-0.919,0-1.837-0.228-2.654-0.658c-2.786-1.464-3.866-4.921-2.408-7.706l6.46-12.317v-4.257H9.313
		c-3.151,0-5.714-2.565-5.714-5.717c0-3.148,2.563-5.709,5.714-5.709h8.167c-0.733-1.191-1.133-2.566-1.133-3.979
		c0-4.22,3.432-7.654,7.65-7.654c4.223,0,7.657,3.434,7.657,7.654c0,1.413-0.4,2.789-1.134,3.979h8.163
		c3.151,0,5.717,2.561,5.719,5.708c0,3.153-2.564,5.718-5.717,5.718h-6.06v2.358l6.482,14.539c0.622,1.396,0.662,2.948,0.114,4.373
		s-1.617,2.551-3.012,3.171C35.465,47.832,34.684,48,33.889,48z M24.394,31.559c0.01,0,0.021,0,0.032,0.001
		c0.383,0.012,0.726,0.242,0.882,0.592l5.188,11.644c0.809,1.809,3.018,2.716,4.902,1.877c0.906-0.402,1.602-1.134,1.957-2.06
		c0.356-0.927,0.33-1.936-0.073-2.842l-6.569-14.733c-0.058-0.128-0.087-0.267-0.087-0.407v-3.571c0-0.552,0.447-1,1-1h7.06
		c2.05,0,3.717-1.667,3.717-3.717c-0.002-2.045-1.67-3.709-3.719-3.709h-10.3c-0.416,0-0.788-0.257-0.936-0.646
		c-0.146-0.389-0.038-0.829,0.274-1.104c1.245-1.098,1.932-2.6,1.932-4.229C29.654,4.536,27.116,2,23.997,2
		c-3.115,0-5.65,2.536-5.65,5.654c0,1.628,0.686,3.13,1.931,4.229c0.312,0.275,0.42,0.714,0.273,1.104
		c-0.147,0.389-0.519,0.646-0.935,0.646H9.313c-2.048,0-3.714,1.664-3.714,3.709c0,2.05,1.666,3.717,3.714,3.717h7.056
		c0.552,0,1,0.448,1,1v5.503c0,0.162-0.039,0.321-0.114,0.465l-6.574,12.535c-0.947,1.809-0.244,4.055,1.568,5.008
		c0.539,0.284,1.118,0.428,1.722,0.428c1.387,0,2.649-0.762,3.294-1.987l6.243-11.916C23.681,31.765,24.023,31.559,24.394,31.559z"
		/>
	<path d="M19.005,43.837c-0.143,0-0.288-0.03-0.425-0.095l-7.888-3.711c-0.5-0.235-0.714-0.831-0.479-1.331
		c0.235-0.501,0.832-0.713,1.331-0.479l7.888,3.711c0.5,0.235,0.714,0.831,0.479,1.331C19.74,43.625,19.38,43.837,19.005,43.837z"/>
	<path d="M29.556,43.837c-0.376,0-0.735-0.212-0.905-0.574c-0.235-0.5-0.021-1.096,0.479-1.33l7.883-3.711
		c0.499-0.238,1.096-0.021,1.33,0.479c0.235,0.5,0.021,1.096-0.479,1.33l-7.883,3.711C29.843,43.807,29.698,43.837,29.556,43.837z"
		/>
</g>
</svg>
