<?xml version="1.0" encoding="utf-8"?>
<!-- Generator: Adobe Illustrator 16.0.0, SVG Export Plug-In . SVG Version: 6.00 Build 0)  -->
<!DOCTYPE svg PUBLIC "-//W3C//DTD SVG 1.1//EN" "http://www.w3.org/Graphics/SVG/1.1/DTD/svg11.dtd">
<svg version="1.1" id="Layer_1" xmlns="http://www.w3.org/2000/svg" xmlns:xlink="http://www.w3.org/1999/xlink" x="0px" y="0px"
	 width="48px" height="48px" viewBox="0 0 48 48" enable-background="new 0 0 48 48" xml:space="preserve">
<g>
	<g>
		<path d="M32.838,48c-2.422,0-4.393-1.973-4.393-4.396V13.439c0-2.567-1.993-4.655-4.443-4.655c-2.453,0-4.448,2.088-4.448,4.655
			c0,2.424-1.972,4.396-4.395,4.396c-2.425,0-4.398-1.972-4.398-4.396C10.762,6.029,16.702,0,24.002,0
			C31.3,0,37.236,6.029,37.236,13.439v30.165C37.236,46.027,35.264,48,32.838,48z M24.002,6.784c3.553,0,6.443,2.985,6.443,6.655
			v30.165c0,1.321,1.073,2.396,2.393,2.396c1.322,0,2.398-1.075,2.398-2.396V13.439C35.236,7.131,30.196,2,24.002,2
			c-6.197,0-11.24,5.131-11.241,11.439c0,1.321,1.076,2.396,2.398,2.396c1.321,0,2.395-1.075,2.395-2.396
			C17.554,9.77,20.447,6.784,24.002,6.784z"/>
	</g>
	<path d="M12.546,11.833c-0.345,0-0.68-0.178-0.866-0.498c-0.277-0.478-0.115-1.09,0.363-1.367l15.419-8.947
		c0.48-0.277,1.091-0.114,1.367,0.363c0.277,0.478,0.114,1.09-0.363,1.367l-15.419,8.947C12.889,11.79,12.716,11.833,12.546,11.833z
		"/>
	<path d="M27.965,10.108c-0.346,0-0.681-0.179-0.866-0.499c-0.277-0.478-0.113-1.09,0.364-1.366l5.574-3.227
		c0.477-0.277,1.089-0.114,1.366,0.364s0.113,1.09-0.364,1.366l-5.574,3.227C28.308,10.064,28.135,10.108,27.965,10.108z"/>
	<path d="M30.144,16.259c-0.345,0-0.681-0.179-0.866-0.499c-0.277-0.478-0.114-1.09,0.364-1.367l5.574-3.229
		c0.477-0.275,1.09-0.113,1.366,0.364c0.277,0.478,0.114,1.09-0.364,1.367l-5.574,3.229C30.486,16.215,30.313,16.259,30.144,16.259z
		"/>
	<path d="M30.144,24.208c-0.345,0-0.681-0.178-0.866-0.498c-0.277-0.478-0.114-1.089,0.363-1.367l5.574-3.236
		c0.479-0.277,1.091-0.115,1.367,0.363c0.277,0.478,0.114,1.089-0.363,1.367l-5.574,3.236
		C30.486,24.165,30.313,24.208,30.144,24.208z"/>
	<path d="M29.761,33.896c-0.345,0-0.681-0.179-0.866-0.499c-0.277-0.478-0.114-1.09,0.364-1.366l5.575-3.229
		c0.478-0.278,1.09-0.113,1.366,0.364c0.277,0.478,0.114,1.09-0.364,1.366l-5.575,3.229C30.104,33.854,29.931,33.896,29.761,33.896z
		"/>
	<path d="M29.761,43.073c-0.346,0-0.681-0.179-0.866-0.499c-0.277-0.478-0.113-1.09,0.364-1.366l5.575-3.228
		c0.476-0.279,1.089-0.114,1.366,0.364c0.277,0.478,0.113,1.09-0.364,1.366l-5.575,3.228C30.104,43.03,29.931,43.073,29.761,43.073z
		"/>
</g>
</svg>
