<?xml version="1.0" encoding="utf-8"?>
<!-- Generator: Adobe Illustrator 16.0.0, SVG Export Plug-In . SVG Version: 6.00 Build 0)  -->
<!DOCTYPE svg PUBLIC "-//W3C//DTD SVG 1.1//EN" "http://www.w3.org/Graphics/SVG/1.1/DTD/svg11.dtd">
<svg version="1.1" id="Layer_1" xmlns="http://www.w3.org/2000/svg" xmlns:xlink="http://www.w3.org/1999/xlink" x="0px" y="0px"
	 width="48px" height="48px" viewBox="0 0 48 48" enable-background="new 0 0 48 48" xml:space="preserve">
<g>
	<path d="M24.006,47.993c-0.005,0-0.011-0.001-0.016-0.001c-0.346-0.005-0.669-0.183-0.846-0.479
		c-0.067-0.106-1.373-2.086-5.864-2.585c-0.518-0.058-0.905-0.506-0.889-1.026c0.001-0.04,0.095-3.987-2.154-6.306
		c-1.225-1.264-2.936-1.839-5.185-1.686c-0.539,0.029-1.015-0.37-1.062-0.912c-0.006-0.07-0.659-6.961-5.151-6.961
		c-0.47,0-0.98,0.072-1.514,0.213c-0.283,0.076-0.589,0.021-0.831-0.149c-0.241-0.17-0.395-0.438-0.42-0.731
		c-0.056-0.642-1.25-15.768,8.009-20.041c0.416-0.193,0.911-0.077,1.199,0.281c0.069,0.087,7.043,8.647,14.72,8.647
		c7.689,0,14.646-8.561,14.716-8.647c0.289-0.358,0.783-0.473,1.199-0.282c9.262,4.274,8.064,19.4,8.009,20.042
		c-0.025,0.294-0.18,0.563-0.421,0.732c-0.24,0.169-0.543,0.225-0.831,0.148c-0.533-0.141-1.043-0.213-1.513-0.213
		c-4.508,0-5.144,6.89-5.149,6.959c-0.046,0.544-0.533,0.927-1.062,0.914c-2.245-0.151-3.959,0.422-5.186,1.686
		c-2.25,2.318-2.157,6.267-2.156,6.306c0.017,0.521-0.37,0.969-0.889,1.026c-4.513,0.502-5.808,2.502-5.86,2.587
		C24.677,47.808,24.351,47.993,24.006,47.993z M18.367,43.058c2.989,0.485,4.721,1.609,5.635,2.442
		c0.914-0.833,2.646-1.957,5.631-2.442c0.1-1.53,0.57-4.655,2.687-6.845c1.464-1.514,3.42-2.296,5.818-2.325
		c0.518-3.147,2.447-7.851,7.023-7.851c0.268,0,0.543,0.017,0.823,0.049c0.08-3.322-0.216-13.155-6.238-16.598
		c-1.866,2.117-8.322,8.769-15.744,8.769c-7.425,0-13.882-6.652-15.748-8.769c-6.02,3.443-6.318,13.276-6.238,16.598
		c0.28-0.032,0.556-0.049,0.824-0.049c4.579,0,6.508,4.703,7.025,7.851c2.398,0.029,4.354,0.812,5.818,2.325
		C17.798,38.402,18.268,41.527,18.367,43.058z"/>
	<path d="M31.438,15.901c-0.553,0-1-0.448-1-1c0-4.664-2.887-8.458-6.435-8.458c-3.55,0-6.438,3.794-6.438,8.458
		c0,0.552-0.448,1-1,1s-1-0.448-1-1c0-5.767,3.785-10.458,8.438-10.458c4.65,0,8.435,4.691,8.435,10.458
		C32.438,15.453,31.99,15.901,31.438,15.901z"/>
	<g>
		<path d="M20.71,7.256c-0.347,0-0.684-0.18-0.869-0.502l-3.014-5.256c-0.274-0.479-0.109-1.09,0.37-1.365
			c0.479-0.275,1.091-0.108,1.365,0.37l3.014,5.256c0.274,0.479,0.109,1.09-0.37,1.365C21.05,7.213,20.878,7.256,20.71,7.256z"/>
		<path d="M27.29,7.256c-0.169,0-0.34-0.042-0.497-0.133c-0.479-0.275-0.645-0.886-0.369-1.365l3.016-5.256
			c0.274-0.479,0.885-0.646,1.365-0.37c0.479,0.275,0.645,0.886,0.369,1.365l-3.016,5.256C27.974,7.076,27.637,7.256,27.29,7.256z"
			/>
	</g>
</g>
</svg>
