<?xml version="1.0" encoding="utf-8"?>
<!-- Generator: Adobe Illustrator 16.0.0, SVG Export Plug-In . SVG Version: 6.00 Build 0)  -->
<!DOCTYPE svg PUBLIC "-//W3C//DTD SVG 1.1//EN" "http://www.w3.org/Graphics/SVG/1.1/DTD/svg11.dtd">
<svg version="1.1" id="Layer_1" xmlns="http://www.w3.org/2000/svg" xmlns:xlink="http://www.w3.org/1999/xlink" x="0px" y="0px"
	 width="48px" height="48px" viewBox="0 0 48 48" enable-background="new 0 0 48 48" xml:space="preserve">
<g>
	<path d="M23.997,48L23.997,48c-0.324,0-0.628-0.157-0.816-0.422C22.54,46.674,7.478,25.317,7.478,16.528
		C7.478,7.415,14.889,0,23.997,0c9.111,0,16.524,7.415,16.524,16.528c0,8.79-15.067,30.146-15.709,31.05
		C24.625,47.843,24.321,48,23.997,48z M23.997,2C15.991,2,9.478,8.517,9.478,16.528c0,7.053,11.344,24.088,14.519,28.717
		c3.176-4.629,14.524-21.667,14.524-28.717C38.521,8.517,32.006,2,23.997,2z"/>
	<path d="M23.997,22.793c-3.984,0-7.225-3.24-7.225-7.222c0-3.988,3.241-7.232,7.225-7.232c3.985,0,7.228,3.244,7.228,7.232
		C31.225,19.553,27.982,22.793,23.997,22.793z M23.997,10.339c-2.881,0-5.225,2.347-5.225,5.232c0,2.879,2.344,5.222,5.225,5.222
		c2.883,0,5.228-2.343,5.228-5.222C29.225,12.686,26.88,10.339,23.997,10.339z"/>
</g>
</svg>
