<?xml version="1.0" encoding="utf-8"?>
<!-- Generator: Adobe Illustrator 16.0.0, SVG Export Plug-In . SVG Version: 6.00 Build 0)  -->
<!DOCTYPE svg PUBLIC "-//W3C//DTD SVG 1.1//EN" "http://www.w3.org/Graphics/SVG/1.1/DTD/svg11.dtd">
<svg version="1.1" id="Layer_1" xmlns="http://www.w3.org/2000/svg" xmlns:xlink="http://www.w3.org/1999/xlink" x="0px" y="0px"
	 width="48px" height="48px" viewBox="0 0 48 48" enable-background="new 0 0 48 48" xml:space="preserve">
<g>
	<g>
		<path d="M23.999,44.506c-0.324,0-0.628-0.157-0.816-0.422C22.59,43.247,8.65,23.493,8.65,15.345C8.65,6.884,15.536,0,23.999,0
			c8.461,0,15.345,6.884,15.345,15.345c0,8.147-13.936,27.902-14.529,28.739C24.627,44.349,24.323,44.506,23.999,44.506z M23.999,2
			C16.638,2,10.65,7.987,10.65,15.345c0,6.453,10.333,22.004,13.349,26.406c3.015-4.402,13.345-19.955,13.345-26.406
			C37.344,7.987,31.357,2,23.999,2z"/>
		<path d="M23.999,21.217c-3.725,0-6.755-3.03-6.755-6.755c0-3.723,3.03-6.752,6.755-6.752c3.724,0,6.754,3.029,6.754,6.752
			C30.753,18.187,27.723,21.217,23.999,21.217z M23.999,9.71c-2.622,0-4.755,2.132-4.755,4.752c0,2.622,2.133,4.755,4.755,4.755
			c2.621,0,4.754-2.133,4.754-4.755C28.753,11.842,26.62,9.71,23.999,9.71z"/>
	</g>
	<path d="M24,48c-12.259,0-21.863-4.053-21.863-9.227c0-2.956,2.916-5.537,8.211-7.266l0.621,1.9
		c-4.278,1.397-6.833,3.403-6.833,5.365C4.137,42.191,12.294,46,24,46c11.706,0,19.863-3.809,19.863-7.227
		c0-1.935-2.512-3.925-6.719-5.324l0.631-1.898c5.216,1.735,8.088,4.301,8.088,7.223C45.863,43.947,36.26,48,24,48z"/>
</g>
</svg>
