<?xml version="1.0" encoding="utf-8"?>
<!-- Generator: Adobe Illustrator 16.0.0, SVG Export Plug-In . SVG Version: 6.00 Build 0)  -->
<!DOCTYPE svg PUBLIC "-//W3C//DTD SVG 1.1//EN" "http://www.w3.org/Graphics/SVG/1.1/DTD/svg11.dtd">
<svg version="1.1" id="Layer_1" xmlns="http://www.w3.org/2000/svg" xmlns:xlink="http://www.w3.org/1999/xlink" x="0px" y="0px"
	 width="48px" height="48px" viewBox="0 0 48 48" enable-background="new 0 0 48 48" xml:space="preserve">
<g>
	<g>
		<path d="M24,44.951L24,44.951c-0.324,0-0.628-0.157-0.816-0.422c-0.599-0.845-14.68-20.799-14.68-29.03C8.504,6.953,15.456,0,24,0
			c8.545,0,15.497,6.953,15.497,15.499c0,8.231-14.082,28.186-14.682,29.03C24.628,44.794,24.324,44.951,24,44.951z M24,2
			c-7.442,0-13.496,6.056-13.496,13.499c0,6.528,10.46,22.267,13.496,26.697c3.036-4.431,13.497-20.169,13.497-26.697
			C37.497,8.056,31.442,2,24,2z"/>
		<path d="M24,21.416c-3.758,0-6.816-3.058-6.816-6.816S20.242,7.784,24,7.784c3.759,0,6.816,3.058,6.816,6.816
			S27.759,21.416,24,21.416z M24,9.784c-2.655,0-4.816,2.161-4.816,4.816s2.161,4.816,4.816,4.816c2.656,0,4.816-2.161,4.816-4.816
			S26.656,9.784,24,9.784z"/>
	</g>
	<path d="M40.98,48H7.02c-0.327,0-0.633-0.16-0.82-0.428c-0.187-0.269-0.231-0.611-0.118-0.918l6.058-16.458
		c0.191-0.519,0.765-0.783,1.284-0.593s0.784,0.766,0.593,1.284L8.454,46h31.093l-5.562-15.112c-0.19-0.519,0.075-1.094,0.593-1.284
		c0.517-0.191,1.094,0.074,1.284,0.593l6.057,16.458c0.113,0.307,0.068,0.649-0.118,0.918C41.613,47.84,41.308,48,40.98,48z"/>
</g>
</svg>
