<?xml version="1.0" encoding="utf-8"?>
<!-- Generator: Adobe Illustrator 16.0.0, SVG Export Plug-In . SVG Version: 6.00 Build 0)  -->
<!DOCTYPE svg PUBLIC "-//W3C//DTD SVG 1.1//EN" "http://www.w3.org/Graphics/SVG/1.1/DTD/svg11.dtd">
<svg version="1.1" id="Layer_1" xmlns="http://www.w3.org/2000/svg" xmlns:xlink="http://www.w3.org/1999/xlink" x="0px" y="0px"
	 width="48px" height="48px" viewBox="0 0 48 48" enable-background="new 0 0 48 48" xml:space="preserve">
<g>
	<g>
		<path d="M24.198,41.207L24.198,41.207c-0.324,0-0.628-0.157-0.816-0.422c-0.548-0.772-13.415-19.009-13.415-26.55
			C9.968,6.386,16.351,0,24.197,0c7.849,0,14.235,6.386,14.235,14.235c0,7.541-12.87,25.778-13.418,26.55
			C24.826,41.05,24.522,41.207,24.198,41.207z M24.197,2c-6.743,0-12.229,5.489-12.229,12.235c0,5.887,9.374,20.04,12.23,24.216
			c2.857-4.177,12.233-18.331,12.233-24.216C36.432,7.489,30.943,2,24.197,2z"/>
		<path d="M24.197,19.724c-3.477,0-6.306-2.83-6.306-6.307c0-3.477,2.829-6.306,6.306-6.306c3.478,0,6.307,2.829,6.307,6.306
			C30.504,16.895,27.675,19.724,24.197,19.724z M24.197,9.111c-2.374,0-4.306,1.932-4.306,4.306c0,2.375,1.932,4.307,4.306,4.307
			c2.375,0,4.307-1.932,4.307-4.307C28.504,11.042,26.571,9.111,24.197,9.111z"/>
	</g>
	<g>
		<path d="M37.53,48c-0.067,0-0.136-0.007-0.204-0.021l-27.059-5.611c-0.541-0.112-0.888-0.642-0.776-1.183
			c0.112-0.541,0.643-0.885,1.182-0.776l27.059,5.611c0.541,0.112,0.889,0.642,0.776,1.183C38.41,47.676,37.994,48,37.53,48z"/>
		<path d="M10.47,48c-0.464,0-0.88-0.324-0.978-0.797c-0.112-0.541,0.235-1.07,0.776-1.183l27.058-5.611
			c0.538-0.108,1.069,0.234,1.183,0.776c0.112,0.541-0.235,1.07-0.776,1.183l-27.058,5.611C10.606,47.993,10.538,48,10.47,48z"/>
	</g>
</g>
</svg>
