<?xml version="1.0" encoding="utf-8"?>
<!-- Generator: Adobe Illustrator 16.0.0, SVG Export Plug-In . SVG Version: 6.00 Build 0)  -->
<!DOCTYPE svg PUBLIC "-//W3C//DTD SVG 1.1//EN" "http://www.w3.org/Graphics/SVG/1.1/DTD/svg11.dtd">
<svg version="1.1" id="Layer_1" xmlns="http://www.w3.org/2000/svg" xmlns:xlink="http://www.w3.org/1999/xlink" x="0px" y="0px"
	 width="48px" height="48px" viewBox="0 0 48 48" enable-background="new 0 0 48 48" xml:space="preserve">
<g>
	<path d="M24,48c-0.324,0-0.628-0.157-0.816-0.422c-0.641-0.904-15.708-22.261-15.708-31.05C7.476,7.415,14.889,0,24,0
		s16.523,7.415,16.523,16.528c0,8.79-15.066,30.146-15.708,31.05C24.628,47.843,24.324,48,24,48z M24,2
		C15.992,2,9.476,8.517,9.476,16.528c0,7.051,11.348,24.088,14.524,28.717c3.176-4.629,14.523-21.667,14.523-28.717
		C38.523,8.517,32.008,2,24,2z"/>
	<g>
		<path d="M30.605,16.957H17.392c-0.552,0-1-0.448-1-1s0.448-1,1-1h13.213c0.553,0,1,0.448,1,1S31.158,16.957,30.605,16.957z"/>
		<path d="M24,23.565c-0.552,0-1-0.448-1-1V9.354c0-0.552,0.448-1,1-1c0.553,0,1,0.448,1,1v13.211
			C25,23.117,24.553,23.565,24,23.565z"/>
	</g>
</g>
</svg>
