<?xml version="1.0" encoding="utf-8"?>
<!-- Generator: Adobe Illustrator 16.0.0, SVG Export Plug-In . SVG Version: 6.00 Build 0)  -->
<!DOCTYPE svg PUBLIC "-//W3C//DTD SVG 1.1//EN" "http://www.w3.org/Graphics/SVG/1.1/DTD/svg11.dtd">
<svg version="1.1" id="Layer_1" xmlns="http://www.w3.org/2000/svg" xmlns:xlink="http://www.w3.org/1999/xlink" x="0px" y="0px"
	 width="48px" height="48px" viewBox="0 0 48 48" enable-background="new 0 0 48 48" xml:space="preserve">
<g>
	<path d="M24,48c-0.324,0-0.628-0.157-0.816-0.422C22.543,46.674,7.478,25.317,7.478,16.529C7.478,7.415,14.89,0,24,0
		s16.521,7.415,16.521,16.529c0,8.789-15.064,30.145-15.706,31.049C24.628,47.843,24.324,48,24,48z M24,2
		C15.993,2,9.478,8.518,9.478,16.529c0,7.052,11.347,24.087,14.522,28.716c3.175-4.629,14.521-21.667,14.521-28.716
		C38.521,8.518,32.007,2,24,2z"/>
	<path d="M30.605,16.957H17.393c-0.552,0-1-0.448-1-1s0.448-1,1-1h13.212c0.553,0,1,0.448,1,1S31.158,16.957,30.605,16.957z"/>
</g>
</svg>
