<?xml version="1.0" encoding="utf-8"?>
<!-- Generator: Adobe Illustrator 16.0.0, SVG Export Plug-In . SVG Version: 6.00 Build 0)  -->
<!DOCTYPE svg PUBLIC "-//W3C//DTD SVG 1.1//EN" "http://www.w3.org/Graphics/SVG/1.1/DTD/svg11.dtd">
<svg version="1.1" id="Layer_1" xmlns="http://www.w3.org/2000/svg" xmlns:xlink="http://www.w3.org/1999/xlink" x="0px" y="0px"
	 width="48px" height="48px" viewBox="0 0 48 48" enable-background="new 0 0 48 48" xml:space="preserve">
<g>
	<path d="M23.995,48L23.995,48c-0.324,0-0.628-0.157-0.816-0.422c-0.641-0.905-15.7-22.261-15.7-31.049
		C7.479,7.415,14.888,0,23.995,0c9.112,0,16.526,7.415,16.526,16.529c0,8.789-15.069,30.145-15.711,31.049
		C24.623,47.843,24.319,48,23.995,48z M23.995,2C15.991,2,9.479,8.518,9.479,16.529c0,7.052,11.342,24.087,14.516,28.716
		c3.177-4.629,14.526-21.667,14.526-28.716C38.521,8.518,32.005,2,23.995,2z"/>
	<g>
		<path d="M28.673,21.631c-0.256,0-0.512-0.098-0.707-0.293l-9.343-9.346c-0.391-0.391-0.391-1.024,0-1.414
			c0.391-0.391,1.023-0.391,1.414,0l9.343,9.346c0.391,0.391,0.391,1.024,0,1.414C29.185,21.533,28.929,21.631,28.673,21.631z"/>
		<path d="M19.33,21.631c-0.256,0-0.512-0.098-0.707-0.293c-0.391-0.39-0.391-1.023,0-1.414l9.34-9.342
			c0.391-0.391,1.023-0.391,1.414,0c0.391,0.39,0.391,1.023,0,1.414l-9.34,9.342C19.842,21.533,19.586,21.631,19.33,21.631z"/>
	</g>
</g>
</svg>
