<?xml version="1.0" encoding="utf-8"?>
<!-- Generator: Adobe Illustrator 16.0.0, SVG Export Plug-In . SVG Version: 6.00 Build 0)  -->
<!DOCTYPE svg PUBLIC "-//W3C//DTD SVG 1.1//EN" "http://www.w3.org/Graphics/SVG/1.1/DTD/svg11.dtd">
<svg version="1.1" id="Layer_1" xmlns="http://www.w3.org/2000/svg" xmlns:xlink="http://www.w3.org/1999/xlink" x="0px" y="0px"
	 width="48px" height="48px" viewBox="0 0 48 48" enable-background="new 0 0 48 48" xml:space="preserve">
<g>
	<path d="M34.412,48H13.166c-0.552,0-1-0.447-1-1v-6.996c-2.14-0.948-8.265-4.657-8.265-16.006c0-7.942,3.027-9.877,4.741-10.335
		C8.742,11.779,9.333,7.341,12.555,4c3.365-3.491,8.579-4.715,15.38-3.593C38.426,2.143,43.082,11.136,43.94,18.973
		c0.98,8.951-2.507,16.972-8.528,19.821V47C35.412,47.553,34.965,48,34.412,48z M14.166,46h19.246v-7.859
		c0-0.408,0.248-0.775,0.627-0.928c5.576-2.242,8.83-9.653,7.913-18.022C41.174,12.083,36.996,3.933,27.608,2.38
		c-6.102-1.009-10.726,0.012-13.614,3.008c-3.525,3.656-3.372,9.047-3.37,9.101c0.01,0.271-0.091,0.535-0.28,0.73
		c-0.188,0.195-0.448,0.306-0.72,0.306c-0.381,0-3.724,0.238-3.724,8.473c0,11.898,7.247,14.271,7.555,14.365
		c0.419,0.129,0.71,0.519,0.71,0.957V46z"/>
	<path d="M20.097,24.236c-0.49,0-0.917-0.36-0.989-0.859c-1.047-7.361-9.446-7.849-9.531-7.853
		c-0.552-0.027-0.978-0.495-0.951-1.047c0.027-0.552,0.5-0.963,1.047-0.951c0.102,0.005,10.137,0.59,11.416,9.569
		c0.078,0.547-0.303,1.053-0.849,1.131C20.191,24.232,20.144,24.236,20.097,24.236z"/>
</g>
</svg>
