<?xml version="1.0" encoding="utf-8"?>
<!-- Generator: Adobe Illustrator 16.0.0, SVG Export Plug-In . SVG Version: 6.00 Build 0)  -->
<!DOCTYPE svg PUBLIC "-//W3C//DTD SVG 1.1//EN" "http://www.w3.org/Graphics/SVG/1.1/DTD/svg11.dtd">
<svg version="1.1" id="Layer_1" xmlns="http://www.w3.org/2000/svg" xmlns:xlink="http://www.w3.org/1999/xlink" x="0px" y="0px"
	 width="48px" height="48px" viewBox="0 0 48 48" enable-background="new 0 0 48 48" xml:space="preserve">
<g>
	<path d="M6.082,48.001C6.082,48.001,6.082,48.001,6.082,48.001c-2.405,0-3.279-2.24-3.279-3.746v-0.338l7.318-9.574
		c-1.73-9.157,2.513-15.744,2.697-16.024c0.485-0.621,10.712-13.583,12.061-14.932c0.123-0.124,0.25-0.269,0.39-0.428
		C26.241,1.852,27.87,0,31.759,0c1.962,0,4.332,0.485,7.045,1.443c3.595,1.268,5.698,3.056,6.251,5.313
		c0.681,2.784-1.301,5.167-1.639,5.548L32.265,27.421c-5.012,6.264-14.446,9.521-16.309,10.117L8.104,47.564l-0.272,0.098
		C7.205,47.887,6.616,48.001,6.082,48.001z M4.825,44.565c0.063,0.523,0.311,1.436,1.257,1.436l0,0c0.237,0,0.509-0.046,0.813-0.136
		l7.875-10.057l0.305-0.091c0.105-0.031,10.565-3.217,15.604-9.516L41.91,10.988c0.015-0.016,1.676-1.849,1.199-3.768
		c-0.382-1.534-2.101-2.879-4.972-3.892C35.64,2.447,33.493,2,31.759,2c-2.984,0-4.143,1.317-4.988,2.279
		c-0.172,0.195-0.329,0.372-0.479,0.522c-1.049,1.05-8.912,10.958-11.853,14.686l0,0c0.005,0-4.053,6.355-2.27,14.899l0.093,0.448
		L4.825,44.565z"/>
	<path d="M11.189,35.591c-0.216,0-0.434-0.069-0.617-0.214c-0.434-0.341-0.51-0.97-0.169-1.404
		c2.628-3.345,9.447-12.852,9.447-16.617c0-0.552,0.448-1,1-1s1,0.448,1,1c0,5.136-8.863,16.566-9.874,17.853
		C11.779,35.46,11.486,35.591,11.189,35.591z"/>
	<path d="M15.361,37.676c-0.154,0-0.31-0.035-0.457-0.11c-0.491-0.253-0.685-0.856-0.432-1.347c0.236-0.46,5.865-11.3,12.067-14.446
		c0.49-0.25,1.094-0.053,1.344,0.44c0.25,0.492,0.054,1.094-0.439,1.344c-5.63,2.855-11.138,13.469-11.193,13.576
		C16.074,37.478,15.724,37.676,15.361,37.676z"/>
</g>
</svg>
