<?xml version="1.0" encoding="utf-8"?>
<!-- Generator: Adobe Illustrator 16.0.0, SVG Export Plug-In . SVG Version: 6.00 Build 0)  -->
<!DOCTYPE svg PUBLIC "-//W3C//DTD SVG 1.1//EN" "http://www.w3.org/Graphics/SVG/1.1/DTD/svg11.dtd">
<svg version="1.1" id="Layer_1" xmlns="http://www.w3.org/2000/svg" xmlns:xlink="http://www.w3.org/1999/xlink" x="0px" y="0px"
	 width="48px" height="48px" viewBox="0 0 48 48" enable-background="new 0 0 48 48" xml:space="preserve">
<g>
	<path d="M41.708,48H6.292c-0.552,0-1-0.447-1-1V18.814c0-0.414,0.255-0.785,0.641-0.933c2.9-1.117,5.005-5.699,5.005-10.895
		c0-1.991-0.31-3.949-0.895-5.663c-0.104-0.305-0.055-0.643,0.133-0.905C10.364,0.156,10.667,0,10.989,0h6.002
		c0.295,0,0.575,0.13,0.765,0.356c0.19,0.226,0.271,0.524,0.22,0.814c-0.18,1.033-0.271,2.084-0.271,3.125
		c0,6.044,2.879,11.151,6.288,11.151c3.414,0,6.299-5.106,6.299-11.151c0-1.035-0.087-2.059-0.266-3.131
		c-0.049-0.29,0.033-0.586,0.224-0.811C30.44,0.129,30.72,0,31.014,0h6c0.323,0,0.626,0.156,0.813,0.419
		c0.188,0.263,0.237,0.6,0.133,0.905c-0.59,1.72-0.901,3.677-0.901,5.662c0,5.196,2.106,9.777,5.009,10.894
		c0.386,0.148,0.641,0.52,0.641,0.933V47C42.708,47.553,42.261,48,41.708,48z M7.292,46h33.416V19.456
		c-3.357-1.754-5.649-6.74-5.649-12.47c0-1.711,0.211-3.41,0.614-4.986h-3.511c0.087,0.774,0.131,1.542,0.131,2.296
		c0,7.375-3.646,13.151-8.299,13.151c-4.647,0-8.288-5.776-8.288-13.151c0-0.763,0.044-1.532,0.131-2.296h-3.509
		c0.4,1.572,0.609,3.271,0.609,4.986c0,5.731-2.291,10.717-5.646,12.471V46z"/>
</g>
</svg>
