<?xml version="1.0" encoding="utf-8"?>
<!-- Generator: Adobe Illustrator 16.0.0, SVG Export Plug-In . SVG Version: 6.00 Build 0)  -->
<!DOCTYPE svg PUBLIC "-//W3C//DTD SVG 1.1//EN" "http://www.w3.org/Graphics/SVG/1.1/DTD/svg11.dtd">
<svg version="1.1" id="Layer_1" xmlns="http://www.w3.org/2000/svg" xmlns:xlink="http://www.w3.org/1999/xlink" x="0px" y="0px"
	 width="48px" height="48px" viewBox="0 0 48 48" enable-background="new 0 0 48 48" xml:space="preserve">
<g>
	<path d="M31.664,48c-0.186,0-0.371-0.052-0.533-0.154c-0.291-0.183-0.467-0.502-0.467-0.846V8.315c0-0.385,0.222-0.737,0.569-0.902
		l15.335-7.315c0.31-0.148,0.673-0.127,0.964,0.057C47.823,0.337,47.999,0.657,47.999,1v38.682c0,0.386-0.222,0.736-0.569,0.902
		l-15.335,7.318C31.958,47.968,31.811,48,31.664,48z M32.664,8.946v36.469l13.335-6.364V2.585L32.664,8.946z"/>
	<path d="M1.001,48c-0.186,0-0.371-0.052-0.534-0.154C0.177,47.663,0.001,47.344,0.001,47V8.315c0-0.385,0.222-0.736,0.569-0.902
		l15.331-7.315c0.31-0.148,0.674-0.127,0.964,0.057c0.29,0.183,0.466,0.502,0.466,0.846v38.682c0,0.386-0.222,0.736-0.569,0.902
		L1.432,47.902C1.295,47.968,1.148,48,1.001,48z M2.001,8.946v36.469l13.331-6.364V2.585L2.001,8.946z"/>
	<path d="M31.664,48c-0.146,0-0.294-0.032-0.431-0.098l-15.332-7.318c-0.348-0.166-0.569-0.517-0.569-0.902V1
		c0-0.343,0.176-0.663,0.466-0.846c0.291-0.184,0.654-0.205,0.964-0.057l15.332,7.315c0.348,0.166,0.569,0.517,0.569,0.902V47
		c0,0.344-0.176,0.663-0.467,0.846C32.035,47.948,31.85,48,31.664,48z M17.332,39.051l13.332,6.364V8.946L17.332,2.585V39.051z"/>
</g>
</svg>
