<?xml version="1.0" encoding="utf-8"?>
<!-- Generator: Adobe Illustrator 16.0.0, SVG Export Plug-In . SVG Version: 6.00 Build 0)  -->
<!DOCTYPE svg PUBLIC "-//W3C//DTD SVG 1.1//EN" "http://www.w3.org/Graphics/SVG/1.1/DTD/svg11.dtd">
<svg version="1.1" id="Layer_1" xmlns="http://www.w3.org/2000/svg" xmlns:xlink="http://www.w3.org/1999/xlink" x="0px" y="0px"
	 width="48px" height="48px" viewBox="0 0 48 48" enable-background="new 0 0 48 48" xml:space="preserve">
<g>
	<g>
		<path d="M16.331,48L16.331,48c-0.324,0-0.628-0.157-0.816-0.422C15.069,46.949,4.598,32.101,4.598,25.924
			c0-6.472,5.263-11.738,11.732-11.738c6.473,0,11.738,5.266,11.738,11.738c0,6.177-10.476,21.025-10.921,21.654
			C16.959,47.843,16.655,48,16.331,48z M16.33,16.186c-5.366,0-9.732,4.368-9.732,9.738c0,4.223,6.409,14.465,9.733,19.324
			c3.326-4.86,9.737-15.104,9.737-19.324C26.068,20.554,21.7,16.186,16.33,16.186z"/>
		<path d="M16.331,30.566c-2.923,0-5.301-2.379-5.301-5.303c0-2.926,2.378-5.307,5.301-5.307c2.925,0,5.305,2.38,5.305,5.307
			C21.636,28.188,19.256,30.566,16.331,30.566z M16.331,21.957c-1.82,0-3.301,1.483-3.301,3.307c0,1.821,1.481,3.303,3.301,3.303
			c1.822,0,3.305-1.481,3.305-3.303C19.636,23.44,18.153,21.957,16.331,21.957z"/>
	</g>
	<g>
		<path d="M31.669,48c-0.186,0-0.371-0.052-0.533-0.154c-0.291-0.183-0.467-0.502-0.467-0.846V8.315
			c0-0.385,0.222-0.736,0.569-0.902l15.331-7.315c0.31-0.148,0.674-0.127,0.964,0.057C47.824,0.337,48,0.657,48,1v38.682
			c0,0.386-0.222,0.736-0.569,0.902L32.1,47.902C31.963,47.968,31.815,48,31.669,48z M32.669,8.946v36.469L46,39.051V2.585
			L32.669,8.946z"/>
		<path d="M1,48c-0.186,0-0.371-0.052-0.534-0.154C0.176,47.663,0,47.344,0,47V8.315C0,7.93,0.222,7.578,0.569,7.413l15.333-7.315
			c0.31-0.148,0.673-0.127,0.964,0.057C17.157,0.337,17.333,0.657,17.333,1l-0.002,14.186c0,0.552-0.448,1-1,1l0,0
			c-0.552,0-1-0.448-1-1l0.002-12.601L2,8.946v36.468l8.927-4.262c0.496-0.239,1.095-0.027,1.333,0.472
			c0.238,0.498,0.027,1.095-0.472,1.333L1.431,47.902C1.294,47.968,1.147,48,1,48z"/>
		<path d="M31.669,48c-0.146,0-0.294-0.032-0.431-0.098l-10.231-4.884c-0.499-0.238-0.709-0.835-0.472-1.333
			s0.836-0.709,1.333-0.472l8.8,4.201V8.946L17.333,2.585v11.604c0,0.552-0.448,1-1,1s-1-0.448-1-1V1
			c0-0.343,0.176-0.663,0.466-0.846c0.292-0.184,0.654-0.205,0.964-0.057L32.1,7.413c0.348,0.166,0.569,0.517,0.569,0.902V47
			c0,0.344-0.176,0.663-0.467,0.846C32.04,47.948,31.854,48,31.669,48z"/>
	</g>
</g>
</svg>
