<?xml version="1.0" encoding="utf-8"?>
<!-- Generator: Adobe Illustrator 16.0.0, SVG Export Plug-In . SVG Version: 6.00 Build 0)  -->
<!DOCTYPE svg PUBLIC "-//W3C//DTD SVG 1.1//EN" "http://www.w3.org/Graphics/SVG/1.1/DTD/svg11.dtd">
<svg version="1.1" id="Layer_1" xmlns="http://www.w3.org/2000/svg" xmlns:xlink="http://www.w3.org/1999/xlink" x="0px" y="0px"
	 width="48px" height="48px" viewBox="0 0 48 48" enable-background="new 0 0 48 48" xml:space="preserve">
<g>
	<g>
		<g>
			<path d="M44.998,48H3.001c-1.654,0-3-1.346-3-3V3c0-1.654,1.346-3,3-3h41.997c1.654,0,3,1.346,3,3v42
				C47.998,46.654,46.652,48,44.998,48z M3.001,2c-0.551,0-1,0.449-1,1v42c0,0.552,0.449,1,1,1h41.997c0.552,0,1-0.448,1-1V3
				c0-0.551-0.448-1-1-1H3.001z"/>
		</g>
		<rect x="1.935" y="15.38" width="44.129" height="2"/>
		<rect x="7.056" y="7.992" width="3.947" height="2"/>
		<rect x="15.232" y="7.992" width="3.947" height="2"/>
	</g>
	<g>
		<path d="M16.266,39.309c-0.256,0-0.512-0.098-0.707-0.293l-6.085-6.084c-0.391-0.391-0.391-1.023,0-1.414l6.085-6.089
			c0.391-0.391,1.024-0.391,1.415,0c0.391,0.39,0.391,1.023,0,1.414l-5.378,5.382l5.378,5.377c0.391,0.391,0.391,1.023,0,1.414
			C16.778,39.211,16.522,39.309,16.266,39.309z"/>
		<path d="M31.736,39.307c-0.256,0-0.512-0.098-0.707-0.293c-0.391-0.391-0.391-1.023,0-1.414l5.375-5.377l-5.375-5.38
			c-0.391-0.391-0.391-1.024,0-1.414c0.391-0.391,1.023-0.391,1.414,0l6.082,6.087c0.391,0.391,0.391,1.023,0,1.414l-6.082,6.084
			C32.248,39.209,31.992,39.307,31.736,39.307z"/>
	</g>
	<path d="M21.193,39.932c-0.128,0-0.259-0.024-0.385-0.077c-0.51-0.214-0.75-0.799-0.537-1.309l5.614-13.423
		c0.215-0.511,0.8-0.75,1.309-0.537c0.51,0.214,0.75,0.799,0.537,1.309l-5.615,13.423C21.956,39.701,21.584,39.932,21.193,39.932z"
		/>
</g>
</svg>
