<?xml version="1.0" encoding="utf-8"?>
<!-- Generator: Adobe Illustrator 16.0.0, SVG Export Plug-In . SVG Version: 6.00 Build 0)  -->
<!DOCTYPE svg PUBLIC "-//W3C//DTD SVG 1.1//EN" "http://www.w3.org/Graphics/SVG/1.1/DTD/svg11.dtd">
<svg version="1.1" id="Layer_1" xmlns="http://www.w3.org/2000/svg" xmlns:xlink="http://www.w3.org/1999/xlink" x="0px" y="0px"
	 width="48px" height="48px" viewBox="0 0 48 48" enable-background="new 0 0 48 48" xml:space="preserve">
<g>
	<g>
		<path d="M45,47.998H3c-1.654,0-3-1.346-3-3V3.001c0-1.654,1.346-3,3-3h42c1.654,0,3,1.346,3,3v41.997
			C48,46.652,46.654,47.998,45,47.998z M3,2.001c-0.551,0-1,0.449-1,1v41.997c0,0.552,0.449,1,1,1h42c0.552,0,1-0.448,1-1V3.001
			c0-0.551-0.448-1-1-1H3z"/>
	</g>
	<path d="M11.32,17.274c-0.279,0-0.557-0.116-0.755-0.344c-0.363-0.417-0.318-1.048,0.098-1.411l4.7-4.086l-4.73-4.465
		c-0.401-0.379-0.42-1.012-0.041-1.414c0.379-0.403,1.012-0.42,1.414-0.041l5.533,5.223c0.205,0.194,0.319,0.465,0.313,0.748
		c-0.006,0.282-0.131,0.549-0.344,0.734l-5.533,4.812C11.787,17.193,11.553,17.274,11.32,17.274z"/>
	<path d="M32.505,15.022H22.373c-0.552,0-1-0.448-1-1s0.448-1,1-1h10.132c0.553,0,1,0.448,1,1S33.058,15.022,32.505,15.022z"/>
</g>
</svg>
