<?xml version="1.0" encoding="utf-8"?>
<!-- Generator: Adobe Illustrator 16.0.0, SVG Export Plug-In . SVG Version: 6.00 Build 0)  -->
<!DOCTYPE svg PUBLIC "-//W3C//DTD SVG 1.1//EN" "http://www.w3.org/Graphics/SVG/1.1/DTD/svg11.dtd">
<svg version="1.1" id="Layer_1" xmlns="http://www.w3.org/2000/svg" xmlns:xlink="http://www.w3.org/1999/xlink" x="0px" y="0px"
	 width="48px" height="48px" viewBox="0 0 48 48" enable-background="new 0 0 48 48" xml:space="preserve">
<g>
	<g>
		<path d="M47,39.034c-0.553,0-1-0.447-1-1V24.969c0-12.584-9.868-22.822-21.998-22.822C11.87,2.147,2,12.385,2,24.969v13.065
			c0,0.553-0.448,1-1,1s-1-0.447-1-1V24.969C0,11.282,10.767,0.147,24.002,0.147C37.234,0.147,48,11.282,48,24.969v13.065
			C48,38.587,47.553,39.034,47,39.034z"/>
		<g>
			<path d="M10.162,41.195H2c-1.103,0-2-0.897-2-2V27.823c0-1.103,0.897-2,2-2h8.162c1.103,0,2,0.897,2,2v11.372
				C12.162,40.298,11.265,41.195,10.162,41.195z M10.162,39.195v1V39.195L10.162,39.195L10.162,39.195z M2,27.823v11.372h8.159
				l0.003-11.372H2z"/>
		</g>
		<g>
			<path d="M46,41.195h-8.158c-1.103,0-2-0.897-2-2V27.823c0-1.103,0.897-2,2-2H46c1.103,0,2,0.897,2,2v11.372
				C48,40.298,47.103,41.195,46,41.195z M46,39.195v1V39.195L46,39.195L46,39.195z M37.842,27.823v11.372h8.155L46,27.823H37.842z"
				/>
		</g>
	</g>
	<path d="M23.44,47.854c-0.552,0-1-0.447-1-1s0.448-1,1-1c11.773,0,15.741-5.75,15.78-5.809c0.306-0.46,0.926-0.583,1.387-0.277
		c0.459,0.306,0.584,0.927,0.277,1.387C40.702,41.428,36.272,47.854,23.44,47.854z"/>
</g>
</svg>
