<?xml version="1.0" encoding="utf-8"?>
<!-- Generator: Adobe Illustrator 16.0.0, SVG Export Plug-In . SVG Version: 6.00 Build 0)  -->
<!DOCTYPE svg PUBLIC "-//W3C//DTD SVG 1.1//EN" "http://www.w3.org/Graphics/SVG/1.1/DTD/svg11.dtd">
<svg version="1.1" id="Layer_1" xmlns="http://www.w3.org/2000/svg" xmlns:xlink="http://www.w3.org/1999/xlink" x="0px" y="0px"
	 width="48px" height="48px" viewBox="0 0 48 48" enable-background="new 0 0 48 48" xml:space="preserve">
<g>
	<path d="M47,42.357c-0.553,0-1-0.447-1-1V28.297c0-12.584-9.869-22.822-22-22.822S2,15.713,2,28.297v13.061c0,0.553-0.448,1-1,1
		s-1-0.447-1-1V28.297C0,14.61,10.767,3.475,24,3.475S48,14.61,48,28.297v13.061C48,41.91,47.553,42.357,47,42.357z"/>
	<g>
		<path d="M10.161,44.525H2c-1.103,0-2-0.897-2-2V31.152c0-1.103,0.897-2,2-2h8.161c1.103,0,2,0.897,2,2v11.373
			C12.161,43.628,11.264,44.525,10.161,44.525z M10.161,42.525v1V42.525L10.161,42.525L10.161,42.525z M2,31.152v11.373h8.158
			l0.003-11.373H2z"/>
	</g>
	<g>
		<path d="M46,44.525h-8.163c-1.103,0-2-0.897-2-2V31.152c0-1.103,0.897-2,2-2H46c1.103,0,2,0.897,2,2v11.373
			C48,43.628,47.103,44.525,46,44.525z M46,42.525v1V42.525L46,42.525L46,42.525z M37.837,31.152v11.373h8.16L46,31.152H37.837z"/>
	</g>
</g>
</svg>
