<?xml version="1.0" encoding="utf-8"?>
<!-- Generator: Adobe Illustrator 16.0.0, SVG Export Plug-In . SVG Version: 6.00 Build 0)  -->
<!DOCTYPE svg PUBLIC "-//W3C//DTD SVG 1.1//EN" "http://www.w3.org/Graphics/SVG/1.1/DTD/svg11.dtd">
<svg version="1.1" id="Layer_1" xmlns="http://www.w3.org/2000/svg" xmlns:xlink="http://www.w3.org/1999/xlink" x="0px" y="0px"
	 width="48px" height="48px" viewBox="0 0 48 48" enable-background="new 0 0 48 48" xml:space="preserve">
<g>
	<path d="M35.061,47.997c-0.001,0-0.002,0-0.002,0c-8.015-0.001-16.96-4.162-23.93-11.133c-5.676-5.674-9.48-12.56-10.711-19.39
		C-0.837,10.512,0.719,4.43,4.801,0.348c0.128-0.129,0.421-0.347,0.928-0.347c0.559,0,2.261,0,8.847,6.588
		c4.267,4.26,3.409,8.218,1.792,9.839c-1.001,0.996-2.339,1.405-3.66,1.184c-0.342,4.314,1.546,9.04,5.093,12.588
		c3.534,3.527,8.212,5.418,12.58,5.089c-0.222-1.309,0.177-2.654,1.137-3.618c0.016-0.016,0.079-0.072,0.097-0.088
		c0.986-0.992,2.192-1.519,3.533-1.519c1.929,0,4.036,1.129,6.263,3.355c7.1,7.101,7.066,8.954,6.245,9.775
		C44.512,46.337,40.157,47.997,35.061,47.997z M5.929,2.058c-3.39,3.604-4.647,8.934-3.542,15.062
		c1.159,6.433,4.766,12.942,10.157,18.331c6.603,6.604,15.021,10.546,22.516,10.547c0,0,0.001,0,0.002,0
		c4.394,0,8.146-1.356,10.883-3.928c-0.213-0.586-1.218-2.504-5.948-7.234c-1.813-1.812-3.489-2.77-4.849-2.77
		c-0.802,0-1.511,0.319-2.167,0.978c-0.016,0.017-0.079,0.072-0.097,0.088c-0.615,0.62-0.752,1.656-0.29,2.531
		c0.148,0.283,0.154,0.62,0.013,0.907c-0.141,0.287-0.409,0.489-0.725,0.545c-0.812,0.143-1.654,0.215-2.506,0.215
		c-4.616,0-9.351-2.082-12.989-5.713c-4.319-4.322-6.427-10.262-5.502-15.502c0.056-0.314,0.258-0.583,0.544-0.724
		c0.287-0.141,0.624-0.136,0.906,0.013c0.846,0.445,1.917,0.309,2.573-0.341c1.054-1.058,1.461-3.855-1.746-7.057
		C8.43,3.271,6.513,2.269,5.929,2.058z"/>
	<g>
		<path d="M30.793,18.019c-0.256,0-0.512-0.098-0.707-0.293c-0.391-0.39-0.391-1.023,0-1.414l9.471-9.472
			c0.391-0.391,1.023-0.391,1.414,0c0.391,0.39,0.391,1.023,0,1.414L31.5,17.726C31.305,17.921,31.049,18.019,30.793,18.019z"/>
		<path d="M28.752,20.27c-0.259,0-0.511-0.101-0.699-0.285c-0.229-0.224-0.337-0.545-0.29-0.862L29.43,7.902
			c0.082-0.546,0.589-0.921,1.136-0.842c0.547,0.081,0.924,0.59,0.843,1.136l-1.464,9.856l9.651-1.648
			c0.547-0.092,1.062,0.273,1.153,0.817c0.094,0.544-0.272,1.061-0.817,1.154L28.92,20.256C28.864,20.265,28.808,20.27,28.752,20.27
			z"/>
	</g>
</g>
</svg>
