<?xml version="1.0" encoding="utf-8"?>
<!-- Generator: Adobe Illustrator 16.0.0, SVG Export Plug-In . SVG Version: 6.00 Build 0)  -->
<!DOCTYPE svg PUBLIC "-//W3C//DTD SVG 1.1//EN" "http://www.w3.org/Graphics/SVG/1.1/DTD/svg11.dtd">
<svg version="1.1" id="Layer_1" xmlns="http://www.w3.org/2000/svg" xmlns:xlink="http://www.w3.org/1999/xlink" x="0px" y="0px"
	 width="48px" height="48px" viewBox="0 0 48 48" enable-background="new 0 0 48 48" xml:space="preserve">
<g>
	<g>
		<path d="M20.552,26.182c-4.973,0-9.019-4.046-9.019-9.019c0-4.973,4.046-9.019,9.019-9.019s9.019,4.046,9.019,9.019
			C29.57,22.136,25.524,26.182,20.552,26.182z M20.552,10.144c-3.87,0-7.019,3.149-7.019,7.019s3.148,7.019,7.019,7.019
			s7.019-3.148,7.019-7.019S24.422,10.144,20.552,10.144z"/>
		<path d="M35.469,31.766c-0.239,0-0.479-0.085-0.67-0.257l-8.736-7.876c-0.41-0.37-0.442-1.002-0.073-1.412
			c0.371-0.412,1.003-0.443,1.413-0.073l8.736,7.875c0.41,0.37,0.442,1.003,0.073,1.413C36.014,31.654,35.742,31.766,35.469,31.766z
			"/>
	</g>
	<g>
		<g>
			<path d="M45,36.949H3c-1.654,0-3-1.346-3-3V5.961c0-1.654,1.346-3,3-3h42c1.654,0,3,1.346,3,3v27.988
				C48,35.604,46.654,36.949,45,36.949z M3,4.961c-0.551,0-1,0.449-1,1v27.988c0,0.552,0.449,1,1,1h42c0.552,0,1-0.448,1-1V5.961
				c0-0.551-0.448-1-1-1H3z"/>
		</g>
		<path d="M24.001,43.757c-0.552,0-1-0.447-1-1v-6.091c0-0.553,0.448-1,1-1c0.553,0,1,0.447,1,1v6.091
			C25.001,43.31,24.554,43.757,24.001,43.757z"/>
		<path d="M37.2,45.039H10.801c-0.552,0-1-0.447-1-1s0.448-1,1-1H37.2c0.553,0,1,0.447,1,1S37.753,45.039,37.2,45.039z"/>
	</g>
</g>
</svg>
