<?xml version="1.0" encoding="utf-8"?>
<!-- Generator: Adobe Illustrator 16.0.0, SVG Export Plug-In . SVG Version: 6.00 Build 0)  -->
<!DOCTYPE svg PUBLIC "-//W3C//DTD SVG 1.1//EN" "http://www.w3.org/Graphics/SVG/1.1/DTD/svg11.dtd">
<svg version="1.1" id="Layer_1" xmlns="http://www.w3.org/2000/svg" xmlns:xlink="http://www.w3.org/1999/xlink" x="0px" y="0px"
	 width="48px" height="48px" viewBox="0 0 48 48" enable-background="new 0 0 48 48" xml:space="preserve">
<g>
	<path d="M18.122,36.111c-9.957,0-18.057-8.103-18.057-18.062c0-4.822,1.878-9.355,5.289-12.764C8.764,1.877,13.299,0,18.122,0
		c9.958,0,18.06,8.097,18.06,18.05C36.182,28.009,28.08,36.111,18.122,36.111z M18.122,2C13.833,2,9.8,3.669,6.768,6.7
		c-3.033,3.031-4.703,7.062-4.703,11.35c0,8.856,7.203,16.062,16.057,16.062c8.855,0,16.06-7.205,16.06-16.062
		C34.182,9.2,26.978,2,18.122,2z"/>
	<path d="M46.936,48c-0.249,0-0.499-0.093-0.692-0.279L29.835,31.957c-0.398-0.382-0.411-1.016-0.028-1.413
		c0.382-0.398,1.016-0.412,1.413-0.028l16.408,15.764c0.398,0.382,0.411,1.016,0.028,1.413C47.46,47.897,47.198,48,46.936,48z"/>
	<path d="M24.585,19.05H11.663c-0.552,0-1-0.448-1-1s0.448-1,1-1h12.922c0.553,0,1,0.448,1,1S25.138,19.05,24.585,19.05z"/>
</g>
</svg>
