<?xml version="1.0" encoding="utf-8"?>
<!-- Generator: Adobe Illustrator 16.0.0, SVG Export Plug-In . SVG Version: 6.00 Build 0)  -->
<!DOCTYPE svg PUBLIC "-//W3C//DTD SVG 1.1//EN" "http://www.w3.org/Graphics/SVG/1.1/DTD/svg11.dtd">
<svg version="1.1" id="Layer_1" xmlns="http://www.w3.org/2000/svg" xmlns:xlink="http://www.w3.org/1999/xlink" x="0px" y="0px"
	 width="48px" height="48px" viewBox="0 0 48 48" enable-background="new 0 0 48 48" xml:space="preserve">
<g>
	<g>
		<path d="M45,48H3c-1.654,0-3-1.346-3-3V10.44c0-1.654,1.346-3,3-3h42c1.654,0,3,1.346,3,3V45C48,46.654,46.654,48,45,48z M3,9.44
			c-0.551,0-1,0.449-1,1V45c0,0.552,0.449,1,1,1h42c0.552,0,1-0.448,1-1V10.44c0-0.551-0.448-1-1-1H3z"/>
	</g>
	<path d="M33.02,8.331c-0.553,0-1-0.448-1-1V2H15.978v5.331c0,0.552-0.448,1-1,1s-1-0.448-1-1V1c0-0.552,0.448-1,1-1H33.02
		c0.553,0,1,0.448,1,1v6.331C34.02,7.883,33.572,8.331,33.02,8.331z"/>
	<g>
		<path d="M38.059,19.285H9.943c-0.552,0-1-0.448-1-1s0.448-1,1-1h28.116c0.553,0,1,0.448,1,1S38.611,19.285,38.059,19.285z"/>
		<path d="M38.059,28.719H9.943c-0.552,0-1-0.447-1-1s0.448-1,1-1h28.116c0.553,0,1,0.447,1,1S38.611,28.719,38.059,28.719z"/>
		<path d="M38.059,38.148H9.943c-0.552,0-1-0.447-1-1s0.448-1,1-1h28.116c0.553,0,1,0.447,1,1S38.611,38.148,38.059,38.148z"/>
	</g>
</g>
</svg>
