<?xml version="1.0" encoding="utf-8"?>
<!-- Generator: Adobe Illustrator 16.0.0, SVG Export Plug-In . SVG Version: 6.00 Build 0)  -->
<!DOCTYPE svg PUBLIC "-//W3C//DTD SVG 1.1//EN" "http://www.w3.org/Graphics/SVG/1.1/DTD/svg11.dtd">
<svg version="1.1" id="Layer_1" xmlns="http://www.w3.org/2000/svg" xmlns:xlink="http://www.w3.org/1999/xlink" x="0px" y="0px"
	 width="48px" height="48px" viewBox="0 0 48 48" enable-background="new 0 0 48 48" xml:space="preserve">
<g>
	<path d="M40.951,47.998H7.053C3.164,47.998,0,45.221,0,41.807l1.54-18.632c-0.003-3.332,3.158-6.109,7.044-6.109H39.42
		c3.886,0,7.048,2.778,7.048,6.192l1.529,18.468C48,45.221,44.838,47.998,40.951,47.998z M8.584,19.065
		c-2.783,0-5.048,1.88-5.048,4.192L1.997,41.89C2,44.118,4.267,45.998,7.053,45.998h33.898c2.784,0,5.049-1.88,5.049-4.191
		l-1.529-18.467c-0.003-2.394-2.268-4.274-5.051-4.274H8.584z"/>
	<path d="M36.514,28.021c-0.553,0-1-0.447-1-1c0-13.563-5.273-25.021-11.516-25.021c-6.238,0-11.508,11.458-11.508,25.021
		c0,0.553-0.448,1-1,1s-1-0.447-1-1c0-15.152,5.933-27.021,13.508-27.021c7.579,0,13.516,11.869,13.516,27.021
		C37.514,27.574,37.066,28.021,36.514,28.021z"/>
</g>
</svg>
