<?xml version="1.0" encoding="utf-8"?>
<!-- Generator: Adobe Illustrator 16.0.0, SVG Export Plug-In . SVG Version: 6.00 Build 0)  -->
<!DOCTYPE svg PUBLIC "-//W3C//DTD SVG 1.1//EN" "http://www.w3.org/Graphics/SVG/1.1/DTD/svg11.dtd">
<svg version="1.1" id="Layer_1" xmlns="http://www.w3.org/2000/svg" xmlns:xlink="http://www.w3.org/1999/xlink" x="0px" y="0px"
	 width="48px" height="48px" viewBox="0 0 48 48" enable-background="new 0 0 48 48" xml:space="preserve">
<g>
	<g>
		<path d="M38.172,48H9.828c-0.814,0-1.561-0.322-2.102-0.906s-0.805-1.353-0.743-2.164l2.531-33.235
			c0.122-1.609,1.535-2.918,3.149-2.918h23.438c1.625,0,3.021,1.32,3.109,2.942l1.848,33.229c0.046,0.809-0.231,1.573-0.78,2.153
			S38.981,48,38.172,48z M12.663,10.777c-0.583,0-1.111,0.49-1.155,1.069L8.977,45.082c-0.019,0.25,0.058,0.481,0.216,0.652
			C9.352,45.905,9.577,46,9.828,46h28.344c0.254,0,0.486-0.098,0.653-0.274c0.167-0.176,0.251-0.413,0.237-0.667L37.215,11.83
			c-0.032-0.571-0.541-1.053-1.113-1.053H12.663z"/>
	</g>
	<path d="M31.684,13.562c-0.553,0-1-0.448-1-1C30.684,6.738,27.685,2,23.999,2s-6.684,4.738-6.684,10.562c0,0.552-0.448,1-1,1
		s-1-0.448-1-1C15.315,5.635,19.21,0,23.999,0c4.789,0,8.685,5.635,8.685,12.562C32.684,13.114,32.236,13.562,31.684,13.562z"/>
</g>
</svg>
