<?xml version="1.0" encoding="utf-8"?>
<!-- Generator: Adobe Illustrator 16.0.0, SVG Export Plug-In . SVG Version: 6.00 Build 0)  -->
<!DOCTYPE svg PUBLIC "-//W3C//DTD SVG 1.1//EN" "http://www.w3.org/Graphics/SVG/1.1/DTD/svg11.dtd">
<svg version="1.1" id="Layer_1" xmlns="http://www.w3.org/2000/svg" xmlns:xlink="http://www.w3.org/1999/xlink" x="0px" y="0px"
	 width="48px" height="48px" viewBox="0 0 48 48" enable-background="new 0 0 48 48" xml:space="preserve">
<g>
	<g>
		<path d="M44.895,43.992H3.106c-1.654,0-3-1.346-3-3V3c0-1.654,1.346-3,3-3h41.789c1.654,0,3,1.346,3,3v37.992
			C47.895,42.646,46.549,43.992,44.895,43.992z M3.106,2c-0.551,0-1,0.449-1,1v37.992c0,0.552,0.449,1,1,1h41.789
			c0.552,0,1-0.448,1-1V3c0-0.551-0.448-1-1-1H3.106z"/>
	</g>
	<path d="M28.751,32.107c-5.573,0-10.107-4.534-10.107-10.108c0-5.575,4.534-10.111,10.107-10.111
		c5.574,0,10.108,4.536,10.108,10.111C38.859,27.573,34.325,32.107,28.751,32.107z M28.751,13.888c-4.47,0-8.107,3.639-8.107,8.111
		c0,4.471,3.637,8.108,8.107,8.108c4.471,0,8.108-3.638,8.108-8.108C36.859,17.527,33.222,13.888,28.751,13.888z"/>
	<path d="M31.576,21.999c0,1.559-1.264,2.83-2.825,2.83c-1.563,0-2.824-1.271-2.824-2.83c0-1.564,1.263-2.826,2.824-2.826
		S31.576,20.435,31.576,21.999z"/>
	<g>
		<path d="M8.595,17.541c-0.552,0-1-0.448-1-1V8.528c0-0.552,0.448-1,1-1s1,0.448,1,1v8.013C9.595,17.093,9.147,17.541,8.595,17.541
			z"/>
		<path d="M8.595,36.465c-0.552,0-1-0.447-1-1v-8.008c0-0.553,0.448-1,1-1s1,0.447,1,1v8.008
			C9.595,36.018,9.147,36.465,8.595,36.465z"/>
	</g>
	<g>
		<path d="M8.926,48c-0.552,0-1-0.447-1-1v-4.008c0-0.553,0.448-1,1-1s1,0.447,1,1V47C9.926,47.553,9.478,48,8.926,48z"/>
		<path d="M39.077,48c-0.553,0-1-0.447-1-1v-4.008c0-0.553,0.447-1,1-1s1,0.447,1,1V47C40.077,47.553,39.63,48,39.077,48z"/>
	</g>
</g>
</svg>
