<?xml version="1.0" encoding="utf-8"?>
<!-- Generator: Adobe Illustrator 16.0.0, SVG Export Plug-In . SVG Version: 6.00 Build 0)  -->
<!DOCTYPE svg PUBLIC "-//W3C//DTD SVG 1.1//EN" "http://www.w3.org/Graphics/SVG/1.1/DTD/svg11.dtd">
<svg version="1.1" id="Layer_1" xmlns="http://www.w3.org/2000/svg" xmlns:xlink="http://www.w3.org/1999/xlink" x="0px" y="0px"
	 width="48px" height="48px" viewBox="0 0 48 48" enable-background="new 0 0 48 48" xml:space="preserve">
<g>
	<path d="M33.877,48H14.123c-0.292,0-0.57-0.128-0.76-0.351c-0.19-0.222-0.273-0.517-0.228-0.806
		c0.922-5.84,5.492-10.078,10.866-10.078c5.376,0,9.945,4.239,10.864,10.079c0.045,0.289-0.038,0.583-0.229,0.805
		C34.447,47.872,34.169,48,33.877,48z M15.355,46h17.291c-1.132-4.255-4.615-7.234-8.645-7.234
		C19.973,38.766,16.489,41.745,15.355,46z"/>
	<path d="M24.001,24.407c-10.007,0-18.149-9.013-18.149-20.09c0-1.121,0.096-2.258,0.293-3.477C6.224,0.356,6.642,0,7.133,0h33.739
		c0.491,0,0.91,0.357,0.987,0.843c0.194,1.219,0.289,2.355,0.289,3.474C42.148,15.395,34.008,24.407,24.001,24.407z M8,2
		C7.9,2.8,7.852,3.564,7.852,4.317c0,9.975,7.244,18.09,16.149,18.09c8.903,0,16.147-8.115,16.147-18.09
		c0-0.752-0.048-1.517-0.146-2.317H8z"/>
	<path d="M24.001,38.766c-0.552,0-1-0.447-1-1V23.407c0-0.552,0.448-1,1-1c0.553,0,1,0.448,1,1v14.358
		C25.001,38.318,24.554,38.766,24.001,38.766z"/>
	<g>
		<path d="M24.001,34.407c-0.011,0-0.023,0-0.035-0.001c-0.528-0.018-0.946-0.441-0.965-0.961c-0.339-0.644-3.07-1.955-5.27-3.012
			c-5.984-2.873-15.026-7.215-17.026-14.544c-1.125-4.135-0.907-6.755,0.668-8.01c2.011-1.603,5.122-0.017,5.47,0.169
			c0.487,0.26,0.671,0.866,0.411,1.353c-0.26,0.486-0.865,0.67-1.352,0.411c-0.586-0.31-2.446-1.042-3.284-0.368
			c-0.394,0.315-1.18,1.523,0.017,5.919c1.76,6.448,10.307,10.552,15.962,13.268c4.167,2,6.461,3.103,6.403,4.811
			C24.981,33.981,24.538,34.407,24.001,34.407z"/>
		<path d="M24,34.407c-0.537,0-0.981-0.426-0.999-0.967c-0.057-1.707,2.238-2.809,6.403-4.81c5.654-2.715,14.2-6.819,15.96-13.268
			c1.198-4.396,0.412-5.604,0.019-5.918c-0.839-0.672-2.7,0.06-3.285,0.369c-0.488,0.256-1.093,0.072-1.352-0.415
			s-0.076-1.091,0.411-1.351c0.348-0.186,3.459-1.772,5.471-0.169c1.574,1.256,1.793,3.876,0.666,8.01
			c-2.001,7.331-11.042,11.673-17.024,14.546c-2.2,1.057-4.93,2.367-5.27,3.011c-0.02,0.521-0.438,0.943-0.966,0.961
			C24.023,34.407,24.012,34.407,24,34.407z"/>
	</g>
</g>
</svg>
