<?xml version="1.0" encoding="utf-8"?>
<!-- Generator: Adobe Illustrator 16.0.0, SVG Export Plug-In . SVG Version: 6.00 Build 0)  -->
<!DOCTYPE svg PUBLIC "-//W3C//DTD SVG 1.1//EN" "http://www.w3.org/Graphics/SVG/1.1/DTD/svg11.dtd">
<svg version="1.1" id="Layer_1" xmlns="http://www.w3.org/2000/svg" xmlns:xlink="http://www.w3.org/1999/xlink" x="0px" y="0px"
	 width="48px" height="48px" viewBox="0 0 48 48" enable-background="new 0 0 48 48" xml:space="preserve">
<g>
	<g>
		<path d="M24,48c-9.447,0-17.133-7.688-17.133-17.137c0-9.446,7.686-17.131,17.133-17.131s17.133,7.685,17.133,17.131
			C41.133,40.313,33.447,48,24,48z M24,15.732c-8.344,0-15.133,6.788-15.133,15.131C8.867,39.21,15.656,46,24,46
			c8.345,0,15.133-6.79,15.133-15.137C39.133,22.52,32.345,15.732,24,15.732z"/>
		<path d="M33.609,18.859c-0.553,0-1-0.448-1-1V9.531C32.609,5.378,29.042,2,24.657,2h-1.315c-4.383,0-7.949,3.378-7.949,7.531
			v8.109c0,0.552-0.448,1-1,1s-1-0.448-1-1V9.531C13.393,4.276,17.856,0,23.342,0h1.315c5.487,0,9.952,4.276,9.952,9.531v8.328
			C34.609,18.411,34.162,18.859,33.609,18.859z"/>
	</g>
	<path d="M26.971,27.971c0-1.639-1.332-2.97-2.97-2.97c-1.641,0-2.97,1.331-2.97,2.97c0,1.33,0.883,2.408,2.082,2.79v5.968h1.774
		v-5.968C26.087,30.379,26.971,29.301,26.971,27.971z"/>
</g>
</svg>
