<?xml version="1.0" encoding="utf-8"?>
<!-- Generator: Adobe Illustrator 16.0.0, SVG Export Plug-In . SVG Version: 6.00 Build 0)  -->
<!DOCTYPE svg PUBLIC "-//W3C//DTD SVG 1.1//EN" "http://www.w3.org/Graphics/SVG/1.1/DTD/svg11.dtd">
<svg version="1.1" id="Layer_1" xmlns="http://www.w3.org/2000/svg" xmlns:xlink="http://www.w3.org/1999/xlink" x="0px" y="0px"
	 width="48px" height="48px" viewBox="0 0 48 48" enable-background="new 0 0 48 48" xml:space="preserve">
<g>
	<path d="M1.001,48c-0.183,0-0.365-0.05-0.525-0.149C0.181,47.669,0.001,47.347,0.001,47V3.792c0-0.378,0.214-0.725,0.552-0.894
		c7.679-3.845,16.215-3.845,23.897,0c0.338,0.169,0.552,0.516,0.552,0.894V47c0,0.347-0.18,0.669-0.475,0.851
		c-0.295,0.184-0.664,0.198-0.973,0.044c-7.122-3.568-14.988-3.567-22.106-0.001C1.308,47.965,1.154,48,1.001,48z M12.5,43.206
		c3.578,0,7.104,0.747,10.502,2.224V4.417c-6.785-3.209-14.22-3.208-21.002,0v41.011C5.398,43.953,8.923,43.206,12.5,43.206z"/>
	<path d="M6.334,14.196c-0.367,0-0.719-0.202-0.895-0.551c-0.248-0.494-0.049-1.095,0.445-1.342c4.302-2.159,9.041-2.16,13.344,0
		c0.494,0.248,0.693,0.849,0.445,1.342c-0.247,0.494-0.848,0.694-1.342,0.445c-3.726-1.868-7.827-1.868-11.55,0
		C6.638,14.162,6.484,14.196,6.334,14.196z"/>
	<path d="M18.779,24.975c-0.15,0-0.303-0.034-0.447-0.106c-3.726-1.866-7.828-1.866-11.551,0c-0.496,0.247-1.096,0.048-1.342-0.446
		c-0.248-0.494-0.048-1.095,0.446-1.342c4.302-2.156,9.04-2.156,13.343,0c0.494,0.248,0.694,0.848,0.446,1.342
		C19.499,24.772,19.146,24.975,18.779,24.975z"/>
	<path d="M6.334,35.751c-0.367,0-0.72-0.202-0.895-0.552c-0.248-0.494-0.048-1.095,0.446-1.343c4.301-2.154,9.04-2.154,13.342,0
		c0.494,0.248,0.694,0.849,0.446,1.342c-0.247,0.494-0.848,0.692-1.342,0.447c-3.726-1.865-7.828-1.865-11.551,0
		C6.637,35.717,6.484,35.751,6.334,35.751z"/>
	<path d="M24.003,48c-0.183,0-0.365-0.05-0.525-0.149c-0.295-0.182-0.475-0.504-0.475-0.851V3.792c0-0.378,0.214-0.725,0.552-0.894
		c7.675-3.846,16.214-3.846,23.892,0c0.338,0.169,0.552,0.516,0.552,0.894V47c0,0.347-0.18,0.669-0.475,0.851
		c-0.295,0.184-0.663,0.199-0.974,0.043c-7.114-3.566-14.985-3.566-22.1,0C24.31,47.965,24.156,48,24.003,48z M35.5,43.206
		c3.578,0,7.103,0.747,10.499,2.223V4.417c-6.779-3.208-14.219-3.208-20.996,0v41.012C28.398,43.953,31.923,43.206,35.5,43.206z"/>
	<path d="M29.22,14.196c-0.366,0-0.719-0.202-0.895-0.551c-0.248-0.494-0.049-1.095,0.445-1.342c4.301-2.16,9.04-2.16,13.341,0
		c0.493,0.248,0.692,0.849,0.444,1.342s-0.847,0.693-1.343,0.445c-3.721-1.869-7.821-1.869-11.546,0
		C29.523,14.162,29.37,14.196,29.22,14.196z"/>
	<path d="M41.661,24.975c-0.15,0-0.304-0.034-0.447-0.106c-3.721-1.867-7.822-1.867-11.547,0c-0.494,0.249-1.096,0.048-1.342-0.446
		c-0.248-0.494-0.048-1.095,0.445-1.342c4.303-2.158,9.039-2.156,13.34,0c0.494,0.248,0.693,0.849,0.445,1.342
		C42.381,24.772,42.027,24.975,41.661,24.975z"/>
	<path d="M41.661,35.751c-0.15,0-0.304-0.034-0.447-0.106c-3.721-1.865-7.822-1.866-11.547,0.001
		c-0.497,0.244-1.095,0.047-1.343-0.446c-0.247-0.494-0.047-1.095,0.446-1.343c4.303-2.155,9.039-2.155,13.34,0.001
		c0.493,0.247,0.693,0.848,0.445,1.342C42.381,35.549,42.027,35.751,41.661,35.751z"/>
</g>
</svg>
