<?xml version="1.0" encoding="utf-8"?>
<!-- Generator: Adobe Illustrator 16.0.0, SVG Export Plug-In . SVG Version: 6.00 Build 0)  -->
<!DOCTYPE svg PUBLIC "-//W3C//DTD SVG 1.1//EN" "http://www.w3.org/Graphics/SVG/1.1/DTD/svg11.dtd">
<svg version="1.1" id="Layer_1" xmlns="http://www.w3.org/2000/svg" xmlns:xlink="http://www.w3.org/1999/xlink" x="0px" y="0px"
	 width="48px" height="48px" viewBox="0 0 48 48" enable-background="new 0 0 48 48" xml:space="preserve">
<g>
	<path d="M38.216,46.881c-0.159,0-0.319-0.038-0.466-0.115l-13.751-7.239L10.25,46.766c-0.336,0.177-0.745,0.148-1.053-0.075
		s-0.462-0.604-0.398-0.979l2.625-15.315L0.302,19.554c-0.272-0.266-0.371-0.663-0.253-1.025c0.118-0.362,0.431-0.625,0.807-0.681
		l15.371-2.239l6.875-13.933c0.337-0.682,1.458-0.684,1.793,0l6.878,13.933l15.371,2.239c0.376,0.055,0.689,0.319,0.807,0.681
		s0.02,0.759-0.253,1.025L36.579,30.396l2.622,15.315c0.064,0.375-0.09,0.755-0.397,0.979
		C38.629,46.816,38.423,46.881,38.216,46.881z M23.999,37.396c0.16,0,0.32,0.038,0.466,0.115l12.423,6.54L34.52,30.217
		c-0.056-0.324,0.052-0.655,0.287-0.885l10.046-9.796l-13.888-2.023c-0.325-0.048-0.606-0.252-0.752-0.547L23.999,4.378
		l-6.211,12.587c-0.146,0.295-0.427,0.5-0.753,0.547L3.148,19.536l10.048,9.796c0.235,0.229,0.343,0.561,0.288,0.885l-2.372,13.835
		l12.421-6.54C23.679,37.435,23.839,37.396,23.999,37.396z"/>
</g>
</svg>
