<?xml version="1.0" encoding="utf-8"?>
<!-- Generator: Adobe Illustrator 16.0.0, SVG Export Plug-In . SVG Version: 6.00 Build 0)  -->
<!DOCTYPE svg PUBLIC "-//W3C//DTD SVG 1.1//EN" "http://www.w3.org/Graphics/SVG/1.1/DTD/svg11.dtd">
<svg version="1.1" id="Layer_1" xmlns="http://www.w3.org/2000/svg" xmlns:xlink="http://www.w3.org/1999/xlink" x="0px" y="0px"
	 width="48px" height="48px" viewBox="0 0 48 48" enable-background="new 0 0 48 48" xml:space="preserve">
<g>
	<path d="M23.999,45.039c-0.256,0-0.512-0.098-0.707-0.293c-2.567-2.566-5.175-5.019-7.698-7.39C7.227,29.489,0,22.696,0,16.819
		C0,9.178,6.217,2.961,13.86,2.961c3.875,0,7.508,1.622,10.14,4.487c2.634-2.866,6.269-4.487,10.143-4.487
		C41.783,2.961,48,9.178,48,16.819c0,5.939-7.968,13.415-16.404,21.33c-2.315,2.173-4.711,4.42-6.89,6.598
		C24.511,44.941,24.255,45.039,23.999,45.039z M13.86,4.961C7.32,4.961,2,10.28,2,16.819c0,5.012,6.935,11.532,14.964,19.081
		c2.303,2.165,4.678,4.397,7.035,6.729c2.004-1.976,4.148-3.987,6.228-5.939C37.981,29.414,46,21.892,46,16.819
		c0-6.539-5.319-11.858-11.857-11.858c-3.655,0-7.064,1.695-9.353,4.649c-0.189,0.245-0.482,0.388-0.791,0.388c0,0,0,0,0,0
		c-0.309,0-0.601-0.144-0.791-0.388C20.923,6.655,17.516,4.961,13.86,4.961z"/>
</g>
</svg>
