<?xml version="1.0" encoding="utf-8"?>
<!-- Generator: Adobe Illustrator 16.0.0, SVG Export Plug-In . SVG Version: 6.00 Build 0)  -->
<!DOCTYPE svg PUBLIC "-//W3C//DTD SVG 1.1//EN" "http://www.w3.org/Graphics/SVG/1.1/DTD/svg11.dtd">
<svg version="1.1" id="Layer_1" xmlns="http://www.w3.org/2000/svg" xmlns:xlink="http://www.w3.org/1999/xlink" x="0px" y="0px"
	 width="48px" height="48px" viewBox="0 0 48 48" enable-background="new 0 0 48 48" xml:space="preserve">
<g>
	<g>
		<path d="M1.771,20.118c-0.256,0-0.512-0.098-0.707-0.293c-0.391-0.391-0.391-1.024,0-1.414l18.12-18.116
			c0.391-0.391,1.023-0.391,1.414,0s0.391,1.024,0,1.414L2.478,19.825C2.283,20.021,2.027,20.118,1.771,20.118z"/>
		<path d="M1,20.944c-0.265,0-0.519-0.105-0.707-0.292C0.102,20.46-0.004,20.199,0,19.928c0.043-2.785,0.104-7.315,0.087-7.855
			c-0.044-0.391,0.145-0.788,0.511-0.989c0.484-0.265,1.091-0.09,1.359,0.393c0.163,0.295,0.17,0.309,0.059,7.449l6.892-0.121
			c0.562,0.011,1.008,0.43,1.018,0.982c0.009,0.552-0.43,1.008-0.982,1.018l-7.926,0.139C1.012,20.944,1.006,20.944,1,20.944z"/>
	</g>
	<path d="M1,47.998c-0.552,0-1-0.447-1-1c0-0.552,0.448-1,1-1l9.528-0.002V31.667c0-0.553,0.448-1,1-1h12.347l-0.002-14.334
		c0-0.265,0.105-0.52,0.293-0.707s0.441-0.293,0.707-0.293h12.34V1.002c0-0.552,0.447-1,1-1H47c0.553,0,1,0.448,1,1s-0.447,1-1,1
		h-7.787v14.331c0,0.552-0.447,1-1,1h-12.34l0.002,14.334c0,0.265-0.105,0.52-0.293,0.707s-0.441,0.293-0.707,0.293H12.528v14.329
		c0,0.552-0.448,1-1,1L1,47.998z"/>
</g>
</svg>
