<?xml version="1.0" encoding="utf-8"?>
<!-- Generator: Adobe Illustrator 16.0.0, SVG Export Plug-In . SVG Version: 6.00 Build 0)  -->
<!DOCTYPE svg PUBLIC "-//W3C//DTD SVG 1.1//EN" "http://www.w3.org/Graphics/SVG/1.1/DTD/svg11.dtd">
<svg version="1.1" id="Layer_1" xmlns="http://www.w3.org/2000/svg" xmlns:xlink="http://www.w3.org/1999/xlink" x="0px" y="0px"
	 width="48px" height="48px" viewBox="0 0 48 48" enable-background="new 0 0 48 48" xml:space="preserve">
<g>
	<path d="M24.189,35.829c-8.184,0-16.222-3.806-23.889-11.312c-0.383-0.375-0.402-0.984-0.044-1.383
		c0.403-0.448,10.019-10.964,23.932-10.964c8.184,0,16.094,3.673,23.511,10.917c0.373,0.364,0.403,0.955,0.069,1.355
		C47.381,24.908,38.126,35.829,24.189,35.829z M2.421,23.782c7.058,6.668,14.377,10.047,21.769,10.047
		c11.026,0,19.16-7.619,21.415-9.979c-6.824-6.424-14.024-9.679-21.416-9.679C13.16,14.171,4.79,21.474,2.421,23.782z"/>
	<path d="M24.001,32.457c-4.663,0-8.456-3.792-8.456-8.452c0-4.665,3.793-8.46,8.456-8.46c4.661,0,8.453,3.795,8.453,8.46
		C32.454,28.665,28.662,32.457,24.001,32.457z M24.001,17.545c-3.56,0-6.456,2.898-6.456,6.46c0,3.558,2.896,6.452,6.456,6.452
		c3.559,0,6.453-2.895,6.453-6.452C30.454,20.443,27.56,17.545,24.001,17.545z"/>
</g>
</svg>
