<?xml version="1.0" encoding="utf-8"?>
<!-- Generator: Adobe Illustrator 16.0.0, SVG Export Plug-In . SVG Version: 6.00 Build 0)  -->
<!DOCTYPE svg PUBLIC "-//W3C//DTD SVG 1.1//EN" "http://www.w3.org/Graphics/SVG/1.1/DTD/svg11.dtd">
<svg version="1.1" id="Layer_1" xmlns="http://www.w3.org/2000/svg" xmlns:xlink="http://www.w3.org/1999/xlink" x="0px" y="0px"
	 width="48px" height="48px" viewBox="0 0 48 48" enable-background="new 0 0 48 48" xml:space="preserve">
<g>
	<path d="M46.699,21.007H27.686c-0.553,0-1-0.448-1-1V1c0-0.552,0.447-1,1-1C38.72,0,47.698,8.975,47.699,20.007
		c0,0.265-0.105,0.52-0.293,0.707S46.965,21.007,46.699,21.007z M28.686,19.007h16.986C45.168,9.872,37.823,2.529,28.686,2.027
		V19.007z"/>
	<path d="M20.312,48c-5.345,0-10.371-2.082-14.15-5.863c-3.779-3.779-5.86-8.805-5.86-14.148c0-11.033,8.977-20.008,20.01-20.008
		c0.552,0,1,0.448,1,1v18.008h18.01c0.553,0,1,0.447,1,1C40.322,39.022,31.346,48,20.312,48z M19.312,10.007
		c-9.467,0.521-17.01,8.387-17.01,17.981c0,4.81,1.873,9.333,5.274,12.735C10.978,44.126,15.501,46,20.312,46
		c9.595,0,17.461-7.544,17.983-17.012H20.312c-0.552,0-1-0.447-1-1V10.007z"/>
</g>
</svg>
