<?xml version="1.0" encoding="utf-8"?>
<!-- Generator: Adobe Illustrator 16.0.0, SVG Export Plug-In . SVG Version: 6.00 Build 0)  -->
<!DOCTYPE svg PUBLIC "-//W3C//DTD SVG 1.1//EN" "http://www.w3.org/Graphics/SVG/1.1/DTD/svg11.dtd">
<svg version="1.1" id="Layer_1" xmlns="http://www.w3.org/2000/svg" xmlns:xlink="http://www.w3.org/1999/xlink" x="0px" y="0px"
	 width="48px" height="48px" viewBox="0 0 48 48" enable-background="new 0 0 48 48" xml:space="preserve">
<g>
	<g>
		<path d="M23.191,25.002C23.191,25.002,23.191,25.002,23.191,25.002L1,24.996c-0.552,0-1-0.448-1-1c0-0.552,0.448-1,1-1
			c0,0,0,0,0,0l22.191,0.006c0.552,0,1,0.448,1,1C24.191,24.555,23.743,25.002,23.191,25.002z"/>
		<path d="M16.581,32.135c-0.101,0-0.204-0.016-0.306-0.048c-0.526-0.169-0.815-0.732-0.646-1.258
			c0.103-0.32,0.112-0.35,6.948-6.879l-6.685-6.358c-0.4-0.38-0.417-1.014-0.036-1.414c0.381-0.4,1.015-0.416,1.414-0.036
			l7.446,7.081c0.198,0.188,0.311,0.45,0.311,0.724c0.001,0.273-0.111,0.535-0.309,0.725c-2.639,2.52-6.915,6.62-7.353,7.085
			C17.176,31.994,16.886,32.135,16.581,32.135z"/>
	</g>
	<path d="M40.447,48H16.363c-4.164,0-7.551-3.199-7.551-7.132v-9.544c0-0.553,0.448-1,1-1s1,0.447,1,1v9.544
		c0,2.83,2.49,5.132,5.551,5.132h24.084C43.509,46,46,43.698,46,40.868V7.132C46,4.302,43.509,2,40.447,2H16.363
		c-3.061,0-5.551,2.302-5.551,5.132v9.544c0,0.552-0.448,1-1,1s-1-0.448-1-1V7.132C8.812,3.199,12.199,0,16.363,0h24.084
		C44.612,0,48,3.199,48,7.132v33.736C48,44.801,44.612,48,40.447,48z"/>
</g>
</svg>
