<?xml version="1.0" encoding="utf-8"?>
<!-- Generator: Adobe Illustrator 16.0.0, SVG Export Plug-In . SVG Version: 6.00 Build 0)  -->
<!DOCTYPE svg PUBLIC "-//W3C//DTD SVG 1.1//EN" "http://www.w3.org/Graphics/SVG/1.1/DTD/svg11.dtd">
<svg version="1.1" id="Layer_1" xmlns="http://www.w3.org/2000/svg" xmlns:xlink="http://www.w3.org/1999/xlink" x="0px" y="0px"
	 width="48px" height="48px" viewBox="0 0 48 48" enable-background="new 0 0 48 48" xml:space="preserve">
<g>
	<g>
		<path d="M24.024,25.004H1.835c-0.552,0-1-0.447-1-1c0-0.552,0.448-1,1-1h22.189c0.552,0,1,0.448,1,1
			C25.024,24.557,24.576,25.004,24.024,25.004z"/>
		<path d="M8.445,32.135c-0.248,0-0.496-0.092-0.689-0.275l-7.445-7.08C0.113,24.59,0,24.329,0,24.055s0.111-0.535,0.31-0.724
			c2.636-2.518,6.909-6.614,7.35-7.083c0.247-0.311,0.665-0.458,1.067-0.339c0.53,0.156,0.833,0.712,0.677,1.242
			c-0.1,0.338-0.107,0.363-6.955,6.902l6.684,6.357c0.4,0.381,0.416,1.014,0.036,1.414C8.973,32.03,8.709,32.135,8.445,32.135z"/>
	</g>
	<path d="M41.001,47.998H18.965c-3.86,0-7.001-3.199-7.001-7.132v-9.542c0-0.553,0.448-1,1-1s1,0.447,1,1v9.542
		c0,2.83,2.244,5.132,5.001,5.132h22.036c2.757,0,4.999-2.302,4.999-5.132V7.134c0-2.83-2.243-5.132-5-5.132H18.964
		c-2.757,0-5.001,2.302-5.001,5.132v9.543c0,0.552-0.448,1-1,1s-1-0.448-1-1V7.134c0-3.933,3.141-7.132,7.001-7.132H41
		c3.859,0,7,3.199,7,7.132v33.732C48,44.799,44.86,47.998,41.001,47.998z"/>
</g>
</svg>
