<?xml version="1.0" encoding="utf-8"?>
<!-- Generator: Adobe Illustrator 16.0.0, SVG Export Plug-In . SVG Version: 6.00 Build 0)  -->
<!DOCTYPE svg PUBLIC "-//W3C//DTD SVG 1.1//EN" "http://www.w3.org/Graphics/SVG/1.1/DTD/svg11.dtd">
<svg version="1.1" id="Layer_1" xmlns="http://www.w3.org/2000/svg" xmlns:xlink="http://www.w3.org/1999/xlink" x="0px" y="0px"
	 width="48px" height="48px" viewBox="0 0 48 48" enable-background="new 0 0 48 48" xml:space="preserve">
<g>
	<path d="M35.049,37.038H7.182C3.222,37.038,0,33.819,0,29.863V18.139c0-3.958,3.222-7.177,7.182-7.177h27.867
		c3.957,0,7.176,3.22,7.176,7.177v11.724C42.225,33.819,39.006,37.038,35.049,37.038z M7.182,12.962C4.325,12.962,2,15.284,2,18.139
		v11.724c0,2.854,2.325,5.175,5.182,5.175h27.867c2.854,0,5.176-2.321,5.176-5.175V18.139c0-2.855-2.322-5.177-5.176-5.177H7.182z"
		/>
	<path d="M47,30.51h-5.775c-0.553,0-1-0.447-1-1s0.447-1,1-1H46v-9.019h-4.775c-0.553,0-1-0.448-1-1s0.447-1,1-1H47
		c0.553,0,1,0.448,1,1V29.51C48,30.063,47.553,30.51,47,30.51z"/>
	<path d="M10.279,32.211c-0.552,0-1-0.447-1-1V16.686c0-0.552,0.448-1,1-1s1,0.448,1,1v14.525
		C11.279,31.764,10.831,32.211,10.279,32.211z"/>
</g>
</svg>
