<?xml version="1.0" encoding="utf-8"?>
<!-- Generator: Adobe Illustrator 16.0.0, SVG Export Plug-In . SVG Version: 6.00 Build 0)  -->
<!DOCTYPE svg PUBLIC "-//W3C//DTD SVG 1.1//EN" "http://www.w3.org/Graphics/SVG/1.1/DTD/svg11.dtd">
<svg version="1.1" id="Layer_1" xmlns="http://www.w3.org/2000/svg" xmlns:xlink="http://www.w3.org/1999/xlink" x="0px" y="0px"
	 width="48px" height="48px" viewBox="0 0 48 48" enable-background="new 0 0 48 48" xml:space="preserve">
<g>
	<path d="M24.001,48c-0.312,0-0.605-0.146-0.794-0.393L0.206,17.543c-0.295-0.385-0.27-0.927,0.058-1.284L14.917,0.323
		C15.106,0.117,15.373,0,15.653,0H32.35c0.28,0,0.547,0.117,0.736,0.323l14.65,15.936c0.328,0.357,0.353,0.899,0.058,1.284
		L24.795,47.607C24.606,47.854,24.313,48,24.001,48z M2.304,16.995l21.697,28.359l21.695-28.359L31.91,2H16.092L2.304,16.995z"/>
	<path d="M45.037,18.11H2.97c-0.552,0-1-0.448-1-1s0.448-1,1-1h42.067c0.553,0,1,0.448,1,1S45.59,18.11,45.037,18.11z"/>
	<path d="M24.001,46.574c-0.413,0-0.8-0.258-0.944-0.67L13.11,17.44c-0.051-0.146-0.068-0.303-0.048-0.457l1.882-14.748
		c0.07-0.548,0.575-0.936,1.119-0.866c0.548,0.07,0.936,0.571,0.866,1.119l-1.852,14.514l9.869,28.242
		c0.182,0.521-0.093,1.092-0.614,1.274C24.222,46.557,24.11,46.574,24.001,46.574z"/>
	<path d="M23.994,46.574c-0.109,0-0.221-0.018-0.33-0.056c-0.521-0.183-0.796-0.753-0.614-1.274l9.87-28.242L31.068,2.488
		C30.999,1.94,31.386,1.44,31.934,1.37c0.552-0.068,1.049,0.318,1.119,0.866l1.881,14.748c0.02,0.154,0.003,0.31-0.048,0.457
		l-9.947,28.464C24.794,46.316,24.407,46.574,23.994,46.574z"/>
</g>
</svg>
