<?xml version="1.0" encoding="utf-8"?>
<!-- Generator: Adobe Illustrator 16.0.0, SVG Export Plug-In . SVG Version: 6.00 Build 0)  -->
<!DOCTYPE svg PUBLIC "-//W3C//DTD SVG 1.1//EN" "http://www.w3.org/Graphics/SVG/1.1/DTD/svg11.dtd">
<svg version="1.1" id="Layer_1" xmlns="http://www.w3.org/2000/svg" xmlns:xlink="http://www.w3.org/1999/xlink" x="0px" y="0px"
	 width="48px" height="48px" viewBox="0 0 48 48" enable-background="new 0 0 48 48" xml:space="preserve">
<g>
	<path d="M24,48C10.767,48,0,37.233,0,24S10.767,0,24,0s24,10.767,24,24S37.233,48,24,48z M24,2C11.869,2,2,11.869,2,24
		s9.869,22,22,22s22-9.869,22-22S36.131,2,24,2z"/>
	<g>
		<path d="M31.866,25H16.135c-0.552,0-1-0.447-1-1c0-0.552,0.448-1,1-1h15.731c0.553,0,1,0.448,1,1
			C32.866,24.553,32.419,25,31.866,25z"/>
		<path d="M23.999,32.863c-0.552,0-1-0.447-1-1V16.137c0-0.552,0.448-1,1-1c0.553,0,1,0.448,1,1v15.726
			C24.999,32.416,24.552,32.863,23.999,32.863z"/>
	</g>
</g>
</svg>
