<?xml version="1.0" encoding="utf-8"?>
<!-- Generator: Adobe Illustrator 16.0.0, SVG Export Plug-In . SVG Version: 6.00 Build 0)  -->
<!DOCTYPE svg PUBLIC "-//W3C//DTD SVG 1.1//EN" "http://www.w3.org/Graphics/SVG/1.1/DTD/svg11.dtd">
<svg version="1.1" id="Layer_1" xmlns="http://www.w3.org/2000/svg" xmlns:xlink="http://www.w3.org/1999/xlink" x="0px" y="0px"
	 width="48px" height="48px" viewBox="0 0 48 48" enable-background="new 0 0 48 48" xml:space="preserve">
<g>
	<path d="M24.002,48C10.767,48,0,37.233,0,24S10.767,0,24.002,0C37.234,0,48,10.767,48,24S37.234,48,24.002,48z M24.002,2
		C11.87,2,2,11.869,2,24s9.87,22,22.002,22C36.132,46,46,36.131,46,24S36.132,2,24.002,2z"/>
	<g>
		<path d="M29.561,30.557c-0.256,0-0.512-0.098-0.707-0.293L17.73,19.145c-0.391-0.39-0.391-1.023,0-1.414
			c0.39-0.391,1.023-0.391,1.414,0L30.268,28.85c0.391,0.391,0.391,1.023,0,1.414C30.072,30.459,29.816,30.557,29.561,30.557z"/>
		<path d="M18.437,30.557c-0.256,0-0.512-0.098-0.707-0.293c-0.391-0.391-0.391-1.023,0-1.414l11.124-11.119
			c0.391-0.391,1.023-0.391,1.414,0s0.391,1.024,0,1.414L19.144,30.264C18.949,30.459,18.693,30.557,18.437,30.557z"/>
	</g>
</g>
</svg>
