<?xml version="1.0" encoding="utf-8"?>
<!-- Generator: Adobe Illustrator 16.0.0, SVG Export Plug-In . SVG Version: 6.00 Build 0)  -->
<!DOCTYPE svg PUBLIC "-//W3C//DTD SVG 1.1//EN" "http://www.w3.org/Graphics/SVG/1.1/DTD/svg11.dtd">
<svg version="1.1" id="Layer_1" xmlns="http://www.w3.org/2000/svg" xmlns:xlink="http://www.w3.org/1999/xlink" x="0px" y="0px"
	 width="48px" height="48px" viewBox="0 0 48 48" enable-background="new 0 0 48 48" xml:space="preserve">
<g>
	<g>
		<path d="M24,35.471c-0.552,0-1-0.447-1-1V15.467c0-0.552,0.448-1,1-1c0.553,0,1,0.448,1,1v19.004
			C25,35.023,24.553,35.471,24,35.471z"/>
		<path d="M33.512,24.305c-0.107,0-0.217-0.018-0.325-0.055c-0.298-0.103-0.366-0.126-9.255-9.28l-8.723,9.029
			c-0.385,0.398-1.017,0.408-1.414,0.024c-0.397-0.384-0.408-1.017-0.024-1.414l9.44-9.772c0.188-0.195,0.414-0.325,0.719-0.305
			c0.271,0,0.529,0.109,0.717,0.303c3.534,3.64,8.918,9.164,9.475,9.676c0.331,0.254,0.479,0.701,0.336,1.118
			C34.315,24.044,33.927,24.305,33.512,24.305z"/>
	</g>
	<path d="M24,48C10.767,48,0,37.233,0,24S10.767,0,24,0s24,10.767,24,24S37.233,48,24,48z M24,2C11.869,2,2,11.869,2,24
		s9.869,22,22,22s22-9.869,22-22S36.131,2,24,2z"/>
</g>
</svg>
