<?xml version="1.0" encoding="utf-8"?>
<!-- Generator: Adobe Illustrator 16.0.0, SVG Export Plug-In . SVG Version: 6.00 Build 0)  -->
<!DOCTYPE svg PUBLIC "-//W3C//DTD SVG 1.1//EN" "http://www.w3.org/Graphics/SVG/1.1/DTD/svg11.dtd">
<svg version="1.1" id="Layer_1" xmlns="http://www.w3.org/2000/svg" xmlns:xlink="http://www.w3.org/1999/xlink" x="0px" y="0px"
	 width="48px" height="48px" viewBox="0 0 48 48" enable-background="new 0 0 48 48" xml:space="preserve">
<g>
	<g>
		<path d="M34.48,25H15.479c-0.552,0-1-0.447-1-1c0-0.552,0.448-1,1-1H34.48c0.553,0,1,0.448,1,1C35.48,24.553,35.033,25,34.48,25z"
			/>
		<path d="M23.321,34.512c-0.25,0-0.5-0.093-0.694-0.28l-9.78-9.438c-0.195-0.188-0.305-0.447-0.306-0.718s0.109-0.53,0.304-0.719
			c3.639-3.531,9.163-8.914,9.679-9.475c0.251-0.329,0.692-0.479,1.108-0.342c0.524,0.173,0.809,0.739,0.636,1.263
			c-0.101,0.305-0.123,0.374-9.289,9.27l9.036,8.721c0.397,0.384,0.409,1.017,0.025,1.414
			C23.844,34.409,23.583,34.512,23.321,34.512z"/>
	</g>
	<path d="M24,48C10.767,48,0,37.233,0,24S10.767,0,24,0s24,10.767,24,24S37.233,48,24,48z M24,2C11.869,2,2,11.869,2,24
		s9.869,22,22,22s22-9.869,22-22S36.131,2,24,2z"/>
</g>
</svg>
