<?xml version="1.0" encoding="utf-8"?>
<!-- Generator: Adobe Illustrator 16.0.0, SVG Export Plug-In . SVG Version: 6.00 Build 0)  -->
<!DOCTYPE svg PUBLIC "-//W3C//DTD SVG 1.1//EN" "http://www.w3.org/Graphics/SVG/1.1/DTD/svg11.dtd">
<svg version="1.1" id="Layer_1" xmlns="http://www.w3.org/2000/svg" xmlns:xlink="http://www.w3.org/1999/xlink" x="0px" y="0px"
	 width="48px" height="48px" viewBox="0 0 48 48" enable-background="new 0 0 48 48" xml:space="preserve">
<g>
	<path d="M24,47.998c-13.233,0-24-10.767-24-24s10.767-24,24-24s24,10.767,24,24S37.233,47.998,24,47.998z M24,1.998
		c-12.131,0-22,9.869-22,22s9.869,22,22,22s22-9.869,22-22S36.131,1.998,24,1.998z"/>
	<path d="M24,38.628c-8.066,0-14.629-6.563-14.629-14.63c0-8.064,6.563-14.625,14.629-14.625
		c8.063,0.001,14.623,6.562,14.623,14.625C38.623,32.065,32.063,38.628,24,38.628z M24,11.373c-6.963,0-12.629,5.664-12.629,12.625
		c0,6.964,5.666,12.63,12.629,12.63c6.96,0,12.623-5.666,12.623-12.63C36.623,17.038,30.96,11.374,24,11.373z"/>
	<g>
		<g>
			<path d="M20.675,11.439c-0.552,0-1-0.448-1-1V1.393c0-0.552,0.448-1,1-1s1,0.448,1,1v9.046
				C21.675,10.991,21.227,11.439,20.675,11.439z"/>
			<path d="M27.318,11.439c-0.553,0-1-0.448-1-1V1.393c0-0.552,0.447-1,1-1s1,0.448,1,1v9.046
				C28.318,10.991,27.871,11.439,27.318,11.439z"/>
		</g>
		<g>
			<path d="M20.675,47.669c-0.552,0-1-0.447-1-1v-9.041c0-0.553,0.448-1,1-1s1,0.447,1,1v9.041
				C21.675,47.222,21.227,47.669,20.675,47.669z"/>
			<path d="M27.318,47.669c-0.553,0-1-0.447-1-1v-9.041c0-0.553,0.447-1,1-1s1,0.447,1,1v9.041
				C28.318,47.222,27.871,47.669,27.318,47.669z"/>
		</g>
	</g>
	<g>
		<g>
			<path d="M10.405,28.354H1.364c-0.552,0-1-0.447-1-1s0.448-1,1-1h9.041c0.552,0,1,0.447,1,1S10.957,28.354,10.405,28.354z"/>
			<path d="M10.405,21.709H1.364c-0.552,0-1-0.448-1-1s0.448-1,1-1h9.041c0.552,0,1,0.448,1,1S10.957,21.709,10.405,21.709z"/>
		</g>
		<g>
			<path d="M46.635,28.354h-9.043c-0.553,0-1-0.447-1-1s0.447-1,1-1h9.043c0.553,0,1,0.447,1,1S47.188,28.354,46.635,28.354z"/>
			<path d="M46.635,21.709h-9.043c-0.553,0-1-0.448-1-1s0.447-1,1-1h9.043c0.553,0,1,0.448,1,1S47.188,21.709,46.635,21.709z"/>
		</g>
	</g>
	<path d="M24,47.998c-13.233,0-24-10.767-24-24s10.767-24,24-24s24,10.767,24,24S37.233,47.998,24,47.998z M24,1.998
		c-12.131,0-22,9.869-22,22s9.869,22,22,22s22-9.869,22-22S36.131,1.998,24,1.998z"/>
</g>
</svg>
