<?xml version="1.0" encoding="utf-8"?>
<!-- Generator: Adobe Illustrator 16.0.0, SVG Export Plug-In . SVG Version: 6.00 Build 0)  -->
<!DOCTYPE svg PUBLIC "-//W3C//DTD SVG 1.1//EN" "http://www.w3.org/Graphics/SVG/1.1/DTD/svg11.dtd">
<svg version="1.1" id="Layer_1" xmlns="http://www.w3.org/2000/svg" xmlns:xlink="http://www.w3.org/1999/xlink" x="0px" y="0px"
	 width="48px" height="48px" viewBox="0 0 48 48" enable-background="new 0 0 48 48" xml:space="preserve">
<g>
	<path d="M35.686,46.828c-6.673,0-12.102-5.43-12.102-12.104c0-6.669,5.429-12.094,12.102-12.094c3.232,0,6.271,1.258,8.557,3.541
		c2.285,2.284,3.544,5.321,3.544,8.553C47.786,41.398,42.357,46.828,35.686,46.828z M35.688,24.631
		c-5.571,0-10.104,4.528-10.104,10.094c0,5.571,4.531,10.104,10.102,10.104c5.569,0,10.101-4.532,10.101-10.104
		C45.786,29.159,41.256,24.631,35.688,24.631z"/>
	<path d="M24.441,48.012c-0.163,0-0.315-0.02-0.459-0.06c-0.471,0.114-1.036,0.027-1.69-0.259C16.63,45.222,0,25.811,0,17.366
		C0,7.791,6.801,0,15.161,0C18.339,0,21.378,1.148,24,3.33C26.614,1.148,29.65,0,32.834,0C41.196,0,48,7.791,48,17.366
		c0,2.386-1.238,5.656-3.681,9.721c-0.285,0.474-0.899,0.625-1.372,0.343c-0.474-0.285-0.627-0.899-0.343-1.372
		C44.826,22.361,46,19.355,46,17.366C46,8.893,40.094,2,32.834,2c-2.948,0-5.768,1.174-8.151,3.394
		c-0.384,0.357-0.977,0.358-1.362,0.001C20.927,3.174,18.105,2,15.161,2C7.904,2,2,8.893,2,17.366
		c0,5.244,8.417,17.087,15.97,24.437c3.761,3.658,5.198,4.127,5.507,4.188c0.32-0.197,0.728-0.196,1.047-0.001
		c0.265-0.053,1.331-0.402,3.925-2.718c0.411-0.366,1.044-0.333,1.412,0.08c0.368,0.412,0.332,1.044-0.08,1.412
		C27.314,46.966,25.619,48.012,24.441,48.012z"/>
	<path d="M39.818,36.16h-8.268c-0.553,0-1-0.447-1-1s0.447-1,1-1h8.268c0.553,0,1,0.447,1,1S40.371,36.16,39.818,36.16z"/>
	<path d="M35.688,40.038c-0.553,0-1-0.447-1-1v-8.625c0-0.553,0.447-1,1-1s1,0.447,1,1v8.625
		C36.688,39.591,36.24,40.038,35.688,40.038z"/>
</g>
</svg>
