<?xml version="1.0" encoding="utf-8"?>
<!-- Generator: Adobe Illustrator 16.0.0, SVG Export Plug-In . SVG Version: 6.00 Build 0)  -->
<!DOCTYPE svg PUBLIC "-//W3C//DTD SVG 1.1//EN" "http://www.w3.org/Graphics/SVG/1.1/DTD/svg11.dtd">
<svg version="1.1" id="Layer_1" xmlns="http://www.w3.org/2000/svg" xmlns:xlink="http://www.w3.org/1999/xlink" x="0px" y="0px"
	 width="48px" height="48px" viewBox="0 0 48 48" enable-background="new 0 0 48 48" xml:space="preserve">
<g>
	<path d="M35.689,46.828c-6.673,0-12.102-5.43-12.102-12.104c0-6.669,5.429-12.094,12.102-12.094c3.229,0,6.268,1.258,8.553,3.541
		c2.287,2.285,3.547,5.322,3.547,8.553C47.789,41.398,42.361,46.828,35.689,46.828z M35.691,24.631
		c-5.571,0-10.104,4.528-10.104,10.094c0,5.571,4.531,10.104,10.102,10.104c5.569,0,10.1-4.532,10.1-10.104
		C45.789,29.159,41.259,24.631,35.691,24.631z"/>
	<path d="M24.439,48.011c-0.161,0-0.313-0.02-0.455-0.058c-0.472,0.112-1.036,0.028-1.689-0.257C16.633,45.227,0,25.813,0,17.365
		C0,7.79,6.803,0,15.166,0C18.348,0,21.384,1.148,24,3.33C26.617,1.148,29.653,0,32.833,0C41.196,0,48,7.79,48,17.365
		c0,2.381-1.237,5.652-3.677,9.722c-0.283,0.474-0.897,0.628-1.372,0.343c-0.474-0.284-0.627-0.897-0.343-1.372
		C44.827,22.357,46,19.351,46,17.365C46,8.893,40.094,2,32.833,2c-2.945,0-5.764,1.174-8.152,3.395
		c-0.383,0.356-0.978,0.357-1.362,0C20.932,3.174,18.113,2,15.166,2C7.906,2,2,8.893,2,17.365c0,5.233,8.405,17.067,15.949,24.416
		c3.774,3.677,5.217,4.149,5.528,4.21c0.319-0.197,0.726-0.197,1.045,0c0.263-0.052,1.327-0.399,3.932-2.72
		c0.411-0.368,1.044-0.333,1.411,0.081c0.368,0.412,0.332,1.044-0.081,1.411C27.314,46.966,25.617,48.011,24.439,48.011z"/>
	<path d="M39.822,36.16h-8.266c-0.553,0-1-0.447-1-1s0.447-1,1-1h8.266c0.553,0,1,0.447,1,1S40.375,36.16,39.822,36.16z"/>
</g>
</svg>
