<?xml version="1.0" encoding="utf-8"?>
<!-- Generator: Adobe Illustrator 16.0.0, SVG Export Plug-In . SVG Version: 6.00 Build 0)  -->
<!DOCTYPE svg PUBLIC "-//W3C//DTD SVG 1.1//EN" "http://www.w3.org/Graphics/SVG/1.1/DTD/svg11.dtd">
<svg version="1.1" id="Layer_1" xmlns="http://www.w3.org/2000/svg" xmlns:xlink="http://www.w3.org/1999/xlink" x="0px" y="0px"
	 width="48px" height="48px" viewBox="0 0 48 48" enable-background="new 0 0 48 48" xml:space="preserve">
<g>
	<g>
		<path d="M31.863,24.998H16.136c-0.552,0-1-0.447-1-1c0-0.552,0.448-1,1-1h15.728c0.553,0,1,0.448,1,1
			C32.863,24.551,32.416,24.998,31.863,24.998z"/>
		<path d="M23.998,32.863c-0.552,0-1-0.447-1-1V16.131c0-0.552,0.448-1,1-1c0.553,0,1,0.448,1,1v15.732
			C24.998,32.416,24.551,32.863,23.998,32.863z"/>
	</g>
	<path d="M47,48c-0.111,0-0.224-0.019-0.332-0.057L36.613,44.4c-3.808,2.356-8.158,3.6-12.615,3.6C10.766,48,0,37.232,0,23.998
		C0,10.766,10.766,0,23.998,0C37.232,0,48,10.766,48,23.998c0,4.46-1.242,8.811-3.596,12.611l3.539,10.059
		c0.128,0.363,0.036,0.768-0.236,1.039C47.517,47.897,47.261,48,47,48z M23.998,2C11.868,2,2,11.868,2,23.998
		C2,36.13,11.868,46,23.998,46c4.234,0,8.365-1.226,11.947-3.544c0.259-0.168,0.585-0.207,0.875-0.104l8.544,3.011l-3.008-8.547
		c-0.103-0.292-0.064-0.615,0.104-0.876C44.776,32.366,46,28.236,46,23.998C46,11.868,36.13,2,23.998,2z"/>
</g>
</svg>
