<?xml version="1.0" encoding="utf-8"?>
<!-- Generator: Adobe Illustrator 16.0.0, SVG Export Plug-In . SVG Version: 6.00 Build 0)  -->
<!DOCTYPE svg PUBLIC "-//W3C//DTD SVG 1.1//EN" "http://www.w3.org/Graphics/SVG/1.1/DTD/svg11.dtd">
<svg version="1.1" id="Layer_1" xmlns="http://www.w3.org/2000/svg" xmlns:xlink="http://www.w3.org/1999/xlink" x="0px" y="0px"
	 width="48px" height="48px" viewBox="0 0 48 48" enable-background="new 0 0 48 48" xml:space="preserve">
<g>
	<path d="M31.861,25H16.134c-0.552,0-1-0.447-1-1c0-0.552,0.448-1,1-1h15.728c0.553,0,1,0.448,1,1
		C32.861,24.553,32.414,25,31.861,25z"/>
	<path d="M47,48c-0.111,0-0.224-0.019-0.332-0.057l-10.055-3.541C32.808,46.758,28.457,48,23.998,48C10.766,48,0,37.233,0,24
		S10.766,0,23.998,0C37.232,0,48,10.767,48,24c0,4.461-1.242,8.811-3.598,12.611l3.541,10.057c0.128,0.363,0.036,0.767-0.236,1.039
		C47.517,47.897,47.261,48,47,48z M23.998,2C11.868,2,2,11.869,2,24s9.868,22,21.998,22c4.236,0,8.367-1.225,11.947-3.542
		c0.259-0.168,0.585-0.206,0.875-0.104l8.543,3.009l-3.009-8.545c-0.103-0.292-0.064-0.616,0.104-0.876
		C44.775,32.368,46,28.238,46,24C46,11.869,36.13,2,23.998,2z"/>
</g>
</svg>
