<?xml version="1.0" encoding="utf-8"?>
<!-- Generator: Adobe Illustrator 16.0.0, SVG Export Plug-In . SVG Version: 6.00 Build 0)  -->
<!DOCTYPE svg PUBLIC "-//W3C//DTD SVG 1.1//EN" "http://www.w3.org/Graphics/SVG/1.1/DTD/svg11.dtd">
<svg version="1.1" id="Layer_1" xmlns="http://www.w3.org/2000/svg" xmlns:xlink="http://www.w3.org/1999/xlink" x="0px" y="0px"
	 width="48px" height="48px" viewBox="0 0 48 48" enable-background="new 0 0 48 48" xml:space="preserve">
<g>
	<path d="M19.223,31.126c-0.281,0-0.559-0.118-0.755-0.344l-8.209-9.441c-0.363-0.417-0.318-1.048,0.098-1.411
		c0.417-0.363,1.049-0.319,1.411,0.098l7.623,8.766l17.029-11.746c0.453-0.314,1.077-0.2,1.391,0.255
		c0.313,0.455,0.199,1.078-0.256,1.391L19.79,30.949C19.617,31.068,19.419,31.126,19.223,31.126z"/>
	<path d="M47,47.998c-0.111,0-0.224-0.019-0.332-0.057l-10.06-3.543c-3.8,2.356-8.148,3.6-12.611,3.6
		C10.765,47.998,0,37.231,0,23.998C0,10.767,10.765,0.002,23.997,0.002C37.232,0.002,48,10.767,48,23.998
		c0,4.459-1.242,8.809-3.597,12.611l3.54,10.057c0.128,0.363,0.036,0.767-0.236,1.039C47.517,47.896,47.261,47.998,47,47.998z
		 M23.997,2.002C11.868,2.002,2,11.869,2,23.998c0,12.131,9.868,22,21.997,22c4.24,0,8.369-1.226,11.941-3.543
		c0.261-0.169,0.587-0.207,0.876-0.104l8.549,3.011l-3.008-8.545c-0.103-0.292-0.064-0.615,0.104-0.876
		C44.775,32.364,46,28.234,46,23.998C46,11.869,36.13,2.002,23.997,2.002z"/>
</g>
</svg>
