<?xml version="1.0" encoding="utf-8"?>
<!-- Generator: Adobe Illustrator 16.0.0, SVG Export Plug-In . SVG Version: 6.00 Build 0)  -->
<!DOCTYPE svg PUBLIC "-//W3C//DTD SVG 1.1//EN" "http://www.w3.org/Graphics/SVG/1.1/DTD/svg11.dtd">
<svg version="1.1" id="Layer_1" xmlns="http://www.w3.org/2000/svg" xmlns:xlink="http://www.w3.org/1999/xlink" x="0px" y="0px"
	 width="48px" height="48px" viewBox="0 0 48 48" enable-background="new 0 0 48 48" xml:space="preserve">
<g>
	<path d="M47,47.999c-0.111,0-0.224-0.019-0.332-0.057l-10.059-3.543c-3.804,2.356-8.152,3.6-12.609,3.6c-13.233,0-24-10.767-24-24
		C0,10.767,10.767,0.001,24,0.001s24,10.766,24,23.998c0,4.465-1.243,8.813-3.6,12.609l3.543,10.059
		c0.128,0.363,0.036,0.767-0.236,1.039C47.517,47.896,47.261,47.999,47,47.999z M24,2.001c-12.131,0-22,9.868-22,21.998
		c0,12.131,9.869,22,22,22c4.234,0,8.363-1.226,11.94-3.543c0.261-0.169,0.586-0.207,0.876-0.104l8.547,3.011l-3.011-8.548
		c-0.103-0.293-0.064-0.616,0.104-0.877C44.775,32.369,46,28.241,46,23.999C46,11.869,36.131,2.001,24,2.001z"/>
	<g>
		<path d="M15.242,23.999c0,1.438-1.164,2.603-2.605,2.603c-1.441,0-2.599-1.164-2.599-2.603c0-1.436,1.158-2.604,2.599-2.604
			C14.078,21.395,15.242,22.563,15.242,23.999z"/>
		<path d="M26.602,23.999c0,1.438-1.162,2.603-2.604,2.603c-1.437,0-2.597-1.164-2.597-2.603c0-1.436,1.16-2.604,2.597-2.604
			C25.439,21.396,26.602,22.563,26.602,23.999z"/>
		<path d="M37.964,23.999c0,1.438-1.163,2.603-2.604,2.603c-1.439,0-2.603-1.164-2.603-2.603c0-1.436,1.162-2.604,2.603-2.604
			C36.801,21.396,37.964,22.563,37.964,23.999z"/>
	</g>
</g>
</svg>
