<?xml version="1.0" encoding="utf-8"?>
<!-- Generator: Adobe Illustrator 16.0.0, SVG Export Plug-In . SVG Version: 6.00 Build 0)  -->
<!DOCTYPE svg PUBLIC "-//W3C//DTD SVG 1.1//EN" "http://www.w3.org/Graphics/SVG/1.1/DTD/svg11.dtd">
<svg version="1.1" id="Layer_1" xmlns="http://www.w3.org/2000/svg" xmlns:xlink="http://www.w3.org/1999/xlink" x="0px" y="0px"
	 width="48px" height="48px" viewBox="0 0 48 48" enable-background="new 0 0 48 48" xml:space="preserve">
<g>
	<g>
		<path d="M47,30.559c-0.254,0-0.509-0.097-0.704-0.289L35.063,19.145c-0.392-0.389-0.396-1.021-0.007-1.414
			c0.39-0.392,1.021-0.396,1.415-0.007l11.232,11.124c0.392,0.389,0.396,1.022,0.007,1.415C47.515,30.46,47.258,30.559,47,30.559z"
			/>
		<path d="M35.768,30.559c-0.258,0-0.515-0.099-0.711-0.296c-0.389-0.393-0.385-1.026,0.007-1.415l11.232-11.124
			c0.394-0.39,1.025-0.386,1.415,0.007c0.389,0.393,0.385,1.025-0.007,1.414L36.472,30.27
			C36.276,30.462,36.021,30.559,35.768,30.559z"/>
	</g>
	<path d="M30.576,48c-0.271,0-0.535-0.109-0.728-0.314L14.213,31.087c-1.563,1.461-3.551,2.281-5.598,2.281
		c-4.75,0-8.615-4.203-8.615-9.37c0-5.168,3.865-9.372,8.615-9.372c2.048,0,4.037,0.82,5.598,2.28L29.849,0.314
		c0.281-0.298,0.716-0.394,1.097-0.244c0.381,0.151,0.631,0.52,0.631,0.93v46c0,0.41-0.25,0.778-0.631,0.93
		C30.825,47.977,30.7,48,30.576,48z M14.216,28.632c0.275,0,0.539,0.113,0.728,0.314L29.576,44.48V3.52L14.944,19.048
		c-0.196,0.208-0.459,0.333-0.758,0.313c-0.286-0.008-0.554-0.139-0.737-0.358c-1.282-1.533-2.999-2.377-4.833-2.377
		C4.968,16.626,2,19.933,2,23.998c0,4.063,2.968,7.37,6.615,7.37c1.833,0,3.55-0.845,4.834-2.378c0.183-0.22,0.452-0.35,0.737-0.358
		C14.196,28.632,14.206,28.632,14.216,28.632z"/>
</g>
</svg>
