<?xml version="1.0" encoding="utf-8"?>
<!-- Generator: Adobe Illustrator 16.0.0, SVG Export Plug-In . SVG Version: 6.00 Build 0)  -->
<!DOCTYPE svg PUBLIC "-//W3C//DTD SVG 1.1//EN" "http://www.w3.org/Graphics/SVG/1.1/DTD/svg11.dtd">
<svg version="1.1" id="Layer_1" xmlns="http://www.w3.org/2000/svg" xmlns:xlink="http://www.w3.org/1999/xlink" x="0px" y="0px"
	 width="48px" height="48px" viewBox="0 0 48 48" enable-background="new 0 0 48 48" xml:space="preserve">
<g>
	<path d="M20.775,15.361c-3.297,0-11.971-1.973-11.971-6.415c0-4.635,3.771-8.406,8.406-8.406c0,0,0,0,0.001,0
		c1.916,0,3.659,1.639,5.039,4.74c1.295,2.91,2.469,7.895,1.206,9.296C22.972,15.113,22.121,15.361,20.775,15.361z M17.21,2.541
		c-3.532,0-6.406,2.874-6.406,6.406c0,2.233,6.309,4.415,9.971,4.415c0.708,0,1.044-0.088,1.174-0.136
		c0.309-1.044-0.492-5.791-2.405-8.789C18.765,3.214,17.936,2.541,17.21,2.541z"/>
	<path d="M26.408,15.361L26.408,15.361c-1.346,0-2.197-0.25-2.678-0.785c-1.261-1.392-0.095-6.37,1.194-9.277
		c1.381-3.113,3.126-4.759,5.045-4.759c0.001,0,0.001,0,0.001,0c4.637,0,8.408,3.771,8.408,8.406c0,1.889-1.634,3.566-4.725,4.849
		C31.398,14.732,28.486,15.361,26.408,15.361z M25.236,13.225c0.129,0.048,0.463,0.136,1.172,0.136c0,0,0,0,0.001,0
		c1.839,0,4.442-0.568,6.479-1.413c2.187-0.907,3.491-2.029,3.491-3.001c0-3.532-2.875-6.406-6.408-6.406l0,0
		c-0.727,0-1.556,0.675-2.337,1.901C25.723,7.444,24.926,12.188,25.236,13.225z"/>
	<path d="M16.403,38.475c-0.552,0-1-0.447-1-1v-7.908c0-0.553,0.448-1,1-1s1,0.447,1,1v7.908
		C17.403,38.027,16.955,38.475,16.403,38.475z"/>
	<path d="M24,38.475c-0.552,0-1-0.447-1-1v-7.908c0-0.553,0.448-1,1-1c0.553,0,1,0.447,1,1v7.908C25,38.027,24.553,38.475,24,38.475
		z"/>
	<path d="M30.779,38.475c-0.553,0-1-0.447-1-1v-7.908c0-0.553,0.447-1,1-1s1,0.447,1,1v7.908
		C31.779,38.027,31.332,38.475,30.779,38.475z"/>
	<path d="M36.033,47.46H11.686c-3.722,0-6.75-3.029-6.75-6.752V22.981c0-0.552,0.448-1,1-1s1,0.448,1,1v17.727
		c0,2.62,2.131,4.752,4.75,4.752h24.347c2.62,0,4.751-2.132,4.751-4.752V23.22c0-0.552,0.447-1,1-1s1,0.448,1,1v17.488
		C42.784,44.431,39.756,47.46,36.033,47.46z"/>
	<path d="M47,22.542H1c-0.552,0-1-0.448-1-1V14.36c0-0.552,0.448-1,1-1h46c0.553,0,1,0.448,1,1v7.182
		C48,22.094,47.553,22.542,47,22.542z M2,20.542h44V15.36H2V20.542z"/>
</g>
</svg>
