<?xml version="1.0" encoding="utf-8"?>
<!-- Generator: Adobe Illustrator 16.0.0, SVG Export Plug-In . SVG Version: 6.00 Build 0)  -->
<!DOCTYPE svg PUBLIC "-//W3C//DTD SVG 1.1//EN" "http://www.w3.org/Graphics/SVG/1.1/DTD/svg11.dtd">
<svg version="1.1" id="Layer_1" xmlns="http://www.w3.org/2000/svg" xmlns:xlink="http://www.w3.org/1999/xlink" x="0px" y="0px"
	 width="48px" height="48px" viewBox="0 0 48 48" enable-background="new 0 0 48 48" xml:space="preserve">
<g>
	<path d="M29.376,48.295c-0.538,0-1.066-0.011-1.583-0.03c-2.063-0.072-3.548-0.775-4.985-1.455
		c-0.591-0.279-1.202-0.568-1.85-0.811c-0.682-0.252-1.457-0.376-2.367-0.376c-0.988,0-2.035,0.145-3.048,0.283
		c-0.571,0.079-1.137,0.156-1.694,0.211c-0.819,0.08-1.646,0.12-2.46,0.12c-7.166,0-11.316-2.925-11.387-8.023
		C0,38.151,0.005,38.089,0.016,38.027l0.277-1.575c0.009-0.052,0.022-0.104,0.04-0.152c0.725-2.106,1.319-3.65,2.898-5.833
		c5.567-7.729,16.232-11.189,24.332-11.189c6.036,0.001,13.484,0.529,17.542,4.63c1.955,1.976,2.929,4.594,2.896,7.782
		c-0.063,5.48-2.142,10.373-5.562,13.091C39.51,47.112,35.115,48.295,29.376,48.295z M18.59,43.623c1.152,0,2.154,0.164,3.064,0.502
		c0.729,0.272,1.379,0.58,2.008,0.877c1.368,0.647,2.55,1.206,4.202,1.265c0.493,0.018,0.998,0.028,1.511,0.028
		c5.275,0,9.251-1.036,11.817-3.079c2.954-2.348,4.751-6.664,4.807-11.548c0.028-2.67-0.729-4.749-2.317-6.353
		c-3.537-3.576-10.473-4.036-16.12-4.038c-7.589,0-17.555,3.203-22.71,10.36c-1.405,1.941-1.929,3.284-2.604,5.238l-0.246,1.401
		c0.139,5.183,5.931,5.96,9.385,5.96c0.75,0,1.512-0.037,2.266-0.11c0.531-0.053,1.071-0.127,1.616-0.202
		C16.35,43.776,17.466,43.623,18.59,43.623z"/>
	<path d="M33.71,31.98c-0.553,0-1-0.447-1-1V0.705c0-0.552,0.447-1,1-1s1,0.448,1,1V30.98C34.71,31.533,34.263,31.98,33.71,31.98z"
		/>
	<path d="M33.71,11.492c-0.099,0-0.2-0.015-0.3-0.046L19.827,7.183c-0.41-0.129-0.692-0.505-0.701-0.935
		c-0.008-0.43,0.26-0.817,0.665-0.961l13.584-4.832c0.518-0.183,1.092,0.086,1.277,0.607c0.185,0.52-0.087,1.092-0.607,1.277
		l-10.768,3.83L34.01,9.537c0.526,0.166,0.819,0.727,0.654,1.253C34.53,11.218,34.136,11.492,33.71,11.492z"/>
</g>
</svg>
