<?xml version="1.0" encoding="utf-8"?>
<!-- Generator: Adobe Illustrator 16.0.0, SVG Export Plug-In . SVG Version: 6.00 Build 0)  -->
<!DOCTYPE svg PUBLIC "-//W3C//DTD SVG 1.1//EN" "http://www.w3.org/Graphics/SVG/1.1/DTD/svg11.dtd">
<svg version="1.1" id="Layer_1" xmlns="http://www.w3.org/2000/svg" xmlns:xlink="http://www.w3.org/1999/xlink" x="0px" y="0px"
	 width="48px" height="48px" viewBox="0 0 48 48" enable-background="new 0 0 48 48" xml:space="preserve">
<g>
	<path d="M35.251,48H12.749c-3.327,0-6.033-2.706-6.033-6.033V6.029C6.716,2.705,9.422,0,12.749,0h22.502
		c3.327,0,6.033,2.705,6.033,6.029v35.938C41.284,45.294,38.578,48,35.251,48z M12.749,2c-2.224,0-4.033,1.807-4.033,4.029v35.938
		c0,2.224,1.809,4.033,4.033,4.033h22.502c2.224,0,4.033-1.81,4.033-4.033V6.029c0-2.222-1.81-4.029-4.033-4.029H12.749z"/>
	<path d="M24.001,34.209c-0.281,0-0.549-0.118-0.739-0.326c-0.739-0.81-1.507-1.626-2.272-2.439
		c-3.87-4.116-7.525-8.003-7.525-10.983c0-3.678,2.772-6.671,6.18-6.671c1.658,0,3.209,0.706,4.354,1.938
		c1.144-1.233,2.696-1.938,4.356-1.938c3.407,0,6.18,2.992,6.181,6.67c0,2.994-3.927,7.167-7.725,11.201
		c-0.718,0.763-1.42,1.509-2.072,2.223C24.55,34.091,24.282,34.209,24.001,34.209z M19.645,15.789c-2.305,0-4.18,2.095-4.18,4.671
		c0,2.188,3.709,6.133,6.982,9.613c0.52,0.553,1.042,1.107,1.555,1.66c0.439-0.472,0.893-0.955,1.354-1.444
		c3.199-3.398,7.181-7.628,7.181-9.829c-0.001-2.575-1.876-4.671-4.181-4.671c-1.411,0-2.717,0.79-3.493,2.113
		c-0.179,0.306-0.507,0.494-0.862,0.494h0c-0.354,0-0.682-0.188-0.862-0.493C22.359,16.58,21.053,15.789,19.645,15.789z"/>
</g>
</svg>
