<?xml version="1.0" encoding="utf-8"?>
<!-- Generator: Adobe Illustrator 16.0.0, SVG Export Plug-In . SVG Version: 6.00 Build 0)  -->
<!DOCTYPE svg PUBLIC "-//W3C//DTD SVG 1.1//EN" "http://www.w3.org/Graphics/SVG/1.1/DTD/svg11.dtd">
<svg version="1.1" id="Layer_1" xmlns="http://www.w3.org/2000/svg" xmlns:xlink="http://www.w3.org/1999/xlink" x="0px" y="0px"
	 width="48px" height="48px" viewBox="0 0 48 48" enable-background="new 0 0 48 48" xml:space="preserve">
<g>
	<path d="M35.252,48H12.744c-3.325,0-6.029-2.703-6.029-6.025V6.035C6.715,2.708,9.419,0,12.744,0h22.508
		c3.327,0,6.033,2.708,6.033,6.035v35.939C41.285,45.297,38.579,48,35.252,48z M12.744,2c-2.222,0-4.029,1.81-4.029,4.035v35.939
		c0,2.22,1.808,4.025,4.029,4.025h22.508c2.224,0,4.033-1.806,4.033-4.025V6.035C39.285,3.81,37.476,2,35.252,2H12.744z"/>
	<path d="M24.003,36.025c-0.3,0-0.583-0.135-0.773-0.366l-9.027-11.021c-0.302-0.369-0.302-0.898,0-1.267l9.027-11.032
		c0.38-0.464,1.167-0.464,1.548,0l9.026,11.032c0.301,0.369,0.301,0.898-0.001,1.267l-9.026,11.021
		C24.587,35.891,24.303,36.025,24.003,36.025z M16.269,24.003l7.734,9.444l7.734-9.444l-7.734-9.452L16.269,24.003z"/>
</g>
</svg>
