<?xml version="1.0" encoding="utf-8"?>
<!-- Generator: Adobe Illustrator 16.0.0, SVG Export Plug-In . SVG Version: 6.00 Build 0)  -->
<!DOCTYPE svg PUBLIC "-//W3C//DTD SVG 1.1//EN" "http://www.w3.org/Graphics/SVG/1.1/DTD/svg11.dtd">
<svg version="1.1" id="Layer_1" xmlns="http://www.w3.org/2000/svg" xmlns:xlink="http://www.w3.org/1999/xlink" x="0px" y="0px"
	 width="48px" height="48px" viewBox="0 0 48 48" enable-background="new 0 0 48 48" xml:space="preserve">
<g>
	<path d="M40.121,43.982h-2V2.002H9.988v41.98h-2V1.002c0-0.552,0.448-1,1-1h30.133c0.553,0,1,0.448,1,1V43.982z"/>
	<path d="M23.802,47.963c-13.788,0-23.101-4.422-23.24-4.489c-0.496-0.242-0.702-0.84-0.461-1.337s0.84-0.704,1.336-0.462
		c0.201,0.098,20.363,9.635,45.2-0.032c0.514-0.202,1.095,0.055,1.294,0.569c0.2,0.515-0.055,1.094-0.569,1.294
		C38.777,46.848,30.726,47.963,23.802,47.963z"/>
	<path d="M24.058,37.709c-4.063,0-7.367-3.637-7.367-8.107c0-4.472,3.305-8.11,7.367-8.11c1.986,0,3.847,0.857,5.241,2.415
		c1.366,1.526,2.118,3.549,2.118,5.695C31.417,34.072,28.116,37.709,24.058,37.709z M24.06,23.491c-2.96,0-5.369,2.741-5.369,6.11
		c0,3.367,2.408,6.107,5.367,6.107c2.955,0,5.359-2.74,5.359-6.107C29.417,26.232,27.014,23.491,24.06,23.491z"/>
	<rect x="10.244" y="28.602" width="6.961" height="2"/>
	<rect x="31.585" y="28.602" width="6.97" height="2"/>
</g>
</svg>
