<?xml version="1.0" encoding="utf-8"?>
<!-- Generator: Adobe Illustrator 16.0.0, SVG Export Plug-In . SVG Version: 6.00 Build 0)  -->
<!DOCTYPE svg PUBLIC "-//W3C//DTD SVG 1.1//EN" "http://www.w3.org/Graphics/SVG/1.1/DTD/svg11.dtd">
<svg version="1.1" id="Layer_1" xmlns="http://www.w3.org/2000/svg" xmlns:xlink="http://www.w3.org/1999/xlink" x="0px" y="0px"
	 width="48px" height="48px" viewBox="0 0 48 48" enable-background="new 0 0 48 48" xml:space="preserve">
<g>
	<path d="M6.646,48c-0.194,0-0.387-0.057-0.554-0.167C5.813,47.647,5.646,47.335,5.646,47V17.546C5.646,7.871,12.638,0,21.232,0
		h5.538c8.593,0,15.584,7.871,15.584,17.546V47c0,0.342-0.175,0.659-0.463,0.844c-0.288,0.183-0.651,0.206-0.959,0.063l-7.151-3.33
		l-8.956,3.36c-0.225,0.083-0.473,0.086-0.699,0.001l-9.082-3.37l-8.011,3.354C6.908,47.975,6.777,48,6.646,48z M15.021,42.492
		c0.118,0,0.235,0.021,0.348,0.063l9.102,3.378l9-3.377c0.25-0.093,0.531-0.083,0.773,0.03l6.109,2.845V17.546
		C40.354,8.974,34.26,2,26.77,2h-5.538C13.741,2,7.646,8.974,7.646,17.546v27.951l6.989-2.927
		C14.758,42.519,14.89,42.492,15.021,42.492z"/>
	<g>
		<path d="M20.166,16.921c0,1.198-0.97,2.175-2.173,2.175c-1.196,0-2.17-0.977-2.17-2.175c0-1.2,0.974-2.173,2.17-2.173
			C19.195,14.748,20.166,15.721,20.166,16.921z"/>
		<path d="M32.178,16.921c0,1.198-0.971,2.175-2.17,2.175s-2.176-0.977-2.176-2.175c0-1.2,0.977-2.173,2.176-2.173
			S32.178,15.721,32.178,16.921z"/>
	</g>
	<path d="M23.907,33.895c-5.733,0-9.592-2.864-9.649-2.907c-0.439-0.335-0.524-0.963-0.189-1.401
		c0.333-0.438,0.959-0.523,1.399-0.191l0,0c0.309,0.232,7.667,5.63,17.152-0.061c0.475-0.284,1.088-0.131,1.372,0.343
		s0.131,1.088-0.343,1.372C30.095,33.182,26.768,33.895,23.907,33.895z"/>
</g>
</svg>
