<?xml version="1.0" encoding="utf-8"?>
<!-- Generator: Adobe Illustrator 16.0.0, SVG Export Plug-In . SVG Version: 6.00 Build 0)  -->
<!DOCTYPE svg PUBLIC "-//W3C//DTD SVG 1.1//EN" "http://www.w3.org/Graphics/SVG/1.1/DTD/svg11.dtd">
<svg version="1.1" id="Layer_1" xmlns="http://www.w3.org/2000/svg" xmlns:xlink="http://www.w3.org/1999/xlink" x="0px" y="0px"
	 width="48px" height="48px" viewBox="0 0 48 48" enable-background="new 0 0 48 48" xml:space="preserve">
<g>
	<path d="M1,47.999c-0.199,0-0.396-0.06-0.564-0.175C0.163,47.638,0,47.329,0,46.999V18.611c0-5.509,4.278-9.992,9.536-9.992h3.233
		c5.258,0,9.536,4.482,9.536,9.992v28.388c0,0.337-0.169,0.65-0.451,0.836c-0.282,0.185-0.636,0.216-0.946,0.082l-4.052-1.753
		l-5.097,1.779c-0.213,0.074-0.443,0.073-0.656,0.001l-5.182-1.787l-4.559,1.773C1.246,47.977,1.123,47.999,1,47.999z M5.901,44.092
		c0.11,0,0.22,0.019,0.326,0.055l5.2,1.794l5.138-1.793c0.236-0.082,0.496-0.073,0.727,0.026l3.013,1.303V18.611
		c0-4.407-3.381-7.992-7.536-7.992H9.536C5.381,10.619,2,14.204,2,18.611v26.926l3.538-1.377
		C5.655,44.114,5.778,44.092,5.901,44.092z"/>
	<g>
		<path d="M8.908,18.27c0,0.653-0.565,1.183-1.27,1.183c-0.703,0-1.268-0.53-1.268-1.183c0-0.649,0.565-1.179,1.268-1.179
			C8.342,17.091,8.908,17.621,8.908,18.27z"/>
		<path d="M15.937,18.27c0,0.653-0.57,1.183-1.272,1.183c-0.705,0-1.272-0.53-1.272-1.183c0-0.649,0.567-1.179,1.272-1.179
			C15.367,17.091,15.937,17.621,15.937,18.27z"/>
	</g>
	<path d="M11.063,27.978c-3.406,0-5.688-1.575-5.83-1.675c-0.451-0.319-0.558-0.943-0.239-1.395c0.318-0.45,0.939-0.559,1.391-0.24
		l0,0c0.173,0.119,4.302,2.91,9.626-0.055c0.484-0.269,1.092-0.097,1.36,0.387c0.269,0.482,0.096,1.091-0.387,1.359
		C14.81,27.571,12.792,27.978,11.063,27.978z"/>
	<path d="M47,46.049c-0.553,0-1-0.447-1-1v-26.44C38.7,9.487,1.27,5.204,0.889,5.161C0.41,5.107,0.038,4.72,0.002,4.24
		C-0.032,3.759,0.28,3.322,0.746,3.2c24.387-6.401,46.274-1.161,46.493-1.107C47.686,2.203,48,2.604,48,3.064v15.193
		c0,0.008,0,0.016,0,0.023v26.768C48,45.602,47.553,46.049,47,46.049z M6.63,3.898C16.814,5.376,38.108,9.154,46,15.791V3.867
		C42.316,3.097,25.771,0.105,6.63,3.898z"/>
	<path d="M35.051,34.939c-0.118,0-0.235-0.002-0.354-0.006c-7.774-0.247-13.325-8.544-13.558-8.897
		c-0.303-0.461-0.176-1.08,0.285-1.384c0.461-0.304,1.082-0.176,1.385,0.283c0.051,0.078,5.223,7.791,11.958,7.999
		c3.706,0.124,7.318-2.095,10.688-6.567c0.331-0.44,0.959-0.53,1.4-0.197c0.441,0.332,0.529,0.96,0.197,1.4
		C43.368,32.462,39.331,34.939,35.051,34.939z"/>
</g>
</svg>
