<?xml version="1.0" encoding="utf-8"?>
<!-- Generator: Adobe Illustrator 16.0.0, SVG Export Plug-In . SVG Version: 6.00 Build 0)  -->
<!DOCTYPE svg PUBLIC "-//W3C//DTD SVG 1.1//EN" "http://www.w3.org/Graphics/SVG/1.1/DTD/svg11.dtd">
<svg version="1.1" id="Layer_1" xmlns="http://www.w3.org/2000/svg" xmlns:xlink="http://www.w3.org/1999/xlink" x="0px" y="0px"
	 width="48px" height="48px" viewBox="0 0 48 48" enable-background="new 0 0 48 48" xml:space="preserve">
<g>
	<path d="M32.35,39.729H15.651c-3.744,0-6.789-2.812-6.789-6.267v-3.272C5.73,26.86,4.01,22.647,4.01,18.28C4.01,8.2,12.978,0,24,0
		c11.023,0,19.991,8.2,19.991,18.28c0,4.372-1.719,8.585-4.851,11.911v3.271C39.141,36.917,36.094,39.729,32.35,39.729z M24,2
		C14.08,2,6.01,9.303,6.01,18.28c0,3.971,1.622,7.809,4.565,10.806l0.287,0.292v4.084c0,2.353,2.148,4.267,4.789,4.267H32.35
		c2.642,0,4.791-1.914,4.791-4.267v-4.084l0.287-0.292c2.942-2.992,4.563-6.83,4.563-10.806C41.991,9.303,33.92,2,24,2z"/>
	<g>
		<path d="M36.491,48H12.21c-1.654,0-3-1.346-3-3v-4.271c0-1.654,1.346-3,3-3h24.281c1.654,0,3,1.346,3,3V45
			C39.491,46.654,38.146,48,36.491,48z M12.21,39.729c-0.551,0-1,0.448-1,1V45c0,0.552,0.449,1,1,1h24.281c0.552,0,1-0.448,1-1
			v-4.271c0-0.552-0.448-1-1-1H12.21z"/>
	</g>
	<g>
		<path d="M17.044,22.395c-3.136,0-5.687-2.364-5.687-5.27c0-2.904,2.551-5.266,5.687-5.266c3.138,0,5.691,2.362,5.691,5.266
			C22.735,20.031,20.182,22.395,17.044,22.395z M17.044,13.859c-2.033,0-3.687,1.465-3.687,3.266c0,1.803,1.654,3.27,3.687,3.27
			c2.035,0,3.691-1.467,3.691-3.27C20.735,15.324,19.079,13.859,17.044,13.859z"/>
		<path d="M30.96,22.395c-3.139,0-5.692-2.364-5.692-5.27c0-2.904,2.554-5.266,5.692-5.266c3.136,0,5.687,2.362,5.687,5.266
			C36.646,20.031,34.096,22.395,30.96,22.395z M30.96,13.859c-2.036,0-3.692,1.465-3.692,3.266c0,1.803,1.656,3.27,3.692,3.27
			c2.033,0,3.687-1.467,3.687-3.27C34.646,15.324,32.993,13.859,30.96,13.859z"/>
	</g>
	<polygon points="24.073,23.966 20.698,29.917 27.309,29.917 	"/>
	<g>
		<path d="M16.394,42.954c-0.552,0-1-0.447-1-1v-6.199c0-0.553,0.448-1,1-1s1,0.447,1,1v6.199
			C17.394,42.507,16.946,42.954,16.394,42.954z"/>
		<path d="M21.468,42.954c-0.552,0-1-0.447-1-1v-6.199c0-0.553,0.448-1,1-1s1,0.447,1,1v6.199
			C22.468,42.507,22.02,42.954,21.468,42.954z"/>
		<path d="M26.538,42.954c-0.553,0-1-0.447-1-1v-6.199c0-0.553,0.447-1,1-1s1,0.447,1,1v6.199
			C27.538,42.507,27.091,42.954,26.538,42.954z"/>
		<path d="M31.609,42.954c-0.553,0-1-0.447-1-1v-6.199c0-0.553,0.447-1,1-1s1,0.447,1,1v6.199
			C32.609,42.507,32.162,42.954,31.609,42.954z"/>
	</g>
</g>
</svg>
