<?xml version="1.0" encoding="utf-8"?>
<!-- Generator: Adobe Illustrator 16.0.0, SVG Export Plug-In . SVG Version: 6.00 Build 0)  -->
<!DOCTYPE svg PUBLIC "-//W3C//DTD SVG 1.1//EN" "http://www.w3.org/Graphics/SVG/1.1/DTD/svg11.dtd">
<svg version="1.1" id="Layer_1" xmlns="http://www.w3.org/2000/svg" xmlns:xlink="http://www.w3.org/1999/xlink" x="0px" y="0px"
	 width="48px" height="48px" viewBox="0 0 48 48" enable-background="new 0 0 48 48" xml:space="preserve">
<g>
	<path d="M20.164,14.083c0,1.196-0.972,2.166-2.173,2.166c-1.201,0-2.17-0.97-2.17-2.166c0-1.206,0.97-2.179,2.17-2.179
		C19.192,11.905,20.164,12.878,20.164,14.083z"/>
	<path d="M32.173,14.083c0,1.196-0.97,2.166-2.167,2.166c-1.195,0-2.174-0.97-2.174-2.166c0-1.206,0.979-2.179,2.174-2.179
		C31.203,11.905,32.173,12.878,32.173,14.083z"/>
	<path d="M25.746,21.829c0,1.198-0.971,2.175-2.165,2.175c-1.202,0-2.179-0.977-2.179-2.175c0-1.2,0.977-2.173,2.179-2.173
		C24.775,19.656,25.746,20.629,25.746,21.829z"/>
	<path d="M23.997,48C13.371,48,5.279,28.481,5.279,18.714C5.279,8.395,13.676,0,23.997,0c10.324,0,18.724,8.395,18.724,18.714
		C42.721,28.481,34.626,48,23.997,48z M23.997,2C14.779,2,7.279,9.498,7.279,18.714C7.279,27.935,14.848,46,23.997,46
		c9.152,0,16.724-18.065,16.724-27.286C40.721,9.498,33.219,2,23.997,2z"/>
	<path d="M31.66,30.486H16.212c-0.552,0-1-0.447-1-1s0.448-1,1-1H31.66c0.553,0,1,0.447,1,1S32.213,30.486,31.66,30.486z"/>
	<path d="M31.66,36.165H16.212c-0.552,0-1-0.447-1-1s0.448-1,1-1H31.66c0.553,0,1,0.447,1,1S32.213,36.165,31.66,36.165z"/>
</g>
</svg>
