<?xml version="1.0" encoding="utf-8"?>
<!-- Generator: Adobe Illustrator 16.0.0, SVG Export Plug-In . SVG Version: 6.00 Build 0)  -->
<!DOCTYPE svg PUBLIC "-//W3C//DTD SVG 1.1//EN" "http://www.w3.org/Graphics/SVG/1.1/DTD/svg11.dtd">
<svg version="1.1" id="Layer_1" xmlns="http://www.w3.org/2000/svg" xmlns:xlink="http://www.w3.org/1999/xlink" x="0px" y="0px"
	 width="48px" height="48px" viewBox="0 0 48 48" enable-background="new 0 0 48 48" xml:space="preserve">
<g>
	<path d="M19.03,35.757l-4.434-3.037c-0.456-0.313-0.572-0.935-0.26-1.391c0.313-0.454,0.936-0.57,1.39-0.26L19.1,33.38l4.941-2.976
		l4.61,3.006l3.724-1.95c0.49-0.259,1.094-0.066,1.35,0.422c0.257,0.489,0.067,1.094-0.422,1.35l-4.763,2.495l-4.541-2.963
		L19.03,35.757z"/>
	<path d="M20.167,14.083c0,1.194-0.973,2.166-2.177,2.166c-1.198,0-2.166-0.971-2.166-2.166c0-1.206,0.968-2.179,2.166-2.179
		C19.194,11.905,20.167,12.878,20.167,14.083z"/>
	<path d="M32.175,14.083c0,1.194-0.968,2.166-2.167,2.166s-2.174-0.971-2.174-2.166c0-1.206,0.975-2.179,2.174-2.179
		C31.207,11.905,32.175,12.878,32.175,14.083z"/>
	<path d="M25.749,24.002c0,1.196-0.972,2.169-2.169,2.169c-1.2,0-2.173-0.973-2.173-2.169c0-1.204,0.973-2.175,2.173-2.175
		C24.777,21.827,25.749,22.798,25.749,24.002z"/>
	<path d="M24,48C13.374,48,5.281,28.481,5.281,18.714C5.281,8.395,13.678,0,24,0c3.047,0,6.078,0.755,8.766,2.183
		c0.344,0.183,0.551,0.548,0.53,0.937l-0.013,0.227c-0.025,0.453-0.051,0.91-0.051,1.328c0,0.456-0.016,0.897-0.03,1.329
		c-0.063,1.779-0.111,3.185,1,4.571c1.68,2.091,3.657,3.855,5.29,4.718c0.662,0.35,1.367,0.568,2.287,0.708
		c0.45,0.068,0.798,0.433,0.845,0.887c0.063,0.624,0.095,1.222,0.095,1.828C42.719,28.481,34.626,48,24,48z M24,2
		C14.781,2,7.281,9.498,7.281,18.714C7.281,27.935,14.851,46,24,46s16.719-18.065,16.719-27.286c0-0.294-0.008-0.587-0.025-0.882
		c-0.795-0.175-1.475-0.422-2.135-0.771c-2.76-1.458-5.227-4.375-5.916-5.235c-1.576-1.965-1.507-3.961-1.439-5.892
		c0.015-0.409,0.029-0.828,0.029-1.259c0-0.321,0.014-0.664,0.031-1.011C29.008,2.573,26.51,2,24,2z"/>
</g>
</svg>
