<?xml version="1.0" encoding="utf-8"?>
<!-- Generator: Adobe Illustrator 16.0.0, SVG Export Plug-In . SVG Version: 6.00 Build 0)  -->
<!DOCTYPE svg PUBLIC "-//W3C//DTD SVG 1.1//EN" "http://www.w3.org/Graphics/SVG/1.1/DTD/svg11.dtd">
<svg version="1.1" id="Layer_1" xmlns="http://www.w3.org/2000/svg" xmlns:xlink="http://www.w3.org/1999/xlink" x="0px" y="0px"
	 width="48px" height="48px" viewBox="0 0 48 48" enable-background="new 0 0 48 48" xml:space="preserve">
<g>
	<rect y="7.506" width="48" height="2"/>
	<g>
		<rect x="3.945" y="3.977" width="2" height="9.056"/>
		<rect x="7.17" width="2" height="17.012"/>
		<rect x="42.055" y="3.977" width="2" height="9.056"/>
		<rect x="38.83" width="2" height="17.012"/>
	</g>
	<path d="M24,20.039c-2.466,0-4.473-2.204-4.473-4.912s2.007-4.912,4.473-4.912c2.466,0,4.473,2.204,4.473,4.912
		S26.466,20.039,24,20.039z M24,12.215c-1.364,0-2.473,1.306-2.473,2.912s1.109,2.912,2.473,2.912c1.363,0,2.473-1.306,2.473-2.912
		S25.363,12.215,24,12.215z"/>
	<g>
		<path d="M23.756,25.06c-7.298-2.194-11.623-5.322-12.852-9.297c-1.312-4.244,1.454-7.738,1.572-7.884l1.559,1.253
			c-0.022,0.028-2.221,2.842-1.214,6.06c1.016,3.245,4.996,5.995,11.511,7.953L23.756,25.06z"/>
		<path d="M24.244,25.06l-0.576-1.915c6.515-1.958,10.495-4.708,11.511-7.953c1.007-3.218-1.191-6.032-1.214-6.06l1.559-1.253
			c0.118,0.146,2.884,3.64,1.572,7.884C35.866,19.738,31.543,22.866,24.244,25.06z"/>
	</g>
	<rect x="23" y="19.039" width="2" height="14.604"/>
	<g>
		<path d="M15.04,48.265c-0.031-0.112-2.947-11.283,8.613-15.56l0.694,1.875c-9.861,3.648-7.485,12.769-7.379,13.155L15.04,48.265z"
			/>
		<path d="M32.961,48.265l-1.93-0.529L31.996,48l-0.965-0.263c0.104-0.387,2.44-9.524-7.378-13.157l0.694-1.875
			C35.907,36.981,32.991,48.152,32.961,48.265z"/>
	</g>
</g>
</svg>
