<?xml version="1.0" encoding="utf-8"?>
<!-- Generator: Adobe Illustrator 16.0.0, SVG Export Plug-In . SVG Version: 6.00 Build 0)  -->
<!DOCTYPE svg PUBLIC "-//W3C//DTD SVG 1.1//EN" "http://www.w3.org/Graphics/SVG/1.1/DTD/svg11.dtd">
<svg version="1.1" id="Layer_1" xmlns="http://www.w3.org/2000/svg" xmlns:xlink="http://www.w3.org/1999/xlink" x="0px" y="0px"
	 width="48px" height="48px" viewBox="0 0 48 48" enable-background="new 0 0 48 48" xml:space="preserve">
<g>
	<path d="M44.631,48h-4.008c-1.858,0-3.37-1.642-3.37-3.66V21.66c0-2.018,1.512-3.66,3.37-3.66h4.008C46.488,18,48,19.642,48,21.66
		v22.68C48,46.358,46.488,48,44.631,48z M40.623,20c-0.743,0-1.37,0.76-1.37,1.66v22.68c0,0.899,0.627,1.66,1.37,1.66h4.008
		C45.373,46,46,45.239,46,44.34V21.66c0-0.9-0.627-1.66-1.369-1.66H40.623z"/>
	<path d="M7.377,48H3.37C1.512,48,0,46.358,0,44.34V21.66C0,19.642,1.512,18,3.37,18h4.007c1.858,0,3.37,1.642,3.37,3.66v22.68
		C10.747,46.358,9.235,48,7.377,48z M3.37,20C2.627,20,2,20.76,2,21.66v22.68C2,45.239,2.627,46,3.37,46h4.007
		c0.743,0,1.37-0.761,1.37-1.66V21.66c0-0.9-0.627-1.66-1.37-1.66H3.37z"/>
	<path d="M45.57,19.092h-2C43.57,9.667,34.827,2,24.081,2C13.334,2,4.592,9.667,4.592,19.092h-2C2.592,8.564,12.232,0,24.081,0
		C35.931,0,45.57,8.564,45.57,19.092z"/>
	<rect x="9.747" y="24.184" width="28.506" height="2"/>
	<rect x="9.747" y="33.093" width="28.506" height="2"/>
	<rect x="9.747" y="42.365" width="28.506" height="2"/>
</g>
</svg>
