<?xml version="1.0" encoding="utf-8"?>
<!-- Generator: Adobe Illustrator 16.0.0, SVG Export Plug-In . SVG Version: 6.00 Build 0)  -->
<!DOCTYPE svg PUBLIC "-//W3C//DTD SVG 1.1//EN" "http://www.w3.org/Graphics/SVG/1.1/DTD/svg11.dtd">
<svg version="1.1" id="Layer_1" xmlns="http://www.w3.org/2000/svg" xmlns:xlink="http://www.w3.org/1999/xlink" x="0px" y="0px"
	 width="48px" height="48px" viewBox="0 0 48 48" enable-background="new 0 0 48 48" xml:space="preserve">
<g>
	<path d="M1,36.891c-0.25,0-0.499-0.093-0.693-0.278c-0.398-0.383-0.411-1.016-0.028-1.414l22.839-23.782
		c0.188-0.196,0.448-0.307,0.72-0.307c0,0,0.001,0,0.001,0c0.271,0,0.531,0.11,0.72,0.306c8.74,9.054,21.998,22.729,23.017,23.625
		c0.354,0.249,0.519,0.71,0.371,1.141c-0.178,0.522-0.745,0.808-1.269,0.624c-0.295-0.1-0.572-0.193-22.837-23.253L1.721,36.583
		C1.525,36.788,1.263,36.891,1,36.891z"/>
</g>
</svg>
