<?xml version="1.0" encoding="utf-8"?>
<!-- Generator: Adobe Illustrator 16.0.0, SVG Export Plug-In . SVG Version: 6.00 Build 0)  -->
<!DOCTYPE svg PUBLIC "-//W3C//DTD SVG 1.1//EN" "http://www.w3.org/Graphics/SVG/1.1/DTD/svg11.dtd">
<svg version="1.1" id="Layer_1" xmlns="http://www.w3.org/2000/svg" xmlns:xlink="http://www.w3.org/1999/xlink" x="0px" y="0px"
	 width="48px" height="48px" viewBox="0 0 48 48" enable-background="new 0 0 48 48" xml:space="preserve">
<g>
	<g>
		<path d="M19.316,20.187c-0.256,0-0.512-0.098-0.707-0.293L2.05,3.332c-0.391-0.391-0.391-1.024,0-1.414
			c0.391-0.391,1.023-0.391,1.414,0L20.023,18.48c0.391,0.391,0.391,1.024,0,1.414C19.828,20.089,19.572,20.187,19.316,20.187z"/>
		<path d="M1.297,18.749c-0.544,0-0.99-0.436-1-0.982L0,1.02c-0.005-0.271,0.101-0.532,0.292-0.724C0.483,0.104,0.731,0,1.015,0.002
			C7.306,0.096,16.862,0.22,17.734,0.178c0.419-0.061,0.838,0.148,1.036,0.543c0.247,0.494,0.047,1.095-0.447,1.342
			c-0.283,0.14-0.38,0.191-16.304-0.045l0.28,15.714c0.01,0.552-0.43,1.008-0.982,1.018C1.31,18.749,1.304,18.749,1.297,18.749z"/>
	</g>
	<g>
		<path d="M45.25,46.368c-0.256,0-0.512-0.098-0.707-0.293L27.982,29.523c-0.391-0.391-0.391-1.023,0-1.414s1.023-0.391,1.414,0
			l16.561,16.552c0.391,0.391,0.391,1.023,0,1.414C45.762,46.271,45.506,46.368,45.25,46.368z"/>
		<path d="M47,47.998c-0.005,0-0.01,0-0.016,0c-6.299-0.096-15.863-0.222-16.722-0.183c-0.433,0.056-0.856-0.166-1.044-0.575
			c-0.229-0.502-0.009-1.096,0.493-1.325c0.27-0.125,0.374-0.173,16.271,0.067l-0.274-15.711c-0.01-0.553,0.431-1.008,0.982-1.018
			c0.528,0.019,1.008,0.431,1.018,0.982L48,46.98c0.005,0.271-0.101,0.532-0.292,0.724C47.521,47.893,47.266,47.998,47,47.998z"/>
	</g>
</g>
</svg>
