<?xml version="1.0" encoding="utf-8"?>
<!-- Generator: Adobe Illustrator 16.0.0, SVG Export Plug-In . SVG Version: 6.00 Build 0)  -->
<!DOCTYPE svg PUBLIC "-//W3C//DTD SVG 1.1//EN" "http://www.w3.org/Graphics/SVG/1.1/DTD/svg11.dtd">
<svg version="1.1" id="Layer_1" xmlns="http://www.w3.org/2000/svg" xmlns:xlink="http://www.w3.org/1999/xlink" x="0px" y="0px"
	 width="48px" height="48px" viewBox="0 0 48 48" enable-background="new 0 0 48 48" xml:space="preserve">
<g>
	<g>
		<path d="M17.56,18.554c-0.256,0-0.512-0.098-0.707-0.293L0.293,1.707c-0.391-0.39-0.391-1.023,0-1.414
			c0.39-0.391,1.023-0.391,1.414,0l16.56,16.554c0.391,0.39,0.391,1.023,0,1.414C18.072,18.457,17.816,18.554,17.56,18.554z"/>
		<path d="M19.316,20.186c-0.005,0-0.01,0-0.015,0C13.006,20.09,3.449,19.967,2.58,20.003c-0.414,0.056-0.842-0.154-1.037-0.554
			c-0.241-0.497-0.034-1.095,0.463-1.336c0.279-0.136,0.378-0.183,16.292,0.058L18.02,2.456c-0.01-0.552,0.43-1.008,0.982-1.018
			c0.502-0.009,1.008,0.43,1.018,0.982l0.296,16.748c0.004,0.271-0.101,0.532-0.292,0.724
			C19.836,20.081,19.582,20.186,19.316,20.186z"/>
	</g>
	<g>
		<path d="M47,48c-0.256,0-0.512-0.098-0.707-0.293L29.73,31.145c-0.391-0.391-0.391-1.023,0-1.414s1.023-0.391,1.414,0
			l16.563,16.563c0.391,0.391,0.391,1.023,0,1.414C47.512,47.902,47.256,48,47,48z"/>
		<path d="M28.982,46.563c-0.545,0-0.99-0.437-1-0.982l-0.293-16.746c-0.005-0.271,0.101-0.532,0.292-0.724s0.449-0.274,0.723-0.294
			c6.291,0.095,15.844,0.221,16.718,0.178c0.425-0.064,0.85,0.155,1.043,0.56c0.238,0.498,0.027,1.095-0.472,1.333
			c-0.274,0.132-0.378,0.182-16.286-0.055l0.275,15.713c0.01,0.553-0.431,1.008-0.982,1.018
			C28.994,46.563,28.988,46.563,28.982,46.563z"/>
	</g>
	<g>
		<path d="M30.438,18.563c-0.256,0-0.512-0.098-0.707-0.293c-0.391-0.391-0.391-1.023,0-1.414L46.293,0.293
			c0.391-0.391,1.023-0.391,1.414,0s0.391,1.023,0,1.414L31.145,18.27C30.949,18.465,30.693,18.563,30.438,18.563z"/>
		<path d="M28.814,20.312c-0.265,0-0.519-0.105-0.706-0.292c-0.192-0.191-0.298-0.452-0.294-0.723
			c0.095-6.287,0.219-15.839,0.176-16.716c-0.06-0.417,0.149-0.843,0.547-1.04c0.497-0.246,1.095-0.042,1.34,0.453
			c0.142,0.286,0.191,0.387-0.047,16.299l15.715-0.276c0.572,0.01,1.008,0.43,1.018,0.982s-0.431,1.008-0.982,1.018l-16.748,0.294
			C28.826,20.312,28.82,20.312,28.814,20.312z"/>
	</g>
	<g>
		<path d="M1,48c-0.256,0-0.512-0.098-0.707-0.293c-0.391-0.391-0.391-1.023,0-1.414L16.848,29.73c0.39-0.391,1.023-0.391,1.414,0
			s0.391,1.023,0,1.414L1.707,47.707C1.512,47.902,1.256,48,1,48z"/>
		<path d="M19.014,46.557c-0.372,0-0.729-0.208-0.901-0.565c-0.135-0.279-0.182-0.377,0.057-16.29L2.456,29.977
			c-0.545,0.02-1.008-0.431-1.018-0.982c-0.009-0.553,0.43-1.008,0.982-1.018l16.747-0.293c0.251-0.015,0.532,0.1,0.724,0.292
			c0.192,0.191,0.298,0.452,0.294,0.724c-0.095,6.295-0.221,15.855-0.181,16.72c0.058,0.419-0.155,0.845-0.556,1.038
			C19.308,46.524,19.16,46.557,19.014,46.557z"/>
	</g>
</g>
</svg>
