<?xml version="1.0" encoding="utf-8"?>
<!-- Generator: Adobe Illustrator 16.0.0, SVG Export Plug-In . SVG Version: 6.00 Build 0)  -->
<!DOCTYPE svg PUBLIC "-//W3C//DTD SVG 1.1//EN" "http://www.w3.org/Graphics/SVG/1.1/DTD/svg11.dtd">
<svg version="1.1" id="Layer_1" xmlns="http://www.w3.org/2000/svg" xmlns:xlink="http://www.w3.org/1999/xlink" x="0px" y="0px"
	 width="48px" height="48px" viewBox="0 0 48 48" enable-background="new 0 0 48 48" xml:space="preserve">
<g>
	<path d="M24.005,48c-0.552,0-1-0.447-1-1l-0.01-43.765c0-0.552,0.447-1,1-1c0.552,0,1,0.447,1,1L25.005,47
		C25.005,47.552,24.558,48,24.005,48z"/>
	<path d="M34.48,13.298c-0.27,0-0.538-0.108-0.735-0.323L24.074,2.474c-9.829,10.609-9.915,10.641-10.212,10.749
		c-0.518,0.188-1.093-0.078-1.282-0.597c-0.151-0.414-0.011-0.864,0.315-1.125c0.592-0.568,6.541-6.964,10.448-11.181
		C23.532,0.116,23.798,0,24.076,0c0,0,0.001,0,0.001,0c0.279,0,0.545,0.117,0.734,0.323l10.404,11.298
		c0.374,0.406,0.349,1.039-0.058,1.413C34.966,13.21,34.723,13.298,34.48,13.298z"/>
	<path d="M23.92,48c0,0-0.001,0-0.001,0c-0.279,0-0.545-0.117-0.734-0.322L12.783,36.38c-0.374-0.407-0.348-1.039,0.059-1.413
		c0.407-0.376,1.04-0.348,1.413,0.058l9.667,10.502c9.827-10.607,9.92-10.643,10.211-10.75c0.518-0.189,1.094,0.073,1.285,0.592
		c0.153,0.416,0.013,0.868-0.316,1.13c-0.595,0.568-6.543,6.965-10.449,11.182C24.464,47.884,24.198,48,23.92,48z"/>
</g>
</svg>
