<?xml version="1.0" encoding="utf-8"?>
<!-- Generator: Adobe Illustrator 16.0.0, SVG Export Plug-In . SVG Version: 6.00 Build 0)  -->
<!DOCTYPE svg PUBLIC "-//W3C//DTD SVG 1.1//EN" "http://www.w3.org/Graphics/SVG/1.1/DTD/svg11.dtd">
<svg version="1.1" id="Layer_1" xmlns="http://www.w3.org/2000/svg" xmlns:xlink="http://www.w3.org/1999/xlink" x="0px" y="0px"
	 width="48px" height="48px" viewBox="0 0 48 48" enable-background="new 0 0 48 48" xml:space="preserve">
<g>
	<path d="M44.764,25.001H1c-0.552,0-1-0.447-1-1c0-0.552,0.448-1,1-1h43.764c0.553,0,1,0.448,1,1
		C45.764,24.554,45.316,25.001,44.764,25.001z"/>
	<path d="M35.706,35.48c-0.27,0-0.538-0.108-0.735-0.322c-0.374-0.406-0.349-1.039,0.058-1.413l10.498-9.671
		C34.91,14.243,34.88,14.157,34.772,13.856c-0.187-0.52,0.085-1.093,0.604-1.278c0.416-0.149,0.861-0.006,1.12,0.319
		c0.57,0.596,6.966,6.542,11.183,10.446c0.204,0.189,0.32,0.456,0.32,0.735c0,0.279-0.117,0.545-0.322,0.734L36.384,35.216
		C36.191,35.393,35.948,35.48,35.706,35.48z"/>
	<path d="M12.283,35.48c-0.303,0-0.592-0.139-0.782-0.376c-0.566-0.592-6.963-6.543-11.181-10.451C0.116,24.464,0,24.197,0,23.918
		s0.117-0.545,0.323-0.734l11.294-10.401c0.407-0.376,1.04-0.348,1.413,0.058c0.375,0.406,0.348,1.039-0.058,1.413L2.474,23.922
		c10.603,9.827,10.637,9.918,10.746,10.206c0.194,0.517-0.067,1.094-0.583,1.288C12.52,35.46,12.4,35.48,12.283,35.48z"/>
</g>
</svg>
