<?xml version="1.0" encoding="utf-8"?>
<!-- Generator: Adobe Illustrator 16.0.0, SVG Export Plug-In . SVG Version: 6.00 Build 0)  -->
<!DOCTYPE svg PUBLIC "-//W3C//DTD SVG 1.1//EN" "http://www.w3.org/Graphics/SVG/1.1/DTD/svg11.dtd">
<svg version="1.1" id="Layer_1" xmlns="http://www.w3.org/2000/svg" xmlns:xlink="http://www.w3.org/1999/xlink" x="0px" y="0px"
	 width="48px" height="48px" viewBox="0 0 48 48" enable-background="new 0 0 48 48" xml:space="preserve">
<g>
	<g>
		<path d="M47.001,27.539c-0.553,0-1-0.447-1-1v-8.636c0-5.968-5.187-6.349-5.407-6.363L2.933,11.542c-0.552,0-1-0.448-1-1
			s0.448-1,1-1h37.721c2.58,0.154,7.347,2.097,7.347,8.361v8.636C48.001,27.092,47.554,27.539,47.001,27.539z"/>
		<path d="M10.729,21.086c-0.313,0-0.609-0.148-0.797-0.396c-0.515-0.565-6.01-5.958-9.63-9.497C0.108,11.005,0,10.747,0,10.477
			s0.109-0.528,0.303-0.716l9.741-9.477c0.395-0.384,1.027-0.376,1.414,0.02c0.385,0.396,0.376,1.029-0.02,1.414l-9.006,8.762
			c9.123,8.917,9.146,8.987,9.247,9.293c0.173,0.524-0.112,1.09-0.636,1.263C10.938,21.07,10.833,21.086,10.729,21.086z"/>
	</g>
	<g>
		<path d="M7.348,38.459C4.767,38.306,0,36.363,0,30.098v-8.637c0-0.552,0.448-1,1-1s1,0.448,1,1v8.637
			c0,5.969,5.187,6.35,5.407,6.363l37.663-0.012c0.552,0,1,0.447,1,1c0,0.552-0.447,1-1,1L7.348,38.459z"/>
		<path d="M37.262,47.999c-0.261,0-0.521-0.102-0.717-0.303c-0.385-0.396-0.376-1.029,0.02-1.414l9.003-8.759
			c-9.116-8.917-9.14-8.983-9.241-9.278c-0.18-0.522,0.098-1.092,0.619-1.271c0.419-0.143,0.866,0.005,1.12,0.337
			c0.507,0.555,6.008,5.955,9.634,9.5C47.892,36.999,48,37.257,48,37.526s-0.109,0.528-0.303,0.716l-9.738,9.474
			C37.765,47.905,37.513,47.999,37.262,47.999z"/>
	</g>
</g>
</svg>
