<?xml version="1.0" encoding="utf-8"?>
<!-- Generator: Adobe Illustrator 16.0.0, SVG Export Plug-In . SVG Version: 6.00 Build 0)  -->
<!DOCTYPE svg PUBLIC "-//W3C//DTD SVG 1.1//EN" "http://www.w3.org/Graphics/SVG/1.1/DTD/svg11.dtd">
<svg version="1.1" id="Layer_1" xmlns="http://www.w3.org/2000/svg" xmlns:xlink="http://www.w3.org/1999/xlink" x="0px" y="0px"
	 width="48px" height="48px" viewBox="0 0 48 48" enable-background="new 0 0 48 48" xml:space="preserve">
<g>
	<path d="M41.25,48H6.749C3.028,48,0,44.971,0,41.248V12.642c0-3.722,3.028-6.75,6.749-6.75h37.665c0.553,0,1,0.448,1,1
		s-0.447,1-1,1H6.749C4.13,7.892,2,10.023,2,12.642v28.606C2,43.868,4.13,46,6.749,46H41.25c2.619,0,4.75-2.132,4.75-4.752V16.337
		c0-0.552,0.447-1,1-1s1,0.448,1,1v24.911C48,44.971,44.972,48,41.25,48z"/>
	<path d="M38.725,14.535c-0.271,0-0.54-0.109-0.737-0.324c-0.373-0.407-0.346-1.04,0.062-1.413l6.393-5.86l-6.348-5.162
		c-0.429-0.349-0.493-0.978-0.145-1.407c0.348-0.428,0.978-0.494,1.406-0.145l7.246,5.892c0.226,0.184,0.36,0.456,0.369,0.746
		c0.008,0.291-0.11,0.57-0.324,0.767L39.4,14.272C39.208,14.448,38.966,14.535,38.725,14.535z"/>
</g>
</svg>
