<?xml version="1.0" encoding="utf-8"?>
<!-- Generator: Adobe Illustrator 16.0.0, SVG Export Plug-In . SVG Version: 6.00 Build 0)  -->
<!DOCTYPE svg PUBLIC "-//W3C//DTD SVG 1.1//EN" "http://www.w3.org/Graphics/SVG/1.1/DTD/svg11.dtd">
<svg version="1.1" id="Layer_1" xmlns="http://www.w3.org/2000/svg" xmlns:xlink="http://www.w3.org/1999/xlink" x="0px" y="0px"
	 width="48px" height="48px" viewBox="0 0 48 48" enable-background="new 0 0 48 48" xml:space="preserve">
<g>
	<g>
		<path d="M39.891,25H6.402c-0.552,0-1-0.447-1-1c0-0.552,0.448-1,1-1h33.489c0.553,0,1,0.448,1,1
			C40.891,24.553,40.443,25,39.891,25z"/>
		<path d="M32.959,33.018c-0.27,0-0.538-0.108-0.735-0.322c-0.374-0.406-0.349-1.039,0.058-1.413l7.845-7.225
			c-7.941-7.368-7.967-7.425-8.076-7.669c-0.226-0.504,0.001-1.096,0.506-1.321c0.418-0.187,0.895-0.063,1.174,0.27
			c0.458,0.469,5.336,5.008,8.55,7.989c0.205,0.19,0.32,0.456,0.32,0.735c-0.001,0.279-0.117,0.544-0.322,0.734l-8.641,7.957
			C33.444,32.93,33.201,33.018,32.959,33.018z"/>
		<path d="M15.037,33.02c-0.299,0-0.585-0.135-0.775-0.367c-0.479-0.494-5.34-5.016-8.54-7.979c-0.205-0.19-0.321-0.457-0.32-0.735
			c0-0.279,0.118-0.545,0.323-0.734l8.648-7.957c0.407-0.375,1.04-0.348,1.413,0.059c0.374,0.407,0.348,1.039-0.059,1.413
			l-7.851,7.224c7.969,7.384,7.988,7.436,8.098,7.727c0.194,0.518-0.068,1.094-0.585,1.288C15.272,32.999,15.154,33.02,15.037,33.02
			z"/>
	</g>
	<g>
		<path d="M1,47.998c-0.552,0-1-0.447-1-1V1.002c0-0.552,0.448-1,1-1s1,0.448,1,1v45.996C2,47.551,1.552,47.998,1,47.998z"/>
		<path d="M47,47.998c-0.553,0-1-0.447-1-1V1.002c0-0.552,0.447-1,1-1s1,0.448,1,1v45.996C48,47.551,47.553,47.998,47,47.998z"/>
	</g>
</g>
</svg>
