<?xml version="1.0" encoding="utf-8"?>
<!-- Generator: Adobe Illustrator 16.0.0, SVG Export Plug-In . SVG Version: 6.00 Build 0)  -->
<!DOCTYPE svg PUBLIC "-//W3C//DTD SVG 1.1//EN" "http://www.w3.org/Graphics/SVG/1.1/DTD/svg11.dtd">
<svg version="1.1" id="Layer_1" xmlns="http://www.w3.org/2000/svg" xmlns:xlink="http://www.w3.org/1999/xlink" x="0px" y="0px"
	 width="48px" height="48px" viewBox="0 0 48 48" enable-background="new 0 0 48 48" xml:space="preserve">
<g>
	<path d="M23.4,25.002c-0.553,0-1-0.447-1-1c0-0.553,0.447-1,1-1l21.731-0.006c0.552,0,1,0.447,1,1s-0.447,1-1,1L23.4,25.002z"/>
	<path d="M37.564,33.753c-0.27,0-0.538-0.108-0.735-0.322c-0.374-0.406-0.349-1.039,0.058-1.413l8.64-7.957
		c-8.752-8.113-8.776-8.176-8.885-8.455c-0.2-0.515,0.054-1.095,0.568-1.295c0.412-0.161,0.872-0.028,1.138,0.299
		c0.501,0.517,5.824,5.47,9.332,8.72c0.205,0.189,0.32,0.456,0.32,0.735s-0.117,0.545-0.322,0.734l-9.436,8.689
		C38.05,33.665,37.807,33.753,37.564,33.753z"/>
	<path d="M12.851,36.706H1c-0.552,0-1-0.447-1-1s0.448-1,1-1h11.851c5.265,0,9.549-4.284,9.549-9.55v-2.313
		c0-5.265-4.284-9.549-9.549-9.549H1c-0.552,0-1-0.448-1-1s0.448-1,1-1h11.851c6.368,0,11.549,5.181,11.549,11.549v2.313
		C24.4,31.524,19.219,36.706,12.851,36.706z"/>
</g>
</svg>
