<?xml version="1.0" encoding="utf-8"?>
<!-- Generator: Adobe Illustrator 16.0.0, SVG Export Plug-In . SVG Version: 6.00 Build 0)  -->
<!DOCTYPE svg PUBLIC "-//W3C//DTD SVG 1.1//EN" "http://www.w3.org/Graphics/SVG/1.1/DTD/svg11.dtd">
<svg version="1.1" id="Layer_1" xmlns="http://www.w3.org/2000/svg" xmlns:xlink="http://www.w3.org/1999/xlink" x="0px" y="0px"
	 width="48px" height="48px" viewBox="0 0 48 48" enable-background="new 0 0 48 48" xml:space="preserve">
<g>
	<g>
		<g>
			<path d="M24.005,33.35c-0.552,0-1-0.447-1-1V2.69c0-0.552,0.448-1,1-1c0.553,0,1,0.448,1,1v29.66
				C25.005,32.902,24.558,33.35,24.005,33.35z"/>
			<path d="M32.287,10.52c-0.096,0-0.194-0.014-0.291-0.044c-0.327-0.1-0.369-0.112-8.058-8.036l-7.509,7.774
				c-0.383,0.398-1.016,0.408-1.414,0.024c-0.397-0.384-0.408-1.017-0.024-1.414l8.227-8.517c0.188-0.195,0.447-0.305,0.718-0.305
				c0,0,0,0,0.001,0c0.271,0,0.529,0.109,0.717,0.304c3.06,3.154,7.728,7.945,8.243,8.421c0.32,0.247,0.471,0.674,0.347,1.084
				C33.112,10.242,32.716,10.52,32.287,10.52z"/>
		</g>
		<g>
			<path d="M24.002,46.313c-0.552,0-1-0.447-1-1L22.999,28.75c0-0.552,0.448-1,1-1c0.552,0,1,0.447,1,1l0.003,16.563
				C25.002,45.864,24.555,46.313,24.002,46.313z"/>
			<path d="M24.065,47.998c-0.271,0-0.529-0.109-0.717-0.304c-3.072-3.163-7.755-7.968-8.255-8.431
				C14.757,39,14.616,38.54,14.776,38.12c0.196-0.517,0.774-0.776,1.291-0.578c0.269,0.103,0.331,0.127,7.996,8.019l7.505-7.778
				c0.384-0.396,1.017-0.409,1.414-0.025s0.409,1.017,0.025,1.414l-8.223,8.521c-0.188,0.195-0.447,0.306-0.718,0.306
				C24.066,47.998,24.065,47.998,24.065,47.998z"/>
		</g>
	</g>
	<g>
		<g>
			<path d="M45.311,25H17.863c-0.552,0-1-0.447-1-1c0-0.552,0.448-1,1-1h27.448c0.553,0,1,0.448,1,1
				C46.311,24.553,45.863,25,45.311,25z"/>
			<path d="M38.479,33.288c-0.104,0-0.208-0.016-0.312-0.05c-0.525-0.173-0.811-0.737-0.639-1.262
				c0.101-0.308,0.118-0.362,8.033-8.038l-7.777-7.507c-0.397-0.384-0.409-1.017-0.025-1.414c0.385-0.398,1.017-0.408,1.414-0.025
				l8.521,8.225C47.89,23.406,48,23.665,48,23.936s-0.109,0.53-0.304,0.719c-3.155,3.059-7.95,7.728-8.425,8.243
				C39.082,33.144,38.788,33.288,38.479,33.288z"/>
		</g>
		<g>
			<path d="M2.689,25c-0.552,0-1-0.447-1-1s0.447-1,1-1l16.56-0.006h0c0.552,0,1,0.447,1,1s-0.447,1-1,1L2.689,25L2.689,25z"/>
			<path d="M9.52,33.287c-0.25,0-0.5-0.093-0.694-0.28l-8.52-8.226C0.11,24.594,0,24.334,0,24.063c0-0.271,0.109-0.53,0.304-0.719
				c3.165-3.071,7.97-7.752,8.433-8.25c0.262-0.333,0.718-0.474,1.138-0.318c0.517,0.194,0.779,0.771,0.585,1.288
				c-0.104,0.276-0.125,0.332-8.021,7.997l7.776,7.507c0.397,0.384,0.409,1.017,0.025,1.414C10.043,33.185,9.782,33.287,9.52,33.287
				z"/>
		</g>
	</g>
</g>
</svg>
