<?xml version="1.0" encoding="utf-8"?>
<!-- Generator: Adobe Illustrator 16.0.0, SVG Export Plug-In . SVG Version: 6.00 Build 0)  -->
<!DOCTYPE svg PUBLIC "-//W3C//DTD SVG 1.1//EN" "http://www.w3.org/Graphics/SVG/1.1/DTD/svg11.dtd">
<svg version="1.1" id="Layer_1" xmlns="http://www.w3.org/2000/svg" xmlns:xlink="http://www.w3.org/1999/xlink" x="0px" y="0px"
	 width="48px" height="48px" viewBox="0 0 48 48" enable-background="new 0 0 48 48" xml:space="preserve">
<g>
	<path d="M24,48C10.767,48,0,37.233,0,24S10.767,0,24,0s24,10.767,24,24S37.233,48,24,48z M24,2C11.869,2,2,11.869,2,24
		s9.869,22,22,22s22-9.869,22-22S36.131,2,24,2z"/>
	<path d="M21.9,39.01c-0.26,0-0.516-0.102-0.707-0.293L7.181,24.707C6.994,24.52,6.888,24.265,6.888,24s0.105-0.52,0.293-0.707
		l14.012-14.01c0.286-0.286,0.716-0.371,1.09-0.217C22.656,9.221,22.9,9.586,22.9,9.99v10.467L34.074,9.283
		c0.286-0.286,0.715-0.371,1.09-0.217c0.374,0.155,0.617,0.52,0.617,0.924v28.02c0,0.404-0.243,0.77-0.617,0.924
		c-0.374,0.157-0.804,0.07-1.09-0.217L22.9,27.543V38.01c0,0.404-0.244,0.77-0.617,0.924C22.159,38.985,22.029,39.01,21.9,39.01z
		 M9.303,24L20.9,35.596V25.129c0-0.404,0.244-0.769,0.617-0.924c0.373-0.155,0.804-0.069,1.09,0.217l11.174,11.174V12.404
		L22.607,23.578c-0.286,0.286-0.716,0.371-1.09,0.217c-0.374-0.155-0.617-0.52-0.617-0.924V12.404L9.303,24z"/>
</g>
</svg>
