<?xml version="1.0" encoding="utf-8"?>
<!-- Generator: Adobe Illustrator 16.0.0, SVG Export Plug-In . SVG Version: 6.00 Build 0)  -->
<!DOCTYPE svg PUBLIC "-//W3C//DTD SVG 1.1//EN" "http://www.w3.org/Graphics/SVG/1.1/DTD/svg11.dtd">
<svg version="1.1" id="Layer_1" xmlns="http://www.w3.org/2000/svg" xmlns:xlink="http://www.w3.org/1999/xlink" x="0px" y="0px"
	 width="48px" height="48px" viewBox="0 0 48 48" enable-background="new 0 0 48 48" xml:space="preserve">
<g>
	<path d="M24,48C10.767,48,0,37.233,0,24S10.767,0,24,0s24,10.767,24,24S37.233,48,24,48z M24,2C11.869,2,2,11.869,2,24
		s9.869,22,22,22s22-9.869,22-22S36.131,2,24,2z"/>
	<path d="M26.1,39.01c-0.129,0-0.259-0.024-0.383-0.076c-0.374-0.154-0.617-0.52-0.617-0.924V27.543L13.926,38.717
		c-0.287,0.286-0.717,0.373-1.09,0.217c-0.374-0.154-0.617-0.52-0.617-0.924V9.99c0-0.404,0.244-0.769,0.617-0.924
		c0.373-0.156,0.803-0.069,1.09,0.217L25.1,20.457V9.99c0-0.404,0.243-0.769,0.617-0.924c0.374-0.154,0.804-0.069,1.09,0.217
		l14.012,14.01c0.188,0.188,0.293,0.442,0.293,0.707s-0.105,0.52-0.293,0.707l-14.012,14.01C26.615,38.908,26.359,39.01,26.1,39.01z
		 M26.1,24.129c0.129,0,0.259,0.025,0.383,0.076c0.374,0.155,0.617,0.52,0.617,0.924v10.467L38.697,24L27.1,12.404v10.467
		c0,0.404-0.243,0.769-0.617,0.924c-0.372,0.155-0.804,0.07-1.09-0.217L14.219,12.404v23.191l11.174-11.174
		C25.584,24.23,25.84,24.129,26.1,24.129z"/>
</g>
</svg>
