<?xml version="1.0" encoding="utf-8"?>
<!-- Generator: Adobe Illustrator 16.0.0, SVG Export Plug-In . SVG Version: 6.00 Build 0)  -->
<!DOCTYPE svg PUBLIC "-//W3C//DTD SVG 1.1//EN" "http://www.w3.org/Graphics/SVG/1.1/DTD/svg11.dtd">
<svg version="1.1" id="Layer_1" xmlns="http://www.w3.org/2000/svg" xmlns:xlink="http://www.w3.org/1999/xlink" x="0px" y="0px"
	 width="48px" height="48px" viewBox="0 0 48 48" enable-background="new 0 0 48 48" xml:space="preserve">
<g>
	<path d="M24,48C10.767,48,0,37.233,0,24S10.767,0,24,0s24,10.767,24,24S37.233,48,24,48z M24,2C11.869,2,2,11.869,2,24
		s9.869,22,22,22s22-9.869,22-22S36.131,2,24,2z"/>
	<g>
		<path d="M13.043,39.01c-0.129,0-0.259-0.024-0.383-0.076c-0.374-0.154-0.617-0.52-0.617-0.924V9.99
			c0-0.404,0.244-0.769,0.617-0.924c0.374-0.156,0.803-0.069,1.09,0.217l14.01,14.01c0.391,0.391,0.391,1.023,0,1.414l-14.01,14.01
			C13.559,38.908,13.303,39.01,13.043,39.01z M14.043,12.404v23.191L25.639,24L14.043,12.404z"/>
		<path d="M35.957,35.575h-9.904V12.423h9.904V35.575z M28.053,33.575h5.904V14.423h-5.904V33.575z"/>
	</g>
</g>
</svg>
