<?xml version="1.0" encoding="utf-8"?>
<!-- Generator: Adobe Illustrator 16.0.0, SVG Export Plug-In . SVG Version: 6.00 Build 0)  -->
<!DOCTYPE svg PUBLIC "-//W3C//DTD SVG 1.1//EN" "http://www.w3.org/Graphics/SVG/1.1/DTD/svg11.dtd">
<svg version="1.1" id="Layer_1" xmlns="http://www.w3.org/2000/svg" xmlns:xlink="http://www.w3.org/1999/xlink" x="0px" y="0px"
	 width="48px" height="48px" viewBox="0 0 48 48" enable-background="new 0 0 48 48" xml:space="preserve">
<g>
	<path d="M24,48C10.767,48,0,37.233,0,24S10.767,0,24,0s24,10.767,24,24S37.233,48,24,48z M24,2C11.869,2,2,11.869,2,24
		s9.869,22,22,22s22-9.869,22-22S36.131,2,24,2z"/>
	<g>
		<path d="M34.958,39.01c-0.26,0-0.516-0.102-0.707-0.293L20.24,24.707c-0.188-0.188-0.293-0.442-0.293-0.707
			s0.105-0.52,0.293-0.707l14.011-14.01c0.286-0.286,0.715-0.371,1.09-0.217c0.374,0.155,0.617,0.52,0.617,0.924v28.02
			c0,0.404-0.243,0.77-0.617,0.924C35.217,38.985,35.087,39.01,34.958,39.01z M22.361,24l11.597,11.596V12.404L22.361,24z"/>
		<path d="M21.947,35.575h-9.905V12.423h9.905V35.575z M14.042,33.575h5.905V14.423h-5.905V33.575z"/>
	</g>
</g>
</svg>
