<?xml version="1.0" encoding="utf-8"?>
<!-- Generator: Adobe Illustrator 16.0.0, SVG Export Plug-In . SVG Version: 6.00 Build 0)  -->
<!DOCTYPE svg PUBLIC "-//W3C//DTD SVG 1.1//EN" "http://www.w3.org/Graphics/SVG/1.1/DTD/svg11.dtd">
<svg version="1.1" id="Layer_1" xmlns="http://www.w3.org/2000/svg" xmlns:xlink="http://www.w3.org/1999/xlink" x="0px" y="0px"
	 width="48px" height="48px" viewBox="0 0 48 48" enable-background="new 0 0 48 48" xml:space="preserve">
<g>
	<path d="M33.4,23.614H5.667c-0.552,0-1-0.448-1-1V6.229c0-0.552,0.448-1,1-1H33.4c0.241,0,0.474,0.087,0.655,0.245l8.934,7.75
		c0.212,0.184,0.337,0.448,0.345,0.729c0.007,0.28-0.104,0.551-0.305,0.746l-8.934,8.635C33.909,23.514,33.66,23.614,33.4,23.614z
		 M6.667,21.614h26.329l7.857-7.595l-7.826-6.79H6.667V21.614z"/>
	<path d="M17.864,7.229c-0.552,0-1-0.448-1-1V1c0-0.552,0.448-1,1-1s1,0.448,1,1v5.229C18.864,6.781,18.417,7.229,17.864,7.229z"/>
	<path d="M17.864,48c-0.552,0-1-0.447-1-1V22.614c0-0.552,0.448-1,1-1s1,0.448,1,1V47C18.864,47.553,18.417,48,17.864,48z"/>
	<path d="M26.33,48H9.395c-0.552,0-1-0.447-1-1s0.448-1,1-1H26.33c0.553,0,1,0.447,1,1S26.883,48,26.33,48z"/>
</g>
</svg>
