<?xml version="1.0" encoding="utf-8"?>
<!-- Generator: Adobe Illustrator 16.0.0, SVG Export Plug-In . SVG Version: 6.00 Build 0)  -->
<!DOCTYPE svg PUBLIC "-//W3C//DTD SVG 1.1//EN" "http://www.w3.org/Graphics/SVG/1.1/DTD/svg11.dtd">
<svg version="1.1" id="Layer_1" xmlns="http://www.w3.org/2000/svg" xmlns:xlink="http://www.w3.org/1999/xlink" x="0px" y="0px"
	 width="48px" height="48px" viewBox="0 0 48 48" enable-background="new 0 0 48 48" xml:space="preserve">
<g>
	<path d="M35.379,16.628H11.895c-0.552,0-1-0.448-1-1V6.229c0-0.552,0.448-1,1-1h23.484c0.226,0,0.445,0.077,0.622,0.217
		l5.592,4.442c0.231,0.184,0.369,0.461,0.378,0.756c0.008,0.295-0.115,0.579-0.337,0.775l-5.592,4.957
		C35.859,16.539,35.623,16.628,35.379,16.628z M12.895,14.628h22.104l4.417-3.915L35.03,7.229H12.895V14.628z"/>
	<path d="M36.105,31.373H12.619c-0.226,0-0.445-0.076-0.622-0.217l-5.589-4.441c-0.231-0.185-0.37-0.461-0.377-0.757
		c-0.008-0.295,0.115-0.579,0.336-0.775l5.589-4.95c0.183-0.162,0.419-0.251,0.663-0.251h23.486c0.553,0,1,0.448,1,1v9.392
		C37.105,30.926,36.658,31.373,36.105,31.373z M12.968,29.373h22.137v-7.392H12.999L8.585,25.89L12.968,29.373z"/>
	<path d="M22.558,7.229c-0.552,0-1-0.448-1-1V1c0-0.552,0.448-1,1-1s1,0.448,1,1v5.229C23.558,6.781,23.11,7.229,22.558,7.229z"/>
	<path d="M22.558,48c-0.552,0-1-0.447-1-1V30.373c0-0.553,0.448-1,1-1s1,0.447,1,1V47C23.558,47.553,23.11,48,22.558,48z"/>
	<path d="M22.558,21.981c-0.552,0-1-0.448-1-1v-5.295c0-0.552,0.448-1,1-1s1,0.448,1,1v5.295
		C23.558,21.533,23.11,21.981,22.558,21.981z"/>
	<path d="M31.02,48H14.086c-0.552,0-1-0.447-1-1s0.448-1,1-1H31.02c0.553,0,1,0.447,1,1S31.572,48,31.02,48z"/>
</g>
</svg>
