<?xml version="1.0" encoding="utf-8"?>
<!-- Generator: Adobe Illustrator 16.0.0, SVG Export Plug-In . SVG Version: 6.00 Build 0)  -->
<!DOCTYPE svg PUBLIC "-//W3C//DTD SVG 1.1//EN" "http://www.w3.org/Graphics/SVG/1.1/DTD/svg11.dtd">
<svg version="1.1" id="Layer_1" xmlns="http://www.w3.org/2000/svg" xmlns:xlink="http://www.w3.org/1999/xlink" x="0px" y="0px"
	 width="48px" height="48px" viewBox="0 0 48 48" enable-background="new 0 0 48 48" xml:space="preserve">
<g>
	<path d="M1,47.462c-0.552,0-1-0.447-1-1V1.538c0-0.552,0.448-1,1-1s1,0.448,1,1v44.924C2,47.015,1.552,47.462,1,47.462z"/>
	<path d="M12.501,47.462c-0.552,0-1-0.447-1-1V33.165c0-0.553,0.448-1,1-1s1,0.447,1,1v13.297
		C13.501,47.015,13.053,47.462,12.501,47.462z"/>
	<path d="M23.997,47.462c-0.552,0-1-0.447-1-1V27.415c0-0.553,0.448-1,1-1c0.553,0,1,0.447,1,1v19.047
		C24.997,47.015,24.55,47.462,23.997,47.462z"/>
	<path d="M35.498,47.462c-0.553,0-1-0.447-1-1V21.665c0-0.552,0.447-1,1-1s1,0.448,1,1v24.797
		C36.498,47.015,36.051,47.462,35.498,47.462z"/>
	<path d="M47,47.462c-0.553,0-1-0.447-1-1V10.163c0-0.552,0.447-1,1-1s1,0.448,1,1v36.299C48,47.015,47.553,47.462,47,47.462z"/>
	<path d="M12.502,21.587c-0.332,0-0.656-0.165-0.846-0.465c-0.295-0.467-0.156-1.084,0.311-1.38L29.593,8.595
		c0.468-0.294,1.085-0.156,1.379,0.311c0.296,0.467,0.156,1.084-0.311,1.38L13.036,21.432C12.87,21.537,12.685,21.587,12.502,21.587
		z"/>
	<polygon points="31.729,15.041 36.926,5.138 25.755,5.591 	"/>
</g>
</svg>
