<?xml version="1.0" encoding="utf-8"?>
<!-- Generator: Adobe Illustrator 16.0.0, SVG Export Plug-In . SVG Version: 6.00 Build 0)  -->
<!DOCTYPE svg PUBLIC "-//W3C//DTD SVG 1.1//EN" "http://www.w3.org/Graphics/SVG/1.1/DTD/svg11.dtd">
<svg version="1.1" id="Layer_1" xmlns="http://www.w3.org/2000/svg" xmlns:xlink="http://www.w3.org/1999/xlink" x="0px" y="0px"
	 width="48px" height="48px" viewBox="0 0 48 48" enable-background="new 0 0 48 48" xml:space="preserve">
<g>
	<path d="M15.164,26.104H0L0.012,4.699c0.03-0.192,0.808-4.696,8.046-4.696c2.466,0,4.373,0.676,5.668,2.009
		c1.695,1.745,1.651,3.966,1.648,4.06l0,3.423l3.227-2.182c0.118-0.063,0.553-0.271,1.209-0.271c0.659,0,1.666,0.217,2.717,1.252
		c1.626,1.59,0.871,4.117,0.168,5.358l-0.095,0.167l-7.025,5.625L15.164,26.104z M2,24.104h11.284l0.351-5.667l7.397-5.922
		c0.232-0.49,0.871-2.034,0.095-2.793c-0.453-0.445-0.907-0.68-1.316-0.68c-0.122,0-0.21,0.021-0.257,0.035l-6.179,4.19V6.043
		c0-0.037,0.008-1.53-1.103-2.657C11.367,2.468,9.95,2.003,8.058,2.003C2.987,2.003,2.114,4.515,2,4.957V24.104z"/>
	<path d="M48,38.161H32.839l-0.407-6.671l-7.03-5.615l-0.096-0.169c-0.699-1.239-1.45-3.761,0.169-5.356
		c1.056-1.036,2.064-1.253,2.725-1.253c0.65,0,1.083,0.204,1.199,0.266l0.091,0.055l3.142,2.132v-3.457
		c-0.002-0.064-0.047-2.285,1.648-4.03c1.296-1.333,3.203-2.01,5.67-2.01c7.234,0,8.01,4.518,8.039,4.71L48,16.913V38.161z
		 M34.72,36.161H46V17.014c-0.103-0.406-0.95-2.962-6.051-2.962c-1.906,0-3.331,0.472-4.235,1.403
		c-1.095,1.127-1.084,2.593-1.083,2.608v7.259l-6.185-4.196c-0.034-0.008-0.123-0.03-0.247-0.03c-0.412,0-0.869,0.235-1.322,0.68
		c-0.77,0.758-0.137,2.303,0.095,2.794l7.401,5.912L34.72,36.161z"/>
	<path d="M23.664,47.999c-0.997,0-2.045-0.085-3.144-0.256c-3.233-0.503-5.762-2.044-7.518-4.579
		c-4.48-6.469-2.325-17.152-2.231-17.604c0.112-0.541,0.642-0.893,1.182-0.774c0.541,0.111,0.888,0.641,0.776,1.182
		c-0.021,0.103-2.072,10.304,1.92,16.063c1.432,2.064,3.51,3.322,6.179,3.737c3.883,0.604,6.994,0.026,9.249-1.716
		c3.157-2.439,3.588-6.356,3.592-6.396c0.057-0.549,0.54-0.938,1.096-0.895c0.55,0.056,0.95,0.547,0.895,1.096
		c-0.02,0.195-0.528,4.817-4.359,7.777C29.262,47.208,26.702,47.999,23.664,47.999z"/>
</g>
</svg>
