<?xml version="1.0" encoding="utf-8"?>
<!-- Generator: Adobe Illustrator 16.0.0, SVG Export Plug-In . SVG Version: 6.00 Build 0)  -->
<!DOCTYPE svg PUBLIC "-//W3C//DTD SVG 1.1//EN" "http://www.w3.org/Graphics/SVG/1.1/DTD/svg11.dtd">
<svg version="1.1" id="Layer_1" xmlns="http://www.w3.org/2000/svg" xmlns:xlink="http://www.w3.org/1999/xlink" x="0px" y="0px"
	 width="48px" height="48px" viewBox="0 0 48 48" enable-background="new 0 0 48 48" xml:space="preserve">
<g>
	<path d="M32.189,35.161c-10.157,0-18.419-8.374-18.419-18.668c0-4.577,1.703-9.006,4.795-12.471l0.662-0.741l27.655,24.376
		l-0.615,0.746C42.726,32.698,37.595,35.161,32.189,35.161z M19.417,6.114c-2.358,2.972-3.647,6.621-3.647,10.379
		c0,9.19,7.366,16.668,16.419,16.668c4.493,0,8.777-1.92,11.898-5.301L19.417,6.114z"/>
	<path d="M32.087,47.998H1c-0.398,0-0.759-0.236-0.917-0.603c-0.159-0.365-0.085-0.79,0.188-1.081l12.827-13.703
		c0.349-0.372,0.921-0.423,1.33-0.116l18.26,13.703c0.344,0.259,0.484,0.708,0.348,1.116C32.899,47.723,32.518,47.998,32.087,47.998
		z M3.306,45.998h25.782L13.944,34.633L3.306,45.998z"/>
	<path d="M35.488,13.989c-0.249,0-0.499-0.092-0.692-0.279c-0.398-0.382-0.411-1.016-0.029-1.414L46.278,0.309
		c0.383-0.397,1.017-0.412,1.414-0.028c0.398,0.382,0.411,1.016,0.029,1.414L36.21,13.682
		C36.014,13.886,35.751,13.989,35.488,13.989z"/>
</g>
</svg>
