<?xml version="1.0" encoding="utf-8"?>
<!-- Generator: Adobe Illustrator 16.0.0, SVG Export Plug-In . SVG Version: 6.00 Build 0)  -->
<!DOCTYPE svg PUBLIC "-//W3C//DTD SVG 1.1//EN" "http://www.w3.org/Graphics/SVG/1.1/DTD/svg11.dtd">
<svg version="1.1" id="Layer_1" xmlns="http://www.w3.org/2000/svg" xmlns:xlink="http://www.w3.org/1999/xlink" x="0px" y="0px"
	 width="48px" height="48px" viewBox="0 0 48 48" enable-background="new 0 0 48 48" xml:space="preserve">
<g>
	<path d="M23.99,47.999c-0.265,0-0.52-0.105-0.707-0.293L0.293,24.709c-0.386-0.386-0.391-1.01-0.011-1.403L22.553,0.305
		C22.741,0.111,23,0.001,23.271,0.001H47c0.553,0,1,0.448,1,1v20.495c0,0.248-0.092,0.486-0.258,0.67l-23.01,25.503
		c-0.184,0.203-0.442,0.322-0.717,0.33C24.007,47.999,23.999,47.999,23.99,47.999z M2.403,23.991l21.55,21.557L46,21.112V2.001
		H23.695L2.403,23.991z"/>
	<path d="M14.738,24.315c-0.256,0-0.512-0.098-0.707-0.293c-0.391-0.391-0.391-1.023,0-1.414l11.948-11.949
		c0.391-0.391,1.023-0.391,1.414,0s0.391,1.023,0,1.414L15.445,24.022C15.25,24.217,14.994,24.315,14.738,24.315z"/>
	<path d="M23.181,32.76c-0.256,0-0.512-0.098-0.707-0.293c-0.391-0.391-0.391-1.023,0-1.414l11.949-11.949
		c0.391-0.391,1.023-0.391,1.414,0s0.391,1.023,0,1.414L23.888,32.467C23.693,32.662,23.437,32.76,23.181,32.76z"/>
	<path d="M41.957,7.953c0,1.389-1.129,2.516-2.516,2.516c-1.391,0-2.517-1.127-2.517-2.516c0-1.385,1.126-2.516,2.517-2.516
		C40.828,5.437,41.957,6.567,41.957,7.953"/>
</g>
</svg>
