<?xml version="1.0" encoding="utf-8"?>
<!-- Generator: Adobe Illustrator 16.0.0, SVG Export Plug-In . SVG Version: 6.00 Build 0)  -->
<!DOCTYPE svg PUBLIC "-//W3C//DTD SVG 1.1//EN" "http://www.w3.org/Graphics/SVG/1.1/DTD/svg11.dtd">
<svg version="1.1" id="Layer_1" xmlns="http://www.w3.org/2000/svg" xmlns:xlink="http://www.w3.org/1999/xlink" x="0px" y="0px"
	 width="48px" height="48px" viewBox="0 0 48 48" enable-background="new 0 0 48 48" xml:space="preserve">
<g>
	<path d="M23.99,48c-0.265,0-0.52-0.105-0.707-0.293L0.293,24.711c-0.386-0.386-0.391-1.01-0.011-1.402L22.551,0.305
		C22.739,0.11,22.998,0,23.269,0H47c0.553,0,1,0.448,1,1v20.496c0,0.248-0.092,0.486-0.258,0.67L24.732,47.67
		c-0.184,0.203-0.442,0.322-0.717,0.33C24.007,48,23.999,48,23.99,48z M2.403,23.993l21.55,21.556L46,21.112V2H23.693L2.403,23.993z
		"/>
	<path d="M32.445,24.317H15.549c-0.552,0-1-0.448-1-1s0.448-1,1-1h16.896c0.553,0,1,0.448,1,1S32.998,24.317,32.445,24.317z"/>
	<path d="M23.999,32.768c-0.552,0-1-0.447-1-1V14.868c0-0.552,0.448-1,1-1c0.553,0,1,0.448,1,1v16.899
		C24.999,32.32,24.552,32.768,23.999,32.768z"/>
	<path d="M41.957,7.954c0,1.387-1.127,2.516-2.516,2.516c-1.394,0-2.517-1.129-2.517-2.516c0-1.387,1.123-2.516,2.517-2.516
		C40.83,5.438,41.957,6.566,41.957,7.954"/>
</g>
</svg>
