<?xml version="1.0" encoding="utf-8"?>
<!-- Generator: Adobe Illustrator 16.0.0, SVG Export Plug-In . SVG Version: 6.00 Build 0)  -->
<!DOCTYPE svg PUBLIC "-//W3C//DTD SVG 1.1//EN" "http://www.w3.org/Graphics/SVG/1.1/DTD/svg11.dtd">
<svg version="1.1" id="Layer_1" xmlns="http://www.w3.org/2000/svg" xmlns:xlink="http://www.w3.org/1999/xlink" x="0px" y="0px"
	 width="48px" height="48px" viewBox="0 0 48 48" enable-background="new 0 0 48 48" xml:space="preserve">
<g>
	<path d="M19.769,39.614L19.769,39.614C8.868,39.613,0,30.746,0,19.847C0,8.943,8.868,0.072,19.769,0.072
		c10.899,0,19.766,8.871,19.766,19.775C39.535,30.747,30.668,39.614,19.769,39.614z M19.769,2.072C9.971,2.072,2,10.046,2,19.847
		c0,9.795,7.971,17.766,17.769,17.767c9.796,0,17.766-7.971,17.766-17.767C37.535,10.046,29.565,2.072,19.769,2.072z"/>
	<path d="M47,47.928c-0.256,0-0.512-0.098-0.707-0.293l-13.73-13.728c-0.391-0.391-0.391-1.023,0-1.414s1.023-0.391,1.414,0
		l13.73,13.728c0.391,0.391,0.391,1.023,0,1.414C47.512,47.83,47.256,47.928,47,47.928z"/>
	<path d="M28.041,20.847H11.509c-0.552,0-1-0.448-1-1s0.448-1,1-1h16.532c0.553,0,1,0.448,1,1S28.594,20.847,28.041,20.847z"/>
</g>
</svg>
