<?xml version="1.0" encoding="utf-8"?>
<!-- Generator: Adobe Illustrator 16.0.0, SVG Export Plug-In . SVG Version: 6.00 Build 0)  -->
<!DOCTYPE svg PUBLIC "-//W3C//DTD SVG 1.1//EN" "http://www.w3.org/Graphics/SVG/1.1/DTD/svg11.dtd">
<svg version="1.1" id="Layer_1" xmlns="http://www.w3.org/2000/svg" xmlns:xlink="http://www.w3.org/1999/xlink" x="0px" y="0px"
	 width="48px" height="48px" viewBox="0 0 48 48" enable-background="new 0 0 48 48" xml:space="preserve">
<g>
	<path d="M41.248,48H10.881c-0.552,0-1-0.447-1-1s0.448-1,1-1h30.367c2.619,0,4.75-2.131,4.75-4.75V6.754
		c0-2.621-2.131-4.754-4.75-4.754H10.396c-0.552,0-1-0.448-1-1s0.448-1,1-1h30.852c3.722,0,6.75,3.03,6.75,6.754V41.25
		C47.998,44.972,44.97,48,41.248,48z"/>
	<path d="M25.253,25.004H1.002c-0.552,0-1-0.447-1-1c0-0.552,0.448-1,1-1h24.251c0.553,0,1,0.448,1,1
		C26.253,24.557,25.806,25.004,25.253,25.004z"/>
	<path d="M15.571,38.021c-0.256,0-0.512-0.098-0.707-0.293c-0.391-0.391-0.391-1.023,0-1.414l12.462-12.462L14.864,11.39
		c-0.391-0.391-0.391-1.023,0-1.414s1.023-0.391,1.414,0l13.169,13.169c0.188,0.188,0.293,0.442,0.293,0.707
		s-0.105,0.52-0.293,0.708L16.278,37.729C16.083,37.924,15.827,38.021,15.571,38.021z"/>
</g>
</svg>
