<?xml version="1.0" encoding="utf-8"?>
<!-- Generator: Adobe Illustrator 16.0.0, SVG Export Plug-In . SVG Version: 6.00 Build 0)  -->
<!DOCTYPE svg PUBLIC "-//W3C//DTD SVG 1.1//EN" "http://www.w3.org/Graphics/SVG/1.1/DTD/svg11.dtd">
<svg version="1.1" id="Layer_1" xmlns="http://www.w3.org/2000/svg" xmlns:xlink="http://www.w3.org/1999/xlink" x="0px" y="0px"
	 width="48px" height="48px" viewBox="0 0 48 48" enable-background="new 0 0 48 48" xml:space="preserve">
<g>
	<path d="M1.001,30.323c-0.182,0-0.364-0.05-0.524-0.148c-0.296-0.182-0.476-0.504-0.476-0.852V1c0-0.347,0.18-0.67,0.476-0.852
		C0.772-0.034,1.141-0.05,1.452,0.107L18.87,8.915c0.336,0.17,0.549,0.516,0.549,0.893v10.706c0,0.377-0.212,0.722-0.549,0.893
		l-17.418,8.81C1.31,30.287,1.155,30.323,1.001,30.323z M2.001,2.626v25.071l15.418-7.799v-9.477L2.001,2.626z"/>
	<path d="M46.999,30.323c-0.154,0-0.31-0.036-0.451-0.107l-17.417-8.81c-0.337-0.17-0.549-0.516-0.549-0.893V9.807
		c0-0.377,0.212-0.722,0.549-0.893l17.417-8.807c0.31-0.157,0.679-0.142,0.975,0.041S47.999,0.653,47.999,1v28.323
		c0,0.348-0.181,0.67-0.477,0.852C47.362,30.273,47.181,30.323,46.999,30.323z M30.582,19.898l15.417,7.798V2.626l-15.417,7.795
		V19.898z"/>
	<path d="M29.582,26.197H18.419c-0.552,0-1-0.447-1-1V5.124c0-0.552,0.448-1,1-1h11.163c0.553,0,1,0.448,1,1v20.073
		C30.582,25.75,30.135,26.197,29.582,26.197z M19.419,24.197h9.163V6.124h-9.163V24.197z"/>
	<path d="M24.004,48c-0.552,0-1-0.447-1-1V25.425c0-0.553,0.448-1,1-1c0.553,0,1,0.447,1,1V47C25.004,47.553,24.557,48,24.004,48z"
		/>
	<path d="M31.35,48H16.656c-0.552,0-1-0.447-1-1s0.448-1,1-1H31.35c0.553,0,1,0.447,1,1S31.902,48,31.35,48z"/>
</g>
</svg>
