<?xml version="1.0" encoding="utf-8"?>
<!-- Generator: Adobe Illustrator 16.0.0, SVG Export Plug-In . SVG Version: 6.00 Build 0)  -->
<!DOCTYPE svg PUBLIC "-//W3C//DTD SVG 1.1//EN" "http://www.w3.org/Graphics/SVG/1.1/DTD/svg11.dtd">
<svg version="1.1" id="Layer_1" xmlns="http://www.w3.org/2000/svg" xmlns:xlink="http://www.w3.org/1999/xlink" x="0px" y="0px"
	 width="48px" height="48px" viewBox="0 0 48 48" enable-background="new 0 0 48 48" xml:space="preserve">
<g>
	<path d="M23.999,44.986c-11.573,0-20.988-9.413-20.988-20.983c0-11.575,9.416-20.992,20.988-20.992
		c11.573,0,20.989,9.417,20.989,20.992C44.988,35.573,35.572,44.986,23.999,44.986z M23.999,5.011
		c-10.47,0-18.988,8.52-18.988,18.992c0,10.468,8.518,18.983,18.988,18.983c10.471,0,18.989-8.516,18.989-18.983
		C42.988,13.531,34.47,5.011,23.999,5.011z"/>
	<path d="M47,25.003H1c-0.552,0-1-0.447-1-1c0-0.552,0.448-1,1-1h46c0.553,0,1,0.448,1,1C48,24.556,47.553,25.003,47,25.003z"/>
	<path d="M23.999,47.999c-0.552,0-1-0.447-1-1V1.001c0-0.552,0.448-1,1-1c0.553,0,1,0.448,1,1v45.998
		C24.999,47.552,24.552,47.999,23.999,47.999z"/>
</g>
</svg>
