<?xml version="1.0" encoding="utf-8"?>
<!-- Generator: Adobe Illustrator 16.0.0, SVG Export Plug-In . SVG Version: 6.00 Build 0)  -->
<!DOCTYPE svg PUBLIC "-//W3C//DTD SVG 1.1//EN" "http://www.w3.org/Graphics/SVG/1.1/DTD/svg11.dtd">
<svg version="1.1" id="Layer_1" xmlns="http://www.w3.org/2000/svg" xmlns:xlink="http://www.w3.org/1999/xlink" x="0px" y="0px"
	 width="48px" height="48px" viewBox="0 0 48 48" enable-background="new 0 0 48 48" xml:space="preserve">
<g>
	<path d="M40.336,42.863c-0.212,0-0.424-0.066-0.604-0.202L13.917,23.138c-3.013-0.057-5.833-1.25-7.961-3.375
		C1.448,15.25,1.448,7.907,5.956,3.394C8.142,1.205,11.049,0,14.142,0c3.093,0,6,1.205,8.187,3.393
		c2.108,2.111,3.319,4.983,3.378,7.968l19.522,25.813c0.301,0.398,0.262,0.959-0.092,1.312l-4.096,4.086
		C40.849,42.765,40.593,42.863,40.336,42.863z M15.534,21.853l24.711,18.688l2.863-2.855l-18.696-24.72
		c-0.035-0.01-0.069-0.023-0.103-0.037c-0.382-0.163-0.625-0.544-0.608-0.959c0.104-2.672-0.912-5.283-2.789-7.162
		C19.105,2.997,16.7,2,14.142,2c-2.558,0-4.963,0.997-6.771,2.807c-3.729,3.734-3.729,9.809,0,13.542
		c1.895,1.892,4.479,2.881,7.163,2.784c0.402-0.022,0.792,0.222,0.957,0.6C15.507,21.772,15.522,21.812,15.534,21.853z"/>
	<path d="M17.288,47.147l-1.979-0.295c0.544-3.66,3.197-6.771,7.096-8.321c1.896-0.749,4.987-1.131,8.95,1.307
		c0.144,0.087,0.367,0.24,0.655,0.438c1.596,1.095,5.832,4.001,8.444,3.439c0.654-0.141,1.132-0.49,1.503-1.101
		c0.346-0.566,0.074-1.294-0.937-2.516l1.541-1.275c0.698,0.844,2.332,2.82,1.104,4.831c-0.655,1.079-1.595,1.759-2.79,2.016
		c-3.447,0.745-8.038-2.401-9.996-3.745c-0.252-0.172-0.446-0.307-0.571-0.383c-2.579-1.588-5.057-1.983-7.166-1.151
		C19.963,41.654,17.72,44.243,17.288,47.147z"/>
</g>
</svg>
