<?xml version="1.0" encoding="utf-8"?>
<!-- Generator: Adobe Illustrator 16.0.0, SVG Export Plug-In . SVG Version: 6.00 Build 0)  -->
<!DOCTYPE svg PUBLIC "-//W3C//DTD SVG 1.1//EN" "http://www.w3.org/Graphics/SVG/1.1/DTD/svg11.dtd">
<svg version="1.1" id="Layer_1" xmlns="http://www.w3.org/2000/svg" xmlns:xlink="http://www.w3.org/1999/xlink" x="0px" y="0px"
	 width="48px" height="48px" viewBox="0 0 48 48" enable-background="new 0 0 48 48" xml:space="preserve">
<g>
	<path d="M25.721,31.902c-8.797,0-15.955-7.158-15.955-15.957C9.766,7.153,16.923,0,25.721,0c8.796,0,15.951,7.153,15.951,15.946
		C41.672,24.744,34.517,31.902,25.721,31.902z M25.721,2c-7.695,0-13.955,6.256-13.955,13.946c0,7.696,6.26,13.957,13.955,13.957
		c7.692,0,13.951-6.261,13.951-13.957C39.672,8.256,33.413,2,25.721,2z"/>
	<path d="M25.076,39.758c-8.337,0-16.365-4.633-20.281-12.604C0.896,19.205,2.016,9.66,7.649,2.836
		C8.001,2.411,8.631,2.35,9.057,2.702C9.482,3.054,9.542,3.684,9.191,4.11c-5.133,6.219-6.154,14.917-2.6,22.162
		c4.996,10.171,17.341,14.376,27.515,9.383c4.212-2.066,7.501-5.403,9.51-9.65c0.236-0.498,0.829-0.713,1.332-0.477
		c0.499,0.236,0.712,0.833,0.477,1.332c-2.206,4.661-5.814,8.323-10.438,10.59C31.797,39.016,28.41,39.758,25.076,39.758z"/>
	<path d="M24.521,47.557c-0.552,0-1-0.447-1-1V38.77c0-0.553,0.448-1,1-1c0.553,0,1,0.447,1,1v7.787
		C25.521,47.109,25.074,47.557,24.521,47.557z"/>
	<path d="M32.867,48H16.179c-0.552,0-1-0.447-1-1s0.448-1,1-1h16.688c0.553,0,1,0.447,1,1S33.42,48,32.867,48z"/>
</g>
</svg>
