<?xml version="1.0" encoding="utf-8"?>
<!-- Generator: Adobe Illustrator 16.0.0, SVG Export Plug-In . SVG Version: 6.00 Build 0)  -->
<!DOCTYPE svg PUBLIC "-//W3C//DTD SVG 1.1//EN" "http://www.w3.org/Graphics/SVG/1.1/DTD/svg11.dtd">
<svg version="1.1" id="Layer_1" xmlns="http://www.w3.org/2000/svg" xmlns:xlink="http://www.w3.org/1999/xlink" x="0px" y="0px"
	 width="48px" height="48px" viewBox="0 0 48 48" enable-background="new 0 0 48 48" xml:space="preserve">
<g>
	<path d="M36.846,35.252c-0.254,0-0.509-0.097-0.704-0.29c-0.392-0.389-0.395-1.021-0.006-1.414l9.457-9.546l-9.458-9.555
		c-0.389-0.393-0.385-1.026,0.008-1.415c0.392-0.388,1.026-0.384,1.414,0.007l10.154,10.259c0.386,0.39,0.386,1.018-0.001,1.408
		l-10.154,10.25C37.36,35.153,37.104,35.252,36.846,35.252z"/>
	<path d="M11.164,35.252c-0.257,0-0.515-0.099-0.71-0.296L0.29,24.706c-0.387-0.39-0.387-1.018,0-1.408L10.454,13.04
		c0.389-0.394,1.022-0.396,1.414-0.007c0.393,0.389,0.396,1.022,0.007,1.414l-9.466,9.555l9.466,9.546
		c0.389,0.393,0.386,1.025-0.006,1.414C11.673,35.155,11.418,35.252,11.164,35.252z"/>
	<path d="M19.039,48c-0.078,0-0.156-0.009-0.235-0.027c-0.537-0.13-0.868-0.669-0.738-1.206l11.057-46
		c0.129-0.538,0.669-0.872,1.206-0.738c0.537,0.129,0.868,0.669,0.739,1.206l-11.058,46C19.9,47.692,19.491,48,19.039,48z"/>
</g>
</svg>
