<?xml version="1.0" encoding="utf-8"?>
<!-- Generator: Adobe Illustrator 16.0.0, SVG Export Plug-In . SVG Version: 6.00 Build 0)  -->
<!DOCTYPE svg PUBLIC "-//W3C//DTD SVG 1.1//EN" "http://www.w3.org/Graphics/SVG/1.1/DTD/svg11.dtd">
<svg version="1.1" id="Layer_1" xmlns="http://www.w3.org/2000/svg" xmlns:xlink="http://www.w3.org/1999/xlink" x="0px" y="0px"
	 width="48px" height="48px" viewBox="0 0 48 48" enable-background="new 0 0 48 48" xml:space="preserve">
<g>
	<path d="M10.355,42.757c-0.222,0-0.445-0.073-0.63-0.224c-0.429-0.349-0.494-0.979-0.146-1.407l28.016-34.48
		c0.35-0.429,0.979-0.494,1.407-0.146c0.429,0.348,0.493,0.978,0.146,1.406L11.132,42.388
		C10.935,42.631,10.646,42.757,10.355,42.757z"/>
	<path d="M24.002,47.998C10.767,47.998,0,37.235,0,24.006C0,10.77,10.767,0.002,24.002,0.002C37.234,0.002,48,10.77,48,24.006
		C48,37.235,37.234,47.998,24.002,47.998z M24.002,2.002C11.87,2.002,2,11.873,2,24.006c0,12.127,9.87,21.992,22.002,21.992
		C36.132,45.998,46,36.133,46,24.006C46,11.873,36.132,2.002,24.002,2.002z"/>
</g>
</svg>
