<?xml version="1.0" encoding="utf-8"?>
<!-- Generator: Adobe Illustrator 16.0.0, SVG Export Plug-In . SVG Version: 6.00 Build 0)  -->
<!DOCTYPE svg PUBLIC "-//W3C//DTD SVG 1.1//EN" "http://www.w3.org/Graphics/SVG/1.1/DTD/svg11.dtd">
<svg version="1.1" id="Layer_1" xmlns="http://www.w3.org/2000/svg" xmlns:xlink="http://www.w3.org/1999/xlink" x="0px" y="0px"
	 width="48px" height="48px" viewBox="0 0 48 48" enable-background="new 0 0 48 48" xml:space="preserve">
<g>
	<g>
		<path d="M41.803,48h-1.664v-2h1.664c2.313,0,4.196-1.882,4.196-4.195h2C47.999,45.221,45.22,48,41.803,48z M30.314,48H20.49v-2
			h9.825V48z M10.666,48H6.197c-2.155,0-4.19-1.153-5.31-3.011L2.6,43.956C3.36,45.217,4.738,46,6.197,46h4.469V48z M2.001,34.785
			h-2v-9.824h2V34.785z M47.999,33.747h-2v-9.824h2V33.747z M2.001,15.136h-2v-8.94c0-0.351,0.03-0.704,0.09-1.049l1.971,0.34
			C2.021,5.72,2.001,5.958,2.001,6.196V15.136z M47.999,14.099h-2V6.196c0-0.521-0.096-1.03-0.284-1.513l1.863-0.728
			c0.279,0.716,0.421,1.47,0.421,2.24V14.099z M38.218,2h-9.824V0h9.824V2z M18.569,2H8.745V0h9.824V2z"/>
	</g>
	<g>
		<rect x="22.999" y="12.249" width="2" height="23.502"/>
		<polygon points="30.936,20.597 23.999,13.663 17.064,20.597 15.65,19.183 23.999,10.835 32.35,19.183 		"/>
	</g>
</g>
</svg>
