<?xml version="1.0" encoding="utf-8"?>
<!-- Generator: Adobe Illustrator 16.0.0, SVG Export Plug-In . SVG Version: 6.00 Build 0)  -->
<!DOCTYPE svg PUBLIC "-//W3C//DTD SVG 1.1//EN" "http://www.w3.org/Graphics/SVG/1.1/DTD/svg11.dtd">
<svg version="1.1" id="Layer_1" xmlns="http://www.w3.org/2000/svg" xmlns:xlink="http://www.w3.org/1999/xlink" x="0px" y="0px"
	 width="48px" height="48px" viewBox="0 0 48 48" enable-background="new 0 0 48 48" xml:space="preserve">
<g>
	<g>
		<g>
			<path d="M40,48.375H8c-4.411,0-8-3.589-8-8V8.376c0-4.411,3.589-8,8-8h7.113v2H8c-3.309,0-6,2.691-6,6v31.999
				c0,3.309,2.691,6,6,6h32c3.309,0,6-2.691,6-6V8.376c0-3.309-2.691-6-6-6h-7.113v-2H40c4.411,0,8,3.589,8,8v31.999
				C48,44.786,44.411,48.375,40,48.375z"/>
		</g>
	</g>
	<rect x="16.75" y="29.182" width="14.498" height="2"/>
	<g>
		<rect x="23" y="0.625" width="2" height="23.502"/>
		<polygon points="24,25.541 15.65,17.193 17.064,15.779 24,22.713 30.936,15.779 32.35,17.193 		"/>
	</g>
</g>
</svg>
