<?xml version="1.0" encoding="utf-8"?>
<!-- Generator: Adobe Illustrator 16.0.0, SVG Export Plug-In . SVG Version: 6.00 Build 0)  -->
<!DOCTYPE svg PUBLIC "-//W3C//DTD SVG 1.1//EN" "http://www.w3.org/Graphics/SVG/1.1/DTD/svg11.dtd">
<svg version="1.1" id="Layer_1" xmlns="http://www.w3.org/2000/svg" xmlns:xlink="http://www.w3.org/1999/xlink" x="0px" y="0px"
	 width="48px" height="48px" viewBox="0 0 48 48" enable-background="new 0 0 48 48" xml:space="preserve">
<g>
	<g>
		<path d="M40,48H8c-4.411,0-8-3.589-8-8V8c0-4.411,3.589-8,8-8h32c4.411,0,8,3.589,8,8v32C48,44.411,44.411,48,40,48z M8,2
			C4.691,2,2,4.691,2,8v32c0,3.309,2.691,6,6,6h32c3.309,0,6-2.691,6-6V8c0-3.309-2.691-6-6-6H8z"/>
	</g>
	<g>
		<g>
			<path d="M14.98,17.025H7.784V9.829h7.196V17.025z M9.784,15.025h3.196v-3.196H9.784V15.025z"/>
			<path d="M27.598,17.025h-7.196V9.829h7.196V17.025z M22.402,15.025h3.196v-3.196h-3.196V15.025z"/>
			<path d="M40.217,17.025h-7.195V9.829h7.195V17.025z M35.021,15.025h3.195v-3.196h-3.195V15.025z"/>
		</g>
		<g>
			<path d="M14.98,27.598H7.784v-7.196h7.196V27.598z M9.784,25.598h3.196v-3.196H9.784V25.598z"/>
			<path d="M27.598,27.598h-7.196v-7.196h7.196V27.598z M22.402,25.598h3.196v-3.196h-3.196V25.598z"/>
			<path d="M40.217,27.598h-7.195v-7.196h7.195V27.598z M35.021,25.598h3.195v-3.196h-3.195V25.598z"/>
		</g>
		<g>
			<path d="M14.98,38.17H7.784v-7.193h7.196V38.17z M9.784,36.17h3.196v-3.193H9.784V36.17z"/>
			<path d="M27.598,38.17h-7.196v-7.193h7.196V38.17z M22.402,36.17h3.196v-3.193h-3.196V36.17z"/>
			<path d="M40.217,38.17h-7.195v-7.193h7.195V38.17z M35.021,36.17h3.195v-3.193h-3.195V36.17z"/>
		</g>
	</g>
</g>
</svg>
