<?xml version="1.0" encoding="utf-8"?>
<!-- Generator: Adobe Illustrator 16.0.0, SVG Export Plug-In . SVG Version: 6.00 Build 0)  -->
<!DOCTYPE svg PUBLIC "-//W3C//DTD SVG 1.1//EN" "http://www.w3.org/Graphics/SVG/1.1/DTD/svg11.dtd">
<svg version="1.1" id="Layer_1" xmlns="http://www.w3.org/2000/svg" xmlns:xlink="http://www.w3.org/1999/xlink" x="0px" y="0px"
	 width="48px" height="48px" viewBox="0 0 48 48" enable-background="new 0 0 48 48" xml:space="preserve">
<g>
	<g>
		<path d="M40,48H8c-4.411,0-8-3.589-8-8V8c0-4.411,3.589-8,8-8h32c4.411,0,8,3.589,8,8v32C48,44.411,44.411,48,40,48z M8,2
			C4.691,2,2,4.691,2,8v32c0,3.309,2.691,6,6,6h32c3.309,0,6-2.691,6-6V8c0-3.309-2.691-6-6-6H8z"/>
	</g>
	<g>
		<path d="M19.771,20.674H9.413V10.316h10.358V20.674z M11.413,18.674h6.358v-6.358h-6.358V18.674z"/>
		<path d="M38.585,20.674H28.227V10.316h10.358V20.674z M30.227,18.674h6.358v-6.358h-6.358V18.674z"/>
		<path d="M19.771,37.682H9.413V27.324h10.358V37.682z M11.413,35.682h6.358v-6.357h-6.358V35.682z"/>
		<path d="M38.585,37.682H28.227V27.324h10.358V37.682z M30.227,35.682h6.358v-6.357h-6.358V35.682z"/>
	</g>
</g>
</svg>
