<?xml version="1.0" encoding="utf-8"?>
<!-- Generator: Adobe Illustrator 16.0.0, SVG Export Plug-In . SVG Version: 6.00 Build 0)  -->
<!DOCTYPE svg PUBLIC "-//W3C//DTD SVG 1.1//EN" "http://www.w3.org/Graphics/SVG/1.1/DTD/svg11.dtd">
<svg version="1.1" id="Layer_1" xmlns="http://www.w3.org/2000/svg" xmlns:xlink="http://www.w3.org/1999/xlink" x="0px" y="0px"
	 width="48px" height="48px" viewBox="0 0 48 48" enable-background="new 0 0 48 48" xml:space="preserve">
<g>
	<path d="M14.979,17.024H7.783V9.828h7.196V17.024z M9.783,15.024h3.196v-3.196H9.783V15.024z"/>
	<path d="M14.979,27.598H7.783v-7.196h7.196V27.598z M9.783,25.598h3.196v-3.196H9.783V25.598z"/>
	<path d="M14.979,38.172H7.783v-7.195h7.196V38.172z M9.783,36.172h3.196v-3.195H9.783V36.172z"/>
	<g>
		<path d="M39.999,48H8.001c-4.411,0-8-3.589-8-8V8c0-4.411,3.589-8,8-8h31.998c4.411,0,8,3.589,8,8v32
			C47.999,44.411,44.41,48,39.999,48z M8.001,2c-3.309,0-6,2.691-6,6v32c0,3.309,2.691,6,6,6h31.998c3.309,0,6-2.691,6-6V8
			c0-3.309-2.691-6-6-6H8.001z"/>
	</g>
	<rect x="19.887" y="12.426" width="20.161" height="2"/>
	<rect x="19.887" y="23" width="20.161" height="2"/>
	<rect x="19.887" y="33.573" width="20.161" height="2"/>
</g>
</svg>
