<?xml version="1.0" encoding="utf-8"?>
<!-- Generator: Adobe Illustrator 16.0.0, SVG Export Plug-In . SVG Version: 6.00 Build 0)  -->
<!DOCTYPE svg PUBLIC "-//W3C//DTD SVG 1.1//EN" "http://www.w3.org/Graphics/SVG/1.1/DTD/svg11.dtd">
<svg version="1.1" id="Layer_1" xmlns="http://www.w3.org/2000/svg" xmlns:xlink="http://www.w3.org/1999/xlink" x="0px" y="0px"
	 width="48px" height="48px" viewBox="0 0 48 48" enable-background="new 0 0 48 48" xml:space="preserve">
<g>
	<g>
		<g>
			<path d="M39.999,48h-7.11v-2h7.11c3.309,0,6-2.691,6-6V8c0-3.309-2.691-6-6-6H8.001c-3.309,0-6,2.691-6,6v32c0,3.309,2.691,6,6,6
				h7.111v2H8.001c-4.411,0-8-3.589-8-8V8c0-4.411,3.589-8,8-8h31.998c4.411,0,8,3.589,8,8v32C47.999,44.411,44.41,48,39.999,48z"/>
		</g>
	</g>
	<g>
		<rect x="22.999" y="23.168" width="2" height="23.503"/>
		<polygon points="23.999,48.085 15.65,39.736 17.064,38.322 23.999,45.257 30.936,38.322 32.35,39.736 		"/>
	</g>
	<rect x="1.298" y="11.204" width="45.402" height="2"/>
	<g>
		<rect x="5.427" y="6.435" width="22.744" height="2"/>
		<rect x="32.044" y="6.435" width="3.974" height="2"/>
		<rect x="38.6" y="6.435" width="3.971" height="2"/>
	</g>
</g>
</svg>
