<?xml version="1.0" encoding="utf-8"?>
<!-- Generator: Adobe Illustrator 16.0.0, SVG Export Plug-In . SVG Version: 6.00 Build 0)  -->
<!DOCTYPE svg PUBLIC "-//W3C//DTD SVG 1.1//EN" "http://www.w3.org/Graphics/SVG/1.1/DTD/svg11.dtd">
<svg version="1.1" id="Layer_1" xmlns="http://www.w3.org/2000/svg" xmlns:xlink="http://www.w3.org/1999/xlink" x="0px" y="0px"
	 width="48px" height="48px" viewBox="0 0 48 48" enable-background="new 0 0 48 48" xml:space="preserve">
<g>
	<g>
		<path d="M39.999,48H8.001c-4.411,0-8-3.589-8-8V8c0-4.411,3.589-8,8-8h31.998c4.411,0,8,3.589,8,8v32
			C47.999,44.411,44.41,48,39.999,48z M8.001,2c-3.309,0-6,2.691-6,6v32c0,3.309,2.691,6,6,6h31.998c3.309,0,6-2.691,6-6V8
			c0-3.309-2.691-6-6-6H8.001z"/>
	</g>
	<polygon points="41.025,16.775 6.975,16.775 6.975,1 8.975,1 8.975,14.775 39.025,14.775 39.025,1 41.025,1 	"/>
	<polygon points="41.025,47 39.025,47 39.025,26.734 8.975,26.734 8.975,47 6.975,47 6.975,24.734 41.025,24.734 	"/>
	<g>
		<rect x="13.744" y="32.018" width="19.184" height="2"/>
		<rect x="13.744" y="38.719" width="19.184" height="2"/>
	</g>
</g>
</svg>
