<?xml version="1.0" encoding="utf-8"?>
<!-- Generator: Adobe Illustrator 16.0.0, SVG Export Plug-In . SVG Version: 6.00 Build 0)  -->
<!DOCTYPE svg PUBLIC "-//W3C//DTD SVG 1.1//EN" "http://www.w3.org/Graphics/SVG/1.1/DTD/svg11.dtd">
<svg version="1.1" id="Layer_1" xmlns="http://www.w3.org/2000/svg" xmlns:xlink="http://www.w3.org/1999/xlink" x="0px" y="0px"
	 width="48px" height="48px" viewBox="0 0 48 48" enable-background="new 0 0 48 48" xml:space="preserve">
<g>
	<g>
		<path d="M39.999,48H8.001c-4.411,0-8-3.589-8-8V8c0-4.411,3.589-8,8-8h31.998c4.411,0,8,3.589,8,8v32
			C47.999,44.411,44.41,48,39.999,48z M8.001,2c-3.309,0-6,2.691-6,6v32c0,3.309,2.691,6,6,6h31.998c3.309,0,6-2.691,6-6V8
			c0-3.309-2.691-6-6-6H8.001z"/>
	</g>
	<path d="M24,35.924c-5.72,0-10.373-4.653-10.373-10.373c0-5.719,4.653-10.373,10.373-10.373s10.373,4.653,10.373,10.373
		C34.373,31.271,29.72,35.924,24,35.924z M24,17.178c-4.617,0-8.373,3.756-8.373,8.373c0,4.617,3.756,8.373,8.373,8.373
		c4.617,0,8.373-3.756,8.373-8.373C32.373,20.934,28.617,17.178,24,17.178z"/>
	<path d="M24,30.809c-2.899,0-5.258-2.358-5.258-5.258s2.358-5.258,5.258-5.258s5.258,2.358,5.258,5.258S26.899,30.809,24,30.809z
		 M24,22.293c-1.796,0-3.258,1.461-3.258,3.258c0,1.796,1.461,3.258,3.258,3.258c1.796,0,3.258-1.462,3.258-3.258
		C27.258,23.754,25.796,22.293,24,22.293z"/>
	<path d="M42.061,14.306H5.939V4.156h36.122V14.306z M7.939,12.306h32.122v-6.15H7.939V12.306z"/>
	<rect x="22.999" y="37.868" width="2" height="4.563"/>
</g>
</svg>
