<?xml version="1.0" encoding="utf-8"?>
<!-- Generator: Adobe Illustrator 16.0.0, SVG Export Plug-In . SVG Version: 6.00 Build 0)  -->
<!DOCTYPE svg PUBLIC "-//W3C//DTD SVG 1.1//EN" "http://www.w3.org/Graphics/SVG/1.1/DTD/svg11.dtd">
<svg version="1.1" id="Layer_1" xmlns="http://www.w3.org/2000/svg" xmlns:xlink="http://www.w3.org/1999/xlink" x="0px" y="0px"
	 width="48px" height="48px" viewBox="0 0 48 48" enable-background="new 0 0 48 48" xml:space="preserve">
<g>
	<g>
		<path d="M40,48H8c-4.411,0-8-3.589-8-8V8c0-4.411,3.589-8,8-8h32c4.411,0,8,3.589,8,8v32C48,44.411,44.411,48,40,48z M8,2
			C4.691,2,2,4.691,2,8v32c0,3.309,2.691,6,6,6h32c3.309,0,6-2.691,6-6V8c0-3.309-2.691-6-6-6H8z"/>
	</g>
	<g>
		<rect x="10.23" y="1" width="2" height="6.609"/>
		<rect x="35.771" y="1" width="2" height="6.609"/>
	</g>
	<path d="M43.451,41.303H4.549V15.512h38.902V41.303z M6.549,39.303h34.902V17.512H6.549V39.303z"/>
	<g>
		<g>
			<path d="M18.068,26.868H9.792v-6.382h8.276V26.868z M11.792,24.868h4.276v-2.382h-4.276V24.868z"/>
			<path d="M28.139,26.868h-8.277v-6.382h8.277V26.868z M21.862,24.868h4.277v-2.382h-4.277V24.868z"/>
			<path d="M38.208,26.868h-8.276v-6.382h8.276V26.868z M31.932,24.868h4.276v-2.382h-4.276V24.868z"/>
		</g>
		<g>
			<path d="M18.068,36.328H9.792v-6.38h8.276V36.328z M11.792,34.328h4.276v-2.38h-4.276V34.328z"/>
			<path d="M28.139,36.328h-8.277v-6.38h8.277V36.328z M21.862,34.328h4.277v-2.38h-4.277V34.328z"/>
			<path d="M38.208,36.328h-8.276v-6.38h8.276V36.328z M31.932,34.328h4.276v-2.38h-4.276V34.328z"/>
		</g>
	</g>
</g>
</svg>
