<?xml version="1.0" encoding="utf-8"?>
<!-- Generator: Adobe Illustrator 16.0.0, SVG Export Plug-In . SVG Version: 6.00 Build 0)  -->
<!DOCTYPE svg PUBLIC "-//W3C//DTD SVG 1.1//EN" "http://www.w3.org/Graphics/SVG/1.1/DTD/svg11.dtd">
<svg version="1.1" id="Layer_1" xmlns="http://www.w3.org/2000/svg" xmlns:xlink="http://www.w3.org/1999/xlink" x="0px" y="0px"
	 width="48px" height="48px" viewBox="0 0 48 48" enable-background="new 0 0 48 48" xml:space="preserve">
<g>
	<path d="M8.444,16.888C3.788,16.888,0,13.1,0,8.444C0,3.788,3.788,0,8.444,0s8.443,3.788,8.443,8.444h-2
		C14.887,4.891,11.997,2,8.444,2C4.891,2,2,4.891,2,8.444s2.891,6.444,6.444,6.444V16.888z"/>
	<path d="M39.557,16.888v-2c3.553,0,6.443-2.891,6.443-6.444S43.109,2,39.557,2s-6.443,2.891-6.443,6.444h-2
		C31.113,3.788,34.901,0,39.557,0S48,3.788,48,8.444C48,13.1,44.212,16.888,39.557,16.888z"/>
	<rect x="14.887" y="8.36" width="2" height="31.273"/>
	<rect x="8.336" y="14.888" width="31.328" height="2"/>
	<path d="M39.557,48c-4.655,0-8.443-3.787-8.443-8.441h2c0,3.552,2.891,6.441,6.443,6.441S46,43.109,46,39.557
		c0-3.554-2.891-6.445-6.443-6.445v-2c4.655,0,8.443,3.788,8.443,8.445C48,44.212,44.212,48,39.557,48z"/>
	<path d="M8.444,48C3.788,48,0,44.213,0,39.559c0-4.657,3.788-8.445,8.444-8.445v2C4.891,33.113,2,36.005,2,39.559
		C2,43.11,4.891,46,8.444,46c3.553,0,6.443-2.89,6.443-6.441h2C16.887,44.213,13.1,48,8.444,48z"/>
	<rect x="31.113" y="8.369" width="2" height="31.273"/>
	<rect x="8.336" y="31.111" width="31.328" height="2"/>
</g>
</svg>
