<?xml version="1.0" encoding="utf-8"?>
<!-- Generator: Adobe Illustrator 16.0.0, SVG Export Plug-In . SVG Version: 6.00 Build 0)  -->
<!DOCTYPE svg PUBLIC "-//W3C//DTD SVG 1.1//EN" "http://www.w3.org/Graphics/SVG/1.1/DTD/svg11.dtd">
<svg version="1.1" id="Layer_1" xmlns="http://www.w3.org/2000/svg" xmlns:xlink="http://www.w3.org/1999/xlink" x="0px" y="0px"
	 width="48px" height="48px" viewBox="0 0 48 48" enable-background="new 0 0 48 48" xml:space="preserve">
<g>
	<g>
		<path d="M40,48H8c-4.411,0-8-3.589-8-8V8c0-4.411,3.589-8,8-8h32c4.411,0,8,3.589,8,8v32C48,44.411,44.411,48,40,48z M8,2
			C4.691,2,2,4.691,2,8v32c0,3.309,2.691,6,6,6h32c3.309,0,6-2.691,6-6V8c0-3.309-2.691-6-6-6H8z"/>
	</g>
	<g>
		<g>
			<g>
				<rect x="26.045" y="31.292" transform="matrix(0.707 0.7072 -0.7072 0.707 32.2991 -13.3747)" width="12.491" height="2"/>
				<polygon points="28.874,38.684 26.874,38.684 26.875,26.875 38.682,26.875 38.682,28.875 28.875,28.875 				"/>
			</g>
			<g>
				<rect x="14.709" y="26.046" transform="matrix(0.7071 0.7071 -0.7071 0.7071 27.4348 -1.6495)" width="2" height="12.492"/>
				<polygon points="21.125,38.684 19.125,38.684 19.125,28.875 9.317,28.875 9.317,26.875 21.125,26.875 				"/>
			</g>
		</g>
		<g>
			<g>
				<rect x="31.291" y="9.464" transform="matrix(0.7071 0.7071 -0.7071 0.7071 20.566 -18.2317)" width="2" height="12.49"/>
				<polygon points="38.682,21.126 26.875,21.126 26.874,9.319 28.874,9.319 28.875,19.126 38.682,19.126 				"/>
			</g>
			<g>
				<rect x="9.463" y="14.71" transform="matrix(0.7071 0.7071 -0.7071 0.7071 15.7092 -6.5064)" width="12.492" height="2"/>
				<polygon points="21.125,21.126 9.317,21.126 9.317,19.126 19.125,19.126 19.125,9.319 21.125,9.319 				"/>
			</g>
		</g>
	</g>
</g>
</svg>
