<?xml version="1.0" encoding="utf-8"?>
<!-- Generator: Adobe Illustrator 16.0.0, SVG Export Plug-In . SVG Version: 6.00 Build 0)  -->
<!DOCTYPE svg PUBLIC "-//W3C//DTD SVG 1.1//EN" "http://www.w3.org/Graphics/SVG/1.1/DTD/svg11.dtd">
<svg version="1.1" id="Layer_1" xmlns="http://www.w3.org/2000/svg" xmlns:xlink="http://www.w3.org/1999/xlink" x="0px" y="0px"
	 width="48px" height="48px" viewBox="0 0 48 48" enable-background="new 0 0 48 48" xml:space="preserve">
<g>
	<g>
		<g>
			<rect x="36.086" y="-3.107" transform="matrix(0.7071 0.7071 -0.7071 0.7071 18.5798 -23.0266)" width="2" height="28.043"/>
			<polygon points="37.637,21.829 26.171,21.829 26.171,10.363 28.171,10.363 28.171,19.829 37.637,19.829 			"/>
		</g>
		<g>
			<rect x="-3.107" y="9.915" transform="matrix(0.7071 0.7071 -0.7071 0.7071 10.9143 -4.5213)" width="28.043" height="2"/>
			<polygon points="21.83,21.829 10.364,21.829 10.364,19.829 19.83,19.829 19.83,10.363 21.83,10.363 			"/>
		</g>
	</g>
	<g>
		<g>
			<rect x="23.064" y="36.086" transform="matrix(0.7071 0.7071 -0.7071 0.7071 37.0854 -15.3613)" width="28.043" height="2"/>
			<polygon points="28.171,37.636 26.171,37.636 26.171,26.171 37.637,26.171 37.637,28.171 28.171,28.171 			"/>
		</g>
		<g>
			<rect x="9.915" y="23.064" transform="matrix(0.7071 0.7071 -0.7071 0.7071 29.4203 3.144)" width="2" height="28.043"/>
			<polygon points="21.83,37.636 19.83,37.636 19.83,28.171 10.364,28.171 10.364,26.171 21.83,26.171 			"/>
		</g>
	</g>
</g>
</svg>
