<?xml version="1.0" encoding="utf-8"?>
<!-- Generator: Adobe Illustrator 16.0.0, SVG Export Plug-In . SVG Version: 6.00 Build 0)  -->
<!DOCTYPE svg PUBLIC "-//W3C//DTD SVG 1.1//EN" "http://www.w3.org/Graphics/SVG/1.1/DTD/svg11.dtd">
<svg version="1.1" id="Layer_1" xmlns="http://www.w3.org/2000/svg" xmlns:xlink="http://www.w3.org/1999/xlink" x="0px" y="0px"
	 width="48px" height="48px" viewBox="0 0 48 48" enable-background="new 0 0 48 48" xml:space="preserve">
<g>
	<g>
		<path d="M40,48H8c-4.411,0-8-3.589-8-8V8c0-4.411,3.589-8,8-8h32c4.411,0,8,3.589,8,8v32C48,44.411,44.411,48,40,48z M8,2
			C4.691,2,2,4.691,2,8v32c0,3.309,2.691,6,6,6h32c3.309,0,6-2.691,6-6V8c0-3.309-2.691-6-6-6H8z"/>
	</g>
	<path d="M21.269,42.188H7.557V5.813h13.712V42.188z M9.557,40.188h9.712V7.813H9.557V40.188z"/>
	<path d="M40.441,15.691H27.417V5.813h13.024V15.691z M29.417,13.691h9.024V7.813h-9.024V13.691z"/>
	<path d="M40.441,28.939H27.417v-9.878h13.024V28.939z M29.417,26.939h9.024v-5.878h-9.024V26.939z"/>
	<path d="M40.441,42.189H27.417v-9.881h13.024V42.189z M29.417,40.189h9.024v-5.881h-9.024V40.189z"/>
</g>
</svg>
