<?xml version="1.0" encoding="utf-8"?>
<!-- Generator: Adobe Illustrator 16.0.0, SVG Export Plug-In . SVG Version: 6.00 Build 0)  -->
<!DOCTYPE svg PUBLIC "-//W3C//DTD SVG 1.1//EN" "http://www.w3.org/Graphics/SVG/1.1/DTD/svg11.dtd">
<svg version="1.1" id="Layer_1" xmlns="http://www.w3.org/2000/svg" xmlns:xlink="http://www.w3.org/1999/xlink" x="0px" y="0px"
	 width="48px" height="48px" viewBox="0 0 48 48" enable-background="new 0 0 48 48" xml:space="preserve">
<g>
	<g>
		<path d="M40,48H8c-4.411,0-8-3.589-8-8V8c0-4.411,3.589-8,8-8h32c4.411,0,8,3.589,8,8v32C48,44.411,44.411,48,40,48z M8,2
			C4.691,2,2,4.691,2,8v32c0,3.309,2.691,6,6,6h32c3.309,0,6-2.691,6-6V8c0-3.309-2.691-6-6-6H8z"/>
	</g>
	<path d="M40.441,42.188H26.73V5.813h13.711V42.188z M28.73,40.188h9.711V7.813H28.73V40.188z"/>
	<path d="M20.582,15.691H7.559V5.813h13.023V15.691z M9.559,13.691h9.023V7.813H9.559V13.691z"/>
	<path d="M20.582,28.939H7.559v-9.877h13.023V28.939z M9.559,26.939h9.023v-5.877H9.559V26.939z"/>
	<path d="M20.582,42.189H7.559v-9.881h13.023V42.189z M9.559,40.189h9.023v-5.881H9.559V40.189z"/>
</g>
</svg>
