<?xml version="1.0" encoding="utf-8"?>
<!-- Generator: Adobe Illustrator 16.0.0, SVG Export Plug-In . SVG Version: 6.00 Build 0)  -->
<!DOCTYPE svg PUBLIC "-//W3C//DTD SVG 1.1//EN" "http://www.w3.org/Graphics/SVG/1.1/DTD/svg11.dtd">
<svg version="1.1" id="Layer_1" xmlns="http://www.w3.org/2000/svg" xmlns:xlink="http://www.w3.org/1999/xlink" x="0px" y="0px"
	 width="48px" height="48px" viewBox="0 0 48 48" enable-background="new 0 0 48 48" xml:space="preserve">
<g>
	<path d="M17.577,31.423H6.112c-3.37,0-6.112-2.741-6.112-6.11v-19.2c0-3.37,2.742-6.112,6.112-6.112h19.199
		c3.369,0,6.11,2.742,6.11,6.112v11.464h-2V6.113c0-2.267-1.844-4.112-4.11-4.112H6.112C3.845,2.001,2,3.846,2,6.113v19.2
		c0,2.267,1.845,4.11,4.112,4.11h11.465V31.423z"/>
	<g>
		<path d="M40,47.999H24.577c-4.411,0-8-3.589-8-8V24.577c0-4.411,3.589-8,8-8H40c4.411,0,8,3.589,8,8v15.422
			C48,44.41,44.411,47.999,40,47.999z M24.577,18.577c-3.309,0-6,2.691-6,6v15.422c0,3.309,2.691,6,6,6H40c3.309,0,6-2.691,6-6
			V24.577c0-3.309-2.691-6-6-6H24.577z"/>
	</g>
</g>
</svg>
