<?xml version="1.0" encoding="utf-8"?>
<!-- Generator: Adobe Illustrator 16.0.0, SVG Export Plug-In . SVG Version: 6.00 Build 0)  -->
<!DOCTYPE svg PUBLIC "-//W3C//DTD SVG 1.1//EN" "http://www.w3.org/Graphics/SVG/1.1/DTD/svg11.dtd">
<svg version="1.1" id="Layer_1" xmlns="http://www.w3.org/2000/svg" xmlns:xlink="http://www.w3.org/1999/xlink" x="0px" y="0px"
	 width="48px" height="48px" viewBox="0 0 48 48" enable-background="new 0 0 48 48" xml:space="preserve">
<g>
	<path d="M41.785,47.992H6.193C2.778,47.991,0,45.212,0,41.797V6.203C0,2.788,2.778,0.01,6.193,0.01h25.271v2H6.193
		C3.881,2.01,2,3.891,2,6.203v35.594c0,2.313,1.881,4.194,4.193,4.195h35.592c2.313,0,4.193-1.882,4.193-4.194V14.05h2v27.748
		C47.979,45.214,45.2,47.992,41.785,47.992z"/>
	<path d="M10.228,39.43c-0.036,0-0.073-0.002-0.109-0.006c-0.438-0.048-0.794-0.378-0.875-0.812
		c-0.063-0.338,0.022-0.666,0.214-0.913c0.784-1.719,4.797-9.997,12.617-17.613c-2.14,1.594-4.439,3.648-6.663,6.269
		c-0.342,0.403-0.722,0.797-1.275,0.797c-0.397,0-0.816-0.276-0.976-0.64c-0.619-1.408,3.558-8.555,5.042-10.171
		c0.432-0.471,0.846-0.775,1.179-1.02c0.478-0.35,0.765-0.562,1.039-1.142c0.881-1.867,1.887-2.958,3.844-4.166l0.518-0.324
		c0.532-0.335,1.083-0.682,1.675-0.997c0.368-0.197,0.822-0.353,1.261-0.504c0.461-0.158,1.034-0.355,1.246-0.53
		c0.16-0.132,0.394-0.532,0.581-0.853c0.253-0.434,0.515-0.883,0.862-1.247c0.72-0.756,1.448-1.221,2.319-1.686
		c1.577-0.843,3.047-1.035,4.603-1.239c0.298-0.039,0.603-0.079,0.915-0.124c0.695-0.1,1.188-0.387,1.811-0.75
		c0.398-0.232,0.849-0.495,1.392-0.723c0.951-0.4,2.411-0.877,3.965-0.877c0.668,0,1.298,0.09,1.871,0.269
		c0.375,0.117,0.646,0.441,0.695,0.831c0.129,1.026-0.365,2.132-0.843,3.202c-0.222,0.497-0.432,0.967-0.515,1.304l-0.129,0.539
		c-0.191,0.821-0.399,1.716-0.863,2.517c0.399,0.315,0.621,0.708,0.663,1.174c0.113,1.288-1.229,2.476-4.633,4.099
		c-2.426,1.157-4.43,2.282-6.218,3.494c0.121,0.274,0.158,0.528,0.166,0.711c0.077,1.934-2.646,3.973-5.442,5.896
		c-0.377,0.259-0.675,0.462-0.832,0.589c-0.096,0.078-0.232,0.182-0.388,0.299c-0.284,0.215-0.949,0.718-1.087,0.919
		c0.012,0.013,0.034,0.237,0.049,0.386c0.04,0.4,0.09,0.899-0.103,1.41c-0.665,1.776-2.613,2.362-3.903,2.749
		c-0.445,0.135-0.87,0.259-1.302,0.384c-2.388,0.694-4.856,1.412-6.755,2.76c-0.842,0.599-1.486,1.485-2.169,2.425
		c-0.749,1.03-1.521,2.095-2.638,2.899C10.852,39.273,10.55,39.43,10.228,39.43z M31.251,13.093c0.361,0,0.708,0.196,0.886,0.534
		c0.244,0.463,0.09,1.036-0.354,1.313c-7.949,4.986-13.435,11.802-16.742,16.878c2.114-1.387,4.702-2.14,7-2.808
		c0.425-0.124,0.843-0.245,1.25-0.368c1-0.301,2.323-0.698,2.641-1.548c0.027-0.08,0.001-0.349-0.016-0.508
		c-0.044-0.439-0.099-0.986,0.175-1.521c0.252-0.499,0.842-0.969,1.647-1.579c0.133-0.101,0.25-0.189,0.335-0.258
		c0.184-0.148,0.523-0.384,0.957-0.683c4.065-2.796,4.613-3.813,4.577-4.169c0.001,0.004-0.036-0.036-0.153-0.103
		c-0.294-0.169-0.482-0.476-0.5-0.815c-0.018-0.338,0.138-0.663,0.413-0.862c2.116-1.531,4.477-2.9,7.43-4.31
		c2.243-1.069,3.058-1.712,3.354-2.027c-0.088-0.037-0.206-0.078-0.362-0.121c-0.356-0.099-0.631-0.386-0.711-0.748
		s0.047-0.738,0.329-0.978c0.673-0.573,0.898-1.541,1.138-2.566c0.044-0.192,0.089-0.382,0.136-0.569
		c0.125-0.506,0.37-1.054,0.629-1.635c0.199-0.447,0.446-0.999,0.584-1.463c-1.051-0.1-2.375,0.152-3.671,0.698
		c-0.423,0.178-0.781,0.387-1.16,0.607c-0.714,0.416-1.451,0.846-2.531,1.001c-0.32,0.047-0.635,0.088-0.941,0.128
		c-1.43,0.187-2.665,0.348-3.92,1.019c-0.721,0.385-1.276,0.737-1.814,1.302c-0.186,0.195-0.388,0.541-0.582,0.875
		c-0.296,0.506-0.602,1.03-1.036,1.388c-0.491,0.405-1.191,0.646-1.868,0.879c-0.364,0.125-0.741,0.254-0.97,0.377
		c-0.529,0.282-1.025,0.594-1.551,0.925l-0.531,0.333c-1.645,1.016-2.366,1.791-3.087,3.318c-0.49,1.038-1.113,1.496-1.664,1.9
		c-0.303,0.223-0.59,0.433-0.89,0.76c-0.797,0.868-1.78,2.452-2.633,4.018c6.689-6.382,13.088-8.343,13.922-8.578
		C31.061,13.106,31.156,13.093,31.251,13.093z"/>
</g>
</svg>
