<?xml version="1.0" encoding="utf-8"?>
<!-- Generator: Adobe Illustrator 16.0.0, SVG Export Plug-In . SVG Version: 6.00 Build 0)  -->
<!DOCTYPE svg PUBLIC "-//W3C//DTD SVG 1.1//EN" "http://www.w3.org/Graphics/SVG/1.1/DTD/svg11.dtd">
<svg version="1.1" id="Layer_1" xmlns="http://www.w3.org/2000/svg" xmlns:xlink="http://www.w3.org/1999/xlink" x="0px" y="0px"
	 width="48px" height="48px" viewBox="0 0 48 48" enable-background="new 0 0 48 48" xml:space="preserve">
<g>
	<path d="M41.803,47.999H6.197c-3.417,0-6.196-2.779-6.196-6.196V6.196C0.001,2.779,2.78,0,6.197,0h25.282v2H6.197
		C3.883,2,2.001,3.882,2.001,6.196v35.607c0,2.313,1.882,4.196,4.196,4.196h35.606c2.313,0,4.196-1.883,4.196-4.196V14.046h2v27.757
		C47.999,45.22,45.22,47.999,41.803,47.999z"/>
	<g>
		<polygon points="31.909,24.04 23.865,15.997 39.566,0.293 40.98,1.707 26.693,15.997 31.909,21.212 46.195,6.925 47.609,8.339 		
			"/>
		<polygon points="18.161,29.743 24.039,15.83 25.881,16.608 21.921,25.983 31.296,22.021 32.075,23.864 		"/>
	</g>
</g>
</svg>
