<?xml version="1.0" encoding="utf-8"?>
<!-- Generator: Adobe Illustrator 16.0.0, SVG Export Plug-In . SVG Version: 6.00 Build 0)  -->
<!DOCTYPE svg PUBLIC "-//W3C//DTD SVG 1.1//EN" "http://www.w3.org/Graphics/SVG/1.1/DTD/svg11.dtd">
<svg version="1.1" id="Layer_1" xmlns="http://www.w3.org/2000/svg" xmlns:xlink="http://www.w3.org/1999/xlink" x="0px" y="0px"
	 width="48px" height="48px" viewBox="0 0 48 48" enable-background="new 0 0 48 48" xml:space="preserve">
<g>
	<g>
		<path d="M40,48H8c-4.411,0-8-3.589-8-8V8c0-4.411,3.589-8,8-8h32c4.411,0,8,3.589,8,8v32C48,44.411,44.411,48,40,48z M8,2
			C4.691,2,2,4.691,2,8v32c0,3.309,2.691,6,6,6h32c3.309,0,6-2.691,6-6V8c0-3.309-2.691-6-6-6H8z"/>
	</g>
	<g>
		<path d="M19.575,36.298H9.492V11.704h10.083V36.298z M11.492,34.298h6.083V13.704h-6.083V34.298z"/>
		<path d="M38.508,30.514h-9.609V17.488h9.609V30.514z M30.898,28.514h5.609v-9.026h-5.609V28.514z"/>
		<rect x="32.704" y="29.514" width="2" height="9.284"/>
		<rect x="32.704" y="9.204" width="2" height="9.284"/>
		<rect x="13.534" y="9.204" width="2" height="3.5"/>
		<rect x="13.534" y="35.298" width="2" height="3.5"/>
	</g>
</g>
</svg>
