<?xml version="1.0" encoding="utf-8"?>
<!-- Generator: Adobe Illustrator 16.0.0, SVG Export Plug-In . SVG Version: 6.00 Build 0)  -->
<!DOCTYPE svg PUBLIC "-//W3C//DTD SVG 1.1//EN" "http://www.w3.org/Graphics/SVG/1.1/DTD/svg11.dtd">
<svg version="1.1" id="Layer_1" xmlns="http://www.w3.org/2000/svg" xmlns:xlink="http://www.w3.org/1999/xlink" x="0px" y="0px"
	 width="48px" height="48px" viewBox="0 0 48 48" enable-background="new 0 0 48 48" xml:space="preserve">
<g>
	<g>
		<g>
			<path d="M2,2.694l20.772,5.45v37.365L2,40.057V2.694 M0,0.102V41.6l24,6.299l0.771-0.2V6.601L0,0.102L0,0.102z"/>
		</g>
		<g>
			<path d="M46,2.694v37.363l-20.771,5.452V8.144L46,2.694 M48,0.102L23.228,6.601v41.097l0.772,0.2L48,41.6V0.102L48,0.102z"/>
		</g>
	</g>
	<g>
		<g>
			<rect x="4.196" y="9.895" transform="matrix(0.965 0.2623 -0.2623 0.965 3.2835 -2.8109)" width="15.951" height="2"/>
			<rect x="4.196" y="18.497" transform="matrix(0.965 0.2624 -0.2624 0.965 5.5416 -2.5103)" width="15.952" height="2"/>
			<rect x="4.196" y="27.1" transform="matrix(0.9649 0.2624 -0.2624 0.9649 7.8013 -2.2094)" width="15.952" height="2"/>
			<rect x="4.196" y="35.702" transform="matrix(0.965 0.2624 -0.2624 0.965 10.0565 -1.9077)" width="15.952" height="2"/>
		</g>
		<g>
			<rect x="34.829" y="2.919" transform="matrix(0.2627 0.9649 -0.9649 0.2627 36.9286 -26.5373)" width="2" height="15.952"/>
			<rect x="34.829" y="11.521" transform="matrix(0.2627 0.9649 -0.9649 0.2627 45.2288 -20.1949)" width="2" height="15.952"/>
			<rect x="34.829" y="20.124" transform="matrix(0.2627 0.9649 -0.9649 0.2627 53.5294 -13.8521)" width="2" height="15.953"/>
			<rect x="34.829" y="28.726" transform="matrix(0.2627 0.9649 -0.9649 0.2627 61.8293 -7.5098)" width="2" height="15.952"/>
		</g>
	</g>
</g>
</svg>
