<?xml version="1.0" encoding="utf-8"?>
<!-- Generator: Adobe Illustrator 16.0.0, SVG Export Plug-In . SVG Version: 6.00 Build 0)  -->
<!DOCTYPE svg PUBLIC "-//W3C//DTD SVG 1.1//EN" "http://www.w3.org/Graphics/SVG/1.1/DTD/svg11.dtd">
<svg version="1.1" id="Layer_1" xmlns="http://www.w3.org/2000/svg" xmlns:xlink="http://www.w3.org/1999/xlink" x="0px" y="0px"
	 width="48px" height="48px" viewBox="0 0 48 48" enable-background="new 0 0 48 48" xml:space="preserve">
<g>
	<path d="M40.197,48H40.07c-0.611,0-1.205-0.074-1.772-0.214c-2.149,0.006-24.886,0.067-30.478,0.067
		c-2.377,0-4.24-0.725-5.537-2.152c-2.173-2.393-1.866-5.858-1.852-6.005L0.427,0.82h34.25v39.834c0,2.947,2.42,5.346,5.394,5.346
		h0.127c2.974,0,5.394-2.398,5.394-5.346V1h2v39.654C47.591,44.705,44.274,48,40.197,48z M2.427,2.82v36.972
		c-0.007,0.12-0.233,2.846,1.345,4.573c0.902,0.987,2.264,1.488,4.048,1.488c4.465,0,19.859-0.039,26.975-0.058
		c-1.31-1.326-2.118-3.142-2.118-5.142V2.82H2.427z"/>
	<rect x="38.98" y="1" width="2" height="39.741"/>
	<rect x="7.82" y="11.525" width="18.491" height="2"/>
	<rect x="7.82" y="22.285" width="18.491" height="2"/>
	<rect x="7.82" y="33.046" width="18.491" height="2"/>
</g>
</svg>
