<?xml version="1.0" encoding="utf-8"?>
<!-- Generator: Adobe Illustrator 16.0.0, SVG Export Plug-In . SVG Version: 6.00 Build 0)  -->
<!DOCTYPE svg PUBLIC "-//W3C//DTD SVG 1.1//EN" "http://www.w3.org/Graphics/SVG/1.1/DTD/svg11.dtd">
<svg version="1.1" id="Layer_1" xmlns="http://www.w3.org/2000/svg" xmlns:xlink="http://www.w3.org/1999/xlink" x="0px" y="0px"
	 width="48px" height="48px" viewBox="0 0 48 48" enable-background="new 0 0 48 48" xml:space="preserve">
<g>
	<polygon points="29.02,48 4.013,48 4.013,0 24.822,0 36.335,12.658 36.335,26.708 34.335,26.708 34.335,13.432 23.938,2 6.013,2 
		6.013,46 29.02,46 	"/>
	<polygon points="34.74,14.665 22.555,14.665 22.555,1 24.555,1 24.555,12.665 34.74,12.665 	"/>
	<path d="M34.742,46.756c-5.099,0-9.246-4.147-9.246-9.246s4.147-9.246,9.246-9.246s9.246,4.147,9.246,9.246
		S39.841,46.756,34.742,46.756z M34.742,30.264c-3.995,0-7.246,3.251-7.246,7.246s3.251,7.246,7.246,7.246s7.246-3.251,7.246-7.246
		S38.737,30.264,34.742,30.264z"/>
	<rect x="29.799" y="36.51" width="9.883" height="2"/>
</g>
</svg>
