<?xml version="1.0" encoding="utf-8"?>
<!-- Generator: Adobe Illustrator 16.0.0, SVG Export Plug-In . SVG Version: 6.00 Build 0)  -->
<!DOCTYPE svg PUBLIC "-//W3C//DTD SVG 1.1//EN" "http://www.w3.org/Graphics/SVG/1.1/DTD/svg11.dtd">
<svg version="1.1" id="Layer_1" xmlns="http://www.w3.org/2000/svg" xmlns:xlink="http://www.w3.org/1999/xlink" x="0px" y="0px"
	 width="48px" height="48px" viewBox="0 0 48 48" enable-background="new 0 0 48 48" xml:space="preserve">
<g>
	<g>
		<path d="M40,21.694c2.757,0,5,2.243,5,5v13.031c0,2.758-2.243,5-5,5H8c-2.757,0-5-2.242-5-5V26.693c0-2.757,2.243-5,5-5L40,21.694
			 M40,19.694H8c-3.85,0-7,3.15-7,7v13.031c0,3.851,3.15,7,7,7h32c3.85,0,7-3.149,7-7V26.693C47,22.844,43.85,19.694,40,19.694
			L40,19.694z"/>
	</g>
	<path d="M24,38.078c-2.721,0-4.934-2.213-4.934-4.934S21.279,28.21,24,28.21s4.934,2.214,4.934,4.935S26.721,38.078,24,38.078z
		 M24,30.21c-1.618,0-2.934,1.316-2.934,2.935c0,1.617,1.316,2.934,2.934,2.934c1.617,0,2.934-1.316,2.934-2.934
		C26.934,31.526,25.617,30.21,24,30.21z"/>
	<rect x="23" y="37.404" width="2" height="4.099"/>
	<path d="M6.999,20.46c-0.161-0.95-0.242-1.925-0.242-2.899C6.758,8.029,14.493,0.275,24,0.275c4.607,0,8.938,1.798,12.192,5.063
		L34.776,6.75C31.899,3.864,28.072,2.275,24,2.275c-8.404,0-15.242,6.857-15.243,15.286c0,0.863,0.072,1.726,0.214,2.566
		L6.999,20.46z"/>
</g>
</svg>
