<?xml version="1.0" encoding="utf-8"?>
<!-- Generator: Adobe Illustrator 16.0.0, SVG Export Plug-In . SVG Version: 6.00 Build 0)  -->
<!DOCTYPE svg PUBLIC "-//W3C//DTD SVG 1.1//EN" "http://www.w3.org/Graphics/SVG/1.1/DTD/svg11.dtd">
<svg version="1.1" id="Layer_1" xmlns="http://www.w3.org/2000/svg" xmlns:xlink="http://www.w3.org/1999/xlink" x="0px" y="0px"
	 width="48px" height="48px" viewBox="0 0 48 48" enable-background="new 0 0 48 48" xml:space="preserve">
<g>
	<g>
		<path d="M39.611,24.255c-4.626,0-8.389-5.44-8.389-12.128s3.763-12.128,8.389-12.128S48,5.439,48,12.127
			S44.237,24.255,39.611,24.255z M39.611,1.999c-3.522,0-6.389,4.543-6.389,10.128s2.866,10.128,6.389,10.128S46,17.711,46,12.127
			S43.134,1.999,39.611,1.999z"/>
		<path d="M33.223,48H0V13.311C0,8.707,2.398,0,11.474,0h28.135v2H11.474C2.108,2,2,12.849,2,13.311V46h29.223V13.311h2V48z"/>
	</g>
	<rect x="8.286" y="9.344" width="17.095" height="2"/>
	<rect x="6.904" y="18.093" width="17.096" height="2"/>
	<rect x="6.904" y="26.841" width="17.096" height="2"/>
	<rect x="6.904" y="35.591" width="17.096" height="2"/>
</g>
</svg>
