<?xml version="1.0" encoding="utf-8"?>
<!-- Generator: Adobe Illustrator 16.0.0, SVG Export Plug-In . SVG Version: 6.00 Build 0)  -->
<!DOCTYPE svg PUBLIC "-//W3C//DTD SVG 1.1//EN" "http://www.w3.org/Graphics/SVG/1.1/DTD/svg11.dtd">
<svg version="1.1" id="Layer_1" xmlns="http://www.w3.org/2000/svg" xmlns:xlink="http://www.w3.org/1999/xlink" x="0px" y="0px"
	 width="48px" height="48px" viewBox="0 0 48 48" enable-background="new 0 0 48 48" xml:space="preserve">
<g>
	<rect x="11.019" y="11.083" width="25.961" height="2"/>
	<rect x="11.019" y="19.048" width="25.961" height="2"/>
	<rect x="11.019" y="27.014" width="25.961" height="2"/>
	<path d="M1.001,48c-0.168,0-0.337-0.043-0.489-0.128C0.196,47.695,0.001,47.361,0.001,47V6.196C0.001,2.779,2.78,0,6.197,0h35.606
		c3.417,0,6.196,2.779,6.196,6.196V47c0,0.362-0.196,0.696-0.512,0.873c-0.317,0.177-0.703,0.168-1.012-0.021l-10.371-6.378
		l-11.764,6.404c-0.301,0.164-0.667,0.162-0.967-0.006l-11.416-6.396L1.522,47.854C1.363,47.951,1.182,48,1.001,48z M11.936,39.318
		c0.168,0,0.337,0.042,0.489,0.128l11.445,6.411l11.787-6.417c0.315-0.173,0.697-0.161,1.002,0.026l9.341,5.744V6.196
		C45.999,3.882,44.116,2,41.803,2H6.197C3.883,2,2.001,3.882,2.001,6.196v39.021l9.414-5.752
		C11.575,39.367,11.755,39.318,11.936,39.318z"/>
</g>
</svg>
