<?xml version="1.0" encoding="utf-8"?>
<!-- Generator: Adobe Illustrator 16.0.0, SVG Export Plug-In . SVG Version: 6.00 Build 0)  -->
<!DOCTYPE svg PUBLIC "-//W3C//DTD SVG 1.1//EN" "http://www.w3.org/Graphics/SVG/1.1/DTD/svg11.dtd">
<svg version="1.1" id="Layer_1" xmlns="http://www.w3.org/2000/svg" xmlns:xlink="http://www.w3.org/1999/xlink" x="0px" y="0px"
	 width="48px" height="48px" viewBox="0 0 48 48" enable-background="new 0 0 48 48" xml:space="preserve">
<g>
	<path d="M38.484,47.964c-5.246,0-9.514-4.269-9.514-9.515c0-5.247,4.268-9.516,9.514-9.516c5.247,0,9.516,4.269,9.516,9.516
		C48,43.695,43.731,47.964,38.484,47.964z M38.484,30.934c-4.143,0-7.514,3.371-7.514,7.516c0,4.144,3.371,7.515,7.514,7.515
		c4.145,0,7.516-3.371,7.516-7.515C46,34.305,42.629,30.934,38.484,30.934z"/>
	<rect x="33.383" y="37.449" width="10.206" height="2"/>
	<path d="M31.391,47.966H6.198c-3.416,0-6.195-2.775-6.195-6.187V11.996c0-0.074,0.003-0.146,0.007-0.217l0.002-5.669
		c-0.029-0.402-0.108-2.602,1.392-4.26C2.49,0.647,4.096,0.038,6.176,0.038h12.386c1.722-0.034,5.248,1.039,6.412,5.124l0.187,0.645
		h16.645c3.416,0,6.195,2.776,6.195,6.188v18.552h-2V11.995c0-2.309-1.882-4.188-4.195-4.188H23.659l-0.608-2.095
		c-1.031-3.62-4.346-3.673-4.486-3.674H6.176c-1.483,0-2.586,0.384-3.278,1.141c-1.027,1.124-0.892,2.779-0.89,2.796l0.004,5.822
		l-0.009,0.2v29.783c0,2.309,1.882,4.187,4.195,4.187h25.192V47.966z"/>
</g>
</svg>
