<?xml version="1.0" encoding="utf-8"?>
<!-- Generator: Adobe Illustrator 16.0.0, SVG Export Plug-In . SVG Version: 6.00 Build 0)  -->
<!DOCTYPE svg PUBLIC "-//W3C//DTD SVG 1.1//EN" "http://www.w3.org/Graphics/SVG/1.1/DTD/svg11.dtd">
<svg version="1.1" id="Layer_1" xmlns="http://www.w3.org/2000/svg" xmlns:xlink="http://www.w3.org/1999/xlink" x="0px" y="0px"
	 width="48px" height="48px" viewBox="0 0 48 48" enable-background="new 0 0 48 48" xml:space="preserve">
<g>
	<g>
		<path d="M24,12.168c6.486,0,11.764,5.277,11.764,11.764S30.486,35.695,24,35.695s-11.764-5.277-11.764-11.764
			S17.514,12.168,24,12.168 M24,10.168c-7.602,0-13.764,6.163-13.764,13.764c0,7.602,6.162,13.764,13.764,13.764
			c7.601,0,13.764-6.162,13.764-13.764C37.764,16.331,31.601,10.168,24,10.168L24,10.168z"/>
	</g>
	<g>
		<path d="M34.62,4.953c1.792,0,3.25,1.458,3.25,3.25v1.965v2h2h2.88c1.792,0,3.25,1.458,3.25,3.25v24.379
			c0,1.792-1.458,3.25-3.25,3.25H5.25c-1.792,0-3.25-1.458-3.25-3.25V15.418c0-1.792,1.458-3.25,3.25-3.25h2.88h2v-2V8.203
			c0-1.792,1.458-3.25,3.25-3.25H34.62 M34.62,2.953H13.38c-2.888,0-5.25,2.362-5.25,5.25v1.965H5.25c-2.888,0-5.25,2.362-5.25,5.25
			v24.379c0,2.887,2.362,5.25,5.25,5.25h37.5c2.888,0,5.25-2.363,5.25-5.25V15.418c0-2.888-2.362-5.25-5.25-5.25h-2.88V8.203
			C39.87,5.315,37.507,2.953,34.62,2.953L34.62,2.953z"/>
	</g>
</g>
</svg>
