<?xml version="1.0" encoding="utf-8"?>
<!-- Generator: Adobe Illustrator 16.0.0, SVG Export Plug-In . SVG Version: 6.00 Build 0)  -->
<!DOCTYPE svg PUBLIC "-//W3C//DTD SVG 1.1//EN" "http://www.w3.org/Graphics/SVG/1.1/DTD/svg11.dtd">
<svg version="1.1" id="Layer_1" xmlns="http://www.w3.org/2000/svg" xmlns:xlink="http://www.w3.org/1999/xlink" x="0px" y="0px"
	 width="48px" height="48px" viewBox="0 0 48 48" enable-background="new 0 0 48 48" xml:space="preserve">
<g>
	<g>
		<path d="M27.799,34.699H6.031C2.706,34.699,0,31.993,0,28.668V18.331C0,15.005,2.705,12.3,6.029,12.3h21.77
			c3.325,0,6.031,2.706,6.031,6.031v0.654L48,12.702l-0.001,21.595L33.83,28.014v0.654C33.83,31.993,31.124,34.699,27.799,34.699z
			 M6.031,14.3c-1.072,0-2.083,0.421-2.847,1.185C2.421,16.249,2,17.26,2,18.331v10.337c0,2.223,1.809,4.031,4.031,4.031h21.768
			c2.223,0,4.031-1.809,4.031-4.031v-3.729l14.169,6.283L46,15.777l-14.17,6.284v-3.729c0-2.223-1.809-4.031-4.031-4.031H6.031z"/>
		<path d="M8.554,14.298c-3.804,0-6.899-3.095-6.899-6.899S4.75,0.5,8.554,0.5s6.899,3.095,6.899,6.899S12.358,14.298,8.554,14.298z
			 M8.554,2.5c-2.702,0-4.899,2.198-4.899,4.899s2.198,4.899,4.899,4.899c2.701,0,4.899-2.198,4.899-4.899S11.255,2.5,8.554,2.5z"/>
		<path d="M24,14.298c-3.804,0-6.899-3.095-6.899-6.899S20.196,0.5,24,0.5c3.804,0,6.898,3.095,6.898,6.899S27.804,14.298,24,14.298
			z M24,2.5c-2.701,0-4.899,2.198-4.899,4.899s2.198,4.899,4.899,4.899s4.898-2.198,4.898-4.899S26.701,2.5,24,2.5z"/>
		<rect x="10.322" y="32.723" transform="matrix(0.8677 0.4971 -0.4971 0.8677 21.4303 -0.323)" width="2" height="14.751"/>
		<rect x="12.256" y="39.099" transform="matrix(0.4972 0.8676 -0.8676 0.4972 44.6604 3.1279)" width="14.752" height="2"/>
		<rect x="14.478" y="33.699" width="2" height="12.799"/>
	</g>
	<rect x="6.25" y="18.289" width="9.228" height="2"/>
	<rect x="6.25" y="22.436" width="9.228" height="2"/>
</g>
</svg>
