<?xml version="1.0" encoding="utf-8"?>
<!-- Generator: Adobe Illustrator 16.0.0, SVG Export Plug-In . SVG Version: 6.00 Build 0)  -->
<!DOCTYPE svg PUBLIC "-//W3C//DTD SVG 1.1//EN" "http://www.w3.org/Graphics/SVG/1.1/DTD/svg11.dtd">
<svg version="1.1" id="Layer_1" xmlns="http://www.w3.org/2000/svg" xmlns:xlink="http://www.w3.org/1999/xlink" x="0px" y="0px"
	 width="48px" height="48px" viewBox="0 0 48 48" enable-background="new 0 0 48 48" xml:space="preserve">
<g>
	<g>
		<path d="M24,2c5.876,0,11.4,2.288,15.557,6.442c8.576,8.578,8.576,22.537,0,31.115C35.4,43.712,29.876,46,24,46
			s-11.401-2.288-15.556-6.443c-8.577-8.578-8.577-22.536,0-31.114C12.599,4.288,18.124,2,24,2 M24,0
			C17.858,0,11.716,2.343,7.03,7.028c-9.372,9.373-9.372,24.57,0,33.943C11.716,45.657,17.858,48,24,48
			c6.143,0,12.284-2.343,16.971-7.029c9.371-9.373,9.371-24.569,0-33.942C36.284,2.343,30.143,0,24,0L24,0z"/>
	</g>
	<path d="M38.05,32.373c-4.096,0-8.105-2.367-14.673-7.592c-10.292-8.185-21.198,0.474-21.658,0.846l-1.263-1.55
		c0.125-0.103,12.602-10.058,24.166-0.86c11.04,8.785,13.798,8.67,21.788,4.263l0.965,1.752C43.67,31.273,40.84,32.373,38.05,32.373
		z"/>
</g>
</svg>
