<?xml version="1.0" encoding="utf-8"?>
<!-- Generator: Adobe Illustrator 16.0.0, SVG Export Plug-In . SVG Version: 6.00 Build 0)  -->
<!DOCTYPE svg PUBLIC "-//W3C//DTD SVG 1.1//EN" "http://www.w3.org/Graphics/SVG/1.1/DTD/svg11.dtd">
<svg version="1.1" id="Layer_1" xmlns="http://www.w3.org/2000/svg" xmlns:xlink="http://www.w3.org/1999/xlink" x="0px" y="0px"
	 width="48px" height="48px" viewBox="0 0 48 48" enable-background="new 0 0 48 48" xml:space="preserve">
<g>
	<g>
		<path d="M24,2c5.876,0,11.4,2.288,15.557,6.442c8.575,8.578,8.575,22.535,0,31.113C35.4,43.711,29.876,46,24,46
			s-11.401-2.289-15.556-6.443c-8.577-8.578-8.577-22.536,0-31.114C12.599,4.289,18.124,2,24,2 M24,0
			C17.858,0,11.716,2.343,7.03,7.029c-9.372,9.373-9.372,24.569,0,33.942C11.716,45.656,17.858,48,24,48
			c6.143,0,12.284-2.344,16.971-7.029c9.371-9.373,9.371-24.569,0-33.942C36.284,2.343,30.143,0,24,0L24,0z"/>
	</g>
	<rect x="23" y="0.672" transform="matrix(0.7071 0.7071 -0.7071 0.7071 24 -9.9411)" width="2" height="46.655"/>
</g>
</svg>
