<?xml version="1.0" encoding="utf-8"?>
<!-- Generator: Adobe Illustrator 16.0.0, SVG Export Plug-In . SVG Version: 6.00 Build 0)  -->
<!DOCTYPE svg PUBLIC "-//W3C//DTD SVG 1.1//EN" "http://www.w3.org/Graphics/SVG/1.1/DTD/svg11.dtd">
<svg version="1.1" id="Layer_1" xmlns="http://www.w3.org/2000/svg" xmlns:xlink="http://www.w3.org/1999/xlink" x="0px" y="0px"
	 width="48px" height="48px" viewBox="0 0 48 48" enable-background="new 0 0 48 48" xml:space="preserve">
<g>
	<g>
		<g>
			<polygon points="8.456,28.471 2.689,22.708 4.103,21.292 8.455,25.643 12.803,21.293 14.217,22.707 			"/>
			<path d="M9.455,27.057h-2c0-23.193,19.058-23.483,19.25-23.483l0.004,2C26.005,5.577,9.455,5.897,9.455,27.057z"/>
		</g>
		<g>
			<polygon points="43.896,26.673 39.547,22.323 35.197,26.673 33.783,25.259 39.547,19.495 45.311,25.259 			"/>
			<path d="M21.296,44.393l-0.004-2c0.705-0.003,17.254-0.324,17.254-21.483h2C40.546,44.102,21.489,44.393,21.296,44.393z"/>
		</g>
	</g>
	<path d="M47.98,16.445H31.538V0H47.98V16.445z M33.538,14.445H45.98V2H33.538V14.445z"/>
	<path d="M16.464,48H0.019V31.555h16.445V48z M2.019,46h12.445V33.555H2.019V46z"/>
</g>
</svg>
