<?xml version="1.0" encoding="utf-8"?>
<!-- Generator: Adobe Illustrator 16.0.0, SVG Export Plug-In . SVG Version: 6.00 Build 0)  -->
<!DOCTYPE svg PUBLIC "-//W3C//DTD SVG 1.1//EN" "http://www.w3.org/Graphics/SVG/1.1/DTD/svg11.dtd">
<svg version="1.1" id="Layer_1" xmlns="http://www.w3.org/2000/svg" xmlns:xlink="http://www.w3.org/1999/xlink" x="0px" y="0px"
	 width="48px" height="48px" viewBox="0 0 48 48" enable-background="new 0 0 48 48" xml:space="preserve">
<g>
	<polygon points="41.799,25.975 36.687,20.125 38.192,18.809 41.99,23.155 46.343,19.362 47.657,20.87 	"/>
	<path d="M21.473,45.473C9.633,45.473,0,35.84,0,24C0,12.16,9.633,2.527,21.473,2.527c11.839,0,21.472,9.633,21.472,21.473h-2
		c0-10.737-8.735-19.473-19.472-19.473C10.736,4.527,2,13.263,2,24s8.736,19.473,19.473,19.473c4.515,0,8.914-1.579,12.386-4.446
		l1.273,1.543C31.303,43.731,26.452,45.473,21.473,45.473z"/>
</g>
</svg>
