<?xml version="1.0" encoding="utf-8"?>
<!-- Generator: Adobe Illustrator 16.0.0, SVG Export Plug-In . SVG Version: 6.00 Build 0)  -->
<!DOCTYPE svg PUBLIC "-//W3C//DTD SVG 1.1//EN" "http://www.w3.org/Graphics/SVG/1.1/DTD/svg11.dtd">
<svg version="1.1" id="Layer_1" xmlns="http://www.w3.org/2000/svg" xmlns:xlink="http://www.w3.org/1999/xlink" x="0px" y="0px"
	 width="48px" height="48px" viewBox="0 0 48 48" enable-background="new 0 0 48 48" xml:space="preserve">
<g>
	<g>
		<polygon points="40.661,26.998 33.613,19.952 35.027,18.538 40.661,24.17 46.293,18.538 47.707,19.952 		"/>
		<path d="M41.66,24.732h-2v-8.655c0-2.295-1.866-4.162-4.161-4.162H7.34v-2h28.159c3.397,0,6.161,2.764,6.161,6.162V24.732z"/>
	</g>
	<g>
		<polygon points="12.971,29.461 7.339,23.83 1.707,29.461 0.293,28.047 7.339,21.002 14.385,28.047 		"/>
		<path d="M40.66,38.085H12.501c-3.397,0-6.161-2.764-6.161-6.16v-8.657h2v8.657c0,2.294,1.867,4.16,4.161,4.16H40.66V38.085z"/>
	</g>
</g>
</svg>
