<?xml version="1.0" encoding="utf-8"?>
<!-- Generator: Adobe Illustrator 16.0.0, SVG Export Plug-In . SVG Version: 6.00 Build 0)  -->
<!DOCTYPE svg PUBLIC "-//W3C//DTD SVG 1.1//EN" "http://www.w3.org/Graphics/SVG/1.1/DTD/svg11.dtd">
<svg version="1.1" id="Layer_1" xmlns="http://www.w3.org/2000/svg" xmlns:xlink="http://www.w3.org/1999/xlink" x="0px" y="0px"
	 width="48px" height="48px" viewBox="0 0 48 48" enable-background="new 0 0 48 48" xml:space="preserve">
<g>
	<g>
		<path d="M15.796,45.58c-5.076,0-9.205-5.065-9.205-11.291V3.42h2v30.869c0,5.123,3.232,9.291,7.205,9.291
			c3.972,0,7.204-4.168,7.204-9.291V16.283h2v18.006C25,40.515,20.871,45.58,15.796,45.58z"/>
		<path d="M41.409,44.58h-2V13.71c0-5.123-3.231-9.29-7.203-9.29C28.232,4.42,25,8.587,25,13.71v18.005h-2V13.71
			c0-6.226,4.13-11.29,9.206-11.29c5.074,0,9.203,5.064,9.203,11.29V44.58z"/>
	</g>
	<g>
		<path d="M13.475,9.84L7.59,3.956L1.707,9.84L0.293,8.426l6.59-6.591c0.391-0.391,1.023-0.391,1.414,0l6.592,6.591L13.475,9.84z"/>
		<path d="M40.41,46.458c-0.266,0-0.52-0.105-0.707-0.293l-6.592-6.591l1.414-1.414l5.885,5.884l5.883-5.884l1.414,1.414
			l-6.59,6.591C40.93,46.353,40.676,46.458,40.41,46.458z"/>
	</g>
</g>
</svg>
