<?xml version="1.0" encoding="utf-8"?>
<!-- Generator: Adobe Illustrator 16.0.0, SVG Export Plug-In . SVG Version: 6.00 Build 0)  -->
<!DOCTYPE svg PUBLIC "-//W3C//DTD SVG 1.1//EN" "http://www.w3.org/Graphics/SVG/1.1/DTD/svg11.dtd">
<svg version="1.1" id="Layer_1" xmlns="http://www.w3.org/2000/svg" xmlns:xlink="http://www.w3.org/1999/xlink" x="0px" y="0px"
	 width="48px" height="48px" viewBox="0 0 48 48" enable-background="new 0 0 48 48" xml:space="preserve">
<g>
	<path d="M6.869,47.697c-0.256,0-0.512-0.098-0.707-0.293l-5.819-5.817l1.414-1.414l5.112,5.11l5.111-5.11l1.414,1.414l-5.818,5.817
		C7.381,47.6,7.125,47.697,6.869,47.697z"/>
	<path d="M41.134,47.697c-0.256,0-0.512-0.098-0.707-0.293l-5.819-5.817l1.414-1.414l5.112,5.11l5.109-5.11l1.414,1.414
		l-5.816,5.817C41.646,47.6,41.39,47.697,41.134,47.697z"/>
	<path d="M42.132,46.016h-2V24.791c0-2.194-1.785-3.98-3.979-3.98H11.85c-2.195,0-3.981,1.786-3.981,3.98v21.171h-2V24.791
		c0-3.297,2.683-5.98,5.981-5.98h24.302c3.297,0,5.979,2.683,5.979,5.98V46.016z"/>
	<rect x="23.002" y="0.701" width="2" height="19.11"/>
</g>
</svg>
