<?xml version="1.0" encoding="utf-8"?>
<!-- Generator: Adobe Illustrator 16.0.0, SVG Export Plug-In . SVG Version: 6.00 Build 0)  -->
<!DOCTYPE svg PUBLIC "-//W3C//DTD SVG 1.1//EN" "http://www.w3.org/Graphics/SVG/1.1/DTD/svg11.dtd">
<svg version="1.1" id="Layer_1" xmlns="http://www.w3.org/2000/svg" xmlns:xlink="http://www.w3.org/1999/xlink" x="0px" y="0px"
	 width="48px" height="48px" viewBox="0 0 48 48" enable-background="new 0 0 48 48" xml:space="preserve">
<g>
	<g>
		<rect x="23.31" y="1.567" width="2" height="23.938"/>
		<polygon points="24.31,26.919 15.818,18.429 17.232,17.015 24.31,24.091 31.386,17.015 32.8,18.429 		"/>
	</g>
	<g>
		<path d="M30.672,43.259H17.328c-2.178,0-3.95-1.772-3.95-3.95v-1.494H7.924c-2.328,0-4.635-1.037-6.172-2.775
			c-1.329-1.502-1.934-3.36-1.704-5.231c0.774-6.276,8.765-15.131,9.104-15.505l0.298-0.328h7.943v2h-7.051
			c-1.431,1.639-7.69,9.054-8.31,14.077c-0.159,1.295,0.273,2.596,1.217,3.662c1.164,1.315,2.911,2.101,4.674,2.101h7.454v3.494
			c0,1.075,0.875,1.95,1.95,1.95h13.344c1.075,0,1.949-0.875,1.949-1.95v-3.494h7.454c1.764,0,3.512-0.785,4.675-2.102
			c0.944-1.066,1.376-2.367,1.217-3.661c-0.619-5.027-6.879-12.439-8.31-14.077H31.15v-2h7.399l0.298,0.327
			c0.34,0.374,8.332,9.229,9.104,15.505c0.23,1.871-0.374,3.729-1.703,5.23c-1.537,1.738-3.845,2.776-6.173,2.776h-5.454v1.494
			C34.621,41.486,32.85,43.259,30.672,43.259z"/>
		<path d="M24.308,47.432H6.143c-1.879,0-3.382-0.563-4.467-1.671c-1.709-1.747-1.677-4.202-1.675-4.306v-9.598h2v9.619
			c0,0.034-0.007,1.762,1.116,2.896c0.694,0.702,1.712,1.059,3.026,1.059h18.165V47.432z"/>
		<path d="M41.855,47.432H23.691v-2h18.165c1.32,0,2.343-0.36,3.038-1.07c1.11-1.134,1.106-2.847,1.105-2.863v-9.641h2v9.619
			c0.002,0.083,0.033,2.537-1.677,4.284C45.237,46.869,43.734,47.432,41.855,47.432z"/>
	</g>
</g>
</svg>
