<?xml version="1.0" encoding="utf-8"?>
<!-- Generator: Adobe Illustrator 16.0.0, SVG Export Plug-In . SVG Version: 6.00 Build 0)  -->
<!DOCTYPE svg PUBLIC "-//W3C//DTD SVG 1.1//EN" "http://www.w3.org/Graphics/SVG/1.1/DTD/svg11.dtd">
<svg version="1.1" id="Layer_1" xmlns="http://www.w3.org/2000/svg" xmlns:xlink="http://www.w3.org/1999/xlink" x="0px" y="0px"
	 width="48px" height="48px" viewBox="0 0 48 48" enable-background="new 0 0 48 48" xml:space="preserve">
<g>
	<path d="M23.522,41.546C23.522,41.546,23.522,41.546,23.522,41.546c-7.682,0-17.81-1.465-22.437-8.442l-0.074-0.133
		C0.34,31.521,0,29.984,0,28.404c0-6.014,4.893-10.907,10.907-10.908c0.852,0,1.701,0.103,2.536,0.306
		c0.926-6.458,6.455-11.348,13.103-11.348c6.763,0,12.413,5.118,13.153,11.773C44.62,19.986,48,24.729,48,29.996
		c0,5.79-4.831,7.691-8.733,9.211C36.991,40.337,30.364,41.546,23.522,41.546z M2.795,32.062c4.38,6.51,14.858,7.484,20.727,7.484
		c6.873,0,13.163-1.269,14.884-2.145l0.092-0.041C42.89,35.65,46,34.121,46,29.996c0-4.617-3.094-8.756-7.523-10.065l-0.674-0.199
		l-0.041-0.701C37.409,13.1,32.482,8.454,26.546,8.454c-6.006,0-10.937,4.704-11.225,10.708l-0.065,1.362l-1.28-0.472
		c-1.001-0.37-2.033-0.557-3.068-0.557C5.996,19.497,2,23.493,2,28.404C2,29.667,2.268,30.897,2.795,32.062z"/>
</g>
</svg>
