<?xml version="1.0" encoding="utf-8"?>
<!-- Generator: Adobe Illustrator 16.0.0, SVG Export Plug-In . SVG Version: 6.00 Build 0)  -->
<!DOCTYPE svg PUBLIC "-//W3C//DTD SVG 1.1//EN" "http://www.w3.org/Graphics/SVG/1.1/DTD/svg11.dtd">
<svg version="1.1" id="Layer_1" xmlns="http://www.w3.org/2000/svg" xmlns:xlink="http://www.w3.org/1999/xlink" x="0px" y="0px"
	 width="48px" height="48px" viewBox="0 0 48 48" enable-background="new 0 0 48 48" xml:space="preserve">
<g>
	<g>
		<rect x="24.82" y="20.691" width="2" height="23.937"/>
		<polygon points="32.896,29.18 25.82,22.105 18.745,29.18 17.331,27.766 25.82,19.277 34.311,27.766 		"/>
	</g>
	<path d="M23.522,37.462c-0.001,0-0.001,0-0.003,0c-7.68,0-17.807-1.465-22.434-8.44l-0.074-0.133C0.34,27.437,0,25.9,0,24.322
		c0-6.014,4.893-10.907,10.907-10.907c0.851,0,1.7,0.103,2.536,0.305c0.925-6.457,6.455-11.347,13.103-11.347
		c6.763,0,12.413,5.118,13.153,11.772C44.62,15.905,48,20.649,48,25.914c0,5.788-4.831,7.689-8.733,9.209
		C36.99,36.253,30.363,37.462,23.522,37.462z M2.795,27.979c4.38,6.509,14.857,7.482,20.725,7.482c0,0,0.002,0,0.002,0
		c6.873,0,13.162-1.268,14.883-2.145l0.092-0.041C42.89,31.566,46,30.037,46,25.914c0-4.617-3.094-8.755-7.523-10.065l-0.674-0.199
		l-0.041-0.7C37.409,9.019,32.482,4.373,26.546,4.373c-6.006,0-10.937,4.703-11.225,10.706l-0.065,1.36l-1.278-0.469
		c-1.004-0.369-2.037-0.555-3.07-0.555C5.996,15.415,2,19.411,2,24.322C2,25.583,2.268,26.813,2.795,27.979z"/>
</g>
</svg>
