<?xml version="1.0" encoding="utf-8"?>
<!-- Generator: Adobe Illustrator 16.0.0, SVG Export Plug-In . SVG Version: 6.00 Build 0)  -->
<!DOCTYPE svg PUBLIC "-//W3C//DTD SVG 1.1//EN" "http://www.w3.org/Graphics/SVG/1.1/DTD/svg11.dtd">
<svg version="1.1" id="Layer_1" xmlns="http://www.w3.org/2000/svg" xmlns:xlink="http://www.w3.org/1999/xlink" x="0px" y="0px"
	 width="48px" height="48px" viewBox="0 0 48 48" enable-background="new 0 0 48 48" xml:space="preserve">
<g>
	<g>
		<rect x="24.822" y="21.774" width="2" height="23.938"/>
		<polygon points="25.822,47.126 17.331,38.637 18.745,37.223 25.822,44.298 32.896,37.223 34.311,38.637 		"/>
	</g>
	<path d="M23.521,36.379C23.52,36.379,23.521,36.379,23.521,36.379c-7.681,0-17.808-1.465-22.435-8.442l-0.074-0.133
		C0.34,26.355,0,24.818,0,23.238c0-6.015,4.893-10.909,10.907-10.909c0.852,0,1.701,0.103,2.536,0.306
		C14.37,6.179,19.898,1.288,26.546,1.288c6.763,0,12.413,5.118,13.153,11.773C44.62,14.819,48,19.563,48,24.829
		c0,5.79-4.831,7.691-8.734,9.211C37.264,35.028,30.74,36.379,23.521,36.379z M2.795,26.895c4.38,6.511,14.857,7.484,20.726,7.484
		c6.874,0,13.164-1.268,14.885-2.145l0.092-0.041C42.89,30.483,46,28.954,46,24.829c0-4.618-3.094-8.756-7.523-10.064l-0.674-0.199
		l-0.041-0.701C37.409,7.934,32.482,3.288,26.546,3.288c-6.006,0-10.937,4.703-11.225,10.707l-0.065,1.361l-1.279-0.471
		c-1.002-0.369-2.034-0.556-3.069-0.556C5.996,14.329,2,18.326,2,23.238C2,24.501,2.268,25.731,2.795,26.895z"/>
</g>
</svg>
