<?xml version="1.0" encoding="utf-8"?>
<!-- Generator: Adobe Illustrator 16.0.0, SVG Export Plug-In . SVG Version: 6.00 Build 0)  -->
<!DOCTYPE svg PUBLIC "-//W3C//DTD SVG 1.1//EN" "http://www.w3.org/Graphics/SVG/1.1/DTD/svg11.dtd">
<svg version="1.1" id="Layer_1" xmlns="http://www.w3.org/2000/svg" xmlns:xlink="http://www.w3.org/1999/xlink" x="0px" y="0px"
	 width="48px" height="48px" viewBox="0 0 48 48" enable-background="new 0 0 48 48" xml:space="preserve">
<g>
	<path d="M40,25.55h-2V7.469C38,4.453,35.547,2,32.531,2H15.47c-3.016,0-5.469,2.453-5.469,5.469V25.55h-2V7.469
		C8.001,3.351,11.352,0,15.47,0h17.061C36.649,0,40,3.351,40,7.469V25.55z"/>
	<rect x="1" y="24.55" width="46" height="2"/>
	<g>
		<rect x="14.173" y="8.022" width="4.943" height="2"/>
		<rect x="22.613" y="8.022" width="11.213" height="2"/>
		<rect x="14.173" y="14.839" width="19.653" height="2"/>
	</g>
	<path d="M7.727,44.739l-1.221-1.584c4.762-3.671,3.835-10.125,3.826-10.189c-0.008-0.05-0.012-0.101-0.012-0.151V25.55h2v7.194
		C12.436,33.62,13.163,40.55,7.727,44.739z"/>
	<path d="M14.887,46.683l-1.428-1.4c2.699-2.752,3.006-9.901,2.897-12.425l-0.001-7.308h2v7.265
		C18.372,33.177,18.741,42.754,14.887,46.683z"/>
	<path d="M39.941,44.739c-5.436-4.19-4.71-11.12-4.594-11.995V25.55h2v7.265c0,0.051-0.004,0.102-0.012,0.151
		c-0.009,0.063-0.912,6.537,3.826,10.189L39.941,44.739z"/>
	<path d="M32.781,46.683c-3.856-3.929-3.485-13.506-3.468-13.912l-0.001-7.221h2v7.265c-0.005,0.134-0.353,9.158,2.896,12.468
		L32.781,46.683z"/>
	<path d="M24.434,47.35c-1.976-5.307-1.454-11.995-1.431-12.277L23,25.55h2v9.604c-0.009,0.146-0.51,6.615,1.309,11.498
		L24.434,47.35z"/>
</g>
</svg>
