<?xml version="1.0" encoding="utf-8"?>
<!-- Generator: Adobe Illustrator 16.0.0, SVG Export Plug-In . SVG Version: 6.00 Build 0)  -->
<!DOCTYPE svg PUBLIC "-//W3C//DTD SVG 1.1//EN" "http://www.w3.org/Graphics/SVG/1.1/DTD/svg11.dtd">
<svg version="1.1" id="Layer_1" xmlns="http://www.w3.org/2000/svg" xmlns:xlink="http://www.w3.org/1999/xlink" x="0px" y="0px"
	 width="48px" height="48px" viewBox="0 0 48 48" enable-background="new 0 0 48 48" xml:space="preserve">
<g>
	<path d="M35.855,45.643c-5.289,0-9.592-4.304-9.592-9.593s4.303-9.592,9.592-9.592s9.593,4.303,9.593,9.592
		S41.145,45.643,35.855,45.643z M35.855,28.458c-4.187,0-7.592,3.405-7.592,7.592s3.405,7.593,7.592,7.593s7.593-3.406,7.593-7.593
		S40.042,28.458,35.855,28.458z"/>
	<rect x="30.706" y="35.05" width="10.299" height="2"/>
	<g>
		<path d="M24,17.245c-11.926,0-24-2.557-24-7.443c0-4.886,12.074-7.443,24-7.443c11.927,0,24,2.557,24,7.443
			C48,14.688,35.927,17.245,24,17.245z M24,4.359c-13.63,0-22,3.17-22,5.443s8.37,5.443,22,5.443c13.631,0,22-3.17,22-5.443
			S37.631,4.359,24,4.359z"/>
		<path d="M24,22.802c-11.926,0-24-2.354-24-6.854h2c0,1.979,8.57,4.854,22,4.854s22-2.875,22-4.854h2
			C48,20.448,35.927,22.802,24,22.802z"/>
		<path d="M24,28.527c-11.926,0-24-2.354-24-6.855h2c0,1.979,8.57,4.855,22,4.855s22-2.876,22-4.855h2
			C48,26.173,35.927,28.527,24,28.527z"/>
		<path d="M24,34.253c-11.926,0-24-2.355-24-6.856h2c0,1.98,8.57,4.856,22,4.856c1.323,0,2.667-0.03,3.992-0.091l0.09,1.998
			C26.728,34.222,25.354,34.253,24,34.253z"/>
		<path d="M42.673,31.873l-0.639-1.895C44.961,28.992,46,27.971,46,27.396h2C48,29.176,46.208,30.683,42.673,31.873z"/>
		<path d="M24,39.977c-11.926,0-24-2.354-24-6.854h2c0,1.979,8.57,4.854,22,4.854c1.407,0,2.813-0.032,4.183-0.096l0.092,1.998
			C26.876,39.943,25.438,39.977,24,39.977z"/>
		<path d="M44.653,36.816l-0.85-1.811C45.423,34.247,46,33.535,46,33.122h2C48,34.532,46.874,35.775,44.653,36.816z"/>
	</g>
</g>
</svg>
