<?xml version="1.0" encoding="utf-8"?>
<!-- Generator: Adobe Illustrator 16.0.0, SVG Export Plug-In . SVG Version: 6.00 Build 0)  -->
<!DOCTYPE svg PUBLIC "-//W3C//DTD SVG 1.1//EN" "http://www.w3.org/Graphics/SVG/1.1/DTD/svg11.dtd">
<svg version="1.1" id="Layer_1" xmlns="http://www.w3.org/2000/svg" xmlns:xlink="http://www.w3.org/1999/xlink" x="0px" y="0px"
	 width="48px" height="48px" viewBox="0 0 48 48" enable-background="new 0 0 48 48" xml:space="preserve">
<g>
	<path d="M12.674,33.199H7.506C3.367,33.199,0,30.118,0,26.331v-4.662c0-3.787,3.367-6.868,7.506-6.868h5.167
		c4.14,0,7.507,3.081,7.507,6.868h-2c0-2.684-2.471-4.868-5.507-4.868H7.506C4.47,16.801,2,18.985,2,21.669v4.662
		c0,2.685,2.47,4.868,5.506,4.868h5.168c3.037,0,5.507-2.184,5.507-4.868h2C20.181,30.118,16.813,33.199,12.674,33.199z"/>
	<path d="M40.494,33.199h-5.168c-4.14,0-7.508-3.081-7.508-6.868h2c0,2.685,2.471,4.868,5.508,4.868h5.168
		c3.036,0,5.506-2.184,5.506-4.868v-4.662c0-2.684-2.47-4.868-5.506-4.868h-5.168c-3.037,0-5.508,2.184-5.508,4.868h-2
		c0-3.787,3.368-6.868,7.508-6.868h5.168c4.139,0,7.506,3.081,7.506,6.868v4.662C48,30.118,44.633,33.199,40.494,33.199z"/>
	<rect x="14.251" y="22.999" width="19.489" height="2"/>
</g>
</svg>
