<?xml version="1.0" encoding="utf-8"?>
<!-- Generator: Adobe Illustrator 16.0.0, SVG Export Plug-In . SVG Version: 6.00 Build 0)  -->
<!DOCTYPE svg PUBLIC "-//W3C//DTD SVG 1.1//EN" "http://www.w3.org/Graphics/SVG/1.1/DTD/svg11.dtd">
<svg version="1.1" id="Layer_1" xmlns="http://www.w3.org/2000/svg" xmlns:xlink="http://www.w3.org/1999/xlink" x="0px" y="0px"
	 width="48px" height="48px" viewBox="0 0 48 48" enable-background="new 0 0 48 48" xml:space="preserve">
<g>
	<path d="M23.337,43.941c-9.318,0-17.6-1.775-20.14-4.316c0,0,0,0,0,0c-0.39-0.391-0.39-1.024,0-1.414
		c0.26-0.26,0.625-0.348,0.959-0.261c0.87-1.342,2.113-7.052,2.113-12.32c0-6.045,2.052-9.312,2.453-9.893
		c2.648-5.422,8.493-8.786,15.279-8.786c6.785,0,12.63,3.364,15.277,8.785c0.402,0.582,2.456,3.849,2.456,9.893
		c0,5.269,1.243,10.979,2.112,12.32c0.595-0.153,1.251,0.33,1.25,0.969c0,0.276-0.112,0.527-0.294,0.709l0,0
		c-0.001,0-0.001,0-0.001,0l-0.001,0.001C42.375,42.047,32.948,43.941,23.337,43.941z M5.771,39.016
		c2.914,1.545,9.555,2.926,17.566,2.926c8.185,0,15.685-1.424,18.825-2.936c-0.474-0.775-0.958-2.082-1.432-4.258
		c-0.624-2.864-0.996-6.272-0.996-9.118c0-5.897-2.098-8.752-2.118-8.781c-0.04-0.052-0.074-0.108-0.103-0.167
		c-2.293-4.768-7.471-7.73-13.512-7.73c-6.042,0-11.221,2.962-13.514,7.73c-0.029,0.059-0.063,0.115-0.102,0.167
		c-0.018,0.024-2.116,2.946-2.116,8.781C8.269,28.217,7.637,36.123,5.771,39.016z"/>
	<path d="M24,8.952c-2.468,0-4.476-2.008-4.476-4.476S21.532,0,24,0c2.469,0,4.477,2.008,4.477,4.476S26.469,8.952,24,8.952z M24,2
		c-1.365,0-2.476,1.111-2.476,2.476S22.635,6.952,24,6.952s2.477-1.111,2.477-2.476S25.365,2,24,2z"/>
	<path d="M24,48c-2.79,0-5.059-2.27-5.059-5.059h2C20.941,44.628,22.313,46,24,46c1.688,0,3.061-1.372,3.061-3.059h2
		C29.061,45.73,26.79,48,24,48z"/>
</g>
</svg>
