<?xml version="1.0" encoding="utf-8"?>
<!-- Generator: Adobe Illustrator 16.0.0, SVG Export Plug-In . SVG Version: 6.00 Build 0)  -->
<!DOCTYPE svg PUBLIC "-//W3C//DTD SVG 1.1//EN" "http://www.w3.org/Graphics/SVG/1.1/DTD/svg11.dtd">
<svg version="1.1" id="Layer_1" xmlns="http://www.w3.org/2000/svg" xmlns:xlink="http://www.w3.org/1999/xlink" x="0px" y="0px"
	 width="48px" height="48px" viewBox="0 0 48 48" enable-background="new 0 0 48 48" xml:space="preserve">
<g>
	<path d="M43.577,40.511l-0.271-0.489c-0.039-0.013-0.077-0.026-0.115-0.042c-2.271-0.939-3.458-9.842-3.458-14.35
		c0-5.834-2.099-8.756-2.12-8.785c-0.036-0.05-0.071-0.107-0.099-0.163c-1.646-3.423-4.765-5.937-8.78-7.078
		c-4.568-1.298-9.75-0.605-13.528,1.809l-1.077-1.686C18.438,6.973,24.1,6.208,29.28,7.68c4.544,1.292,8.091,4.151,9.998,8.057
		c0.402,0.581,2.454,3.847,2.454,9.893c0,5.268,1.243,10.979,2.113,12.32c0.334-0.086,0.697,0.001,0.958,0.26
		c0.391,0.39,0.392,1.022,0.003,1.414c-0.001,0-0.001,0-0.001,0.001l0,0c-0.001,0-0.002,0.001-0.003,0.002
		C44.5,39.931,44.088,40.228,43.577,40.511z"/>
	<path d="M23.337,43.941c-9.315,0-17.596-1.774-20.139-4.314c-0.001-0.001-0.003-0.003-0.002-0.002c0,0,0,0,0,0
		c-0.39-0.391-0.39-1.023,0-1.414c0.259-0.26,0.626-0.348,0.959-0.261c0.87-1.342,2.113-7.052,2.113-12.32
		c0-6.044,2.051-9.31,2.453-9.893c0.228-0.467,0.482-0.926,0.758-1.365l1.693,1.064c-0.251,0.399-0.482,0.818-0.687,1.244
		c-0.028,0.06-0.063,0.116-0.102,0.168c-0.018,0.024-2.116,2.946-2.116,8.781c0,3.813-0.85,10.77-2.485,13.392
		c2.921,1.543,9.555,2.92,17.554,2.92c4.972,0,10.169-0.541,14.259-1.484l0.449,1.949C33.814,43.382,28.453,43.941,23.337,43.941z"
		/>
	<path d="M24,8.952c-2.468,0-4.476-2.008-4.476-4.476S21.532,0,24,0c2.469,0,4.477,2.008,4.477,4.476S26.469,8.952,24,8.952z M24,2
		c-1.365,0-2.476,1.111-2.476,2.476S22.635,6.952,24,6.952s2.477-1.111,2.477-2.476S25.365,2,24,2z"/>
	<path d="M24,48c-2.79,0-5.059-2.27-5.059-5.059h2C20.941,44.628,22.313,46,24,46c1.687,0,3.059-1.372,3.059-3.059h2
		C29.059,45.73,26.789,48,24,48z"/>
	<rect x="-8.527" y="23" transform="matrix(0.7071 0.7071 -0.7071 0.7071 24 -9.9411)" width="65.054" height="2"/>
</g>
</svg>
