<?xml version="1.0" encoding="utf-8"?>
<!-- Generator: Adobe Illustrator 16.0.0, SVG Export Plug-In . SVG Version: 6.00 Build 0)  -->
<!DOCTYPE svg PUBLIC "-//W3C//DTD SVG 1.1//EN" "http://www.w3.org/Graphics/SVG/1.1/DTD/svg11.dtd">
<svg version="1.1" id="Layer_1" xmlns="http://www.w3.org/2000/svg" xmlns:xlink="http://www.w3.org/1999/xlink" x="0px" y="0px"
	 width="48px" height="48px" viewBox="0 0 48 48" enable-background="new 0 0 48 48" xml:space="preserve">
<g>
	<path d="M41.969,39.081h-4.402v-2h4.402c2.223,0,4.031-1.809,4.031-4.031V16.172c0-2.223-1.809-4.031-4.031-4.031H6.031
		C3.809,12.141,2,13.949,2,16.172V33.05c0,2.223,1.809,4.031,4.031,4.031h4.537v2H6.031C2.706,39.081,0,36.375,0,33.05V16.172
		c0-3.325,2.706-6.031,6.031-6.031h35.938c3.325,0,6.031,2.706,6.031,6.031V33.05C48,36.375,45.294,39.081,41.969,39.081z"/>
	<path d="M39.634,47.4H8.366c-0.298,0-0.581-0.133-0.771-0.363s-0.268-0.533-0.211-0.826l3.594-18.647
		c0.091-0.471,0.502-0.811,0.982-0.811h24.08c0.479,0,0.892,0.34,0.981,0.811l3.594,18.647c0.057,0.293-0.021,0.596-0.21,0.826
		C40.215,47.268,39.933,47.4,39.634,47.4z M9.577,45.4h28.846l-3.208-16.647H12.786L9.577,45.4z"/>
	<path d="M40.2,31.857h-3.716v-2H39.2v-8.104H9.123v8.104h2.393v2H8.123c-0.552,0-1-0.447-1-1V20.754c0-0.552,0.448-1,1-1H40.2
		c0.553,0,1,0.448,1,1v10.104C41.2,31.41,40.753,31.857,40.2,31.857z"/>
	<path d="M35.08,12.141H12.92c-0.552,0-1-0.448-1-1V1.599c0-0.552,0.448-1,1-1h22.16c0.553,0,1,0.448,1,1v9.542
		C36.08,11.693,35.633,12.141,35.08,12.141z M13.92,10.141h20.16V2.599H13.92V10.141z"/>
</g>
</svg>
