<?xml version="1.0" encoding="utf-8"?>
<!-- Generator: Adobe Illustrator 16.0.0, SVG Export Plug-In . SVG Version: 6.00 Build 0)  -->
<!DOCTYPE svg PUBLIC "-//W3C//DTD SVG 1.1//EN" "http://www.w3.org/Graphics/SVG/1.1/DTD/svg11.dtd">
<svg version="1.1" id="Layer_1" xmlns="http://www.w3.org/2000/svg" xmlns:xlink="http://www.w3.org/1999/xlink" x="0px" y="0px"
	 width="48px" height="48px" viewBox="0 0 48 48" enable-background="new 0 0 48 48" xml:space="preserve">
<g>
	<g>
		<rect x="33.992" y="36.698" width="9.912" height="2"/>
		<rect x="37.948" y="32.742" width="2" height="9.912"/>
	</g>
	<g>
		<path d="M38.948,31.244c3.559,0,6.454,2.896,6.454,6.454c0,3.56-2.896,6.454-6.454,6.454s-6.454-2.896-6.454-6.454
			C32.494,34.141,35.391,31.244,38.948,31.244 M38.948,29.244c-4.671,0-8.454,3.783-8.454,8.454c0,4.668,3.783,8.454,8.454,8.454
			c4.669,0,8.454-3.786,8.454-8.454C47.402,33.027,43.617,29.244,38.948,29.244L38.948,29.244z"/>
	</g>
	<path d="M39.768,31.6h-3.652v-2h2.652v-7.929H9.241V29.6h2.333v2H8.241c-0.552,0-1-0.447-1-1v-9.929c0-0.552,0.448-1,1-1h31.526
		c0.553,0,1,0.448,1,1V30.6C40.768,31.152,40.32,31.6,39.768,31.6z"/>
	<path d="M10.802,38.698H6.344c-3.277,0-5.944-2.666-5.944-5.943V16.167c0-3.277,2.667-5.943,5.944-5.943h35.32
		c3.277,0,5.943,2.666,5.943,5.943v16.588c0,0.695-0.12,1.376-0.357,2.024l-1.879-0.688c0.157-0.428,0.236-0.877,0.236-1.337V16.167
		c0-2.174-1.769-3.943-3.943-3.943H6.344c-2.175,0-3.944,1.769-3.944,3.943v16.588c0,2.175,1.769,3.943,3.944,3.943h4.458V38.698z"
		/>
	<path d="M39.37,46.874H8.638c-0.298,0-0.581-0.133-0.771-0.363S7.6,45.978,7.656,45.685l3.531-18.326
		c0.091-0.471,0.502-0.811,0.982-0.811h23.669c0.479,0,0.892,0.34,0.982,0.811l0.615,3.195l-1.965,0.379l-0.459-2.385H12.995
		L9.849,44.874H39.37v0.365l0.863-0.167l0.118,0.612c0.057,0.293-0.021,0.596-0.21,0.826C39.951,46.741,39.669,46.874,39.37,46.874z
		"/>
	<path d="M34.895,12.224h-21.78c-0.552,0-1-0.448-1-1V1.847c0-0.552,0.448-1,1-1h21.78c0.553,0,1,0.448,1,1v9.377
		C35.895,11.776,35.447,12.224,34.895,12.224z M14.114,10.224h19.78V2.847h-19.78V10.224z"/>
</g>
</svg>
