<?xml version="1.0" encoding="utf-8"?>
<!-- Generator: Adobe Illustrator 16.0.0, SVG Export Plug-In . SVG Version: 6.00 Build 0)  -->
<!DOCTYPE svg PUBLIC "-//W3C//DTD SVG 1.1//EN" "http://www.w3.org/Graphics/SVG/1.1/DTD/svg11.dtd">
<svg version="1.1" id="Layer_1" xmlns="http://www.w3.org/2000/svg" xmlns:xlink="http://www.w3.org/1999/xlink" x="0px" y="0px"
	 width="48px" height="48px" viewBox="0 0 48 48" enable-background="new 0 0 48 48" xml:space="preserve">
<g>
	<path d="M33.286,48c-0.216,0-0.431-0.07-0.609-0.207L13.433,33.009c-0.034-0.025-0.065-0.054-0.095-0.083H7.677
		c-2.878,0-5.22-2.706-5.22-6.031v-5.789c0-3.325,2.342-6.031,5.22-6.031h5.661c0.03-0.029,0.061-0.057,0.095-0.083L32.677,0.207
		c0.304-0.232,0.71-0.273,1.052-0.104C34.069,0.271,34.286,0.619,34.286,1v46c0,0.381-0.217,0.729-0.558,0.897
		C33.588,47.966,33.437,48,33.286,48z M15.017,31.704l17.269,13.267V3.029L15.018,16.297c-0.101,0.446-0.5,0.778-0.976,0.778H7.677
		c-1.775,0-3.22,1.808-3.22,4.031v5.789c0,2.223,1.444,4.031,3.22,4.031h6.365C14.518,30.926,14.917,31.259,15.017,31.704z"/>
	<path d="M36.098,38.251l-0.779-1.842c4.996-2.112,8.224-6.983,8.224-12.409c0-5.437-3.237-10.312-8.248-12.42l0.775-1.844
		c5.755,2.421,9.473,8.02,9.473,14.264C45.542,30.231,41.835,35.825,36.098,38.251z"/>
</g>
</svg>
