<?xml version="1.0" encoding="utf-8"?>
<!-- Generator: Adobe Illustrator 16.0.0, SVG Export Plug-In . SVG Version: 6.00 Build 0)  -->
<!DOCTYPE svg PUBLIC "-//W3C//DTD SVG 1.1//EN" "http://www.w3.org/Graphics/SVG/1.1/DTD/svg11.dtd">
<svg version="1.1" id="Layer_1" xmlns="http://www.w3.org/2000/svg" xmlns:xlink="http://www.w3.org/1999/xlink" x="0px" y="0px"
	 width="48px" height="48px" viewBox="0 0 48 48" enable-background="new 0 0 48 48" xml:space="preserve">
<g>
	<path d="M24,41.753c-9.789,0-17.753-7.964-17.753-17.753S14.211,6.247,24,6.247S41.753,14.211,41.753,24S33.789,41.753,24,41.753z
		 M24,8.247C15.314,8.247,8.247,15.314,8.247,24c0,8.687,7.067,15.753,15.753,15.753c8.687,0,15.753-7.066,15.753-15.753
		C39.753,15.314,32.687,8.247,24,8.247z"/>
	<g>
		<g>
			<rect x="23" width="2" height="6.659"/>
			<rect x="23" y="41.342" width="2" height="6.658"/>
		</g>
		<g>
			<rect x="41.342" y="23" width="6.658" height="2"/>
			<rect y="23" width="6.658" height="2"/>
		</g>
	</g>
	<g>
		<g>
			<rect x="37.617" y="6.054" transform="matrix(0.7071 0.7071 -0.7071 0.7071 17.9457 -24.5582)" width="2" height="6.658"/>
			<rect x="8.383" y="35.287" transform="matrix(0.7071 0.7071 -0.7071 0.7071 30.0541 4.6754)" width="2" height="6.658"/>
		</g>
		<g>
			<rect x="35.288" y="37.616" transform="matrix(0.707 0.7073 -0.7073 0.707 38.6278 -15.996)" width="6.658" height="2"/>
			<rect x="6.054" y="8.383" transform="matrix(0.707 0.7073 -0.7073 0.707 9.3861 -3.8867)" width="6.658" height="2"/>
		</g>
	</g>
</g>
</svg>
