<?xml version="1.0" encoding="utf-8"?>
<!-- Generator: Adobe Illustrator 16.0.0, SVG Export Plug-In . SVG Version: 6.00 Build 0)  -->
<!DOCTYPE svg PUBLIC "-//W3C//DTD SVG 1.1//EN" "http://www.w3.org/Graphics/SVG/1.1/DTD/svg11.dtd">
<svg version="1.1" id="Layer_1" xmlns="http://www.w3.org/2000/svg" xmlns:xlink="http://www.w3.org/1999/xlink" x="0px" y="0px"
	 width="48px" height="48px" viewBox="0 0 48 48" enable-background="new 0 0 48 48" xml:space="preserve">
<g>
	<g>
		<path d="M41,9.544c2.757,0,5,2.243,5,5v18.912c0,2.757-2.243,5-5,5H7c-2.757,0-5-2.243-5-5V14.544c0-2.757,2.243-5,5-5H41
			 M41,7.544H7c-3.85,0-7,3.15-7,7v18.912c0,3.851,3.15,7,7,7h34c3.85,0,7-3.149,7-7V14.544C48,10.694,44.85,7.544,41,7.544
			L41,7.544z"/>
	</g>
	<rect x="1.208" y="12.919" width="45.694" height="2"/>
	<rect x="1.208" y="19.178" width="45.694" height="2"/>
	<rect x="4.964" y="30.7" width="5.008" height="2"/>
	<rect x="13.191" y="30.7" width="5.008" height="2"/>
	<rect x="21.419" y="30.7" width="5.008" height="2"/>
</g>
</svg>
