<?xml version="1.0" encoding="utf-8"?>
<!-- Generator: Adobe Illustrator 16.0.0, SVG Export Plug-In . SVG Version: 6.00 Build 0)  -->
<!DOCTYPE svg PUBLIC "-//W3C//DTD SVG 1.1//EN" "http://www.w3.org/Graphics/SVG/1.1/DTD/svg11.dtd">
<svg version="1.1" id="Layer_1" xmlns="http://www.w3.org/2000/svg" xmlns:xlink="http://www.w3.org/1999/xlink" x="0px" y="0px"
	 width="48px" height="48px" viewBox="0 0 48 48" enable-background="new 0 0 48 48" xml:space="preserve">
<g>
	<path d="M38.042,40.657H6.031C2.706,40.657,0,37.951,0,34.626V13.374c0-3.326,2.706-6.031,6.031-6.031h32.011
		c3.325,0,6.031,2.706,6.031,6.031v7.148h-2v-7.148c0-2.223-1.809-4.031-4.031-4.031H6.031C3.809,9.343,2,11.151,2,13.374v21.252
		c0,2.223,1.809,4.031,4.031,4.031h32.011c2.223,0,4.031-1.809,4.031-4.031v-7.175h2v7.175
		C44.073,37.951,41.367,40.657,38.042,40.657z"/>
	<g>
		<path d="M44,28.646h-6.926c-2.206,0-4-1.794-4-4v-1.293c0-2.206,1.794-4,4-4H44c2.206,0,4,1.794,4,4v1.293
			C48,26.853,46.206,28.646,44,28.646z M37.074,21.353c-1.103,0-2,0.897-2,2v1.293c0,1.103,0.897,2,2,2H44c1.103,0,2-0.897,2-2
			v-1.293c0-1.103-0.897-2-2-2H37.074z"/>
	</g>
	<rect x="36.955" y="23" width="3.582" height="2"/>
</g>
</svg>
