<?xml version="1.0" encoding="utf-8"?>
<!-- Generator: Adobe Illustrator 16.0.0, SVG Export Plug-In . SVG Version: 6.00 Build 0)  -->
<!DOCTYPE svg PUBLIC "-//W3C//DTD SVG 1.1//EN" "http://www.w3.org/Graphics/SVG/1.1/DTD/svg11.dtd">
<svg version="1.1" id="Layer_1" xmlns="http://www.w3.org/2000/svg" xmlns:xlink="http://www.w3.org/1999/xlink" x="0px" y="0px"
	 width="48px" height="48px" viewBox="0 0 48 48" enable-background="new 0 0 48 48" xml:space="preserve">
<g>
	<path d="M17.904,35.146c-3.541,0-6.993-1.062-9.985-3.068c-3.864-2.591-6.533-6.468-7.516-10.916
		c-0.987-4.465-0.158-8.969,2.333-12.684c3.035-4.524,8.2-7.225,13.816-7.225c3.541,0,6.994,1.061,9.985,3.068
		c3.864,2.592,6.533,6.469,7.517,10.917c0.986,4.464,0.158,8.969-2.334,12.683C28.687,32.445,23.521,35.146,17.904,35.146z
		 M16.553,3.254c-4.949,0-9.493,2.37-12.155,6.339c-2.185,3.256-2.91,7.211-2.042,11.138c0.872,3.943,3.243,7.383,6.678,9.687
		c2.661,1.784,5.729,2.729,8.871,2.729c4.949,0,9.494-2.37,12.157-6.339c2.184-3.256,2.909-7.212,2.041-11.138
		c-0.871-3.943-3.243-7.383-6.677-9.687C22.763,4.198,19.695,3.254,16.553,3.254z"/>
	<rect x="22.617" y="8.598" transform="matrix(0.8307 0.5567 -0.5567 0.8307 16.5176 -9.341)" width="2" height="27.778"/>
	<path d="M42.385,41.064c-0.231,0-0.458-0.081-0.639-0.23L28.752,30.049c-0.395-0.328-0.478-0.9-0.191-1.327l2.703-4.028
		c0.286-0.425,0.847-0.566,1.3-0.325l14.906,7.931c0.25,0.133,0.432,0.365,0.5,0.64c0.069,0.274,0.019,0.565-0.14,0.8l-4.615,6.883
		c-0.157,0.235-0.407,0.393-0.687,0.433C42.48,41.062,42.433,41.064,42.385,41.064z M30.725,29.087l11.446,9.501l3.382-5.044
		l-13.132-6.986L30.725,29.087z"/>
	<path d="M27.631,46.745c-3.504,0-6.355-2.851-6.355-6.354c0-3.505,2.851-6.355,6.355-6.355c3.505,0,6.355,2.851,6.355,6.355
		C33.986,43.895,31.136,46.745,27.631,46.745z M27.631,36.035c-2.401,0-4.355,1.954-4.355,4.355s1.954,4.354,4.355,4.354
		s4.355-1.953,4.355-4.354S30.032,36.035,27.631,36.035z"/>
</g>
</svg>
