<?xml version="1.0" encoding="utf-8"?>
<!-- Generator: Adobe Illustrator 16.0.0, SVG Export Plug-In . SVG Version: 6.00 Build 0)  -->
<!DOCTYPE svg PUBLIC "-//W3C//DTD SVG 1.1//EN" "http://www.w3.org/Graphics/SVG/1.1/DTD/svg11.dtd">
<svg version="1.1" id="Layer_1" xmlns="http://www.w3.org/2000/svg" xmlns:xlink="http://www.w3.org/1999/xlink" x="0px" y="0px"
	 width="48px" height="48px" viewBox="0 0 48 48" enable-background="new 0 0 48 48" xml:space="preserve">
<g>
	<g>
		<path d="M15.11,46.604l-1.98-0.277c0.429-3.055-0.573-6.054-2.748-8.228c-2.41-2.41-5.828-3.366-9.147-2.569l-0.47-1.943
			c4.001-0.968,8.125,0.19,11.031,3.099C14.419,39.308,15.627,42.923,15.11,46.604z"/>
		<path d="M44.883,15.274c-3.084,0-6.021-1.206-8.244-3.43c-2.907-2.907-4.066-7.031-3.101-11.032l1.943,0.469
			c-0.8,3.318,0.161,6.738,2.571,9.149c2.176,2.176,5.175,3.178,8.227,2.746l0.279,1.98C45.997,15.235,45.438,15.274,44.883,15.274z
			"/>
		<path d="M12.332,47.952c-3.671,0-6.754-1.142-8.914-3.302c-3.297-3.296-4.165-8.564-2.444-14.835
			c1.667-6.072,5.583-12.416,11.028-17.86C19.333,4.625,28.445,0.07,35.784,0.07c3.672,0,6.754,1.142,8.913,3.301
			c6.647,6.648,2.797,21.315-8.584,32.696C28.783,43.398,19.671,47.952,12.332,47.952z M35.784,2.07
			c-6.827,0-15.399,4.33-22.368,11.299C8.213,18.573,4.479,24.602,2.903,30.345c-1.522,5.547-0.836,10.125,1.93,12.892
			c1.777,1.776,4.37,2.716,7.5,2.716c6.828,0,15.398-4.33,22.367-11.299c10.601-10.601,14.451-24,8.584-29.868
			C41.507,3.009,38.914,2.07,35.784,2.07z"/>
	</g>
	<rect x="23.828" y="14.139" transform="matrix(0.6955 0.7185 -0.7185 0.6955 23.5888 -11.0463)" width="2.001" height="16.344"/>
	<rect x="25.229" y="17.582" transform="matrix(0.773 0.6345 -0.6345 0.773 18.2178 -13.745)" width="6.169" height="2"/>
	<rect x="21.745" y="20.579" transform="matrix(0.7733 0.6341 -0.6341 0.7733 19.3131 -10.8506)" width="6.168" height="2.001"/>
	<rect x="18.258" y="23.577" transform="matrix(0.7731 0.6343 -0.6343 0.7731 20.4317 -7.961)" width="6.17" height="2"/>
</g>
</svg>
