<?xml version="1.0" encoding="utf-8"?>
<!-- Generator: Adobe Illustrator 16.0.0, SVG Export Plug-In . SVG Version: 6.00 Build 0)  -->
<!DOCTYPE svg PUBLIC "-//W3C//DTD SVG 1.1//EN" "http://www.w3.org/Graphics/SVG/1.1/DTD/svg11.dtd">
<svg version="1.1" id="Layer_1" xmlns="http://www.w3.org/2000/svg" xmlns:xlink="http://www.w3.org/1999/xlink" x="0px" y="0px"
	 width="48px" height="48px" viewBox="0 0 48 48" enable-background="new 0 0 48 48" xml:space="preserve">
<g>
	<path d="M24,48C10.767,48,0,37.233,0,24S10.767,0,24,0s24,10.767,24,24S37.233,48,24,48z M24,2C11.869,2,2,11.869,2,24
		s9.869,22,22,22s22-9.869,22-22S36.131,2,24,2z"/>
	<path d="M22.262,10.393c-1.627,0-2.951-1.324-2.951-2.951c0-1.627,1.324-2.951,2.951-2.951c1.627,0,2.951,1.324,2.951,2.951
		C25.213,9.069,23.889,10.393,22.262,10.393z M22.262,6.491c-0.524,0-0.951,0.426-0.951,0.951s0.427,0.951,0.951,0.951
		s0.951-0.427,0.951-0.951S22.787,6.491,22.262,6.491z"/>
	<path d="M32.799,18.743c-3.392,0-6.15-2.759-6.15-6.151c0-3.392,2.759-6.151,6.15-6.151S38.95,9.2,38.95,12.592
		C38.95,15.984,36.19,18.743,32.799,18.743z M32.799,8.441c-2.288,0-4.15,1.862-4.15,4.151c0,2.289,1.862,4.151,4.15,4.151
		c2.289,0,4.151-1.862,4.151-4.151C36.95,10.303,35.088,8.441,32.799,8.441z"/>
	<path d="M21.063,19.892c-2.288,0-4.15-1.862-4.15-4.15c0-2.289,1.862-4.15,4.15-4.15s4.15,1.862,4.15,4.15
		C25.213,18.03,23.351,19.892,21.063,19.892z M21.063,13.592c-1.186,0-2.15,0.965-2.15,2.15s0.964,2.15,2.15,2.15
		s2.15-0.964,2.15-2.15S22.249,13.592,21.063,13.592z"/>
</g>
</svg>
