<?xml version="1.0" encoding="utf-8"?>
<!-- Generator: Adobe Illustrator 16.0.0, SVG Export Plug-In . SVG Version: 6.00 Build 0)  -->
<!DOCTYPE svg PUBLIC "-//W3C//DTD SVG 1.1//EN" "http://www.w3.org/Graphics/SVG/1.1/DTD/svg11.dtd">
<svg version="1.1" id="Layer_1" xmlns="http://www.w3.org/2000/svg" xmlns:xlink="http://www.w3.org/1999/xlink" x="0px" y="0px"
	 width="48px" height="48px" viewBox="0 0 48 48" enable-background="new 0 0 48 48" xml:space="preserve">
<g>
	<path d="M40.143,23.75H7.858c-0.297,0-0.58-0.132-0.77-0.361s-0.268-0.531-0.213-0.823l4.078-21.75C11.042,0.343,11.455,0,11.936,0
		h23.448c0.47,0,0.876,0.327,0.977,0.786l4.759,21.75c0.065,0.296-0.008,0.605-0.197,0.841C40.731,23.613,40.445,23.75,40.143,23.75
		z M9.063,21.75H38.9L34.579,2H12.766L9.063,21.75z"/>
	<path d="M27.381,37.146h-6.762c-0.552,0-1-0.447-1-1V22.75c0-0.552,0.448-1,1-1h6.762c0.553,0,1,0.448,1,1v13.396
		C28.381,36.699,27.934,37.146,27.381,37.146z M21.619,35.146h4.762V23.75h-4.762V35.146z"/>
	<path d="M34.857,48H13.146c-0.552,0-1-0.447-1-1c0-6.536,5.318-11.854,11.854-11.854S35.855,40.464,35.857,47
		c0,0.265-0.105,0.52-0.293,0.707S35.123,48,34.857,48z M14.196,46h19.61c-0.505-4.966-4.711-8.854-9.807-8.854
		S14.699,41.035,14.196,46z"/>
</g>
</svg>
