<?xml version="1.0" encoding="utf-8"?>
<!-- Generator: Adobe Illustrator 16.0.0, SVG Export Plug-In . SVG Version: 6.00 Build 0)  -->
<!DOCTYPE svg PUBLIC "-//W3C//DTD SVG 1.1//EN" "http://www.w3.org/Graphics/SVG/1.1/DTD/svg11.dtd">
<svg version="1.1" id="Layer_1" xmlns="http://www.w3.org/2000/svg" xmlns:xlink="http://www.w3.org/1999/xlink" x="0px" y="0px"
	 width="48px" height="48px" viewBox="0 0 48 48" enable-background="new 0 0 48 48" xml:space="preserve">
<g>
	<polygon points="25.305,42.333 3.882,20.916 25.318,0.28 26.705,1.72 6.738,20.943 26.719,40.919 	"/>
	<path d="M37.393,48H14.631v-7.374h22.762V48z M16.631,46h18.762v-3.374H16.631V46z"/>
	<path d="M28.525,23.163c-0.255,0-0.511-0.097-0.706-0.292c-2.084-2.076-3.232-4.836-3.233-7.773
		c-0.001-2.935,1.145-5.695,3.226-7.771c2.08-2.075,4.847-3.217,7.791-3.217s5.712,1.143,7.793,3.217
		c0.188,0.188,0.294,0.442,0.294,0.708c0,0.266-0.105,0.521-0.294,0.708L29.231,22.871C29.036,23.066,28.781,23.163,28.525,23.163z
		 M35.603,6.111c-2.411,0-4.677,0.936-6.379,2.633c-1.702,1.697-2.639,3.954-2.638,6.354c0.001,2.066,0.696,4.026,1.978,5.615
		L41.234,8.075C39.641,6.802,37.676,6.111,35.603,6.111z"/>
	<path d="M38.437,22.892c-1.333,0-2.587-0.517-3.53-1.456c-0.946-0.941-1.467-2.193-1.467-3.525c0-1.33,0.52-2.58,1.463-3.519
		c0.941-0.94,2.194-1.458,3.527-1.458s2.587,0.518,3.53,1.459c0.943,0.938,1.464,2.188,1.466,3.518
		c0.001,1.331-0.518,2.583-1.461,3.525C41.021,22.375,39.769,22.892,38.437,22.892z M38.43,14.933c-0.799,0-1.551,0.311-2.115,0.875
		c-0.564,0.562-0.875,1.309-0.875,2.103c0,0.796,0.312,1.544,0.877,2.107c1.131,1.125,3.104,1.127,4.235,0.001
		c0.564-0.563,0.875-1.312,0.874-2.107c-0.001-0.794-0.313-1.541-0.877-2.103C39.981,15.244,39.229,14.933,38.43,14.933z"/>
	<path d="M26.457,10.09c-0.921,0-1.787-0.358-2.44-1.008c-0.652-0.649-1.012-1.513-1.013-2.433c-0.001-0.92,0.358-1.787,1.01-2.438
		c1.305-1.298,3.573-1.298,4.878-0.002c0.654,0.653,1.014,1.518,1.014,2.438c0,0.92-0.358,1.784-1.01,2.434
		C28.244,9.732,27.378,10.09,26.457,10.09z M26.453,5.205c-0.389,0-0.753,0.15-1.026,0.422c-0.272,0.272-0.423,0.635-0.423,1.02
		c0,0.384,0.151,0.746,0.424,1.018c0.55,0.547,1.506,0.549,2.056,0c0.272-0.271,0.422-0.633,0.422-1.018
		c0-0.385-0.15-0.748-0.424-1.021C27.208,5.355,26.842,5.205,26.453,5.205z"/>
</g>
</svg>
