<?xml version="1.0" encoding="utf-8"?>
<!-- Generator: Adobe Illustrator 16.0.0, SVG Export Plug-In . SVG Version: 6.00 Build 0)  -->
<!DOCTYPE svg PUBLIC "-//W3C//DTD SVG 1.1//EN" "http://www.w3.org/Graphics/SVG/1.1/DTD/svg11.dtd">
<svg version="1.1" id="Layer_1" xmlns="http://www.w3.org/2000/svg" xmlns:xlink="http://www.w3.org/1999/xlink" x="0px" y="0px"
	 width="48px" height="48px" viewBox="0 0 48 48" enable-background="new 0 0 48 48" xml:space="preserve">
<g>
	<path d="M24.001,25.52c-12.813,0-23.238-10.424-23.238-23.237c0-0.325,0.021-0.646,0.043-0.969L0.882,0h46.243l0.071,1.35
		c0.021,0.31,0.04,0.619,0.04,0.933C47.236,15.095,36.813,25.52,24.001,25.52z M2.769,2C2.766,2.094,2.763,2.188,2.763,2.282
		c0,11.71,9.527,21.237,21.238,21.237c11.709,0,21.235-9.527,21.235-21.237c0-0.094-0.002-0.188-0.006-0.282H2.769z"/>
	<rect x="23.001" y="24.521" width="2" height="22.479"/>
	<rect x="13.169" y="46" width="21.664" height="2"/>
</g>
</svg>
