<?xml version="1.0" encoding="utf-8"?>
<!-- Generator: Adobe Illustrator 16.0.0, SVG Export Plug-In . SVG Version: 6.00 Build 0)  -->
<!DOCTYPE svg PUBLIC "-//W3C//DTD SVG 1.1//EN" "http://www.w3.org/Graphics/SVG/1.1/DTD/svg11.dtd">
<svg version="1.1" id="Layer_1" xmlns="http://www.w3.org/2000/svg" xmlns:xlink="http://www.w3.org/1999/xlink" x="0px" y="0px"
	 width="48px" height="48px" viewBox="0 0 48 48" enable-background="new 0 0 48 48" xml:space="preserve">
<g>
	<g>
		<path d="M38.84,38.902c-2.886,0-5.146-3.953-5.146-9v-3.547c0-5.047,2.261-9,5.146-9s5.146,3.954,5.146,9v3.547
			C43.986,34.949,41.726,38.902,38.84,38.902z M38.84,19.355c-1.485,0-3.146,2.994-3.146,7v3.547c0,4.007,1.661,7,3.146,7
			s3.146-2.993,3.146-7v-3.547C41.986,22.349,40.325,19.355,38.84,19.355z"/>
	</g>
	<g>
		<rect x="14.556" y="20.914" width="2" height="22.518"/>
		<rect x="21.413" y="20.914" width="2" height="22.518"/>
		<rect x="28.271" y="20.914" width="2" height="22.518"/>
	</g>
	<path d="M19.548,19.098c-1.047,0-2.073-0.252-2.998-0.733c-0.68,0.312-1.42,0.474-2.171,0.474c-1.829,0-3.503-0.948-4.451-2.47
		c-3.202,0.242-5.912-2.317-5.913-5.487c0-3.034,2.469-5.503,5.503-5.503c0.259,0,0.518,0.019,0.774,0.056
		c0.702-2.342,2.893-4.046,5.417-4.046c1.912,0,3.605,0.953,4.63,2.409C21.626,1.523,24.066,0,26.843,0
		c2.709,0,5.183,1.463,6.502,3.786c4.036-0.452,7.47,2.734,7.47,6.688c0,3.711-3.02,6.731-6.73,6.731
		c-0.789,0-1.555-0.134-2.285-0.4c-1.105,1.338-2.77,2.141-4.523,2.141c-1.335,0-2.621-0.459-3.653-1.283
		C22.473,18.584,21.033,19.098,19.548,19.098z M16.586,16.044l0.526,0.338c0.73,0.469,1.573,0.716,2.436,0.716
		c1.284,0,2.471-0.526,3.341-1.481l0.752-0.825l0.737,0.838c0.736,0.836,1.792,1.315,2.897,1.315c1.372,0,2.612-0.708,3.318-1.894
		l0.481-0.81l0.838,0.433c0.68,0.352,1.41,0.53,2.171,0.53c2.608,0,4.73-2.122,4.73-4.731c0-2.957-2.717-5.31-5.809-4.604
		l-0.808,0.184l-0.332-0.759C30.994,3.293,29.021,2,26.843,2c-2.9,0-5.298,2.271-5.458,5.17L21.31,8.509l-1.105-0.396l-0.933,0
		l0.096-1.088c0-1.995-1.641-3.635-3.658-3.635c-1.887,0-3.486,1.474-3.64,3.354l-0.107,1.313L10.727,7.6
		C10.33,7.453,9.923,7.379,9.518,7.379c-1.932,0-3.503,1.571-3.503,3.503c0,2.178,2.017,3.905,4.257,3.42l0.802-0.173l0.326,0.753
		c0.515,1.188,1.684,1.957,2.979,1.957c0.589,0,1.167-0.163,1.673-0.47L16.586,16.044z"/>
	<path d="M31.82,48H13.006c-2.137,0-3.875-1.738-3.875-3.875V14.386h2.042l0.27,0.577c0.534,1.141,1.686,1.877,2.936,1.877
		c0.588,0,1.167-0.163,1.674-0.47l0.534-0.325l0.526,0.338c0.728,0.468,1.57,0.716,2.435,0.716c1.283,0,2.47-0.526,3.341-1.481
		l0.752-0.825l0.737,0.839c0.734,0.835,1.791,1.315,2.897,1.315c1.372,0,2.612-0.708,3.317-1.894l0.481-0.81l0.838,0.433
		c0.832,0.431,1.768,0.597,2.68,0.501l1.104-0.115v29.063C35.695,46.262,33.957,48,31.82,48z M11.131,17.704v26.421
		c0,1.034,0.841,1.875,1.875,1.875H31.82c1.034,0,1.875-0.841,1.875-1.875v-26.93c-0.652-0.037-1.287-0.167-1.897-0.39
		c-1.104,1.338-2.769,2.141-4.522,2.141c-1.336,0-2.623-0.459-3.654-1.283c-1.963,1.572-4.839,1.865-7.073,0.703
		C14.783,19.174,12.612,18.875,11.131,17.704z"/>
</g>
</svg>
