<?xml version="1.0" encoding="utf-8"?>
<!-- Generator: Adobe Illustrator 16.0.0, SVG Export Plug-In . SVG Version: 6.00 Build 0)  -->
<!DOCTYPE svg PUBLIC "-//W3C//DTD SVG 1.1//EN" "http://www.w3.org/Graphics/SVG/1.1/DTD/svg11.dtd">
<svg version="1.1" id="Layer_1" xmlns="http://www.w3.org/2000/svg" xmlns:xlink="http://www.w3.org/1999/xlink" x="0px" y="0px"
	 width="48px" height="48px" viewBox="0 0 48 48" enable-background="new 0 0 48 48" xml:space="preserve">
<g>
	<g>
		<path d="M44,48H4c-2.206,0-4-1.794-4-4V4c0-2.206,1.794-4,4-4h40c2.206,0,4,1.794,4,4v40C48,46.206,46.206,48,44,48z M4,2
			C2.897,2,2,2.897,2,4v40c0,1.103,0.897,2,2,2h40c1.103,0,2-0.897,2-2V4c0-1.103-0.897-2-2-2H4z"/>
	</g>
	<path d="M43.723,16.42H21.228V4.234h22.495V16.42z M23.228,14.42h18.495V6.234H23.228V14.42z"/>
	<g>
		<path d="M27.957,25.711h-6.729v-6.028h6.729V25.711z M23.228,23.711h2.729v-2.028h-2.729V23.711z"/>
		<path d="M35.839,25.711h-6.729v-6.028h6.729V25.711z M31.109,23.711h2.729v-2.028h-2.729V23.711z"/>
		<path d="M43.721,25.711h-6.729v-6.028h6.729V25.711z M38.992,23.711h2.729v-2.028h-2.729V23.711z"/>
	</g>
	<g>
		<path d="M27.957,32.091h-6.729v-6.026h6.729V32.091z M23.228,30.091h2.729v-2.026h-2.729V30.091z"/>
		<path d="M35.839,32.091h-6.729v-6.026h6.729V32.091z M31.109,30.091h2.729v-2.026h-2.729V30.091z"/>
		<path d="M43.721,32.091h-6.729v-6.026h6.729V32.091z M38.992,30.091h2.729v-2.026h-2.729V30.091z"/>
	</g>
	<g>
		<path d="M27.957,38.473h-6.729v-6.029h6.729V38.473z M23.228,36.473h2.729v-2.029h-2.729V36.473z"/>
		<path d="M35.839,38.473h-6.729v-6.029h6.729V38.473z M31.109,36.473h2.729v-2.029h-2.729V36.473z"/>
		<path d="M43.721,38.473h-6.729v-6.029h6.729V38.473z M38.992,36.473h2.729v-2.029h-2.729V36.473z"/>
	</g>
	<g>
		<path d="M27.957,44.854h-6.729v-6.029h6.729V44.854z M23.228,42.854h2.729v-2.029h-2.729V42.854z"/>
		<path d="M35.839,44.854h-6.729v-6.029h6.729V44.854z M31.109,42.854h2.729v-2.029h-2.729V42.854z"/>
		<path d="M43.721,44.854h-6.729v-6.029h6.729V44.854z M38.992,42.854h2.729v-2.029h-2.729V42.854z"/>
	</g>
	<path d="M15.075,44.98H8.034c-2.063,0-3.741-1.416-3.741-3.156V6.175c0-1.74,1.678-3.156,3.741-3.156h7.042
		c2.063,0,3.742,1.416,3.742,3.156v35.649C18.816,43.565,17.138,44.98,15.075,44.98z M8.034,5.019c-1.026,0-1.741,0.609-1.741,1.156
		v35.649c0,0.616,0.813,1.156,1.741,1.156h7.041c0.928,0,1.742-0.54,1.742-1.156l0.001-35.649c0-0.547-0.715-1.156-1.742-1.156
		H8.034z"/>
</g>
</svg>
