<?xml version="1.0" encoding="utf-8"?>
<!-- Generator: Adobe Illustrator 16.0.0, SVG Export Plug-In . SVG Version: 6.00 Build 0)  -->
<!DOCTYPE svg PUBLIC "-//W3C//DTD SVG 1.1//EN" "http://www.w3.org/Graphics/SVG/1.1/DTD/svg11.dtd">
<svg version="1.1" id="Layer_1" xmlns="http://www.w3.org/2000/svg" xmlns:xlink="http://www.w3.org/1999/xlink" x="0px" y="0px"
	 width="48px" height="48px" viewBox="0 0 48 48" enable-background="new 0 0 48 48" xml:space="preserve">
<g>
	<path d="M24,48C10.767,48,0,37.233,0,24S10.767,0,24,0s24,10.767,24,24S37.233,48,24,48z M24,2C11.869,2,2,11.869,2,24
		s9.869,22,22,22s22-9.869,22-22S36.131,2,24,2z"/>
	<path d="M24.05,38.662c-4.717,0-9.078-2.357-11.666-6.308l1.673-1.096c2.217,3.383,5.953,5.403,9.993,5.403
		c3.974,0,7.675-1.968,9.9-5.263l1.658,1.119C33.01,36.365,28.688,38.662,24.05,38.662z"/>
	<g>
		<path d="M15.962,27.074h-4.534c-3.339,0-6.061-2.534-6.106-5.666l-0.73-4.893c0-3.167,2.739-5.743,6.106-5.743h6.724
			c3.367,0,6.106,2.576,6.106,5.743l-0.01,0.142l-0.681,4.748C22.781,24.655,19.182,27.074,15.962,27.074z M6.592,16.444
			l0.729,4.885c0,2.065,1.842,3.745,4.106,3.745h4.534c2.208,0,4.875-1.67,4.875-3.745l0.01-0.142l0.68-4.739
			c-0.04-2.033-1.866-3.676-4.105-3.676h-6.724C8.46,12.772,6.634,14.413,6.592,16.444z"/>
		<path d="M36.57,27.074h-4.534c-3.221,0-6.819-2.419-6.874-5.669l-0.691-4.89c0-3.167,2.739-5.743,6.105-5.743h6.725
			c3.366,0,6.105,2.576,6.105,5.743l-0.012,0.15l-0.719,4.743C42.631,24.54,39.909,27.074,36.57,27.074z M26.472,16.448l0.689,4.881
			c0,2.075,2.667,3.745,4.875,3.745h4.534c2.265,0,4.106-1.68,4.106-3.745l0.012-0.15l0.717-4.735
			c-0.041-2.031-1.866-3.672-4.104-3.672h-6.725C28.337,12.772,26.511,14.415,26.472,16.448z"/>
	</g>
	<rect x="2.715" y="13.891" transform="matrix(0.7833 0.6216 -0.6216 0.7833 10.2102 0.4894)" width="3.375" height="2"/>
	<rect x="42.477" y="12.841" transform="matrix(0.6005 0.7996 -0.7996 0.6005 28.7319 -29.0898)" width="2" height="2.734"/>
	<rect x="22.322" y="14.483" width="3.464" height="2"/>
</g>
</svg>
