<?xml version="1.0" encoding="utf-8"?>
<!-- Generator: Adobe Illustrator 16.0.0, SVG Export Plug-In . SVG Version: 6.00 Build 0)  -->
<!DOCTYPE svg PUBLIC "-//W3C//DTD SVG 1.1//EN" "http://www.w3.org/Graphics/SVG/1.1/DTD/svg11.dtd">
<svg version="1.1" id="Layer_1" xmlns="http://www.w3.org/2000/svg" xmlns:xlink="http://www.w3.org/1999/xlink" x="0px" y="0px"
	 width="48px" height="48px" viewBox="0 0 48 48" enable-background="new 0 0 48 48" xml:space="preserve">
<g>
	<path d="M24.535,48c-13.233,0-24-10.767-24-24s10.767-24,24-24c10.514,0,19.71,6.731,22.883,16.75l0.295,0.932l-20.871,7.133
		l14.183,16.644l-0.747,0.65C35.91,45.907,30.319,48,24.535,48z M24.535,2c-12.131,0-22,9.869-22,22s9.869,22,22,22
		c4.971,0,9.787-1.687,13.668-4.769L23.412,23.873l21.784-7.444C42.029,7.758,33.846,2,24.535,2z"/>
	<path d="M29.336,17.985c-2.603,0-4.721-2.528-4.721-5.635c0-3.107,2.118-5.635,4.721-5.635s4.721,2.528,4.721,5.635
		C34.057,15.457,31.938,17.985,29.336,17.985z M29.336,8.715c-1.5,0-2.721,1.631-2.721,3.635s1.221,3.635,2.721,3.635
		s2.721-1.63,2.721-3.635S30.836,8.715,29.336,8.715z"/>
</g>
</svg>
