<?xml version="1.0" encoding="utf-8"?>
<!-- Generator: Adobe Illustrator 16.0.0, SVG Export Plug-In . SVG Version: 6.00 Build 0)  -->
<!DOCTYPE svg PUBLIC "-//W3C//DTD SVG 1.1//EN" "http://www.w3.org/Graphics/SVG/1.1/DTD/svg11.dtd">
<svg version="1.1" id="Layer_1" xmlns="http://www.w3.org/2000/svg" xmlns:xlink="http://www.w3.org/1999/xlink" x="0px" y="0px"
	 width="48px" height="48px" viewBox="0 0 48 48" enable-background="new 0 0 48 48" xml:space="preserve">
<g>
	<path d="M24,48.001c-11.636,0-21.102-9.467-21.102-21.103C2.898,15.263,12.364,5.797,24,5.797s21.102,9.466,21.102,21.102
		C45.102,38.534,35.636,48.001,24,48.001z M24,7.797c-10.533,0-19.102,8.569-19.102,19.102c0,10.533,8.569,19.103,19.102,19.103
		c10.532,0,19.102-8.569,19.102-19.103C43.102,16.366,34.532,7.797,24,7.797z"/>
	<g>
		<rect x="23" y="8.824" width="2" height="7.124"/>
		<rect x="23" y="37.084" width="2" height="7.121"/>
	</g>
	<g>
		<rect x="34.566" y="25.516" width="7.123" height="2"/>
		<rect x="6.309" y="25.516" width="7.123" height="2"/>
	</g>
	<path d="M14.398,37.5c-0.258,0-0.514-0.1-0.708-0.293c-0.346-0.346-0.391-0.891-0.107-1.288l8.001-11.201
		c0.064-0.09,0.143-0.169,0.233-0.233l11.203-8.002c0.396-0.284,0.941-0.241,1.288,0.107c0.346,0.346,0.391,0.89,0.106,1.288
		l-8,11.203c-0.063,0.09-0.143,0.169-0.232,0.232l-11.204,8C14.804,37.438,14.601,37.5,14.398,37.5z M23.116,26.016l-4.418,6.186
		l6.187-4.418l4.418-6.187L23.116,26.016z"/>
	<path d="M23.7,7.573c-2.088,0-3.786-1.698-3.786-3.786s1.698-3.786,3.786-3.786s3.786,1.698,3.786,3.786S25.788,7.573,23.7,7.573z
		 M23.7,2.001c-0.985,0-1.786,0.801-1.786,1.786s0.801,1.786,1.786,1.786c0.985,0,1.786-0.801,1.786-1.786S24.686,2.001,23.7,2.001z
		"/>
</g>
</svg>
