<?xml version="1.0" encoding="utf-8"?>
<!-- Generator: Adobe Illustrator 16.0.0, SVG Export Plug-In . SVG Version: 6.00 Build 0)  -->
<!DOCTYPE svg PUBLIC "-//W3C//DTD SVG 1.1//EN" "http://www.w3.org/Graphics/SVG/1.1/DTD/svg11.dtd">
<svg version="1.1" id="Layer_1" xmlns="http://www.w3.org/2000/svg" xmlns:xlink="http://www.w3.org/1999/xlink" x="0px" y="0px"
	 width="48px" height="48px" viewBox="0 0 48 48" enable-background="new 0 0 48 48" xml:space="preserve">
<g>
	<path d="M24,43.169c-0.103,0-0.206-0.016-0.305-0.048l-23-7.376C0.281,35.612,0,35.228,0,34.793V13.481
		c0-0.319,0.153-0.62,0.411-0.808c0.258-0.188,0.592-0.242,0.895-0.144l23,7.376C24.72,20.038,25,20.422,25,20.857v21.312
		c0,0.319-0.152,0.62-0.411,0.808C24.416,43.104,24.209,43.169,24,43.169z M2,34.063l21,6.734V21.586L2,14.852V34.063z"/>
	<path d="M24,43.169c-0.209,0-0.416-0.065-0.589-0.192C23.153,42.789,23,42.488,23,42.169V20.857c0-0.435,0.281-0.819,0.695-0.952
		l23-7.376c0.305-0.098,0.637-0.043,0.895,0.144C47.848,12.861,48,13.162,48,13.481v21.312c0,0.435-0.28,0.819-0.694,0.952
		l-23,7.376C24.206,43.153,24.103,43.169,24,43.169z M25,21.586v19.211l21-6.734V14.852L25,21.586z"/>
	<path d="M24,22.06c-0.106,0-0.212-0.017-0.314-0.051l-23-7.615C0.276,14.259,0,13.876,0,13.445s0.276-0.814,0.686-0.949l23-7.614
		c0.204-0.067,0.425-0.067,0.629,0l23,7.614C47.724,12.631,48,13.014,48,13.445s-0.276,0.814-0.686,0.949l-23,7.615
		C24.212,22.043,24.106,22.06,24,22.06z M4.182,13.445L24,20.007l19.818-6.562L24,6.884L4.182,13.445z"/>
</g>
</svg>
