<?xml version="1.0" encoding="utf-8"?>
<!-- Generator: Adobe Illustrator 16.0.0, SVG Export Plug-In . SVG Version: 6.00 Build 0)  -->
<!DOCTYPE svg PUBLIC "-//W3C//DTD SVG 1.1//EN" "http://www.w3.org/Graphics/SVG/1.1/DTD/svg11.dtd">
<svg version="1.1" id="Layer_1" xmlns="http://www.w3.org/2000/svg" xmlns:xlink="http://www.w3.org/1999/xlink" x="0px" y="0px"
	 width="48px" height="48px" viewBox="0 0 48 48" enable-background="new 0 0 48 48" xml:space="preserve">
<g>
	<path d="M24,40.988c-0.103,0-0.206-0.016-0.306-0.048L7.227,35.656c-0.414-0.133-0.694-0.518-0.694-0.952v-8.748h2v8.019L23,38.617
		V25.458L7.227,20.4l0.61-1.904l16.468,5.28C24.719,23.909,25,24.294,25,24.729v15.26c0,0.319-0.152,0.62-0.411,0.808
		C24.416,40.923,24.209,40.988,24,40.988z"/>
	<path d="M24,25.872c-0.106,0-0.212-0.017-0.314-0.051l-16.468-5.45c-0.41-0.135-0.686-0.518-0.686-0.949s0.276-0.814,0.686-0.949
		l16.468-5.451c0.204-0.067,0.425-0.067,0.629,0l16.468,5.451c0.409,0.135,0.686,0.518,0.686,0.949s-0.276,0.814-0.686,0.949
		l-16.468,5.45C24.212,25.855,24.106,25.872,24,25.872z M10.715,19.422L24,23.819l13.285-4.397L24,15.024L10.715,19.422z"/>
	<path d="M18.368,30.718c-0.11,0-0.221-0.019-0.328-0.056L1.832,25.038c-0.337-0.116-0.586-0.404-0.654-0.754
		c-0.067-0.351,0.057-0.71,0.326-0.944l4.529-3.938l-5.709-5.25c-0.261-0.24-0.375-0.6-0.301-0.946
		c0.074-0.346,0.326-0.627,0.662-0.739l16.21-5.403c0.339-0.111,0.71-0.037,0.976,0.197l6.79,5.959l-1.319,1.503l-6.358-5.58
		L2.926,13.827l5.283,4.858c0.209,0.193,0.327,0.466,0.323,0.75c-0.004,0.285-0.129,0.554-0.344,0.741l-4.07,3.539l14.034,4.869
		l5.195-4.47l1.305,1.516l-5.632,4.846C18.836,30.635,18.604,30.718,18.368,30.718z"/>
	<path d="M24,40.988c-0.209,0-0.416-0.065-0.589-0.192C23.153,40.608,23,40.308,23,39.988v-15.26c0-0.435,0.281-0.819,0.695-0.952
		l16.467-5.28l0.611,1.904L25,25.458v13.159l14.468-4.643v-8.019h2v8.748c0,0.435-0.28,0.819-0.694,0.952L24.306,40.94
		C24.206,40.973,24.103,40.988,24,40.988z"/>
	<path d="M29.632,30.718c-0.235,0-0.468-0.083-0.652-0.242l-5.632-4.846l1.305-1.516l5.195,4.47l14.035-4.869l-4.071-3.539
		c-0.215-0.187-0.34-0.456-0.344-0.741s0.113-0.558,0.323-0.75l5.283-4.858L31.02,9.143l-6.36,5.58L23.34,13.22l6.792-5.959
		c0.267-0.235,0.64-0.309,0.976-0.197l16.209,5.403c0.336,0.112,0.587,0.393,0.661,0.739s-0.04,0.706-0.301,0.946l-5.709,5.25
		l4.531,3.938c0.27,0.234,0.394,0.594,0.325,0.944c-0.067,0.351-0.316,0.639-0.653,0.755L29.96,30.662
		C29.853,30.699,29.742,30.718,29.632,30.718z"/>
</g>
</svg>
