<?xml version="1.0" encoding="utf-8"?>
<!-- Generator: Adobe Illustrator 16.0.0, SVG Export Plug-In . SVG Version: 6.00 Build 0)  -->
<!DOCTYPE svg PUBLIC "-//W3C//DTD SVG 1.1//EN" "http://www.w3.org/Graphics/SVG/1.1/DTD/svg11.dtd">
<svg version="1.1" id="Layer_1" xmlns="http://www.w3.org/2000/svg" xmlns:xlink="http://www.w3.org/1999/xlink" x="0px" y="0px"
	 width="48px" height="48px" viewBox="0 0 48 48" enable-background="new 0 0 48 48" xml:space="preserve">
<g>
	<g>
		<path d="M24,43.168c-0.103,0-0.206-0.016-0.305-0.048l-23-7.376C0.281,35.611,0,35.227,0,34.792V13.48
			c0-0.319,0.153-0.62,0.411-0.808c0.258-0.188,0.592-0.243,0.895-0.144l23,7.376C24.72,20.037,25,20.421,25,20.856v21.312
			c0,0.319-0.152,0.62-0.411,0.808C24.416,43.103,24.209,43.168,24,43.168z M2,34.063l21,6.734V21.585L2,14.851V34.063z"/>
		<path d="M24,43.168c-0.209,0-0.416-0.065-0.589-0.192C23.153,42.788,23,42.487,23,42.168V20.856c0-0.435,0.281-0.819,0.695-0.952
			l23-7.376c0.305-0.099,0.637-0.044,0.895,0.144C47.848,12.86,48,13.161,48,13.48v21.312c0,0.435-0.28,0.819-0.694,0.952l-23,7.376
			C24.206,43.152,24.103,43.168,24,43.168z M25,21.585v19.211l21-6.734V14.851L25,21.585z"/>
		<path d="M24,22.059c-0.106,0-0.212-0.017-0.314-0.051l-23-7.613C0.276,14.26,0,13.877,0,13.446s0.276-0.814,0.686-0.949l23-7.614
			c0.204-0.067,0.425-0.067,0.629,0l23,7.614C47.724,12.632,48,13.015,48,13.446s-0.276,0.814-0.686,0.949l-23,7.613
			C24.212,22.042,24.106,22.059,24,22.059z M4.182,13.446L24,20.006l19.817-6.56L24,6.885L4.182,13.446z"/>
	</g>
	<rect x="5.798" y="21.8" transform="matrix(0.9502 0.3115 -0.3115 0.9502 7.6693 -2.4122)" width="11.174" height="2"/>
</g>
</svg>
