<?xml version="1.0" encoding="utf-8"?>
<!-- Generator: Adobe Illustrator 16.0.0, SVG Export Plug-In . SVG Version: 6.00 Build 0)  -->
<!DOCTYPE svg PUBLIC "-//W3C//DTD SVG 1.1//EN" "http://www.w3.org/Graphics/SVG/1.1/DTD/svg11.dtd">
<svg version="1.1" id="Layer_1" xmlns="http://www.w3.org/2000/svg" xmlns:xlink="http://www.w3.org/1999/xlink" x="0px" y="0px"
	 width="48px" height="48px" viewBox="0 0 48 48" enable-background="new 0 0 48 48" xml:space="preserve">
<g>
	<path d="M20.234,48c-0.514,0-1.057-0.04-1.578-0.08c-0.431-0.032-0.846-0.064-1.209-0.064c-1.611,0-2.897-0.241-4.004-1.362
		c-0.302,0.239-0.75,0.537-1.354,0.537c0,0,0,0,0,0c-0.286,0-0.572-0.067-0.85-0.201c-0.393-0.188-0.766-0.505-1.127-0.812
		c-0.208-0.176-0.521-0.442-0.649-0.499c-1.853-0.817-3.106-2.126-3.725-3.889C4.4,37.821,6.411,32.629,8.332,28.944
		c1.016-1.947,2.194-3.72,3.333-5.433c0.54-0.812,1.084-1.63,1.62-2.478l0.759-1.212c1.621-2.598,3.296-5.284,5.323-7.374
		c0.027-0.028,0.057-0.055,0.088-0.08l0.104-0.085c0.861-0.703,1.352-1.054,1.809-1.146c0.046-0.009,0.092-0.015,0.138-0.018
		c3.143-0.185,4.443,0.908,6.354,2.474l0.536,0.438c1.983,1.608,3.677,3.539,5.314,5.406c0.5,0.57,0.998,1.138,1.502,1.694
		c2.076,2.29,4.195,4.8,5.621,7.64c1.546,3.084,1.992,5.153,1.838,8.519c-0.044,0.944-0.229,1.742-0.406,2.515
		c-0.141,0.608-0.274,1.184-0.336,1.816c-0.141,1.428-0.308,2.234-1.229,3.468c-1.087,1.447-2.29,2.15-3.681,2.15
		c-0.807,0-1.55-0.237-2.205-0.446c-0.677-0.218-1.313-0.406-1.789-0.296c-0.233,0.055-0.373,0.176-0.643,0.422
		c-0.459,0.419-1.146,1.067-2.627,0.938c-1.004-0.09-1.869-0.421-2.706-0.741c-0.75-0.287-1.458-0.558-2.213-0.631
		c-0.113-0.011-0.22-0.016-0.318-0.016c-0.526,0-0.685,0.129-1.071,0.439c-0.354,0.285-0.838,0.676-1.644,0.907
		C21.374,47.939,20.86,48,20.234,48z M17.388,45.855c0.468,0,0.934,0.034,1.418,0.07c0.915,0.071,1.936,0.115,2.447-0.032
		c0.416-0.119,0.647-0.306,0.939-0.541c0.549-0.443,1.206-1.014,2.834-0.857c1.026,0.099,1.896,0.432,2.738,0.754
		c0.741,0.283,1.441,0.552,2.169,0.616c0.548,0.054,0.715-0.071,1.101-0.424c0.331-0.302,0.783-0.715,1.534-0.892
		c0.946-0.221,1.962,0.052,2.854,0.338c0.566,0.181,1.102,0.352,1.597,0.352c0.496,0,1.182-0.154,2.08-1.351
		c0.62-0.828,0.719-1.231,0.84-2.463c0.074-0.761,0.229-1.428,0.377-2.071c0.166-0.717,0.322-1.394,0.357-2.156
		c0.139-3.007-0.242-4.766-1.627-7.529c-1.318-2.625-3.334-5.009-5.315-7.194c-0.512-0.564-1.018-1.141-1.524-1.719
		c-1.583-1.805-3.219-3.671-5.07-5.171l-0.545-0.445c-1.834-1.504-2.618-2.136-4.849-2.031c-0.155,0.1-0.726,0.565-0.919,0.723
		l-0.061,0.05c-1.861,1.932-3.468,4.507-5.022,6.999l-0.765,1.222c-0.544,0.861-1.097,1.693-1.646,2.517
		c-1.162,1.747-2.259,3.396-3.226,5.25c-1.739,3.334-3.581,7.966-2.481,11.099c0.434,1.237,1.299,2.128,2.645,2.721
		c0.395,0.174,0.772,0.495,1.138,0.806c0.238,0.202,0.535,0.454,0.695,0.531c-0.009-0.008,0.122-0.116,0.209-0.188
		c0.277-0.229,0.657-0.542,1.207-0.542c0.306,0,0.756,0.104,1.168,0.595c0.614,0.73,1.271,0.966,2.701,0.966
		C17.387,45.855,17.388,45.855,17.388,45.855z"/>
	<path d="M22.687,12.5L22.687,12.5c-0.39,0-0.791-0.078-1.226-0.238c-1.605-0.589-2.337-1.892-2.983-3.042
		c-0.333-0.593-0.559-1.114-0.777-1.617c-0.272-0.628-0.53-1.222-0.913-1.788c-0.284-0.42-0.731-0.892-1.204-1.392
		c-0.89-0.94-1.811-1.913-2.135-3.02c-0.153-0.521,0.138-1.069,0.656-1.234l0.267-0.085c0.147-0.047,0.301-0.058,0.454-0.036
		c1.55,0.235,2.914,0.283,4.494,0.339l0.924,0.034c0.87,0.035,1.153,0.042,1.751-0.176c0.806-0.293,1.656-0.267,2.729-0.154
		l0.431,0.044c0.477,0.046,0.972,0.067,1.472,0.089c0.808,0.036,1.643,0.072,2.464,0.208c0.658,0.108,1.574,0.343,1.926,1.13
		c0.366,0.821-0.125,1.592-0.521,2.211c-0.146,0.23-0.307,0.476-0.429,0.736c-0.179,0.384-0.311,0.761-0.442,1.133
		c-0.243,0.688-0.495,1.398-0.979,2.125c-0.737,1.105-1.509,1.752-2.326,2.438c-0.217,0.182-0.442,0.371-0.678,0.578
		c-0.159,0.14-0.307,0.284-0.449,0.423C24.565,11.813,23.859,12.5,22.687,12.5z M16.281,2.231c0.242,0.276,0.504,0.553,0.754,0.817
		c0.508,0.536,1.032,1.09,1.408,1.646c0.488,0.72,0.795,1.428,1.092,2.113c0.208,0.479,0.403,0.93,0.657,1.381
		c0.66,1.174,1.09,1.878,1.958,2.197c0.672,0.248,0.856,0.155,1.644-0.613c0.167-0.162,0.338-0.329,0.524-0.492
		c0.247-0.218,0.484-0.417,0.713-0.608c0.765-0.642,1.369-1.148,1.947-2.016c0.347-0.519,0.537-1.058,0.759-1.682
		c0.148-0.419,0.302-0.852,0.515-1.309c0.168-0.361,0.373-0.683,0.555-0.967c0.049-0.076,0.106-0.166,0.16-0.254
		c-0.059-0.012-0.127-0.025-0.204-0.038c-0.703-0.116-1.478-0.15-2.226-0.183c-0.536-0.023-1.066-0.047-1.579-0.097L24.511,2.08
		C23.743,2,23.168,1.946,22.679,2.125c-0.843,0.308-1.291,0.344-2.516,0.295l-0.917-0.034C18.246,2.351,17.28,2.316,16.281,2.231z"
		/>
	<path d="M24.243,38.727c-2.243,0-4.513-1.214-4.513-3.535h2c0,1.26,1.814,1.535,2.513,1.535c0.807,0,2.899-0.333,2.899-1.853
		c0-2.79-2.381-3.521-3.111-3.68c-3.555-0.768-4.302-2.99-4.302-4.72c0-3.029,1.737-4.767,4.766-4.767
		c2.837,0,4.019,2.684,4.248,4.104l-1.974,0.323c-0.018-0.1-0.436-2.427-2.274-2.427c-1.913,0-2.766,0.854-2.766,2.767
		c0,1.014,0.31,2.243,2.724,2.765c2.849,0.616,4.688,2.828,4.688,5.635C29.143,37.403,26.678,38.727,24.243,38.727z"/>
	<rect x="23.436" y="20.537" width="2" height="19.361"/>
</g>
</svg>
