<?xml version="1.0" encoding="utf-8"?>
<!-- Generator: Adobe Illustrator 16.0.0, SVG Export Plug-In . SVG Version: 6.00 Build 0)  -->
<!DOCTYPE svg PUBLIC "-//W3C//DTD SVG 1.1//EN" "http://www.w3.org/Graphics/SVG/1.1/DTD/svg11.dtd">
<svg version="1.1" id="Layer_1" xmlns="http://www.w3.org/2000/svg" xmlns:xlink="http://www.w3.org/1999/xlink" x="0px" y="0px"
	 width="48px" height="48px" viewBox="0 0 48 48" enable-background="new 0 0 48 48" xml:space="preserve">
<g>
	<path d="M10.615,41.141C4.762,41.141,0,36.379,0,30.525S4.762,19.91,10.615,19.91S21.23,24.672,21.23,30.525
		S16.468,41.141,10.615,41.141z M10.615,21.91C5.865,21.91,2,25.775,2,30.525s3.865,8.615,8.615,8.615
		c4.75,0,8.615-3.865,8.615-8.615S15.365,21.91,10.615,21.91z"/>
	<path d="M37.385,41.141c-5.854,0-10.615-4.762-10.615-10.615S31.531,19.91,37.385,19.91S48,24.672,48,30.525
		S43.238,41.141,37.385,41.141z M37.385,21.91c-4.75,0-8.615,3.865-8.615,8.615s3.865,8.615,8.615,8.615S46,35.275,46,30.525
		S42.135,21.91,37.385,21.91z"/>
	<path d="M36.576,31.113c-0.183-0.251-4.461-6.311-4.84-21.573l2-0.05c0.36,14.548,4.419,20.394,4.46,20.45L36.576,31.113z"/>
	<rect x="9.354" y="18.01" transform="matrix(0.9991 0.042 -0.042 0.9991 1.0284 -0.4134)" width="2" height="12.521"/>
	<path d="M23.622,30.666c-0.021,0-0.043-0.001-0.065-0.002c-0.393-0.025-0.734-0.279-0.872-0.647
		c-0.016-0.042-1.599-4.242-3.951-7.996c-2.76-4.406-9.269-4.42-9.386-4.416c-0.002,0-0.004,0-0.007,0c-0.542,0-0.986-0.431-1-0.973
		c-0.015-0.544,0.408-1,0.952-1.026l23.8-1.13l0.096,1.998l-1.462,0.069l-7.222,13.591C24.331,30.463,23.99,30.666,23.622,30.666z
		 M16.308,17.275c1.546,0.793,3.043,1.961,4.122,3.684c1.444,2.305,2.592,4.72,3.308,6.359l5.666-10.665L16.308,17.275z"/>
	<rect x="7.28" y="12.787" width="6.672" height="2"/>
	<path d="M34.536,12.992h-4.754v-2h2.79l-1.552-2.133h-3.85v-2h4.358c0.32,0,0.62,0.153,0.809,0.412l3.007,4.133
		c0.222,0.304,0.253,0.707,0.083,1.042C35.257,12.781,34.912,12.992,34.536,12.992z"/>
</g>
</svg>
