<?xml version="1.0" encoding="utf-8"?>
<!-- Generator: Adobe Illustrator 16.0.0, SVG Export Plug-In . SVG Version: 6.00 Build 0)  -->
<!DOCTYPE svg PUBLIC "-//W3C//DTD SVG 1.1//EN" "http://www.w3.org/Graphics/SVG/1.1/DTD/svg11.dtd">
<svg version="1.1" id="Layer_1" xmlns="http://www.w3.org/2000/svg" xmlns:xlink="http://www.w3.org/1999/xlink" x="0px" y="0px"
	 width="48px" height="48px" viewBox="0 0 48 48" enable-background="new 0 0 48 48" xml:space="preserve">
<g>
	<rect x="17.735" y="37.058" transform="matrix(0.1588 0.9873 -0.9873 0.1588 60.1115 5.5614)" width="18.115" height="2"/>
	<g>
		<rect x="13.117" y="2.281" transform="matrix(0.1592 0.9873 -0.9873 0.1592 18.0215 -8.6978)" width="2" height="7.901"/>
		<rect x="27.83" y="-0.089" transform="matrix(0.1592 0.9873 -0.9873 0.1592 28.0518 -25.217)" width="2" height="7.897"/>
	</g>
	<rect x="20.329" y="7.455" transform="matrix(0.1591 0.9873 -0.9873 0.1591 26.8652 -14.6326)" width="3.388" height="2"/>
	<path d="M21.335,8.377c-2.309,0-4.188-1.879-4.188-4.188s1.879-4.188,4.188-4.188c2.31,0,4.188,1.879,4.188,4.188
		S23.645,8.377,21.335,8.377z M21.335,2.001c-1.207,0-2.188,0.981-2.188,2.188s0.981,2.188,2.188,2.188s2.188-0.981,2.188-2.188
		S22.542,2.001,21.335,2.001z"/>
	<path d="M22.281,41.882c-4.564,0-8.319-2.755-8.93-6.55l-2.613-16.215c-0.346-2.149,0.342-4.327,1.937-6.13
		c1.546-1.748,3.765-2.93,6.247-3.33l6.424-1.035c0.599-0.096,1.206-0.145,1.805-0.145c4.563,0,8.32,2.757,8.937,6.556l2.61,16.215
		c0.63,3.914-2.188,7.744-6.702,9.108c-0.277,0.085-0.574,0.043-0.819-0.109c-0.244-0.152-0.411-0.404-0.457-0.688l-1.563-9.713
		c-0.241-1.494-1.677-2.57-3.228-2.332l-1.625,0.264c-1.533,0.248-2.58,1.695-2.333,3.228l1.564,9.713
		c0.046,0.285-0.034,0.576-0.218,0.798s-0.455,0.354-0.744,0.361L22.281,41.882z M27.15,10.478c-0.493,0-0.993,0.04-1.486,0.12
		l-6.425,1.035c-2.027,0.326-3.826,1.278-5.066,2.68c-1.191,1.346-1.709,2.939-1.46,4.486l2.613,16.215
		c0.415,2.576,2.89,4.507,6.04,4.822l-1.371-8.512c-0.422-2.62,1.367-5.097,3.988-5.521l1.627-0.264
		c2.648-0.428,5.108,1.432,5.521,3.988l1.37,8.511c2.863-1.286,4.635-3.914,4.223-6.472l-2.61-16.214
		C33.654,12.528,30.727,10.478,27.15,10.478z"/>
</g>
</svg>
