<?xml version="1.0" encoding="utf-8"?>
<!-- Generator: Adobe Illustrator 16.0.0, SVG Export Plug-In . SVG Version: 6.00 Build 0)  -->
<!DOCTYPE svg PUBLIC "-//W3C//DTD SVG 1.1//EN" "http://www.w3.org/Graphics/SVG/1.1/DTD/svg11.dtd">
<svg version="1.1" id="Layer_1" xmlns="http://www.w3.org/2000/svg" xmlns:xlink="http://www.w3.org/1999/xlink" x="0px" y="0px"
	 width="48px" height="48px" viewBox="0 0 48 48" enable-background="new 0 0 48 48" xml:space="preserve">
<g>
	<path d="M7.606,38.814C3.412,38.814,0,35.402,0,31.208s3.412-7.606,7.606-7.606s7.606,3.412,7.606,7.606S11.8,38.814,7.606,38.814z
		 M7.606,25.602C4.515,25.602,2,28.116,2,31.208s2.515,5.606,5.606,5.606s5.606-2.515,5.606-5.606S10.697,25.602,7.606,25.602z"/>
	<path d="M40.395,38.814c-4.194,0-7.606-3.412-7.606-7.606s3.412-7.606,7.606-7.606c4.193,0,7.605,3.412,7.605,7.606
		S44.588,38.814,40.395,38.814z M40.395,25.602c-3.092,0-5.606,2.515-5.606,5.606s2.515,5.606,5.606,5.606
		c3.091,0,5.605-2.515,5.605-5.606S43.485,25.602,40.395,25.602z"/>
	<path d="M18.455,30.236C14.622,17.398,2.881,18.133,2.387,18.173L2.23,16.179c0.138-0.009,13.837-0.931,18.141,13.485
		L18.455,30.236z"/>
	<path d="M26.359,24.204c-0.503,0-1.017-0.046-1.524-0.136c-4.06-0.719-5.903-1.927-5.979-1.978l-1.031-0.688l0.89-0.862
		c0.202-0.196,4.995-4.791,9.06-4.791c0.515,0,1.005,0.072,1.46,0.215c2.093,0.656,3.214,1.429,3.637,2.506
		c0.503,1.284-0.241,2.585-0.641,3.285l-0.152,0.201C31.99,22.047,29.85,24.204,26.359,24.204z M21.198,21.013
		c0.853,0.34,2.166,0.763,3.986,1.085c0.394,0.07,0.788,0.105,1.175,0.105c2.321,0,3.848-1.243,4.206-1.567
		c0.304-0.543,0.57-1.116,0.444-1.437c-0.078-0.2-0.467-0.73-2.373-1.328c-0.261-0.082-0.551-0.123-0.861-0.123
		C25.646,17.749,22.875,19.635,21.198,21.013z"/>
	<path d="M24.618,33.599c-0.331,0-0.661-0.048-0.981-0.161c-0.708-0.25-1.628-0.913-1.999-2.656
		c-0.826-3.882-5.246-9.609-5.29-9.666l1.58-1.227c0.193,0.249,4.746,6.15,5.666,10.477c0.143,0.671,0.381,1.07,0.708,1.187
		c0.661,0.234,1.944-0.408,2.722-0.983l3.431-7.432l1.816,0.838l-3.631,7.866l-0.18,0.146
		C28.227,32.176,26.415,33.599,24.618,33.599z"/>
	<rect x="25.55" y="20.333" transform="matrix(0.4201 0.9075 -0.9075 0.4201 40.2356 -20.3011)" width="20.906" height="1.999"/>
	<path d="M30.452,15.384l-0.428-1.954l2.137-0.467l-0.222-0.197l-3.198-1.531l-2.514,0.551L25.8,9.833l2.85-0.625
		c0.216-0.049,0.444-0.021,0.646,0.075l3.635,1.74c0.084,0.04,0.162,0.092,0.232,0.154l1.797,1.595c0.281,0.25,0.398,0.637,0.304,1
		c-0.096,0.364-0.387,0.644-0.754,0.725L30.452,15.384z"/>
</g>
</svg>
