<?xml version="1.0" encoding="utf-8"?>
<!-- Generator: Adobe Illustrator 16.0.0, SVG Export Plug-In . SVG Version: 6.00 Build 0)  -->
<!DOCTYPE svg PUBLIC "-//W3C//DTD SVG 1.1//EN" "http://www.w3.org/Graphics/SVG/1.1/DTD/svg11.dtd">
<svg version="1.1" id="Layer_1" xmlns="http://www.w3.org/2000/svg" xmlns:xlink="http://www.w3.org/1999/xlink" x="0px" y="0px"
	 width="48px" height="48px" viewBox="0 0 48 48" enable-background="new 0 0 48 48" xml:space="preserve">
<g>
	<path d="M36.607,47.07c-0.045,0-0.089-0.003-0.134-0.009l-9.763-1.318c-0.087,0.364-0.136,0.563-0.136,0.563
		c-0.109,0.448-0.511,0.764-0.972,0.764h-3.208c-0.461,0-0.862-0.315-0.972-0.764l-0.135-0.563l-9.763,1.318
		c-0.285,0.038-0.574-0.049-0.792-0.238c-0.217-0.189-0.342-0.465-0.342-0.753v-3.125c0-0.374,0.208-0.716,0.54-0.888l8.491-4.4
		c-0.792-3.578-1.458-6.768-1.982-9.508L1.113,30.015c-0.281,0.038-0.566-0.058-0.779-0.247S0,29.307,0,29.021v-4.822
		c0-0.397,0.235-0.756,0.599-0.916l15.469-6.779c0.431-5.865,3.316-13.25,7.461-15.458c0.294-0.157,0.646-0.157,0.94,0
		c4.143,2.207,7.03,9.592,7.463,15.458l15.469,6.779C47.765,23.443,48,23.802,48,24.199v4.822c0,0.285-0.122,0.557-0.334,0.746
		c-0.214,0.189-0.498,0.282-0.779,0.247l-16.33-1.865c-0.525,2.753-1.19,5.943-1.981,9.508l8.492,4.4
		c0.332,0.172,0.54,0.514,0.54,0.888v3.125c0,0.288-0.125,0.563-0.342,0.753C37.082,46.983,36.848,47.07,36.607,47.07z
		 M23.185,45.07h1.63c0.046-0.191,0.099-0.415,0.158-0.669c0.119-0.502,0.606-0.828,1.107-0.762l9.526,1.286v-1.372l-8.636-4.475
		c-0.403-0.209-0.615-0.663-0.516-1.106c0.951-4.254,1.728-7.99,2.307-11.104c0.096-0.517,0.583-0.874,1.097-0.811L46,27.9v-3.048
		l-15.431-6.762c-0.349-0.153-0.581-0.491-0.598-0.872C29.745,12.143,27.271,5.327,24,3.097c-3.273,2.23-5.747,9.046-5.971,14.122
		c-0.017,0.381-0.249,0.719-0.598,0.872L2,24.853V27.9l16.139-1.843c0.526-0.062,1,0.294,1.096,0.81
		c0.578,3.096,1.354,6.833,2.308,11.106c0.099,0.443-0.113,0.896-0.516,1.105l-8.634,4.475v1.372l9.525-1.286
		c0.511-0.066,0.989,0.261,1.107,0.761L23.185,45.07z"/>
</g>
</svg>
