<?xml version="1.0" encoding="utf-8"?>
<!-- Generator: Adobe Illustrator 16.0.0, SVG Export Plug-In . SVG Version: 6.00 Build 0)  -->
<!DOCTYPE svg PUBLIC "-//W3C//DTD SVG 1.1//EN" "http://www.w3.org/Graphics/SVG/1.1/DTD/svg11.dtd">
<svg version="1.1" id="Layer_1" xmlns="http://www.w3.org/2000/svg" xmlns:xlink="http://www.w3.org/1999/xlink" x="0px" y="0px"
	 width="48px" height="48px" viewBox="0 0 48 48" enable-background="new 0 0 48 48" xml:space="preserve">
<g>
	<path d="M32.843,14.133H15.158c-0.295,0-0.575-0.13-0.765-0.356c-0.19-0.226-0.271-0.524-0.22-0.815C15.517,5.209,19.466,0,24,0
		c4.535,0,8.484,5.209,9.828,12.962c0.051,0.291-0.03,0.589-0.221,0.815C33.418,14.002,33.138,14.133,32.843,14.133z M16.372,12.133
		h15.257C30.317,6.109,27.266,2,24,2C20.735,2,17.684,6.109,16.372,12.133z"/>
	<path d="M30.45,32.371H17.551c-0.365,0-0.701-0.199-0.877-0.52c-1.925-3.509-2.985-8.197-2.985-13.201
		c0-1.929,0.163-3.843,0.483-5.689c0.083-0.479,0.499-0.829,0.985-0.829h17.685c0.485,0,0.901,0.349,0.985,0.827
		c0.32,1.829,0.483,3.743,0.483,5.691c0,5.003-1.06,9.691-2.983,13.201C31.151,32.172,30.815,32.371,30.45,32.371z M18.155,30.371
		h11.692c1.592-3.16,2.464-7.294,2.464-11.72c0-1.54-0.107-3.056-0.321-4.518H16.011c-0.214,1.475-0.322,2.991-0.322,4.518
		C15.689,23.077,16.562,27.211,18.155,30.371z"/>
	<path d="M23.999,37.299c-2.796,0-5.397-1.935-7.325-5.446c-0.17-0.311-0.164-0.687,0.016-0.991c0.18-0.304,0.507-0.49,0.86-0.49
		H30.45c0.354,0,0.681,0.187,0.86,0.491c0.181,0.304,0.187,0.681,0.016,0.99C29.397,35.364,26.795,37.299,23.999,37.299z
		 M19.36,32.371c1.382,1.9,2.993,2.928,4.639,2.928c1.646,0,3.258-1.027,4.641-2.928H19.36z"/>
	<g>
		<path d="M7.724,37.809c-0.086,0-0.174-0.011-0.26-0.034c-0.378-0.102-0.662-0.414-0.727-0.8
			c-0.086-0.517-2.121-12.679-2.121-16.454c0-3.283,3.48-4.453,6.737-4.453c0.219,0,0.345,0.006,0.345,0.006
			c0.514,0.026,0.927,0.438,0.951,0.952c0.369,7.844,2.022,12.089,2.039,12.131c0.135,0.34,0.074,0.727-0.159,1.009l-6.037,7.281
			C8.301,37.68,8.017,37.809,7.724,37.809z M10.706,18.088c-0.639,0.039-1.533,0.146-2.338,0.434c-1.569,0.562-1.75,1.41-1.75,1.999
			c0,2.683,1.145,10.213,1.741,13.956l4.269-5.149C12.169,27.955,11.081,24.155,10.706,18.088z"/>
		<path d="M40.277,37.809c-0.293,0-0.577-0.129-0.77-0.361l-6.036-7.281c-0.231-0.279-0.292-0.667-0.161-1.005
			c0.068-0.176,1.674-4.394,2.038-12.135c0.024-0.514,0.438-0.926,0.951-0.952c0,0,0.126-0.006,0.346-0.006
			c0.771,0,2.271,0.074,3.661,0.572c1.983,0.709,3.076,2.088,3.076,3.881c0,3.775-2.032,15.937-2.119,16.453
			c-0.064,0.386-0.349,0.699-0.727,0.801C40.451,37.798,40.364,37.809,40.277,37.809z M35.372,29.331l4.271,5.146
			c0.597-3.742,1.74-11.274,1.74-13.957c0-1.935-2.71-2.348-4.089-2.432C36.92,24.139,35.835,27.941,35.372,29.331z"/>
	</g>
	<path d="M18.928,48c-0.151,0-0.302-0.034-0.443-0.104c-0.369-0.183-0.589-0.572-0.553-0.982c0.054-0.626-0.19-5.454-0.352-8.648
		c-0.236-4.671-0.25-5.123-0.211-5.355l1.974,0.324l-0.987-0.162l0.996,0.079c-0.012,0.314,0.114,2.811,0.226,5.013
		c0.081,1.595,0.153,3.039,0.211,4.283c0.823-2.038,1.002-2.435,1.173-2.651c0.199-0.253,0.497-0.4,0.83-0.38
		c0.322,0.015,0.617,0.183,0.792,0.452c0.325,0.498,0.705,1.662,1.22,3.373c0.223-0.904,0.459-1.916,0.666-2.855
		c0.089-0.403,0.418-0.711,0.827-0.772c0.404-0.064,0.813,0.134,1.019,0.493c0.018,0.031,1.011,1.776,1.964,3.438
		c0.212-3.772,0.375-7.329,0.496-10.794l1.998,0.07c-0.155,4.479-0.383,9.113-0.694,14.165c-0.026,0.437-0.334,0.805-0.758,0.909
		c-0.423,0.104-0.867-0.077-1.095-0.45c-0.319-0.525-1.456-2.507-2.377-4.119c-0.89,3.716-1.168,3.879-1.506,4.076
		c-0.241,0.142-0.552,0.182-0.821,0.097c-0.219-0.066-0.409-0.207-0.537-0.397c-0.188-0.28-0.346-0.768-0.883-2.57
		c-0.117-0.392-0.269-0.901-0.428-1.415c-0.08,0.197-0.159,0.394-0.235,0.582c-1.385,3.438-1.56,3.787-1.838,4.04
		C19.414,47.91,19.172,48,18.928,48z"/>
	<path d="M24.34,24.802c-2.711,0-4.916-2.205-4.916-4.916c0-2.71,2.205-4.916,4.916-4.916s4.916,2.205,4.916,4.916
		C29.256,22.597,27.051,24.802,24.34,24.802z M24.34,16.97c-1.608,0-2.916,1.308-2.916,2.916c0,1.608,1.308,2.916,2.916,2.916
		c1.607,0,2.916-1.308,2.916-2.916C27.256,18.278,25.947,16.97,24.34,16.97z"/>
</g>
</svg>
