<?xml version="1.0" encoding="utf-8"?>
<!-- Generator: Adobe Illustrator 16.0.0, SVG Export Plug-In . SVG Version: 6.00 Build 0)  -->
<!DOCTYPE svg PUBLIC "-//W3C//DTD SVG 1.1//EN" "http://www.w3.org/Graphics/SVG/1.1/DTD/svg11.dtd">
<svg version="1.1" id="Layer_1" xmlns="http://www.w3.org/2000/svg" xmlns:xlink="http://www.w3.org/1999/xlink" x="0px" y="0px"
	 width="48px" height="48px" viewBox="0 0 48 48" enable-background="new 0 0 48 48" xml:space="preserve">
<g>
	<g>
		<path d="M35.482,40.893H12.517c-4.411,0-8-3.589-8-8V12.266c0-4.411,3.589-8,8-8h22.967c4.411,0,8,3.589,8,8v20.626
			C43.482,37.304,39.893,40.893,35.482,40.893z M12.517,6.266c-3.309,0-6,2.691-6,6v20.626c0,3.309,2.691,6,6,6h22.965
			c3.309,0,6-2.691,6-6l0.002-20.626c0-3.309-2.691-6-6-6H12.517z"/>
	</g>
	<g>
		<rect x="11.368" y="41.346" width="2" height="5.654"/>
		<rect x="34.632" y="41.346" width="2" height="5.654"/>
	</g>
	<path d="M39.436,25H8.563c-0.552,0-1-0.447-1-1V9.758c0-0.552,0.448-1,1-1h30.873c0.553,0,1,0.448,1,1V24
		C40.436,24.553,39.988,25,39.436,25z M9.563,23h28.873V10.758H9.563V23z"/>
	<g>
		<path d="M11.235,36.479c-2.022,0-3.668-1.646-3.668-3.668s1.646-3.668,3.668-3.668s3.668,1.646,3.668,3.668
			S13.257,36.479,11.235,36.479z M11.235,31.143c-0.92,0-1.668,0.748-1.668,1.668s0.748,1.668,1.668,1.668s1.668-0.748,1.668-1.668
			S12.155,31.143,11.235,31.143z"/>
		<path d="M36.766,36.479c-2.022,0-3.668-1.646-3.668-3.668s1.646-3.668,3.668-3.668s3.668,1.646,3.668,3.668
			S38.788,36.479,36.766,36.479z M36.766,31.143c-0.92,0-1.668,0.748-1.668,1.668s0.748,1.668,1.668,1.668s1.668-0.748,1.668-1.668
			S37.686,31.143,36.766,31.143z"/>
	</g>
	<rect x="17.863" y="26.794" width="12.274" height="2"/>
	<rect x="17.863" y="30.21" width="12.274" height="2"/>
	<rect x="17.863" y="33.624" width="12.274" height="2"/>
	<g>
		<rect x="1.331" y="12.534" width="2" height="10.779"/>
		<rect x="44.669" y="12.534" width="2" height="10.779"/>
	</g>
	<path d="M33.23,6.266H14.77c-0.552,0-1-0.448-1-1V1c0-0.552,0.448-1,1-1h18.46c0.553,0,1,0.448,1,1v4.266
		C34.23,5.818,33.783,6.266,33.23,6.266z M15.77,4.266h16.46V2H15.77V4.266z"/>
</g>
</svg>
