<?xml version="1.0" encoding="utf-8"?>
<!-- Generator: Adobe Illustrator 16.0.0, SVG Export Plug-In . SVG Version: 6.00 Build 0)  -->
<!DOCTYPE svg PUBLIC "-//W3C//DTD SVG 1.1//EN" "http://www.w3.org/Graphics/SVG/1.1/DTD/svg11.dtd">
<svg version="1.1" id="Layer_1" xmlns="http://www.w3.org/2000/svg" xmlns:xlink="http://www.w3.org/1999/xlink" x="0px" y="0px"
	 width="48px" height="48px" viewBox="0 0 48 48" enable-background="new 0 0 48 48" xml:space="preserve">
<g>
	<path d="M8.496,39.242C3.812,39.242,0,35.431,0,30.746s3.812-8.496,8.496-8.496s8.496,3.812,8.496,8.496
		S13.181,39.242,8.496,39.242z M8.496,24.25C4.914,24.25,2,27.164,2,30.746s2.914,6.496,6.496,6.496s6.496-2.914,6.496-6.496
		S12.078,24.25,8.496,24.25z"/>
	<path d="M39.504,39.242c-4.685,0-8.496-3.812-8.496-8.496s3.812-8.496,8.496-8.496S48,26.062,48,30.746
		S44.188,39.242,39.504,39.242z M39.504,24.25c-3.582,0-6.496,2.914-6.496,6.496s2.914,6.496,6.496,6.496S46,34.328,46,30.746
		S43.086,24.25,39.504,24.25z"/>
	<path d="M16.278,34.384l-1.704-1.237l0.178-0.671c0.159-0.579,0.24-1.161,0.24-1.729c0-3.582-2.914-6.497-6.496-6.497
		c-1.525,0-3.01,0.544-4.182,1.53L3.61,26.373l-1.269-1.274l0.535-0.697l11.39-14.723l0.192-0.101
		c0.064-0.033,1.575-0.82,3.257-0.82c1.357,0,3.608,0.524,4.369,3.806c1.183-0.184,2.478-0.169,3.819,0.038
		c0.753-3.315,3.016-3.844,4.379-3.844c1.682,0,3.193,0.787,3.257,0.82l0.192,0.101l11.931,15.417l-1.271,1.271l-0.704-0.588
		c-1.173-0.987-2.658-1.53-4.184-1.53c-3.582,0-6.496,2.915-6.496,6.497c0,0.572,0.081,1.153,0.24,1.727l0.208,0.75l-1.771,1.012
		l-2.396-8.055c-1.527-1.047-3.207-1.576-4.996-1.576c-2.325,0-4.382,0.896-5.57,1.548L16.278,34.384z M8.496,22.25
		c3.476,0,6.471,2.099,7.785,5.095l0.75-2.526l0.34-0.2c1.565-0.919,4.036-2.015,6.92-2.015c2.33,0,4.499,0.725,6.448,2.155
		l0.271,0.199l0.707,2.387c1.314-2.997,4.31-5.095,7.785-5.095c0.518,0,1.031,0.048,1.536,0.141l-8.61-11.127
		c-0.367-0.163-1.246-0.505-2.146-0.505c-0.952,0-2.255,0.324-2.566,3.127l-0.124,1.109l-1.089-0.244
		c-1.817-0.408-3.545-0.42-4.963-0.027l-1.129,0.313l-0.131-1.165c-0.314-2.79-1.614-3.112-2.564-3.112
		c-0.9,0-1.778,0.342-2.146,0.505L6.961,22.391C7.465,22.298,7.979,22.25,8.496,22.25z M17.814,22.179l1.78-5.999l0.39-0.193
		c0.956-0.475,2.454-1.041,4.166-1.041c1.406,0,2.735,0.375,3.952,1.116l0.328,0.2l1.683,5.666l-1.704-0.43
		c-3.194-0.807-6.325-0.804-8.752,0.04L17.814,22.179z M23.782,18.892c1.113,0,2.263,0.104,3.435,0.308l-0.479-1.612
		c-0.809-0.425-1.677-0.641-2.588-0.641c-1.118,0-2.14,0.323-2.89,0.651l-0.466,1.57C21.74,18.984,22.739,18.892,23.782,18.892z"/>
</g>
</svg>
