<?xml version="1.0" encoding="utf-8"?>
<!-- Generator: Adobe Illustrator 16.0.0, SVG Export Plug-In . SVG Version: 6.00 Build 0)  -->
<!DOCTYPE svg PUBLIC "-//W3C//DTD SVG 1.1//EN" "http://www.w3.org/Graphics/SVG/1.1/DTD/svg11.dtd">
<svg version="1.1" id="Layer_1" xmlns="http://www.w3.org/2000/svg" xmlns:xlink="http://www.w3.org/1999/xlink" x="0px" y="0px"
	 width="48px" height="48px" viewBox="0 0 48 48" enable-background="new 0 0 48 48" xml:space="preserve">
<g>
	<path d="M26.975,48.414L-0.033,21.407L1.514,1.514l19.894-1.547l27.006,27.007L26.975,48.414z M2.033,20.645l24.942,24.941
		l18.611-18.611L20.646,2.033L3.375,3.375L2.033,20.645z"/>
	<rect x="15.531" y="7.501" transform="matrix(0.7071 0.7071 -0.7071 0.7071 16.5305 -6.8472)" width="2" height="18.058"/>
	<rect x="18.715" y="10.686" transform="matrix(0.7071 0.7071 -0.7071 0.7071 19.715 -8.1665)" width="2" height="18.058"/>
	<rect x="21.901" y="13.87" transform="matrix(0.7071 0.7071 -0.7071 0.7071 22.9006 -9.4858)" width="2" height="18.061"/>
	<rect x="25.086" y="17.057" transform="matrix(0.7071 0.7071 -0.7071 0.7071 26.0866 -10.8049)" width="2" height="18.06"/>
	<rect x="28.27" y="20.242" transform="matrix(0.7071 0.7071 -0.7071 0.7071 29.2704 -12.1235)" width="2" height="18.057"/>
	<rect x="31.456" y="23.425" transform="matrix(0.7071 0.7071 -0.7071 0.7071 32.4556 -13.4435)" width="2" height="18.06"/>
	<path d="M10.115,14.279c-2.295,0-4.163-1.867-4.163-4.163s1.868-4.163,4.163-4.163s4.163,1.868,4.163,4.163
		S12.411,14.279,10.115,14.279z M10.115,7.953c-1.193,0-2.163,0.97-2.163,2.163c0,1.192,0.97,2.163,2.163,2.163
		c1.192,0,2.163-0.97,2.163-2.163C12.278,8.923,11.308,7.953,10.115,7.953z"/>
</g>
</svg>
