<?xml version="1.0" encoding="utf-8"?>
<!-- Generator: Adobe Illustrator 16.0.0, SVG Export Plug-In . SVG Version: 6.00 Build 0)  -->
<!DOCTYPE svg PUBLIC "-//W3C//DTD SVG 1.1//EN" "http://www.w3.org/Graphics/SVG/1.1/DTD/svg11.dtd">
<svg version="1.1" id="Layer_1" xmlns="http://www.w3.org/2000/svg" xmlns:xlink="http://www.w3.org/1999/xlink" x="0px" y="0px"
	 width="48px" height="48px" viewBox="0 0 48 48" enable-background="new 0 0 48 48" xml:space="preserve">
<g>
	<path d="M8.086,37.425H7.542c-2.029,0-3.68-1.651-3.68-3.681V14.256c0-2.029,1.651-3.681,3.68-3.681h0.543
		c2.029,0,3.68,1.651,3.68,3.681v19.488c0,0.979-0.383,1.903-1.079,2.6C9.989,37.041,9.066,37.425,8.086,37.425z M7.542,12.575
		c-0.926,0-1.68,0.754-1.68,1.681v19.488c0,0.927,0.754,1.681,1.68,1.681h0.544c0.926,0,1.68-0.754,1.68-1.681L9.765,14.256
		c0-0.927-0.754-1.681-1.68-1.681H7.542z"/>
	<path d="M40.458,37.425h-0.544c-2.029,0-3.68-1.651-3.68-3.681V14.256c0-2.029,1.65-3.681,3.68-3.681h0.544
		c2.029,0,3.681,1.651,3.681,3.681v19.488C44.139,35.773,42.487,37.425,40.458,37.425z M39.914,12.575
		c-0.926,0-1.68,0.754-1.68,1.681v19.488c0,0.927,0.754,1.681,1.68,1.681h0.544c0.927,0,1.681-0.754,1.681-1.681V14.256
		c0-0.927-0.754-1.681-1.681-1.681H39.914z"/>
	<path d="M38.234,32.656H9.766V15.343h28.468V32.656z M11.766,30.656h24.468V17.343H11.766V30.656z"/>
	<path d="M5.862,26.591H0v-5.182h5.862V26.591z M2,24.591h1.862v-1.182H2V24.591z"/>
	<path d="M48,26.591h-5.861v-5.182H48V26.591z M44.139,24.591H46v-1.182h-1.861V24.591z"/>
</g>
</svg>
