<?xml version="1.0" encoding="utf-8"?>
<!-- Generator: Adobe Illustrator 16.0.0, SVG Export Plug-In . SVG Version: 6.00 Build 0)  -->
<!DOCTYPE svg PUBLIC "-//W3C//DTD SVG 1.1//EN" "http://www.w3.org/Graphics/SVG/1.1/DTD/svg11.dtd">
<svg version="1.1" id="Layer_1" xmlns="http://www.w3.org/2000/svg" xmlns:xlink="http://www.w3.org/1999/xlink" x="0px" y="0px"
	 width="48px" height="48px" viewBox="0 0 48 48" enable-background="new 0 0 48 48" xml:space="preserve">
<g>
	<g>
		<path d="M36.331,48H11.669c-2.121,0-4.306-1.058-5.567-2.693c-0.952-1.235-1.275-2.682-0.91-4.071
			c1.275-4.844,9.048-16.453,10.235-18.208c0.03-0.155,0.079-0.307,0.148-0.454V4.243h16.85v18.329
			c0.069,0.147,0.119,0.299,0.149,0.455c1.188,1.757,8.959,13.364,10.234,18.207c0.365,1.392,0.042,2.838-0.911,4.072
			C40.636,46.943,38.451,48,36.331,48z M17.575,6.243v16.906l-0.179,0.257v0.309l-0.176,0.231
			c-0.088,0.129-8.829,12.993-10.094,17.797c-0.262,0.996,0.16,1.822,0.56,2.341C8.568,45.23,10.169,46,11.669,46h24.662
			c1.499,0,3.1-0.77,3.983-1.915c0.399-0.519,0.821-1.346,0.561-2.342c-1.266-4.805-10.006-17.667-10.094-17.796l-0.174-0.255
			v-0.308l-0.182-0.258l-0.001-0.29V6.243H17.575z"/>
		<path d="M35.036,6.243H12.964V0h22.072V6.243z M14.964,4.243h18.072V2H14.964V4.243z"/>
	</g>
	<polygon points="11.418,42.441 9.694,41.426 19.663,24.495 19.663,9.35 21.663,9.35 21.663,25.04 	"/>
</g>
</svg>
