<?xml version="1.0" encoding="utf-8"?>
<!-- Generator: Adobe Illustrator 16.0.0, SVG Export Plug-In . SVG Version: 6.00 Build 0)  -->
<!DOCTYPE svg PUBLIC "-//W3C//DTD SVG 1.1//EN" "http://www.w3.org/Graphics/SVG/1.1/DTD/svg11.dtd">
<svg version="1.1" id="Layer_1" xmlns="http://www.w3.org/2000/svg" xmlns:xlink="http://www.w3.org/1999/xlink" x="0px" y="0px"
	 width="48px" height="48px" viewBox="0 0 48 48" enable-background="new 0 0 48 48" xml:space="preserve">
<g>
	<g>
		<path d="M43,37.99H5c-2.757,0-5-2.243-5-5V15.01c0-2.757,2.243-5,5-5h38c2.757,0,5,2.243,5,5v17.98
			C48,35.747,45.757,37.99,43,37.99z M5,12.01c-1.654,0-3,1.346-3,3v17.98c0,1.654,1.346,3,3,3h38c1.654,0,3-1.346,3-3V15.01
			c0-1.654-1.346-3-3-3H5z"/>
	</g>
	<rect x="6.672" y="19.425" transform="matrix(0.7822 0.623 -0.623 0.7822 19.6708 1.5123)" width="2" height="18.931"/>
	<rect x="31.055" y="27.891" transform="matrix(0.6231 0.7821 -0.7821 0.6231 37.866 -20.8037)" width="18.931" height="2"/>
	<path d="M24,29.521c-1.004,0-2.007-0.313-2.789-0.938L1.327,12.649l1.251-1.561l19.884,15.933c0.819,0.655,2.259,0.655,3.081-0.001
		l19.882-15.932l1.25,1.561L26.791,28.582C26.008,29.208,25.004,29.521,24,29.521z"/>
</g>
</svg>
