<?xml version="1.0" encoding="utf-8"?>
<!-- Generator: Adobe Illustrator 16.0.0, SVG Export Plug-In . SVG Version: 6.00 Build 0)  -->
<!DOCTYPE svg PUBLIC "-//W3C//DTD SVG 1.1//EN" "http://www.w3.org/Graphics/SVG/1.1/DTD/svg11.dtd">
<svg version="1.1" id="Layer_1" xmlns="http://www.w3.org/2000/svg" xmlns:xlink="http://www.w3.org/1999/xlink" x="0px" y="0px"
	 width="48px" height="48px" viewBox="0 0 48 48" enable-background="new 0 0 48 48" xml:space="preserve">
<g>
	<path d="M24,45.1c-5.655,0-10.255-4.6-10.255-10.254c0-5.655,4.6-10.256,10.255-10.256c5.654,0,10.255,4.601,10.255,10.256
		C34.255,40.5,29.654,45.1,24,45.1z M24,26.59c-4.552,0-8.255,3.703-8.255,8.256c0,4.551,3.703,8.254,8.255,8.254
		s8.255-3.703,8.255-8.254C32.255,30.293,28.552,26.59,24,26.59z"/>
	<path d="M1.743,14.822l-1.486-1.338C6.311,6.758,14.965,2.901,24,2.901c9.035,0,17.689,3.857,23.743,10.582l-1.486,1.338
		C40.582,8.517,32.47,4.901,24,4.901C15.531,4.901,7.419,8.517,1.743,14.822z"/>
	<path d="M40.119,24.634c-3.535-5.565-9.561-8.888-16.119-8.888c-6.559,0-12.585,3.322-16.119,8.887l-1.688-1.072
		c3.903-6.146,10.56-9.815,17.807-9.815c7.247,0,13.903,3.669,17.807,9.815L40.119,24.634z"/>
</g>
</svg>
