<?xml version="1.0" encoding="utf-8"?>
<!-- Generator: Adobe Illustrator 16.0.0, SVG Export Plug-In . SVG Version: 6.00 Build 0)  -->
<!DOCTYPE svg PUBLIC "-//W3C//DTD SVG 1.1//EN" "http://www.w3.org/Graphics/SVG/1.1/DTD/svg11.dtd">
<svg version="1.1" id="Layer_1" xmlns="http://www.w3.org/2000/svg" xmlns:xlink="http://www.w3.org/1999/xlink" x="0px" y="0px"
	 width="48px" height="48px" viewBox="0 0 48 48" enable-background="new 0 0 48 48" xml:space="preserve">
<g>
	<path d="M40.055,37.627c-4.455,0-7.945-7.582-7.945-17.262S35.6,3.103,40.055,3.103S48,10.686,48,20.365
		S44.51,37.627,40.055,37.627z M40.055,5.103c-2.813,0-5.945,6.268-5.945,15.262s3.133,15.262,5.945,15.262S46,29.359,46,20.365
		S42.867,5.103,40.055,5.103z"/>
	<path d="M13.428,44.896H4.093c-0.311,0-0.604-0.145-0.793-0.392c-0.189-0.246-0.253-0.567-0.172-0.867l3.389-12.639
		c-0.065-0.009-0.129-0.019-0.193-0.028c-5.505-0.869-6.531-7.273-6.305-10.605c-0.226-3.333,0.799-9.737,6.3-10.608
		c0.819-0.129,1.788-0.189,3.05-0.189c1.024,0,2.147,0.04,3.351,0.082c1.399,0.049,2.847,0.1,4.397,0.1
		c5.603,0,12.944-0.628,20.04-5.528c0.323-0.223,0.745-0.236,1.083-0.035c0.336,0.202,0.523,0.582,0.479,0.971
		c-0.028,0.255-0.156,0.506-0.354,0.67c-2.505,2.098-4.255,8.075-4.255,14.538c0,6.461,1.75,12.438,4.255,14.534
		c0.197,0.165,0.324,0.4,0.353,0.656c0.043,0.39-0.145,0.776-0.48,0.978c-0.335,0.201-0.759,0.195-1.08-0.026
		c-6.766-4.671-13.749-5.457-19.232-5.521l-3.53,13.17C14.277,44.593,13.881,44.896,13.428,44.896z M5.396,42.896h7.265
		l3.531-13.175c0.117-0.438,0.513-0.741,0.966-0.741h0c4.856,0.003,10.964,0.462,17.191,3.554c-1.412-3.137-2.24-7.456-2.24-12.169
		c0-4.713,0.828-9.034,2.241-12.171c-6.241,3.099-12.365,3.555-17.234,3.556c-1.585,0-3.116-0.054-4.467-0.101
		c-1.179-0.042-2.278-0.081-3.281-0.081c-1.156,0-2.025,0.053-2.738,0.165c-5.109,0.809-4.618,8.482-4.612,8.56
		c0.003,0.047,0.003,0.098,0,0.146c-0.006,0.078-0.496,7.75,4.613,8.557c0.375,0.058,0.786,0.097,1.219,0.124
		c0.299,0.019,0.574,0.171,0.749,0.415c0.175,0.243,0.231,0.553,0.154,0.842L5.396,42.896z"/>
	<path d="M9.864,22.857H5.248c-0.552,0-1-0.448-1-1v-4.616c0-0.552,0.448-1,1-1h4.616c0.552,0,1,0.448,1,1v4.616
		C10.864,22.409,10.417,22.857,9.864,22.857z M6.248,20.857h2.616v-2.616H6.248V20.857z"/>
	<path d="M17.417,22.857H12.8c-0.552,0-1-0.448-1-1v-4.616c0-0.552,0.448-1,1-1h4.617c0.552,0,1,0.448,1,1v4.616
		C18.417,22.409,17.969,22.857,17.417,22.857z M13.8,20.857h2.617v-2.616H13.8V20.857z"/>
</g>
</svg>
