<?xml version="1.0" encoding="utf-8"?>
<!-- Generator: Adobe Illustrator 16.0.0, SVG Export Plug-In . SVG Version: 6.00 Build 0)  -->
<!DOCTYPE svg PUBLIC "-//W3C//DTD SVG 1.1//EN" "http://www.w3.org/Graphics/SVG/1.1/DTD/svg11.dtd">
<svg version="1.1" id="Layer_1" xmlns="http://www.w3.org/2000/svg" xmlns:xlink="http://www.w3.org/1999/xlink" x="0px" y="0px"
	 width="48px" height="48px" viewBox="0 0 48 48" enable-background="new 0 0 48 48" xml:space="preserve">
<g>
	<path d="M38.061,48c-2.868,0-5.582-1.134-7.64-3.193L3.195,17.578c-1.992-1.991-3.125-4.617-3.191-7.392
		c-0.066-2.793,0.955-5.389,2.875-7.309C4.735,1.022,7.241,0,9.937,0c2.868,0,5.582,1.135,7.643,3.195l27.226,27.226
		c4.14,4.14,4.282,10.734,0.316,14.701C43.265,46.978,40.758,48,38.061,48z M9.937,2C7.775,2,5.771,2.814,4.293,4.292
		c-1.53,1.53-2.343,3.606-2.29,5.847c0.054,2.259,0.979,4.399,2.605,6.025l27.226,27.229C33.516,45.074,35.727,46,38.061,46
		c2.163,0,4.168-0.814,5.646-2.292c3.186-3.187,3.044-8.513-0.316-11.873L16.165,4.609C14.482,2.927,12.271,2,9.937,2z"/>
	<rect x="23.001" y="14.871" transform="matrix(0.7071 0.7071 -0.7071 0.7071 24.0005 -9.9413)" width="2" height="18.259"/>
</g>
</svg>
