<?xml version="1.0" encoding="utf-8"?>
<!-- Generator: Adobe Illustrator 16.0.0, SVG Export Plug-In . SVG Version: 6.00 Build 0)  -->
<!DOCTYPE svg PUBLIC "-//W3C//DTD SVG 1.1//EN" "http://www.w3.org/Graphics/SVG/1.1/DTD/svg11.dtd">
<svg version="1.1" id="Layer_1" xmlns="http://www.w3.org/2000/svg" xmlns:xlink="http://www.w3.org/1999/xlink" x="0px" y="0px"
	 width="48px" height="48px" viewBox="0 0 48 48" enable-background="new 0 0 48 48" xml:space="preserve">
<g>
	<path d="M27.232,41.29c-10.937,0-19.834-8.897-19.834-19.834S16.296,1.622,27.232,1.622s19.834,8.897,19.834,19.834
		S38.169,41.29,27.232,41.29z M27.232,3.622c-9.834,0-17.834,8-17.834,17.834c0,9.834,8,17.834,17.834,17.834
		s17.834-8,17.834-17.834C45.066,11.623,37.066,3.622,27.232,3.622z"/>
	<path d="M27.23,34.629c-7.263,0-13.172-5.909-13.172-13.173S19.967,8.283,27.23,8.283c7.264,0,13.174,5.909,13.174,13.173
		S34.494,34.629,27.23,34.629z M27.23,10.283c-6.161,0-11.172,5.012-11.172,11.173c0,6.161,5.012,11.173,11.172,11.173
		c6.161,0,11.174-5.012,11.174-11.173C38.404,15.295,33.392,10.283,27.23,10.283z"/>
	<path d="M27.232,27.807c-3.502,0-6.352-2.849-6.352-6.351s2.849-6.351,6.352-6.351c3.502,0,6.351,2.849,6.351,6.351
		S30.734,27.807,27.232,27.807z M27.232,17.105c-2.399,0-4.352,1.952-4.352,4.351c0,2.399,1.952,4.351,4.352,4.351
		c2.398,0,4.351-1.952,4.351-4.351C31.583,19.057,29.631,17.105,27.232,17.105z"/>
	<rect x="4.406" y="12.533" transform="matrix(0.807 0.5906 -0.5906 0.807 11.2792 -7.4448)" width="25.246" height="2"/>
	<path d="M2.058,8.381L1.813,6.396l4.693-0.579L5.927,1.122l1.985-0.244l0.7,5.687C8.68,7.113,8.291,7.612,7.743,7.68L2.058,8.381z"
		/>
	<path d="M4.937,10.626L4.691,8.641l4.693-0.578L8.808,3.368l1.985-0.244l0.698,5.687c0.067,0.548-0.322,1.047-0.87,1.115
		L4.937,10.626z"/>
	<rect x="17.89" y="38.675" transform="matrix(0.9747 0.2236 -0.2236 0.9747 10.0708 -3.1383)" width="2" height="8.431"/>
	<rect x="31.825" y="41.891" transform="matrix(0.2233 0.9747 -0.9747 0.2233 69.8006 -1.8179)" width="8.432" height="2"/>
	<rect x="26.23" y="40.73" width="2" height="6.27"/>
</g>
</svg>
