<?xml version="1.0" encoding="utf-8"?>
<!-- Generator: Adobe Illustrator 16.0.0, SVG Export Plug-In . SVG Version: 6.00 Build 0)  -->
<!DOCTYPE svg PUBLIC "-//W3C//DTD SVG 1.1//EN" "http://www.w3.org/Graphics/SVG/1.1/DTD/svg11.dtd">
<svg version="1.1" id="Layer_1" xmlns="http://www.w3.org/2000/svg" xmlns:xlink="http://www.w3.org/1999/xlink" x="0px" y="0px"
	 width="48px" height="48px" viewBox="0 0 48 48" enable-background="new 0 0 48 48" xml:space="preserve">
<g>
	<path d="M21.63,33.702c-0.313,0-0.621-0.146-0.815-0.42l-5.523-7.757c-0.157-0.221-0.218-0.496-0.169-0.763
		c0.049-0.266,0.205-0.501,0.431-0.651l14.817-9.823c0.302-0.198,0.687-0.221,1.006-0.058l4.876,2.481
		c0.313,0.159,0.52,0.471,0.544,0.821l0.383,5.452c0.025,0.359-0.145,0.704-0.444,0.903l-14.553,9.647
		C22.012,33.648,21.82,33.702,21.63,33.702z M17.52,25.207l4.362,6.127l13.261-8.79l-0.303-4.306l-3.852-1.96L17.52,25.207z"/>
	<g>
		<g>
			<rect x="15.879" y="6.358" transform="matrix(0.5525 0.8335 -0.8335 0.5525 16.6532 -16.3011)" width="15.257" height="2"/>
			<rect x="12.964" y="8.293" transform="matrix(0.5526 0.8334 -0.8334 0.5526 16.9565 -13.0039)" width="15.255" height="2"/>
			<rect x="10.047" y="10.225" transform="matrix(0.5526 0.8335 -0.8335 0.5526 17.2642 -9.7091)" width="15.256" height="2"/>
			<rect x="7.13" y="12.159" transform="matrix(0.5526 0.8335 -0.8335 0.5526 17.5704 -6.4131)" width="15.257" height="2"/>
			<rect x="4.213" y="14.093" transform="matrix(0.5526 0.8335 -0.8335 0.5526 17.8778 -3.1159)" width="15.256" height="2"/>
		</g>
		<g>
			<rect x="32.817" y="31.907" transform="matrix(0.5526 0.8335 -0.8335 0.5526 45.5234 -18.9872)" width="15.259" height="1.999"/>
			<rect x="29.899" y="33.841" transform="matrix(0.5526 0.8334 -0.8334 0.5526 45.8256 -15.6909)" width="15.259" height="1.999"/>
			<rect x="26.983" y="35.775" transform="matrix(0.5526 0.8334 -0.8334 0.5526 46.1326 -12.3957)" width="15.259" height="1.999"/>
			<rect x="24.067" y="37.707" transform="matrix(0.5526 0.8335 -0.8335 0.5526 46.4421 -9.0998)" width="15.26" height="1.999"/>
			<rect x="21.149" y="39.642" transform="matrix(0.5527 0.8334 -0.8334 0.5527 46.7445 -5.804)" width="15.259" height="2"/>
		</g>
	</g>
	<path d="M9.952,42.914c-0.034,0-0.068-0.002-0.102-0.005c-0.298-0.03-0.566-0.193-0.731-0.442l-6.614-9.975
		c-0.166-0.25-0.21-0.561-0.123-0.847s0.299-0.518,0.576-0.631c0.247-0.102,6.085-2.477,10.681-2.477
		c1.399,0,2.572,0.225,3.489,0.667c0.031,0.01,0.061,0.021,0.09,0.034c0.121,0.053,0.23,0.127,0.321,0.217
		c0.2,0.188,0.315,0.453,0.313,0.733c0,0.048-0.004,0.096-0.011,0.144c0.188,4.831-6.421,11.532-7.187,12.291
		C10.468,42.811,10.214,42.914,9.952,42.914z M4.865,32.433l5.23,7.889c2.095-2.267,5.528-6.563,5.741-9.486
		c-0.587-0.197-1.323-0.297-2.197-0.297C10.583,30.538,6.747,31.76,4.865,32.433z"/>
</g>
</svg>
