<?xml version="1.0" encoding="utf-8"?>
<!-- Generator: Adobe Illustrator 16.0.0, SVG Export Plug-In . SVG Version: 6.00 Build 0)  -->
<!DOCTYPE svg PUBLIC "-//W3C//DTD SVG 1.1//EN" "http://www.w3.org/Graphics/SVG/1.1/DTD/svg11.dtd">
<svg version="1.1" id="Layer_1" xmlns="http://www.w3.org/2000/svg" xmlns:xlink="http://www.w3.org/1999/xlink" x="0px" y="0px"
	 width="48px" height="48px" viewBox="0 0 48 48" enable-background="new 0 0 48 48" xml:space="preserve">
<g>
	<path d="M24,41.521c-9.662,0-17.522-7.86-17.522-17.521c0-9.662,7.86-17.522,17.522-17.522c9.661,0,17.521,7.86,17.521,17.522
		C41.521,33.661,33.661,41.521,24,41.521z M24,8.478C15.441,8.478,8.478,15.441,8.478,24c0,8.559,6.963,15.521,15.522,15.521
		c8.559,0,15.521-6.963,15.521-15.521C39.521,15.441,32.559,8.478,24,8.478z"/>
	<path d="M24,30.004c-3.311,0-6.004-2.693-6.004-6.004s2.693-6.004,6.004-6.004s6.004,2.693,6.004,6.004S27.311,30.004,24,30.004z
		 M24,19.996c-2.208,0-4.004,1.796-4.004,4.004c0,2.208,1.796,4.004,4.004,4.004c2.208,0,4.004-1.796,4.004-4.004
		C28.004,21.792,26.208,19.996,24,19.996z"/>
	<g>
		<g>
			<g>
				<path d="M24,5.716c-1.576,0-2.858-1.282-2.858-2.858S22.424,0,24,0c1.575,0,2.857,1.282,2.857,2.858S25.575,5.716,24,5.716z
					 M24,2c-0.473,0-0.858,0.385-0.858,0.858S23.527,3.716,24,3.716c0.473,0,0.857-0.385,0.857-0.858S24.473,2,24,2z"/>
				<path d="M24,48c-1.576,0-2.858-1.282-2.858-2.857c0-1.576,1.282-2.858,2.858-2.858c1.575,0,2.857,1.282,2.857,2.858
					C26.857,46.718,25.575,48,24,48z M24,44.284c-0.473,0-0.858,0.385-0.858,0.858C23.142,45.615,23.527,46,24,46
					c0.473,0,0.857-0.385,0.857-0.857C24.857,44.669,24.473,44.284,24,44.284z"/>
			</g>
			<g>
				<rect x="23" y="4.339" width="2" height="14.611"/>
				<rect x="23" y="29.052" width="2" height="14.609"/>
			</g>
		</g>
		<g>
			<g>
				<path d="M45.143,26.857c-1.576,0-2.858-1.282-2.858-2.857c0-1.576,1.282-2.858,2.858-2.858C46.718,21.142,48,22.424,48,24
					C48,25.575,46.718,26.857,45.143,26.857z M45.143,23.142c-0.474,0-0.858,0.385-0.858,0.858c0,0.473,0.385,0.857,0.858,0.857
					C45.615,24.857,46,24.473,46,24C46,23.527,45.615,23.142,45.143,23.142z"/>
				<path d="M2.858,26.857C1.282,26.857,0,25.575,0,24c0-1.576,1.282-2.858,2.858-2.858S5.716,22.424,5.716,24
					C5.716,25.575,4.434,26.857,2.858,26.857z M2.858,23.142C2.385,23.142,2,23.527,2,24c0,0.473,0.385,0.857,0.858,0.857
					S3.716,24.473,3.716,24C3.716,23.527,3.331,23.142,2.858,23.142z"/>
			</g>
			<g>
				<rect x="29.052" y="23" width="14.608" height="2"/>
				<rect x="4.339" y="23" width="14.609" height="2"/>
			</g>
		</g>
	</g>
	<g>
		<g>
			<g>
				<path d="M38.949,11.91c-1.576,0-2.859-1.283-2.859-2.859c0-1.576,1.283-2.859,2.859-2.859c1.577,0,2.859,1.283,2.859,2.859
					C41.809,10.627,40.526,11.91,38.949,11.91z M38.949,8.192c-0.474,0-0.859,0.385-0.859,0.859s0.386,0.859,0.859,0.859
					s0.859-0.386,0.859-0.859S39.423,8.192,38.949,8.192z"/>
				<path d="M9.05,41.809c-1.576,0-2.858-1.282-2.858-2.858s1.282-2.858,2.858-2.858c1.576,0,2.858,1.282,2.858,2.858
					S10.626,41.809,9.05,41.809z M9.05,38.092c-0.473,0-0.858,0.385-0.858,0.858s0.385,0.858,0.858,0.858s0.858-0.385,0.858-0.858
					S9.523,38.092,9.05,38.092z"/>
			</g>
			<g>
				<rect x="31.736" y="7.96" transform="matrix(0.7071 0.7071 -0.7071 0.7071 20.3816 -18.6773)" width="2" height="14.608"/>
				<rect x="14.263" y="25.434" transform="matrix(0.7071 0.7071 -0.7071 0.7071 27.6187 -1.2038)" width="2" height="14.606"/>
			</g>
		</g>
		<g>
			<g>
				<path d="M38.948,41.811c-1.577,0-2.859-1.282-2.859-2.859c0-1.576,1.282-2.859,2.859-2.859c1.576,0,2.858,1.283,2.858,2.859
					C41.807,40.528,40.524,41.811,38.948,41.811z M38.948,38.092c-0.474,0-0.859,0.386-0.859,0.859s0.386,0.859,0.859,0.859
					s0.858-0.386,0.858-0.859S39.422,38.092,38.948,38.092z"/>
				<path d="M9.05,11.91c-1.576,0-2.859-1.283-2.859-2.859c0-1.576,1.283-2.859,2.859-2.859c1.577,0,2.859,1.283,2.859,2.859
					C11.909,10.627,10.626,11.91,9.05,11.91z M9.05,8.192c-0.474,0-0.859,0.385-0.859,0.859S8.576,9.91,9.05,9.91
					s0.859-0.386,0.859-0.859S9.523,8.192,9.05,8.192z"/>
			</g>
			<g>
				<rect x="25.432" y="31.737" transform="matrix(0.7072 0.707 -0.707 0.7072 32.7298 -13.559)" width="14.607" height="2"/>
				<rect x="7.959" y="14.263" transform="matrix(0.7071 0.7071 -0.7071 0.7071 15.2618 -6.3218)" width="14.606" height="2"/>
			</g>
		</g>
	</g>
</g>
</svg>
