<?xml version="1.0" encoding="utf-8"?>
<!-- Generator: Adobe Illustrator 16.0.0, SVG Export Plug-In . SVG Version: 6.00 Build 0)  -->
<!DOCTYPE svg PUBLIC "-//W3C//DTD SVG 1.1//EN" "http://www.w3.org/Graphics/SVG/1.1/DTD/svg11.dtd">
<svg version="1.1" id="Layer_1" xmlns="http://www.w3.org/2000/svg" xmlns:xlink="http://www.w3.org/1999/xlink" x="0px" y="0px"
	 width="48px" height="48px" viewBox="0 0 48 48" enable-background="new 0 0 48 48" xml:space="preserve">
<g>
	<path d="M42.577,48H5.423C2.433,48,0,45.038,0,41.398V13.913c0-3.642,2.433-6.604,5.423-6.604h37.154
		c2.99,0,5.423,2.962,5.423,6.604v27.485C48,45.038,45.567,48,42.577,48z M5.423,9.309C3.567,9.309,2,11.417,2,13.913v27.485
		C2,43.893,3.567,46,5.423,46h37.154C44.433,46,46,43.893,46,41.398V13.913c0-2.496-1.567-4.604-3.423-4.604H5.423z"/>
	<path d="M33.689,8.309h-2V6.602C31.689,4.107,30.122,2,28.268,2h-8.536c-1.855,0-3.422,2.107-3.422,4.602v1.707h-2V6.602
		C14.31,2.961,16.742,0,19.732,0h8.536c2.989,0,5.422,2.961,5.422,6.602V8.309z"/>
	<g>
		<rect x="8.938" y="8.309" width="2" height="38.691"/>
		<rect x="37.063" y="8.309" width="2" height="38.691"/>
	</g>
</g>
</svg>
