<?xml version="1.0" encoding="utf-8"?>
<!-- Generator: Adobe Illustrator 16.0.0, SVG Export Plug-In . SVG Version: 6.00 Build 0)  -->
<!DOCTYPE svg PUBLIC "-//W3C//DTD SVG 1.1//EN" "http://www.w3.org/Graphics/SVG/1.1/DTD/svg11.dtd">
<svg version="1.1" id="Layer_1" xmlns="http://www.w3.org/2000/svg" xmlns:xlink="http://www.w3.org/1999/xlink" x="0px" y="0px"
	 width="48px" height="48px" viewBox="0 0 48 48" enable-background="new 0 0 48 48" xml:space="preserve">
<g>
	<path d="M24,48C11.308,48,0.983,37.006,0.983,23.493L2.865,0.917C2.909,0.398,3.342,0,3.862,0h8.78
		c0.279,0,0.545,0.117,0.734,0.321c0.189,0.205,0.285,0.479,0.263,0.757l-1.882,23.821c0.003,7.163,5.494,13.056,12.242,13.056
		c6.749,0,12.239-5.893,12.239-13.135L34.36,1.079c-0.021-0.278,0.073-0.553,0.263-0.757S35.078,0,35.357,0h8.781
		c0.52,0,0.953,0.398,0.996,0.917l1.879,22.493C47.018,37.006,36.692,48,24,48z M4.782,2L2.979,23.576C2.983,35.903,12.411,46,24,46
		s21.018-10.097,21.018-22.507L43.219,2h-6.779l1.796,22.741c0.003,8.425-6.385,15.214-14.236,15.214S9.76,33.166,9.76,24.82
		L11.56,2H4.782z"/>
	<rect x="3.7" y="8.708" width="7.867" height="2"/>
	<rect x="36.047" y="8.708" width="9.074" height="2"/>
</g>
</svg>
