<?xml version="1.0" encoding="utf-8"?>
<!-- Generator: Adobe Illustrator 16.0.0, SVG Export Plug-In . SVG Version: 6.00 Build 0)  -->
<!DOCTYPE svg PUBLIC "-//W3C//DTD SVG 1.1//EN" "http://www.w3.org/Graphics/SVG/1.1/DTD/svg11.dtd">
<svg version="1.1" id="Layer_1" xmlns="http://www.w3.org/2000/svg" xmlns:xlink="http://www.w3.org/1999/xlink" x="0px" y="0px"
	 width="48px" height="48px" viewBox="0 0 48 48" enable-background="new 0 0 48 48" xml:space="preserve">
<g>
	<path d="M26.836,48.001h-5.669l-0.168-0.793c-0.161-0.756-2.043-2.31-3.704-3.681c-2.414-1.993-5.418-4.473-7.082-7.324
		c-2.041-3.501-2.26-7.586-2.159-10.044c-1.113-0.795-1.782-2.064-1.782-3.448v-2.046c0-2.182,1.648-3.986,3.765-4.233V4.16
		c0-2.294,1.547-4.16,3.45-4.16c1.903,0,3.451,1.866,3.451,4.16v12.243h13.176V4.16c0-2.294,1.548-4.16,3.451-4.16
		c1.902,0,3.449,1.866,3.449,4.16v12.242h0.451c1.135,0,2.204,0.445,3.011,1.252c0.807,0.808,1.25,1.877,1.249,3.012v2.045
		c0,1.383-0.669,2.653-1.781,3.447c0.103,2.459-0.116,6.544-2.157,10.045c-1.663,2.852-4.668,5.332-7.082,7.325
		c-1.66,1.371-3.542,2.924-3.702,3.681L26.836,48.001z M22.65,46.001h2.703c0.649-1.183,2.146-2.418,4.08-4.015
		c2.292-1.893,5.144-4.247,6.627-6.791c1.952-3.348,2.001-7.396,1.856-9.511l-0.045-0.663l0.594-0.299
		c0.778-0.391,1.262-1.162,1.262-2.012v-2.046c0.001-0.602-0.235-1.168-0.664-1.598s-0.995-0.666-1.596-0.666h-2.451V4.16
		c0-1.151-0.677-2.16-1.449-2.16c-0.773,0-1.451,1.009-1.451,2.16v14.243H14.939V4.16c0-1.151-0.678-2.16-1.451-2.16
		c-0.772,0-1.45,1.009-1.45,2.16v14.243h-1.503c-1.248,0-2.262,1.015-2.262,2.262v2.046c0,0.85,0.483,1.621,1.262,2.012l0.594,0.299
		l-0.045,0.663c-0.144,2.114-0.094,6.163,1.857,9.511c1.484,2.544,4.336,4.898,6.628,6.79C20.504,43.583,22,44.818,22.65,46.001z"/>
	<rect x="14.297" y="24.368" width="19.406" height="2"/>
</g>
</svg>
