<?xml version="1.0" encoding="utf-8"?>
<!-- Generator: Adobe Illustrator 16.0.0, SVG Export Plug-In . SVG Version: 6.00 Build 0)  -->
<!DOCTYPE svg PUBLIC "-//W3C//DTD SVG 1.1//EN" "http://www.w3.org/Graphics/SVG/1.1/DTD/svg11.dtd">
<svg version="1.1" id="Layer_1" xmlns="http://www.w3.org/2000/svg" xmlns:xlink="http://www.w3.org/1999/xlink" x="0px" y="0px"
	 width="48px" height="48px" viewBox="0 0 48 48" enable-background="new 0 0 48 48" xml:space="preserve">
<g>
	<path d="M31.948,40.35H19.977l-9.285-9.402H0V17.051h10.692l9.285-9.4h11.971v4.909h11.131c2.76,0,4.921,1.593,4.921,3.626
		s-2.161,3.626-4.921,3.626H31.948v8.375h11.131c2.76,0,4.921,1.593,4.921,3.625c0,2.035-2.161,3.629-4.921,3.629H31.948V40.35z
		 M20.813,38.35h9.135v-4.908h13.131c1.672,0,2.921-0.86,2.921-1.629c0-0.767-1.249-1.625-2.921-1.625H29.948V17.812h13.131
		c1.672,0,2.921-0.858,2.921-1.626s-1.249-1.626-2.921-1.626H29.948V9.651h-9.135l-9.285,9.4H2v9.896h9.528L20.813,38.35z"/>
	<polygon points="12.578,23.221 5.231,23.221 5.231,21.221 11.792,21.221 21.26,12.413 27.175,12.413 27.175,14.413 22.046,14.413 	
		"/>
</g>
</svg>
