<?xml version="1.0" encoding="utf-8"?>
<!-- Generator: Adobe Illustrator 16.0.0, SVG Export Plug-In . SVG Version: 6.00 Build 0)  -->
<!DOCTYPE svg PUBLIC "-//W3C//DTD SVG 1.1//EN" "http://www.w3.org/Graphics/SVG/1.1/DTD/svg11.dtd">
<svg version="1.1" id="Layer_1" xmlns="http://www.w3.org/2000/svg" xmlns:xlink="http://www.w3.org/1999/xlink" x="0px" y="0px"
	 width="48px" height="48px" viewBox="0 0 48 48" enable-background="new 0 0 48 48" xml:space="preserve">
<g>
	<g>
		<g>
			<path d="M44,16.284H4c-1.642,0-2.177-0.65-2.337-1.195s-0.061-1.381,1.319-2.269L20.936,1.282c1.661-1.067,4.468-1.067,6.128,0
				l17.954,11.539c1.38,0.888,1.479,1.724,1.319,2.269S45.641,16.284,44,16.284z M4.405,14.284h39.19L25.982,2.964
				c-1.01-0.648-2.956-0.648-3.966,0L4.405,14.284z"/>
		</g>
		<g>
			<g>
				<path d="M8.157,41.248c-2.06,0-3.735-1.794-3.735-4V20.793c0-2.206,1.676-4,3.735-4s3.735,1.794,3.735,4v16.455
					C11.892,39.454,10.217,41.248,8.157,41.248z M8.157,18.793c-0.957,0-1.735,0.897-1.735,2v16.455c0,1.103,0.778,2,1.735,2
					c0.957,0,1.735-0.897,1.735-2V20.793C9.892,19.69,9.114,18.793,8.157,18.793z"/>
			</g>
			<g>
				<path d="M23.999,41.248c-2.06,0-3.735-1.794-3.735-4V20.793c0-2.206,1.675-4,3.735-4s3.735,1.794,3.735,4v16.455
					C27.734,39.454,26.059,41.248,23.999,41.248z M23.999,18.793c-0.957,0-1.735,0.897-1.735,2v16.455c0,1.103,0.778,2,1.735,2
					c0.957,0,1.735-0.897,1.735-2V20.793C25.734,19.69,24.956,18.793,23.999,18.793z"/>
			</g>
			<g>
				<path d="M39.842,41.248c-2.06,0-3.734-1.794-3.734-4V20.793c0-2.206,1.675-4,3.734-4s3.735,1.794,3.735,4v16.455
					C43.577,39.454,41.901,41.248,39.842,41.248z M39.842,18.793c-0.956,0-1.734,0.897-1.734,2v16.455c0,1.103,0.778,2,1.734,2
					c0.957,0,1.735-0.897,1.735-2V20.793C41.577,19.69,40.799,18.793,39.842,18.793z"/>
			</g>
		</g>
		<g>
			<path d="M44,47.498H4c-2.243,0-4-1.351-4-3.074c0-1.723,1.757-3.072,4-3.072h40c2.243,0,4,1.35,4,3.072
				C48,46.147,46.243,47.498,44,47.498z M4,43.352c-1.126,0-2,0.576-2,1.072c0,0.497,0.874,1.074,2,1.074h40
				c1.126,0,2-0.577,2-1.074c0-0.496-0.874-1.072-2-1.072H4z"/>
		</g>
	</g>
</g>
</svg>
