<?xml version="1.0" encoding="utf-8"?>
<!-- Generator: Adobe Illustrator 16.0.0, SVG Export Plug-In . SVG Version: 6.00 Build 0)  -->
<!DOCTYPE svg PUBLIC "-//W3C//DTD SVG 1.1//EN" "http://www.w3.org/Graphics/SVG/1.1/DTD/svg11.dtd">
<svg version="1.1" id="Layer_1" xmlns="http://www.w3.org/2000/svg" xmlns:xlink="http://www.w3.org/1999/xlink" x="0px" y="0px"
	 width="48px" height="48px" viewBox="0 0 48 48" enable-background="new 0 0 48 48" xml:space="preserve">
<g>
	<g>
		<path d="M40,47.521H8c-4.411,0-8-3.524-8-7.857v-6.857h2v6.857c0,3.229,2.691,5.857,6,5.857h32c3.309,0,6-2.628,6-5.857v-6.857h2
			v6.857C48,43.997,44.411,47.521,40,47.521z"/>
	</g>
	<path d="M24,43.08c-0.256,0-0.512-0.098-0.707-0.293L5.567,25.063c-0.286-0.286-0.372-0.716-0.217-1.09
		c0.155-0.374,0.52-0.617,0.924-0.617h7.324v-9.47c0-0.552,0.448-1,1-1H33.4c0.553,0,1,0.448,1,1v9.47h7.324
		c0.404,0,0.77,0.244,0.924,0.617c0.155,0.374,0.069,0.804-0.217,1.09L24.707,42.787C24.512,42.982,24.256,43.08,24,43.08z
		 M8.688,25.356L24,40.666l15.311-15.31H33.4c-0.553,0-1-0.448-1-1v-9.47H15.598v9.47c0,0.552-0.448,1-1,1H8.688z"/>
	<rect x="14.493" y="8.718" width="19.063" height="2"/>
	<rect x="14.493" y="4.598" width="19.063" height="2"/>
	<rect x="14.493" y="0.478" width="19.063" height="2"/>
</g>
</svg>
