<?xml version="1.0" encoding="utf-8"?>
<!-- Generator: Adobe Illustrator 16.0.0, SVG Export Plug-In . SVG Version: 6.00 Build 0)  -->
<!DOCTYPE svg PUBLIC "-//W3C//DTD SVG 1.1//EN" "http://www.w3.org/Graphics/SVG/1.1/DTD/svg11.dtd">
<svg version="1.1" id="Layer_1" xmlns="http://www.w3.org/2000/svg" xmlns:xlink="http://www.w3.org/1999/xlink" x="0px" y="0px"
	 width="48px" height="48px" viewBox="0 0 48 48" enable-background="new 0 0 48 48" xml:space="preserve">
<g>
	<path d="M9.421,38.561c-5.195,0-9.421-4.3-9.421-9.584v-1h18.84v1C18.84,34.261,14.615,38.561,9.421,38.561z M2.064,29.977
		c0.48,3.711,3.596,6.584,7.356,6.584c3.759,0,6.875-2.873,7.354-6.584H2.064z"/>
	<rect x="23.032" y="0.601" width="2" height="45.997"/>
	<rect x="14.991" y="45.598" width="18.081" height="2"/>
	<rect x="13.535" y="-4.13" transform="matrix(0.1665 0.986 -0.986 0.1665 17.5392 -9.7469)" width="2" height="19.262"/>
	<path d="M1.968,28.937L0.1,28.224L8.487,6.261c0.148-0.387,0.52-0.643,0.934-0.643s0.786,0.256,0.934,0.643l8.386,21.962
		l-1.868,0.713L9.421,9.421L1.968,28.937z"/>
	<rect x="8.421" y="8.267" width="2" height="20.709"/>
	<path d="M38.579,38.561c-5.193,0-9.419-4.3-9.419-9.584v-1H48v1C48,34.261,43.773,38.561,38.579,38.561z M31.225,29.977
		c0.48,3.711,3.596,6.584,7.354,6.584c3.76,0,6.876-2.873,7.356-6.584H31.225z"/>
	<path d="M46.032,28.937L38.579,9.421l-7.451,19.515l-1.869-0.713l8.386-21.962c0.148-0.387,0.52-0.643,0.935-0.643
		s0.786,0.256,0.935,0.643l8.388,21.962L46.032,28.937z"/>
	<rect x="37.579" y="8.267" width="2" height="20.709"/>
	<rect x="23.898" y="4.502" transform="matrix(0.9861 0.1663 -0.1663 0.9861 1.3817 -5.4991)" width="19.262" height="2"/>
</g>
</svg>
