<?xml version="1.0" encoding="utf-8"?>
<!-- Generator: Adobe Illustrator 16.0.0, SVG Export Plug-In . SVG Version: 6.00 Build 0)  -->
<!DOCTYPE svg PUBLIC "-//W3C//DTD SVG 1.1//EN" "http://www.w3.org/Graphics/SVG/1.1/DTD/svg11.dtd">
<svg version="1.1" id="Layer_1" xmlns="http://www.w3.org/2000/svg" xmlns:xlink="http://www.w3.org/1999/xlink" x="0px" y="0px"
	 width="48px" height="48px" viewBox="0 0 48 48" enable-background="new 0 0 48 48" xml:space="preserve">
<g>
	<path d="M20.131,48C9.031,48,0,38.97,0,27.869S9.031,7.738,20.131,7.738c11.101,0,20.131,9.031,20.131,20.131S31.231,48,20.131,48z
		 M20.131,9.738C10.133,9.738,2,17.872,2,27.869C2,37.866,10.133,46,20.131,46c9.997,0,18.131-8.134,18.131-18.131
		C38.262,17.872,30.128,9.738,20.131,9.738z"/>
	<rect x="39.301" y="-1.791" transform="matrix(0.7042 0.71 -0.71 0.7042 17.349 -26.3537)" width="2" height="18.869"/>
	<polygon points="48,11.527 46,11.527 46,2 36.475,2 36.475,0 48,0 	"/>
</g>
</svg>
