<?xml version="1.0" encoding="utf-8"?>
<!-- Generator: Adobe Illustrator 16.0.0, SVG Export Plug-In . SVG Version: 6.00 Build 0)  -->
<!DOCTYPE svg PUBLIC "-//W3C//DTD SVG 1.1//EN" "http://www.w3.org/Graphics/SVG/1.1/DTD/svg11.dtd">
<svg version="1.1" id="Layer_1" xmlns="http://www.w3.org/2000/svg" xmlns:xlink="http://www.w3.org/1999/xlink" x="0px" y="0px"
	 width="48px" height="48px" viewBox="0 0 48 48" enable-background="new 0 0 48 48" xml:space="preserve">
<g>
	<path d="M41.969,48H6.031C2.706,48,0,45.294,0,41.969V6.031C0,2.706,2.706,0,6.031,0h35.938C45.294,0,48,2.706,48,6.031v35.938
		C48,45.294,45.294,48,41.969,48z M6.031,2C3.809,2,2,3.809,2,6.031v35.938C2,44.191,3.809,46,6.031,46h35.938
		C44.191,46,46,44.191,46,41.969V6.031C46,3.809,44.191,2,41.969,2H6.031z"/>
	<rect x="1" y="12.065" width="46" height="2"/>
	<rect x="1" y="23" width="46" height="2"/>
	<rect x="1" y="33.938" width="46" height="2"/>
	<path d="M9.331,17.605c-2.534,0-4.596-2.062-4.596-4.596s2.062-4.596,4.596-4.596s4.596,2.062,4.596,4.596
		S11.865,17.605,9.331,17.605z M9.331,10.413c-1.432,0-2.596,1.165-2.596,2.596c0,1.432,1.165,2.596,2.596,2.596
		c1.431,0,2.596-1.165,2.596-2.596C11.927,11.578,10.762,10.413,9.331,10.413z"/>
	<path d="M19.722,17.605c-2.534,0-4.596-2.062-4.596-4.596s2.062-4.596,4.596-4.596s4.596,2.062,4.596,4.596
		S22.256,17.605,19.722,17.605z M19.722,10.413c-1.432,0-2.596,1.165-2.596,2.596c0,1.432,1.165,2.596,2.596,2.596
		c1.431,0,2.596-1.165,2.596-2.596C22.318,11.578,21.153,10.413,19.722,10.413z"/>
	<path d="M30.113,17.605c-2.534,0-4.596-2.062-4.596-4.596s2.062-4.596,4.596-4.596s4.596,2.062,4.596,4.596
		S32.647,17.605,30.113,17.605z M30.113,10.413c-1.432,0-2.596,1.165-2.596,2.596c0,1.432,1.164,2.596,2.596,2.596
		s2.596-1.165,2.596-2.596C32.709,11.578,31.545,10.413,30.113,10.413z"/>
	<path d="M26.914,28.596c-2.534,0-4.596-2.062-4.596-4.596s2.062-4.596,4.596-4.596S31.51,21.466,31.51,24
		S29.448,28.596,26.914,28.596z M26.914,21.404c-1.432,0-2.596,1.165-2.596,2.596s1.165,2.596,2.596,2.596S29.51,25.432,29.51,24
		S28.346,21.404,26.914,21.404z"/>
	<path d="M37.307,28.598c-2.535,0-4.598-2.063-4.598-4.598c0-2.535,2.063-4.597,4.598-4.597c2.534,0,4.596,2.063,4.596,4.597
		C41.902,26.535,39.841,28.598,37.307,28.598z M37.307,21.403c-1.433,0-2.598,1.165-2.598,2.597c0,1.433,1.165,2.598,2.598,2.598
		c1.432,0,2.596-1.165,2.596-2.598C39.902,22.568,38.738,21.403,37.307,21.403z"/>
	<path d="M15.468,39.534c-2.535,0-4.597-2.063-4.597-4.597c0-2.535,2.062-4.598,4.597-4.598s4.597,2.063,4.597,4.598
		C20.065,37.472,18.002,39.534,15.468,39.534z M15.468,32.34c-1.432,0-2.597,1.165-2.597,2.598c0,1.432,1.165,2.597,2.597,2.597
		c1.432,0,2.597-1.165,2.597-2.597C18.065,33.505,16.9,32.34,15.468,32.34z"/>
</g>
</svg>
