<?xml version="1.0" encoding="utf-8"?>
<!-- Generator: Adobe Illustrator 16.0.0, SVG Export Plug-In . SVG Version: 6.00 Build 0)  -->
<!DOCTYPE svg PUBLIC "-//W3C//DTD SVG 1.1//EN" "http://www.w3.org/Graphics/SVG/1.1/DTD/svg11.dtd">
<svg version="1.1" id="Layer_1" xmlns="http://www.w3.org/2000/svg" xmlns:xlink="http://www.w3.org/1999/xlink" x="0px" y="0px"
	 width="48px" height="48px" viewBox="0 0 48 48" enable-background="new 0 0 48 48" xml:space="preserve">
<g>
	<g>
		<path d="M40,47.999H8c-4.411,0-8-3.589-8-8V22.794c0-4.411,3.589-8,8-8h32c4.411,0,8,3.589,8,8v17.205
			C48,44.41,44.411,47.999,40,47.999z M8,16.794c-3.309,0-6,2.691-6,6v17.205c0,3.309,2.691,6,6,6h32c3.309,0,6-2.691,6-6V22.794
			c0-3.309-2.691-6-6-6H8z"/>
	</g>
	<path d="M39.37,16.499L25.631,2.676c-0.433-0.435-1.011-0.675-1.63-0.675c0,0,0,0,0,0c-0.619,0-1.198,0.24-1.631,0.675L8.63,16.499
		l-1.419-1.41L20.951,1.266c0.812-0.815,1.895-1.265,3.05-1.265c0,0,0.001,0,0.001,0c1.154,0,2.236,0.45,3.047,1.265l13.739,13.823
		L39.37,16.499z"/>
	<g>
		<path d="M11.582,34.37c0.77,0,1.401-0.306,1.891-0.917l1.006,1.039c-0.798,0.898-1.74,1.348-2.824,1.348
			c-1.082,0-1.975-0.343-2.675-1.027c-0.702-0.684-1.052-1.547-1.052-2.59S8.286,30.309,9,29.609
			c0.714-0.697,1.588-1.045,2.621-1.045c1.154,0,2.12,0.438,2.898,1.316l-0.977,1.105c-0.495-0.615-1.113-0.924-1.851-0.924
			c-0.59,0-1.095,0.191-1.513,0.578c-0.42,0.385-0.629,0.905-0.629,1.56c0,0.655,0.197,1.179,0.594,1.575
			C10.539,34.172,11.018,34.37,11.582,34.37z"/>
		<path d="M15.718,35.759v-7.032h1.57v5.633h2.998v1.399H15.718z"/>
		<path d="M27.157,34.788c-0.712,0.694-1.587,1.04-2.626,1.04c-1.04,0-1.916-0.346-2.626-1.04c-0.711-0.694-1.066-1.56-1.066-2.593
			s0.355-1.896,1.066-2.59c0.71-0.695,1.586-1.041,2.626-1.041c1.039,0,1.914,0.346,2.626,1.041c0.712,0.693,1.067,1.557,1.067,2.59
			S27.869,34.094,27.157,34.788z M26.625,32.201c0-0.627-0.202-1.162-0.605-1.604c-0.399-0.443-0.896-0.664-1.482-0.664
			s-1.081,0.221-1.483,0.664c-0.403,0.441-0.604,0.978-0.604,1.604c0,0.629,0.201,1.162,0.604,1.601
			c0.402,0.439,0.896,0.658,1.483,0.658s1.083-0.219,1.482-0.658C26.423,33.363,26.625,32.83,26.625,32.201z"/>
		<path d="M31.139,30.129c-0.15,0.124-0.229,0.288-0.229,0.492s0.094,0.367,0.279,0.488c0.184,0.119,0.607,0.265,1.275,0.429
			c0.667,0.163,1.186,0.41,1.555,0.739c0.369,0.328,0.556,0.809,0.556,1.438s-0.237,1.142-0.712,1.533
			c-0.473,0.394-1.094,0.59-1.864,0.59c-1.114,0-2.117-0.414-3.011-1.239l0.938-1.146c0.758,0.665,1.458,0.998,2.104,0.998
			c0.287,0,0.516-0.063,0.679-0.188c0.165-0.123,0.246-0.293,0.246-0.502c0-0.214-0.087-0.381-0.261-0.504
			c-0.174-0.126-0.521-0.249-1.036-0.378c-0.818-0.194-1.419-0.446-1.798-0.759c-0.379-0.314-0.567-0.803-0.567-1.471
			c0-0.666,0.24-1.183,0.72-1.545c0.479-0.36,1.078-0.543,1.797-0.543c0.471,0,0.938,0.08,1.409,0.242
			c0.468,0.16,0.878,0.389,1.226,0.684l-0.793,1.146c-0.61-0.463-1.24-0.693-1.893-0.693C31.494,29.943,31.289,30.006,31.139,30.129
			z"/>
		<path d="M40.982,28.727v1.396h-3.5v1.449h3.149v1.338h-3.149v1.46h3.611v1.389h-5.182v-7.032H40.982z"/>
	</g>
</g>
</svg>
