<?xml version="1.0" encoding="utf-8"?>
<!-- Generator: Adobe Illustrator 16.0.0, SVG Export Plug-In . SVG Version: 6.00 Build 0)  -->
<!DOCTYPE svg PUBLIC "-//W3C//DTD SVG 1.1//EN" "http://www.w3.org/Graphics/SVG/1.1/DTD/svg11.dtd">
<svg version="1.1" id="Layer_1" xmlns="http://www.w3.org/2000/svg" xmlns:xlink="http://www.w3.org/1999/xlink" x="0px" y="0px"
	 width="48px" height="48px" viewBox="0 0 48 48" enable-background="new 0 0 48 48" xml:space="preserve">
<g>
	<g>
		<g>
			<path d="M40,47.999H8c-4.411,0-8-3.589-8-8V22.794c0-4.411,3.589-8,8-8h32c4.411,0,8,3.589,8,8v17.205
				C48,44.41,44.411,47.999,40,47.999z M8,16.794c-3.309,0-6,2.691-6,6v17.205c0,3.309,2.691,6,6,6h32c3.309,0,6-2.691,6-6V22.794
				c0-3.309-2.691-6-6-6H8z"/>
		</g>
		<path d="M39.37,16.499L25.632,2.676c-0.433-0.435-1.012-0.675-1.631-0.675c0,0,0,0,0,0c-0.619,0-1.199,0.24-1.633,0.675
			L8.63,16.499l-1.419-1.41L20.95,1.266C21.762,0.45,22.846,0.001,24,0.001c0,0,0.001,0,0.001,0c1.154,0,2.237,0.449,3.048,1.265
			l13.738,13.823L39.37,16.499z"/>
	</g>
	<g>
		<path d="M14.09,29.489c-0.15,0.122-0.226,0.288-0.226,0.491c0,0.205,0.092,0.367,0.277,0.488c0.185,0.12,0.61,0.264,1.278,0.43
			c0.667,0.162,1.185,0.41,1.555,0.738c0.369,0.327,0.553,0.809,0.553,1.439c0,0.629-0.236,1.14-0.709,1.533
			c-0.473,0.393-1.095,0.589-1.866,0.589c-1.114,0-2.117-0.413-3.009-1.238l0.935-1.147c0.758,0.664,1.46,0.998,2.104,0.998
			c0.288,0,0.515-0.063,0.68-0.188c0.164-0.124,0.246-0.292,0.246-0.502c0-0.214-0.087-0.38-0.261-0.504
			c-0.175-0.125-0.521-0.249-1.037-0.378c-0.818-0.194-1.417-0.447-1.796-0.759c-0.379-0.313-0.569-0.803-0.569-1.472
			c0-0.666,0.24-1.181,0.72-1.544c0.479-0.361,1.078-0.543,1.796-0.543c0.47,0,0.939,0.081,1.408,0.242
			c0.47,0.16,0.88,0.389,1.228,0.684l-0.794,1.146c-0.61-0.462-1.242-0.692-1.893-0.692C14.448,29.305,14.242,29.365,14.09,29.489z"
			/>
		<path d="M23.796,35.119l-0.654-1.52h-2.948l-0.654,1.52h-1.67l3.039-7.034h1.52l3.039,7.034H23.796z M21.672,30.178l-0.885,2.043
			h1.761L21.672,30.178z"/>
		<path d="M26.279,35.119v-7.034h1.572v5.634h2.998v1.4H26.279z"/>
		<path d="M37.066,28.085v1.397h-3.5v1.449h3.148v1.338h-3.148v1.461h3.611v1.389h-5.182v-7.034H37.066z"/>
	</g>
</g>
</svg>
