<?xml version="1.0" encoding="utf-8"?>
<!-- Generator: Adobe Illustrator 16.0.0, SVG Export Plug-In . SVG Version: 6.00 Build 0)  -->
<!DOCTYPE svg PUBLIC "-//W3C//DTD SVG 1.1//EN" "http://www.w3.org/Graphics/SVG/1.1/DTD/svg11.dtd">
<svg version="1.1" id="Layer_1" xmlns="http://www.w3.org/2000/svg" xmlns:xlink="http://www.w3.org/1999/xlink" x="0px" y="0px"
	 width="48px" height="48px" viewBox="0 0 48 48" enable-background="new 0 0 48 48" xml:space="preserve">
<g>
	<path d="M24,48c-0.333,0-0.644-0.166-0.83-0.441l-23-34.188c-0.29-0.431-0.202-1.011,0.202-1.336L15.027,0.222
		C15.205,0.078,15.426,0,15.655,0h16.691c0.229,0,0.45,0.078,0.628,0.222l14.654,11.813c0.403,0.325,0.491,0.906,0.202,1.336
		l-23,34.188C24.644,47.834,24.333,48,24,48z M2.342,13.016L24,45.209l21.658-32.193L31.993,2H16.008L2.342,13.016z"/>
	<path d="M33.725,16.914H16.526c-0.063,0-0.127-0.006-0.189-0.018L1.709,14.079l0.378-1.964l14.534,2.799h16.998l13.07-2.795
		l0.418,1.956l-13.174,2.817C33.865,16.907,33.795,16.914,33.725,16.914z"/>
	<path d="M23.781,47.674c-0.004,0-0.009,0-0.014,0c-0.449-0.007-0.839-0.312-0.953-0.746l-8.058-30.76
		c-0.083-0.318-0.005-0.657,0.209-0.906l7.499-8.711c0.175-0.203,0.423-0.328,0.691-0.345c0.265-0.013,0.53,0.072,0.73,0.25
		l9.781,8.677l-0.737,0.83l0.796,0.232l-8.984,30.76C24.616,47.381,24.225,47.674,23.781,47.674z M16.824,16.168l7.01,26.759
		l7.851-26.88l-8.367-7.422L16.824,16.168z"/>
	<path d="M24.363,8.203h-1.919c-0.138,0-0.274-0.028-0.401-0.084l-9.389-4.107l0.802-1.832l9.197,4.023h1.519l10.183-4.037
		l0.736,1.859L24.731,8.133C24.614,8.179,24.489,8.203,24.363,8.203z"/>
</g>
</svg>
