<?xml version="1.0" encoding="utf-8"?>
<!-- Generator: Adobe Illustrator 16.0.0, SVG Export Plug-In . SVG Version: 6.00 Build 0)  -->
<!DOCTYPE svg PUBLIC "-//W3C//DTD SVG 1.1//EN" "http://www.w3.org/Graphics/SVG/1.1/DTD/svg11.dtd">
<svg version="1.1" id="Layer_1" xmlns="http://www.w3.org/2000/svg" xmlns:xlink="http://www.w3.org/1999/xlink" x="0px" y="0px"
	 width="48px" height="48px" viewBox="0 0 48 48" enable-background="new 0 0 48 48" xml:space="preserve">
<g>
	<path d="M36.012,43.412c-4.375,0-8.327-2.7-10.449-7.092h-3.125c-2.123,4.392-6.075,7.092-10.451,7.092
		C5.377,43.412,0,37.189,0,29.54c0-7.648,5.378-13.87,11.988-13.87c2.075,0,4.12,0.632,5.934,1.831h12.156
		c1.812-1.199,3.855-1.831,5.934-1.831C42.622,15.67,48,21.892,48,29.54C48,37.189,42.622,43.412,36.012,43.412z M21.795,34.32h4.41
		c0.399,0,0.761,0.237,0.919,0.604c1.722,4.002,5.127,6.487,8.888,6.487C41.52,41.412,46,36.086,46,29.54
		c0-6.545-4.48-11.87-9.988-11.87c-1.767,0-3.513,0.57-5.051,1.649c-0.168,0.118-0.368,0.182-0.574,0.182H17.614
		c-0.205,0-0.406-0.063-0.574-0.181c-1.541-1.079-3.288-1.65-5.053-1.65C6.48,17.67,2,22.995,2,29.54
		c0,6.546,4.48,11.872,9.987,11.872c3.761,0,7.167-2.485,8.89-6.487C21.034,34.558,21.396,34.32,21.795,34.32z"/>
	<rect x="5.701" y="28.54" width="11.731" height="2"/>
	<rect x="10.568" y="23.676" width="2" height="11.73"/>
	<path d="M37.573,28.748c-2.05,0-3.718-1.667-3.718-3.717s1.668-3.717,3.718-3.717s3.717,1.667,3.717,3.717
		S39.623,28.748,37.573,28.748z M37.573,23.314c-0.947,0-1.718,0.771-1.718,1.717c0,0.946,0.771,1.717,1.718,1.717
		c0.946,0,1.717-0.771,1.717-1.717C39.29,24.084,38.52,23.314,37.573,23.314z"/>
	<path d="M33.891,36.641c-2.05,0-3.718-1.668-3.718-3.718s1.668-3.717,3.718-3.717s3.717,1.667,3.717,3.717
		S35.94,36.641,33.891,36.641z M33.891,31.206c-0.947,0-1.718,0.771-1.718,1.717c0,0.947,0.771,1.718,1.718,1.718
		c0.946,0,1.717-0.771,1.717-1.718C35.607,31.977,34.837,31.206,33.891,31.206z"/>
	<path d="M24.394,18.259h-2c0-1.706,0.072-2.945,1.03-4.555c1.564-2.617,3.941-2.408,6.279-1.791c0.21,0.056,0.43,0.118,0.657,0.182
		c1.545,0.437,3.468,0.981,4.465,0.053c0.273-0.256,0.412-0.545,0.409-0.857c-0.003-0.378-0.215-0.785-0.581-1.118
		c-1.902-1.722-4.212-1.575-6.884-1.405c-0.754,0.047-1.51,0.095-2.259,0.099c-0.88,0.004-1.726,0.043-2.549,0.08
		c-3.211,0.144-6.244,0.281-9.667-1.593c-0.228-0.125-0.446-0.269-0.663-0.414c-0.257-0.171-0.5-0.333-0.729-0.429l0.774-1.844
		c0.403,0.169,0.753,0.402,1.063,0.608c0.17,0.113,0.34,0.228,0.518,0.325c2.932,1.604,5.565,1.486,8.615,1.349
		c0.849-0.039,1.721-0.077,2.629-0.082c0.71-0.003,1.427-0.049,2.142-0.095c2.866-0.181,5.826-0.368,8.354,1.919
		c0.792,0.718,1.231,1.635,1.238,2.584c0.007,0.869-0.364,1.699-1.044,2.335c-1.821,1.698-4.453,0.954-6.375,0.41
		c-0.217-0.062-0.426-0.121-0.624-0.173c-2.305-0.606-3.288-0.393-4.05,0.883C24.427,15.929,24.394,16.764,24.394,18.259z"/>
</g>
</svg>
