<?xml version="1.0" encoding="utf-8"?>
<!-- Generator: Adobe Illustrator 16.0.0, SVG Export Plug-In . SVG Version: 6.00 Build 0)  -->
<!DOCTYPE svg PUBLIC "-//W3C//DTD SVG 1.1//EN" "http://www.w3.org/Graphics/SVG/1.1/DTD/svg11.dtd">
<svg version="1.1" id="Layer_1" xmlns="http://www.w3.org/2000/svg" xmlns:xlink="http://www.w3.org/1999/xlink" x="0px" y="0px"
	 width="48px" height="48px" viewBox="0 0 48 48" enable-background="new 0 0 48 48" xml:space="preserve">
<g>
	<path d="M24,45.031c-11.557,0-20.96-9.402-20.96-20.96c0-11.557,9.403-20.96,20.96-20.96c11.558,0,20.96,9.403,20.96,20.96
		C44.96,35.629,35.558,45.031,24,45.031z M24,5.111c-10.455,0-18.96,8.505-18.96,18.96s8.505,18.96,18.96,18.96
		c10.454,0,18.96-8.506,18.96-18.96S34.454,5.111,24,5.111z"/>
	<g>
		<path d="M2.79,13.577c-0.271,0-0.541-0.109-0.738-0.325c-1.411-1.541-2.137-3.539-2.044-5.626C0.1,5.539,1,3.612,2.541,2.201
			C3.985,0.879,5.859,0.15,7.817,0.15c2.191,0,4.295,0.927,5.773,2.543c0.373,0.407,0.345,1.04-0.063,1.413L3.464,13.315
			C3.272,13.49,3.03,13.577,2.79,13.577z M7.817,2.15c-1.457,0-2.851,0.542-3.926,1.526c-1.147,1.05-1.817,2.484-1.886,4.038
			c-0.054,1.215,0.265,2.39,0.909,3.393l8.461-7.743C10.363,2.584,9.11,2.15,7.817,2.15z"/>
		<path d="M45.211,13.577c-0.241,0-0.483-0.086-0.675-0.262L34.472,4.106c-0.407-0.373-0.436-1.005-0.063-1.413
			c1.479-1.616,3.583-2.543,5.773-2.543c1.957,0,3.832,0.729,5.277,2.051c3.182,2.913,3.401,7.87,0.489,11.051
			C45.751,13.468,45.481,13.577,45.211,13.577z M36.623,3.364l8.462,7.742c1.496-2.338,1.141-5.492-0.977-7.43
			c-1.075-0.984-2.47-1.526-3.927-1.526C38.888,2.15,37.635,2.584,36.623,3.364z"/>
	</g>
	<g>
		<rect x="9.552" y="40.451" transform="matrix(0.9057 0.4238 -0.4238 0.9057 19.5616 -0.343)" width="2" height="6.714"/>
		<rect x="34.089" y="42.809" transform="matrix(0.4239 0.9057 -0.9057 0.4239 61.2502 -8.6781)" width="6.715" height="1.999"/>
	</g>
	<polygon points="31.461,25.071 22.317,25.071 22.317,7.701 24.317,7.701 24.317,23.071 31.461,23.071 	"/>
</g>
</svg>
