<?xml version="1.0" encoding="utf-8"?>
<!-- Generator: Adobe Illustrator 16.0.0, SVG Export Plug-In . SVG Version: 6.00 Build 0)  -->
<!DOCTYPE svg PUBLIC "-//W3C//DTD SVG 1.1//EN" "http://www.w3.org/Graphics/SVG/1.1/DTD/svg11.dtd">
<svg version="1.1" id="Layer_1" xmlns="http://www.w3.org/2000/svg" xmlns:xlink="http://www.w3.org/1999/xlink" x="0px" y="0px"
	 width="48px" height="48px" viewBox="0 0 48 48" enable-background="new 0 0 48 48" xml:space="preserve">
<g>
	<rect x="15.001" width="2" height="48"/>
	<rect x="31" width="2" height="48"/>
	<rect y="15" width="48" height="2"/>
	<rect y="31.002" width="48" height="2"/>
	<path d="M23.928,29.637c-3.31,0-6.002-2.692-6.002-6.002s2.693-6.002,6.002-6.002c3.309,0,6.001,2.692,6.001,6.002
		S27.237,29.637,23.928,29.637z M23.928,19.633c-2.207,0-4.002,1.795-4.002,4.002c0,2.207,1.795,4.002,4.002,4.002
		c2.207,0,4.001-1.795,4.001-4.002C27.93,21.428,26.135,19.633,23.928,19.633z"/>
	<path d="M40.42,45.893c-3.31,0-6.002-2.692-6.002-6.002s2.692-6.002,6.002-6.002s6.002,2.692,6.002,6.002
		S43.729,45.893,40.42,45.893z M40.42,35.889c-2.207,0-4.002,1.795-4.002,4.002s1.795,4.002,4.002,4.002s4.002-1.795,4.002-4.002
		S42.627,35.889,40.42,35.889z"/>
	<g>
		<rect x="-1.441" y="23.001" transform="matrix(0.7071 0.7071 -0.7071 0.7071 18.8795 2.4228)" width="15.913" height="2"/>
		<rect x="5.515" y="16.045" transform="matrix(0.7071 0.7071 -0.7071 0.7071 18.8795 2.4228)" width="2" height="15.913"/>
	</g>
	<g>
		<rect x="32.463" y="6.645" transform="matrix(0.7072 0.707 -0.707 0.7072 17.2413 -26.3393)" width="15.911" height="2"/>
		<rect x="39.419" y="-0.311" transform="matrix(0.7071 0.7071 -0.7071 0.7071 17.2443 -26.3413)" width="2" height="15.911"/>
	</g>
</g>
</svg>
