<?xml version="1.0" encoding="utf-8"?>
<!-- Generator: Adobe Illustrator 16.0.0, SVG Export Plug-In . SVG Version: 6.00 Build 0)  -->
<!DOCTYPE svg PUBLIC "-//W3C//DTD SVG 1.1//EN" "http://www.w3.org/Graphics/SVG/1.1/DTD/svg11.dtd">
<svg version="1.1" id="Layer_1" xmlns="http://www.w3.org/2000/svg" xmlns:xlink="http://www.w3.org/1999/xlink" x="0px" y="0px"
	 width="48px" height="48px" viewBox="0 0 48 48" enable-background="new 0 0 48 48" xml:space="preserve">
<g>
	<path d="M26.158,48.002h-4.313c-1.344,0-2.438-1.094-2.438-2.438v-3.23c-1.799-0.449-3.514-1.161-5.118-2.125l-2.289,2.289
		c-0.915,0.92-2.528,0.92-3.448,0l-3.049-3.051c-0.458-0.457-0.712-1.068-0.712-1.722c0-0.652,0.253-1.265,0.711-1.725l2.289-2.289
		c-0.962-1.6-1.674-3.313-2.124-5.116H2.438C1.094,28.596,0,27.502,0,26.157v-4.313c0-1.343,1.093-2.437,2.436-2.437h3.233
		c0.45-1.801,1.162-3.516,2.124-5.117l-2.288-2.289c-0.459-0.46-0.712-1.072-0.712-1.724c0-0.653,0.253-1.265,0.713-1.724
		l3.045-3.049c0.92-0.92,2.532-0.92,3.449,0l2.287,2.287c1.601-0.962,3.315-1.674,5.117-2.125V2.437
		c0-1.344,1.094-2.438,2.438-2.438h4.313c1.344,0,2.438,1.094,2.438,2.438v3.231c1.802,0.45,3.518,1.163,5.117,2.125L36,5.505
		c0.912-0.918,2.527-0.919,3.447,0l3.049,3.049c0.949,0.949,0.95,2.495,0.001,3.446l-2.289,2.289c0.962,1.6,1.674,3.315,2.124,5.117
		h3.23c1.341,0,2.436,1.092,2.44,2.434v4.317c0,1.345-1.094,2.438-2.438,2.438h-3.23c-0.449,1.802-1.161,3.517-2.124,5.116
		L42.498,36c0.95,0.95,0.95,2.497,0,3.447l-3.049,3.051c-0.916,0.92-2.53,0.921-3.448-0.001l-2.288-2.288
		c-1.602,0.963-3.316,1.676-5.117,2.126v3.229C28.596,46.908,27.502,48.002,26.158,48.002z M14.017,37.653l0.681,0.449
		c1.816,1.199,3.805,2.024,5.909,2.454l0.8,0.163v4.845c0,0.237,0.201,0.438,0.438,0.438h4.313c0.237,0,0.438-0.2,0.438-0.438V40.72
		l0.8-0.163c2.108-0.431,4.096-1.256,5.908-2.453l0.682-0.45l3.431,3.431c0.11,0.111,0.241,0.128,0.31,0.128
		s0.199-0.017,0.309-0.127l3.05-3.052c0.168-0.168,0.168-0.451,0-0.619l-3.432-3.432l0.451-0.681
		c1.197-1.81,2.022-3.796,2.452-5.905l0.162-0.801h4.847c0.237,0,0.438-0.201,0.438-0.438v-4.313
		c-0.001-0.235-0.202-0.438-0.44-0.438h-4.846l-0.163-0.8c-0.43-2.11-1.255-4.097-2.452-5.907l-0.451-0.681l3.432-3.431
		c0.167-0.167,0.168-0.452,0-0.619l-3.049-3.049c-0.11-0.11-0.242-0.127-0.312-0.127c-0.067,0-0.197,0.016-0.306,0.125l-3.433,3.433
		l-0.682-0.451c-1.81-1.196-3.798-2.021-5.908-2.452l-0.8-0.164V2.437c0-0.237-0.2-0.438-0.438-0.438h-4.313
		c-0.237,0-0.438,0.201-0.438,0.438v4.846l-0.8,0.164c-2.11,0.431-4.098,1.256-5.909,2.453l-0.681,0.45l-3.43-3.43
		c-0.11-0.111-0.241-0.127-0.309-0.127c-0.069,0-0.2,0.017-0.311,0.127l-3.046,3.05c-0.11,0.11-0.127,0.241-0.127,0.309
		s0.017,0.2,0.127,0.311l3.43,3.43l-0.45,0.681c-1.197,1.812-2.022,3.799-2.452,5.908l-0.163,0.8H2.438
		c-0.156,0-0.261,0.081-0.309,0.129S2,21.688,2,21.844v4.313c0,0.237,0.201,0.438,0.438,0.438h4.847l0.163,0.8
		c0.43,2.111,1.255,4.099,2.451,5.906l0.451,0.681l-3.431,3.432c-0.11,0.11-0.126,0.242-0.126,0.312
		c0,0.067,0.016,0.198,0.125,0.306l3.051,3.053c0.219,0.222,0.397,0.221,0.617,0.002L14.017,37.653z M24,34.042
		c-5.537,0-10.042-4.505-10.042-10.042S18.463,13.958,24,13.958S34.041,18.463,34.041,24S29.537,34.042,24,34.042z M24,15.958
		c-4.435,0-8.042,3.607-8.042,8.042s3.607,8.042,8.042,8.042c4.434,0,8.041-3.607,8.041-8.042S28.434,15.958,24,15.958z"/>
</g>
</svg>
