<?xml version="1.0" encoding="utf-8"?>
<!-- Generator: Adobe Illustrator 16.0.0, SVG Export Plug-In . SVG Version: 6.00 Build 0)  -->
<!DOCTYPE svg PUBLIC "-//W3C//DTD SVG 1.1//EN" "http://www.w3.org/Graphics/SVG/1.1/DTD/svg11.dtd">
<svg version="1.1" id="Layer_1" xmlns="http://www.w3.org/2000/svg" xmlns:xlink="http://www.w3.org/1999/xlink" x="0px" y="0px"
	 width="48px" height="48px" viewBox="0 0 48 48" enable-background="new 0 0 48 48" xml:space="preserve">
<g>
	<polygon points="24.703,38.327 6.425,2.976 1.59,1.979 1.994,0.021 7.763,1.209 25.602,35.712 43.009,27.693 43.845,29.51 	"/>
	<path d="M20.095,48.002c-3.303,0-5.99-2.688-5.99-5.99s2.687-5.99,5.99-5.99c3.303,0,5.99,2.688,5.99,5.99
		S23.398,48.002,20.095,48.002z M20.095,38.021c-2.2,0-3.99,1.79-3.99,3.99s1.79,3.99,3.99,3.99s3.99-1.79,3.99-3.99
		S22.295,38.021,20.095,38.021z"/>
	<path d="M26.219,35.012L15.541,13.681L36.87,3.004l10.678,21.332L26.219,35.012z M18.225,14.575l8.887,17.753l17.753-8.886
		L35.978,5.688L18.225,14.575z"/>
</g>
</svg>
