<?xml version="1.0" encoding="utf-8"?>
<!-- Generator: Adobe Illustrator 16.0.0, SVG Export Plug-In . SVG Version: 6.00 Build 0)  -->
<!DOCTYPE svg PUBLIC "-//W3C//DTD SVG 1.1//EN" "http://www.w3.org/Graphics/SVG/1.1/DTD/svg11.dtd">
<svg version="1.1" id="Layer_1" xmlns="http://www.w3.org/2000/svg" xmlns:xlink="http://www.w3.org/1999/xlink" x="0px" y="0px"
	 width="48px" height="48px" viewBox="0 0 48 48" enable-background="new 0 0 48 48" xml:space="preserve">
<g>
	<path d="M47,44.766c-0.016,0-0.03,0-0.046-0.001L3.645,42.782c-0.225-0.022-1.659-0.207-2.529-1.153C0.028,40.447,0,38.76,0,38.571
		V16.468c0-0.552,0.448-1,1-1h46c0.553,0,1,0.448,1,1v27.298c0,0.273-0.111,0.534-0.31,0.723C47.504,44.667,47.257,44.766,47,44.766
		z M2,17.468v21.105c0.003,0.296,0.114,1.187,0.588,1.701c0.291,0.317,0.955,0.486,1.213,0.515L46,42.719V17.468H2z"/>
	<rect x="5.164" y="11.734" width="36.827" height="2"/>
	<rect x="9.929" y="7.483" width="27.297" height="2"/>
	<rect x="14.951" y="3.234" width="17.254" height="2"/>
	<path d="M46.115,43.957L8.986,35.474c1.074,2.428,0.244,4.212-0.259,4.974c-1.234,1.868-3.721,2.813-5.784,2.191
		C1.073,42.077,0,40.43,0,38.12h2c0,0.979,0.264,2.227,1.519,2.604c1.209,0.362,2.798-0.256,3.54-1.379
		c0.848-1.284,0.498-2.97-0.985-4.746c-0.275-0.329-0.309-0.798-0.085-1.163s0.658-0.55,1.075-0.452l39.497,9.024L46.115,43.957z"/>
</g>
</svg>
