<?xml version="1.0" encoding="utf-8"?>
<!-- Generator: Adobe Illustrator 16.0.0, SVG Export Plug-In . SVG Version: 6.00 Build 0)  -->
<!DOCTYPE svg PUBLIC "-//W3C//DTD SVG 1.1//EN" "http://www.w3.org/Graphics/SVG/1.1/DTD/svg11.dtd">
<svg version="1.1" id="Layer_1" xmlns="http://www.w3.org/2000/svg" xmlns:xlink="http://www.w3.org/1999/xlink" x="0px" y="0px"
	 width="48px" height="48px" viewBox="0 0 48 48" enable-background="new 0 0 48 48" xml:space="preserve">
<g>
	<polygon points="25.143,38.391 16.527,38.391 16.527,18.978 25.143,18.978 25.143,20.978 18.527,20.978 18.527,36.391 
		25.143,36.391 	"/>
	<g>
		<path d="M27.827,48H7.226V17.144c0-4.08,2.609-7.634,6.436-8.9V4.991c0-0.725,0.439-1.556,3.865-1.556
			c3.427,0,3.866,0.832,3.866,1.556v3.253c3.826,1.266,6.434,4.819,6.434,8.899V48z M9.226,46h16.601V17.144
			c0-3.419-2.331-6.369-5.668-7.174l-0.766-0.185v-4.2c-0.374-0.074-1.007-0.15-1.866-0.15c-0.858,0-1.492,0.076-1.865,0.15v4.2
			L14.896,9.97c-3.339,0.805-5.67,3.755-5.67,7.174V46z"/>
		<path d="M40.773,16.673L21.197,6.449L40.773-0.41V16.673z M26.211,6.811l12.563,6.562V2.41L26.211,6.811z"/>
	</g>
</g>
</svg>
