<?xml version="1.0" encoding="utf-8"?>
<!-- Generator: Adobe Illustrator 16.0.0, SVG Export Plug-In . SVG Version: 6.00 Build 0)  -->
<!DOCTYPE svg PUBLIC "-//W3C//DTD SVG 1.1//EN" "http://www.w3.org/Graphics/SVG/1.1/DTD/svg11.dtd">
<svg version="1.1" id="Layer_1" xmlns="http://www.w3.org/2000/svg" xmlns:xlink="http://www.w3.org/1999/xlink" x="0px" y="0px"
	 width="48px" height="48px" viewBox="0 0 48 48" enable-background="new 0 0 48 48" xml:space="preserve">
<g>
	<rect x="5.282" y="20.236" width="2" height="26.764"/>
	<rect x="5.282" y="1" width="2" height="9.344"/>
	<rect x="17.095" y="32.189" width="2" height="14.811"/>
	<rect x="17.095" y="1" width="2" height="21.467"/>
	<rect x="28.904" y="21.66" width="2" height="25.34"/>
	<rect x="28.904" y="1" width="2" height="10.858"/>
	<rect x="40.718" y="38.732" width="2" height="8.268"/>
	<rect x="40.718" y="1" width="2" height="27.363"/>
	<path d="M6.282,21.56C2.818,21.56,0,18.742,0,15.278s2.818-6.282,6.282-6.282s6.282,2.818,6.282,6.282S9.746,21.56,6.282,21.56z
		 M6.282,10.996C3.921,10.996,2,12.917,2,15.278c0,2.361,1.921,4.282,4.282,4.282c2.361,0,4.282-1.921,4.282-4.282
		C10.564,12.917,8.643,10.996,6.282,10.996z"/>
	<path d="M18.094,33.646c-3.464,0-6.283-2.818-6.283-6.283c0-3.464,2.818-6.283,6.283-6.283s6.283,2.819,6.283,6.283
		C24.377,30.828,21.558,33.646,18.094,33.646z M18.094,23.08c-2.361,0-4.283,1.922-4.283,4.283s1.921,4.283,4.283,4.283
		c2.362,0,4.283-1.922,4.283-4.283S20.456,23.08,18.094,23.08z"/>
	<path d="M29.906,23.079c-3.464,0-6.282-2.818-6.282-6.282s2.818-6.282,6.282-6.282s6.281,2.818,6.281,6.282
		S33.37,23.079,29.906,23.079z M29.906,12.515c-2.361,0-4.282,1.921-4.282,4.282c0,2.361,1.921,4.282,4.282,4.282
		c2.36,0,4.281-1.921,4.281-4.282C34.188,14.436,32.267,12.515,29.906,12.515z"/>
	<path d="M41.717,40.291c-3.465,0-6.283-2.818-6.283-6.283s2.818-6.283,6.283-6.283S48,30.543,48,34.008
		S45.182,40.291,41.717,40.291z M41.717,29.725c-2.361,0-4.283,1.922-4.283,4.283s1.922,4.283,4.283,4.283S46,36.369,46,34.008
		S44.078,29.725,41.717,29.725z"/>
</g>
</svg>
