<?xml version="1.0" encoding="utf-8"?>
<!-- Generator: Adobe Illustrator 16.0.0, SVG Export Plug-In . SVG Version: 6.00 Build 0)  -->
<!DOCTYPE svg PUBLIC "-//W3C//DTD SVG 1.1//EN" "http://www.w3.org/Graphics/SVG/1.1/DTD/svg11.dtd">
<svg version="1.1" id="Layer_1" xmlns="http://www.w3.org/2000/svg" xmlns:xlink="http://www.w3.org/1999/xlink" x="0px" y="0px"
	 width="48px" height="48px" viewBox="0 0 48 48" enable-background="new 0 0 48 48" xml:space="preserve">
<g>
	<path d="M28.904,48h-9.808c-0.552,0-1-0.447-1-1v-6.588H5.67c-0.41,0-0.778-0.25-0.929-0.631c-0.151-0.38-0.055-0.814,0.242-1.096
		l10.899-10.3H9.056c-0.386,0-0.737-0.222-0.903-0.569c-0.166-0.349-0.117-0.761,0.126-1.061l8.136-10.044h-4.789
		c-0.389,0-0.742-0.226-0.907-0.578c-0.164-0.353-0.109-0.768,0.142-1.065L23.235,0.356c0.379-0.452,1.149-0.453,1.531,0
		l12.376,14.712c0.25,0.297,0.305,0.713,0.141,1.065s-0.518,0.578-0.906,0.578h-4.791l8.138,10.044
		c0.242,0.3,0.291,0.712,0.125,1.061c-0.166,0.348-0.517,0.569-0.902,0.569h-6.827l10.898,10.3c0.298,0.281,0.395,0.716,0.243,1.096
		c-0.152,0.381-0.521,0.631-0.93,0.631H29.904V47C29.904,47.553,29.457,48,28.904,48z M20.096,46h7.808v-6.588c0-0.553,0.447-1,1-1
		h10.911l-10.898-10.3c-0.298-0.281-0.395-0.716-0.242-1.096c0.151-0.381,0.52-0.631,0.929-0.631h7.245l-8.138-10.044
		c-0.242-0.299-0.291-0.712-0.125-1.06c0.166-0.348,0.517-0.569,0.902-0.569h4.739L24,2.554L13.774,14.712h4.738
		c0.386,0,0.737,0.222,0.903,0.569c0.166,0.348,0.117,0.761-0.126,1.06l-8.136,10.044h7.243c0.41,0,0.778,0.25,0.929,0.631
		c0.151,0.38,0.055,0.814-0.242,1.096l-10.899,10.3h10.912c0.552,0,1,0.447,1,1V46z"/>
</g>
</svg>
