<?xml version="1.0" encoding="utf-8"?>
<!-- Generator: Adobe Illustrator 16.0.0, SVG Export Plug-In . SVG Version: 6.00 Build 0)  -->
<!DOCTYPE svg PUBLIC "-//W3C//DTD SVG 1.1//EN" "http://www.w3.org/Graphics/SVG/1.1/DTD/svg11.dtd">
<svg version="1.1" id="Layer_1" xmlns="http://www.w3.org/2000/svg" xmlns:xlink="http://www.w3.org/1999/xlink" x="0px" y="0px"
	 width="48px" height="48px" viewBox="0 0 48 48" enable-background="new 0 0 48 48" xml:space="preserve">
<g>
	<path d="M11.648,42.104C5.225,42.104,0,36.879,0,30.456s5.225-11.648,11.648-11.648s11.648,5.225,11.648,11.648
		S18.071,42.104,11.648,42.104z M11.648,20.808C6.328,20.808,2,25.136,2,30.456c0,5.319,4.328,9.647,9.648,9.647
		s9.648-4.328,9.648-9.647C21.296,25.136,16.968,20.808,11.648,20.808z"/>
	<path d="M40.792,42.104c-3.975,0-7.208-3.233-7.208-7.207c0-3.975,3.233-7.209,7.208-7.209S48,30.922,48,34.896
		C48,38.87,44.767,42.104,40.792,42.104z M40.792,29.688c-2.872,0-5.208,2.337-5.208,5.209c0,2.871,2.336,5.207,5.208,5.207
		S46,37.768,46,34.896C46,32.024,43.664,29.688,40.792,29.688z"/>
	<path d="M11.648,34.869c-2.434,0-4.413-1.979-4.413-4.413s1.979-4.413,4.413-4.413s4.413,1.979,4.413,4.413
		S14.082,34.869,11.648,34.869z M11.648,28.043c-1.331,0-2.413,1.082-2.413,2.413s1.083,2.413,2.413,2.413s2.413-1.082,2.413-2.413
		S12.979,28.043,11.648,28.043z"/>
	<path d="M40.792,38.527c-2.002,0-3.631-1.629-3.631-3.631s1.629-3.631,3.631-3.631s3.631,1.629,3.631,3.631
		S42.794,38.527,40.792,38.527z M40.792,33.266c-0.899,0-1.631,0.731-1.631,1.631s0.731,1.631,1.631,1.631s1.631-0.731,1.631-1.631
		S41.691,33.266,40.792,33.266z"/>
	<path d="M33.561,31.456H22.296v-2h10.68c2.36-3.884,6.729-4.324,9.449-3.916l2.296-9.994H25.494l-5.984,7.573l-1.569-1.24
		l6.285-7.953c0.19-0.24,0.479-0.38,0.785-0.38h20.967c0.305,0,0.593,0.139,0.782,0.377s0.261,0.55,0.192,0.847l-2.795,12.168
		c-0.061,0.265-0.227,0.493-0.459,0.634c-0.233,0.139-0.515,0.178-0.774,0.108c-0.241-0.063-6.011-1.52-8.475,3.236
		C34.276,31.248,33.935,31.456,33.561,31.456z"/>
	<rect x="4.56" y="15.641" transform="matrix(0.3839 0.9234 -0.9234 0.3839 20.2885 2.8762)" width="6.857" height="2"/>
	<rect x="17.802" y="11.529" transform="matrix(0.7442 0.668 -0.668 0.7442 15.0201 -8.649)" width="2" height="7.512"/>
	<rect x="18.833" y="15.682" transform="matrix(0.7905 0.6125 -0.6125 0.7905 14.5003 -9.0271)" width="3.225" height="2"/>
	<rect x="34.123" y="6.898" width="2" height="7.236"/>
	<rect x="37.507" y="17.08" width="7.235" height="2"/>
	<rect x="37.174" y="19.794" width="7.236" height="2"/>
</g>
</svg>
