<?xml version="1.0" encoding="utf-8"?>
<!-- Generator: Adobe Illustrator 16.0.0, SVG Export Plug-In . SVG Version: 6.00 Build 0)  -->
<!DOCTYPE svg PUBLIC "-//W3C//DTD SVG 1.1//EN" "http://www.w3.org/Graphics/SVG/1.1/DTD/svg11.dtd">
<svg version="1.1" id="Layer_1" xmlns="http://www.w3.org/2000/svg" xmlns:xlink="http://www.w3.org/1999/xlink" x="0px" y="0px"
	 width="48px" height="48px" viewBox="0 0 48 48" enable-background="new 0 0 48 48" xml:space="preserve">
<g>
	<g>
		<path d="M15.08,18.289H9.084c-3.957,0-7.176-2.94-7.176-6.553s3.219-6.553,7.176-6.553h5.996c3.957,0,7.176,2.939,7.176,6.553
			S19.037,18.289,15.08,18.289z M9.084,7.183c-2.854,0-5.176,2.042-5.176,4.553c0,2.511,2.322,4.553,5.176,4.553h5.996
			c2.854,0,5.176-2.042,5.176-4.553c0-2.51-2.322-4.553-5.176-4.553H9.084z"/>
		<path d="M39.049,18.289h-5.994c-3.957,0-7.177-2.94-7.177-6.553s3.22-6.553,7.177-6.553h5.994c3.957,0,7.176,2.939,7.176,6.553
			S43.006,18.289,39.049,18.289z M33.055,7.183c-2.854,0-5.177,2.042-5.177,4.553c0,2.511,2.322,4.553,5.177,4.553h5.994
			c2.854,0,5.176-2.042,5.176-4.553c0-2.51-2.322-4.553-5.176-4.553H33.055z"/>
		<rect x="21.259" y="8.56" width="5.966" height="2"/>
		<g>
			<rect y="8.56" width="3.525" height="2"/>
			<rect x="44.475" y="8.56" width="3.525" height="2"/>
		</g>
	</g>
	<path d="M32.993,42.816c-1.77,0-5.977-0.313-8.993-3.027c-3.018,2.715-7.224,3.027-8.993,3.027c-0.581,0-0.927-0.032-0.927-0.032
		l-0.038,0.004c-6.083,0-9.427-3.021-11.161-5.557c-2.036-2.976-2.573-6.271-2.573-7.598c0-1.404,0.707-1.614,1.128-1.614
		c0.371,0,0.871,0.177,1.14,1.016c0.03,0.088,0.066,0.192,0.107,0.295c0.338,0.837,1.456,2.784,4.538,2.784
		c1.659-0.001,3.621-0.554,5.831-1.645c1.868-0.923,3.674-1.391,5.367-1.391c2.606,0,4.454,1.097,5.581,2.071
		c1.126-0.976,2.973-2.072,5.58-2.072c1.693,0,3.5,0.468,5.369,1.392c2.211,1.091,4.173,1.645,5.83,1.645
		c3.082,0,4.2-1.947,4.537-2.784c0.038-0.096,0.076-0.2,0.109-0.301c0.268-0.833,0.768-1.01,1.139-1.01h0.577l0.342,0.542
		c0.529,0.916,0,4.659-1.787,7.755c-1.705,2.952-5.125,6.472-11.736,6.472c0,0,0,0-0.001,0h-0.119
		C33.83,42.792,33.502,42.816,32.993,42.816z M24,36.864l0.748,0.845c3.164,3.569,8.892,3.092,8.993,3.083l0.217-0.004h0.001
		c3.784,0,6.775-1.3,8.892-3.863c1.117-1.354,1.819-2.845,2.246-4.146c-2.53,1.877-6.431,1.757-11.033-0.516
		c-1.592-0.786-3.101-1.185-4.484-1.185c-2.521,0-4.114,1.34-4.839,2.138L24,34.031l-0.741-0.814
		c-0.725-0.799-2.319-2.138-4.841-2.138c-1.383,0-2.891,0.397-4.482,1.184c-4.602,2.271-8.504,2.392-11.033,0.519
		c0.428,1.301,1.13,2.792,2.247,4.145c2.116,2.563,5.107,3.862,8.891,3.862h0.121c0.118,0.006,0.394,0.028,0.844,0.028
		c1.65,0,5.758-0.303,8.245-3.107L24,36.864z"/>
</g>
</svg>
