<?xml version="1.0" encoding="utf-8"?>
<!-- Generator: Adobe Illustrator 16.0.0, SVG Export Plug-In . SVG Version: 6.00 Build 0)  -->
<!DOCTYPE svg PUBLIC "-//W3C//DTD SVG 1.1//EN" "http://www.w3.org/Graphics/SVG/1.1/DTD/svg11.dtd">
<svg version="1.1" id="Layer_1" xmlns="http://www.w3.org/2000/svg" xmlns:xlink="http://www.w3.org/1999/xlink" x="0px" y="0px"
	 width="48px" height="48px" viewBox="0 0 48 48" enable-background="new 0 0 48 48" xml:space="preserve">
<g>
	<path d="M18.736,47.687c-0.275,0-0.551-0.007-0.824-0.013c-0.253-0.006-0.505-0.012-0.751-0.012
		c-2.066-0.002-7.155-0.263-9.781-2.653c-1.888-1.721-3.743-3.673-3.896-6.937c-0.157-3.348,1.045-5.036,3.174-6.821
		c0.981-0.822,2.03-1.521,3.045-2.195c0.833-0.555,1.695-1.128,2.489-1.753c1.627-1.286,2.534-3.282,3.323-5.216
		c0.638-1.57,1.432-3.525,3.507-4.742c1.696-0.992,3.575-1.483,5.436-1.406c3.781,0.152,8.057,2.737,8.76,6.813
		c0.167,0.365,0.749,1.583,1.484,2.529c0.786,1.018,1.601,1.7,2.812,2.357c0.36,0.196,0.721,0.366,1.078,0.535
		c0.725,0.342,1.474,0.695,2.199,1.236c1.326,0.981,1.836,1.857,2.463,3.081c1.528,2.981,2.275,7.667,0.747,10.852
		c-0.886,1.844-2.446,3.042-4.515,3.465c-1.003,0.205-2.316,0.439-3.587,0.439l0,0c-0.344,0-0.681-0.018-1.006-0.056
		c-0.959-0.11-1.797-0.396-2.608-0.671c-0.564-0.192-1.098-0.374-1.658-0.494l-0.369-0.079c-2.189-0.475-4.262-0.799-5.965-0.148
		c-0.426,0.164-0.843,0.408-1.286,0.666c-0.684,0.399-1.39,0.812-2.268,1.026C20.021,47.664,19.291,47.687,18.736,47.687z
		 M24.083,17.931c-1.375,0-2.776,0.395-4.051,1.14c-1.384,0.812-1.954,2.02-2.666,3.77c-0.89,2.182-1.927,4.444-3.936,6.031
		c-0.858,0.677-1.754,1.272-2.62,1.849c-1.014,0.675-1.972,1.313-2.868,2.063c-1.995,1.672-2.57,2.886-2.461,5.194
		c0.106,2.267,1.27,3.752,3.245,5.552c2.169,1.974,7.005,2.131,8.435,2.132c0.261,0,0.528,0.006,0.797,0.013
		c0.258,0.006,0.519,0.012,0.778,0.012c0.445,0,1.021-0.016,1.53-0.139c0.592-0.146,1.146-0.468,1.731-0.811
		c0.491-0.286,1-0.583,1.578-0.806c0.932-0.356,1.905-0.529,2.978-0.529c1.402,0,2.788,0.3,4.128,0.59l0.364,0.079
		c0.675,0.144,1.289,0.354,1.884,0.556c0.744,0.253,1.446,0.492,2.195,0.578c1.293,0.15,2.831-0.126,3.961-0.356
		c1.473-0.302,2.49-1.077,3.111-2.372c1.234-2.569,0.549-6.593-0.723-9.073c-0.586-1.144-0.92-1.68-1.876-2.388
		c-0.567-0.423-1.195-0.72-1.86-1.034c-0.392-0.185-0.786-0.371-1.18-0.586c-1.454-0.789-2.482-1.653-3.438-2.89
		c-1.027-1.323-1.757-2.997-1.787-3.067c-0.034-0.079-0.058-0.162-0.071-0.248c-0.467-3.093-3.938-5.135-6.886-5.254
		C24.278,17.933,24.18,17.931,24.083,17.931z"/>
	<path d="M7.521,27.893L7.521,27.893c-3.061,0-5.973-2.649-7.083-6.443c-1.294-4.434,0.41-8.848,3.8-9.84
		c0.46-0.134,0.938-0.203,1.421-0.203c3.06,0,5.972,2.65,7.082,6.445c1.295,4.434-0.41,8.847-3.801,9.838
		C8.481,27.824,8.003,27.893,7.521,27.893z M5.66,13.407c-0.292,0-0.582,0.041-0.859,0.123c-2.332,0.682-3.428,3.983-2.442,7.359
		c0.848,2.899,3.019,5.004,5.162,5.004c0,0,0,0,0,0c0.292,0,0.581-0.041,0.858-0.122c2.333-0.682,3.429-3.982,2.442-7.357
		C9.974,15.513,7.803,13.407,5.66,13.407z"/>
	<path d="M17.495,17.053c-3.686,0-6.697-3.583-6.855-8.154c-0.088-2.554,0.745-4.961,2.285-6.605
		c1.149-1.227,2.631-1.929,4.171-1.977l0.172-0.002c3.685,0,6.697,3.583,6.856,8.156c0.089,2.55-0.743,4.957-2.283,6.601
		c-1.15,1.228-2.632,1.931-4.173,1.978L17.495,17.053z M17.267,2.315l-0.11,0.001c-1.019,0.032-1.978,0.497-2.772,1.345
		c-1.179,1.259-1.815,3.143-1.746,5.169c0.119,3.431,2.297,6.223,4.856,6.223l0.111-0.002c1.02-0.031,1.979-0.497,2.775-1.346
		c1.179-1.259,1.814-3.142,1.744-5.165C22.005,5.108,19.826,2.315,17.267,2.315z"/>
	<path d="M30.384,16.846L30.384,16.846c-0.757,0-1.489-0.146-2.176-0.435c-3.43-1.446-4.772-6.084-2.994-10.339
		c1.383-3.319,4.303-5.549,7.264-5.549c0.758,0,1.49,0.146,2.178,0.436c3.426,1.442,4.769,6.081,2.994,10.34
		C36.265,14.616,33.345,16.846,30.384,16.846z M32.478,2.522c-2.13,0-4.358,1.776-5.418,4.319c-1.354,3.242-0.491,6.708,1.925,7.726
		c0.438,0.184,0.91,0.278,1.399,0.278c2.13,0,4.358-1.775,5.42-4.318c1.352-3.244,0.488-6.71-1.924-7.726
		C33.439,2.616,32.968,2.522,32.478,2.522z"/>
	<path d="M39.946,27.813L39.946,27.813c-0.759,0-1.492-0.146-2.18-0.436c-3.425-1.441-4.767-6.08-2.991-10.339
		c1.382-3.319,4.3-5.548,7.261-5.548c0.759,0,1.492,0.147,2.181,0.437c3.425,1.441,4.769,6.08,2.993,10.339
		C45.827,25.584,42.908,27.813,39.946,27.813z M42.036,13.49c-2.129,0-4.356,1.775-5.415,4.317
		c-1.353,3.246-0.491,6.711,1.921,7.726c0.44,0.186,0.913,0.279,1.403,0.279c2.131,0,4.359-1.775,5.419-4.316
		c1.352-3.245,0.489-6.71-1.924-7.726C42.999,13.584,42.527,13.49,42.036,13.49z"/>
</g>
</svg>
