<?xml version="1.0" encoding="utf-8"?>
<!-- Generator: Adobe Illustrator 16.0.0, SVG Export Plug-In . SVG Version: 6.00 Build 0)  -->
<!DOCTYPE svg PUBLIC "-//W3C//DTD SVG 1.1//EN" "http://www.w3.org/Graphics/SVG/1.1/DTD/svg11.dtd">
<svg version="1.1" id="Layer_1" xmlns="http://www.w3.org/2000/svg" xmlns:xlink="http://www.w3.org/1999/xlink" x="0px" y="0px"
	 width="48px" height="48px" viewBox="0 0 48 48" enable-background="new 0 0 48 48" xml:space="preserve">
<g>
	<g>
		<path d="M41,39.102H7c-2.979,0-3.96-1.049-4.258-1.929s-0.156-2.309,2.211-4.118l12.878-9.847
			c1.653-1.263,3.844-1.959,6.168-1.959c2.325,0,4.516,0.696,6.168,1.959l12.879,9.848c2.366,1.809,2.509,3.237,2.211,4.117
			S43.979,39.102,41,39.102z M24,23.249c-1.888,0-3.647,0.55-4.954,1.548L6.168,34.644c-1.432,1.095-1.572,1.768-1.532,1.888
			c0.041,0.121,0.561,0.57,2.363,0.57h34c1.802,0,2.322-0.449,2.363-0.57c0.041-0.12-0.1-0.793-1.531-1.887l-12.879-9.849
			C27.647,23.798,25.889,23.249,24,23.249z"/>
	</g>
	<path d="M25,21.007h-2v-4.486c0-0.552,0.448-1,1-1c1.274,0,2.311-1.037,2.311-2.311S25.274,10.899,24,10.899
		s-2.311,1.037-2.311,2.311h-2c0-2.377,1.934-4.311,4.311-4.311s4.311,1.934,4.311,4.311c0,2.033-1.414,3.742-3.311,4.194V21.007z"
		/>
</g>
</svg>
