<?xml version="1.0" encoding="utf-8"?>
<!-- Generator: Adobe Illustrator 16.0.0, SVG Export Plug-In . SVG Version: 6.00 Build 0)  -->
<!DOCTYPE svg PUBLIC "-//W3C//DTD SVG 1.1//EN" "http://www.w3.org/Graphics/SVG/1.1/DTD/svg11.dtd">
<svg version="1.1" id="Layer_1" xmlns="http://www.w3.org/2000/svg" xmlns:xlink="http://www.w3.org/1999/xlink" x="0px" y="0px"
	 width="48px" height="48px" viewBox="0 0 48 48" enable-background="new 0 0 48 48" xml:space="preserve">
<g>
	<path d="M39.129,42.691C39.128,42.691,39.129,42.691,39.129,42.691c-0.941,0-1.854-0.202-2.713-0.601
		c-2.918-1.356-4.346-4.631-3.484-7.631L11.81,24.654c-1.186,1.765-3.197,2.862-5.362,2.862c-0.942,0-1.855-0.202-2.714-0.602
		c-3.224-1.5-4.629-5.343-3.134-8.568c0.611-1.316,1.629-2.365,2.892-3.014c-1.229-1.839-1.442-4.211-0.478-6.288
		c1.054-2.27,3.354-3.737,5.858-3.737c0.94,0,1.853,0.202,2.711,0.6c2.918,1.357,4.346,4.631,3.484,7.631l21.121,9.805
		c1.186-1.764,3.197-2.861,5.362-2.861c0.941,0,1.854,0.203,2.714,0.601c3.226,1.498,4.632,5.341,3.135,8.567
		c-0.611,1.317-1.629,2.366-2.892,3.015c1.229,1.841,1.443,4.214,0.478,6.291C43.931,41.226,41.632,42.691,39.129,42.691z
		 M11.395,22.359c0.144,0,0.288,0.031,0.421,0.093L34.61,33.034c0.501,0.232,0.719,0.827,0.486,1.328
		c-1.034,2.227-0.064,4.88,2.162,5.914c0.593,0.275,1.222,0.415,1.87,0.415c1.728,0,3.314-1.012,4.042-2.577
		c0.819-1.762,0.409-3.83-1.02-5.148c-0.271-0.25-0.383-0.629-0.29-0.986c0.092-0.356,0.373-0.634,0.731-0.721
		c1.329-0.323,2.42-1.216,2.992-2.449c1.033-2.227,0.063-4.878-2.162-5.911c-0.594-0.276-1.224-0.416-1.872-0.416
		c-1.728,0-3.313,1.012-4.04,2.577c-0.233,0.501-0.828,0.721-1.328,0.486L13.388,14.964c-0.241-0.112-0.427-0.314-0.518-0.564
		c-0.091-0.249-0.08-0.524,0.032-0.765c1.034-2.226,0.065-4.879-2.161-5.914C10.149,7.448,9.52,7.308,8.872,7.308
		c-1.729,0-3.317,1.012-4.044,2.579c-0.818,1.762-0.408,3.83,1.021,5.146c0.271,0.25,0.383,0.628,0.291,0.985
		s-0.373,0.634-0.731,0.722c-1.331,0.324-2.422,1.217-2.994,2.449c-1.032,2.226-0.062,4.877,2.163,5.912
		c0.593,0.276,1.223,0.416,1.871,0.416c1.728,0,3.313-1.012,4.04-2.579c0.112-0.241,0.314-0.427,0.563-0.518
		C11.163,22.379,11.279,22.359,11.395,22.359z"/>
</g>
</svg>
