<?xml version="1.0" encoding="utf-8"?>
<!-- Generator: Adobe Illustrator 16.0.0, SVG Export Plug-In . SVG Version: 6.00 Build 0)  -->
<!DOCTYPE svg PUBLIC "-//W3C//DTD SVG 1.1//EN" "http://www.w3.org/Graphics/SVG/1.1/DTD/svg11.dtd">
<svg version="1.1" id="Layer_1" xmlns="http://www.w3.org/2000/svg" xmlns:xlink="http://www.w3.org/1999/xlink" x="0px" y="0px"
	 width="48px" height="48px" viewBox="0 0 48 48" enable-background="new 0 0 48 48" xml:space="preserve">
<g>
	<path d="M25.044,48h-2.089C12.739,48,4.428,39.688,4.428,29.473V18.527C4.428,8.311,12.739,0,22.955,0h2.089
		C35.26,0,43.57,8.311,43.57,18.527v10.946C43.57,39.688,35.26,48,25.044,48z M22.955,2C13.842,2,6.428,9.414,6.428,18.527v10.946
		C6.428,38.586,13.842,46,22.955,46h2.089c9.112,0,16.526-7.414,16.526-16.527V18.527C41.57,9.414,34.156,2,25.044,2H22.955z"/>
	<g>
		<path d="M15.982,26.107c-3.264,0-5.92-2.545-5.92-5.674s2.656-5.674,5.92-5.674s5.92,2.545,5.92,5.674
			S19.246,26.107,15.982,26.107z M15.982,16.759c-2.162,0-3.92,1.648-3.92,3.674s1.758,3.674,3.92,3.674s3.92-1.648,3.92-3.674
			S18.144,16.759,15.982,16.759z"/>
		<path d="M32.018,26.107c-3.265,0-5.92-2.545-5.92-5.674s2.655-5.674,5.92-5.674s5.92,2.545,5.92,5.674
			S35.282,26.107,32.018,26.107z M32.018,16.759c-2.161,0-3.92,1.648-3.92,3.674s1.759,3.674,3.92,3.674s3.92-1.648,3.92-3.674
			S34.179,16.759,32.018,16.759z"/>
	</g>
	<path d="M30.16,34.438H17.841c-0.552,0-1-0.447-1-1v-3.08c0-0.553,0.448-1,1-1H30.16c0.553,0,1,0.447,1,1v3.08
		C31.16,33.99,30.713,34.438,30.16,34.438z M18.841,32.438H29.16v-1.08H18.841V32.438z"/>
	<path d="M30.16,12.409H17.841c-0.552,0-1-0.448-1-1V8.328c0-0.552,0.448-1,1-1H30.16c0.553,0,1,0.448,1,1v3.081
		C31.16,11.961,30.713,12.409,30.16,12.409z M18.841,10.409H29.16V9.328H18.841V10.409z"/>
	<path d="M30.16,41.295H17.841c-0.552,0-1-0.447-1-1v-3.078c0-0.553,0.448-1,1-1H30.16c0.553,0,1,0.447,1,1v3.078
		C31.16,40.848,30.713,41.295,30.16,41.295z M18.841,39.295H29.16v-1.078H18.841V39.295z"/>
</g>
</svg>
