<?xml version="1.0" encoding="utf-8"?>
<!-- Generator: Adobe Illustrator 16.0.0, SVG Export Plug-In . SVG Version: 6.00 Build 0)  -->
<!DOCTYPE svg PUBLIC "-//W3C//DTD SVG 1.1//EN" "http://www.w3.org/Graphics/SVG/1.1/DTD/svg11.dtd">
<svg version="1.1" id="Layer_1" xmlns="http://www.w3.org/2000/svg" xmlns:xlink="http://www.w3.org/1999/xlink" x="0px" y="0px"
	 width="48px" height="48px" viewBox="0 0 48 48" enable-background="new 0 0 48 48" xml:space="preserve">
<g>
	<path d="M20.816,48H7.303c-3.733,0-6.771-3.038-6.771-6.771v-2.438c0-0.553,0.448-1,1-1h44.936c0.424,0,0.802,0.267,0.942,0.666
		c0.142,0.399,0.016,0.845-0.313,1.111C46.672,39.913,36.499,48,20.816,48z M2.532,39.791v1.438c0,2.631,2.14,4.771,4.771,4.771
		h13.513c10.462,0,18.466-3.855,22.377-6.209H2.532z"/>
	<path d="M22.223,38.791h-2v-4.85L3.646,34.188c-0.498-0.006-0.873-0.308-0.985-0.76c-0.112-0.451,0.103-0.921,0.517-1.132
		C17.375,25.073,20.202,1.13,20.229,0.889c0.059-0.527,0.531-0.909,1.049-0.888c0.53,0.03,0.944,0.468,0.944,0.999V38.791z
		 M20.223,10.691c-2.002,7.003-5.853,16.156-13.001,21.443l13.001-0.192V10.691z"/>
	<path d="M32.141,33.229H21.223v-2h8.756c-5.462-7.806-9.553-29.063-9.739-30.042l1.965-0.374
		c0.048,0.255,4.908,25.521,10.606,30.674c0.307,0.277,0.411,0.715,0.263,1.101C32.925,32.974,32.555,33.229,32.141,33.229z"/>
</g>
</svg>
