<?xml version="1.0" encoding="utf-8"?>
<!-- Generator: Adobe Illustrator 16.0.0, SVG Export Plug-In . SVG Version: 6.00 Build 0)  -->
<!DOCTYPE svg PUBLIC "-//W3C//DTD SVG 1.1//EN" "http://www.w3.org/Graphics/SVG/1.1/DTD/svg11.dtd">
<svg version="1.1" id="Layer_1" xmlns="http://www.w3.org/2000/svg" xmlns:xlink="http://www.w3.org/1999/xlink" x="0px" y="0px"
	 width="48px" height="48px" viewBox="0 0 48 48" enable-background="new 0 0 48 48" xml:space="preserve">
<g>
	<g>
		<path d="M33.625,48H6.016C2.699,48,0,44.359,0,39.884v-3.84h48.773l-0.918,1.518C47.598,37.987,41.454,48,33.625,48z M2,38.044
			v1.84C2,43.199,3.839,46,6.016,46h27.609c5.037,0,9.53-5.279,11.485-7.956H2z"/>
		<rect x="21.178" y="31.218" width="2" height="5.798"/>
		<rect x="21.178" y="1" width="2" height="3.448"/>
		<g>
			<rect x="8.047" y="3.244" width="25.18" height="2"/>
			<rect x="11.044" y="30.607" width="25.351" height="2"/>
			<path d="M10.695,32.119c-3.189-7.011-1.669-9.807-0.328-12.274c0.826-1.519,1.539-2.831,1.309-5.172
				C11.05,8.296,7.733,4.824,7.7,4.79l1.433-1.396c0.157,0.161,3.84,4.017,4.534,11.083c0.29,2.953-0.683,4.743-1.542,6.323
				c-1.28,2.354-2.385,4.387,0.391,10.49L10.695,32.119z"/>
			<path d="M16.771,32.119c-3.189-7.011-1.669-9.807-0.328-12.274c0.826-1.519,1.539-2.831,1.309-5.172
				c-0.622-6.333-3.944-9.851-3.978-9.886l1.436-1.393c0.156,0.161,3.838,4.016,4.532,11.083c0.29,2.953-0.683,4.743-1.542,6.323
				c-1.28,2.354-2.385,4.387,0.391,10.491L16.771,32.119z"/>
			<path d="M22.847,32.119c-3.189-7.011-1.669-9.807-0.328-12.273c0.826-1.519,1.539-2.831,1.309-5.172
				c-0.622-6.333-3.943-9.851-3.977-9.886l1.436-1.393c0.156,0.161,3.838,4.016,4.532,11.083c0.291,2.953-0.683,4.744-1.542,6.323
				c-1.28,2.354-2.385,4.387,0.391,10.49L22.847,32.119z"/>
			<path d="M28.923,32.119c-3.189-7.012-1.669-9.808-0.327-12.274c0.825-1.519,1.539-2.831,1.31-5.172
				c-0.624-6.333-3.946-9.851-3.979-9.886l1.436-1.393c0.156,0.161,3.838,4.016,4.534,11.083c0.289,2.953-0.684,4.744-1.543,6.323
				c-1.28,2.354-2.386,4.387,0.391,10.491L28.923,32.119z"/>
			<path d="M34.999,32.119c-3.189-7.011-1.669-9.807-0.328-12.274c0.825-1.519,1.539-2.831,1.309-5.172
				c-0.622-6.333-3.944-9.851-3.978-9.886l1.436-1.393c0.156,0.161,3.838,4.016,4.532,11.083c0.29,2.953-0.683,4.743-1.542,6.323
				c-1.279,2.354-2.385,4.387,0.392,10.491L34.999,32.119z"/>
		</g>
	</g>
	<path d="M5.321,35.645c-2.004,0-3.634-1.63-3.634-3.634s1.63-3.634,3.634-3.634s3.634,1.63,3.634,3.634S7.325,35.645,5.321,35.645z
		 M5.321,30.377c-0.901,0-1.634,0.733-1.634,1.634s0.733,1.634,1.634,1.634c0.901,0,1.634-0.733,1.634-1.634
		S6.222,30.377,5.321,30.377z"/>
	<path d="M42.293,35.645c-2.004,0-3.634-1.63-3.634-3.634s1.63-3.634,3.634-3.634s3.634,1.63,3.634,3.634
		S44.297,35.645,42.293,35.645z M42.293,30.377c-0.9,0-1.634,0.733-1.634,1.634s0.733,1.634,1.634,1.634s1.634-0.733,1.634-1.634
		S43.193,30.377,42.293,30.377z"/>
</g>
</svg>
