<?xml version="1.0" encoding="utf-8"?>
<!-- Generator: Adobe Illustrator 16.0.0, SVG Export Plug-In . SVG Version: 6.00 Build 0)  -->
<!DOCTYPE svg PUBLIC "-//W3C//DTD SVG 1.1//EN" "http://www.w3.org/Graphics/SVG/1.1/DTD/svg11.dtd">
<svg version="1.1" id="Layer_1" xmlns="http://www.w3.org/2000/svg" xmlns:xlink="http://www.w3.org/1999/xlink" x="0px" y="0px"
	 width="48px" height="48px" viewBox="0 0 48 48" enable-background="new 0 0 48 48" xml:space="preserve">
<g>
	<path d="M47,48H4.547c-0.552,0-1-0.447-1-1V1c0-0.552,0.448-1,1-1H47c0.553,0,1,0.448,1,1v46C48,47.553,47.553,48,47,48z M5.547,46
		H46V2H5.547V46z"/>
	<rect y="6.965" width="2" height="40.035"/>
	<path d="M42.135,13.026H9.414c-0.552,0-1-0.448-1-1V4.771c0-0.552,0.448-1,1-1h32.721c0.553,0,1,0.448,1,1v7.255
		C43.135,12.578,42.688,13.026,42.135,13.026z M10.414,11.026h30.721V5.771H10.414V11.026z"/>
	<rect x="33.605" y="14.849" width="8.529" height="2"/>
	<rect x="21.51" y="14.849" width="8.528" height="2"/>
	<rect x="9.414" y="14.849" width="8.527" height="2"/>
	<rect x="33.605" y="18.22" width="8.529" height="2"/>
	<rect x="21.51" y="18.22" width="8.528" height="2"/>
	<rect x="9.414" y="18.22" width="8.527" height="2"/>
	<rect x="33.605" y="21.591" width="8.529" height="2"/>
	<rect x="9.414" y="21.591" width="8.527" height="2"/>
	<rect x="33.605" y="24.964" width="8.529" height="2"/>
	<rect x="9.414" y="24.964" width="8.527" height="2"/>
	<rect x="33.605" y="28.333" width="8.529" height="2"/>
	<rect x="9.414" y="28.333" width="8.527" height="2"/>
	<rect x="33.605" y="31.705" width="8.529" height="2"/>
	<rect x="9.414" y="31.705" width="8.527" height="2"/>
	<rect x="33.605" y="35.076" width="8.529" height="2"/>
	<rect x="21.51" y="35.076" width="8.528" height="2"/>
	<rect x="9.414" y="35.076" width="8.527" height="2"/>
	<rect x="33.605" y="38.447" width="8.529" height="2"/>
	<rect x="21.51" y="38.447" width="8.528" height="2"/>
	<rect x="9.414" y="38.447" width="8.527" height="2"/>
	<rect x="33.605" y="41.818" width="8.529" height="2"/>
	<rect x="21.51" y="41.818" width="8.528" height="2"/>
	<rect x="9.414" y="41.818" width="8.527" height="2"/>
	<path d="M30.038,34.268H21.51c-0.552,0-1-0.447-1-1V22.591c0-0.552,0.448-1,1-1h8.528c0.553,0,1,0.448,1,1v10.677
		C31.038,33.82,30.591,34.268,30.038,34.268z M22.51,32.268h6.528v-8.677H22.51V32.268z"/>
</g>
</svg>
