<?xml version="1.0" encoding="utf-8"?>
<!-- Generator: Adobe Illustrator 16.0.0, SVG Export Plug-In . SVG Version: 6.00 Build 0)  -->
<!DOCTYPE svg PUBLIC "-//W3C//DTD SVG 1.1//EN" "http://www.w3.org/Graphics/SVG/1.1/DTD/svg11.dtd">
<svg version="1.1" id="Layer_1" xmlns="http://www.w3.org/2000/svg" xmlns:xlink="http://www.w3.org/1999/xlink" x="0px" y="0px"
	 width="48px" height="48px" viewBox="0 0 48 48" enable-background="new 0 0 48 48" xml:space="preserve">
<g>
	<path d="M38.619,42.027c-5.075,0-9.753-3.63-12.208-9.473c-1.07-2.546-1.004-4.935,0.187-6.727
		c1.553-2.336,4.765-3.521,9.547-3.521C44.122,22.307,48,25.017,48,30.59C48,35.879,43.902,42.027,38.619,42.027z M36.145,24.307
		c-4.014,0-6.738,0.909-7.881,2.627c-1.035,1.559-0.576,3.495-0.009,4.845c2.138,5.088,6.109,8.248,10.364,8.248
		c4.089,0,7.381-5.163,7.381-9.438C46,27.665,44.88,24.307,36.145,24.307z"/>
	<path d="M9.383,42.027C4.099,42.027,0,35.879,0,30.59c0-5.573,3.878-8.283,11.856-8.283c4.784,0,7.997,1.185,9.549,3.522
		c1.19,1.792,1.256,4.181,0.186,6.726C19.133,38.397,14.455,42.027,9.383,42.027z M11.856,24.307C3.12,24.307,2,27.665,2,30.59
		c0,4.274,3.293,9.438,7.383,9.438c4.253,0,8.224-3.16,10.364-8.248c0.568-1.35,1.027-3.285-0.008-4.844
		C18.597,25.216,15.871,24.307,11.856,24.307z"/>
	<path d="M2.513,27.871l-1.949-0.449L5.125,7.598c0.034-0.146,0.1-0.284,0.194-0.401c0.084-0.105,2.104-2.538,6.332-0.255
		L10.7,8.702C8.515,7.52,7.381,8.067,7.006,8.343L2.513,27.871z"/>
	<path d="M45.488,27.871L40.993,8.338c-0.357-0.263-1.494-0.826-3.693,0.364l-0.951-1.76c4.231-2.286,6.249,0.15,6.332,0.255
		c0.095,0.117,0.16,0.254,0.194,0.401l4.563,19.824L45.488,27.871z"/>
	<rect x="21.353" y="26.646" width="5.493" height="2"/>
</g>
</svg>
