<?xml version="1.0" encoding="utf-8"?>
<!-- Generator: Adobe Illustrator 16.0.0, SVG Export Plug-In . SVG Version: 6.00 Build 0)  -->
<!DOCTYPE svg PUBLIC "-//W3C//DTD SVG 1.1//EN" "http://www.w3.org/Graphics/SVG/1.1/DTD/svg11.dtd">
<svg version="1.1" id="Layer_1" xmlns="http://www.w3.org/2000/svg" xmlns:xlink="http://www.w3.org/1999/xlink" x="0px" y="0px"
	 width="48px" height="48px" viewBox="0 0 48 48" enable-background="new 0 0 48 48" xml:space="preserve">
<g>
	<path d="M6.998,30.842C3.139,30.842,0,27.492,0,23.375s3.139-7.467,6.998-7.467s6.998,3.35,6.998,7.467S10.857,30.842,6.998,30.842
		z M6.998,17.908C4.242,17.908,2,20.361,2,23.375c0,3.015,2.242,5.467,4.998,5.467s4.998-2.452,4.998-5.467
		C11.996,20.361,9.754,17.908,6.998,17.908z"/>
	<path d="M33.127,41.793H16.646c-0.426,0-0.806-0.271-0.945-0.674c-0.139-0.402-0.007-0.85,0.328-1.113l4.125-3.235
		c-4.891-1.745-8.159-5.956-8.159-10.79c0-5.637,4.514-10.417,10.64-11.435v-0.074c-1.349-0.789-2.189-2.225-2.189-3.823
		c0-2.449,1.992-4.442,4.441-4.442c2.449,0,4.442,1.993,4.442,4.442c0,1.599-0.84,3.035-2.189,3.823v0.025
		c4.292,0.625,8.007,3.169,9.797,6.72l9.972-0.924c0.467-0.044,0.912,0.25,1.05,0.705c0.138,0.455-0.063,0.943-0.48,1.17
		c-0.068,0.037-6.858,3.75-10.437,8.391c-0.393,0.817-0.906,1.609-1.53,2.355c-0.476,0.704-1.046,1.267-1.697,1.673
		c-1.202,0.976-2.595,1.739-4.1,2.257l4.031,3.162c0.336,0.264,0.467,0.711,0.328,1.113C33.933,41.522,33.554,41.793,33.127,41.793z
		 M19.541,39.793h10.692l-3.334-2.615c-0.31-0.243-0.447-0.644-0.354-1.025c0.094-0.381,0.402-0.673,0.788-0.745
		c1.971-0.367,3.792-1.201,5.266-2.411c0.037-0.03,0.077-0.058,0.118-0.083c0.438-0.264,0.827-0.651,1.159-1.153
		c0.021-0.032,0.045-0.063,0.069-0.092c0.553-0.655,1-1.347,1.331-2.056c0.03-0.064,0.067-0.126,0.11-0.183
		c2.085-2.74,5.119-5.126,7.496-6.755l-6.464,0.599c-0.442,0.041-0.846-0.206-1.015-0.607c-1.465-3.479-5.133-5.943-9.344-6.279
		c-0.521-0.042-0.921-0.476-0.921-0.997v-1.542c0-0.412,0.252-0.781,0.636-0.931c0.943-0.37,1.554-1.26,1.554-2.268
		c0-1.347-1.096-2.442-2.442-2.442c-1.346,0-2.441,1.095-2.441,2.442c0,1.008,0.61,1.898,1.554,2.268
		c0.383,0.15,0.635,0.52,0.635,0.931v1.572c0,0.513-0.388,0.942-0.897,0.995c-5.554,0.573-9.742,4.686-9.742,9.566
		c0,4.497,3.507,8.354,8.529,9.379c0.382,0.078,0.684,0.37,0.773,0.75c0.09,0.379-0.049,0.775-0.356,1.017L19.541,39.793z"/>
</g>
</svg>
