<?xml version="1.0" encoding="utf-8"?>
<!-- Generator: Adobe Illustrator 16.0.0, SVG Export Plug-In . SVG Version: 6.00 Build 0)  -->
<!DOCTYPE svg PUBLIC "-//W3C//DTD SVG 1.1//EN" "http://www.w3.org/Graphics/SVG/1.1/DTD/svg11.dtd">
<svg version="1.1" id="Layer_1" xmlns="http://www.w3.org/2000/svg" xmlns:xlink="http://www.w3.org/1999/xlink" x="0px" y="0px"
	 width="48px" height="48px" viewBox="0 0 48 48" enable-background="new 0 0 48 48" xml:space="preserve">
<g>
	<path d="M47,48H1c-0.552,0-1-0.447-1-1V14.138c0-0.552,0.448-1,1-1h46c0.553,0,1,0.448,1,1V47C48,47.553,47.553,48,47,48z M2,46h44
		V15.138H2V46z"/>
	<path d="M38.793,15.372l-1.98-0.278c0.068-0.484,0.103-0.979,0.103-1.473C36.915,7.213,31.121,2,24,2
		c-3.468,0-6.724,1.221-9.168,3.438c-2.417,2.192-3.747,5.098-3.747,8.183c0,0.452,0.03,0.912,0.088,1.367l-1.983,0.255
		c-0.069-0.539-0.104-1.084-0.104-1.622c0-3.656,1.563-7.088,4.403-9.665C16.301,1.405,20.034,0,24,0
		c8.225,0,14.915,6.11,14.915,13.621C38.915,14.207,38.874,14.796,38.793,15.372z"/>
	<g>
		<path d="M13.441,24.362c-1.955,0-3.546-1.485-3.546-3.31c0-1.825,1.591-3.31,3.546-3.31s3.546,1.485,3.546,3.31
			C16.987,22.877,15.396,24.362,13.441,24.362z M13.441,19.742c-0.853,0-1.546,0.587-1.546,1.31s0.693,1.31,1.546,1.31
			s1.546-0.588,1.546-1.31S14.293,19.742,13.441,19.742z"/>
		<path d="M34.708,24.362c-1.954,0-3.544-1.485-3.544-3.31c0-1.825,1.59-3.31,3.544-3.31s3.544,1.485,3.544,3.31
			C38.252,22.877,36.662,24.362,34.708,24.362z M34.708,19.742c-0.852,0-1.544,0.587-1.544,1.31s0.692,1.31,1.544,1.31
			s1.544-0.588,1.544-1.31S35.56,19.742,34.708,19.742z"/>
	</g>
</g>
</svg>
