<?xml version="1.0" encoding="utf-8"?>
<!-- Generator: Adobe Illustrator 16.0.0, SVG Export Plug-In . SVG Version: 6.00 Build 0)  -->
<!DOCTYPE svg PUBLIC "-//W3C//DTD SVG 1.1//EN" "http://www.w3.org/Graphics/SVG/1.1/DTD/svg11.dtd">
<svg version="1.1" id="Layer_1" xmlns="http://www.w3.org/2000/svg" xmlns:xlink="http://www.w3.org/1999/xlink" x="0px" y="0px"
	 width="48px" height="48px" viewBox="0 0 48 48" enable-background="new 0 0 48 48" xml:space="preserve">
<g>
	<path d="M36.27,43.854H24.691c-0.552,0-1-0.447-1-1v-2.249c-6.146-2.681-10.228-8.865-10.228-15.603c0-0.552,0.448-1,1-1h32.034
		c0.553,0,1,0.448,1,1c0,6.847-3.991,12.898-10.229,15.604v2.248C37.27,43.406,36.822,43.854,36.27,43.854z M25.691,41.854h9.578
		v-1.918c0-0.413,0.254-0.783,0.639-0.933c5.513-2.138,9.18-7.174,9.558-13.001H15.498c0.392,5.752,4.132,10.897,9.555,13.001
		c0.385,0.149,0.639,0.52,0.639,0.933V41.854z"/>
	<rect x="1.723" y="9.602" transform="matrix(0.9635 0.2678 -0.2678 0.9635 3.6464 -5.5296)" width="40.741" height="2"/>
	<rect x="0.496" y="18.291" transform="matrix(0.9998 0.0197 -0.0197 0.9998 0.3842 -0.4079)" width="40.783" height="2"/>
	<path d="M24.24,23.54h-2V12.121c0-1.719,1.396-3.117,3.111-3.117h0.211c1.718,0,3.115,1.398,3.115,3.117v8.215h-2v-8.215
		c0-0.616-0.5-1.117-1.115-1.117h-0.211c-0.612,0-1.111,0.501-1.111,1.117V23.54z"/>
	<path d="M37.559,23.267h-2v-9.031c0-0.614-0.499-1.114-1.113-1.114h-0.211c-0.615,0-1.115,0.5-1.115,1.114v5.277h-2v-5.277
		c0-1.717,1.397-3.114,3.115-3.114h0.211c1.717,0,3.113,1.397,3.113,3.114V23.267z"/>
	<path d="M30.004,24.267h-0.21c-1.717,0-3.114-1.398-3.114-3.116v-8.216h2v8.216c0,0.616,0.5,1.116,1.114,1.116h0.21
		c0.615,0,1.115-0.5,1.115-1.116v-8.216h2v8.216C33.119,22.869,31.722,24.267,30.004,24.267z"/>
</g>
</svg>
