<?xml version="1.0" encoding="utf-8"?>
<!-- Generator: Adobe Illustrator 16.0.0, SVG Export Plug-In . SVG Version: 6.00 Build 0)  -->
<!DOCTYPE svg PUBLIC "-//W3C//DTD SVG 1.1//EN" "http://www.w3.org/Graphics/SVG/1.1/DTD/svg11.dtd">
<svg version="1.1" id="Layer_1" xmlns="http://www.w3.org/2000/svg" xmlns:xlink="http://www.w3.org/1999/xlink" x="0px" y="0px"
	 width="48px" height="48px" viewBox="0 0 48 48" enable-background="new 0 0 48 48" xml:space="preserve">
<g>
	<g>
		<path d="M42,48H6c-3.309,0-6-2.691-6-6V6c0-3.309,2.691-6,6-6h36c3.309,0,6,2.691,6,6v36C48,45.309,45.309,48,42,48z M6,2
			C3.794,2,2,3.794,2,6v36c0,2.206,1.794,4,4,4h36c2.206,0,4-1.794,4-4V6c0-2.206-1.794-4-4-4H6z"/>
	</g>
	<g>
		<path d="M12.07,40.376c-3.726,0-6.645-1.808-6.645-4.114s2.919-4.113,6.645-4.113s6.645,1.807,6.645,4.113
			S15.796,40.376,12.07,40.376z M12.07,34.148c-2.659,0-4.645,1.115-4.645,2.113s1.986,2.114,4.645,2.114s4.645-1.116,4.645-2.114
			S14.729,34.148,12.07,34.148z"/>
		<path d="M32.282,35.729c-3.727,0-6.646-1.809-6.646-4.117c0-2.308,2.919-4.115,6.646-4.115s6.646,1.808,6.646,4.115
			C38.928,33.92,36.009,35.729,32.282,35.729z M32.282,29.496c-2.659,0-4.646,1.117-4.646,2.115c0,0.999,1.986,2.117,4.646,2.117
			s4.646-1.118,4.646-2.117C36.928,30.613,34.941,29.496,32.282,29.496z"/>
		<path d="M18.715,36.262h-2V14.975c0-0.437,0.284-0.823,0.7-0.954L37.628,7.67c0.304-0.095,0.635-0.041,0.892,0.148
			s0.408,0.488,0.408,0.806v23.84h-2V9.986l-18.213,5.723V36.262z"/>
		<path d="M18.079,23.374l-0.748-1.854c0.718-0.299,15.759-4.116,20.352-5.279l0.49,1.938
			C30.503,20.121,18.823,23.107,18.079,23.374z"/>
	</g>
</g>
</svg>
