<?xml version="1.0" encoding="utf-8"?>
<!-- Generator: Adobe Illustrator 16.0.0, SVG Export Plug-In . SVG Version: 6.00 Build 0)  -->
<!DOCTYPE svg PUBLIC "-//W3C//DTD SVG 1.1//EN" "http://www.w3.org/Graphics/SVG/1.1/DTD/svg11.dtd">
<svg version="1.1" id="Layer_1" xmlns="http://www.w3.org/2000/svg" xmlns:xlink="http://www.w3.org/1999/xlink" x="0px" y="0px"
	 width="48px" height="48px" viewBox="0 0 48 48" enable-background="new 0 0 48 48" xml:space="preserve">
<g>
	<g>
		<path d="M35.404,48H12.596c-3.309,0-6-2.691-6-6V19.194c0-3.309,2.691-6,6-6h22.808c3.309,0,6,2.691,6,6V42
			C41.404,45.309,38.713,48,35.404,48z M12.596,15.194c-2.206,0-4,1.794-4,4V42c0,2.206,1.794,4,4,4h22.808c2.206,0,4-1.794,4-4
			V19.194c0-2.206-1.794-4-4-4H12.596z"/>
	</g>
	<g>
		<path d="M15.543,42.563c-2.865,0-5.026-1.385-5.026-3.222s2.161-3.222,5.026-3.222s5.026,1.385,5.026,3.222
			S18.408,42.563,15.543,42.563z M15.543,38.119c-1.877,0-3.026,0.791-3.026,1.222s1.149,1.222,3.026,1.222s3.026-0.791,3.026-1.222
			S17.42,38.119,15.543,38.119z"/>
		<path d="M29.959,39.248c-2.865,0-5.025-1.386-5.025-3.223c0-1.836,2.16-3.221,5.025-3.221s5.025,1.385,5.025,3.221
			C34.984,37.862,32.824,39.248,29.959,39.248z M29.959,34.805c-1.877,0-3.025,0.79-3.025,1.221s1.148,1.223,3.025,1.223
			s3.025-0.792,3.025-1.223S31.836,34.805,29.959,34.805z"/>
		<path d="M20.569,39.341h-2v-15.18c0-0.437,0.283-0.823,0.7-0.954l14.416-4.532c0.302-0.095,0.635-0.041,0.892,0.148
			s0.408,0.488,0.408,0.806v17.004h-2V20.992l-12.416,3.903V39.341z"/>
		<path d="M19.923,30.42l-0.737-1.859c0.516-0.214,10.349-2.712,14.553-3.776l0.49,1.939C28.801,28.098,20.51,30.216,19.923,30.42z"
			/>
	</g>
	<path d="M37.895,14.194h-2C35.895,7.47,30.425,2,23.701,2S11.508,7.47,11.508,14.194h-2C9.508,6.367,15.875,0,23.701,0
		S37.895,6.367,37.895,14.194z"/>
	<path d="M29.539,14.194h-2c0-2.116-1.722-3.838-3.838-3.838c-2.116,0-3.837,1.722-3.837,3.838h-2c0-3.219,2.619-5.838,5.837-5.838
		C26.92,8.356,29.539,10.975,29.539,14.194z"/>
</g>
</svg>
