<?xml version="1.0" encoding="utf-8"?>
<!-- Generator: Adobe Illustrator 16.0.0, SVG Export Plug-In . SVG Version: 6.00 Build 0)  -->
<!DOCTYPE svg PUBLIC "-//W3C//DTD SVG 1.1//EN" "http://www.w3.org/Graphics/SVG/1.1/DTD/svg11.dtd">
<svg version="1.1" id="Layer_1" xmlns="http://www.w3.org/2000/svg" xmlns:xlink="http://www.w3.org/1999/xlink" x="0px" y="0px"
	 width="48px" height="48px" viewBox="0 0 48 48" enable-background="new 0 0 48 48" xml:space="preserve">
<g>
	<g>
		<path d="M37.17,17.878H6c-3.309,0-6-2.691-6-6V6.301c0-3.309,2.691-6,6-6h31.17c3.309,0,6,2.691,6,6v5.577
			C43.17,15.187,40.479,17.878,37.17,17.878z M6,2.301c-2.206,0-4,1.794-4,4v5.577c0,2.206,1.794,4,4,4h31.17c2.206,0,4-1.794,4-4
			V6.301c0-2.206-1.794-4-4-4H6z"/>
	</g>
	<rect x="18.585" y="27.863" width="6" height="18.835"/>
	<path d="M22.585,27.02h-2v-4.83c0-0.552,0.448-1,1-1H46v-11.1h-3.83v-2H47c0.553,0,1,0.448,1,1v13.1c0,0.552-0.447,1-1,1H22.585
		V27.02z"/>
</g>
</svg>
