<?xml version="1.0" encoding="utf-8"?>
<!-- Generator: Adobe Illustrator 16.0.0, SVG Export Plug-In . SVG Version: 6.00 Build 0)  -->
<!DOCTYPE svg PUBLIC "-//W3C//DTD SVG 1.1//EN" "http://www.w3.org/Graphics/SVG/1.1/DTD/svg11.dtd">
<svg version="1.1" id="Layer_1" xmlns="http://www.w3.org/2000/svg" xmlns:xlink="http://www.w3.org/1999/xlink" x="0px" y="0px"
	 width="48px" height="48px" viewBox="0 0 48 48" enable-background="new 0 0 48 48" xml:space="preserve">
<g>
	<polygon points="48,38.35 29.473,38.35 29.473,36.35 46,36.35 46,14.172 17.893,14.172 17.893,12.172 48,12.172 	"/>
	<path d="M26.497,34.557c-4.343,0-7.877-4.171-7.877-9.297s3.534-9.296,7.877-9.296c4.344,0,7.877,4.17,7.877,9.296
		S30.841,34.557,26.497,34.557z M26.497,17.964c-3.241,0-5.877,3.273-5.877,7.296c0,4.023,2.636,7.297,5.877,7.297
		c3.24,0,5.877-3.273,5.877-7.297C32.374,21.237,29.737,17.964,26.497,17.964z"/>
	<path d="M8.943,10.947C4.607,10.947,0,9.396,0,6.522s4.607-4.425,8.943-4.425s8.943,1.551,8.943,4.425S13.278,10.947,8.943,10.947z
		 M8.943,4.097C4.769,4.097,2,5.557,2,6.522s2.769,2.425,6.943,2.425s6.943-1.459,6.943-2.425S13.117,4.097,8.943,4.097z"/>
	<path d="M31.007,45.901c-1.944,0-4.422-0.824-6.798-2.261c-1.93-1.166-3.558-2.601-4.584-4.039
		c-1.195-1.675-1.472-3.229-0.779-4.375c0.392-0.648,1.256-1.423,3.146-1.423c1.944,0,4.421,0.824,6.797,2.261
		c3.71,2.242,6.851,5.953,5.363,8.414C33.761,45.127,32.896,45.901,31.007,45.901z M21.992,35.804c-0.725,0-1.261,0.171-1.434,0.458
		c-0.24,0.396,0.034,1.251,0.695,2.178c0.872,1.222,2.289,2.461,3.991,3.49c2.042,1.234,4.196,1.972,5.763,1.972
		c0.726,0,1.261-0.171,1.434-0.457c0.5-0.827-1.114-3.51-4.687-5.669C25.712,36.541,23.558,35.804,21.992,35.804z"/>
	<path d="M8.943,15.318C4.607,15.318,0,13.767,0,10.893h2c0,0.965,2.769,2.425,6.943,2.425s6.943-1.459,6.943-2.425h2
		C17.886,13.767,13.278,15.318,8.943,15.318z"/>
	<path d="M8.943,19.404C4.607,19.404,0,17.853,0,14.979h2c0,0.965,2.769,2.425,6.943,2.425s6.943-1.459,6.943-2.425h2
		C17.886,17.853,13.278,19.404,8.943,19.404z"/>
	<path d="M8.943,23.488C4.607,23.488,0,21.937,0,19.063h2c0,0.965,2.769,2.425,6.943,2.425s6.943-1.459,6.943-2.425h2
		C17.886,21.937,13.278,23.488,8.943,23.488z"/>
	<path d="M8.943,27.573C4.607,27.573,0,26.022,0,23.148h2c0,0.965,2.769,2.425,6.943,2.425s6.943-1.46,6.943-2.425h2
		C17.886,26.022,13.278,27.573,8.943,27.573z"/>
	<path d="M8.943,31.658C4.607,31.658,0,30.107,0,27.232h2c0,0.966,2.769,2.426,6.943,2.426s6.943-1.46,6.943-2.426h2
		C17.886,30.107,13.278,31.658,8.943,31.658z"/>
	<path d="M8.943,35.744C4.607,35.744,0,34.193,0,31.318h2c0,0.966,2.769,2.426,6.943,2.426s6.943-1.46,6.943-2.426h2
		C17.886,34.193,13.278,35.744,8.943,35.744z"/>
	<path d="M8.943,39.828C4.607,39.828,0,38.277,0,35.402h2c0,0.966,2.769,2.426,6.943,2.426s6.943-1.46,6.943-2.426h2
		C17.886,38.277,13.278,39.828,8.943,39.828z"/>
	<path d="M40.85,21.203c-1.695,0-3.074-1.379-3.074-3.074c0-1.695,1.379-3.074,3.074-3.074c1.694,0,3.073,1.379,3.073,3.074
		C43.923,19.824,42.544,21.203,40.85,21.203z M40.85,17.055c-0.593,0-1.074,0.481-1.074,1.074s0.481,1.074,1.074,1.074
		c0.592,0,1.073-0.482,1.073-1.074S41.441,17.055,40.85,17.055z"/>
	<path d="M40.85,35.805c-1.695,0-3.074-1.38-3.074-3.076c0-1.693,1.379-3.07,3.074-3.07c1.694,0,3.073,1.377,3.073,3.07
		C43.923,34.425,42.544,35.805,40.85,35.805z M40.85,31.658c-0.593,0-1.074,0.48-1.074,1.07c0,0.594,0.481,1.076,1.074,1.076
		c0.592,0,1.073-0.482,1.073-1.076C41.923,32.139,41.441,31.658,40.85,31.658z"/>
	<g>
		<path d="M26.053,29.146v-0.685c-0.791-0.125-1.52-0.481-2.186-1.073l0.867-1.057c0.486,0.423,0.926,0.693,1.317,0.813v-1.393
			c-0.653-0.167-1.134-0.393-1.438-0.678c-0.306-0.282-0.459-0.69-0.459-1.224c0-0.531,0.174-0.971,0.525-1.317
			c0.35-0.344,0.805-0.552,1.372-0.619v-0.458h0.99v0.477c0.622,0.086,1.243,0.344,1.858,0.774l-0.766,1.103
			c-0.394-0.281-0.757-0.468-1.094-0.56v1.344c0.673,0.176,1.17,0.407,1.49,0.701c0.32,0.292,0.48,0.706,0.48,1.241
			c0,0.537-0.178,0.979-0.537,1.329c-0.357,0.348-0.836,0.556-1.435,0.625v0.654h-0.987V29.146z M26.053,23.21
			c-0.269,0.096-0.402,0.266-0.402,0.515s0.135,0.439,0.402,0.571V23.21z M27.52,26.613c0-0.131-0.033-0.242-0.103-0.328
			c-0.067-0.088-0.194-0.168-0.374-0.243v1.149C27.359,27.092,27.52,26.898,27.52,26.613z"/>
	</g>
</g>
</svg>
