<?xml version="1.0" encoding="utf-8"?>
<!-- Generator: Adobe Illustrator 16.0.0, SVG Export Plug-In . SVG Version: 6.00 Build 0)  -->
<!DOCTYPE svg PUBLIC "-//W3C//DTD SVG 1.1//EN" "http://www.w3.org/Graphics/SVG/1.1/DTD/svg11.dtd">
<svg version="1.1" id="Layer_1" xmlns="http://www.w3.org/2000/svg" xmlns:xlink="http://www.w3.org/1999/xlink" x="0px" y="0px"
	 width="48px" height="48px" viewBox="0 0 48 48" enable-background="new 0 0 48 48" xml:space="preserve">
<g>
	<path d="M16.48,36.435L16.48,36.435c-0.265,0-0.52-0.105-0.707-0.293l-3.916-3.916c-0.391-0.391-0.391-1.023,0-1.414l18.955-18.955
		c0.391-0.391,1.023-0.391,1.414,0l3.916,3.916c0.188,0.188,0.293,0.442,0.293,0.707s-0.105,0.52-0.293,0.707L17.187,36.142
		C17,36.329,16.745,36.435,16.48,36.435z M13.979,31.519l2.501,2.502l17.542-17.542l-2.502-2.501L13.979,31.519z"/>
	<path d="M18.176,47.999c-1.086,0-2.106-0.421-2.871-1.184L1.188,32.696c-0.765-0.765-1.187-1.784-1.187-2.872
		s0.422-2.108,1.187-2.873l1.239-1.241c0.765-0.765,1.785-1.186,2.872-1.186c1.087,0,2.107,0.421,2.872,1.186l14.118,14.117
		c1.583,1.583,1.583,4.16,0,5.743l-1.242,1.244C20.282,47.578,19.263,47.999,18.176,47.999z M5.299,26.524
		c-0.553,0-1.071,0.213-1.458,0.6l-1.239,1.241c-0.388,0.388-0.602,0.905-0.602,1.459c0,0.553,0.213,1.07,0.601,1.457L16.718,45.4
		c0.773,0.771,2.142,0.772,2.916-0.001l1.241-1.243c0.804-0.804,0.804-2.111,0-2.915L6.757,27.124
		C6.37,26.737,5.853,26.524,5.299,26.524z"/>
	<path d="M11.304,47.6c-1.093,0-2.219-0.498-3.091-1.368l-6.441-6.444c-0.728-0.727-1.202-1.641-1.334-2.572
		c-0.145-1.022,0.145-1.981,0.795-2.633c0.538-0.537,1.288-0.832,2.114-0.832c1.094,0,2.221,0.499,3.093,1.371l6.44,6.441
		c0.728,0.728,1.202,1.642,1.334,2.573c0.145,1.022-0.145,1.981-0.795,2.632C12.88,47.305,12.129,47.6,11.304,47.6z M3.346,35.75
		c-0.207,0-0.495,0.042-0.699,0.246c-0.276,0.276-0.262,0.706-0.229,0.938c0.071,0.497,0.351,1.022,0.768,1.438l6.441,6.444
		c0.491,0.49,1.119,0.783,1.677,0.783c0.207,0,0.496-0.042,0.701-0.247c0.275-0.275,0.262-0.704,0.229-0.936
		c-0.071-0.498-0.351-1.022-0.769-1.44l-6.44-6.441C4.533,36.043,3.905,35.75,3.346,35.75z"/>
	<rect x="3.776" y="41.918" transform="matrix(0.7071 0.7071 -0.7071 0.7071 31.9632 9.2833)" width="2" height="2.613"/>
	<path d="M42.7,23.478c-1.087,0-2.106-0.421-2.871-1.186L25.711,8.172c-0.766-0.766-1.188-1.788-1.187-2.876
		c0.001-1.086,0.423-2.105,1.188-2.868l1.241-1.242C27.717,0.421,28.736,0,29.824,0s2.107,0.421,2.871,1.186l14.117,14.121
		c0.765,0.764,1.186,1.784,1.186,2.872c0,1.087-0.421,2.107-1.186,2.872l-1.24,1.241C44.807,23.057,43.787,23.478,42.7,23.478z
		 M29.824,2c-0.553,0-1.07,0.213-1.457,0.6l-1.242,1.243c-0.387,0.386-0.601,0.903-0.601,1.455c0,0.554,0.213,1.073,0.601,1.46
		l14.118,14.12c0.773,0.773,2.142,0.773,2.915,0l1.24-1.241c0.387-0.387,0.6-0.905,0.6-1.458s-0.213-1.071-0.6-1.458L31.281,2.6
		C30.895,2.213,30.377,2,29.824,2z"/>
	<path d="M44.652,14.251c-1.094,0-2.22-0.5-3.091-1.374l-6.441-6.44c-0.873-0.872-1.373-2-1.372-3.094
		c0-0.825,0.297-1.575,0.834-2.111C35.118,0.697,35.868,0.4,36.694,0.4c1.092,0,2.22,0.499,3.093,1.369l6.441,6.443
		c1.584,1.582,1.826,3.917,0.54,5.205C46.229,13.956,45.479,14.251,44.652,14.251z M36.694,2.4c-0.206,0-0.495,0.043-0.699,0.248
		c-0.204,0.204-0.247,0.491-0.247,0.697c0,0.559,0.294,1.186,0.786,1.679l6.442,6.441c0.492,0.493,1.118,0.787,1.676,0.787
		c0.207,0,0.496-0.043,0.701-0.248c0.435-0.435,0.32-1.518-0.539-2.376l-6.44-6.442C37.882,2.694,37.253,2.4,36.694,2.4z"/>
	<rect x="42.224" y="3.47" transform="matrix(0.7069 0.7074 -0.7074 0.7069 16.0493 -29.1744)" width="2" height="2.613"/>
</g>
</svg>
