<?xml version="1.0" encoding="utf-8"?>
<!-- Generator: Adobe Illustrator 16.0.0, SVG Export Plug-In . SVG Version: 6.00 Build 0)  -->
<!DOCTYPE svg PUBLIC "-//W3C//DTD SVG 1.1//EN" "http://www.w3.org/Graphics/SVG/1.1/DTD/svg11.dtd">
<svg version="1.1" id="Layer_1" xmlns="http://www.w3.org/2000/svg" xmlns:xlink="http://www.w3.org/1999/xlink" x="0px" y="0px"
	 width="48px" height="48px" viewBox="0 0 48 48" enable-background="new 0 0 48 48" xml:space="preserve">
<g>
	<path d="M45.94,46.084l-1.936-0.502c3.025-11.689-0.393-24.25-8.922-32.78C26.515,4.235,14.374,0.872,2.604,3.804L2.12,1.864
		c12.271-3.058,25.443,0.592,34.377,9.524C45.525,20.417,49.144,33.711,45.94,46.084z"/>
	<g>
		<g>
			<g>
				<rect x="28.125" y="-5.025" transform="matrix(0.7071 0.7071 -0.7071 0.7071 21.8767 -15.0665)" width="2" height="47.799"/>
				<g>
					<path d="M37.982,3.38c0.06,0.264,0.32,0.431,0.584,0.373l7.301-1.621l-1.619,7.302c-0.059,0.264,0.109,0.526,0.372,0.582
						c0.263,0.06,0.524-0.11,0.582-0.371l1.786-8.05c0.035-0.163-0.014-0.333-0.133-0.451c-0.115-0.118-0.287-0.168-0.451-0.131
						l-8.051,1.786C38.262,2.82,38.18,2.866,38.115,2.93C38.002,3.043,37.945,3.21,37.982,3.38z"/>
				</g>
			</g>
		</g>
	</g>
	<g>
		<g>
			<g>
				<rect x="24.077" y="2.742" transform="matrix(0.7071 0.7071 -0.7071 0.7071 23.5539 -11.018)" width="2" height="40.363"/>
				<g>
					<polygon points="11.519,37.264 12.921,42.503 12.023,43.402 10.619,38.162 9.721,39.061 11.125,44.302 10.225,45.202 
						8.822,39.961 7.924,40.859 9.327,46.102 8.428,46.999 7.024,41.758 6.104,42.677 5.321,41.895 6.24,40.977 1,39.572 
						1.899,38.674 7.139,40.075 8.039,39.177 2.798,37.773 3.696,36.875 8.937,38.277 9.836,37.38 4.596,35.975 5.494,35.076 
						10.735,36.48 					"/>
				</g>
			</g>
		</g>
	</g>
	<path d="M45.512,42.801l-31.47-8.125c-0.352-0.09-0.626-0.364-0.718-0.716L5.086,2.377l1.936-0.505l8.089,31.014l30.9,7.979
		L45.512,42.801z"/>
</g>
</svg>
