<?xml version="1.0" encoding="utf-8"?>
<!-- Generator: Adobe Illustrator 16.0.0, SVG Export Plug-In . SVG Version: 6.00 Build 0)  -->
<!DOCTYPE svg PUBLIC "-//W3C//DTD SVG 1.1//EN" "http://www.w3.org/Graphics/SVG/1.1/DTD/svg11.dtd">
<svg version="1.1" id="Layer_1" xmlns="http://www.w3.org/2000/svg" xmlns:xlink="http://www.w3.org/1999/xlink" x="0px" y="0px"
	 width="48px" height="48px" viewBox="0 0 48 48" enable-background="new 0 0 48 48" xml:space="preserve">
<g>
	<path d="M48,27.977H0v-1C0,14.652,10.766,4.626,23.999,4.626C37.233,4.626,48,14.652,48,26.977V27.977z M2.026,25.977h43.947
		C45.407,15.218,35.768,6.626,23.999,6.626C12.231,6.626,2.592,15.218,2.026,25.977z"/>
	<rect x="23.107" y="1.358" width="2" height="4.268"/>
	<path d="M19.711,47.641c-1.866,0-3.333-0.568-4.36-1.689c-1.67-1.824-1.463-4.422-1.453-4.531l1.992,0.176
		c-0.001,0.014-0.132,1.849,0.945,3.014c0.632,0.685,1.6,1.031,2.876,1.031c0.938,0,1.662-0.271,2.213-0.827
		c1.173-1.186,1.184-3.292,1.183-3.313V26.977h2V41.49c0.001,0.108,0.011,2.938-1.762,4.73
		C22.413,47.163,21.19,47.641,19.711,47.641z"/>
</g>
</svg>
