<?xml version="1.0" encoding="utf-8"?>
<!-- Generator: Adobe Illustrator 16.0.0, SVG Export Plug-In . SVG Version: 6.00 Build 0)  -->
<!DOCTYPE svg PUBLIC "-//W3C//DTD SVG 1.1//EN" "http://www.w3.org/Graphics/SVG/1.1/DTD/svg11.dtd">
<svg version="1.1" id="Layer_1" xmlns="http://www.w3.org/2000/svg" xmlns:xlink="http://www.w3.org/1999/xlink" x="0px" y="0px"
	 width="48px" height="48px" viewBox="0 0 48 48" enable-background="new 0 0 48 48" xml:space="preserve">
<g>
	<path d="M30.871,35.593L18.699,17.059l13.635-8.942l12.173,18.54L30.871,35.593z M21.469,17.634l9.976,15.191l10.291-6.745
		L31.76,10.885L21.469,17.634z"/>
	<path d="M31.398,40.05l-3.301-5.029l16.986-11.135l3.302,5.024L31.398,40.05z M30.867,35.597l1.105,1.684l13.642-8.944
		l-1.104-1.683L30.867,35.597z"/>
	<path d="M18.12,19.829l-3.299-5.028L31.809,3.665L35.11,8.69L18.12,19.829z M17.59,15.377l1.105,1.684l13.644-8.945l-1.104-1.682
		L17.59,15.377z"/>
	<path d="M3.093,44.335l-3.479-5.299L24.719,22.58l3.479,5.3L3.093,44.335z M2.385,39.612l1.283,1.955l21.759-14.264l-1.284-1.956
		L2.385,39.612z"/>
</g>
</svg>
