<?xml version="1.0" encoding="utf-8"?>
<!-- Generator: Adobe Illustrator 16.0.0, SVG Export Plug-In . SVG Version: 6.00 Build 0)  -->
<!DOCTYPE svg PUBLIC "-//W3C//DTD SVG 1.1//EN" "http://www.w3.org/Graphics/SVG/1.1/DTD/svg11.dtd">
<svg version="1.1" id="Layer_1" xmlns="http://www.w3.org/2000/svg" xmlns:xlink="http://www.w3.org/1999/xlink" x="0px" y="0px"
	 width="48px" height="48px" viewBox="0 0 48 48" enable-background="new 0 0 48 48" xml:space="preserve">
<g>
	<path d="M17.403,47.999C17.402,47.999,17.402,47.999,17.403,47.999c-4.037,0-8.494-2.049-11.925-5.479
		c-5.939-5.938-7.235-14.308-2.887-18.656c1.694-1.694,4.021-2.59,6.73-2.59c0.906,0,1.835,0.102,2.778,0.302
		c0.113-1.929,0.826-3.624,2.065-4.867c1.365-1.365,3.236-2.086,5.411-2.086c3.207,0,6.744,1.622,9.462,4.34
		c4.721,4.721,5.732,11.393,2.255,14.872c-1.249,1.249-2.924,1.958-4.867,2.067c0.792,3.762-0.028,7.246-2.289,9.507
		C22.441,47.104,20.113,47.999,17.403,47.999z M9.321,23.273c-2.167,0-4.005,0.693-5.316,2.004
		c-3.567,3.568-2.272,10.669,2.887,15.828c3.064,3.064,6.993,4.894,10.51,4.894c0,0,0,0,0.001,0c2.168,0,4.007-0.693,5.319-2.005
		c2.018-2.019,2.547-5.232,1.452-8.818l-0.431-1.412l1.472,0.124c1.894,0.157,3.551-0.355,4.663-1.468
		c2.698-2.699,1.687-8.103-2.255-12.044c-2.352-2.351-5.36-3.754-8.048-3.754c-1.633,0-3.015,0.519-3.996,1.5
		c-1.105,1.107-1.627,2.765-1.468,4.666l0.123,1.472l-1.412-0.433C11.622,23.46,10.444,23.273,9.321,23.273z"/>
	<path d="M14.808,38.711c-3.043,0-5.519-2.476-5.519-5.52c0-3.043,2.476-5.519,5.519-5.519s5.519,2.476,5.519,5.519
		C20.327,36.235,17.851,38.711,14.808,38.711z M14.808,29.673c-1.94,0-3.519,1.578-3.519,3.519s1.579,3.52,3.519,3.52
		s3.519-1.579,3.519-3.52S16.749,29.673,14.808,29.673z"/>
	<path d="M30.842,22.526l-1.414-1.414l9.148-9.15l0.681,0.445c1.019,0.667,1.729,0.666,1.844,0.554
		c0.069-0.07,0.14-0.537-0.268-1.347l-1.358-2.701l2.701,1.358c0.812,0.408,1.278,0.338,1.347,0.268
		c0.071-0.071,0.141-0.538-0.268-1.348l-1.357-2.698l2.699,1.355c0.812,0.407,1.277,0.338,1.348,0.269
		c0.053-0.052,0.111-0.333-0.049-0.831c-0.207-0.646-0.686-1.377-1.313-2.004L42.72,3.419c-0.627-0.627-1.356-1.106-2.002-1.313
		c-0.499-0.161-0.777-0.102-0.829-0.05c-0.072,0.072-0.14,0.536,0.268,1.349l1.35,2.694l-2.693-1.353
		c-0.813-0.409-1.281-0.337-1.352-0.268c-0.067,0.067-0.136,0.535,0.271,1.349l1.355,2.704l-2.699-1.363
		c-0.809-0.407-1.279-0.337-1.35-0.267c-0.111,0.111-0.112,0.824,0.554,1.839l0.446,0.68l-9.15,9.151l-1.414-1.414l8.033-8.034
		c-0.733-1.465-0.703-2.816,0.118-3.638c0.451-0.45,1.072-0.659,1.79-0.635c-0.027-0.717,0.184-1.338,0.632-1.788
		c0.451-0.449,1.064-0.66,1.791-0.633c-0.027-0.72,0.187-1.343,0.639-1.792c0.66-0.659,1.675-0.813,2.851-0.437
		c0.953,0.306,1.949,0.946,2.806,1.803l1.863,1.862c0.857,0.858,1.497,1.855,1.803,2.808c0.379,1.18,0.222,2.194-0.441,2.856
		c-0.448,0.45-1.082,0.653-1.786,0.634c0.027,0.717-0.186,1.338-0.635,1.788c-0.449,0.449-1.066,0.654-1.788,0.635
		c0.027,0.717-0.186,1.338-0.637,1.789c-0.82,0.819-2.171,0.849-3.638,0.116L30.842,22.526z"/>
</g>
</svg>
