<?xml version="1.0" encoding="utf-8"?>
<!-- Generator: Adobe Illustrator 16.0.0, SVG Export Plug-In . SVG Version: 6.00 Build 0)  -->
<!DOCTYPE svg PUBLIC "-//W3C//DTD SVG 1.1//EN" "http://www.w3.org/Graphics/SVG/1.1/DTD/svg11.dtd">
<svg version="1.1" id="Layer_1" xmlns="http://www.w3.org/2000/svg" xmlns:xlink="http://www.w3.org/1999/xlink" x="0px" y="0px"
	 width="48px" height="48px" viewBox="0 0 48 48" enable-background="new 0 0 48 48" xml:space="preserve">
<g>
	<g>
		<path d="M4.974,21.119C2.231,21.119,0,18.888,0,16.145s2.231-4.974,4.974-4.974s4.974,2.231,4.974,4.974
			S7.717,21.119,4.974,21.119z M4.974,13.171C3.334,13.171,2,14.505,2,16.145s1.334,2.974,2.974,2.974s2.974-1.334,2.974-2.974
			S6.614,13.171,4.974,13.171z"/>
		<path d="M23.816,14.94c-2.743,0-4.974-2.231-4.974-4.974s2.231-4.974,4.974-4.974s4.974,2.231,4.974,4.974
			S26.559,14.94,23.816,14.94z M23.816,6.992c-1.64,0-2.974,1.334-2.974,2.974c0,1.64,1.334,2.974,2.974,2.974
			s2.974-1.334,2.974-2.974C26.79,8.326,25.456,6.992,23.816,6.992z"/>
		<polygon points="16.694,28.093 7.587,19.045 8.997,17.626 16.023,24.606 20.811,13.542 22.647,14.336 		"/>
		<rect x="-0.553" y="26.727" transform="matrix(0.2506 0.9681 -0.9681 0.2506 31.9545 14.1719)" width="14.753" height="2"/>
		<path d="M43.025,21.119c-2.742,0-4.974-2.231-4.974-4.974s2.231-4.974,4.974-4.974c2.743,0,4.975,2.231,4.975,4.974
			S45.769,21.119,43.025,21.119z M43.025,13.171c-1.64,0-2.974,1.334-2.974,2.974s1.334,2.974,2.974,2.974
			c1.641,0,2.975-1.334,2.975-2.974S44.666,13.171,43.025,13.171z"/>
		<polygon points="31.308,28.093 25.354,14.336 27.189,13.542 31.978,24.606 39.005,17.626 40.415,19.045 		"/>
		<rect x="40.178" y="20.351" transform="matrix(0.968 0.251 -0.251 0.968 8.2788 -9.4491)" width="2" height="14.752"/>
	</g>
	<path d="M41.966,43.008H6.035v-9.141h35.931V43.008z M8.035,41.008h31.931v-5.141H8.035V41.008z"/>
	<rect x="23" y="24.384" width="2" height="7.302"/>
	<g>
		<rect x="8.99" y="28.017" transform="matrix(0.3639 0.9314 -0.9314 0.3639 34.5677 7.4153)" width="5.729" height="2.001"/>
		<rect x="35.146" y="26.153" transform="matrix(0.9313 0.3641 -0.3641 0.9313 13.0482 -11.1702)" width="2.001" height="5.729"/>
	</g>
</g>
</svg>
