<?xml version="1.0" encoding="utf-8"?>
<!-- Generator: Adobe Illustrator 16.0.0, SVG Export Plug-In . SVG Version: 6.00 Build 0)  -->
<!DOCTYPE svg PUBLIC "-//W3C//DTD SVG 1.1//EN" "http://www.w3.org/Graphics/SVG/1.1/DTD/svg11.dtd">
<svg version="1.1" id="Layer_1" xmlns="http://www.w3.org/2000/svg" xmlns:xlink="http://www.w3.org/1999/xlink" x="0px" y="0px"
	 width="48px" height="48px" viewBox="0 0 48 48" enable-background="new 0 0 48 48" xml:space="preserve">
<g>
	<rect x="1" y="17.112" width="34.798" height="2"/>
	<rect x="12.087" y="19.587" width="2" height="21.778"/>
	<rect x="20.391" y="19.587" width="2" height="21.778"/>
	<rect x="28.695" y="19.587" width="2" height="21.778"/>
	<rect x="12.087" y="11.56" width="2" height="4.613"/>
	<rect x="20.391" y="11.56" width="2" height="4.613"/>
	<rect x="28.695" y="11.56" width="2" height="4.613"/>
	<path d="M32.198,34.427H12.165c-2.631,0-8.752-0.87-8.752-8.934c0-6.893,3.457-8.263,3.604-8.318L7.74,19.04
		c-0.023,0.01-2.327,1.074-2.327,6.454c0,5.73,3.672,6.934,6.752,6.934h19.818c0.723-0.183,5.46-1.626,5.46-8.042
		c0.001-0.056,0.049-2.265-1.394-3.751c-0.923-0.95-2.29-1.432-4.065-1.432v-2c2.348,0,4.204,0.692,5.518,2.057
		c2.032,2.11,1.945,5.04,1.94,5.164c0.001,8.432-7.074,9.97-7.146,9.983L32.198,34.427z"/>
	<rect y="13.865" width="2" height="8.674"/>
	<path d="M47.001,30.14c-0.643,0-0.887-0.527-0.979-0.726c-0.96-2.07-4.487-8.827-9.589-8.827c-0.553,0-1-0.448-1-1v-3.692
		c0-0.524,0.405-0.959,0.928-0.998c1.156-0.104,9.593-3.142,9.593-8.263c0-0.552,0.447-1,1-1s1,0.448,1,1v22.207
		c0.063,0.229,0.096,0.547-0.137,0.875C47.63,29.981,47.325,30.14,47.001,30.14z M37.434,18.65c3.807,0.482,6.673,3.647,8.521,6.5
		V11.537c-2.458,2.846-6.546,4.591-8.521,5.157V18.65z"/>
</g>
</svg>
