<?xml version="1.0" encoding="utf-8"?>
<!-- Generator: Adobe Illustrator 16.0.0, SVG Export Plug-In . SVG Version: 6.00 Build 0)  -->
<!DOCTYPE svg PUBLIC "-//W3C//DTD SVG 1.1//EN" "http://www.w3.org/Graphics/SVG/1.1/DTD/svg11.dtd">
<svg version="1.1" id="Layer_1" xmlns="http://www.w3.org/2000/svg" xmlns:xlink="http://www.w3.org/1999/xlink" x="0px" y="0px"
	 width="48px" height="48px" viewBox="0 0 48 48" enable-background="new 0 0 48 48" xml:space="preserve">
<g>
	<g>
		<path d="M40,48H8c-4.411,0-8-3.589-8-8V8c0-4.411,3.589-8,8-8h32c4.411,0,8,3.589,8,8v32C48,44.411,44.411,48,40,48z M8,2
			C4.691,2,2,4.691,2,8v32c0,3.309,2.691,6,6,6h32c3.309,0,6-2.691,6-6V8c0-3.309-2.691-6-6-6H8z"/>
	</g>
	<path d="M12.871,41.48c-3.518,0-6.379-2.861-6.379-6.379s2.861-6.379,6.379-6.379s6.379,2.861,6.379,6.379
		S16.389,41.48,12.871,41.48z M12.871,30.723c-2.415,0-4.379,1.965-4.379,4.379s1.964,4.379,4.379,4.379s4.379-1.965,4.379-4.379
		S15.286,30.723,12.871,30.723z"/>
	<path d="M12.871,19.278c-3.518,0-6.379-2.861-6.379-6.379S9.354,6.52,12.871,6.52s6.379,2.861,6.379,6.379
		S16.389,19.278,12.871,19.278z M12.871,8.52c-2.415,0-4.379,1.964-4.379,4.379s1.964,4.379,4.379,4.379s4.379-1.964,4.379-4.379
		S15.286,8.52,12.871,8.52z"/>
	<path d="M34.882,41.48c-3.518,0-6.379-2.861-6.379-6.379s2.861-6.379,6.379-6.379s6.38,2.861,6.38,6.379S38.399,41.48,34.882,41.48
		z M34.882,30.723c-2.414,0-4.379,1.965-4.379,4.379s1.965,4.379,4.379,4.379c2.415,0,4.38-1.965,4.38-4.379
		S37.297,30.723,34.882,30.723z"/>
	<path d="M34.882,19.278c-3.518,0-6.379-2.861-6.379-6.379s2.861-6.379,6.379-6.379s6.38,2.861,6.38,6.379
		S38.399,19.278,34.882,19.278z M34.882,8.52c-2.414,0-4.379,1.964-4.379,4.379s1.965,4.379,4.379,4.379
		c2.415,0,4.38-1.964,4.38-4.379S37.297,8.52,34.882,8.52z"/>
</g>
</svg>
