<?xml version="1.0" encoding="utf-8"?>
<!-- Generator: Adobe Illustrator 16.0.0, SVG Export Plug-In . SVG Version: 6.00 Build 0)  -->
<!DOCTYPE svg PUBLIC "-//W3C//DTD SVG 1.1//EN" "http://www.w3.org/Graphics/SVG/1.1/DTD/svg11.dtd">
<svg version="1.1" id="Layer_1" xmlns="http://www.w3.org/2000/svg" xmlns:xlink="http://www.w3.org/1999/xlink" x="0px" y="0px"
	 width="48px" height="48px" viewBox="0 0 48 48" enable-background="new 0 0 48 48" xml:space="preserve">
<g>
	<g>
		<path d="M40,48H8c-4.411,0-8-3.589-8-8V8c0-4.411,3.589-8,8-8h32c4.411,0,8,3.589,8,8v32C48,44.411,44.411,48,40,48z M8,2
			C4.691,2,2,4.691,2,8v32c0,3.309,2.691,6,6,6h32c3.309,0,6-2.691,6-6V8c0-3.309-2.691-6-6-6H8z"/>
	</g>
	<path d="M12.871,41.479c-3.518,0-6.379-2.861-6.379-6.379s2.861-6.379,6.379-6.379s6.379,2.861,6.379,6.379
		S16.389,41.479,12.871,41.479z M12.871,30.721c-2.415,0-4.379,1.965-4.379,4.379s1.964,4.379,4.379,4.379s4.379-1.965,4.379-4.379
		S15.286,30.721,12.871,30.721z"/>
	<path d="M12.871,19.277c-3.518,0-6.379-2.861-6.379-6.379s2.861-6.379,6.379-6.379s6.379,2.861,6.379,6.379
		S16.389,19.277,12.871,19.277z M12.871,8.519c-2.415,0-4.379,1.964-4.379,4.379s1.964,4.379,4.379,4.379s4.379-1.964,4.379-4.379
		S15.286,8.519,12.871,8.519z"/>
	<path d="M34.881,41.48c-3.518,0-6.38-2.862-6.38-6.381c0-3.518,2.862-6.379,6.38-6.379c3.519,0,6.381,2.861,6.381,6.379
		C41.262,38.618,38.399,41.48,34.881,41.48z M34.881,30.721c-2.415,0-4.38,1.965-4.38,4.379c0,2.416,1.965,4.381,4.38,4.381
		c2.416,0,4.381-1.965,4.381-4.381C39.262,32.686,37.297,30.721,34.881,30.721z"/>
	<path d="M34.881,19.278c-3.518,0-6.38-2.862-6.38-6.38s2.862-6.38,6.38-6.38c3.519,0,6.381,2.862,6.381,6.38
		S38.399,19.278,34.881,19.278z M34.881,8.518c-2.415,0-4.38,1.965-4.38,4.38s1.965,4.38,4.38,4.38c2.416,0,4.381-1.965,4.381-4.38
		S37.297,8.518,34.881,8.518z"/>
	<path d="M24,30.379c-3.518,0-6.38-2.862-6.38-6.38c0-3.518,2.862-6.38,6.38-6.38c3.518,0,6.38,2.862,6.38,6.38
		C30.38,27.517,27.518,30.379,24,30.379z M24,19.619c-2.415,0-4.38,1.965-4.38,4.38s1.965,4.38,4.38,4.38s4.38-1.965,4.38-4.38
		S26.415,19.619,24,19.619z"/>
</g>
</svg>
