<?xml version="1.0" encoding="utf-8"?>
<!-- Generator: Adobe Illustrator 16.0.0, SVG Export Plug-In . SVG Version: 6.00 Build 0)  -->
<!DOCTYPE svg PUBLIC "-//W3C//DTD SVG 1.1//EN" "http://www.w3.org/Graphics/SVG/1.1/DTD/svg11.dtd">
<svg version="1.1" id="Layer_1" xmlns="http://www.w3.org/2000/svg" xmlns:xlink="http://www.w3.org/1999/xlink" x="0px" y="0px"
	 width="48px" height="48px" viewBox="0 0 48 48" enable-background="new 0 0 48 48" xml:space="preserve">
<g>
	<path d="M5.534,20.016L0.458,14.94L15.813-0.415l5.075,5.076L5.534,20.016z M3.287,14.94l2.247,2.248L18.06,4.661l-2.247-2.248
		L3.287,14.94z"/>
	<path d="M18.841,25.756L7.903,14.819l8.195-8.195l6.117,6.116L18.841,25.756z M10.731,14.819l7.052,7.051l2.21-8.524l-3.895-3.894
		L10.731,14.819z"/>
	<rect x="22.165" y="15.022" transform="matrix(0.968 0.251 -0.251 0.968 6.2357 -5.1143)" width="2" height="13.727"/>
	<rect x="25.338" y="18.195" transform="matrix(0.968 0.251 -0.251 0.968 7.1338 -5.8091)" width="2" height="13.727"/>
	<rect x="28.51" y="21.367" transform="matrix(0.968 0.251 -0.251 0.968 8.0318 -6.504)" width="2" height="13.728"/>
	<rect x="31.683" y="24.54" transform="matrix(0.968 0.251 -0.251 0.968 8.9298 -7.1989)" width="2" height="13.728"/>
	<rect x="34.855" y="27.714" transform="matrix(0.968 0.251 -0.251 0.968 9.828 -7.8935)" width="2" height="13.727"/>
	<rect x="38.028" y="30.884" transform="matrix(0.968 0.251 -0.251 0.968 10.7256 -8.5884)" width="2" height="13.729"/>
	<rect x="41.2" y="35.51" transform="matrix(0.968 0.251 -0.251 0.968 11.6236 -9.2832)" width="2" height="10.821"/>
	<rect x="44.374" y="41.091" transform="matrix(0.968 0.251 -0.251 0.968 12.5218 -9.9783)" width="2" height="6.005"/>
</g>
</svg>
