<?xml version="1.0" encoding="utf-8"?>
<!-- Generator: Adobe Illustrator 16.0.0, SVG Export Plug-In . SVG Version: 6.00 Build 0)  -->
<!DOCTYPE svg PUBLIC "-//W3C//DTD SVG 1.1//EN" "http://www.w3.org/Graphics/SVG/1.1/DTD/svg11.dtd">
<svg version="1.1" id="Layer_1" xmlns="http://www.w3.org/2000/svg" xmlns:xlink="http://www.w3.org/1999/xlink" x="0px" y="0px"
	 width="48px" height="48px" viewBox="0 0 48 48" enable-background="new 0 0 48 48" xml:space="preserve">
<g>
	<path d="M10.628,48c-2.682,0-5.196-1.037-7.08-2.922l-0.626-0.627c-1.883-1.884-2.92-4.397-2.92-7.079
		c0-2.681,1.037-5.194,2.921-7.078L19.156,14.06l1.414,1.414L4.337,31.708c-3.124,3.123-3.124,8.206,0,11.329l0.626,0.627
		C6.469,45.171,8.481,46,10.628,46s4.159-0.829,5.664-2.336l27.372-27.371c3.123-3.124,3.123-8.206,0-11.329l-0.628-0.63
		c-0.07-0.069-0.142-0.138-0.214-0.205c-2.451-0.609-4.429,2.006-4.448,2.033c-0.633,0.923-0.859,1.849-0.671,2.802
		c0.404,2.046,2.617,3.543,2.64,3.558l1.031,0.673L31.176,23.39L20.5,12.712l9.794-9.792c3.575-3.575,9.272-3.92,13.25-0.805
		c0.317,0.253,0.617,0.517,0.904,0.802l0.631,0.633c1.883,1.882,2.92,4.396,2.92,7.078s-1.037,5.195-2.921,7.079L17.707,45.078
		C15.824,46.963,13.31,48,10.628,48z M23.329,12.713l7.847,7.849l7.119-7.117c-0.908-0.813-2.188-2.244-2.554-4.093
		c-0.294-1.488,0.044-2.952,1.005-4.351c0.091-0.123,1.34-1.778,3.285-2.562c-2.837-0.995-6.094-0.333-8.323,1.896L23.329,12.713z"
		/>
	<path d="M10.656,47.839c-5.786,0-10.492-4.706-10.492-10.491s4.707-10.492,10.492-10.492c5.785,0,10.492,4.707,10.492,10.492
		S16.441,47.839,10.656,47.839z M10.656,28.855c-4.683,0-8.492,3.81-8.492,8.492c0,4.682,3.81,8.491,8.492,8.491
		c4.682,0,8.492-3.81,8.492-8.491C19.148,32.665,15.338,28.855,10.656,28.855z"/>
</g>
</svg>
