<?xml version="1.0" encoding="utf-8"?>
<!-- Generator: Adobe Illustrator 16.0.0, SVG Export Plug-In . SVG Version: 6.00 Build 0)  -->
<!DOCTYPE svg PUBLIC "-//W3C//DTD SVG 1.1//EN" "http://www.w3.org/Graphics/SVG/1.1/DTD/svg11.dtd">
<svg version="1.1" id="Layer_1" xmlns="http://www.w3.org/2000/svg" xmlns:xlink="http://www.w3.org/1999/xlink" x="0px" y="0px"
	 width="48px" height="48px" viewBox="0 0 48 48" enable-background="new 0 0 48 48" xml:space="preserve">
<g>
	<path d="M9.004,48L9.004,48c-2.586,0-5.049-1.126-6.758-3.09c-3.272-3.767-2.917-9.529,0.791-12.845
		c1.641-1.468,3.75-2.276,5.941-2.276c2.587,0,5.051,1.127,6.761,3.092c3.275,3.763,2.921,9.522-0.79,12.84
		C13.307,47.19,11.195,48,9.004,48z M8.978,31.789c-1.698,0-3.334,0.627-4.608,1.767c-2.898,2.592-3.174,7.097-0.615,10.042
		C5.083,45.124,6.997,46,9.003,46h0c1.698,0,3.336-0.629,4.611-1.771c2.9-2.592,3.175-7.094,0.614-10.036
		C12.9,32.665,10.985,31.789,8.978,31.789z M9,44.37c-1.557,0-3.041-0.678-4.07-1.86c-1.967-2.263-1.754-5.726,0.476-7.718
		c0.988-0.885,2.26-1.372,3.58-1.372c1.558,0,3.042,0.678,4.07,1.861c1.969,2.26,1.756,5.722-0.476,7.717
		C11.592,43.883,10.32,44.37,9,44.37z M8.985,35.42c-0.827,0-1.625,0.306-2.246,0.862c-1.419,1.269-1.554,3.474-0.3,4.915
		c1.196,1.376,3.451,1.525,4.807,0.31c1.42-1.27,1.555-3.473,0.301-4.912C10.897,35.848,9.963,35.42,8.985,35.42z"/>
	<path d="M39.02,47.999C39.02,47.999,39.02,47.999,39.02,47.999c-2.586,0-5.049-1.126-6.758-3.09
		c-3.274-3.766-2.921-9.527,0.788-12.844c1.642-1.469,3.752-2.276,5.942-2.276c2.586,0,5.051,1.126,6.761,3.091
		c3.274,3.765,2.92,9.524-0.79,12.84C43.321,47.189,41.21,47.999,39.02,47.999z M38.992,31.789c-1.698,0-3.334,0.627-4.608,1.767
		c-2.898,2.593-3.174,7.097-0.613,10.041c1.328,1.526,3.242,2.402,5.249,2.402c1.697,0,3.335-0.628,4.61-1.77
		c2.899-2.591,3.175-7.094,0.614-10.037C42.914,32.665,41,31.789,38.992,31.789z M39.015,44.37c-1.557,0-3.04-0.678-4.069-1.86
		c-1.97-2.264-1.756-5.727,0.476-7.719C36.409,33.907,37.68,33.42,39,33.42c1.557,0,3.041,0.678,4.07,1.861
		c1.968,2.261,1.754,5.722-0.476,7.716C41.605,43.883,40.334,44.37,39.015,44.37z M39,35.42c-0.827,0-1.625,0.306-2.246,0.862
		c-1.421,1.269-1.555,3.473-0.3,4.915c1.196,1.375,3.448,1.526,4.807,0.31c1.42-1.27,1.555-3.473,0.302-4.913
		C40.912,35.848,39.979,35.42,39,35.42z"/>
	<path d="M19.359,36.342l-6.675-7.678l3.687-3.296l-9.886-8.841c-4.97-4.443-5.597-8.277-5.636-9.72
		C0.786,4.389,1.876,0.852,1.923,0.703l0.462-1.485l21.614,19.327L45.612-0.782l0.463,1.484c0.046,0.149,1.139,3.686,1.077,6.103
		c-0.037,1.44-0.66,5.27-5.636,9.721l-9.887,8.842l3.687,3.296l-6.676,7.678l-4.642-4.149L19.359,36.342z M23.999,29.511
		l4.463,3.988l4.052-4.659l-3.884-3.472l11.554-10.333c4.518-4.041,4.945-7.36,4.969-8.281c0.031-1.187-0.288-2.774-0.571-3.931
		L23.999,21.227L3.418,2.825C3.135,3.982,2.817,5.57,2.848,6.754c0.025,0.922,0.457,4.248,4.97,8.282l11.554,10.333l-3.883,3.472
		l4.05,4.659L23.999,29.511z M23.685,28.259c-1.658,0-3.007-1.365-3.007-3.044c0-1.679,1.349-3.045,3.007-3.045
		c1.658,0,3.006,1.366,3.006,3.045C26.691,26.894,25.343,28.259,23.685,28.259z M23.685,24.17c-0.555,0-1.007,0.469-1.007,1.045
		c0,0.575,0.452,1.044,1.007,1.044c0.555,0,1.006-0.469,1.006-1.044C24.691,24.639,24.24,24.17,23.685,24.17z"/>
</g>
</svg>
