<?xml version="1.0" encoding="utf-8"?>
<!-- Generator: Adobe Illustrator 16.0.0, SVG Export Plug-In . SVG Version: 6.00 Build 0)  -->
<!DOCTYPE svg PUBLIC "-//W3C//DTD SVG 1.1//EN" "http://www.w3.org/Graphics/SVG/1.1/DTD/svg11.dtd">
<svg version="1.1" id="Layer_1" xmlns="http://www.w3.org/2000/svg" xmlns:xlink="http://www.w3.org/1999/xlink" x="0px" y="0px"
	 width="48px" height="48px" viewBox="0 0 48 48" enable-background="new 0 0 48 48" xml:space="preserve">
<g>
	<path d="M1,48c-0.125,0-0.252-0.023-0.373-0.072C0.249,47.775,0,47.408,0,47V29.387c0-0.284,0.121-0.556,0.333-0.745
		c0.079-0.071,7.976-7.13,12.796-10.7c4.04-2.992,1.478-7.086,1.367-7.259c-0.269-0.419-0.189-0.972,0.188-1.297l10.574-9.142
		c0.246-0.213,0.581-0.293,0.896-0.214c6.77,1.692,12.037,10.125,12.259,10.483c0.253,0.41,0.177,0.943-0.181,1.266L24.97,23.786
		c-0.306,0.277-0.75,0.337-1.118,0.153c-0.59,0.005-2.216,1.979-3.33,4.067c-0.043,0.08-0.097,0.155-0.16,0.221L1.722,47.691
		C1.53,47.893,1.268,48,1,48z M2,29.835V44.51l16.823-17.566c0.735-1.356,3.016-5.147,5.196-4.994l12.233-11.076
		c-1.325-1.923-5.368-7.297-10.093-8.766l-9.557,8.262c1.08,2.267,1.644,6.271-2.283,9.179C10.133,22.649,3.548,28.46,2,29.835z"/>
	<path d="M37.561,34.241c-0.312,0-0.608-0.146-0.799-0.398l-7.699-10.225c-0.24-0.319-0.268-0.75-0.07-1.096l2.442-4.291
		l-0.819-0.896l1.477-1.35l8.852,9.687c0.255,0.279,0.331,0.68,0.195,1.033L38.494,33.6c-0.13,0.339-0.435,0.581-0.795,0.632
		C37.653,34.238,37.606,34.241,37.561,34.241z M31.056,22.939l6.218,8.258l1.776-4.633l-6.197-6.782L31.056,22.939z"/>
	<path d="M40.687,27.222l-0.963-1.752l5.427-2.985l-7.236-5.352l-5.316,2.058l-0.723-1.865l5.83-2.257
		c0.319-0.124,0.681-0.076,0.956,0.128l8.934,6.607c0.273,0.203,0.426,0.531,0.403,0.871c-0.023,0.34-0.218,0.645-0.517,0.81
		L40.687,27.222z"/>
	<rect x="25.394" y="7.49" transform="matrix(0.6789 0.7342 -0.7342 0.6789 15.5355 -18.5437)" width="7.15" height="2"/>
	<rect x="22.966" y="9.221" transform="matrix(0.6788 0.7343 -0.7343 0.6788 16.0293 -16.2061)" width="7.15" height="2"/>
	<rect x="20.54" y="10.955" transform="matrix(0.6788 0.7343 -0.7343 0.6788 16.5241 -13.8683)" width="7.151" height="2"/>
</g>
</svg>
