<?xml version="1.0" encoding="utf-8"?>
<!-- Generator: Adobe Illustrator 16.0.0, SVG Export Plug-In . SVG Version: 6.00 Build 0)  -->
<!DOCTYPE svg PUBLIC "-//W3C//DTD SVG 1.1//EN" "http://www.w3.org/Graphics/SVG/1.1/DTD/svg11.dtd">
<svg version="1.1" id="Layer_1" xmlns="http://www.w3.org/2000/svg" xmlns:xlink="http://www.w3.org/1999/xlink" x="0px" y="0px"
	 width="48px" height="48px" viewBox="0 0 48 48" enable-background="new 0 0 48 48" xml:space="preserve">
<g>
	<path d="M36.825,26.734H9.796l-0.073-0.921C9.695,25.515,8.468,14.335,7.824,8.467L7.818,8.358C7.818,3.75,11.576,0,16.195,0H31.35
		c4.62,0,8.379,3.75,8.379,8.358l-0.006,0.109c-0.646,5.872-1.873,17.057-1.901,17.358l-0.087,0.904L36.825,26.734z M11.618,24.734
		h24.31c0.349-3.212,1.52-13.874,1.801-16.429C37.7,4.824,34.85,2,31.35,2H16.195c-3.499,0-6.348,2.824-6.377,6.305
		C10.199,11.775,11.285,21.662,11.618,24.734z"/>
	<g>
		<rect x="9.893" y="30.881" transform="matrix(0.9843 0.1767 -0.1767 0.9843 7.0651 -1.3112)" width="2" height="16.247"/>
		<rect x="28.53" y="38.005" transform="matrix(0.1769 0.9842 -0.9842 0.1769 68.5586 -3.9699)" width="16.246" height="2"/>
	</g>
	<g>
		<rect x="17.885" y="1.62" width="2" height="23.578"/>
		<rect x="27.66" y="1.62" width="2" height="23.578"/>
	</g>
	<g>
		<path d="M37.969,32.01H10.031c-2.804,0-5-1.598-5-3.637c0-2.04,2.196-3.639,5-3.639h27.938c2.804,0,5,1.599,5,3.639
			C42.969,30.412,40.772,32.01,37.969,32.01z M10.031,26.734c-1.717,0-3,0.865-3,1.639c0,0.772,1.283,1.637,3,1.637h27.938
			c1.717,0,3-0.864,3-1.637c0-0.773-1.283-1.639-3-1.639H10.031z"/>
	</g>
</g>
</svg>
