<?xml version="1.0" encoding="utf-8"?>
<!-- Generator: Adobe Illustrator 16.0.0, SVG Export Plug-In . SVG Version: 6.00 Build 0)  -->
<!DOCTYPE svg PUBLIC "-//W3C//DTD SVG 1.1//EN" "http://www.w3.org/Graphics/SVG/1.1/DTD/svg11.dtd">
<svg version="1.1" id="Layer_1" xmlns="http://www.w3.org/2000/svg" xmlns:xlink="http://www.w3.org/1999/xlink" x="0px" y="0px"
	 width="48px" height="48px" viewBox="0 0 48 48" enable-background="new 0 0 48 48" xml:space="preserve">
<g>
	<path d="M48,48H0V0h48V48z M2,46h44V2H2V46z"/>
	<path d="M33.146,48H14.854V24.2h18.292V48z M16.854,46h14.292V26.2H16.854V46z"/>
	<path d="M11.364,40.734H4.91V24.2h6.454V40.734z M6.91,38.734h2.454V26.2H6.91V38.734z"/>
	<path d="M43.01,40.734h-6.453V24.2h6.453V40.734z M38.557,38.734h2.453V26.2h-2.453V38.734z"/>
	<path d="M11.364,21.629H4.91V5.093h6.454V21.629z M6.91,19.629h2.454V7.093H6.91V19.629z"/>
	<path d="M43.01,21.629h-6.453V5.093h6.453V21.629z M38.557,19.629h2.453V7.093h-2.453V19.629z"/>
	<path d="M32.461,21.629h-6.454V5.093h6.454V21.629z M28.007,19.629h2.454V7.093h-2.454V19.629z"/>
	<path d="M21.913,21.629h-6.454V5.093h6.454V21.629z M17.459,19.629h2.454V7.093h-2.454V19.629z"/>
</g>
</svg>
