<?xml version="1.0" encoding="utf-8"?>
<!-- Generator: Adobe Illustrator 16.0.0, SVG Export Plug-In . SVG Version: 6.00 Build 0)  -->
<!DOCTYPE svg PUBLIC "-//W3C//DTD SVG 1.1//EN" "http://www.w3.org/Graphics/SVG/1.1/DTD/svg11.dtd">
<svg version="1.1" id="Layer_1" xmlns="http://www.w3.org/2000/svg" xmlns:xlink="http://www.w3.org/1999/xlink" x="0px" y="0px"
	 width="48px" height="48px" viewBox="0 0 48 48" enable-background="new 0 0 48 48" xml:space="preserve">
<g>
	<path d="M41.427,48H7.567V22.368L24.191,3.562l17.235,18.795V48z M9.567,46h29.86V23.135L24.219,6.551L9.567,23.125V46z"/>
	<polygon points="1.739,27.263 0.261,25.915 24.346,-0.489 47.743,25.487 46.257,26.825 24.336,2.489 	"/>
	<path d="M31.427,48H17.568V31.667c0-3.722,3.028-6.75,6.75-6.75h0.359c3.722,0,6.75,3.028,6.75,6.75V48z M19.568,46h9.859V31.667
		c0-2.619-2.131-4.75-4.75-4.75h-0.359c-2.619,0-4.75,2.131-4.75,4.75V46z"/>
	<path d="M24.497,23.391c-2.9,0-5.259-2.359-5.259-5.259s2.359-5.259,5.259-5.259c2.899,0,5.259,2.359,5.259,5.259
		S27.396,23.391,24.497,23.391z M24.497,14.873c-1.797,0-3.259,1.462-3.259,3.259c0,1.797,1.462,3.259,3.259,3.259
		c1.797,0,3.259-1.462,3.259-3.259C27.756,16.335,26.294,14.873,24.497,14.873z"/>
</g>
</svg>
