<?xml version="1.0" encoding="utf-8"?>
<!-- Generator: Adobe Illustrator 16.0.0, SVG Export Plug-In . SVG Version: 6.00 Build 0)  -->
<!DOCTYPE svg PUBLIC "-//W3C//DTD SVG 1.1//EN" "http://www.w3.org/Graphics/SVG/1.1/DTD/svg11.dtd">
<svg version="1.1" id="Layer_1" xmlns="http://www.w3.org/2000/svg" xmlns:xlink="http://www.w3.org/1999/xlink" x="0px" y="0px"
	 width="48px" height="48px" viewBox="0 0 48 48" enable-background="new 0 0 48 48" xml:space="preserve">
<g>
	<path d="M41.969,48H6.031C2.706,48,0,45.294,0,41.969V6.031C0,2.706,2.706,0,6.031,0h35.938C45.294,0,48,2.706,48,6.031v35.938
		C48,45.294,45.294,48,41.969,48z M6.031,2C3.809,2,2,3.809,2,6.031v35.938C2,44.191,3.809,46,6.031,46h35.938
		C44.191,46,46,44.191,46,41.969V6.031C46,3.809,44.191,2,41.969,2H6.031z"/>
	<path d="M42.969,42.969H5.031V5.031h37.938V42.969z M7.031,40.969h33.938V7.031H7.031V40.969z"/>
	<polygon points="26.233,34.558 16.396,23.244 7.926,34.119 6.348,32.891 16.311,20.098 26.403,31.704 34.416,24.441 40.685,32.518 
		39.104,33.744 34.16,27.373 	"/>
	<path d="M26.741,22.278c-2.646,0-4.799-2.153-4.799-4.799s2.153-4.799,4.799-4.799s4.799,2.153,4.799,4.799
		S29.388,22.278,26.741,22.278z M26.741,14.68c-1.544,0-2.799,1.255-2.799,2.799s1.255,2.799,2.799,2.799
		c1.543,0,2.799-1.255,2.799-2.799S28.284,14.68,26.741,14.68z"/>
</g>
</svg>
