<?xml version="1.0" encoding="utf-8"?>
<!-- Generator: Adobe Illustrator 16.0.0, SVG Export Plug-In . SVG Version: 6.00 Build 0)  -->
<!DOCTYPE svg PUBLIC "-//W3C//DTD SVG 1.1//EN" "http://www.w3.org/Graphics/SVG/1.1/DTD/svg11.dtd">
<svg version="1.1" id="Layer_1" xmlns="http://www.w3.org/2000/svg" xmlns:xlink="http://www.w3.org/1999/xlink" x="0px" y="0px"
	 width="48px" height="48px" viewBox="0 0 48 48" enable-background="new 0 0 48 48" xml:space="preserve">
<g>
	<path d="M47,21.285H28.837v-2H46v-4.86H2v4.86h17.246v2H1c-0.552,0-1-0.448-1-1v-6.86c0-0.552,0.448-1,1-1h46c0.553,0,1,0.448,1,1
		v6.86C48,20.837,47.553,21.285,47,21.285z"/>
	<path d="M44.835,48H3.165c-0.552,0-1-0.447-1-1V20.285c0-0.552,0.448-1,1-1h16.081v2H4.165V46h39.67V21.285H28.837v-2h15.998
		c0.553,0,1,0.448,1,1V47C45.835,47.553,45.388,48,44.835,48z"/>
	<path d="M29.117,48H18.885c-0.552,0-1-0.447-1-1V13.425c0-0.552,0.448-1,1-1h10.232c0.553,0,1,0.448,1,1V47
		C30.117,47.553,29.67,48,29.117,48z M19.885,46h8.232V14.425h-8.232V46z"/>
	<path d="M24.628,14.538c-0.708,0-1.382-0.083-1.969-0.3l0.076-0.207c-0.083-0.003-0.167-0.017-0.25-0.042
		c-0.056-0.017-0.108-0.039-0.159-0.064l-0.09,0.341c-1.817-0.477-7.787-2.386-8.303-6.938c-0.319-2.806,1.27-6.326,4.145-7.093
		c2.7-0.721,4.272,0.334,5.117,1.345c0.915,1.094,1.402,2.675,1.576,4.375c2.141-2.858,5.269-4.938,9.042-4.46
		c1.396,0.176,2.585,1.123,3.264,2.596c0.863,1.872,0.764,4.247-0.24,5.776c-1.642,2.498-4.563,3.374-7.203,3.9
		c-0.24,0.048-0.505,0.105-0.786,0.167C27.601,14.203,26.048,14.538,24.628,14.538z M24.058,12.514
		c1.273,0.132,3.092-0.26,4.367-0.535c0.291-0.063,0.566-0.122,0.816-0.172c2.348-0.469,4.689-1.161,5.923-3.038
		c0.625-0.951,0.666-2.602,0.096-3.84C35.034,4.439,34.514,3.6,33.563,3.48c-4.127-0.52-7.411,3.087-8.951,6.786
		C24.476,11.078,24.287,11.842,24.058,12.514z M19.751,2.001c-0.353,0-0.738,0.056-1.158,0.167c-1.797,0.479-2.893,3-2.673,4.934
		c0.27,2.382,3.249,4.117,6.015,4.995c0.17-0.776,0.417-1.576,0.733-2.372c0.373-2.477,0.195-5.422-1.008-6.861
		C21.178,2.287,20.548,2.001,19.751,2.001z"/>
</g>
</svg>
