<?xml version="1.0" encoding="utf-8"?>
<!-- Generator: Adobe Illustrator 16.0.0, SVG Export Plug-In . SVG Version: 6.00 Build 0)  -->
<!DOCTYPE svg PUBLIC "-//W3C//DTD SVG 1.1//EN" "http://www.w3.org/Graphics/SVG/1.1/DTD/svg11.dtd">
<svg version="1.1" id="Layer_1" xmlns="http://www.w3.org/2000/svg" xmlns:xlink="http://www.w3.org/1999/xlink" x="0px" y="0px"
	 width="48px" height="48px" viewBox="0 0 48 48" enable-background="new 0 0 48 48" xml:space="preserve">
<g>
	<path d="M48,42.202H0v-6.894h48V42.202z M2,40.202h44v-2.894H2V40.202z"/>
	<path d="M44.948,33.949H2.051l-0.005-1.236c0-12.105,9.849-21.954,21.954-21.954s21.954,9.849,21.954,21.954l-0.036,1.157
		L44.948,33.949z M4.061,31.949h39.879c-0.402-10.65-9.192-19.19-19.939-19.19S4.463,21.299,4.061,31.949z"/>
	<path d="M8.687,27.339l-1.894-0.643C9.297,19.325,16.212,14.373,24,14.373v2C17.069,16.373,10.916,20.78,8.687,27.339z"/>
	<path d="M28.206,12.626l-1.783-0.907c0.19-0.374,0.287-0.78,0.287-1.208C26.71,9.016,25.494,7.8,24,7.8s-2.71,1.216-2.71,2.711
		c0,0.407,0.087,0.797,0.259,1.158l-1.806,0.859c-0.301-0.631-0.453-1.31-0.453-2.017C19.29,7.913,21.403,5.8,24,5.8
		c2.597,0,4.71,2.113,4.71,4.711C28.71,11.247,28.535,11.978,28.206,12.626z"/>
</g>
</svg>
