<?xml version="1.0" encoding="utf-8"?>
<!-- Generator: Adobe Illustrator 16.0.0, SVG Export Plug-In . SVG Version: 6.00 Build 0)  -->
<!DOCTYPE svg PUBLIC "-//W3C//DTD SVG 1.1//EN" "http://www.w3.org/Graphics/SVG/1.1/DTD/svg11.dtd">
<svg version="1.1" id="Layer_1" xmlns="http://www.w3.org/2000/svg" xmlns:xlink="http://www.w3.org/1999/xlink" x="0px" y="0px"
	 width="48px" height="48px" viewBox="0 0 48 48" enable-background="new 0 0 48 48" xml:space="preserve">
<g>
	<path d="M47.697,48.261L0.371,37.182V16.083l0.174-0.255C9.956,2.057,20.746,0,26.34,0c2.128,0,3.431,0.305,3.485,0.318
		l0.352,0.084l17.521,23.411V48.261z M2.371,35.596l43.326,10.144v-21.26L29.024,2.2C28.556,2.123,27.618,2,26.34,2
		C21.174,2,11.22,3.918,2.371,16.703V35.596z"/>
	<rect x="0.251" y="19.636" transform="matrix(0.9808 0.1949 -0.1949 0.9808 4.4769 -4.2235)" width="46.895" height="2"/>
	<rect x="1.142" y="30.584" transform="matrix(0.9762 0.2168 -0.2168 0.9762 7.4168 -4.4298)" width="45.507" height="2.001"/>
</g>
</svg>
