<?xml version="1.0" encoding="utf-8"?>
<!-- Generator: Adobe Illustrator 16.0.0, SVG Export Plug-In . SVG Version: 6.00 Build 0)  -->
<!DOCTYPE svg PUBLIC "-//W3C//DTD SVG 1.1//EN" "http://www.w3.org/Graphics/SVG/1.1/DTD/svg11.dtd">
<svg version="1.1" id="Layer_1" xmlns="http://www.w3.org/2000/svg" xmlns:xlink="http://www.w3.org/1999/xlink" x="0px" y="0px"
	 width="48px" height="48px" viewBox="0 0 48 48" enable-background="new 0 0 48 48" xml:space="preserve">
<g>
	<path d="M44.046,41.541H4.148c-0.552,0-1-0.447-1-1V12.979c0-0.552,0.448-1,1-1h39.898c0.553,0,1,0.448,1,1v27.562
		C45.046,41.094,44.599,41.541,44.046,41.541z M5.148,39.541h37.898V13.979H5.148V39.541z"/>
	<rect x="3.148" y="7.761" width="2" height="38.386"/>
	<path d="M3.953,8.76C1.773,8.76,0,6.987,0,4.807s1.773-3.953,3.953-3.953s3.953,1.773,3.953,3.953S6.133,8.76,3.953,8.76z
		 M3.953,2.854C2.876,2.854,2,3.73,2,4.807C2,5.884,2.876,6.76,3.953,6.76s1.953-0.876,1.953-1.953
		C5.906,3.73,5.03,2.854,3.953,2.854z"/>
	<rect x="43.242" y="7.761" width="2" height="38.386"/>
	<path d="M44.047,8.76c-2.18,0-3.953-1.773-3.953-3.953s1.773-3.953,3.953-3.953S48,2.627,48,4.807S46.227,8.76,44.047,8.76z
		 M44.047,2.854c-1.077,0-1.953,0.876-1.953,1.953c0,1.077,0.876,1.953,1.953,1.953S46,5.884,46,4.807
		C46,3.73,45.124,2.854,44.047,2.854z"/>
	<g>
		<rect x="9.464" y="12.979" width="2" height="21.902"/>
		<rect x="16.281" y="12.979" width="2" height="21.902"/>
		<rect x="23.097" y="12.979" width="2" height="21.902"/>
		<rect x="29.914" y="12.979" width="2" height="21.902"/>
		<rect x="36.73" y="12.979" width="2" height="21.902"/>
	</g>
	<rect x="4.397" y="33.881" width="39.382" height="2"/>
</g>
</svg>
