<?xml version="1.0" encoding="utf-8"?>
<!-- Generator: Adobe Illustrator 16.0.0, SVG Export Plug-In . SVG Version: 6.00 Build 0)  -->
<!DOCTYPE svg PUBLIC "-//W3C//DTD SVG 1.1//EN" "http://www.w3.org/Graphics/SVG/1.1/DTD/svg11.dtd">
<svg version="1.1" id="Layer_1" xmlns="http://www.w3.org/2000/svg" xmlns:xlink="http://www.w3.org/1999/xlink" x="0px" y="0px"
	 width="48px" height="48px" viewBox="0 0 48 48" enable-background="new 0 0 48 48" xml:space="preserve">
<g>
	<g>
		<path d="M40,39.41H8c-4.411,0-8-3.589-8-8V10.237c0-4.411,3.589-8,8-8h32c4.411,0,8,3.589,8,8V31.41
			C48,35.821,44.411,39.41,40,39.41z M8,4.237c-3.309,0-6,2.691-6,6V31.41c0,3.309,2.691,6,6,6h32c3.309,0,6-2.691,6-6V10.237
			c0-3.309-2.691-6-6-6H8z"/>
	</g>
	<g>
		<path d="M14.215,45.764H6.708V37.34h7.507V45.764z M8.708,43.764h3.507V39.34H8.708V43.764z"/>
		<path d="M41.293,45.764h-7.508V37.34h7.508V45.764z M35.785,43.764h3.508V39.34h-3.508V43.764z"/>
	</g>
	<path d="M13.904,28.938c-4.474,0-8.114-3.64-8.114-8.113c0-4.474,3.64-8.114,8.114-8.114s8.114,3.64,8.114,8.114
		C22.018,25.298,18.378,28.938,13.904,28.938z M13.904,14.71c-3.371,0-6.114,2.743-6.114,6.114c0,3.371,2.743,6.113,6.114,6.113
		c3.372,0,6.114-2.742,6.114-6.113C20.018,17.453,17.275,14.71,13.904,14.71z"/>
	<g>
		<rect x="29.277" y="10.339" width="12.392" height="2"/>
		<rect x="29.277" y="15.081" width="12.392" height="2"/>
		<rect x="29.277" y="19.824" width="12.392" height="2"/>
		<rect x="29.277" y="24.564" width="12.392" height="2"/>
		<rect x="29.277" y="29.309" width="12.392" height="2"/>
	</g>
</g>
</svg>
