<?xml version="1.0" encoding="utf-8"?>
<!-- Generator: Adobe Illustrator 16.0.0, SVG Export Plug-In . SVG Version: 6.00 Build 0)  -->
<!DOCTYPE svg PUBLIC "-//W3C//DTD SVG 1.1//EN" "http://www.w3.org/Graphics/SVG/1.1/DTD/svg11.dtd">
<svg version="1.1" id="Layer_1" xmlns="http://www.w3.org/2000/svg" xmlns:xlink="http://www.w3.org/1999/xlink" x="0px" y="0px"
	 width="48px" height="48px" viewBox="0 0 48 48" enable-background="new 0 0 48 48" xml:space="preserve">
<g>
	<path d="M39.368,43.1H8.632c-3.797,0-6.892-3.066-6.936-6.854l-1.868-11.737h48.344l-1.867,11.737
		C46.26,40.033,43.166,43.1,39.368,43.1z M2.172,26.509l1.524,9.655c0,2.722,2.214,4.936,4.936,4.936h30.736
		c2.722,0,4.937-2.214,4.937-4.936l0.013-0.157l1.511-9.498H2.172z"/>
	<g>
		<rect x="2.356" y="40.613" transform="matrix(0.9343 0.3564 -0.3564 0.9343 15.8698 1.6869)" width="2" height="6.604"/>
		<rect x="41.341" y="42.914" transform="matrix(0.3561 0.9345 -0.9345 0.3561 69.7816 -13.4394)" width="6.604" height="2"/>
	</g>
	<g>
		<polygon points="3.483,25.456 1.483,25.456 1.483,4.729 10.597,0.644 11.415,2.469 3.483,6.023 		"/>
		<path d="M11.871,7.664c-1.817,0-3.299-0.919-3.777-2.341C7.762,4.344,7.956,3.23,8.625,2.269c0.615-0.883,1.576-1.58,2.707-1.961
			C11.938,0.103,12.556,0,13.17,0c1.816,0,3.299,0.918,3.778,2.338c0.666,1.975-0.756,4.179-3.239,5.018
			C13.104,7.56,12.485,7.664,11.871,7.664z M13.17,2c-0.396,0-0.8,0.068-1.199,0.203c-0.716,0.242-1.338,0.682-1.705,1.208
			c-0.178,0.256-0.451,0.762-0.278,1.272c0.284,0.846,1.729,1.231,3.083,0.777c1.372-0.463,2.28-1.601,1.982-2.483
			C14.854,2.383,14.114,2,13.17,2z"/>
	</g>
</g>
</svg>
