<?xml version="1.0" encoding="utf-8"?>
<!-- Generator: Adobe Illustrator 16.0.0, SVG Export Plug-In . SVG Version: 6.00 Build 0)  -->
<!DOCTYPE svg PUBLIC "-//W3C//DTD SVG 1.1//EN" "http://www.w3.org/Graphics/SVG/1.1/DTD/svg11.dtd">
<svg version="1.1" id="Layer_1" xmlns="http://www.w3.org/2000/svg" xmlns:xlink="http://www.w3.org/1999/xlink" x="0px" y="0px"
	 width="48px" height="48px" viewBox="0 0 48 48" enable-background="new 0 0 48 48" xml:space="preserve">
<g>
	<path d="M23.99,47.991c-0.184,0-0.367-0.047-0.523-0.146c-0.104-0.065-10.825-6.76-18.452-10.613
		c-9.045-4.568-3.237-17.528-2.544-18.991c1.04-2.195-0.072-9.247-2.151-11.18c-0.378-0.352-0.426-0.935-0.11-1.344
		c0.317-0.41,0.892-0.51,1.328-0.232c0.019,0.011,2.271,1.389,6.104,1.388c4.957,0,10.395-2.299,15.726-6.649
		c0.368-0.3,0.897-0.3,1.264,0c5.333,4.35,10.771,6.649,15.728,6.649c3.833,0,6.085-1.377,6.107-1.391
		c0.437-0.273,1.013-0.169,1.325,0.24c0.313,0.409,0.267,0.988-0.111,1.339c-2.078,1.933-3.188,8.985-2.148,11.18
		c0.692,1.463,6.499,14.422-2.547,18.992c-7.288,3.683-17.31,9.9-18.428,10.598C24.389,47.937,24.188,47.991,23.99,47.991z
		 M3.434,8.353c1.45,3.472,1.885,8.546,0.844,10.745c-0.607,1.282-5.716,12.635,1.639,16.35C12.673,38.861,21.695,44.394,24,45.822
		c2.389-1.478,11.369-6.981,18.083-10.374c7.355-3.715,2.248-15.068,1.642-16.351c-1.041-2.199-0.607-7.273,0.842-10.746
		c-1.119,0.292-2.533,0.522-4.207,0.522c-5.299,0-10.8-2.217-16.359-6.593C18.441,6.657,12.941,8.874,7.642,8.874
		C5.967,8.874,4.553,8.644,3.434,8.353z"/>
	<path d="M15.464,36.59c-0.206,0-0.412-0.063-0.588-0.191c-0.366-0.266-0.508-0.744-0.346-1.167l3.643-9.498l-8.53-5.542
		c-0.379-0.246-0.546-0.717-0.406-1.147c0.14-0.43,0.555-0.714,1.003-0.689l10.159,0.528l2.636-9.824
		C23.151,8.622,23.547,8.318,24,8.318s0.849,0.304,0.966,0.741l2.636,9.824l10.159-0.528c0.472-0.029,0.863,0.26,1.003,0.689
		c0.14,0.431-0.027,0.901-0.406,1.147l-8.53,5.542l3.644,9.498c0.162,0.423,0.021,0.901-0.346,1.167
		c-0.366,0.268-0.865,0.255-1.217-0.031L24,29.968l-7.907,6.399C15.91,36.516,15.687,36.59,15.464,36.59z M24,27.682
		c0.223,0,0.446,0.074,0.629,0.223l5.64,4.563l-2.599-6.773c-0.169-0.44-0.007-0.939,0.389-1.197l6.084-3.953l-7.245,0.376
		c-0.491,0.02-0.896-0.285-1.018-0.739L24,13.177l-1.879,7.005c-0.123,0.456-0.548,0.767-1.018,0.739l-7.245-0.376l6.083,3.953
		c0.396,0.257,0.558,0.755,0.389,1.197l-2.598,6.773l5.639-4.563C23.554,27.756,23.777,27.682,24,27.682z"/>
</g>
</svg>
