<?xml version="1.0" encoding="utf-8"?>
<!-- Generator: Adobe Illustrator 16.0.0, SVG Export Plug-In . SVG Version: 6.00 Build 0)  -->
<!DOCTYPE svg PUBLIC "-//W3C//DTD SVG 1.1//EN" "http://www.w3.org/Graphics/SVG/1.1/DTD/svg11.dtd">
<svg version="1.1" id="Layer_1" xmlns="http://www.w3.org/2000/svg" xmlns:xlink="http://www.w3.org/1999/xlink" x="0px" y="0px"
	 width="48px" height="48px" viewBox="0 0 48 48" enable-background="new 0 0 48 48" xml:space="preserve">
<g>
	<path d="M46.999,29.257H1c-0.552,0-1-0.447-1-1V14.054C0,3.761,7.145,0.05,13.264,0c5.84,0,9.994,5.098,12.225,7.837
		c0.485,0.595,1.034,1.269,1.229,1.402c4.507,2.948,20.177,3.808,20.334,3.816c0.531,0.028,0.947,0.467,0.947,0.999v14.203
		C47.999,28.81,47.552,29.257,46.999,29.257z M2,27.257h43.999V14.995c-3.578-0.238-16.06-1.258-20.377-4.082
		c-0.444-0.291-0.938-0.896-1.684-1.813C21.917,6.619,18.154,2,13.34,2C11.396,2.016,2,2.669,2,14.054V27.257z"/>
	<path d="M47,48H1c-0.552,0-1-0.447-1-1V28.257c0-0.553,0.448-1,1-1h46c0.553,0,1,0.447,1,1V47C48,47.553,47.553,48,47,48z M2,46h44
		V29.257H2V46z"/>
	<g>
		<rect x="9.233" y="29.134" width="2" height="9.441"/>
		<rect x="18.412" y="29.134" width="2" height="9.441"/>
		<rect x="27.59" y="29.134" width="2" height="9.441"/>
		<rect x="36.768" y="29.134" width="2" height="9.441"/>
	</g>
</g>
</svg>
