<?xml version="1.0" encoding="utf-8"?>
<!-- Generator: Adobe Illustrator 16.0.0, SVG Export Plug-In . SVG Version: 6.00 Build 0)  -->
<!DOCTYPE svg PUBLIC "-//W3C//DTD SVG 1.1//EN" "http://www.w3.org/Graphics/SVG/1.1/DTD/svg11.dtd">
<svg version="1.1" id="Layer_1" xmlns="http://www.w3.org/2000/svg" xmlns:xlink="http://www.w3.org/1999/xlink" x="0px" y="0px"
	 width="48px" height="48px" viewBox="0 0 48 48" enable-background="new 0 0 48 48" xml:space="preserve">
<g>
	<path d="M11.255,27.375C5.049,27.375,0,22.374,0,16.227v-5.07c0-6.148,5.049-11.15,11.255-11.15h19.92
		c6.206,0,11.255,5.001,11.255,11.149v5.07c0,6.147-5.049,11.148-11.255,11.148h-5.452v-2h5.452c5.104,0,9.255-4.104,9.255-9.148
		v-5.07c0-5.045-4.151-9.149-9.255-9.149h-19.92C6.152,2.007,2,6.112,2,11.157v5.07c0,5.044,4.152,9.148,9.255,9.148V27.375z"/>
	<g>
		<g>
			<path d="M28.973,47.97c-0.486-0.022-0.976-0.052-1.47-0.091l0.158-1.994c0.471,0.037,0.938,0.066,1.401,0.087L28.973,47.97z"/>
			<path d="M31.861,47.992l-0.055-2c1.291-0.035,2.57-0.136,3.804-0.297l0.26,1.982C34.569,47.849,33.221,47.954,31.861,47.992z
				 M39.845,46.904l-0.516-1.932c1.414-0.378,2.583-0.833,3.379-1.316l1.037,1.711C42.789,45.946,41.44,46.479,39.845,46.904z
				 M46.766,42.21l-1.719-1.023c0.604-1.014,0.924-2.102,0.951-3.232l2,0.049C47.962,39.461,47.536,40.916,46.766,42.21z
				 M23.005,38.452c-0.434-0.024-0.855-0.035-1.284-0.104l0.318-1.975c0.323,0.052,0.63,0.06,0.964,0.078
				c0.774,0,1.547-0.152,2.363-0.467l0.719,1.867C25.035,38.256,24.027,38.452,23.005,38.452z M17.708,36.264
				c-0.396-0.466-0.737-1.004-1.043-1.646c-0.351-0.733-0.545-1.622-0.564-2.57l2-0.039c0.013,0.665,0.14,1.27,0.369,1.748
				c0.231,0.483,0.48,0.88,0.762,1.212L17.708,36.264z M29.701,35.797l-1.158-1.631c0.404-0.287,0.805-0.583,1.201-0.877
				c0.655-0.484,1.333-0.985,2.012-1.432l1.1,1.67c-0.641,0.422-1.277,0.894-1.922,1.37C30.526,35.199,30.116,35.502,29.701,35.797z
				 M45.195,34.705c-0.551-0.992-1.358-1.824-2.335-2.406l1.023-1.719c1.28,0.763,2.338,1.854,3.06,3.154L45.195,34.705z
				 M36.122,31.886l-0.646-1.893c1.438-0.492,2.874-0.714,4.225-0.646l-0.1,1.998C38.502,31.29,37.319,31.476,36.122,31.886z"/>
			<path d="M18.624,29.261l-1.859-0.736c0.192-0.485,0.427-0.968,0.699-1.432l1.727,1.01C18.969,28.479,18.779,28.869,18.624,29.261
				z"/>
		</g>
	</g>
	<path d="M25.356,28.693L11.932,25.18l8.469-4.955L25.356,28.693z M17.11,24.467l4.082,1.068l-1.506-2.574L17.11,24.467z"/>
	<g>
		<rect x="20.216" y="4.451" transform="matrix(0.7071 0.7071 -0.7071 0.7071 14.9388 -11.3877)" width="2" height="15.776"/>
		<rect x="13.327" y="11.339" transform="matrix(0.7071 0.7072 -0.7072 0.7071 14.9404 -11.3881)" width="15.776" height="2"/>
	</g>
</g>
</svg>
