<?xml version="1.0" encoding="utf-8"?>
<!-- Generator: Adobe Illustrator 16.0.0, SVG Export Plug-In . SVG Version: 6.00 Build 0)  -->
<!DOCTYPE svg PUBLIC "-//W3C//DTD SVG 1.1//EN" "http://www.w3.org/Graphics/SVG/1.1/DTD/svg11.dtd">
<svg version="1.1" id="Layer_1" xmlns="http://www.w3.org/2000/svg" xmlns:xlink="http://www.w3.org/1999/xlink" x="0px" y="0px"
	 width="48px" height="48px" viewBox="0 0 48 48" enable-background="new 0 0 48 48" xml:space="preserve">
<g>
	<g>
		<path d="M15.167,41.43L3.888,27.684c-1.015-1.492-1.364-3.205-1.037-4.896c0.326-1.691,1.287-3.151,2.706-4.111l1.167-0.789
			c1.063-0.719,2.306-1.1,3.593-1.1c2.148,0,4.145,1.055,5.341,2.822l8.614,15.661L15.167,41.43z M10.316,18.787
			c-0.886,0-1.741,0.262-2.472,0.757l-1.167,0.789c-0.976,0.66-1.638,1.667-1.863,2.833s0.015,2.347,0.675,3.322l10.067,12.264
			l6.084-4.116l-7.688-13.984C13.177,19.514,11.8,18.787,10.316,18.787z"/>
		<path d="M22.142,48.001C22.142,48.001,22.142,48.001,22.142,48.001c-1.713,0-3.305-0.842-4.259-2.251l-2.144-3.168l9.386-6.354
			l2.145,3.167c0.766,1.131,1.045,2.497,0.784,3.848c-0.261,1.349-1.026,2.514-2.158,3.28l-0.887,0.599
			C24.161,47.697,23.168,48.001,22.142,48.001z M18.517,43.117l1.022,1.512c0.582,0.859,1.554,1.372,2.602,1.372c0,0,0,0,0,0
			c0.626,0,1.23-0.185,1.747-0.535l0.887-0.599c0.688-0.467,1.155-1.178,1.314-2.003s-0.01-1.659-0.477-2.348l-1.023-1.511
			L18.517,43.117z"/>
	</g>
	<g>
		<path d="M43.626,37.172H32.632l-1.637-17.707c-0.004-3.64,2.882-6.526,6.43-6.526h1.407c3.549,0,6.436,2.886,6.436,6.434
			L43.626,37.172z M34.455,35.172h7.347l1.47-15.891c-0.004-2.353-1.994-4.342-4.439-4.342h-1.407c-2.444,0-4.434,1.989-4.434,4.434
			L34.455,35.172z"/>
		<path d="M38.663,47.4h-1.069c-2.83,0-5.132-2.302-5.132-5.131v-3.826h11.333v3.826C43.795,45.099,41.493,47.4,38.663,47.4z
			 M34.462,40.443v1.826c0,1.727,1.405,3.131,3.132,3.131h1.069c1.727,0,3.132-1.404,3.132-3.131v-1.826H34.462z"/>
	</g>
	<g>
		<path d="M36.5,11.938l-9.912-2.876l12.785-7.04L36.5,11.938z M31.779,8.485l3.357,0.974l0.973-3.358L31.779,8.485z"/>
		<path d="M8.337,14.882c-0.03-0.331-0.044-0.661-0.044-0.99c0-1.109,0.168-2.233,0.5-3.339l1.916,0.575
			c-0.276,0.919-0.416,1.85-0.416,2.764c0,0.269,0.012,0.538,0.037,0.808L8.337,14.882z M12.324,7.837l-1.64-1.146
			c0.806-1.153,1.783-2.203,2.903-3.121l1.267,1.548C13.876,5.919,13.025,6.834,12.324,7.837z M28.776,3.288
			c-1.129-0.555-2.311-0.936-3.513-1.131l0.32-1.975c1.398,0.228,2.77,0.668,4.075,1.312L28.776,3.288z M18.021,3.159l-0.817-1.825
			c1.321-0.592,2.699-0.992,4.096-1.19l0.28,1.98C20.368,2.295,19.171,2.644,18.021,3.159z"/>
	</g>
</g>
</svg>
