<?xml version="1.0" encoding="utf-8"?>
<!-- Generator: Adobe Illustrator 16.0.0, SVG Export Plug-In . SVG Version: 6.00 Build 0)  -->
<!DOCTYPE svg PUBLIC "-//W3C//DTD SVG 1.1//EN" "http://www.w3.org/Graphics/SVG/1.1/DTD/svg11.dtd">
<svg version="1.1" id="Layer_1" xmlns="http://www.w3.org/2000/svg" xmlns:xlink="http://www.w3.org/1999/xlink" x="0px" y="0px"
	 width="48px" height="48px" viewBox="0 0 48 48" enable-background="new 0 0 48 48" xml:space="preserve">
<g>
	<path d="M41.969,39.964H6.031C2.706,39.964,0,37.259,0,33.934v-5.232h1c2.894,0,5.248-2.354,5.248-5.248
		c0-2.895-2.354-5.25-5.248-5.25H0v-4.137c0-3.325,2.705-6.03,6.029-6.03h35.939c3.325,0,6.031,2.706,6.031,6.031v4.137h-1
		c-2.894,0-5.248,2.354-5.248,5.249c0,2.894,2.354,5.248,5.248,5.248h1v5.232C48,37.259,45.294,39.964,41.969,39.964z M2,30.633
		v3.301c0,2.223,1.809,4.03,4.031,4.03h35.938c2.223,0,4.031-1.808,4.031-4.03v-3.301c-3.525-0.489-6.248-3.522-6.248-7.18
		c0-3.658,2.723-6.691,6.248-7.18v-2.206c0-2.223-1.809-4.031-4.031-4.031H6.031c-1.072,0-2.083,0.42-2.847,1.184S2,12.995,2,14.066
		v2.206c3.525,0.489,6.248,3.523,6.248,7.181C8.248,27.11,5.525,30.144,2,30.633z M23.922,29.754c-1.366,0-2.66-0.629-3.601-1.72
		c-1.285,0.597-2.833,0.919-4.457,0.919c-4.265,0-7.605-2.176-7.605-4.953s3.341-4.953,7.605-4.953c1.624,0,3.172,0.322,4.457,0.919
		c0.941-1.09,2.235-1.72,3.601-1.72c1.396,0,2.708,0.648,3.65,1.772c1.306-0.631,2.891-0.972,4.564-0.972
		c4.266,0,7.606,2.176,7.606,4.953s-3.341,4.953-7.606,4.953c-1.678,0-3.263-0.341-4.565-0.971
		C26.629,29.105,25.318,29.754,23.922,29.754z M20.95,25.359l0.523,0.866c0.577,0.957,1.493,1.528,2.449,1.528
		c0.982,0,1.912-0.593,2.486-1.586l0.528-0.913l0.884,0.577c1.092,0.712,2.665,1.121,4.316,1.121c3.304,0,5.606-1.557,5.606-2.953
		c0-1.397-2.303-2.953-5.606-2.953c-1.647,0-3.221,0.409-4.318,1.123l-0.883,0.574l-0.528-0.912
		c-0.573-0.993-1.503-1.585-2.485-1.585c-0.957,0-1.872,0.571-2.449,1.528l-0.523,0.867l-0.86-0.533
		c-1.087-0.674-2.627-1.061-4.225-1.061c-3.303,0-5.605,1.556-5.605,2.953c0,1.396,2.302,2.953,5.605,2.953
		c1.596,0,3.136-0.387,4.226-1.062L20.95,25.359z"/>
</g>
</svg>
