<?xml version="1.0" encoding="utf-8"?>
<!-- Generator: Adobe Illustrator 16.0.0, SVG Export Plug-In . SVG Version: 6.00 Build 0)  -->
<!DOCTYPE svg PUBLIC "-//W3C//DTD SVG 1.1//EN" "http://www.w3.org/Graphics/SVG/1.1/DTD/svg11.dtd">
<svg version="1.1" id="Layer_1" xmlns="http://www.w3.org/2000/svg" xmlns:xlink="http://www.w3.org/1999/xlink" x="0px" y="0px"
	 width="48px" height="48px" viewBox="0 0 48 48" enable-background="new 0 0 48 48" xml:space="preserve">
<g>
	<path d="M24.002,21.97c-0.136,0-0.271-0.027-0.398-0.083L0.602,11.901C0.236,11.743,0,11.382,0,10.984s0.236-0.759,0.602-0.917
		l22.999-9.984c0.255-0.11,0.542-0.11,0.796,0l23.001,9.984C47.764,10.225,48,10.585,48,10.984s-0.236,0.759-0.602,0.917
		L24.4,21.888C24.273,21.942,24.138,21.97,24.002,21.97z M3.511,10.984l20.491,8.896l20.487-8.896L23.999,2.09L3.511,10.984z"/>
	<path d="M24.002,28.285c-0.136,0-0.271-0.027-0.398-0.083L0.602,18.216C0.236,18.058,0,17.697,0,17.299s0.236-0.759,0.602-0.917
		l7.273-3.157l0.796,1.835l-5.16,2.239l20.491,8.896l20.486-8.895l-5.16-2.239l0.797-1.835l7.273,3.157
		C47.764,16.542,48,16.902,48,17.301s-0.236,0.759-0.602,0.917L24.4,28.202C24.273,28.258,24.138,28.285,24.002,28.285z"/>
	<path d="M24.002,34.855c-0.136,0-0.271-0.027-0.398-0.083L0.602,24.788C0.236,24.63,0,24.27,0,23.871s0.236-0.759,0.602-0.917
		l7.273-3.158l0.797,1.835l-5.16,2.241l20.491,8.895l20.486-8.895l-5.16-2.239l0.797-1.835l7.273,3.156
		C47.764,23.112,48,23.473,48,23.871s-0.236,0.759-0.602,0.917L24.4,34.772C24.273,34.828,24.138,34.855,24.002,34.855z"/>
	<path d="M24.002,41.43c-0.136,0-0.271-0.027-0.398-0.083L0.602,31.358C0.236,31.2,0,30.84,0,30.441s0.236-0.759,0.602-0.917
		l7.273-3.156l0.796,1.834l-5.16,2.239l20.491,8.898l20.487-8.898l-5.161-2.239l0.797-1.834l7.273,3.156
		C47.764,29.683,48,30.043,48,30.441s-0.236,0.759-0.602,0.917L24.4,41.347C24.273,41.402,24.138,41.43,24.002,41.43z"/>
	<path d="M24.002,48c-0.136,0-0.271-0.027-0.398-0.083L0.602,37.933C0.236,37.774,0,37.414,0,37.016s0.236-0.759,0.602-0.917
		l7.273-3.16l0.797,1.834L3.51,37.016l20.492,8.895l20.487-8.895l-5.161-2.243l0.797-1.834l7.273,3.16
		C47.764,36.257,48,36.617,48,37.016s-0.236,0.759-0.602,0.917L24.4,47.917C24.273,47.973,24.138,48,24.002,48z"/>
</g>
</svg>
