<?xml version="1.0" encoding="utf-8"?>
<!-- Generator: Adobe Illustrator 16.0.0, SVG Export Plug-In . SVG Version: 6.00 Build 0)  -->
<!DOCTYPE svg PUBLIC "-//W3C//DTD SVG 1.1//EN" "http://www.w3.org/Graphics/SVG/1.1/DTD/svg11.dtd">
<svg version="1.1" id="Layer_1" xmlns="http://www.w3.org/2000/svg" xmlns:xlink="http://www.w3.org/1999/xlink" x="0px" y="0px"
	 width="48px" height="48px" viewBox="0 0 48 48" enable-background="new 0 0 48 48" xml:space="preserve">
<g>
	<path d="M24.002,29.958c-0.18,0-0.36-0.049-0.52-0.146L0.48,15.833C0.182,15.651,0,15.327,0,14.978s0.182-0.673,0.48-0.854
		L23.479,0.146c0.319-0.194,0.72-0.194,1.039,0L47.52,14.124c0.298,0.181,0.48,0.505,0.48,0.854s-0.183,0.673-0.48,0.854
		l-22.998,13.98C24.362,29.909,24.182,29.958,24.002,29.958z M2.925,14.978l21.077,12.81l21.072-12.81L23.999,2.17L2.925,14.978z"/>
	<path d="M24.002,38.799c-0.18,0-0.36-0.049-0.52-0.146L0.48,24.673C0.182,24.491,0,24.167,0,23.818s0.182-0.673,0.48-0.854
		l7.274-4.421l1.039,1.709l-5.868,3.566l21.077,12.811L45.074,23.82l-5.867-3.564l1.039-1.709l7.273,4.419
		C47.817,23.146,48,23.471,48,23.82s-0.183,0.673-0.48,0.855L24.521,38.653C24.362,38.75,24.182,38.799,24.002,38.799z"/>
	<path d="M24.002,48c-0.18,0-0.36-0.049-0.52-0.146L0.48,33.874C0.182,33.692,0,33.369,0,33.02s0.182-0.673,0.48-0.854l7.274-4.422
		l1.039,1.709L2.925,33.02L24.002,45.83L45.074,33.02l-5.867-3.563l1.039-1.709l7.273,4.418C47.817,32.346,48,32.67,48,33.02
		c0,0.349-0.182,0.673-0.48,0.854l-22.998,13.98C24.362,47.951,24.182,48,24.002,48z"/>
</g>
</svg>
