<?xml version="1.0" encoding="utf-8"?>
<!-- Generator: Adobe Illustrator 16.0.0, SVG Export Plug-In . SVG Version: 6.00 Build 0)  -->
<!DOCTYPE svg PUBLIC "-//W3C//DTD SVG 1.1//EN" "http://www.w3.org/Graphics/SVG/1.1/DTD/svg11.dtd">
<svg version="1.1" id="Layer_1" xmlns="http://www.w3.org/2000/svg" xmlns:xlink="http://www.w3.org/1999/xlink" x="0px" y="0px"
	 width="48px" height="48px" viewBox="0 0 48 48" enable-background="new 0 0 48 48" xml:space="preserve">
<g>
	<g>
		<path d="M24.001,2c1.411,0,2.721,0.473,3.69,1.333l17.345,15.391c0.385,0.342,0.627,0.625,0.773,0.832
			c-0.266,0.066-0.674,0.126-1.253,0.126h-2.302h-2v2V46H7.749V21.682v-2h-2H3.444c-0.58,0-0.988-0.06-1.254-0.126
			c0.146-0.207,0.389-0.49,0.773-0.831L20.314,3.332C21.281,2.473,22.591,2,24.001,2 M24.001,0c-1.819,0-3.637,0.612-5.015,1.836
			L1.637,17.228c-2.759,2.449-1.945,4.454,1.808,4.454h2.305V48h36.506V21.682h2.302c3.753,0,4.564-2.005,1.808-4.454L29.019,1.836
			C27.639,0.612,25.82,0,24.001,0L24.001,0z"/>
	</g>
	<g>
		<path d="M30.06,26.816V46H17.942V26.816H30.06 M31.06,24.816H16.942c-0.55,0-1,0.45-1,1V47c0,0.55,0.45,1,1,1H31.06
			c0.55,0,1-0.45,1-1V25.816C32.06,25.267,31.609,24.816,31.06,24.816L31.06,24.816z"/>
	</g>
</g>
</svg>
