<?xml version="1.0" encoding="utf-8"?>
<!-- Generator: Adobe Illustrator 16.0.0, SVG Export Plug-In . SVG Version: 6.00 Build 0)  -->
<!DOCTYPE svg PUBLIC "-//W3C//DTD SVG 1.1//EN" "http://www.w3.org/Graphics/SVG/1.1/DTD/svg11.dtd">
<svg version="1.1" id="Layer_1" xmlns="http://www.w3.org/2000/svg" xmlns:xlink="http://www.w3.org/1999/xlink" x="0px" y="0px"
	 width="48px" height="48px" viewBox="0 0 48 48" enable-background="new 0 0 48 48" xml:space="preserve">
<g>
	<path fill="none" stroke="#000000" stroke-width="2" stroke-miterlimit="10" d="M44.402,19.575l-2.9,21.635
		c0,3.075-2.313,5.591-5.145,5.591H11.643c-2.831,0-5.145-2.516-5.145-5.591l-2.9-21.635"/>
	<g>
		<path d="M46,10.56v8.82H2v-8.82H46 M46,8.56H2c-1.1,0-2,0.9-2,2v8.82c0,1.1,0.9,2,2,2h44c1.1,0,2-0.9,2-2v-8.82
			C48,9.459,47.1,8.56,46,8.56L46,8.56z"/>
	</g>
	<g>
		
			<line fill="none" stroke="#000000" stroke-width="2" stroke-linecap="round" stroke-miterlimit="10" x1="6.176" y1="1.199" x2="12.489" y2="9.654"/>
		
			<line fill="none" stroke="#000000" stroke-width="2" stroke-linecap="round" stroke-miterlimit="10" x1="41.824" y1="1.199" x2="35.511" y2="9.654"/>
	</g>
</g>
</svg>
