<?xml version="1.0" encoding="utf-8"?>
<!-- Generator: Adobe Illustrator 16.0.0, SVG Export Plug-In . SVG Version: 6.00 Build 0)  -->
<!DOCTYPE svg PUBLIC "-//W3C//DTD SVG 1.1//EN" "http://www.w3.org/Graphics/SVG/1.1/DTD/svg11.dtd">
<svg version="1.1" id="Layer_1" xmlns="http://www.w3.org/2000/svg" xmlns:xlink="http://www.w3.org/1999/xlink" x="0px" y="0px"
	 width="48px" height="48px" viewBox="0 0 48 48" enable-background="new 0 0 48 48" xml:space="preserve">
<g>
	<g>
		<path fill="none" stroke="#000000" stroke-width="2" stroke-miterlimit="10" d="M44.4,19.247l-2.897,21.635
			c0,3.074-2.315,5.59-5.146,5.59H11.643c-2.833,0-5.148-2.516-5.148-5.59L3.598,19.247"/>
		<g>
			<path d="M46,10.231v8.821H2v-8.821H46 M46,8.231H2c-1.1,0-2,0.9-2,2v8.821c0,1.1,0.9,2,2,2h44c1.1,0,2-0.9,2-2v-8.821
				C48,9.131,47.1,8.231,46,8.231L46,8.231z"/>
		</g>
		<g>
			
				<line fill="none" stroke="#000000" stroke-width="2" stroke-linecap="round" stroke-miterlimit="10" x1="19.834" y1="1.528" x2="8.186" y2="9.326"/>
			
				<line fill="none" stroke="#000000" stroke-width="2" stroke-linecap="round" stroke-miterlimit="10" x1="28.16" y1="1.528" x2="39.809" y2="9.326"/>
		</g>
	</g>
	<g>
		<path d="M20.332,32.19c0,1.158-0.938,2.094-2.092,2.094c-1.16,0-2.098-0.936-2.098-2.094s0.938-2.094,2.098-2.094
			C19.395,30.097,20.332,31.032,20.332,32.19z"/>
		<path d="M31.853,32.19c0,1.158-0.938,2.094-2.093,2.094c-1.159,0-2.098-0.936-2.098-2.094s0.938-2.094,2.098-2.094
			C30.914,30.097,31.853,31.032,31.853,32.19z"/>
	</g>
</g>
</svg>
