<?xml version="1.0" encoding="utf-8"?>
<!-- Generator: Adobe Illustrator 16.0.0, SVG Export Plug-In . SVG Version: 6.00 Build 0)  -->
<!DOCTYPE svg PUBLIC "-//W3C//DTD SVG 1.1//EN" "http://www.w3.org/Graphics/SVG/1.1/DTD/svg11.dtd">
<svg version="1.1" id="Layer_1" xmlns="http://www.w3.org/2000/svg" xmlns:xlink="http://www.w3.org/1999/xlink" x="0px" y="0px"
	 width="48px" height="48px" viewBox="0 0 48 48" enable-background="new 0 0 48 48" xml:space="preserve">
<g>
	<g>
		<path d="M46,2v44H2V2H46 M46,0H2C0.9,0,0,0.9,0,2v44c0,1.1,0.9,2,2,2h44c1.1,0,2-0.9,2-2V2C48,0.9,47.1,0,46,0L46,0z"/>
	</g>
	<g>
		<path d="M35.782,2v14.675H12.227V2H35.782 M36.782,0H11.227c-0.55,0-1,0.45-1,1v16.675c0,0.55,0.45,1,1,1h25.556
			c0.55,0,1-0.45,1-1V1C37.782,0.45,37.332,0,36.782,0L36.782,0z"/>
	</g>
	<g>
		<path d="M35.782,26v20H12.227V26H35.782 M36.782,24H11.227c-0.55,0-1,0.45-1,1v22c0,0.55,0.45,1,1,1h25.556c0.55,0,1-0.45,1-1V25
			C37.782,24.45,37.332,24,36.782,24L36.782,24z"/>
	</g>
</g>
</svg>
