<?xml version="1.0" encoding="utf-8"?>
<!-- Generator: Adobe Illustrator 16.0.0, SVG Export Plug-In . SVG Version: 6.00 Build 0)  -->
<!DOCTYPE svg PUBLIC "-//W3C//DTD SVG 1.1//EN" "http://www.w3.org/Graphics/SVG/1.1/DTD/svg11.dtd">
<svg version="1.1" id="Layer_1" xmlns="http://www.w3.org/2000/svg" xmlns:xlink="http://www.w3.org/1999/xlink" x="0px" y="0px"
	 width="48px" height="48px" viewBox="0 0 48 48" enable-background="new 0 0 48 48" xml:space="preserve">
<g>
	<g>
		<path d="M46,2v44H2V2H46 M46,0H2C0.9,0,0,0.9,0,2v44c0,1.1,0.9,2,2,2h44c1.1,0,2-0.9,2-2V2C48,0.9,47.1,0,46,0L46,0z"/>
	</g>
	<g>
		<path d="M35.776,2v14.677H12.218V2H35.776 M36.776,0H11.218c-0.55,0-1,0.45-1,1v16.677c0,0.55,0.45,1,1,1h25.559
			c0.55,0,1-0.45,1-1V1C37.776,0.45,37.326,0,36.776,0L36.776,0z"/>
	</g>
	<g>
		<path fill="none" stroke="#000000" stroke-width="2" stroke-miterlimit="10" d="M31.91,30.31c0,4.369-3.542,7.911-7.909,7.911
			c-4.372,0-7.917-3.542-7.917-7.911c0-4.373,3.545-7.914,7.917-7.914C28.368,22.396,31.91,25.937,31.91,30.31z"/>
		
			<line fill="none" stroke="#000000" stroke-width="2" stroke-linecap="round" stroke-miterlimit="10" x1="30.737" y1="35.761" x2="36.386" y2="40.679"/>
	</g>
</g>
</svg>
