<?xml version="1.0" encoding="utf-8"?>
<!-- Generator: Adobe Illustrator 16.0.0, SVG Export Plug-In . SVG Version: 6.00 Build 0)  -->
<!DOCTYPE svg PUBLIC "-//W3C//DTD SVG 1.1//EN" "http://www.w3.org/Graphics/SVG/1.1/DTD/svg11.dtd">
<svg version="1.1" id="Layer_1" xmlns="http://www.w3.org/2000/svg" xmlns:xlink="http://www.w3.org/1999/xlink" x="0px" y="0px"
	 width="48px" height="48px" viewBox="0 0 48 48" enable-background="new 0 0 48 48" xml:space="preserve">
<g>
	<path fill="none" stroke="#000000" stroke-width="2" stroke-linecap="round" stroke-linejoin="round" stroke-miterlimit="10" d="
		M20.874,44.048c0,1.623-1.324,2.952-2.952,2.952h-7.468c-1.623,0-2.952-1.329-2.952-2.952V31.854c0-1.622,1.329-2.951,2.952-2.951
		h7.468c1.627,0,2.952,1.329,2.952,2.951V44.048z"/>
	<path fill="none" stroke="#000000" stroke-width="2" stroke-linecap="round" stroke-linejoin="round" stroke-miterlimit="10" d="
		M41.038,43.862c0,1.725-1.408,3.138-3.134,3.138h-7.938c-1.72,0-3.134-1.413-3.134-3.138V25.005c0-1.722,6.141-4.607,7.139-4.607
		c0.987,0,7.067,2.886,7.067,4.607V43.862z"/>
	
		<line fill="none" stroke="#000000" stroke-width="2" stroke-linecap="round" stroke-linejoin="round" stroke-miterlimit="10" x1="14.188" y1="1" x2="14.188" y2="27.829"/>
	
		<line fill="none" stroke="#000000" stroke-width="2" stroke-linecap="round" stroke-linejoin="round" stroke-miterlimit="10" x1="9.117" y1="3.926" x2="19.262" y2="3.926"/>
	
		<line fill="none" stroke="#000000" stroke-width="2" stroke-linecap="round" stroke-linejoin="round" stroke-miterlimit="10" x1="6.961" y1="8.482" x2="21.415" y2="8.482"/>
	
		<line fill="none" stroke="#000000" stroke-width="2" stroke-linecap="round" stroke-linejoin="round" stroke-miterlimit="10" x1="9.117" y1="13.039" x2="19.262" y2="13.039"/>
</g>
</svg>
