<?xml version="1.0" encoding="utf-8"?>
<!-- Generator: Adobe Illustrator 16.0.0, SVG Export Plug-In . SVG Version: 6.00 Build 0)  -->
<!DOCTYPE svg PUBLIC "-//W3C//DTD SVG 1.1//EN" "http://www.w3.org/Graphics/SVG/1.1/DTD/svg11.dtd">
<svg version="1.1" id="Layer_1" xmlns="http://www.w3.org/2000/svg" xmlns:xlink="http://www.w3.org/1999/xlink" x="0px" y="0px"
	 width="48px" height="48px" viewBox="0 0 48 48" enable-background="new 0 0 48 48" xml:space="preserve">
<g>
	<polygon fill="none" stroke="#000000" stroke-width="2" stroke-linejoin="round" stroke-miterlimit="10" points="24,1.234 
		28.911,7.747 36.562,4.923 37.174,13.058 45.14,14.816 41.25,21.989 47,27.779 39.852,31.71 41.56,39.687 33.421,39.131 
		30.548,46.766 24,41.898 17.452,46.766 14.578,39.131 6.44,39.687 8.148,31.71 1,27.779 6.75,21.989 2.862,14.816 10.825,13.058 
		11.439,4.923 19.088,7.747 	"/>
	<g>
		<path d="M12.701,29.264v-8.868h1.248l2.843,4.486c0.66,1.041,1.172,1.973,1.591,2.88l0.026-0.01
			c-0.104-1.187-0.131-2.265-0.131-3.646v-3.711h1.079v8.868H18.2l-2.815-4.5c-0.618-0.988-1.213-2-1.656-2.962l-0.042,0.013
			c0.065,1.119,0.093,2.186,0.093,3.657v3.791H12.701z"/>
		<path d="M25.949,25.105h-3.448v3.196h3.842v0.962h-4.987v-8.868h4.791v0.961h-3.646v2.801h3.448V25.105z"/>
		<path d="M29.393,29.264l-2.251-8.868h1.208l1.056,4.486c0.261,1.107,0.497,2.211,0.656,3.067h0.026
			c0.146-0.882,0.42-1.936,0.724-3.078l1.185-4.475h1.197l1.078,4.499c0.249,1.053,0.486,2.107,0.618,3.04h0.026
			c0.185-0.974,0.437-1.96,0.71-3.063l1.172-4.475h1.168l-2.509,8.868H34.26l-1.122-4.62c-0.273-1.131-0.457-1.999-0.576-2.893
			h-0.026c-0.158,0.88-0.354,1.749-0.685,2.893l-1.262,4.62H29.393z"/>
	</g>
</g>
</svg>
