<?xml version="1.0" encoding="utf-8"?>
<!-- Generator: Adobe Illustrator 16.0.0, SVG Export Plug-In . SVG Version: 6.00 Build 0)  -->
<!DOCTYPE svg PUBLIC "-//W3C//DTD SVG 1.1//EN" "http://www.w3.org/Graphics/SVG/1.1/DTD/svg11.dtd">
<svg version="1.1" id="Layer_1" xmlns="http://www.w3.org/2000/svg" xmlns:xlink="http://www.w3.org/1999/xlink" x="0px" y="0px"
	 width="48px" height="48px" viewBox="0 0 48 48" enable-background="new 0 0 48 48" xml:space="preserve">
<g>
	<polygon fill="none" stroke="#000000" stroke-width="2" stroke-linejoin="round" stroke-miterlimit="10" points="23.998,1.233 
		28.909,7.748 36.56,4.924 37.173,13.058 45.137,14.817 41.247,21.99 47,27.779 39.85,31.711 41.56,39.687 33.42,39.132 
		30.547,46.767 23.998,41.899 17.45,46.767 14.578,39.132 6.44,39.687 8.147,31.711 1,27.779 6.75,21.99 2.862,14.817 
		10.825,13.058 11.438,4.924 19.087,7.748 	"/>
	<g>
		<path d="M11.181,19.1c0.618-0.129,1.589-0.227,2.583-0.227c1.411,0,2.32,0.244,3.004,0.795c0.568,0.424,0.909,1.071,0.909,1.934
			c0,1.054-0.702,1.981-1.852,2.4v0.034c1.039,0.261,2.257,1.121,2.257,2.744c0,0.941-0.374,1.656-0.927,2.192
			c-0.76,0.7-1.997,1.021-3.782,1.021c-0.973,0-1.72-0.063-2.191-0.13V19.1z M12.593,23.583h1.284c1.494,0,2.373-0.78,2.373-1.835
			c0-1.282-0.978-1.787-2.404-1.787c-0.652,0-1.024,0.048-1.252,0.099V23.583z M12.593,28.824c0.278,0.05,0.684,0.066,1.186,0.066
			c1.462,0,2.808-0.536,2.808-2.127c0-1.494-1.283-2.111-2.822-2.111h-1.171V28.824z"/>
		<path d="M21.397,18.953v6.478c0,2.453,1.089,3.492,2.55,3.492c1.625,0,2.664-1.071,2.664-3.492v-6.478h1.426v6.383
			c0,3.358-1.765,4.74-4.138,4.74c-2.241,0-3.928-1.285-3.928-4.677v-6.447H21.397z"/>
		<path d="M32.932,29.898v-4.644l-3.459-6.302h1.609l1.541,3.021c0.424,0.829,0.748,1.496,1.089,2.257h0.031
			c0.309-0.714,0.682-1.428,1.104-2.257l1.575-3.021h1.607l-3.67,6.286v4.66H32.932z"/>
	</g>
</g>
</svg>
