<?xml version="1.0" encoding="utf-8"?>
<!-- Generator: Adobe Illustrator 16.0.0, SVG Export Plug-In . SVG Version: 6.00 Build 0)  -->
<!DOCTYPE svg PUBLIC "-//W3C//DTD SVG 1.1//EN" "http://www.w3.org/Graphics/SVG/1.1/DTD/svg11.dtd">
<svg version="1.1" id="Layer_1" xmlns="http://www.w3.org/2000/svg" xmlns:xlink="http://www.w3.org/1999/xlink" x="0px" y="0px"
	 width="48px" height="48px" viewBox="0 0 48 48" enable-background="new 0 0 48 48" xml:space="preserve">
<g>
	<path fill="none" stroke="#000000" stroke-width="2" stroke-linecap="round" stroke-miterlimit="10" d="M17.371,12.014V9.965
		c0-3.495,2.965-6.916,6.894-7.655l5.982-1.132c4.93-0.926,9.366,1.872,9.366,6.325v33.733c0,4.445-4.437,6.784-9.366,5.338
		l-5.982-1.756c-3.929-1.151-6.894-4.876-6.894-8.368V35.6"/>
	
		<line fill="none" stroke="#000000" stroke-width="2" stroke-linecap="round" stroke-miterlimit="10" x1="27.92" y1="9.883" x2="27.92" y2="38.12"/>
	<path fill="none" stroke="#000000" stroke-width="2" stroke-linecap="round" stroke-miterlimit="10" d="M20.372,12.014
		c-6.619,0-11.985,5.365-11.985,11.988c0,6.622,5.366,11.987,11.985,11.987c2.881,0,5.484-1.056,7.548-2.74V14.756
		C25.855,13.066,23.252,12.014,20.372,12.014z"/>
</g>
</svg>
