<?xml version="1.0" encoding="utf-8"?>
<!-- Generator: Adobe Illustrator 16.0.0, SVG Export Plug-In . SVG Version: 6.00 Build 0)  -->
<!DOCTYPE svg PUBLIC "-//W3C//DTD SVG 1.1//EN" "http://www.w3.org/Graphics/SVG/1.1/DTD/svg11.dtd">
<svg version="1.1" id="Layer_1" xmlns="http://www.w3.org/2000/svg" xmlns:xlink="http://www.w3.org/1999/xlink" x="0px" y="0px"
	 width="48px" height="48px" viewBox="0 0 48 48" enable-background="new 0 0 48 48" xml:space="preserve">
<g>
	<g>
		<path fill="none" stroke="#000000" stroke-width="2" stroke-linecap="round" stroke-linejoin="round" stroke-miterlimit="10" d="
			M47,35.037c0,0.55-0.45,1-1,1H2c-0.55,0-1-0.45-1-1V12.963c0-0.55,0.45-1,1-1h44c0.55,0,1,0.45,1,1V35.037z"/>
	</g>
	<path fill="none" stroke="#000000" stroke-width="2" stroke-linecap="round" stroke-linejoin="round" stroke-miterlimit="10" d="
		M30.923,24.002c0,3.818-3.103,6.916-6.924,6.916c-3.818,0-6.921-3.098-6.921-6.916c0-3.823,3.103-6.92,6.921-6.92
		C27.82,17.082,30.923,20.179,30.923,24.002z"/>
	<g>
		<circle cx="8.331" cy="24.002" r="1.954"/>
		<circle cx="39.67" cy="24.002" r="1.953"/>
	</g>
</g>
</svg>
