<?xml version="1.0" encoding="utf-8"?>
<!-- Generator: Adobe Illustrator 16.0.0, SVG Export Plug-In . SVG Version: 6.00 Build 0)  -->
<!DOCTYPE svg PUBLIC "-//W3C//DTD SVG 1.1//EN" "http://www.w3.org/Graphics/SVG/1.1/DTD/svg11.dtd">
<svg version="1.1" id="Layer_1" xmlns="http://www.w3.org/2000/svg" xmlns:xlink="http://www.w3.org/1999/xlink" x="0px" y="0px"
	 width="48px" height="48px" viewBox="0 0 48 48" enable-background="new 0 0 48 48" xml:space="preserve">
<g>
	
		<polygon fill="none" stroke="#000000" stroke-width="2" stroke-linecap="round" stroke-linejoin="round" stroke-miterlimit="10" points="
		13.734,1 34.265,1 28.454,10.812 18.903,10.812 	"/>
	<path fill="none" stroke="#000000" stroke-width="2" stroke-linecap="round" stroke-linejoin="round" stroke-miterlimit="10" d="
		M21.569,15.071c2.135,0,5.698-0.602,7.685,0.004c1.544,0.471,3.027,2.508,3.959,3.606c2.59,3.053,4.484,6.499,6.311,9.916
		c1.551,2.905,3.155,5.76,3.94,8.9c0.69,2.757-0.575,6.917-3.743,8.092c-2.879,1.07-6.686,1.242-10.02,1.371
		c-4.926,0.193-9.615-0.396-14.536-0.39c-3.228,0.002-9.158-0.623-10.385-3.838c-0.986-2.589-0.053-6.817,0.683-9.315
		c0.541-1.833,1.46-3.497,2.292-5.217c0.683-1.423,1.076-2.883,1.814-4.233c0.794-1.448,2.027-2.67,2.9-4.116
		c0.985-1.629,2.538-4.349,4.708-4.781C18.479,14.807,20.232,15.071,21.569,15.071z"/>
</g>
</svg>
