<?xml version="1.0" encoding="utf-8"?>
<!-- Generator: Adobe Illustrator 16.0.0, SVG Export Plug-In . SVG Version: 6.00 Build 0)  -->
<!DOCTYPE svg PUBLIC "-//W3C//DTD SVG 1.1//EN" "http://www.w3.org/Graphics/SVG/1.1/DTD/svg11.dtd">
<svg version="1.1" id="Layer_1" xmlns="http://www.w3.org/2000/svg" xmlns:xlink="http://www.w3.org/1999/xlink" x="0px" y="0px"
	 width="48px" height="48px" viewBox="0 0 48 48" enable-background="new 0 0 48 48" xml:space="preserve">
<g>
	<path fill="none" stroke="#000000" stroke-width="2" stroke-linecap="round" stroke-linejoin="round" stroke-miterlimit="10" d="
		M41.635,23.809c0-8.604-9.1-15.583-20.322-15.583c-0.838,0-1.653,0.061-2.46,0.137C14.964,3.508,7.85,4.734,7.85,4.734
		c1.587,1.586,3.215,4.8,3.106,8.222c-0.116,3.556-2.907,6.439-6.489,6.439c-0.865,0-1.675-0.173-2.426-0.476
		C1.373,20.459,1,22.099,1,23.809c0,1.128,0.167,2.225,0.463,3.288c4.46,0.709,7.88,4.482,7.88,9.07c0,0.066-0.017,0.13-0.017,0.196
		c0.002,0.003,0.008,0.003,0.017,0.007v7.034h4.833v-5.054c2.227,0.651,4.617,1.037,7.137,1.037c2.697,0,5.265-0.412,7.616-1.142
		v5.158h4.832v-7.301C38.546,33.252,41.635,28.813,41.635,23.809z"/>
	<path d="M19.043,17.083c0,1.182-0.948,2.136-2.134,2.136c-1.18,0-2.134-0.954-2.134-2.136s0.954-2.138,2.134-2.138
		C18.096,14.945,19.043,15.9,19.043,17.083z"/>
	<path fill="none" stroke="#000000" stroke-width="2" stroke-linecap="round" stroke-linejoin="round" stroke-miterlimit="10" d="
		M47,17.083c0,0-1.59,3.418-5.365,4.104"/>
</g>
</svg>
