<?xml version="1.0" encoding="utf-8"?>
<!-- Generator: Adobe Illustrator 16.0.0, SVG Export Plug-In . SVG Version: 6.00 Build 0)  -->
<!DOCTYPE svg PUBLIC "-//W3C//DTD SVG 1.1//EN" "http://www.w3.org/Graphics/SVG/1.1/DTD/svg11.dtd">
<svg version="1.1" id="Layer_1" xmlns="http://www.w3.org/2000/svg" xmlns:xlink="http://www.w3.org/1999/xlink" x="0px" y="0px"
	 width="48px" height="48px" viewBox="0 0 48 48" enable-background="new 0 0 48 48" xml:space="preserve">
<g>
	<g>
		<path fill="none" stroke="#000000" stroke-width="2" stroke-linecap="round" stroke-linejoin="round" stroke-miterlimit="10" d="
			M41.632,23.809c0-8.606-9.095-15.583-20.318-15.583c-0.838,0-1.653,0.062-2.459,0.137C14.969,3.508,7.847,4.733,7.847,4.733
			c1.583,1.588,3.214,4.8,3.105,8.223c-0.114,3.557-2.902,6.44-6.484,6.44c-0.861,0-1.676-0.176-2.431-0.477
			C1.37,20.458,1,22.097,1,23.809c0,1.13,0.171,2.228,0.468,3.288c4.458,0.709,7.878,4.482,7.878,9.07
			c0,0.068-0.024,0.13-0.024,0.197C9.33,36.37,9.335,36.37,9.346,36.37v7.034h4.831v-5.054c2.229,0.651,4.618,1.039,7.137,1.039
			c2.695,0,5.265-0.411,7.615-1.142v5.156h4.836v-7.3C38.549,33.252,41.632,28.814,41.632,23.809z"/>
		<path fill="none" stroke="#000000" stroke-width="2" stroke-linecap="round" stroke-linejoin="round" stroke-miterlimit="10" d="
			M47,17.083c0,0-1.593,3.418-5.368,4.103"/>
	</g>
	<g>
		
			<line fill="none" stroke="#000000" stroke-width="2" stroke-linecap="round" stroke-linejoin="round" stroke-miterlimit="10" x1="16.974" y1="22.996" x2="28.797" y2="22.996"/>
		
			<line fill="none" stroke="#000000" stroke-width="2" stroke-linecap="round" stroke-linejoin="round" stroke-miterlimit="10" x1="22.886" y1="17.083" x2="22.886" y2="28.912"/>
	</g>
</g>
</svg>
