<?xml version="1.0" encoding="utf-8"?>
<!-- Generator: Adobe Illustrator 16.0.0, SVG Export Plug-In . SVG Version: 6.00 Build 0)  -->
<!DOCTYPE svg PUBLIC "-//W3C//DTD SVG 1.1//EN" "http://www.w3.org/Graphics/SVG/1.1/DTD/svg11.dtd">
<svg version="1.1" id="Layer_1" xmlns="http://www.w3.org/2000/svg" xmlns:xlink="http://www.w3.org/1999/xlink" x="0px" y="0px"
	 width="48px" height="48px" viewBox="0 0 48 48" enable-background="new 0 0 48 48" xml:space="preserve">
<g>
	<g>
		<path d="M23.099,34.937v-2.69c-1.548-0.027-3.145-0.507-4.08-1.171l0.638-1.786c0.965,0.64,2.344,1.147,3.839,1.147
			c1.897,0,3.17-1.093,3.17-2.61c0-1.468-1.037-2.374-3.009-3.173c-2.718-1.064-4.395-2.292-4.395-4.609
			c0-2.211,1.57-3.889,4.024-4.289V13.06h1.647v2.587c1.597,0.053,2.692,0.482,3.465,0.933l-0.668,1.76
			c-0.562-0.323-1.65-0.908-3.354-0.908c-2.056,0-2.827,1.226-2.827,2.292c0,1.387,0.985,2.08,3.304,3.038
			c2.745,1.12,4.13,2.504,4.13,4.875c0,2.105-1.465,4.077-4.212,4.529v2.771H23.099z"/>
	</g>
	<path fill="none" stroke="#000000" stroke-width="2" stroke-linecap="round" stroke-linejoin="round" stroke-miterlimit="10" d="
		M46.998,24c0,12.701-10.298,23-23,23C11.3,47,1.002,36.701,1.002,24c0-12.702,10.298-23,22.996-23C36.7,1,46.998,11.298,46.998,24z
		"/>
</g>
</svg>
