<?xml version="1.0" encoding="utf-8"?>
<!-- Generator: Adobe Illustrator 16.0.0, SVG Export Plug-In . SVG Version: 6.00 Build 0)  -->
<!DOCTYPE svg PUBLIC "-//W3C//DTD SVG 1.1//EN" "http://www.w3.org/Graphics/SVG/1.1/DTD/svg11.dtd">
<svg version="1.1" id="Layer_1" xmlns="http://www.w3.org/2000/svg" xmlns:xlink="http://www.w3.org/1999/xlink" x="0px" y="0px"
	 width="48px" height="48px" viewBox="0 0 48 48" enable-background="new 0 0 48 48" xml:space="preserve">
<g>
	<path d="M25.053,31.313c-2.962,0-5.054-1.317-6.109-3.519h8.175v-1.597h-8.722c-0.141-0.655-0.244-1.348-0.244-2.104
		c0-0.536,0.047-1.038,0.115-1.521h8.852v-1.599h-8.472c0.98-2.763,3.345-4.287,6.512-4.287c1.492,0,2.745,0.322,3.625,0.743
		l0.559-1.891c-0.614-0.317-2.027-0.797-4.259-0.797c-4.431,0-7.702,2.428-8.878,6.231h-2.833v1.599h2.471
		c-0.076,0.518-0.147,1.042-0.147,1.601c0,0.714,0.071,1.387,0.18,2.024h-2.503v1.597h2.927c1.25,3.554,4.38,5.462,8.269,5.462
		c2.188,0,3.894-0.427,4.75-0.848l-0.482-1.841C27.903,31.021,26.468,31.313,25.053,31.313z"/>
	
		<circle fill="none" stroke="#000000" stroke-width="2" stroke-linecap="round" stroke-linejoin="round" stroke-miterlimit="10" cx="24" cy="24" r="23"/>
</g>
</svg>
