<?xml version="1.0" encoding="utf-8"?>
<!-- Generator: Adobe Illustrator 16.0.0, SVG Export Plug-In . SVG Version: 6.00 Build 0)  -->
<!DOCTYPE svg PUBLIC "-//W3C//DTD SVG 1.1//EN" "http://www.w3.org/Graphics/SVG/1.1/DTD/svg11.dtd">
<svg version="1.1" id="Layer_1" xmlns="http://www.w3.org/2000/svg" xmlns:xlink="http://www.w3.org/1999/xlink" x="0px" y="0px"
	 width="48px" height="48px" viewBox="0 0 48 48" enable-background="new 0 0 48 48" xml:space="preserve">
<g>
	<g>
		<path fill="none" stroke="#000000" stroke-width="2" stroke-linecap="round" stroke-linejoin="round" stroke-miterlimit="10" d="
			M33.602,31.785c0,5.484-4.299,9.938-9.599,9.938c-5.299,0-9.6-4.453-9.6-9.938c0-5.488,4.301-9.937,9.6-9.937
			C29.303,21.848,33.602,26.297,33.602,31.785z"/>
		<path fill="none" stroke="#000000" stroke-width="2" stroke-linecap="round" stroke-linejoin="round" stroke-miterlimit="10" d="
			M40.661,16.569H30.146v-4.385H17.86v4.385H7.343c-3.373,0-6.132,2.852-6.132,6.346v17.742C1.211,44.146,3.971,47,7.343,47h33.318
			c3.373,0,6.127-2.854,6.127-6.344V22.915C46.788,19.42,44.034,16.569,40.661,16.569z"/>
	</g>
	<g>
		<path fill="none" stroke="#000000" stroke-width="2" stroke-linecap="round" stroke-linejoin="round" stroke-miterlimit="10" d="
			M35.306,10.154c0,1.1-0.9,2-2,2H13.499c-1.1,0-2-0.9-2-2V3c0-1.1,0.9-2,2-2h19.807c1.1,0,2,0.9,2,2V10.154z"/>
	</g>
	
		<line fill="none" stroke="#000000" stroke-width="2" stroke-linecap="round" stroke-linejoin="round" stroke-miterlimit="10" x1="18.225" y1="6.576" x2="28.583" y2="6.576"/>
</g>
</svg>
