<?xml version="1.0" encoding="utf-8"?>
<!-- Generator: Adobe Illustrator 16.0.0, SVG Export Plug-In . SVG Version: 6.00 Build 0)  -->
<!DOCTYPE svg PUBLIC "-//W3C//DTD SVG 1.1//EN" "http://www.w3.org/Graphics/SVG/1.1/DTD/svg11.dtd">
<svg version="1.1" id="Layer_1" xmlns="http://www.w3.org/2000/svg" xmlns:xlink="http://www.w3.org/1999/xlink" x="0px" y="0px"
	 width="48px" height="48px" viewBox="0 0 48 48" enable-background="new 0 0 48 48" xml:space="preserve">
<g>
	<path fill="none" stroke="#000000" stroke-width="2" stroke-linejoin="round" stroke-miterlimit="10" d="M38.423,30.563L47,22.181
		C44.122,12.283,34.918,5.039,24,5.039S3.879,12.283,1,22.181l8.071,7.923"/>
	<path fill="none" stroke="#000000" stroke-width="2" stroke-linejoin="round" stroke-miterlimit="10" d="M27.536,41.495
		c-1.956,1.954-5.159,1.954-7.116,0L9.488,30.563c-1.956-1.958-1.956-5.16,0-7.115L20.42,12.515c1.957-1.958,5.16-1.958,7.116,0
		l10.932,10.933c1.957,1.955,1.957,5.157,0,7.115L27.536,41.495z"/>
	<g>
		
			<circle fill="none" stroke="#000000" stroke-width="2" stroke-linejoin="round" stroke-miterlimit="10" cx="23.979" cy="14.692" r="3.644"/>
		
			<circle fill="none" stroke="#000000" stroke-width="2" stroke-linejoin="round" stroke-miterlimit="10" cx="23.979" cy="39.318" r="3.644"/>
	</g>
	<g>
		
			<circle fill="none" stroke="#000000" stroke-width="2" stroke-linejoin="round" stroke-miterlimit="10" cx="36.29" cy="27.003" r="3.643"/>
		
			<circle fill="none" stroke="#000000" stroke-width="2" stroke-linejoin="round" stroke-miterlimit="10" cx="11.663" cy="27.003" r="3.643"/>
	</g>
</g>
</svg>
