<?xml version="1.0" encoding="utf-8"?>
<!-- Generator: Adobe Illustrator 16.0.0, SVG Export Plug-In . SVG Version: 6.00 Build 0)  -->
<!DOCTYPE svg PUBLIC "-//W3C//DTD SVG 1.1//EN" "http://www.w3.org/Graphics/SVG/1.1/DTD/svg11.dtd">
<svg version="1.1" id="Layer_1" xmlns="http://www.w3.org/2000/svg" xmlns:xlink="http://www.w3.org/1999/xlink" x="0px" y="0px"
	 width="48px" height="48px" viewBox="0 0 48 48" enable-background="new 0 0 48 48" xml:space="preserve">
<g>
	<circle fill="none" stroke="#000000" stroke-width="2" stroke-linejoin="round" stroke-miterlimit="10" cx="24" cy="24" r="23"/>
	<path fill="none" stroke="#000000" stroke-width="2" stroke-linejoin="round" stroke-miterlimit="10" stroke-dasharray="4" d="
		M11.279,24c0-7.024,5.696-12.72,12.721-12.72S36.722,16.976,36.722,24"/>
	<path fill="none" stroke="#000000" stroke-width="2" stroke-linejoin="round" stroke-miterlimit="10" d="M42.717,24
		c0-10.336-8.38-18.716-18.717-18.716S5.284,13.664,5.284,24c0,2.385,0.451,4.662,1.263,6.759h34.906
		C42.266,28.662,42.717,26.385,42.717,24z"/>
	<path fill="none" stroke="#000000" stroke-width="2" stroke-linejoin="round" stroke-miterlimit="10" d="M20.364,30.371
		c0-2.008,1.628-3.635,3.636-3.635c2.008,0,3.634,1.627,3.634,3.635"/>
	
		<line fill="none" stroke="#000000" stroke-width="2" stroke-linejoin="round" stroke-miterlimit="10" x1="22.838" y1="26.928" x2="17.152" y2="10.898"/>
</g>
</svg>
