<?xml version="1.0" encoding="utf-8"?>
<!-- Generator: Adobe Illustrator 16.0.0, SVG Export Plug-In . SVG Version: 6.00 Build 0)  -->
<!DOCTYPE svg PUBLIC "-//W3C//DTD SVG 1.1//EN" "http://www.w3.org/Graphics/SVG/1.1/DTD/svg11.dtd">
<svg version="1.1" id="Layer_1" xmlns="http://www.w3.org/2000/svg" xmlns:xlink="http://www.w3.org/1999/xlink" x="0px" y="0px"
	 width="48px" height="48px" viewBox="0 0 48 48" enable-background="new 0 0 48 48" xml:space="preserve">
<g>
	<path fill="none" stroke="#000000" stroke-width="2" stroke-linejoin="round" stroke-miterlimit="10" d="M39.886,1.001
		C39.884,1.001,39.884,1,39.884,1c-1.541,1.92-4.192,2.431-6.305,1.336c-0.183,0.363-0.402,0.709-0.66,1.039
		c-2.105,2.681-5.987,3.145-8.667,1.039c-0.902-0.708-1.548-1.623-1.934-2.621c-0.485,0.455-0.94,0.951-1.362,1.488L3.713,25.222
		l8.12,6.381l-8.37,10.65c-0.766,0.971-0.594,2.392,0.377,3.155l1.417,1.113c0.971,0.764,2.392,0.594,3.156-0.378l8.369-10.652
		l8.121,6.381l17.242-21.939C46.729,14.1,45.712,5.582,39.886,1.001z"/>
	<path fill="none" stroke="#000000" stroke-width="2" stroke-linejoin="round" stroke-miterlimit="10" d="M38.035,7.195
		c0,0,3.317,5.243-2.248,11.663L24.552,33.197"/>
</g>
</svg>
