<?xml version="1.0" encoding="utf-8"?>
<!-- Generator: Adobe Illustrator 16.0.0, SVG Export Plug-In . SVG Version: 6.00 Build 0)  -->
<!DOCTYPE svg PUBLIC "-//W3C//DTD SVG 1.1//EN" "http://www.w3.org/Graphics/SVG/1.1/DTD/svg11.dtd">
<svg version="1.1" id="Layer_1" xmlns="http://www.w3.org/2000/svg" xmlns:xlink="http://www.w3.org/1999/xlink" x="0px" y="0px"
	 width="48px" height="48px" viewBox="0 0 48 48" enable-background="new 0 0 48 48" xml:space="preserve">
<g>
	<g>
		
			<ellipse transform="matrix(0.9696 0.2447 -0.2447 0.9696 5.3533 -5.2992)" fill="none" stroke="#000000" stroke-width="2" stroke-miterlimit="10" cx="24" cy="18.891" rx="16.676" ry="17.96"/>
		<path fill="none" stroke="#000000" stroke-width="2" stroke-miterlimit="10" d="M10.536,15.493
			c2.023-8.009,9.69-12.98,17.127-11.103"/>
		<path fill="none" stroke="#000000" stroke-width="2" stroke-miterlimit="10" d="M17.097,39.059
			c0.071-0.416,0.734-1.073,1.263-1.517c0.337-0.28,0.679-0.488,1.073-0.678c0.257-0.119,0.664-0.352,0.938-0.354
			c0.355-0.002,0.701,0.304,0.903,0.556c0.716,0.896,0.974,1.968,1.378,3.007c0.073,0.188,0.18,0.309,0.088,0.499
			c-0.088,0.186-0.346,0.285-0.523,0.33c-0.575,0.147-1.246,0.147-1.812,0.005c-0.791-0.2-1.695-0.346-2.416-0.729
			c-0.332-0.174-0.846-0.657-0.879-1.056L17.097,39.059z"/>
	</g>
	<path fill="none" stroke="#000000" stroke-width="2" stroke-miterlimit="10" d="M21.752,37.103c0.919,1.671,6.691,2.51,5.515,5.738
		c-0.337,0.925-2.354,1.474-3.292,1.66c-1.611,0.32-3.015,0.528-2.896,2.499"/>
</g>
</svg>
