<?xml version="1.0" encoding="utf-8"?>
<!-- Generator: Adobe Illustrator 16.0.0, SVG Export Plug-In . SVG Version: 6.00 Build 0)  -->
<!DOCTYPE svg PUBLIC "-//W3C//DTD SVG 1.1//EN" "http://www.w3.org/Graphics/SVG/1.1/DTD/svg11.dtd">
<svg version="1.1" id="Layer_1" xmlns="http://www.w3.org/2000/svg" xmlns:xlink="http://www.w3.org/1999/xlink" x="0px" y="0px"
	 width="48px" height="48px" viewBox="0 0 48 48" enable-background="new 0 0 48 48" xml:space="preserve">
<g>
	<path fill="none" stroke="#000000" stroke-width="2" stroke-linejoin="round" stroke-miterlimit="10" d="M14.39,6.078v29.706
		c0,6.17,4.325,11.216,9.609,11.216c5.286,0,9.609-5.046,9.609-11.216V6.078H14.39z"/>
	<rect x="12.456" y="1" fill="none" stroke="#000000" stroke-width="2" stroke-miterlimit="10" width="23.088" height="5.078"/>
	<path fill="none" stroke="#000000" stroke-width="2" stroke-miterlimit="10" d="M14.024,17.443
		c2.134,0.324,3.627-0.038,5.256-1.398c1.206-1.007,2.839-1.759,4.483-1.359c2.002,0.485,3.284,2.555,5.305,3.002
		c1.789,0.397,2.854-0.206,4.309-1.13"/>
	<circle fill="none" stroke="#000000" stroke-width="2" stroke-miterlimit="10" cx="21.951" cy="32.57" r="3.718"/>
	<circle fill="none" stroke="#000000" stroke-width="2" stroke-miterlimit="10" cx="26.333" cy="22.985" r="2.71"/>
	<circle fill="none" stroke="#000000" stroke-width="2" stroke-miterlimit="10" cx="26.167" cy="41.646" r="1.941"/>
</g>
</svg>
