<?xml version="1.0" encoding="utf-8"?>
<!-- Generator: Adobe Illustrator 16.0.0, SVG Export Plug-In . SVG Version: 6.00 Build 0)  -->
<!DOCTYPE svg PUBLIC "-//W3C//DTD SVG 1.1//EN" "http://www.w3.org/Graphics/SVG/1.1/DTD/svg11.dtd">
<svg version="1.1" id="Layer_1" xmlns="http://www.w3.org/2000/svg" xmlns:xlink="http://www.w3.org/1999/xlink" x="0px" y="0px"
	 width="48px" height="48px" viewBox="0 0 48 48" enable-background="new 0 0 48 48" xml:space="preserve">
<g>
	<path fill="none" stroke="#000000" stroke-width="2" stroke-linejoin="round" stroke-miterlimit="10" d="M34.906,6.082
		c0-1.812,0.249-3.528,0.688-5.082h-5.056c0.268,0.982,0.421,2.038,0.421,3.145c0,5.103-3.116,9.241-6.959,9.241
		c-3.844,0-6.958-4.138-6.958-9.241c0-1.106,0.152-2.162,0.421-3.145h-5.057c0.438,1.554,0.688,3.27,0.688,5.082
		c0,5.905-2.595,10.841-6.079,12.146v25.538c0,1.78,1.456,3.234,3.235,3.234h27.5c1.778,0,3.234-1.454,3.234-3.234V18.228
		C37.501,16.923,34.906,11.987,34.906,6.082z"/>
</g>
</svg>
