<?xml version="1.0" encoding="utf-8"?>
<!-- Generator: Adobe Illustrator 16.0.0, SVG Export Plug-In . SVG Version: 6.00 Build 0)  -->
<!DOCTYPE svg PUBLIC "-//W3C//DTD SVG 1.1//EN" "http://www.w3.org/Graphics/SVG/1.1/DTD/svg11.dtd">
<svg version="1.1" id="Layer_1" xmlns="http://www.w3.org/2000/svg" xmlns:xlink="http://www.w3.org/1999/xlink" x="0px" y="0px"
	 width="48px" height="48px" viewBox="0 0 48 48" enable-background="new 0 0 48 48" xml:space="preserve">
<g>
	<path fill="none" stroke="#000000" stroke-width="2" stroke-miterlimit="10" d="M30.508,34.681l4.149-4.541
		c0.773-0.849,0.714-2.175-0.133-2.948l-4.56-4.17c2.623-1.316,5.951-3.962,9.127-7.44c5.57-6.097,8.563-12.431,6.686-14.149
		c-1.878-1.716-7.915,1.834-13.484,7.931c-3.178,3.478-5.514,7.03-6.588,9.761l-4.559-4.168c-0.847-0.775-2.173-0.717-2.947,0.131
		l-4.147,4.542L30.508,34.681z"/>
	<path fill="none" stroke="#000000" stroke-width="2" stroke-miterlimit="10" d="M30.159,35.063c0,0-6.966,6.656-8.415,11.937
		c0,0-8.376-3.782-13.523-10.066l5.649-7.404l-7.811,5.738c0,0-4.919-5.604-4.351-5.824c4.409-1.723,5.647-2.484,11.993-9.432"/>
	<circle fill="none" stroke="#000000" stroke-width="2" stroke-miterlimit="10" cx="40.149" cy="7.593" r="1.51"/>
	<path fill="none" stroke="#000000" stroke-width="2" stroke-miterlimit="10" d="M19.485,41.587c0,0,1.55-3.189,5.303-6.924"/>
</g>
</svg>
