<?xml version="1.0" encoding="utf-8"?>
<!-- Generator: Adobe Illustrator 16.0.0, SVG Export Plug-In . SVG Version: 6.00 Build 0)  -->
<!DOCTYPE svg PUBLIC "-//W3C//DTD SVG 1.1//EN" "http://www.w3.org/Graphics/SVG/1.1/DTD/svg11.dtd">
<svg version="1.1" id="Layer_1" xmlns="http://www.w3.org/2000/svg" xmlns:xlink="http://www.w3.org/1999/xlink" x="0px" y="0px"
	 width="48px" height="48px" viewBox="0 0 48 48" enable-background="new 0 0 48 48" xml:space="preserve">
<g>
	<path fill="none" stroke="#000000" stroke-width="2" stroke-miterlimit="10" d="M9.389,1.094l1.675,13.684
		c0,7.369,5.821,13.399,12.936,13.399c7.115,0,12.936-6.03,12.936-13.399l1.676-13.684C38.611,0.969,9.389,0.969,9.389,1.094z"/>
	<polygon fill="none" stroke="#000000" stroke-width="2" stroke-miterlimit="10" points="32.511,47 15.489,47 17.165,42.661 
		30.836,42.661 	"/>
	<line fill="none" stroke="#000000" stroke-width="2" stroke-miterlimit="10" x1="24" y1="28.178" x2="24" y2="42.136"/>
	<g>
		<path fill="none" stroke="#000000" stroke-width="2" stroke-miterlimit="10" d="M10.256,7.215c0,0-7.419-5.838-8.375-0.485
			c-0.955,5.355,2.884,14.394,11.577,15.612"/>
		<path fill="none" stroke="#000000" stroke-width="2" stroke-miterlimit="10" d="M37.744,7.215c0,0,7.419-5.838,8.375-0.485
			c0.956,5.355-2.882,14.394-11.576,15.612"/>
	</g>
	<line fill="none" stroke="#000000" stroke-width="2" stroke-miterlimit="10" x1="9.465" y1="6.711" x2="38.434" y2="6.711"/>
	<path fill="none" stroke="#000000" stroke-width="2" stroke-miterlimit="10" d="M15.489,11.877c0,0-0.482,10.467,8.46,12.322"/>
</g>
</svg>
