<?xml version="1.0" encoding="utf-8"?>
<!-- Generator: Adobe Illustrator 16.0.0, SVG Export Plug-In . SVG Version: 6.00 Build 0)  -->
<!DOCTYPE svg PUBLIC "-//W3C//DTD SVG 1.1//EN" "http://www.w3.org/Graphics/SVG/1.1/DTD/svg11.dtd">
<svg version="1.1" id="Layer_1" xmlns="http://www.w3.org/2000/svg" xmlns:xlink="http://www.w3.org/1999/xlink" x="0px" y="0px"
	 width="48px" height="48px" viewBox="0 0 48 48" enable-background="new 0 0 48 48" xml:space="preserve">
<g>
	<g>
		<path fill="none" stroke="#000000" stroke-width="2" stroke-linejoin="round" stroke-miterlimit="10" d="M39.933,40
			c0,3.85-3.15,7-7,7H15.068c-3.85,0-7-3.15-7-7V8c0-3.85,3.15-7,7-7h17.865c3.85,0,7,3.15,7,7V40z"/>
	</g>
	
		<rect x="11.641" y="7.411" fill="none" stroke="#000000" stroke-width="2" stroke-linejoin="round" stroke-miterlimit="10" width="24.719" height="30.75"/>
	
		<line fill="none" stroke="#000000" stroke-width="2" stroke-linejoin="round" stroke-miterlimit="10" x1="20.724" y1="4.189" x2="27.277" y2="4.189"/>
	<path fill="none" stroke="#000000" stroke-width="2" stroke-linejoin="round" stroke-miterlimit="10" d="M26.577,42.588
		c0,1.425-1.152,2.58-2.578,2.58c-1.422,0-2.577-1.155-2.577-2.58c0-1.422,1.155-2.577,2.577-2.577
		C25.425,40.011,26.577,41.166,26.577,42.588z"/>
</g>
</svg>
