<?xml version="1.0" encoding="utf-8"?>
<!-- Generator: Adobe Illustrator 16.0.0, SVG Export Plug-In . SVG Version: 6.00 Build 0)  -->
<!DOCTYPE svg PUBLIC "-//W3C//DTD SVG 1.1//EN" "http://www.w3.org/Graphics/SVG/1.1/DTD/svg11.dtd">
<svg version="1.1" id="Layer_1" xmlns="http://www.w3.org/2000/svg" xmlns:xlink="http://www.w3.org/1999/xlink" x="0px" y="0px"
	 width="48px" height="48px" viewBox="0 0 48 48" enable-background="new 0 0 48 48" xml:space="preserve">
<g>
	<path fill="none" stroke="#000000" stroke-width="2" stroke-linejoin="round" stroke-miterlimit="10" d="M20.066,14.062
		c0,0-8.603,5.539-8.274,11.723c0,0-3.241-9.274,3.069-14.483c0,0-7.06,1.507-8.37,5.853c0,0,0.076-9.591,6.87-9.703
		c0,0-2.536-2.619-2.12-6.018c0,0,3.849,0.447,5.403,3.517c0,0,2.897-4.928,6.152-3.775c0,0-2.267,2.519-1.46,5.091
		c0,0,8.383-2.981,13.037,1.984c0,0-4.657-1.077-7.665,0.951c0,0,6.832,5.28,6.538,11.93c0,0-4.419-4.655-8.913-7.163
		c0,0,4.145,13.605,4.145,24.938c0,0,9.497,2.697,13.598,8.094H5.924c0,0,8.417-7.014,17.482-7.663
		C23.406,39.337,24.916,22.071,20.066,14.062z"/>
</g>
</svg>
