<?xml version="1.0" encoding="utf-8"?>
<!-- Generator: Adobe Illustrator 16.0.0, SVG Export Plug-In . SVG Version: 6.00 Build 0)  -->
<!DOCTYPE svg PUBLIC "-//W3C//DTD SVG 1.1//EN" "http://www.w3.org/Graphics/SVG/1.1/DTD/svg11.dtd">
<svg version="1.1" id="Layer_1" xmlns="http://www.w3.org/2000/svg" xmlns:xlink="http://www.w3.org/1999/xlink" x="0px" y="0px"
	 width="48px" height="48px" viewBox="0 0 48 48" enable-background="new 0 0 48 48" xml:space="preserve">
<g>
	<path fill="none" stroke="#000000" stroke-width="2" stroke-miterlimit="10" d="M47,27.719c0-1.6-1.469-2.908-3.265-2.908h-0.737
		c1.797,0,3.265-1.308,3.265-2.906c0-1.601-1.468-2.909-3.265-2.909h-7.874c-0.337,0-0.661,0.046-0.968,0.133h-4.438
		c1.175-2.353,2.469-10.621,1.005-13.415c-1.932-3.684-7.032-2.819-7.032-2.819c2.94,7.497-4.411,16.821-4.411,16.821l-1.461,0.519
		v22.026h15.088h6.08h1.795c1.795,0,3.265-1.311,3.265-2.908c0-1.599-1.47-2.907-3.265-2.907h1.477c1.795,0,3.265-1.311,3.265-2.909
		c0-1.6-1.47-2.908-3.265-2.908h1.477C45.531,30.628,47,29.319,47,27.719z"/>
	<path fill="none" stroke="#000000" stroke-width="2" stroke-miterlimit="10" d="M44.047,39.353c0,1.598-1.47,2.908-3.265,2.908
		h-7.875c-1.796,0-3.264-1.311-3.264-2.908c0-1.599,1.468-2.907,3.264-2.907h7.875C42.577,36.445,44.047,37.754,44.047,39.353z"/>
	<path fill="none" stroke="#000000" stroke-width="2" stroke-miterlimit="10" d="M45.523,33.536c0,1.599-1.47,2.909-3.265,2.909
		h-7.874c-1.796,0-3.265-1.311-3.265-2.909c0-1.6,1.469-2.908,3.265-2.908h7.874C44.054,30.628,45.523,31.937,45.523,33.536z"/>
	<path fill="none" stroke="#000000" stroke-width="2" stroke-miterlimit="10" d="M47,27.719c0,1.601-1.469,2.909-3.265,2.909h-7.873
		c-1.796,0-3.266-1.309-3.266-2.909c0-1.6,1.47-2.908,3.266-2.908h7.873C45.531,24.811,47,26.119,47,27.719z"/>
	<path fill="none" stroke="#000000" stroke-width="2" stroke-miterlimit="10" d="M46.263,21.904c0,1.598-1.468,2.906-3.265,2.906
		h-7.874c-1.795,0-3.266-1.308-3.266-2.906c0-1.601,1.471-2.909,3.266-2.909h7.874C44.795,18.996,46.263,20.304,46.263,21.904z"/>
	<rect x="1" y="18.996" fill="none" stroke="#000000" stroke-width="2" stroke-miterlimit="10" width="16.819" height="26.198"/>
	<circle fill="none" stroke="#000000" stroke-width="2" stroke-miterlimit="10" cx="8.788" cy="39.353" r="2.908"/>
</g>
</svg>
