<?xml version="1.0" encoding="utf-8"?>
<!-- Generator: Adobe Illustrator 16.0.0, SVG Export Plug-In . SVG Version: 6.00 Build 0)  -->
<!DOCTYPE svg PUBLIC "-//W3C//DTD SVG 1.1//EN" "http://www.w3.org/Graphics/SVG/1.1/DTD/svg11.dtd">
<svg version="1.1" id="Layer_1" xmlns="http://www.w3.org/2000/svg" xmlns:xlink="http://www.w3.org/1999/xlink" x="0px" y="0px"
	 width="48px" height="48px" viewBox="0 0 48 48" enable-background="new 0 0 48 48" xml:space="preserve">
<g>
	<path fill="none" stroke="#000000" stroke-width="2" stroke-miterlimit="10" d="M1,20.281c0,1.601,1.468,2.909,3.264,2.909h0.738
		c-1.795,0-3.264,1.309-3.264,2.907c0,1.6,1.469,2.908,3.264,2.908h7.874c0.338,0,0.661-0.047,0.968-0.133h4.437
		c-1.174,2.353-2.466,10.62-1.004,13.415c1.932,3.684,7.034,2.818,7.034,2.818c-2.942-7.496,4.409-16.821,4.409-16.821l1.461-0.519
		V5.739H15.092h-6.08H7.219c-1.796,0-3.263,1.31-3.263,2.909s1.467,2.907,3.263,2.907H5.741c-1.795,0-3.265,1.311-3.265,2.909
		c0,1.601,1.47,2.909,3.265,2.909H4.264C2.468,17.372,1,18.681,1,20.281z"/>
	<path fill="none" stroke="#000000" stroke-width="2" stroke-miterlimit="10" d="M3.956,8.648c0-1.599,1.467-2.909,3.263-2.909
		h7.874c1.796,0,3.264,1.31,3.264,2.909s-1.468,2.907-3.264,2.907H7.219C5.423,11.555,3.956,10.247,3.956,8.648z"/>
	<path fill="none" stroke="#000000" stroke-width="2" stroke-miterlimit="10" d="M2.477,14.463c0-1.598,1.47-2.909,3.265-2.909
		h7.875c1.796,0,3.264,1.311,3.264,2.909c0,1.601-1.468,2.909-3.264,2.909H5.741C3.946,17.372,2.477,16.064,2.477,14.463z"/>
	<path fill="none" stroke="#000000" stroke-width="2" stroke-miterlimit="10" d="M1,20.281c0-1.6,1.468-2.909,3.264-2.909h7.874
		c1.796,0,3.266,1.309,3.266,2.909c0,1.601-1.47,2.909-3.266,2.909H4.264C2.468,23.189,1,21.881,1,20.281z"/>
	<path fill="none" stroke="#000000" stroke-width="2" stroke-miterlimit="10" d="M1.738,26.097c0-1.599,1.469-2.907,3.264-2.907
		h7.874c1.795,0,3.266,1.309,3.266,2.907c0,1.6-1.47,2.908-3.266,2.908H5.002C3.207,29.005,1.738,27.696,1.738,26.097z"/>
	
		<rect x="30.181" y="2.806" fill="none" stroke="#000000" stroke-width="2" stroke-miterlimit="10" width="16.819" height="26.199"/>
	<circle fill="none" stroke="#000000" stroke-width="2" stroke-miterlimit="10" cx="39.212" cy="8.648" r="2.908"/>
</g>
</svg>
