<?xml version="1.0" encoding="utf-8"?>
<!-- Generator: Adobe Illustrator 16.0.0, SVG Export Plug-In . SVG Version: 6.00 Build 0)  -->
<!DOCTYPE svg PUBLIC "-//W3C//DTD SVG 1.1//EN" "http://www.w3.org/Graphics/SVG/1.1/DTD/svg11.dtd">
<svg version="1.1" id="Layer_1" xmlns="http://www.w3.org/2000/svg" xmlns:xlink="http://www.w3.org/1999/xlink" x="0px" y="0px"
	 width="48px" height="48px" viewBox="0 0 48 48" enable-background="new 0 0 48 48" xml:space="preserve">
<g>
	<g>
		<path fill="none" stroke="#000000" stroke-width="2" stroke-miterlimit="10" d="M39.543,45c0,1.1-0.9,2-2,2H10.457
			c-1.1,0-2-0.9-2-2V3c0-1.1,0.9-2,2-2h27.086c1.1,0,2,0.9,2,2V45z"/>
	</g>
	<path fill="none" stroke="#000000" stroke-width="2" stroke-miterlimit="10" d="M34.929,31.577c0,6.034-4.895,10.925-10.929,10.925
		c-6.034,0-10.925-4.891-10.925-10.925c0-6.038,4.892-10.928,10.925-10.928C30.034,20.649,34.929,25.539,34.929,31.577z"/>
	<path fill="none" stroke="#000000" stroke-width="2" stroke-miterlimit="10" d="M29.033,10.702c0,2.78-2.256,5.033-5.034,5.033
		c-2.776,0-5.03-2.253-5.03-5.033c0-2.778,2.254-5.033,5.03-5.033C26.777,5.669,29.033,7.924,29.033,10.702z"/>
	<path fill="none" stroke="#000000" stroke-width="2" stroke-miterlimit="10" d="M29.033,31.45c0,2.782-2.256,5.034-5.034,5.034
		c-2.776,0-5.03-2.252-5.03-5.034c0-2.778,2.254-5.032,5.03-5.032C26.777,26.418,29.033,28.672,29.033,31.45z"/>
</g>
</svg>
