<?xml version="1.0" encoding="utf-8"?>
<!-- Generator: Adobe Illustrator 16.0.0, SVG Export Plug-In . SVG Version: 6.00 Build 0)  -->
<!DOCTYPE svg PUBLIC "-//W3C//DTD SVG 1.1//EN" "http://www.w3.org/Graphics/SVG/1.1/DTD/svg11.dtd">
<svg version="1.1" id="Layer_1" xmlns="http://www.w3.org/2000/svg" xmlns:xlink="http://www.w3.org/1999/xlink" x="0px" y="0px"
	 width="48px" height="48px" viewBox="0 0 48 48" enable-background="new 0 0 48 48" xml:space="preserve">
<g>
	<g>
		<polyline fill="none" stroke="#000000" stroke-width="2" stroke-miterlimit="10" points="18.592,27.413 9.319,36.688 1,28.369 
			10.566,18.803 		"/>
		<polyline fill="none" stroke="#000000" stroke-width="2" stroke-miterlimit="10" points="18.323,11.046 27.935,1.433 
			36.254,9.753 26.787,19.219 		"/>
		<path fill="none" stroke="#000000" stroke-width="2" stroke-miterlimit="10" d="M26.029,18.146
			c3.037,3.036,3.649,7.393,1.362,9.681c-2.288,2.285-6.645,1.673-9.681-1.363l-6.487-6.487c-3.036-3.036-3.65-7.393-1.363-9.681
			c2.288-2.287,6.645-1.673,9.681,1.363L26.029,18.146z"/>
	</g>
	<path fill="none" stroke="#000000" stroke-width="2" stroke-miterlimit="10" d="M37.05,20.209c0.708,4.625-0.721,9.51-4.281,13.072
		c-3.515,3.515-8.319,4.95-12.888,4.311"/>
	<path fill="none" stroke="#000000" stroke-width="2" stroke-miterlimit="10" d="M46.989,21.304
		c0.196,6.521-2.194,13.106-7.171,18.081c-5.451,5.452-12.831,7.8-19.944,7.043"/>
</g>
</svg>
