<?xml version="1.0" encoding="utf-8"?>
<!-- Generator: Adobe Illustrator 16.0.0, SVG Export Plug-In . SVG Version: 6.00 Build 0)  -->
<!DOCTYPE svg PUBLIC "-//W3C//DTD SVG 1.1//EN" "http://www.w3.org/Graphics/SVG/1.1/DTD/svg11.dtd">
<svg version="1.1" id="Layer_1" xmlns="http://www.w3.org/2000/svg" xmlns:xlink="http://www.w3.org/1999/xlink" x="0px" y="0px"
	 width="48px" height="48px" viewBox="0 0 48 48" enable-background="new 0 0 48 48" xml:space="preserve">
<g>
	<path fill="none" stroke="#000000" stroke-width="2" stroke-linejoin="round" stroke-miterlimit="10" d="M30.698,5.836
		c0,2.667-2.165,4.833-4.835,4.833c-0.393,0-0.776-0.047-1.143-0.137c-2.119-0.513-3.692-2.422-3.692-4.696
		C21.028,3.164,23.193,1,25.863,1C28.533,1,30.698,3.164,30.698,5.836z"/>
	<polyline fill="none" stroke="#000000" stroke-width="2" stroke-linejoin="round" stroke-miterlimit="10" points="30.698,47 
		21.028,29.75 24.721,10.533 	"/>
	
		<line fill="none" stroke="#000000" stroke-width="2" stroke-linejoin="round" stroke-miterlimit="10" x1="13.417" y1="45.218" x2="21.028" y2="29.17"/>
	<polyline fill="none" stroke="#000000" stroke-width="2" stroke-linejoin="round" stroke-miterlimit="10" points="23.519,17.434 
		28.587,23.066 37.877,23.768 	"/>
	
		<line fill="none" stroke="#000000" stroke-width="2" stroke-linejoin="round" stroke-miterlimit="10" x1="38.333" y1="16.326" x2="35.517" y2="47"/>
	<path fill="none" stroke="#000000" stroke-width="2" stroke-linejoin="round" stroke-miterlimit="10" d="M17.575,26.591
		c-0.354,0.958-1.426,1.454-2.385,1.101l-4.307-1.586c-0.958-0.354-1.454-1.426-1.101-2.384l4.36-11.837
		c0.353-0.96,1.425-1.455,2.384-1.101l4.309,1.587c0.958,0.352,1.453,1.424,1.101,2.382L17.575,26.591z"/>
</g>
</svg>
