<?xml version="1.0" encoding="utf-8"?>
<!-- Generator: Adobe Illustrator 16.0.0, SVG Export Plug-In . SVG Version: 6.00 Build 0)  -->
<!DOCTYPE svg PUBLIC "-//W3C//DTD SVG 1.1//EN" "http://www.w3.org/Graphics/SVG/1.1/DTD/svg11.dtd">
<svg version="1.1" id="Layer_1" xmlns="http://www.w3.org/2000/svg" xmlns:xlink="http://www.w3.org/1999/xlink" x="0px" y="0px"
	 width="48px" height="48px" viewBox="0 0 48 48" enable-background="new 0 0 48 48" xml:space="preserve">
<g>
	<g>
		<path fill="none" stroke="#000000" stroke-width="2" stroke-miterlimit="10" d="M47,40.328c0,1.1-0.9,2-2,2H3c-1.1,0-2-0.9-2-2
			V15.245c0-1.1,0.9-2,2-2h42c1.1,0,2,0.9,2,2V40.328z"/>
	</g>
	<path fill="none" stroke="#000000" stroke-width="2" stroke-miterlimit="10" d="M43.052,27.551c0,5.01-4.064,9.076-9.077,9.076
		c-5.014,0-9.076-4.066-9.076-9.076c0-5.015,4.063-9.078,9.076-9.078C38.987,18.473,43.052,22.536,43.052,27.551z"/>
	
		<rect x="5.947" y="21.029" fill="none" stroke="#000000" stroke-width="2" stroke-linejoin="round" stroke-miterlimit="10" width="13.86" height="8.892"/>
	
		<line fill="none" stroke="#000000" stroke-width="2" stroke-linecap="round" stroke-miterlimit="10" x1="6.262" y1="35.15" x2="6.262" y2="36.644"/>
	
		<line fill="none" stroke="#000000" stroke-width="2" stroke-linecap="round" stroke-miterlimit="10" x1="11.067" y1="35.15" x2="11.067" y2="36.644"/>
	
		<line fill="none" stroke="#000000" stroke-width="2" stroke-linecap="round" stroke-miterlimit="10" x1="15.874" y1="35.15" x2="15.874" y2="36.644"/>
	
		<line fill="none" stroke="#000000" stroke-width="2" stroke-linecap="round" stroke-miterlimit="10" x1="20.677" y1="35.15" x2="20.677" y2="36.644"/>
	
		<polyline fill="none" stroke="#000000" stroke-width="2" stroke-linecap="round" stroke-linejoin="round" stroke-miterlimit="10" points="
		39.799,11.926 39.799,5.672 8.203,5.672 8.203,11.926 	"/>
</g>
</svg>
