<?xml version="1.0" encoding="utf-8"?>
<!-- Generator: Adobe Illustrator 16.0.0, SVG Export Plug-In . SVG Version: 6.00 Build 0)  -->
<!DOCTYPE svg PUBLIC "-//W3C//DTD SVG 1.1//EN" "http://www.w3.org/Graphics/SVG/1.1/DTD/svg11.dtd">
<svg version="1.1" id="Layer_1" xmlns="http://www.w3.org/2000/svg" xmlns:xlink="http://www.w3.org/1999/xlink" x="0px" y="0px"
	 width="48px" height="48px" viewBox="0 0 48 48" enable-background="new 0 0 48 48" xml:space="preserve">
<g>
	<g>
		<g>
			<polygon points="34.706,17.744 24.515,17.744 24.515,7.554 26.278,7.554 26.278,15.981 34.706,15.981 			"/>
		</g>
		<g>
			<path d="M35.743,48H6.052V6.516h19.959l9.732,9.733V48z M7.813,46.236h26.168V16.979L25.28,8.279H7.813V46.236z"/>
		</g>
	</g>
	<g>
		<g>
			<polygon points="40.911,11.228 30.722,11.228 30.722,1.036 32.483,1.036 32.483,9.465 40.911,9.465 			"/>
		</g>
		<g>
			<polygon points="41.948,41.484 34.706,41.484 34.706,39.721 40.185,39.721 40.185,10.461 31.487,1.763 14.019,1.763 
				14.019,7.397 12.257,7.397 12.257,0 32.216,0 41.948,9.731 			"/>
		</g>
	</g>
</g>
</svg>
