<?xml version="1.0" encoding="utf-8"?>
<!-- Generator: Adobe Illustrator 16.0.0, SVG Export Plug-In . SVG Version: 6.00 Build 0)  -->
<!DOCTYPE svg PUBLIC "-//W3C//DTD SVG 1.1//EN" "http://www.w3.org/Graphics/SVG/1.1/DTD/svg11.dtd">
<svg version="1.1" id="Layer_1" xmlns="http://www.w3.org/2000/svg" xmlns:xlink="http://www.w3.org/1999/xlink" x="0px" y="0px"
	 width="48px" height="48px" viewBox="0 0 48 48" enable-background="new 0 0 48 48" xml:space="preserve">
<g>
	<path fill="none" stroke="#000000" stroke-width="2" stroke-miterlimit="10" d="M39.59,13.77c0,1.443-1.17,2.612-2.611,2.612H6.39
		c-1.442,0-2.611-1.169-2.611-2.612V3.864c0-1.443,1.168-2.612,2.611-2.612h30.589c1.441,0,2.611,1.169,2.611,2.612V13.77z"/>
	<path fill="none" stroke="#000000" stroke-width="2" stroke-miterlimit="10" d="M28.476,45.008c0,0.96-0.779,1.74-1.741,1.74
		h-3.309c-0.962,0-1.741-0.78-1.741-1.74V29.459h6.791V45.008z"/>
	<polyline fill="none" stroke="#000000" stroke-width="2" stroke-miterlimit="10" points="39.59,8.817 47,8.817 47,21.742 
		25.08,21.742 25.08,29.459 	"/>
	<line fill="none" stroke="#000000" stroke-width="2" stroke-miterlimit="10" x1="1" y1="8.817" x2="3.779" y2="8.817"/>
</g>
</svg>
