<?xml version="1.0" encoding="utf-8"?>
<!-- Generator: Adobe Illustrator 16.0.0, SVG Export Plug-In . SVG Version: 6.00 Build 0)  -->
<!DOCTYPE svg PUBLIC "-//W3C//DTD SVG 1.1//EN" "http://www.w3.org/Graphics/SVG/1.1/DTD/svg11.dtd">
<svg version="1.1" id="Layer_1" xmlns="http://www.w3.org/2000/svg" xmlns:xlink="http://www.w3.org/1999/xlink" x="0px" y="0px"
	 width="48px" height="48px" viewBox="0 0 48 48" enable-background="new 0 0 48 48" xml:space="preserve">
<g>
	<path fill="none" stroke="#000000" stroke-width="2" stroke-miterlimit="10" d="M47,42.296c0,0.843-0.684,1.524-1.523,1.524H11.662
		c-0.842,0-1.524-0.682-1.524-1.524V14.842c0-0.842,0.682-1.523,1.524-1.523h33.815C46.316,13.319,47,14,47,14.842V42.296z"/>
	<path fill="none" stroke="#000000" stroke-width="2" stroke-miterlimit="10" d="M5.646,34.68H2.522C1.681,34.68,1,33.999,1,33.158
		V5.703C1,4.861,1.681,4.18,2.522,4.18h33.816c0.84,0,1.523,0.681,1.523,1.522v3.313"/>
	<polyline fill="none" stroke="#000000" stroke-width="2" stroke-miterlimit="10" points="13.692,43.82 27.165,30.158 
		33.342,36.521 39.515,30.158 47,36.521 	"/>
	<circle fill="none" stroke="#000000" stroke-width="2" stroke-miterlimit="10" cx="18.932" cy="24.147" r="3.555"/>
</g>
</svg>
