<?xml version="1.0" encoding="utf-8"?>
<!-- Generator: Adobe Illustrator 16.0.0, SVG Export Plug-In . SVG Version: 6.00 Build 0)  -->
<!DOCTYPE svg PUBLIC "-//W3C//DTD SVG 1.1//EN" "http://www.w3.org/Graphics/SVG/1.1/DTD/svg11.dtd">
<svg version="1.1" id="Layer_1" xmlns="http://www.w3.org/2000/svg" xmlns:xlink="http://www.w3.org/1999/xlink" x="0px" y="0px"
	 width="48px" height="48px" viewBox="0 0 48 48" enable-background="new 0 0 48 48" xml:space="preserve">
<g>
	<path fill="none" stroke="#000000" stroke-width="2" stroke-miterlimit="10" d="M44.984,33.993c0,0.958-0.777,1.735-1.733,1.735
		H4.748c-0.958,0-1.733-0.777-1.733-1.735V2.734C3.015,1.776,3.79,1,4.748,1h38.503c0.956,0,1.733,0.776,1.733,1.734V33.993z"/>
	<path fill="none" stroke="#000000" stroke-width="2" stroke-miterlimit="10" d="M44.984,31.349v13.916
		c0,0.96-0.777,1.735-1.733,1.735H4.748c-0.958,0-1.733-0.775-1.733-1.735V31.349"/>
	<polyline fill="none" stroke="#000000" stroke-width="2" stroke-miterlimit="10" points="7.062,35.729 22.402,20.175 29.434,27.42 
		36.462,20.175 44.984,27.42 	"/>
	<circle fill="none" stroke="#000000" stroke-width="2" stroke-miterlimit="10" cx="13.027" cy="13.329" r="4.048"/>
</g>
</svg>
