<?xml version="1.0" encoding="utf-8"?>
<!-- Generator: Adobe Illustrator 16.0.0, SVG Export Plug-In . SVG Version: 6.00 Build 0)  -->
<!DOCTYPE svg PUBLIC "-//W3C//DTD SVG 1.1//EN" "http://www.w3.org/Graphics/SVG/1.1/DTD/svg11.dtd">
<svg version="1.1" id="Layer_1" xmlns="http://www.w3.org/2000/svg" xmlns:xlink="http://www.w3.org/1999/xlink" x="0px" y="0px"
	 width="48px" height="48px" viewBox="0 0 48 48" enable-background="new 0 0 48 48" xml:space="preserve">
<g>
	<path fill="none" stroke="#000000" stroke-width="2" stroke-miterlimit="10" d="M38.701,5.692h7.412C46.602,5.692,47,6.089,47,6.58
		v39.311c0,0.489-0.398,0.886-0.887,0.886H1.886C1.397,46.776,1,46.38,1,45.891V6.58c0-0.49,0.397-0.887,0.886-0.887h7.382"/>
	<line fill="none" stroke="#000000" stroke-width="2" stroke-miterlimit="10" x1="1" y1="18.333" x2="47" y2="18.333"/>
	<g>
		<path fill="none" stroke="#000000" stroke-width="2" stroke-miterlimit="10" d="M16.689,9.122c0,0.329-0.35,0.595-0.782,0.595
			h-4.941c-0.433,0-0.783-0.267-0.783-0.595V1.82c0-0.329,0.35-0.596,0.783-0.596h4.941c0.432,0,0.782,0.268,0.782,0.596V9.122z"/>
		<path fill="none" stroke="#000000" stroke-width="2" stroke-miterlimit="10" d="M37.815,9.122c0,0.329-0.351,0.595-0.782,0.595
			h-4.941c-0.433,0-0.782-0.267-0.782-0.595V1.82c0-0.329,0.35-0.596,0.782-0.596h4.941c0.432,0,0.782,0.268,0.782,0.596V9.122z"/>
	</g>
	<line fill="none" stroke="#000000" stroke-width="2" stroke-miterlimit="10" x1="17.582" y1="5.691" x2="30.44" y2="5.691"/>
</g>
</svg>
