<?xml version="1.0" encoding="utf-8"?>
<!-- Generator: Adobe Illustrator 16.0.0, SVG Export Plug-In . SVG Version: 6.00 Build 0)  -->
<!DOCTYPE svg PUBLIC "-//W3C//DTD SVG 1.1//EN" "http://www.w3.org/Graphics/SVG/1.1/DTD/svg11.dtd">
<svg version="1.1" id="Layer_1" xmlns="http://www.w3.org/2000/svg" xmlns:xlink="http://www.w3.org/1999/xlink" x="0px" y="0px"
	 width="48px" height="48px" viewBox="0 0 48 48" enable-background="new 0 0 48 48" xml:space="preserve">
<g>
	<g>
		<line fill="none" stroke="#000000" stroke-width="2" stroke-miterlimit="10" x1="15.937" y1="32.623" x2="31.214" y2="32.623"/>
	</g>
	<path fill="none" stroke="#000000" stroke-width="2" stroke-miterlimit="10" d="M38.845,5.513h7.487c0.492,0,0.895,0.4,0.895,0.896
		v39.695c0,0.494-0.402,0.896-0.895,0.896H1.67c-0.496,0-0.896-0.402-0.896-0.896V6.408c0-0.495,0.4-0.896,0.896-0.896h7.455"/>
	<line fill="none" stroke="#000000" stroke-width="2" stroke-miterlimit="10" x1="0.773" y1="18.277" x2="47.227" y2="18.277"/>
	<g>
		<path fill="none" stroke="#000000" stroke-width="2" stroke-miterlimit="10" d="M16.62,8.975c0,0.332-0.355,0.602-0.792,0.602
			h-4.99c-0.436,0-0.79-0.27-0.79-0.602V1.602c0-0.331,0.354-0.602,0.79-0.602h4.99c0.436,0,0.792,0.271,0.792,0.602V8.975z"/>
		<path fill="none" stroke="#000000" stroke-width="2" stroke-miterlimit="10" d="M37.954,8.975c0,0.332-0.355,0.602-0.792,0.602
			h-4.99c-0.438,0-0.79-0.27-0.79-0.602V1.602c0-0.331,0.353-0.602,0.79-0.602h4.99c0.437,0,0.792,0.271,0.792,0.602V8.975z"/>
	</g>
	<line fill="none" stroke="#000000" stroke-width="2" stroke-miterlimit="10" x1="17.52" y1="5.512" x2="30.506" y2="5.512"/>
</g>
</svg>
