<?xml version="1.0" encoding="utf-8"?>
<!-- Generator: Adobe Illustrator 16.0.0, SVG Export Plug-In . SVG Version: 6.00 Build 0)  -->
<!DOCTYPE svg PUBLIC "-//W3C//DTD SVG 1.1//EN" "http://www.w3.org/Graphics/SVG/1.1/DTD/svg11.dtd">
<svg version="1.1" id="Layer_1" xmlns="http://www.w3.org/2000/svg" xmlns:xlink="http://www.w3.org/1999/xlink" x="0px" y="0px"
	 width="48px" height="48px" viewBox="0 0 48 48" enable-background="new 0 0 48 48" xml:space="preserve">
<g>
	<g>
		<path fill="none" stroke="#000000" stroke-width="2" stroke-linecap="round" stroke-linejoin="round" stroke-miterlimit="10" d="
			M47,37.551c0,0.55-0.45,1-1,1H2c-0.55,0-1-0.45-1-1V10.449c0-0.55,0.45-1,1-1h44c0.55,0,1,0.45,1,1V37.551z"/>
	</g>
	<g>
		<path fill="none" stroke="#000000" stroke-width="2" stroke-linecap="round" stroke-linejoin="round" stroke-miterlimit="10" d="
			M17.015,21.171c0,2.252-1.826,4.08-4.082,4.08c-2.25,0-4.076-1.828-4.076-4.08c0-2.249,1.826-4.076,4.076-4.076
			C15.189,17.095,17.015,18.922,17.015,21.171z"/>
		<path fill="none" stroke="#000000" stroke-width="2" stroke-linecap="round" stroke-linejoin="round" stroke-miterlimit="10" d="
			M39.141,21.171c0,2.252-1.824,4.08-4.078,4.08c-2.249,0-4.076-1.828-4.076-4.08c0-2.249,1.827-4.076,4.076-4.076
			C37.316,17.095,39.141,18.922,39.141,21.171z"/>
	</g>
	
		<polyline fill="none" stroke="#000000" stroke-width="2" stroke-linecap="round" stroke-linejoin="round" stroke-miterlimit="10" points="
		10.361,37.539 13.698,31.737 33.83,31.737 37.639,37.539 	"/>
</g>
</svg>
