<?xml version="1.0" encoding="utf-8"?>
<!-- Generator: Adobe Illustrator 16.0.0, SVG Export Plug-In . SVG Version: 6.00 Build 0)  -->
<!DOCTYPE svg PUBLIC "-//W3C//DTD SVG 1.1//EN" "http://www.w3.org/Graphics/SVG/1.1/DTD/svg11.dtd">
<svg version="1.1" id="Layer_1" xmlns="http://www.w3.org/2000/svg" xmlns:xlink="http://www.w3.org/1999/xlink" x="0px" y="0px"
	 width="48px" height="48px" viewBox="0 0 48 48" enable-background="new 0 0 48 48" xml:space="preserve">
<g>
	<polygon fill="none" stroke="#000000" stroke-width="2" stroke-miterlimit="10" points="23.906,1 6.286,25.854 13.706,39.024 
		34.853,39.024 41.714,25.854 	"/>
	<path fill="none" stroke="#000000" stroke-width="2" stroke-miterlimit="10" d="M41.714,45.42c0,0.874-0.707,1.58-1.581,1.58H7.866
		c-0.873,0-1.58-0.706-1.58-1.58v-4.815c0-0.874,0.708-1.58,1.58-1.58h32.267c0.874,0,1.581,0.706,1.581,1.58V45.42z"/>
	<line fill="none" stroke="#000000" stroke-width="2" stroke-miterlimit="10" x1="24" y1="1" x2="24" y2="13.242"/>
	<path fill="none" stroke="#000000" stroke-width="2" stroke-miterlimit="10" d="M29.103,26.503c0,2.818-2.282,5.102-5.103,5.102
		c-2.817,0-5.101-2.283-5.101-5.102c0-2.815,2.284-5.1,5.101-5.1C26.82,21.403,29.103,23.688,29.103,26.503z"/>
</g>
</svg>
