<?xml version="1.0" encoding="utf-8"?>
<!-- Generator: Adobe Illustrator 16.0.0, SVG Export Plug-In . SVG Version: 6.00 Build 0)  -->
<!DOCTYPE svg PUBLIC "-//W3C//DTD SVG 1.1//EN" "http://www.w3.org/Graphics/SVG/1.1/DTD/svg11.dtd">
<svg version="1.1" id="Layer_1" xmlns="http://www.w3.org/2000/svg" xmlns:xlink="http://www.w3.org/1999/xlink" x="0px" y="0px"
	 width="48px" height="48px" viewBox="0 0 48 48" enable-background="new 0 0 48 48" xml:space="preserve">
<g>
	<g>
		<g>
			<path d="M44.345,14.014L43.72,13.04c-2.715-4.231-6.816-7.465-11.549-9.101l-1.104-0.383l0.744-0.899
				C32.88,1.373,34.188,0,36.261,0c1.699,0,3.646,0.921,6.131,2.896c5.396,4.293,5.016,7.084,2.652,10.197L44.345,14.014z
				 M33.823,2.832c4.238,1.711,7.938,4.63,10.6,8.361c1.082-1.66,1.377-3.518-3.039-7.03c-2.152-1.713-3.828-2.546-5.123-2.546
				C35.321,1.617,34.595,2.052,33.823,2.832z"/>
		</g>
		<g>
			<path d="M3.653,14.014l-0.701-0.922C0.594,9.98,0.213,7.189,5.606,2.896C8.09,0.921,10.038,0,11.737,0
				c2.07,0,3.385,1.373,4.449,2.657l0.746,0.899l-1.105,0.383c-4.73,1.636-8.834,4.868-11.549,9.102L3.653,14.014z M11.737,1.617
				c-1.293,0-2.969,0.833-5.123,2.546c-4.414,3.513-4.123,5.37-3.039,7.03c2.664-3.731,6.365-6.65,10.602-8.361
				C13.405,2.052,12.676,1.617,11.737,1.617z"/>
		</g>
	</g>
	<g>
		<g>
			<rect x="7.941" y="41.225" transform="matrix(0.7071 0.7071 -0.7071 0.7071 34.1847 6.9122)" width="1.616" height="6.991"/>
		</g>
		<g>
			<rect x="35.461" y="44" transform="matrix(0.7072 0.707 -0.707 0.7072 43.1204 -14.5108)" width="7.241" height="1.619"/>
		</g>
	</g>
	<g>
		<g>
			<path d="M23.999,48C11.704,48,1.704,38,1.704,25.705c0-12.294,10-22.295,22.295-22.295c12.295,0,22.295,10.001,22.295,22.295
				C46.294,38,36.294,48,23.999,48z M23.999,5.026c-11.4,0-20.678,9.276-20.678,20.679s9.277,20.68,20.678,20.68
				c11.403,0,20.68-9.277,20.68-20.68S35.401,5.026,23.999,5.026z"/>
		</g>
		<g>
			<polygon points="25.06,27.725 11.028,27.725 11.028,26.107 23.444,26.107 23.444,10.251 25.06,10.251 			"/>
		</g>
	</g>
</g>
</svg>
