<?xml version="1.0" encoding="utf-8"?>
<!-- Generator: Adobe Illustrator 16.0.0, SVG Export Plug-In . SVG Version: 6.00 Build 0)  -->
<!DOCTYPE svg PUBLIC "-//W3C//DTD SVG 1.1//EN" "http://www.w3.org/Graphics/SVG/1.1/DTD/svg11.dtd">
<svg version="1.1" id="Layer_1" xmlns="http://www.w3.org/2000/svg" xmlns:xlink="http://www.w3.org/1999/xlink" x="0px" y="0px"
	 width="48px" height="48px" viewBox="0 0 48 48" enable-background="new 0 0 48 48" xml:space="preserve">
<g>
	<path d="M47.582,31.048c0.094-1.52-0.32-2.588-0.727-3.258c0.516-0.656,1.109-1.748,1.143-3.315
		c0.09-4.404-4.129-5.884-6.449-6.053h-7.08l-0.1-0.007c-0.287-0.621,0.158-1.309,0.152-1.309v0.002
		c0.094-0.115,2.344-2.864,3.859-7.36c1.682-4.987-2.627-8.518-2.813-8.664l-0.25-0.149c-0.166-0.067-1.668-0.646-3.086,0.189
		c-1.086,0.638-1.74,1.873-1.953,3.674c-0.49,4.183-4,7.688-5.637,8.973c-0.232,0.18-0.416,0.325-0.542,0.434
		c-1.191,1.031-2.377,3.733-3.275,5.573c-0.6,1.229-2.246,3.208-3.092,3.938c-0.578,0.012-1.717,0.034-2.48,0.038
		c-0.291-0.918-1.139-2.003-2.15-2.003H2.264C1.016,21.75,0,22.767,0,24.015v21.01c0,1.25,1.016,2.266,2.264,2.266h10.838
		c1.104,0,2.02-0.793,2.223-1.836c0.389-0.016,0.742-0.381,0.947-0.354c0.281,0.307,0.916,1.5,2.469,2.127l0.184,0.076h0.199
		c0.123,0,7.283,0.02,13.775,0.02c3.275,0,6.123-0.004,7.285-0.02c2.098-0.027,3.189-0.949,3.734-1.715
		c1.059-1.488,1.082-3.18,0.889-4.189c1.375-1.264,1.533-3.541,1.568-4.486c0.031-0.848-0.174-1.449-0.451-2.059
		C46.691,34.157,47.477,32.786,47.582,31.048z M13.319,45.024c0,0.121-0.098,0.219-0.217,0.219H2.264
		c-0.119,0-0.217-0.098-0.217-0.219v-21.01c0-0.12,0.098-0.218,0.217-0.218h10.838c0.119,0,0.217,0.098,0.217,0.218V45.024z
		 M44.91,26.886l-1.012,0.746l0.928,0.855c0.033,0.031,0.814,0.771,0.713,2.436c-0.115,1.898-1.404,2.709-1.418,2.715l-1.48,0.619
		l1.188,1.053c0.1,0.113,0.586,0.701,0.492,1.682c-0.08,0.836-0.387,2.539-1.277,3.219l-1.16,0.443l0.813,0.693
		c0.205,0.619,0.242,2.09-0.443,3.055c-0.4,0.563-1.086,0.842-2.096,0.855c-3.252,0.045-18.798,0.006-20.826,0.002
		c-0.643-0.273-1.293-0.609-1.504-0.779c-0.178-0.318-0.666-1.504-2.506-1.445V25.798c1.08-0.006,2.814-0.045,2.814-0.045
		l0.352-0.008l0.271-0.221c0.119-0.096,2.9-2.786,3.908-4.85c0.963-1.977,1.953-4.215,2.771-4.922
		c0.107-0.093,0.268-0.217,0.465-0.373c1.682-1.316,5.822-5.315,6.41-10.345c0.129-1.104,0.457-1.846,0.947-2.142
		c0.416-0.252,0.924-0.164,1.154-0.104c0.605,0.548,3.117,3.068,2.027,6.305c-1.387,4.116-3.477,6.685-3.541,6.767
		c-0.521,0.729-1.139,2.355-0.156,3.828c0.445,0.67,1.217,0.84,1.787,0.777l6.939-0.003c0.186,0.016,4.553,0.406,4.48,3.97
		C45.916,26.104,44.939,26.862,44.91,26.886z"/>
</g>
</svg>
