<?xml version="1.0" encoding="utf-8"?>
<!-- Generator: Adobe Illustrator 16.0.0, SVG Export Plug-In . SVG Version: 6.00 Build 0)  -->
<!DOCTYPE svg PUBLIC "-//W3C//DTD SVG 1.1//EN" "http://www.w3.org/Graphics/SVG/1.1/DTD/svg11.dtd">
<svg version="1.1" id="Layer_1" xmlns="http://www.w3.org/2000/svg" xmlns:xlink="http://www.w3.org/1999/xlink" x="0px" y="0px"
	 width="48px" height="48px" viewBox="0 0 48 48" enable-background="new 0 0 48 48" xml:space="preserve">
<g>
	<g>
		<path d="M22.36,46.363c-5.924,0-11.501-2.291-15.717-6.457C2.394,35.705,0.036,30.104,0,24.13
			c-0.032-5.974,2.259-11.604,6.46-15.852c4.199-4.247,9.802-6.607,15.777-6.642c0.041,0,0.086,0,0.127,0
			c12.258,0,22.28,9.936,22.364,22.207l-1.533,0.011C43.116,12.424,33.782,3.169,22.364,3.169c-0.039,0-0.08,0-0.119,0
			C16.678,3.201,11.461,5.398,7.55,9.355c-3.913,3.957-6.049,9.2-6.018,14.766c0.033,5.563,2.229,10.781,6.188,14.695
			c3.926,3.881,9.123,6.014,14.64,6.014c0.041,0,0.082,0,0.125,0c6.672-0.039,12.971-3.309,16.852-8.752l1.248,0.889
			c-4.166,5.842-10.928,9.355-18.092,9.396C22.448,46.363,22.403,46.363,22.36,46.363z"/>
	</g>
	<g>
		<polygon points="37.997,18.399 43.05,27.035 48.001,18.344 		"/>
	</g>
	<g>
		<g>
			<path d="M16.323,23.348l-0.023-4.14c-0.02-3.328,2.676-6.052,6.002-6.07c3.344,0,6.051,2.692,6.073,6.001l0.021,4.139
				L16.323,23.348z M22.338,14.67c-2.512,0.013-4.521,2.045-4.508,4.529l0.016,2.607l9.008-0.053l-0.014-2.606
				C26.827,16.68,24.806,14.67,22.338,14.67z"/>
		</g>
		<g>
			<path d="M14.92,34.906h-0.004c-0.605,0-1.102-0.494-1.104-1.1l-0.064-10.872c-0.002-0.609,0.49-1.106,1.098-1.112l15.008-0.085
				c0.611,0,1.107,0.492,1.109,1.098l0.064,10.872c0.002,0.295-0.111,0.574-0.318,0.785c-0.209,0.209-0.484,0.326-0.781,0.326
				L14.92,34.906z M15.284,23.354l0.059,10.018l14.151-0.082l-0.059-10.018L15.284,23.354z"/>
		</g>
	</g>
</g>
</svg>
