<?xml version="1.0" encoding="utf-8"?>
<!-- Generator: Adobe Illustrator 16.0.0, SVG Export Plug-In . SVG Version: 6.00 Build 0)  -->
<!DOCTYPE svg PUBLIC "-//W3C//DTD SVG 1.1//EN" "http://www.w3.org/Graphics/SVG/1.1/DTD/svg11.dtd">
<svg version="1.1" id="Layer_1" xmlns="http://www.w3.org/2000/svg" xmlns:xlink="http://www.w3.org/1999/xlink" x="0px" y="0px"
	 width="48px" height="48px" viewBox="0 0 48 48" enable-background="new 0 0 48 48" xml:space="preserve">
<g>
	<rect x="20.393" y="1.892" fill="#0C0D0D" width="7.287" height="27.289"/>
	<path fill="none" stroke="#000000" stroke-width="2" stroke-miterlimit="10" d="M46.886,44.268c0,1.508-1.224,2.732-2.732,2.732
		H3.847c-1.511,0-2.733-1.225-2.733-2.732V3.734C1.114,2.225,2.336,1,3.847,1h40.306c1.509,0,2.732,1.225,2.732,2.734V44.268z"/>
	<rect x="6.806" y="6.694" fill="none" stroke="#000000" stroke-width="2" stroke-miterlimit="10" width="34.386" height="34.614"/>
	<g>
		<rect x="22.176" y="1.892" fill="#FFFFFF" width="1.823" height="1.823"/>
		<rect x="24" y="3.715" fill="#FFFFFF" width="1.822" height="1.82"/>
		<rect x="22.176" y="5.535" fill="#FFFFFF" width="1.823" height="1.822"/>
		<rect x="24" y="7.357" fill="#FFFFFF" width="1.822" height="1.822"/>
		<rect x="22.176" y="9.122" fill="#FFFFFF" width="1.823" height="1.822"/>
		<rect x="24" y="10.944" fill="#FFFFFF" width="1.822" height="1.822"/>
		<rect x="22.176" y="12.766" fill="#FFFFFF" width="1.823" height="1.821"/>
		<rect x="24" y="14.587" fill="#FFFFFF" width="1.822" height="1.822"/>
		<rect x="22.176" y="16.409" fill="#FFFFFF" width="1.823" height="1.822"/>
		<rect x="24" y="18.231" fill="#FFFFFF" width="1.822" height="1.821"/>
		<rect x="22.176" y="20.053" fill="#FFFFFF" width="1.823" height="1.822"/>
		<rect x="24" y="21.875" fill="#FFFFFF" width="1.822" height="1.821"/>
		<rect x="22.176" y="23.696" fill="#FFFFFF" width="1.823" height="1.822"/>
		<rect x="24" y="25.518" fill="#FFFFFF" width="1.822" height="1.821"/>
	</g>
</g>
</svg>
