<?xml version="1.0" encoding="utf-8"?>
<!-- Generator: Adobe Illustrator 16.0.0, SVG Export Plug-In . SVG Version: 6.00 Build 0)  -->
<!DOCTYPE svg PUBLIC "-//W3C//DTD SVG 1.1//EN" "http://www.w3.org/Graphics/SVG/1.1/DTD/svg11.dtd">
<svg version="1.1" id="Layer_1" xmlns="http://www.w3.org/2000/svg" xmlns:xlink="http://www.w3.org/1999/xlink" x="0px" y="0px"
	 width="48px" height="48px" viewBox="0 0 48 48" enable-background="new 0 0 48 48" xml:space="preserve">
<g>
	<path fill-rule="evenodd" clip-rule="evenodd" d="M24.026,44.868c0,0-24.026-10.43-24.026-26.915
		C-0.001,8.349,5.81,3.132,11.95,3.132v2.087c-2.556,0-4.941,1.104-6.717,3.106c-2.059,2.322-3.146,5.653-3.146,9.628
		c0,13.292,17.833,22.638,21.937,24.612c4.089-1.979,21.888-11.359,21.888-24.711c0-3.927-1.08-7.193-3.125-9.441
		c-1.762-1.939-4.145-3.005-6.711-3.005c-7.012,0-12.082,10.631-12.082,10.631S18.899,5.221,11.952,5.219L11.95,3.132h0.002
		c4.595,0,9.376,2.926,12.037,9.121c2.568-6.02,7.416-8.933,12.087-8.933C42.189,3.32,48,8.311,48,17.854
		C48,34.438,24.026,44.868,24.026,44.868z M11.95,3.132L11.95,3.132L11.95,3.132L11.95,3.132z"/>
</g>
</svg>
