<?xml version="1.0" encoding="utf-8"?>
<!-- Generator: Adobe Illustrator 16.0.0, SVG Export Plug-In . SVG Version: 6.00 Build 0)  -->
<!DOCTYPE svg PUBLIC "-//W3C//DTD SVG 1.1//EN" "http://www.w3.org/Graphics/SVG/1.1/DTD/svg11.dtd">
<svg version="1.1" id="Layer_1" xmlns="http://www.w3.org/2000/svg" xmlns:xlink="http://www.w3.org/1999/xlink" x="0px" y="0px"
	 width="48px" height="48px" viewBox="0 0 48 48" enable-background="new 0 0 48 48" xml:space="preserve">
<g>
	<g>
		<g>
			<path d="M15.771,14.278c-1.299,0-2.352,1.053-2.352,2.352s1.053,2.352,2.352,2.352s2.354-1.053,2.354-2.352
				S17.069,14.278,15.771,14.278z M33.132,14.278c-1.299,0-2.352,1.053-2.352,2.352s1.053,2.352,2.352,2.352
				c1.301,0,2.354-1.053,2.354-2.352S34.433,14.278,33.132,14.278z M42.778,11.654c0-1.538-1.256-2.791-2.793-2.791H33.56
				C33.313,3.935,29.239,0,24.253,0s-9.059,3.935-9.305,8.863H8.022c-1.541,0-2.793,1.253-2.789,2.687L2.001,45.207
				C2.001,46.746,3.255,48,4.796,48h38.416c1.539,0,2.793-1.254,2.787-2.896L42.778,11.654z M24.253,2.171
				c3.791,0,6.902,2.959,7.145,6.692H17.11C17.351,5.13,20.464,2.171,24.253,2.171z M43.212,45.83H4.796
				c-0.344,0-0.623-0.279-0.629-0.52l3.232-33.656c0-0.343,0.279-0.622,0.623-0.622h31.963c0.342,0,0.623,0.279,0.627,0.727
				l3.223,33.448C43.835,45.551,43.556,45.83,43.212,45.83z"/>
		</g>
	</g>
</g>
</svg>
