<?xml version="1.0" encoding="utf-8"?>
<!-- Generator: Adobe Illustrator 16.0.0, SVG Export Plug-In . SVG Version: 6.00 Build 0)  -->
<!DOCTYPE svg PUBLIC "-//W3C//DTD SVG 1.1//EN" "http://www.w3.org/Graphics/SVG/1.1/DTD/svg11.dtd">
<svg version="1.1" id="Layer_1" xmlns="http://www.w3.org/2000/svg" xmlns:xlink="http://www.w3.org/1999/xlink" x="0px" y="0px"
	 width="48px" height="48px" viewBox="0 0 48 48" enable-background="new 0 0 48 48" xml:space="preserve">
<g>
	<path fill-rule="evenodd" clip-rule="evenodd" d="M46.957,25.043H40.59c0.057-0.34,0.105-0.687,0.105-1.043
		c0-0.359-0.049-0.703-0.105-1.044h6.367C47.533,22.956,48,23.423,48,24C48,24.576,47.533,25.043,46.957,25.043z M46.957,9.391
		H19.721c0.057-0.34,0.105-0.687,0.105-1.043c0-0.358-0.049-0.703-0.105-1.044h27.236C47.533,7.304,48,7.771,48,8.348
		C48,8.924,47.533,9.391,46.957,9.391z M13.566,12.521c-2.307,0-4.174-1.869-4.174-4.174c0-2.306,1.867-4.174,4.174-4.174
		c2.305,0,4.174,1.868,4.174,4.174C17.74,10.652,15.871,12.521,13.566,12.521z M13.566,6.261c-1.154,0-2.088,0.934-2.088,2.087
		c0,1.151,0.934,2.087,2.088,2.087c1.15,0,2.086-0.936,2.086-2.087C15.652,7.194,14.717,6.261,13.566,6.261z M1.045,9.391
		C0.467,9.391,0,8.924,0,8.348c0-0.577,0.467-1.044,1.045-1.044h6.363C7.352,7.645,7.305,7.989,7.305,8.348
		c0,0.356,0.047,0.703,0.104,1.043H1.045z M1.045,22.956h27.234c-0.059,0.341-0.105,0.685-0.105,1.044
		c0,0.356,0.047,0.703,0.105,1.043H1.045C0.467,25.043,0,24.576,0,24C0,23.423,0.467,22.956,1.045,22.956z M1.045,38.607h6.363
		c-0.057,0.342-0.104,0.686-0.104,1.043s0.047,0.703,0.104,1.045H1.045C0.467,40.695,0,40.229,0,39.65
		C0,39.074,0.467,38.607,1.045,38.607z M13.566,35.477c2.305,0,4.174,1.869,4.174,4.174c0,2.307-1.869,4.176-4.174,4.176
		c-2.307,0-4.174-1.869-4.174-4.176C9.393,37.346,11.26,35.477,13.566,35.477z M13.566,41.738c1.15,0,2.086-0.936,2.086-2.088
		s-0.936-2.086-2.086-2.086c-1.154,0-2.088,0.934-2.088,2.086S12.412,41.738,13.566,41.738z M30.262,24
		c0-2.306,1.869-4.174,4.174-4.174s4.174,1.868,4.174,4.174c0,2.305-1.869,4.174-4.174,4.174S30.262,26.305,30.262,24z M36.521,24
		c0-1.154-0.936-2.087-2.086-2.087c-1.154,0-2.088,0.933-2.088,2.087c0,1.151,0.934,2.086,2.088,2.086
		C35.586,26.086,36.521,25.151,36.521,24z M46.957,38.607c0.576,0,1.043,0.467,1.043,1.043c0,0.578-0.467,1.045-1.043,1.045H19.721
		c0.057-0.342,0.105-0.688,0.105-1.045s-0.049-0.701-0.105-1.043H46.957z"/>
</g>
</svg>
