<?xml version="1.0" encoding="utf-8"?>
<!-- Generator: Adobe Illustrator 16.0.0, SVG Export Plug-In . SVG Version: 6.00 Build 0)  -->
<!DOCTYPE svg PUBLIC "-//W3C//DTD SVG 1.1//EN" "http://www.w3.org/Graphics/SVG/1.1/DTD/svg11.dtd">
<svg version="1.1" id="Layer_1" xmlns="http://www.w3.org/2000/svg" xmlns:xlink="http://www.w3.org/1999/xlink" x="0px" y="0px"
	 width="48px" height="48px" viewBox="0 0 48 48" enable-background="new 0 0 48 48" xml:space="preserve">
<g>
	<g>
		<path fill="none" stroke="#000000" stroke-width="2" stroke-linecap="round" stroke-linejoin="round" stroke-miterlimit="10" d="
			M36.58,41.865c0,0.55-0.45,1-1,1H2c-0.55,0-1-0.45-1-1v-26.05c0-0.55,0.45-1,1-1h33.58c0.55,0,1,0.45,1,1V41.865z"/>
	</g>
	
		<polyline fill="none" stroke="#000000" stroke-width="2" stroke-linecap="round" stroke-linejoin="round" stroke-miterlimit="10" points="
		37.613,23.302 47,17.952 47,39.732 37.613,34.659 	"/>
	<g>
		
			<circle fill="none" stroke="#000000" stroke-width="2" stroke-linecap="round" stroke-linejoin="round" stroke-miterlimit="10" cx="26.214" cy="29.727" r="3.614"/>
		
			<circle fill="none" stroke="#000000" stroke-width="2" stroke-linecap="round" stroke-linejoin="round" stroke-miterlimit="10" cx="11.363" cy="29.727" r="3.616"/>
	</g>
	
		<polyline fill="none" stroke="#000000" stroke-width="2" stroke-linecap="round" stroke-linejoin="round" stroke-miterlimit="10" points="
		10.858,13.626 10.858,8.229 23.728,8.229 	"/>
	<path fill="none" stroke="#000000" stroke-width="2" stroke-linecap="round" stroke-linejoin="round" stroke-miterlimit="10" d="
		M36.58,8.229c0,1.713-2.873,3.1-6.422,3.1c-3.552,0-6.431-1.387-6.431-3.1c0-1.708,2.879-3.094,6.431-3.094
		C33.707,5.135,36.58,6.52,36.58,8.229z"/>
</g>
</svg>
