<?xml version="1.0" encoding="utf-8"?>
<!-- Generator: Adobe Illustrator 16.0.0, SVG Export Plug-In . SVG Version: 6.00 Build 0)  -->
<!DOCTYPE svg PUBLIC "-//W3C//DTD SVG 1.1//EN" "http://www.w3.org/Graphics/SVG/1.1/DTD/svg11.dtd">
<svg version="1.1" id="Layer_1" xmlns="http://www.w3.org/2000/svg" xmlns:xlink="http://www.w3.org/1999/xlink" x="0px" y="0px"
	 width="48px" height="48px" viewBox="0 0 48 48" enable-background="new 0 0 48 48" xml:space="preserve">
<g>
	<g>
		<path d="M24,35.611c-4.145,0-7.515-3.369-7.515-7.514V7.517C16.485,3.372,19.855,0,24,0c4.143,0,7.516,3.372,7.516,7.517v20.581
			C31.516,32.242,28.143,35.611,24,35.611z M24,1.596c-3.264,0-5.919,2.655-5.919,5.921v20.581c0,3.264,2.656,5.92,5.919,5.92
			c3.266,0,5.92-2.656,5.92-5.92V7.517C29.92,4.251,27.266,1.596,24,1.596z"/>
	</g>
	<g>
		<path d="M24,39.834c-6.292,0-11.412-5.121-11.412-11.414V17.806h1.596V28.42c0,5.414,4.404,9.818,9.816,9.818
			c5.414,0,9.816-4.404,9.816-9.818V17.806h1.596V28.42C35.412,34.713,30.293,39.834,24,39.834z"/>
	</g>
	<g>
		<rect x="17.282" y="46.406" width="13.435" height="1.594"/>
	</g>
	<g>
		<rect x="23.203" y="39.035" width="1.596" height="8.168"/>
	</g>
</g>
</svg>
