<?xml version="1.0" encoding="utf-8"?>
<!-- Generator: Adobe Illustrator 16.0.0, SVG Export Plug-In . SVG Version: 6.00 Build 0)  -->
<!DOCTYPE svg PUBLIC "-//W3C//DTD SVG 1.1//EN" "http://www.w3.org/Graphics/SVG/1.1/DTD/svg11.dtd">
<svg version="1.1" id="Layer_1" xmlns="http://www.w3.org/2000/svg" xmlns:xlink="http://www.w3.org/1999/xlink" x="0px" y="0px"
	 width="48px" height="48px" viewBox="0 0 48 48" enable-background="new 0 0 48 48" xml:space="preserve">
<g>
	<path fill-rule="evenodd" clip-rule="evenodd" d="M47.452,37.466c-0.154,0.084-0.326,0.125-0.496,0.125
		c-0.201,0-0.4-0.059-0.574-0.172l-11.939-8.012v5.031c0,2.305-1.869,4.174-4.176,4.174H4.174C1.869,38.612,0,36.743,0,34.438
		V13.563c0-2.305,1.869-4.175,4.175-4.175h26.092c2.307,0,4.176,1.87,4.176,4.175v5.918l11.947-7.893
		c0.32-0.208,0.73-0.225,1.066-0.039c0.334,0.182,0.545,0.534,0.545,0.916v24.083C48.001,36.931,47.788,37.284,47.452,37.466z
		 M30.267,11.476H4.174c-1.151,0-2.087,0.934-2.087,2.087v20.876c0,1.152,0.936,2.086,2.087,2.086h26.092
		c1.154,0,2.088-0.934,2.088-2.086v-6.918c-0.002-0.029-0.02-0.053-0.02-0.084v-6.003c0-0.03,0.018-0.055,0.02-0.083v-7.788
		C32.354,12.409,31.421,11.476,30.267,11.476z M45.913,14.381l-11.471,7.607v4.899l11.471,7.723V14.381z"/>
</g>
</svg>
