<?xml version="1.0" encoding="utf-8"?>
<!-- Generator: Adobe Illustrator 16.0.0, SVG Export Plug-In . SVG Version: 6.00 Build 0)  -->
<!DOCTYPE svg PUBLIC "-//W3C//DTD SVG 1.1//EN" "http://www.w3.org/Graphics/SVG/1.1/DTD/svg11.dtd">
<svg version="1.1" id="Layer_1" xmlns="http://www.w3.org/2000/svg" xmlns:xlink="http://www.w3.org/1999/xlink" x="0px" y="0px"
	 width="48px" height="48px" viewBox="0 0 48 48" enable-background="new 0 0 48 48" xml:space="preserve">
<g>
	<path d="M29.336,34.166v10.357c0,0.734-0.619,1.354-1.354,1.354c-0.348,0-0.684-0.145-0.945-0.406L14.164,32.598H3.838
		c-0.732,0-1.352-0.619-1.352-1.354V16.757c0-0.733,0.619-1.352,1.352-1.352h10.326L27.037,2.53
		c0.262-0.262,0.598-0.406,0.945-0.406c0.734,0,1.354,0.619,1.354,1.353v9.714h2.123V3.477C31.459,1.561,29.902,0,27.982,0
		c-0.914,0-1.783,0.365-2.447,1.028L13.285,13.28H3.838c-1.916,0-3.477,1.56-3.477,3.477v14.487c0,1.916,1.561,3.477,3.477,3.477
		h9.447l12.25,12.252C26.199,47.637,27.068,48,27.982,48c1.92,0,3.477-1.559,3.477-3.477V34.166H29.336z"/>
	<g>
		<path d="M35.311,28.344c-0.148,0.076-0.314,0.094-0.463,0.094c-0.646,0-1.184-0.518-1.184-1.184c0-1.404,2.146-1.018,2.146-3.254
			c0-2.235-2.146-1.848-2.146-3.252c0-0.667,0.537-1.184,1.184-1.184c0.148,0,0.314,0.018,0.463,0.092
			c1.738,0.684,2.863,2.496,2.863,4.344C38.174,25.85,37.049,27.643,35.311,28.344z M37.176,32.707
			c-0.146,0.057-0.313,0.092-0.461,0.092c-0.664,0-1.201-0.535-1.201-1.182c0-0.518,0.297-0.869,0.721-1.09
			c0.498-0.26,0.961-0.482,1.404-0.814c1.83-1.332,2.902-3.457,2.902-5.713s-1.072-4.381-2.902-5.711
			c-0.443-0.333-0.906-0.556-1.404-0.814c-0.424-0.221-0.721-0.572-0.721-1.09c0-0.646,0.537-1.183,1.182-1.183
			c0.168,0,0.334,0.037,0.48,0.092c3.475,1.461,5.732,4.954,5.732,8.706C42.908,27.754,40.65,31.246,37.176,32.707z M39.043,37.051
			c-0.146,0.057-0.313,0.094-0.48,0.094c-0.645,0-1.184-0.537-1.184-1.184c0-0.537,0.279-0.832,0.723-1.092
			c0.26-0.146,0.555-0.24,0.832-0.389c0.516-0.275,1.035-0.59,1.516-0.941c3.031-2.236,4.824-5.768,4.824-9.539
			c0-3.77-1.793-7.302-4.824-9.537c-0.48-0.352-1-0.666-1.516-0.943c-0.277-0.147-0.572-0.239-0.832-0.388
			c-0.443-0.259-0.723-0.555-0.723-1.091c0-0.647,0.539-1.184,1.184-1.184c0.168,0,0.334,0.037,0.48,0.094
			c5.213,2.235,8.596,7.375,8.596,13.049C47.639,29.676,44.256,34.814,39.043,37.051z"/>
	</g>
</g>
</svg>
