<?xml version="1.0" encoding="utf-8"?>
<!-- Generator: Adobe Illustrator 16.0.0, SVG Export Plug-In . SVG Version: 6.00 Build 0)  -->
<!DOCTYPE svg PUBLIC "-//W3C//DTD SVG 1.1//EN" "http://www.w3.org/Graphics/SVG/1.1/DTD/svg11.dtd">
<svg version="1.1" id="Layer_1" xmlns="http://www.w3.org/2000/svg" xmlns:xlink="http://www.w3.org/1999/xlink" x="0px" y="0px"
	 width="48px" height="48px" viewBox="0 0 48 48" enable-background="new 0 0 48 48" xml:space="preserve">
<g>
	<g>
		<path d="M46.135,39.462H1.856c-0.908,0-1.648-0.74-1.648-1.648v-27.63c0-0.908,0.74-1.648,1.648-1.648h44.278
			c0.91,0,1.65,0.74,1.65,1.648v27.63C47.785,38.722,47.045,39.462,46.135,39.462z M2.075,37.595h43.843V10.402H2.075V37.595z"/>
	</g>
	<g>
		<g>
			<path d="M46.135,39.479H1.856c-0.33,0-0.65-0.098-0.922-0.281L0,38.562l15.831-15.829l8.166,8.163l8.164-8.163L48,38.569
				L47.051,39.2C46.777,39.384,46.461,39.479,46.135,39.479z M15.831,25.372L3.554,37.649l40.849-0.035L32.16,25.372l-6.955,6.955
				c-0.645,0.646-1.775,0.646-2.419,0L15.831,25.372z"/>
		</g>
		<g>
			<path d="M23.997,32.769c-0.459,0-0.889-0.178-1.211-0.504L0.005,9.487l0.874-0.646C1.165,8.63,1.503,8.521,1.856,8.521h44.278
				c0.355,0,0.691,0.109,0.979,0.321l0.873,0.646L25.205,32.265C24.883,32.591,24.454,32.769,23.997,32.769z M3.544,10.384
				l20.453,20.453l20.49-20.492L3.544,10.384z"/>
		</g>
	</g>
</g>
</svg>
