<?xml version="1.0" encoding="utf-8"?>
<!-- Generator: Adobe Illustrator 16.0.0, SVG Export Plug-In . SVG Version: 6.00 Build 0)  -->
<!DOCTYPE svg PUBLIC "-//W3C//DTD SVG 1.1//EN" "http://www.w3.org/Graphics/SVG/1.1/DTD/svg11.dtd">
<svg version="1.1" id="Layer_1" xmlns="http://www.w3.org/2000/svg" xmlns:xlink="http://www.w3.org/1999/xlink" x="0px" y="0px"
	 width="48px" height="48px" viewBox="0 0 48 48" enable-background="new 0 0 48 48" xml:space="preserve">
<g>
	<rect x="16.612" y="19.214" width="14.774" height="1.499"/>
	<g>
		<rect x="14.985" y="20.629" transform="matrix(0.9407 0.3392 -0.3392 0.9407 12.1031 -3.3847)" width="1.497" height="24.599"/>
		<rect x="10.597" y="44.399" transform="matrix(0.9409 0.3388 -0.3388 0.9409 16.2981 -0.9855)" width="0.749" height="3.579"/>
		<rect x="19.963" y="32.18" transform="matrix(0.338 0.9412 -0.9412 0.338 52.35 -8.5658)" width="24.601" height="1.496"/>
		<rect x="35.236" y="45.814" transform="matrix(0.3382 0.9411 -0.9411 0.3382 67.9689 -4.2782)" width="3.58" height="0.749"/>
	</g>
	<rect x="23.25" width="1.498" height="4.53"/>
	<path d="M29.377,18.422l-1.076-1.039c1.082-1.124,1.68-2.597,1.68-4.149c0-3.298-2.684-5.981-5.982-5.981
		c-3.297,0-5.98,2.684-5.98,5.981c0,1.553,0.596,3.025,1.679,4.149l-1.078,1.039c-1.354-1.403-2.1-3.246-2.1-5.188
		c0-4.124,3.355-7.479,7.478-7.479c4.125,0,7.48,3.355,7.48,7.479C31.479,15.176,30.732,17.019,29.377,18.422z"/>
</g>
</svg>
