<?xml version="1.0" encoding="utf-8"?>
<!-- Generator: Adobe Illustrator 16.0.0, SVG Export Plug-In . SVG Version: 6.00 Build 0)  -->
<!DOCTYPE svg PUBLIC "-//W3C//DTD SVG 1.1//EN" "http://www.w3.org/Graphics/SVG/1.1/DTD/svg11.dtd">
<svg version="1.1" id="Layer_1" xmlns="http://www.w3.org/2000/svg" xmlns:xlink="http://www.w3.org/1999/xlink" x="0px" y="0px"
	 width="48px" height="48px" viewBox="0 0 48 48" enable-background="new 0 0 48 48" xml:space="preserve">
<g>
	<g>
		<path d="M2.491,13.015l9.625,5.076V28.66l-9.625-5.076V13.015 M1.743,11.77v12.268l11.125,5.867V17.638L1.743,11.77L1.743,11.77z"
			/>
		<path d="M23.247,13.015v10.569l-9.629,5.076V18.091L23.247,13.015 M23.997,11.77l-11.129,5.868v12.267l11.129-5.867V11.77
			L23.997,11.77z"/>
		<path d="M12.862,6.742l9.529,5.042l-9.529,5.044l-9.527-5.044L12.862,6.742 M12.862,5.892L1.735,11.784l11.127,5.893l11.135-5.893
			L12.862,5.892L12.862,5.892z"/>
	</g>
	<g>
		<path d="M24.757,13.015l9.627,5.076V28.66l-9.627-5.076V13.015 M24.005,11.77v12.268l11.131,5.867V17.638L24.005,11.77
			L24.005,11.77z"/>
		<path d="M45.515,13.015v10.569l-9.629,5.076V18.091L45.515,13.015 M46.265,11.77l-11.129,5.868v12.267l11.129-5.867V11.77
			L46.265,11.77z"/>
		<path d="M35.13,6.742l9.529,5.042l-9.529,5.044l-9.527-5.044L35.13,6.742 M35.13,5.892l-11.133,5.893l11.133,5.893l11.135-5.893
			L35.13,5.892L35.13,5.892z"/>
	</g>
	<path d="M2.491,25.23l9.625,5.076v10.57l-9.625-5.078V25.23 M1.743,23.985v12.267l11.125,5.869V29.854L1.743,23.985L1.743,23.985z"
		/>
	<path d="M45.515,25.23v10.568l-9.629,5.078v-10.57L45.515,25.23 M46.265,23.985l-11.129,5.868v12.268l11.129-5.869V23.985
		L46.265,23.985z"/>
	<path d="M23.997,0.849l9.529,5.043l-9.529,5.043l-9.529-5.043L23.997,0.849 M23.997,0L12.864,5.892l11.133,5.893l11.135-5.893
		L23.997,0L23.997,0z"/>
	<g>
		<path d="M13.622,31.107l9.629,5.076v10.57l-9.629-5.078V31.107 M12.872,29.863v12.266L24.001,48V35.73L12.872,29.863
			L12.872,29.863z"/>
		<path d="M34.38,31.107v10.568l-9.627,5.078v-10.57L34.38,31.107 M35.132,29.863L24.001,35.73V48l11.131-5.871V29.863
			L35.132,29.863z"/>
		<path d="M23.997,24.835l9.529,5.042l-9.529,5.045l-9.529-5.045L23.997,24.835 M23.997,23.985l-11.133,5.892l11.133,5.893
			l11.135-5.893L23.997,23.985L23.997,23.985z"/>
	</g>
</g>
</svg>
