<?xml version="1.0" encoding="utf-8"?>
<!-- Generator: Adobe Illustrator 16.0.0, SVG Export Plug-In . SVG Version: 6.00 Build 0)  -->
<!DOCTYPE svg PUBLIC "-//W3C//DTD SVG 1.1//EN" "http://www.w3.org/Graphics/SVG/1.1/DTD/svg11.dtd">
<svg version="1.1" id="Layer_1" xmlns="http://www.w3.org/2000/svg" xmlns:xlink="http://www.w3.org/1999/xlink" x="0px" y="0px"
	 width="48px" height="48px" viewBox="0 0 48 48" enable-background="new 0 0 48 48" xml:space="preserve">
<g>
	<polyline fill="none" stroke="#000000" stroke-width="2" stroke-miterlimit="10" points="23.972,36.795 1,36.795 1,11.697 
		34.592,11.697 34.592,26.346 	"/>
	<path fill="none" stroke="#000000" stroke-width="2" stroke-miterlimit="10" d="M19.717,36.866c-1.975,0-3.929-0.041-5.845-0.119
		c-3.555-0.143-7.197-0.277-10.779-0.102c0.277,0.792,2.083,1.378,2.8,1.78C6.817,38.942,7.751,39.519,8.706,40
		c2.306,1.164,4.747,1.961,7.094,3.012c4.955,2.218,9.917,5.675,15.651,3.039c1.701-0.782,2.92-1.774,4.773-1.961
		c1.652-0.169,3.586-0.12,5.134,0.382c1.784,0.576,3.519,1.083,5.262,1.534c0.123,0.032,0.255,0.055,0.38,0.081V31.753
		c-0.929,0.026-1.591,0.104-1.604,0.06h-0.243c-1.548,0.195-4.095-1.438-5.377-2.141c-2.119-1.159-4.129-2.505-6.358-3.302
		c-2.43-0.868-5.149-0.596-7.467-1.565c-2.136-0.895-3.876-2.373-5.74-3.587c-1.438-0.937-5.284-3.157-6.591-0.727
		c-1.009,1.879,0.234,3.954,1.694,5.243c1.847,1.625,4.327,2.28,6.207,3.905c1.521,1.315,2.984,3.806,2.718,5.808
		C23.964,37.512,21.383,36.866,19.717,36.866z"/>
	<line fill="none" stroke="#000000" stroke-width="2" stroke-miterlimit="10" x1="1.848" y1="8.217" x2="31.904" y2="8.217"/>
	<line fill="none" stroke="#000000" stroke-width="2" stroke-miterlimit="10" x1="4.524" y1="4.747" x2="29.228" y2="4.747"/>
	<line fill="none" stroke="#000000" stroke-width="2" stroke-miterlimit="10" x1="7.201" y1="1" x2="26.551" y2="1"/>
</g>
</svg>
