<?xml version="1.0" encoding="utf-8"?>
<!-- Generator: Adobe Illustrator 16.0.0, SVG Export Plug-In . SVG Version: 6.00 Build 0)  -->
<!DOCTYPE svg PUBLIC "-//W3C//DTD SVG 1.1//EN" "http://www.w3.org/Graphics/SVG/1.1/DTD/svg11.dtd">
<svg version="1.1" id="Layer_1" xmlns="http://www.w3.org/2000/svg" xmlns:xlink="http://www.w3.org/1999/xlink" x="0px" y="0px"
	 width="48px" height="48px" viewBox="0 0 48 48" enable-background="new 0 0 48 48" xml:space="preserve">
<g>
	<path fill="none" stroke="#000000" stroke-width="2" stroke-miterlimit="10" d="M20.174,1h-4.845c-0.445,0-2.138,0-2.579,0H8.021
		C4.646,1,1.882,3.762,1.882,7.136V40.86c0,3.379,2.764,6.14,6.139,6.14h4.729c3.374,0,6.136-2.761,6.136-6.14V24h1.288
		c3.375,0,6.142-2.761,6.142-6.139V7.136C26.316,3.762,23.549,1,20.174,1z"/>
	<path fill="none" stroke="#000000" stroke-width="2" stroke-miterlimit="10" d="M46.118,16.143c0,1.686-1.381,3.069-3.069,3.069
		H35.72c-1.689,0-3.069-1.384-3.069-3.069V8.466c0-1.689,1.38-3.07,3.069-3.07h7.329c1.688,0,3.069,1.381,3.069,3.07V16.143z"/>
	<line fill="none" stroke="#000000" stroke-width="2" stroke-miterlimit="10" x1="27.458" y1="12.304" x2="31.921" y2="12.304"/>
	<path fill="none" stroke="#000000" stroke-width="2" stroke-miterlimit="10" d="M20.342,12.546c0,3.518-2.852,6.376-6.379,6.376
		c-3.518,0-6.375-2.858-6.375-6.376c0-3.523,2.857-6.382,6.375-6.382C17.49,6.164,20.342,9.022,20.342,12.546z"/>
</g>
</svg>
