<?xml version="1.0" encoding="utf-8"?>
<!-- Generator: Adobe Illustrator 16.0.0, SVG Export Plug-In . SVG Version: 6.00 Build 0)  -->
<!DOCTYPE svg PUBLIC "-//W3C//DTD SVG 1.1//EN" "http://www.w3.org/Graphics/SVG/1.1/DTD/svg11.dtd">
<svg version="1.1" id="Layer_1" xmlns="http://www.w3.org/2000/svg" xmlns:xlink="http://www.w3.org/1999/xlink" x="0px" y="0px"
	 width="48px" height="48px" viewBox="0 0 48 48" enable-background="new 0 0 48 48" xml:space="preserve">
<g>
	<path d="M42.236,1.669L1.502,36.695V1.669H42.236 M4.871,29.355l2.48-2.133l22.73-19.546l3.07-2.64h-4.049H6.371h-1.5v1.501v19.546
		V29.355 M46.285,0.166H0v39.801L46.285,0.166L46.285,0.166z M6.371,26.084V6.538h22.732L6.371,26.084L6.371,26.084z"/>
	<path d="M41.725,9.025c7.373,9.626,6.088,23.498-3.172,31.582c-4.229,3.691-9.645,5.725-15.252,5.725
		c-6.205,0-12.127-2.479-16.469-6.848L41.725,9.025 M23.303,42.953c4.797,0,9.428-1.734,13.035-4.885
		c6.213-5.424,8.424-14.259,5.502-21.982l-0.766-2.021l-1.627,1.42L13.541,38.102l-1.627,1.42l1.898,1.031
		C16.709,42.123,19.99,42.953,23.303,42.953 M41.904,6.876L4.678,39.373c4.885,5.596,11.736,8.461,18.623,8.461
		c5.768,0,11.557-2.006,16.24-6.096C49.82,32.764,50.879,17.155,41.904,6.876L41.904,6.876z M23.303,41.453
		c-3.033,0-6.059-0.748-8.773-2.221l25.906-22.615c2.635,6.964,0.844,15.145-5.084,20.32C31.881,39.967,27.584,41.453,23.303,41.453
		L23.303,41.453z"/>
</g>
</svg>
