<?xml version="1.0" encoding="utf-8"?>
<!-- Generator: Adobe Illustrator 16.0.0, SVG Export Plug-In . SVG Version: 6.00 Build 0)  -->
<!DOCTYPE svg PUBLIC "-//W3C//DTD SVG 1.1//EN" "http://www.w3.org/Graphics/SVG/1.1/DTD/svg11.dtd">
<svg version="1.1" id="Layer_1" xmlns="http://www.w3.org/2000/svg" xmlns:xlink="http://www.w3.org/1999/xlink" x="0px" y="0px"
	 width="48px" height="48px" viewBox="0 0 48 48" enable-background="new 0 0 48 48" xml:space="preserve">
<g>
	<g>
		<path fill="none" stroke="#000000" stroke-width="2" stroke-miterlimit="10" d="M47,44.999c0,1.1-0.9,2-2,2H3c-1.1,0-2-0.9-2-2
			V3.001c0-1.1,0.9-2,2-2h42c1.1,0,2,0.9,2,2V44.999z"/>
	</g>
	<g>
		<g>
			<path fill="none" stroke="#000000" stroke-width="2" stroke-miterlimit="10" d="M6.14,15.936v-3.61
				c0-3.378,2.764-6.138,6.142-6.138h3.347"/>
			<path fill="none" stroke="#000000" stroke-width="2" stroke-miterlimit="10" d="M41.857,15.936v-3.61
				c0-3.378-2.761-6.138-6.139-6.138h-3.351"/>
		</g>
		<g>
			<path fill="none" stroke="#000000" stroke-width="2" stroke-miterlimit="10" d="M6.14,32.067v3.61
				c0,3.376,2.764,6.139,6.142,6.139h3.347"/>
			<path fill="none" stroke="#000000" stroke-width="2" stroke-miterlimit="10" d="M41.857,32.067v3.61
				c0,3.376-2.761,6.139-6.139,6.139h-3.351"/>
		</g>
	</g>
	<circle fill="none" stroke="#000000" stroke-width="2" stroke-miterlimit="10" cx="24" cy="24.001" r="9.178"/>
</g>
</svg>
