<?xml version="1.0" encoding="utf-8"?>
<!-- Generator: Adobe Illustrator 16.0.0, SVG Export Plug-In . SVG Version: 6.00 Build 0)  -->
<!DOCTYPE svg PUBLIC "-//W3C//DTD SVG 1.1//EN" "http://www.w3.org/Graphics/SVG/1.1/DTD/svg11.dtd">
<svg version="1.1" id="Layer_1" xmlns="http://www.w3.org/2000/svg" xmlns:xlink="http://www.w3.org/1999/xlink" x="0px" y="0px"
	 width="48px" height="48px" viewBox="0 0 48 48" enable-background="new 0 0 48 48" xml:space="preserve">
<g>
	<path d="M44.998,8.028v31.944H3V8.028H44.998 M46.5,6.527h-45v34.947h45V6.527L46.5,6.527z"/>
	<g>
		<g>
			<rect x="43.648" y="4.861" width="4.352" height="4.352"/>
			<path d="M46.498,6.362v1.349h-1.35V6.362H46.498 M48,4.861h-4.352v4.352H48V4.861L48,4.861z"/>
		</g>
		<g>
			<rect x="43.648" y="38.787" width="4.352" height="4.352"/>
			<path d="M46.498,40.289v1.348h-1.35v-1.348H46.498 M48,38.787h-4.352v4.352H48V38.787L48,38.787z"/>
		</g>
		<g>
			<rect y="4.861" width="4.352" height="4.352"/>
			<path d="M2.85,6.362v1.349H1.5V6.362H2.85 M4.352,4.861H0v4.352h4.352V4.861L4.352,4.861z"/>
		</g>
		<g>
			<rect y="38.787" width="4.352" height="4.352"/>
			<path d="M2.85,40.289v1.348H1.5v-1.348H2.85 M4.352,38.787H0v4.352h4.352V38.787L4.352,38.787z"/>
		</g>
	</g>
	<g>
		<rect x="21.824" y="21.824" width="4.352" height="4.352"/>
		<path d="M24.674,23.325v1.349h-1.35v-1.349H24.674 M26.176,21.824h-4.352v4.352h4.352V21.824L26.176,21.824z"/>
	</g>
</g>
</svg>
