<?xml version="1.0" encoding="utf-8"?>
<!-- Generator: Adobe Illustrator 16.0.0, SVG Export Plug-In . SVG Version: 6.00 Build 0)  -->
<!DOCTYPE svg PUBLIC "-//W3C//DTD SVG 1.1//EN" "http://www.w3.org/Graphics/SVG/1.1/DTD/svg11.dtd">
<svg version="1.1" id="Layer_1" xmlns="http://www.w3.org/2000/svg" xmlns:xlink="http://www.w3.org/1999/xlink" x="0px" y="0px"
	 width="48px" height="48px" viewBox="0 0 48 48" enable-background="new 0 0 48 48" xml:space="preserve">
<g>
	<path d="M23.191,47.715c-8.242,0-16.031-4.057-20.557-11.225c-2.646-4.189-3.338-9.453-1.9-14.442
		c1.443-5.004,4.805-8.987,9.465-11.216c4.055-1.938,10.863-2.366,16.709,2.811c3.066,2.715,4.477,7.085,3.869,11.988
		c-0.732,5.924-6.9,9.184-12.334,9.246c-5.469,0.07-9.416-2.844-10.084-7.398c-0.635-4.337,0.494-7.569,3.178-9.102
		c2.477-1.417,6.447-1.707,8.406,0.117c1.625,1.514,2.436,3.662,2.113,5.606c-0.27,1.617-1.254,2.882-2.773,3.562
		c-1.549,0.691-3.387,0.521-4.68-0.434c-1.125-0.83-1.672-2.126-1.5-3.556l1.445,0.175c-0.109,0.907,0.217,1.692,0.918,2.209
		c0.881,0.648,2.145,0.756,3.223,0.275c1.059-0.474,1.746-1.352,1.932-2.471c0.242-1.468-0.396-3.115-1.67-4.302
		c-1.426-1.327-4.709-1.052-6.693,0.081c-2.727,1.558-2.842,5.008-2.457,7.627c0.674,4.6,4.9,6.203,8.627,6.152
		c4.814-0.053,10.273-2.863,10.904-7.968c0.549-4.421-0.688-8.327-3.389-10.72c-5.313-4.705-11.463-4.334-15.117-2.586
		c-4.279,2.045-7.367,5.705-8.693,10.306c-1.322,4.587-0.691,9.421,1.732,13.261c5.707,9.039,16.949,12.811,27.336,9.172
		c9.033-3.164,15.342-11.904,15.342-21.254c0-9.73-4.357-17.778-11.959-22.079l0.719-1.267C43.371,4.852,48,13.36,48,23.631
		c0,9.959-6.711,19.262-16.318,22.627C28.873,47.242,26.006,47.715,23.191,47.715z"/>
</g>
</svg>
