<?xml version="1.0" encoding="utf-8"?>
<!-- Generator: Adobe Illustrator 16.0.0, SVG Export Plug-In . SVG Version: 6.00 Build 0)  -->
<!DOCTYPE svg PUBLIC "-//W3C//DTD SVG 1.1//EN" "http://www.w3.org/Graphics/SVG/1.1/DTD/svg11.dtd">
<svg version="1.1" id="Layer_1" xmlns="http://www.w3.org/2000/svg" xmlns:xlink="http://www.w3.org/1999/xlink" x="0px" y="0px"
	 width="48px" height="48px" viewBox="0 0 48 48" enable-background="new 0 0 48 48" xml:space="preserve">
<g>
	<path d="M17.568,14.116v19.768L2.711,24.001L17.568,14.116 M19.07,11.313L0,24.001l19.07,12.686V11.313L19.07,11.313z"/>
	<path d="M30.432,14.116l14.857,9.885l-14.857,9.883V14.116 M28.93,11.313v25.373L48,24.001L28.93,11.313L28.93,11.313z"/>
	<path d="M24.75,43.101h-1.502v-2.162h1.502V43.101z M24.75,34.931h-1.502v-6.006h1.502V34.931z M24.75,22.919h-1.502v-6.007h1.502
		V22.919z M24.75,10.906h-1.502V4.899h1.502V10.906z"/>
</g>
</svg>
