<?xml version="1.0" encoding="utf-8"?>
<!-- Generator: Adobe Illustrator 16.0.0, SVG Export Plug-In . SVG Version: 6.00 Build 0)  -->
<!DOCTYPE svg PUBLIC "-//W3C//DTD SVG 1.1//EN" "http://www.w3.org/Graphics/SVG/1.1/DTD/svg11.dtd">
<svg version="1.1" id="Layer_1" xmlns="http://www.w3.org/2000/svg" xmlns:xlink="http://www.w3.org/1999/xlink" x="0px" y="0px"
	 width="48px" height="48px" viewBox="0 0 48 48" enable-background="new 0 0 48 48" xml:space="preserve">
<g>
	<g>
		<polygon points="2.635,46.314 0,46.314 0,17.12 17.98,17.12 17.98,18.609 1.49,18.609 1.49,44.824 2.635,44.824 		"/>
		<path d="M45.418,18.968L30.723,44.42H5.732l14.695-25.452H45.418 M48,17.478H19.566L3.15,45.91h28.434L48,17.478L48,17.478z"/>
	</g>
	<g>
		<line x1="15.813" y1="8.772" x2="32.934" y2="8.772"/>
		<g>
			<rect x="15.813" y="8.027" width="8.127" height="1.49"/>
			<g>
				<path d="M32.934,8.772c-4.232,1.57-9.484,4.25-12.74,7.089l2.564-7.089l-2.564-7.087C23.449,4.524,28.701,7.204,32.934,8.772z"
					/>
			</g>
		</g>
	</g>
</g>
</svg>
