<?xml version="1.0" encoding="utf-8"?>
<!-- Generator: Adobe Illustrator 16.0.0, SVG Export Plug-In . SVG Version: 6.00 Build 0)  -->
<!DOCTYPE svg PUBLIC "-//W3C//DTD SVG 1.1//EN" "http://www.w3.org/Graphics/SVG/1.1/DTD/svg11.dtd">
<svg version="1.1" id="Layer_1" xmlns="http://www.w3.org/2000/svg" xmlns:xlink="http://www.w3.org/1999/xlink" x="0px" y="0px"
	 width="48px" height="48px" viewBox="0 0 48 48" enable-background="new 0 0 48 48" xml:space="preserve">
<g>
	<path d="M42.959,5.041C40.066,10.595,38.473,17.206,38.473,24c0,6.793,1.594,13.404,4.486,18.957
		c-5.555-2.893-12.166-4.486-18.957-4.486c-6.793,0-13.404,1.594-18.959,4.486C7.936,37.404,9.529,30.793,9.529,24
		c0-6.794-1.594-13.405-4.486-18.959c5.555,2.893,12.166,4.486,18.959,4.486C30.793,9.527,37.404,7.934,42.959,5.041 M48,0h-0.123
		c-5.91,4.926-14.414,8.027-23.875,8.027C14.539,8.027,6.035,4.926,0.125,0H0v0.125C4.93,6.033,8.027,14.537,8.027,24
		S4.93,41.965,0,47.875V48h0.125c5.91-4.928,14.414-8.027,23.877-8.027c9.461,0,17.965,3.1,23.875,8.027H48v-0.125
		c-4.928-5.91-8.025-14.412-8.025-23.875S43.072,6.033,48,0.125V0L48,0z"/>
</g>
</svg>
