<?xml version="1.0" encoding="utf-8"?>
<!-- Generator: Adobe Illustrator 16.0.0, SVG Export Plug-In . SVG Version: 6.00 Build 0)  -->
<!DOCTYPE svg PUBLIC "-//W3C//DTD SVG 1.1//EN" "http://www.w3.org/Graphics/SVG/1.1/DTD/svg11.dtd">
<svg version="1.1" id="Layer_1" xmlns="http://www.w3.org/2000/svg" xmlns:xlink="http://www.w3.org/1999/xlink" x="0px" y="0px"
	 width="48px" height="48px" viewBox="0 0 48 48" enable-background="new 0 0 48 48" xml:space="preserve">
<g>
	<line fill="none" stroke="#000000" stroke-width="2" stroke-miterlimit="10" x1="6.143" y1="30.224" x2="28.387" y2="30.224"/>
	<line fill="none" stroke="#000000" stroke-width="2" stroke-miterlimit="10" x1="6.143" y1="35.616" x2="18.537" y2="35.616"/>
	<path d="M42.342,27.603V40.81c0,0.176-0.145,0.322-0.322,0.322H2.076c-0.178,0-0.322-0.146-0.322-0.322V14.245
		c0-0.178,0.145-0.321,0.322-0.321h22.703c0.059-0.599,0.174-1.182,0.311-1.754H2.076C0.93,12.17,0,13.1,0,14.245V40.81
		c0,1.143,0.93,2.074,2.076,2.074H42.02c1.145,0,2.076-0.932,2.076-2.074V26.833C43.535,27.134,42.945,27.384,42.342,27.603z"/>
	<g>
		<path d="M37.857,7.116c4.49,0,8.143,3.651,8.143,8.139c0,4.489-3.652,8.141-8.143,8.141c-4.487,0-8.139-3.652-8.139-8.141
			C29.719,10.767,33.37,7.116,37.857,7.116 M37.857,5.116c-5.6,0-10.139,4.539-10.139,10.139c0,5.601,4.539,10.141,10.139,10.141
			c5.604,0,10.143-4.54,10.143-10.141C48,9.655,43.461,5.116,37.857,5.116L37.857,5.116z"/>
	</g>
	<g>
		<line fill="none" stroke="#000000" stroke-width="2" stroke-miterlimit="10" x1="32.664" y1="15.255" x2="43.055" y2="15.255"/>
		<line fill="none" stroke="#000000" stroke-width="2" stroke-miterlimit="10" x1="37.857" y1="10.062" x2="37.857" y2="20.45"/>
	</g>
</g>
</svg>
