<?xml version="1.0" encoding="utf-8"?>
<!-- Generator: Adobe Illustrator 16.0.0, SVG Export Plug-In . SVG Version: 6.00 Build 0)  -->
<!DOCTYPE svg PUBLIC "-//W3C//DTD SVG 1.1//EN" "http://www.w3.org/Graphics/SVG/1.1/DTD/svg11.dtd">
<svg version="1.1" id="Layer_1" xmlns="http://www.w3.org/2000/svg" xmlns:xlink="http://www.w3.org/1999/xlink" x="0px" y="0px"
	 width="48px" height="48px" viewBox="0 0 48 48" enable-background="new 0 0 48 48" xml:space="preserve">
<g>
	<path d="M11.269,37.8v-0.655l-5.044,0.78l-0.043,0.004c-0.133,0-0.247-0.1-0.266-0.23l-0.689-4.441l6.042-0.936v-2.995
		l-6.495,1.009L2.482,15.547C2.46,15.398,2.561,15.26,2.71,15.236l33.353-5.162c0.133,0,0.247,0.098,0.268,0.23l0.629,4.068h1.499
		l-0.666-4.295c-0.146-0.947-1.017-1.615-1.999-1.462L2.482,13.774c-0.953,0.147-1.608,1.044-1.462,1.999l3.433,22.152
		c0.133,0.859,0.859,1.482,1.728,1.482c0.09,0,0.18-0.008,0.27-0.021l5.196-0.805C11.418,38.396,11.269,38.116,11.269,37.8z"/>
	<line fill="none" stroke="#000000" stroke-width="2" stroke-miterlimit="10" x1="15.714" y1="28.867" x2="34.485" y2="28.867"/>
	<line fill="none" stroke="#000000" stroke-width="2" stroke-miterlimit="10" x1="15.714" y1="33.418" x2="26.173" y2="33.418"/>
	<g>
		<path fill="none" stroke="#000000" stroke-width="2" stroke-miterlimit="10" d="M47,37.8c0,0.558-0.453,1.013-1.011,1.013h-33.71
			c-0.556,0-1.011-0.455-1.011-1.013V15.383c0-0.558,0.455-1.011,1.011-1.011h33.71c0.558,0,1.011,0.453,1.011,1.011V37.8z"/>
		<line fill="none" stroke="#000000" stroke-width="2" stroke-miterlimit="10" x1="15.714" y1="28.867" x2="34.485" y2="28.867"/>
		<line fill="none" stroke="#000000" stroke-width="2" stroke-miterlimit="10" x1="15.714" y1="33.418" x2="26.173" y2="33.418"/>
	</g>
</g>
</svg>
