<?xml version="1.0" encoding="utf-8"?>
<!-- Generator: Adobe Illustrator 16.0.0, SVG Export Plug-In . SVG Version: 6.00 Build 0)  -->
<!DOCTYPE svg PUBLIC "-//W3C//DTD SVG 1.1//EN" "http://www.w3.org/Graphics/SVG/1.1/DTD/svg11.dtd">
<svg version="1.1" id="Layer_1" xmlns="http://www.w3.org/2000/svg" xmlns:xlink="http://www.w3.org/1999/xlink" x="0px" y="0px"
	 width="48px" height="48px" viewBox="0 0 48 48" enable-background="new 0 0 48 48" xml:space="preserve">
<g>
	<path d="M6.486,34.827h-3.96c-0.165,0-0.298-0.135-0.298-0.3V18.069h4.258v-3.254H2.228V9.872c0-0.164,0.134-0.298,0.298-0.298
		H39.6c0.164,0,0.297,0.135,0.297,0.298v2.488h1.629V9.872c0-1.062-0.865-1.925-1.926-1.925H2.526c-1.062,0-1.926,0.863-1.926,1.925
		v24.655c0,1.063,0.864,1.927,1.926,1.927h3.96V34.827z"/>
	<g>
		<path fill="#FFFFFF" stroke="#000000" stroke-width="2" stroke-miterlimit="10" d="M46.598,38.943
			c0,0.611-0.498,1.109-1.113,1.109H8.412c-0.614,0-1.112-0.498-1.112-1.109V14.287c0-0.616,0.498-1.113,1.112-1.113h37.072
			c0.615,0,1.113,0.497,1.113,1.113V38.943z"/>
		<rect x="12.188" y="28.304" width="20.645" height="1.627"/>
		<rect x="12.188" y="33.31" width="11.503" height="1.626"/>
	</g>
</g>
</svg>
