<?xml version="1.0" encoding="utf-8"?>
<!-- Generator: Adobe Illustrator 16.0.0, SVG Export Plug-In . SVG Version: 6.00 Build 0)  -->
<!DOCTYPE svg PUBLIC "-//W3C//DTD SVG 1.1//EN" "http://www.w3.org/Graphics/SVG/1.1/DTD/svg11.dtd">
<svg version="1.1" id="Layer_1" xmlns="http://www.w3.org/2000/svg" xmlns:xlink="http://www.w3.org/1999/xlink" x="0px" y="0px"
	 width="48px" height="48px" viewBox="0 0 48 48" enable-background="new 0 0 48 48" xml:space="preserve">
<g>
	<g>
		<path fill="none" stroke="#000000" stroke-width="2" stroke-miterlimit="10" d="M47,39.438c0,1.1-0.9,2-2,2H3c-1.1,0-2-0.9-2-2
			V8.563c0-1.1,0.9-2,2-2h42c1.1,0,2,0.9,2,2V39.438z"/>
	</g>
	<path fill="none" stroke="#000000" stroke-width="2" stroke-miterlimit="10" d="M2.542,38.096c0.01-0.681,1.027-1.195,1.499-1.656
		c0.732-0.717,1.571-1.355,2.217-2.158c1.152-1.424,2.263-2.853,3.44-4.252c1.494-1.784,2.74-3.626,4.082-5.48
		c0.79-1.095,2.097-4.213,3.759-3.425c1.903,0.9,2.487,3.279,4.044,4.519c1.78,1.406,3.287,2.847,4.691,4.604
		c0.436,0.546,0.747,1.445,1.36,1.782c1.019,0.563,1.789-0.426,2.499-1.058c0.986-0.883,2.048-1.79,2.794-2.898
		c0.456-0.674,0.818-1.315,1.392-1.914c1.602-1.695,3.178-0.78,4.915,0.331c2.528,1.616,4.717,3.712,7.263,5.295"/>
	<path fill="none" stroke="#000000" stroke-width="2" stroke-miterlimit="10" d="M34.179,16.001c0,2.296-1.858,4.159-4.156,4.159
		c-2.299,0-4.158-1.863-4.158-4.159c0-2.295,1.859-4.155,4.158-4.155C32.32,11.846,34.179,13.706,34.179,16.001z"/>
</g>
</svg>
