<?xml version="1.0" encoding="utf-8"?>
<!-- Generator: Adobe Illustrator 16.0.0, SVG Export Plug-In . SVG Version: 6.00 Build 0)  -->
<!DOCTYPE svg PUBLIC "-//W3C//DTD SVG 1.1//EN" "http://www.w3.org/Graphics/SVG/1.1/DTD/svg11.dtd">
<svg version="1.1" id="Layer_1" xmlns="http://www.w3.org/2000/svg" xmlns:xlink="http://www.w3.org/1999/xlink" x="0px" y="0px"
	 width="48px" height="48px" viewBox="0 0 48 48" enable-background="new 0 0 48 48" xml:space="preserve">
<g>
	<path d="M5.484,44.723c-1.031,0-1.939-0.76-2.158-1.807l-0.021-0.152c-0.146-0.99,0.418-1.643,0.795-2.078l0.141-0.164
		c0.24-0.271,0.465-0.516,0.693-0.764c1.268-1.371,2.572-2.785,3.535-5.721C3.074,30.725,0,25.908,0,20.718
		c0-9.616,10.766-17.44,24-17.44c13.232,0,24,7.824,24,17.44S37.232,38.16,24,38.16c-1.082,0-2.213-0.057-3.371-0.166
		c-3.416,2.932-7.408,4.992-11.873,6.129c-0.877,0.242-1.879,0.438-3.043,0.588L5.484,44.723z M5.383,42.533
		c0.027,0.072,0.078,0.1,0.098,0.104c1.037-0.135,1.957-0.313,2.738-0.529c4.314-1.098,8.135-3.107,11.373-5.977l0.346-0.307
		l0.457,0.049c1.242,0.135,2.455,0.201,3.605,0.201c12.084,0,21.914-6.889,21.914-15.356c0-8.466-9.83-15.354-21.914-15.354
		S2.086,12.252,2.086,20.718c0,4.647,2.965,8.993,8.133,11.931l0.711,0.404l-0.223,0.787c-1.109,3.945-2.775,5.746-4.24,7.334
		c-0.219,0.236-0.436,0.471-0.646,0.709l-0.145,0.17c-0.115,0.131-0.289,0.332-0.309,0.406L5.383,42.533z"/>
</g>
</svg>
