<?xml version="1.0" encoding="utf-8"?>
<!-- Generator: Adobe Illustrator 16.0.0, SVG Export Plug-In . SVG Version: 6.00 Build 0)  -->
<!DOCTYPE svg PUBLIC "-//W3C//DTD SVG 1.1//EN" "http://www.w3.org/Graphics/SVG/1.1/DTD/svg11.dtd">
<svg version="1.1" id="Layer_1" xmlns="http://www.w3.org/2000/svg" xmlns:xlink="http://www.w3.org/1999/xlink" x="0px" y="0px"
	 width="48px" height="48px" viewBox="0 0 48 48" enable-background="new 0 0 48 48" xml:space="preserve">
<g>
	<g>
		<path d="M5.483,44.723c-1.03,0-1.939-0.76-2.156-1.809l-0.023-0.15c-0.146-0.99,0.418-1.643,0.795-2.08l0.141-0.16
			c0.24-0.275,0.467-0.52,0.694-0.766c1.267-1.371,2.573-2.787,3.534-5.723C3.073,30.723,0,25.908,0,20.719
			C0,11.102,10.766,3.277,24,3.277c13.232,0,24,7.824,24,17.441c0,9.615-10.768,17.439-24,17.439c-1.081,0-2.214-0.053-3.371-0.164
			c-3.416,2.932-7.409,4.992-11.874,6.129c-0.876,0.242-1.878,0.436-3.043,0.586L5.483,44.723z M5.382,42.531
			c0.028,0.074,0.08,0.102,0.098,0.105c1.037-0.137,1.957-0.313,2.74-0.529c4.314-1.1,8.133-3.107,11.372-5.979l0.345-0.305
			l0.458,0.049c1.243,0.133,2.454,0.199,3.605,0.199c12.082,0,21.914-6.885,21.914-15.354c0-8.466-9.832-15.355-21.914-15.355
			c-12.083,0-21.914,6.89-21.914,15.355c0,4.645,2.964,8.992,8.132,11.93l0.711,0.404l-0.223,0.785
			c-1.109,3.945-2.773,5.746-4.24,7.336c-0.219,0.236-0.434,0.471-0.646,0.709l-0.145,0.168c-0.113,0.133-0.289,0.332-0.307,0.406
			L5.382,42.531z"/>
	</g>
	<rect x="15.825" y="20.894" width="16.675" height="1.044"/>
	<rect x="23.642" y="13.077" width="1.042" height="16.675"/>
</g>
</svg>
