<?xml version="1.0" encoding="utf-8"?>
<!-- Generator: Adobe Illustrator 16.0.0, SVG Export Plug-In . SVG Version: 6.00 Build 0)  -->
<!DOCTYPE svg PUBLIC "-//W3C//DTD SVG 1.1//EN" "http://www.w3.org/Graphics/SVG/1.1/DTD/svg11.dtd">
<svg version="1.1" id="Layer_1" xmlns="http://www.w3.org/2000/svg" xmlns:xlink="http://www.w3.org/1999/xlink" x="0px" y="0px"
	 width="48px" height="48px" viewBox="0 0 48 48" enable-background="new 0 0 48 48" xml:space="preserve">
<g>
	<path fill-rule="evenodd" clip-rule="evenodd" d="M42.15,32.158c0.699-1.572,1.184-3.244,1.441-4.98
		c1.477-2.387,2.32-5.124,2.32-8.038c0-9.223-8.408-16.694-18.783-16.694c-2.297,0-4.486,0.384-6.521,1.055
		c-2.207,0.022-4.336,0.326-6.352,0.876c3.549-2.511,8.011-4.019,12.872-4.019C38.656,0.357,48,8.766,48,19.14
		C48,24.199,45.766,28.781,42.15,32.158z M41.738,24.357c0,10.373-9.344,18.783-20.868,18.783c-1.468,0-2.9-0.141-4.283-0.4
		l-7.195,4.902l0.004-7.604C3.737,36.678,0,30.914,0,24.357C0,13.983,9.345,5.574,20.87,5.574
		C32.395,5.574,41.738,13.983,41.738,24.357z M2.087,24.357c0,0.615,0.048,1.219,0.12,1.816c0.011,0.088,0.019,0.178,0.03,0.264
		c0.081,0.57,0.196,1.131,0.339,1.68c0.025,0.096,0.051,0.189,0.077,0.285c0.157,0.555,0.34,1.1,0.557,1.631
		c0.022,0.055,0.049,0.109,0.072,0.166c0.472,1.119,1.075,2.18,1.795,3.17c0.033,0.045,0.064,0.092,0.098,0.137
		c0.357,0.48,0.742,0.943,1.152,1.389c0.041,0.047,0.086,0.092,0.129,0.139c0.422,0.447,0.865,0.879,1.338,1.285
		c0.016,0.016,0.034,0.027,0.051,0.041c0.488,0.42,1.002,0.818,1.541,1.186c0.004,0.004,0.006,0.01,0.012,0.012l0,0
		c0.658,0.453,1.35,0.867,2.074,1.24l0,0l0.002,0.002c0.011,0.004,0.021,0.01,0.031,0.016l-0.012,2.307l-0.002-0.002v0.178
		l-0.014,2.594l0.035-0.025v0.016l2.523-1.793c-0.006-0.002-0.012-0.004-0.019-0.006l2.199-1.566
		c0.004,0.002,0.011,0.002,0.015,0.002c0.004,0.002,0.008,0.004,0.012,0.004l0.002-0.002c0.96,0.217,1.955,0.348,2.967,0.434
		l-0.033,0.025c0.558,0.043,1.12,0.074,1.691,0.074c10.372,0,18.782-7.475,18.782-16.695c0-9.222-8.41-16.696-18.782-16.696
		C10.496,7.661,2.087,15.136,2.087,24.357z"/>
</g>
</svg>
