<?xml version="1.0" encoding="utf-8"?>
<!-- Generator: Adobe Illustrator 16.0.0, SVG Export Plug-In . SVG Version: 6.00 Build 0)  -->
<!DOCTYPE svg PUBLIC "-//W3C//DTD SVG 1.1//EN" "http://www.w3.org/Graphics/SVG/1.1/DTD/svg11.dtd">
<svg version="1.1" id="Layer_1" xmlns="http://www.w3.org/2000/svg" xmlns:xlink="http://www.w3.org/1999/xlink" x="0px" y="0px"
	 width="48px" height="48px" viewBox="0 0 48 48" enable-background="new 0 0 48 48" xml:space="preserve">
<g>
	<path fill="none" stroke="#000000" stroke-width="2" stroke-miterlimit="10" d="M28.131,37.479H7.147
		C3.766,37.479,1,34.712,1,31.332V8.747c0-3.381,2.766-6.145,6.147-6.145h33.71C44.233,2.602,47,5.366,47,8.747v22.585
		c0,1.193-0.346,2.31-0.938,3.254"/>
	<path fill="none" stroke="#000000" stroke-width="2" stroke-miterlimit="10" d="M2.542,28.592c0.005-0.678,1.026-1.196,1.495-1.655
		c0.736-0.722,1.573-1.355,2.22-2.159c1.156-1.425,2.263-2.856,3.436-4.254c1.496-1.778,2.745-3.622,4.086-5.479
		c0.79-1.094,2.098-4.21,3.759-3.423c1.901,0.897,2.484,3.277,4.048,4.517c1.776,1.408,3.281,2.847,4.685,4.606
		c0.441,0.545,0.752,1.444,1.362,1.78c1.021,0.563,1.791-0.427,2.499-1.056c0.986-0.885,2.046-1.788,2.796-2.899
		c0.457-0.675,0.816-1.317,1.388-1.912c1.605-1.7,3.179-0.784,4.919,0.328c2.522,1.616,4.715,3.711,7.262,5.295"/>
	<path fill="none" stroke="#000000" stroke-width="2" stroke-miterlimit="10" d="M32.906,10.137c0,2.295-1.863,4.158-4.155,4.158
		c-2.295,0-4.158-1.863-4.158-4.158c0-2.296,1.863-4.156,4.158-4.156C31.043,5.981,32.906,7.84,32.906,10.137z"/>
	<g>
		
			<line fill="none" stroke="#000000" stroke-width="2" stroke-linecap="round" stroke-miterlimit="10" x1="36.951" y1="37.6" x2="36.951" y2="31.459"/>
		<polyline fill="none" stroke="#000000" stroke-width="2" stroke-linecap="round" stroke-miterlimit="10" points="40.413,36.151 
			36.951,40.11 33.344,36.151 		"/>
	</g>
	<path fill="none" stroke="#000000" stroke-width="2" stroke-miterlimit="10" d="M46.493,35.784c0,5.311-4.3,9.613-9.613,9.613
		c-5.31,0-9.612-4.303-9.612-9.613c0-5.308,4.303-9.612,9.612-9.612C42.193,26.172,46.493,30.477,46.493,35.784z"/>
</g>
</svg>
