<?xml version="1.0" encoding="utf-8"?>
<!-- Generator: Adobe Illustrator 16.0.0, SVG Export Plug-In . SVG Version: 6.00 Build 0)  -->
<!DOCTYPE svg PUBLIC "-//W3C//DTD SVG 1.1//EN" "http://www.w3.org/Graphics/SVG/1.1/DTD/svg11.dtd">
<svg version="1.1" id="Layer_1" xmlns="http://www.w3.org/2000/svg" xmlns:xlink="http://www.w3.org/1999/xlink" x="0px" y="0px"
	 width="48px" height="48px" viewBox="0 0 48 48" enable-background="new 0 0 48 48" xml:space="preserve">
<g>
	<circle fill="none" stroke="#000000" stroke-width="2" stroke-miterlimit="10" cx="32.967" cy="17.738" r="14.031"/>
	<g>
		<path d="M32.395,28.558v-2.148c-1.076-0.135-1.948-0.378-2.622-0.723c-0.672-0.347-1.254-0.906-1.744-1.679
			c-0.489-0.771-0.773-1.714-0.852-2.831l2.163-0.405c0.165,1.156,0.457,2.002,0.88,2.543c0.604,0.766,1.329,1.191,2.175,1.279
			V17.75c-0.885-0.167-1.787-0.509-2.712-1.027c-0.686-0.383-1.213-0.913-1.58-1.588c-0.37-0.677-0.556-1.444-0.556-2.305
			c0-1.529,0.541-2.768,1.623-3.713c0.725-0.638,1.801-1.027,3.225-1.17V6.919h1.268v1.027c1.248,0.118,2.238,0.485,2.974,1.098
			c0.938,0.78,1.502,1.85,1.694,3.214l-2.222,0.332c-0.129-0.844-0.392-1.489-0.794-1.939c-0.402-0.451-0.954-0.747-1.652-0.892
			v6.199c1.082,0.271,1.799,0.484,2.15,0.634c0.666,0.295,1.211,0.651,1.634,1.074c0.422,0.422,0.745,0.924,0.972,1.505
			c0.229,0.582,0.343,1.211,0.343,1.889c0,1.486-0.474,2.731-1.421,3.725c-0.949,0.996-2.177,1.527-3.678,1.603v2.171H32.395z
			 M32.395,9.736c-0.835,0.129-1.493,0.461-1.979,1.002c-0.48,0.542-0.721,1.183-0.721,1.924c0,0.731,0.206,1.346,0.616,1.839
			c0.408,0.492,1.104,0.889,2.083,1.182V9.736z M33.662,24.594c0.835-0.104,1.525-0.466,2.07-1.09
			c0.546-0.618,0.817-1.387,0.817-2.301c0-0.781-0.192-1.407-0.578-1.881c-0.386-0.474-1.157-0.898-2.31-1.274V24.594z"/>
	</g>
	<polyline fill="none" stroke="#000000" stroke-width="2" stroke-miterlimit="10" points="19.26,16.333 1.001,16.333 1.001,1 
		22.64,1 22.64,7.85 	"/>
	<polyline fill="none" stroke="#000000" stroke-width="2" stroke-miterlimit="10" points="22.64,27.502 22.64,31.667 1.001,31.667 
		1.001,16.333 18.715,16.333 	"/>
	
		<rect x="1.001" y="31.667" fill="none" stroke="#000000" stroke-width="2" stroke-miterlimit="10" width="21.639" height="15.333"/>
	<line fill="none" stroke="#000000" stroke-width="2" stroke-miterlimit="10" x1="8.89" y1="10.111" x2="14.751" y2="10.111"/>
	<line fill="none" stroke="#000000" stroke-width="2" stroke-miterlimit="10" x1="8.89" y1="26.189" x2="14.751" y2="26.189"/>
	<line fill="none" stroke="#000000" stroke-width="2" stroke-miterlimit="10" x1="8.89" y1="41.441" x2="14.751" y2="41.441"/>
</g>
</svg>
