<?xml version="1.0" encoding="utf-8"?>
<!-- Generator: Adobe Illustrator 16.0.0, SVG Export Plug-In . SVG Version: 6.00 Build 0)  -->
<!DOCTYPE svg PUBLIC "-//W3C//DTD SVG 1.1//EN" "http://www.w3.org/Graphics/SVG/1.1/DTD/svg11.dtd">
<svg version="1.1" id="Layer_1" xmlns="http://www.w3.org/2000/svg" xmlns:xlink="http://www.w3.org/1999/xlink" x="0px" y="0px"
	 width="48px" height="48px" viewBox="0 0 48 48" enable-background="new 0 0 48 48" xml:space="preserve">
<g>
	<path fill="none" stroke="#000000" stroke-width="2" stroke-miterlimit="10" d="M18.204,26.639H4.735
		C2.681,26.639,1,24.816,1,22.587v-9.692c0-2.229,1.681-4.052,3.735-4.052h38.531c2.054,0,3.734,1.824,3.734,4.052v9.692
		c0,2.229-1.681,4.052-3.734,4.052H29.817"/>
	<path fill="none" stroke="#000000" stroke-width="2" stroke-miterlimit="10" d="M18.768,26.639H4.735
		c-0.651,0-1.254-0.198-1.788-0.52v16.826C2.947,45.175,4.626,47,6.68,47h34.642c2.053,0,3.734-1.825,3.734-4.055V26.119
		c-0.536,0.321-1.139,0.52-1.79,0.52H29.289"/>
	
		<rect x="18.511" y="22.568" fill="none" stroke="#000000" stroke-width="2" stroke-miterlimit="10" width="10.979" height="17.493"/>
	<path fill="none" stroke="#000000" stroke-width="2" stroke-miterlimit="10" d="M31.504,8.843V5.052C31.504,2.823,29.825,1,27.77,1
		H20.23c-2.055,0-3.735,1.823-3.735,4.052v3.791"/>
</g>
</svg>
