<?xml version="1.0" encoding="utf-8"?>
<!-- Generator: Adobe Illustrator 16.0.0, SVG Export Plug-In . SVG Version: 6.00 Build 0)  -->
<!DOCTYPE svg PUBLIC "-//W3C//DTD SVG 1.1//EN" "http://www.w3.org/Graphics/SVG/1.1/DTD/svg11.dtd">
<svg version="1.1" id="Layer_1" xmlns="http://www.w3.org/2000/svg" xmlns:xlink="http://www.w3.org/1999/xlink" x="0px" y="0px"
	 width="48px" height="48px" viewBox="0 0 48 48" enable-background="new 0 0 48 48" xml:space="preserve">
<g>
	<rect x="1" y="1" fill="none" stroke="#000000" stroke-width="0.25" stroke-miterlimit="10" width="46" height="46"/>
	<rect x="1.359" y="1.359" fill="none" stroke="#000000" stroke-width="2" stroke-miterlimit="10" width="45.281" height="45.281"/>
	<rect x="5.33" y="7.315" fill="none" stroke="#000000" stroke-width="2" stroke-miterlimit="10" width="17.969" height="19.952"/>
	<rect x="22.591" y="35.668" width="20.078" height="5.017"/>
	<rect x="5.33" y="35.668" width="10.039" height="5.017"/>
	<rect x="27.032" y="7.315" width="15.637" height="3.383"/>
	<rect x="27.032" y="13.616" width="3.326" height="2.567"/>
	<rect x="33.187" y="13.616" width="3.326" height="2.567"/>
	<rect x="39.343" y="13.616" width="3.326" height="2.567"/>
	<rect x="27.032" y="18.983" width="3.326" height="2.568"/>
	<rect x="33.187" y="18.983" width="3.326" height="2.568"/>
	<rect x="39.343" y="18.983" width="3.326" height="2.568"/>
	<rect x="27.032" y="24.348" width="3.326" height="2.568"/>
	<rect x="33.187" y="24.348" width="3.326" height="2.568"/>
	<rect x="39.343" y="24.348" width="3.326" height="2.568"/>
	<line fill="none" stroke="#000000" stroke-width="2" stroke-miterlimit="10" x1="3.706" y1="31.678" x2="43.775" y2="31.678"/>
</g>
</svg>
