<?xml version="1.0" encoding="utf-8"?>
<!-- Generator: Adobe Illustrator 16.0.0, SVG Export Plug-In . SVG Version: 6.00 Build 0)  -->
<!DOCTYPE svg PUBLIC "-//W3C//DTD SVG 1.1//EN" "http://www.w3.org/Graphics/SVG/1.1/DTD/svg11.dtd">
<svg version="1.1" id="Layer_1" xmlns="http://www.w3.org/2000/svg" xmlns:xlink="http://www.w3.org/1999/xlink" x="0px" y="0px"
	 width="48px" height="48px" viewBox="0 0 48 48" enable-background="new 0 0 48 48" xml:space="preserve">
<g>
	<g>
		<path fill="none" stroke="#000000" stroke-width="2" stroke-miterlimit="10" d="M5.689,25.582C6.423,37.546,15.377,47,26.321,47
			c11.421,0,20.678-10.298,20.678-23.001C46.999,11.298,37.742,1,26.321,1"/>
		<g>
			<polygon points="1.001,31.089 2.062,31.95 5.873,26.129 10.816,30.78 11.662,29.663 5.641,23.999 			"/>
		</g>
	</g>
	<circle fill="none" stroke="#000000" stroke-width="2" stroke-miterlimit="10" cx="28.81" cy="16.649" r="12.546"/>
	<g>
		<path d="M28.297,26.323v-1.922c-0.96-0.122-1.742-0.337-2.341-0.646c-0.603-0.311-1.123-0.809-1.561-1.501
			c-0.438-0.69-0.692-1.533-0.764-2.531l1.935-0.363c0.146,1.034,0.408,1.791,0.788,2.275c0.541,0.684,1.187,1.064,1.942,1.145
			V16.66c-0.789-0.149-1.598-0.456-2.423-0.92c-0.612-0.34-1.084-0.815-1.414-1.418c-0.332-0.606-0.496-1.292-0.496-2.061
			c0-1.368,0.483-2.475,1.449-3.319c0.649-0.571,1.611-0.919,2.884-1.047V6.976h1.133v0.918c1.119,0.104,2.003,0.434,2.659,0.981
			c0.839,0.698,1.343,1.655,1.517,2.873l-1.987,0.296c-0.114-0.754-0.349-1.331-0.71-1.733c-0.357-0.403-0.852-0.667-1.479-0.797
			v5.542c0.97,0.243,1.607,0.433,1.922,0.566c0.6,0.266,1.086,0.584,1.462,0.961c0.378,0.378,0.668,0.825,0.87,1.346
			c0.206,0.521,0.306,1.083,0.306,1.689c0,1.329-0.425,2.441-1.271,3.33c-0.848,0.891-1.944,1.368-3.288,1.432v1.942H28.297z
			 M28.297,9.495c-0.744,0.115-1.336,0.413-1.769,0.897c-0.429,0.484-0.646,1.057-0.646,1.719c0,0.654,0.186,1.203,0.552,1.644
			c0.365,0.44,0.987,0.796,1.862,1.057V9.495z M29.43,22.781c0.747-0.094,1.366-0.419,1.852-0.974
			c0.49-0.554,0.731-1.242,0.731-2.06c0-0.699-0.172-1.259-0.517-1.682c-0.345-0.424-1.035-0.803-2.066-1.139V22.781z"/>
	</g>
</g>
</svg>
