<?xml version="1.0" encoding="utf-8"?>
<!-- Generator: Adobe Illustrator 16.0.0, SVG Export Plug-In . SVG Version: 6.00 Build 0)  -->
<!DOCTYPE svg PUBLIC "-//W3C//DTD SVG 1.1//EN" "http://www.w3.org/Graphics/SVG/1.1/DTD/svg11.dtd">
<svg version="1.1" id="Layer_1" xmlns="http://www.w3.org/2000/svg" xmlns:xlink="http://www.w3.org/1999/xlink" x="0px" y="0px"
	 width="48px" height="48px" viewBox="0 0 48 48" enable-background="new 0 0 48 48" xml:space="preserve">
<g>
	<g>
		<path d="M26.686,17.919l-0.421-0.596c-0.335,0.165-0.633,0.265-0.895,0.296c-0.26,0.034-0.535-0.013-0.827-0.134
			c-0.294-0.122-0.56-0.33-0.801-0.624l0.541-0.522c0.273,0.288,0.524,0.467,0.75,0.537c0.324,0.098,0.616,0.078,0.874-0.058
			l-1.34-1.901c-0.289,0.123-0.614,0.2-0.981,0.231c-0.271,0.022-0.526-0.022-0.766-0.141c-0.24-0.116-0.442-0.294-0.612-0.535
			c-0.302-0.423-0.386-0.87-0.262-1.339c0.083-0.315,0.313-0.627,0.694-0.937l-0.202-0.286l0.365-0.24l0.201,0.284
			c0.382-0.205,0.739-0.291,1.07-0.26c0.421,0.038,0.793,0.228,1.114,0.57l-0.571,0.516c-0.2-0.21-0.404-0.338-0.608-0.387
			c-0.204-0.05-0.419-0.027-0.649,0.067l1.216,1.719c0.365-0.13,0.612-0.208,0.743-0.233c0.249-0.044,0.476-0.048,0.68-0.009
			c0.202,0.035,0.395,0.113,0.574,0.231c0.18,0.118,0.335,0.271,0.469,0.459c0.292,0.413,0.4,0.85,0.323,1.303
			c-0.076,0.457-0.323,0.838-0.741,1.145l0.427,0.603L26.686,17.919z M22.991,12.693c-0.213,0.195-0.335,0.412-0.367,0.655
			c-0.032,0.243,0.022,0.465,0.169,0.671c0.142,0.203,0.322,0.335,0.537,0.394c0.215,0.058,0.492,0.035,0.831-0.068L22.991,12.693z
			 M26.272,16.578c0.219-0.187,0.346-0.418,0.382-0.696c0.033-0.275-0.039-0.54-0.219-0.793c-0.152-0.217-0.332-0.356-0.536-0.414
			c-0.204-0.057-0.507-0.028-0.911,0.087L26.272,16.578z"/>
	</g>
	<g>
		<path d="M16.794,20.06c0.453,0.64,0.282,1.513-0.376,1.949c-0.661,0.439-1.563,0.276-2.016-0.364
			c-0.451-0.64-0.283-1.513,0.378-1.951C15.44,19.258,16.343,19.422,16.794,20.06z"/>
		<path d="M35.055,7.967c0.451,0.641,0.282,1.512-0.378,1.95c-0.661,0.437-1.563,0.274-2.017-0.366
			c-0.451-0.639-0.28-1.512,0.381-1.951C33.699,7.165,34.602,7.329,35.055,7.967z"/>
	</g>
	<path fill="none" stroke="#000000" stroke-width="2" stroke-miterlimit="10" d="M28.529,12.288c1.537,2.175,1.08,5.065-1.02,6.455
		c-2.099,1.39-5.046,0.755-6.583-1.419c-1.537-2.173-1.08-5.063,1.018-6.452C24.045,9.479,26.991,10.114,28.529,12.288z"/>
	<polyline fill="none" stroke="#000000" stroke-width="2" stroke-miterlimit="10" points="14.37,25.731 8.418,17.313 33.048,1 
		41.035,12.3 21.284,25.548 	"/>
	<line fill="none" stroke="#000000" stroke-width="2" stroke-miterlimit="10" x1="25.938" y1="25.407" x2="40.928" y2="15.424"/>
	<line fill="none" stroke="#000000" stroke-width="2" stroke-miterlimit="10" x1="7.858" y1="20.202" x2="11.536" y2="25.407"/>
	<line fill="none" stroke="#000000" stroke-width="2" stroke-miterlimit="10" x1="29.677" y1="25.407" x2="40.114" y2="18.555"/>
	<line fill="none" stroke="#000000" stroke-width="2" stroke-miterlimit="10" x1="7.04" y1="23.332" x2="8.509" y2="25.407"/>
	<polygon fill="none" stroke="#000000" stroke-width="2" stroke-miterlimit="10" points="2.915,25.407 2.915,31.829 1,31.829 
		1,40.58 2.915,40.58 2.915,47 47,47 47,25.407 	"/>
	<rect x="3.652" y="34.553" fill="none" stroke="#000000" stroke-width="2" stroke-miterlimit="10" width="9.531" height="3.302"/>
</g>
</svg>
