<?xml version="1.0" encoding="utf-8"?>
<!-- Generator: Adobe Illustrator 16.0.0, SVG Export Plug-In . SVG Version: 6.00 Build 0)  -->
<!DOCTYPE svg PUBLIC "-//W3C//DTD SVG 1.1//EN" "http://www.w3.org/Graphics/SVG/1.1/DTD/svg11.dtd">
<svg version="1.1" id="Layer_1" xmlns="http://www.w3.org/2000/svg" xmlns:xlink="http://www.w3.org/1999/xlink" x="0px" y="0px"
	 width="48px" height="48px" viewBox="0 0 48 48" enable-background="new 0 0 48 48" xml:space="preserve">
<g>
	<path fill="none" stroke="#000000" stroke-width="2" stroke-miterlimit="10" d="M47,44.079c0,1.606-1.314,2.92-2.92,2.92H3.922
		C2.316,46.999,1,45.686,1,44.079V3.922c0-1.608,1.316-2.921,2.922-2.921H44.08c1.605,0,2.92,1.313,2.92,2.921V44.079z"/>
	<rect x="5.106" y="5.835" fill="none" stroke="#000000" stroke-width="2" stroke-miterlimit="10" width="37.789" height="12.995"/>
	<rect x="5.106" y="22.543" fill="none" stroke="#000000" stroke-width="2" stroke-miterlimit="10" width="10.306" height="5.037"/>
	
		<rect x="18.648" y="22.543" fill="none" stroke="#000000" stroke-width="2" stroke-miterlimit="10" width="10.308" height="5.037"/>
	<rect x="32.19" y="22.543" fill="none" stroke="#000000" stroke-width="2" stroke-miterlimit="10" width="10.308" height="5.037"/>
	<rect x="5.106" y="30.365" fill="none" stroke="#000000" stroke-width="2" stroke-miterlimit="10" width="10.306" height="5.036"/>
	
		<rect x="18.648" y="30.365" fill="none" stroke="#000000" stroke-width="2" stroke-miterlimit="10" width="10.308" height="5.036"/>
	<rect x="5.106" y="38.187" fill="none" stroke="#000000" stroke-width="2" stroke-miterlimit="10" width="10.306" height="5.039"/>
	
		<rect x="18.648" y="38.187" fill="none" stroke="#000000" stroke-width="2" stroke-miterlimit="10" width="10.308" height="5.039"/>
	<polygon fill="none" stroke="#000000" stroke-width="2" stroke-miterlimit="10" points="32.19,30.365 32.19,33.68 32.19,35.401 
		32.19,43.226 42.498,43.226 42.498,35.401 42.498,33.68 42.498,30.365 	"/>
	<g>
		<path d="M36.98,38.866v-1.718h-1.707V36.43h1.707v-1.707h0.729v1.707h1.705v0.719h-1.705v1.718H36.98z"/>
	</g>
	<g>
		<path d="M28.627,11.056h1.078v5.494H29.16v-4.957h-0.862L28.627,11.056z"/>
		<path d="M32.333,12.774h-0.526c0.016-0.541,0.199-0.987,0.543-1.335c0.349-0.348,0.779-0.522,1.288-0.522
			c0.505,0,0.915,0.164,1.228,0.489c0.311,0.326,0.468,0.712,0.468,1.155c0,0.312-0.074,0.603-0.223,0.876
			c-0.149,0.273-0.438,0.642-0.868,1.108l-1.368,1.474h2.536v0.53h-3.732l2.099-2.27c0.427-0.456,0.702-0.794,0.831-1.014
			c0.129-0.22,0.192-0.453,0.192-0.697c0-0.309-0.116-0.576-0.346-0.797c-0.23-0.225-0.512-0.336-0.845-0.336
			c-0.354,0-0.644,0.118-0.878,0.352C32.5,12.022,32.367,12.35,32.333,12.774z"/>
		<path d="M36.701,12.33h-0.56c0.104-0.453,0.298-0.802,0.584-1.046c0.29-0.243,0.631-0.366,1.024-0.366
			c0.286,0,0.556,0.064,0.803,0.196c0.247,0.13,0.438,0.306,0.574,0.528c0.137,0.222,0.204,0.454,0.204,0.695
			c0,0.474-0.235,0.848-0.707,1.123c0.264,0.109,0.482,0.265,0.651,0.471c0.237,0.292,0.359,0.618,0.359,0.978
			c0,0.313-0.084,0.609-0.247,0.893c-0.167,0.283-0.388,0.5-0.674,0.655c-0.282,0.154-0.599,0.231-0.951,0.231
			c-0.474,0-0.868-0.136-1.185-0.41c-0.316-0.271-0.522-0.671-0.621-1.2h0.539c0.094,0.357,0.229,0.614,0.406,0.772
			c0.227,0.203,0.517,0.303,0.868,0.303c0.396,0,0.717-0.12,0.958-0.358c0.243-0.239,0.363-0.519,0.363-0.841
			c0-0.214-0.062-0.415-0.18-0.601c-0.121-0.186-0.284-0.328-0.486-0.423c-0.204-0.094-0.517-0.153-0.943-0.175v-0.504
			c0.251,0,0.479-0.044,0.687-0.132c0.208-0.089,0.355-0.201,0.451-0.339c0.092-0.136,0.141-0.286,0.141-0.447
			c0-0.239-0.098-0.446-0.288-0.621c-0.191-0.174-0.431-0.261-0.723-0.261c-0.236,0-0.44,0.066-0.612,0.201
			C36.966,11.784,36.821,12.012,36.701,12.33z"/>
	</g>
</g>
</svg>
