<?xml version="1.0" encoding="utf-8"?>
<!-- Generator: Adobe Illustrator 16.0.0, SVG Export Plug-In . SVG Version: 6.00 Build 0)  -->
<!DOCTYPE svg PUBLIC "-//W3C//DTD SVG 1.1//EN" "http://www.w3.org/Graphics/SVG/1.1/DTD/svg11.dtd">
<svg version="1.1" id="Layer_1" xmlns="http://www.w3.org/2000/svg" xmlns:xlink="http://www.w3.org/1999/xlink" x="0px" y="0px"
	 width="48px" height="48px" viewBox="0 0 48 48" enable-background="new 0 0 48 48" xml:space="preserve">
<g>
	<g>
		<path fill="none" stroke="#000000" stroke-width="2" stroke-miterlimit="10" d="M46.92,45c0,1.1-0.9,2-2,2H3.081c-1.1,0-2-0.9-2-2
			V3c0-1.1,0.9-2,2-2H44.92c1.1,0,2,0.9,2,2V45z"/>
	</g>
	<path fill="none" stroke="#000000" stroke-width="2" stroke-linecap="round" stroke-miterlimit="10" d="M1.081,40
		c1.216-1.748,2.563-3.146,3.028-3.605c0.737-0.715,1.568-1.352,2.213-2.15c1.144-1.419,2.252-2.843,3.42-4.238
		c1.487-1.776,2.735-3.613,4.069-5.459c0.79-1.092,2.093-4.201,3.749-3.416c1.893,0.898,2.473,3.268,4.035,4.505
		c1.769,1.401,3.272,2.837,4.67,4.586c0.433,0.545,0.741,1.441,1.354,1.776c1.017,0.563,1.783-0.425,2.489-1.055
		c0.979-0.879,2.038-1.782,2.789-2.887c0.453-0.672,0.811-1.312,1.379-1.908c1.599-1.69,3.171-0.778,4.904,0.33
		c2.514,1.61,4.696,3.698,7.234,5.276"/>
	<circle fill="none" stroke="#000000" stroke-width="2" stroke-miterlimit="10" cx="29.998" cy="11.887" r="4.142"/>
	
		<line fill="none" stroke="#000000" stroke-linecap="round" stroke-miterlimit="10" x1="16.699" y1="38.044" x2="42.502" y2="38.044"/>
</g>
</svg>
