<?xml version="1.0" encoding="utf-8"?>
<!-- Generator: Adobe Illustrator 16.0.0, SVG Export Plug-In . SVG Version: 6.00 Build 0)  -->
<!DOCTYPE svg PUBLIC "-//W3C//DTD SVG 1.1//EN" "http://www.w3.org/Graphics/SVG/1.1/DTD/svg11.dtd">
<svg version="1.1" id="Layer_1" xmlns="http://www.w3.org/2000/svg" xmlns:xlink="http://www.w3.org/1999/xlink" x="0px" y="0px"
	 width="48px" height="48px" viewBox="0 0 48 48" enable-background="new 0 0 48 48" xml:space="preserve">
<g>
	<polygon fill="none" stroke="#000000" stroke-width="2" stroke-miterlimit="10" points="1.2,14.164 46.914,14.164 46.914,9.884 
		24.735,1 1.2,9.884 	"/>
	<g>
		<polygon fill="none" stroke="#000000" stroke-width="2" stroke-miterlimit="10" points="4.482,18.552 6.01,18.552 6.01,39.639 
			11.894,39.639 11.894,18.552 13.421,18.552 13.421,16.198 4.482,16.198 		"/>
		<polygon fill="none" stroke="#000000" stroke-width="2" stroke-miterlimit="10" points="19.587,18.552 21.115,18.552 
			21.115,39.639 26.998,39.639 26.998,18.552 28.525,18.552 28.525,16.198 19.587,16.198 		"/>
		<polygon fill="none" stroke="#000000" stroke-width="2" stroke-miterlimit="10" points="34.693,16.198 34.693,18.552 
			36.221,18.552 36.221,39.639 42.105,39.639 42.105,18.552 43.633,18.552 43.633,16.198 		"/>
	</g>
	<polygon fill="none" stroke="#000000" stroke-width="2" stroke-miterlimit="10" points="44.764,44.288 44.764,41.617 3.237,41.617 
		3.237,44.288 1,44.288 1,47 47,47 47,44.288 	"/>
</g>
</svg>
