<?xml version="1.0" encoding="utf-8"?>
<!-- Generator: Adobe Illustrator 16.0.0, SVG Export Plug-In . SVG Version: 6.00 Build 0)  -->
<!DOCTYPE svg PUBLIC "-//W3C//DTD SVG 1.1//EN" "http://www.w3.org/Graphics/SVG/1.1/DTD/svg11.dtd">
<svg version="1.1" id="Layer_1" xmlns="http://www.w3.org/2000/svg" xmlns:xlink="http://www.w3.org/1999/xlink" x="0px" y="0px"
	 width="48px" height="48px" viewBox="0 0 48 48" enable-background="new 0 0 48 48" xml:space="preserve">
<g>
	<path fill="none" stroke="#000000" stroke-width="2" stroke-miterlimit="10" d="M12.318,3.207c1.763,1.347,2.839,2.316,3.649,4.17
		c0.494,1.138,0.957,2.237,1.657,3.313c0.758,1.16,1.262,1.87,2.835,2.18c1.292,0.257,3.012,0.27,4.358,0.15
		c6.2-0.55,6.688-7.035,9.371-10.306C32.431,1.665,29.563,1.003,27.386,1C25.542,1,26.003,1.135,25.426,2.325
		c-0.499,1.037-1.033,1.079-2.486,0.732C12.676,0.611,12.318,3.207,12.318,3.207z"/>
	<path fill="none" stroke="#000000" stroke-width="2" stroke-miterlimit="10" d="M24.187,15.002
		c0.396,0.138,0.798,0.046,1.243,0.086c5.299,0.486,11,2.247,14.242,5.656c1.001,1.059,1.196,2.279,1.664,3.531
		c0.47,1.261,1.05,2.404,1.711,3.593c0.793,1.43,1.303,2.974,1.701,4.54c0.41,1.612,1.368,3.014,1.832,4.616
		c0.555,1.92,0.689,4.436-0.404,6.354c-1.523,2.681-3.612,1.934-6.553,2.165c-1.372,0.109-2.416,0.7-3.886,0.7
		c-1.636,0-3.191-0.123-4.801-0.198c-1.374-0.067-2.806-0.155-4.196,0.017c-1.595,0.197-3.074,0.826-4.667,0.902
		c-1.462,0.069-3.15,0.053-4.507-0.245c-1.331-0.296-2.433-0.825-3.89-0.835c-1.463-0.011-2.602,0.522-4.033,0.723
		c-1.247,0.172-2.794,0.176-4.049,0.086c-2.07-0.147-4.396-1.548-4.567-3.35c-0.151-1.644,0.361-3.561,0.539-5.225
		c0.127-1.187,0.38-2.259,0.584-3.4c0.247-1.38,1.101-2.554,1.514-3.938c0.479-1.601,0.756-3.063,1.625-4.603
		c0.81-1.445,1.739-2.936,2.672-4.349c3.306-5.009,9.492-6.814,15.893-6.827H24.187z"/>
</g>
</svg>
