<?xml version="1.0" encoding="utf-8"?>
<!-- Generator: Adobe Illustrator 16.0.0, SVG Export Plug-In . SVG Version: 6.00 Build 0)  -->
<!DOCTYPE svg PUBLIC "-//W3C//DTD SVG 1.1//EN" "http://www.w3.org/Graphics/SVG/1.1/DTD/svg11.dtd">
<svg version="1.1" id="Layer_1" xmlns="http://www.w3.org/2000/svg" xmlns:xlink="http://www.w3.org/1999/xlink" x="0px" y="0px"
	 width="48px" height="48px" viewBox="0 0 48 48" enable-background="new 0 0 48 48" xml:space="preserve">
<g>
	<rect x="3.643" y="1.001" fill="none" stroke="#000000" stroke-width="2" stroke-miterlimit="10" width="40.09" height="45.998"/>
	<g>
		<rect x="8.598" y="5.579" fill="none" stroke="#000000" stroke-width="2" stroke-miterlimit="10" width="3.945" height="9.474"/>
		<rect x="17.344" y="5.579" fill="none" stroke="#000000" stroke-width="2" stroke-miterlimit="10" width="3.944" height="9.474"/>
		<rect x="26.091" y="5.579" fill="none" stroke="#000000" stroke-width="2" stroke-miterlimit="10" width="3.943" height="9.474"/>
		<rect x="34.838" y="5.579" fill="none" stroke="#000000" stroke-width="2" stroke-miterlimit="10" width="3.943" height="9.474"/>
	</g>
	<g>
		<rect x="8.598" y="19.264" fill="none" stroke="#000000" stroke-width="2" stroke-miterlimit="10" width="3.945" height="9.473"/>
		
			<rect x="17.344" y="19.264" fill="none" stroke="#000000" stroke-width="2" stroke-miterlimit="10" width="3.944" height="9.473"/>
		
			<rect x="26.091" y="19.264" fill="none" stroke="#000000" stroke-width="2" stroke-miterlimit="10" width="3.943" height="9.473"/>
		
			<rect x="34.838" y="19.264" fill="none" stroke="#000000" stroke-width="2" stroke-miterlimit="10" width="3.943" height="9.473"/>
	</g>
	<rect x="8.598" y="32.946" fill="none" stroke="#000000" stroke-width="2" stroke-miterlimit="10" width="3.945" height="9.475"/>
	<polygon fill="none" stroke="#000000" stroke-width="2" stroke-miterlimit="10" points="21.288,32.946 19.315,32.946 
		17.344,32.946 17.344,46.999 19.315,46.999 21.288,46.999 30.034,46.999 30.034,32.946 	"/>
	<rect x="34.838" y="32.946" fill="none" stroke="#000000" stroke-width="2" stroke-miterlimit="10" width="3.943" height="9.475"/>
	<line fill="none" stroke="#000000" stroke-width="2" stroke-miterlimit="10" x1="1" y1="46.999" x2="47" y2="46.999"/>
</g>
</svg>
