<?xml version="1.0" encoding="utf-8"?>
<!-- Generator: Adobe Illustrator 16.0.0, SVG Export Plug-In . SVG Version: 6.00 Build 0)  -->
<!DOCTYPE svg PUBLIC "-//W3C//DTD SVG 1.1//EN" "http://www.w3.org/Graphics/SVG/1.1/DTD/svg11.dtd">
<svg version="1.1" id="Layer_1" xmlns="http://www.w3.org/2000/svg" xmlns:xlink="http://www.w3.org/1999/xlink" x="0px" y="0px"
	 width="48px" height="48px" viewBox="0 0 48 48" enable-background="new 0 0 48 48" xml:space="preserve">
<g>
	<path d="M35.841,43.863l-1.039-1.037c8.164-8.164,8.164-21.45,0-29.615c-8.166-8.164-21.449-8.164-29.615,0l-1.037-1.038
		c8.736-8.738,22.955-8.738,31.691,0C44.579,20.91,44.579,35.127,35.841,43.863z"/>
	<g>
		<rect x="32.667" y="10.232" transform="matrix(0.7072 0.707 -0.707 0.7072 19.3554 -21.1597)" width="5.115" height="5.113"/>
		<path d="M35.226,17.443l-4.654-4.655l4.652-4.654l4.656,4.656L35.226,17.443z M32.647,12.788l2.578,2.577l2.576-2.575
			l-2.578-2.579L32.647,12.788z"/>
	</g>
	<path d="M4.667,17.346l-4.652-4.653l4.652-4.654l4.656,4.654L4.667,17.346z M2.093,12.692l2.574,2.577l2.578-2.577l-2.578-2.576
		L2.093,12.692z"/>
	<path d="M35.321,48l-4.654-4.654l4.654-4.654l4.654,4.654L35.321,48z M32.745,43.346l2.576,2.578l2.576-2.578l-2.576-2.576
		L32.745,43.346z"/>
	<g>
		<line x1="24.331" y1="1.895" x2="46.118" y2="23.683"/>
		<rect x="19.819" y="12.054" transform="matrix(0.7071 0.7071 -0.7071 0.7071 19.3593 -21.162)" width="30.813" height="1.47"/>
	</g>
	<circle cx="24.304" cy="1.865" r="1.865"/>
	<circle cx="46.119" cy="23.682" r="1.866"/>
</g>
</svg>
