<?xml version="1.0" encoding="utf-8"?>
<!-- Generator: Adobe Illustrator 16.0.0, SVG Export Plug-In . SVG Version: 6.00 Build 0)  -->
<!DOCTYPE svg PUBLIC "-//W3C//DTD SVG 1.1//EN" "http://www.w3.org/Graphics/SVG/1.1/DTD/svg11.dtd">
<svg version="1.1" id="Layer_1" xmlns="http://www.w3.org/2000/svg" xmlns:xlink="http://www.w3.org/1999/xlink" x="0px" y="0px"
	 width="48px" height="48px" viewBox="0 0 48 48" enable-background="new 0 0 48 48" xml:space="preserve">
<g>
	<g>
		<path d="M23.935,48c-5.285,0-14.23-0.777-14.232-3.686l-0.016-29.18c-0.002-2.916,8.971-3.701,14.271-3.705
			c6.172,0,11.379,0.854,13.314,2.179c0.877,0.628,0.92,1.592,0.961,2.441l0.016,28.243c0.002,2.918-8.969,3.701-14.271,3.707
			H23.935z M24.003,12.897c-8.025,0.006-12.625,1.468-12.852,2.25l0.02,29.167c0.227,0.764,4.813,2.217,12.764,2.217v0.734
			l0.043-0.734c7.98-0.006,12.58-1.469,12.807-2.252l-0.018-28.195c-0.037-0.78-0.094-1.101-0.334-1.273
			C35.091,13.894,30.62,12.897,24.003,12.897z"/>
		<path d="M23.345,18.865c-0.354,0-0.715-0.003-1.088-0.007c-10.633-0.144-12.34-3.075-12.5-3.408l1.309-0.662
			c0.016,0.025,1.58,2.473,11.211,2.603c12.043,0.166,14.109-2.411,14.4-2.929l1.277,0.723
			C37.165,16.578,34.214,18.865,23.345,18.865z"/>
		<path fill="#FFFFFF" stroke="#231F20" stroke-width="2" stroke-miterlimit="10" d="M34.708,16.731"/>
	</g>
	<path d="M39.245,16.469h-1.467c0-8.272-6.195-15.003-13.811-15.003s-13.811,6.73-13.811,15.003H8.69C8.69,7.388,15.544,0,23.968,0
		S39.245,7.388,39.245,16.469z"/>
	<polygon points="10.419,19.719 7.825,19.719 7.825,15.735 10.419,15.735 10.419,17.202 9.292,17.202 9.292,18.252 10.419,18.252 	
		"/>
	<polygon points="40.175,19.719 37.581,19.719 37.581,18.252 38.708,18.252 38.708,17.202 37.581,17.202 37.581,15.735 
		40.175,15.735 	"/>
	<path d="M32.202,32.492c-0.379,0-0.738-0.078-1.076-0.236c-0.852-0.396-1.486-1.25-1.887-2.537
		c-0.355-1.139-0.566-2.291-0.771-3.404c-0.102-0.561-0.205-1.119-0.326-1.674c-0.148-0.688-0.561-1.279-0.957-1.375
		c-0.316-0.078-0.635,0.213-0.846,0.471c-0.127,0.217-0.191,1.232-0.238,1.975c-0.131,2.07-0.279,4.416-1.748,5.258
		c-0.754,0.43-1.695,0.367-2.801-0.189c-1.521-0.766-1.877-3.188-1.949-3.912c-0.021-0.207-0.023-0.406-0.023-0.596
		c0-0.135-0.002-0.328-0.02-0.416c-0.021,0.002-0.07-0.014-0.162-0.025c-0.26-0.033-0.295-0.037-0.459,0.547
		c-0.043,0.154-0.086,0.316-0.127,0.48c-0.324,1.262-0.768,2.99-2.725,3.135c-0.74,0.057-1.398-0.176-1.904-0.666
		c-0.68-0.658-1.053-1.783-0.998-3.004c0.055-1.227,0.338-2.379,0.611-3.494c0.43-1.751,0.836-3.405,0.332-5.21l1.412-0.395
		c0.607,2.175,0.137,4.098-0.32,5.956c-0.268,1.092-0.521,2.123-0.57,3.209c-0.035,0.783,0.184,1.523,0.555,1.885
		c0.205,0.199,0.451,0.277,0.773,0.256c0.818-0.061,1.07-0.699,1.412-2.037c0.047-0.176,0.09-0.348,0.137-0.514
		c0.15-0.537,0.504-1.799,2.053-1.604c1.463,0.184,1.465,1.336,1.467,1.893c0,0.143,0,0.295,0.016,0.453
		c0.113,1.135,0.547,2.443,1.15,2.746c0.439,0.223,1.039,0.441,1.41,0.229c0.785-0.449,0.922-2.631,1.014-4.076
		c0.092-1.469,0.164-2.322,0.57-2.816c0.914-1.107,1.848-1.078,2.324-0.964c0.965,0.233,1.768,1.21,2.047,2.491
		c0.123,0.57,0.229,1.143,0.334,1.719c0.197,1.072,0.4,2.18,0.729,3.232c0.266,0.852,0.658,1.438,1.105,1.645
		c0.326,0.152,0.721,0.129,1.207-0.074c1.09-0.457,1.826-1.475,1.926-2.66c0.072-0.857,0.113-1.748-0.254-2.381
		c-0.17-0.295-0.354-0.578-0.535-0.861c-0.365-0.564-0.74-1.148-1.025-1.814c-0.869-2.036-0.863-4.348-0.705-5.929l1.459,0.146
		c-0.141,1.409-0.152,3.457,0.596,5.206c0.234,0.551,0.563,1.059,0.908,1.596c0.193,0.303,0.391,0.605,0.572,0.92
		c0.58,1,0.539,2.15,0.447,3.24c-0.146,1.732-1.229,3.223-2.822,3.891C33.06,32.396,32.618,32.492,32.202,32.492z"/>
</g>
</svg>
