<?xml version="1.0" encoding="utf-8"?>
<!-- Generator: Adobe Illustrator 16.0.0, SVG Export Plug-In . SVG Version: 6.00 Build 0)  -->
<!DOCTYPE svg PUBLIC "-//W3C//DTD SVG 1.1//EN" "http://www.w3.org/Graphics/SVG/1.1/DTD/svg11.dtd">
<svg version="1.1" id="Layer_1" xmlns="http://www.w3.org/2000/svg" xmlns:xlink="http://www.w3.org/1999/xlink" x="0px" y="0px"
	 width="48px" height="48px" viewBox="0 0 48 48" enable-background="new 0 0 48 48" xml:space="preserve">
<g>
	<g>
		<path fill="none" stroke="#000000" stroke-width="2" stroke-miterlimit="10" d="M46.384,45c0,1.1-0.9,2-2,2H3.616
			c-1.1,0-2-0.9-2-2V15.056c0-1.1,0.9-2,2-2h40.768c1.1,0,2,0.9,2,2V45z"/>
	</g>
	<path fill="none" stroke="#000000" stroke-width="2" stroke-miterlimit="10" d="M3.115,43.745c0.012-0.659,1.001-1.16,1.462-1.609
		c0.713-0.698,1.529-1.322,2.157-2.099c1.116-1.391,2.201-2.781,3.341-4.143c1.457-1.733,2.673-3.527,3.981-5.332
		c0.768-1.064,2.038-4.101,3.655-3.335c1.851,0.876,2.418,3.192,3.937,4.396c1.734,1.371,3.195,2.773,4.564,4.487
		c0.425,0.528,0.728,1.4,1.323,1.732c0.993,0.548,1.746-0.416,2.437-1.03c0.957-0.86,1.99-1.742,2.718-2.822
		c0.445-0.657,0.798-1.278,1.348-1.862c1.563-1.653,3.102-0.764,4.794,0.323c2.452,1.571,4.586,3.609,7.062,5.149"/>
	<path fill="none" stroke="#000000" stroke-width="2" stroke-miterlimit="10" d="M33.909,22.244c0,2.234-1.811,4.044-4.049,4.044
		c-2.234,0-4.045-1.811-4.045-4.044c0-2.235,1.811-4.044,4.045-4.044C32.099,18.199,33.909,20.009,33.909,22.244z"/>
	<path fill="none" stroke="#000000" stroke-width="2" stroke-linecap="round" stroke-miterlimit="10" d="M9.461,13.056L19.774,2.744
		c2.327-2.327,6.129-2.324,8.458,0l10.306,10.312"/>
</g>
</svg>
