<?xml version="1.0" encoding="utf-8"?>
<!-- Generator: Adobe Illustrator 16.0.0, SVG Export Plug-In . SVG Version: 6.00 Build 0)  -->
<!DOCTYPE svg PUBLIC "-//W3C//DTD SVG 1.1//EN" "http://www.w3.org/Graphics/SVG/1.1/DTD/svg11.dtd">
<svg version="1.1" id="Layer_1" xmlns="http://www.w3.org/2000/svg" xmlns:xlink="http://www.w3.org/1999/xlink" x="0px" y="0px"
	 width="48px" height="48px" viewBox="0 0 48 48" enable-background="new 0 0 48 48" xml:space="preserve">
<g>
	<path d="M26.014,47.181c-0.029,0-0.057,0-0.086,0c-4.676-0.006-9.08-0.412-12.4-1.143c-3.797-0.836-5.645-1.949-5.641-3.402
		l0.051-37.32c0.006-3.56,11.715-4.496,17.977-4.496c0.025,0,0.053,0,0.078,0C33.697,0.83,40.494,1.949,42.9,3.605
		c1.016,0.729,1.084,1.882,1.129,2.909l0.398,2.01L42.988,8.81l-0.422-2.174c-0.049-1.116-0.135-1.56-0.51-1.831
		c-2.137-1.47-8.75-2.508-16.066-2.519c-0.035,0-0.072,0-0.107,0c-10.66,0-16.477,1.999-16.479,3.031l-0.051,37.32
		c0,0.254,0.822,1.16,4.49,1.967c3.221,0.709,7.512,1.102,12.086,1.109c0.039,0,0.078,0,0.117,0c10.654,0,16.467-1.998,16.469-3.031
		l0.027-20.283l1.467,0.003l-0.027,20.282C43.977,46.245,32.279,47.181,26.014,47.181z"/>
	<path d="M25.15,9.914c-0.488,0-0.939-0.004-1.348-0.011C10.328,9.697,8.205,6.047,8.008,5.631l1.314-0.652
		c0.018,0.033,1.986,3.266,14.504,3.458c15.516,0.249,18.219-3.13,18.604-3.81l1.275,0.726C41.428,9.358,30.842,9.914,25.15,9.914z"
		/>
	<path stroke="#231F20" stroke-width="2" stroke-miterlimit="10" d="M26.381,15.466"/>
	<path d="M3.586,29.552c-0.18,0-0.352-0.008-0.521-0.025c-1.039-0.107-1.857-0.529-2.434-1.258c-1.379-1.742-0.502-4.734,2.684-9.15
		c2.209-3.063,4.713-5.653,4.818-5.763l1.053,1.021c-4.041,4.17-9.012,10.952-7.404,12.981c0.324,0.412,0.795,0.645,1.436,0.709
		c3.443,0.346,11.277-4.275,20.971-12.381l0.941,1.125C19.359,21.637,9.059,29.552,3.586,29.552z"/>
	<path d="M26.939,17.85c-0.635,0-1.258-0.175-1.803-0.505c-0.795-0.483-1.355-1.247-1.576-2.149
		c-0.221-0.904-0.078-1.84,0.404-2.635c0.639-1.049,1.752-1.676,2.98-1.676c0.635,0,1.26,0.175,1.805,0.507
		c0.795,0.481,1.354,1.244,1.576,2.148c0.221,0.903,0.076,1.841-0.406,2.634C29.283,17.224,28.168,17.85,26.939,17.85z
		 M26.945,12.353c-0.711,0-1.355,0.362-1.725,0.97c-0.279,0.46-0.363,1-0.236,1.523c0.129,0.522,0.453,0.965,0.912,1.244
		c0.316,0.191,0.678,0.294,1.043,0.294c0.713,0,1.357-0.363,1.727-0.971c0.279-0.46,0.363-1.001,0.236-1.524
		c-0.129-0.522-0.453-0.964-0.912-1.242C27.674,12.454,27.313,12.353,26.945,12.353z"/>
	<path d="M45.016,24.772c-0.164,0-0.334-0.018-0.506-0.051c-1.561-0.313-1.908-1.951-2.162-3.147
		c-0.045-0.214-0.104-0.492-0.168-0.718c-0.189,0.136-0.4,0.205-0.633,0.207c-0.002,0-0.006,0-0.012,0
		c-0.869,0-1.369-0.948-1.896-1.95c-0.152-0.289-0.371-0.703-0.514-0.896c-0.252,0.048-0.494,0.254-0.836,0.56
		c-0.658,0.585-1.76,1.565-3.457,0.233c-0.879-0.688-0.934-2.338-0.953-4.972c-0.012-1.496-0.029-4.002-0.557-4.411
		c-0.014-0.011-0.047-0.037-0.182-0.004L32.787,8.2c0.682-0.17,1.156,0.052,1.434,0.268c1.09,0.846,1.107,3.03,1.125,5.561
		c0.01,1.307,0.023,3.491,0.393,3.83c0.73,0.571,0.926,0.398,1.576-0.179c0.498-0.442,1.125-0.993,2.053-0.936
		c0.705,0.044,1.086,0.769,1.568,1.685c0.141,0.265,0.363,0.689,0.549,0.963l0.125-0.248l0.373-0.058
		c1.295-0.199,1.586,1.178,1.799,2.185c0.236,1.105,0.445,1.898,1.016,2.012c0.314,0.063,0.553,0,0.775-0.207
		c0.789-0.717,1.053-2.757,0.934-3.893c-0.131-1.259-0.85-2.332-1.607-3.468c-0.479-0.714-0.971-1.452-1.33-2.261
		c-0.465-1.048-0.463-2.008-0.463-3.119v-0.098c0-1-0.166-1.77-0.357-2.66c-0.057-0.267-0.117-0.542-0.174-0.835l1.439-0.282
		c0.057,0.284,0.113,0.552,0.168,0.81c0.201,0.933,0.391,1.813,0.391,2.968v0.101c0,0.981-0.002,1.758,0.338,2.521
		c0.307,0.694,0.744,1.348,1.207,2.039c0.824,1.235,1.68,2.512,1.848,4.134c0.143,1.358-0.113,3.952-1.404,5.13
		C46.119,24.563,45.592,24.772,45.016,24.772z"/>
</g>
</svg>
