<?xml version="1.0" encoding="utf-8"?>
<!-- Generator: Adobe Illustrator 16.0.0, SVG Export Plug-In . SVG Version: 6.00 Build 0)  -->
<!DOCTYPE svg PUBLIC "-//W3C//DTD SVG 1.1//EN" "http://www.w3.org/Graphics/SVG/1.1/DTD/svg11.dtd">
<svg version="1.1" id="Layer_1" xmlns="http://www.w3.org/2000/svg" xmlns:xlink="http://www.w3.org/1999/xlink" x="0px" y="0px"
	 width="48px" height="48px" viewBox="0 0 48 48" enable-background="new 0 0 48 48" xml:space="preserve">
<g>
	<path d="M41.598,21.711L46,33.543L16.791,44.059l0.063-0.605l13.639-17.611L41.598,21.711 M42.51,19.719l-12.973,4.824
		L15.355,42.857l-0.354,3.492L48,34.471L42.51,19.719L42.51,19.719z"/>
	<g>
		<g>
			<line x1="31.402" y1="24.82" x2="36.283" y2="37.934"/>
			<rect x="26.846" y="30.603" transform="matrix(0.3489 0.9372 -0.9372 0.3489 51.4416 -11.2869)" width="13.995" height="1.55"/>
		</g>
		<g>
			<line x1="22.703" y1="34.443" x2="25.408" y2="41.713"/>
			<rect x="20.178" y="37.303" transform="matrix(0.3488 0.9372 -0.9372 0.3488 51.3506 2.2507)" width="7.755" height="1.551"/>
		</g>
	</g>
	<g>
		<path d="M26.17,7.184l10.021,7.706L16.51,40.477L16.318,19.99L26.17,7.184 M25.887,5.011L14.764,19.47L15,44.98l23.365-30.374
			L25.887,5.011L25.887,5.011z"/>
		<rect x="16.823" y="18.694" transform="matrix(0.7928 0.6095 -0.6095 0.7928 16.9848 -11.0169)" width="15.741" height="1.55"/>
		<rect x="14.236" y="29.324" transform="matrix(0.7928 0.6095 -0.6095 0.7928 22.4159 -5.7302)" width="10.798" height="1.55"/>
	</g>
	<path d="M14.193,3.049v41.902H1.551V3.049H14.193 M15.744,1.5H0v45h15.744V1.5L15.744,1.5z"/>
	<g>
		<g>
			<line x1="0" y1="13.69" x2="15.744" y2="13.69"/>
			<rect y="12.916" width="15.744" height="1.549"/>
		</g>
		<g>
			<line x1="0" y1="25.201" x2="15.744" y2="25.201"/>
			<rect y="24.426" width="15.744" height="1.551"/>
		</g>
		<g>
			<line x1="0" y1="36.713" x2="15.744" y2="36.713"/>
			<rect y="35.939" width="15.744" height="1.549"/>
		</g>
	</g>
	<path d="M7.971,43.295c-0.971,0-1.85-0.611-2.188-1.52c-0.217-0.584-0.193-1.217,0.064-1.783c0.26-0.566,0.725-0.998,1.309-1.215
		c0.262-0.098,0.535-0.146,0.813-0.146c0.969,0,1.848,0.609,2.186,1.518c0.219,0.584,0.195,1.219-0.064,1.785
		s-0.725,0.998-1.307,1.215C8.52,43.246,8.248,43.295,7.971,43.295z M7.969,39.406c-0.186,0-0.367,0.033-0.543,0.098
		c-0.389,0.145-0.699,0.434-0.873,0.813c-0.172,0.377-0.189,0.799-0.043,1.189c0.291,0.779,1.215,1.211,2.002,0.916
		c0.391-0.145,0.701-0.432,0.873-0.811c0.174-0.379,0.188-0.803,0.043-1.191C9.203,39.814,8.615,39.406,7.969,39.406z"/>
</g>
</svg>
