<?xml version="1.0" encoding="utf-8"?>
<!-- Generator: Adobe Illustrator 16.0.0, SVG Export Plug-In . SVG Version: 6.00 Build 0)  -->
<!DOCTYPE svg PUBLIC "-//W3C//DTD SVG 1.1//EN" "http://www.w3.org/Graphics/SVG/1.1/DTD/svg11.dtd">
<svg version="1.1" id="Layer_1" xmlns="http://www.w3.org/2000/svg" xmlns:xlink="http://www.w3.org/1999/xlink" x="0px" y="0px"
	 width="48px" height="48px" viewBox="0 0 48 48" enable-background="new 0 0 48 48" xml:space="preserve">
<g>
	<rect x="14.775" y="24.577" transform="matrix(0.5137 0.858 -0.858 0.5137 33.8584 -9.0832)" width="20.334" height="1.501"/>
	<path d="M37.631,7.872c0.523,0,1.012,0.274,1.275,0.715l7.387,12.338c0.416,0.698,0.189,1.606-0.508,2.024L18.343,39.377H9.369
		L3.591,29.73c-0.418-0.699-0.189-1.607,0.508-2.025L36.881,8.079C37.107,7.944,37.367,7.872,37.631,7.872 M37.631,6.371
		c-0.52,0-1.045,0.135-1.521,0.421L3.328,26.418c-1.402,0.84-1.865,2.678-1.023,4.084l6.213,10.377h10.242l27.795-16.643
		c1.406-0.838,1.867-2.678,1.025-4.083L40.193,7.816C39.637,6.887,38.646,6.371,37.631,6.371L37.631,6.371z"/>
	<rect x="0" y="40.129" width="28.624" height="1.5"/>
	<path d="M36.867,11.155c-0.785,0-1.424-0.638-1.424-1.422c0-0.785,0.639-1.424,1.424-1.424s1.422,0.639,1.422,1.424
		C38.289,10.518,37.652,11.155,36.867,11.155z M36.867,9.061c-0.371,0-0.672,0.302-0.672,0.673c0,0.37,0.301,0.671,0.672,0.671
		s0.672-0.301,0.672-0.671C37.539,9.362,37.238,9.061,36.867,9.061z"/>
	<path d="M33.645,12.929c-0.785,0-1.422-0.637-1.422-1.423c0-0.784,0.637-1.423,1.422-1.423s1.422,0.639,1.422,1.423
		C35.066,12.292,34.43,12.929,33.645,12.929z M33.645,10.835c-0.371,0-0.672,0.3-0.672,0.671s0.301,0.672,0.672,0.672
		s0.672-0.301,0.672-0.672S34.016,10.835,33.645,10.835z"/>
	<path d="M30.422,14.702c-0.785,0-1.424-0.638-1.424-1.423s0.639-1.422,1.424-1.422c0.783,0,1.422,0.637,1.422,1.422
		S31.205,14.702,30.422,14.702z M30.422,12.607c-0.371,0-0.672,0.301-0.672,0.672c0,0.37,0.301,0.672,0.672,0.672
		s0.672-0.302,0.672-0.672C31.094,12.908,30.793,12.607,30.422,12.607z"/>
	<path d="M27.199,16.475c-0.785,0-1.424-0.639-1.424-1.423s0.639-1.423,1.424-1.423s1.422,0.639,1.422,1.423
		S27.984,16.475,27.199,16.475z M27.199,14.38c-0.371,0-0.672,0.301-0.672,0.672s0.301,0.672,0.672,0.672s0.672-0.301,0.672-0.672
		S27.57,14.38,27.199,14.38z"/>
	<path d="M23.976,18.247c-0.785,0-1.424-0.638-1.424-1.423c0-0.784,0.639-1.422,1.424-1.422c0.786,0,1.422,0.638,1.422,1.422
		C25.398,17.609,24.762,18.247,23.976,18.247z M23.976,16.153c-0.371,0-0.672,0.301-0.672,0.671c0,0.371,0.301,0.672,0.672,0.672
		s0.672-0.301,0.672-0.672C24.648,16.454,24.347,16.153,23.976,16.153z"/>
	<path d="M38.715,14.23c-0.785,0-1.424-0.64-1.424-1.425c0-0.784,0.639-1.422,1.424-1.422c0.783,0,1.422,0.638,1.422,1.422
		C40.137,13.591,39.498,14.23,38.715,14.23z M38.715,12.135c-0.371,0-0.672,0.301-0.672,0.671s0.301,0.673,0.672,0.673
		c0.369,0,0.672-0.303,0.672-0.673S39.084,12.135,38.715,12.135z"/>
	<path d="M35.492,16.001c-0.785,0-1.424-0.638-1.424-1.423c0-0.784,0.639-1.423,1.424-1.423s1.422,0.639,1.422,1.423
		C36.914,15.363,36.277,16.001,35.492,16.001z M35.492,13.906c-0.371,0-0.672,0.302-0.672,0.672c0,0.371,0.301,0.673,0.672,0.673
		s0.672-0.302,0.672-0.673C36.164,14.208,35.863,13.906,35.492,13.906z"/>
	<path d="M32.27,17.774c-0.785,0-1.424-0.638-1.424-1.423c0-0.784,0.639-1.423,1.424-1.423c0.783,0,1.422,0.639,1.422,1.423
		C33.691,17.137,33.053,17.774,32.27,17.774z M32.27,15.68c-0.371,0-0.674,0.303-0.674,0.672c0,0.37,0.303,0.673,0.674,0.673
		s0.672-0.303,0.672-0.673C32.941,15.982,32.641,15.68,32.27,15.68z"/>
	<path d="M29.047,19.548c-0.785,0-1.424-0.638-1.424-1.422c0-0.786,0.639-1.424,1.424-1.424c0.783,0,1.422,0.638,1.422,1.424
		C30.469,18.91,29.83,19.548,29.047,19.548z M29.047,17.453c-0.371,0-0.672,0.301-0.672,0.673c0,0.369,0.301,0.671,0.672,0.671
		c0.369,0,0.672-0.302,0.672-0.671C29.719,17.754,29.416,17.453,29.047,17.453z"/>
	<path d="M25.824,21.321c-0.785,0-1.424-0.639-1.424-1.423c0-0.785,0.639-1.424,1.424-1.424s1.422,0.639,1.422,1.424
		C27.246,20.683,26.609,21.321,25.824,21.321z M25.824,19.226c-0.371,0-0.672,0.302-0.672,0.673c0,0.37,0.301,0.672,0.672,0.672
		s0.672-0.302,0.672-0.672C26.496,19.527,26.195,19.226,25.824,19.226z"/>
	<path d="M40.563,17.301c-0.785,0-1.424-0.638-1.424-1.423c0-0.783,0.639-1.422,1.424-1.422c0.783,0,1.422,0.639,1.422,1.422
		C41.984,16.663,41.346,17.301,40.563,17.301z M40.563,15.206c-0.371,0-0.672,0.302-0.672,0.672c0,0.371,0.301,0.673,0.672,0.673
		c0.369,0,0.672-0.302,0.672-0.673C41.234,15.508,40.932,15.206,40.563,15.206z"/>
	<path d="M37.34,19.074c-0.785,0-1.424-0.638-1.424-1.423c0-0.784,0.639-1.421,1.424-1.421s1.422,0.637,1.422,1.421
		C38.762,18.437,38.125,19.074,37.34,19.074z M37.34,16.98c-0.371,0-0.674,0.3-0.674,0.671c0,0.37,0.303,0.672,0.674,0.672
		s0.672-0.302,0.672-0.672C38.012,17.28,37.711,16.98,37.34,16.98z"/>
	<path d="M34.117,20.848c-0.785,0-1.424-0.638-1.424-1.423s0.639-1.422,1.424-1.422c0.783,0,1.422,0.637,1.422,1.422
		S34.9,20.848,34.117,20.848z M34.117,18.753c-0.371,0-0.672,0.302-0.672,0.672c0,0.371,0.301,0.672,0.672,0.672
		s0.672-0.301,0.672-0.672C34.789,19.055,34.488,18.753,34.117,18.753z"/>
	<path d="M30.893,22.619c-0.783,0-1.422-0.637-1.422-1.422c0-0.784,0.639-1.422,1.422-1.422c0.785,0,1.424,0.638,1.424,1.422
		C32.316,21.982,31.678,22.619,30.893,22.619z M30.893,20.525c-0.369,0-0.67,0.301-0.67,0.672s0.301,0.673,0.67,0.673
		c0.371,0,0.674-0.302,0.674-0.673S31.264,20.525,30.893,20.525z"/>
	<path d="M27.672,24.393c-0.785,0-1.424-0.639-1.424-1.422c0-0.785,0.639-1.423,1.424-1.423c0.783,0,1.422,0.638,1.422,1.423
		C29.094,23.754,28.455,24.393,27.672,24.393z M27.672,22.299c-0.371,0-0.674,0.301-0.674,0.672c0,0.369,0.303,0.672,0.674,0.672
		c0.369,0,0.672-0.303,0.672-0.672C28.344,22.6,28.041,22.299,27.672,22.299z"/>
	<path d="M42.408,20.376c-0.783,0-1.422-0.64-1.422-1.425c0-0.784,0.639-1.423,1.422-1.423c0.785,0,1.424,0.639,1.424,1.423
		C43.832,19.736,43.193,20.376,42.408,20.376z M42.408,18.279c-0.369,0-0.67,0.302-0.67,0.672c0,0.371,0.301,0.673,0.67,0.673
		c0.371,0,0.672-0.302,0.672-0.673C43.08,18.581,42.779,18.279,42.408,18.279z"/>
	<path d="M39.188,22.148c-0.785,0-1.424-0.64-1.424-1.425c0-0.783,0.639-1.422,1.424-1.422s1.422,0.639,1.422,1.422
		C40.609,21.509,39.973,22.148,39.188,22.148z M39.188,20.052c-0.371,0-0.674,0.304-0.674,0.672c0,0.372,0.303,0.673,0.674,0.673
		c0.369,0,0.672-0.301,0.672-0.673C39.859,20.355,39.557,20.052,39.188,20.052z"/>
	<path d="M35.965,23.92c-0.785,0-1.424-0.639-1.424-1.424c0-0.783,0.639-1.422,1.424-1.422c0.783,0,1.422,0.639,1.422,1.422
		C37.387,23.281,36.748,23.92,35.965,23.92z M35.965,21.825c-0.371,0-0.674,0.302-0.674,0.671c0,0.371,0.303,0.674,0.674,0.674
		c0.369,0,0.672-0.303,0.672-0.674C36.637,22.127,36.334,21.825,35.965,21.825z"/>
	<path d="M32.74,25.693c-0.783,0-1.422-0.639-1.422-1.424c0-0.783,0.639-1.422,1.422-1.422c0.785,0,1.424,0.639,1.424,1.422
		C34.164,25.055,33.525,25.693,32.74,25.693z M32.74,23.598c-0.369,0-0.67,0.303-0.67,0.672c0,0.371,0.301,0.672,0.67,0.672
		c0.371,0,0.672-0.301,0.672-0.672C33.412,23.9,33.111,23.598,32.74,23.598z"/>
	<path d="M29.52,27.465c-0.785,0-1.424-0.637-1.424-1.422c0-0.783,0.639-1.424,1.424-1.424c0.783,0,1.422,0.641,1.422,1.424
		C30.941,26.828,30.303,27.465,29.52,27.465z M29.52,25.371c-0.371,0-0.674,0.301-0.674,0.672s0.303,0.672,0.674,0.672
		c0.369,0,0.672-0.301,0.672-0.672S29.889,25.371,29.52,25.371z"/>
	<path d="M44.256,23.447c-0.783,0-1.422-0.639-1.422-1.423s0.639-1.423,1.422-1.423c0.785,0,1.424,0.639,1.424,1.423
		S45.041,23.447,44.256,23.447z M44.256,21.353c-0.371,0-0.67,0.301-0.67,0.672c0,0.372,0.299,0.673,0.67,0.673
		s0.672-0.301,0.672-0.673C44.928,21.653,44.627,21.353,44.256,21.353z"/>
	<path d="M41.033,25.221c-0.785,0-1.422-0.639-1.422-1.424s0.637-1.422,1.422-1.422s1.424,0.637,1.424,1.422
		S41.818,25.221,41.033,25.221z M41.033,23.125c-0.369,0-0.672,0.301-0.672,0.672s0.303,0.674,0.672,0.674
		c0.371,0,0.672-0.303,0.672-0.674S41.404,23.125,41.033,23.125z"/>
	<path d="M37.813,26.992c-0.785,0-1.424-0.637-1.424-1.422s0.639-1.422,1.424-1.422c0.783,0,1.422,0.637,1.422,1.422
		S38.596,26.992,37.813,26.992z M37.813,24.898c-0.371,0-0.674,0.301-0.674,0.672s0.303,0.672,0.674,0.672
		c0.369,0,0.672-0.301,0.672-0.672S38.182,24.898,37.813,24.898z"/>
	<path d="M34.588,28.766c-0.783,0-1.422-0.639-1.422-1.424c0-0.783,0.639-1.422,1.422-1.422c0.785,0,1.424,0.639,1.424,1.422
		C36.012,28.127,35.373,28.766,34.588,28.766z M34.588,26.672c-0.371,0-0.672,0.301-0.672,0.67c0,0.371,0.301,0.674,0.672,0.674
		s0.674-0.303,0.674-0.674C35.262,26.973,34.959,26.672,34.588,26.672z"/>
	<path d="M31.365,30.539c-0.783,0-1.422-0.639-1.422-1.424s0.639-1.422,1.422-1.422c0.785,0,1.424,0.637,1.424,1.422
		S32.15,30.539,31.365,30.539z M31.365,28.443c-0.369,0-0.672,0.303-0.672,0.672c0,0.371,0.303,0.672,0.672,0.672
		c0.371,0,0.672-0.301,0.672-0.672C32.037,28.746,31.736,28.443,31.365,28.443z"/>
</g>
</svg>
