<?xml version="1.0" encoding="utf-8"?>
<!-- Generator: Adobe Illustrator 16.0.0, SVG Export Plug-In . SVG Version: 6.00 Build 0)  -->
<!DOCTYPE svg PUBLIC "-//W3C//DTD SVG 1.1//EN" "http://www.w3.org/Graphics/SVG/1.1/DTD/svg11.dtd">
<svg version="1.1" id="Layer_1" xmlns="http://www.w3.org/2000/svg" xmlns:xlink="http://www.w3.org/1999/xlink" x="0px" y="0px"
	 width="48px" height="48px" viewBox="0 0 48 48" enable-background="new 0 0 48 48" xml:space="preserve">
<g>
	<path d="M24,5.45c2.967,0,5.383,2.414,5.383,5.383c0,0.919-0.24,1.83-0.693,2.636l-0.025,0.045l-0.023,0.048
		c-1.195,2.524-3.641,8.733-0.523,11.874l0.441,0.443h0.625h12.402l4.789,2.85l-1.932,13.824H3.557L1.625,28.729l4.787-2.85h12.402
		h0.627l0.439-0.443c3.117-3.141,0.672-9.35-0.523-11.874l-0.023-0.048l-0.025-0.045c-0.453-0.806-0.691-1.717-0.691-2.636
		C18.617,7.864,21.031,5.45,24,5.45 M24,3.947c-3.803,0-6.885,3.083-6.885,6.886c0,1.226,0.324,2.374,0.885,3.372
		c0.891,1.88,3.314,7.655,0.814,10.172H6l-6,3.57l2.25,16.105h43.5L48,27.947l-6-3.57H29.184c-2.5-2.517-0.076-8.292,0.814-10.172
		c0.563-0.998,0.887-2.146,0.887-3.372C30.885,7.03,27.803,3.947,24,3.947L24,3.947z"/>
	<rect x="4.633" y="27.834" width="38.734" height="1.502"/>
</g>
</svg>
