<?xml version="1.0" encoding="utf-8"?>
<!-- Generator: Adobe Illustrator 16.0.0, SVG Export Plug-In . SVG Version: 6.00 Build 0)  -->
<!DOCTYPE svg PUBLIC "-//W3C//DTD SVG 1.1//EN" "http://www.w3.org/Graphics/SVG/1.1/DTD/svg11.dtd">
<svg version="1.1" id="Layer_1" xmlns="http://www.w3.org/2000/svg" xmlns:xlink="http://www.w3.org/1999/xlink" x="0px" y="0px"
	 width="48px" height="48px" viewBox="0 0 48 48" enable-background="new 0 0 48 48" xml:space="preserve">
<g>
	<g>
		<g>
			<path d="M46.826,39.938c-1.836,0-6.855-3.203-11.016-6.377c-0.434-0.328-0.854-0.658-1.266-0.984
				c-0.313-0.248-0.367-0.699-0.127-1.016l2.168-2.842c0.24-0.314,0.691-0.381,1.012-0.145c0.424,0.311,0.852,0.631,1.285,0.959
				c2.662,2.031,5.051,4.094,6.73,5.811c2.139,2.184,2.768,3.393,2.174,4.17C47.641,39.707,47.354,39.938,46.826,39.938z
				 M36.016,31.875c0.225,0.174,0.451,0.35,0.68,0.525c4.725,3.604,8.148,5.502,9.588,5.965c-0.785-1.189-3.404-3.945-8.285-7.67
				c-0.23-0.174-0.461-0.348-0.688-0.518L36.016,31.875z"/>
			<path d="M33.889,31.93c-0.164,0-0.322-0.055-0.453-0.158c-1.887-1.494-3.598-2.98-4.945-4.303
				c-0.264-0.258-0.293-0.672-0.068-0.965l1.66-2.178c0.225-0.293,0.633-0.375,0.949-0.188c1.619,0.945,3.508,2.201,5.459,3.633
				c0.158,0.115,0.262,0.291,0.291,0.484c0.027,0.193-0.023,0.391-0.143,0.547l-2.168,2.84c-0.119,0.156-0.297,0.258-0.49,0.283
				C33.949,31.928,33.92,31.93,33.889,31.93z M29.977,26.873c1.086,1.031,2.375,2.152,3.785,3.291l1.262-1.652
				c-1.477-1.063-2.898-2.012-4.174-2.783L29.977,26.873z"/>
			<path d="M28.215,26.994c-0.332,0-2.043-0.07-3.217-1.461c-0.945-1.121-1.245-2.746-0.892-4.834
				c0.061-0.352,0.365-0.608,0.72-0.608c0.002,0,0.002,0,0.002,0c0.357,0.001,0.66,0.259,0.719,0.61
				c0.031,0.137,0.318,0.949,1.908,0.821c0.1-0.009,0.197-0.013,0.291-0.013c1.154,0,2.148,0.619,2.662,1.656
				c0.287,0.584,0.314,1.037,0.076,1.35l-1.672,2.191c-0.135,0.176-0.342,0.281-0.564,0.287
				C28.242,26.994,28.219,26.994,28.215,26.994z M25.432,22.627c0.047,0.822,0.275,1.48,0.682,1.965
				c0.553,0.652,1.34,0.854,1.777,0.914l1.236-1.621c-0.139-0.322-0.574-0.982-1.553-0.906
				C26.635,23.057,25.953,22.896,25.432,22.627z"/>
		</g>
		<path d="M14.362,25.135c-0.002,0-0.004,0-0.005,0l-1.315-0.031c-0.09,0-0.27-0.01-0.402-0.021
			c-0.113-0.014-0.245-0.035-0.357-0.059c-0.131-0.025-0.238-0.047-0.426-0.119c-0.17-0.064-0.336-0.143-0.493-0.232
			c-0.185-0.117-0.356-0.254-0.515-0.406c-0.354-0.324-0.571-0.787-0.691-1.115l-0.059-0.211c-0.083-0.17-0.084-0.375-0.084-0.389
			v-0.008l-0.031-0.266c-0.028-0.237-0.03-0.506-0.007-0.846c0.04-0.525,0.193-1.084,0.442-1.617
			c0.445-0.939,1.052-1.54,1.635-2.074c0.32-0.282,0.627-0.526,0.9-0.744c0.195-0.156,0.373-0.296,0.524-0.429
			c0.14-0.121,0.271-0.245,0.402-0.369l0.147-0.14c0.032-0.041,0.102-0.115,0.171-0.187c0.091-0.096,0.183-0.188,0.247-0.288
			l0.373-0.546c0.077-0.11,0.115-0.205,0.159-0.314c0.03-0.074,0.06-0.148,0.097-0.222c0.014-0.048,0.022-0.085,0.035-0.122
			c-0.083,0.015-0.174,0.039-0.264,0.063c-0.087,0.022-0.175,0.044-0.258,0.062l-0.264,0.094c-0.113,0.035-0.195,0.06-0.299,0.112
			l-0.399,0.183c-0.011,0.006-0.022,0.011-0.035,0.014l-1.124,0.591c-0.214,0.113-0.425,0.223-0.682,0.334
			c-0.086,0.035-0.173,0.075-0.26,0.115c-0.199,0.091-0.406,0.185-0.594,0.234l-0.613,0.2c-0.002,0.001-0.002,0.002-0.004,0.002l0,0
			c-0.067,0.025-0.104,0.039-0.148,0.044c-0.016,0.003-0.029,0.006-0.029,0.006l-0.291,0.066c-0.43,0.095-0.836,0.185-1.227,0.235
			c-0.473,0.077-0.896,0.14-1.306,0.188c-0.255,0.028-0.507,0.076-0.749,0.12c-0.141,0.026-0.279,0.051-0.412,0.073l-0.373,0.08
			c-0.564,0.122-1.098,0.236-1.555,0.3l-0.77,0.076c-0.18,0.018-0.329,0.006-0.462-0.006l-0.579-0.039
			c-0.184-0.013-0.33-0.159-0.34-0.342l-0.008-0.131c-0.012-0.179,0.111-0.34,0.286-0.379l0.438-0.093
			c0.04-0.013,0.111-0.026,0.188-0.039c0.085-0.016,0.181-0.032,0.278-0.069l0.647-0.237l1.754-0.786
			c0.136-0.055,0.255-0.104,0.378-0.156c0.244-0.103,0.496-0.208,0.775-0.304l1.266-0.44c0.325-0.104,0.625-0.229,0.928-0.356
			l0.33-0.134l0.855-0.481l0.273-0.193c0.133-0.088,0.279-0.196,0.43-0.305l1.09-0.799c0.006-0.006,0.056-0.042,0.063-0.046
			l0.439-0.284c0.105-0.075,0.275-0.17,0.455-0.26l0.774-0.363c0.239-0.099,0.487-0.2,0.792-0.276l0.594-0.133
			c0.148-0.029,0.254-0.046,0.375-0.063l0.108-0.017c0.175-0.025,0.354-0.047,0.551-0.063c0.003,0,0.075-0.004,0.079-0.004
			c0.193-0.011,0.387-0.021,0.719,0.021c0.118,0.018,0.226,0.04,0.331,0.065c0.013,0.003,0.063,0.017,0.075,0.021l0.088,0.031
			c0.079,0.032,0.148,0.063,0.215,0.099c0.131,0.065,0.261,0.148,0.379,0.24l0.079,0.064l-0.001,0.002
			c0.082,0.064,0.16,0.151,0.22,0.236c0.007,0.007,0.013,0.013,0.019,0.019l-0.004,0.003c0.008,0.012,0.016,0.023,0.023,0.036
			l0.008-0.006c0.021,0.03,0.029,0.039,0.075,0.108c0.063,0.1,0.12,0.203,0.169,0.309l0.105,0.267
			c0.095,0.296,0.129,0.472,0.161,0.65l0.062,0.361l0.059,0.859c0.005,0.07,0.008,0.109,0.004,0.17l-0.074,0.714
			c-0.025,0.207-0.052,0.42-0.11,0.597l-0.059,0.198c-0.099,0.337-0.202,0.687-0.368,1.003l-0.066,0.142
			c-0.062,0.133-0.125,0.268-0.193,0.396l-0.311,0.509c-0.342,0.537-0.744,1.048-1.229,1.558l0.871-0.479
			c0.66-0.369,1.285-0.718,2.063-1.04l0.177-0.068c0.172-0.066,0.34-0.13,0.508-0.186l0.766-0.202
			c0.078-0.021,0.154-0.039,0.238-0.054c0.084-0.016,0.176-0.022,0.266-0.028c0.004,0,0.074-0.002,0.078-0.002l0.146-0.002
			c0.044,0,0.087,0,0.124,0.003c0.111,0.004,0.203,0.014,0.346,0.035c0.273,0.046,0.484,0.097,0.771,0.222
			c0.133,0.06,0.252,0.115,0.361,0.177c0.004,0.002,0.021,0.014,0.039,0.023l0.045,0.014c0.035,0.011,0.074,0.021,0.113,0.036
			c0.006,0,0.013,0.002,0.02,0.003v0.003c0.115,0.045,0.23,0.111,0.268,0.244l0.038,0.07c0.03,0.057,0.055,0.112,0.079,0.167
			c0.048,0.059,0.154,0.193,0.223,0.306c0.08,0.119,0.142,0.242,0.184,0.366c0.008,0.022,0.014,0.047,0.018,0.072
			c0.013,0.099,0,0.177-0.008,0.224l-0.009,0.097c-0.011,0.11-0.022,0.234-0.058,0.346c-0.011,0.044-0.018,0.093-0.024,0.146
			c-0.019,0.146-0.017,0.209-0.016,0.224c0.004,0.054-0.005,0.113-0.024,0.163l-0.048,0.121c-0.021,0.052-0.052,0.099-0.093,0.135
			c-0.021,0.019-0.1,0.088-0.268,0.188c-0.104,0.067-0.225,0.111-0.371,0.154l-0.092,0.028c-0.084,0.028-0.165,0.054-0.256,0.072
			c-0.003,0.032-0.01,0.07-0.024,0.109c-0.01,0.025-0.022,0.05-0.036,0.072c0,0.024-0.001,0.049-0.004,0.077
			c-0.009,0.057-0.03,0.109-0.061,0.154c-0.021,0.128-0.092,0.242-0.127,0.3c-0.014,0.032-0.061,0.124-0.221,0.233
			c-0.072,0.049-0.114,0.075-0.205,0.108c-0.1,0.033-0.187,0.061-0.277,0.079l-0.8,0.24c-0.442,0.17-1.222,0.596-1.975,1.008
			l-1.407,0.717L17.063,24.5c-0.132,0.061-0.238,0.096-0.346,0.131l-0.799,0.271c-0.092,0.047-0.191,0.064-0.246,0.07
			c-0.01,0.002-0.016,0.004-0.017,0.004l-0.644,0.117l-0.629,0.039C14.376,25.133,14.37,25.135,14.362,25.135z M10.792,22.707
			l0.061,0.223c0.121,0.328,0.302,0.625,0.498,0.805c0.129,0.125,0.262,0.232,0.389,0.313c0.109,0.063,0.24,0.123,0.375,0.174
			c0.137,0.053,0.215,0.068,0.297,0.084c0.111,0.023,0.219,0.041,0.301,0.051c0.102,0.008,0.258,0.018,0.34,0.02l1.302,0.029
			l0.577-0.035l0.576-0.107c0.011-0.004,0.022-0.004,0.033-0.006l0.947-0.318c0.084-0.027,0.168-0.055,0.276-0.104l1.575-0.732
			l0.65-0.344c0.804-0.439,1.57-0.859,2.063-1.047l0.301-0.109c0.014-0.006,0.092-0.034,0.104-0.036l0.482-0.122
			c0.063-0.013,0.112-0.026,0.157-0.041c-0.079-0.065-0.129-0.162-0.107-0.311c0.021-0.151,0.133-0.271,0.275-0.305l0.09-0.031
			c0.008-0.054,0.043-0.147,0.101-0.235c0.032-0.053,0.079-0.096,0.134-0.125c0.086-0.047,0.171-0.062,0.232-0.071
			c0.014-0.005,0.061-0.013,0.074-0.016c0.072-0.013,0.133-0.033,0.199-0.055l0.108-0.034c0.104-0.031,0.16-0.053,0.194-0.075
			c0.035-0.021,0.064-0.039,0.087-0.053c0.001-0.054,0.005-0.12,0.015-0.199c0.02-0.141,0.031-0.219,0.055-0.306
			c0.016-0.051,0.025-0.144,0.031-0.212c0.004-0.064,0.01-0.103,0.016-0.141c-0.002-0.011-0.037-0.08-0.088-0.157
			c-0.057-0.09-0.135-0.188-0.194-0.257c-0.022-0.026-0.042-0.056-0.056-0.087c-0.043-0.098-0.06-0.137-0.078-0.171l-0.003-0.004
			c-0.089-0.027-0.208-0.063-0.294-0.135c-0.07-0.036-0.152-0.074-0.24-0.113c-0.219-0.095-0.365-0.13-0.593-0.168
			c-0.103-0.017-0.175-0.024-0.271-0.027l-0.083-0.003l-0.124,0.003c-0.002,0-0.072,0.002-0.075,0.002
			c-0.041,0.003-0.103,0.007-0.163,0.017c-0.068,0.012-0.124,0.027-0.18,0.042l-0.743,0.194c-0.135,0.046-0.292,0.106-0.454,0.168
			l-0.17,0.065c-0.729,0.302-1.334,0.641-1.975,0.999l-2.125,1.133c-0.059,0.039-0.174,0.081-0.293,0.126l-0.527,0.195
			c-0.158,0.06-0.34,0.002-0.433-0.142c-0.094-0.144-0.076-0.331,0.042-0.453l0.217,0.129l-0.021-0.059L14.538,20.4
			c0.182-0.19,0.396-0.388,0.635-0.607c0.211-0.193,0.443-0.408,0.693-0.653c0.537-0.54,0.975-1.078,1.332-1.641l0.297-0.484
			c0.051-0.098,0.107-0.22,0.164-0.343l0.076-0.16c0.139-0.263,0.23-0.578,0.32-0.881l0.063-0.213
			c0.039-0.117,0.063-0.303,0.082-0.465l0.07-0.678c0,0-0.004-0.075-0.006-0.081l-0.107-1.122c-0.028-0.153-0.057-0.305-0.136-0.552
			l-0.082-0.206c-0.03-0.065-0.069-0.139-0.114-0.207l0.01-0.009c-0.014-0.011-0.026-0.023-0.037-0.035l0.123-0.113
			c-0.005,0.001-0.01,0.002-0.016,0.003l-0.119,0.096c-0.016-0.018-0.092-0.105-0.146-0.167c-0.001-0.002-0.003-0.002-0.005-0.004
			l-0.072-0.059c-0.072-0.057-0.161-0.113-0.254-0.16c-0.05-0.026-0.096-0.047-0.143-0.065l-0.076-0.027
			c-0.086-0.02-0.173-0.037-0.26-0.051c-0.252-0.03-0.42-0.022-0.578-0.014c-0.239,0.018-0.404,0.038-0.561,0.061l-0.109,0.016
			c-0.107,0.016-0.202,0.029-0.328,0.057l-0.581,0.129c-0.242,0.061-0.456,0.147-0.681,0.24l-0.279,0.113l-0.444,0.226
			c-0.143,0.073-0.279,0.146-0.374,0.213l-1.57,1.114c-0.16,0.116-0.316,0.231-0.447,0.318l-0.848,0.524l-0.744,0.356
			c-0.323,0.135-0.643,0.268-0.979,0.375l-1.257,0.438c-0.266,0.092-0.503,0.192-0.731,0.287c-0.129,0.053-0.253,0.105-0.377,0.155
			L4.72,16.672c0.282-0.055,0.589-0.121,0.906-0.189l0.393-0.084c0.146-0.024,0.279-0.049,0.414-0.074
			c0.258-0.048,0.527-0.096,0.797-0.127c0.399-0.048,0.813-0.108,1.285-0.186c0.369-0.048,0.76-0.135,1.174-0.228l0.293-0.064
			c0.014-0.004,0.027-0.005,0.041-0.007c0.01-0.003,0.023-0.007,0.038-0.012l-0.001-0.002l0.666-0.219
			c0.148-0.04,0.326-0.121,0.498-0.199c0.094-0.043,0.187-0.086,0.277-0.124c0.235-0.101,0.43-0.203,0.627-0.306l1.129-0.594
			l0.002,0.003c0.01-0.008,0.021-0.014,0.031-0.021c0.031-0.019,0.064-0.032,0.1-0.042l0.319-0.146
			c0.136-0.068,0.254-0.105,0.364-0.141l0.324-0.11c0.117-0.027,0.191-0.047,0.267-0.066c0.17-0.044,0.341-0.085,0.483-0.092
			c0.086-0.006,0.172-0.014,0.256-0.023c0.016-0.002,0.094-0.006,0.111-0.007c0.098,0,0.211,0.038,0.279,0.107
			c0.072,0.072,0.132,0.171,0.127,0.273l-0.011,0.229c-0.003,0.083-0.005,0.157-0.039,0.236l-0.063,0.139
			c-0.015,0.062-0.031,0.133-0.078,0.229c-0.027,0.056-0.051,0.112-0.073,0.17c-0.054,0.134-0.114,0.285-0.228,0.442l-0.148,0.254
			l-0.238,0.314c-0.072,0.111-0.192,0.242-0.315,0.369c-0.058,0.062-0.118,0.123-0.171,0.185l-0.173,0.168
			c-0.139,0.131-0.278,0.263-0.425,0.391c-0.159,0.138-0.346,0.286-0.549,0.448c-0.266,0.211-0.561,0.445-0.866,0.716
			c-0.548,0.501-1.075,1.023-1.463,1.843c-0.212,0.452-0.342,0.923-0.374,1.358c-0.021,0.291-0.02,0.518,0.003,0.711l0.032,0.277
			c0.002,0.012,0.003,0.023,0.004,0.035L10.792,22.707z"/>
	</g>
	<polygon points="34.072,33.58 0,33.58 0,8.063 41.527,8.063 41.527,29.74 40.066,29.74 40.066,9.523 1.461,9.523 1.461,32.119 
		34.072,32.119 	"/>
</g>
</svg>
