<?xml version="1.0" encoding="utf-8"?>
<!-- Generator: Adobe Illustrator 16.0.0, SVG Export Plug-In . SVG Version: 6.00 Build 0)  -->
<!DOCTYPE svg PUBLIC "-//W3C//DTD SVG 1.1//EN" "http://www.w3.org/Graphics/SVG/1.1/DTD/svg11.dtd">
<svg version="1.1" id="Layer_1" xmlns="http://www.w3.org/2000/svg" xmlns:xlink="http://www.w3.org/1999/xlink" x="0px" y="0px"
	 width="48px" height="48px" viewBox="0 0 48 48" enable-background="new 0 0 48 48" xml:space="preserve">
<g>
	<path d="M7.842,33.514H4.466C2.003,33.514,0,31.512,0,29.049V4.466C0,2.003,2.003,0,4.466,0h24.581
		c2.463,0,4.467,2.003,4.467,4.466v2.55h-1.49v-2.55c0-1.641-1.336-2.976-2.977-2.976H4.466c-1.641,0-2.977,1.335-2.977,2.976
		v24.583c0,1.641,1.336,2.977,2.977,2.977h3.376V33.514z"/>
	<path d="M28.875,11.242c9.725,0,17.635,7.911,17.635,17.635c0,9.723-7.91,17.633-17.635,17.633c-9.722,0-17.632-7.91-17.632-17.633
		C11.243,19.153,19.153,11.242,28.875,11.242 M28.875,9.753c-10.56,0-19.122,8.563-19.122,19.124C9.753,39.439,18.315,48,28.875,48
		C39.438,48,48,39.439,48,28.877C48,18.315,39.438,9.753,28.875,9.753L28.875,9.753z"/>
</g>
</svg>
