<?xml version="1.0" encoding="utf-8"?>
<!-- Generator: Adobe Illustrator 16.0.0, SVG Export Plug-In . SVG Version: 6.00 Build 0)  -->
<!DOCTYPE svg PUBLIC "-//W3C//DTD SVG 1.1//EN" "http://www.w3.org/Graphics/SVG/1.1/DTD/svg11.dtd">
<svg version="1.1" id="Layer_1" xmlns="http://www.w3.org/2000/svg" xmlns:xlink="http://www.w3.org/1999/xlink" x="0px" y="0px"
	 width="48px" height="48px" viewBox="0 0 48 48" enable-background="new 0 0 48 48" xml:space="preserve">
<g>
	<path d="M24,48C13.934,48,5.744,39.811,5.744,29.744c0-9.853,17-28.386,17.725-29.169L24,0l0.531,0.575
		c0.723,0.783,17.725,19.316,17.725,29.169C42.256,39.811,34.066,48,24,48z M24,2.144C21.084,5.403,7.189,21.386,7.189,29.744
		c0,9.268,7.541,16.809,16.811,16.809s16.811-7.541,16.811-16.809C40.811,21.383,26.914,5.403,24,2.144z M21.699,45.732l4.633-2.98
		c0.418-0.268,10.207-6.732,7.805-19.471v-0.006l1.42-0.268c0.113,0.604,0.316,1.332,0.551,2.174
		c1.42,5.107,4.063,14.617-9.164,18.867L21.699,45.732z M35.744,30.064c-0.723,4.945-3.176,8.602-5.285,10.92
		C35.66,38.049,36.279,33.881,35.744,30.064z"/>
</g>
</svg>
