<?xml version="1.0" encoding="utf-8"?>
<!-- Generator: Adobe Illustrator 16.0.0, SVG Export Plug-In . SVG Version: 6.00 Build 0)  -->
<!DOCTYPE svg PUBLIC "-//W3C//DTD SVG 1.1//EN" "http://www.w3.org/Graphics/SVG/1.1/DTD/svg11.dtd">
<svg version="1.1" id="Layer_1" xmlns="http://www.w3.org/2000/svg" xmlns:xlink="http://www.w3.org/1999/xlink" x="0px" y="0px"
	 width="48px" height="48px" viewBox="0 0 48 48" enable-background="new 0 0 48 48" xml:space="preserve">
<g>
	<g>
		<path d="M9.467,17.148L4.545,6.078L18.223,0l16.029,6.694l4.795,10.45L9.467,17.148z M6.465,6.816l3.945,8.878l26.369-0.004
			l-3.611-7.875L18.24,1.583L6.465,6.816z"/>
		<polygon points="23.299,13.247 17.969,1.254 19.297,0.663 24.021,11.292 33.479,6.783 34.105,8.096 		"/>
	</g>
	<path d="M43.455,48H5.422V15.69h38.033V48z M6.875,46.547H42V17.145H6.875V46.547z"/>
	<path d="M31.801,41.154l-0.475-0.551c2.498-2.162,4.092-5.402,3.961-6.957c-0.029-0.344-0.131-0.568-0.299-0.674
		c-0.455-0.279-1.5,0.141-2.191,0.418l-0.217,0.088c-0.438,0.172-1.619,0.875-2.986,1.689c-3.035,1.807-7.193,4.281-9.559,4.885
		c-0.73,0.186-1.338,0.082-1.711-0.291c-0.25-0.25-0.5-0.73-0.277-1.602c0.344-1.346,2.322-3.422,4.418-5.623
		c2.486-2.609,5.58-5.855,4.871-7.084c-0.813-0.941-4.473,1.775-7.145,3.756c-1.969,1.459-3.668,2.719-4.713,3.014
		c-0.703,0.199-1.502,0.385-2.063,0.057c-0.277-0.164-0.461-0.424-0.543-0.777c-0.275-1.166,3.828-6.402,6.455-8.951l0.506,0.523
		c-3.1,3.004-6.295,7.541-6.252,8.271c0.047,0.193,0.137,0.268,0.201,0.305c0.34,0.203,1.123-0.021,1.498-0.127
		c0.916-0.26,2.646-1.541,4.477-2.898c3.537-2.621,6.877-5.098,8.17-3.59c1.018,1.754-1.875,4.789-4.936,8.004
		c-1.939,2.035-3.945,4.139-4.242,5.301c-0.105,0.422-0.076,0.744,0.088,0.908c0.184,0.182,0.555,0.219,1.016,0.1
		c2.266-0.576,6.541-3.121,9.367-4.805c1.51-0.898,2.6-1.547,3.09-1.742l0.217-0.086c0.924-0.371,2.074-0.834,2.842-0.361
		c0.377,0.232,0.592,0.646,0.643,1.232C36.18,35.566,34.252,39.031,31.801,41.154z"/>
</g>
</svg>
