<?xml version="1.0" encoding="utf-8"?>
<!-- Generator: Adobe Illustrator 16.0.0, SVG Export Plug-In . SVG Version: 6.00 Build 0)  -->
<!DOCTYPE svg PUBLIC "-//W3C//DTD SVG 1.1//EN" "http://www.w3.org/Graphics/SVG/1.1/DTD/svg11.dtd">
<svg version="1.1" id="Layer_1" xmlns="http://www.w3.org/2000/svg" xmlns:xlink="http://www.w3.org/1999/xlink" x="0px" y="0px"
	 width="48px" height="48px" viewBox="0 0 48 48" enable-background="new 0 0 48 48" xml:space="preserve">
<g>
	<path d="M16.881,33.76C7.572,33.76,0,26.188,0,16.881C0,7.572,7.572,0,16.881,0c9.307,0,16.881,7.572,16.881,16.881h-1.488
		c0-8.488-6.906-15.393-15.393-15.393S1.488,8.393,1.488,16.881c0,8.486,6.906,15.391,15.393,15.391V33.76z"/>
	<path d="M20.609,20.608l23.148,8.835l-9.822,3.607l-0.646,0.236l-0.236,0.646l-3.609,9.824L20.609,20.608 M18.033,18.031L29.471,48
		l4.979-13.553L48,29.469L18.033,18.031L18.033,18.031z"/>
</g>
</svg>
