<?xml version="1.0" encoding="utf-8"?>
<!-- Generator: Adobe Illustrator 16.0.0, SVG Export Plug-In . SVG Version: 6.00 Build 0)  -->
<!DOCTYPE svg PUBLIC "-//W3C//DTD SVG 1.1//EN" "http://www.w3.org/Graphics/SVG/1.1/DTD/svg11.dtd">
<svg version="1.1" id="Layer_1" xmlns="http://www.w3.org/2000/svg" xmlns:xlink="http://www.w3.org/1999/xlink" x="0px" y="0px"
	 width="48px" height="48px" viewBox="0 0 48 48" enable-background="new 0 0 48 48" xml:space="preserve">
<g>
	<path d="M2.881,9.494l25.895,9.884l-10.986,4.033l-0.725,0.266l-0.266,0.723l-4.035,10.988L2.881,9.494 M0,6.612l12.793,33.521
		l5.568-15.16l15.158-5.566L0,6.612L0,6.612z"/>
	<g>
		<g>
			<g>
				<rect x="30.199" y="30.265" width="14.207" height="0.85"/>
			</g>
			<g>
				<g>
					<path d="M26.605,30.69c1.691,0.627,3.787,1.697,5.088,2.832L30.67,30.69l1.023-2.832C30.393,28.993,28.297,30.063,26.605,30.69
						z"/>
				</g>
			</g>
			<g>
				<g>
					<path d="M48,30.69c-1.691,0.627-3.789,1.697-5.088,2.832l1.023-2.832l-1.023-2.832C44.211,28.993,46.309,30.063,48,30.69z"/>
				</g>
			</g>
		</g>
		<g>
			<g>
				<rect x="36.877" y="23.585" width="0.852" height="14.209"/>
			</g>
			<g>
				<g>
					<path d="M37.303,41.388C37.93,39.698,39,37.599,40.135,36.3l-2.832,1.023l-2.83-1.023
						C35.605,37.599,36.676,39.698,37.303,41.388z"/>
				</g>
			</g>
			<g>
				<g>
					<path d="M37.303,19.994c0.627,1.69,1.697,3.788,2.832,5.087l-2.832-1.023l-2.83,1.023
						C35.605,23.782,36.676,21.685,37.303,19.994z"/>
				</g>
			</g>
		</g>
	</g>
</g>
</svg>
