<?xml version="1.0" encoding="utf-8"?>
<!-- Generator: Adobe Illustrator 16.0.0, SVG Export Plug-In . SVG Version: 6.00 Build 0)  -->
<!DOCTYPE svg PUBLIC "-//W3C//DTD SVG 1.1//EN" "http://www.w3.org/Graphics/SVG/1.1/DTD/svg11.dtd">
<svg version="1.1" id="Layer_1" xmlns="http://www.w3.org/2000/svg" xmlns:xlink="http://www.w3.org/1999/xlink" x="0px" y="0px"
	 width="48px" height="48px" viewBox="0 0 48 48" enable-background="new 0 0 48 48" xml:space="preserve">
<g>
	<path d="M28.125,9.274l5.275,5.276l0.043,0.043l5.285,5.284c-2.447,2.328-7.723,8.133-8.945,15.869
		c-0.557-0.043-1.25-0.078-2.063-0.078c-4.195,0-11.799,0.887-20.904,5.965l1.52-1.979l-1.953,1.502
		c6.051-10.828,6.158-19.486,5.877-22.94C19.99,16.992,25.795,11.72,28.125,9.274 M28.063,7.091c0,0-7.227,8.967-17.479,9.817
		c0,0,2.77,13.757-10.342,30.81L0,47.962c0.047-0.037,0.092-0.072,0.139-0.107c-0.037,0.047-0.07,0.092-0.105,0.141l0.242-0.242
		c11.986-9.213,22.348-10.584,27.445-10.584c2.156,0,3.371,0.246,3.371,0.246c0.854-10.25,9.82-17.477,9.82-17.477l-6.408-6.406
		l-0.031-0.034L28.063,7.091L28.063,7.091z"/>
	<path d="M33.938,2.128l11.939,11.938l-3.137,3.136L30.801,5.265L33.938,2.128 M33.938,0.005l-5.26,5.26l14.063,14.06L48,14.065
		L33.938,0.005L33.938,0.005z"/>
	<path d="M22.045,30.019c-1.084,0-2.105-0.422-2.873-1.189c-0.77-0.77-1.191-1.789-1.191-2.875s0.422-2.107,1.191-2.873
		c0.766-0.77,1.789-1.191,2.873-1.191c1.086,0,2.107,0.422,2.877,1.191c0.768,0.766,1.189,1.789,1.189,2.875
		c0,1.084-0.422,2.105-1.189,2.873C24.152,29.597,23.131,30.019,22.045,30.019z M22.045,23.39c-0.686,0-1.328,0.268-1.813,0.752
		s-0.75,1.127-0.75,1.813c0,0.684,0.266,1.328,0.75,1.813c0.969,0.969,2.658,0.969,3.627,0c0.484-0.482,0.75-1.127,0.75-1.811
		c0-0.686-0.266-1.33-0.75-1.814S22.73,23.39,22.045,23.39z"/>
	<rect x="10.319" y="25.045" transform="matrix(0.7071 0.7071 -0.7071 0.7071 29.3547 2.989)" width="1.5" height="23.767"/>
</g>
</svg>
