<?xml version="1.0" encoding="utf-8"?>
<!-- Generator: Adobe Illustrator 16.0.0, SVG Export Plug-In . SVG Version: 6.00 Build 0)  -->
<!DOCTYPE svg PUBLIC "-//W3C//DTD SVG 1.1//EN" "http://www.w3.org/Graphics/SVG/1.1/DTD/svg11.dtd">
<svg version="1.1" id="Layer_1" xmlns="http://www.w3.org/2000/svg" xmlns:xlink="http://www.w3.org/1999/xlink" x="0px" y="0px"
	 width="48px" height="48px" viewBox="0 0 48 48" enable-background="new 0 0 48 48" xml:space="preserve">
<g>
	<circle fill="none" stroke="#000000" stroke-width="2" stroke-miterlimit="10" cx="18.697" cy="21.976" r="10.968"/>
	
		<line fill="none" stroke="#000000" stroke-width="2" stroke-linecap="round" stroke-miterlimit="10" x1="38.691" y1="11.644" x2="38.691" y2="19.334"/>
	<path fill="none" stroke="#000000" stroke-width="2" stroke-miterlimit="10" d="M46.888,37.354c0,5.328-4.314,9.646-9.643,9.646
		c-5.321,0-9.646-4.317-9.646-9.646c0-5.323,4.324-9.643,9.646-9.643C42.573,27.712,46.888,32.031,46.888,37.354z"/>
	<path fill="none" stroke="#000000" stroke-width="2" stroke-miterlimit="10" d="M40.839,6.185H28.052v-2.16
		c0-1.664-1.36-3.025-3.025-3.025h-11.91c-1.659,0-3.022,1.361-3.022,3.025v2.16H7.167c-3.331,0-6.055,2.72-6.055,6.047v19.381
		c0,3.326,2.724,6.052,6.055,6.052h20.47c-0.006-0.104-0.037-0.207-0.037-0.311c0-5.323,4.324-9.643,9.646-9.643
		c4.204,0,7.735,2.701,9.062,6.448c0.361-0.774,0.581-1.634,0.581-2.547V12.232C46.888,8.905,44.168,6.185,40.839,6.185z"/>
	<g>
		
			<line fill="none" stroke="#000000" stroke-width="2" stroke-linecap="round" stroke-miterlimit="10" x1="37.171" y1="35.534" x2="37.171" y2="41.695"/>
		<polyline fill="none" stroke="#000000" stroke-width="2" stroke-linecap="round" stroke-miterlimit="10" points="33.697,36.989 
			37.171,33.017 40.79,36.989 		"/>
	</g>
</g>
</svg>
