<?xml version="1.0" encoding="utf-8"?>
<!-- Generator: Adobe Illustrator 16.0.0, SVG Export Plug-In . SVG Version: 6.00 Build 0)  -->
<!DOCTYPE svg PUBLIC "-//W3C//DTD SVG 1.1//EN" "http://www.w3.org/Graphics/SVG/1.1/DTD/svg11.dtd">
<svg version="1.1" id="Layer_1" xmlns="http://www.w3.org/2000/svg" xmlns:xlink="http://www.w3.org/1999/xlink" x="0px" y="0px"
	 width="48px" height="48px" viewBox="0 0 48 48" enable-background="new 0 0 48 48" xml:space="preserve">
<g>
	<g>
		<path fill="none" stroke="#000000" stroke-width="2" stroke-miterlimit="10" d="M39.055,27.193c0-0.55,0.45-1,1-1H46
			c0.55,0,1-0.45,1-1V14.859c0-0.55-0.45-1-1-1H23.901c-0.55,0-1,0.45-1,1v18.284c0,0.55,0.45,1,1,1h14.153c0.55,0,1-0.45,1-1
			V27.193z"/>
	</g>
	<line fill="none" stroke="#000000" stroke-width="2" stroke-miterlimit="10" x1="27.61" y1="16.951" x2="27.61" y2="20.301"/>
	<line fill="none" stroke="#000000" stroke-width="2" stroke-miterlimit="10" x1="32.763" y1="16.951" x2="32.763" y2="20.301"/>
	<line fill="none" stroke="#000000" stroke-width="2" stroke-miterlimit="10" x1="27.61" y1="27.718" x2="27.61" y2="31.069"/>
	<line fill="none" stroke="#000000" stroke-width="2" stroke-miterlimit="10" x1="32.763" y1="27.718" x2="32.763" y2="31.069"/>
	<line fill="none" stroke="#000000" stroke-width="2" stroke-miterlimit="10" x1="37.911" y1="16.951" x2="37.911" y2="20.301"/>
	<line fill="none" stroke="#000000" stroke-width="2" stroke-miterlimit="10" x1="43.065" y1="16.951" x2="43.065" y2="20.301"/>
	<g>
		<path fill="none" stroke="#000000" stroke-width="2" stroke-miterlimit="10" d="M25.927,9.411c0.55,0,1-0.45,1-1V3.325
			c0-0.55-0.45-1-1-1H2c-0.55,0-1,0.45-1,1v5.086c0,0.55,0.45,1,1,1h2.022c0.55,0,1,0.45,1,1v27.182c0,0.55-0.45,1-1,1H2
			c-0.55,0-1,0.45-1,1v5.083c0,0.55,0.45,1,1,1h23.927c0.55,0,1-0.45,1-1v-5.083c0-0.55-0.45-1-1-1h-2.025c-0.55,0-1-0.45-1-1
			V10.411c0-0.55,0.45-1,1-1H25.927z"/>
	</g>
</g>
</svg>
