<?xml version="1.0" encoding="utf-8"?>
<!-- Generator: Adobe Illustrator 16.0.0, SVG Export Plug-In . SVG Version: 6.00 Build 0)  -->
<!DOCTYPE svg PUBLIC "-//W3C//DTD SVG 1.1//EN" "http://www.w3.org/Graphics/SVG/1.1/DTD/svg11.dtd">
<svg version="1.1" id="Layer_1" xmlns="http://www.w3.org/2000/svg" xmlns:xlink="http://www.w3.org/1999/xlink" x="0px" y="0px"
	 width="48px" height="48px" viewBox="0 0 48 48" enable-background="new 0 0 48 48" xml:space="preserve">
<g>
	<path fill="none" stroke="#000000" stroke-width="2" stroke-linecap="round" stroke-linejoin="round" stroke-miterlimit="10" d="
		M23.977,9.564c0,0-11.326,5.596-15.66-7.163C8.316,2.401,22.807-3.016,23.977,9.564z"/>
	<path fill="none" stroke="#000000" stroke-width="2" stroke-linejoin="round" stroke-miterlimit="10" d="M36.705,14.641
		c-4.5-0.779-9.148,1.093-12.705,4.562c-3.557-3.469-8.203-5.341-12.707-4.562c-7.561,1.313-11.762,9.524-9.377,18.342
		c2.391,8.822,10.465,14.907,18.031,13.598c1.504-0.262,2.836-0.861,4.053-1.62c1.215,0.759,2.551,1.358,4.051,1.62
		c7.57,1.31,15.645-4.775,18.033-13.598C48.469,24.166,44.264,15.954,36.705,14.641z"/>
	<path fill="none" stroke="#000000" stroke-width="2" stroke-linecap="round" stroke-linejoin="round" stroke-miterlimit="10" d="
		M24,17.427c0,0-1.797-11.826,5.744-15.935"/>
</g>
</svg>
