<?xml version="1.0" encoding="utf-8"?>
<!-- Generator: Adobe Illustrator 16.0.0, SVG Export Plug-In . SVG Version: 6.00 Build 0)  -->
<!DOCTYPE svg PUBLIC "-//W3C//DTD SVG 1.1//EN" "http://www.w3.org/Graphics/SVG/1.1/DTD/svg11.dtd">
<svg version="1.1" id="Layer_1" xmlns="http://www.w3.org/2000/svg" xmlns:xlink="http://www.w3.org/1999/xlink" x="0px" y="0px"
	 width="48px" height="48px" viewBox="0 0 48 48" enable-background="new 0 0 48 48" xml:space="preserve">
<g>
	
		<polygon fill="none" stroke="#000000" stroke-width="2" stroke-linecap="round" stroke-linejoin="round" stroke-miterlimit="10" points="
		47,8.568 1,25.38 1,47 47,31.386 	"/>
	<path fill="none" stroke="#000000" stroke-width="2" stroke-linecap="round" stroke-linejoin="round" stroke-miterlimit="10" d="
		M1,24.515L9.216,1.664c0,0,28.983-3.83,37.784,6.904"/>
	<path fill="none" stroke="#000000" stroke-width="2" stroke-linecap="round" stroke-linejoin="round" stroke-miterlimit="10" d="
		M17.911,27.244c0,3.065-2.604,5.553-5.817,5.553c-3.212,0-5.812-2.487-5.812-5.553c0-3.07,2.6-5.558,5.812-5.558
		C15.308,21.686,17.911,24.174,17.911,27.244z"/>
	<path fill="none" stroke="#000000" stroke-width="2" stroke-linecap="round" stroke-linejoin="round" stroke-miterlimit="10" d="
		M41.795,28.493c0,3.066-2.598,5.555-5.814,5.555c-3.211,0-5.812-2.488-5.812-5.555c0-3.069,2.601-5.555,5.812-5.555
		C39.197,22.938,41.795,25.424,41.795,28.493z"/>
</g>
</svg>
