<?xml version="1.0" encoding="utf-8"?>
<!-- Generator: Adobe Illustrator 16.0.0, SVG Export Plug-In . SVG Version: 6.00 Build 0)  -->
<!DOCTYPE svg PUBLIC "-//W3C//DTD SVG 1.1//EN" "http://www.w3.org/Graphics/SVG/1.1/DTD/svg11.dtd">
<svg version="1.1" id="Layer_1" xmlns="http://www.w3.org/2000/svg" xmlns:xlink="http://www.w3.org/1999/xlink" x="0px" y="0px"
	 width="48px" height="48px" viewBox="0 0 48 48" enable-background="new 0 0 48 48" xml:space="preserve">
<g>
	<path fill="none" stroke="#000000" stroke-width="2" stroke-linecap="round" stroke-linejoin="round" stroke-miterlimit="10" d="
		M19.207,43.896C15.023,48.078,8.259,48.1,4.1,43.943c-4.15-4.156-4.133-10.918,0.051-15.104
		c4.188-4.184,18.546-16.485,25.044-9.988C35.917,25.571,23.389,39.715,19.207,43.896z"/>
	<path fill="none" stroke="#000000" stroke-width="2" stroke-linecap="round" stroke-linejoin="round" stroke-miterlimit="10" d="
		M32.22,9.044c0.236,0.236,0.494,0.44,0.767,0.615l-7.445,7.453c1.364,0.186,2.614,0.704,3.653,1.74
		c0.994,0.995,1.53,2.17,1.767,3.438l7.333-7.326c0.172,0.273,0.379,0.528,0.616,0.765c1.85,1.854,4.849,1.854,6.702,0.003
		c1.851-1.85,1.851-4.852,0-6.702c-1.625-1.625-4.133-1.823-5.978-0.595l-0.118-0.122c1.226-1.841,1.033-4.349-0.599-5.971
		c-1.846-1.853-4.846-1.85-6.698,0C30.369,4.192,30.369,7.194,32.22,9.044z"/>
</g>
</svg>
