<?xml version="1.0" encoding="utf-8"?>
<!-- Generator: Adobe Illustrator 16.0.0, SVG Export Plug-In . SVG Version: 6.00 Build 0)  -->
<!DOCTYPE svg PUBLIC "-//W3C//DTD SVG 1.1//EN" "http://www.w3.org/Graphics/SVG/1.1/DTD/svg11.dtd">
<svg version="1.1" id="Layer_1" xmlns="http://www.w3.org/2000/svg" xmlns:xlink="http://www.w3.org/1999/xlink" x="0px" y="0px"
	 width="48px" height="48px" viewBox="0 0 48 48" enable-background="new 0 0 48 48" xml:space="preserve">
<g>
	<path fill="none" stroke="#000000" stroke-width="2" stroke-linecap="round" stroke-linejoin="round" stroke-miterlimit="10" d="
		M42.948,12.291c2.389-0.996,4.05-2.989,4.05-5.304c0-3.292-3.327-5.986-7.39-5.986H8.387C4.329,1,1.002,3.694,1.002,6.986
		c0,2.315,1.659,4.309,4.05,5.304c-2.391,1.102-4.05,3.309-4.05,5.87v22.215C1.002,44.018,4.329,47,8.387,47h31.221
		c4.063,0,7.39-2.982,7.39-6.624V18.161C46.998,15.599,45.337,13.393,42.948,12.291z"/>
	<path d="M16.292,17.073c0,1.149-0.925,2.078-2.066,2.078c-1.137,0-2.057-0.929-2.057-2.078c0-1.144,0.919-2.074,2.057-2.074
		C15.367,15,16.292,15.93,16.292,17.073z"/>
	<ellipse cx="38.212" cy="22.483" rx="2.027" ry="2.074"/>
	<path d="M32.613,34.62c0,1.097-0.877,1.986-1.963,1.986c-1.087,0-1.963-0.89-1.963-1.986c0-1.092,0.876-1.981,1.963-1.981
		C31.736,32.639,32.613,33.528,32.613,34.62z"/>
	<path d="M29.837,9.727c0,0.836-0.736,1.512-1.633,1.512s-1.63-0.676-1.63-1.512c0-0.84,0.733-1.513,1.63-1.513
		S29.837,8.887,29.837,9.727z"/>
	<path d="M16.374,33.762c0,1.571-1.262,2.845-2.82,2.845c-1.55,0-2.807-1.273-2.807-2.845c0-1.572,1.257-2.845,2.807-2.845
		C15.112,30.917,16.374,32.189,16.374,33.762z"/>
</g>
</svg>
