<?xml version="1.0" encoding="utf-8"?>
<!-- Generator: Adobe Illustrator 16.0.0, SVG Export Plug-In . SVG Version: 6.00 Build 0)  -->
<!DOCTYPE svg PUBLIC "-//W3C//DTD SVG 1.1//EN" "http://www.w3.org/Graphics/SVG/1.1/DTD/svg11.dtd">
<svg version="1.1" id="Layer_1" xmlns="http://www.w3.org/2000/svg" xmlns:xlink="http://www.w3.org/1999/xlink" x="0px" y="0px"
	 width="48px" height="48px" viewBox="0 0 48 48" enable-background="new 0 0 48 48" xml:space="preserve">
<g>
	<path d="M10.109,39.724c0,0.737-0.595,1.331-1.331,1.331c-0.732,0-1.333-0.594-1.333-1.331c0-0.739,0.6-1.333,1.333-1.333
		C9.514,38.391,10.109,38.984,10.109,39.724z"/>
	<path d="M11.443,32.585c0,0.735-0.595,1.333-1.327,1.333c-0.743,0-1.338-0.598-1.338-1.333c0-0.737,0.595-1.331,1.338-1.331
		C10.848,31.254,11.443,31.848,11.443,32.585z"/>
	<path d="M17.343,37.782c0,0.736-0.595,1.331-1.329,1.331c-0.737,0-1.336-0.595-1.336-1.331c0-0.739,0.599-1.332,1.336-1.332
		C16.748,36.45,17.343,37.043,17.343,37.782z"/>
	<path fill="none" stroke="#000000" stroke-width="2" stroke-miterlimit="10" d="M18.005,30.024
		c3.883,3.886,3.889,10.181,0.007,14.063c-3.885,3.884-10.18,3.884-14.066,0c-3.886-3.882-3.886-10.177,0-14.063
		C7.833,26.14,14.127,26.144,18.005,30.024z"/>
	<path fill="none" stroke="#000000" stroke-width="2" stroke-miterlimit="10" d="M4.134,29.842L27.726,6.244
		c4.259-4.257,10.905-4.573,14.771-0.706c3.87,3.87,3.552,10.514-0.706,14.767L18.197,43.903"/>
	
		<line fill="none" stroke="#000000" stroke-width="2" stroke-linecap="round" stroke-miterlimit="10" x1="42.496" y1="5.538" x2="46.969" y2="1"/>
</g>
</svg>
