<?xml version="1.0" encoding="utf-8"?>
<!-- Generator: Adobe Illustrator 16.0.0, SVG Export Plug-In . SVG Version: 6.00 Build 0)  -->
<!DOCTYPE svg PUBLIC "-//W3C//DTD SVG 1.1//EN" "http://www.w3.org/Graphics/SVG/1.1/DTD/svg11.dtd">
<svg version="1.1" id="Layer_1" xmlns="http://www.w3.org/2000/svg" xmlns:xlink="http://www.w3.org/1999/xlink" x="0px" y="0px"
	 width="48px" height="48px" viewBox="0 0 48 48" enable-background="new 0 0 48 48" xml:space="preserve">
<g>
	<g>
		<path d="M18.826,17.638c-0.006,0.875-0.724,1.581-1.613,1.579c-0.878,0-1.6-0.713-1.6-1.588c0-0.875,0.725-1.583,1.611-1.577
			C18.108,16.051,18.83,16.76,18.826,17.638z"/>
		<path d="M25.52,17.652c0.007,0.874-0.718,1.586-1.599,1.577c-0.886,0-1.603-0.712-1.603-1.583c0-0.874,0.717-1.586,1.603-1.58
			C24.814,16.066,25.533,16.774,25.52,17.652z"/>
		<path d="M32.229,17.671c0,0.874-0.728,1.583-1.607,1.58c-0.885-0.003-1.605-0.715-1.605-1.589c0-0.875,0.728-1.578,1.614-1.574
			C31.514,16.083,32.229,16.792,32.229,17.671z"/>
		<path d="M22.166,24.305c0,0.872-0.718,1.581-1.603,1.581c-0.886-0.003-1.607-0.715-1.601-1.589
			c-0.006-0.875,0.721-1.582,1.604-1.582C21.456,22.715,22.173,23.43,22.166,24.305z"/>
		<path d="M28.868,24.32c0,0.876-0.721,1.581-1.611,1.581c-0.88,0-1.606-0.712-1.598-1.589c0-0.871,0.724-1.583,1.612-1.577
			C28.147,22.734,28.868,23.445,28.868,24.32z"/>
		<path d="M25.515,30.727c0,0.876-0.726,1.582-1.612,1.584c-0.886-0.006-1.597-0.715-1.604-1.589c0.007-0.874,0.725-1.58,1.609-1.58
			C24.797,29.147,25.515,29.856,25.515,30.727z"/>
	</g>
	<path fill="none" stroke="#000000" stroke-width="2" stroke-linecap="round" stroke-linejoin="round" stroke-miterlimit="10" d="
		M3.174,7.301L24.436,47l20.39-39.699C44.826,7.301,27.103-6.876,3.174,7.301z"/>
	<path fill="none" stroke="#000000" stroke-width="2" stroke-linecap="round" stroke-linejoin="round" stroke-miterlimit="10" d="
		M8.187,14.389c0,0,10.688-10.116,33.386-0.761"/>
</g>
</svg>
