<?xml version="1.0" encoding="utf-8"?>
<!-- Generator: Adobe Illustrator 16.0.0, SVG Export Plug-In . SVG Version: 6.00 Build 0)  -->
<!DOCTYPE svg PUBLIC "-//W3C//DTD SVG 1.1//EN" "http://www.w3.org/Graphics/SVG/1.1/DTD/svg11.dtd">
<svg version="1.1" id="Layer_1" xmlns="http://www.w3.org/2000/svg" xmlns:xlink="http://www.w3.org/1999/xlink" x="0px" y="0px"
	 width="48px" height="48px" viewBox="0 0 48 48" enable-background="new 0 0 48 48" xml:space="preserve">
<g>
	<g>
		
			<line fill="none" stroke="#000000" stroke-width="2" stroke-linecap="round" stroke-miterlimit="10" x1="10.13" y1="42.989" x2="10.13" y2="46.999"/>
		
			<line fill="none" stroke="#000000" stroke-width="2" stroke-linecap="round" stroke-miterlimit="10" x1="37.867" y1="42.989" x2="37.867" y2="46.999"/>
	</g>
	<path fill="none" stroke="#000000" stroke-width="2" stroke-linecap="round" stroke-linejoin="round" stroke-miterlimit="10" d="
		M47,20.453c0-3.349-2.816-6.088-6.251-6.088H7.257C3.814,14.364,1,17.104,1,20.453v21.075h46V20.453z"/>
	
		<polyline fill="none" stroke="#000000" stroke-width="2" stroke-linecap="round" stroke-linejoin="round" stroke-miterlimit="10" points="
		13.083,33.901 37.867,33.901 37.867,21.04 	"/>
	<g>
		<path fill="none" stroke="#000000" stroke-width="2" stroke-linecap="round" stroke-linejoin="round" stroke-miterlimit="10" d="
			M10.914,13.816V7.502c0,0-3.993,0.52-3.993-3.2c0-3.718,2.75-3.286,3.993-3.286c1.247,0,13.505,0,13.505,0"/>
		<path fill="none" stroke="#000000" stroke-width="2" stroke-linecap="round" stroke-linejoin="round" stroke-miterlimit="10" d="
			M37.079,13.816V7.502c0,0,3.999,0.52,3.999-3.2c0-3.718-2.751-3.286-3.999-3.286c-1.241,0-13.5,0-13.5,0"/>
	</g>
</g>
</svg>
