<?xml version="1.0" encoding="utf-8"?>
<!-- Generator: Adobe Illustrator 16.0.0, SVG Export Plug-In . SVG Version: 6.00 Build 0)  -->
<!DOCTYPE svg PUBLIC "-//W3C//DTD SVG 1.1//EN" "http://www.w3.org/Graphics/SVG/1.1/DTD/svg11.dtd">
<svg version="1.1" id="Layer_1" xmlns="http://www.w3.org/2000/svg" xmlns:xlink="http://www.w3.org/1999/xlink" x="0px" y="0px"
	 width="48px" height="48px" viewBox="0 0 48 48" enable-background="new 0 0 48 48" xml:space="preserve">
<g>
	<g>
		<path fill="none" stroke="#000000" stroke-width="2" stroke-linecap="round" stroke-linejoin="round" stroke-miterlimit="10" d="
			M35.92,18.025c0,0,7.468-4.899,9.557,1.106c2.082,6.003-7.595,15.067-9.557,17.152"/>
		<path fill="none" stroke="#000000" stroke-width="2" stroke-linecap="round" stroke-linejoin="round" stroke-miterlimit="10" d="
			M32.593,3.12c-1.969,0-3.701,0.947-4.819,2.394C26.414,2.845,23.663,1,20.466,1c-3.197,0-5.943,1.845-7.305,4.514
			c-1.12-1.447-2.853-2.394-4.821-2.394c-3.373,0-6.109,2.735-6.109,6.107c0,3.375,2.737,6.112,6.109,6.112
			c1.968,0,3.701-0.946,4.821-2.39c1.362,2.664,4.107,4.511,7.305,4.511c3.197,0,5.948-1.847,7.307-4.516
			c1.118,1.45,2.851,2.396,4.819,2.396c3.37,0,6.109-2.737,6.109-6.112C38.702,5.854,35.963,3.12,32.593,3.12z"/>
		<path fill="none" stroke="#000000" stroke-width="2" stroke-linecap="round" stroke-linejoin="round" stroke-miterlimit="10" d="
			M32.593,15.338c-1.577,0-2.978-0.62-4.056-1.6h-1.239c-1.468,2.229-3.962,3.721-6.832,3.721c-2.874,0-5.362-1.492-6.833-3.721
			h-1.236c-1.083,0.98-2.481,1.6-4.056,1.6c-1.23,0-2.371-0.371-3.329-0.996v26.756c0,3.247,2.661,5.901,5.906,5.901h19.1
			c3.245,0,5.901-2.654,5.901-5.901V14.346C34.959,14.968,33.817,15.338,32.593,15.338z"/>
	</g>
	
		<line fill="none" stroke="#000000" stroke-width="2" stroke-linecap="round" stroke-linejoin="round" stroke-miterlimit="10" x1="12.933" y1="22.332" x2="12.933" y2="38.837"/>
	
		<line fill="none" stroke="#000000" stroke-width="2" stroke-linecap="round" stroke-linejoin="round" stroke-miterlimit="10" x1="20.47" y1="22.332" x2="20.47" y2="38.837"/>
	
		<line fill="none" stroke="#000000" stroke-width="2" stroke-linecap="round" stroke-linejoin="round" stroke-miterlimit="10" x1="28.007" y1="22.332" x2="28.007" y2="38.837"/>
</g>
</svg>
