<?xml version="1.0" encoding="utf-8"?>
<!-- Generator: Adobe Illustrator 16.0.0, SVG Export Plug-In . SVG Version: 6.00 Build 0)  -->
<!DOCTYPE svg PUBLIC "-//W3C//DTD SVG 1.1//EN" "http://www.w3.org/Graphics/SVG/1.1/DTD/svg11.dtd">
<svg version="1.1" id="Layer_1" xmlns="http://www.w3.org/2000/svg" xmlns:xlink="http://www.w3.org/1999/xlink" x="0px" y="0px"
	 width="48px" height="48px" viewBox="0 0 48 48" enable-background="new 0 0 48 48" xml:space="preserve">
<g>
	<path fill="none" stroke="#000000" stroke-width="2" stroke-linecap="round" stroke-linejoin="round" stroke-miterlimit="10" d="
		M24,14.002c-10.364,0-18.777,8.404-18.777,18.773h37.555C42.777,22.406,34.364,14.002,24,14.002z"/>
	<g>
		<path fill="none" stroke="#000000" stroke-width="2" stroke-linecap="round" stroke-linejoin="round" stroke-miterlimit="10" d="
			M47,42.952c0,1.1-0.9,2-2,2H3c-1.1,0-2-0.9-2-2v-3.244c0-1.1,0.9-2,2-2h42c1.1,0,2,0.9,2,2V42.952z"/>
	</g>
	<path fill="none" stroke="#000000" stroke-width="2" stroke-linecap="round" stroke-linejoin="round" stroke-miterlimit="10" d="
		M28.332,7.38c0,2.396-1.939,4.333-4.332,4.333c-2.396,0-4.329-1.937-4.329-4.333c0-2.39,1.933-4.332,4.329-4.332
		C26.393,3.048,28.332,4.99,28.332,7.38z"/>
</g>
</svg>
