<?xml version="1.0" encoding="utf-8"?>
<!-- Generator: Adobe Illustrator 16.0.0, SVG Export Plug-In . SVG Version: 6.00 Build 0)  -->
<!DOCTYPE svg PUBLIC "-//W3C//DTD SVG 1.1//EN" "http://www.w3.org/Graphics/SVG/1.1/DTD/svg11.dtd">
<svg version="1.1" id="Layer_1" xmlns="http://www.w3.org/2000/svg" xmlns:xlink="http://www.w3.org/1999/xlink" x="0px" y="0px"
	 width="48px" height="48px" viewBox="0 0 48 48" enable-background="new 0 0 48 48" xml:space="preserve">
<g>
	<g>
		<g>
			<path fill="none" stroke="#000000" stroke-width="2" stroke-linecap="round" stroke-linejoin="round" stroke-miterlimit="10" d="
				M47,44.703v-5.061c0-10.313-8.482-18.761-18.851-18.761h-0.66c-10.368,0-18.851,8.447-18.851,18.761v5.061
				c0,0.055,0.004,0.107,0.004,0.165h38.348C46.991,44.811,47,44.758,47,44.703z"/>
			<path fill="none" stroke="#000000" stroke-width="2" stroke-linecap="round" stroke-linejoin="round" stroke-miterlimit="10" d="
				M32.41,16.314c0,2.523-2.056,4.567-4.586,4.567c-2.542,0-4.595-2.044-4.595-4.567c0-2.527,2.053-4.571,4.595-4.571
				C30.354,11.744,32.41,13.788,32.41,16.314z"/>
		</g>
		
			<polyline fill="none" stroke="#000000" stroke-width="2" stroke-linecap="round" stroke-linejoin="round" stroke-miterlimit="10" points="
			12.663,27.212 4.916,20.882 1,24.788 8.639,37.348 		"/>
		<path fill="none" stroke="#000000" stroke-width="2" stroke-linecap="round" stroke-linejoin="round" stroke-miterlimit="10" d="
			M14.368,26.21c-1.273-2.248-2.001-4.847-2.001-7.616c0-8.544,6.92-15.462,15.449-15.462c8.535,0,15.454,6.918,15.454,15.462
			c0,2.585-0.634,5.023-1.757,7.162"/>
	</g>
</g>
</svg>
