<?xml version="1.0" encoding="utf-8"?>
<!-- Generator: Adobe Illustrator 16.0.0, SVG Export Plug-In . SVG Version: 6.00 Build 0)  -->
<!DOCTYPE svg PUBLIC "-//W3C//DTD SVG 1.1//EN" "http://www.w3.org/Graphics/SVG/1.1/DTD/svg11.dtd">
<svg version="1.1" id="Layer_1" xmlns="http://www.w3.org/2000/svg" xmlns:xlink="http://www.w3.org/1999/xlink" x="0px" y="0px"
	 width="48px" height="48px" viewBox="0 0 48 48" enable-background="new 0 0 48 48" xml:space="preserve">
<g>
	<g>
		<path d="M26.888,39.374c0,1.633-1.297,2.964-2.899,2.964c-1.583,0-2.876-1.331-2.876-2.964c0-1.634,1.292-2.961,2.876-2.961
			C25.591,36.413,26.888,37.74,26.888,39.374z"/>
		<path fill="none" stroke="#000000" stroke-width="2" stroke-linecap="round" stroke-miterlimit="10" d="M37.843,31.318H30.1
			v-3.737c6.853-2.11,11.761-7.654,11.761-14.184c0-0.282-0.081-0.543-0.098-0.818H6.238c-0.019,0.275-0.099,0.536-0.099,0.818
			c0,6.53,4.906,12.074,11.76,14.184v3.737h-7.743c-3.374,0-6.134,2.334-6.134,5.186v5.306c0,2.854,2.76,5.19,6.134,5.19h27.686
			c3.372,0,6.135-2.337,6.135-5.19v-5.306C43.978,33.652,41.215,31.318,37.843,31.318z"/>
		<polyline fill="none" stroke="#000000" stroke-width="2" stroke-linecap="round" stroke-miterlimit="10" points="24,12.579 
			24,6.264 43.978,6.264 43.978,1 		"/>
	</g>
	
		<line fill="none" stroke="#000000" stroke-width="2" stroke-linecap="round" stroke-miterlimit="10" x1="1" y1="47" x2="47" y2="47"/>
</g>
</svg>
