<?xml version="1.0" encoding="utf-8"?>
<!-- Generator: Adobe Illustrator 16.0.0, SVG Export Plug-In . SVG Version: 6.00 Build 0)  -->
<!DOCTYPE svg PUBLIC "-//W3C//DTD SVG 1.1//EN" "http://www.w3.org/Graphics/SVG/1.1/DTD/svg11.dtd">
<svg version="1.1" id="Layer_1" xmlns="http://www.w3.org/2000/svg" xmlns:xlink="http://www.w3.org/1999/xlink" x="0px" y="0px"
	 width="48px" height="48px" viewBox="0 0 48 48" enable-background="new 0 0 48 48" xml:space="preserve">
<g>
	<g>
		
			<line fill="none" stroke="#000000" stroke-width="2" stroke-linecap="round" stroke-miterlimit="10" x1="23.998" y1="8.184" x2="23.998" y2="47"/>
		
			<line fill="none" stroke="#000000" stroke-width="2" stroke-linecap="round" stroke-miterlimit="10" x1="1.431" y1="47" x2="46.569" y2="47"/>
		<path fill="none" stroke="#000000" stroke-width="2" stroke-linecap="round" stroke-miterlimit="10" d="M27.595,4.597
			c0,1.979-1.607,3.587-3.597,3.587c-1.985,0-3.596-1.608-3.596-3.587C20.402,2.605,22.013,1,23.998,1
			C25.987,1,27.595,2.605,27.595,4.597z"/>
	</g>
	<g>
		<g>
			
				<polygon fill="none" stroke="#000000" stroke-width="2" stroke-linecap="round" stroke-linejoin="round" stroke-miterlimit="10" points="
				19.871,42.587 2.671,42.587 4.922,18.754 17.62,18.754 			"/>
			<path fill="none" stroke="#000000" stroke-width="2" stroke-linecap="round" stroke-linejoin="round" stroke-miterlimit="10" d="
				M4.3,18.754c0-3.85,3.124-6.969,6.969-6.969c3.855,0,6.977,3.119,6.977,6.969"/>
		</g>
		<g>
			
				<polygon fill="none" stroke="#000000" stroke-width="2" stroke-linecap="round" stroke-linejoin="round" stroke-miterlimit="10" points="
				45.326,42.587 28.123,42.587 30.374,18.754 43.075,18.754 			"/>
			<path fill="none" stroke="#000000" stroke-width="2" stroke-linecap="round" stroke-linejoin="round" stroke-miterlimit="10" d="
				M29.746,18.754c0-3.85,3.12-6.969,6.969-6.969c3.864,0,6.979,3.119,6.979,6.969"/>
		</g>
	</g>
</g>
</svg>
