<?xml version="1.0" encoding="utf-8"?>
<!-- Generator: Adobe Illustrator 16.0.0, SVG Export Plug-In . SVG Version: 6.00 Build 0)  -->
<!DOCTYPE svg PUBLIC "-//W3C//DTD SVG 1.1//EN" "http://www.w3.org/Graphics/SVG/1.1/DTD/svg11.dtd">
<svg version="1.1" id="Layer_1" xmlns="http://www.w3.org/2000/svg" xmlns:xlink="http://www.w3.org/1999/xlink" x="0px" y="0px"
	 width="48px" height="48px" viewBox="0 0 48 48" enable-background="new 0 0 48 48" xml:space="preserve">
<g>
	<g>
		<path fill="none" stroke="#000000" stroke-width="2" stroke-linecap="round" stroke-miterlimit="10" d="M42.888,25
			c0,10.287-8.456,18.624-18.888,18.624C13.563,43.623,5.108,35.286,5.108,25C5.108,14.716,13.563,6.377,24,6.377
			C34.432,6.377,42.888,14.716,42.888,25z"/>
		<g>
			
				<line fill="none" stroke="#000000" stroke-width="2" stroke-linecap="round" stroke-miterlimit="10" x1="13.385" y1="41.076" x2="11.262" y2="47"/>
			
				<line fill="none" stroke="#000000" stroke-width="2" stroke-linecap="round" stroke-miterlimit="10" x1="34.614" y1="41.076" x2="36.737" y2="47"/>
		</g>
		<g>
			<path fill="none" stroke="#000000" stroke-width="2" stroke-linecap="round" stroke-miterlimit="10" d="M3.448,2.862
				c-3.031,2.686-3.284,7.286-0.555,10.277L13.87,3.417C11.148,0.424,6.484,0.178,3.448,2.862z"/>
			<path fill="none" stroke="#000000" stroke-width="2" stroke-linecap="round" stroke-miterlimit="10" d="M44.552,2.862
				c3.034,2.686,3.28,7.286,0.558,10.277L34.126,3.417C36.85,0.424,41.514,0.178,44.552,2.862z"/>
		</g>
	</g>
	<polyline fill="none" stroke="#000000" stroke-width="2" stroke-linecap="round" stroke-miterlimit="10" points="24,10.939 24,25 
		34.614,25 	"/>
</g>
</svg>
