<?xml version="1.0" encoding="utf-8"?>
<!-- Generator: Adobe Illustrator 16.0.0, SVG Export Plug-In . SVG Version: 6.00 Build 0)  -->
<!DOCTYPE svg PUBLIC "-//W3C//DTD SVG 1.1//EN" "http://www.w3.org/Graphics/SVG/1.1/DTD/svg11.dtd">
<svg version="1.1" id="Layer_1" xmlns="http://www.w3.org/2000/svg" xmlns:xlink="http://www.w3.org/1999/xlink" x="0px" y="0px"
	 width="48px" height="48px" viewBox="0 0 48 48" enable-background="new 0 0 48 48" xml:space="preserve">
<g>
	<g>
		<path fill="none" stroke="#000000" stroke-width="2" stroke-linecap="round" stroke-linejoin="round" stroke-miterlimit="10" d="
			M37.716,25.235c-4.691-6.136-3.877-13.706-3.877-13.706S34.241,1.112,21.427,1.112c-12.816,0-12.412,10.417-12.412,10.417
			s0.815,7.57-3.88,13.706C3.317,27.61,1,34.668,1,34.668h20.427h20.429C41.856,34.668,39.536,27.61,37.716,25.235z"/>
		<path fill="none" stroke="#000000" stroke-width="2" stroke-linecap="round" stroke-linejoin="round" stroke-miterlimit="10" d="
			M29.546,34.637c0.448,1.056,0.695,2.212,0.695,3.433c0,4.869-3.945,8.818-8.814,8.818c-4.869,0-8.813-3.949-8.813-8.818
			c0-1.207,0.24-2.354,0.678-3.401"/>
	</g>
	<g>
		<path d="M36.967,9.367l2.197-4.852c0.213-0.445,0.423-0.848,0.652-1.297l-0.009-0.026l-3.779,0.889l-0.237-1.025l5.321-1.255
			l0.169,0.799l-2.158,4.785c-0.198,0.457-0.405,0.871-0.64,1.307l0.008,0.028l4.082-0.96l0.238,1.01l-5.669,1.333L36.967,9.367z"/>
		<path d="M43.109,8.184l1.459-3.231c0.144-0.301,0.283-0.566,0.436-0.863l-0.002-0.02l-2.519,0.589l-0.158-0.68l3.543-0.836
			l0.113,0.534L44.543,6.86c-0.13,0.309-0.268,0.583-0.423,0.874l0.003,0.017l2.722-0.637L47,7.784l-3.773,0.887L43.109,8.184z"/>
	</g>
</g>
</svg>
