<?xml version="1.0" encoding="utf-8"?>
<!-- Generator: Adobe Illustrator 16.0.0, SVG Export Plug-In . SVG Version: 6.00 Build 0)  -->
<!DOCTYPE svg PUBLIC "-//W3C//DTD SVG 1.1//EN" "http://www.w3.org/Graphics/SVG/1.1/DTD/svg11.dtd">
<svg version="1.1" id="Layer_1" xmlns="http://www.w3.org/2000/svg" xmlns:xlink="http://www.w3.org/1999/xlink" x="0px" y="0px"
	 width="48px" height="48px" viewBox="0 0 48 48" enable-background="new 0 0 48 48" xml:space="preserve">
<g>
	<path fill="none" stroke="#000000" stroke-width="2" stroke-linecap="round" stroke-linejoin="round" stroke-miterlimit="10" d="
		M44.291,19.281c1.631,1.067,2.708,2.87,2.708,4.901v16.898c0,3.257-2.76,5.919-6.132,5.919H7.136c-3.369,0-6.135-2.662-6.135-5.919
		V24.183c0-1.983,1.032-3.75,2.6-4.822"/>
	<path fill="none" stroke="#000000" stroke-width="2" stroke-linecap="round" stroke-linejoin="round" stroke-miterlimit="10" d="
		M3.07,19.609l16.369-16.69c2.509-2.557,6.612-2.56,9.121,0l16.369,16.69"/>
	<g>
		<g>
			
				<polyline fill="none" stroke="#000000" stroke-width="2" stroke-linecap="round" stroke-linejoin="round" stroke-miterlimit="10" points="
				2.895,45.076 15.187,32.633 32.817,32.633 45.112,45.076 			"/>
		</g>
		<g>
			
				<polyline fill="none" stroke="#000000" stroke-width="2" stroke-linecap="round" stroke-linejoin="round" stroke-miterlimit="10" points="
				45.112,20.189 32.817,32.633 15.187,32.633 2.895,20.189 			"/>
		</g>
	</g>
</g>
</svg>
