<?xml version="1.0" encoding="utf-8"?>
<!-- Generator: Adobe Illustrator 16.0.0, SVG Export Plug-In . SVG Version: 6.00 Build 0)  -->
<!DOCTYPE svg PUBLIC "-//W3C//DTD SVG 1.1//EN" "http://www.w3.org/Graphics/SVG/1.1/DTD/svg11.dtd">
<svg version="1.1" id="Layer_1" xmlns="http://www.w3.org/2000/svg" xmlns:xlink="http://www.w3.org/1999/xlink" x="0px" y="0px"
	 width="48px" height="48px" viewBox="0 0 48 48" enable-background="new 0 0 48 48" xml:space="preserve">
<g>
	<g>
		<path fill="none" stroke="#000000" stroke-width="2" stroke-linecap="round" stroke-linejoin="round" stroke-miterlimit="10" d="
			M44.342,2.381L28.433,19.556c-2.438,2.625-6.424,2.631-8.863,0L3.662,2.381"/>
		<path fill="none" stroke="#000000" stroke-width="2" stroke-linecap="round" stroke-linejoin="round" stroke-miterlimit="10" d="
			M46.818,35.951C46.818,42.055,41.875,47,35.775,47c-6.103,0-11.045-4.945-11.045-11.049c0-6.099,4.942-11.045,11.045-11.045
			C41.875,24.906,46.818,29.853,46.818,35.951z"/>
		<path fill="none" stroke="#000000" stroke-width="2" stroke-linecap="round" stroke-linejoin="round" stroke-miterlimit="10" d="
			M40.735,1H7.265C3.919,1,1.181,3.738,1.181,7.089v17.387c0,3.347,2.738,6.083,6.084,6.083h18.926
			c1.895-3.354,5.455-5.653,9.584-5.653c3.556,0,6.688,1.709,8.707,4.324c1.411-1.119,2.336-2.826,2.336-4.754V7.089
			C46.818,3.738,44.082,1,40.735,1z"/>
	</g>
	
		<line fill="none" stroke="#000000" stroke-width="2" stroke-linecap="round" stroke-linejoin="round" stroke-miterlimit="10" x1="42.047" y1="26.908" x2="29.462" y2="45.014"/>
</g>
</svg>
