<?xml version="1.0" encoding="utf-8"?>
<!-- Generator: Adobe Illustrator 16.0.0, SVG Export Plug-In . SVG Version: 6.00 Build 0)  -->
<!DOCTYPE svg PUBLIC "-//W3C//DTD SVG 1.1//EN" "http://www.w3.org/Graphics/SVG/1.1/DTD/svg11.dtd">
<svg version="1.1" id="Layer_1" xmlns="http://www.w3.org/2000/svg" xmlns:xlink="http://www.w3.org/1999/xlink" x="0px" y="0px"
	 width="48px" height="48px" viewBox="0 0 48 48" enable-background="new 0 0 48 48" xml:space="preserve">
<g>
	<path fill="none" stroke="#000000" stroke-width="2" stroke-linecap="round" stroke-linejoin="round" stroke-miterlimit="10" d="
		M44.495,3.702L28.466,21.009c-2.455,2.652-6.475,2.652-8.927,0L3.494,3.702"/>
	<path fill="none" stroke="#000000" stroke-width="2" stroke-linecap="round" stroke-linejoin="round" stroke-miterlimit="10" d="
		M47,18.405v-9.96c0-3.372-2.76-6.135-6.134-6.135H7.131C3.752,2.31,1,5.073,1,8.445v17.524c0,3.371,2.752,6.134,6.131,6.134h16.367
		"/>
	<g>
		<path fill="none" stroke="#000000" stroke-width="2" stroke-linecap="round" stroke-linejoin="round" stroke-miterlimit="10" d="
			M47,37.146c0,4.719-3.825,8.544-8.544,8.544c-4.72,0-8.547-3.825-8.547-8.544c0-4.727,3.827-8.549,8.547-8.549
			C43.175,28.597,47,32.419,47,37.146z"/>
		<path fill="none" stroke="#000000" stroke-width="2" stroke-linecap="round" stroke-linejoin="round" stroke-miterlimit="10" d="
			M33.096,29.313v-3.315c0-3.155,2.411-5.735,5.36-5.735c2.948,0,5.361,2.58,5.361,5.735v3.315"/>
		<path d="M40.44,36.117c0-1.097-0.886-1.983-1.984-1.983c-1.101,0-1.985,0.887-1.985,1.983c0,0.906,0.616,1.639,1.439,1.882v3.603
			h1.087v-3.603C39.822,37.756,40.44,37.023,40.44,36.117z"/>
	</g>
</g>
</svg>
