<?xml version="1.0" encoding="utf-8"?>
<!-- Generator: Adobe Illustrator 16.0.0, SVG Export Plug-In . SVG Version: 6.00 Build 0)  -->
<!DOCTYPE svg PUBLIC "-//W3C//DTD SVG 1.1//EN" "http://www.w3.org/Graphics/SVG/1.1/DTD/svg11.dtd">
<svg version="1.1" id="Layer_1" xmlns="http://www.w3.org/2000/svg" xmlns:xlink="http://www.w3.org/1999/xlink" x="0px" y="0px"
	 width="48px" height="48px" viewBox="0 0 48 48" enable-background="new 0 0 48 48" xml:space="preserve">
<g>
	<path fill="none" stroke="#000000" stroke-width="2" stroke-linecap="round" stroke-linejoin="round" stroke-miterlimit="10" d="
		M20.762,25.714V14.867c0-6.008-4.446-10.926-9.885-10.926C5.448,3.941,1,8.859,1,14.867v10.847c0,0.076,0.019,0.147,0.024,0.229
		H20.74C20.74,25.861,20.762,25.79,20.762,25.714z"/>
	<path fill="none" stroke="#000000" stroke-width="2" stroke-linecap="round" stroke-linejoin="round" stroke-miterlimit="10" d="
		M37.123,3.941H10.877c5.438,0,9.885,4.917,9.885,10.926v10.847c0,0.076-0.021,0.147-0.021,0.229h6.522h9.86h9.857
		c0-0.081,0.02-0.152,0.02-0.229V14.867C47,8.859,42.556,3.941,37.123,3.941z"/>
	
		<line fill="none" stroke="#000000" stroke-width="2" stroke-linecap="round" stroke-linejoin="round" stroke-miterlimit="10" x1="7.287" y1="16.748" x2="14.474" y2="16.748"/>
	
		<line fill="none" stroke="#000000" stroke-width="2" stroke-linecap="round" stroke-linejoin="round" stroke-miterlimit="10" x1="27.306" y1="12.529" x2="40.435" y2="12.529"/>
	
		<line fill="none" stroke="#000000" stroke-width="2" stroke-linecap="round" stroke-linejoin="round" stroke-miterlimit="10" x1="36.411" y1="8.698" x2="36.411" y2="15.692"/>
	
		<line fill="none" stroke="#000000" stroke-width="2" stroke-linecap="round" stroke-linejoin="round" stroke-miterlimit="10" x1="24.624" y1="26.809" x2="24.624" y2="44.059"/>
</g>
</svg>
