<?xml version="1.0" encoding="utf-8"?>
<!-- Generator: Adobe Illustrator 16.0.0, SVG Export Plug-In . SVG Version: 6.00 Build 0)  -->
<!DOCTYPE svg PUBLIC "-//W3C//DTD SVG 1.1//EN" "http://www.w3.org/Graphics/SVG/1.1/DTD/svg11.dtd">
<svg version="1.1" id="Layer_1" xmlns="http://www.w3.org/2000/svg" xmlns:xlink="http://www.w3.org/1999/xlink" x="0px" y="0px"
	 width="48px" height="48px" viewBox="0 0 48 48" enable-background="new 0 0 48 48" xml:space="preserve">
<g>
	
		<line fill="none" stroke="#000000" stroke-width="2" stroke-linecap="round" stroke-linejoin="round" stroke-miterlimit="10" x1="17.328" y1="3.931" x2="44.782" y2="3.931"/>
	
		<line fill="none" stroke="#000000" stroke-width="2" stroke-linecap="round" stroke-linejoin="round" stroke-miterlimit="10" x1="17.328" y1="24.003" x2="44.782" y2="24.003"/>
	
		<line fill="none" stroke="#000000" stroke-width="2" stroke-linecap="round" stroke-linejoin="round" stroke-miterlimit="10" x1="17.328" y1="44.07" x2="44.782" y2="44.07"/>
	<g>
		<path d="M6.132,2.237h-0.03L4.408,3.149L4.153,2.142L6.285,1h1.122v9.764H6.132V2.237z"/>
		<path d="M3.266,28.797v-0.813l1.031-1.001c2.494-2.373,3.624-3.635,3.637-5.108c0-0.985-0.479-1.909-1.937-1.909
			c-0.887,0-1.621,0.451-2.075,0.825l-0.417-0.926c0.675-0.571,1.634-0.998,2.763-0.998c2.102,0,2.984,1.449,2.984,2.841
			c0,1.803-1.303,3.255-3.361,5.243l-0.781,0.724V27.7h4.386v1.097H3.266z"/>
		<path d="M3.579,45.317c0.375,0.239,1.247,0.617,2.163,0.617c1.699,0,2.226-1.081,2.208-1.894c-0.016-1.37-1.248-1.952-2.523-1.952
			H4.69v-0.988h0.737c0.961,0,2.176-0.498,2.176-1.659c0-0.778-0.497-1.469-1.711-1.469c-0.781,0-1.53,0.346-1.952,0.644
			l-0.345-0.958c0.511-0.374,1.501-0.754,2.552-0.754c1.923,0,2.793,1.142,2.793,2.326c0,1.011-0.6,1.87-1.803,2.306v0.024
			c1.203,0.241,2.178,1.142,2.178,2.514c0,1.56-1.219,2.926-3.558,2.926c-1.098,0-2.056-0.345-2.54-0.664L3.579,45.317z"/>
	</g>
</g>
</svg>
