<?xml version="1.0" encoding="utf-8"?>
<!-- Generator: Adobe Illustrator 16.0.0, SVG Export Plug-In . SVG Version: 6.00 Build 0)  -->
<!DOCTYPE svg PUBLIC "-//W3C//DTD SVG 1.1//EN" "http://www.w3.org/Graphics/SVG/1.1/DTD/svg11.dtd">
<svg version="1.1" id="Layer_1" xmlns="http://www.w3.org/2000/svg" xmlns:xlink="http://www.w3.org/1999/xlink" x="0px" y="0px"
	 width="48px" height="48px" viewBox="0 0 48 48" enable-background="new 0 0 48 48" xml:space="preserve">
<g>
	<path fill="none" stroke="#000000" stroke-width="2" stroke-linecap="round" stroke-linejoin="round" stroke-miterlimit="10" d="
		M25.278,1.331c-11.994,0-21.718,9.72-21.718,21.718c0,4.017,1.111,7.766,3.014,10.995L1,46.67l13.021-5.08
		c3.284,1.999,7.132,3.173,11.257,3.173C37.271,44.763,47,35.042,47,23.048C47,11.05,37.271,1.331,25.278,1.331z"/>
	<g>
		<path d="M21.244,22.251c0,1.779-1.444,3.223-3.224,3.223c-1.776,0-3.221-1.444-3.221-3.223c0-1.779,1.445-3.223,3.221-3.223
			C19.8,19.028,21.244,20.472,21.244,22.251z"/>
		<path d="M35.345,22.251c0,1.779-1.445,3.223-3.221,3.223c-1.781,0-3.225-1.444-3.225-3.223c0-1.779,1.443-3.223,3.225-3.223
			C33.899,19.028,35.345,20.472,35.345,22.251z"/>
	</g>
</g>
</svg>
