<?xml version="1.0" encoding="utf-8"?>
<!-- Generator: Adobe Illustrator 16.0.0, SVG Export Plug-In . SVG Version: 6.00 Build 0)  -->
<!DOCTYPE svg PUBLIC "-//W3C//DTD SVG 1.1//EN" "http://www.w3.org/Graphics/SVG/1.1/DTD/svg11.dtd">
<svg version="1.1" id="Layer_1" xmlns="http://www.w3.org/2000/svg" xmlns:xlink="http://www.w3.org/1999/xlink" x="0px" y="0px"
	 width="48px" height="48px" viewBox="0 0 48 48" enable-background="new 0 0 48 48" xml:space="preserve">
<g>
	<path fill="none" stroke="#000000" stroke-width="2" stroke-linecap="round" stroke-linejoin="round" stroke-miterlimit="10" d="
		M25.278,1.331c-11.992,0-21.716,9.719-21.716,21.718c0,4.018,1.11,7.766,3.016,10.995L1,46.67l13.021-5.08
		c3.285,1.999,7.132,3.175,11.257,3.175C37.271,44.765,47,35.042,47,23.048C47,11.049,37.271,1.331,25.278,1.331z"/>
	<g>
		<path d="M16.423,23.072v-6.226h5.751v4.915c0,2.663-0.305,4.58-0.921,5.754c-0.858,1.606-2.188,2.815-3.993,3.636l-1.314-2.118
			c1.074-0.436,1.867-1.128,2.398-2.069c0.528-0.943,0.819-2.24,0.879-3.892H16.423z"/>
		<path d="M28.883,23.072v-6.226h5.751v4.915c0,2.663-0.308,4.58-0.926,5.754c-0.855,1.606-2.183,2.815-3.995,3.636l-1.308-2.118
			c1.069-0.436,1.868-1.128,2.396-2.069c0.53-0.943,0.821-2.24,0.883-3.892H28.883z"/>
	</g>
</g>
</svg>
