<?xml version="1.0" encoding="utf-8"?>
<!-- Generator: Adobe Illustrator 16.0.0, SVG Export Plug-In . SVG Version: 6.00 Build 0)  -->
<!DOCTYPE svg PUBLIC "-//W3C//DTD SVG 1.1//EN" "http://www.w3.org/Graphics/SVG/1.1/DTD/svg11.dtd">
<svg version="1.1" id="Layer_1" xmlns="http://www.w3.org/2000/svg" xmlns:xlink="http://www.w3.org/1999/xlink" x="0px" y="0px"
	 width="48px" height="48px" viewBox="0 0 48 48" enable-background="new 0 0 48 48" xml:space="preserve">
<g>
	<path fill="none" stroke="#000000" stroke-width="2" stroke-linecap="round" stroke-linejoin="round" stroke-miterlimit="10" d="
		M13.751,19.042c1.9,7.822,9.746,12.615,17.524,10.702c2.611-0.64,4.86-1.961,6.651-3.717L47,27.646l-5.356-7.679
		c0.777-2.458,0.925-5.153,0.273-7.845C40.013,4.303,32.174-0.488,24.392,1.422C16.611,3.331,11.854,11.223,13.751,19.042z"/>
	<path fill="none" stroke="#000000" stroke-width="2" stroke-linecap="round" stroke-linejoin="round" stroke-miterlimit="10" d="
		M13.252,17.118C7.167,18.85,2.71,24.47,2.71,31.146c0,2.694,0.742,5.21,2.011,7.378L1,46.997l8.694-3.404
		c2.188,1.34,4.758,2.13,7.514,2.13c8.007,0,14.496-6.525,14.496-14.576c0-0.51-0.026-1.005-0.075-1.497"/>
</g>
</svg>
