<?xml version="1.0" encoding="utf-8"?>
<!-- Generator: Adobe Illustrator 16.0.0, SVG Export Plug-In . SVG Version: 6.00 Build 0)  -->
<!DOCTYPE svg PUBLIC "-//W3C//DTD SVG 1.1//EN" "http://www.w3.org/Graphics/SVG/1.1/DTD/svg11.dtd">
<svg version="1.1" id="Layer_1" xmlns="http://www.w3.org/2000/svg" xmlns:xlink="http://www.w3.org/1999/xlink" x="0px" y="0px"
	 width="48px" height="48px" viewBox="0 0 48 48" enable-background="new 0 0 48 48" xml:space="preserve">
<g>
	<g>
		
			<line fill="none" stroke="#000000" stroke-width="2" stroke-linecap="round" stroke-linejoin="round" stroke-miterlimit="10" x1="32.2" y1="32.578" x2="39.142" y2="39.522"/>
		
			<line fill="none" stroke="#000000" stroke-width="2" stroke-linecap="round" stroke-linejoin="round" stroke-miterlimit="10" x1="39.142" y1="32.578" x2="32.2" y2="39.522"/>
	</g>
	<g>
		<path fill="none" stroke="#000000" stroke-width="2" stroke-linecap="round" stroke-linejoin="round" stroke-miterlimit="10" d="
			M46.625,36.051C46.625,42.096,41.721,47,35.672,47c-6.045,0-10.95-4.904-10.95-10.949c0-6.048,4.905-10.952,10.95-10.952
			C41.721,25.099,46.625,30.003,46.625,36.051z"/>
		<path fill="none" stroke="#000000" stroke-width="2" stroke-linecap="round" stroke-linejoin="round" stroke-miterlimit="10" d="
			M24.722,36.051c0-6.048,4.905-10.952,10.95-10.952c3.989,0,7.443,2.156,9.361,5.344c1.02-2.495,1.592-5.22,1.592-8.077
			C46.625,10.564,37.057,1,25.255,1C13.459,1,3.892,10.564,3.892,22.365c0,3.954,1.096,7.643,2.963,10.815L1.375,45.604
			l12.811-4.999c3.227,1.969,7.008,3.127,11.068,3.127c0.845,0,1.675-0.067,2.49-0.16C25.881,41.611,24.722,38.967,24.722,36.051z"
			/>
	</g>
</g>
</svg>
