<?xml version="1.0" encoding="utf-8"?>
<!-- Generator: Adobe Illustrator 16.0.0, SVG Export Plug-In . SVG Version: 6.00 Build 0)  -->
<!DOCTYPE svg PUBLIC "-//W3C//DTD SVG 1.1//EN" "http://www.w3.org/Graphics/SVG/1.1/DTD/svg11.dtd">
<svg version="1.1" id="Layer_1" xmlns="http://www.w3.org/2000/svg" xmlns:xlink="http://www.w3.org/1999/xlink" x="0px" y="0px"
	 width="48px" height="48px" viewBox="0 0 48 48" enable-background="new 0 0 48 48" xml:space="preserve">
<g>
	
		<line fill="none" stroke="#000000" stroke-width="2" stroke-linecap="round" stroke-linejoin="round" stroke-miterlimit="10" x1="30.765" y1="36.051" x2="40.586" y2="36.051"/>
	
		<circle fill="none" stroke="#000000" stroke-width="2" stroke-linecap="round" stroke-linejoin="round" stroke-miterlimit="10" cx="35.673" cy="36.051" r="10.953"/>
	<path fill="none" stroke="#000000" stroke-width="2" stroke-linecap="round" stroke-linejoin="round" stroke-miterlimit="10" d="
		M24.72,36.051c0-6.048,4.905-10.952,10.952-10.952c3.989,0,7.446,2.156,9.361,5.344c1.02-2.495,1.593-5.22,1.593-8.076
		C46.626,10.564,37.058,1,25.256,1C13.459,1,3.891,10.564,3.891,22.366c0,3.953,1.099,7.642,2.966,10.814L1.375,45.604l12.811-4.999
		c3.228,1.97,7.008,3.126,11.07,3.126c0.841,0,1.674-0.066,2.487-0.159C25.881,41.609,24.72,38.967,24.72,36.051z"/>
</g>
</svg>
