<?xml version="1.0" encoding="utf-8"?>
<!-- Generator: Adobe Illustrator 16.0.0, SVG Export Plug-In . SVG Version: 6.00 Build 0)  -->
<!DOCTYPE svg PUBLIC "-//W3C//DTD SVG 1.1//EN" "http://www.w3.org/Graphics/SVG/1.1/DTD/svg11.dtd">
<svg version="1.1" id="Layer_1" xmlns="http://www.w3.org/2000/svg" xmlns:xlink="http://www.w3.org/1999/xlink" x="0px" y="0px"
	 width="48px" height="48px" viewBox="0 0 48 48" enable-background="new 0 0 48 48" xml:space="preserve">
<g>
	<g>
		
			<line fill="none" stroke="#000000" stroke-width="2" stroke-linecap="round" stroke-linejoin="round" stroke-miterlimit="10" x1="30.763" y1="36.051" x2="40.586" y2="36.051"/>
		
			<line fill="none" stroke="#000000" stroke-width="2" stroke-linecap="round" stroke-linejoin="round" stroke-miterlimit="10" x1="35.67" y1="31.141" x2="35.67" y2="40.96"/>
	</g>
	
		<circle fill="none" stroke="#000000" stroke-width="2" stroke-linecap="round" stroke-linejoin="round" stroke-miterlimit="10" cx="35.674" cy="36.051" r="10.95"/>
	<path fill="none" stroke="#000000" stroke-width="2" stroke-linecap="round" stroke-linejoin="round" stroke-miterlimit="10" d="
		M24.725,36.051c0-6.048,4.902-10.952,10.947-10.952c3.992,0,7.446,2.156,9.362,5.345c1.019-2.496,1.59-5.22,1.59-8.077
		C46.624,10.563,37.056,1,25.263,1C13.461,1,3.897,10.563,3.897,22.366c0,3.953,1.089,7.642,2.961,10.814L1.376,45.604l12.805-4.999
		c3.238,1.971,7.02,3.126,11.082,3.126c0.839,0,1.663-0.066,2.483-0.158C25.884,41.609,24.725,38.967,24.725,36.051z"/>
</g>
</svg>
