<?xml version="1.0" encoding="utf-8"?>
<!-- Generator: Adobe Illustrator 16.0.0, SVG Export Plug-In . SVG Version: 6.00 Build 0)  -->
<!DOCTYPE svg PUBLIC "-//W3C//DTD SVG 1.1//EN" "http://www.w3.org/Graphics/SVG/1.1/DTD/svg11.dtd">
<svg version="1.1" id="Layer_1" xmlns="http://www.w3.org/2000/svg" xmlns:xlink="http://www.w3.org/1999/xlink" x="0px" y="0px"
	 width="48px" height="48px" viewBox="0 0 48 48" enable-background="new 0 0 48 48" xml:space="preserve">
<g>
	
		<line fill="none" stroke="#000000" stroke-width="2" stroke-linecap="round" stroke-linejoin="round" stroke-miterlimit="10" x1="41.911" y1="27.075" x2="29.434" y2="45.025"/>
	<path fill="none" stroke="#000000" stroke-width="2" stroke-linecap="round" stroke-linejoin="round" stroke-miterlimit="10" d="
		M46.626,36.051C46.626,42.096,41.723,47,35.669,47c-6.043,0-10.948-4.904-10.948-10.949c0-6.05,4.905-10.952,10.948-10.952
		C41.723,25.099,46.626,30.001,46.626,36.051z"/>
	<path fill="none" stroke="#000000" stroke-width="2" stroke-linecap="round" stroke-linejoin="round" stroke-miterlimit="10" d="
		M24.721,36.051c0-6.05,4.905-10.952,10.948-10.952c3.99,0,7.45,2.156,9.366,5.344c1.016-2.495,1.591-5.22,1.591-8.077
		C46.626,10.563,37.055,1,25.258,1C13.459,1,3.891,10.563,3.891,22.365c0,3.953,1.097,7.643,2.967,10.815L1.375,45.602l12.808-4.999
		c3.232,1.971,7.016,3.128,11.075,3.128c0.842,0,1.671-0.066,2.488-0.159C25.879,41.609,24.721,38.967,24.721,36.051z"/>
</g>
</svg>
