<?xml version="1.0" encoding="utf-8"?>
<!-- Generator: Adobe Illustrator 16.0.0, SVG Export Plug-In . SVG Version: 6.00 Build 0)  -->
<!DOCTYPE svg PUBLIC "-//W3C//DTD SVG 1.1//EN" "http://www.w3.org/Graphics/SVG/1.1/DTD/svg11.dtd">
<svg version="1.1" id="Layer_1" xmlns="http://www.w3.org/2000/svg" xmlns:xlink="http://www.w3.org/1999/xlink" x="0px" y="0px"
	 width="48px" height="48px" viewBox="0 0 48 48" enable-background="new 0 0 48 48" xml:space="preserve">
<g>
	<polygon points="35.669,39.745 31.716,42.132 32.763,37.636 29.276,34.613 33.872,34.218 35.669,29.963 37.466,34.218 
		42.066,34.613 38.579,37.636 39.625,42.132 	"/>
	
		<circle fill="none" stroke="#000000" stroke-width="2" stroke-linecap="round" stroke-linejoin="round" stroke-miterlimit="10" cx="35.671" cy="36.051" r="10.954"/>
	<path fill="none" stroke="#000000" stroke-width="2" stroke-linecap="round" stroke-linejoin="round" stroke-miterlimit="10" d="
		M24.718,36.051c0-6.048,4.903-10.952,10.951-10.952c3.991,0,7.443,2.156,9.362,5.344c1.022-2.495,1.594-5.22,1.594-8.076
		C46.625,10.564,37.055,1,25.253,1C13.458,1,3.891,10.564,3.891,22.366c0,3.953,1.093,7.642,2.962,10.814L1.375,45.604l12.807-4.999
		c3.231,1.969,7.014,3.126,11.07,3.126c0.845,0,1.676-0.066,2.489-0.159C25.879,41.609,24.718,38.967,24.718,36.051z"/>
</g>
</svg>
