<?xml version="1.0" encoding="utf-8"?>
<!-- Generator: Adobe Illustrator 16.0.0, SVG Export Plug-In . SVG Version: 6.00 Build 0)  -->
<!DOCTYPE svg PUBLIC "-//W3C//DTD SVG 1.1//EN" "http://www.w3.org/Graphics/SVG/1.1/DTD/svg11.dtd">
<svg version="1.1" id="Layer_1" xmlns="http://www.w3.org/2000/svg" xmlns:xlink="http://www.w3.org/1999/xlink" x="0px" y="0px"
	 width="48px" height="48px" viewBox="0 0 48 48" enable-background="new 0 0 48 48" xml:space="preserve">
<g>
	<g>
		
			<circle fill="none" stroke="#000000" stroke-width="2" stroke-linecap="round" stroke-linejoin="round" stroke-miterlimit="10" cx="38.413" cy="38.415" r="8.581"/>
		<path fill="none" stroke="#000000" stroke-width="2" stroke-linecap="round" stroke-linejoin="round" stroke-miterlimit="10" d="
			M33.033,30.554v-3.333c0-3.168,2.416-5.763,5.381-5.763c2.958,0,5.386,2.594,5.386,5.763v3.333"/>
		<path d="M40.406,37.389c0-1.104-0.89-1.993-1.992-1.993c-1.104,0-1.991,0.889-1.991,1.993c0,0.906,0.617,1.64,1.447,1.882v3.618
			h1.087v-3.618C39.786,39.028,40.406,38.295,40.406,37.389z"/>
	</g>
	<path fill="none" stroke="#000000" stroke-width="2" stroke-linecap="round" stroke-linejoin="round" stroke-miterlimit="10" d="
		M46.837,18.818C44.966,8.675,36.076,1,25.395,1C13.344,1,3.582,10.761,3.582,22.809c0,4.039,1.116,7.805,3.023,11.043L1.006,46.535
		l13.079-5.103c2.016,1.228,4.239,2.143,6.605,2.674"/>
</g>
</svg>
