<?xml version="1.0" encoding="utf-8"?>
<!-- Generator: Adobe Illustrator 16.0.0, SVG Export Plug-In . SVG Version: 6.00 Build 0)  -->
<!DOCTYPE svg PUBLIC "-//W3C//DTD SVG 1.1//EN" "http://www.w3.org/Graphics/SVG/1.1/DTD/svg11.dtd">
<svg version="1.1" id="Layer_1" xmlns="http://www.w3.org/2000/svg" xmlns:xlink="http://www.w3.org/1999/xlink" x="0px" y="0px"
	 width="48px" height="48px" viewBox="0 0 48 48" enable-background="new 0 0 48 48" xml:space="preserve">
<g>
	<path fill="none" stroke="#000000" stroke-width="2" stroke-linecap="round" stroke-linejoin="round" stroke-miterlimit="10" d="
		M46.768,25.388c1.043,4.21-1.527,8.465-5.734,9.509c-4.212,1.04-8.466-1.529-9.509-5.743c-1.039-4.211,1.531-8.466,5.74-9.507
		C41.475,18.607,45.728,21.176,46.768,25.388z"/>
	
		<line fill="none" stroke="#000000" stroke-width="2" stroke-linecap="round" stroke-linejoin="round" stroke-miterlimit="10" x1="34.151" y1="34.839" x2="25.527" y2="46.968"/>
	<path fill="none" stroke="#000000" stroke-width="2" stroke-linecap="round" stroke-linejoin="round" stroke-miterlimit="10" d="
		M46.897,18.878C45.021,8.722,36.118,1.033,25.424,1.033c-12.067,0-21.845,9.778-21.845,21.844c0,4.041,1.118,7.814,3.031,11.06
		L1,46.636l13.099-5.111c2.02,1.232,4.245,2.147,6.615,2.679"/>
</g>
</svg>
