<?xml version="1.0" encoding="utf-8"?>
<!-- Generator: Adobe Illustrator 16.0.0, SVG Export Plug-In . SVG Version: 6.00 Build 0)  -->
<!DOCTYPE svg PUBLIC "-//W3C//DTD SVG 1.1//EN" "http://www.w3.org/Graphics/SVG/1.1/DTD/svg11.dtd">
<svg version="1.1" id="Layer_1" xmlns="http://www.w3.org/2000/svg" xmlns:xlink="http://www.w3.org/1999/xlink" x="0px" y="0px"
	 width="48px" height="48px" viewBox="0 0 48 48" enable-background="new 0 0 48 48" xml:space="preserve">
<g>
	<path fill="none" stroke="#000000" stroke-width="2" stroke-linejoin="round" stroke-miterlimit="10" d="M28.582,15.655H5.122
		C2.854,15.655,1,17.452,1,19.646v15.4c0,2.198,1.853,3.993,4.122,3.993h1.411C5.912,41.133,5.735,44.268,8.658,47
		c0,0,1.504-4.834,4.246-7.961h15.678c2.263,0,4.12-1.795,4.12-3.993v-15.4C32.702,17.452,30.845,15.655,28.582,15.655z"/>
	<path fill="none" stroke="#000000" stroke-width="2" stroke-linejoin="round" stroke-miterlimit="10" d="M15.296,16.273V4.99
		c0-2.199,1.857-3.99,4.124-3.99h23.461C45.144,1,47,2.792,47,4.99v15.398c0,2.196-1.856,3.994-4.119,3.994h-1.413
		c0.623,2.094,0.799,5.225-2.125,7.958c0,0-1.507-4.837-4.243-7.958h-2.397"/>
</g>
</svg>
