<?xml version="1.0" encoding="utf-8"?>
<!-- Generator: Adobe Illustrator 16.0.0, SVG Export Plug-In . SVG Version: 6.00 Build 0)  -->
<!DOCTYPE svg PUBLIC "-//W3C//DTD SVG 1.1//EN" "http://www.w3.org/Graphics/SVG/1.1/DTD/svg11.dtd">
<svg version="1.1" id="Layer_1" xmlns="http://www.w3.org/2000/svg" xmlns:xlink="http://www.w3.org/1999/xlink" x="0px" y="0px"
	 width="48px" height="48px" viewBox="0 0 48 48" enable-background="new 0 0 48 48" xml:space="preserve">
<g>
	<path fill="none" stroke="#000000" stroke-width="2" stroke-linejoin="round" stroke-miterlimit="10" d="M41.022,1H6.981
		c-3.289,0-5.98,2.634-5.98,5.854v22.608c0,3.221,2.691,5.854,5.98,5.854h2.048c-0.9,3.075-1.16,7.676,3.082,11.684
		c0,0,2.19-7.094,6.16-11.684h22.752c3.289,0,5.977-2.634,5.977-5.854V6.854C46.999,3.634,44.312,1,41.022,1z"/>
	<path fill="none" stroke="#000000" stroke-width="2" stroke-linecap="round" stroke-linejoin="round" stroke-miterlimit="10" d="
		M9.585,10.886c0,0,4.028,4.466,10.562,0"/>
	<path fill="none" stroke="#000000" stroke-width="2" stroke-linecap="round" stroke-linejoin="round" stroke-miterlimit="10" d="
		M29.288,10.886c0,0,4.028,4.466,10.563,0"/>
	<path fill="none" stroke="#000000" stroke-width="2" stroke-linecap="round" stroke-linejoin="round" stroke-miterlimit="10" d="
		M16.106,23.006c0,0,6.957,7.707,18.231,0"/>
</g>
</svg>
