<?xml version="1.0" encoding="utf-8"?>
<!-- Generator: Adobe Illustrator 16.0.0, SVG Export Plug-In . SVG Version: 6.00 Build 0)  -->
<!DOCTYPE svg PUBLIC "-//W3C//DTD SVG 1.1//EN" "http://www.w3.org/Graphics/SVG/1.1/DTD/svg11.dtd">
<svg version="1.1" id="Layer_1" xmlns="http://www.w3.org/2000/svg" xmlns:xlink="http://www.w3.org/1999/xlink" x="0px" y="0px"
	 width="48px" height="48px" viewBox="0 0 48 48" enable-background="new 0 0 48 48" xml:space="preserve">
<g>
	
		<line fill="none" stroke="#000000" stroke-width="2" stroke-linecap="round" stroke-linejoin="round" stroke-miterlimit="10" x1="30.875" y1="35.866" x2="40.856" y2="35.866"/>
	<g>
		<path fill="none" stroke="#000000" stroke-width="2" stroke-linecap="round" stroke-linejoin="round" stroke-miterlimit="10" d="
			M46.998,35.866c0,6.147-4.98,11.134-11.135,11.134c-6.146,0-11.133-4.986-11.133-11.134c0-6.148,4.987-11.139,11.133-11.139
			C42.018,24.728,46.998,29.718,46.998,35.866z"/>
		<path fill="none" stroke="#000000" stroke-width="2" stroke-linejoin="round" stroke-miterlimit="10" d="M41.02,1H6.981
			c-3.291,0-5.98,2.635-5.98,5.856v22.606c0,3.221,2.689,5.854,5.98,5.854h2.046C8.125,38.392,7.871,42.992,12.112,47
			c0,0,2.188-7.094,6.161-11.684h6.516c0.292-5.89,5.115-10.589,11.075-10.589c4.835,0,8.905,3.1,10.448,7.397
			c0.425-0.801,0.687-1.705,0.687-2.663V6.856C46.998,3.635,44.311,1,41.02,1z"/>
	</g>
</g>
</svg>
