<?xml version="1.0" encoding="utf-8"?>
<!-- Generator: Adobe Illustrator 16.0.0, SVG Export Plug-In . SVG Version: 6.00 Build 0)  -->
<!DOCTYPE svg PUBLIC "-//W3C//DTD SVG 1.1//EN" "http://www.w3.org/Graphics/SVG/1.1/DTD/svg11.dtd">
<svg version="1.1" id="Layer_1" xmlns="http://www.w3.org/2000/svg" xmlns:xlink="http://www.w3.org/1999/xlink" x="0px" y="0px"
	 width="48px" height="48px" viewBox="0 0 48 48" enable-background="new 0 0 48 48" xml:space="preserve">
<g>
	<g>
		
			<line fill="none" stroke="#000000" stroke-width="2" stroke-linecap="round" stroke-linejoin="round" stroke-miterlimit="10" x1="30.367" y1="35.864" x2="40.348" y2="35.864"/>
		
			<line fill="none" stroke="#000000" stroke-width="2" stroke-linecap="round" stroke-linejoin="round" stroke-miterlimit="10" x1="35.354" y1="30.876" x2="35.354" y2="40.854"/>
	</g>
	<g>
		<path fill="none" stroke="#000000" stroke-width="2" stroke-linecap="round" stroke-linejoin="round" stroke-miterlimit="10" d="
			M47,35.864c0,6.148-4.985,11.135-11.135,11.135c-6.146,0-11.131-4.986-11.131-11.135s4.986-11.137,11.131-11.137
			C42.015,24.727,47,29.716,47,35.864z"/>
		<path fill="none" stroke="#000000" stroke-width="2" stroke-linejoin="round" stroke-miterlimit="10" d="M41.024,1.001H6.982
			C3.691,1.001,1,3.634,1,6.855v22.605c0,3.221,2.691,5.854,5.982,5.854h2.046c-0.9,3.075-1.159,7.676,3.081,11.684
			c0,0,2.193-7.095,6.162-11.684h6.52c0.292-5.89,5.115-10.588,11.075-10.588c4.834,0,8.903,3.099,10.441,7.397
			C46.737,31.322,47,30.419,47,29.461V6.855C47,3.634,44.309,1.001,41.024,1.001z"/>
	</g>
</g>
</svg>
