<?xml version="1.0" encoding="utf-8"?>
<!-- Generator: Adobe Illustrator 16.0.0, SVG Export Plug-In . SVG Version: 6.00 Build 0)  -->
<!DOCTYPE svg PUBLIC "-//W3C//DTD SVG 1.1//EN" "http://www.w3.org/Graphics/SVG/1.1/DTD/svg11.dtd">
<svg version="1.1" id="Layer_1" xmlns="http://www.w3.org/2000/svg" xmlns:xlink="http://www.w3.org/1999/xlink" x="0px" y="0px"
	 width="48px" height="48px" viewBox="0 0 48 48" enable-background="new 0 0 48 48" xml:space="preserve">
<g>
	
		<polyline fill="none" stroke="#000000" stroke-width="2" stroke-linecap="round" stroke-linejoin="round" stroke-miterlimit="10" points="
		28.591,35.073 33.582,40.229 41.78,31.494 	"/>
	<g>
		<path fill="none" stroke="#000000" stroke-width="2" stroke-linecap="round" stroke-linejoin="round" stroke-miterlimit="10" d="
			M47,35.865c0,6.148-4.988,11.134-11.138,11.134c-6.146,0-11.131-4.985-11.131-11.134s4.986-11.137,11.131-11.137
			C42.012,24.728,47,29.717,47,35.865z"/>
		<path fill="none" stroke="#000000" stroke-width="2" stroke-linejoin="round" stroke-miterlimit="10" d="M41.024,1.001H6.979
			C3.691,1.001,1,3.634,1,6.856v22.604c0,3.221,2.691,5.855,5.979,5.855h2.045c-0.897,3.074-1.154,7.675,3.084,11.683
			c0,0,2.186-7.094,6.159-11.683h6.52c0.292-5.89,5.118-10.588,11.075-10.588c4.834,0,8.901,3.099,10.444,7.396
			C46.735,31.323,47,30.419,47,29.461V6.856C47,3.634,44.309,1.001,41.024,1.001z"/>
	</g>
</g>
</svg>
