<?xml version="1.0" encoding="utf-8"?>
<!-- Generator: Adobe Illustrator 16.0.0, SVG Export Plug-In . SVG Version: 6.00 Build 0)  -->
<!DOCTYPE svg PUBLIC "-//W3C//DTD SVG 1.1//EN" "http://www.w3.org/Graphics/SVG/1.1/DTD/svg11.dtd">
<svg version="1.1" id="Layer_1" xmlns="http://www.w3.org/2000/svg" xmlns:xlink="http://www.w3.org/1999/xlink" x="0px" y="0px"
	 width="48px" height="48px" viewBox="0 0 48 48" enable-background="new 0 0 48 48" xml:space="preserve">
<g>
	<g>
		
			<line fill="none" stroke="#000000" stroke-width="2" stroke-linecap="round" stroke-linejoin="round" stroke-miterlimit="10" x1="35.867" y1="41.668" x2="35.867" y2="31.925"/>
		
			<polyline fill="none" stroke="#000000" stroke-width="2" stroke-linecap="round" stroke-linejoin="round" stroke-miterlimit="10" points="
			41.142,34.932 35.601,30.054 30.593,35.063 		"/>
	</g>
	<g>
		<path fill="none" stroke="#000000" stroke-width="2" stroke-linecap="round" stroke-linejoin="round" stroke-miterlimit="10" d="
			M47,35.869C47,42.013,42.011,47,35.867,47c-6.154,0-11.137-4.987-11.137-11.131c0-6.152,4.983-11.138,11.137-11.138
			C42.011,24.731,47,29.717,47,35.869z"/>
		<path fill="none" stroke="#000000" stroke-width="2" stroke-linejoin="round" stroke-miterlimit="10" d="M41.021,1H6.979
			C3.689,1,1,3.637,1,6.858v22.604c0,3.22,2.689,5.857,5.979,5.857h2.049C8.129,38.396,7.87,42.992,12.112,47
			c0,0,2.187-7.095,6.156-11.681h6.516c0.294-5.89,5.122-10.588,11.083-10.588c4.827,0,8.897,3.096,10.439,7.397
			C46.736,31.323,47,30.424,47,29.462V6.858C47,3.637,44.312,1,41.021,1z"/>
	</g>
</g>
</svg>
