<?xml version="1.0" encoding="utf-8"?>
<!-- Generator: Adobe Illustrator 16.0.0, SVG Export Plug-In . SVG Version: 6.00 Build 0)  -->
<!DOCTYPE svg PUBLIC "-//W3C//DTD SVG 1.1//EN" "http://www.w3.org/Graphics/SVG/1.1/DTD/svg11.dtd">
<svg version="1.1" id="Layer_1" xmlns="http://www.w3.org/2000/svg" xmlns:xlink="http://www.w3.org/1999/xlink" x="0px" y="0px"
	 width="48px" height="48px" viewBox="0 0 48 48" enable-background="new 0 0 48 48" xml:space="preserve">
<g>
	
		<polyline fill="none" stroke="#000000" stroke-width="2" stroke-linecap="round" stroke-linejoin="round" stroke-miterlimit="10" points="
		35.863,29.961 35.863,37.226 40.45,39.658 	"/>
	<g>
		
			<circle fill="none" stroke="#000000" stroke-width="2" stroke-linecap="round" stroke-linejoin="round" stroke-miterlimit="10" cx="35.865" cy="35.868" r="11.135"/>
		<path fill="none" stroke="#000000" stroke-width="2" stroke-linejoin="round" stroke-miterlimit="10" d="M41.021,1H6.978
			C3.689,1,1,3.636,1,6.858v22.604c0,3.221,2.689,5.858,5.978,5.858h2.047C8.126,38.395,7.87,42.991,12.111,47
			c0,0,2.186-7.094,6.155-11.68h6.517c0.293-5.891,5.124-10.589,11.08-10.589c4.829,0,8.903,3.097,10.443,7.397
			C46.734,31.323,47,30.423,47,29.462V6.858C47,3.636,44.311,1,41.021,1z"/>
	</g>
</g>
</svg>
