<?xml version="1.0" encoding="utf-8"?>
<!-- Generator: Adobe Illustrator 16.0.0, SVG Export Plug-In . SVG Version: 6.00 Build 0)  -->
<!DOCTYPE svg PUBLIC "-//W3C//DTD SVG 1.1//EN" "http://www.w3.org/Graphics/SVG/1.1/DTD/svg11.dtd">
<svg version="1.1" id="Layer_1" xmlns="http://www.w3.org/2000/svg" xmlns:xlink="http://www.w3.org/1999/xlink" x="0px" y="0px"
	 width="48px" height="48px" viewBox="0 0 48 48" enable-background="new 0 0 48 48" xml:space="preserve">
<g>
	<g>
		<path fill="none" stroke="#000000" stroke-width="2" stroke-linecap="round" stroke-linejoin="round" stroke-miterlimit="10" d="
			M44.243,37.528c0,4.718-3.825,8.544-8.546,8.544c-4.717,0-8.548-3.826-8.548-8.544c0-4.725,3.831-8.55,8.548-8.55
			C40.418,28.979,44.243,32.804,44.243,37.528z"/>
		<path fill="none" stroke="#000000" stroke-width="2" stroke-linecap="round" stroke-linejoin="round" stroke-miterlimit="10" d="
			M30.337,29.697v-3.313c0-3.155,2.411-5.742,5.36-5.742c2.946,0,5.362,2.587,5.362,5.742v3.313"/>
		<path d="M37.684,36.501c0-1.098-0.887-1.983-1.986-1.983c-1.097,0-1.982,0.886-1.982,1.983c0,0.903,0.616,1.638,1.441,1.875v3.607
			h1.083v-3.607C37.065,38.139,37.684,37.404,37.684,36.501z"/>
	</g>
	<path fill="none" stroke="#000000" stroke-width="2" stroke-linejoin="round" stroke-miterlimit="10" d="M47,29.462V6.859
		c0-3.221-2.692-5.858-5.98-5.858H6.979C3.687,1.001,1,3.638,1,6.859v22.603c0,3.221,2.687,5.857,5.979,5.857h2.047
		c-0.9,3.076-1.158,7.672,3.085,11.68c0,0,2.186-7.094,6.154-11.68h4.436"/>
</g>
</svg>
