<?xml version="1.0" encoding="utf-8"?>
<!-- Generator: Adobe Illustrator 16.0.0, SVG Export Plug-In . SVG Version: 6.00 Build 0)  -->
<!DOCTYPE svg PUBLIC "-//W3C//DTD SVG 1.1//EN" "http://www.w3.org/Graphics/SVG/1.1/DTD/svg11.dtd">
<svg version="1.1" id="Layer_1" xmlns="http://www.w3.org/2000/svg" xmlns:xlink="http://www.w3.org/1999/xlink" x="0px" y="0px"
	 width="48px" height="48px" viewBox="0 0 48 48" enable-background="new 0 0 48 48" xml:space="preserve">
<g>
	<path fill="none" stroke="#000000" stroke-width="2" stroke-linecap="round" stroke-linejoin="round" stroke-miterlimit="10" d="
		M37.114,10.495c-1.139,0-2.205,0.228-3.219,0.58c-1.301-4.11-5.097-7.102-9.635-7.102c-5.265,0-9.543,4.026-10.048,9.163
		c-1.244-0.64-2.632-1.035-4.127-1.035C5.066,12.102,1,16.171,1,21.188c0,4.557,3.369,8.289,7.743,8.942v13.896l10.072-13.789
		h17.948c0.118,0.004,0.229,0.036,0.352,0.036c0.113,0,0.224-0.032,0.346-0.036h0.441v-0.043C42.986,29.787,47,25.58,47,20.383
		C47,14.92,42.574,10.495,37.114,10.495z"/>
</g>
</svg>
