<?xml version="1.0" encoding="utf-8"?>
<!-- Generator: Adobe Illustrator 16.0.0, SVG Export Plug-In . SVG Version: 6.00 Build 0)  -->
<!DOCTYPE svg PUBLIC "-//W3C//DTD SVG 1.1//EN" "http://www.w3.org/Graphics/SVG/1.1/DTD/svg11.dtd">
<svg version="1.1" id="Layer_1" xmlns="http://www.w3.org/2000/svg" xmlns:xlink="http://www.w3.org/1999/xlink" x="0px" y="0px"
	 width="48px" height="48px" viewBox="0 0 48 48" enable-background="new 0 0 48 48" xml:space="preserve">
<g>
	<path fill="none" stroke="#000000" stroke-width="2" stroke-linecap="round" stroke-linejoin="round" stroke-miterlimit="10" d="
		M43.027,7.442c0,3.558-8.519,6.441-19.025,6.441C13.497,13.883,4.973,11,4.973,7.442C4.973,3.881,13.497,1,24.002,1
		C34.509,1,43.027,3.881,43.027,7.442z"/>
	<path fill="none" stroke="#000000" stroke-width="2" stroke-linecap="round" stroke-linejoin="round" stroke-miterlimit="10" d="
		M43.027,18.483c0,3.554-8.519,6.439-19.025,6.439c-10.505,0-19.029-2.886-19.029-6.439"/>
	<path fill="none" stroke="#000000" stroke-width="2" stroke-linecap="round" stroke-linejoin="round" stroke-miterlimit="10" d="
		M43.027,29.519c0,3.56-8.519,6.442-19.025,6.442c-10.505,0-19.029-2.883-19.029-6.442"/>
	<path fill="none" stroke="#000000" stroke-width="2" stroke-linecap="round" stroke-linejoin="round" stroke-miterlimit="10" d="
		M24.002,13.883C13.497,13.883,4.973,11,4.973,7.442v33.113c0,3.559,8.524,6.445,19.029,6.445c10.507,0,19.025-2.887,19.025-6.445
		V7.442C43.027,11,34.509,13.883,24.002,13.883z"/>
</g>
</svg>
