<?xml version="1.0" encoding="utf-8"?>
<!-- Generator: Adobe Illustrator 16.0.0, SVG Export Plug-In . SVG Version: 6.00 Build 0)  -->
<!DOCTYPE svg PUBLIC "-//W3C//DTD SVG 1.1//EN" "http://www.w3.org/Graphics/SVG/1.1/DTD/svg11.dtd">
<svg version="1.1" id="Layer_1" xmlns="http://www.w3.org/2000/svg" xmlns:xlink="http://www.w3.org/1999/xlink" x="0px" y="0px"
	 width="48px" height="48px" viewBox="0 0 48 48" enable-background="new 0 0 48 48" xml:space="preserve">
<g>
	<path fill="none" stroke="#000000" stroke-width="2" stroke-linecap="round" stroke-linejoin="round" stroke-miterlimit="10" d="
		M46.791,35.886C46.791,42.023,41.81,47,35.68,47c-6.139,0-11.114-4.977-11.114-11.114c0-6.134,4.976-11.112,11.114-11.112
		C41.81,24.773,46.791,29.752,46.791,35.886z"/>
	<g>
		<path fill="none" stroke="#000000" stroke-width="2" stroke-linecap="round" stroke-linejoin="round" stroke-miterlimit="10" d="
			M39.181,7.428c0,3.551-8.5,6.429-18.989,6.429c-10.48,0-18.983-2.878-18.983-6.429C1.208,3.875,9.712,1,20.192,1
			C30.681,1,39.181,3.875,39.181,7.428z"/>
		<path fill="none" stroke="#000000" stroke-width="2" stroke-linecap="round" stroke-linejoin="round" stroke-miterlimit="10" d="
			M39.181,18.447c0,3.544-8.5,6.424-18.989,6.424c-10.48,0-18.983-2.879-18.983-6.424"/>
		<path fill="none" stroke="#000000" stroke-width="2" stroke-linecap="round" stroke-linejoin="round" stroke-miterlimit="10" d="
			M24.203,35.745c-1.292,0.094-2.632,0.141-4.011,0.141c-10.48,0-18.983-2.879-18.983-6.429"/>
		<path fill="none" stroke="#000000" stroke-width="2" stroke-linecap="round" stroke-linejoin="round" stroke-miterlimit="10" d="
			M39.181,25.342V7.428c0,3.551-8.5,6.429-18.989,6.429c-10.48,0-18.983-2.878-18.983-6.429v33.046c0,3.55,8.503,6.431,18.983,6.431
			c3.895,0,7.509-0.396,10.52-1.075"/>
	</g>
</g>
</svg>
