<?xml version="1.0" encoding="utf-8"?>
<!-- Generator: Adobe Illustrator 16.0.0, SVG Export Plug-In . SVG Version: 6.00 Build 0)  -->
<!DOCTYPE svg PUBLIC "-//W3C//DTD SVG 1.1//EN" "http://www.w3.org/Graphics/SVG/1.1/DTD/svg11.dtd">
<svg version="1.1" id="Layer_1" xmlns="http://www.w3.org/2000/svg" xmlns:xlink="http://www.w3.org/1999/xlink" x="0px" y="0px"
	 width="48px" height="48px" viewBox="0 0 48 48" enable-background="new 0 0 48 48" xml:space="preserve">
<g>
	<g>
		
			<line fill="none" stroke="#000000" stroke-width="2" stroke-linecap="round" stroke-linejoin="round" stroke-miterlimit="10" x1="30.699" y1="35.889" x2="40.662" y2="35.889"/>
		
			<line fill="none" stroke="#000000" stroke-width="2" stroke-linecap="round" stroke-linejoin="round" stroke-miterlimit="10" x1="35.676" y1="30.908" x2="35.676" y2="40.868"/>
	</g>
	<g>
		<path fill="none" stroke="#000000" stroke-width="2" stroke-linecap="round" stroke-linejoin="round" stroke-miterlimit="10" d="
			M46.79,35.889C46.79,42.024,41.814,47,35.682,47c-6.14,0-11.11-4.976-11.11-11.111c0-6.135,4.971-11.114,11.11-11.114
			C41.814,24.774,46.79,29.754,46.79,35.889z"/>
		<g>
			<path fill="none" stroke="#000000" stroke-width="2" stroke-linecap="round" stroke-linejoin="round" stroke-miterlimit="10" d="
				M39.182,7.429c0,3.55-8.498,6.428-18.985,6.428c-10.486,0-18.987-2.878-18.987-6.428C1.209,3.873,9.711,1,20.197,1
				C30.684,1,39.182,3.873,39.182,7.429z"/>
			<path fill="none" stroke="#000000" stroke-width="2" stroke-linecap="round" stroke-linejoin="round" stroke-miterlimit="10" d="
				M39.182,18.441c0,3.551-8.498,6.428-18.985,6.428c-10.486,0-18.987-2.876-18.987-6.428"/>
			<path fill="none" stroke="#000000" stroke-width="2" stroke-linecap="round" stroke-linejoin="round" stroke-miterlimit="10" d="
				M24.204,35.746c-1.293,0.098-2.632,0.143-4.007,0.143c-10.486,0-18.987-2.881-18.987-6.434"/>
			<path fill="none" stroke="#000000" stroke-width="2" stroke-linecap="round" stroke-linejoin="round" stroke-miterlimit="10" d="
				M39.182,25.343V7.429c0,3.55-8.498,6.428-18.985,6.428c-10.486,0-18.987-2.878-18.987-6.428v33.046
				c0,3.55,8.501,6.431,18.987,6.431c3.891,0,7.507-0.4,10.515-1.075"/>
		</g>
	</g>
</g>
</svg>
