<?xml version="1.0" encoding="utf-8"?>
<!-- Generator: Adobe Illustrator 16.0.0, SVG Export Plug-In . SVG Version: 6.00 Build 0)  -->
<!DOCTYPE svg PUBLIC "-//W3C//DTD SVG 1.1//EN" "http://www.w3.org/Graphics/SVG/1.1/DTD/svg11.dtd">
<svg version="1.1" id="Layer_1" xmlns="http://www.w3.org/2000/svg" xmlns:xlink="http://www.w3.org/1999/xlink" x="0px" y="0px"
	 width="48px" height="48px" viewBox="0 0 48 48" enable-background="new 0 0 48 48" xml:space="preserve">
<g>
	<g>
		<path fill="none" stroke="#000000" stroke-width="2" stroke-linecap="round" stroke-linejoin="round" stroke-miterlimit="10" d="
			M46.792,35.888c0,6.136-4.98,11.112-11.114,11.112c-6.138,0-11.114-4.977-11.114-11.112s4.977-11.114,11.114-11.114
			C41.812,24.773,46.792,29.752,46.792,35.888z"/>
		<g>
			<path fill="none" stroke="#000000" stroke-width="2" stroke-linecap="round" stroke-linejoin="round" stroke-miterlimit="10" d="
				M39.181,7.428c0,3.55-8.5,6.428-18.986,6.428S1.208,10.978,1.208,7.428C1.208,3.871,9.709,1,20.195,1S39.181,3.871,39.181,7.428z
				"/>
			<path fill="none" stroke="#000000" stroke-width="2" stroke-linecap="round" stroke-linejoin="round" stroke-miterlimit="10" d="
				M39.181,18.44c0,3.552-8.5,6.428-18.986,6.428S1.208,21.992,1.208,18.44"/>
			<path fill="none" stroke="#000000" stroke-width="2" stroke-linecap="round" stroke-linejoin="round" stroke-miterlimit="10" d="
				M24.202,35.745c-1.293,0.096-2.631,0.143-4.007,0.143c-10.486,0-18.987-2.881-18.987-6.434"/>
			<path fill="none" stroke="#000000" stroke-width="2" stroke-linecap="round" stroke-linejoin="round" stroke-miterlimit="10" d="
				M39.181,25.342V7.428c0,3.55-8.5,6.428-18.986,6.428S1.208,10.978,1.208,7.428v33.046c0,3.55,8.501,6.431,18.987,6.431
				c3.889,0,7.509-0.4,10.514-1.076"/>
		</g>
	</g>
	
		<line fill="none" stroke="#000000" stroke-width="2" stroke-linecap="round" stroke-linejoin="round" stroke-miterlimit="10" x1="41.989" y1="26.791" x2="29.33" y2="45.001"/>
</g>
</svg>
