<?xml version="1.0" encoding="utf-8"?>
<!-- Generator: Adobe Illustrator 16.0.0, SVG Export Plug-In . SVG Version: 6.00 Build 0)  -->
<!DOCTYPE svg PUBLIC "-//W3C//DTD SVG 1.1//EN" "http://www.w3.org/Graphics/SVG/1.1/DTD/svg11.dtd">
<svg version="1.1" id="Layer_1" xmlns="http://www.w3.org/2000/svg" xmlns:xlink="http://www.w3.org/1999/xlink" x="0px" y="0px"
	 width="48px" height="48px" viewBox="0 0 48 48" enable-background="new 0 0 48 48" xml:space="preserve">
<g>
	<g>
		<path fill="none" stroke="#000000" stroke-width="2" stroke-linecap="round" stroke-linejoin="round" stroke-miterlimit="10" d="
			M46.79,35.888C46.79,42.024,41.813,47,35.68,47c-6.142,0-11.11-4.976-11.11-11.112c0-6.136,4.969-11.113,11.11-11.113
			C41.813,24.774,46.79,29.752,46.79,35.888z"/>
		<g>
			<path fill="none" stroke="#000000" stroke-width="2" stroke-linecap="round" stroke-linejoin="round" stroke-miterlimit="10" d="
				M39.182,7.429c0,3.55-8.501,6.428-18.989,6.428c-10.483,0-18.983-2.878-18.983-6.428C1.209,3.872,9.709,1,20.192,1
				C30.681,1,39.182,3.872,39.182,7.429z"/>
			<path fill="none" stroke="#000000" stroke-width="2" stroke-linecap="round" stroke-linejoin="round" stroke-miterlimit="10" d="
				M39.182,18.441c0,3.551-8.501,6.428-18.989,6.428c-10.483,0-18.983-2.877-18.983-6.428"/>
			<path fill="none" stroke="#000000" stroke-width="2" stroke-linecap="round" stroke-linejoin="round" stroke-miterlimit="10" d="
				M24.206,35.747c-1.299,0.096-2.637,0.141-4.013,0.141c-10.483,0-18.983-2.881-18.983-6.433"/>
			<path fill="none" stroke="#000000" stroke-width="2" stroke-linecap="round" stroke-linejoin="round" stroke-miterlimit="10" d="
				M39.182,25.343V7.429c0,3.55-8.501,6.428-18.989,6.428c-10.483,0-18.983-2.878-18.983-6.428v33.046
				c0,3.549,8.5,6.431,18.983,6.431c3.89,0,7.508-0.401,10.52-1.075"/>
		</g>
	</g>
	
		<polygon fill="none" stroke="#000000" stroke-width="2" stroke-linecap="round" stroke-linejoin="round" stroke-miterlimit="10" points="
		29.654,32.976 41.701,32.976 35.68,42.324 	"/>
</g>
</svg>
