<?xml version="1.0" encoding="utf-8"?>
<!-- Generator: Adobe Illustrator 16.0.0, SVG Export Plug-In . SVG Version: 6.00 Build 0)  -->
<!DOCTYPE svg PUBLIC "-//W3C//DTD SVG 1.1//EN" "http://www.w3.org/Graphics/SVG/1.1/DTD/svg11.dtd">
<svg version="1.1" id="Layer_1" xmlns="http://www.w3.org/2000/svg" xmlns:xlink="http://www.w3.org/1999/xlink" x="0px" y="0px"
	 width="48px" height="48px" viewBox="0 0 48 48" enable-background="new 0 0 48 48" xml:space="preserve">
<g>
	<polygon points="35.68,39.38 31.669,41.801 32.728,37.239 29.188,34.173 33.853,33.772 35.68,29.454 37.499,33.772 42.169,34.173 
		38.63,37.239 39.69,41.801 	"/>
	<g>
		<path fill="none" stroke="#000000" stroke-width="2" stroke-linecap="round" stroke-linejoin="round" stroke-miterlimit="10" d="
			M46.792,35.888C46.792,42.023,41.812,47,35.68,47c-6.14,0-11.112-4.977-11.112-11.112S29.54,24.773,35.68,24.773
			C41.812,24.773,46.792,29.752,46.792,35.888z"/>
		<g>
			<path fill="none" stroke="#000000" stroke-width="2" stroke-linecap="round" stroke-linejoin="round" stroke-miterlimit="10" d="
				M39.182,7.428c0,3.551-8.498,6.428-18.986,6.428c-10.486,0-18.987-2.877-18.987-6.428C1.208,3.871,9.709,1,20.195,1
				C30.684,1,39.182,3.871,39.182,7.428z"/>
			<path fill="none" stroke="#000000" stroke-width="2" stroke-linecap="round" stroke-linejoin="round" stroke-miterlimit="10" d="
				M39.182,18.44c0,3.552-8.498,6.428-18.986,6.428c-10.486,0-18.987-2.876-18.987-6.428"/>
			<path fill="none" stroke="#000000" stroke-width="2" stroke-linecap="round" stroke-linejoin="round" stroke-miterlimit="10" d="
				M24.203,35.745c-1.294,0.096-2.634,0.143-4.007,0.143c-10.486,0-18.987-2.881-18.987-6.434"/>
			<path fill="none" stroke="#000000" stroke-width="2" stroke-linecap="round" stroke-linejoin="round" stroke-miterlimit="10" d="
				M39.182,25.342V7.428c0,3.551-8.498,6.428-18.986,6.428c-10.486,0-18.987-2.877-18.987-6.428v33.046
				c0,3.55,8.501,6.431,18.987,6.431c3.891,0,7.505-0.4,10.517-1.076"/>
		</g>
	</g>
</g>
</svg>
