<?xml version="1.0" encoding="utf-8"?>
<!-- Generator: Adobe Illustrator 16.0.0, SVG Export Plug-In . SVG Version: 6.00 Build 0)  -->
<!DOCTYPE svg PUBLIC "-//W3C//DTD SVG 1.1//EN" "http://www.w3.org/Graphics/SVG/1.1/DTD/svg11.dtd">
<svg version="1.1" id="Layer_1" xmlns="http://www.w3.org/2000/svg" xmlns:xlink="http://www.w3.org/1999/xlink" x="0px" y="0px"
	 width="48px" height="48px" viewBox="0 0 48 48" enable-background="new 0 0 48 48" xml:space="preserve">
<g>
	<g>
		
			<line fill="none" stroke="#000000" stroke-width="2" stroke-linecap="round" stroke-linejoin="round" stroke-miterlimit="10" x1="35.68" y1="41.683" x2="35.68" y2="31.955"/>
		
			<polyline fill="none" stroke="#000000" stroke-width="2" stroke-linecap="round" stroke-linejoin="round" stroke-miterlimit="10" points="
			40.941,34.957 35.412,30.096 30.416,35.086 		"/>
	</g>
	<g>
		<path fill="none" stroke="#000000" stroke-width="2" stroke-linecap="round" stroke-linejoin="round" stroke-miterlimit="10" d="
			M46.792,35.89c0,6.135-4.98,11.11-11.112,11.11c-6.14,0-11.112-4.976-11.112-11.11c0-6.136,4.973-11.115,11.112-11.115
			C41.812,24.774,46.792,29.754,46.792,35.89z"/>
		<g>
			<path fill="none" stroke="#000000" stroke-width="2" stroke-linecap="round" stroke-linejoin="round" stroke-miterlimit="10" d="
				M39.184,7.429c0,3.55-8.501,6.428-18.989,6.428c-10.483,0-18.986-2.878-18.986-6.428C1.208,3.872,9.711,1,20.194,1
				C30.683,1,39.184,3.872,39.184,7.429z"/>
			<path fill="none" stroke="#000000" stroke-width="2" stroke-linecap="round" stroke-linejoin="round" stroke-miterlimit="10" d="
				M39.184,18.441c0,3.551-8.501,6.429-18.989,6.429c-10.483,0-18.986-2.878-18.986-6.429"/>
			<path fill="none" stroke="#000000" stroke-width="2" stroke-linecap="round" stroke-linejoin="round" stroke-miterlimit="10" d="
				M24.201,35.747c-1.292,0.096-2.633,0.143-4.006,0.143c-10.483,0-18.986-2.883-18.986-6.435"/>
			<path fill="none" stroke="#000000" stroke-width="2" stroke-linecap="round" stroke-linejoin="round" stroke-miterlimit="10" d="
				M39.184,25.343V7.429c0,3.55-8.501,6.428-18.989,6.428c-10.483,0-18.986-2.878-18.986-6.428v33.046
				c0,3.55,8.503,6.431,18.986,6.431c3.892,0,7.51-0.401,10.516-1.076"/>
		</g>
	</g>
</g>
</svg>
