<?xml version="1.0" encoding="utf-8"?>
<!-- Generator: Adobe Illustrator 16.0.0, SVG Export Plug-In . SVG Version: 6.00 Build 0)  -->
<!DOCTYPE svg PUBLIC "-//W3C//DTD SVG 1.1//EN" "http://www.w3.org/Graphics/SVG/1.1/DTD/svg11.dtd">
<svg version="1.1" id="Layer_1" xmlns="http://www.w3.org/2000/svg" xmlns:xlink="http://www.w3.org/1999/xlink" x="0px" y="0px"
	 width="48px" height="48px" viewBox="0 0 48 48" enable-background="new 0 0 48 48" xml:space="preserve">
<g>
	<path fill="none" stroke="#000000" stroke-width="2" stroke-linecap="round" stroke-linejoin="round" stroke-miterlimit="10" d="
		M35.635,26.464c4.308,0.184,7.653,3.831,7.469,8.14c-0.181,4.313-3.824,7.666-8.13,7.486c-4.311-0.184-7.651-3.832-7.468-8.143
		C27.689,29.635,31.328,26.279,35.635,26.464z"/>
	
		<line fill="none" stroke="#000000" stroke-width="2" stroke-linecap="round" stroke-linejoin="round" stroke-miterlimit="10" x1="41.134" y1="41.172" x2="46.426" y2="46.986"/>
	<g>
		<path fill="none" stroke="#000000" stroke-width="2" stroke-linecap="round" stroke-linejoin="round" stroke-miterlimit="10" d="
			M39.625,7.439c0,3.561-8.518,6.44-19.026,6.44c-10.506,0-19.024-2.879-19.024-6.44C1.575,3.877,10.093,1,20.599,1
			C31.107,1,39.625,3.877,39.625,7.439z"/>
		<path fill="none" stroke="#000000" stroke-width="2" stroke-linecap="round" stroke-linejoin="round" stroke-miterlimit="10" d="
			M39.625,18.477c0,3.558-8.518,6.441-19.026,6.441c-10.506,0-19.024-2.883-19.024-6.441"/>
		<path fill="none" stroke="#000000" stroke-width="2" stroke-linecap="round" stroke-linejoin="round" stroke-miterlimit="10" d="
			M22.432,35.93c-0.605,0.017-1.211,0.031-1.833,0.031c-10.506,0-19.024-2.89-19.024-6.447"/>
		<path fill="none" stroke="#000000" stroke-width="2" stroke-linecap="round" stroke-linejoin="round" stroke-miterlimit="10" d="
			M39.625,22.811V7.439c0,3.561-8.518,6.44-19.026,6.44c-10.506,0-19.024-2.879-19.024-6.44v33.113
			c0,3.562,8.518,6.448,19.024,6.448c3.899,0,7.523-0.401,10.538-1.077"/>
	</g>
</g>
</svg>
