<?xml version="1.0" encoding="utf-8"?>
<!-- Generator: Adobe Illustrator 16.0.0, SVG Export Plug-In . SVG Version: 6.00 Build 0)  -->
<!DOCTYPE svg PUBLIC "-//W3C//DTD SVG 1.1//EN" "http://www.w3.org/Graphics/SVG/1.1/DTD/svg11.dtd">
<svg version="1.1" id="Layer_1" xmlns="http://www.w3.org/2000/svg" xmlns:xlink="http://www.w3.org/1999/xlink" x="0px" y="0px"
	 width="48px" height="48px" viewBox="0 0 48 48" enable-background="new 0 0 48 48" xml:space="preserve">
<g>
	<g>
		<g>
			<path fill="none" stroke="#000000" stroke-width="2" stroke-linecap="round" stroke-linejoin="round" stroke-miterlimit="10" d="
				M46.776,34.847c0,4.719-3.825,8.547-8.543,8.547c-4.722,0-8.548-3.828-8.548-8.547c0-4.724,3.826-8.547,8.548-8.547
				C42.951,26.3,46.776,30.123,46.776,34.847z"/>
			<path fill="none" stroke="#000000" stroke-width="2" stroke-linecap="round" stroke-linejoin="round" stroke-miterlimit="10" d="
				M32.871,27.013v-3.312c0-3.158,2.412-5.743,5.362-5.743c2.948,0,5.361,2.585,5.361,5.743v3.312"/>
		</g>
		<path d="M40.214,33.815c0-1.089-0.883-1.98-1.98-1.98c-1.101,0-1.985,0.892-1.985,1.98c0,0.909,0.617,1.642,1.439,1.882v3.604
			h1.086v-3.604C39.6,35.457,40.214,34.725,40.214,33.815z"/>
	</g>
	<g>
		
			<ellipse fill="none" stroke="#000000" stroke-width="2" stroke-linecap="round" stroke-linejoin="round" stroke-miterlimit="10" cx="20.249" cy="7.439" rx="19.025" ry="6.442"/>
		<path fill="none" stroke="#000000" stroke-width="2" stroke-linecap="round" stroke-linejoin="round" stroke-miterlimit="10" d="
			M27.003,24.505c-2.1,0.268-4.377,0.415-6.755,0.415c-10.506,0-19.024-2.883-19.024-6.441"/>
		<path fill="none" stroke="#000000" stroke-width="2" stroke-linecap="round" stroke-linejoin="round" stroke-miterlimit="10" d="
			M24.263,35.815c-1.293,0.101-2.638,0.146-4.015,0.146c-10.506,0-19.024-2.89-19.024-6.447"/>
		<path fill="none" stroke="#000000" stroke-width="2" stroke-linecap="round" stroke-linejoin="round" stroke-miterlimit="10" d="
			M39.274,13.881V7.439c0,3.561-8.517,6.442-19.026,6.442C9.742,13.881,1.224,11,1.224,7.439v33.115
			c0,3.56,8.519,6.446,19.024,6.446c3.9,0,7.521-0.401,10.539-1.077"/>
	</g>
</g>
</svg>
