<?xml version="1.0" encoding="utf-8"?>
<!-- Generator: Adobe Illustrator 16.0.0, SVG Export Plug-In . SVG Version: 6.00 Build 0)  -->
<!DOCTYPE svg PUBLIC "-//W3C//DTD SVG 1.1//EN" "http://www.w3.org/Graphics/SVG/1.1/DTD/svg11.dtd">
<svg version="1.1" id="Layer_1" xmlns="http://www.w3.org/2000/svg" xmlns:xlink="http://www.w3.org/1999/xlink" x="0px" y="0px"
	 width="48px" height="48px" viewBox="0 0 48 48" enable-background="new 0 0 48 48" xml:space="preserve">
<g>
	<path fill="none" stroke="#000000" stroke-width="2" stroke-linecap="round" stroke-linejoin="round" stroke-miterlimit="10" d="
		M47,27.262c0-5.463-4.426-9.89-9.889-9.89c-1.135,0-2.207,0.227-3.216,0.582c-1.3-4.106-5.099-7.104-9.635-7.104
		c-5.265,0-9.542,4.028-10.048,9.163c-1.246-0.635-2.633-1.028-4.126-1.028C5.068,18.985,1,23.051,1,28.068
		c0,4.568,3.389,8.316,7.783,8.95v0.097h0.958c0.113,0.006,0.227,0.035,0.344,0.035c0.121,0,0.229-0.029,0.347-0.035h26.329
		c0.12,0.006,0.229,0.035,0.35,0.035c0.116,0,0.229-0.029,0.346-0.035h0.438v-0.044C42.985,36.665,47,32.454,47,27.262z"/>
</g>
</svg>
