<?xml version="1.0" encoding="utf-8"?>
<!-- Generator: Adobe Illustrator 16.0.0, SVG Export Plug-In . SVG Version: 6.00 Build 0)  -->
<!DOCTYPE svg PUBLIC "-//W3C//DTD SVG 1.1//EN" "http://www.w3.org/Graphics/SVG/1.1/DTD/svg11.dtd">
<svg version="1.1" id="Layer_1" xmlns="http://www.w3.org/2000/svg" xmlns:xlink="http://www.w3.org/1999/xlink" x="0px" y="0px"
	 width="48px" height="48px" viewBox="0 0 48 48" enable-background="new 0 0 48 48" xml:space="preserve">
<g>
	
		<line fill="none" stroke="#000000" stroke-width="2" stroke-linecap="round" stroke-linejoin="round" stroke-miterlimit="10" x1="30.345" y1="24.179" x2="17.66" y2="42.433"/>
	<path fill="none" stroke="#000000" stroke-width="2" stroke-linecap="round" stroke-linejoin="round" stroke-miterlimit="10" d="
		M35.135,33.307c0,6.146-4.988,11.137-11.133,11.137c-6.154,0-11.137-4.99-11.137-11.137c0-6.149,4.982-11.131,11.137-11.131
		C30.146,22.175,35.135,27.157,35.135,33.307z"/>
	<path fill="none" stroke="#000000" stroke-width="2" stroke-linecap="round" stroke-linejoin="round" stroke-miterlimit="10" d="
		M37.111,10.081c-1.134,0-2.204,0.229-3.216,0.583c-1.301-4.11-5.097-7.106-9.633-7.106c-5.271,0-9.542,4.032-10.051,9.164
		c-1.243-0.634-2.633-1.029-4.123-1.029C5.063,11.692,1,15.761,1,20.772c0,4.571,3.386,8.322,7.784,8.951v0.098h0.954
		c0.118,0.009,0.229,0.041,0.351,0.041c0.116,0,0.224-0.032,0.343-0.041h3.045c1.468-4.431,5.598-7.646,10.525-7.646
		c4.922,0,9.053,3.215,10.523,7.646h2.234c0.123,0.009,0.233,0.041,0.352,0.041s0.229-0.032,0.349-0.041h0.44v-0.039
		c5.087-0.406,9.1-4.616,9.1-9.811C47,14.508,42.577,10.081,37.111,10.081z"/>
</g>
</svg>
