<?xml version="1.0" encoding="utf-8"?>
<!-- Generator: Adobe Illustrator 16.0.0, SVG Export Plug-In . SVG Version: 6.00 Build 0)  -->
<!DOCTYPE svg PUBLIC "-//W3C//DTD SVG 1.1//EN" "http://www.w3.org/Graphics/SVG/1.1/DTD/svg11.dtd">
<svg version="1.1" id="Layer_1" xmlns="http://www.w3.org/2000/svg" xmlns:xlink="http://www.w3.org/1999/xlink" x="0px" y="0px"
	 width="48px" height="48px" viewBox="0 0 48 48" enable-background="new 0 0 48 48" xml:space="preserve">
<g>
	<g>
		
			<line fill="none" stroke="#000000" stroke-width="2" stroke-linecap="round" stroke-linejoin="round" stroke-miterlimit="10" x1="24.001" y1="27.5" x2="24.001" y2="37.244"/>
		
			<polyline fill="none" stroke="#000000" stroke-width="2" stroke-linecap="round" stroke-linejoin="round" stroke-miterlimit="10" points="
			18.728,34.243 24.267,39.115 29.273,34.106 		"/>
	</g>
	<path fill="none" stroke="#000000" stroke-width="2" stroke-linecap="round" stroke-linejoin="round" stroke-miterlimit="10" d="
		M35.132,33.307c0,6.148-4.986,11.135-11.131,11.135c-6.151,0-11.139-4.986-11.139-11.135c0-6.147,4.987-11.132,11.139-11.132
		C30.146,22.175,35.132,27.159,35.132,33.307z"/>
	<path fill="none" stroke="#000000" stroke-width="2" stroke-linecap="round" stroke-linejoin="round" stroke-miterlimit="10" d="
		M37.111,10.082c-1.134,0-2.205,0.229-3.219,0.581c-1.299-4.108-5.096-7.104-9.63-7.104c-5.271,0-9.548,4.031-10.05,9.164
		c-1.246-0.634-2.637-1.03-4.128-1.03C5.065,11.692,1,15.761,1,20.773c0,4.573,3.39,8.322,7.785,8.954v0.096h0.953
		c0.12,0.008,0.229,0.04,0.346,0.04c0.122,0,0.229-0.032,0.348-0.04h3.042c1.468-4.432,5.602-7.647,10.527-7.647
		c4.924,0,9.056,3.216,10.522,7.647h2.24c0.121,0.008,0.227,0.04,0.348,0.04c0.118,0,0.227-0.032,0.348-0.04h0.442v-0.04
		C42.987,29.377,47,25.166,47,19.972C47,14.508,42.572,10.082,37.111,10.082z"/>
</g>
</svg>
