<?xml version="1.0" encoding="utf-8"?>
<!-- Generator: Adobe Illustrator 16.0.0, SVG Export Plug-In . SVG Version: 6.00 Build 0)  -->
<!DOCTYPE svg PUBLIC "-//W3C//DTD SVG 1.1//EN" "http://www.w3.org/Graphics/SVG/1.1/DTD/svg11.dtd">
<svg version="1.1" id="Layer_1" xmlns="http://www.w3.org/2000/svg" xmlns:xlink="http://www.w3.org/1999/xlink" x="0px" y="0px"
	 width="48px" height="48px" viewBox="0 0 48 48" enable-background="new 0 0 48 48" xml:space="preserve">
<g>
	<path fill="none" stroke="#000000" stroke-width="2" stroke-linecap="round" stroke-linejoin="round" stroke-miterlimit="10" d="
		M35.136,33.307c0,6.148-4.99,11.135-11.134,11.135c-6.15,0-11.137-4.986-11.137-11.135c0-6.147,4.986-11.13,11.137-11.13
		C30.146,22.176,35.136,27.159,35.136,33.307z"/>
	<g>
		
			<line fill="none" stroke="#000000" stroke-width="2" stroke-linecap="round" stroke-linejoin="round" stroke-miterlimit="10" x1="24.008" y1="34.122" x2="24.008" y2="27.111"/>
		
			<line fill="none" stroke="#000000" stroke-width="2" stroke-linecap="round" stroke-linejoin="round" stroke-miterlimit="10" x1="23.993" y1="39.504" x2="23.993" y2="38.175"/>
	</g>
	<path fill="none" stroke="#000000" stroke-width="2" stroke-linecap="round" stroke-linejoin="round" stroke-miterlimit="10" d="
		M37.111,10.082c-1.138,0-2.203,0.229-3.217,0.582c-1.3-4.109-5.098-7.104-9.638-7.104c-5.262,0-9.54,4.031-10.048,9.163
		c-1.241-0.633-2.629-1.029-4.12-1.029C5.068,11.692,1,15.761,1,20.771c0,4.572,3.385,8.323,7.781,8.954v0.096h0.958
		c0.111,0.009,0.228,0.041,0.349,0.041c0.118,0,0.226-0.032,0.34-0.041h3.05c1.464-4.431,5.594-7.645,10.523-7.645
		c4.922,0,9.05,3.214,10.524,7.645h2.232c0.121,0.009,0.234,0.041,0.353,0.041c0.111,0,0.229-0.032,0.347-0.041h0.438v-0.039
		C42.98,29.376,47,25.164,47,19.972C47,14.508,42.574,10.082,37.111,10.082z"/>
</g>
</svg>
