<?xml version="1.0" encoding="utf-8"?>
<!-- Generator: Adobe Illustrator 16.0.0, SVG Export Plug-In . SVG Version: 6.00 Build 0)  -->
<!DOCTYPE svg PUBLIC "-//W3C//DTD SVG 1.1//EN" "http://www.w3.org/Graphics/SVG/1.1/DTD/svg11.dtd">
<svg version="1.1" id="Layer_1" xmlns="http://www.w3.org/2000/svg" xmlns:xlink="http://www.w3.org/1999/xlink" x="0px" y="0px"
	 width="48px" height="48px" viewBox="0 0 48 48" enable-background="new 0 0 48 48" xml:space="preserve">
<g>
	
		<polyline fill="none" stroke="#000000" stroke-width="2" stroke-linecap="round" stroke-linejoin="round" stroke-miterlimit="10" points="
		24,25.762 24,33.027 28.587,35.46 	"/>
	<path fill="none" stroke="#000000" stroke-width="2" stroke-linecap="round" stroke-linejoin="round" stroke-miterlimit="10" d="
		M35.136,33.305c0,6.15-4.991,11.137-11.136,11.137c-6.148,0-11.132-4.986-11.132-11.137c0-6.145,4.984-11.129,11.132-11.129
		C30.145,22.176,35.136,27.16,35.136,33.305z"/>
	<path fill="none" stroke="#000000" stroke-width="2" stroke-linecap="round" stroke-linejoin="round" stroke-miterlimit="10" d="
		M37.114,10.083c-1.138,0-2.209,0.228-3.217,0.581c-1.302-4.109-5.1-7.104-9.636-7.104c-5.268,0-9.545,4.033-10.048,9.163
		c-1.246-0.633-2.633-1.029-4.127-1.029C5.069,11.692,1,15.761,1,20.772c0,4.572,3.388,8.323,7.783,8.954v0.096h0.958
		c0.114,0.009,0.226,0.04,0.344,0.04c0.122,0,0.229-0.031,0.346-0.04h3.045c1.466-4.431,5.597-7.646,10.523-7.646
		c4.924,0,9.054,3.215,10.524,7.646h2.236c0.121,0.009,0.231,0.04,0.354,0.04c0.114,0,0.224-0.031,0.345-0.04h0.438v-0.039
		C42.985,29.377,47,25.166,47,19.973C47,14.509,42.574,10.083,37.114,10.083z"/>
</g>
</svg>
