<?xml version="1.0" encoding="utf-8"?>
<!-- Generator: Adobe Illustrator 16.0.0, SVG Export Plug-In . SVG Version: 6.00 Build 0)  -->
<!DOCTYPE svg PUBLIC "-//W3C//DTD SVG 1.1//EN" "http://www.w3.org/Graphics/SVG/1.1/DTD/svg11.dtd">
<svg version="1.1" id="Layer_1" xmlns="http://www.w3.org/2000/svg" xmlns:xlink="http://www.w3.org/1999/xlink" x="0px" y="0px"
	 width="48px" height="48px" viewBox="0 0 48 48" enable-background="new 0 0 48 48" xml:space="preserve">
<g>
	<path fill="none" stroke="#000000" stroke-width="2" stroke-linecap="round" stroke-linejoin="round" stroke-miterlimit="10" d="
		M24.335,16.211c4.303,0.184,7.647,3.825,7.463,8.141c-0.178,4.315-3.822,7.66-8.129,7.48c-4.305-0.18-7.648-3.827-7.468-8.142
		C16.386,19.378,20.022,16.027,24.335,16.211z"/>
	<path fill="none" stroke="#000000" stroke-width="2" stroke-linecap="round" stroke-linejoin="round" stroke-miterlimit="10" d="
		M34.523,28.996h2.236c0.123,0.009,0.234,0.041,0.353,0.041c0.116,0,0.226-0.032,0.348-0.041h0.44v-0.04
		c5.083-0.406,9.1-4.616,9.1-9.81c0-5.463-4.427-9.891-9.888-9.891c-1.135,0-2.206,0.229-3.218,0.582
		c-1.301-4.109-5.098-7.105-9.635-7.105c-5.264,0-9.545,4.032-10.048,9.164c-1.245-0.634-2.63-1.03-4.125-1.03
		C5.069,10.867,1,14.935,1,19.947c0,4.571,3.387,8.322,7.784,8.953v0.096h0.955c0.118,0.009,0.228,0.041,0.348,0.041
		s0.228-0.032,0.344-0.041h3.045"/>
	
		<line fill="none" stroke="#000000" stroke-width="2" stroke-linecap="round" stroke-linejoin="round" stroke-miterlimit="10" x1="27.026" y1="31.311" x2="33.294" y2="45.267"/>
</g>
</svg>
