<?xml version="1.0" encoding="utf-8"?>
<!-- Generator: Adobe Illustrator 16.0.0, SVG Export Plug-In . SVG Version: 6.00 Build 0)  -->
<!DOCTYPE svg PUBLIC "-//W3C//DTD SVG 1.1//EN" "http://www.w3.org/Graphics/SVG/1.1/DTD/svg11.dtd">
<svg version="1.1" id="Layer_1" xmlns="http://www.w3.org/2000/svg" xmlns:xlink="http://www.w3.org/1999/xlink" x="0px" y="0px"
	 width="48px" height="48px" viewBox="0 0 48 48" enable-background="new 0 0 48 48" xml:space="preserve">
<g>
	<g>
		<path fill="none" stroke="#000000" stroke-width="2" stroke-linecap="round" stroke-linejoin="round" stroke-miterlimit="10" d="
			M26.169,20.105l2.252,4.402c1.537,3.004,0.532,6.628-2.232,8.046c-2.771,1.417-6.293,0.124-7.828-2.881l-2.25-4.401"/>
		
			<line fill="none" stroke="#000000" stroke-width="2" stroke-linecap="round" stroke-linejoin="round" stroke-miterlimit="10" x1="26.188" y1="32.553" x2="31.265" y2="42.478"/>
	</g>
	<path fill="none" stroke="#000000" stroke-width="2" stroke-linecap="round" stroke-linejoin="round" stroke-miterlimit="10" d="
		M34.523,31.783h2.232c0.123,0.01,0.234,0.04,0.355,0.04c0.113,0,0.227-0.03,0.344-0.04h0.442v-0.04
		C42.981,31.338,47,27.129,47,21.935c0-5.463-4.425-9.889-9.889-9.889c-1.14,0-2.205,0.228-3.217,0.58
		c-1.302-4.108-5.098-7.104-9.637-7.104c-5.263,0-9.54,4.031-10.05,9.163c-1.238-0.633-2.63-1.029-4.123-1.029
		C5.067,13.656,1,17.724,1,22.735c0,4.572,3.384,8.324,7.778,8.954v0.095h0.96c0.113,0.01,0.229,0.04,0.346,0.04
		c0.121,0,0.229-0.03,0.342-0.04h3.049"/>
</g>
</svg>
