<?xml version="1.0" encoding="utf-8"?>
<!-- Generator: Adobe Illustrator 16.0.0, SVG Export Plug-In . SVG Version: 6.00 Build 0)  -->
<!DOCTYPE svg PUBLIC "-//W3C//DTD SVG 1.1//EN" "http://www.w3.org/Graphics/SVG/1.1/DTD/svg11.dtd">
<svg version="1.1" id="Layer_1" xmlns="http://www.w3.org/2000/svg" xmlns:xlink="http://www.w3.org/1999/xlink" x="0px" y="0px"
	 width="48px" height="48px" viewBox="0 0 48 48" enable-background="new 0 0 48 48" xml:space="preserve">
<g>
	
		<line fill="none" stroke="#000000" stroke-width="2" stroke-linecap="round" stroke-linejoin="round" stroke-miterlimit="10" x1="30.979" y1="35.481" x2="40.794" y2="35.481"/>
	<path fill="none" stroke="#000000" stroke-width="2" stroke-linecap="round" stroke-linejoin="round" stroke-miterlimit="10" d="
		M27.501,9.053c0,4.223-3.472,7.649-7.754,7.649c-4.286,0-7.757-3.426-7.757-7.649c0-4.229,3.472-7.651,7.757-7.651
		C24.029,1.402,27.501,4.825,27.501,9.053z"/>
	<path fill="none" stroke="#000000" stroke-width="2" stroke-linecap="round" stroke-linejoin="round" stroke-miterlimit="10" d="
		M47,35.478c0,6.144-4.98,11.12-11.112,11.12c-6.144,0-11.117-4.977-11.117-11.12c0-6.135,4.974-11.112,11.117-11.112
		C42.02,24.365,47,29.343,47,35.478z"/>
	<path fill="none" stroke="#000000" stroke-width="2" stroke-linecap="round" stroke-linejoin="round" stroke-miterlimit="10" d="
		M24.771,35.478c0-4.821,3.085-8.883,7.377-10.423c-3.304-2.882-7.639-4.65-12.401-4.65C9.391,20.404,1,28.684,1,38.896h24.357
		C25.005,37.812,24.771,36.676,24.771,35.478z"/>
</g>
</svg>
