<?xml version="1.0" encoding="utf-8"?>
<!-- Generator: Adobe Illustrator 16.0.0, SVG Export Plug-In . SVG Version: 6.00 Build 0)  -->
<!DOCTYPE svg PUBLIC "-//W3C//DTD SVG 1.1//EN" "http://www.w3.org/Graphics/SVG/1.1/DTD/svg11.dtd">
<svg version="1.1" id="Layer_1" xmlns="http://www.w3.org/2000/svg" xmlns:xlink="http://www.w3.org/1999/xlink" x="0px" y="0px"
	 width="48px" height="48px" viewBox="0 0 48 48" enable-background="new 0 0 48 48" xml:space="preserve">
<g>
	
		<polyline fill="none" stroke="#000000" stroke-width="2" stroke-linecap="round" stroke-linejoin="round" stroke-miterlimit="10" points="
		29.403,34.699 34.304,39.771 42.363,31.189 	"/>
	<path fill="none" stroke="#000000" stroke-width="2" stroke-linecap="round" stroke-linejoin="round" stroke-miterlimit="10" d="
		M27.499,9.055c0,4.222-3.471,7.648-7.751,7.648c-4.287,0-7.758-3.426-7.758-7.648c0-4.227,3.472-7.65,7.758-7.65
		C24.028,1.405,27.499,4.828,27.499,9.055z"/>
	<path fill="none" stroke="#000000" stroke-width="2" stroke-linecap="round" stroke-linejoin="round" stroke-miterlimit="10" d="
		M47,35.478c0,6.14-4.984,11.118-11.114,11.118c-6.146,0-11.113-4.979-11.113-11.118c0-6.136,4.968-11.114,11.113-11.114
		C42.016,24.364,47,29.342,47,35.478z"/>
	<path fill="none" stroke="#000000" stroke-width="2" stroke-linecap="round" stroke-linejoin="round" stroke-miterlimit="10" d="
		M24.772,35.478c0-4.823,3.083-8.883,7.378-10.424c-3.309-2.882-7.644-4.649-12.403-4.649C9.389,20.404,1,28.684,1,38.894h24.355
		C25.005,37.81,24.772,36.674,24.772,35.478z"/>
</g>
</svg>
