<?xml version="1.0" encoding="utf-8"?>
<!-- Generator: Adobe Illustrator 16.0.0, SVG Export Plug-In . SVG Version: 6.00 Build 0)  -->
<!DOCTYPE svg PUBLIC "-//W3C//DTD SVG 1.1//EN" "http://www.w3.org/Graphics/SVG/1.1/DTD/svg11.dtd">
<svg version="1.1" id="Layer_1" xmlns="http://www.w3.org/2000/svg" xmlns:xlink="http://www.w3.org/1999/xlink" x="0px" y="0px"
	 width="48px" height="48px" viewBox="0 0 48 48" enable-background="new 0 0 48 48" xml:space="preserve">
<g>
	
		<line fill="none" stroke="#000000" stroke-width="2" stroke-linecap="round" stroke-linejoin="round" stroke-miterlimit="10" x1="42.115" y1="26.518" x2="29.652" y2="44.441"/>
	<path fill="none" stroke="#000000" stroke-width="2" stroke-linecap="round" stroke-linejoin="round" stroke-miterlimit="10" d="
		M27.502,9.055c0,4.221-3.476,7.648-7.754,7.648c-4.285,0-7.757-3.427-7.757-7.648c0-4.227,3.472-7.65,7.757-7.65
		C24.026,1.405,27.502,4.828,27.502,9.055z"/>
	<path fill="none" stroke="#000000" stroke-width="2" stroke-linecap="round" stroke-linejoin="round" stroke-miterlimit="10" d="
		M47,35.478c0,6.14-4.984,11.118-11.111,11.118c-6.145,0-11.118-4.979-11.118-11.118c0-6.136,4.974-11.113,11.118-11.113
		C42.016,24.365,47,29.342,47,35.478z"/>
	<path fill="none" stroke="#000000" stroke-width="2" stroke-linecap="round" stroke-linejoin="round" stroke-miterlimit="10" d="
		M24.771,35.478c0-4.823,3.082-8.883,7.38-10.424c-3.311-2.882-7.644-4.649-12.403-4.649C9.394,20.404,1,28.684,1,38.894h24.358
		C25.007,37.808,24.771,36.674,24.771,35.478z"/>
</g>
</svg>
