<?xml version="1.0" encoding="utf-8"?>
<!-- Generator: Adobe Illustrator 16.0.0, SVG Export Plug-In . SVG Version: 6.00 Build 0)  -->
<!DOCTYPE svg PUBLIC "-//W3C//DTD SVG 1.1//EN" "http://www.w3.org/Graphics/SVG/1.1/DTD/svg11.dtd">
<svg version="1.1" id="Layer_1" xmlns="http://www.w3.org/2000/svg" xmlns:xlink="http://www.w3.org/1999/xlink" x="0px" y="0px"
	 width="48px" height="48px" viewBox="0 0 48 48" enable-background="new 0 0 48 48" xml:space="preserve">
<g>
	<g>
		<path d="M22.391,29.188l-0.063-0.83c-0.191-1.719,0.381-3.596,1.974-5.505c1.432-1.688,2.229-2.932,2.229-4.363
			c0-1.624-1.019-2.707-3.026-2.739c-1.145,0-2.418,0.383-3.214,0.988l-0.765-2.004c1.05-0.766,2.866-1.276,4.553-1.276
			c3.661,0,5.317,2.26,5.317,4.681c0,2.165-1.21,3.725-2.739,5.539c-1.4,1.658-1.91,3.056-1.814,4.679l0.032,0.83H22.391z
			 M21.69,33.646c0-1.18,0.797-2.007,1.91-2.007c1.113,0,1.879,0.827,1.879,2.007c0,1.112-0.733,1.973-1.911,1.973
			C22.455,35.618,21.69,34.758,21.69,33.646z"/>
	</g>
	
		<circle fill="none" stroke="#000000" stroke-width="2" stroke-linecap="round" stroke-linejoin="round" stroke-miterlimit="10" cx="24" cy="24" r="23"/>
</g>
</svg>
