<?xml version="1.0" encoding="utf-8"?>
<!-- Generator: Adobe Illustrator 16.0.0, SVG Export Plug-In . SVG Version: 6.00 Build 0)  -->
<!DOCTYPE svg PUBLIC "-//W3C//DTD SVG 1.1//EN" "http://www.w3.org/Graphics/SVG/1.1/DTD/svg11.dtd">
<svg version="1.1" id="Layer_1" xmlns="http://www.w3.org/2000/svg" xmlns:xlink="http://www.w3.org/1999/xlink" x="0px" y="0px"
	 width="48px" height="48px" viewBox="0 0 48 48" enable-background="new 0 0 48 48" xml:space="preserve">
<g>
	<g>
		<g>
			<path fill="none" stroke="#000000" stroke-width="2" stroke-linecap="round" stroke-linejoin="round" stroke-miterlimit="10" d="
				M47,38.098c0,4.602-3.73,8.333-8.331,8.333c-4.604,0-8.337-3.731-8.337-8.333c0-4.606,3.733-8.336,8.337-8.336
				C43.27,29.762,47,33.491,47,38.098z"/>
			<path fill="none" stroke="#000000" stroke-width="2" stroke-linecap="round" stroke-linejoin="round" stroke-miterlimit="10" d="
				M33.441,30.461v-3.231c0-3.082,2.347-5.601,5.228-5.601c2.875,0,5.229,2.519,5.229,5.601v3.231"/>
		</g>
		<path d="M40.604,37.098c0-1.068-0.866-1.933-1.935-1.933c-1.074,0-1.938,0.864-1.938,1.933c0,0.879,0.6,1.595,1.407,1.829v3.516
			h1.058v-3.516C40.004,38.692,40.604,37.977,40.604,37.098z"/>
	</g>
	
		<ellipse fill="none" stroke="#000000" stroke-width="2" stroke-linecap="round" stroke-linejoin="round" stroke-miterlimit="10" cx="19.606" cy="9.162" rx="7.7" ry="7.592"/>
	<path fill="none" stroke="#000000" stroke-width="2" stroke-linecap="round" stroke-linejoin="round" stroke-miterlimit="10" d="
		M28.92,22.912c-2.735-1.578-5.916-2.482-9.314-2.482C9.329,20.429,1,28.649,1,38.79h24.176"/>
</g>
</svg>
