<?xml version="1.0" encoding="utf-8"?>
<!-- Generator: Adobe Illustrator 16.0.0, SVG Export Plug-In . SVG Version: 6.00 Build 0)  -->
<!DOCTYPE svg PUBLIC "-//W3C//DTD SVG 1.1//EN" "http://www.w3.org/Graphics/SVG/1.1/DTD/svg11.dtd">
<svg version="1.1" id="Layer_1" xmlns="http://www.w3.org/2000/svg" xmlns:xlink="http://www.w3.org/1999/xlink" x="0px" y="0px"
	 width="48px" height="48px" viewBox="0 0 48 48" enable-background="new 0 0 48 48" xml:space="preserve">
<g>
	<g>
		<path fill="none" stroke="#000000" stroke-width="2" stroke-linecap="round" stroke-linejoin="round" stroke-miterlimit="10" d="
			M46.817,33.484l-3.289,3.846c-2.248,2.622-6.066,3.076-8.483,1.007c-2.422-2.072-2.563-5.909-0.314-8.528l3.291-3.839"/>
		
			<line fill="none" stroke="#000000" stroke-width="2" stroke-linecap="round" stroke-linejoin="round" stroke-miterlimit="10" x1="35.045" y1="38.337" x2="27.62" y2="47"/>
	</g>
	<path fill="none" stroke="#000000" stroke-width="2" stroke-linecap="round" stroke-linejoin="round" stroke-miterlimit="10" d="
		M28.774,8.964c0,4.399-3.611,7.963-8.076,7.963c-4.462,0-8.075-3.564-8.075-7.963c0-4.4,3.612-7.964,8.075-7.964
		C25.163,1,28.774,4.564,28.774,8.964z"/>
	<path fill="none" stroke="#000000" stroke-width="2" stroke-linecap="round" stroke-linejoin="round" stroke-miterlimit="10" d="
		M31.665,24.123c-3.128-2.097-6.896-3.339-10.967-3.339c-10.778,0-19.516,8.625-19.516,19.259h21.449"/>
</g>
</svg>
