<?xml version="1.0" encoding="utf-8"?>
<!-- Generator: Adobe Illustrator 16.0.0, SVG Export Plug-In . SVG Version: 6.00 Build 0)  -->
<!DOCTYPE svg PUBLIC "-//W3C//DTD SVG 1.1//EN" "http://www.w3.org/Graphics/SVG/1.1/DTD/svg11.dtd">
<svg version="1.1" id="Layer_1" xmlns="http://www.w3.org/2000/svg" xmlns:xlink="http://www.w3.org/1999/xlink" x="0px" y="0px"
	 width="48px" height="48px" viewBox="0 0 48 48" enable-background="new 0 0 48 48" xml:space="preserve">
<g>
	<g>
		<path fill="none" stroke="#000000" stroke-width="2" stroke-linecap="round" stroke-linejoin="round" stroke-miterlimit="10" d="
			M36.141,24.188c4.381,0.183,7.788,3.888,7.599,8.275c-0.184,4.396-3.892,7.803-8.276,7.62c-4.38-0.188-7.781-3.898-7.592-8.29
			C28.06,27.406,31.757,23.995,36.141,24.188z"/>
		
			<line fill="none" stroke="#000000" stroke-width="2" stroke-linecap="round" stroke-linejoin="round" stroke-miterlimit="10" x1="40.558" y1="38.636" x2="46.328" y2="47"/>
	</g>
	<path fill="none" stroke="#000000" stroke-width="2" stroke-linecap="round" stroke-linejoin="round" stroke-miterlimit="10" d="
		M29.119,8.92c0,4.375-3.602,7.92-8.033,7.92c-4.438,0-8.036-3.545-8.036-7.92c0-4.376,3.599-7.92,8.036-7.92
		C25.518,1,29.119,4.544,29.119,8.92z"/>
	<path fill="none" stroke="#000000" stroke-width="2" stroke-linecap="round" stroke-linejoin="round" stroke-miterlimit="10" d="
		M29.013,22.354c-2.413-1.073-5.1-1.679-7.927-1.679c-10.724,0-19.414,8.578-19.414,19.151h21.33"/>
</g>
</svg>
