<?xml version="1.0" encoding="utf-8"?>
<!-- Generator: Adobe Illustrator 16.0.0, SVG Export Plug-In . SVG Version: 6.00 Build 0)  -->
<!DOCTYPE svg PUBLIC "-//W3C//DTD SVG 1.1//EN" "http://www.w3.org/Graphics/SVG/1.1/DTD/svg11.dtd">
<svg version="1.1" id="Layer_1" xmlns="http://www.w3.org/2000/svg" xmlns:xlink="http://www.w3.org/1999/xlink" x="0px" y="0px"
	 width="48px" height="48px" viewBox="0 0 48 48" enable-background="new 0 0 48 48" xml:space="preserve">
<g>
	<path fill="none" stroke="#000000" stroke-width="2" stroke-linecap="round" stroke-linejoin="round" stroke-miterlimit="10" d="
		M27.504,9.052c0,4.222-3.478,7.647-7.757,7.647c-4.283,0-7.76-3.425-7.76-7.647c0-4.225,3.478-7.649,7.76-7.649
		C24.026,1.403,27.504,4.827,27.504,9.052z"/>
	<path fill="none" stroke="#000000" stroke-width="2" stroke-linecap="round" stroke-linejoin="round" stroke-miterlimit="10" d="
		M47,35.479c0,6.141-4.978,11.118-11.11,11.118c-6.145,0-11.114-4.978-11.114-11.118s4.97-11.116,11.114-11.116
		C42.022,24.362,47,29.338,47,35.479z"/>
	<path fill="none" stroke="#000000" stroke-width="2" stroke-linecap="round" stroke-linejoin="round" stroke-miterlimit="10" d="
		M24.775,35.479c0-4.821,3.083-8.887,7.378-10.426c-3.313-2.882-7.642-4.651-12.407-4.651C9.392,20.402,1,28.684,1,38.896h24.356
		C25.01,37.809,24.775,36.677,24.775,35.479z"/>
	
		<line fill="none" stroke="#000000" stroke-width="2" stroke-linecap="round" stroke-linejoin="round" stroke-miterlimit="10" x1="31.307" y1="32.854" x2="40.281" y2="32.854"/>
	
		<line fill="none" stroke="#000000" stroke-width="2" stroke-linecap="round" stroke-linejoin="round" stroke-miterlimit="10" x1="31.307" y1="38.896" x2="40.281" y2="38.896"/>
</g>
</svg>
