<?xml version="1.0" encoding="utf-8"?>
<!-- Generator: Adobe Illustrator 16.0.0, SVG Export Plug-In . SVG Version: 6.00 Build 0)  -->
<!DOCTYPE svg PUBLIC "-//W3C//DTD SVG 1.1//EN" "http://www.w3.org/Graphics/SVG/1.1/DTD/svg11.dtd">
<svg version="1.1" id="Layer_1" xmlns="http://www.w3.org/2000/svg" xmlns:xlink="http://www.w3.org/1999/xlink" x="0px" y="0px"
	 width="48px" height="48px" viewBox="0 0 48 48" enable-background="new 0 0 48 48" xml:space="preserve">
<g>
	<path fill="none" stroke="#000000" stroke-width="2" stroke-linecap="round" stroke-linejoin="round" stroke-miterlimit="10" d="
		M27.733,9.124c0,4.258-3.502,7.715-7.823,7.715c-4.324,0-7.827-3.458-7.827-7.715c0-4.264,3.503-7.717,7.827-7.717
		C24.231,1.406,27.733,4.86,27.733,9.124z"/>
	<path fill="none" stroke="#000000" stroke-width="2" stroke-linecap="round" stroke-linejoin="round" stroke-miterlimit="10" d="
		M27.207,22.025c-2.248-0.935-4.711-1.453-7.297-1.453C9.465,20.572,1,28.927,1,39.23h24.567"/>
	<g>
		<g>
			
				<line fill="none" stroke="#000000" stroke-width="2" stroke-linecap="round" stroke-linejoin="round" stroke-miterlimit="10" x1="39.336" y1="30.617" x2="39.336" y2="20.959"/>
			
				<polyline fill="none" stroke="#000000" stroke-width="2" stroke-linecap="round" stroke-linejoin="round" stroke-miterlimit="10" points="
				44.562,23.938 39.078,19.111 34.112,24.069 			"/>
		</g>
		<path fill="none" stroke="#000000" stroke-width="2" stroke-linecap="round" stroke-linejoin="round" stroke-miterlimit="10" d="
			M31.675,38.933c0-4.229,3.433-7.66,7.665-7.66c4.227,0,7.66,3.431,7.66,7.66c0,4.229-3.434,7.661-7.66,7.661
			C35.107,46.594,31.675,43.161,31.675,38.933z"/>
	</g>
</g>
</svg>
