<?xml version="1.0" encoding="utf-8"?>
<!-- Generator: Adobe Illustrator 16.0.0, SVG Export Plug-In . SVG Version: 6.00 Build 0)  -->
<!DOCTYPE svg PUBLIC "-//W3C//DTD SVG 1.1//EN" "http://www.w3.org/Graphics/SVG/1.1/DTD/svg11.dtd">
<svg version="1.1" id="Layer_1" xmlns="http://www.w3.org/2000/svg" xmlns:xlink="http://www.w3.org/1999/xlink" x="0px" y="0px"
	 width="48px" height="48px" viewBox="0 0 48 48" enable-background="new 0 0 48 48" xml:space="preserve">
<g>
	<g>
		<path fill="none" stroke="#000000" stroke-width="2" stroke-linecap="round" stroke-miterlimit="10" d="M15.318,37.075
			c-2.396-2.701-3.886-6.509-3.886-10.732c0-3.098,0.802-5.971,2.17-8.347"/>
		<path fill="none" stroke="#000000" stroke-width="2" stroke-linecap="round" stroke-miterlimit="10" d="M34.316,17.856
			c1.416,2.409,2.249,5.333,2.249,8.487c0,4.188-1.465,7.97-3.825,10.67"/>
		<path fill="none" stroke="#000000" stroke-width="2" stroke-miterlimit="10" d="M26.984,3.027c-1.646-2.703-4.328-2.703-5.969,0
			l-6.469,10.625c-1.64,2.696-0.4,4.907,2.763,4.907H30.69c3.157,0,4.404-2.21,2.756-4.907L26.984,3.027z"/>
		<g>
			<path fill="none" stroke="#000000" stroke-width="2" stroke-linecap="round" stroke-miterlimit="10" d="M12.273,20.443
				c0,0-6.249-3.784-5.988,1.228c0.271,5.014,2.563,8.306,5.197,9.361"/>
			<path fill="none" stroke="#000000" stroke-width="2" stroke-linecap="round" stroke-miterlimit="10" d="M35.727,20.443
				c0,0,6.256-3.784,5.988,1.228c-0.271,5.014-2.564,8.306-5.196,9.361"/>
		</g>
	</g>
	<g>
		<path d="M20.624,24.374c0,0.657-0.529,1.184-1.184,1.184c-0.661,0-1.19-0.527-1.19-1.184c0-0.653,0.53-1.184,1.19-1.184
			C20.095,23.189,20.624,23.72,20.624,24.374z"/>
		<path d="M29.749,24.374c0,0.657-0.529,1.184-1.181,1.184c-0.661,0-1.19-0.527-1.19-1.184c0-0.653,0.529-1.184,1.19-1.184
			C29.22,23.189,29.749,23.72,29.749,24.374z"/>
	</g>
	<path fill="none" stroke="#000000" stroke-width="2" stroke-linecap="round" stroke-miterlimit="10" d="M20.739,33.189
		c0,0,2.791,2.532,6.525,0"/>
	<path fill="none" stroke="#000000" stroke-width="2" stroke-linecap="round" stroke-miterlimit="10" d="M32.603,36.418
		c0,4.646-5.119,10.582-8.138,10.582c-3.312,0-9.062-5.937-9.062-10.582c0-4.642,3.846-8.404,8.602-8.404
		C28.755,28.014,32.603,31.776,32.603,36.418z"/>
</g>
</svg>
