<?xml version="1.0" encoding="utf-8"?>
<!-- Generator: Adobe Illustrator 16.0.0, SVG Export Plug-In . SVG Version: 6.00 Build 0)  -->
<!DOCTYPE svg PUBLIC "-//W3C//DTD SVG 1.1//EN" "http://www.w3.org/Graphics/SVG/1.1/DTD/svg11.dtd">
<svg version="1.1" id="Layer_1" xmlns="http://www.w3.org/2000/svg" xmlns:xlink="http://www.w3.org/1999/xlink" x="0px" y="0px"
	 width="48px" height="48px" viewBox="0 0 48 48" enable-background="new 0 0 48 48" xml:space="preserve">
<g>
	<path d="M20.358,24.143c0,0.672-0.575,1.218-1.271,1.218c-0.715,0-1.279-0.546-1.279-1.218c0-0.676,0.563-1.216,1.279-1.216
		C19.783,22.927,20.358,23.467,20.358,24.143z"/>
	<path d="M30.191,24.143c0,0.672-0.563,1.218-1.269,1.218c-0.71,0-1.281-0.546-1.281-1.218c0-0.676,0.571-1.216,1.281-1.216
		C29.628,22.927,30.191,23.467,30.191,24.143z"/>
	<path d="M28.92,44.339c0,1.47-2.258,2.66-5.034,2.66c-2.8,0-5.059-1.19-5.059-2.66c0-1.471,2.259-2.663,5.059-2.663
		C26.662,41.676,28.92,42.868,28.92,44.339z"/>
	<path fill="none" stroke="#000000" stroke-width="2" stroke-linecap="round" stroke-miterlimit="10" d="M36.653,23.901
		c0,6.475-4.169,23.098-12.653,23.098c-10.208,0-12.651-16.623-12.651-23.098c0-6.477,5.662-11.721,12.651-11.721
		C30.985,12.18,36.653,17.424,36.653,23.901z"/>
	<g>
		
			<polyline fill="none" stroke="#000000" stroke-width="2" stroke-linecap="round" stroke-linejoin="round" stroke-miterlimit="10" points="
			12.449,18.283 1,29.59 10.899,29.59 		"/>
		
			<polyline fill="none" stroke="#000000" stroke-width="2" stroke-linecap="round" stroke-linejoin="round" stroke-miterlimit="10" points="
			35.55,18.283 47,29.59 37.097,29.59 		"/>
	</g>
	<g>
		<path fill="none" stroke="#000000" stroke-width="2" stroke-linecap="round" stroke-miterlimit="10" d="M1.403,1.948
			c0,0-3.874,10.832,15.834,6.581c0,0,4.026-1.475,3.521,3.65"/>
		<path fill="none" stroke="#000000" stroke-width="2" stroke-linecap="round" stroke-miterlimit="10" d="M6.443,1.001
			c0,0-1.259,5.775,0.68,7.85"/>
		<path fill="none" stroke="#000000" stroke-width="2" stroke-linecap="round" stroke-miterlimit="10" d="M11.605,1.001
			c0,0-1.262,5.775,0.685,7.85"/>
		<path fill="none" stroke="#000000" stroke-width="2" stroke-linecap="round" stroke-miterlimit="10" d="M46.598,1.948
			c0,0,3.873,10.832-15.832,6.581c0,0-4.029-1.475-3.525,3.65"/>
		<path fill="none" stroke="#000000" stroke-width="2" stroke-linecap="round" stroke-miterlimit="10" d="M41.559,1.001
			c0,0,1.257,5.775-0.686,7.85"/>
		<path fill="none" stroke="#000000" stroke-width="2" stroke-linecap="round" stroke-miterlimit="10" d="M36.396,1.001
			c0,0,1.258,5.775-0.687,7.85"/>
	</g>
</g>
</svg>
