<?xml version="1.0" encoding="utf-8"?>
<!-- Generator: Adobe Illustrator 16.0.0, SVG Export Plug-In . SVG Version: 6.00 Build 0)  -->
<!DOCTYPE svg PUBLIC "-//W3C//DTD SVG 1.1//EN" "http://www.w3.org/Graphics/SVG/1.1/DTD/svg11.dtd">
<svg version="1.1" id="Layer_1" xmlns="http://www.w3.org/2000/svg" xmlns:xlink="http://www.w3.org/1999/xlink" x="0px" y="0px"
	 width="48px" height="48px" viewBox="0 0 48 48" enable-background="new 0 0 48 48" xml:space="preserve">
<g>
	<path fill="none" stroke="#000000" stroke-width="2" stroke-miterlimit="10" d="M38.612,46.998c-9.74,0-19.484,0-29.229,0
		c-9.895-13.961-9.895-32.035,0-45.997c9.744,0,19.488,0,29.229,0C48.509,14.963,48.509,33.037,38.612,46.998z"/>
	<path fill="none" stroke="#000000" stroke-width="2" stroke-miterlimit="10" d="M32.606,46.998c-5.741,0-11.475,0-17.213,0
		c-5.825-13.961-5.825-32.035,0-45.997c5.738,0,11.472,0,17.213,0C38.431,14.963,38.431,33.037,32.606,46.998z"/>
	<g>
		
			<line fill="none" stroke="#000000" stroke-width="2" stroke-linecap="round" stroke-miterlimit="10" x1="1" y1="8.751" x2="47" y2="8.751"/>
		
			<line fill="none" stroke="#000000" stroke-width="2" stroke-linecap="round" stroke-miterlimit="10" x1="1" y1="39.247" x2="47" y2="39.247"/>
	</g>
	
		<line fill="none" stroke="#000000" stroke-width="2" stroke-linecap="round" stroke-miterlimit="10" x1="23.997" y1="1.864" x2="23.997" y2="46.135"/>
</g>
</svg>
