<?xml version="1.0" encoding="utf-8"?>
<!-- Generator: Adobe Illustrator 16.0.0, SVG Export Plug-In . SVG Version: 6.00 Build 0)  -->
<!DOCTYPE svg PUBLIC "-//W3C//DTD SVG 1.1//EN" "http://www.w3.org/Graphics/SVG/1.1/DTD/svg11.dtd">
<svg version="1.1" id="Layer_1" xmlns="http://www.w3.org/2000/svg" xmlns:xlink="http://www.w3.org/1999/xlink" x="0px" y="0px"
	 width="48px" height="48px" viewBox="0 0 48 48" enable-background="new 0 0 48 48" xml:space="preserve">
<g>
	<path fill="none" stroke="#000000" stroke-width="2" stroke-miterlimit="10" d="M46.998,24.001C46.998,36.7,36.703,47,24.001,47
		c-12.707,0-23-10.3-23-22.999C1.001,11.298,11.295,1,24.001,1C36.703,1,46.998,11.298,46.998,24.001z"/>
	<path fill="none" stroke="#000000" stroke-width="2" stroke-miterlimit="10" d="M15.084,2.789c0,0-10.74,18.496,20.455,41.103"/>
	<path fill="none" stroke="#000000" stroke-width="2" stroke-miterlimit="10" d="M4.344,35.951c0,0,6.063-30.06,40.046-22.589"/>
	<path fill="none" stroke="#000000" stroke-width="2" stroke-miterlimit="10" d="M36.58,4.751c0,0-14.704-1.591-11.671,8.649
		c3.032,10.238,20.1,14.991,21.675,14.963"/>
	<path fill="none" stroke="#000000" stroke-width="2" stroke-miterlimit="10" d="M1.001,25.54c0,0,5.413-7.65,9.585-2.431
		c4.172,5.215,3.346,12.704,1.564,20.604"/>
</g>
</svg>
