<?xml version="1.0" encoding="utf-8"?>
<!-- Generator: Adobe Illustrator 16.0.0, SVG Export Plug-In . SVG Version: 6.00 Build 0)  -->
<!DOCTYPE svg PUBLIC "-//W3C//DTD SVG 1.1//EN" "http://www.w3.org/Graphics/SVG/1.1/DTD/svg11.dtd">
<svg version="1.1" id="Layer_1" xmlns="http://www.w3.org/2000/svg" xmlns:xlink="http://www.w3.org/1999/xlink" x="0px" y="0px"
	 width="48px" height="48px" viewBox="0 0 48 48" enable-background="new 0 0 48 48" xml:space="preserve">
<g>
	<path fill="none" stroke="#000000" stroke-width="2" stroke-miterlimit="10" d="M14.315,36.331l-9.458,9.455
		c-1.191,1.193-2.761,1.569-3.487,0.843c-0.726-0.729-0.353-2.298,0.837-3.488l6.657-6.656c0.755-0.754,1.822-1.817,2.802-2.8"/>
	<path fill="none" stroke="#000000" stroke-width="2" stroke-miterlimit="10" d="M34.508,10.844l3.346-3.346
		c1.193-1.194,2.761-1.57,3.484-0.844c0.731,0.731,0.352,2.3-0.836,3.49l-3.027,3.022"/>
	<g>
		<path fill="none" stroke="#000000" stroke-width="2" stroke-miterlimit="10" d="M11.331,37.269
			c0-14.298,17.605-34.545,19.322-36.268l5.163,11.78"/>
		<path fill="none" stroke="#000000" stroke-width="2" stroke-miterlimit="10" d="M10.731,36.666
			c14.291,0,34.543-17.602,36.269-19.325l-11.781-5.16"/>
	</g>
	<line fill="none" stroke="#000000" stroke-width="2" stroke-miterlimit="10" x1="35.516" y1="12.48" x2="11.032" y2="36.966"/>
</g>
</svg>
