<?xml version="1.0" encoding="utf-8"?>
<!-- Generator: Adobe Illustrator 16.0.0, SVG Export Plug-In . SVG Version: 6.00 Build 0)  -->
<!DOCTYPE svg PUBLIC "-//W3C//DTD SVG 1.1//EN" "http://www.w3.org/Graphics/SVG/1.1/DTD/svg11.dtd">
<svg version="1.1" id="Layer_1" xmlns="http://www.w3.org/2000/svg" xmlns:xlink="http://www.w3.org/1999/xlink" x="0px" y="0px"
	 width="48px" height="48px" viewBox="0 0 48 48" enable-background="new 0 0 48 48" xml:space="preserve">
<g>
	<path fill="none" stroke="#000000" stroke-width="2" stroke-miterlimit="10" d="M22.691,36.286C22.691,42.201,17.837,47,11.846,47
		C5.854,47,1,42.201,1,36.286c0-5.913,4.854-10.71,10.846-10.71C17.837,25.576,22.691,30.373,22.691,36.286z"/>
	<line fill="none" stroke="#000000" stroke-width="2" stroke-miterlimit="10" x1="11.846" y1="1" x2="11.846" y2="25.609"/>
	<path fill="none" stroke="#000000" stroke-width="2" stroke-miterlimit="10" d="M47,36.286C47,42.201,42.146,47,36.151,47
		c-5.985,0-10.846-4.799-10.846-10.714c0-5.913,4.86-10.71,10.846-10.71C42.146,25.576,47,30.373,47,36.286z"/>
	<line fill="none" stroke="#000000" stroke-width="2" stroke-miterlimit="10" x1="36.151" y1="1" x2="36.151" y2="25.609"/>
</g>
</svg>
