<?xml version="1.0" encoding="utf-8"?>
<!-- Generator: Adobe Illustrator 16.0.0, SVG Export Plug-In . SVG Version: 6.00 Build 0)  -->
<!DOCTYPE svg PUBLIC "-//W3C//DTD SVG 1.1//EN" "http://www.w3.org/Graphics/SVG/1.1/DTD/svg11.dtd">
<svg version="1.1" id="Layer_1" xmlns="http://www.w3.org/2000/svg" xmlns:xlink="http://www.w3.org/1999/xlink" x="0px" y="0px"
	 width="48px" height="48px" viewBox="0 0 48 48" enable-background="new 0 0 48 48" xml:space="preserve">
<g>
	<path fill="none" stroke="#000000" stroke-width="2" stroke-linecap="round" stroke-linejoin="round" stroke-miterlimit="10" d="
		M40.992,30.007C40.992,39.394,33.385,47,23.997,47c-9.382,0-16.99-7.606-16.99-16.993c0-9.385,7.608-16.992,16.99-16.992
		C33.385,13.015,40.992,20.622,40.992,30.007z"/>
	
		<polyline fill="none" stroke="#000000" stroke-width="2" stroke-linecap="round" stroke-linejoin="round" stroke-miterlimit="10" points="
		14.493,15.858 14.493,7.624 33.503,7.624 33.503,15.858 	"/>
	<path fill="none" stroke="#000000" stroke-width="2" stroke-linecap="round" stroke-linejoin="round" stroke-miterlimit="10" d="
		M17.437,7.124C17.437,3.736,20.371,1,23.997,1c3.625,0,6.561,2.736,6.561,6.124"/>
	<path fill="none" stroke="#000000" stroke-width="2" stroke-miterlimit="10" d="M8.396,33.001c0,1.108,3.312-6.113,4.414-6.113
		c1.356,0,4.067,6.113,5.419,6.113c1.456,0,4.367-6.113,5.819-6.113c1.356,0,4.067,6.113,5.419,6.113
		c1.405,0,4.216-6.113,5.622-6.113c1.127,0,3.813,6.113,4.516,6.113"/>
	<line fill="none" stroke="#000000" stroke-width="2" stroke-miterlimit="10" x1="8.939" y1="37.873" x2="39.061" y2="37.873"/>
</g>
</svg>
