<?xml version="1.0" encoding="utf-8"?>
<!-- Generator: Adobe Illustrator 16.0.0, SVG Export Plug-In . SVG Version: 6.00 Build 0)  -->
<!DOCTYPE svg PUBLIC "-//W3C//DTD SVG 1.1//EN" "http://www.w3.org/Graphics/SVG/1.1/DTD/svg11.dtd">
<svg version="1.1" id="Layer_1" xmlns="http://www.w3.org/2000/svg" xmlns:xlink="http://www.w3.org/1999/xlink" x="0px" y="0px"
	 width="48px" height="48px" viewBox="0 0 48 48" enable-background="new 0 0 48 48" xml:space="preserve">
<g>
	<g>
		<path fill="none" stroke="#000000" stroke-width="2" stroke-linecap="round" stroke-linejoin="round" stroke-miterlimit="10" d="
			M13.408,12.663c-5.835,6.21-9.741,15.996-9.741,20.862C3.667,40.966,12.77,47,23.995,47c11.234,0,20.338-6.034,20.338-13.475
			c0-4.866-3.904-14.652-9.743-20.862H13.408z"/>
		
			<polygon fill="none" stroke="#000000" stroke-width="2" stroke-linecap="round" stroke-linejoin="round" stroke-miterlimit="10" points="
			9.111,1 13.645,9.013 34.31,9.013 38.927,1 9.514,1 		"/>
	</g>
	
		<polygon fill="none" stroke="#000000" stroke-width="2" stroke-linecap="round" stroke-linejoin="round" stroke-miterlimit="10" points="
		23.044,34.459 16.387,38.469 18.146,30.901 12.277,25.813 20.019,25.149 23.044,17.99 26.064,25.149 33.806,25.813 27.937,30.901 
		29.692,38.469 	"/>
</g>
</svg>
