<?xml version="1.0" encoding="utf-8"?>
<!-- Generator: Adobe Illustrator 16.0.0, SVG Export Plug-In . SVG Version: 6.00 Build 0)  -->
<!DOCTYPE svg PUBLIC "-//W3C//DTD SVG 1.1//EN" "http://www.w3.org/Graphics/SVG/1.1/DTD/svg11.dtd">
<svg version="1.1" id="Layer_1" xmlns="http://www.w3.org/2000/svg" xmlns:xlink="http://www.w3.org/1999/xlink" x="0px" y="0px"
	 width="48px" height="48px" viewBox="0 0 48 48" enable-background="new 0 0 48 48" xml:space="preserve">
<g>
	<g>
		<path fill="none" stroke="#000000" stroke-width="2" stroke-linecap="round" stroke-linejoin="round" stroke-miterlimit="10" d="
			M30.421,11.038c0,3.547-2.873,6.422-6.42,6.422c-3.544,0-6.422-2.875-6.422-6.422c0-3.54,2.878-6.422,6.422-6.422
			C27.548,4.616,30.421,7.499,30.421,11.038z"/>
		<g>
			<path fill="none" stroke="#000000" stroke-width="2" stroke-linecap="round" stroke-linejoin="round" stroke-miterlimit="10" d="
				M18.958,16.537c-3.793,2.738-9.366,4.543-11.56,4.543c-3.478,0-6.287-4.499-6.287-10.042C1.111,5.496,3.921,1,7.398,1
				c2.336,0,8.49,2.046,12.266,5.072"/>
			<path fill="none" stroke="#000000" stroke-width="2" stroke-linecap="round" stroke-linejoin="round" stroke-miterlimit="10" d="
				M29.047,16.537c3.793,2.738,9.364,4.543,11.563,4.543c3.47,0,6.279-4.499,6.279-10.042C46.889,5.496,44.079,1,40.609,1
				c-2.336,0-8.5,2.046-12.268,5.072"/>
		</g>
	</g>
	
		<polyline fill="none" stroke="#000000" stroke-width="2" stroke-linecap="round" stroke-linejoin="round" stroke-miterlimit="10" points="
		15.866,18.789 15.866,47 23.583,38.23 32.132,47 32.132,18.737 	"/>
</g>
</svg>
