<?xml version="1.0" encoding="utf-8"?>
<!-- Generator: Adobe Illustrator 16.0.0, SVG Export Plug-In . SVG Version: 6.00 Build 0)  -->
<!DOCTYPE svg PUBLIC "-//W3C//DTD SVG 1.1//EN" "http://www.w3.org/Graphics/SVG/1.1/DTD/svg11.dtd">
<svg version="1.1" id="Layer_1" xmlns="http://www.w3.org/2000/svg" xmlns:xlink="http://www.w3.org/1999/xlink" x="0px" y="0px"
	 width="48px" height="48px" viewBox="0 0 48 48" enable-background="new 0 0 48 48" xml:space="preserve">
<g>
	<path fill="none" stroke="#000000" stroke-width="2" stroke-linecap="round" stroke-linejoin="round" stroke-miterlimit="10" d="
		M38.598,15.596c0,8.054-6.534,14.591-14.601,14.591c-8.058,0-14.594-6.537-14.594-14.591C9.403,7.536,15.939,1,23.997,1
		C32.063,1,38.598,7.536,38.598,15.596z"/>
	<path fill="none" stroke="#000000" stroke-width="2" stroke-linecap="round" stroke-linejoin="round" stroke-miterlimit="10" d="
		M32.593,15.596c0,4.743-3.846,8.59-8.598,8.59c-4.741,0-8.584-3.847-8.584-8.59c0-4.749,3.844-8.595,8.584-8.595
		C28.747,7.001,32.593,10.847,32.593,15.596z"/>
	<path d="M26.932,15.596c0,1.617-1.309,2.929-2.935,2.929c-1.613,0-2.927-1.312-2.927-2.929c0-1.622,1.314-2.931,2.927-2.931
		C25.623,12.665,26.932,13.974,26.932,15.596z"/>
	
		<line fill="none" stroke="#000000" stroke-width="2" stroke-linecap="round" stroke-miterlimit="10" x1="23.997" y1="30.187" x2="23.997" y2="47"/>
</g>
</svg>
