<?xml version="1.0" encoding="utf-8"?>
<!-- Generator: Adobe Illustrator 16.0.0, SVG Export Plug-In . SVG Version: 6.00 Build 0)  -->
<!DOCTYPE svg PUBLIC "-//W3C//DTD SVG 1.1//EN" "http://www.w3.org/Graphics/SVG/1.1/DTD/svg11.dtd">
<svg version="1.1" id="Layer_1" xmlns="http://www.w3.org/2000/svg" xmlns:xlink="http://www.w3.org/1999/xlink" x="0px" y="0px"
	 width="48px" height="48px" viewBox="0 0 48 48" enable-background="new 0 0 48 48" xml:space="preserve">
<g>
	
		<line fill="none" stroke="#000000" stroke-width="2" stroke-linecap="round" stroke-miterlimit="10" x1="20.474" y1="1.886" x2="5.046" y2="10.833"/>
	
		<line fill="none" stroke="#000000" stroke-width="2" stroke-linecap="round" stroke-miterlimit="10" x1="26.049" y1="5.881" x2="20.474" y2="9.108"/>
	
		<line fill="none" stroke="#000000" stroke-width="2" stroke-linecap="round" stroke-miterlimit="10" x1="28.224" y1="12.03" x2="22.652" y2="15.259"/>
	
		<line fill="none" stroke="#000000" stroke-width="2" stroke-linecap="round" stroke-miterlimit="10" x1="28.224" y1="19.972" x2="22.652" y2="23.208"/>
	
		<line fill="none" stroke="#000000" stroke-width="2" stroke-linecap="round" stroke-miterlimit="10" x1="28.04" y1="38.845" x2="22.469" y2="42.073"/>
	<path fill="none" stroke="#000000" stroke-width="2" stroke-linecap="round" stroke-miterlimit="10" d="M30.208,30.544
		c0,2.736-2.222,4.952-4.952,4.952c-2.737,0-4.953-2.216-4.953-4.952c0-2.733,2.216-4.951,4.953-4.951
		C27.986,25.593,30.208,27.811,30.208,30.544z"/>
	<g>
		<path fill="none" stroke="#000000" stroke-width="2" stroke-miterlimit="10" d="M21.955,26.854V13.439
			c0-3.117-2.441-5.655-5.446-5.655c-3.008,0-5.446,2.538-5.446,5.655c0,1.875-1.52,3.396-3.395,3.396
			c-1.874,0-3.395-1.52-3.395-3.396C4.273,6.582,9.763,1,16.509,1c6.748,0,12.235,5.582,12.235,12.439v13.599"/>
		<path fill="none" stroke="#000000" stroke-width="2" stroke-miterlimit="10" d="M28.744,34.055v9.55
			c0,1.874-1.521,3.396-3.396,3.396c-1.874,0-3.393-1.521-3.393-3.396V34.22"/>
	</g>
	<path fill="none" stroke="#000000" stroke-width="2" stroke-miterlimit="10" d="M20.93,28.163
		c-0.627-0.337-3.712-1.476-4.607-1.803c-0.926-0.343-1.75-0.845-2.68-1.135c-1.305-0.404-2.624-0.963-4.003-1.035
		c-1.122-0.058-1.989-0.287-2.412,0.831c-0.401,1.053-0.2,2.432-0.2,3.564c0,2.014-0.631,3.803-0.198,5.823
		c0.535,2.5,2.902,2.588,5.006,1.812c1.617-0.603,3.247-1.112,4.872-1.807c1.017-0.43,2.249-0.537,3.144-1.195"/>
	<path fill="none" stroke="#000000" stroke-width="2" stroke-miterlimit="10" d="M29.469,28.163
		c0.634-0.337,3.715-1.476,4.611-1.803c0.923-0.343,1.75-0.845,2.677-1.135c1.31-0.404,2.629-0.963,4.004-1.035
		c1.12-0.058,1.99-0.287,2.416,0.831c0.399,1.053,0.197,2.432,0.197,3.564c0,2.014,0.633,3.803,0.202,5.823
		c-0.536,2.5-2.899,2.588-5.007,1.812c-1.62-0.603-3.246-1.112-4.872-1.807c-1.016-0.43-2.25-0.537-3.146-1.195"/>
</g>
</svg>
