<?xml version="1.0" encoding="utf-8"?>
<!-- Generator: Adobe Illustrator 16.0.0, SVG Export Plug-In . SVG Version: 6.00 Build 0)  -->
<!DOCTYPE svg PUBLIC "-//W3C//DTD SVG 1.1//EN" "http://www.w3.org/Graphics/SVG/1.1/DTD/svg11.dtd">
<svg version="1.1" id="Layer_1" xmlns="http://www.w3.org/2000/svg" xmlns:xlink="http://www.w3.org/1999/xlink" x="0px" y="0px"
	 width="48px" height="48px" viewBox="0 0 48 48" enable-background="new 0 0 48 48" xml:space="preserve">
<g>
	<path fill="none" stroke="#000000" stroke-width="2" stroke-linecap="round" stroke-linejoin="round" stroke-miterlimit="10" d="
		M40.993,30.005C40.993,39.394,33.386,47,24.001,47c-9.387,0-16.995-7.606-16.995-16.995c0-9.382,7.608-16.995,16.995-16.995
		C33.386,13.01,40.993,20.623,40.993,30.005z"/>
	
		<polyline fill="none" stroke="#000000" stroke-width="2" stroke-linecap="round" stroke-linejoin="round" stroke-miterlimit="10" points="
		14.498,15.861 14.498,7.624 33.508,7.624 33.508,15.861 	"/>
	<path fill="none" stroke="#000000" stroke-width="2" stroke-linecap="round" stroke-linejoin="round" stroke-miterlimit="10" d="
		M17.438,7.123C17.438,3.737,20.377,1,24.001,1c3.625,0,6.561,2.737,6.561,6.123"/>
	<g>
		<line fill="none" stroke="#000000" stroke-width="2" stroke-miterlimit="10" x1="15.138" y1="44.428" x2="38.429" y2="21.145"/>
		<line fill="none" stroke="#000000" stroke-width="2" stroke-miterlimit="10" x1="9.575" y1="38.863" x2="32.86" y2="15.58"/>
	</g>
</g>
</svg>
