<?xml version="1.0" encoding="utf-8"?>
<!-- Generator: Adobe Illustrator 16.0.0, SVG Export Plug-In . SVG Version: 6.00 Build 0)  -->
<!DOCTYPE svg PUBLIC "-//W3C//DTD SVG 1.1//EN" "http://www.w3.org/Graphics/SVG/1.1/DTD/svg11.dtd">
<svg version="1.1" id="Layer_1" xmlns="http://www.w3.org/2000/svg" xmlns:xlink="http://www.w3.org/1999/xlink" x="0px" y="0px"
	 width="48px" height="48px" viewBox="0 0 48 48" enable-background="new 0 0 48 48" xml:space="preserve">
<g>
	<g>
		<path fill="none" stroke="#000000" stroke-width="2" stroke-linejoin="round" stroke-miterlimit="10" d="M37.432,14.235
			c0,7.309-13.234,25.972-13.234,25.972S10.968,21.544,10.968,14.235C10.968,6.926,16.89,1,24.197,1
			C31.504,1,37.432,6.926,37.432,14.235z"/>
		<path fill="none" stroke="#000000" stroke-width="2" stroke-linejoin="round" stroke-miterlimit="10" d="M29.504,13.417
			c0,2.93-2.373,5.307-5.307,5.307c-2.927,0-5.306-2.377-5.306-5.307c0-2.934,2.379-5.306,5.306-5.306
			C27.131,8.111,29.504,10.483,29.504,13.417z"/>
	</g>
	<g>
		
			<line fill="none" stroke="#000000" stroke-width="2" stroke-linecap="round" stroke-linejoin="round" stroke-miterlimit="10" x1="10.47" y1="41.389" x2="37.529" y2="47"/>
		
			<line fill="none" stroke="#000000" stroke-width="2" stroke-linecap="round" stroke-linejoin="round" stroke-miterlimit="10" x1="37.53" y1="41.389" x2="10.471" y2="47"/>
	</g>
</g>
</svg>
