<?xml version="1.0" encoding="utf-8"?>
<!-- Generator: Adobe Illustrator 16.0.0, SVG Export Plug-In . SVG Version: 6.00 Build 0)  -->
<!DOCTYPE svg PUBLIC "-//W3C//DTD SVG 1.1//EN" "http://www.w3.org/Graphics/SVG/1.1/DTD/svg11.dtd">
<svg version="1.1" id="Layer_1" xmlns="http://www.w3.org/2000/svg" xmlns:xlink="http://www.w3.org/1999/xlink" x="0px" y="0px"
	 width="48px" height="48px" viewBox="0 0 48 48" enable-background="new 0 0 48 48" xml:space="preserve">
<g>
	
		<ellipse fill="none" stroke="#000000" stroke-width="2" stroke-linejoin="round" stroke-miterlimit="10" cx="5.651" cy="5.776" rx="4.65" ry="4.779"/>
	<path fill="none" stroke="#000000" stroke-width="2" stroke-linejoin="round" stroke-miterlimit="10" d="M46.999,42.224
		c0,2.637-2.083,4.776-4.652,4.776c-2.568,0-4.65-2.14-4.65-4.776c0-2.642,2.082-4.773,4.65-4.773
		C44.916,37.45,46.999,39.582,46.999,42.224z"/>
	<g>
		<path fill="none" stroke="#000000" stroke-width="2" stroke-linecap="round" stroke-linejoin="round" stroke-miterlimit="10" d="
			M24.001,20.067v17.313c0,5.286-4.132,9.619-9.174,9.619c-5.045,0-9.174-4.333-9.174-9.619V10.555"/>
		<path fill="none" stroke="#000000" stroke-width="2" stroke-linecap="round" stroke-linejoin="round" stroke-miterlimit="10" d="
			M24.001,27.935V10.617c0-5.291,4.13-9.617,9.17-9.617c5.046,0,9.176,4.327,9.176,9.617V37.45"/>
	</g>
</g>
</svg>
