<?xml version="1.0" encoding="utf-8"?>
<!-- Generator: Adobe Illustrator 16.0.0, SVG Export Plug-In . SVG Version: 6.00 Build 0)  -->
<!DOCTYPE svg PUBLIC "-//W3C//DTD SVG 1.1//EN" "http://www.w3.org/Graphics/SVG/1.1/DTD/svg11.dtd">
<svg version="1.1" id="Layer_1" xmlns="http://www.w3.org/2000/svg" xmlns:xlink="http://www.w3.org/1999/xlink" x="0px" y="0px"
	 width="48px" height="48px" viewBox="0 0 48 48" enable-background="new 0 0 48 48" xml:space="preserve">
<g>
	<g>
		<path fill="none" stroke="#000000" stroke-width="2" stroke-linecap="round" stroke-linejoin="round" stroke-miterlimit="10" d="
			M30.48,7.476c0,3.579-2.898,6.484-6.48,6.484c-3.577,0-6.483-2.905-6.483-6.484C17.517,3.901,20.423,1,24,1
			C27.582,1,30.48,3.901,30.48,7.476z"/>
		<path fill="none" stroke="#000000" stroke-width="2" stroke-linecap="round" stroke-linejoin="round" stroke-miterlimit="10" d="
			M35.916,27.968c0-5.86-4.795-10.655-10.66-10.655h-2.515c-5.862,0-10.66,4.794-10.66,10.655v11.714h23.834V27.968z"/>
	</g>
	<path fill="none" stroke="#000000" stroke-width="2" stroke-linecap="round" stroke-linejoin="round" stroke-miterlimit="10" d="
		M39.437,34.195c4.646,1.344,7.563,3.291,7.563,5.45C46.999,43.706,36.701,47,24,47c-12.701,0-22.999-3.294-22.999-7.354
		c0-2.124,2.806-4.027,7.294-5.37"/>
</g>
</svg>
