<?xml version="1.0" encoding="utf-8"?>
<!-- Generator: Adobe Illustrator 16.0.0, SVG Export Plug-In . SVG Version: 6.00 Build 0)  -->
<!DOCTYPE svg PUBLIC "-//W3C//DTD SVG 1.1//EN" "http://www.w3.org/Graphics/SVG/1.1/DTD/svg11.dtd">
<svg version="1.1" id="Layer_1" xmlns="http://www.w3.org/2000/svg" xmlns:xlink="http://www.w3.org/1999/xlink" x="0px" y="0px"
	 width="48px" height="48px" viewBox="0 0 48 48" enable-background="new 0 0 48 48" xml:space="preserve">
<g>
	<path fill="none" stroke="#000000" stroke-width="2" stroke-linecap="round" stroke-miterlimit="10" d="M11.19,34.591l-7.387,9.664
		c0,0,0,3.788,3.692,2.465l7.866-10.044c0,0,10.797-3.223,16.099-9.849l11.18-15.156c0,0,5.494-5.877-4.169-9.285
		c-9.662-3.41-11.555,0.381-12.885,1.707c-1.322,1.323-11.932,14.775-11.932,14.775S9.292,25.498,11.19,34.591z"/>
	<path fill="none" stroke="#000000" stroke-width="2" stroke-linecap="round" stroke-miterlimit="10" d="M11.19,34.591
		c0,0,9.66-12.297,9.66-17.235"/>
	<path fill="none" stroke="#000000" stroke-width="2" stroke-linecap="round" stroke-miterlimit="10" d="M15.362,36.676
		c0,0,5.646-10.976,11.63-14.011"/>
</g>
</svg>
