<?xml version="1.0" encoding="utf-8"?>
<!-- Generator: Adobe Illustrator 16.0.0, SVG Export Plug-In . SVG Version: 6.00 Build 0)  -->
<!DOCTYPE svg PUBLIC "-//W3C//DTD SVG 1.1//EN" "http://www.w3.org/Graphics/SVG/1.1/DTD/svg11.dtd">
<svg version="1.1" id="Layer_1" xmlns="http://www.w3.org/2000/svg" xmlns:xlink="http://www.w3.org/1999/xlink" x="0px" y="0px"
	 width="48px" height="48px" viewBox="0 0 48 48" enable-background="new 0 0 48 48" xml:space="preserve">
<g>
	<g>
		<path fill="none" stroke="#000000" stroke-width="2" stroke-linejoin="round" stroke-miterlimit="10" d="M27.068,25.924
			C27.068,31.854,16.331,47,16.331,47S5.598,31.854,5.598,25.924c0-5.927,4.807-10.738,10.732-10.738
			C22.261,15.186,27.068,19.997,27.068,25.924z"/>
		<path fill="none" stroke="#000000" stroke-width="2" stroke-linejoin="round" stroke-miterlimit="10" d="M20.636,25.264
			c0,2.379-1.923,4.303-4.305,4.303c-2.374,0-4.301-1.924-4.301-4.303c0-2.377,1.928-4.307,4.301-4.307
			C18.712,20.957,20.636,22.886,20.636,25.264z"/>
	</g>
	<g>
		
			<polygon fill="none" stroke="#000000" stroke-width="2" stroke-linecap="round" stroke-linejoin="round" stroke-miterlimit="10" points="
			31.669,47 47,39.682 47,1 31.669,8.315 		"/>
		
			<polyline fill="none" stroke="#000000" stroke-width="2" stroke-linecap="round" stroke-linejoin="round" stroke-miterlimit="10" points="
			16.331,15.186 16.333,1 1,8.315 1,47 11.358,42.055 		"/>
		
			<polyline fill="none" stroke="#000000" stroke-width="2" stroke-linecap="round" stroke-linejoin="round" stroke-miterlimit="10" points="
			16.333,14.189 16.333,1 31.669,8.315 31.669,47 21.438,42.116 		"/>
	</g>
</g>
</svg>
