<?xml version="1.0" encoding="utf-8"?>
<!-- Generator: Adobe Illustrator 16.0.0, SVG Export Plug-In . SVG Version: 6.00 Build 0)  -->
<!DOCTYPE svg PUBLIC "-//W3C//DTD SVG 1.1//EN" "http://www.w3.org/Graphics/SVG/1.1/DTD/svg11.dtd">
<svg version="1.1" id="Layer_1" xmlns="http://www.w3.org/2000/svg" xmlns:xlink="http://www.w3.org/1999/xlink" x="0px" y="0px"
	 width="48px" height="48px" viewBox="0 0 48 48" enable-background="new 0 0 48 48" xml:space="preserve">
<g>
	<g>
		<g>
			<path fill="none" stroke="#000000" stroke-width="2" stroke-linejoin="round" stroke-miterlimit="10" d="M47,45c0,1.1-0.9,2-2,2
				H3c-1.1,0-2-0.9-2-2V3c0-1.1,0.9-2,2-2h42c1.1,0,2,0.9,2,2V45z"/>
		</g>
		
			<line fill="none" stroke="#000000" stroke-width="2" stroke-linejoin="round" stroke-miterlimit="10" x1="1.933" y1="16.38" x2="46.064" y2="16.38"/>
		
			<line fill="none" stroke="#000000" stroke-width="2" stroke-linejoin="round" stroke-miterlimit="10" x1="7.055" y1="8.993" x2="11.002" y2="8.993"/>
		
			<line fill="none" stroke="#000000" stroke-width="2" stroke-linejoin="round" stroke-miterlimit="10" x1="15.227" y1="8.993" x2="19.172" y2="8.993"/>
	</g>
	<g>
		<path fill="none" stroke="#000000" stroke-width="2" stroke-linecap="round" stroke-linejoin="round" stroke-miterlimit="10" d="
			M28.571,29.117c0,4.433-3.589,8.022-8.018,8.022c-4.432,0-8.022-3.59-8.022-8.022c0-4.425,3.591-8.016,8.022-8.016
			C24.982,21.102,28.571,24.692,28.571,29.117z"/>
		
			<line fill="none" stroke="#000000" stroke-width="2" stroke-linecap="round" stroke-linejoin="round" stroke-miterlimit="10" x1="26.734" y1="34.845" x2="35.467" y2="42.722"/>
	</g>
</g>
</svg>
