<?xml version="1.0" encoding="utf-8"?>
<!-- Generator: Adobe Illustrator 16.0.0, SVG Export Plug-In . SVG Version: 6.00 Build 0)  -->
<!DOCTYPE svg PUBLIC "-//W3C//DTD SVG 1.1//EN" "http://www.w3.org/Graphics/SVG/1.1/DTD/svg11.dtd">
<svg version="1.1" id="Layer_1" xmlns="http://www.w3.org/2000/svg" xmlns:xlink="http://www.w3.org/1999/xlink" x="0px" y="0px"
	 width="48px" height="48px" viewBox="0 0 48 48" enable-background="new 0 0 48 48" xml:space="preserve">
<g>
	<g>
		<path fill="none" stroke="#000000" stroke-width="2" stroke-linecap="round" stroke-linejoin="round" stroke-miterlimit="10" d="
			M1,38.034V24.969C1,11.87,11.35,1.147,24.002,1.147C36.648,1.147,47,11.87,47,24.969v13.065"/>
		<g>
			<path fill="none" stroke="#000000" stroke-width="2" stroke-linecap="round" stroke-linejoin="round" stroke-miterlimit="10" d="
				M11.162,39.195c0,0.55-0.45,1-1,1H2c-0.55,0-1-0.45-1-1V27.823c0-0.55,0.45-1,1-1h8.162c0.55,0,1,0.45,1,1V39.195z"/>
		</g>
		<g>
			<path fill="none" stroke="#000000" stroke-width="2" stroke-linecap="round" stroke-linejoin="round" stroke-miterlimit="10" d="
				M47,39.195c0,0.55-0.45,1-1,1h-8.158c-0.55,0-1-0.45-1-1V27.823c0-0.55,0.45-1,1-1H46c0.55,0,1,0.45,1,1V39.195z"/>
		</g>
	</g>
	<path fill="none" stroke="#000000" stroke-width="2" stroke-linecap="round" stroke-linejoin="round" stroke-miterlimit="10" d="
		M40.052,40.6c0,0-4.167,6.254-16.612,6.254"/>
</g>
</svg>
