<?xml version="1.0" encoding="utf-8"?>
<!-- Generator: Adobe Illustrator 16.0.0, SVG Export Plug-In . SVG Version: 6.00 Build 0)  -->
<!DOCTYPE svg PUBLIC "-//W3C//DTD SVG 1.1//EN" "http://www.w3.org/Graphics/SVG/1.1/DTD/svg11.dtd">
<svg version="1.1" id="Layer_1" xmlns="http://www.w3.org/2000/svg" xmlns:xlink="http://www.w3.org/1999/xlink" x="0px" y="0px"
	 width="48px" height="48px" viewBox="0 0 48 48" enable-background="new 0 0 48 48" xml:space="preserve">
<g>
	<path fill="none" stroke="#000000" stroke-width="2" stroke-linecap="round" stroke-linejoin="round" stroke-miterlimit="10" d="
		M1,41.357V28.297C1,15.195,11.348,4.475,24,4.475c12.65,0,23,10.72,23,23.822v13.061"/>
	<g>
		<path fill="none" stroke="#000000" stroke-width="2" stroke-linecap="round" stroke-linejoin="round" stroke-miterlimit="10" d="
			M11.161,42.525c0,0.55-0.45,1-1,1H2c-0.55,0-1-0.45-1-1V31.153c0-0.55,0.45-1,1-1h8.161c0.55,0,1,0.45,1,1V42.525z"/>
	</g>
	<g>
		<path fill="none" stroke="#000000" stroke-width="2" stroke-linecap="round" stroke-linejoin="round" stroke-miterlimit="10" d="
			M47,42.525c0,0.55-0.45,1-1,1h-8.163c-0.55,0-1-0.45-1-1V31.153c0-0.55,0.45-1,1-1H46c0.55,0,1,0.45,1,1V42.525z"/>
	</g>
</g>
</svg>
