<?xml version="1.0" encoding="utf-8"?>
<!-- Generator: Adobe Illustrator 16.0.0, SVG Export Plug-In . SVG Version: 6.00 Build 0)  -->
<!DOCTYPE svg PUBLIC "-//W3C//DTD SVG 1.1//EN" "http://www.w3.org/Graphics/SVG/1.1/DTD/svg11.dtd">
<svg version="1.1" id="Layer_1" xmlns="http://www.w3.org/2000/svg" xmlns:xlink="http://www.w3.org/1999/xlink" x="0px" y="0px"
	 width="48px" height="48px" viewBox="0 0 48 48" enable-background="new 0 0 48 48" xml:space="preserve">
<g>
	<g>
		<g>
			<path fill="none" stroke="#000000" stroke-width="2" stroke-linecap="round" stroke-linejoin="round" stroke-miterlimit="10" d="
				M47,33.948c0,1.1-0.9,2-2,2H3c-1.1,0-2-0.9-2-2V5.962c0-1.1,0.9-2,2-2h42c1.1,0,2,0.9,2,2V33.948z"/>
		</g>
		
			<line fill="none" stroke="#000000" stroke-width="2" stroke-linecap="round" stroke-linejoin="round" stroke-miterlimit="10" x1="24.001" y1="36.665" x2="24.001" y2="42.756"/>
		
			<line fill="none" stroke="#000000" stroke-width="2" stroke-linecap="round" stroke-linejoin="round" stroke-miterlimit="10" x1="10.8" y1="44.038" x2="37.195" y2="44.038"/>
	</g>
	
		<circle fill="none" stroke="#000000" stroke-width="2" stroke-linecap="round" stroke-linejoin="round" stroke-miterlimit="10" cx="13.064" cy="13.911" r="4.24"/>
	<path fill="none" stroke="#000000" stroke-width="2" stroke-linecap="round" stroke-linejoin="round" stroke-miterlimit="10" d="
		M38.822,13.911c0,2.344-1.897,4.24-4.244,4.24c-2.343,0-4.24-1.896-4.24-4.24c0-2.341,1.897-4.24,4.24-4.24
		C36.925,9.671,38.822,11.57,38.822,13.911z"/>
	<path fill="none" stroke="#000000" stroke-width="2" stroke-linecap="round" stroke-linejoin="round" stroke-miterlimit="10" d="
		M28.241,26.649c0,2.348-1.896,4.245-4.24,4.245c-2.345,0-4.24-1.897-4.24-4.245c0-2.34,1.895-4.239,4.24-4.239
		C26.345,22.41,28.241,24.31,28.241,26.649z"/>
	
		<line fill="none" stroke="#000000" stroke-width="2" stroke-linecap="round" stroke-linejoin="round" stroke-miterlimit="10" x1="15.777" y1="17.857" x2="20.466" y2="23.042"/>
	
		<line fill="none" stroke="#000000" stroke-width="2" stroke-linecap="round" stroke-linejoin="round" stroke-miterlimit="10" x1="27.477" y1="23.042" x2="31.729" y2="17.857"/>
</g>
</svg>
