<?xml version="1.0" encoding="utf-8"?>
<!-- Generator: Adobe Illustrator 16.0.0, SVG Export Plug-In . SVG Version: 6.00 Build 0)  -->
<!DOCTYPE svg PUBLIC "-//W3C//DTD SVG 1.1//EN" "http://www.w3.org/Graphics/SVG/1.1/DTD/svg11.dtd">
<svg version="1.1" id="Layer_1" xmlns="http://www.w3.org/2000/svg" xmlns:xlink="http://www.w3.org/1999/xlink" x="0px" y="0px"
	 width="48px" height="48px" viewBox="0 0 48 48" enable-background="new 0 0 48 48" xml:space="preserve">
<g>
	<g>
		<path fill="none" stroke="#000000" stroke-width="2" stroke-linejoin="round" stroke-miterlimit="10" d="M47,38.083
			c0,1.1-0.9,2-2,2H3c-1.1,0-2-0.9-2-2V14.402c0-1.1,0.9-2,2-2h42c1.1,0,2,0.9,2,2V38.083z"/>
	</g>
	
		<line fill="none" stroke="#000000" stroke-width="2" stroke-linecap="round" stroke-linejoin="round" stroke-miterlimit="10" x1="9.036" y1="7.917" x2="16.587" y2="7.917"/>
	
		<line fill="none" stroke="#000000" stroke-width="2" stroke-linecap="round" stroke-linejoin="round" stroke-miterlimit="10" x1="7.41" y1="26.241" x2="18.21" y2="26.241"/>
	
		<line fill="none" stroke="#000000" stroke-width="2" stroke-linecap="round" stroke-linejoin="round" stroke-miterlimit="10" x1="12.813" y1="20.843" x2="12.813" y2="31.642"/>
	<g>
		<path d="M32.188,22.24c0,0.908-0.74,1.643-1.646,1.643c-0.913,0-1.652-0.735-1.652-1.643c0-0.916,0.739-1.653,1.652-1.653
			C31.447,20.587,32.188,21.324,32.188,22.24z"/>
		<path d="M40.089,22.24c0,0.908-0.737,1.643-1.646,1.643c-0.912,0-1.651-0.735-1.651-1.643c0-0.916,0.739-1.653,1.651-1.653
			C39.352,20.587,40.089,21.324,40.089,22.24z"/>
		<path d="M32.188,30.247c0,0.909-0.74,1.648-1.646,1.648c-0.913,0-1.652-0.739-1.652-1.648c0-0.906,0.739-1.651,1.652-1.651
			C31.447,28.596,32.188,29.341,32.188,30.247z"/>
		<path d="M40.089,30.247c0,0.909-0.737,1.648-1.646,1.648c-0.912,0-1.651-0.739-1.651-1.648c0-0.906,0.739-1.651,1.651-1.651
			C39.352,28.596,40.089,29.341,40.089,30.247z"/>
	</g>
</g>
</svg>
