<?xml version="1.0" encoding="utf-8"?>
<!-- Generator: Adobe Illustrator 16.0.0, SVG Export Plug-In . SVG Version: 6.00 Build 0)  -->
<!DOCTYPE svg PUBLIC "-//W3C//DTD SVG 1.1//EN" "http://www.w3.org/Graphics/SVG/1.1/DTD/svg11.dtd">
<svg version="1.1" id="Layer_1" xmlns="http://www.w3.org/2000/svg" xmlns:xlink="http://www.w3.org/1999/xlink" x="0px" y="0px"
	 width="48px" height="48px" viewBox="0 0 48 48" enable-background="new 0 0 48 48" xml:space="preserve">
<g>
	<path fill="none" stroke="#000000" stroke-width="2" stroke-linecap="round" stroke-linejoin="round" stroke-miterlimit="10" d="
		M24.001,37.765c-4.948,0-9.05,3.989-9.878,9.235h19.754C33.052,41.754,28.949,37.765,24.001,37.765z"/>
	<path fill="none" stroke="#000000" stroke-width="2" stroke-linecap="round" stroke-linejoin="round" stroke-miterlimit="10" d="
		M7.133,1C6.958,2.078,6.852,3.183,6.852,4.317c0,10.547,7.677,19.09,17.149,19.09c9.47,0,17.147-8.542,17.147-19.09
		c0-1.134-0.104-2.239-0.276-3.317H7.133z"/>
	
		<line fill="none" stroke="#000000" stroke-width="2" stroke-linecap="round" stroke-linejoin="round" stroke-miterlimit="10" x1="24.001" y1="23.407" x2="24.001" y2="37.765"/>
	<g>
		<path fill="none" stroke="#000000" stroke-width="2" stroke-linecap="round" stroke-linejoin="round" stroke-miterlimit="10" d="
			M6.372,8.93c0,0-7.635-4.08-4.702,6.696C4.61,26.399,24.101,30.48,24.001,33.407"/>
		<path fill="none" stroke="#000000" stroke-width="2" stroke-linecap="round" stroke-linejoin="round" stroke-miterlimit="10" d="
			M41.628,8.93c0,0,7.638-4.08,4.701,6.696C43.388,26.399,23.904,30.48,24.001,33.407"/>
	</g>
</g>
</svg>
