<?xml version="1.0" encoding="utf-8"?>
<!-- Generator: Adobe Illustrator 16.0.0, SVG Export Plug-In . SVG Version: 6.00 Build 0)  -->
<!DOCTYPE svg PUBLIC "-//W3C//DTD SVG 1.1//EN" "http://www.w3.org/Graphics/SVG/1.1/DTD/svg11.dtd">
<svg version="1.1" id="Layer_1" xmlns="http://www.w3.org/2000/svg" xmlns:xlink="http://www.w3.org/1999/xlink" x="0px" y="0px"
	 width="48px" height="48px" viewBox="0 0 48 48" enable-background="new 0 0 48 48" xml:space="preserve">
<g>
	<path fill="none" stroke="#000000" stroke-width="2" stroke-linejoin="round" stroke-miterlimit="10" d="M14.032,7.512
		c0,3.6-2.919,6.519-6.518,6.519C3.917,14.03,1,11.111,1,7.512C1,3.918,3.917,1,7.515,1C11.113,1,14.032,3.918,14.032,7.512z"/>
	<path fill="none" stroke="#000000" stroke-width="2" stroke-linejoin="round" stroke-miterlimit="10" d="M47,7.512
		c0,3.6-2.914,6.519-6.514,6.519s-6.517-2.919-6.517-6.519C33.97,3.918,36.887,1,40.486,1S47,3.918,47,7.512z"/>
	<path fill="none" stroke="#000000" stroke-width="2" stroke-linejoin="round" stroke-miterlimit="10" d="M30.515,40.484
		c0,3.6-2.916,6.516-6.514,6.516c-3.596,0-6.515-2.916-6.515-6.516c0-3.596,2.919-6.516,6.515-6.516
		C27.599,33.969,30.515,36.889,30.515,40.484z"/>
	<g>
		
			<line fill="none" stroke="#000000" stroke-width="2" stroke-linejoin="round" stroke-miterlimit="10" x1="10.317" y1="14.03" x2="20.375" y2="33.969"/>
		
			<line fill="none" stroke="#000000" stroke-width="2" stroke-linejoin="round" stroke-miterlimit="10" x1="37.682" y1="14.03" x2="27.625" y2="33.969"/>
	</g>
</g>
</svg>
