<?xml version="1.0" encoding="utf-8"?>
<!-- Generator: Adobe Illustrator 16.0.0, SVG Export Plug-In . SVG Version: 6.00 Build 0)  -->
<!DOCTYPE svg PUBLIC "-//W3C//DTD SVG 1.1//EN" "http://www.w3.org/Graphics/SVG/1.1/DTD/svg11.dtd">
<svg version="1.1" id="Layer_1" xmlns="http://www.w3.org/2000/svg" xmlns:xlink="http://www.w3.org/1999/xlink" x="0px" y="0px"
	 width="48px" height="48px" viewBox="0 0 48 48" enable-background="new 0 0 48 48" xml:space="preserve">
<g>
	<path fill="none" stroke="#000000" stroke-width="2" stroke-linecap="round" stroke-linejoin="round" stroke-miterlimit="10" d="
		M43.296,36.483C45.632,32.886,47,28.605,47,23.999C47,11.293,36.701,1.001,24,1.001c-12.702,0-23,10.292-23,22.998
		c0,12.7,10.298,23,23,23c4.608,0,8.888-1.374,12.485-3.704L47,46.999L43.296,36.483z"/>
	<g>
		<path d="M15.242,23.999c0,1.438-1.164,2.602-2.605,2.602s-2.599-1.164-2.599-2.602c0-1.436,1.158-2.604,2.599-2.604
			S15.242,22.563,15.242,23.999z"/>
		<path d="M26.602,23.999c0,1.438-1.162,2.602-2.605,2.602c-1.437,0-2.597-1.164-2.597-2.602c0-1.436,1.16-2.604,2.597-2.604
			C25.439,21.396,26.602,22.563,26.602,23.999z"/>
		<path d="M37.964,23.999c0,1.438-1.163,2.602-2.604,2.602c-1.44,0-2.603-1.164-2.603-2.602c0-1.436,1.162-2.604,2.603-2.604
			C36.801,21.396,37.964,22.563,37.964,23.999z"/>
	</g>
</g>
</svg>
