<?xml version="1.0" encoding="utf-8"?>
<!-- Generator: Adobe Illustrator 16.0.0, SVG Export Plug-In . SVG Version: 6.00 Build 0)  -->
<!DOCTYPE svg PUBLIC "-//W3C//DTD SVG 1.1//EN" "http://www.w3.org/Graphics/SVG/1.1/DTD/svg11.dtd">
<svg version="1.1" id="Layer_1" xmlns="http://www.w3.org/2000/svg" xmlns:xlink="http://www.w3.org/1999/xlink" x="0px" y="0px"
	 width="48px" height="48px" viewBox="0 0 48 48" enable-background="new 0 0 48 48" xml:space="preserve">
<g>
	<path fill="none" stroke="#000000" stroke-width="2" stroke-linecap="round" stroke-linejoin="round" stroke-miterlimit="10" d="
		M41.354,17.546C41.354,8.448,34.793,1,26.769,1h-5.537C13.205,1,6.646,8.448,6.646,17.546V47l8.375-3.508L24.473,47l9.349-3.508
		L41.354,47V17.546z"/>
	<g>
		<path d="M20.166,16.921c0,1.198-0.97,2.175-2.173,2.175c-1.196,0-2.17-0.977-2.17-2.175c0-1.2,0.974-2.173,2.17-2.173
			C19.195,14.748,20.166,15.721,20.166,16.921z"/>
		<path d="M32.178,16.921c0,1.198-0.971,2.175-2.17,2.175s-2.176-0.977-2.176-2.175c0-1.2,0.977-2.173,2.176-2.173
			S32.178,15.721,32.178,16.921z"/>
	</g>
	<path fill="none" stroke="#000000" stroke-width="2" stroke-linecap="round" stroke-miterlimit="10" d="M14.864,30.191
		c0,0,8.051,6.132,18.271,0"/>
</g>
</svg>
