<?xml version="1.0" encoding="utf-8"?>
<!-- Generator: Adobe Illustrator 16.0.0, SVG Export Plug-In . SVG Version: 6.00 Build 0)  -->
<!DOCTYPE svg PUBLIC "-//W3C//DTD SVG 1.1//EN" "http://www.w3.org/Graphics/SVG/1.1/DTD/svg11.dtd">
<svg version="1.1" id="Layer_1" xmlns="http://www.w3.org/2000/svg" xmlns:xlink="http://www.w3.org/1999/xlink" x="0px" y="0px"
	 width="48px" height="48px" viewBox="0 0 48 48" enable-background="new 0 0 48 48" xml:space="preserve">
<g>
	<path fill="none" stroke="#000000" stroke-width="2" stroke-linecap="round" stroke-linejoin="round" stroke-miterlimit="10" d="
		M21.305,18.611c0-4.947-3.839-8.992-8.536-8.992H9.536C4.831,9.619,1,13.664,1,18.611v28.388l4.901-1.907l5.528,1.907l5.466-1.907
		l4.41,1.907V18.611z"/>
	<g>
		<path d="M8.908,18.27c0,0.653-0.565,1.183-1.27,1.183c-0.703,0-1.268-0.53-1.268-1.183c0-0.649,0.565-1.179,1.268-1.179
			C8.342,17.091,8.908,17.621,8.908,18.27z"/>
		<path d="M15.937,18.27c0,0.653-0.57,1.183-1.272,1.183c-0.705,0-1.272-0.53-1.272-1.183c0-0.649,0.567-1.179,1.272-1.179
			C15.367,17.091,15.937,17.621,15.937,18.27z"/>
	</g>
	<path fill="none" stroke="#000000" stroke-width="2" stroke-linecap="round" stroke-miterlimit="10" d="M5.81,25.486
		c0,0,4.708,3.332,10.687,0"/>
	<path fill="none" stroke="#000000" stroke-width="2" stroke-linecap="round" stroke-linejoin="round" stroke-miterlimit="10" d="
		M47,18.27C39.859,8.513,1,4.167,1,4.167c24.424-6.411,46-1.103,46-1.103v41.985"/>
	<path fill="none" stroke="#000000" stroke-width="2" stroke-linecap="round" stroke-linejoin="round" stroke-miterlimit="10" d="
		M21.975,25.486c0,0,11.844,17.988,24.28,1.483"/>
</g>
</svg>
