<?xml version="1.0" encoding="utf-8"?>
<!-- Generator: Adobe Illustrator 16.0.0, SVG Export Plug-In . SVG Version: 6.00 Build 0)  -->
<!DOCTYPE svg PUBLIC "-//W3C//DTD SVG 1.1//EN" "http://www.w3.org/Graphics/SVG/1.1/DTD/svg11.dtd">
<svg version="1.1" id="Layer_1" xmlns="http://www.w3.org/2000/svg" xmlns:xlink="http://www.w3.org/1999/xlink" x="0px" y="0px"
	 width="48px" height="48px" viewBox="0 0 48 48" enable-background="new 0 0 48 48" xml:space="preserve">
<g>
	<g>
		<path d="M20.226,21.911c0,1.204-0.97,2.174-2.174,2.174c-1.199,0-2.168-0.97-2.168-2.174c0-1.198,0.969-2.171,2.168-2.171
			C19.256,19.74,20.226,20.713,20.226,21.911z"/>
		<path d="M32.236,21.911c0,1.204-0.971,2.174-2.17,2.174c-1.197,0-2.175-0.97-2.175-2.174c0-1.198,0.978-2.171,2.175-2.171
			C31.266,19.74,32.236,20.713,32.236,21.911z"/>
	</g>
	<path fill="none" stroke="#000000" stroke-width="2" stroke-linecap="round" stroke-linejoin="round" stroke-miterlimit="10" d="
		M36.567,11.873c-2.354,0-4.503,1.247-6.249,3.273c-1.747-2.027-3.897-3.273-6.252-3.273c-2.386,0-4.561,1.282-6.317,3.351
		c-1.76-2.068-3.929-3.351-6.319-3.351C5.668,11.873,1,19.043,1,27.884C1,36.731,5.668,43.9,11.43,43.9
		c2.39,0,4.56-1.284,6.319-3.356c1.756,2.072,3.931,3.356,6.317,3.356c2.354,0,4.505-1.246,6.252-3.268
		c1.746,2.021,3.896,3.268,6.249,3.268C42.332,43.9,47,36.731,47,27.884C47,19.043,42.332,11.873,36.567,11.873z"/>
	<path fill="none" stroke="#000000" stroke-width="2" stroke-linecap="round" stroke-linejoin="round" stroke-miterlimit="10" d="
		M24.001,10.701c0,0-1.529-4.228,3.228-6.602"/>
	<polyline fill="none" stroke="#000000" stroke-width="2" stroke-linecap="round" stroke-miterlimit="10" points="12.438,31.519 
		17.558,35.03 24.059,31.114 30.064,35.03 35.63,32.119 	"/>
</g>
</svg>
