<?xml version="1.0" encoding="utf-8"?>
<!-- Generator: Adobe Illustrator 16.0.0, SVG Export Plug-In . SVG Version: 6.00 Build 0)  -->
<!DOCTYPE svg PUBLIC "-//W3C//DTD SVG 1.1//EN" "http://www.w3.org/Graphics/SVG/1.1/DTD/svg11.dtd">
<svg version="1.1" id="Layer_1" xmlns="http://www.w3.org/2000/svg" xmlns:xlink="http://www.w3.org/1999/xlink" x="0px" y="0px"
	 width="48px" height="48px" viewBox="0 0 48 48" enable-background="new 0 0 48 48" xml:space="preserve">
<g>
	<path fill="none" stroke="#000000" stroke-width="2" stroke-linecap="round" stroke-miterlimit="10" d="M42.991,18.28
		C42.991,8.736,34.485,1,24,1C13.512,1,5.01,8.736,5.01,18.28c0,4.429,1.848,8.449,4.852,11.507v3.675
		c0,2.894,2.605,5.267,5.789,5.267h16.698c3.188,0,5.792-2.373,5.792-5.267v-3.675C41.149,26.729,42.991,22.708,42.991,18.28z"/>
	<g>
		<path fill="none" stroke="#000000" stroke-width="2" stroke-linecap="round" stroke-miterlimit="10" d="M38.491,45
			c0,1.1-0.9,2-2,2H12.21c-1.1,0-2-0.9-2-2v-4.271c0-1.1,0.9-2,2-2h24.281c1.1,0,2,0.9,2,2V45z"/>
	</g>
	<g>
		<path fill="none" stroke="#000000" stroke-width="2" stroke-linecap="round" stroke-miterlimit="10" d="M21.735,17.125
			c0,2.358-2.104,4.27-4.691,4.27c-2.594,0-4.687-1.911-4.687-4.27s2.092-4.266,4.687-4.266
			C19.631,12.859,21.735,14.767,21.735,17.125z"/>
		<path fill="none" stroke="#000000" stroke-width="2" stroke-linecap="round" stroke-miterlimit="10" d="M35.647,17.125
			c0,2.358-2.104,4.27-4.687,4.27c-2.589,0-4.692-1.911-4.692-4.27s2.104-4.266,4.692-4.266
			C33.544,12.859,35.647,14.767,35.647,17.125z"/>
	</g>
	<polygon points="24.073,23.966 20.698,29.917 27.308,29.917 	"/>
	<g>
		
			<line fill="none" stroke="#000000" stroke-width="2" stroke-linecap="round" stroke-miterlimit="10" x1="16.394" y1="35.755" x2="16.394" y2="41.954"/>
		
			<line fill="none" stroke="#000000" stroke-width="2" stroke-linecap="round" stroke-miterlimit="10" x1="21.468" y1="35.755" x2="21.468" y2="41.954"/>
		
			<line fill="none" stroke="#000000" stroke-width="2" stroke-linecap="round" stroke-miterlimit="10" x1="26.538" y1="35.755" x2="26.538" y2="41.954"/>
		
			<line fill="none" stroke="#000000" stroke-width="2" stroke-linecap="round" stroke-miterlimit="10" x1="31.61" y1="35.755" x2="31.61" y2="41.954"/>
	</g>
</g>
</svg>
