<?xml version="1.0" encoding="utf-8"?>
<!-- Generator: Adobe Illustrator 16.0.0, SVG Export Plug-In . SVG Version: 6.00 Build 0)  -->
<!DOCTYPE svg PUBLIC "-//W3C//DTD SVG 1.1//EN" "http://www.w3.org/Graphics/SVG/1.1/DTD/svg11.dtd">
<svg version="1.1" id="Layer_1" xmlns="http://www.w3.org/2000/svg" xmlns:xlink="http://www.w3.org/1999/xlink" x="0px" y="0px"
	 width="48px" height="48px" viewBox="0 0 48 48" enable-background="new 0 0 48 48" xml:space="preserve">
<g>
	<polyline fill="none" stroke="#000000" stroke-width="2" stroke-linecap="round" stroke-miterlimit="10" points="15.161,31.894 
		19.065,34.568 24.02,31.584 28.596,34.568 32.839,32.346 	"/>
	<path d="M20.167,14.083c0,1.194-0.973,2.166-2.177,2.166c-1.198,0-2.166-0.971-2.166-2.166c0-1.206,0.968-2.179,2.166-2.179
		C19.194,11.905,20.167,12.878,20.167,14.083z"/>
	<path d="M32.175,14.083c0,1.194-0.968,2.166-2.167,2.166c-1.2,0-2.174-0.971-2.174-2.166c0-1.206,0.974-2.179,2.174-2.179
		C31.207,11.905,32.175,12.878,32.175,14.083z"/>
	<path d="M25.749,24.002c0,1.196-0.972,2.169-2.169,2.169c-1.2,0-2.173-0.973-2.173-2.169c0-1.204,0.973-2.175,2.173-2.175
		C24.777,21.827,25.749,22.798,25.749,24.002z"/>
	<path fill="none" stroke="#000000" stroke-width="2" stroke-linecap="round" stroke-linejoin="round" stroke-miterlimit="10" d="
		M33.422,11.199c-1.643-2.048-1.189-4.09-1.189-6.525c0-0.505,0.034-1.063,0.064-1.608C29.818,1.749,26.994,1,24,1
		C14.21,1,6.281,8.931,6.281,18.714C6.281,28.504,14.21,47,24,47c9.786,0,17.719-18.496,17.719-28.286
		c0-0.583-0.031-1.155-0.09-1.726c-0.874-0.133-1.728-0.35-2.604-0.812C36.992,15.102,34.866,12.998,33.422,11.199z"/>
</g>
</svg>
