<?xml version="1.0" encoding="utf-8"?>
<!-- Generator: Adobe Illustrator 16.0.0, SVG Export Plug-In . SVG Version: 6.00 Build 0)  -->
<!DOCTYPE svg PUBLIC "-//W3C//DTD SVG 1.1//EN" "http://www.w3.org/Graphics/SVG/1.1/DTD/svg11.dtd">
<svg version="1.1" id="Layer_1" xmlns="http://www.w3.org/2000/svg" xmlns:xlink="http://www.w3.org/1999/xlink" x="0px" y="0px"
	 width="48px" height="48px" viewBox="0 0 48 48" enable-background="new 0 0 48 48" xml:space="preserve">
<g>
	<circle fill="none" stroke="#000000" stroke-width="2" stroke-miterlimit="10" cx="24" cy="24" r="23"/>
	<path fill="none" stroke="#000000" stroke-width="2" stroke-linejoin="round" stroke-miterlimit="10" d="M3.882,13.133
		c1.806,0,2.924-0.511,4.513-0.816c0.498-0.095,1.875-0.167,2.312-0.003c1.41,0.528,0.778,1.087,1.075,2.28
		c0.4,1.619,1.036,2.276,0.469,3.994c-0.757,2.293-1.305,2.963,0.232,5.044c0.517,0.7,0.809,1.333,1.615,1.735
		c0.767,0.386,1.286,0.021,1.889,0.194c1.44,0.414,2.448,1.309,2.752,2.748c0.327,1.544,0.103,3.244,0.157,4.844
		c0.066,1.936,1.146,3.14,2.14,4.773c1.031,1.694,1.718,3.126,1.736,5.115c0.016,1.805-0.094,2.658,1.228,3.959
		c0.297-2.849,1.059-4.98,2.19-7.67c0.573-1.367,1.635-2.795,2.922-3.563c1.517-0.902,3.559-0.584,3.509-2.816
		c-0.043-1.936-1.645-2.113-3.229-2.674c-1.813-0.64-2.288-1.432-3.509-2.798c-1.443-1.613-2.647-1.025-4.565-1.269
		c-1.661-0.212-2.904-1.318-4.352-2.056c-1.503-0.766-2.808-2.392-0.125-2.469c1.878-0.054,1.504,1.318,2.862,1.782
		c2.282,0.779,1.437-2.023,1.777-3.232c0.475-1.692,1.239-1.651,2.744-1.935c1.997-0.384,5.615-4.298,2.26-5.329
		c-1.986-0.612-1.915,1.017-3.222,1.739c-1.176,0.649-2.989,0.195-2.57-1.393c1.553,0.109,3.195-1.557,2.09-3.094
		c-0.5-0.698-3.241-1.192-4.016-0.648c-0.478,0.337-0.436,1.258-0.827,1.509c-0.437,0.279-2.133,0.273-2.598,0.086
		c-0.852-0.344-1.228-1.673-1.971-2.094c-0.515-0.294-1.276-0.273-1.876-0.328c-0.085-1.664-0.07-2.875,1.663-3.654
		c1.143-0.513,2.477-0.346,3.644-0.646c1.01-0.262,1.588-0.801,2.463-1.301c2.451-1.398,7.552-2.72,8.835,0.457
		c0.559,1.381,0.326,3.01,0.805,4.355c0.567,1.601,1.775,2.645,2.138,4.328c0.328,1.525,0.411,2.611,2.381,2.463
		c2.056-0.157,2.022-1.713,2.129-3.371c0.904,0.017,1.6-0.536,2.53-0.322c0.257,0.667,0.404,1.323,0.363,2.039
		c0.997,0.591,2.628,0.938,1.93,2.577c-0.447,1.052-1.776,0.84-2.946,1.127c-2.881,0.706-3.794,2.888-2.104,5.568
		c1.558,2.471,2.061,4.297,5.018,5.418c1.302,0.494,2.452,0.859,3.387,2.019c0.781,0.971,0.712,2.298,1.324,3.186"/>
</g>
</svg>
