<?xml version="1.0" encoding="utf-8"?>
<!-- Generator: Adobe Illustrator 16.0.0, SVG Export Plug-In . SVG Version: 6.00 Build 0)  -->
<!DOCTYPE svg PUBLIC "-//W3C//DTD SVG 1.1//EN" "http://www.w3.org/Graphics/SVG/1.1/DTD/svg11.dtd">
<svg version="1.1" id="Layer_1" xmlns="http://www.w3.org/2000/svg" xmlns:xlink="http://www.w3.org/1999/xlink" x="0px" y="0px"
	 width="48px" height="48px" viewBox="0 0 48 48" enable-background="new 0 0 48 48" xml:space="preserve">
<g>
	<g>
		<polygon fill="none" stroke="#000000" stroke-width="2" stroke-linejoin="round" stroke-miterlimit="10" points="22.466,28.11 
			11.506,17.147 27.063,7.006 32.608,12.552 		"/>
		
			<rect x="7.204" y="22.149" transform="matrix(0.7072 0.707 -0.707 0.7072 21.452 -4.2292)" fill="none" stroke="#000000" stroke-width="2" stroke-linejoin="round" stroke-miterlimit="10" width="17.255" height="3.27"/>
		
			<rect x="28.139" y="5.986" transform="matrix(0.7072 0.707 -0.707 0.7072 15.0005 -19.8018)" fill="none" stroke="#000000" stroke-width="2" stroke-linejoin="round" stroke-miterlimit="10" width="6.536" height="4.446"/>
		<polygon fill="none" stroke="#000000" stroke-width="2" stroke-linejoin="round" stroke-miterlimit="10" points="38.615,7.098 
			32.518,1 30.667,4.326 35.288,8.947 		"/>
	</g>
	<path fill="none" stroke="#000000" stroke-width="2" stroke-linejoin="round" stroke-miterlimit="10" d="M31.406,14.396
		c0,0-0.739,4.781,2.905,7.749c6.614,5.391,4.304,15.901-0.966,19.897h7.713V47H13.354v-5.647h11.729c0,0,5.585,0,5.585-7.438
		c0-5.805-6.13-6.903-7.581-6.758"/>
	<path fill="none" stroke="#000000" stroke-width="2" stroke-linejoin="round" stroke-miterlimit="10" d="M6.941,34.996h12.715
		c0,0,0.241,4.882,9.076,4.715"/>
</g>
</svg>
