<?xml version="1.0" encoding="utf-8"?>
<!-- Generator: Adobe Illustrator 16.0.0, SVG Export Plug-In . SVG Version: 6.00 Build 0)  -->
<!DOCTYPE svg PUBLIC "-//W3C//DTD SVG 1.1//EN" "http://www.w3.org/Graphics/SVG/1.1/DTD/svg11.dtd">
<svg version="1.1" id="Layer_1" xmlns="http://www.w3.org/2000/svg" xmlns:xlink="http://www.w3.org/1999/xlink" x="0px" y="0px"
	 width="48px" height="48px" viewBox="0 0 48 48" enable-background="new 0 0 48 48" xml:space="preserve">
<g>
	<path fill="none" stroke="#000000" stroke-width="2" stroke-linecap="round" stroke-linejoin="round" stroke-miterlimit="10" d="
		M47,24c0,12.699-10.297,22.999-22.999,22.999C11.296,46.999,1,36.699,1,24C1,11.299,11.296,1.001,24.001,1.001
		C36.703,1.001,47,11.299,47,24z"/>
	<path fill="none" stroke="#000000" stroke-width="2" stroke-linecap="round" stroke-linejoin="round" stroke-miterlimit="10" d="
		M36.478,24c0,12.699-5.587,22.999-12.477,22.999c-6.896,0-12.48-10.3-12.48-22.999c0-12.701,5.584-22.999,12.48-22.999
		C30.891,1.001,36.478,11.299,36.478,24z"/>
	
		<line fill="none" stroke="#000000" stroke-width="2" stroke-linecap="round" stroke-linejoin="round" stroke-miterlimit="10" x1="24.001" y1="2.025" x2="24.001" y2="45.97"/>
	
		<line fill="none" stroke="#000000" stroke-width="2" stroke-linecap="round" stroke-linejoin="round" stroke-miterlimit="10" x1="47" y1="24" x2="1" y2="24"/>
	
		<line fill="none" stroke="#000000" stroke-width="2" stroke-linecap="round" stroke-linejoin="round" stroke-miterlimit="10" x1="44.09" y1="12.845" x2="3.904" y2="12.845"/>
	
		<line fill="none" stroke="#000000" stroke-width="2" stroke-linecap="round" stroke-linejoin="round" stroke-miterlimit="10" x1="44.09" y1="35.209" x2="3.904" y2="35.209"/>
</g>
</svg>
