<?xml version="1.0" encoding="utf-8"?>
<!-- Generator: Adobe Illustrator 16.0.0, SVG Export Plug-In . SVG Version: 6.00 Build 0)  -->
<!DOCTYPE svg PUBLIC "-//W3C//DTD SVG 1.1//EN" "http://www.w3.org/Graphics/SVG/1.1/DTD/svg11.dtd">
<svg version="1.1" id="Layer_1" xmlns="http://www.w3.org/2000/svg" xmlns:xlink="http://www.w3.org/1999/xlink" x="0px" y="0px"
	 width="48px" height="48px" viewBox="0 0 48 48" enable-background="new 0 0 48 48" xml:space="preserve">
<g>
	<path fill="none" stroke="#000000" stroke-width="2" stroke-linecap="round" stroke-miterlimit="10" d="M1,15.386V4.851
		c0,0,0.594-3.848,7.058-3.848c6.463,0,6.317,5.04,6.317,5.04v5.338l4.701-3.188c0,0,1.243-0.67,2.75,0.814
		c1.513,1.48,0,4.153,0,4.153l-7.22,5.781l-0.382,6.163H1V15.386z"/>
	<path fill="none" stroke="#000000" stroke-width="2" stroke-linecap="round" stroke-miterlimit="10" d="M47,27.438V16.913
		c0,0-0.592-3.861-7.051-3.861c-6.464,0-6.318,5.04-6.318,5.04v5.343l-4.703-3.191c0,0-1.242-0.663-2.751,0.818
		c-1.506,1.484,0,4.153,0,4.153l7.225,5.771l0.378,6.175H47V27.438z"/>
	<path fill="none" stroke="#000000" stroke-width="2" stroke-linecap="round" stroke-miterlimit="10" d="M11.75,25.763
		c0,0-3.949,18.989,8.924,20.992c12.875,2.001,13.989-8.999,13.989-8.999"/>
</g>
</svg>
