<?xml version="1.0" encoding="utf-8"?>
<!-- Generator: Adobe Illustrator 16.0.0, SVG Export Plug-In . SVG Version: 6.00 Build 0)  -->
<!DOCTYPE svg PUBLIC "-//W3C//DTD SVG 1.1//EN" "http://www.w3.org/Graphics/SVG/1.1/DTD/svg11.dtd">
<svg version="1.1" id="Layer_1" xmlns="http://www.w3.org/2000/svg" xmlns:xlink="http://www.w3.org/1999/xlink" x="0px" y="0px"
	 width="48px" height="48px" viewBox="0 0 48 48" enable-background="new 0 0 48 48" xml:space="preserve">
<g>
	<g>
		<path d="M43.636,2C44.939,2,46,3.059,46,4.361v39.277C46,44.94,44.939,46,43.636,46H4.361C3.059,46,2,44.94,2,43.639V4.361
			C2,3.059,3.059,2,4.361,2H43.636 M43.636,0H4.361C1.963,0,0,1.961,0,4.361v39.277C0,46.035,1.963,48,4.361,48h39.274
			C46.039,48,48,46.035,48,43.639V4.361C48,1.961,46.039,0,43.636,0L43.636,0z"/>
	</g>
	<polyline fill="none" stroke="#000000" stroke-width="2" stroke-linejoin="round" stroke-miterlimit="10" points="9.181,0 
		9.181,16.201 38.819,16.201 38.819,0 	"/>
	
		<rect x="9.181" y="23.281" fill="none" stroke="#000000" stroke-width="2" stroke-linejoin="round" stroke-miterlimit="10" width="29.639" height="18.465"/>
</g>
</svg>
