<?xml version="1.0" encoding="utf-8"?>
<!-- Generator: Adobe Illustrator 16.0.0, SVG Export Plug-In . SVG Version: 6.00 Build 0)  -->
<!DOCTYPE svg PUBLIC "-//W3C//DTD SVG 1.1//EN" "http://www.w3.org/Graphics/SVG/1.1/DTD/svg11.dtd">
<svg version="1.1" id="Layer_1" xmlns="http://www.w3.org/2000/svg" xmlns:xlink="http://www.w3.org/1999/xlink" x="0px" y="0px"
	 width="48px" height="48px" viewBox="0 0 48 48" enable-background="new 0 0 48 48" xml:space="preserve">
<g>
	<path d="M29.395,24.004c0,2.973-2.414,5.387-5.388,5.387c-2.981,0-5.398-2.414-5.398-5.387c0-2.984,2.417-5.395,5.398-5.395
		C26.98,18.609,29.395,21.02,29.395,24.004"/>
	<path fill="none" stroke="#000000" stroke-width="2" stroke-linecap="round" stroke-linejoin="round" stroke-miterlimit="10" d="
		M37.286,24.004c0,7.331-5.946,13.281-13.285,13.281c-7.333,0-13.284-5.95-13.284-13.281c0-7.341,5.95-13.29,13.284-13.29
		C31.34,10.714,37.286,16.663,37.286,24.004z"/>
	<path fill="none" stroke="#000000" stroke-width="2" stroke-linecap="round" stroke-linejoin="round" stroke-miterlimit="10" d="
		M46.999,24.004C46.999,36.7,36.699,47,24.001,47c-12.702,0-23-10.3-23-22.996C1.001,11.3,11.299,1,24.001,1
		C36.699,1,46.999,11.3,46.999,24.004z"/>
</g>
</svg>
