<?xml version="1.0" encoding="utf-8"?>
<!-- Generator: Adobe Illustrator 16.0.0, SVG Export Plug-In . SVG Version: 6.00 Build 0)  -->
<!DOCTYPE svg PUBLIC "-//W3C//DTD SVG 1.1//EN" "http://www.w3.org/Graphics/SVG/1.1/DTD/svg11.dtd">
<svg version="1.1" id="Layer_1" xmlns="http://www.w3.org/2000/svg" xmlns:xlink="http://www.w3.org/1999/xlink" x="0px" y="0px"
	 width="48px" height="48px" viewBox="0 0 48 48" enable-background="new 0 0 48 48" xml:space="preserve">
<g>
	<g>
		<path d="M42.75,2C44.542,2,46,3.443,46,5.217v30.861c0,1.773-1.458,3.217-3.25,3.217H13.783H13.03l-0.566,0.497
			c-1.403,1.232-2.343,2.732-2.966,4.098c-0.354-0.78-0.502-1.602-0.445-2.462l0.142-2.133H7.057H5.25
			c-1.792,0-3.25-1.443-3.25-3.217V5.217C2,3.443,3.458,2,5.25,2H42.75 M42.75,0H5.25C2.362,0,0,2.348,0,5.217v30.861
			c0,2.867,2.362,5.217,5.25,5.217h1.807C6.939,43.055,7.41,45.637,10.314,48c0,0,0.52-4.115,3.469-6.705H42.75
			c2.887,0,5.25-2.35,5.25-5.217V5.217C48,2.348,45.637,0,42.75,0L42.75,0z"/>
	</g>
	<g>
		<line fill="none" stroke="#000000" stroke-width="2" stroke-miterlimit="10" x1="39.59" y1="16.972" x2="8.41" y2="16.972"/>
		<line fill="none" stroke="#000000" stroke-width="2" stroke-miterlimit="10" x1="39.59" y1="23.468" x2="8.41" y2="23.468"/>
		<line fill="none" stroke="#000000" stroke-width="2" stroke-miterlimit="10" x1="39.59" y1="29.963" x2="21.466" y2="29.963"/>
		<line fill="none" stroke="#000000" stroke-width="2" stroke-miterlimit="10" x1="39.59" y1="10.477" x2="8.41" y2="10.477"/>
	</g>
</g>
</svg>
