<?xml version="1.0" encoding="utf-8"?>
<!-- Generator: Adobe Illustrator 16.0.0, SVG Export Plug-In . SVG Version: 6.00 Build 0)  -->
<!DOCTYPE svg PUBLIC "-//W3C//DTD SVG 1.1//EN" "http://www.w3.org/Graphics/SVG/1.1/DTD/svg11.dtd">
<svg version="1.1" id="Layer_1" xmlns="http://www.w3.org/2000/svg" xmlns:xlink="http://www.w3.org/1999/xlink" x="0px" y="0px"
	 width="48px" height="48px" viewBox="0 0 48 48" enable-background="new 0 0 48 48" xml:space="preserve">
<g>
	<g>
		<path fill="none" stroke="#000000" stroke-width="2" stroke-miterlimit="10" d="M47,40c0,3.85-3.15,7-7,7H8c-3.85,0-7-3.15-7-7V8
			c0-3.85,3.15-7,7-7h32c3.85,0,7,3.15,7,7V40z"/>
	</g>
	<path fill="none" stroke="#000000" stroke-width="2" stroke-miterlimit="10" d="M3.299,37.74c0.876-0.599,1.101-1.759,1.658-2.605
		c0.481-0.733,1.128-1.379,1.62-2.102c0.794-1.168,1.542-2.403,2.239-3.609c1.061-1.828,2.025-4.611,4.745-3.882
		c1.472,0.397,2.252,2.015,3.155,3.102c1.032,1.243,2.218,2.362,3.193,3.645c0.56,0.731,1.71,2.434,2.758,2.336
		c1.194-0.11,1.81-2.375,2.308-3.259c1.215-2.16,2.703-4.586,4.238-6.585c1.174-1.529,2.397-3.107,3.484-4.711
		c0.637-0.943,1.423-2.239,2.548-2.708c3.491-1.454,7.226,7.235,9.512,9.201"/>
	<circle fill="none" stroke="#000000" stroke-width="2" stroke-miterlimit="10" cx="20.585" cy="13.613" r="4.354"/>
</g>
</svg>
