<?xml version="1.0" encoding="utf-8"?>
<!-- Generator: Adobe Illustrator 16.0.0, SVG Export Plug-In . SVG Version: 6.00 Build 0)  -->
<!DOCTYPE svg PUBLIC "-//W3C//DTD SVG 1.1//EN" "http://www.w3.org/Graphics/SVG/1.1/DTD/svg11.dtd">
<svg version="1.1" id="Layer_1" xmlns="http://www.w3.org/2000/svg" xmlns:xlink="http://www.w3.org/1999/xlink" x="0px" y="0px"
	 width="48px" height="48px" viewBox="0 0 48 48" enable-background="new 0 0 48 48" xml:space="preserve">
<g>
	<g>
		<path fill="none" stroke="#000000" stroke-width="2" stroke-miterlimit="10" d="M47,40c0,3.85-3.15,7-7,7H8c-3.85,0-7-3.15-7-7V8
			c0-3.85,3.15-7,7-7h32c3.85,0,7,3.15,7,7V40z"/>
	</g>
	<g>
		<line fill="none" stroke="#000000" stroke-width="2" stroke-miterlimit="10" x1="11.23" y1="1" x2="11.23" y2="7.609"/>
		<line fill="none" stroke="#000000" stroke-width="2" stroke-miterlimit="10" x1="36.771" y1="1" x2="36.771" y2="7.609"/>
	</g>
	
		<rect x="5.549" y="16.512" fill="none" stroke="#000000" stroke-width="2" stroke-miterlimit="10" width="36.902" height="23.791"/>
	<g>
		<g>
			
				<rect x="10.792" y="21.486" fill="none" stroke="#000000" stroke-width="2" stroke-miterlimit="10" width="6.276" height="4.382"/>
			
				<rect x="20.862" y="21.486" fill="none" stroke="#000000" stroke-width="2" stroke-miterlimit="10" width="6.276" height="4.382"/>
			
				<rect x="30.932" y="21.486" fill="none" stroke="#000000" stroke-width="2" stroke-miterlimit="10" width="6.276" height="4.382"/>
		</g>
		<g>
			
				<rect x="10.792" y="30.948" fill="none" stroke="#000000" stroke-width="2" stroke-miterlimit="10" width="6.276" height="4.38"/>
			
				<rect x="20.862" y="30.948" fill="none" stroke="#000000" stroke-width="2" stroke-miterlimit="10" width="6.276" height="4.38"/>
			
				<rect x="30.932" y="30.948" fill="none" stroke="#000000" stroke-width="2" stroke-miterlimit="10" width="6.276" height="4.38"/>
		</g>
	</g>
</g>
</svg>
