<?xml version="1.0" encoding="utf-8"?>
<!-- Generator: Adobe Illustrator 16.0.0, SVG Export Plug-In . SVG Version: 6.00 Build 0)  -->
<!DOCTYPE svg PUBLIC "-//W3C//DTD SVG 1.1//EN" "http://www.w3.org/Graphics/SVG/1.1/DTD/svg11.dtd">
<svg version="1.1" id="Layer_1" xmlns="http://www.w3.org/2000/svg" xmlns:xlink="http://www.w3.org/1999/xlink" x="0px" y="0px"
	 width="48px" height="48px" viewBox="0 0 48 48" enable-background="new 0 0 48 48" xml:space="preserve">
<g>
	<g>
		<path fill="none" stroke="#000000" stroke-width="2" stroke-miterlimit="10" d="M47,40c0,3.85-3.15,7-7,7H8c-3.85,0-7-3.15-7-7V8
			c0-3.85,3.15-7,7-7h32c3.85,0,7,3.15,7,7V40z"/>
	</g>
	<g>
		<g>
			<g>
				<line fill="none" stroke="#000000" stroke-width="2" stroke-miterlimit="10" x1="15.237" y1="15.109" x2="6.405" y2="6.276"/>
				<polyline fill="none" stroke="#000000" stroke-width="2" stroke-miterlimit="10" points="17.212,6.276 6.405,6.276 
					6.404,17.085 				"/>
			</g>
			<g>
				<line fill="none" stroke="#000000" stroke-width="2" stroke-miterlimit="10" x1="15.237" y1="32.891" x2="6.405" y2="41.726"/>
				<polyline fill="none" stroke="#000000" stroke-width="2" stroke-miterlimit="10" points="17.212,41.726 6.405,41.726 
					6.404,30.916 				"/>
			</g>
		</g>
		<g>
			<g>
				<line fill="none" stroke="#000000" stroke-width="2" stroke-miterlimit="10" x1="32.763" y1="15.109" x2="41.596" y2="6.276"/>
				<polyline fill="none" stroke="#000000" stroke-width="2" stroke-miterlimit="10" points="30.788,6.276 41.596,6.276 
					41.596,17.085 				"/>
			</g>
			<g>
				<line fill="none" stroke="#000000" stroke-width="2" stroke-miterlimit="10" x1="32.763" y1="32.891" x2="41.596" y2="41.726"/>
				<polyline fill="none" stroke="#000000" stroke-width="2" stroke-miterlimit="10" points="30.788,41.726 41.596,41.726 
					41.596,30.916 				"/>
			</g>
		</g>
	</g>
</g>
</svg>
