<?xml version="1.0" encoding="utf-8"?>
<!-- Generator: Adobe Illustrator 16.0.0, SVG Export Plug-In . SVG Version: 6.00 Build 0)  -->
<!DOCTYPE svg PUBLIC "-//W3C//DTD SVG 1.1//EN" "http://www.w3.org/Graphics/SVG/1.1/DTD/svg11.dtd">
<svg version="1.1" id="Layer_1" xmlns="http://www.w3.org/2000/svg" xmlns:xlink="http://www.w3.org/1999/xlink" x="0px" y="0px"
	 width="48px" height="48px" viewBox="0 0 48 48" enable-background="new 0 0 48 48" xml:space="preserve">
<g>
	<g>
		<path fill="none" stroke="#000000" stroke-width="2" stroke-miterlimit="10" d="M47,40c0,3.85-3.15,7-7,7H8c-3.85,0-7-3.15-7-7V8
			c0-3.85,3.15-7,7-7h32c3.85,0,7,3.15,7,7V40z"/>
	</g>
	<g>
		<g>
			<g>
				<line fill="none" stroke="#000000" stroke-width="2" stroke-miterlimit="10" x1="36.706" y1="36.709" x2="27.875" y2="27.875"/>
				<polyline fill="none" stroke="#000000" stroke-width="2" stroke-miterlimit="10" points="38.681,27.875 27.875,27.875 
					27.874,38.684 				"/>
			</g>
			<g>
				<line fill="none" stroke="#000000" stroke-width="2" stroke-miterlimit="10" x1="11.292" y1="36.709" x2="20.125" y2="27.875"/>
				<polyline fill="none" stroke="#000000" stroke-width="2" stroke-miterlimit="10" points="9.317,27.875 20.125,27.875 
					20.125,38.684 				"/>
			</g>
		</g>
		<g>
			<g>
				<line fill="none" stroke="#000000" stroke-width="2" stroke-miterlimit="10" x1="36.706" y1="11.293" x2="27.875" y2="20.126"/>
				<polyline fill="none" stroke="#000000" stroke-width="2" stroke-miterlimit="10" points="38.681,20.126 27.875,20.126 
					27.874,9.319 				"/>
			</g>
			<g>
				<line fill="none" stroke="#000000" stroke-width="2" stroke-miterlimit="10" x1="11.292" y1="11.293" x2="20.125" y2="20.126"/>
				<polyline fill="none" stroke="#000000" stroke-width="2" stroke-miterlimit="10" points="9.317,20.126 20.125,20.126 
					20.125,9.319 				"/>
			</g>
		</g>
	</g>
</g>
</svg>
