<?xml version="1.0" encoding="utf-8"?>
<!-- Generator: Adobe Illustrator 16.0.0, SVG Export Plug-In . SVG Version: 6.00 Build 0)  -->
<!DOCTYPE svg PUBLIC "-//W3C//DTD SVG 1.1//EN" "http://www.w3.org/Graphics/SVG/1.1/DTD/svg11.dtd">
<svg version="1.1" id="Layer_1" xmlns="http://www.w3.org/2000/svg" xmlns:xlink="http://www.w3.org/1999/xlink" x="0px" y="0px"
	 width="48px" height="48px" viewBox="0 0 48 48" enable-background="new 0 0 48 48" xml:space="preserve">
<g>
	<g>
		<g>
			<path d="M2,2.694l20.772,5.45v37.365L2,40.057V2.694 M0,0.102V41.6l24,6.299l0.772-0.201V6.601L0,0.102L0,0.102z"/>
		</g>
		<g>
			<path d="M46,2.694v37.363l-20.772,5.452V8.144L46,2.694 M48,0.102L23.228,6.601v41.097L24,47.898L48,41.6V0.102L48,0.102z"/>
		</g>
	</g>
	<g>
		<g>
			<line fill="none" stroke="#000000" stroke-width="2" stroke-miterlimit="10" x1="4.475" y1="8.803" x2="19.868" y2="12.987"/>
			<line fill="none" stroke="#000000" stroke-width="2" stroke-miterlimit="10" x1="4.475" y1="17.405" x2="19.868" y2="21.59"/>
			<line fill="none" stroke="#000000" stroke-width="2" stroke-miterlimit="10" x1="4.475" y1="26.007" x2="19.868" y2="30.193"/>
			<line fill="none" stroke="#000000" stroke-width="2" stroke-miterlimit="10" x1="4.475" y1="34.609" x2="19.868" y2="38.795"/>
		</g>
		<g>
			<line fill="none" stroke="#000000" stroke-width="2" stroke-miterlimit="10" x1="43.525" y1="8.803" x2="28.132" y2="12.987"/>
			<line fill="none" stroke="#000000" stroke-width="2" stroke-miterlimit="10" x1="43.525" y1="17.405" x2="28.132" y2="21.59"/>
			<line fill="none" stroke="#000000" stroke-width="2" stroke-miterlimit="10" x1="43.525" y1="26.007" x2="28.132" y2="30.193"/>
			<line fill="none" stroke="#000000" stroke-width="2" stroke-miterlimit="10" x1="43.525" y1="34.609" x2="28.132" y2="38.795"/>
		</g>
	</g>
</g>
</svg>
