<?xml version="1.0" encoding="utf-8"?>
<!-- Generator: Adobe Illustrator 16.0.0, SVG Export Plug-In . SVG Version: 6.00 Build 0)  -->
<!DOCTYPE svg PUBLIC "-//W3C//DTD SVG 1.1//EN" "http://www.w3.org/Graphics/SVG/1.1/DTD/svg11.dtd">
<svg version="1.1" id="Layer_1" xmlns="http://www.w3.org/2000/svg" xmlns:xlink="http://www.w3.org/1999/xlink" x="0px" y="0px"
	 width="48px" height="48px" viewBox="0 0 48 48" enable-background="new 0 0 48 48" xml:space="preserve">
<g>
	<g>
		<g>
			<path d="M41.307,2C43.205,2,44.859,2.137,46,2.266v37.939c-1.843-0.34-3.67-0.512-5.459-0.512c-6.986,0-12.17,2.577-15.308,4.762
				V8.408C28.535,3.126,35.756,2,41.307,2 M41.307,0c-5.992,0-14.384,1.284-18.073,7.861v39.463L24,48
				c1.97-1.833,7.686-6.307,16.541-6.307c2.282,0,4.771,0.297,7.459,1.012V0.527C48,0.527,45.146,0,41.307,0L41.307,0z"/>
		</g>
		<g>
			<path d="M6.693,2L6.693,2c5.551,0,12.771,1.126,16.073,6.408v36.047c-3.138-2.185-8.321-4.762-15.308-4.762
				c-1.788,0-3.616,0.172-5.458,0.512V2.266C3.141,2.137,4.795,2,6.693,2 M6.693,0C2.854,0,0,0.527,0,0.527v42.178
				c2.688-0.715,5.177-1.012,7.458-1.012C16.315,41.693,22.03,46.167,24,48l0.767-0.676V7.861C21.078,1.284,12.685,0,6.693,0
				L6.693,0z"/>
		</g>
	</g>
	<g>
		<g>
			<path fill="none" stroke="#000000" stroke-width="2" stroke-miterlimit="10" d="M5.714,7.595c0,0,7.681-0.158,13.635,4.467"/>
			<path fill="none" stroke="#000000" stroke-width="2" stroke-miterlimit="10" d="M5.714,16.257c0,0,7.681-0.377,13.635,4.077"/>
			<path fill="none" stroke="#000000" stroke-width="2" stroke-miterlimit="10" d="M5.714,24.923c0,0,7.681-0.601,13.635,3.683"/>
			<path fill="none" stroke="#000000" stroke-width="2" stroke-miterlimit="10" d="M5.714,33.586c0,0,7.681-0.82,13.635,3.291"/>
		</g>
		<g>
			<path fill="none" stroke="#000000" stroke-width="2" stroke-miterlimit="10" d="M42.286,7.595c0,0-7.681-0.158-13.635,4.467"/>
			<path fill="none" stroke="#000000" stroke-width="2" stroke-miterlimit="10" d="M42.286,16.257c0,0-7.681-0.377-13.635,4.077"/>
			<path fill="none" stroke="#000000" stroke-width="2" stroke-miterlimit="10" d="M42.286,24.923c0,0-7.681-0.601-13.635,3.683"/>
			<path fill="none" stroke="#000000" stroke-width="2" stroke-miterlimit="10" d="M42.286,33.586c0,0-7.681-0.82-13.635,3.291"/>
		</g>
	</g>
</g>
</svg>
