<?xml version="1.0" encoding="utf-8"?>
<!-- Generator: Adobe Illustrator 16.0.0, SVG Export Plug-In . SVG Version: 6.00 Build 0)  -->
<!DOCTYPE svg PUBLIC "-//W3C//DTD SVG 1.1//EN" "http://www.w3.org/Graphics/SVG/1.1/DTD/svg11.dtd">
<svg version="1.1" id="Layer_1" xmlns="http://www.w3.org/2000/svg" xmlns:xlink="http://www.w3.org/1999/xlink" x="0px" y="0px"
	 width="48px" height="48px" viewBox="0 0 48 48" enable-background="new 0 0 48 48" xml:space="preserve">
<g>
	<g>
		<path fill="none" stroke="#000000" stroke-width="2" stroke-miterlimit="10" d="M47,14.239l-14.17,6.284v-2.192
			c0-2.768-2.265-5.031-5.031-5.031H6.031C3.264,13.299,1,15.563,1,18.331v10.337c0,2.769,2.264,5.031,5.031,5.031h21.768
			c2.767,0,5.031-2.263,5.031-5.031v-2.191l14.169,6.283L47,14.239z"/>
		<circle fill="none" stroke="#000000" stroke-width="2" stroke-miterlimit="10" cx="8.554" cy="7.399" r="5.899"/>
		<circle fill="none" stroke="#000000" stroke-width="2" stroke-miterlimit="10" cx="24" cy="7.399" r="5.899"/>
		<line fill="none" stroke="#000000" stroke-width="2" stroke-miterlimit="10" x1="7.655" y1="46.498" x2="14.989" y2="33.699"/>
		<line fill="none" stroke="#000000" stroke-width="2" stroke-miterlimit="10" x1="23.299" y1="46.498" x2="15.964" y2="33.699"/>
		<line fill="none" stroke="#000000" stroke-width="2" stroke-miterlimit="10" x1="15.478" y1="33.699" x2="15.478" y2="46.498"/>
	</g>
	<line fill="none" stroke="#000000" stroke-width="2" stroke-miterlimit="10" x1="6.25" y1="19.289" x2="15.478" y2="19.289"/>
	<line fill="none" stroke="#000000" stroke-width="2" stroke-miterlimit="10" x1="6.25" y1="23.436" x2="15.478" y2="23.436"/>
</g>
</svg>
