<?xml version="1.0" encoding="utf-8"?>
<!-- Generator: Adobe Illustrator 16.0.0, SVG Export Plug-In . SVG Version: 6.00 Build 0)  -->
<!DOCTYPE svg PUBLIC "-//W3C//DTD SVG 1.1//EN" "http://www.w3.org/Graphics/SVG/1.1/DTD/svg11.dtd">
<svg version="1.1" id="Layer_1" xmlns="http://www.w3.org/2000/svg" xmlns:xlink="http://www.w3.org/1999/xlink" x="0px" y="0px"
	 width="48px" height="48px" viewBox="0 0 48 48" enable-background="new 0 0 48 48" xml:space="preserve">
<g>
	<path fill="none" stroke="#000000" stroke-width="2" stroke-miterlimit="10" d="M38.108,8.271H9.892c0,0-8.108,8.923-8.852,14.956
		c-0.462,3.755,3.099,6.883,6.884,6.883h6.454v2.495c0,1.622,1.327,2.949,2.95,2.949h13.344c1.623,0,2.949-1.327,2.949-2.949V30.11
		h6.454c3.785,0,7.347-3.128,6.884-6.883C46.217,17.194,38.108,8.271,38.108,8.271z"/>
	<path fill="none" stroke="#000000" stroke-width="2" stroke-miterlimit="10" d="M1.001,25.155v9.617c0,0-0.107,4.956,5.142,4.956
		c5.248,0,18.165,0,18.165,0"/>
	<path fill="none" stroke="#000000" stroke-width="2" stroke-miterlimit="10" d="M46.999,25.155v9.617c0,0,0.105,4.956-5.143,4.956
		s-18.165,0-18.165,0"/>
</g>
</svg>
