<?xml version="1.0" encoding="utf-8"?>
<!-- Generator: Adobe Illustrator 16.0.0, SVG Export Plug-In . SVG Version: 6.00 Build 0)  -->
<!DOCTYPE svg PUBLIC "-//W3C//DTD SVG 1.1//EN" "http://www.w3.org/Graphics/SVG/1.1/DTD/svg11.dtd">
<svg version="1.1" id="Layer_1" xmlns="http://www.w3.org/2000/svg" xmlns:xlink="http://www.w3.org/1999/xlink" x="0px" y="0px"
	 width="48px" height="48px" viewBox="0 0 48 48" enable-background="new 0 0 48 48" xml:space="preserve">
<g>
	<g>
		<line fill="none" stroke="#000000" stroke-width="2" stroke-miterlimit="10" x1="24.31" y1="1.567" x2="24.31" y2="25.505"/>
		<polyline fill="none" stroke="#000000" stroke-width="2" stroke-miterlimit="10" points="32.093,17.722 24.31,25.505 
			16.525,17.722 		"/>
	</g>
	<g>
		<path fill="none" stroke="#000000" stroke-width="2" stroke-miterlimit="10" d="M17.393,14.975H9.892
			c0,0-8.108,8.922-8.852,14.955c-0.462,3.757,3.099,6.884,6.884,6.884h6.454v2.495c0,1.623,1.327,2.95,2.95,2.95h13.344
			c1.623,0,2.949-1.327,2.949-2.95v-2.495h6.454c3.785,0,7.347-3.127,6.884-6.884c-0.742-6.033-8.851-14.955-8.851-14.955h-6.957"/>
		<path fill="none" stroke="#000000" stroke-width="2" stroke-miterlimit="10" d="M1.001,31.857v9.619c0,0-0.107,4.956,5.142,4.956
			c5.248,0,18.165,0,18.165,0"/>
		<path fill="none" stroke="#000000" stroke-width="2" stroke-miterlimit="10" d="M46.999,31.857v9.619c0,0,0.105,4.956-5.143,4.956
			s-18.165,0-18.165,0"/>
	</g>
</g>
</svg>
