<?xml version="1.0" encoding="utf-8"?>
<!-- Generator: Adobe Illustrator 16.0.0, SVG Export Plug-In . SVG Version: 6.00 Build 0)  -->
<!DOCTYPE svg PUBLIC "-//W3C//DTD SVG 1.1//EN" "http://www.w3.org/Graphics/SVG/1.1/DTD/svg11.dtd">
<svg version="1.1" id="Layer_1" xmlns="http://www.w3.org/2000/svg" xmlns:xlink="http://www.w3.org/1999/xlink" x="0px" y="0px"
	 width="48px" height="48px" viewBox="0 0 48 48" enable-background="new 0 0 48 48" xml:space="preserve">
<g>
	<g>
		<line fill="none" stroke="#000000" stroke-width="2" stroke-miterlimit="10" x1="25.821" y1="44.628" x2="25.821" y2="20.691"/>
		<polyline fill="none" stroke="#000000" stroke-width="2" stroke-miterlimit="10" points="18.038,28.473 25.821,20.691 
			33.604,28.473 		"/>
	</g>
	<path fill="none" stroke="#000000" stroke-width="2" stroke-miterlimit="10" d="M47,25.914c0-5.218-3.478-9.616-8.24-11.024
		C38.378,8.466,33.064,3.373,26.546,3.373c-6.568,0-11.912,5.168-12.224,11.658c-1.066-0.391-2.212-0.616-3.415-0.616
		C5.435,14.415,1,18.851,1,24.322c0,1.484,0.335,2.883,0.919,4.147c7.665,11.557,32.949,7.773,36.94,5.739
		C43.151,32.538,47,30.795,47,25.914z"/>
</g>
</svg>
