<?xml version="1.0" encoding="utf-8"?>
<!-- Generator: Adobe Illustrator 16.0.0, SVG Export Plug-In . SVG Version: 6.00 Build 0)  -->
<!DOCTYPE svg PUBLIC "-//W3C//DTD SVG 1.1//EN" "http://www.w3.org/Graphics/SVG/1.1/DTD/svg11.dtd">
<svg version="1.1" id="Layer_1" xmlns="http://www.w3.org/2000/svg" xmlns:xlink="http://www.w3.org/1999/xlink" x="0px" y="0px"
	 width="48px" height="48px" viewBox="0 0 48 48" enable-background="new 0 0 48 48" xml:space="preserve">
<g>
	<g>
		<line fill="none" stroke="#000000" stroke-width="2" stroke-miterlimit="10" x1="25.822" y1="21.774" x2="25.822" y2="45.712"/>
		<polyline fill="none" stroke="#000000" stroke-width="2" stroke-miterlimit="10" points="33.604,37.93 25.822,45.712 
			18.038,37.93 		"/>
	</g>
	<path fill="none" stroke="#000000" stroke-width="2" stroke-miterlimit="10" d="M47,24.829c0-5.217-3.478-9.617-8.24-11.023
		C38.378,7.383,33.064,2.288,26.546,2.288c-6.568,0-11.912,5.17-12.224,11.659c-1.066-0.393-2.212-0.618-3.415-0.618
		C5.435,13.329,1,17.765,1,23.238c0,1.482,0.335,2.885,0.919,4.146c7.665,11.559,32.949,7.775,36.94,5.741
		C43.151,31.455,47,29.713,47,24.829z"/>
</g>
</svg>
