<?xml version="1.0" encoding="utf-8"?>
<!-- Generator: Adobe Illustrator 16.0.0, SVG Export Plug-In . SVG Version: 6.00 Build 0)  -->
<!DOCTYPE svg PUBLIC "-//W3C//DTD SVG 1.1//EN" "http://www.w3.org/Graphics/SVG/1.1/DTD/svg11.dtd">
<svg version="1.1" id="Layer_1" xmlns="http://www.w3.org/2000/svg" xmlns:xlink="http://www.w3.org/1999/xlink" x="0px" y="0px"
	 width="48px" height="48px" viewBox="0 0 48 48" enable-background="new 0 0 48 48" xml:space="preserve">
<g>
	<circle fill="none" stroke="#000000" stroke-width="2" stroke-miterlimit="10" cx="36.639" cy="37.568" r="8.246"/>
	<g>
		<line fill="none" stroke="#000000" stroke-width="2" stroke-miterlimit="10" x1="31.698" y1="37.568" x2="41.581" y2="37.568"/>
		<line fill="none" stroke="#000000" stroke-width="2" stroke-miterlimit="10" x1="36.64" y1="32.627" x2="36.64" y2="42.51"/>
	</g>
	<path fill="none" stroke="#000000" stroke-width="2" stroke-miterlimit="10" d="M41.871,31.743C44.801,30.315,47,28.419,47,24.729
		c0-5.218-3.478-9.617-8.24-11.024C38.378,7.281,33.064,2.187,26.546,2.187c-6.568,0-11.912,5.168-12.224,11.658
		c-1.066-0.391-2.212-0.617-3.415-0.617C5.436,13.228,1,17.664,1,23.135c0,1.484,0.335,2.884,0.919,4.148
		c5.112,7.704,18.051,8.591,27.294,7.725"/>
</g>
</svg>
