<?xml version="1.0" encoding="utf-8"?>
<!-- Generator: Adobe Illustrator 16.0.0, SVG Export Plug-In . SVG Version: 6.00 Build 0)  -->
<!DOCTYPE svg PUBLIC "-//W3C//DTD SVG 1.1//EN" "http://www.w3.org/Graphics/SVG/1.1/DTD/svg11.dtd">
<svg version="1.1" id="Layer_1" xmlns="http://www.w3.org/2000/svg" xmlns:xlink="http://www.w3.org/1999/xlink" x="0px" y="0px"
	 width="48px" height="48px" viewBox="0 0 48 48" enable-background="new 0 0 48 48" xml:space="preserve">
<g>
	<g>
		<path d="M14.442,11.319c1.044,0,2.025,0.407,2.764,1.146c0.738,0.738,1.145,1.719,1.145,2.764c0,1.045-0.407,2.027-1.146,2.765
			c-0.738,0.739-1.72,1.146-2.764,1.146c-1.044,0-2.026-0.407-2.765-1.146c-0.738-0.738-1.145-1.72-1.145-2.765
			c0-1.044,0.406-2.026,1.145-2.764C12.416,11.726,13.397,11.319,14.442,11.319 M14.442,9.319c-1.513,0-3.025,0.577-4.179,1.731
			c-2.308,2.307-2.308,6.05,0,8.357c1.154,1.154,2.667,1.731,4.179,1.731c1.512,0,3.024-0.577,4.178-1.731
			c2.308-2.308,2.308-6.051,0-8.357C17.466,9.896,15.954,9.319,14.442,9.319L14.442,9.319z"/>
	</g>
	<g>
		<path d="M14.442,2.787c3.323,0,6.447,1.294,8.797,3.645c3.102,3.1,4.338,7.676,3.228,11.941l-0.288,1.108l0.81,0.81l3.49,3.491
			l-0.168,0.168l-1.413,1.414l1.414,1.414l15.662,15.664l-0.071,2.297l-3.015,0.37l-1.344-1.344l-0.563-0.563l-0.795-0.021
			l-0.69-0.02l0.381-2.388l0.383-2.405l-2.435,0.092l-3.288,0.126l-0.284-3.036l-0.188-2.01l-2.009,0.207l-2.271,0.234l-3.338-3.339
			l-1.414-1.414l-1.414,1.414l-0.625,0.624l-3.49-3.491l-0.81-0.81l-1.109,0.288c-1.032,0.269-2.097,0.405-3.165,0.405
			c-3.319,0-6.436-1.29-8.777-3.632c-4.852-4.852-4.852-12.745,0-17.596C7.994,4.082,11.119,2.787,14.442,2.787 M14.442,0.787
			c-3.696,0-7.392,1.41-10.212,4.23c-5.64,5.639-5.64,14.783,0,20.424c2.815,2.816,6.502,4.218,10.191,4.218
			c1.234,0,2.467-0.157,3.669-0.47l4.904,4.906l2.039-2.039l4.011,4.012l3.217-0.332l0.46,4.92l5.18-0.197l-0.738,4.639l2.968,0.082
			l2.034,2.033l5.684-0.699L48,41.639L31.726,25.363l1.581-1.582l-4.904-4.904c1.248-4.794,0.008-10.104-3.749-13.859
			C21.833,2.197,18.138,0.787,14.442,0.787L14.442,0.787z"/>
	</g>
</g>
</svg>
