<?xml version="1.0" encoding="utf-8"?>
<!-- Generator: Adobe Illustrator 16.0.0, SVG Export Plug-In . SVG Version: 6.00 Build 0)  -->
<!DOCTYPE svg PUBLIC "-//W3C//DTD SVG 1.1//EN" "http://www.w3.org/Graphics/SVG/1.1/DTD/svg11.dtd">
<svg version="1.1" id="Layer_1" xmlns="http://www.w3.org/2000/svg" xmlns:xlink="http://www.w3.org/1999/xlink" x="0px" y="0px"
	 width="48px" height="48px" viewBox="0 0 48 48" enable-background="new 0 0 48 48" xml:space="preserve">
<g>
	<ellipse fill="none" stroke="#000000" stroke-width="2" stroke-miterlimit="10" cx="24" cy="12.634" rx="23" ry="6.442"/>
	<path fill="none" stroke="#000000" stroke-width="2" stroke-miterlimit="10" d="M47,18.78c0,3.234-10.298,5.854-23,5.854
		c-12.703,0-23-2.62-23-5.854"/>
	<path fill="none" stroke="#000000" stroke-width="2" stroke-miterlimit="10" d="M47,24.505c0,3.232-10.298,5.856-23,5.856
		c-12.703,0-23-2.624-23-5.856"/>
	<path fill="none" stroke="#000000" stroke-width="2" stroke-miterlimit="10" d="M47,30.229c0,3.234-10.298,5.856-23,5.856
		c-12.703,0-23-2.622-23-5.856"/>
	<path fill="none" stroke="#000000" stroke-width="2" stroke-miterlimit="10" d="M47,35.954c0,3.234-10.298,5.854-23,5.854
		c-12.703,0-23-2.62-23-5.854"/>
</g>
</svg>
