<?xml version="1.0" encoding="utf-8"?>
<!-- Generator: Adobe Illustrator 16.0.0, SVG Export Plug-In . SVG Version: 6.00 Build 0)  -->
<!DOCTYPE svg PUBLIC "-//W3C//DTD SVG 1.1//EN" "http://www.w3.org/Graphics/SVG/1.1/DTD/svg11.dtd">
<svg version="1.1" id="Layer_1" xmlns="http://www.w3.org/2000/svg" xmlns:xlink="http://www.w3.org/1999/xlink" x="0px" y="0px"
	 width="48px" height="48px" viewBox="0 0 48 48" enable-background="new 0 0 48 48" xml:space="preserve">
<g>
	<path fill="none" stroke="#000000" stroke-width="2" stroke-miterlimit="10" d="M19.181,26.331c0,3.228-2.927,5.868-6.507,5.868
		H7.506C3.927,32.199,1,29.559,1,26.331v-4.662c0-3.227,2.927-5.868,6.506-5.868h5.167c3.58,0,6.507,2.641,6.507,5.868"/>
	<path fill="none" stroke="#000000" stroke-width="2" stroke-miterlimit="10" d="M28.819,26.331c0,3.228,2.929,5.868,6.507,5.868
		h5.168c3.578,0,6.506-2.641,6.506-5.868v-4.662c0-3.227-2.928-5.868-6.506-5.868h-5.168c-3.578,0-6.507,2.641-6.507,5.868"/>
	<line fill="none" stroke="#000000" stroke-width="2" stroke-miterlimit="10" x1="14.251" y1="23.999" x2="33.74" y2="23.999"/>
</g>
</svg>
