<?xml version="1.0" encoding="utf-8"?>
<!-- Generator: Adobe Illustrator 16.0.0, SVG Export Plug-In . SVG Version: 6.00 Build 0)  -->
<!DOCTYPE svg PUBLIC "-//W3C//DTD SVG 1.1//EN" "http://www.w3.org/Graphics/SVG/1.1/DTD/svg11.dtd">
<svg version="1.1" id="Layer_1" xmlns="http://www.w3.org/2000/svg" xmlns:xlink="http://www.w3.org/1999/xlink" x="0px" y="0px"
	 width="48px" height="48px" viewBox="0 0 48 48" enable-background="new 0 0 48 48" xml:space="preserve">
<g>
	<path fill="none" stroke="#000000" stroke-width="2" stroke-miterlimit="10" d="M21.925,29.963
		c2.693,2.694,2.453,7.336-0.534,10.321l-4.31,4.311c-2.983,2.985-7.629,3.225-10.321,0.531L2.874,41.24
		c-2.692-2.693-2.454-7.337,0.531-10.32l4.311-4.313c2.985-2.984,7.63-3.224,10.323-0.531"/>
	<path fill="none" stroke="#000000" stroke-width="2" stroke-miterlimit="10" d="M29.964,21.925
		c2.693,2.692,7.336,2.453,10.321-0.534l4.311-4.31c2.985-2.983,3.224-7.629,0.53-10.321L41.24,2.873
		C38.549,0.18,33.904,0.42,30.92,3.405l-4.311,4.31c-2.985,2.985-3.225,7.63-0.532,10.322"/>
	<line fill="none" stroke="#000000" stroke-width="2" stroke-miterlimit="10" x1="15.868" y1="32.131" x2="32.123" y2="15.876"/>
</g>
</svg>
