<?xml version="1.0" encoding="utf-8"?>
<!-- Generator: Adobe Illustrator 16.0.0, SVG Export Plug-In . SVG Version: 6.00 Build 0)  -->
<!DOCTYPE svg PUBLIC "-//W3C//DTD SVG 1.1//EN" "http://www.w3.org/Graphics/SVG/1.1/DTD/svg11.dtd">
<svg version="1.1" id="Layer_1" xmlns="http://www.w3.org/2000/svg" xmlns:xlink="http://www.w3.org/1999/xlink" x="0px" y="0px"
	 width="48px" height="48px" viewBox="0 0 48 48" enable-background="new 0 0 48 48" xml:space="preserve">
<g>
	<g>
		<line fill="none" stroke="#000000" stroke-width="2" stroke-miterlimit="10" x1="17.641" y1="17.64" x2="30.359" y2="30.359"/>
		<line fill="none" stroke="#000000" stroke-width="2" stroke-miterlimit="10" x1="30.36" y1="17.64" x2="17.641" y2="30.359"/>
	</g>
	<g>
		<path d="M24,2c12.131,0,22,9.869,22,22s-9.869,22-22,22S2,36.131,2,24S11.869,2,24,2 M24,0C10.745,0,0,10.746,0,24
			c0,13.256,10.745,24,24,24c13.256,0,24-10.744,24-24C48,10.746,37.256,0,24,0L24,0z"/>
	</g>
</g>
</svg>
