<?xml version="1.0" encoding="utf-8"?>
<!-- Generator: Adobe Illustrator 16.0.0, SVG Export Plug-In . SVG Version: 6.00 Build 0)  -->
<!DOCTYPE svg PUBLIC "-//W3C//DTD SVG 1.1//EN" "http://www.w3.org/Graphics/SVG/1.1/DTD/svg11.dtd">
<svg version="1.1" id="Layer_1" xmlns="http://www.w3.org/2000/svg" xmlns:xlink="http://www.w3.org/1999/xlink" x="0px" y="0px"
	 width="48px" height="48px" viewBox="0 0 48 48" enable-background="new 0 0 48 48" xml:space="preserve">
<g>
	<path fill="none" stroke="#000000" stroke-width="2" stroke-linejoin="round" stroke-miterlimit="10" d="M23.337,42.942
		c9.771,0,18.732-1.995,20.76-4.024c-1.488,1.49-3.363-6.995-3.363-13.288c0-6.3-2.319-9.382-2.319-9.382
		c-5.319-11.062-23.508-11.062-28.829,0c0,0-2.317,3.082-2.317,9.382c0,6.293-1.876,14.778-3.365,13.288
		C5.975,40.99,13.566,42.942,23.337,42.942z"/>
	
		<circle fill="none" stroke="#000000" stroke-width="2" stroke-linejoin="round" stroke-miterlimit="10" cx="24" cy="4.476" r="3.476"/>
	<path fill="none" stroke="#000000" stroke-width="2" stroke-linejoin="round" stroke-miterlimit="10" d="M28.06,42.942
		C28.06,45.185,26.242,47,24,47c-2.241,0-4.059-1.815-4.059-4.058"/>
</g>
</svg>
