<?xml version="1.0" encoding="utf-8"?>
<!-- Generator: Adobe Illustrator 16.0.0, SVG Export Plug-In . SVG Version: 6.00 Build 0)  -->
<!DOCTYPE svg PUBLIC "-//W3C//DTD SVG 1.1//EN" "http://www.w3.org/Graphics/SVG/1.1/DTD/svg11.dtd">
<svg version="1.1" id="Layer_1" xmlns="http://www.w3.org/2000/svg" xmlns:xlink="http://www.w3.org/1999/xlink" x="0px" y="0px"
	 width="48px" height="48px" viewBox="0 0 48 48" enable-background="new 0 0 48 48" xml:space="preserve">
<g>
	<path fill="none" stroke="#000000" stroke-width="2" stroke-linejoin="round" stroke-miterlimit="10" d="M43.092,39.637
		c0.426-0.236,0.765-0.478,1.005-0.719c-1.488,1.49-3.364-6.995-3.364-13.288c0-6.3-2.318-9.382-2.318-9.382
		C34.26,7.611,22.26,5.719,14.667,10.57"/>
	<path fill="none" stroke="#000000" stroke-width="2" stroke-linejoin="round" stroke-miterlimit="10" d="M10.326,14.905
		c-0.269,0.428-0.517,0.876-0.741,1.343c0,0-2.317,3.082-2.317,9.382c0,6.293-1.876,14.778-3.365,13.288
		c2.072,2.072,9.664,4.024,19.434,4.024c5.426,0,10.604-0.616,14.484-1.511"/>
	
		<circle fill="none" stroke="#000000" stroke-width="2" stroke-linejoin="round" stroke-miterlimit="10" cx="24" cy="4.476" r="3.476"/>
	<path fill="none" stroke="#000000" stroke-width="2" stroke-linejoin="round" stroke-miterlimit="10" d="M28.059,42.942
		C28.059,45.185,26.241,47,24,47s-4.059-1.815-4.059-4.058"/>
	
		<line fill="none" stroke="#000000" stroke-width="2" stroke-linejoin="round" stroke-miterlimit="10" x1="1" y1="1" x2="47" y2="47"/>
</g>
</svg>
