<?xml version="1.0" encoding="utf-8"?>
<!-- Generator: Adobe Illustrator 16.0.0, SVG Export Plug-In . SVG Version: 6.00 Build 0)  -->
<!DOCTYPE svg PUBLIC "-//W3C//DTD SVG 1.1//EN" "http://www.w3.org/Graphics/SVG/1.1/DTD/svg11.dtd">
<svg version="1.1" id="Layer_1" xmlns="http://www.w3.org/2000/svg" xmlns:xlink="http://www.w3.org/1999/xlink" x="0px" y="0px"
	 width="48px" height="48px" viewBox="0 0 48 48" enable-background="new 0 0 48 48" xml:space="preserve">
<g>
	<g>
		<line fill="none" stroke="#000000" stroke-width="2" stroke-miterlimit="10" x1="34.117" y1="37.673" x2="44.01" y2="37.673"/>
		<g>
			<path d="M39.063,31.233c3.55,0,6.438,2.889,6.438,6.439c0,3.55-2.889,6.438-6.438,6.438s-6.438-2.889-6.438-6.438
				C32.625,34.122,35.514,31.233,39.063,31.233 M39.063,29.233c-4.66,0-8.438,3.779-8.438,8.439c0,4.659,3.778,8.438,8.438,8.438
				s8.438-3.779,8.438-8.438C47.502,33.013,43.724,29.233,39.063,29.233L39.063,29.233z"/>
		</g>
	</g>
	<polyline fill="none" stroke="#000000" stroke-width="2" stroke-linejoin="round" stroke-miterlimit="10" points="11.655,30.587 
		8.328,30.587 8.328,20.677 39.793,20.677 39.793,30.587 36.148,30.587 	"/>
	<path fill="none" stroke="#000000" stroke-width="2" stroke-linejoin="round" stroke-miterlimit="10" d="M10.884,37.673h-4.45
		c-2.714,0-4.935-2.222-4.935-4.936V16.183c0-2.714,2.221-4.935,4.935-4.935h35.251c2.714,0,4.936,2.221,4.936,4.935v16.555
		c0,0.588-0.104,1.155-0.297,1.679"/>
	<polyline fill="none" stroke="#000000" stroke-width="2" stroke-linejoin="round" stroke-miterlimit="10" points="39.278,45.222 
		39.396,45.832 8.725,45.832 12.249,27.541 35.871,27.541 36.485,30.73 	"/>
	
		<rect x="13.191" y="1.889" fill="none" stroke="#000000" stroke-width="2" stroke-linejoin="round" stroke-miterlimit="10" width="21.738" height="9.359"/>
</g>
</svg>
