<?xml version="1.0" encoding="utf-8"?>
<!-- Generator: Adobe Illustrator 16.0.0, SVG Export Plug-In . SVG Version: 6.00 Build 0)  -->
<!DOCTYPE svg PUBLIC "-//W3C//DTD SVG 1.1//EN" "http://www.w3.org/Graphics/SVG/1.1/DTD/svg11.dtd">
<svg version="1.1" id="Layer_1" xmlns="http://www.w3.org/2000/svg" xmlns:xlink="http://www.w3.org/1999/xlink" x="0px" y="0px"
	 width="48px" height="48px" viewBox="0 0 48 48" enable-background="new 0 0 48 48" xml:space="preserve">
<g>
	<circle fill="none" stroke="#000000" stroke-width="2" stroke-miterlimit="10" cx="24" cy="24" r="16.753"/>
	<g>
		<g>
			<line fill="none" stroke="#000000" stroke-width="2" stroke-miterlimit="10" x1="24" y1="0" x2="24" y2="6.659"/>
			<line fill="none" stroke="#000000" stroke-width="2" stroke-miterlimit="10" x1="24" y1="41.342" x2="24" y2="48"/>
		</g>
		<g>
			<line fill="none" stroke="#000000" stroke-width="2" stroke-miterlimit="10" x1="48" y1="24" x2="41.342" y2="24"/>
			<line fill="none" stroke="#000000" stroke-width="2" stroke-miterlimit="10" x1="6.658" y1="24" x2="0" y2="24"/>
		</g>
	</g>
	<g>
		<g>
			<line fill="none" stroke="#000000" stroke-width="2" stroke-miterlimit="10" x1="40.97" y1="7.029" x2="36.263" y2="11.738"/>
			<line fill="none" stroke="#000000" stroke-width="2" stroke-miterlimit="10" x1="11.737" y1="36.262" x2="7.03" y2="40.971"/>
		</g>
		<g>
			<line fill="none" stroke="#000000" stroke-width="2" stroke-miterlimit="10" x1="40.97" y1="40.971" x2="36.263" y2="36.262"/>
			<line fill="none" stroke="#000000" stroke-width="2" stroke-miterlimit="10" x1="11.737" y1="11.738" x2="7.03" y2="7.029"/>
		</g>
	</g>
	<g>
		<g>
			<line fill="none" stroke="#000000" stroke-width="2" stroke-miterlimit="10" x1="43.382" y1="15.799" x2="39.431" y2="17.47"/>
			<line fill="none" stroke="#000000" stroke-width="2" stroke-miterlimit="10" x1="8.569" y1="30.531" x2="4.619" y2="32.201"/>
		</g>
		<g>
			<line fill="none" stroke="#000000" stroke-width="2" stroke-miterlimit="10" x1="32.202" y1="43.381" x2="30.529" y2="39.432"/>
			<line fill="none" stroke="#000000" stroke-width="2" stroke-miterlimit="10" x1="17.625" y1="8.934" x2="15.799" y2="4.619"/>
		</g>
	</g>
	<g>
		<g>
			<line fill="none" stroke="#000000" stroke-width="2" stroke-miterlimit="10" x1="43.505" y1="31.904" x2="39.202" y2="30.162"/>
			<line fill="none" stroke="#000000" stroke-width="2" stroke-miterlimit="10" x1="8.468" y1="17.704" x2="4.496" y2="16.096"/>
		</g>
		<g>
			<line fill="none" stroke="#000000" stroke-width="2" stroke-miterlimit="10" x1="16.095" y1="43.504" x2="17.705" y2="39.531"/>
			<line fill="none" stroke="#000000" stroke-width="2" stroke-miterlimit="10" x1="30.111" y1="8.922" x2="31.905" y2="4.496"/>
		</g>
	</g>
</g>
</svg>
