<?xml version="1.0" encoding="utf-8"?>
<!-- Generator: Adobe Illustrator 16.0.0, SVG Export Plug-In . SVG Version: 6.00 Build 0)  -->
<!DOCTYPE svg PUBLIC "-//W3C//DTD SVG 1.1//EN" "http://www.w3.org/Graphics/SVG/1.1/DTD/svg11.dtd">
<svg version="1.1" id="Layer_1" xmlns="http://www.w3.org/2000/svg" xmlns:xlink="http://www.w3.org/1999/xlink" x="0px" y="0px"
	 width="48px" height="48px" viewBox="0 0 48 48" enable-background="new 0 0 48 48" xml:space="preserve">
<g>
	<g>
		<path d="M41,9.544c2.757,0,5,2.243,5,5v18.912c0,2.757-2.243,5-5,5H7c-2.757,0-5-2.243-5-5V14.544c0-2.757,2.243-5,5-5H41
			 M41,7.544H7c-3.85,0-7,3.15-7,7v18.912c0,3.85,3.15,7,7,7h34c3.85,0,7-3.15,7-7V14.544C48,10.694,44.85,7.544,41,7.544L41,7.544z
			"/>
	</g>
	<line fill="none" stroke="#000000" stroke-width="2" stroke-miterlimit="10" x1="4.964" y1="34.7" x2="9.972" y2="34.7"/>
	<line fill="none" stroke="#000000" stroke-width="2" stroke-miterlimit="10" x1="13.191" y1="34.7" x2="18.199" y2="34.7"/>
	<line fill="none" stroke="#000000" stroke-width="2" stroke-miterlimit="10" x1="23.041" y1="17.225" x2="43.729" y2="17.225"/>
	<line fill="none" stroke="#000000" stroke-width="2" stroke-miterlimit="10" x1="21.419" y1="34.7" x2="26.427" y2="34.7"/>
	<rect x="4.384" y="12.205" fill="none" stroke="#000000" stroke-width="2" stroke-miterlimit="10" width="11.313" height="8.429"/>
	<line fill="none" stroke="#000000" stroke-width="2" stroke-miterlimit="10" x1="4.271" y1="27.513" x2="43.729" y2="27.513"/>
</g>
</svg>
