<?xml version="1.0" encoding="utf-8"?>
<!-- Generator: Adobe Illustrator 16.0.0, SVG Export Plug-In . SVG Version: 6.00 Build 0)  -->
<!DOCTYPE svg PUBLIC "-//W3C//DTD SVG 1.1//EN" "http://www.w3.org/Graphics/SVG/1.1/DTD/svg11.dtd">
<svg version="1.1" id="Layer_1" xmlns="http://www.w3.org/2000/svg" xmlns:xlink="http://www.w3.org/1999/xlink" x="0px" y="0px"
	 width="48px" height="48px" viewBox="0 0 48 48" enable-background="new 0 0 48 48" xml:space="preserve">
<g>
	<g>
		<path d="M23.39,5.344v2h0c7.317,0,14.804,5.644,22.264,16.779c-2.218,3.733-10.63,16.533-21.674,16.533
			c-7.309,0-14.596-5.615-21.67-16.694c2.044-3.68,10.021-16.616,21.078-16.618L23.39,5.344 M23.388,5.344
			C9.167,5.347,0,24.046,0,24.046c8.653,13.959,16.868,18.61,23.98,18.61c14.221,0,24.02-18.61,24.02-18.61
			C38.873,10.018,30.5,5.343,23.388,5.344L23.388,5.344z"/>
	</g>
	<circle fill="none" stroke="#000000" stroke-width="2" stroke-miterlimit="10" cx="24" cy="23.999" r="14.042"/>
	<path fill="none" stroke="#000000" stroke-width="2" stroke-miterlimit="10" d="M24,15.321c-2.195,0-4.195,0.824-5.723,2.166
		l5.104,5.168l-8.038,0.92c-0.007,0.141-0.022,0.281-0.022,0.424c0,4.793,3.886,8.682,8.68,8.682s8.68-3.889,8.68-8.682
		C32.68,19.208,28.794,15.321,24,15.321z"/>
</g>
</svg>
