<?xml version="1.0" encoding="utf-8"?>
<!-- Generator: Adobe Illustrator 16.0.0, SVG Export Plug-In . SVG Version: 6.00 Build 0)  -->
<!DOCTYPE svg PUBLIC "-//W3C//DTD SVG 1.1//EN" "http://www.w3.org/Graphics/SVG/1.1/DTD/svg11.dtd">
<svg version="1.1" id="Layer_1" xmlns="http://www.w3.org/2000/svg" xmlns:xlink="http://www.w3.org/1999/xlink" x="0px" y="0px"
	 width="48px" height="48px" viewBox="0 0 48 48" enable-background="new 0 0 48 48" xml:space="preserve">
<g>
	
		<ellipse fill="none" stroke="#000000" stroke-width="2" stroke-linejoin="round" stroke-miterlimit="10" cx="24" cy="23.975" rx="23" ry="22.978"/>
	<path fill="none" stroke="#000000" stroke-width="2" stroke-linejoin="round" stroke-miterlimit="10" d="M38.497,19.363
		l-7.729,2.125l-7.508-6.267V7.724l7.618-5.678c0,0,3.441,1.101,6.078,2.946C40.47,7.45,41.92,9.578,41.92,9.578L38.497,19.363z"/>
	<path fill="none" stroke="#000000" stroke-width="2" stroke-linejoin="round" stroke-miterlimit="10" d="M4.785,11.35l3.352,7.901
		l6.274,2.237l8.85-6.267V7.724l-7.485-5.208C15.775,2.516,9.723,4.792,4.785,11.35z"/>
	<path fill="none" stroke="#000000" stroke-width="2" stroke-linejoin="round" stroke-miterlimit="10" d="M1.026,25.073l7.11-5.822
		l6.274,2.237l3.248,10.297l-3.635,4.476l-8.696,1.125C5.328,37.386,0.645,30.498,1.026,25.073z"/>
	<path fill="none" stroke="#000000" stroke-width="2" stroke-linejoin="round" stroke-miterlimit="10" d="M30.769,21.488
		l-2.241,10.185l3.36,4.588l10.783,1.125c0,0,4.382-6.16,4.239-11.412l-8.413-6.61L30.769,21.488"/>
	<path fill="none" stroke="#000000" stroke-width="2" stroke-linejoin="round" stroke-miterlimit="10" d="M14.023,36.261
		l3.635,9.807c0,0,6.514,1.767,10.869,0.438l3.36-10.244l-3.36-4.141l-10.869-0.335L14.023,36.261z"/>
</g>
</svg>
