<?xml version="1.0" encoding="utf-8"?>
<!-- Generator: Adobe Illustrator 16.0.0, SVG Export Plug-In . SVG Version: 6.00 Build 0)  -->
<!DOCTYPE svg PUBLIC "-//W3C//DTD SVG 1.1//EN" "http://www.w3.org/Graphics/SVG/1.1/DTD/svg11.dtd">
<svg version="1.1" id="Layer_1" xmlns="http://www.w3.org/2000/svg" xmlns:xlink="http://www.w3.org/1999/xlink" x="0px" y="0px"
	 width="48px" height="48px" viewBox="0 0 48 48" enable-background="new 0 0 48 48" xml:space="preserve">
<g>
	<g>
		<polyline fill="none" stroke="#000000" stroke-width="2" stroke-miterlimit="10" points="15.67,26.995 2.156,4.186 6.54,1 
			20.588,24.081 		"/>
	</g>
	<g>
		<polyline fill="none" stroke="#000000" stroke-width="2" stroke-miterlimit="10" points="32.329,26.995 45.843,4.186 41.46,1 
			27.412,24.081 		"/>
	</g>
	<polygon fill="none" stroke="#000000" stroke-miterlimit="10" points="10.567,7.368 37.215,7.368 37.619,6.716 10.176,6.716 	"/>
	<line fill="none" stroke="#000000" stroke-width="2" stroke-miterlimit="10" x1="9.822" y1="6.716" x2="37.98" y2="6.716"/>
	<line fill="none" stroke="#000000" stroke-width="2" stroke-miterlimit="10" x1="41.168" y1="1" x2="6.749" y2="1"/>
	
		<circle fill="none" stroke="#000000" stroke-width="2" stroke-linejoin="round" stroke-miterlimit="10" cx="24" cy="35.021" r="11.981"/>
	<g>
		<polygon fill="none" stroke="#000000" stroke-width="2" stroke-linejoin="round" stroke-miterlimit="10" points="28.352,42.759 
			28.144,41.508 25.231,40.389 25.231,36.625 28.707,34.994 29.426,27.563 18.49,27.563 19.206,34.994 22.686,36.625 22.686,40.389 
			19.771,41.508 19.564,42.759 		"/>
	</g>
</g>
</svg>
