<?xml version="1.0" encoding="utf-8"?>
<!-- Generator: Adobe Illustrator 16.0.0, SVG Export Plug-In . SVG Version: 6.00 Build 0)  -->
<!DOCTYPE svg PUBLIC "-//W3C//DTD SVG 1.1//EN" "http://www.w3.org/Graphics/SVG/1.1/DTD/svg11.dtd">
<svg version="1.1" id="Layer_1" xmlns="http://www.w3.org/2000/svg" xmlns:xlink="http://www.w3.org/1999/xlink" x="0px" y="0px"
	 width="48px" height="48px" viewBox="0 0 48 48" enable-background="new 0 0 48 48" xml:space="preserve">
<g>
	<polyline fill="none" stroke="#000000" stroke-width="2" stroke-miterlimit="10" points="26.012,41.626 5.31,20.929 26.012,1 	"/>
	
		<rect x="15.631" y="41.626" fill="none" stroke="#000000" stroke-width="2" stroke-miterlimit="10" width="20.762" height="5.374"/>
	<path fill="none" stroke="#000000" stroke-width="2" stroke-linejoin="round" stroke-miterlimit="10" d="M28.517,8.036
		c-3.912,3.902-3.908,10.227,0.009,14.127L42.689,8.036C38.775,4.135,32.427,4.137,28.517,8.036z"/>
	<path fill="none" stroke="#000000" stroke-width="2" stroke-linejoin="round" stroke-miterlimit="10" d="M41.254,15.1
		c1.561,1.552,1.563,4.071,0.004,5.627c-1.558,1.553-4.085,1.553-5.646,0c-1.562-1.554-1.563-4.075-0.004-5.627
		C37.166,13.544,39.694,13.544,41.254,15.1z"/>
	<path fill="none" stroke="#000000" stroke-width="2" stroke-linejoin="round" stroke-miterlimit="10" d="M28.188,4.919
		c0.956,0.955,0.956,2.502,0.001,3.455c-0.956,0.955-2.508,0.955-3.466,0c-0.958-0.953-0.959-2.499-0.002-3.455
		C25.677,3.967,27.229,3.967,28.188,4.919z"/>
</g>
</svg>
