<?xml version="1.0" encoding="utf-8"?>
<!-- Generator: Adobe Illustrator 16.0.0, SVG Export Plug-In . SVG Version: 6.00 Build 0)  -->
<!DOCTYPE svg PUBLIC "-//W3C//DTD SVG 1.1//EN" "http://www.w3.org/Graphics/SVG/1.1/DTD/svg11.dtd">
<svg version="1.1" id="Layer_1" xmlns="http://www.w3.org/2000/svg" xmlns:xlink="http://www.w3.org/1999/xlink" x="0px" y="0px"
	 width="48px" height="48px" viewBox="0 0 48 48" enable-background="new 0 0 48 48" xml:space="preserve">
<g>
	<path fill="none" stroke="#000000" stroke-width="2" stroke-linejoin="round" stroke-miterlimit="10" d="M23.206,27.281
		c-2.889,3.083-7.74,3.275-10.778,0.431c-3.038-2.846-3.159-7.697-0.27-10.78L24.796,3.444c2.888-3.083,7.738-3.275,10.776-0.432
		c3.038,2.847,3.159,7.697,0.271,10.779L23.206,27.281z"/>
	
		<line fill="none" stroke="#000000" stroke-width="2" stroke-linejoin="round" stroke-miterlimit="10" x1="20.024" y1="34.448" x2="20.024" y2="47"/>
	
		<line fill="none" stroke="#000000" stroke-width="2" stroke-linejoin="round" stroke-miterlimit="10" x1="13.374" y1="47" x2="26.676" y2="47"/>
	<path fill="none" stroke="#000000" stroke-width="2" stroke-linejoin="round" stroke-miterlimit="10" d="M26.233,12.32
		c0,0,0.093,11.427,0,15.234c-0.041,1.707-0.872,6.336-5.269,6.33c0,0-6.136,1.142-6.136-4.392"/>
</g>
</svg>
