<?xml version="1.0" encoding="utf-8"?>
<!-- Generator: Adobe Illustrator 16.0.0, SVG Export Plug-In . SVG Version: 6.00 Build 0)  -->
<!DOCTYPE svg PUBLIC "-//W3C//DTD SVG 1.1//EN" "http://www.w3.org/Graphics/SVG/1.1/DTD/svg11.dtd">
<svg version="1.1" id="Layer_1" xmlns="http://www.w3.org/2000/svg" xmlns:xlink="http://www.w3.org/1999/xlink" x="0px" y="0px"
	 width="48px" height="48px" viewBox="0 0 48 48" enable-background="new 0 0 48 48" xml:space="preserve">
<g>
	<polygon fill="none" stroke="#000000" stroke-width="2" stroke-miterlimit="10" points="28.941,47 13.26,47 10.375,11.563 
		31.826,11.563 	"/>
	<path fill="none" stroke="#000000" stroke-width="2" stroke-miterlimit="10" d="M11.458,22.697
		c0.558-0.017,1.375-0.971,1.888-1.274c0.57-0.335,1.426-0.395,2.108-0.271c1.394,0.249,2.336,1.793,3.802,2.063
		c3.008,0.556,5.258-2.594,8.119-3.032c1.49-0.225,2.699-0.103,3.806,0.904"/>
	<path fill="none" stroke="#000000" stroke-width="2" stroke-miterlimit="10" d="M23.039,22.263L27.7,2.594
		c0,0,0.878-2.37,4.126-1.331c3.449,1.104,5.799,2.039,5.799,2.039"/>
</g>
</svg>
