<?xml version="1.0" encoding="utf-8"?>
<!-- Generator: Adobe Illustrator 16.0.0, SVG Export Plug-In . SVG Version: 6.00 Build 0)  -->
<!DOCTYPE svg PUBLIC "-//W3C//DTD SVG 1.1//EN" "http://www.w3.org/Graphics/SVG/1.1/DTD/svg11.dtd">
<svg version="1.1" id="Layer_1" xmlns="http://www.w3.org/2000/svg" xmlns:xlink="http://www.w3.org/1999/xlink" x="0px" y="0px"
	 width="48px" height="48px" viewBox="0 0 48 48" enable-background="new 0 0 48 48" xml:space="preserve">
<g>
	<path fill="none" stroke="#000000" stroke-width="2" stroke-miterlimit="10" d="M9.141,16.906c-0.216,1.42-0.333,2.896-0.333,4.408
		c0,11.388,6.434,20.62,14.371,20.62c7.936,0,14.371-9.231,14.371-20.62c0-1.512-0.117-2.987-0.332-4.408H9.141z"/>
	<ellipse fill="none" stroke="#000000" stroke-width="2" stroke-miterlimit="10" cx="23.179" cy="44.468" rx="20.051" ry="2.532"/>
	
		<ellipse transform="matrix(0.9907 0.1361 -0.1361 0.9907 4.0273 -5.3107)" fill="none" stroke="#000000" stroke-width="2" stroke-miterlimit="10" cx="40.86" cy="26.803" rx="3.901" ry="7.868"/>
	<g>
		<path fill="none" stroke="#000000" stroke-width="2" stroke-miterlimit="10" d="M18.9,13.151
			c-1.087-2.675-1.041-3.865,0.663-6.341C21.06,4.631,20.521,3.02,19.165,1"/>
		<path fill="none" stroke="#000000" stroke-width="2" stroke-miterlimit="10" d="M23.652,13.151
			c-1.087-2.675-1.04-3.865,0.664-6.341c1.495-2.179,0.956-3.791-0.4-5.81"/>
		<path fill="none" stroke="#000000" stroke-width="2" stroke-miterlimit="10" d="M28.403,13.151
			c-1.088-2.675-1.04-3.865,0.663-6.341C30.563,4.631,30.024,3.02,28.667,1"/>
	</g>
</g>
</svg>
