<?xml version="1.0" encoding="utf-8"?>
<!-- Generator: Adobe Illustrator 16.0.0, SVG Export Plug-In . SVG Version: 6.00 Build 0)  -->
<!DOCTYPE svg PUBLIC "-//W3C//DTD SVG 1.1//EN" "http://www.w3.org/Graphics/SVG/1.1/DTD/svg11.dtd">
<svg version="1.1" id="Layer_1" xmlns="http://www.w3.org/2000/svg" xmlns:xlink="http://www.w3.org/1999/xlink" x="0px" y="0px"
	 width="48px" height="48px" viewBox="0 0 48 48" enable-background="new 0 0 48 48" xml:space="preserve">
<g>
	<g>
		<path fill="none" stroke="#000000" stroke-width="2" stroke-miterlimit="10" d="M42.986,29.903c0,4.4-1.865,8-4.146,8
			s-4.146-3.6-4.146-8v-3.548c0-4.4,1.865-8,4.146-8s4.146,3.6,4.146,8V29.903z"/>
	</g>
	<g>
		<line fill="none" stroke="#000000" stroke-width="2" stroke-miterlimit="10" x1="15.556" y1="20.914" x2="15.556" y2="43.431"/>
		<line fill="none" stroke="#000000" stroke-width="2" stroke-miterlimit="10" x1="22.413" y1="20.914" x2="22.413" y2="43.431"/>
		<line fill="none" stroke="#000000" stroke-width="2" stroke-miterlimit="10" x1="29.271" y1="20.914" x2="29.271" y2="43.431"/>
	</g>
	<path fill="none" stroke="#000000" stroke-width="2" stroke-miterlimit="10" d="M34.083,4.744c-0.448,0-0.883,0.056-1.3,0.151
		C31.784,2.604,29.504,1,26.843,1c-3.454,0-6.269,2.707-6.457,6.115c-0.007-0.002-0.015-0.002-0.022-0.002
		c0.002-0.022,0.004-0.045,0.004-0.067c0-2.572-2.086-4.657-4.658-4.657c-2.441,0-4.441,1.881-4.637,4.273
		c-0.487-0.18-1.007-0.283-1.555-0.283c-2.486,0-4.503,2.016-4.503,4.503s2.018,4.503,4.503,4.503c0.331,0,0.653-0.038,0.965-0.105
		c0.652,1.505,2.149,2.559,3.896,2.559c0.804,0,1.552-0.226,2.193-0.616c0.859,0.552,1.879,0.875,2.976,0.875
		c1.618,0,3.069-0.698,4.08-1.807c0.891,1.013,2.193,1.655,3.648,1.655c1.779,0,3.33-0.958,4.177-2.383
		c0.789,0.408,1.682,0.642,2.631,0.642c3.165,0,5.731-2.566,5.731-5.731S37.248,4.744,34.083,4.744z"/>
	<path fill="none" stroke="#000000" stroke-width="2" stroke-miterlimit="10" d="M34.083,16.206c-0.949,0-1.842-0.234-2.631-0.642
		c-0.847,1.424-2.397,2.383-4.177,2.383c-1.455,0-2.757-0.642-3.648-1.655c-1.011,1.108-2.461,1.807-4.08,1.807
		c-1.097,0-2.117-0.322-2.976-0.875c-0.642,0.39-1.39,0.616-2.193,0.616c-1.704,0-3.165-1.007-3.842-2.454h-0.405v28.739
		c0,1.582,1.294,2.875,2.875,2.875H31.82c1.58,0,2.875-1.293,2.875-2.875V16.172C34.494,16.193,34.289,16.206,34.083,16.206z"/>
</g>
</svg>
