<?xml version="1.0" encoding="utf-8"?>
<!-- Generator: Adobe Illustrator 16.0.0, SVG Export Plug-In . SVG Version: 6.00 Build 0)  -->
<!DOCTYPE svg PUBLIC "-//W3C//DTD SVG 1.1//EN" "http://www.w3.org/Graphics/SVG/1.1/DTD/svg11.dtd">
<svg version="1.1" id="Layer_1" xmlns="http://www.w3.org/2000/svg" xmlns:xlink="http://www.w3.org/1999/xlink" x="0px" y="0px"
	 width="48px" height="48px" viewBox="0 0 48 48" enable-background="new 0 0 48 48" xml:space="preserve">
<g>
	<g>
		<path fill="none" stroke="#000000" stroke-width="2" stroke-linejoin="round" stroke-miterlimit="10" d="M47,44c0,1.65-1.35,3-3,3
			H4c-1.65,0-3-1.35-3-3V4c0-1.65,1.35-3,3-3h40c1.65,0,3,1.35,3,3V44z"/>
	</g>
	
		<rect x="22.228" y="5.234" fill="none" stroke="#000000" stroke-width="2" stroke-miterlimit="10" width="20.494" height="10.186"/>
	<g>
		
			<rect x="22.228" y="20.683" fill="none" stroke="#000000" stroke-width="2" stroke-miterlimit="10" width="4.729" height="4.028"/>
		<rect x="30.11" y="20.683" fill="none" stroke="#000000" stroke-width="2" stroke-miterlimit="10" width="4.729" height="4.028"/>
		
			<rect x="37.992" y="20.683" fill="none" stroke="#000000" stroke-width="2" stroke-miterlimit="10" width="4.729" height="4.028"/>
	</g>
	<g>
		
			<rect x="22.228" y="27.064" fill="none" stroke="#000000" stroke-width="2" stroke-miterlimit="10" width="4.729" height="4.027"/>
		<rect x="30.11" y="27.064" fill="none" stroke="#000000" stroke-width="2" stroke-miterlimit="10" width="4.729" height="4.027"/>
		
			<rect x="37.992" y="27.064" fill="none" stroke="#000000" stroke-width="2" stroke-miterlimit="10" width="4.729" height="4.027"/>
	</g>
	<g>
		
			<rect x="22.228" y="33.443" fill="none" stroke="#000000" stroke-width="2" stroke-miterlimit="10" width="4.729" height="4.029"/>
		<rect x="30.11" y="33.443" fill="none" stroke="#000000" stroke-width="2" stroke-miterlimit="10" width="4.729" height="4.029"/>
		
			<rect x="37.992" y="33.443" fill="none" stroke="#000000" stroke-width="2" stroke-miterlimit="10" width="4.729" height="4.029"/>
	</g>
	<g>
		
			<rect x="22.228" y="39.824" fill="none" stroke="#000000" stroke-width="2" stroke-miterlimit="10" width="4.729" height="4.029"/>
		<rect x="30.11" y="39.824" fill="none" stroke="#000000" stroke-width="2" stroke-miterlimit="10" width="4.729" height="4.029"/>
		
			<rect x="37.992" y="39.824" fill="none" stroke="#000000" stroke-width="2" stroke-miterlimit="10" width="4.729" height="4.029"/>
	</g>
	<path fill="none" stroke="#000000" stroke-width="2" stroke-miterlimit="10" d="M17.817,41.824c0,1.188-1.232,2.156-2.742,2.156
		H8.034c-1.507,0-2.741-0.969-2.741-2.156V6.175c0-1.185,1.234-2.156,2.741-2.156h7.042c1.509,0,2.742,0.972,2.742,2.156V41.824z"/>
</g>
</svg>
