<?xml version="1.0" encoding="utf-8"?>
<!-- Generator: Adobe Illustrator 16.0.0, SVG Export Plug-In . SVG Version: 6.00 Build 0)  -->
<!DOCTYPE svg PUBLIC "-//W3C//DTD SVG 1.1//EN" "http://www.w3.org/Graphics/SVG/1.1/DTD/svg11.dtd">
<svg version="1.1" id="Layer_1" xmlns="http://www.w3.org/2000/svg" xmlns:xlink="http://www.w3.org/1999/xlink" x="0px" y="0px"
	 width="48px" height="48px" viewBox="0 0 48 48" enable-background="new 0 0 48 48" xml:space="preserve">
<g>
	<circle fill="none" stroke="#000000" stroke-width="2" stroke-miterlimit="10" cx="24" cy="24" r="23"/>
	<path fill="none" stroke="#000000" stroke-width="2" stroke-miterlimit="10" d="M34.78,31.959
		c-2.324,3.439-6.263,5.703-10.73,5.703c-4.531,0-8.519-2.329-10.83-5.855"/>
	<g>
		<path fill="none" stroke="#000000" stroke-width="2" stroke-miterlimit="10" d="M21.837,21.329c0,2.611-3.065,4.745-5.875,4.745
			h-4.534c-2.809,0-5.106-2.134-5.106-4.745l-0.73-4.814c0-2.609,2.297-4.743,5.106-4.743h6.724c2.81,0,5.106,2.134,5.106,4.743
			L21.837,21.329z"/>
		<path fill="none" stroke="#000000" stroke-width="2" stroke-miterlimit="10" d="M26.161,21.329c0,2.611,3.066,4.745,5.875,4.745
			h4.535c2.809,0,5.106-2.134,5.106-4.745l0.729-4.814c0-2.609-2.298-4.743-5.105-4.743h-6.725c-2.809,0-5.106,2.134-5.106,4.743
			L26.161,21.329z"/>
	</g>
	<line fill="none" stroke="#000000" stroke-width="2" stroke-miterlimit="10" x1="5.725" y1="15.94" x2="3.081" y2="13.842"/>
	<line fill="none" stroke="#000000" stroke-width="2" stroke-miterlimit="10" x1="42.384" y1="15.029" x2="44.571" y2="13.387"/>
	<line fill="none" stroke="#000000" stroke-width="2" stroke-miterlimit="10" x1="22.322" y1="15.483" x2="25.786" y2="15.483"/>
</g>
</svg>
