<?xml version="1.0" encoding="utf-8"?>
<!-- Generator: Adobe Illustrator 16.0.0, SVG Export Plug-In . SVG Version: 6.00 Build 0)  -->
<!DOCTYPE svg PUBLIC "-//W3C//DTD SVG 1.1//EN" "http://www.w3.org/Graphics/SVG/1.1/DTD/svg11.dtd">
<svg version="1.1" id="Layer_1" xmlns="http://www.w3.org/2000/svg" xmlns:xlink="http://www.w3.org/1999/xlink" x="0px" y="0px"
	 width="48px" height="48px" viewBox="0 0 48 48" enable-background="new 0 0 48 48" xml:space="preserve">
<g>
	<path fill="none" stroke="#000000" stroke-width="2" stroke-linejoin="round" stroke-miterlimit="10" d="M20.087,13.144
		c-2.273,2.343-4.171,5.598-5.955,8.424c-1.686,2.669-3.454,5.044-4.912,7.838c-2.365,4.535-5.472,12.5,0.646,15.197
		c0.521,0.23,1.247,1.058,1.806,1.325c1.121,0.539,1.527-1.256,2.247-0.397c0.931,1.11,2,1.329,3.507,1.324
		c1.205-0.004,2.96,0.327,4.102,0c1.527-0.438,1.436-1.55,3.405-1.365c1.779,0.171,3.182,1.217,4.912,1.372
		c1.721,0.153,1.735-1.052,2.955-1.338c2.219-0.519,4.439,2.512,7.101-1.035c0.78-1.043,0.905-1.654,1.035-2.965
		c0.148-1.529,0.665-2.712,0.737-4.281c0.149-3.227-0.283-5.136-1.733-8.023c-1.366-2.724-3.447-5.19-5.467-7.417
		c-2.15-2.373-4.195-4.96-6.705-6.995c-2.245-1.819-3.23-2.865-6.203-2.691C21.242,12.182,20.454,12.846,20.087,13.144"/>
	<path fill="none" stroke="#000000" stroke-width="2" stroke-linejoin="round" stroke-miterlimit="10" d="M14.408,1.122
		c0.416,1.413,2.339,2.849,3.208,4.133c0.759,1.119,1.05,2.257,1.705,3.423c0.626,1.114,1.206,2.177,2.487,2.647
		c1.602,0.589,2.173-0.416,3.171-1.293c1.099-0.966,1.99-1.556,2.834-2.819c0.669-1.007,0.844-2.042,1.346-3.124
		c0.603-1.297,1.989-2.304-0.233-2.669c-1.262-0.209-2.622-0.167-3.87-0.288c-1.144-0.112-1.883-0.251-2.719,0.052
		c-0.734,0.27-1.101,0.279-2.134,0.238c-1.941-0.077-3.611-0.093-5.528-0.384L14.408,1.122z"/>
</g>
</svg>
