<?xml version="1.0" encoding="utf-8"?>
<!-- Generator: Adobe Illustrator 16.0.0, SVG Export Plug-In . SVG Version: 6.00 Build 0)  -->
<!DOCTYPE svg PUBLIC "-//W3C//DTD SVG 1.1//EN" "http://www.w3.org/Graphics/SVG/1.1/DTD/svg11.dtd">
<svg version="1.1" id="Layer_1" xmlns="http://www.w3.org/2000/svg" xmlns:xlink="http://www.w3.org/1999/xlink" x="0px" y="0px"
	 width="48px" height="48px" viewBox="0 0 48 48" enable-background="new 0 0 48 48" xml:space="preserve">
<g>
	<g>
		<g>
			
				<line fill="none" stroke="#000000" stroke-width="2" stroke-linejoin="round" stroke-miterlimit="10" x1="8.226" y1="34.126" x2="8.226" y2="39.78"/>
			
				<line fill="none" stroke="#000000" stroke-width="2" stroke-linejoin="round" stroke-miterlimit="10" x1="39.774" y1="34.126" x2="39.774" y2="39.78"/>
		</g>
		<path fill="none" stroke="#000000" stroke-width="2" stroke-linejoin="round" stroke-miterlimit="10" d="M43.265,20.279
			l-5.168-12.06H10.222L4.771,20.27C2.61,20.833,1,22.802,1,25.133v2.51c0,2.767,2.265,5.031,5.031,5.031h35.938
			c2.767,0,5.031-2.265,5.031-5.031v-2.51C47,22.815,45.408,20.855,43.265,20.279z"/>
		<polygon fill="none" stroke="#000000" stroke-width="2" stroke-linejoin="round" stroke-miterlimit="10" points="39.763,19.643 
			8.5,19.643 12.167,11.173 35.913,11.173 		"/>
		<g>
			
				<circle fill="none" stroke="#000000" stroke-width="2" stroke-linejoin="round" stroke-miterlimit="10" cx="7.952" cy="26.383" r="2.969"/>
			
				<circle fill="none" stroke="#000000" stroke-width="2" stroke-linejoin="round" stroke-miterlimit="10" cx="40.048" cy="26.383" r="2.968"/>
		</g>
	</g>
	<g>
		
			<line fill="none" stroke="#000000" stroke-width="2" stroke-linejoin="round" stroke-miterlimit="10" x1="16.2" y1="23.813" x2="31.801" y2="23.813"/>
		
			<line fill="none" stroke="#000000" stroke-width="2" stroke-linejoin="round" stroke-miterlimit="10" x1="16.2" y1="28.192" x2="31.801" y2="28.192"/>
	</g>
</g>
</svg>
