<?xml version="1.0" encoding="utf-8"?>
<!-- Generator: Adobe Illustrator 16.0.0, SVG Export Plug-In . SVG Version: 6.00 Build 0)  -->
<!DOCTYPE svg PUBLIC "-//W3C//DTD SVG 1.1//EN" "http://www.w3.org/Graphics/SVG/1.1/DTD/svg11.dtd">
<svg version="1.1" id="Layer_1" xmlns="http://www.w3.org/2000/svg" xmlns:xlink="http://www.w3.org/1999/xlink" x="0px" y="0px"
	 width="48px" height="48px" viewBox="0 0 48 48" enable-background="new 0 0 48 48" xml:space="preserve">
<g>
	<polygon fill="none" stroke="#000000" stroke-width="2" stroke-linejoin="round" stroke-miterlimit="10" points="14.474,47 
		1,33.527 1,14.473 14.474,1 33.527,1 47,14.473 47,33.527 33.527,47 	"/>
	<polygon fill="none" stroke="#000000" stroke-width="2" stroke-linejoin="round" stroke-miterlimit="10" points="17.265,40.264 
		7.736,30.736 7.736,17.264 17.265,7.736 30.736,7.736 40.264,17.264 40.264,30.736 30.736,40.264 	"/>
	<g>
		<path d="M14.445,26.274c0.385,0.235,0.947,0.434,1.54,0.434c0.879,0,1.392-0.464,1.392-1.136c0-0.621-0.355-0.977-1.253-1.321
			c-1.085-0.386-1.756-0.949-1.756-1.886c0-1.035,0.858-1.807,2.151-1.807c0.682,0,1.175,0.159,1.47,0.326l-0.237,0.702
			c-0.217-0.118-0.661-0.316-1.263-0.316c-0.908,0-1.253,0.543-1.253,0.998c0,0.622,0.404,0.926,1.323,1.282
			c1.125,0.435,1.698,0.978,1.698,1.954c0,1.027-0.76,1.915-2.33,1.915c-0.642,0-1.342-0.188-1.698-0.423L14.445,26.274z"/>
		<path d="M20.692,21.399h-2.024v-0.732h4.925v0.732H21.56v5.921h-0.868V21.399z"/>
		<path d="M29.751,23.925c0,2.289-1.393,3.503-3.09,3.503c-1.757,0-2.991-1.362-2.991-3.376c0-2.111,1.312-3.494,3.089-3.494
			C28.575,20.558,29.751,21.951,29.751,23.925z M24.589,24.034c0,1.42,0.77,2.694,2.121,2.694c1.363,0,2.132-1.253,2.132-2.763
			c0-1.323-0.69-2.704-2.121-2.704C25.299,21.26,24.589,22.572,24.589,24.034z"/>
		<path d="M30.864,20.748c0.415-0.069,0.958-0.129,1.648-0.129c0.849,0,1.471,0.198,1.865,0.552
			c0.365,0.316,0.583,0.801,0.583,1.393c0,0.602-0.178,1.076-0.514,1.42c-0.454,0.484-1.194,0.731-2.034,0.731
			c-0.256,0-0.493-0.011-0.69-0.06v2.665h-0.858V20.748z M31.723,23.955c0.188,0.049,0.425,0.067,0.711,0.067
			c1.036,0,1.668-0.503,1.668-1.42c0-0.877-0.622-1.303-1.569-1.303c-0.375,0-0.661,0.03-0.81,0.069V23.955z"/>
	</g>
</g>
</svg>
