<?xml version="1.0" encoding="utf-8"?>
<!-- Generator: Adobe Illustrator 16.0.0, SVG Export Plug-In . SVG Version: 6.00 Build 0)  -->
<!DOCTYPE svg PUBLIC "-//W3C//DTD SVG 1.1//EN" "http://www.w3.org/Graphics/SVG/1.1/DTD/svg11.dtd">
<svg version="1.1" id="Layer_1" xmlns="http://www.w3.org/2000/svg" xmlns:xlink="http://www.w3.org/1999/xlink" x="0px" y="0px"
	 width="48px" height="48px" viewBox="0 0 48 48" enable-background="new 0 0 48 48" xml:space="preserve">
<g>
	<path fill="none" stroke="#000000" stroke-width="2" stroke-miterlimit="10" d="M10.766,33.744c0,1.474-1.206,2.681-2.68,2.681
		H7.542c-1.474,0-2.68-1.207-2.68-2.681V14.256c0-1.473,1.206-2.681,2.68-2.681h0.543c1.474,0,2.68,1.208,2.68,2.681V33.744z"/>
	<path fill="none" stroke="#000000" stroke-width="2" stroke-miterlimit="10" d="M43.138,33.744c0,1.474-1.205,2.681-2.68,2.681
		h-0.544c-1.474,0-2.68-1.207-2.68-2.681V14.256c0-1.473,1.206-2.681,2.68-2.681h0.544c1.475,0,2.68,1.208,2.68,2.681V33.744z"/>
	
		<rect x="10.766" y="16.343" fill="none" stroke="#000000" stroke-width="2" stroke-miterlimit="10" width="26.469" height="15.313"/>
	<rect x="1" y="22.409" fill="none" stroke="#000000" stroke-width="2" stroke-miterlimit="10" width="3.862" height="3.182"/>
	<rect x="43.138" y="22.409" fill="none" stroke="#000000" stroke-width="2" stroke-miterlimit="10" width="3.862" height="3.182"/>
</g>
</svg>
