<?xml version="1.0" encoding="utf-8"?>
<!-- Generator: Adobe Illustrator 16.0.0, SVG Export Plug-In . SVG Version: 6.00 Build 0)  -->
<!DOCTYPE svg PUBLIC "-//W3C//DTD SVG 1.1//EN" "http://www.w3.org/Graphics/SVG/1.1/DTD/svg11.dtd">
<svg version="1.1" id="Layer_1" xmlns="http://www.w3.org/2000/svg" xmlns:xlink="http://www.w3.org/1999/xlink" x="0px" y="0px"
	 width="48px" height="48px" viewBox="0 0 48 48" enable-background="new 0 0 48 48" xml:space="preserve">
<g>
	<path fill="none" stroke="#000000" stroke-width="2" stroke-linejoin="round" stroke-miterlimit="10" d="M44.64,17.54
		c0.59,0.414,0.698,0.509,1.151,0.807C46.575,18.863,47,19.947,47,20.951V41.18c0,1.582-1.293,2.875-2.875,2.875H3.875
		C2.294,44.055,1,42.762,1,41.18V20.951c0-1.048,0.423-2.158,1.265-2.66c0.429-0.256,0.593-0.46,1.217-0.854"/>
	<polyline fill="none" stroke="#000000" stroke-width="2" stroke-linejoin="round" stroke-miterlimit="10" points="1.939,18.519 
		13.85,30.436 34.065,30.522 46.063,18.519 	"/>
	
		<line fill="none" stroke="#000000" stroke-width="2" stroke-linejoin="round" stroke-miterlimit="10" x1="13.571" y1="29.886" x2="1.773" y2="43.358"/>
	
		<line fill="none" stroke="#000000" stroke-width="2" stroke-linejoin="round" stroke-miterlimit="10" x1="34.622" y1="29.886" x2="46.419" y2="43.358"/>
	<path fill="none" stroke="#000000" stroke-width="2" stroke-linejoin="round" stroke-miterlimit="10" d="M1.939,18.519
		L21.823,4.571c1.19-0.835,3.139-0.835,4.329,0l19.884,13.948"/>
</g>
</svg>
