<?xml version="1.0" encoding="utf-8"?>
<!-- Generator: Adobe Illustrator 16.0.0, SVG Export Plug-In . SVG Version: 6.00 Build 0)  -->
<!DOCTYPE svg PUBLIC "-//W3C//DTD SVG 1.1//EN" "http://www.w3.org/Graphics/SVG/1.1/DTD/svg11.dtd">
<svg version="1.1" id="Layer_1" xmlns="http://www.w3.org/2000/svg" xmlns:xlink="http://www.w3.org/1999/xlink" x="0px" y="0px"
	 width="48px" height="48px" viewBox="0 0 48 48" enable-background="new 0 0 48 48" xml:space="preserve">
<g>
	<path fill="none" stroke="#000000" stroke-width="2" stroke-linejoin="round" stroke-miterlimit="10" d="M31.152,37.267
		c0,3.95-3.204,7.152-7.152,7.152s-7.152-3.202-7.152-7.152c0-3.947,3.204-7.149,7.152-7.149S31.152,33.319,31.152,37.267z"/>
	<path fill="none" stroke="#000000" stroke-width="2" stroke-linejoin="round" stroke-miterlimit="10" d="M6.227,21.278
		c4.376-4.861,10.716-7.921,17.773-7.921s13.397,3.06,17.773,7.921"/>
	<path fill="none" stroke="#000000" stroke-width="2" stroke-linejoin="round" stroke-miterlimit="10" d="M47,12.668
		c-6.021-5.634-14.104-9.087-23-9.087S7.021,7.035,1,12.668"/>
	<path fill="none" stroke="#000000" stroke-width="2" stroke-linejoin="round" stroke-miterlimit="10" d="M10.892,28.962
		c2.755-4.337,7.589-7.225,13.108-7.225c5.519,0,10.353,2.888,13.107,7.225"/>
	<path fill="none" stroke="#000000" stroke-width="2" stroke-linejoin="round" stroke-miterlimit="10" d="M41.773,21.278
		C37.397,16.417,31.057,13.357,24,13.357s-13.397,3.06-17.773,7.921"/>
</g>
</svg>
