<?xml version="1.0" encoding="utf-8"?>
<!-- Generator: Adobe Illustrator 16.0.0, SVG Export Plug-In . SVG Version: 6.00 Build 0)  -->
<!DOCTYPE svg PUBLIC "-//W3C//DTD SVG 1.1//EN" "http://www.w3.org/Graphics/SVG/1.1/DTD/svg11.dtd">
<svg version="1.1" id="Layer_1" xmlns="http://www.w3.org/2000/svg" xmlns:xlink="http://www.w3.org/1999/xlink" x="0px" y="0px"
	 width="48px" height="48px" viewBox="0 0 48 48" enable-background="new 0 0 48 48" xml:space="preserve">
<g>
	<path fill="none" stroke="#000000" stroke-width="2" stroke-linejoin="round" stroke-miterlimit="10" d="M36.584,13.584
		C36.584,6.636,30.949,1,24,1c-6.951,0-12.584,5.636-12.584,12.584c0,1.368,0.226,2.682,0.629,3.917
		c0.097,0.402,0.276,0.881,0.58,1.469c0.047,0.09,0.092,0.178,0.135,0.266c3.83,7.624,2.338,13.854,4.396,16.644
		c2.082,2.821,11.606,2.821,13.688,0c2.058-2.789,0.565-9.02,4.396-16.644c0.045-0.088,0.09-0.176,0.137-0.266
		c0.303-0.588,0.482-1.067,0.578-1.469C36.358,16.266,36.584,14.952,36.584,13.584z"/>
	<path fill="none" stroke="#000000" stroke-width="2" stroke-linejoin="round" stroke-miterlimit="10" d="M31.205,35.739v8.771
		c0,1.37-1.118,2.489-2.488,2.489h-9.178c-1.368,0-2.49-1.119-2.49-2.489v-8.771"/>
	<g>
		<path fill="none" stroke="#000000" stroke-width="2" stroke-linejoin="round" stroke-miterlimit="10" d="M20.8,35.739
			c0,0,0.633-11.816-4.039-22.736"/>
		<path fill="none" stroke="#000000" stroke-width="2" stroke-linejoin="round" stroke-miterlimit="10" d="M27.2,35.739
			c0,0-0.634-11.816,4.038-22.736"/>
	</g>
	<path fill="none" stroke="#000000" stroke-width="2" stroke-linejoin="round" stroke-miterlimit="10" d="M15.464,15.317
		c0,0,3.659,0.189,5.868-4.29l2.083,6.813l2.46-7.445c0,0,1.767,6.248,6.436,5.995"/>
</g>
</svg>
