<?xml version="1.0" encoding="utf-8"?>
<!-- Generator: Adobe Illustrator 16.0.0, SVG Export Plug-In . SVG Version: 6.00 Build 0)  -->
<!DOCTYPE svg PUBLIC "-//W3C//DTD SVG 1.1//EN" "http://www.w3.org/Graphics/SVG/1.1/DTD/svg11.dtd">
<svg version="1.1" id="Layer_1" xmlns="http://www.w3.org/2000/svg" xmlns:xlink="http://www.w3.org/1999/xlink" x="0px" y="0px"
	 width="48px" height="48px" viewBox="0 0 48 48" enable-background="new 0 0 48 48" xml:space="preserve">
<g>
	<path fill="none" stroke="#000000" stroke-width="2" stroke-linejoin="round" stroke-miterlimit="10" d="M28.181,26.879V5.271
		C28.181,2.922,26.3,1,24,1c-2.299,0-4.181,1.922-4.181,4.271v21.607c-3.714,1.617-6.316,5.315-6.316,9.624
		C13.503,42.302,18.203,47,24,47c5.798,0,10.497-4.698,10.497-10.497C34.497,32.194,31.896,28.496,28.181,26.879z"/>
	<path fill="none" stroke="#000000" stroke-width="2" stroke-linejoin="round" stroke-miterlimit="10" d="M24,43.406
		c-3.805,0-6.903-3.096-6.903-6.903c0-2.745,1.632-5.231,4.155-6.328l2.161-0.939V18.928c0-0.361,0.275-0.678,0.587-0.678
		c0.313,0,0.587,0.316,0.587,0.678v10.308l2.161,0.939c2.522,1.097,4.155,3.583,4.155,6.328C30.903,40.311,27.806,43.406,24,43.406z
		"/>
</g>
</svg>
