<?xml version="1.0" encoding="utf-8"?>
<!-- Generator: Adobe Illustrator 16.0.0, SVG Export Plug-In . SVG Version: 6.00 Build 0)  -->
<!DOCTYPE svg PUBLIC "-//W3C//DTD SVG 1.1//EN" "http://www.w3.org/Graphics/SVG/1.1/DTD/svg11.dtd">
<svg version="1.1" id="Layer_1" xmlns="http://www.w3.org/2000/svg" xmlns:xlink="http://www.w3.org/1999/xlink" x="0px" y="0px"
	 width="48px" height="48px" viewBox="0 0 48 48" enable-background="new 0 0 48 48" xml:space="preserve">
<g>
	<path fill="none" stroke="#000000" stroke-width="2" stroke-linejoin="round" stroke-miterlimit="10" d="M15.313,8.313V6.606
		c0-3.086,1.989-5.604,4.425-5.604h8.529c2.432,0,4.425,2.518,4.425,5.604v1.707"/>
	<path fill="none" stroke="#000000" stroke-width="2" stroke-linejoin="round" stroke-miterlimit="10" d="M47,41.395
		c0,3.088-1.988,5.604-4.419,5.604H5.425C2.994,46.998,1,44.482,1,41.395V13.917c0-3.086,1.994-5.604,4.425-5.604h37.156
		c2.431,0,4.419,2.518,4.419,5.604V41.395z"/>
	
		<line fill="none" stroke="#000000" stroke-width="2" stroke-linejoin="round" stroke-miterlimit="10" x1="1" y1="22.991" x2="9.059" y2="22.991"/>
	
		<line fill="none" stroke="#000000" stroke-width="2" stroke-linejoin="round" stroke-miterlimit="10" x1="38.942" y1="22.991" x2="47" y2="22.991"/>
	
		<line fill="none" stroke="#000000" stroke-width="2" stroke-linejoin="round" stroke-miterlimit="10" x1="15.189" y1="22.991" x2="32.811" y2="22.991"/>
	<g>
		<path fill="none" stroke="#000000" stroke-width="2" stroke-linejoin="round" stroke-miterlimit="10" d="M15.189,28.225
			c0,3.91-1.381,7.11-3.065,7.11s-3.065-3.2-3.065-7.11v-3.485c0-3.897,1.381-7.098,3.065-7.098s3.065,3.201,3.065,7.098V28.225z"/>
		<path fill="none" stroke="#000000" stroke-width="2" stroke-linejoin="round" stroke-miterlimit="10" d="M38.942,28.225
			c0,3.91-1.382,7.11-3.065,7.11s-3.066-3.2-3.066-7.11v-3.485c0-3.897,1.383-7.098,3.066-7.098s3.065,3.201,3.065,7.098V28.225z"/>
	</g>
</g>
</svg>
