<?xml version="1.0" encoding="utf-8"?>
<!-- Generator: Adobe Illustrator 16.0.0, SVG Export Plug-In . SVG Version: 6.00 Build 0)  -->
<!DOCTYPE svg PUBLIC "-//W3C//DTD SVG 1.1//EN" "http://www.w3.org/Graphics/SVG/1.1/DTD/svg11.dtd">
<svg version="1.1" id="Layer_1" xmlns="http://www.w3.org/2000/svg" xmlns:xlink="http://www.w3.org/1999/xlink" x="0px" y="0px"
	 width="48px" height="48px" viewBox="0 0 48 48" enable-background="new 0 0 48 48" xml:space="preserve">
<g>
	<path fill="none" stroke="#000000" stroke-width="2" stroke-miterlimit="10" d="M37.467,17.402h-1.452V4.16
		c0-1.737-1.102-3.16-2.449-3.16s-2.451,1.422-2.451,3.16v13.243H15.939V4.16c0-1.737-1.104-3.16-2.451-3.16s-2.45,1.422-2.45,3.16
		v13.243h-0.503c-1.795,0-3.262,1.469-3.262,3.262v2.046c0,1.271,0.744,2.368,1.813,2.905c-0.148,2.173-0.106,6.485,1.991,10.083
		c2.936,5.031,10.398,8.936,10.9,11.302h2.315h1.047h0.686c0.503-2.366,7.965-6.271,10.899-11.302
		c2.097-3.598,2.138-7.91,1.99-10.083c1.069-0.537,1.813-1.634,1.813-2.905v-2.046C40.728,18.872,39.261,17.402,37.467,17.402z"/>
	<line fill="none" stroke="#000000" stroke-width="2" stroke-miterlimit="10" x1="14.297" y1="25.368" x2="33.703" y2="25.368"/>
</g>
</svg>
