<?xml version="1.0" encoding="utf-8"?>
<!-- Generator: Adobe Illustrator 16.0.0, SVG Export Plug-In . SVG Version: 6.00 Build 0)  -->
<!DOCTYPE svg PUBLIC "-//W3C//DTD SVG 1.1//EN" "http://www.w3.org/Graphics/SVG/1.1/DTD/svg11.dtd">
<svg version="1.1" id="Layer_1" xmlns="http://www.w3.org/2000/svg" xmlns:xlink="http://www.w3.org/1999/xlink" x="0px" y="0px"
	 width="48px" height="48px" viewBox="0 0 48 48" enable-background="new 0 0 48 48" xml:space="preserve">
<g>
	<g>
		<g>
			<path fill="none" stroke="#000000" stroke-width="2" stroke-linejoin="round" stroke-miterlimit="10" d="M26.523,2.123
				c-1.388-0.892-3.659-0.892-5.047,0L3.523,13.662C2.136,14.554,2.35,15.284,4,15.284h40c1.65,0,1.864-0.73,0.477-1.622
				L26.523,2.123z"/>
		</g>
		<g>
			<g>
				<path fill="none" stroke="#000000" stroke-width="2" stroke-miterlimit="10" d="M10.892,37.248c0,1.65-1.231,3-2.735,3
					c-1.504,0-2.735-1.35-2.735-3V20.793c0-1.65,1.231-3,2.735-3c1.504,0,2.735,1.35,2.735,3V37.248z"/>
			</g>
			<g>
				<path fill="none" stroke="#000000" stroke-width="2" stroke-miterlimit="10" d="M26.734,37.248c0,1.65-1.23,3-2.735,3
					c-1.504,0-2.735-1.35-2.735-3V20.793c0-1.65,1.231-3,2.735-3c1.505,0,2.735,1.35,2.735,3V37.248z"/>
			</g>
			<g>
				<path fill="none" stroke="#000000" stroke-width="2" stroke-miterlimit="10" d="M42.577,37.248c0,1.65-1.23,3-2.735,3
					s-2.735-1.35-2.735-3V20.793c0-1.65,1.23-3,2.735-3s2.735,1.35,2.735,3V37.248z"/>
			</g>
		</g>
		<g>
			<path fill="none" stroke="#000000" stroke-width="2" stroke-miterlimit="10" d="M47,44.424c0,1.141-1.35,2.074-3,2.074H4
				c-1.65,0-3-0.934-3-2.074c0-1.14,1.35-2.073,3-2.073h40C45.65,42.351,47,43.284,47,44.424z"/>
		</g>
	</g>
</g>
</svg>
