<?xml version="1.0" encoding="utf-8"?>
<!-- Generator: Adobe Illustrator 16.0.0, SVG Export Plug-In . SVG Version: 6.00 Build 0)  -->
<!DOCTYPE svg PUBLIC "-//W3C//DTD SVG 1.1//EN" "http://www.w3.org/Graphics/SVG/1.1/DTD/svg11.dtd">
<svg version="1.1" id="Layer_1" xmlns="http://www.w3.org/2000/svg" xmlns:xlink="http://www.w3.org/1999/xlink" x="0px" y="0px"
	 width="48px" height="48px" viewBox="0 0 48 48" enable-background="new 0 0 48 48" xml:space="preserve">
<g>
	<g>
		<path fill="none" stroke="#000000" stroke-width="2" stroke-miterlimit="10" d="M39.884,40c0,3.85-3.15,7-7,7H15.116
			c-3.85,0-7-3.15-7-7V8c0-3.85,3.15-7,7-7h17.768c3.85,0,7,3.15,7,7V40z"/>
	</g>
	<rect x="12.625" y="6.025" fill="none" stroke="#000000" stroke-width="2" stroke-miterlimit="10" width="22.75" height="8.339"/>
	<rect x="12.625" y="19.925" fill="none" stroke="#000000" stroke-width="2" stroke-miterlimit="10" width="4.642" height="4.447"/>
	<rect x="21.678" y="19.925" fill="none" stroke="#000000" stroke-width="2" stroke-miterlimit="10" width="4.644" height="4.447"/>
	<rect x="30.732" y="19.925" fill="none" stroke="#000000" stroke-width="2" stroke-miterlimit="10" width="4.643" height="4.447"/>
	<rect x="12.625" y="27.818" fill="none" stroke="#000000" stroke-width="2" stroke-miterlimit="10" width="4.642" height="4.449"/>
	<rect x="21.678" y="27.818" fill="none" stroke="#000000" stroke-width="2" stroke-miterlimit="10" width="4.644" height="4.449"/>
	<rect x="30.732" y="27.818" fill="none" stroke="#000000" stroke-width="2" stroke-miterlimit="10" width="4.643" height="4.449"/>
	<rect x="12.625" y="35.713" fill="none" stroke="#000000" stroke-width="2" stroke-miterlimit="10" width="4.642" height="4.447"/>
	<rect x="21.678" y="35.713" fill="none" stroke="#000000" stroke-width="2" stroke-miterlimit="10" width="4.644" height="4.447"/>
	<rect x="30.732" y="35.713" fill="none" stroke="#000000" stroke-width="2" stroke-miterlimit="10" width="4.643" height="4.447"/>
</g>
</svg>
