<?xml version="1.0" encoding="utf-8"?>
<!-- Generator: Adobe Illustrator 16.0.0, SVG Export Plug-In . SVG Version: 6.00 Build 0)  -->
<!DOCTYPE svg PUBLIC "-//W3C//DTD SVG 1.1//EN" "http://www.w3.org/Graphics/SVG/1.1/DTD/svg11.dtd">
<svg version="1.1" id="Layer_1" xmlns="http://www.w3.org/2000/svg" xmlns:xlink="http://www.w3.org/1999/xlink" x="0px" y="0px"
	 width="48px" height="48px" viewBox="0 0 48 48" enable-background="new 0 0 48 48" xml:space="preserve">
<g>
	<path fill="none" stroke="#000000" stroke-width="2" stroke-miterlimit="10" d="M10.583,4.238c0,0,2.319,9.667,4.918,14.549
		c0.314,0.593,0.634,1.116,0.955,1.542c0.321,0.425,0.641,0.754,0.958,0.962v0.004c0.963,0.586,3.042,1.602,3.042,2.766
		c0,1.161-2.079,2.177-3.043,2.765c0.001,0.002,0.001,0.002,0.001,0.006c-3.249,2.119-6.831,17.054-6.831,17.054h27.667
		c0,0-3.582-14.935-6.831-17.054c0.002-0.004,0.002-0.004,0.002-0.004c-0.965-0.59-3.044-1.605-3.044-2.767
		c0-1.164,2.079-2.18,3.044-2.766l-0.002-0.004c1.24-0.809,2.529-3.487,3.647-6.485c0.378-1.013,0.736-2.061,1.067-3.086
		c1.258-3.903,2.116-7.481,2.116-7.481H10.583z"/>
	<rect x="8.294" y="1" fill="none" stroke="#000000" stroke-width="2" stroke-miterlimit="10" width="31.412" height="3.238"/>
	<rect x="8.294" y="43.764" fill="none" stroke="#000000" stroke-width="2" stroke-miterlimit="10" width="31.412" height="3.236"/>
	<path fill="none" stroke="#000000" stroke-width="2" stroke-miterlimit="10" d="M29.169,29.673
		c-0.589-0.34-1.371-0.793-2.112-1.396l-0.643-0.418l0.064-0.096c-0.942-0.919-1.696-2.12-1.696-3.702
		c0-1.714,0.888-2.987,1.938-3.931l-0.027-0.048l0.356-0.234c0.744-0.604,1.529-1.058,2.12-1.398
		c0.072-0.043,0.141-0.082,0.205-0.12c0.143-0.157,0.689-0.846,1.57-2.89l-11.605,2.742c0.05,0.065,0.094,0.12,0.12,0.148
		c0.065,0.039,0.135,0.079,0.208,0.12c1.531,0.887,4.382,2.536,4.382,5.611s-2.853,4.727-4.387,5.611
		c-0.073,0.042-0.142,0.081-0.208,0.12c-0.987,1.005-2.717,5.421-4.197,10.499h18.319c-1.48-5.078-3.211-9.494-4.198-10.499
		C29.313,29.754,29.242,29.715,29.169,29.673z"/>
</g>
</svg>
