<?xml version="1.0" encoding="utf-8"?>
<!-- Generator: Adobe Illustrator 16.0.0, SVG Export Plug-In . SVG Version: 6.00 Build 0)  -->
<!DOCTYPE svg PUBLIC "-//W3C//DTD SVG 1.1//EN" "http://www.w3.org/Graphics/SVG/1.1/DTD/svg11.dtd">
<svg version="1.1" id="Layer_1" xmlns="http://www.w3.org/2000/svg" xmlns:xlink="http://www.w3.org/1999/xlink" x="0px" y="0px"
	 width="48px" height="48px" viewBox="0 0 48 48" enable-background="new 0 0 48 48" xml:space="preserve">
<g>
	<path fill="none" stroke="#000000" stroke-width="2" stroke-miterlimit="10" d="M47,41.969C47,44.735,44.735,47,41.969,47H6.031
		C3.265,47,1,44.735,1,41.969V6.031C1,3.265,3.265,1,6.031,1h35.938C44.735,1,47,3.265,47,6.031V41.969z"/>
	<line fill="none" stroke="#000000" stroke-width="2" stroke-miterlimit="10" x1="1" y1="13.065" x2="47" y2="13.065"/>
	<line fill="none" stroke="#000000" stroke-width="2" stroke-miterlimit="10" x1="1" y1="24" x2="47" y2="24"/>
	<line fill="none" stroke="#000000" stroke-width="2" stroke-miterlimit="10" x1="1" y1="34.937" x2="47" y2="34.937"/>
	<circle fill="none" stroke="#000000" stroke-width="2" stroke-miterlimit="10" cx="9.331" cy="13.009" r="3.596"/>
	<circle fill="none" stroke="#000000" stroke-width="2" stroke-miterlimit="10" cx="19.722" cy="13.009" r="3.596"/>
	<circle fill="none" stroke="#000000" stroke-width="2" stroke-miterlimit="10" cx="30.113" cy="13.009" r="3.596"/>
	<circle fill="none" stroke="#000000" stroke-width="2" stroke-miterlimit="10" cx="26.914" cy="24" r="3.596"/>
	<circle fill="none" stroke="#000000" stroke-width="2" stroke-miterlimit="10" cx="37.306" cy="24" r="3.597"/>
	<circle fill="none" stroke="#000000" stroke-width="2" stroke-miterlimit="10" cx="15.468" cy="34.937" r="3.597"/>
</g>
</svg>
