<?xml version="1.0" encoding="utf-8"?>
<!-- Generator: Adobe Illustrator 16.0.0, SVG Export Plug-In . SVG Version: 6.00 Build 0)  -->
<!DOCTYPE svg PUBLIC "-//W3C//DTD SVG 1.1//EN" "http://www.w3.org/Graphics/SVG/1.1/DTD/svg11.dtd">
<svg version="1.1" id="Layer_1" xmlns="http://www.w3.org/2000/svg" xmlns:xlink="http://www.w3.org/1999/xlink" x="0px" y="0px"
	 width="48px" height="48px" viewBox="0 0 48 48" enable-background="new 0 0 48 48" xml:space="preserve">
<g>
	
		<rect x="30.102" y="2.833" transform="matrix(0.9617 0.2739 -0.2739 0.9617 7.9427 -8.878)" fill="none" stroke="#000000" stroke-width="2" stroke-miterlimit="10" width="11.315" height="42.335"/>
	<circle fill="none" stroke="#000000" stroke-width="2" stroke-miterlimit="10" cx="31.671" cy="38.356" r="3.257"/>
	<line fill="none" stroke="#000000" stroke-width="2" stroke-miterlimit="10" x1="33.853" y1="10.038" x2="44.737" y2="13.137"/>
	<line fill="none" stroke="#000000" stroke-width="2" stroke-miterlimit="10" x1="32.945" y1="13.227" x2="43.829" y2="16.327"/>
	<line fill="none" stroke="#000000" stroke-width="2" stroke-miterlimit="10" x1="32.037" y1="16.415" x2="42.921" y2="19.514"/>
	
		<rect x="18.332" y="2.833" transform="matrix(0.9617 0.2739 -0.2739 0.9617 7.4921 -5.6536)" fill="none" stroke="#000000" stroke-width="2" stroke-miterlimit="10" width="11.315" height="42.335"/>
	<circle fill="none" stroke="#000000" stroke-width="2" stroke-miterlimit="10" cx="19.902" cy="38.356" r="3.257"/>
	<line fill="none" stroke="#000000" stroke-width="2" stroke-miterlimit="10" x1="22.083" y1="10.038" x2="32.968" y2="13.137"/>
	<line fill="none" stroke="#000000" stroke-width="2" stroke-miterlimit="10" x1="21.176" y1="13.227" x2="32.06" y2="16.327"/>
	<line fill="none" stroke="#000000" stroke-width="2" stroke-miterlimit="10" x1="20.268" y1="16.415" x2="31.151" y2="19.514"/>
	
		<rect x="6.582" y="2.832" transform="matrix(0.9618 0.2739 -0.2739 0.9618 7.0415 -2.4349)" fill="none" stroke="#000000" stroke-width="2" stroke-miterlimit="10" width="11.317" height="42.336"/>
	<circle fill="none" stroke="#000000" stroke-width="2" stroke-miterlimit="10" cx="8.151" cy="38.356" r="3.258"/>
	<line fill="none" stroke="#000000" stroke-width="2" stroke-miterlimit="10" x1="10.334" y1="10.038" x2="21.218" y2="13.137"/>
	<line fill="none" stroke="#000000" stroke-width="2" stroke-miterlimit="10" x1="9.426" y1="13.227" x2="20.309" y2="16.327"/>
	<line fill="none" stroke="#000000" stroke-width="2" stroke-miterlimit="10" x1="8.517" y1="16.415" x2="19.401" y2="19.514"/>
</g>
</svg>
