<?xml version="1.0" encoding="utf-8"?>
<!-- Generator: Adobe Illustrator 16.0.0, SVG Export Plug-In . SVG Version: 6.00 Build 0)  -->
<!DOCTYPE svg PUBLIC "-//W3C//DTD SVG 1.1//EN" "http://www.w3.org/Graphics/SVG/1.1/DTD/svg11.dtd">
<svg version="1.1" id="Layer_1" xmlns="http://www.w3.org/2000/svg" xmlns:xlink="http://www.w3.org/1999/xlink" x="0px" y="0px"
	 width="48px" height="48px" viewBox="0 0 48 48" enable-background="new 0 0 48 48" xml:space="preserve">
<g>
	<g>
		<g>
			<path fill="none" stroke="#000000" stroke-width="2" stroke-miterlimit="10" d="M47,39.999c0,3.85-3.15,7-7,7H8
				c-3.85,0-7-3.15-7-7V22.794c0-3.85,3.15-7,7-7h32c3.85,0,7,3.15,7,7V39.999z"/>
		</g>
		<path fill="none" stroke="#000000" stroke-width="2" stroke-miterlimit="10" d="M7.921,15.794L21.659,1.971
			c1.288-1.293,3.396-1.293,4.682,0l13.738,13.823"/>
	</g>
	<g>
		<path d="M15.924,34.147c-0.71,0.694-1.585,1.041-2.625,1.041c-1.04,0-1.916-0.347-2.627-1.041
			c-0.711-0.694-1.067-1.559-1.067-2.592s0.355-1.896,1.067-2.589c0.711-0.696,1.587-1.043,2.627-1.043
			c1.04,0,1.915,0.347,2.625,1.043c0.711,0.692,1.067,1.556,1.067,2.589S16.636,33.453,15.924,34.147z M15.393,31.561
			c0-0.627-0.202-1.162-0.604-1.604c-0.402-0.443-0.897-0.665-1.484-0.665c-0.586,0-1.082,0.222-1.484,0.665
			c-0.403,0.441-0.604,0.977-0.604,1.604c0,0.629,0.201,1.163,0.604,1.601c0.402,0.44,0.897,0.659,1.484,0.659
			c0.587,0,1.082-0.219,1.484-0.659C15.19,32.724,15.393,32.189,15.393,31.561z"/>
		<path d="M23.165,28.714c0.493,0.419,0.739,1.063,0.739,1.932s-0.253,1.505-0.759,1.907s-1.279,0.603-2.319,0.603h-0.937v1.964
			H18.32v-7.034h2.485C21.886,28.085,22.672,28.295,23.165,28.714z M22.013,31.482c0.187-0.214,0.282-0.522,0.282-0.927
			c0-0.406-0.123-0.696-0.368-0.864c-0.246-0.173-0.625-0.259-1.142-0.259h-0.896v2.364h1.058
			C21.469,31.797,21.825,31.692,22.013,31.482z"/>
		<path d="M30.204,28.085v1.398h-3.502v1.448h3.149v1.339h-3.149v1.46h3.612v1.389h-5.182v-7.034H30.204z"/>
		<path d="M36.634,28.085h1.57v7.034h-1.57l-3.351-4.408v4.408h-1.57v-7.034h1.469l3.452,4.528V28.085z"/>
	</g>
</g>
</svg>
