<?xml version="1.0" encoding="utf-8"?>
<!-- Generator: Adobe Illustrator 16.0.0, SVG Export Plug-In . SVG Version: 6.00 Build 0)  -->
<!DOCTYPE svg PUBLIC "-//W3C//DTD SVG 1.1//EN" "http://www.w3.org/Graphics/SVG/1.1/DTD/svg11.dtd">
<svg version="1.1" id="Layer_1" xmlns="http://www.w3.org/2000/svg" xmlns:xlink="http://www.w3.org/1999/xlink" x="0px" y="0px"
	 width="48px" height="48px" viewBox="0 0 48 48" enable-background="new 0 0 48 48" xml:space="preserve">
<g>
	<path fill="none" stroke="#000000" stroke-width="2" stroke-linejoin="round" stroke-miterlimit="10" d="M36.012,16.67
		c-2.06,0-3.979,0.675-5.625,1.831H17.614c-1.648-1.155-3.568-1.831-5.626-1.831C5.919,16.67,1,22.432,1,29.54
		c0,7.109,4.919,12.872,10.987,12.872c4.292,0,7.999-2.888,9.808-7.092h4.41c1.808,4.204,5.514,7.092,9.807,7.092
		C42.081,42.412,47,36.649,47,29.54C47,22.432,42.081,16.67,36.012,16.67z"/>
	
		<line fill="none" stroke="#000000" stroke-width="2" stroke-linejoin="round" stroke-miterlimit="10" x1="5.701" y1="29.54" x2="17.432" y2="29.54"/>
	
		<line fill="none" stroke="#000000" stroke-width="2" stroke-linejoin="round" stroke-miterlimit="10" x1="11.568" y1="23.676" x2="11.568" y2="35.406"/>
	
		<circle fill="none" stroke="#000000" stroke-width="2" stroke-linejoin="round" stroke-miterlimit="10" cx="37.573" cy="25.031" r="2.717"/>
	
		<circle fill="none" stroke="#000000" stroke-width="2" stroke-linejoin="round" stroke-miterlimit="10" cx="33.89" cy="32.923" r="2.717"/>
	<path fill="none" stroke="#000000" stroke-width="2" stroke-linejoin="round" stroke-miterlimit="10" d="M23.394,18.259
		c0-1.611,0.051-2.635,0.889-4.043c1.208-2.021,2.991-1.909,5.165-1.336c1.8,0.478,4.471,1.479,6.059,0
		c1.095-1.025,0.889-2.476-0.182-3.448c-2.815-2.547-6.395-1.583-9.819-1.566c-4.252,0.022-7.706,0.812-11.732-1.391
		c-0.503-0.277-0.958-0.666-1.485-0.887"/>
</g>
</svg>
