<?xml version="1.0" encoding="utf-8"?>
<!-- Generator: Adobe Illustrator 16.0.0, SVG Export Plug-In . SVG Version: 6.00 Build 0)  -->
<!DOCTYPE svg PUBLIC "-//W3C//DTD SVG 1.1//EN" "http://www.w3.org/Graphics/SVG/1.1/DTD/svg11.dtd">
<svg version="1.1" id="Layer_1" xmlns="http://www.w3.org/2000/svg" xmlns:xlink="http://www.w3.org/1999/xlink" x="0px" y="0px"
	 width="48px" height="48px" viewBox="0 0 48 48" enable-background="new 0 0 48 48" xml:space="preserve">
<g>
	<path fill="none" stroke="#000000" stroke-width="2" stroke-linejoin="round" stroke-miterlimit="10" d="M46.234,22.247
		c-1.96-8.32-7.069-14.267-11.415-13.284c-1.323,0.299-2.418,1.213-3.253,2.566V11.52c0,0-6.833,4.616-15.132,0v0.009
		c-0.836-1.353-1.931-2.269-3.254-2.566C8.835,7.979,3.725,13.927,1.766,22.247c-1.96,8.32-0.027,15.863,4.318,16.848
		c3.705,0.839,12.561-9.76,12.561-9.76s5.366-5.117,9.973,0c0,0,9.595,10.599,13.299,9.762
		C46.263,38.112,48.194,30.567,46.234,22.247z"/>
	<g>
		
			<circle fill="none" stroke="#000000" stroke-width="2" stroke-linejoin="round" stroke-miterlimit="10" cx="35.354" cy="17.703" r="2.15"/>
		
			<circle fill="none" stroke="#000000" stroke-width="2" stroke-linejoin="round" stroke-miterlimit="10" cx="35.354" cy="27.4" r="2.15"/>
	</g>
	<g>
		
			<circle fill="none" stroke="#000000" stroke-width="2" stroke-linejoin="round" stroke-miterlimit="10" cx="40.165" cy="22.55" r="2.15"/>
		
			<circle fill="none" stroke="#000000" stroke-width="2" stroke-linejoin="round" stroke-miterlimit="10" cx="30.541" cy="22.55" r="2.15"/>
	</g>
	<path fill="none" stroke="#000000" stroke-width="2" stroke-linejoin="round" stroke-miterlimit="10" d="M18.137,20.971
		c0,3.313-2.687,5.997-6,5.997c-3.31,0-5.997-2.685-5.997-5.997c0-3.313,2.687-5.999,5.997-5.999
		C15.45,14.972,18.137,17.658,18.137,20.971z"/>
</g>
</svg>
