<?xml version="1.0" encoding="utf-8"?>
<!-- Generator: Adobe Illustrator 16.0.0, SVG Export Plug-In . SVG Version: 6.00 Build 0)  -->
<!DOCTYPE svg PUBLIC "-//W3C//DTD SVG 1.1//EN" "http://www.w3.org/Graphics/SVG/1.1/DTD/svg11.dtd">
<svg version="1.1" id="Layer_1" xmlns="http://www.w3.org/2000/svg" xmlns:xlink="http://www.w3.org/1999/xlink" x="0px" y="0px"
	 width="48px" height="48px" viewBox="0 0 48 48" enable-background="new 0 0 48 48" xml:space="preserve">
<g>
	<path fill="none" stroke="#000000" stroke-width="2" stroke-miterlimit="10" d="M45.563,20.406h-4.029
		c-0.464-2.272-1.359-4.387-2.597-6.259l2.852-2.853c0.56-0.56,0.56-1.475,0-2.033l-3.05-3.049c-0.558-0.56-1.474-0.56-2.033,0
		l-2.853,2.853c-1.87-1.237-3.984-2.134-6.259-2.598v-4.03c0-0.79-0.647-1.438-1.438-1.438h-4.313c-0.79,0-1.438,0.647-1.438,1.438
		v4.03c-2.273,0.464-4.388,1.361-6.259,2.598l-2.853-2.853c-0.56-0.56-1.475-0.56-2.033,0L6.213,9.262
		c-0.56,0.558-0.56,1.473,0,2.033l2.853,2.853c-1.238,1.872-2.134,3.987-2.598,6.259h-4.03C1.647,20.406,1,21.054,1,21.844v4.313
		c0,0.79,0.647,1.438,1.438,1.438h4.03c0.464,2.274,1.36,4.39,2.598,6.259l-2.853,2.853c-0.56,0.56-0.56,1.476,0,2.033l3.049,3.051
		c0.558,0.56,1.473,0.56,2.033,0l2.853-2.853c1.871,1.235,3.986,2.134,6.259,2.598v4.028c0,0.79,0.647,1.438,1.438,1.438h4.313
		c0.79,0,1.438-0.647,1.438-1.438v-4.028c2.274-0.464,4.389-1.362,6.259-2.598l2.853,2.853c0.56,0.56,1.476,0.56,2.033,0l3.05-3.051
		c0.56-0.558,0.56-1.474,0-2.033l-2.852-2.853c1.237-1.869,2.133-3.984,2.597-6.259h4.029c0.79,0,1.438-0.647,1.438-1.438v-4.313
		C47,21.054,46.353,20.406,45.563,20.406z"/>
	<circle fill="none" stroke="#000000" stroke-width="2" stroke-miterlimit="10" cx="24" cy="24" r="11.847"/>
</g>
</svg>
