<?xml version="1.0" encoding="utf-8"?>
<!-- Generator: Adobe Illustrator 16.0.0, SVG Export Plug-In . SVG Version: 6.00 Build 0)  -->
<!DOCTYPE svg PUBLIC "-//W3C//DTD SVG 1.1//EN" "http://www.w3.org/Graphics/SVG/1.1/DTD/svg11.dtd">
<svg version="1.1" id="Layer_1" xmlns="http://www.w3.org/2000/svg" xmlns:xlink="http://www.w3.org/1999/xlink" x="0px" y="0px"
	 width="48px" height="48px" viewBox="0 0 48 48" enable-background="new 0 0 48 48" xml:space="preserve">
<g>
	<path fill="none" stroke="#000000" stroke-width="2" stroke-linejoin="round" stroke-miterlimit="10" d="M42.829,32.231
		c1.558-0.379,2.936-1.435,3.663-3.001c1.267-2.729,0.082-5.971-2.648-7.239c-2.731-1.267-5.973-0.083-7.24,2.648L13.809,14.057
		c1.269-2.731,0.083-5.973-2.646-7.242C8.431,5.55,5.189,6.735,3.921,9.466c-1.023,2.203-0.446,4.739,1.25,6.302
		c-1.558,0.38-2.937,1.433-3.664,3c-1.267,2.731-0.082,5.97,2.648,7.24c2.731,1.269,5.973,0.082,7.24-2.649L34.19,33.941
		c-1.268,2.731-0.083,5.974,2.647,7.242c2.732,1.268,5.974,0.081,7.241-2.648C45.103,36.33,44.524,33.794,42.829,32.231z"/>
</g>
</svg>
