<?xml version="1.0" encoding="utf-8"?>
<!-- Generator: Adobe Illustrator 16.0.0, SVG Export Plug-In . SVG Version: 6.00 Build 0)  -->
<!DOCTYPE svg PUBLIC "-//W3C//DTD SVG 1.1//EN" "http://www.w3.org/Graphics/SVG/1.1/DTD/svg11.dtd">
<svg version="1.1" id="Layer_1" xmlns="http://www.w3.org/2000/svg" xmlns:xlink="http://www.w3.org/1999/xlink" x="0px" y="0px"
	 width="48px" height="48px" viewBox="0 0 48 48" enable-background="new 0 0 48 48" xml:space="preserve">
<g>
	
		<ellipse fill="none" stroke="#000000" stroke-width="2" stroke-linejoin="round" stroke-miterlimit="10" cx="6.998" cy="23.375" rx="5.998" ry="6.467"/>
	<path fill="none" stroke="#000000" stroke-width="2" stroke-linejoin="round" stroke-miterlimit="10" d="M36.325,22.278
		c-1.583-3.758-5.491-6.514-10.187-6.888v-1.542c1.28-0.501,2.19-1.741,2.19-3.199c0-1.902-1.541-3.442-3.442-3.442
		c-1.9,0-3.441,1.541-3.441,3.442c0,1.458,0.909,2.697,2.189,3.199v1.572c-5.988,0.618-10.64,5.108-10.64,10.561
		c0,5.05,3.987,9.267,9.329,10.358l-5.677,4.454h8.24h8.241l-5.612-4.402c2.179-0.406,4.144-1.33,5.717-2.622
		c0.538-0.323,1.039-0.796,1.477-1.456c0.59-0.7,1.092-1.462,1.472-2.278C39.92,25.123,47,21.288,47,21.288L36.325,22.278z"/>
</g>
</svg>
