<?xml version="1.0" encoding="utf-8"?>
<!-- Generator: Adobe Illustrator 16.0.0, SVG Export Plug-In . SVG Version: 6.00 Build 0)  -->
<!DOCTYPE svg PUBLIC "-//W3C//DTD SVG 1.1//EN" "http://www.w3.org/Graphics/SVG/1.1/DTD/svg11.dtd">
<svg version="1.1" id="Layer_1" xmlns="http://www.w3.org/2000/svg" xmlns:xlink="http://www.w3.org/1999/xlink" x="0px" y="0px"
	 width="48px" height="48px" viewBox="0 0 48 48" enable-background="new 0 0 48 48" xml:space="preserve">
<g>
	<path fill="none" stroke="#000000" stroke-width="2" stroke-linejoin="round" stroke-miterlimit="10" d="M46.498,25.002H14.464
		c0,6.803,4.245,12.612,10.228,14.934v2.918h11.577v-2.918C42.254,37.614,46.498,31.805,46.498,25.002z"/>
	
		<line fill="none" stroke="#000000" stroke-width="2" stroke-linejoin="round" stroke-miterlimit="10" x1="2.467" y1="5.146" x2="41.719" y2="16.057"/>
	
		<line fill="none" stroke="#000000" stroke-width="2" stroke-linejoin="round" stroke-miterlimit="10" x1="0.5" y1="18.889" x2="41.276" y2="19.693"/>
	<path fill="none" stroke="#000000" stroke-width="2" stroke-linejoin="round" stroke-miterlimit="10" d="M23.24,23.54V12.121
		c0-1.165,0.952-2.117,2.112-2.117h0.211c1.163,0,2.115,0.952,2.115,2.117v8.215"/>
	<path fill="none" stroke="#000000" stroke-width="2" stroke-linejoin="round" stroke-miterlimit="10" d="M32.119,19.513v-5.277
		c0-1.162,0.952-2.114,2.116-2.114h0.21c1.164,0,2.114,0.952,2.114,2.114v9.031"/>
	<path fill="none" stroke="#000000" stroke-width="2" stroke-linejoin="round" stroke-miterlimit="10" d="M32.119,12.935v8.216
		c0,1.164-0.951,2.116-2.115,2.116h-0.21c-1.163,0-2.114-0.952-2.114-2.116l-0.001-8.216"/>
</g>
</svg>
