<?xml version="1.0" encoding="utf-8"?>
<!-- Generator: Adobe Illustrator 16.0.0, SVG Export Plug-In . SVG Version: 6.00 Build 0)  -->
<!DOCTYPE svg PUBLIC "-//W3C//DTD SVG 1.1//EN" "http://www.w3.org/Graphics/SVG/1.1/DTD/svg11.dtd">
<svg version="1.1" id="Layer_1" xmlns="http://www.w3.org/2000/svg" xmlns:xlink="http://www.w3.org/1999/xlink" x="0px" y="0px"
	 width="48px" height="48px" viewBox="0 0 48 48" enable-background="new 0 0 48 48" xml:space="preserve">
<g>
	<g>
		<path fill="none" stroke="#000000" stroke-width="2" stroke-miterlimit="10" d="M5.813,23.618v19.964
			C5.813,45.463,7.352,47,9.231,47h30.083c1.88,0,3.418-1.537,3.418-3.418V23.618H5.813z"/>
		<g>
			<polygon fill="none" stroke="#000000" stroke-width="2" stroke-miterlimit="10" points="44.487,21.336 10.682,21.336 
				9.654,21.336 5.087,21.336 5.087,16.311 14.908,16.311 15.593,16.311 44.487,16.311 			"/>
			<line fill="none" stroke="#000000" stroke-width="2" stroke-miterlimit="10" x1="16.793" y1="16.311" x2="11.709" y2="21.395"/>
			<line fill="none" stroke="#000000" stroke-width="2" stroke-miterlimit="10" x1="27.327" y1="16.311" x2="22.245" y2="21.395"/>
			<line fill="none" stroke="#000000" stroke-width="2" stroke-miterlimit="10" x1="37.863" y1="16.311" x2="32.781" y2="21.395"/>
		</g>
		<g>
			<polygon fill="none" stroke="#000000" stroke-width="2" stroke-miterlimit="10" points="42.731,5.822 10.299,15.353 
				9.313,15.643 4.931,16.931 3.513,12.109 12.937,9.339 13.594,9.146 41.315,1 			"/>
			<line fill="none" stroke="#000000" stroke-width="2" stroke-miterlimit="10" x1="14.745" y1="8.809" x2="11.301" y2="15.119"/>
			<line fill="none" stroke="#000000" stroke-width="2" stroke-miterlimit="10" x1="24.853" y1="5.838" x2="21.409" y2="12.148"/>
			<line fill="none" stroke="#000000" stroke-width="2" stroke-miterlimit="10" x1="34.96" y1="2.868" x2="31.518" y2="9.178"/>
		</g>
	</g>
	<line fill="none" stroke="#000000" stroke-width="2" stroke-miterlimit="10" x1="7.005" y1="38.283" x2="42.731" y2="38.283"/>
	<line fill="none" stroke="#000000" stroke-width="2" stroke-miterlimit="10" x1="23.123" y1="25.003" x2="23.123" y2="38.283"/>
</g>
</svg>
