<?xml version="1.0" encoding="utf-8"?>
<!-- Generator: Adobe Illustrator 16.0.0, SVG Export Plug-In . SVG Version: 6.00 Build 0)  -->
<!DOCTYPE svg PUBLIC "-//W3C//DTD SVG 1.1//EN" "http://www.w3.org/Graphics/SVG/1.1/DTD/svg11.dtd">
<svg version="1.1" id="Layer_1" xmlns="http://www.w3.org/2000/svg" xmlns:xlink="http://www.w3.org/1999/xlink" x="0px" y="0px"
	 width="48px" height="48px" viewBox="0 0 48 48" enable-background="new 0 0 48 48" xml:space="preserve">
<g>
	<g>
		<path fill="none" stroke="#000000" stroke-width="2" stroke-linejoin="round" stroke-miterlimit="10" d="M40.404,42
			c0,2.75-2.25,5-5,5H12.596c-2.75,0-5-2.25-5-5V19.194c0-2.75,2.25-5,5-5h22.808c2.75,0,5,2.25,5,5V42z"/>
	</g>
	<g>
		
			<ellipse fill="none" stroke="#000000" stroke-width="2" stroke-linejoin="round" stroke-miterlimit="10" cx="15.543" cy="39.341" rx="4.026" ry="2.222"/>
		
			<ellipse fill="none" stroke="#000000" stroke-width="2" stroke-linejoin="round" stroke-miterlimit="10" cx="29.959" cy="36.026" rx="4.026" ry="2.222"/>
		<polyline fill="none" stroke="#000000" stroke-width="2" stroke-linejoin="round" stroke-miterlimit="10" points="19.569,39.341 
			19.569,24.161 33.985,19.629 33.985,36.633 		"/>
		<path fill="none" stroke="#000000" stroke-width="2" stroke-linejoin="round" stroke-miterlimit="10" d="M19.569,29.484
			c0.504-0.208,14.416-3.73,14.416-3.73"/>
	</g>
	<path fill="none" stroke="#000000" stroke-width="2" stroke-linejoin="round" stroke-miterlimit="10" d="M10.508,14.194
		C10.508,6.907,16.414,1,23.701,1s13.194,5.907,13.194,13.194"/>
	<path fill="none" stroke="#000000" stroke-width="2" stroke-linejoin="round" stroke-miterlimit="10" d="M18.864,14.194
		c0-2.673,2.166-4.838,4.837-4.838s4.838,2.166,4.838,4.838"/>
</g>
</svg>
