<?xml version="1.0" encoding="utf-8"?>
<!-- Generator: Adobe Illustrator 16.0.0, SVG Export Plug-In . SVG Version: 6.00 Build 0)  -->
<!DOCTYPE svg PUBLIC "-//W3C//DTD SVG 1.1//EN" "http://www.w3.org/Graphics/SVG/1.1/DTD/svg11.dtd">
<svg version="1.1" id="Layer_1" xmlns="http://www.w3.org/2000/svg" xmlns:xlink="http://www.w3.org/1999/xlink" x="0px" y="0px"
	 width="48px" height="48px" viewBox="0 0 48 48" enable-background="new 0 0 48 48" xml:space="preserve">
<g>
	<polyline fill="none" stroke="#000000" stroke-width="2" stroke-miterlimit="10" points="29.473,37.35 47,37.35 47,13.172 
		17.893,13.172 	"/>
	<ellipse fill="none" stroke="#000000" stroke-width="2" stroke-miterlimit="10" cx="26.497" cy="25.26" rx="6.877" ry="8.296"/>
	<ellipse fill="none" stroke="#000000" stroke-width="2" stroke-miterlimit="10" cx="8.943" cy="6.522" rx="7.943" ry="3.425"/>
	
		<ellipse transform="matrix(0.8558 0.5173 -0.5173 0.8558 24.439 -7.9606)" fill="none" stroke="#000000" stroke-width="2" stroke-miterlimit="10" cx="26.497" cy="39.853" rx="7.943" ry="3.427"/>
	<path fill="none" stroke="#000000" stroke-width="2" stroke-miterlimit="10" d="M16.886,10.893c0,1.893-3.557,3.425-7.943,3.425
		C4.557,14.318,1,12.785,1,10.893"/>
	<path fill="none" stroke="#000000" stroke-width="2" stroke-miterlimit="10" d="M16.886,14.979c0,1.893-3.557,3.425-7.943,3.425
		C4.557,18.404,1,16.871,1,14.979"/>
	<path fill="none" stroke="#000000" stroke-width="2" stroke-miterlimit="10" d="M16.886,19.063c0,1.892-3.557,3.425-7.943,3.425
		C4.557,22.488,1,20.955,1,19.063"/>
	<path fill="none" stroke="#000000" stroke-width="2" stroke-miterlimit="10" d="M16.886,23.148c0,1.893-3.557,3.425-7.943,3.425
		C4.557,26.573,1,25.041,1,23.148"/>
	<path fill="none" stroke="#000000" stroke-width="2" stroke-miterlimit="10" d="M16.886,27.232c0,1.893-3.557,3.426-7.943,3.426
		C4.557,30.658,1,29.125,1,27.232"/>
	<path fill="none" stroke="#000000" stroke-width="2" stroke-miterlimit="10" d="M16.886,31.318c0,1.891-3.557,3.426-7.943,3.426
		C4.557,34.744,1,33.209,1,31.318"/>
	<path fill="none" stroke="#000000" stroke-width="2" stroke-miterlimit="10" d="M16.886,35.402c0,1.893-3.557,3.426-7.943,3.426
		C4.557,38.828,1,37.295,1,35.402"/>
	<circle fill="none" stroke="#000000" stroke-width="2" stroke-miterlimit="10" cx="40.849" cy="18.129" r="2.074"/>
	<path fill="none" stroke="#000000" stroke-width="2" stroke-miterlimit="10" d="M42.923,32.729c0,1.146-0.929,2.076-2.074,2.076
		c-1.145,0-2.073-0.931-2.073-2.076c0-1.144,0.929-2.071,2.073-2.071C41.994,30.658,42.923,31.586,42.923,32.729z"/>
	<g>
		<path d="M26.053,29.146v-0.684c-0.791-0.125-1.52-0.482-2.186-1.074l0.868-1.056c0.486,0.423,0.925,0.694,1.317,0.813v-1.393
			c-0.654-0.167-1.134-0.393-1.438-0.678c-0.306-0.282-0.459-0.69-0.459-1.224c0-0.531,0.174-0.971,0.524-1.317
			c0.35-0.344,0.806-0.552,1.373-0.619v-0.458h0.99v0.477c0.622,0.086,1.243,0.344,1.859,0.774l-0.766,1.103
			c-0.394-0.281-0.757-0.468-1.094-0.56v1.344c0.673,0.176,1.17,0.407,1.49,0.701c0.321,0.292,0.481,0.706,0.481,1.241
			c0,0.537-0.178,0.979-0.537,1.329c-0.358,0.348-0.836,0.556-1.435,0.625v0.655H26.053z M26.053,23.21
			c-0.269,0.096-0.402,0.266-0.402,0.515c0,0.249,0.134,0.439,0.402,0.571V23.21z M27.519,26.613c0-0.131-0.033-0.242-0.102-0.328
			c-0.068-0.088-0.194-0.168-0.374-0.243v1.149C27.36,27.092,27.519,26.899,27.519,26.613z"/>
	</g>
</g>
</svg>
