<?xml version="1.0" encoding="utf-8"?>
<!-- Generator: Adobe Illustrator 16.0.0, SVG Export Plug-In . SVG Version: 6.00 Build 0)  -->
<!DOCTYPE svg PUBLIC "-//W3C//DTD SVG 1.1//EN" "http://www.w3.org/Graphics/SVG/1.1/DTD/svg11.dtd">
<svg version="1.1" id="Layer_1" xmlns="http://www.w3.org/2000/svg" xmlns:xlink="http://www.w3.org/1999/xlink" x="0px" y="0px"
	 width="48px" height="48px" viewBox="0 0 48 48" enable-background="new 0 0 48 48" xml:space="preserve">
<g>
	
		<rect x="10.597" y="21.231" transform="matrix(0.7071 -0.7071 0.7071 0.7071 -9.9413 23.9992)" fill="none" stroke="#000000" stroke-width="2" stroke-linejoin="round" stroke-miterlimit="10" width="26.807" height="5.538"/>
	<path fill="none" stroke="#000000" stroke-width="2" stroke-linejoin="round" stroke-miterlimit="10" d="M21.582,40.534
		c1.19,1.19,1.19,3.139,0,4.329l-1.242,1.245c-1.19,1.188-3.138,1.188-4.329,0L1.895,31.989c-1.192-1.19-1.192-3.139,0-4.331
		l1.24-1.241c1.19-1.19,3.139-1.19,4.329,0L21.582,40.534z"/>
	<path fill="none" stroke="#000000" stroke-width="2" stroke-linejoin="round" stroke-miterlimit="10" d="M12.172,42.27
		c1.191,1.19,1.433,2.897,0.539,3.79c-0.896,0.895-2.602,0.651-3.792-0.537L2.479,39.08c-1.191-1.19-1.433-2.896-0.539-3.791
		c0.895-0.895,2.602-0.651,3.792,0.539L12.172,42.27z"/>
	
		<line fill="none" stroke="#000000" stroke-width="2" stroke-linejoin="round" stroke-miterlimit="10" x1="5.699" y1="42.301" x2="3.852" y2="44.148"/>
	<path fill="none" stroke="#000000" stroke-width="2" stroke-linejoin="round" stroke-miterlimit="10" d="M26.418,7.465
		c-1.191-1.192-1.191-3.141,0-4.329l1.242-1.243c1.19-1.19,3.139-1.19,4.329,0l14.117,14.121c1.19,1.19,1.19,3.139,0,4.33
		l-1.241,1.241c-1.191,1.19-3.139,1.19-4.329,0L26.418,7.465z"/>
	<path fill="none" stroke="#000000" stroke-width="2" stroke-linejoin="round" stroke-miterlimit="10" d="M35.827,5.731
		c-1.19-1.19-1.434-2.897-0.539-3.79c0.896-0.896,2.601-0.651,3.793,0.537l6.441,6.442c1.19,1.189,1.432,2.896,0.538,3.791
		c-0.895,0.895-2.601,0.653-3.79-0.539L35.827,5.731z"/>
	
		<line fill="none" stroke="#000000" stroke-width="2" stroke-linejoin="round" stroke-miterlimit="10" x1="42.3" y1="5.7" x2="44.148" y2="3.853"/>
</g>
</svg>
