<?xml version="1.0" encoding="utf-8"?>
<!-- Generator: Adobe Illustrator 16.0.0, SVG Export Plug-In . SVG Version: 6.00 Build 0)  -->
<!DOCTYPE svg PUBLIC "-//W3C//DTD SVG 1.1//EN" "http://www.w3.org/Graphics/SVG/1.1/DTD/svg11.dtd">
<svg version="1.1" id="Layer_1" xmlns="http://www.w3.org/2000/svg" xmlns:xlink="http://www.w3.org/1999/xlink" x="0px" y="0px"
	 width="48px" height="48px" viewBox="0 0 48 48" enable-background="new 0 0 48 48" xml:space="preserve">
<g>
	<g>
		<path fill="none" stroke="#000000" stroke-width="2" stroke-miterlimit="10" d="M39.005,16.603c-2.099,2.098-5.505,2.098-7.606,0
			c-2.104-2.098-2.107-5.5-0.008-7.6c2.1-2.096,5.505-2.096,7.606,0C41.1,11.102,41.104,14.505,39.005,16.603z"/>
		<path fill="none" stroke="#000000" stroke-width="2" stroke-miterlimit="10" d="M27.807,27.798c-2.099,2.1-5.503,2.099-7.607,0
			c-2.102-2.097-2.105-5.499-0.006-7.598c2.099-2.098,5.503-2.098,7.608,0C29.901,22.299,29.906,25.701,27.807,27.798z"/>
		<path fill="none" stroke="#000000" stroke-width="2" stroke-miterlimit="10" d="M16.609,38.994c-2.099,2.099-5.505,2.099-7.607,0
			c-2.102-2.098-2.106-5.499-0.007-7.599c2.098-2.099,5.504-2.099,7.607,0C18.705,33.495,18.708,36.896,16.609,38.994z"/>
	</g>
	<g>
		<path fill="none" stroke="#000000" stroke-width="2" stroke-miterlimit="10" d="M47,40c0,3.85-3.15,7-7,7H8c-3.85,0-7-3.15-7-7V8
			c0-3.85,3.15-7,7-7h32c3.85,0,7,3.15,7,7V40z"/>
	</g>
</g>
</svg>
