<?xml version="1.0" encoding="utf-8"?>
<!-- Generator: Adobe Illustrator 16.0.0, SVG Export Plug-In . SVG Version: 6.00 Build 0)  -->
<!DOCTYPE svg PUBLIC "-//W3C//DTD SVG 1.1//EN" "http://www.w3.org/Graphics/SVG/1.1/DTD/svg11.dtd">
<svg version="1.1" id="Layer_1" xmlns="http://www.w3.org/2000/svg" xmlns:xlink="http://www.w3.org/1999/xlink" x="0px" y="0px"
	 width="48px" height="48px" viewBox="0 0 48 48" enable-background="new 0 0 48 48" xml:space="preserve">
<g>
	<rect x="3.021" y="3.119" fill="none" stroke="#000000" stroke-width="2" stroke-miterlimit="10" width="41.957" height="41.957"/>
	<g>
		<g>
			<line fill="none" stroke="#000000" stroke-width="2" stroke-miterlimit="10" x1="5.637" y1="0" x2="5.637" y2="3.119"/>
			<line fill="none" stroke="#000000" stroke-width="2" stroke-miterlimit="10" x1="10.228" y1="0" x2="10.228" y2="3.119"/>
			<line fill="none" stroke="#000000" stroke-width="2" stroke-miterlimit="10" x1="14.818" y1="0" x2="14.818" y2="3.119"/>
			<line fill="none" stroke="#000000" stroke-width="2" stroke-miterlimit="10" x1="19.409" y1="0" x2="19.409" y2="3.119"/>
			<line fill="none" stroke="#000000" stroke-width="2" stroke-miterlimit="10" x1="24" y1="0" x2="24" y2="3.119"/>
			<line fill="none" stroke="#000000" stroke-width="2" stroke-miterlimit="10" x1="28.591" y1="0" x2="28.591" y2="3.119"/>
			<line fill="none" stroke="#000000" stroke-width="2" stroke-miterlimit="10" x1="33.182" y1="0" x2="33.182" y2="3.119"/>
			<line fill="none" stroke="#000000" stroke-width="2" stroke-miterlimit="10" x1="37.773" y1="0" x2="37.773" y2="3.119"/>
			<line fill="none" stroke="#000000" stroke-width="2" stroke-miterlimit="10" x1="42.365" y1="0" x2="42.365" y2="3.119"/>
		</g>
		<g>
			<line fill="none" stroke="#000000" stroke-width="2" stroke-miterlimit="10" x1="5.637" y1="44.879" x2="5.637" y2="48"/>
			<line fill="none" stroke="#000000" stroke-width="2" stroke-miterlimit="10" x1="10.228" y1="44.879" x2="10.228" y2="48"/>
			<line fill="none" stroke="#000000" stroke-width="2" stroke-miterlimit="10" x1="14.818" y1="44.879" x2="14.818" y2="48"/>
			<line fill="none" stroke="#000000" stroke-width="2" stroke-miterlimit="10" x1="19.409" y1="44.879" x2="19.409" y2="48"/>
			<line fill="none" stroke="#000000" stroke-width="2" stroke-miterlimit="10" x1="24" y1="44.879" x2="24" y2="48"/>
			<line fill="none" stroke="#000000" stroke-width="2" stroke-miterlimit="10" x1="28.591" y1="44.879" x2="28.591" y2="48"/>
			<line fill="none" stroke="#000000" stroke-width="2" stroke-miterlimit="10" x1="33.182" y1="44.879" x2="33.182" y2="48"/>
			<line fill="none" stroke="#000000" stroke-width="2" stroke-miterlimit="10" x1="37.773" y1="44.879" x2="37.773" y2="48"/>
			<line fill="none" stroke="#000000" stroke-width="2" stroke-miterlimit="10" x1="42.365" y1="44.879" x2="42.365" y2="48"/>
		</g>
	</g>
	<g>
		<g>
			<line fill="none" stroke="#000000" stroke-width="2" stroke-miterlimit="10" x1="48" y1="5.635" x2="44.88" y2="5.635"/>
			<line fill="none" stroke="#000000" stroke-width="2" stroke-miterlimit="10" x1="48" y1="10.227" x2="44.88" y2="10.227"/>
			<line fill="none" stroke="#000000" stroke-width="2" stroke-miterlimit="10" x1="48" y1="14.818" x2="44.88" y2="14.818"/>
			<line fill="none" stroke="#000000" stroke-width="2" stroke-miterlimit="10" x1="48" y1="19.408" x2="44.88" y2="19.408"/>
			<line fill="none" stroke="#000000" stroke-width="2" stroke-miterlimit="10" x1="48" y1="24" x2="44.88" y2="24"/>
			<line fill="none" stroke="#000000" stroke-width="2" stroke-miterlimit="10" x1="48" y1="28.59" x2="44.88" y2="28.59"/>
			<line fill="none" stroke="#000000" stroke-width="2" stroke-miterlimit="10" x1="48" y1="33.182" x2="44.88" y2="33.182"/>
			<line fill="none" stroke="#000000" stroke-width="2" stroke-miterlimit="10" x1="48" y1="37.773" x2="44.88" y2="37.773"/>
			<line fill="none" stroke="#000000" stroke-width="2" stroke-miterlimit="10" x1="48" y1="42.363" x2="44.88" y2="42.363"/>
		</g>
		<g>
			<line fill="none" stroke="#000000" stroke-width="2" stroke-miterlimit="10" x1="3.121" y1="5.635" x2="0" y2="5.635"/>
			<line fill="none" stroke="#000000" stroke-width="2" stroke-miterlimit="10" x1="3.121" y1="10.227" x2="0" y2="10.227"/>
			<line fill="none" stroke="#000000" stroke-width="2" stroke-miterlimit="10" x1="3.121" y1="14.818" x2="0" y2="14.818"/>
			<line fill="none" stroke="#000000" stroke-width="2" stroke-miterlimit="10" x1="3.121" y1="19.408" x2="0" y2="19.408"/>
			<line fill="none" stroke="#000000" stroke-width="2" stroke-miterlimit="10" x1="3.121" y1="24" x2="0" y2="24"/>
			<line fill="none" stroke="#000000" stroke-width="2" stroke-miterlimit="10" x1="3.121" y1="28.59" x2="0" y2="28.59"/>
			<line fill="none" stroke="#000000" stroke-width="2" stroke-miterlimit="10" x1="3.121" y1="33.182" x2="0" y2="33.182"/>
			<line fill="none" stroke="#000000" stroke-width="2" stroke-miterlimit="10" x1="3.121" y1="37.773" x2="0" y2="37.773"/>
			<line fill="none" stroke="#000000" stroke-width="2" stroke-miterlimit="10" x1="3.121" y1="42.363" x2="0" y2="42.363"/>
		</g>
	</g>
	<path fill="none" stroke="#000000" stroke-width="2" stroke-miterlimit="10" d="M31.57,9.197c-3.217,0-6.024,1.723-7.57,4.293
		c-1.545-2.57-4.352-4.293-7.568-4.293c-4.882,0-8.839,3.955-8.839,8.836C7.593,22.916,14.763,29.762,24,39
		c9.554-9.555,16.408-16.084,16.408-20.967C40.408,13.152,36.451,9.197,31.57,9.197z"/>
</g>
</svg>
