<?xml version="1.0" encoding="utf-8"?>
<!-- Generator: Adobe Illustrator 16.0.0, SVG Export Plug-In . SVG Version: 6.00 Build 0)  -->
<!DOCTYPE svg PUBLIC "-//W3C//DTD SVG 1.1//EN" "http://www.w3.org/Graphics/SVG/1.1/DTD/svg11.dtd">
<svg version="1.1" id="Layer_1" xmlns="http://www.w3.org/2000/svg" xmlns:xlink="http://www.w3.org/1999/xlink" x="0px" y="0px"
	 width="48px" height="48px" viewBox="0 0 48 48" enable-background="new 0 0 48 48" xml:space="preserve">
<g>
	<path fill="none" stroke="#000000" stroke-width="2" stroke-miterlimit="10" d="M3.703,32.811C0.394,35.77,0.08,40.893,3,44.254
		c2.921,3.356,7.972,3.683,11.282,0.721c3.309-2.957,3.624-8.08,0.702-11.438C12.063,30.179,7.011,29.852,3.703,32.811z
		 M11.913,42.252c-1.827,1.636-4.616,1.454-6.229-0.399c-1.612-1.854-1.439-4.683,0.388-6.316c1.826-1.635,4.615-1.455,6.229,0.4
		C13.914,37.789,13.74,40.619,11.913,42.252z"/>
	<path fill="none" stroke="#000000" stroke-width="2" stroke-miterlimit="10" d="M44.999,33.536
		c-2.923-3.357-7.973-3.685-11.282-0.726s-3.623,8.082-0.701,11.443c2.921,3.356,7.972,3.683,11.281,0.721
		C47.605,42.018,47.92,36.895,44.999,33.536z M41.928,42.252c-1.828,1.636-4.616,1.454-6.229-0.399
		c-1.613-1.854-1.441-4.683,0.388-6.316c1.826-1.635,4.614-1.455,6.229,0.4C43.928,37.789,43.754,40.619,41.928,42.252z"/>
	<path fill="none" stroke="#000000" stroke-width="2" stroke-miterlimit="10" d="M30.13,25.368c4.121-3.686,8.394-7.507,10.72-9.587
		c4.508-4.032,5.265-7.553,5.302-9.001C46.211,4.5,45.12,1,45.12,1L23.999,19.886L2.878,1c0,0-1.089,3.5-1.03,5.78
		c0.039,1.449,0.793,4.97,5.303,9.001c2.325,2.08,6.599,5.901,10.72,9.587l-3.785,3.384l5.362,6.168c0,0,1.873-1.676,4.551-4.069
		c2.681,2.394,4.553,4.069,4.553,4.069l5.363-6.168L30.13,25.368z M23.685,27.259c-1.109,0-2.007-0.915-2.007-2.044
		c0-1.13,0.898-2.045,2.007-2.045c1.108,0,2.007,0.915,2.007,2.045C25.691,26.344,24.793,27.259,23.685,27.259z"/>
</g>
</svg>
