<?xml version="1.0" encoding="utf-8"?>
<!-- Generator: Adobe Illustrator 16.0.0, SVG Export Plug-In . SVG Version: 6.00 Build 0)  -->
<!DOCTYPE svg PUBLIC "-//W3C//DTD SVG 1.1//EN" "http://www.w3.org/Graphics/SVG/1.1/DTD/svg11.dtd">
<svg version="1.1" id="Layer_1" xmlns="http://www.w3.org/2000/svg" xmlns:xlink="http://www.w3.org/1999/xlink" x="0px" y="0px"
	 width="48px" height="48px" viewBox="0 0 48 48" enable-background="new 0 0 48 48" xml:space="preserve">
<g>
	<path fill="none" stroke="#000000" stroke-width="2" stroke-linejoin="round" stroke-miterlimit="10" d="M25.911,1l-10.574,9.142
		c0,0,3.225,5.02-1.613,8.603C8.886,22.329,1,29.387,1,29.387v10.632V47l18.639-19.464c0,0,2.868-5.387,4.66-4.491l13.262-12.007
		C37.561,11.038,32.363,2.613,25.911,1z"/>
	<polyline fill="none" stroke="#000000" stroke-width="2" stroke-linejoin="round" stroke-miterlimit="10" points="32.664,18.093 
		29.862,23.016 37.561,33.241 40.205,26.346 31.353,16.659 	"/>
	<polyline fill="none" stroke="#000000" stroke-width="2" stroke-linejoin="round" stroke-miterlimit="10" points="32.237,18.259 
		38.066,16.002 47,22.609 40.205,26.346 	"/>
	
		<line fill="none" stroke="#000000" stroke-width="2" stroke-linejoin="round" stroke-miterlimit="10" x1="26.542" y1="5.865" x2="31.396" y2="11.115"/>
	
		<line fill="none" stroke="#000000" stroke-width="2" stroke-linejoin="round" stroke-miterlimit="10" x1="24.114" y1="7.596" x2="28.968" y2="12.846"/>
	
		<line fill="none" stroke="#000000" stroke-width="2" stroke-linejoin="round" stroke-miterlimit="10" x1="21.688" y1="9.329" x2="26.542" y2="14.58"/>
</g>
</svg>
