<?xml version="1.0" encoding="utf-8"?>
<!-- Generator: Adobe Illustrator 16.0.0, SVG Export Plug-In . SVG Version: 6.00 Build 0)  -->
<!DOCTYPE svg PUBLIC "-//W3C//DTD SVG 1.1//EN" "http://www.w3.org/Graphics/SVG/1.1/DTD/svg11.dtd">
<svg version="1.1" id="Layer_1" xmlns="http://www.w3.org/2000/svg" xmlns:xlink="http://www.w3.org/1999/xlink" x="0px" y="0px"
	 width="48px" height="48px" viewBox="0 0 48 48" enable-background="new 0 0 48 48" xml:space="preserve">
<g>
	<rect x="1" y="36.309" fill="none" stroke="#000000" stroke-width="2" stroke-miterlimit="10" width="46" height="4.893"/>
	<path fill="none" stroke="#000000" stroke-width="2" stroke-miterlimit="10" d="M44.954,32.713
		c0-11.573-9.381-20.954-20.954-20.954S3.046,21.14,3.046,32.713c0,0.08,0.005,0.157,0.005,0.236h41.897
		C44.95,32.87,44.954,32.793,44.954,32.713z"/>
	<path fill="none" stroke="#000000" stroke-width="2" stroke-miterlimit="10" d="M24,15.373c-7.549,0-13.959,4.872-16.26,11.645"/>
	<path fill="none" stroke="#000000" stroke-width="2" stroke-miterlimit="10" d="M20.646,12.098
		c-0.229-0.481-0.356-1.02-0.356-1.587c0-2.049,1.662-3.711,3.71-3.711s3.71,1.662,3.71,3.711c0,0.597-0.142,1.163-0.395,1.662"/>
</g>
</svg>
