<?xml version="1.0" encoding="utf-8"?>
<!-- Generator: Adobe Illustrator 16.0.0, SVG Export Plug-In . SVG Version: 6.00 Build 0)  -->
<!DOCTYPE svg PUBLIC "-//W3C//DTD SVG 1.1//EN" "http://www.w3.org/Graphics/SVG/1.1/DTD/svg11.dtd">
<svg version="1.1" id="Layer_1" xmlns="http://www.w3.org/2000/svg" xmlns:xlink="http://www.w3.org/1999/xlink" x="0px" y="0px"
	 width="48px" height="48px" viewBox="0 0 48 48" enable-background="new 0 0 48 48" xml:space="preserve">
<g>
	<g>
		<path fill="none" stroke="#000000" stroke-width="2" stroke-miterlimit="10" d="M47,31.41c0,3.85-3.15,7-7,7H8c-3.85,0-7-3.15-7-7
			V10.237c0-3.85,3.15-7,7-7h32c3.85,0,7,3.15,7,7V31.41z"/>
	</g>
	<g>
		<rect x="7.708" y="38.34" fill="none" stroke="#000000" stroke-width="2" stroke-miterlimit="10" width="5.507" height="6.424"/>
		<rect x="34.785" y="38.34" fill="none" stroke="#000000" stroke-width="2" stroke-miterlimit="10" width="5.508" height="6.424"/>
	</g>
	<circle fill="none" stroke="#000000" stroke-width="2" stroke-miterlimit="10" cx="13.904" cy="20.824" r="7.114"/>
	<g>
		<line fill="none" stroke="#000000" stroke-width="2" stroke-miterlimit="10" x1="29.278" y1="11.339" x2="41.669" y2="11.339"/>
		<line fill="none" stroke="#000000" stroke-width="2" stroke-miterlimit="10" x1="29.278" y1="16.081" x2="41.669" y2="16.081"/>
		<line fill="none" stroke="#000000" stroke-width="2" stroke-miterlimit="10" x1="29.278" y1="20.824" x2="41.669" y2="20.824"/>
		<line fill="none" stroke="#000000" stroke-width="2" stroke-miterlimit="10" x1="29.278" y1="25.564" x2="41.669" y2="25.564"/>
		<line fill="none" stroke="#000000" stroke-width="2" stroke-miterlimit="10" x1="29.278" y1="30.308" x2="41.669" y2="30.308"/>
	</g>
</g>
</svg>
