<?xml version="1.0" encoding="utf-8"?>
<!-- Generator: Adobe Illustrator 16.0.0, SVG Export Plug-In . SVG Version: 6.00 Build 0)  -->
<!DOCTYPE svg PUBLIC "-//W3C//DTD SVG 1.1//EN" "http://www.w3.org/Graphics/SVG/1.1/DTD/svg11.dtd">
<svg version="1.1" id="Layer_1" xmlns="http://www.w3.org/2000/svg" xmlns:xlink="http://www.w3.org/1999/xlink" x="0px" y="0px"
	 width="48px" height="48px" viewBox="0 0 48 48" enable-background="new 0 0 48 48" xml:space="preserve">
<g>
	<path fill="none" stroke="#000000" stroke-width="2" stroke-miterlimit="10" d="M1,25.509l1.696,10.655
		c0,3.265,2.672,5.936,5.936,5.936h30.736c3.264,0,5.937-2.671,5.937-5.936L47,25.509H1z"/>
	<g>
		<line fill="none" stroke="#000000" stroke-width="2" stroke-miterlimit="10" x1="2.181" y1="47" x2="4.532" y2="40.829"/>
		<line fill="none" stroke="#000000" stroke-width="2" stroke-miterlimit="10" x1="45.819" y1="47" x2="43.467" y2="40.829"/>
	</g>
	<g>
		<polyline fill="none" stroke="#000000" stroke-width="2" stroke-miterlimit="10" points="2.483,25.456 2.483,5.376 11.006,1.556 
					"/>
		<path fill="none" stroke="#000000" stroke-width="2" stroke-miterlimit="10" d="M16.001,2.657c0.48,1.423-0.688,3.102-2.611,3.751
			c-1.922,0.648-3.87,0.021-4.349-1.404c-0.48-1.42,0.69-3.101,2.611-3.749C13.574,0.607,15.522,1.236,16.001,2.657z"/>
	</g>
</g>
</svg>
