<?xml version="1.0" encoding="utf-8"?>
<!-- Generator: Adobe Illustrator 16.0.0, SVG Export Plug-In . SVG Version: 6.00 Build 0)  -->
<!DOCTYPE svg PUBLIC "-//W3C//DTD SVG 1.1//EN" "http://www.w3.org/Graphics/SVG/1.1/DTD/svg11.dtd">
<svg version="1.1" id="Layer_1" xmlns="http://www.w3.org/2000/svg" xmlns:xlink="http://www.w3.org/1999/xlink" x="0px" y="0px"
	 width="48px" height="48px" viewBox="0 0 48 48" enable-background="new 0 0 48 48" xml:space="preserve">
<g>
	
		<line fill="none" stroke="#000000" stroke-width="2" stroke-linejoin="round" stroke-miterlimit="10" x1="1" y1="4.53" x2="1" y2="43.47"/>
	<polyline fill="none" stroke="#000000" stroke-width="2" stroke-linejoin="round" stroke-miterlimit="10" points="1.663,27.255 
		47,27.255 47,43.47 	"/>
	
		<line fill="none" stroke="#000000" stroke-width="2" stroke-linejoin="round" stroke-miterlimit="10" x1="1" y1="33.697" x2="47" y2="33.697"/>
	<path fill="none" stroke="#000000" stroke-width="2" stroke-linejoin="round" stroke-miterlimit="10" d="M45.392,24.163
		c0-2.769-1.908-5.031-4.241-5.031H17.869c-2.332,0-4.24,2.263-4.24,5.031v3.092h31.763V24.163z"/>
	<path fill="none" stroke="#000000" stroke-width="2" stroke-linejoin="round" stroke-miterlimit="10" d="M11.314,23.191
		c0-2.242-1.819-4.06-4.064-4.06c-2.242,0-4.062,1.817-4.062,4.06c0,2.246,1.819,4.063,4.062,4.063
		C9.495,27.255,11.314,25.438,11.314,23.191z"/>
</g>
</svg>
