<?xml version="1.0" encoding="utf-8"?>
<!-- Generator: Adobe Illustrator 16.0.0, SVG Export Plug-In . SVG Version: 6.00 Build 0)  -->
<!DOCTYPE svg PUBLIC "-//W3C//DTD SVG 1.1//EN" "http://www.w3.org/Graphics/SVG/1.1/DTD/svg11.dtd">
<svg version="1.1" id="Layer_1" xmlns="http://www.w3.org/2000/svg" xmlns:xlink="http://www.w3.org/1999/xlink" x="0px" y="0px"
	 width="48px" height="48px" viewBox="0 0 48 48" enable-background="new 0 0 48 48" xml:space="preserve">
<g>
	
		<circle fill="none" stroke="#000000" stroke-width="2" stroke-linejoin="round" stroke-miterlimit="10" cx="24" cy="7.244" r="6.243"/>
	<path fill="none" stroke="#000000" stroke-width="2" stroke-linejoin="round" stroke-miterlimit="10" d="M26.574,13.039v13.199
		c0,1.28-1.047,2.329-2.327,2.329h-0.494c-1.28,0-2.329-1.049-2.329-2.329V13.039"/>
	<path fill="none" stroke="#000000" stroke-width="2" stroke-linejoin="round" stroke-miterlimit="10" d="M47,42.36
		c0,2.553-1.745,4.64-3.879,4.64H4.879C2.746,47,1,44.913,1,42.36c0-2.552,1.746-4.639,3.879-4.639h38.242
		C45.255,37.722,47,39.809,47,42.36z"/>
	<g>
		<path fill="none" stroke="#000000" stroke-width="2" stroke-linejoin="round" stroke-miterlimit="10" d="M4.807,37.722
			c0,0,0.417-8.85,7.009-8.85s7.356,0,7.356,0s0.634,3.401,4.828,3.401"/>
		<path fill="none" stroke="#000000" stroke-width="2" stroke-linejoin="round" stroke-miterlimit="10" d="M43.193,37.722
			c0,0-0.417-8.85-7.009-8.85c-6.593,0-7.356,0-7.356,0S28.193,32.273,24,32.273"/>
	</g>
</g>
</svg>
