<?xml version="1.0" encoding="utf-8"?>
<!-- Generator: Adobe Illustrator 16.0.0, SVG Export Plug-In . SVG Version: 6.00 Build 0)  -->
<!DOCTYPE svg PUBLIC "-//W3C//DTD SVG 1.1//EN" "http://www.w3.org/Graphics/SVG/1.1/DTD/svg11.dtd">
<svg version="1.1" id="Layer_1" xmlns="http://www.w3.org/2000/svg" xmlns:xlink="http://www.w3.org/1999/xlink" x="0px" y="0px"
	 width="48px" height="48px" viewBox="0 0 48 48" enable-background="new 0 0 48 48" xml:space="preserve">
<g>
	<path fill="none" stroke="#000000" stroke-width="2" stroke-miterlimit="10" d="M47,17.204v-3.137c0-2.768-2.265-5.031-5.031-5.031
		H6.031C3.264,9.035,1,11.298,1,14.066v3.137c3.451,0,6.248,2.798,6.248,6.25c0,3.45-2.797,6.248-6.248,6.248v4.232
		c0,2.767,2.264,5.031,5.031,5.031h35.938c2.767,0,5.031-2.265,5.031-5.031v-4.232c-3.45,0-6.248-2.798-6.248-6.248
		C40.752,20.002,43.55,17.204,47,17.204z M32.137,27.953c-1.926,0-3.656-0.496-4.863-1.284c-0.728,1.258-1.958,2.085-3.352,2.085
		c-1.366,0-2.573-0.797-3.306-2.012c-1.202,0.745-2.885,1.211-4.752,1.211c-3.648,0-6.605-1.771-6.605-3.953
		s2.957-3.953,6.605-3.953c1.867,0,3.551,0.466,4.752,1.211c0.733-1.215,1.939-2.012,3.306-2.012c1.395,0,2.625,0.828,3.352,2.085
		c1.209-0.786,2.938-1.284,4.863-1.284c3.647,0,6.606,1.771,6.606,3.953S35.784,27.953,32.137,27.953z"/>
</g>
</svg>
