<?xml version="1.0" encoding="utf-8"?>
<!-- Generator: Adobe Illustrator 16.0.0, SVG Export Plug-In . SVG Version: 6.00 Build 0)  -->
<!DOCTYPE svg PUBLIC "-//W3C//DTD SVG 1.1//EN" "http://www.w3.org/Graphics/SVG/1.1/DTD/svg11.dtd">
<svg version="1.1" id="Layer_1" xmlns="http://www.w3.org/2000/svg" xmlns:xlink="http://www.w3.org/1999/xlink" x="0px" y="0px"
	 width="48px" height="48px" viewBox="0 0 48 48" enable-background="new 0 0 48 48" xml:space="preserve">
<g>
	<g>
		<path fill="none" stroke="#000000" stroke-width="2" stroke-miterlimit="10" d="M44.002,22.226v23.841c0,0.55-0.45,1-1,1H5.881
			c-0.55,0-1-0.45-1-1V22.226"/>
	</g>
	<g>
		<path fill="none" stroke="#000000" stroke-width="2" stroke-miterlimit="10" d="M40.818,7.882l5.607,10.792
			c1.139,2.198,0.05,3.994-2.427,3.994h-6.935c-2.475,0-4.859-1.993-5.302-4.429l-1.794-9.92"/>
		<path fill="none" stroke="#000000" stroke-width="2" stroke-miterlimit="10" d="M29.969,8.318l1.794,9.92
			c0.442,2.436-1.222,4.429-3.698,4.429h-6.931c-2.475,0-4.184-2.002-3.799-4.445l1.559-9.889"/>
		<g>
			<path fill="none" stroke="#000000" stroke-width="2" stroke-miterlimit="10" d="M18.917,8.192l-2.049,12.994
				c-0.129,0.814-0.909,1.481-1.734,1.481H2.201c-0.825,0-1.2-0.605-0.833-1.344l6.71-13.532"/>
		</g>
	</g>
	<g>
		<path d="M39.519,2v4.756H9.275V2H39.519 M40.519,0H8.275c-0.55,0-1,0.45-1,1v6.756c0,0.55,0.45,1,1,1h32.244c0.55,0,1-0.45,1-1V1
			C41.519,0.45,41.068,0,40.519,0L40.519,0z"/>
	</g>
	<g>
		<path d="M30.635,28.568V46H18.243V28.568H30.635 M31.635,26.568H17.243c-0.55,0-1,0.45-1,1V47c0,0.55,0.45,1,1,1h14.392
			c0.55,0,1-0.45,1-1V27.568C32.635,27.019,32.185,26.568,31.635,26.568L31.635,26.568z"/>
	</g>
</g>
</svg>
