<?xml version="1.0" encoding="utf-8"?>
<!-- Generator: Adobe Illustrator 16.0.0, SVG Export Plug-In . SVG Version: 6.00 Build 0)  -->
<!DOCTYPE svg PUBLIC "-//W3C//DTD SVG 1.1//EN" "http://www.w3.org/Graphics/SVG/1.1/DTD/svg11.dtd">
<svg version="1.1" id="Layer_1" xmlns="http://www.w3.org/2000/svg" xmlns:xlink="http://www.w3.org/1999/xlink" x="0px" y="0px"
	 width="48px" height="48px" viewBox="0 0 48 48" enable-background="new 0 0 48 48" xml:space="preserve">
<g>
	<g>
		<path d="M23.998,5.281c0.266,0,0.441,0.074,0.497,0.113l17.138,11.948L6.365,17.338L23.501,5.394
			C23.557,5.355,23.732,5.281,23.998,5.281 M23.998,3.281c-0.595,0-1.189,0.157-1.64,0.472L1.641,18.194
			C0.738,18.823,0.9,19.337,2,19.338l44,0.005c0,0,0.001,0,0.002,0c1.098,0,1.26-0.515,0.357-1.144L25.639,3.753
			C25.188,3.438,24.592,3.281,23.998,3.281L23.998,3.281z"/>
	</g>
	<g>
		
			<line fill="none" stroke="#000000" stroke-width="2" stroke-linecap="round" stroke-miterlimit="10" x1="10.332" y1="18.766" x2="10.332" y2="45.391"/>
		
			<line fill="none" stroke="#000000" stroke-width="2" stroke-linecap="round" stroke-miterlimit="10" x1="23.998" y1="18.766" x2="23.998" y2="45.391"/>
		
			<line fill="none" stroke="#000000" stroke-width="2" stroke-linecap="round" stroke-miterlimit="10" x1="37.664" y1="18.766" x2="37.664" y2="45.391"/>
	</g>
	
		<line fill="none" stroke="#000000" stroke-width="2" stroke-linecap="round" stroke-miterlimit="10" x1="3.874" y1="45.391" x2="44.123" y2="45.391"/>
</g>
</svg>
