<?xml version="1.0" encoding="utf-8"?>
<!-- Generator: Adobe Illustrator 16.0.0, SVG Export Plug-In . SVG Version: 6.00 Build 0)  -->
<!DOCTYPE svg PUBLIC "-//W3C//DTD SVG 1.1//EN" "http://www.w3.org/Graphics/SVG/1.1/DTD/svg11.dtd">
<svg version="1.1" id="Layer_1" xmlns="http://www.w3.org/2000/svg" xmlns:xlink="http://www.w3.org/1999/xlink" x="0px" y="0px"
	 width="48px" height="48px" viewBox="0 0 48 48" enable-background="new 0 0 48 48" xml:space="preserve">
<g>
	<g>
		<path d="M13.309,10.548L13.309,10.548l21.551,0.001c2.482,0,4.465,1.42,4.692,2.694l4.727,26.643
			c0.249,1.401-0.09,2.74-0.953,3.77c-0.942,1.124-2.378,1.743-4.042,1.743L8.686,45.402c-1.662,0-3.091-0.617-4.026-1.737
			c-0.858-1.028-1.19-2.366-0.936-3.766L8.59,13.256C8.825,11.976,10.82,10.549,13.309,10.548 M13.308,8.548
			c-3.242,0.001-6.238,1.908-6.685,4.348L1.757,39.54c-0.765,4.203,2.33,7.862,6.929,7.862l30.598-0.004
			c4.596,0,7.71-3.657,6.965-7.861l-4.728-26.644c-0.435-2.438-3.422-4.344-6.661-4.344L13.308,8.548L13.308,8.548z"/>
	</g>
	<path fill="none" stroke="#000000" stroke-width="2" stroke-linecap="round" stroke-miterlimit="10" d="M18.025,13.504
		c0-6.687,0.531-12.104,6.059-12.104c5.146,0,6.06,5.417,6.06,12.104"/>
</g>
</svg>
