<?xml version="1.0" encoding="utf-8"?>
<!-- Generator: Adobe Illustrator 16.0.0, SVG Export Plug-In . SVG Version: 6.00 Build 0)  -->
<!DOCTYPE svg PUBLIC "-//W3C//DTD SVG 1.1//EN" "http://www.w3.org/Graphics/SVG/1.1/DTD/svg11.dtd">
<svg version="1.1" id="Layer_1" xmlns="http://www.w3.org/2000/svg" xmlns:xlink="http://www.w3.org/1999/xlink" x="0px" y="0px"
	 width="48px" height="48px" viewBox="0 0 48 48" enable-background="new 0 0 48 48" xml:space="preserve">
<g>
	<g>
		<path d="M46,12.421V45.9H2V12.421H46 M46,10.421H2c-1.1,0-2,0.9-2,2V45.9c0,1.1,0.9,2,2,2h44c1.1,0,2-0.9,2-2V12.421
			C48,11.321,47.1,10.421,46,10.421L46,10.421z"/>
	</g>
	<path fill="none" stroke="#000000" stroke-width="2" stroke-miterlimit="10" d="M12.747,12.038C12.747,5.963,17.786,1.04,24,1.04
		c6.217,0,11.256,4.923,11.256,10.998"/>
	<g>
		
			<line fill="none" stroke="#000000" stroke-width="2" stroke-linecap="round" stroke-miterlimit="10" x1="10.67" y1="23.905" x2="37.329" y2="23.905"/>
		
			<line fill="none" stroke="#000000" stroke-width="2" stroke-linecap="round" stroke-miterlimit="10" x1="10.67" y1="34.418" x2="37.329" y2="34.418"/>
	</g>
</g>
</svg>
