<?xml version="1.0" encoding="utf-8"?>
<!-- Generator: Adobe Illustrator 16.0.0, SVG Export Plug-In . SVG Version: 6.00 Build 0)  -->
<!DOCTYPE svg PUBLIC "-//W3C//DTD SVG 1.1//EN" "http://www.w3.org/Graphics/SVG/1.1/DTD/svg11.dtd">
<svg version="1.1" id="Layer_1" xmlns="http://www.w3.org/2000/svg" xmlns:xlink="http://www.w3.org/1999/xlink" x="0px" y="0px"
	 width="48px" height="48px" viewBox="0 0 48 48" enable-background="new 0 0 48 48" xml:space="preserve">
<g>
	<g>
		<path d="M45.559,10.617v34.985H2.441V10.617H45.559 M45.559,8.617H2.441c-1.1,0-2,0.9-2,2v34.985c0,1.1,0.9,2,2,2h43.118
			c1.1,0,2-0.9,2-2V10.617C47.559,9.517,46.658,8.617,45.559,8.617L45.559,8.617z"/>
	</g>
	<path fill="none" stroke="#000000" stroke-width="2" stroke-miterlimit="10" d="M12.951,10.561C12.951,5.611,17.897,1.6,24,1.6
		s11.049,4.012,11.049,8.961"/>
	<line fill="none" stroke="#000000" stroke-width="2" stroke-miterlimit="10" x1="2.964" y1="22.395" x2="45.038" y2="22.395"/>
	
		<line fill="none" stroke="#000000" stroke-width="2" stroke-linecap="round" stroke-miterlimit="10" x1="24" y1="18.985" x2="24" y2="29.475"/>
</g>
</svg>
