<?xml version="1.0" encoding="utf-8"?>
<!-- Generator: Adobe Illustrator 16.0.0, SVG Export Plug-In . SVG Version: 6.00 Build 0)  -->
<!DOCTYPE svg PUBLIC "-//W3C//DTD SVG 1.1//EN" "http://www.w3.org/Graphics/SVG/1.1/DTD/svg11.dtd">
<svg version="1.1" id="Layer_1" xmlns="http://www.w3.org/2000/svg" xmlns:xlink="http://www.w3.org/1999/xlink" x="0px" y="0px"
	 width="48px" height="48px" viewBox="0 0 48 48" enable-background="new 0 0 48 48" xml:space="preserve">
<g>
	<path fill="none" stroke="#000000" stroke-width="2" stroke-miterlimit="10" d="M44.399,19.246l-2.897,21.637
		c0,3.073-2.315,5.589-5.145,5.589H11.642c-2.833,0-5.146-2.516-5.146-5.589L3.597,19.246"/>
	<g>
		<path d="M46,10.23v8.82H2v-8.82H46 M46,8.23H2c-1.1,0-2,0.9-2,2v8.82c0,1.1,0.9,2,2,2h44c1.1,0,2-0.9,2-2v-8.82
			C48,9.13,47.1,8.23,46,8.23L46,8.23z"/>
	</g>
	<g>
		
			<line fill="none" stroke="#000000" stroke-width="2" stroke-linecap="round" stroke-miterlimit="10" x1="19.833" y1="1.528" x2="8.186" y2="9.326"/>
		
			<line fill="none" stroke="#000000" stroke-width="2" stroke-linecap="round" stroke-miterlimit="10" x1="28.159" y1="1.528" x2="39.809" y2="9.326"/>
	</g>
</g>
</svg>
