<?xml version="1.0" encoding="utf-8"?>
<!-- Generator: Adobe Illustrator 16.0.0, SVG Export Plug-In . SVG Version: 6.00 Build 0)  -->
<!DOCTYPE svg PUBLIC "-//W3C//DTD SVG 1.1//EN" "http://www.w3.org/Graphics/SVG/1.1/DTD/svg11.dtd">
<svg version="1.1" id="Layer_1" xmlns="http://www.w3.org/2000/svg" xmlns:xlink="http://www.w3.org/1999/xlink" x="0px" y="0px"
	 width="48px" height="48px" viewBox="0 0 48 48" enable-background="new 0 0 48 48" xml:space="preserve">
<g>
	<g>
		<path fill="none" stroke="#000000" stroke-width="2" stroke-miterlimit="10" d="M44.398,19.247l-2.896,21.635
			c0,3.073-2.314,5.591-5.146,5.591H11.643c-2.834,0-5.148-2.518-5.148-5.591L3.598,19.247"/>
		<g>
			<path d="M46,10.231v8.821H2v-8.821H46 M46,8.231H2c-1.1,0-2,0.9-2,2v8.821c0,1.1,0.9,2,2,2h44c1.1,0,2-0.9,2-2v-8.821
				C48,9.131,47.1,8.231,46,8.231L46,8.231z"/>
		</g>
		<g>
			
				<line fill="none" stroke="#000000" stroke-width="2" stroke-linecap="round" stroke-miterlimit="10" x1="19.834" y1="1.527" x2="8.186" y2="9.326"/>
			
				<line fill="none" stroke="#000000" stroke-width="2" stroke-linecap="round" stroke-miterlimit="10" x1="28.159" y1="1.527" x2="39.809" y2="9.326"/>
		</g>
	</g>
	<g>
		
			<line fill="none" stroke="#000000" stroke-width="2" stroke-linecap="round" stroke-miterlimit="10" x1="17.613" y1="25.952" x2="17.613" y2="39.784"/>
		
			<line fill="none" stroke="#000000" stroke-width="2" stroke-linecap="round" stroke-miterlimit="10" x1="30.381" y1="25.952" x2="30.381" y2="39.784"/>
	</g>
</g>
</svg>
