<?xml version="1.0" encoding="utf-8"?>
<!-- Generator: Adobe Illustrator 16.0.0, SVG Export Plug-In . SVG Version: 6.00 Build 0)  -->
<!DOCTYPE svg PUBLIC "-//W3C//DTD SVG 1.1//EN" "http://www.w3.org/Graphics/SVG/1.1/DTD/svg11.dtd">
<svg version="1.1" id="Layer_1" xmlns="http://www.w3.org/2000/svg" xmlns:xlink="http://www.w3.org/1999/xlink" x="0px" y="0px"
	 width="48px" height="48px" viewBox="0 0 48 48" enable-background="new 0 0 48 48" xml:space="preserve">
<g>
	<g>
		<path d="M44.952,28.838c0.193,0,0.362,0.007,0.509,0.018c-0.093,0.086-0.2,0.18-0.326,0.281L28.509,42.596
			C26.229,44.441,21.787,46,18.811,46H6.199C3.884,46,2,44.202,2,41.992v-9.146c0-2.211,1.884-4.009,4.199-4.009H44.952
			 M44.952,26.838H6.199C2.79,26.838,0,29.543,0,32.847v9.146C0,45.297,2.79,48,6.199,48h12.611c3.409,0,8.339-1.731,10.956-3.85
			l16.627-13.459C49.011,28.572,48.36,26.838,44.952,26.838L44.952,26.838z"/>
	</g>
	
		<polyline fill="none" stroke="#000000" stroke-width="2" stroke-linecap="round" stroke-linejoin="round" stroke-miterlimit="10" points="
		24.001,28.299 24.001,1.09 9.669,22.541 23.313,22.541 	"/>
</g>
</svg>
