<?xml version="1.0" encoding="utf-8"?>
<!-- Generator: Adobe Illustrator 16.0.0, SVG Export Plug-In . SVG Version: 6.00 Build 0)  -->
<!DOCTYPE svg PUBLIC "-//W3C//DTD SVG 1.1//EN" "http://www.w3.org/Graphics/SVG/1.1/DTD/svg11.dtd">
<svg version="1.1" id="Layer_1" xmlns="http://www.w3.org/2000/svg" xmlns:xlink="http://www.w3.org/1999/xlink" x="0px" y="0px"
	 width="48px" height="48px" viewBox="0 0 48 48" enable-background="new 0 0 48 48" xml:space="preserve">
<g>
	<path fill="none" stroke="#000000" stroke-width="2" stroke-linejoin="round" stroke-miterlimit="10" d="M41.224,7.681L33.665,1.52
		c-0.552-0.45-1.104-0.572-1.601-0.501C31.131,4.539,27.89,7.151,24,7.151c-3.889,0-7.131-2.612-8.063-6.132
		c-0.494-0.071-1.048,0.051-1.595,0.499L6.776,7.684c-1.28,1.04-1.962,3.18-1.512,4.746l0.811,2.833
		c0.45,1.569,2.062,2.309,3.583,1.647l3.898-1.861c1.52-0.662,4.307,7.791,4.05,9.403l-6.171,19.622
		C11.179,45.685,12.332,47,13.996,47h6.769c1.666,0,3.124,0,3.235,0c0.113,0,1.571,0,3.237,0h6.768c1.664,0,2.818-1.315,2.562-2.927
		l-6.165-19.622c-0.257-1.612,2.523-10.065,4.043-9.403l3.899,1.861c1.521,0.662,3.133-0.078,3.583-1.647l0.809-2.833
		C43.186,10.863,42.506,8.724,41.224,7.681z"/>
</g>
</svg>
