<?xml version="1.0" encoding="utf-8"?>
<!-- Generator: Adobe Illustrator 16.0.0, SVG Export Plug-In . SVG Version: 6.00 Build 0)  -->
<!DOCTYPE svg PUBLIC "-//W3C//DTD SVG 1.1//EN" "http://www.w3.org/Graphics/SVG/1.1/DTD/svg11.dtd">
<svg version="1.1" id="Layer_1" xmlns="http://www.w3.org/2000/svg" xmlns:xlink="http://www.w3.org/1999/xlink" x="0px" y="0px"
	 width="48px" height="48px" viewBox="0 0 48 48" enable-background="new 0 0 48 48" xml:space="preserve">
<g>
	<g>
		<path d="M37.664,2v44H27.44V16.533c0-1.654-1.346-3-3-3H23.56c-1.654,0-3,1.346-3,3V46H10.336V2H37.664 M38.664,0H9.336
			c-0.55,0-1,0.45-1,1v46c0,0.55,0.45,1,1,1H21.56c0.55,0,1-0.45,1-1V16.533c0-0.55,0.45-1,1-1h0.881c0.55,0,1,0.45,1,1V47
			c0,0.55,0.45,1,1,1h12.224c0.55,0,1-0.45,1-1V1C39.664,0.45,39.214,0,38.664,0L38.664,0z"/>
	</g>
	
		<line fill="none" stroke="#000000" stroke-width="2" stroke-linecap="round" stroke-linejoin="round" stroke-miterlimit="10" x1="24.001" y1="1.922" x2="24.001" y2="8.942"/>
	<g>
		<path fill="none" stroke="#000000" stroke-width="2" stroke-linecap="round" stroke-linejoin="round" stroke-miterlimit="10" d="
			M10.408,9.187c0,0,5.063-2.368,6.693-7.101"/>
		<path fill="none" stroke="#000000" stroke-width="2" stroke-linecap="round" stroke-linejoin="round" stroke-miterlimit="10" d="
			M37.592,9.187c0,0-5.063-2.368-6.69-7.101"/>
	</g>
</g>
</svg>
