<?xml version="1.0" encoding="utf-8"?>
<!-- Generator: Adobe Illustrator 16.0.0, SVG Export Plug-In . SVG Version: 6.00 Build 0)  -->
<!DOCTYPE svg PUBLIC "-//W3C//DTD SVG 1.1//EN" "http://www.w3.org/Graphics/SVG/1.1/DTD/svg11.dtd">
<svg version="1.1" id="Layer_1" xmlns="http://www.w3.org/2000/svg" xmlns:xlink="http://www.w3.org/1999/xlink" x="0px" y="0px"
	 width="48px" height="48px" viewBox="0 0 48 48" enable-background="new 0 0 48 48" xml:space="preserve">
<g>
	<path fill="none" stroke="#000000" stroke-width="2" stroke-linecap="round" stroke-linejoin="round" stroke-miterlimit="10" d="
		M36.028,1.599c-1.243-1.054-2.754-0.678-3.354,0.833c0,0-1.291,3.233-8.675,3.323c-7.386-0.09-8.676-3.323-8.676-3.323
		c-0.598-1.511-2.111-1.887-3.351-0.833L2.514,9.63c-1.24,1.059-1.763,3.155-1.156,4.669l1.105,2.779
		c0.607,1.51,2.375,2.354,3.934,1.874l0.792-0.241c1.555-0.483,2.833,0.454,2.833,2.08v23.252c0,1.626,1.335,2.957,2.965,2.957
		h7.892c1.636,0,3.034,0,3.118,0c0.085,0,1.489,0,3.121,0h7.892c1.63,0,2.966-1.331,2.966-2.957V20.791
		c0-1.626,1.276-2.563,2.837-2.08l0.786,0.241c1.561,0.479,3.326-0.362,3.933-1.874l1.111-2.779c0.607-1.514,0.084-3.61-1.156-4.669
		L36.028,1.599z"/>
</g>
</svg>
