<?xml version="1.0" encoding="utf-8"?>
<!-- Generator: Adobe Illustrator 16.0.0, SVG Export Plug-In . SVG Version: 6.00 Build 0)  -->
<!DOCTYPE svg PUBLIC "-//W3C//DTD SVG 1.1//EN" "http://www.w3.org/Graphics/SVG/1.1/DTD/svg11.dtd">
<svg version="1.1" id="Layer_1" xmlns="http://www.w3.org/2000/svg" xmlns:xlink="http://www.w3.org/1999/xlink" x="0px" y="0px"
	 width="48px" height="48px" viewBox="0 0 48 48" enable-background="new 0 0 48 48" xml:space="preserve">
<g>
	<path fill="none" stroke="#000000" stroke-width="2" stroke-linecap="round" stroke-linejoin="round" stroke-miterlimit="10" d="
		M28.369,16.336V8.333c0-1.618-1.325-2.941-2.938-2.941h-2.86c-1.62,0-2.942,1.323-2.942,2.941v8.003C9.018,18.38,1,27.701,1,38.909
		c0,0.361,0.039,0.715,0.055,1.077H6.83v3.774c0,1.615,1.323,2.94,2.94,2.94h28.459c1.615,0,2.941-1.325,2.941-2.94v-3.774h5.772
		C46.962,39.624,47,39.271,47,38.909C47,27.701,38.978,18.38,28.369,16.336z"/>
	<path fill="none" stroke="#000000" stroke-width="2" stroke-linecap="round" stroke-linejoin="round" stroke-miterlimit="10" d="
		M28.613,12.692c1.99,0,3.934-0.051,5.796-0.758c1.81-0.688,3.888-1.381,5.024-3.061"/>
	
		<circle fill="none" stroke="#000000" stroke-width="2" stroke-linecap="round" stroke-linejoin="round" stroke-miterlimit="10" cx="41.627" cy="5.404" r="4.106"/>
</g>
</svg>
