<?xml version="1.0" encoding="utf-8"?>
<!-- Generator: Adobe Illustrator 16.0.0, SVG Export Plug-In . SVG Version: 6.00 Build 0)  -->
<!DOCTYPE svg PUBLIC "-//W3C//DTD SVG 1.1//EN" "http://www.w3.org/Graphics/SVG/1.1/DTD/svg11.dtd">
<svg version="1.1" id="Layer_1" xmlns="http://www.w3.org/2000/svg" xmlns:xlink="http://www.w3.org/1999/xlink" x="0px" y="0px"
	 width="48px" height="48px" viewBox="0 0 48 48" enable-background="new 0 0 48 48" xml:space="preserve">
<g>
	<path fill="none" stroke="#000000" stroke-width="2" stroke-linecap="round" stroke-linejoin="round" stroke-miterlimit="10" d="
		M35.624,29.076H24H12.376c0,0-3.351,3.246-2.268,10.832c0,0,9.064-1.181,11.427,7.092H24h2.462
		c2.362-8.272,11.426-7.092,11.426-7.092C38.976,32.322,35.624,29.076,35.624,29.076z"/>
	<g>
		<path fill="none" stroke="#000000" stroke-width="2" stroke-linecap="round" stroke-linejoin="round" stroke-miterlimit="10" d="
			M22.262,16.613c0,2.911-2.981,5.27-6.646,5.27c-3.674,0-6.649-2.359-6.649-5.27c0-2.916,2.975-5.275,6.649-5.275
			C19.281,11.338,22.262,13.698,22.262,16.613z"/>
		<path fill="none" stroke="#000000" stroke-width="2" stroke-linecap="round" stroke-linejoin="round" stroke-miterlimit="10" d="
			M39.034,16.613c0,2.911-2.975,5.27-6.646,5.27c-3.671,0-6.65-2.359-6.65-5.27c0-2.916,2.979-5.275,6.65-5.275
			C36.06,11.338,39.034,13.698,39.034,16.613z"/>
	</g>
	
		<line fill="none" stroke="#000000" stroke-width="2" stroke-linecap="round" stroke-linejoin="round" stroke-miterlimit="10" x1="15.687" y1="21.883" x2="32.311" y2="21.883"/>
	<g>
		
			<line fill="none" stroke="#000000" stroke-width="2" stroke-linecap="round" stroke-linejoin="round" stroke-miterlimit="10" x1="15.613" y1="10.592" x2="15.613" y2="1"/>
		
			<line fill="none" stroke="#000000" stroke-width="2" stroke-linecap="round" stroke-linejoin="round" stroke-miterlimit="10" x1="32.388" y1="10.592" x2="32.388" y2="1"/>
	</g>
</g>
</svg>
