<?xml version="1.0" encoding="utf-8"?>
<!-- Generator: Adobe Illustrator 16.0.0, SVG Export Plug-In . SVG Version: 6.00 Build 0)  -->
<!DOCTYPE svg PUBLIC "-//W3C//DTD SVG 1.1//EN" "http://www.w3.org/Graphics/SVG/1.1/DTD/svg11.dtd">
<svg version="1.1" id="Layer_1" xmlns="http://www.w3.org/2000/svg" xmlns:xlink="http://www.w3.org/1999/xlink" x="0px" y="0px"
	 width="48px" height="48px" viewBox="0 0 48 48" enable-background="new 0 0 48 48" xml:space="preserve">
<g>
	<path fill="none" stroke="#000000" stroke-width="2" stroke-linecap="round" stroke-linejoin="round" stroke-miterlimit="10" d="
		M36.791,43.768c0,1.778-1.164,3.232-2.588,3.232H13.795c-1.422,0-2.587-1.454-2.587-3.232v-5.924c0-1.777,1.165-3.234,2.587-3.234
		h20.408c1.424,0,2.588,1.457,2.588,3.234V43.768z"/>
	<path fill="none" stroke="#000000" stroke-width="2" stroke-linecap="round" stroke-linejoin="round" stroke-miterlimit="10" d="
		M32.374,15.211c0-1.775-1.609-3.232-3.58-3.232h-8.945c-1.964,0-3.576,1.457-3.576,3.232V31.38c0,1.777,1.612,3.229,3.576,3.229
		h8.945c1.971,0,3.58-1.452,3.58-3.229V15.211z"/>
	
		<polyline fill="none" stroke="#000000" stroke-width="2" stroke-linecap="round" stroke-linejoin="round" stroke-miterlimit="10" points="
		20.9,11.406 20.9,5.715 27.741,1 27.741,11.406 	"/>
</g>
</svg>
