<?xml version="1.0" encoding="utf-8"?>
<!-- Generator: Adobe Illustrator 16.0.0, SVG Export Plug-In . SVG Version: 6.00 Build 0)  -->
<!DOCTYPE svg PUBLIC "-//W3C//DTD SVG 1.1//EN" "http://www.w3.org/Graphics/SVG/1.1/DTD/svg11.dtd">
<svg version="1.1" id="Layer_1" xmlns="http://www.w3.org/2000/svg" xmlns:xlink="http://www.w3.org/1999/xlink" x="0px" y="0px"
	 width="48px" height="48px" viewBox="0 0 48 48" enable-background="new 0 0 48 48" xml:space="preserve">
<g>
	<path fill="none" stroke="#000000" stroke-width="2" stroke-linecap="round" stroke-linejoin="round" stroke-miterlimit="10" d="
		M29.093,21.997h11.929c1.782,0,3.242,1.407,3.242,3.126v18.752c0,1.719-1.46,3.125-3.242,3.125H6.977
		c-1.783,0-3.241-1.406-3.241-3.125V25.123c0-1.719,1.458-3.126,3.241-3.126h11.856"/>
	<path fill="none" stroke="#000000" stroke-width="2" stroke-linecap="round" stroke-linejoin="round" stroke-miterlimit="10" d="
		M19.354,21.997H4.882c-1.782,0-3.242-1.406-3.242-3.126v-4.196c0-1.719,1.46-3.126,3.242-3.126H43.12
		c1.783,0,3.239,1.407,3.239,3.126v4.196c0,1.72-1.456,3.126-3.239,3.126H28.647"/>
	
		<rect x="19.691" y="11.549" fill="none" stroke="#000000" stroke-width="2" stroke-linecap="round" stroke-linejoin="round" stroke-miterlimit="10" width="8.62" height="35.451"/>
	<g>
		<path fill="none" stroke="#000000" stroke-width="2" stroke-linecap="round" stroke-linejoin="round" stroke-miterlimit="10" d="
			M24.164,10.248c-0.14-1.042,5.311-14.475,10.507-6.99c4.398,6.336-6.407,8.291-6.916,8.291"/>
		<path fill="none" stroke="#000000" stroke-width="2" stroke-linecap="round" stroke-linejoin="round" stroke-miterlimit="10" d="
			M23.836,10.248c0.14-1.042-5.31-14.475-10.505-6.99c-4.397,6.336,6.407,8.291,6.914,8.291"/>
	</g>
</g>
</svg>
