<?xml version="1.0" encoding="utf-8"?>
<!-- Generator: Adobe Illustrator 16.0.0, SVG Export Plug-In . SVG Version: 6.00 Build 0)  -->
<!DOCTYPE svg PUBLIC "-//W3C//DTD SVG 1.1//EN" "http://www.w3.org/Graphics/SVG/1.1/DTD/svg11.dtd">
<svg version="1.1" id="Layer_1" xmlns="http://www.w3.org/2000/svg" xmlns:xlink="http://www.w3.org/1999/xlink" x="0px" y="0px"
	 width="48px" height="48px" viewBox="0 0 48 48" enable-background="new 0 0 48 48" xml:space="preserve">
<g>
	<g>
		
			<line fill="none" stroke="#000000" stroke-width="2" stroke-linecap="round" stroke-linejoin="round" stroke-miterlimit="10" x1="24.688" y1="11.48" x2="17.229" y2="37.427"/>
		<path fill="none" stroke="#000000" stroke-width="2" stroke-linecap="round" stroke-linejoin="round" stroke-miterlimit="10" d="
			M17.152,37.703c-0.689,2.397,0.68,4.919,3.066,5.634c2.384,0.711,4.877-0.653,5.563-3.048c0.691-2.4-0.686-4.926-3.066-5.637
			C20.328,33.939,17.839,35.306,17.152,37.703z"/>
	</g>
	<g>
		
			<line fill="none" stroke="#000000" stroke-width="2" stroke-linecap="round" stroke-linejoin="round" stroke-miterlimit="10" x1="45.999" y1="16.125" x2="7.109" y2="27.326"/>
		<path fill="none" stroke="#000000" stroke-width="2" stroke-linecap="round" stroke-linejoin="round" stroke-miterlimit="10" d="
			M6.829,27.404c-2.397,0.691-4.921-0.676-5.639-3.057c-0.716-2.381,0.649-4.875,3.043-5.562c2.4-0.693,4.933,0.679,5.646,3.056
			C10.595,24.225,9.23,26.714,6.829,27.404z"/>
	</g>
	<g>
		
			<line fill="none" stroke="#000000" stroke-width="2" stroke-linecap="round" stroke-linejoin="round" stroke-miterlimit="10" x1="2.588" y1="4.475" x2="9.015" y2="4.475"/>
		
			<line fill="none" stroke="#000000" stroke-width="2" stroke-linecap="round" stroke-linejoin="round" stroke-miterlimit="10" x1="15.25" y1="4.475" x2="21.68" y2="4.475"/>
		
			<line fill="none" stroke="#000000" stroke-width="2" stroke-linecap="round" stroke-linejoin="round" stroke-miterlimit="10" x1="27.909" y1="4.475" x2="34.34" y2="4.475"/>
		
			<line fill="none" stroke="#000000" stroke-width="2" stroke-linecap="round" stroke-linejoin="round" stroke-miterlimit="10" x1="40.571" y1="4.475" x2="47" y2="4.475"/>
	</g>
</g>
</svg>
