<?xml version="1.0" encoding="utf-8"?>
<!-- Generator: Adobe Illustrator 16.0.0, SVG Export Plug-In . SVG Version: 6.00 Build 0)  -->
<!DOCTYPE svg PUBLIC "-//W3C//DTD SVG 1.1//EN" "http://www.w3.org/Graphics/SVG/1.1/DTD/svg11.dtd">
<svg version="1.1" id="Layer_1" xmlns="http://www.w3.org/2000/svg" xmlns:xlink="http://www.w3.org/1999/xlink" x="0px" y="0px"
	 width="48px" height="48px" viewBox="0 0 48 48" enable-background="new 0 0 48 48" xml:space="preserve">
<g>
	<g>
		<path fill="none" stroke="#000000" stroke-width="2" stroke-linecap="round" stroke-linejoin="round" stroke-miterlimit="10" d="
			M46.735,19.554L20.263,46.022c-1.361,1.361-3.658,1.293-5.108-0.154L2.141,32.853c-1.447-1.449-1.52-3.749-0.158-5.112
			L28.455,1.272c1.359-1.36,15.203,2.821,15.203,2.821S48.092,18.19,46.735,19.554z"/>
		<path fill="none" stroke="#000000" stroke-width="2" stroke-linecap="round" stroke-linejoin="round" stroke-miterlimit="10" d="
			M37.782,10.225c1.749,1.75,1.749,4.586-0.003,6.333c-1.749,1.747-4.579,1.747-6.331,0c-1.748-1.747-1.748-4.584,0-6.333
			C33.2,8.476,36.03,8.476,37.782,10.225z"/>
	</g>
	<g>
		<path d="M13.635,38.26c0.526-0.127,1.171-0.436,1.676-0.939c0.745-0.75,0.785-1.578,0.214-2.148
			c-0.528-0.526-1.131-0.526-2.188-0.063c-1.249,0.6-2.296,0.691-3.096-0.106c-0.881-0.878-0.805-2.267,0.294-3.363
			c0.582-0.581,1.136-0.866,1.529-0.974l0.391,0.798c-0.284,0.082-0.826,0.292-1.338,0.803c-0.775,0.773-0.606,1.529-0.225,1.917
			c0.532,0.527,1.138,0.439,2.218-0.038c1.328-0.586,2.276-0.609,3.107,0.219c0.872,0.875,0.979,2.274-0.354,3.611
			c-0.544,0.544-1.298,0.979-1.802,1.08L13.635,38.26z"/>
		<path d="M17.898,32.216l1.189,2.364l-0.753,0.754l-3.736-7.576l0.881-0.878l7.588,3.725l-0.786,0.779l-2.375-1.174L17.898,32.216z
			 M19.18,29.79l-2.183-1.074c-0.494-0.242-0.91-0.497-1.322-0.738l-0.019,0.017c0.247,0.422,0.503,0.854,0.738,1.311l1.079,2.188
			L19.18,29.79z"/>
		<path d="M18.247,24.111l0.727-0.729l5.044,5.045l2.419-2.418l0.611,0.612l-3.147,3.144L18.247,24.111z"/>
		<path d="M28.138,20.226l-2.193,2.198l2.038,2.04l2.449-2.45l0.61,0.611l-3.178,3.179l-5.66-5.655l3.059-3.055l0.613,0.616
			l-2.324,2.323l1.787,1.784l2.201-2.197L28.138,20.226z"/>
	</g>
</g>
</svg>
