<?xml version="1.0" encoding="utf-8"?>
<!-- Generator: Adobe Illustrator 16.0.0, SVG Export Plug-In . SVG Version: 6.00 Build 0)  -->
<!DOCTYPE svg PUBLIC "-//W3C//DTD SVG 1.1//EN" "http://www.w3.org/Graphics/SVG/1.1/DTD/svg11.dtd">
<svg version="1.1" id="Layer_1" xmlns="http://www.w3.org/2000/svg" xmlns:xlink="http://www.w3.org/1999/xlink" x="0px" y="0px"
	 width="48px" height="48px" viewBox="0 0 48 48" enable-background="new 0 0 48 48" xml:space="preserve">
<g>
	<g>
		<path fill="none" stroke="#000000" stroke-width="2" stroke-linecap="round" stroke-linejoin="round" stroke-miterlimit="10" d="
			M46.734,19.554L20.267,46.021c-1.364,1.362-3.661,1.294-5.111-0.154L2.142,32.851c-1.448-1.447-1.519-3.747-0.158-5.111
			L28.456,1.272c1.363-1.36,15.2,2.821,15.2,2.821S48.094,18.19,46.734,19.554z"/>
		
			<circle fill="none" stroke="#000000" stroke-width="2" stroke-linecap="round" stroke-linejoin="round" stroke-miterlimit="10" cx="34.617" cy="13.392" r="4.478"/>
	</g>
	<g>
		<path d="M17.447,28.236c1.533,1.535,1.487,3.1,0.547,4.039c-0.907,0.905-2.416,0.965-3.893-0.492
			c-1.456-1.457-1.478-3.063-0.514-4.027C14.604,26.739,16.059,26.852,17.447,28.236z M14.85,30.968
			c0.906,0.95,1.961,1.308,2.572,0.69c0.649-0.648,0.249-1.63-0.708-2.594c-0.887-0.884-1.886-1.365-2.57-0.682
			C13.532,28.997,13.934,30.051,14.85,30.968z M20.985,35.397L17.74,23.605l0.625-0.625l3.247,11.791L20.985,35.397z M25.191,26.515
			c1.529,1.533,1.484,3.098,0.556,4.026c-0.906,0.905-2.415,0.965-3.885-0.481c-1.463-1.464-1.484-3.075-0.52-4.039
			C22.356,25.004,23.804,25.128,25.191,26.515z M22.593,29.244c0.919,0.939,1.979,1.286,2.586,0.682
			c0.646-0.646,0.244-1.634-0.718-2.595c-0.882-0.885-1.88-1.366-2.561-0.685C21.287,27.264,21.674,28.326,22.593,29.244z"/>
	</g>
</g>
</svg>
