<?xml version="1.0" encoding="utf-8"?>
<!-- Generator: Adobe Illustrator 16.0.0, SVG Export Plug-In . SVG Version: 6.00 Build 0)  -->
<!DOCTYPE svg PUBLIC "-//W3C//DTD SVG 1.1//EN" "http://www.w3.org/Graphics/SVG/1.1/DTD/svg11.dtd">
<svg version="1.1" id="Layer_1" xmlns="http://www.w3.org/2000/svg" xmlns:xlink="http://www.w3.org/1999/xlink" x="0px" y="0px"
	 width="48px" height="48px" viewBox="0 0 48 48" enable-background="new 0 0 48 48" xml:space="preserve">
<g>
	<g>
		<g>
			<path fill="none" stroke="#000000" stroke-width="2" stroke-miterlimit="10" d="M47,42.094c0,1.1-0.9,2-2,2H3c-1.1,0-2-0.9-2-2
				V19.995c0-1.1,0.9-2,2-2h42c1.1,0,2,0.9,2,2V42.094z"/>
		</g>
		<path fill="none" stroke="#000000" stroke-width="2" stroke-miterlimit="10" d="M7.631,17.995L20.118,5.507
			c2.135-2.136,5.631-2.136,7.766,0.001L40.37,17.995"/>
	</g>
	<g>
		<path d="M15.624,30.989c0,3.784-2.295,5.79-5.106,5.79c-2.904,0-4.938-2.249-4.938-5.579c0-3.49,2.165-5.774,5.105-5.774
			C13.687,25.426,15.624,27.727,15.624,30.989z M7.095,31.168c0,2.35,1.269,4.454,3.507,4.454c2.249,0,3.525-2.069,3.525-4.569
			c0-2.185-1.146-4.469-3.508-4.469C8.269,26.584,7.095,28.754,7.095,31.168z"/>
		<path d="M17.468,25.737c0.687-0.114,1.581-0.214,2.727-0.214c1.403,0,2.428,0.327,3.083,0.915
			c0.603,0.521,0.961,1.322,0.961,2.299c0,0.996-0.293,1.779-0.848,2.349c-0.75,0.8-1.974,1.208-3.365,1.208
			c-0.421,0-0.81-0.018-1.139-0.098v4.404h-1.419V25.737z M18.887,31.038c0.311,0.08,0.705,0.114,1.177,0.114
			c1.711,0,2.754-0.833,2.754-2.35c0-1.452-1.025-2.153-2.595-2.153c-0.619,0-1.091,0.051-1.336,0.115V31.038z"/>
		<path d="M31.84,31.447h-4.278v3.963h4.768v1.19h-6.182V25.605h5.937v1.191h-4.522v3.474h4.278V31.447z"/>
		<path d="M34.173,36.601V25.605h1.544l3.526,5.563c0.817,1.288,1.45,2.446,1.974,3.572l0.03-0.017
			c-0.132-1.466-0.161-2.807-0.161-4.517v-4.602h1.337v10.995h-1.432l-3.497-5.58c-0.764-1.223-1.495-2.478-2.051-3.67l-0.049,0.017
			c0.078,1.387,0.114,2.708,0.114,4.535v4.698H34.173z"/>
	</g>
</g>
</svg>
