<?xml version="1.0" encoding="utf-8"?>
<!-- Generator: Adobe Illustrator 16.0.0, SVG Export Plug-In . SVG Version: 6.00 Build 0)  -->
<!DOCTYPE svg PUBLIC "-//W3C//DTD SVG 1.1//EN" "http://www.w3.org/Graphics/SVG/1.1/DTD/svg11.dtd">
<svg version="1.1" id="Layer_1" xmlns="http://www.w3.org/2000/svg" xmlns:xlink="http://www.w3.org/1999/xlink" x="0px" y="0px"
	 width="48px" height="48px" viewBox="0 0 48 48" enable-background="new 0 0 48 48" xml:space="preserve">
<g>
	<g>
		<g>
			<path fill="none" stroke="#000000" stroke-width="2" stroke-miterlimit="10" d="M47,42.093c0,1.1-0.9,2-2,2H3c-1.1,0-2-0.9-2-2
				V19.994c0-1.1,0.9-2,2-2h42c1.1,0,2,0.9,2,2V42.093z"/>
		</g>
		<path fill="none" stroke="#000000" stroke-width="2" stroke-miterlimit="10" d="M7.631,17.994L20.115,5.508
			c2.136-2.135,5.632-2.135,7.767,0.001l12.485,12.484"/>
	</g>
	<g>
		<path d="M12.826,35.278c-0.452,0.227-1.348,0.449-2.5,0.449c-2.667,0-4.67-1.684-4.67-4.781c0-2.962,2.004-4.968,4.94-4.968
			c1.175,0,1.92,0.253,2.243,0.42l-0.292,0.997c-0.465-0.225-1.128-0.394-1.909-0.394c-2.22,0-3.694,1.417-3.694,3.899
			c0,2.315,1.336,3.802,3.633,3.802c0.747,0,1.505-0.152,1.993-0.392L12.826,35.278z"/>
		<path d="M14.359,26.134h1.223v8.43h4.04v1.024h-5.263V26.134z"/>
		<path d="M28.516,30.761c0,3.258-1.981,4.98-4.391,4.98c-2.498,0-4.252-1.936-4.252-4.795c0-3.003,1.866-4.968,4.39-4.968
			C26.844,25.979,28.516,27.957,28.516,30.761z M21.178,30.916c0,2.019,1.097,3.83,3.019,3.83c1.932,0,3.029-1.781,3.029-3.928
			c0-1.881-0.983-3.843-3.02-3.843C22.187,26.976,21.178,28.84,21.178,30.916z"/>
		<path d="M29.941,34.101c0.543,0.338,1.342,0.618,2.189,0.618c1.246,0,1.974-0.66,1.974-1.614c0-0.884-0.502-1.39-1.776-1.879
			c-1.545-0.548-2.5-1.347-2.5-2.681c0-1.474,1.224-2.566,3.061-2.566c0.965,0,1.662,0.225,2.088,0.462l-0.335,0.997
			c-0.311-0.17-0.943-0.449-1.795-0.449c-1.294,0-1.783,0.771-1.783,1.416c0,0.886,0.572,1.319,1.878,1.825
			c1.6,0.617,2.411,1.388,2.411,2.777c0,1.457-1.081,2.721-3.312,2.721c-0.907,0-1.902-0.267-2.41-0.602L29.941,34.101z"/>
		<path d="M41.926,31.155h-3.674v3.408h4.09v1.024h-5.313v-9.454h5.106v1.022h-3.884v2.986h3.674V31.155z"/>
	</g>
</g>
</svg>
