<?xml version="1.0" encoding="utf-8"?>
<!-- Generator: Adobe Illustrator 16.0.0, SVG Export Plug-In . SVG Version: 6.00 Build 0)  -->
<!DOCTYPE svg PUBLIC "-//W3C//DTD SVG 1.1//EN" "http://www.w3.org/Graphics/SVG/1.1/DTD/svg11.dtd">
<svg version="1.1" id="Layer_1" xmlns="http://www.w3.org/2000/svg" xmlns:xlink="http://www.w3.org/1999/xlink" x="0px" y="0px"
	 width="48px" height="48px" viewBox="0 0 48 48" enable-background="new 0 0 48 48" xml:space="preserve">
<g>
	<polygon fill="none" stroke="#000000" stroke-width="2" stroke-linejoin="round" stroke-miterlimit="10" points="24,1.232 
		28.912,7.746 36.563,4.922 37.175,13.057 45.143,14.814 41.25,21.989 47,27.779 39.853,31.712 41.56,39.688 33.422,39.131 
		30.55,46.768 24,41.901 17.453,46.768 14.582,39.131 6.443,39.688 8.15,31.712 1,27.779 6.753,21.989 2.863,14.814 10.828,13.057 
		11.439,4.922 19.087,7.746 	"/>
	<g>
		<path d="M21.794,19.339c0,4.359-2.289,6.523-4.966,6.523c-2.574,0-4.803-2.068-4.832-6.236c0-4.137,2.258-6.458,4.994-6.458
			C19.885,13.167,21.794,15.393,21.794,19.339z M14.222,19.53c-0.067,2.642,0.923,4.646,2.672,4.646
			c1.845,0,2.672-1.972,2.672-4.709c0-2.513-0.73-4.614-2.672-4.614C15.146,14.853,14.222,16.922,14.222,19.53z M16.639,34.547
			l12.155-21.379h1.782L18.421,34.547H16.639z M35.251,27.898c0,4.359-2.29,6.523-4.93,6.523c-2.577,0-4.803-2.068-4.837-6.205
			c0-4.168,2.26-6.49,4.996-6.49C33.378,21.727,35.251,23.953,35.251,27.898z M27.681,28.09c-0.031,2.641,0.988,4.646,2.704,4.646
			c1.847,0,2.672-1.973,2.672-4.709c0-2.512-0.73-4.615-2.672-4.615C28.635,23.412,27.681,25.48,27.681,28.09z"/>
	</g>
</g>
</svg>
