<?xml version="1.0" encoding="utf-8"?>
<!-- Generator: Adobe Illustrator 16.0.0, SVG Export Plug-In . SVG Version: 6.00 Build 0)  -->
<!DOCTYPE svg PUBLIC "-//W3C//DTD SVG 1.1//EN" "http://www.w3.org/Graphics/SVG/1.1/DTD/svg11.dtd">
<svg version="1.1" id="Layer_1" xmlns="http://www.w3.org/2000/svg" xmlns:xlink="http://www.w3.org/1999/xlink" x="0px" y="0px"
	 width="48px" height="48px" viewBox="0 0 48 48" enable-background="new 0 0 48 48" xml:space="preserve">
<g>
	<path fill="none" stroke="#000000" stroke-width="2" stroke-miterlimit="10" d="M43.06,9.865v30.876
		c0,3.443-2.818,6.259-6.259,6.259h-25.6c-3.442,0-6.259-2.815-6.259-6.259V9.865"/>
	<g>
		<path fill="none" stroke="#000000" stroke-width="2" stroke-miterlimit="10" d="M46.783,8.865c0,0.55-0.45,1-1,1H2.217
			c-0.55,0-1-0.45-1-1V2c0-0.55,0.45-1,1-1h43.566c0.55,0,1,0.45,1,1V8.865z"/>
	</g>
	<g>
		<path fill="none" stroke="#000000" stroke-width="2" stroke-miterlimit="10" d="M37.082,28.02c0,0.55-0.45,1-1,1H11.916
			c-0.55,0-1-0.45-1-1v-8.038c0-0.55,0.45-1,1-1h24.166c0.55,0,1,0.45,1,1V28.02z"/>
	</g>
</g>
</svg>
