<?xml version="1.0" encoding="utf-8"?>
<!-- Generator: Adobe Illustrator 16.0.0, SVG Export Plug-In . SVG Version: 6.00 Build 0)  -->
<!DOCTYPE svg PUBLIC "-//W3C//DTD SVG 1.1//EN" "http://www.w3.org/Graphics/SVG/1.1/DTD/svg11.dtd">
<svg version="1.1" id="Layer_1" xmlns="http://www.w3.org/2000/svg" xmlns:xlink="http://www.w3.org/1999/xlink" x="0px" y="0px"
	 width="48px" height="48px" viewBox="0 0 48 48" enable-background="new 0 0 48 48" xml:space="preserve">
<g>
	<path fill="none" stroke="#000000" stroke-width="2" stroke-linejoin="round" stroke-miterlimit="10" d="M7.165,28.12
		c0,0-4.205,4.765-5.575,8.842c-1.669,4.966,0,9.119,7.655,4.975c13.941-7.541,27.44-18.438,34.238-26.951
		C45.526,12.43,54.708-3.73,31.589,9.539c0,0-0.394,6.179,1.842,9.832c0,0-5.104-1.746-6.498-6.643l-5.812,4.219
		c0,0,0.195,5.262,3.042,9.152c0,0-6.031-2.034-6.97-6.301l-7.117,6.095c0,0-0.274,4.87,6.032,6.289
		C16.108,32.182,8.061,34.577,7.165,28.12z"/>
</g>
</svg>
