<?xml version="1.0" encoding="utf-8"?>
<!-- Generator: Adobe Illustrator 16.0.0, SVG Export Plug-In . SVG Version: 6.00 Build 0)  -->
<!DOCTYPE svg PUBLIC "-//W3C//DTD SVG 1.1//EN" "http://www.w3.org/Graphics/SVG/1.1/DTD/svg11.dtd">
<svg version="1.1" id="Layer_1" xmlns="http://www.w3.org/2000/svg" xmlns:xlink="http://www.w3.org/1999/xlink" x="0px" y="0px"
	 width="48px" height="48px" viewBox="0 0 48 48" enable-background="new 0 0 48 48" xml:space="preserve">
<g>
	<path fill="none" stroke="#000000" stroke-width="2" stroke-linecap="round" stroke-miterlimit="10" d="M47,38.744
		c0,3.357-2.745,6.104-6.102,6.104H7.107C3.75,44.849,1,42.102,1,38.744V20.113c0-3.356,2.75-6.104,6.107-6.104h33.791
		c3.356,0,6.102,2.748,6.102,6.104V38.744z"/>
	<path fill="none" stroke="#000000" stroke-width="2" stroke-linecap="round" stroke-miterlimit="10" d="M4.837,14.455L31.089,3.563
		c0,0,5.059-1.928,6.447,2.568c1.5,4.87,2.52,7.879,2.52,7.879"/>
	<path fill="none" stroke="#000000" stroke-width="2" stroke-linecap="round" stroke-miterlimit="10" d="M41.594,29.431
		c0,2.125-1.722,3.851-3.851,3.851c-2.126,0-3.852-1.726-3.852-3.851c0-2.13,1.726-3.852,3.852-3.852
		C39.872,25.579,41.594,27.301,41.594,29.431z"/>
</g>
</svg>
