<?xml version="1.0" encoding="utf-8"?>
<!-- Generator: Adobe Illustrator 16.0.0, SVG Export Plug-In . SVG Version: 6.00 Build 0)  -->
<!DOCTYPE svg PUBLIC "-//W3C//DTD SVG 1.1//EN" "http://www.w3.org/Graphics/SVG/1.1/DTD/svg11.dtd">
<svg version="1.1" id="Layer_1" xmlns="http://www.w3.org/2000/svg" xmlns:xlink="http://www.w3.org/1999/xlink" x="0px" y="0px"
	 width="48px" height="48px" viewBox="0 0 48 48" enable-background="new 0 0 48 48" xml:space="preserve">
<g>
	<path fill="none" stroke="#000000" stroke-width="2" stroke-linecap="round" stroke-miterlimit="10" d="M47,37.855
		c0,3.359-2.749,6.104-6.106,6.104H7.102C3.749,43.959,1,41.215,1,37.855V19.224c0-3.357,2.749-6.104,6.102-6.104h33.792
		c3.357,0,6.106,2.748,6.106,6.104V37.855z"/>
	<path fill="none" stroke="#000000" stroke-width="2" stroke-linecap="round" stroke-miterlimit="10" d="M20.372,13.119l9.679-7.798
		c0,0,4.313-3.275,6.908,0.651c2.808,4.253,4.635,6.854,4.635,6.854"/>
	<path fill="none" stroke="#000000" stroke-width="2" stroke-linecap="round" stroke-miterlimit="10" d="M5.405,13.119l9.682-7.798
		c0,0,4.313-3.275,6.906,0.651c0.979,1.479,1.833,2.758,2.538,3.796"/>
	<path fill="none" stroke="#000000" stroke-width="2" stroke-linecap="round" stroke-miterlimit="10" d="M41.594,28.541
		c0,2.124-1.725,3.851-3.854,3.851c-2.121,0-3.85-1.727-3.85-3.851c0-2.13,1.729-3.852,3.85-3.852
		C39.869,24.689,41.594,26.411,41.594,28.541z"/>
</g>
</svg>
