<?xml version="1.0" encoding="utf-8"?>
<!-- Generator: Adobe Illustrator 16.0.0, SVG Export Plug-In . SVG Version: 6.00 Build 0)  -->
<!DOCTYPE svg PUBLIC "-//W3C//DTD SVG 1.1//EN" "http://www.w3.org/Graphics/SVG/1.1/DTD/svg11.dtd">
<svg version="1.1" id="Layer_1" xmlns="http://www.w3.org/2000/svg" xmlns:xlink="http://www.w3.org/1999/xlink" x="0px" y="0px"
	 width="48px" height="48px" viewBox="0 0 48 48" enable-background="new 0 0 48 48" xml:space="preserve">
<g>
	<g>
		<path fill="none" stroke="#000000" stroke-width="2" stroke-linecap="round" stroke-miterlimit="10" d="M47,36.869
			c0,3.358-2.749,6.105-6.109,6.105H7.104C3.751,42.975,1,40.228,1,36.869V7.557c0-3.359,2.751-6.104,6.104-6.104h33.787
			c3.36,0,6.109,2.746,6.109,6.104V36.869z"/>
		<path fill="none" stroke="#000000" stroke-width="2" stroke-linecap="round" stroke-miterlimit="10" d="M40.166,22.213
			c0,2.125-1.725,3.85-3.853,3.85s-3.85-1.725-3.85-3.85c0-2.13,1.722-3.852,3.85-3.852S40.166,20.083,40.166,22.213z"/>
		<g>
			
				<line fill="none" stroke="#000000" stroke-width="2" stroke-linecap="round" stroke-miterlimit="10" x1="10.2" y1="8.3" x2="10.2" y2="17.7"/>
			
				<line fill="none" stroke="#000000" stroke-width="2" stroke-linecap="round" stroke-miterlimit="10" x1="10.2" y1="26.727" x2="10.2" y2="36.126"/>
		</g>
	</g>
	<g>
		
			<line fill="none" stroke="#000000" stroke-width="2" stroke-linecap="round" stroke-miterlimit="10" x1="11.341" y1="42.975" x2="11.341" y2="46.548"/>
		
			<line fill="none" stroke="#000000" stroke-width="2" stroke-linecap="round" stroke-miterlimit="10" x1="36.658" y1="42.975" x2="36.658" y2="46.548"/>
	</g>
</g>
</svg>
