<?xml version="1.0" encoding="utf-8"?>
<!-- Generator: Adobe Illustrator 16.0.0, SVG Export Plug-In . SVG Version: 6.00 Build 0)  -->
<!DOCTYPE svg PUBLIC "-//W3C//DTD SVG 1.1//EN" "http://www.w3.org/Graphics/SVG/1.1/DTD/svg11.dtd">
<svg version="1.1" id="Layer_1" xmlns="http://www.w3.org/2000/svg" xmlns:xlink="http://www.w3.org/1999/xlink" x="0px" y="0px"
	 width="48px" height="48px" viewBox="0 0 48 48" enable-background="new 0 0 48 48" xml:space="preserve">
<g>
	<path fill="none" stroke="#000000" stroke-width="2" stroke-linecap="round" stroke-miterlimit="10" d="M10.207,14.322H7.203
		C3.792,14.322,1,11.532,1,8.119V7.566c0-3.412,2.792-6.203,6.203-6.203h33.594c3.41,0,6.203,2.791,6.203,6.203v0.553
		c0,3.413-2.793,6.203-6.203,6.203h-2.525"/>
	<g>
		<path fill="none" stroke="#000000" stroke-width="2" stroke-linecap="round" stroke-miterlimit="10" d="M37.791,44.637
			c0,1.1-0.9,2-2,2H12.203c-1.1,0-2-0.9-2-2V8.577c0-1.1,0.9-2,2-2h23.588c1.1,0,2,0.9,2,2V44.637z"/>
	</g>
	
		<line fill="none" stroke="#000000" stroke-width="2" stroke-linecap="round" stroke-miterlimit="10" x1="26.192" y1="10.842" x2="26.192" y2="42.693"/>
</g>
</svg>
