<?xml version="1.0" encoding="utf-8"?>
<!-- Generator: Adobe Illustrator 16.0.0, SVG Export Plug-In . SVG Version: 6.00 Build 0)  -->
<!DOCTYPE svg PUBLIC "-//W3C//DTD SVG 1.1//EN" "http://www.w3.org/Graphics/SVG/1.1/DTD/svg11.dtd">
<svg version="1.1" id="Layer_1" xmlns="http://www.w3.org/2000/svg" xmlns:xlink="http://www.w3.org/1999/xlink" x="0px" y="0px"
	 width="48px" height="48px" viewBox="0 0 48 48" enable-background="new 0 0 48 48" xml:space="preserve">
<g>
	<path fill="none" stroke="#000000" stroke-width="2" stroke-linecap="round" stroke-miterlimit="10" d="M10.205,14.324H7.2
		c-3.408,0-6.2-2.792-6.2-6.204V7.567c0-3.413,2.792-6.203,6.2-6.203h33.596c3.411,0,6.204,2.79,6.204,6.203V8.12
		c0,3.412-2.793,6.204-6.204,6.204h-2.525"/>
	<g>
		<path fill="none" stroke="#000000" stroke-width="2" stroke-linecap="round" stroke-miterlimit="10" d="M37.793,44.636
			c0,1.1-0.9,2-2,2H12.205c-1.1,0-2-0.9-2-2V8.578c0-1.1,0.9-2,2-2h23.588c1.1,0,2,0.9,2,2V44.636z"/>
	</g>
	<path fill="none" stroke="#000000" stroke-width="2" stroke-linecap="round" stroke-miterlimit="10" d="M30.901,13.476
		c0,3.812-3.093,6.899-6.899,6.899c-3.814,0-6.901-3.087-6.901-6.899c0-3.81,3.087-6.898,6.901-6.898
		C27.809,6.578,30.901,9.666,30.901,13.476z"/>
</g>
</svg>
