<?xml version="1.0" encoding="utf-8"?>
<!-- Generator: Adobe Illustrator 16.0.0, SVG Export Plug-In . SVG Version: 6.00 Build 0)  -->
<!DOCTYPE svg PUBLIC "-//W3C//DTD SVG 1.1//EN" "http://www.w3.org/Graphics/SVG/1.1/DTD/svg11.dtd">
<svg version="1.1" id="Layer_1" xmlns="http://www.w3.org/2000/svg" xmlns:xlink="http://www.w3.org/1999/xlink" x="0px" y="0px"
	 width="48px" height="48px" viewBox="0 0 48 48" enable-background="new 0 0 48 48" xml:space="preserve">
<g>
	<g>
		
			<line fill="none" stroke="#000000" stroke-width="2" stroke-linecap="round" stroke-miterlimit="10" x1="11.229" y1="31.933" x2="23.816" y2="40.636"/>
		
			<polyline fill="none" stroke="#000000" stroke-width="2" stroke-linecap="round" stroke-linejoin="round" stroke-miterlimit="10" points="
			39.563,39.271 22.47,47 6.185,35.333 2.051,35.333 		"/>
	</g>
	<g>
		<path fill="none" stroke="#000000" stroke-width="2" stroke-linecap="round" stroke-linejoin="round" stroke-miterlimit="10" d="
			M26.733,22.98c-0.284,3.322-3.206,5.785-6.534,5.505c-3.32-0.287-5.784-3.212-5.5-6.538c0.284-3.32,3.208-5.784,6.533-5.501
			C24.552,16.732,27.021,19.656,26.733,22.98z"/>
		<path fill="none" stroke="#000000" stroke-width="2" stroke-linecap="round" stroke-linejoin="round" stroke-miterlimit="10" d="
			M45.927,24.622c-0.279,3.321-3.201,5.789-6.527,5.502c-3.326-0.284-5.788-3.208-5.505-6.533c0.283-3.326,3.211-5.788,6.533-5.504
			C43.755,18.373,46.213,21.295,45.927,24.622z"/>
		<path fill="none" stroke="#000000" stroke-width="2" stroke-linecap="round" stroke-linejoin="round" stroke-miterlimit="10" d="
			M37.841,7.556c-0.284,3.322-3.206,5.788-6.534,5.502c-3.322-0.284-5.784-3.21-5.499-6.531c0.282-3.326,3.208-5.787,6.528-5.504
			C35.662,1.308,38.131,4.229,37.841,7.556z"/>
	</g>
</g>
</svg>
