<?xml version="1.0" encoding="utf-8"?>
<!-- Generator: Adobe Illustrator 16.0.0, SVG Export Plug-In . SVG Version: 6.00 Build 0)  -->
<!DOCTYPE svg PUBLIC "-//W3C//DTD SVG 1.1//EN" "http://www.w3.org/Graphics/SVG/1.1/DTD/svg11.dtd">
<svg version="1.1" id="Layer_1" xmlns="http://www.w3.org/2000/svg" xmlns:xlink="http://www.w3.org/1999/xlink" x="0px" y="0px"
	 width="48px" height="48px" viewBox="0 0 48 48" enable-background="new 0 0 48 48" xml:space="preserve">
<g>
	<g>
		
			<polygon fill="none" stroke="#000000" stroke-width="2" stroke-linecap="round" stroke-linejoin="round" stroke-miterlimit="10" points="
			13.739,1 34.267,1 28.456,10.812 18.901,10.812 		"/>
		<path fill="none" stroke="#000000" stroke-width="2" stroke-linecap="round" stroke-linejoin="round" stroke-miterlimit="10" d="
			M21.571,15.071c2.135,0,5.697-0.602,7.681,0.003c1.548,0.472,3.03,2.509,3.962,3.608c2.588,3.053,4.484,6.499,6.314,9.917
			c1.544,2.904,3.155,5.759,3.934,8.899c0.695,2.757-0.575,6.918-3.739,8.092c-2.88,1.07-6.687,1.242-10.02,1.372
			c-4.927,0.192-9.618-0.399-14.536-0.39c-3.229,0-9.159-0.623-10.384-3.838c-0.992-2.59-0.058-6.818,0.681-9.318
			c0.538-1.83,1.457-3.495,2.292-5.215c0.684-1.424,1.079-2.883,1.814-4.233c0.794-1.449,2.027-2.67,2.903-4.116
			c0.982-1.63,2.533-4.35,4.705-4.781C18.477,14.806,20.23,15.071,21.571,15.071z"/>
	</g>
	<path d="M25.594,37.959c-2.999,0-5.122-1.337-6.198-3.57h8.298v-1.622h-8.85c-0.148-0.668-0.25-1.367-0.25-2.136
		c0-0.543,0.046-1.052,0.117-1.544h8.984v-1.623h-8.597c0.989-2.803,3.394-4.353,6.611-4.353c1.51,0,2.783,0.327,3.676,0.759
		l0.567-1.92c-0.619-0.323-2.056-0.81-4.327-0.81c-4.488,0-7.815,2.462-9.008,6.324h-2.876v1.623h2.507
		c-0.076,0.527-0.144,1.061-0.144,1.626c0,0.728,0.065,1.407,0.172,2.054h-2.536v1.622h2.972c1.265,3.607,4.441,5.544,8.397,5.544
		c2.219,0,3.952-0.43,4.815-0.864l-0.491-1.866C28.49,37.663,27.03,37.959,25.594,37.959z"/>
</g>
</svg>
