<?xml version="1.0" encoding="utf-8"?>
<!-- Generator: Adobe Illustrator 16.0.0, SVG Export Plug-In . SVG Version: 6.00 Build 0)  -->
<!DOCTYPE svg PUBLIC "-//W3C//DTD SVG 1.1//EN" "http://www.w3.org/Graphics/SVG/1.1/DTD/svg11.dtd">
<svg version="1.1" id="Layer_1" xmlns="http://www.w3.org/2000/svg" xmlns:xlink="http://www.w3.org/1999/xlink" x="0px" y="0px"
	 width="48px" height="48px" viewBox="0 0 48 48" enable-background="new 0 0 48 48" xml:space="preserve">
<g>
	<g>
		<path fill="none" stroke="#000000" stroke-width="2" stroke-linecap="round" stroke-linejoin="round" stroke-miterlimit="10" d="
			M41.632,23.808c0-8.605-9.095-15.581-20.316-15.581c-0.84,0-1.655,0.061-2.461,0.137C14.966,3.507,7.851,4.734,7.851,4.734
			c1.585,1.588,3.214,4.8,3.104,8.222c-0.115,3.558-2.903,6.439-6.488,6.439c-0.861,0-1.677-0.175-2.426-0.475
			C1.375,20.458,1,22.097,1,23.808c0,1.13,0.168,2.228,0.466,3.288c4.461,0.709,7.879,4.482,7.879,9.07
			c0,0.07-0.021,0.132-0.021,0.199c0.004,0.004,0.012,0.004,0.021,0.004v7.035h4.83V38.35c2.231,0.651,4.62,1.04,7.141,1.04
			c2.692,0,5.26-0.413,7.613-1.141v5.155h4.832v-7.3C38.544,33.251,41.632,28.813,41.632,23.808z"/>
		<path fill="none" stroke="#000000" stroke-width="2" stroke-linecap="round" stroke-linejoin="round" stroke-miterlimit="10" d="
			M47,17.083c0,0-1.591,3.419-5.368,4.104"/>
	</g>
	<g>
		
			<line fill="none" stroke="#000000" stroke-width="2" stroke-linecap="round" stroke-linejoin="round" stroke-miterlimit="10" x1="21.46" y1="17.684" x2="21.46" y2="25.528"/>
		
			<polyline fill="none" stroke="#000000" stroke-width="2" stroke-linecap="round" stroke-linejoin="round" stroke-miterlimit="10" points="
			17.432,24.422 21.46,27.922 25.207,24.422 		"/>
	</g>
</g>
</svg>
