<?xml version="1.0" encoding="utf-8"?>
<!-- Generator: Adobe Illustrator 16.0.0, SVG Export Plug-In . SVG Version: 6.00 Build 0)  -->
<!DOCTYPE svg PUBLIC "-//W3C//DTD SVG 1.1//EN" "http://www.w3.org/Graphics/SVG/1.1/DTD/svg11.dtd">
<svg version="1.1" id="Layer_1" xmlns="http://www.w3.org/2000/svg" xmlns:xlink="http://www.w3.org/1999/xlink" x="0px" y="0px"
	 width="48px" height="48px" viewBox="0 0 48 48" enable-background="new 0 0 48 48" xml:space="preserve">
<g>
	<g>
		<path fill="none" stroke="#000000" stroke-width="2" stroke-linecap="round" stroke-linejoin="round" stroke-miterlimit="10" d="
			M41.634,23.807c0-8.606-9.095-15.582-20.322-15.582c-0.838,0-1.65,0.062-2.458,0.138C14.968,3.505,7.851,4.733,7.851,4.733
			c1.583,1.588,3.208,4.8,3.105,8.222c-0.116,3.558-2.907,6.439-6.488,6.439c-0.863,0-1.675-0.174-2.433-0.476
			C1.37,20.458,1,22.096,1,23.807c0,1.13,0.17,2.229,0.468,3.289c4.457,0.71,7.878,4.483,7.878,9.07
			c0,0.069-0.026,0.132-0.026,0.199c0.006,0.005,0.015,0.005,0.026,0.005v7.036h4.832v-5.056c2.225,0.651,4.617,1.039,7.134,1.039
			c2.694,0,5.27-0.412,7.617-1.14v5.156h4.836v-7.302C38.547,33.252,41.634,28.813,41.634,23.807z"/>
		<path fill="none" stroke="#000000" stroke-width="2" stroke-linecap="round" stroke-linejoin="round" stroke-miterlimit="10" d="
			M47,17.083c0,0-1.593,3.418-5.366,4.102"/>
	</g>
	<g>
		
			<line fill="none" stroke="#000000" stroke-width="2" stroke-linecap="round" stroke-linejoin="round" stroke-miterlimit="10" x1="21.463" y1="27.921" x2="21.463" y2="20.075"/>
		
			<polyline fill="none" stroke="#000000" stroke-width="2" stroke-linecap="round" stroke-linejoin="round" stroke-miterlimit="10" points="
			17.43,21.185 21.463,17.683 25.201,21.185 		"/>
	</g>
</g>
</svg>
