<?xml version="1.0" encoding="utf-8"?>
<!-- Generator: Adobe Illustrator 16.0.0, SVG Export Plug-In . SVG Version: 6.00 Build 0)  -->
<!DOCTYPE svg PUBLIC "-//W3C//DTD SVG 1.1//EN" "http://www.w3.org/Graphics/SVG/1.1/DTD/svg11.dtd">
<svg version="1.1" id="Layer_1" xmlns="http://www.w3.org/2000/svg" xmlns:xlink="http://www.w3.org/1999/xlink" x="0px" y="0px"
	 width="48px" height="48px" viewBox="0 0 48 48" enable-background="new 0 0 48 48" xml:space="preserve">
<g>
	<g>
		<path fill="none" stroke="#000000" stroke-width="2" stroke-linecap="round" stroke-linejoin="round" stroke-miterlimit="10" d="
			M41.635,23.807c0-8.606-9.096-15.582-20.32-15.582c-0.84,0-1.653,0.062-2.46,0.138C14.966,3.506,7.848,4.732,7.848,4.732
			c1.587,1.589,3.214,4.801,3.109,8.223c-0.118,3.559-2.91,6.44-6.49,6.44c-0.858,0-1.67-0.175-2.427-0.477
			C1.372,20.458,1,22.096,1,23.807c0,1.131,0.171,2.228,0.465,3.289c4.46,0.71,7.881,4.483,7.881,9.07
			c0,0.069-0.023,0.132-0.023,0.199c0.005,0.005,0.015,0.005,0.023,0.005v7.036h4.83v-5.056c2.231,0.651,4.619,1.04,7.139,1.04
			c2.693,0,5.267-0.413,7.613-1.143v5.158h4.839v-7.302C38.548,33.252,41.635,28.813,41.635,23.807z"/>
		<path fill="none" stroke="#000000" stroke-width="2" stroke-linecap="round" stroke-linejoin="round" stroke-miterlimit="10" d="
			M47,17.082c0,0-1.593,3.42-5.365,4.103"/>
	</g>
	
		<line fill="none" stroke="#000000" stroke-width="2" stroke-linecap="round" stroke-linejoin="round" stroke-miterlimit="10" x1="18.086" y1="22.995" x2="29.916" y2="22.995"/>
</g>
</svg>
