<?xml version="1.0" encoding="utf-8"?>
<!-- Generator: Adobe Illustrator 16.0.0, SVG Export Plug-In . SVG Version: 6.00 Build 0)  -->
<!DOCTYPE svg PUBLIC "-//W3C//DTD SVG 1.1//EN" "http://www.w3.org/Graphics/SVG/1.1/DTD/svg11.dtd">
<svg version="1.1" id="Layer_1" xmlns="http://www.w3.org/2000/svg" xmlns:xlink="http://www.w3.org/1999/xlink" x="0px" y="0px"
	 width="48px" height="48px" viewBox="0 0 48 48" enable-background="new 0 0 48 48" xml:space="preserve">
<g>
	<path fill="none" stroke="#000000" stroke-width="2" stroke-linecap="round" stroke-linejoin="round" stroke-miterlimit="10" d="
		M28.221,36.2H7.055C3.724,36.2,1,33.475,1,30.148V10.149c0-3.331,2.724-6.055,6.055-6.055h33.893c3.329,0,6.052,2.725,6.052,6.055
		v19.999c0,3.326-2.723,6.052-6.052,6.052h-2.502"/>
	<g>
		
			<line fill="none" stroke="#000000" stroke-width="2" stroke-linecap="round" stroke-linejoin="round" stroke-miterlimit="10" x1="9.854" y1="11.066" x2="38.15" y2="11.066"/>
		
			<line fill="none" stroke="#000000" stroke-width="2" stroke-linecap="round" stroke-linejoin="round" stroke-miterlimit="10" x1="9.854" y1="19.767" x2="18.456" y2="19.767"/>
		
			<line fill="none" stroke="#000000" stroke-width="2" stroke-linecap="round" stroke-linejoin="round" stroke-miterlimit="10" x1="9.854" y1="28.47" x2="18.456" y2="28.47"/>
	</g>
	<path fill="none" stroke="#000000" stroke-width="2" stroke-linecap="round" stroke-linejoin="round" stroke-miterlimit="10" d="
		M40.396,24.167c0,4.453-3.607,8.06-8.062,8.06c-4.447,0-8.054-3.607-8.054-8.06c0-4.452,3.607-8.058,8.054-8.058
		C36.789,16.108,40.396,19.715,40.396,24.167z"/>
	
		<polyline fill="none" stroke="#000000" stroke-width="2" stroke-linecap="round" stroke-linejoin="round" stroke-miterlimit="10" points="
		28.221,31.092 28.221,43.906 32.874,40.395 37.621,43.906 37.621,30.903 	"/>
</g>
</svg>
