<?xml version="1.0" encoding="utf-8"?>
<!-- Generator: Adobe Illustrator 16.0.0, SVG Export Plug-In . SVG Version: 6.00 Build 0)  -->
<!DOCTYPE svg PUBLIC "-//W3C//DTD SVG 1.1//EN" "http://www.w3.org/Graphics/SVG/1.1/DTD/svg11.dtd">
<svg version="1.1" id="Layer_1" xmlns="http://www.w3.org/2000/svg" xmlns:xlink="http://www.w3.org/1999/xlink" x="0px" y="0px"
	 width="48px" height="48px" viewBox="0 0 48 48" enable-background="new 0 0 48 48" xml:space="preserve">
<g>
	
		<line fill="none" stroke="#000000" stroke-width="2" stroke-linecap="round" stroke-linejoin="round" stroke-miterlimit="10" x1="15.189" y1="10.666" x2="29.025" y2="10.666"/>
	
		<line fill="none" stroke="#000000" stroke-width="2" stroke-linecap="round" stroke-linejoin="round" stroke-miterlimit="10" x1="15.189" y1="18.474" x2="29.025" y2="18.474"/>
	
		<line fill="none" stroke="#000000" stroke-width="2" stroke-linecap="round" stroke-linejoin="round" stroke-miterlimit="10" x1="15.189" y1="26.281" x2="29.025" y2="26.281"/>
	<g>
		<path fill="none" stroke="#000000" stroke-width="2" stroke-linecap="round" stroke-linejoin="round" stroke-miterlimit="10" d="
			M36.974,7.291v33.418c0,3.347-2.475,6.087-5.503,6.087h-18.15"/>
		<path fill="none" stroke="#000000" stroke-width="2" stroke-linecap="round" stroke-linejoin="round" stroke-miterlimit="10" d="
			M7.825,35.743V7.291c0-3.348,2.473-6.087,5.496-6.087h28.694"/>
		<path fill="none" stroke="#000000" stroke-width="2" stroke-linecap="round" stroke-linejoin="round" stroke-miterlimit="10" d="
			M32.647,35.743H5.989C3.238,35.743,1,38.22,1,41.271c0,3.049,2.238,5.525,4.989,5.525c0.14,0,26.658-0.045,26.658-0.045"/>
		
			<ellipse fill="none" stroke="#000000" stroke-width="2" stroke-linecap="round" stroke-linejoin="round" stroke-miterlimit="10" cx="32.034" cy="41.271" rx="4.99" ry="5.525"/>
		<path fill="none" stroke="#000000" stroke-width="2" stroke-linecap="round" stroke-linejoin="round" stroke-miterlimit="10" d="
			M47,6.731c0,3.05-2.234,5.523-4.985,5.523c-2.759,0-4.991-2.473-4.991-5.523c0-3.053,2.232-5.528,4.991-5.528
			C44.766,1.204,47,3.678,47,6.731z"/>
	</g>
</g>
</svg>
