<?xml version="1.0" encoding="utf-8"?>
<!-- Generator: Adobe Illustrator 16.0.0, SVG Export Plug-In . SVG Version: 6.00 Build 0)  -->
<!DOCTYPE svg PUBLIC "-//W3C//DTD SVG 1.1//EN" "http://www.w3.org/Graphics/SVG/1.1/DTD/svg11.dtd">
<svg version="1.1" id="Layer_1" xmlns="http://www.w3.org/2000/svg" xmlns:xlink="http://www.w3.org/1999/xlink" x="0px" y="0px"
	 width="48px" height="48px" viewBox="0 0 48 48" enable-background="new 0 0 48 48" xml:space="preserve">
<g>
	<path fill="none" stroke="#000000" stroke-width="2" stroke-linecap="round" stroke-linejoin="round" stroke-miterlimit="10" d="
		M37.186,27.198c-1.165,4.945-5.04,8.824-9.986,9.99V47c10.296-1.374,18.426-9.509,19.799-19.802H37.186z"/>
	<path fill="none" stroke="#000000" stroke-width="2" stroke-linecap="round" stroke-linejoin="round" stroke-miterlimit="10" d="
		M21.03,37.188c-5.939-1.398-10.377-6.703-10.377-13.071c0-7.436,6.029-13.459,13.462-13.459c6.367,0,11.672,4.435,13.07,10.376
		h9.813C45.487,9.731,35.832,1,24.115,1C11.348,1,1.002,11.351,1.002,24.117C1.002,35.833,9.73,45.489,21.03,47V37.188z"/>
</g>
</svg>
