<?xml version="1.0" encoding="utf-8"?>
<!-- Generator: Adobe Illustrator 16.0.0, SVG Export Plug-In . SVG Version: 6.00 Build 0)  -->
<!DOCTYPE svg PUBLIC "-//W3C//DTD SVG 1.1//EN" "http://www.w3.org/Graphics/SVG/1.1/DTD/svg11.dtd">
<svg version="1.1" id="Layer_1" xmlns="http://www.w3.org/2000/svg" xmlns:xlink="http://www.w3.org/1999/xlink" x="0px" y="0px"
	 width="48px" height="48px" viewBox="0 0 48 48" enable-background="new 0 0 48 48" xml:space="preserve">
<g>
	<path fill="none" stroke="#000000" stroke-width="2" stroke-linecap="round" stroke-linejoin="round" stroke-miterlimit="10" d="
		M1,32.301v-6.727C1,12.06,11.35,1.001,23.994,1.001C36.649,1.001,47,12.06,47,25.574v6.727"/>
	<g>
		<g>
			<path fill="none" stroke="#000000" stroke-width="2" stroke-linecap="round" stroke-linejoin="round" stroke-miterlimit="10" d="
				M10.087,34.882c0,0.55-0.45,1-1,1H2c-0.55,0-1-0.45-1-1v-8.098c0-0.55,0.45-1,1-1h7.087c0.55,0,1,0.45,1,1V34.882z"/>
		</g>
		<g>
			<path fill="none" stroke="#000000" stroke-width="2" stroke-linecap="round" stroke-linejoin="round" stroke-miterlimit="10" d="
				M47,34.882c0,0.55-0.45,1-1,1h-7.095c-0.55,0-1-0.45-1-1v-8.098c0-0.55,0.45-1,1-1H46c0.55,0,1,0.45,1,1V34.882z"/>
		</g>
	</g>
	<path fill="none" stroke="#000000" stroke-width="2" stroke-linecap="round" stroke-linejoin="round" stroke-miterlimit="10" d="
		M40.315,36.406c0,0-1.997,8.352-14.114,7.739"/>
	<path fill="none" stroke="#000000" stroke-width="2" stroke-linecap="round" stroke-linejoin="round" stroke-miterlimit="10" d="
		M26.201,43.644c0,1.85-1.99,3.354-4.454,3.354c-2.459,0-4.456-1.505-4.456-3.354c0-1.851,1.997-3.355,4.456-3.355
		C24.211,40.288,26.201,41.793,26.201,43.644z"/>
</g>
</svg>
