<?xml version="1.0" encoding="utf-8"?>
<!-- Generator: Adobe Illustrator 16.0.0, SVG Export Plug-In . SVG Version: 6.00 Build 0)  -->
<!DOCTYPE svg PUBLIC "-//W3C//DTD SVG 1.1//EN" "http://www.w3.org/Graphics/SVG/1.1/DTD/svg11.dtd">
<svg version="1.1" id="Layer_1" xmlns="http://www.w3.org/2000/svg" xmlns:xlink="http://www.w3.org/1999/xlink" x="0px" y="0px"
	 width="48px" height="48px" viewBox="0 0 48 48" enable-background="new 0 0 48 48" xml:space="preserve">
<g>
	<path fill="none" stroke="#000000" stroke-width="2" stroke-linecap="round" stroke-linejoin="round" stroke-miterlimit="10" d="
		M40.813,10.937h-2.37V5.806h-9.119v5.131H7.186c-3.4,0-6.186,2.788-6.186,6.187v18.884c0,3.403,2.786,6.187,6.186,6.187h33.627
		c3.403,0,6.187-2.783,6.187-6.187V17.124C47,13.725,44.217,10.937,40.813,10.937z"/>
	<path fill="none" stroke="#000000" stroke-width="2" stroke-linecap="round" stroke-linejoin="round" stroke-miterlimit="10" d="
		M38.896,26.259c0,5.981-4.848,10.835-10.832,10.835c-5.987,0-10.837-4.854-10.837-10.835c0-5.982,4.851-10.834,10.837-10.834
		C34.049,15.425,38.896,20.276,38.896,26.259z"/>
	
		<line fill="none" stroke="#000000" stroke-width="2" stroke-linecap="round" stroke-linejoin="round" stroke-miterlimit="10" x1="9.102" y1="17.278" x2="9.102" y2="35.241"/>
</g>
</svg>
