<?xml version="1.0" encoding="utf-8"?>
<!-- Generator: Adobe Illustrator 16.0.0, SVG Export Plug-In . SVG Version: 6.00 Build 0)  -->
<!DOCTYPE svg PUBLIC "-//W3C//DTD SVG 1.1//EN" "http://www.w3.org/Graphics/SVG/1.1/DTD/svg11.dtd">
<svg version="1.1" id="Layer_1" xmlns="http://www.w3.org/2000/svg" xmlns:xlink="http://www.w3.org/1999/xlink" x="0px" y="0px"
	 width="48px" height="48px" viewBox="0 0 48 48" enable-background="new 0 0 48 48" xml:space="preserve">
<g>
	<g>
		<path fill="none" stroke="#000000" stroke-width="2" stroke-linecap="round" stroke-linejoin="round" stroke-miterlimit="10" d="
			M47,38.803c0,1.1-0.9,2-2,2H3c-1.1,0-2-0.9-2-2v-25.67c0-1.1,0.9-2,2-2h42c1.1,0,2,0.9,2,2V38.803z"/>
	</g>
	<path fill="none" stroke="#000000" stroke-width="2" stroke-linecap="round" stroke-linejoin="round" stroke-miterlimit="10" d="
		M41.985,25.969c0,6.015-4.877,10.89-10.894,10.89c-6.012,0-10.892-4.875-10.892-10.89c0-6.017,4.88-10.893,10.892-10.893
		C37.108,15.076,41.985,19.952,41.985,25.969z"/>
	<path fill="none" stroke="#000000" stroke-width="2" stroke-linecap="round" stroke-linejoin="round" stroke-miterlimit="10" d="
		M35.81,25.969c0,2.604-2.111,4.713-4.718,4.713c-2.602,0-4.71-2.109-4.71-4.713c0-2.605,2.108-4.716,4.71-4.716
		C33.698,21.252,35.81,23.363,35.81,25.969z"/>
	<g>
		
			<line fill="none" stroke="#000000" stroke-width="2" stroke-linecap="round" stroke-linejoin="round" stroke-miterlimit="10" x1="6.201" y1="21.574" x2="15.153" y2="21.574"/>
		
			<line fill="none" stroke="#000000" stroke-width="2" stroke-linecap="round" stroke-linejoin="round" stroke-miterlimit="10" x1="6.201" y1="30.36" x2="15.153" y2="30.36"/>
	</g>
	
		<line fill="none" stroke="#000000" stroke-width="2" stroke-linecap="round" stroke-linejoin="round" stroke-miterlimit="10" x1="10.504" y1="7.197" x2="19.119" y2="7.197"/>
</g>
</svg>
