<?xml version="1.0" encoding="utf-8"?>
<!-- Generator: Adobe Illustrator 16.0.0, SVG Export Plug-In . SVG Version: 6.00 Build 0)  -->
<!DOCTYPE svg PUBLIC "-//W3C//DTD SVG 1.1//EN" "http://www.w3.org/Graphics/SVG/1.1/DTD/svg11.dtd">
<svg version="1.1" id="Layer_1" xmlns="http://www.w3.org/2000/svg" xmlns:xlink="http://www.w3.org/1999/xlink" x="0px" y="0px"
	 width="48px" height="48px" viewBox="0 0 48 48" enable-background="new 0 0 48 48" xml:space="preserve">
<g>
	<path fill="none" stroke="#000000" stroke-width="2" stroke-linejoin="round" stroke-miterlimit="10" d="M35.565,17.276
		c0,0-8.532-17.737-23.186,3.227c-2.288,3.272-4.061,13.118,3.448,16.238c9.926,4.125,14.788-7.396,14.788-7.396l7.394-18.021"/>
	<path fill="none" stroke="#000000" stroke-width="2" stroke-linejoin="round" stroke-miterlimit="10" d="M29.523,31.366
		c0,0-2.028,5.658,2.361,6.267c4.391,0.608,13.979-4.476,15.019-14.873c1.039-10.397-6.354-20.679-18.946-21.487
		C15.366,0.464,2.772,7.395,1.154,21.143c-1.617,13.748,9.707,25.764,22.182,25.647c12.477-0.116,19.524-6.817,22.759-10.744"/>
</g>
</svg>
