<?xml version="1.0" encoding="utf-8"?>
<!-- Generator: Adobe Illustrator 16.0.0, SVG Export Plug-In . SVG Version: 6.00 Build 0)  -->
<!DOCTYPE svg PUBLIC "-//W3C//DTD SVG 1.1//EN" "http://www.w3.org/Graphics/SVG/1.1/DTD/svg11.dtd">
<svg version="1.1" id="Layer_1" xmlns="http://www.w3.org/2000/svg" xmlns:xlink="http://www.w3.org/1999/xlink" x="0px" y="0px"
	 width="48px" height="48px" viewBox="0 0 48 48" enable-background="new 0 0 48 48" xml:space="preserve">
<g>
	<g>
		<path fill="none" stroke="#000000" stroke-width="2" stroke-linejoin="round" stroke-miterlimit="10" d="M47,24.959
			c0,3.787-4.95,6.886-11,6.886H14.907c-6.05,0-11-3.099-11-6.886c0-3.788,4.95-6.887,11-6.887H36C42.05,18.072,47,21.171,47,24.959
			z"/>
	</g>
	<g>
		
			<line fill="none" stroke="#000000" stroke-width="2" stroke-linejoin="round" stroke-miterlimit="10" x1="14.356" y1="18.072" x2="14.356" y2="31.845"/>
		
			<line fill="none" stroke="#000000" stroke-width="2" stroke-linejoin="round" stroke-miterlimit="10" x1="36.551" y1="18.072" x2="36.551" y2="31.845"/>
	</g>
	<g>
		
			<circle fill="none" stroke="#000000" stroke-width="2" stroke-linejoin="round" stroke-miterlimit="10" cx="14.356" cy="37.16" r="2.501"/>
		
			<circle fill="none" stroke="#000000" stroke-width="2" stroke-linejoin="round" stroke-miterlimit="10" cx="36.55" cy="37.16" r="2.5"/>
	</g>
	
		<line fill="none" stroke="#000000" stroke-width="2" stroke-linejoin="round" stroke-miterlimit="10" x1="18.806" y1="34.659" x2="32.101" y2="34.659"/>
	<polyline fill="none" stroke="#000000" stroke-width="2" stroke-linejoin="round" stroke-miterlimit="10" points="3.907,23.968 
		1,23.968 1,26.763 3.907,26.763 	"/>
	
		<rect x="27.91" y="8.339" fill="none" stroke="#000000" stroke-width="2" stroke-linejoin="round" stroke-miterlimit="10" width="6.14" height="7.557"/>
	
		<rect x="15.491" y="12.116" fill="none" stroke="#000000" stroke-width="2" stroke-linejoin="round" stroke-miterlimit="10" width="10.659" height="3.779"/>
</g>
</svg>
