<?xml version="1.0" encoding="utf-8"?>
<!-- Generator: Adobe Illustrator 16.0.0, SVG Export Plug-In . SVG Version: 6.00 Build 0)  -->
<!DOCTYPE svg PUBLIC "-//W3C//DTD SVG 1.1//EN" "http://www.w3.org/Graphics/SVG/1.1/DTD/svg11.dtd">
<svg version="1.1" id="Layer_1" xmlns="http://www.w3.org/2000/svg" xmlns:xlink="http://www.w3.org/1999/xlink" x="0px" y="0px"
	 width="48px" height="48px" viewBox="0 0 48 48" enable-background="new 0 0 48 48" xml:space="preserve">
<g>
	<g>
		<path fill="none" stroke="#000000" stroke-width="2" stroke-linejoin="round" stroke-miterlimit="10" d="M18.098,30.596
			c1.174,0.042,2.493-0.205,3.735-0.243c1.454-0.045,2.884,0.088,4.404,0.18c2.687,0.161,4.929,0.49,7.382-0.799
			c4.408-2.315,8.792-4.758,11.642-8.941c2.874-4.221,1.997-9.102-1.24-12.891c-3.646-4.264-10.212-3.351-14.877-1.834
			c-2.26,0.734-4.179,2.056-6.139,3.431c-0.999,0.698-4.364,4.861-5.1,6.195c-1.048,1.904-1.97,4.358-2.179,6.519
			c-0.092,0.968-0.225,2.246-0.092,3.225c0.154,1.14,1.001,1.307,1.385,2.183c0.119,0.273-0.251,0.453-0.153,0.704
			c0.092,0.235,0.541,0.213,0.681,0.405c0.25,0.347,0.5,0.665,0.594,1.065c-0.346,0.243-0.466,0.524-0.186,0.778L18.098,30.596z"/>
		<path fill="none" stroke="#000000" stroke-width="2" stroke-linejoin="round" stroke-miterlimit="10" d="M20.233,30.475
			c-0.731,0.073-1.457,0.146-2.135,0.121l-0.143-0.022c-0.281-0.254-0.16-0.535,0.186-0.778c-0.094-0.4-0.345-0.719-0.594-1.065
			c-0.14-0.192-0.589-0.17-0.681-0.405c-0.098-0.251,0.272-0.431,0.153-0.704c-0.264-0.601-0.741-0.874-1.067-1.35l-6.628,4.646
			c-0.104-0.219-0.221-0.436-0.365-0.642c-1.387-1.979-4.116-2.458-6.094-1.071c-1.979,1.388-2.46,4.116-1.073,6.095
			c0.892,1.272,2.336,1.915,3.782,1.852c-0.553,1.336-0.441,2.912,0.45,4.185c1.387,1.977,4.116,2.458,6.095,1.071
			c1.979-1.387,2.458-4.116,1.071-6.097c-0.145-0.206-0.308-0.388-0.478-0.56L20.233,30.475z"/>
	</g>
	<path fill="none" stroke="#000000" stroke-width="2" stroke-linejoin="round" stroke-miterlimit="10" d="M41.355,13.833
		c0,0,1.078,7.649-10.065,11.2"/>
</g>
</svg>
