<?xml version="1.0" encoding="utf-8"?>
<!-- Generator: Adobe Illustrator 16.0.0, SVG Export Plug-In . SVG Version: 6.00 Build 0)  -->
<!DOCTYPE svg PUBLIC "-//W3C//DTD SVG 1.1//EN" "http://www.w3.org/Graphics/SVG/1.1/DTD/svg11.dtd">
<svg version="1.1" id="Layer_1" xmlns="http://www.w3.org/2000/svg" xmlns:xlink="http://www.w3.org/1999/xlink" x="0px" y="0px"
	 width="48px" height="48px" viewBox="0 0 48 48" enable-background="new 0 0 48 48" xml:space="preserve">
<g>
	<g>
		<g>
			<polygon fill="none" stroke="#000000" stroke-width="2" stroke-linejoin="round" stroke-miterlimit="10" points="23.166,47 
				7.059,47 4.312,10.705 25.914,10.705 			"/>
			<path fill="none" stroke="#000000" stroke-width="2" stroke-linejoin="round" stroke-miterlimit="10" d="M5.397,25.357
				c2.546,1.021,4.955,0.762,6.827-0.764c1.488-1.215,3.593-3.021,5.41-3.68c2.524-0.914,5.215-0.032,7.336,1.638"/>
			<polyline fill="none" stroke="#000000" stroke-width="2" stroke-linejoin="round" stroke-miterlimit="10" points="1,3.933 
				8.985,1 16.211,21.608 			"/>
			<g>
				<path fill="none" stroke="#000000" stroke-width="2" stroke-linejoin="round" stroke-miterlimit="10" d="M27.791,40.733v1.724
					c0,2.499,1.854,4.543,4.121,4.543h10.967C45.146,47,47,44.956,47,42.457v-1.724H27.791z"/>
				<path fill="none" stroke="#000000" stroke-width="2" stroke-linejoin="round" stroke-miterlimit="10" d="M37.396,29.228
					c-5.306,0-9.605,3.783-9.605,8.447H47C47,33.011,42.699,29.228,37.396,29.228z"/>
			</g>
		</g>
		
			<line fill="none" stroke="#000000" stroke-width="2" stroke-linejoin="round" stroke-miterlimit="10" x1="20.216" y1="25.969" x2="19.29" y2="43.867"/>
	</g>
	<path fill="none" stroke="#000000" stroke-width="2" stroke-linejoin="round" stroke-miterlimit="10" d="M36.802,32.743
		c0,0,2.776-0.085,4.966,1.769"/>
</g>
</svg>
