<?xml version="1.0" encoding="utf-8"?>
<!-- Generator: Adobe Illustrator 16.0.0, SVG Export Plug-In . SVG Version: 6.00 Build 0)  -->
<!DOCTYPE svg PUBLIC "-//W3C//DTD SVG 1.1//EN" "http://www.w3.org/Graphics/SVG/1.1/DTD/svg11.dtd">
<svg version="1.1" id="Layer_1" xmlns="http://www.w3.org/2000/svg" xmlns:xlink="http://www.w3.org/1999/xlink" x="0px" y="0px"
	 width="48px" height="48px" viewBox="0 0 48 48" enable-background="new 0 0 48 48" xml:space="preserve">
<g>
	<path fill="none" stroke="#000000" stroke-width="2" stroke-linejoin="round" stroke-miterlimit="10" d="M20.076,1l13.4,3.635
		c0,0-10.725,19.758-9.477,24.3c1.25,4.541,11.292,13.172,11.292,13.172h3.408c0,0,2.271,2.726,0,3.861
		c-2.271,1.137-9.085,2.726-16.58-3.861l-6.359-2.952c0,0-11.256-1.736-6.132-9.085C12.753,25.59,17.686,14.901,20.076,1z"/>
	<path fill="none" stroke="#000000" stroke-width="2" stroke-linejoin="round" stroke-miterlimit="10" d="M11.676,26.676
		c0,0,5.958,3.816,2.908,12.227"/>
	<path fill="none" stroke="#000000" stroke-width="2" stroke-linejoin="round" stroke-miterlimit="10" d="M34.498,41.406
		c0,0-3.414,1.421-2.34,5.501"/>
	
		<line fill="none" stroke="#000000" stroke-width="2" stroke-linejoin="round" stroke-miterlimit="10" x1="18.943" y1="6.596" x2="30.3" y2="10.819"/>
	
		<line fill="none" stroke="#000000" stroke-width="2" stroke-linejoin="round" stroke-miterlimit="10" x1="17.863" y1="10.819" x2="28.468" y2="14.65"/>
</g>
</svg>
