<?xml version="1.0" encoding="utf-8"?>
<!-- Generator: Adobe Illustrator 16.0.0, SVG Export Plug-In . SVG Version: 6.00 Build 0)  -->
<!DOCTYPE svg PUBLIC "-//W3C//DTD SVG 1.1//EN" "http://www.w3.org/Graphics/SVG/1.1/DTD/svg11.dtd">
<svg version="1.1" id="Layer_1" xmlns="http://www.w3.org/2000/svg" xmlns:xlink="http://www.w3.org/1999/xlink" x="0px" y="0px"
	 width="48px" height="48px" viewBox="0 0 48 48" enable-background="new 0 0 48 48" xml:space="preserve">
<g>
	<path fill="none" stroke="#000000" stroke-width="2" stroke-linejoin="round" stroke-miterlimit="10" d="M47,16.608L38.387,6.75
		H9.617L1,16.608h1.638c0,0.026-0.002,0.053-0.002,0.081c0,1.541,1.248,2.787,2.787,2.787c1.541,0,2.789-1.247,2.789-2.787
		c0-0.028-0.004-0.054-0.005-0.081h1.863c-0.001,0.026-0.004,0.053-0.004,0.081c0,1.541,1.248,2.787,2.789,2.787
		c1.54,0,2.787-1.247,2.787-2.787c0-0.028-0.002-0.054-0.004-0.081H17.5c0,0.026-0.004,0.053-0.004,0.081
		c0,1.541,1.248,2.787,2.788,2.787s2.789-1.247,2.789-2.787c0-0.028-0.003-0.054-0.003-0.081h1.861c0,0.026-0.002,0.053-0.002,0.081
		c0,1.541,1.247,2.787,2.787,2.787s2.788-1.247,2.788-2.787c0-0.028-0.003-0.054-0.004-0.081h1.863
		c-0.002,0.026-0.005,0.053-0.005,0.081c0,1.541,1.247,2.787,2.788,2.787c1.54,0,2.788-1.247,2.788-2.787
		c0-0.028-0.003-0.054-0.003-0.081h1.862c0,0.026-0.006,0.053-0.006,0.081c0,1.541,1.25,2.787,2.791,2.787
		c1.538,0,2.787-1.247,2.787-2.787c0-0.028-0.003-0.054-0.003-0.081H47z"/>
	<polyline fill="none" stroke="#000000" stroke-width="2" stroke-linejoin="round" stroke-miterlimit="10" points="5.124,19.397 
		5.124,27.68 5.124,41.25 42.743,41.25 42.743,19.397 	"/>
	
		<line fill="none" stroke="#000000" stroke-width="2" stroke-linejoin="round" stroke-miterlimit="10" x1="42.743" y1="29.601" x2="5.124" y2="29.601"/>
</g>
</svg>
