<?xml version="1.0" encoding="utf-8"?>
<!-- Generator: Adobe Illustrator 16.0.0, SVG Export Plug-In . SVG Version: 6.00 Build 0)  -->
<!DOCTYPE svg PUBLIC "-//W3C//DTD SVG 1.1//EN" "http://www.w3.org/Graphics/SVG/1.1/DTD/svg11.dtd">
<svg version="1.1" id="Layer_1" xmlns="http://www.w3.org/2000/svg" xmlns:xlink="http://www.w3.org/1999/xlink" x="0px" y="0px"
	 width="48px" height="48px" viewBox="0 0 48 48" enable-background="new 0 0 48 48" xml:space="preserve">
<g>
	<g>
		<path fill="none" stroke="#000000" stroke-width="2" stroke-miterlimit="10" d="M28.801,15.122L27.483,1h-6.214L19.95,15.122
			c-0.046,0.004-6.854,0.01-6.901,0.015c-1.854,0.227-3.305,1.799-3.305,3.71v24.396C9.743,45.31,11.433,47,13.5,47h21
			c2.066,0,3.757-1.69,3.757-3.757V18.847c0-1.887-1.415-3.442-3.234-3.701C34.953,15.137,28.872,15.13,28.801,15.122z"/>
		<line fill="none" stroke="#000000" stroke-width="2" stroke-miterlimit="10" x1="20.833" y1="4.394" x2="27.918" y2="4.394"/>
	</g>
	<g>
		<polyline fill="none" stroke="#000000" stroke-width="2" stroke-miterlimit="10" points="25.605,24.941 15.49,24.941 
			15.49,39.618 25.748,39.618 		"/>
		<polyline fill="none" stroke="#000000" stroke-width="2" stroke-miterlimit="10" points="22.394,24.941 32.51,24.941 
			32.51,39.618 22.252,39.618 		"/>
	</g>
</g>
</svg>
