<?xml version="1.0" encoding="utf-8"?>
<!-- Generator: Adobe Illustrator 16.0.0, SVG Export Plug-In . SVG Version: 6.00 Build 0)  -->
<!DOCTYPE svg PUBLIC "-//W3C//DTD SVG 1.1//EN" "http://www.w3.org/Graphics/SVG/1.1/DTD/svg11.dtd">
<svg version="1.1" id="Layer_1" xmlns="http://www.w3.org/2000/svg" xmlns:xlink="http://www.w3.org/1999/xlink" x="0px" y="0px"
	 width="48px" height="48px" viewBox="0 0 48 48" enable-background="new 0 0 48 48" xml:space="preserve">
<g>
	<polyline fill="none" stroke="#000000" stroke-width="2" stroke-miterlimit="10" points="14.992,20.925 14.992,13.176 
		33.008,13.176 33.008,20.925 	"/>
	<polyline fill="none" stroke="#000000" stroke-width="2" stroke-miterlimit="10" points="33.008,30.119 33.008,47 14.992,47 
		14.992,30.119 	"/>
	<path fill="none" stroke="#000000" stroke-width="2" stroke-miterlimit="10" d="M14.343,20.127H6.34c0,0-1.865,1.568-1.865,5.525
		c0,3.906,1.865,5.288,1.865,5.288h8.003"/>
	<path fill="none" stroke="#000000" stroke-width="2" stroke-miterlimit="10" d="M9.99,20.127c0,0-1.865,1.568-1.865,5.525
		c0,3.906,1.865,5.288,1.865,5.288"/>
	<line fill="none" stroke="#000000" stroke-width="2" stroke-miterlimit="10" x1="1" y1="25.2" x2="4.475" y2="25.2"/>
	<g>
		<path fill="none" stroke="#000000" stroke-width="2" stroke-miterlimit="10" d="M33.657,20.127h8.003c0,0,1.865,1.568,1.865,5.525
			c0,3.906-1.865,5.288-1.865,5.288h-8.003"/>
		<path fill="none" stroke="#000000" stroke-width="2" stroke-miterlimit="10" d="M38.01,20.127c0,0,1.865,1.568,1.865,5.525
			c0,3.906-1.865,5.288-1.865,5.288"/>
		<line fill="none" stroke="#000000" stroke-width="2" stroke-miterlimit="10" x1="47" y1="25.2" x2="43.525" y2="25.2"/>
	</g>
	<line fill="none" stroke="#000000" stroke-width="2" stroke-miterlimit="10" x1="1" y1="47" x2="47" y2="47"/>
	<circle fill="none" stroke="#000000" stroke-width="2" stroke-miterlimit="10" cx="23.99" cy="25.331" r="5.997"/>
	<circle fill="none" stroke="#000000" stroke-width="2" stroke-miterlimit="10" cx="23.99" cy="25.331" r="2.721"/>
	<path fill="none" stroke="#000000" stroke-width="2" stroke-miterlimit="10" d="M33.008,9.733C33.008,4.931,29.077,1,24.274,1
		h-0.549c-4.803,0-8.733,3.931-8.733,8.733v3.442h18.016V9.733z"/>
</g>
</svg>
