<?xml version="1.0" encoding="utf-8"?>
<!-- Generator: Adobe Illustrator 16.0.0, SVG Export Plug-In . SVG Version: 6.00 Build 0)  -->
<!DOCTYPE svg PUBLIC "-//W3C//DTD SVG 1.1//EN" "http://www.w3.org/Graphics/SVG/1.1/DTD/svg11.dtd">
<svg version="1.1" id="Layer_1" xmlns="http://www.w3.org/2000/svg" xmlns:xlink="http://www.w3.org/1999/xlink" x="0px" y="0px"
	 width="48px" height="48px" viewBox="0 0 48 48" enable-background="new 0 0 48 48" xml:space="preserve">
<g>
	<polyline fill="none" stroke="#000000" stroke-width="2" stroke-miterlimit="10" points="17.205,21.325 13.258,36.995 1,36.995 
		5.87,21.982 	"/>
	<path fill="none" stroke="#000000" stroke-width="2" stroke-miterlimit="10" d="M27.762,19.839
		c2.707,4.986-4.093,13.479-12.144,7.785"/>
	<path fill="none" stroke="#000000" stroke-width="2" stroke-miterlimit="10" d="M18.774,20.68c0,0,0.786,3.365,3.22,5.044"/>
	<ellipse fill="none" stroke="#000000" stroke-width="2" stroke-miterlimit="10" cx="44.481" cy="14.667" rx="2.519" ry="3.663"/>
	<path fill="none" stroke="#000000" stroke-width="2" stroke-miterlimit="10" d="M41.963,14.667c0-1.947,1.049-3.522,2.366-3.641
		l-0.004-0.022H16.882l-3.508,2.068H8.861l-4.01,8.91l39.099-3.659l0.016-0.071C42.821,17.906,41.963,16.433,41.963,14.667z"/>
	<line fill="none" stroke="#000000" stroke-width="2" stroke-miterlimit="10" x1="17.205" y1="14.667" x2="24.59" y2="14.667"/>
	<line fill="none" stroke="#000000" stroke-width="2" stroke-miterlimit="10" x1="12.687" y1="21.325" x2="8.347" y2="36.995"/>
</g>
</svg>
