<?xml version="1.0" encoding="utf-8"?>
<!-- Generator: Adobe Illustrator 16.0.0, SVG Export Plug-In . SVG Version: 6.00 Build 0)  -->
<!DOCTYPE svg PUBLIC "-//W3C//DTD SVG 1.1//EN" "http://www.w3.org/Graphics/SVG/1.1/DTD/svg11.dtd">
<svg version="1.1" id="Layer_1" xmlns="http://www.w3.org/2000/svg" xmlns:xlink="http://www.w3.org/1999/xlink" x="0px" y="0px"
	 width="48px" height="48px" viewBox="0 0 48 48" enable-background="new 0 0 48 48" xml:space="preserve">
<g>
	<path fill="none" stroke="#000000" stroke-width="2" stroke-miterlimit="10" d="M26.018,7.485c0.931-0.642,1.54-1.712,1.54-2.927
		C27.558,2.593,25.965,1,24,1c-1.964,0-3.557,1.593-3.557,3.558c0,1.215,0.61,2.286,1.54,2.927c-2.566,0.813-4.46,3.134-4.645,5.922
		h13.326C30.479,10.619,28.585,8.298,26.018,7.485z"/>
	<g>
		<path fill="none" stroke="#000000" stroke-width="2" stroke-miterlimit="10" d="M42.354,41.08c0.93-0.643,1.542-1.715,1.542-2.93
			c0-1.965-1.595-3.559-3.559-3.559c-1.966,0-3.558,1.594-3.558,3.559c0,1.215,0.609,2.287,1.54,2.93
			c-2.567,0.811-4.462,3.131-4.647,5.92H47C46.814,44.211,44.921,41.891,42.354,41.08z"/>
		<path fill="none" stroke="#000000" stroke-width="2" stroke-miterlimit="10" d="M26.018,41.08c0.931-0.643,1.54-1.715,1.54-2.93
			c0-1.965-1.593-3.559-3.558-3.559c-1.964,0-3.557,1.594-3.557,3.559c0,1.215,0.61,2.287,1.54,2.93
			c-2.566,0.811-4.46,3.131-4.645,5.92h13.326C30.479,44.211,28.585,41.891,26.018,41.08z"/>
		<path fill="none" stroke="#000000" stroke-width="2" stroke-miterlimit="10" d="M9.681,41.08c0.929-0.643,1.541-1.715,1.541-2.93
			c0-1.965-1.594-3.559-3.558-3.559c-1.965,0-3.558,1.594-3.558,3.559c0,1.215,0.61,2.287,1.54,2.93C3.08,41.891,1.186,44.211,1,47
			h13.327C14.142,44.211,12.247,41.891,9.681,41.08z"/>
	</g>
	<polyline fill="none" stroke="#000000" stroke-width="2" stroke-miterlimit="10" points="7.664,31.425 7.664,21.507 40.338,21.507 
		40.338,31.425 	"/>
	<line fill="none" stroke="#000000" stroke-width="2" stroke-miterlimit="10" x1="24" y1="15.66" x2="24" y2="31.425"/>
</g>
</svg>
