<?xml version="1.0" encoding="utf-8"?>
<!-- Generator: Adobe Illustrator 16.0.0, SVG Export Plug-In . SVG Version: 6.00 Build 0)  -->
<!DOCTYPE svg PUBLIC "-//W3C//DTD SVG 1.1//EN" "http://www.w3.org/Graphics/SVG/1.1/DTD/svg11.dtd">
<svg version="1.1" id="Layer_1" xmlns="http://www.w3.org/2000/svg" xmlns:xlink="http://www.w3.org/1999/xlink" x="0px" y="0px"
	 width="48px" height="48px" viewBox="0 0 48 48" enable-background="new 0 0 48 48" xml:space="preserve">
<g>
	<polyline fill="none" stroke="#000000" stroke-width="2" stroke-miterlimit="10" points="18.532,21.867 1,38.227 1,46.999 
		10.501,46.999 28.106,28.953 	"/>
	<path fill="none" stroke="#000000" stroke-width="2" stroke-miterlimit="10" d="M32.504,24.645c0.68-0.711,0.792-1.838,0.426-3.075
		c1.247,0.313,2.36,0.154,3.04-0.558c0.68-0.711,0.791-1.837,0.426-3.077c1.247,0.316,2.361,0.155,3.041-0.558
		c0.679-0.711,0.79-1.838,0.425-3.075c1.246,0.313,2.362,0.155,3.041-0.558c0.68-0.711,0.79-1.838,0.425-3.077
		c1.247,0.316,2.362,0.155,3.041-0.556c1.341-1.406,0.478-4.427-1.929-6.746c-2.406-2.319-5.444-3.058-6.785-1.652
		c-0.68,0.711-0.792,1.838-0.425,3.075c-1.247-0.314-2.361-0.154-3.041,0.558c-0.679,0.711-0.791,1.838-0.426,3.077
		c-1.246-0.316-2.362-0.155-3.039,0.556c-0.68,0.711-0.792,1.838-0.426,3.077c-1.247-0.314-2.361-0.156-3.041,0.558
		c-0.68,0.711-0.79,1.836-0.425,3.077c-1.247-0.316-2.362-0.157-3.042,0.556"/>
	<path fill="none" stroke="#000000" stroke-width="2" stroke-miterlimit="10" d="M5.647,14.899c0,0,7.979,1.279,16.29,9.1
		c8.313,7.82,15.921,13.742,22.753,8.672c0,0-5.619,0.345-18.211-12.963C13.887,6.399,5.647,14.899,5.647,14.899z"/>
</g>
</svg>
