<?xml version="1.0" encoding="utf-8"?>
<!-- Generator: Adobe Illustrator 16.0.0, SVG Export Plug-In . SVG Version: 6.00 Build 0)  -->
<!DOCTYPE svg PUBLIC "-//W3C//DTD SVG 1.1//EN" "http://www.w3.org/Graphics/SVG/1.1/DTD/svg11.dtd">
<svg version="1.1" id="Layer_1" xmlns="http://www.w3.org/2000/svg" xmlns:xlink="http://www.w3.org/1999/xlink" x="0px" y="0px"
	 width="48px" height="48px" viewBox="0 0 48 48" enable-background="new 0 0 48 48" xml:space="preserve">
<g>
	<path fill="none" stroke="#000000" stroke-width="2" stroke-miterlimit="10" d="M31.109,21.907
		c2.464-2.167,4.034-5.436,4.034-9.095C35.144,6.29,30.154,1,24,1S12.856,6.29,12.856,12.813c0,3.67,1.581,6.952,4.058,9.117
		C11.271,24.98,4.286,30.048,4.286,36.445V47h39.428V36.445C43.714,29.936,36.769,24.915,31.109,21.907z"/>
	<circle fill="none" stroke="#000000" stroke-width="2" stroke-miterlimit="10" cx="24" cy="8.481" r="3.077"/>
	<path fill="none" stroke="#000000" stroke-width="2" stroke-miterlimit="10" d="M25.97,34.45c0,1.087-0.881,1.967-1.97,1.967
		c-1.087,0-1.97-0.88-1.97-1.967c0-1.09,0.883-1.972,1.97-1.972C25.089,32.479,25.97,33.36,25.97,34.45z"/>
	<circle fill="none" stroke="#000000" stroke-width="2" stroke-miterlimit="10" cx="24" cy="34.448" r="5.661"/>
	<circle fill="none" stroke="#000000" stroke-width="2" stroke-miterlimit="10" cx="24" cy="34.448" r="9.354"/>
</g>
</svg>
