<?xml version="1.0" encoding="utf-8"?>
<!-- Generator: Adobe Illustrator 16.0.0, SVG Export Plug-In . SVG Version: 6.00 Build 0)  -->
<!DOCTYPE svg PUBLIC "-//W3C//DTD SVG 1.1//EN" "http://www.w3.org/Graphics/SVG/1.1/DTD/svg11.dtd">
<svg version="1.1" id="Layer_1" xmlns="http://www.w3.org/2000/svg" xmlns:xlink="http://www.w3.org/1999/xlink" x="0px" y="0px"
	 width="48px" height="48px" viewBox="0 0 48 48" enable-background="new 0 0 48 48" xml:space="preserve">
<g>
	<path fill="none" stroke="#000000" stroke-width="2" stroke-miterlimit="10" d="M37.493,3.311L1,30.61l43.338,14.079
		C44.338,44.689,53.631,27.739,37.493,3.311z"/>
	<path fill="none" stroke="#000000" stroke-width="2" stroke-miterlimit="10" d="M32.829,7.017c0.521,3.13,3.329,4.137,4.882,6.664
		c1.592,2.59,1.021,5.029,1.239,7.85c0.214,2.768,2.401,4.462,2.928,7.049c0.481,2.366-1.895,3.573-1.76,5.889
		c0.087,1.473,0.933,3.23,0.729,4.687c-0.2,1.453-1.47,2.752-2.264,3.865"/>
	<circle fill="none" stroke="#000000" stroke-width="2" stroke-miterlimit="10" cx="29.784" cy="21.461" r="4.001"/>
	<circle fill="none" stroke="#000000" stroke-width="2" stroke-miterlimit="10" cx="32.301" cy="32.517" r="3.754"/>
	<circle fill="none" stroke="#000000" stroke-width="2" stroke-miterlimit="10" cx="19.753" cy="27.568" r="3.508"/>
</g>
</svg>
