<?xml version="1.0" encoding="utf-8"?>
<!-- Generator: Adobe Illustrator 16.0.0, SVG Export Plug-In . SVG Version: 6.00 Build 0)  -->
<!DOCTYPE svg PUBLIC "-//W3C//DTD SVG 1.1//EN" "http://www.w3.org/Graphics/SVG/1.1/DTD/svg11.dtd">
<svg version="1.1" id="Layer_1" xmlns="http://www.w3.org/2000/svg" xmlns:xlink="http://www.w3.org/1999/xlink" x="0px" y="0px"
	 width="48px" height="48px" viewBox="0 0 48 48" enable-background="new 0 0 48 48" xml:space="preserve">
<g>
	<path fill="none" stroke="#000000" stroke-width="2" stroke-miterlimit="10" d="M41.969,1H6.031C3.264,1,1,3.265,1,6.031v35.938
		C1,44.735,3.264,47,6.031,47h0.312c0.618-3.222,3.446-5.656,6.849-5.656c3.401,0,6.229,2.435,6.847,5.656h7.923
		c0.617-3.222,3.446-5.656,6.848-5.656c3.4,0,6.229,2.435,6.848,5.656h0.312C44.735,47,47,44.735,47,41.969V6.031
		C47,3.265,44.735,1,41.969,1z"/>
	<line fill="none" stroke="#000000" stroke-width="2" stroke-miterlimit="10" x1="8.163" y1="9.747" x2="39.838" y2="9.747"/>
	<line fill="none" stroke="#000000" stroke-width="2" stroke-miterlimit="10" x1="8.163" y1="16.03" x2="39.838" y2="16.03"/>
	<line fill="none" stroke="#000000" stroke-width="2" stroke-miterlimit="10" x1="8.163" y1="22.315" x2="39.838" y2="22.315"/>
	<line fill="none" stroke="#000000" stroke-width="2" stroke-miterlimit="10" x1="8.163" y1="28.599" x2="39.838" y2="28.599"/>
	<line fill="none" stroke="#000000" stroke-width="2" stroke-miterlimit="10" x1="8.163" y1="34.883" x2="39.838" y2="34.883"/>
</g>
</svg>
