<?xml version="1.0" encoding="utf-8"?>
<!-- Generator: Adobe Illustrator 16.0.0, SVG Export Plug-In . SVG Version: 6.00 Build 0)  -->
<!DOCTYPE svg PUBLIC "-//W3C//DTD SVG 1.1//EN" "http://www.w3.org/Graphics/SVG/1.1/DTD/svg11.dtd">
<svg version="1.1" id="Layer_1" xmlns="http://www.w3.org/2000/svg" xmlns:xlink="http://www.w3.org/1999/xlink" x="0px" y="0px"
	 width="48px" height="48px" viewBox="0 0 48 48" enable-background="new 0 0 48 48" xml:space="preserve">
<g>
	<path fill="none" stroke="#000000" stroke-width="2" stroke-miterlimit="10" d="M10.141,26.975
		c-0.858-4.799-4.613-8.73-5.808-13.492C3.394,9.737,3.139,4.012,7.645,2.365c2.716-0.99,5.709-0.614,8.342,0.163
		c1.838,0.543,4.24,2.28,6.145,2.185c1.856-0.096,3.822-1.772,5.53-2.499C29.855,1.281,31.451,1,33.976,1
		c4.53,0,8.206,2.125,9.362,6.746c0.822,3.278,1.317,7.921,0.381,11.177c-0.506,1.756-1.286,3.343-1.993,5.099
		c-0.72,1.79-0.901,3.792-1.27,5.689c-0.688,3.546,0.366,7.9-1.599,10.892c-1.737,2.646-4.645,7.252-8.217,4.085
		c-3.01-2.669-2.622-7.837-3.296-11.496c-0.341-1.842-2.184-12.127-5.256-8.202c-1.487,1.898-1.413,6.745-1.413,9.018
		c0,2.653-0.366,5.349-0.792,8c-0.487,3.021-2.539,5.867-5.188,4.744C7.708,43.794,10.554,29.278,10.141,26.975z"/>
	<path fill="none" stroke="#000000" stroke-width="2" stroke-miterlimit="10" d="M21.84,4.734c3.545,0.708,6.573,3.431,8.431,6.341"
		/>
</g>
</svg>
