<?xml version="1.0" encoding="utf-8"?>
<!-- Generator: Adobe Illustrator 16.0.0, SVG Export Plug-In . SVG Version: 6.00 Build 0)  -->
<!DOCTYPE svg PUBLIC "-//W3C//DTD SVG 1.1//EN" "http://www.w3.org/Graphics/SVG/1.1/DTD/svg11.dtd">
<svg version="1.1" id="Layer_1" xmlns="http://www.w3.org/2000/svg" xmlns:xlink="http://www.w3.org/1999/xlink" x="0px" y="0px"
	 width="48px" height="48px" viewBox="0 0 48 48" enable-background="new 0 0 48 48" xml:space="preserve">
<g>
	<g>
		<polyline fill="none" stroke="#000000" stroke-width="2" stroke-linejoin="round" stroke-miterlimit="10" points="23.293,19.888 
			11.001,47 31.043,33.866 		"/>
		<polyline fill="none" stroke="#000000" stroke-width="2" stroke-linejoin="round" stroke-miterlimit="10" points="24.707,19.888 
			36.999,47 16.924,33.938 		"/>
	</g>
	
		<circle fill="none" stroke="#000000" stroke-width="2" stroke-linejoin="round" stroke-miterlimit="10" cx="23.999" cy="13.23" r="3.445"/>
	<g>
		<path fill="none" stroke="#000000" stroke-width="2" stroke-linejoin="round" stroke-miterlimit="10" d="M16.679,22.057
			c-2.498-2.125-4.083-5.292-4.083-8.825c0-2.8,0.992-5.368,2.646-7.373"/>
		<path fill="none" stroke="#000000" stroke-width="2" stroke-linejoin="round" stroke-miterlimit="10" d="M11.731,27.88
			c-4.146-3.526-6.776-8.782-6.776-14.646c0-4.648,1.648-8.91,4.391-12.234"/>
		<path fill="none" stroke="#000000" stroke-width="2" stroke-linejoin="round" stroke-miterlimit="10" d="M31.32,22.057
			c2.498-2.125,4.082-5.292,4.082-8.825c0-2.8-0.992-5.368-2.645-7.373"/>
		<path fill="none" stroke="#000000" stroke-width="2" stroke-linejoin="round" stroke-miterlimit="10" d="M36.269,27.88
			c4.146-3.526,6.776-8.782,6.776-14.646c0-4.648-1.649-8.91-4.393-12.234"/>
	</g>
</g>
</svg>
