<?xml version="1.0" encoding="utf-8"?>
<!-- Generator: Adobe Illustrator 16.0.0, SVG Export Plug-In . SVG Version: 6.00 Build 0)  -->
<!DOCTYPE svg PUBLIC "-//W3C//DTD SVG 1.1//EN" "http://www.w3.org/Graphics/SVG/1.1/DTD/svg11.dtd">
<svg version="1.1" id="Layer_1" xmlns="http://www.w3.org/2000/svg" xmlns:xlink="http://www.w3.org/1999/xlink" x="0px" y="0px"
	 width="48px" height="48px" viewBox="0 0 48 48" enable-background="new 0 0 48 48" xml:space="preserve">
<g>
	<g>
		<path d="M12.154,26.541c1.985,0,3.723,1.511,4.5,3.691H7.654C8.431,28.052,10.168,26.541,12.154,26.541 M12.154,24.541
			c-3.674,0-6.678,3.397-6.916,7.691H19.07C18.832,27.938,15.827,24.541,12.154,24.541L12.154,24.541z"/>
	</g>
	<g>
		<path fill="none" stroke="#000000" stroke-width="2" stroke-miterlimit="10" d="M26.428,10.589H44c1.65,0,3,1.35,3,3v24.077
			c0,1.65-1.35,3-3,3H4c-1.65,0-3-1.35-3-3V13.589c0-1.65,1.35-3,3-3h17.668"/>
	</g>
	<circle fill="none" stroke="#000000" stroke-width="2" stroke-miterlimit="10" cx="12.154" cy="19.602" r="3.117"/>
	<line fill="none" stroke="#000000" stroke-width="2" stroke-miterlimit="10" x1="25.271" y1="17.722" x2="40.363" y2="17.722"/>
	<line fill="none" stroke="#000000" stroke-width="2" stroke-miterlimit="10" x1="25.271" y1="22.342" x2="40.363" y2="22.342"/>
	<line fill="none" stroke="#000000" stroke-width="2" stroke-miterlimit="10" x1="25.271" y1="26.959" x2="40.363" y2="26.959"/>
	<line fill="none" stroke="#000000" stroke-width="2" stroke-miterlimit="10" x1="31.641" y1="36.529" x2="40.363" y2="36.529"/>
	<line fill="none" stroke="#000000" stroke-width="2" stroke-miterlimit="10" x1="7.3" y1="36.529" x2="16.019" y2="36.529"/>
	<rect x="21.572" y="7.334" fill="none" stroke="#000000" stroke-width="2" stroke-miterlimit="10" width="4.855" height="7.659"/>
</g>
</svg>
