<?xml version="1.0" encoding="utf-8"?>
<!-- Generator: Adobe Illustrator 16.0.0, SVG Export Plug-In . SVG Version: 6.00 Build 0)  -->
<!DOCTYPE svg PUBLIC "-//W3C//DTD SVG 1.1//EN" "http://www.w3.org/Graphics/SVG/1.1/DTD/svg11.dtd">
<svg version="1.1" id="Layer_1" xmlns="http://www.w3.org/2000/svg" xmlns:xlink="http://www.w3.org/1999/xlink" x="0px" y="0px"
	 width="48px" height="48px" viewBox="0 0 48 48" enable-background="new 0 0 48 48" xml:space="preserve">
<g>
	<ellipse fill="none" stroke="#000000" stroke-width="2" stroke-miterlimit="10" cx="40.88" cy="20.208" rx="6.12" ry="16.583"/>
	<path fill="none" stroke="#000000" stroke-width="2" stroke-miterlimit="10" d="M31.633,11.454c0,0-13.098,4.724-24.372,5.222"/>
	<path fill="none" stroke="#000000" stroke-width="2" stroke-miterlimit="10" d="M34.761,20.208c0-7.5,1.837-13.833,4.358-15.884
		C28.773,10.548,3.614,14.342,3.614,14.342S1,18.604,1,20.208c0,1.606,2.614,5.866,2.614,5.866s1.68,0.252,4.346,0.735L3.03,42.22
		c0,0-0.141,0.59,0.208,1.26c0.467,0.896,1.095,0.896,1.095,0.896h7.946c0,0,0.684,0,1.281-0.688
		c0.431-0.498,0.553-1.468,0.553-1.468l2.627-13.64c7.74,1.731,17.035,4.298,22.38,7.512C36.598,34.042,34.761,27.708,34.761,20.208
		z"/>
</g>
</svg>
