<?xml version="1.0" encoding="utf-8"?>
<!-- Generator: Adobe Illustrator 16.0.0, SVG Export Plug-In . SVG Version: 6.00 Build 0)  -->
<!DOCTYPE svg PUBLIC "-//W3C//DTD SVG 1.1//EN" "http://www.w3.org/Graphics/SVG/1.1/DTD/svg11.dtd">
<svg version="1.1" id="Layer_1" xmlns="http://www.w3.org/2000/svg" xmlns:xlink="http://www.w3.org/1999/xlink" x="0px" y="0px"
	 width="48px" height="48px" viewBox="0 0 48 48" enable-background="new 0 0 48 48" xml:space="preserve">
<g>
	<g>
		<path fill="none" stroke="#000000" stroke-width="2" stroke-miterlimit="10" d="M47,40c0,3.85-3.15,7-7,7H8c-3.85,0-7-3.15-7-7V8
			c0-3.85,3.15-7,7-7h32c3.85,0,7,3.15,7,7V40z"/>
	</g>
	<path fill="none" stroke="#000000" stroke-width="2" stroke-miterlimit="10" d="M21.592,5.313H10.344
		c-2.768,0-5.031,2.265-5.031,5.031v27.313c0,2.767,2.264,5.031,5.031,5.031h11.248V5.313z"/>
	<g>
		<path fill="none" stroke="#000000" stroke-width="2" stroke-miterlimit="10" d="M42.688,21.591V10.344
			c0-2.767-2.264-5.031-5.031-5.031H26.408v16.278H42.688z"/>
		<path fill="none" stroke="#000000" stroke-width="2" stroke-miterlimit="10" d="M26.408,26.409v16.278h11.248
			c2.768,0,5.031-2.265,5.031-5.031V26.409H26.408z"/>
	</g>
</g>
</svg>
