<?xml version="1.0" encoding="utf-8"?>
<!-- Generator: Adobe Illustrator 16.0.0, SVG Export Plug-In . SVG Version: 6.00 Build 0)  -->
<!DOCTYPE svg PUBLIC "-//W3C//DTD SVG 1.1//EN" "http://www.w3.org/Graphics/SVG/1.1/DTD/svg11.dtd">
<svg version="1.1" id="Layer_1" xmlns="http://www.w3.org/2000/svg" xmlns:xlink="http://www.w3.org/1999/xlink" x="0px" y="0px"
	 width="48px" height="48px" viewBox="0 0 48 48" enable-background="new 0 0 48 48" xml:space="preserve">
<g>
	<path fill="none" stroke="#000000" stroke-width="2" stroke-miterlimit="10" d="M36.717,9.784c0,2.609-2.133,4.741-4.741,4.741
		H5.74C3.133,14.525,1,12.394,1,9.784V5.741C1,3.134,3.133,1,5.74,1h26.235c2.608,0,4.741,2.134,4.741,4.741V9.784z"/>
	<path fill="none" stroke="#000000" stroke-width="2" stroke-miterlimit="10" d="M4.128,8.208V6.207c0,0,0.197-1.774,2.562-1.774
		c2.366,0,24.344,0,24.344,0"/>
	<polyline fill="none" stroke="#000000" stroke-width="2" stroke-miterlimit="10" points="36.717,7.763 47,7.763 47,19.854 
		18.858,19.854 18.858,27.543 	"/>
	
		<rect x="15.086" y="27.837" fill="none" stroke="#000000" stroke-width="2" stroke-miterlimit="10" width="7.545" height="19.163"/>
</g>
</svg>
