<?xml version="1.0" encoding="utf-8"?>
<!-- Generator: Adobe Illustrator 16.0.0, SVG Export Plug-In . SVG Version: 6.00 Build 0)  -->
<!DOCTYPE svg PUBLIC "-//W3C//DTD SVG 1.1//EN" "http://www.w3.org/Graphics/SVG/1.1/DTD/svg11.dtd">
<svg version="1.1" id="Layer_1" xmlns="http://www.w3.org/2000/svg" xmlns:xlink="http://www.w3.org/1999/xlink" x="0px" y="0px"
	 width="48px" height="48px" viewBox="0 0 48 48" enable-background="new 0 0 48 48" xml:space="preserve">
<g>
	<path fill="none" stroke="#000000" stroke-width="2" stroke-miterlimit="10" d="M1,41.726c0-2.222,1.818-4.039,4.04-4.039h37.922
		c2.22,0,4.038,1.817,4.038,4.039v1.233C47,45.183,45.182,47,42.962,47H5.04C2.818,47,1,45.183,1,42.959V41.726z"/>
	<path fill="none" stroke="#000000" stroke-width="2" stroke-miterlimit="10" d="M1,23.382c0-2.222,1.818-4.039,4.04-4.039h37.922
		c2.22,0,4.038,1.817,4.038,4.039v1.234c0,2.222-1.818,4.041-4.038,4.041H5.04c-2.222,0-4.04-1.819-4.04-4.041V23.382z"/>
	<path fill="none" stroke="#000000" stroke-width="2" stroke-miterlimit="10" d="M1,5.039C1,2.817,2.818,1,5.04,1h37.922
		C45.182,1,47,2.817,47,5.039v1.233c0,2.224-1.818,4.04-4.038,4.04H5.04C2.818,10.312,1,8.496,1,6.274V5.039z"/>
</g>
</svg>
