<?xml version="1.0" encoding="utf-8"?>
<!-- Generator: Adobe Illustrator 16.0.0, SVG Export Plug-In . SVG Version: 6.00 Build 0)  -->
<!DOCTYPE svg PUBLIC "-//W3C//DTD SVG 1.1//EN" "http://www.w3.org/Graphics/SVG/1.1/DTD/svg11.dtd">
<svg version="1.1" id="Layer_1" xmlns="http://www.w3.org/2000/svg" xmlns:xlink="http://www.w3.org/1999/xlink" x="0px" y="0px"
	 width="48px" height="48px" viewBox="0 0 48 48" enable-background="new 0 0 48 48" xml:space="preserve">
<g>
	<g>
		<path fill="none" stroke="#000000" stroke-width="2" stroke-miterlimit="10" d="M47,6.272c0,2.222-1.815,4.04-4.039,4.04H21.57
			c-2.222,0-4.039-1.817-4.039-4.04V5.039C17.531,2.815,19.349,1,21.57,1h21.391C45.185,1,47,2.815,47,5.039V6.272z"/>
		<circle fill="none" stroke="#000000" stroke-width="2" stroke-miterlimit="10" cx="5.657" cy="5.657" r="4.657"/>
	</g>
	<g>
		<path fill="none" stroke="#000000" stroke-width="2" stroke-miterlimit="10" d="M47,24.616c0,2.222-1.815,4.041-4.039,4.041H21.57
			c-2.222,0-4.039-1.819-4.039-4.041v-1.234c0-2.222,1.817-4.041,4.039-4.041h21.391c2.224,0,4.039,1.819,4.039,4.041V24.616z"/>
		<circle fill="none" stroke="#000000" stroke-width="2" stroke-miterlimit="10" cx="5.657" cy="24" r="4.657"/>
	</g>
	<g>
		<path fill="none" stroke="#000000" stroke-width="2" stroke-miterlimit="10" d="M47,42.959C47,45.183,45.185,47,42.961,47H21.57
			c-2.222,0-4.039-1.817-4.039-4.041v-1.233c0-2.222,1.817-4.039,4.039-4.039h21.391c2.224,0,4.039,1.817,4.039,4.039V42.959z"/>
		<circle fill="none" stroke="#000000" stroke-width="2" stroke-miterlimit="10" cx="5.657" cy="42.343" r="4.657"/>
	</g>
</g>
</svg>
