<?xml version="1.0" encoding="utf-8"?>
<!-- Generator: Adobe Illustrator 16.0.0, SVG Export Plug-In . SVG Version: 6.00 Build 0)  -->
<!DOCTYPE svg PUBLIC "-//W3C//DTD SVG 1.1//EN" "http://www.w3.org/Graphics/SVG/1.1/DTD/svg11.dtd">
<svg version="1.1" id="Layer_1" xmlns="http://www.w3.org/2000/svg" xmlns:xlink="http://www.w3.org/1999/xlink" x="0px" y="0px"
	 width="48px" height="48px" viewBox="0 0 48 48" enable-background="new 0 0 48 48" xml:space="preserve">
<g>
	<polyline fill="none" stroke="#000000" stroke-width="2" stroke-linejoin="round" stroke-miterlimit="10" points="24,43.947 
		29.052,43.354 29.052,35.396 	"/>
	
		<line fill="none" stroke="#000000" stroke-width="2" stroke-linejoin="round" stroke-miterlimit="10" x1="36.78" y1="45.018" x2="29.052" y2="43.354"/>
	<circle fill="none" stroke="#000000" stroke-miterlimit="10" cx="38.583" cy="7.26" r="1.802"/>
	<path fill="none" stroke="#000000" stroke-width="2" stroke-linejoin="round" stroke-miterlimit="10" d="M47,10.305
		c0,0-10.279-1.044-7.318,6.971c2.963,8.015,0.348,17.945-10.63,18.12C18.076,35.569,1,32.26,1,32.26l9.757-2.614L7.97,27.555
		c0,0,21.633-1.666,23.648-12.982c1.51-8.49,2.141-11.412,6.67-11.586C42.818,2.813,45.954,8.214,47,10.305z"/>
	<path fill="none" stroke="#000000" stroke-width="2" stroke-linejoin="round" stroke-miterlimit="10" d="M31.828,20.09
		c0,0,6.351,3.229,2.704,6.822c-3.645,3.592-11.455,4.218-18.693,2.967"/>
</g>
</svg>
