<?xml version="1.0" encoding="utf-8"?>
<!-- Generator: Adobe Illustrator 16.0.0, SVG Export Plug-In . SVG Version: 6.00 Build 0)  -->
<!DOCTYPE svg PUBLIC "-//W3C//DTD SVG 1.1//EN" "http://www.w3.org/Graphics/SVG/1.1/DTD/svg11.dtd">
<svg version="1.1" id="Layer_1" xmlns="http://www.w3.org/2000/svg" xmlns:xlink="http://www.w3.org/1999/xlink" x="0px" y="0px"
	 width="48px" height="48px" viewBox="0 0 48 48" enable-background="new 0 0 48 48" xml:space="preserve">
<g>
	<path fill="none" stroke="#000000" stroke-width="2" stroke-linejoin="round" stroke-miterlimit="10" d="M47,39.97
		c0,3.884-3.147,7.03-7.029,7.03s-7.03-3.146-7.03-7.03c0-3.882,7.03-14.981,7.03-14.981S47,36.088,47,39.97z"/>
	<path fill="none" stroke="#000000" stroke-width="2" stroke-linejoin="round" stroke-miterlimit="10" d="M35.65,15.981
		c0,3.882-3.147,7.03-7.029,7.03s-7.029-3.148-7.029-7.03S28.621,1,28.621,1S35.65,12.1,35.65,15.981z"/>
	<path fill="none" stroke="#000000" stroke-width="2" stroke-linejoin="round" stroke-miterlimit="10" d="M15.06,30.02
		c0,3.882-3.148,7.03-7.03,7.03S1,33.901,1,30.02s7.029-14.981,7.029-14.981S15.06,26.138,15.06,30.02z"/>
</g>
</svg>
