<?xml version="1.0" encoding="utf-8"?>
<!-- Generator: Adobe Illustrator 16.0.0, SVG Export Plug-In . SVG Version: 6.00 Build 0)  -->
<!DOCTYPE svg PUBLIC "-//W3C//DTD SVG 1.1//EN" "http://www.w3.org/Graphics/SVG/1.1/DTD/svg11.dtd">
<svg version="1.1" id="Layer_1" xmlns="http://www.w3.org/2000/svg" xmlns:xlink="http://www.w3.org/1999/xlink" x="0px" y="0px"
	 width="48px" height="48px" viewBox="0 0 48 48" enable-background="new 0 0 48 48" xml:space="preserve">
<g>
	<path fill="none" stroke="#000000" stroke-width="2" stroke-linejoin="round" stroke-miterlimit="10" d="M35.826,7.667
		c-0.81,0-1.591,0.127-2.332,0.354C32.806,4.028,29.508,1,25.532,1c-2.03,0-3.879,0.793-5.301,2.098
		c-1.358-1.138-3.071-1.821-4.937-1.821c-4.401,0-7.97,3.773-7.97,8.429c0,1.146,0.218,2.235,0.609,3.23
		c-2.447,1.385-4.112,4.112-4.112,7.253c0,4.542,3.481,8.223,7.777,8.223c2.241,0,4.253-1.008,5.672-2.611
		c0.882,0.563,1.898,1.046,3.011,1.443v15.925h-4.024V47h13.795v-3.831h-4.024V28.37c0.425,0.022,0.852,0.042,1.285,0.042
		c4.776,0,8.982-1.453,11.452-3.658c3.159-1.257,5.413-4.475,5.413-8.258C44.179,11.618,40.439,7.667,35.826,7.667z"/>
</g>
</svg>
