<?xml version="1.0" encoding="utf-8"?>
<!-- Generator: Adobe Illustrator 16.0.0, SVG Export Plug-In . SVG Version: 6.00 Build 0)  -->
<!DOCTYPE svg PUBLIC "-//W3C//DTD SVG 1.1//EN" "http://www.w3.org/Graphics/SVG/1.1/DTD/svg11.dtd">
<svg version="1.1" id="Layer_1" xmlns="http://www.w3.org/2000/svg" xmlns:xlink="http://www.w3.org/1999/xlink" x="0px" y="0px"
	 width="48px" height="48px" viewBox="0 0 48 48" enable-background="new 0 0 48 48" xml:space="preserve">
<g>
	<path fill="none" stroke="#000000" stroke-miterlimit="10" d="M28.685,21.703h1.842c4.881,0,8.873-4.243,8.873-9.432V1H19.811
		v11.271C19.811,17.46,23.803,21.703,28.685,21.703z"/>
	<path fill="none" stroke="#000000" stroke-width="2" stroke-miterlimit="10" d="M39.399,1v11.271c0,5.188-3.992,9.432-8.873,9.432
		h-1.842c-4.881,0-8.874-4.243-8.874-9.432V1h-4.764v13.321c0,6.611,4.93,12.123,11.296,13.05c-0.104,0.28-0.168,0.578-0.168,0.893
		v16.099c0,1.451,1.188,2.638,2.639,2.638h1.583c1.451,0,2.638-1.187,2.638-2.638V28.264c0-0.314-0.064-0.612-0.167-0.893
		c6.366-0.927,11.296-6.439,11.296-13.05V1H39.399z"/>
	<path fill="none" stroke="#000000" stroke-width="2" stroke-miterlimit="10" d="M15.047,2.254
		c-3.216-0.587-7.065,2.411-8.934,6.334c-1.473,3.098-2.129,6.66-2.246,10.038c-0.12,3.549,0.024,6.617,1.731,9.705
		c1.612,2.911,2.982,5.003,6.514,5.168c4.631,0.217,8.392-3.455,11.337-6.896"/>
	<path fill="none" stroke="#000000" stroke-width="2" stroke-miterlimit="10" d="M26.679,21.456
		c1.411-3.599,3.784-9.409,4.988-12.984c0.58-1.729,1.319-3.304,2.561-4.793c1.079-1.295,3.612-1.908,5.172-2.375"/>
</g>
</svg>
