<?xml version="1.0" encoding="utf-8"?>
<!-- Generator: Adobe Illustrator 16.0.0, SVG Export Plug-In . SVG Version: 6.00 Build 0)  -->
<!DOCTYPE svg PUBLIC "-//W3C//DTD SVG 1.1//EN" "http://www.w3.org/Graphics/SVG/1.1/DTD/svg11.dtd">
<svg version="1.1" id="Layer_1" xmlns="http://www.w3.org/2000/svg" xmlns:xlink="http://www.w3.org/1999/xlink" x="0px" y="0px"
	 width="48px" height="48px" viewBox="0 0 48 48" enable-background="new 0 0 48 48" xml:space="preserve">
<g>
	<circle fill="none" stroke="#000000" stroke-width="2" stroke-linejoin="round" stroke-miterlimit="10" cx="24" cy="24" r="23"/>
	<path fill="none" stroke="#000000" stroke-width="2" stroke-linejoin="round" stroke-miterlimit="10" d="M14.494,35.345
		c0,0,0.784,4.361,5.998,5.209c4.252,0.688,9.027-5.752,14.012-1.952"/>
	<g>
		<path fill="none" stroke="#000000" stroke-width="2" stroke-linejoin="round" stroke-miterlimit="10" d="M20.309,25.217
			c0,2.479-2.008,4.484-4.486,4.484c-2.476,0-4.483-2.005-4.483-4.484c0-2.475,2.007-4.483,4.483-4.483
			C18.301,20.734,20.309,22.742,20.309,25.217z"/>
		<path fill="none" stroke="#000000" stroke-width="2" stroke-linejoin="round" stroke-miterlimit="10" d="M36.66,25.217
			c0,2.479-2.008,4.484-4.485,4.484c-2.476,0-4.482-2.005-4.482-4.484c0-2.475,2.007-4.483,4.482-4.483
			C34.652,20.734,36.66,22.742,36.66,25.217z"/>
	</g>
	<path fill="none" stroke="#000000" stroke-width="2" stroke-linejoin="round" stroke-miterlimit="10" d="M2.41,16.055
		c0,0,19.782,6.839,29.765-9.048c0,0,2.925,13.463,14.597,13.728"/>
</g>
</svg>
