<?xml version="1.0" encoding="utf-8"?>
<!-- Generator: Adobe Illustrator 16.0.0, SVG Export Plug-In . SVG Version: 6.00 Build 0)  -->
<!DOCTYPE svg PUBLIC "-//W3C//DTD SVG 1.1//EN" "http://www.w3.org/Graphics/SVG/1.1/DTD/svg11.dtd">
<svg version="1.1" id="Layer_1" xmlns="http://www.w3.org/2000/svg" xmlns:xlink="http://www.w3.org/1999/xlink" x="0px" y="0px"
	 width="48px" height="48px" viewBox="0 0 48 48" enable-background="new 0 0 48 48" xml:space="preserve">
<g>
	<path fill="none" stroke="#000000" stroke-width="2" stroke-miterlimit="10" d="M47.128,45.48c0,0.838-0.681,1.52-1.521,1.52H2.394
		c-0.84,0-1.522-0.682-1.522-1.52V14.753c0-0.838,0.682-1.521,1.522-1.521l21.607,15.203l21.605-15.203
		c0.841,0,1.521,0.682,1.521,1.521V45.48z"/>
	<path fill="none" stroke="#000000" stroke-width="2" stroke-miterlimit="10" d="M7.052,16.172V2.521C7.052,1.68,7.732,1,8.572,1
		h30.854c0.841,0,1.521,0.68,1.521,1.521v13.651"/>
	<line fill="none" stroke="#000000" stroke-width="2" stroke-miterlimit="10" x1="15.398" y1="10.047" x2="32.602" y2="10.047"/>
	<line fill="none" stroke="#000000" stroke-width="2" stroke-miterlimit="10" x1="15.398" y1="16.128" x2="32.602" y2="16.128"/>
</g>
</svg>
