<?xml version="1.0" encoding="utf-8"?>
<!-- Generator: Adobe Illustrator 16.0.0, SVG Export Plug-In . SVG Version: 6.00 Build 0)  -->
<!DOCTYPE svg PUBLIC "-//W3C//DTD SVG 1.1//EN" "http://www.w3.org/Graphics/SVG/1.1/DTD/svg11.dtd">
<svg version="1.1" id="Layer_1" xmlns="http://www.w3.org/2000/svg" xmlns:xlink="http://www.w3.org/1999/xlink" x="0px" y="0px"
	 width="48px" height="48px" viewBox="0 0 48 48" enable-background="new 0 0 48 48" xml:space="preserve">
<g>
	<path fill="none" stroke="#000000" stroke-width="2" stroke-miterlimit="10" d="M46.676,45.406c0,0.837-0.677,1.516-1.516,1.516
		H2.517C1.679,46.922,1,46.243,1,45.406V2.595c0-0.838,0.679-1.517,1.517-1.517H45.16c0.839,0,1.516,0.679,1.516,1.517V45.406z"/>
	<line fill="none" stroke="#000000" stroke-width="2" stroke-miterlimit="10" x1="9.081" y1="9.982" x2="38.102" y2="9.982"/>
	<line fill="none" stroke="#000000" stroke-width="2" stroke-miterlimit="10" x1="9.081" y1="17.565" x2="38.102" y2="17.565"/>
	<line fill="none" stroke="#000000" stroke-width="2" stroke-miterlimit="10" x1="9.081" y1="25.147" x2="38.102" y2="25.147"/>
	<path fill="none" stroke="#000000" stroke-width="2" stroke-miterlimit="10" d="M47,34.554H31.835v5.245
		c0,0.838-0.68,1.516-1.516,1.516H17.687c-0.838,0-1.518-0.678-1.518-1.516v-5.245H1.006"/>
</g>
</svg>
