<?xml version="1.0" encoding="utf-8"?>
<!-- Generator: Adobe Illustrator 16.0.0, SVG Export Plug-In . SVG Version: 6.00 Build 0)  -->
<!DOCTYPE svg PUBLIC "-//W3C//DTD SVG 1.1//EN" "http://www.w3.org/Graphics/SVG/1.1/DTD/svg11.dtd">
<svg version="1.1" id="Layer_1" xmlns="http://www.w3.org/2000/svg" xmlns:xlink="http://www.w3.org/1999/xlink" x="0px" y="0px"
	 width="48px" height="48px" viewBox="0 0 48 48" enable-background="new 0 0 48 48" xml:space="preserve">
<g>
	<path fill="none" stroke="#000000" stroke-width="2" stroke-miterlimit="10" d="M47,34.556H31.833v5.245
		c0,0.838-0.679,1.516-1.516,1.516H17.683c-0.838,0-1.516-0.678-1.516-1.516v-5.245H1"/>
	<path fill="none" stroke="#000000" stroke-width="2" stroke-miterlimit="10" d="M40.541,13.28h4.941
		c0.838,0,1.518,0.678,1.518,1.517V45.41c0,0.837-0.68,1.514-1.518,1.514H2.518C1.679,46.924,1,46.247,1,45.41V14.797
		c0-0.839,0.679-1.517,1.518-1.517h4.545"/>
	<path fill="none" stroke="#000000" stroke-width="2" stroke-miterlimit="10" d="M7.229,34.711V2.593
		c0-0.838,0.679-1.517,1.516-1.517h30.444c0.836,0,1.518,0.679,1.518,1.517v32.118"/>
	<line fill="none" stroke="#000000" stroke-width="2" stroke-miterlimit="10" x1="15.144" y1="9.981" x2="32.46" y2="9.981"/>
	<line fill="none" stroke="#000000" stroke-width="2" stroke-miterlimit="10" x1="15.144" y1="17.565" x2="32.46" y2="17.565"/>
	<line fill="none" stroke="#000000" stroke-width="2" stroke-miterlimit="10" x1="15.144" y1="25.148" x2="32.46" y2="25.148"/>
</g>
</svg>
