<?xml version="1.0" encoding="utf-8"?>
<!-- Generator: Adobe Illustrator 16.0.0, SVG Export Plug-In . SVG Version: 6.00 Build 0)  -->
<!DOCTYPE svg PUBLIC "-//W3C//DTD SVG 1.1//EN" "http://www.w3.org/Graphics/SVG/1.1/DTD/svg11.dtd">
<svg version="1.1" id="Layer_1" xmlns="http://www.w3.org/2000/svg" xmlns:xlink="http://www.w3.org/1999/xlink" x="0px" y="0px"
	 width="48px" height="48px" viewBox="0 0 48 48" enable-background="new 0 0 48 48" xml:space="preserve">
<g>
	<g>
		<path d="M40.484,39.356L9.908,39.298C4.296,38.728,0,34.034,0,28.308c0-5.996,4.801-10.892,10.759-11.05
			c0.556-3.438,3.546-6.037,7.103-6.037c1.629,0,3.178,0.54,4.441,1.533c2.188-2.587,5.431-4.11,8.837-4.11
			c6.377,0,11.564,5.187,11.564,11.563c0,1.479-0.27,2.905-0.807,4.254C45.396,25.12,48,28.175,48,31.843
			C48,35.987,44.629,39.356,40.484,39.356z M10.896,37.823h29.589c3.299,0,5.98-2.684,5.98-5.98c0-3.219-2.516-5.844-5.729-5.975
			l-1.195-0.053l0.543-1.063c0.723-1.417,1.088-2.944,1.088-4.546c0-5.53-4.498-10.03-10.031-10.03
			c-3.199,0-6.234,1.549-8.117,4.142l-0.527,0.727l-0.635-0.635c-1.07-1.066-2.49-1.655-4-1.655c-2.992,0-5.475,2.337-5.651,5.321
			l-0.044,0.745l-1.114-0.034c-5.249,0-9.519,4.271-9.519,9.521c0,5.146,4.027,9.324,9.168,9.51L10.896,37.823z"/>
	</g>
</g>
</svg>
