<?xml version="1.0" encoding="utf-8"?>
<!-- Generator: Adobe Illustrator 16.0.0, SVG Export Plug-In . SVG Version: 6.00 Build 0)  -->
<!DOCTYPE svg PUBLIC "-//W3C//DTD SVG 1.1//EN" "http://www.w3.org/Graphics/SVG/1.1/DTD/svg11.dtd">
<svg version="1.1" id="Layer_1" xmlns="http://www.w3.org/2000/svg" xmlns:xlink="http://www.w3.org/1999/xlink" x="0px" y="0px"
	 width="48px" height="48px" viewBox="0 0 48 48" enable-background="new 0 0 48 48" xml:space="preserve">
<g>
	<g>
		<path d="M40.48,32.819H26.463V31.28H40.48c3.297,0,5.979-2.684,5.979-5.979c0-3.216-2.516-5.84-5.725-5.975l-1.199-0.047
			l0.543-1.071c0.723-1.415,1.088-2.944,1.088-4.544c0-5.526-4.496-10.026-10.025-10.026c-3.197,0-6.232,1.549-8.117,4.142
			L22.497,8.51l-0.639-0.638c-1.066-1.066-2.486-1.655-3.998-1.655c-2.99,0-5.471,2.336-5.646,5.316l-0.043,0.752l-1.117-0.034
			c-5.246,0-9.514,4.268-9.514,9.513c0,5.146,4.025,9.323,9.162,9.507l0.196,0.01h10.637v1.539l-11.63-0.061
			C4.294,32.187,0,27.493,0,21.764c0-5.994,4.799-10.891,10.757-11.049c0.557-3.439,3.544-6.039,7.103-6.039
			c1.631,0,3.18,0.541,4.441,1.535c2.188-2.59,5.431-4.11,8.839-4.11c6.377,0,11.564,5.188,11.564,11.564
			c0,1.477-0.27,2.902-0.805,4.252c3.498,0.662,6.1,3.716,6.1,7.385C48,29.444,44.627,32.819,40.48,32.819z"/>
	</g>
	<g>
		<polygon points="17.034,23.839 15.946,22.75 23.979,14.716 32.012,22.75 30.924,23.839 23.979,16.894 		"/>
	</g>
	<g>
		<rect x="23.209" y="16.319" width="1.539" height="29.58"/>
	</g>
</g>
</svg>
