<?xml version="1.0" encoding="utf-8"?>
<!-- Generator: Adobe Illustrator 16.0.0, SVG Export Plug-In . SVG Version: 6.00 Build 0)  -->
<!DOCTYPE svg PUBLIC "-//W3C//DTD SVG 1.1//EN" "http://www.w3.org/Graphics/SVG/1.1/DTD/svg11.dtd">
<svg version="1.1" id="Layer_1" xmlns="http://www.w3.org/2000/svg" xmlns:xlink="http://www.w3.org/1999/xlink" x="0px" y="0px"
	 width="48px" height="48px" viewBox="0 0 48 48" enable-background="new 0 0 48 48" xml:space="preserve">
<g>
	<g>
		<path fill="none" stroke="#000000" stroke-width="2" stroke-linecap="round" stroke-linejoin="round" stroke-miterlimit="10" d="
			M47,45c0,1.1-0.9,2-2,2H3c-1.1,0-2-0.9-2-2V3c0-1.1,0.9-2,2-2h42c1.1,0,2,0.9,2,2V45z"/>
	</g>
	<path fill="none" stroke="#000000" stroke-width="2" stroke-linecap="round" stroke-linejoin="round" stroke-miterlimit="10" d="
		M41.148,24c0,9.469-7.677,17.146-17.146,17.146c-9.471,0-17.151-7.677-17.151-17.146c0-9.471,7.68-17.15,17.151-17.15
		C33.472,6.85,41.148,14.529,41.148,24z"/>
	
		<circle fill="none" stroke="#000000" stroke-width="2" stroke-linecap="round" stroke-linejoin="round" stroke-miterlimit="10" cx="24" cy="24" r="5.948"/>
	<circle cx="7.029" cy="6.85" r="2.624"/>
	<path d="M42.899,6.85c0,1.448-1.174,2.624-2.619,2.624c-1.45,0-2.627-1.176-2.627-2.624c0-1.449,1.177-2.622,2.627-2.622
		C41.726,4.228,42.899,5.401,42.899,6.85z"/>
	<path d="M9.653,40.971c0,1.453-1.175,2.627-2.626,2.627c-1.451,0-2.622-1.174-2.622-2.627c0-1.447,1.171-2.622,2.622-2.622
		C8.479,38.349,9.653,39.523,9.653,40.971z"/>
	<path d="M42.899,40.971c0,1.453-1.174,2.627-2.619,2.627c-1.45,0-2.627-1.174-2.627-2.627c0-1.447,1.177-2.622,2.627-2.622
		C41.726,38.349,42.899,39.523,42.899,40.971z"/>
</g>
</svg>
