<?xml version="1.0" encoding="utf-8"?>
<!-- Generator: Adobe Illustrator 16.0.0, SVG Export Plug-In . SVG Version: 6.00 Build 0)  -->
<!DOCTYPE svg PUBLIC "-//W3C//DTD SVG 1.1//EN" "http://www.w3.org/Graphics/SVG/1.1/DTD/svg11.dtd">
<svg version="1.1" id="Layer_1" xmlns="http://www.w3.org/2000/svg" xmlns:xlink="http://www.w3.org/1999/xlink" x="0px" y="0px"
	 width="48px" height="48px" viewBox="0 0 48 48" enable-background="new 0 0 48 48" xml:space="preserve">
<g>
	<path d="M48,0.77c-1.465-0.488-3.004-0.698-4.568-0.698v1.564c1.059,0,2.064,0.107,3.004,0.32v38.838
		c-1.885,0.131-5.332,0.432-9.127,1.047c-5.359,0.869-9.479,2.055-12.342,3.535V8.7c2.787-1.902,11.02-7.063,18.463-7.064
		l0.002-1.564H43.43C35.463,0.072,26.836,5.513,24,7.465C21.163,5.513,12.536,0.071,4.57,0.071c-1.565,0-3.104,0.21-4.57,0.698
		v41.495c0,0,15.94,0.719,23.032,4.883L24,47.929l0.966-0.781C32.059,42.983,48,42.265,48,42.265V0.77z M10.69,41.841
		c-3.795-0.615-7.242-0.916-9.126-1.047V1.956c0.939-0.213,1.946-0.32,3.006-0.32c7.427,0,15.672,5.162,18.461,7.066v36.674
		C20.168,43.896,16.049,42.71,10.69,41.841z"/>
	<polygon points="43.432,0.071 43.432,0.071 43.432,0.071 	"/>
</g>
</svg>
