<?xml version="1.0" encoding="utf-8"?>
<!-- Generator: Adobe Illustrator 16.0.0, SVG Export Plug-In . SVG Version: 6.00 Build 0)  -->
<!DOCTYPE svg PUBLIC "-//W3C//DTD SVG 1.1//EN" "http://www.w3.org/Graphics/SVG/1.1/DTD/svg11.dtd">
<svg version="1.1" id="Layer_1" xmlns="http://www.w3.org/2000/svg" xmlns:xlink="http://www.w3.org/1999/xlink" x="0px" y="0px"
	 width="48px" height="48px" viewBox="0 0 48 48" enable-background="new 0 0 48 48" xml:space="preserve">
<g>
	<g>
		<line fill="none" stroke="#000000" stroke-width="2" stroke-miterlimit="10" x1="16.017" y1="32.539" x2="31.143" y2="32.539"/>
		<line fill="none" stroke="#000000" stroke-width="2" stroke-miterlimit="10" x1="23.579" y1="24.977" x2="23.579" y2="40.103"/>
	</g>
	<path fill="none" stroke="#000000" stroke-width="2" stroke-miterlimit="10" d="M38.701,5.692h7.412C46.604,5.692,47,6.09,47,6.579
		V45.89c0,0.489-0.396,0.886-0.887,0.886H1.887C1.397,46.775,1,46.379,1,45.89V6.579C1,6.09,1.397,5.692,1.887,5.692H9.27"/>
	<line fill="none" stroke="#000000" stroke-width="2" stroke-miterlimit="10" x1="1" y1="18.333" x2="47" y2="18.333"/>
	<g>
		<path fill="none" stroke="#000000" stroke-width="2" stroke-miterlimit="10" d="M16.691,9.122c0,0.329-0.35,0.596-0.783,0.596
			h-4.941c-0.432,0-0.782-0.268-0.782-0.596V1.82c0-0.329,0.35-0.595,0.782-0.595h4.941c0.433,0,0.783,0.267,0.783,0.595V9.122z"/>
		<path fill="none" stroke="#000000" stroke-width="2" stroke-miterlimit="10" d="M37.817,9.122c0,0.329-0.353,0.596-0.784,0.596
			h-4.941c-0.431,0-0.782-0.268-0.782-0.596V1.82c0-0.329,0.352-0.595,0.782-0.595h4.941c0.432,0,0.784,0.267,0.784,0.595V9.122z"/>
	</g>
	<line fill="none" stroke="#000000" stroke-width="2" stroke-miterlimit="10" x1="17.583" y1="5.691" x2="30.442" y2="5.691"/>
</g>
</svg>
