<?xml version="1.0" encoding="utf-8"?>
<!-- Generator: Adobe Illustrator 16.0.0, SVG Export Plug-In . SVG Version: 6.00 Build 0)  -->
<!DOCTYPE svg PUBLIC "-//W3C//DTD SVG 1.1//EN" "http://www.w3.org/Graphics/SVG/1.1/DTD/svg11.dtd">
<svg version="1.1" id="Layer_1" xmlns="http://www.w3.org/2000/svg" xmlns:xlink="http://www.w3.org/1999/xlink" x="0px" y="0px"
	 width="48px" height="48px" viewBox="0 0 48 48" enable-background="new 0 0 48 48" xml:space="preserve">
<g>
	<g>
		<line fill="none" stroke="#000000" stroke-width="2" stroke-miterlimit="10" x1="18.232" y1="27.19" x2="28.929" y2="37.888"/>
		<line fill="none" stroke="#000000" stroke-width="2" stroke-miterlimit="10" x1="28.929" y1="27.19" x2="18.232" y2="37.888"/>
	</g>
	<path fill="none" stroke="#000000" stroke-width="2" stroke-miterlimit="10" d="M38.7,5.692h7.414C46.602,5.692,47,6.089,47,6.579
		v39.31c0,0.489-0.398,0.888-0.886,0.888H1.888C1.396,46.776,1,46.378,1,45.889V6.579c0-0.49,0.396-0.887,0.888-0.887h7.383"/>
	<line fill="none" stroke="#000000" stroke-width="2" stroke-miterlimit="10" x1="1" y1="18.333" x2="47" y2="18.333"/>
	<g>
		<path fill="none" stroke="#000000" stroke-width="2" stroke-miterlimit="10" d="M16.692,9.121c0,0.329-0.353,0.596-0.784,0.596
			h-4.941c-0.432,0-0.782-0.267-0.782-0.596V1.819c0-0.328,0.35-0.596,0.782-0.596h4.941c0.432,0,0.784,0.268,0.784,0.596V9.121z"/>
		<path fill="none" stroke="#000000" stroke-width="2" stroke-miterlimit="10" d="M37.817,9.121c0,0.329-0.352,0.596-0.783,0.596
			h-4.941c-0.435,0-0.782-0.267-0.782-0.596V1.819c0-0.328,0.348-0.596,0.782-0.596h4.941c0.432,0,0.783,0.268,0.783,0.596V9.121z"
			/>
	</g>
	<line fill="none" stroke="#000000" stroke-width="2" stroke-miterlimit="10" x1="17.583" y1="5.691" x2="30.442" y2="5.691"/>
</g>
</svg>
