<?xml version="1.0" encoding="utf-8"?>
<!-- Generator: Adobe Illustrator 16.0.0, SVG Export Plug-In . SVG Version: 6.00 Build 0)  -->
<!DOCTYPE svg PUBLIC "-//W3C//DTD SVG 1.1//EN" "http://www.w3.org/Graphics/SVG/1.1/DTD/svg11.dtd">
<svg version="1.1" id="Layer_1" xmlns="http://www.w3.org/2000/svg" xmlns:xlink="http://www.w3.org/1999/xlink" x="0px" y="0px"
	 width="48px" height="48px" viewBox="0 0 48 48" enable-background="new 0 0 48 48" xml:space="preserve">
<g>
	<path fill="none" stroke="#000000" stroke-width="2" stroke-miterlimit="10" d="M20.776,39.535H2.059
		c-0.414,0-0.749-0.335-0.749-0.75V5.531c0-0.415,0.335-0.75,0.749-0.75h6.246"/>
	<path fill="none" stroke="#000000" stroke-width="2" stroke-miterlimit="10" d="M33.202,4.781h6.272
		c0.412,0,0.749,0.335,0.749,0.75v17.438"/>
	<line fill="none" stroke="#000000" stroke-width="2" stroke-miterlimit="10" x1="1.31" y1="15.474" x2="40.224" y2="15.474"/>
	<g>
		<path fill="none" stroke="#000000" stroke-width="2" stroke-miterlimit="10" d="M14.583,7.681c0,0.278-0.298,0.503-0.661,0.503
			H9.74c-0.367,0-0.663-0.226-0.663-0.503V1.504C9.078,1.227,9.373,1,9.74,1h4.181c0.363,0,0.661,0.227,0.661,0.504V7.681z"/>
		<path fill="none" stroke="#000000" stroke-width="2" stroke-miterlimit="10" d="M32.456,7.681c0,0.278-0.298,0.503-0.663,0.503
			h-4.182c-0.365,0-0.66-0.226-0.66-0.503V1.504c0-0.278,0.295-0.504,0.66-0.504h4.182c0.365,0,0.663,0.227,0.663,0.504V7.681z"/>
	</g>
	<line fill="none" stroke="#000000" stroke-width="2" stroke-miterlimit="10" x1="15.338" y1="4.78" x2="26.215" y2="4.78"/>
	<circle fill="none" stroke="#000000" stroke-width="2" stroke-miterlimit="10" cx="32.704" cy="33.4" r="8.271"/>
	<line fill="none" stroke="#000000" stroke-width="2" stroke-miterlimit="10" x1="39.226" y1="39.535" x2="46.69" y2="47"/>
</g>
</svg>
