<?xml version="1.0" encoding="utf-8"?>
<!-- Generator: Adobe Illustrator 16.0.0, SVG Export Plug-In . SVG Version: 6.00 Build 0)  -->
<!DOCTYPE svg PUBLIC "-//W3C//DTD SVG 1.1//EN" "http://www.w3.org/Graphics/SVG/1.1/DTD/svg11.dtd">
<svg version="1.1" id="Layer_1" xmlns="http://www.w3.org/2000/svg" xmlns:xlink="http://www.w3.org/1999/xlink" x="0px" y="0px"
	 width="48px" height="48px" viewBox="0 0 48 48" enable-background="new 0 0 48 48" xml:space="preserve">
<g>
	<path fill="none" stroke="#000000" stroke-width="2" stroke-miterlimit="10" d="M20.218,38.087H2.205
		c-0.398,0-0.722-0.324-0.722-0.722V5.36c0-0.398,0.324-0.722,0.722-0.722h6.011"/>
	<path fill="none" stroke="#000000" stroke-width="2" stroke-miterlimit="10" d="M32.176,4.638h6.035
		c0.399,0,0.722,0.324,0.722,0.722v16.783"/>
	<line fill="none" stroke="#000000" stroke-width="2" stroke-miterlimit="10" x1="1.483" y1="14.93" x2="38.933" y2="14.93"/>
	<g>
		<path fill="none" stroke="#000000" stroke-width="2" stroke-miterlimit="10" d="M14.257,7.43c0,0.268-0.286,0.484-0.638,0.484
			H9.597c-0.353,0-0.637-0.217-0.637-0.484V1.486C8.96,1.218,9.244,1,9.597,1h4.023c0.352,0,0.638,0.218,0.638,0.486V7.43z"/>
		<path fill="none" stroke="#000000" stroke-width="2" stroke-miterlimit="10" d="M31.456,7.43c0,0.268-0.285,0.484-0.636,0.484
			h-4.023c-0.353,0-0.638-0.217-0.638-0.484V1.486C26.159,1.218,26.444,1,26.797,1h4.023c0.351,0,0.636,0.218,0.636,0.486V7.43z"/>
	</g>
	<line fill="none" stroke="#000000" stroke-width="2" stroke-miterlimit="10" x1="14.983" y1="4.638" x2="25.453" y2="4.638"/>
	<circle fill="none" stroke="#000000" stroke-width="2" stroke-miterlimit="10" cx="35.128" cy="35.611" r="11.39"/>
	<line fill="none" stroke="#000000" stroke-width="2" stroke-miterlimit="10" x1="35.127" y1="30.93" x2="35.127" y2="38.166"/>
	<line fill="none" stroke="#000000" stroke-width="2" stroke-miterlimit="10" x1="41.646" y1="37.444" x2="34.408" y2="37.444"/>
</g>
</svg>
