<?xml version="1.0" encoding="utf-8"?>
<!-- Generator: Adobe Illustrator 16.0.0, SVG Export Plug-In . SVG Version: 6.00 Build 0)  -->
<!DOCTYPE svg PUBLIC "-//W3C//DTD SVG 1.1//EN" "http://www.w3.org/Graphics/SVG/1.1/DTD/svg11.dtd">
<svg version="1.1" id="Layer_1" xmlns="http://www.w3.org/2000/svg" xmlns:xlink="http://www.w3.org/1999/xlink" x="0px" y="0px"
	 width="48px" height="48px" viewBox="0 0 48 48" enable-background="new 0 0 48 48" xml:space="preserve">
<g>
	<g>
		<path fill="none" stroke="#000000" stroke-width="2" stroke-miterlimit="10" d="M38.701,5.692h7.412
			C46.603,5.692,47,6.088,47,6.579v39.312c0,0.49-0.397,0.887-0.887,0.887H1.886C1.396,46.777,1,46.381,1,45.891V6.579
			c0-0.491,0.396-0.887,0.886-0.887h7.383"/>
		<line fill="none" stroke="#000000" stroke-width="2" stroke-miterlimit="10" x1="1" y1="18.333" x2="47" y2="18.333"/>
		<g>
			<path fill="none" stroke="#000000" stroke-width="2" stroke-miterlimit="10" d="M16.69,9.121c0,0.329-0.351,0.596-0.782,0.596
				h-4.941c-0.434,0-0.783-0.267-0.783-0.596V1.819c0-0.328,0.35-0.596,0.783-0.596h4.941c0.432,0,0.782,0.268,0.782,0.596V9.121z"
				/>
			<path fill="none" stroke="#000000" stroke-width="2" stroke-miterlimit="10" d="M37.816,9.121c0,0.329-0.352,0.596-0.782,0.596
				h-4.941c-0.434,0-0.784-0.267-0.784-0.596V1.819c0-0.328,0.351-0.596,0.784-0.596h4.941c0.431,0,0.782,0.268,0.782,0.596V9.121z"
				/>
		</g>
		<line fill="none" stroke="#000000" stroke-width="2" stroke-miterlimit="10" x1="17.583" y1="5.691" x2="30.441" y2="5.691"/>
	</g>
	<g>
		<path d="M16.115,37.729v-0.91l1.162-1.131c2.799-2.661,4.063-4.077,4.08-5.729c0-1.113-0.54-2.141-2.174-2.141
			c-0.996,0-1.82,0.504-2.327,0.927L16.384,27.7c0.758-0.642,1.837-1.112,3.101-1.112c2.36,0,3.355,1.618,3.355,3.185
			c0,2.023-1.466,3.658-3.775,5.883l-0.877,0.811v0.033h4.923v1.23H16.115z"/>
		<path d="M27.978,28.154h-0.033l-1.905,1.028l-0.287-1.129l2.395-1.28h1.265v10.956h-1.434V28.154z"/>
	</g>
</g>
</svg>
