<?xml version="1.0" encoding="utf-8"?>
<!-- Generator: Adobe Illustrator 16.0.0, SVG Export Plug-In . SVG Version: 6.00 Build 0)  -->
<!DOCTYPE svg PUBLIC "-//W3C//DTD SVG 1.1//EN" "http://www.w3.org/Graphics/SVG/1.1/DTD/svg11.dtd">
<svg version="1.1" id="Layer_1" xmlns="http://www.w3.org/2000/svg" xmlns:xlink="http://www.w3.org/1999/xlink" x="0px" y="0px"
	 width="48px" height="48px" viewBox="0 0 48 48" enable-background="new 0 0 48 48" xml:space="preserve">
<g>
	<path fill="none" stroke="#000000" stroke-width="2" stroke-miterlimit="10" d="M19.471,23.999c0,5.103-4.135,9.237-9.234,9.237
		C5.134,33.236,1,29.102,1,23.999c0-5.099,4.134-9.235,9.236-9.235C15.336,14.764,19.471,18.9,19.471,23.999z"/>
	<path fill="none" stroke="#000000" stroke-width="2" stroke-miterlimit="10" d="M47,23.999c0,5.103-4.137,9.237-9.235,9.237
		c-5.103,0-9.237-4.135-9.237-9.237c0-5.099,4.135-9.235,9.237-9.235C42.863,14.764,47,18.9,47,23.999z"/>
	<line fill="none" stroke="#000000" stroke-width="2" stroke-miterlimit="10" x1="10.236" y1="33.236" x2="37.068" y2="33.236"/>
</g>
</svg>
