<?xml version="1.0" encoding="utf-8"?>
<!-- Generator: Adobe Illustrator 16.0.0, SVG Export Plug-In . SVG Version: 6.00 Build 0)  -->
<!DOCTYPE svg PUBLIC "-//W3C//DTD SVG 1.1//EN" "http://www.w3.org/Graphics/SVG/1.1/DTD/svg11.dtd">
<svg version="1.1" id="Layer_1" xmlns="http://www.w3.org/2000/svg" xmlns:xlink="http://www.w3.org/1999/xlink" x="0px" y="0px"
	 width="48px" height="48px" viewBox="0 0 48 48" enable-background="new 0 0 48 48" xml:space="preserve">
<g>
	<path d="M2.002,22.298v22.988c0,0.258,0.211,0.467,0.469,0.467h43.063c0.258,0,0.467-0.209,0.467-0.467V2.713
		c0-0.258-0.209-0.467-0.467-0.467H22.244V0.245h23.289C46.895,0.245,48,1.352,48,2.713v42.573c0,1.361-1.105,2.469-2.467,2.469
		H2.471C1.109,47.755,0,46.647,0,45.286V22.298H2.002z"/>
	<polygon points="18.832,18.851 18.832,18.959 2.826,18.959 2.826,16.958 15.301,16.958 0,1.659 1.416,0.245 16.949,15.777 
		16.949,2.845 18.949,2.845 18.949,18.851 	"/>
</g>
</svg>
