<?xml version="1.0" encoding="utf-8"?>
<!-- Generator: Adobe Illustrator 16.0.0, SVG Export Plug-In . SVG Version: 6.00 Build 0)  -->
<!DOCTYPE svg PUBLIC "-//W3C//DTD SVG 1.1//EN" "http://www.w3.org/Graphics/SVG/1.1/DTD/svg11.dtd">
<svg version="1.1" id="Layer_1" xmlns="http://www.w3.org/2000/svg" xmlns:xlink="http://www.w3.org/1999/xlink" x="0px" y="0px"
	 width="48px" height="48px" viewBox="0 0 48 48" enable-background="new 0 0 48 48" xml:space="preserve">
<g>
	<path fill="none" stroke="#000000" stroke-width="2" stroke-miterlimit="10" d="M38.996,15.997c-2.516,0-4.758,1.163-6.225,2.978
		V3.958H1V17.12c1.196-0.709,2.585-1.123,4.076-1.123c4.42,0,8.004,3.583,8.004,8.003c0,4.422-3.583,8.007-8.004,8.007
		c-1.491,0-2.879-0.416-4.076-1.125v13.16h31.771V29.026c1.467,1.817,3.709,2.98,6.225,2.98C43.418,32.007,47,28.422,47,24
		C47,19.58,43.418,15.997,38.996,15.997z"/>
</g>
</svg>
