<?xml version="1.0" encoding="utf-8"?>
<!-- Generator: Adobe Illustrator 16.0.0, SVG Export Plug-In . SVG Version: 6.00 Build 0)  -->
<!DOCTYPE svg PUBLIC "-//W3C//DTD SVG 1.1//EN" "http://www.w3.org/Graphics/SVG/1.1/DTD/svg11.dtd">
<svg version="1.1" id="Layer_1" xmlns="http://www.w3.org/2000/svg" xmlns:xlink="http://www.w3.org/1999/xlink" x="0px" y="0px"
	 width="48px" height="48px" viewBox="0 0 48 48" enable-background="new 0 0 48 48" xml:space="preserve">
<g>
	<path fill="none" stroke="#000000" stroke-width="2" stroke-linecap="round" stroke-linejoin="round" stroke-miterlimit="10" d="
		M46.663,15.729c0,3.275-10.142,5.933-22.66,5.933c-12.515,0-22.666-2.658-22.666-5.933c0-3.28,10.151-5.938,22.666-5.938
		C36.521,9.791,46.663,12.449,46.663,15.729z"/>
	<path fill="none" stroke="#000000" stroke-width="2" stroke-linecap="round" stroke-linejoin="round" stroke-miterlimit="10" d="
		M24.003,21.662c-12.515,0-22.666-2.658-22.666-5.933v25.339C1.337,44.342,11.488,47,24.003,47c12.519,0,22.66-2.658,22.66-5.932
		V15.729C46.663,19.004,36.521,21.662,24.003,21.662z"/>
	
		<line fill="none" stroke="#000000" stroke-width="2" stroke-linecap="round" stroke-linejoin="round" stroke-miterlimit="10" x1="4.229" y1="4.031" x2="20.213" y2="16.979"/>
	
		<line fill="none" stroke="#000000" stroke-width="2" stroke-linecap="round" stroke-linejoin="round" stroke-miterlimit="10" x1="41.719" y1="1" x2="25.735" y2="13.944"/>
	
		<line fill="none" stroke="#000000" stroke-width="2" stroke-linecap="round" stroke-linejoin="round" stroke-miterlimit="10" x1="12.224" y1="27.729" x2="12.224" y2="38.242"/>
	
		<line fill="none" stroke="#000000" stroke-width="2" stroke-linecap="round" stroke-linejoin="round" stroke-miterlimit="10" x1="29.243" y1="27.729" x2="29.243" y2="38.242"/>
</g>
</svg>
