<?xml version="1.0" encoding="utf-8"?>
<!-- Generator: Adobe Illustrator 16.0.0, SVG Export Plug-In . SVG Version: 6.00 Build 0)  -->
<!DOCTYPE svg PUBLIC "-//W3C//DTD SVG 1.1//EN" "http://www.w3.org/Graphics/SVG/1.1/DTD/svg11.dtd">
<svg version="1.1" id="Layer_1" xmlns="http://www.w3.org/2000/svg" xmlns:xlink="http://www.w3.org/1999/xlink" x="0px" y="0px"
	 width="48px" height="48px" viewBox="0 0 48 48" enable-background="new 0 0 48 48" xml:space="preserve">
<g>
	<g>
		<path d="M42.711,2.188L42.711,2.188c0.753,0,1.475,0.354,2.204,1.084c2.137,2.138,0.531,4.14,0.017,4.674L8.946,43.104
			l-6.018,1.765l1.738-6.038L40.226,3.273C40.236,3.263,41.394,2.188,42.711,2.188 M42.71,0.188c-2.228,0-3.898,1.67-3.898,1.67
			L2.888,37.782L0,47.812l9.987-2.928L46.329,9.377c0,0,3.76-3.758,0-7.519C45.076,0.606,43.824,0.188,42.71,0.188L42.71,0.188z"/>
	</g>
	<line fill="none" stroke="#000000" stroke-width="2" stroke-miterlimit="10" x1="3.723" y1="37.782" x2="9.719" y2="43.72"/>
	<line fill="none" stroke="#000000" stroke-width="2" stroke-miterlimit="10" x1="37.468" y1="4.079" x2="43.872" y2="10.541"/>
</g>
</svg>
