<?xml version="1.0" encoding="utf-8"?>
<!-- Generator: Adobe Illustrator 16.0.0, SVG Export Plug-In . SVG Version: 6.00 Build 0)  -->
<!DOCTYPE svg PUBLIC "-//W3C//DTD SVG 1.1//EN" "http://www.w3.org/Graphics/SVG/1.1/DTD/svg11.dtd">
<svg version="1.1" id="Layer_1" xmlns="http://www.w3.org/2000/svg" xmlns:xlink="http://www.w3.org/1999/xlink" x="0px" y="0px"
	 width="48px" height="48px" viewBox="0 0 48 48" enable-background="new 0 0 48 48" xml:space="preserve">
<g>
	<circle fill="none" stroke="#000000" stroke-width="2" stroke-miterlimit="10" cx="24" cy="24" r="23"/>
	<g>
		<path d="M22.686,27.506l-0.041-0.553c-0.127-1.142,0.252-2.39,1.312-3.661c0.953-1.121,1.482-1.947,1.482-2.899
			c0-1.08-0.678-1.799-2.012-1.82c-0.762,0-1.608,0.254-2.138,0.655l-0.507-1.333c0.698-0.508,1.904-0.847,3.027-0.847
			c2.433,0,3.536,1.503,3.536,3.112c0,1.439-0.805,2.477-1.821,3.683c-0.932,1.102-1.271,2.032-1.207,3.11l0.022,0.553H22.686z
			 M22.222,30.469c0-0.782,0.528-1.333,1.269-1.333s1.25,0.551,1.25,1.333c0,0.741-0.488,1.313-1.271,1.313
			C22.729,31.781,22.222,31.21,22.222,30.469z"/>
	</g>
</g>
</svg>
