<?xml version="1.0" encoding="utf-8"?>
<!-- Generator: Adobe Illustrator 16.0.0, SVG Export Plug-In . SVG Version: 6.00 Build 0)  -->
<!DOCTYPE svg PUBLIC "-//W3C//DTD SVG 1.1//EN" "http://www.w3.org/Graphics/SVG/1.1/DTD/svg11.dtd">
<svg version="1.1" id="Layer_1" xmlns="http://www.w3.org/2000/svg" xmlns:xlink="http://www.w3.org/1999/xlink" x="0px" y="0px"
	 width="48px" height="48px" viewBox="0 0 48 48" enable-background="new 0 0 48 48" xml:space="preserve">
<g>
	<g>
		<path d="M24,48C10.766,48,0,37.232,0,23.999S10.766,0,24,0c13.234,0,24,10.766,24,23.999S37.234,48,24,48z M24,1.646
			c-12.326,0-22.355,10.026-22.355,22.354S11.675,46.354,24,46.354c12.324,0,22.353-10.027,22.353-22.354S36.324,1.646,24,1.646z"/>
	</g>
	<g>
		<path d="M24,48c-5.838,0-11.469-2.127-15.851-5.988L7.544,41.48l0.521-0.615c1.538-1.824,4.259-3.348,7.661-4.281
			c1.219-0.486,1.805-0.809,2.244-1.246c0.469-0.471,0.729-0.91,0.818-1.393c0.061-0.334,0.045-2.088-0.004-3.643
			c-0.844-0.957-1.578-2.381-2.283-4.434c-0.727-0.379-1.373-1.31-1.566-2.331c-0.207-1.097-0.088-2.018,0.297-2.57
			c-0.896-5.27-0.316-9.187,1.73-11.64C18.557,7.414,21,6.443,24.223,6.443l0.287-0.006c2.684,0,3.301,0.563,3.881,1.355
			c0.111,0.154,0.203,0.276,0.34,0.388c1.482,0.002,2.715,0.597,3.563,1.72c1.607,2.133,1.803,6.212,0.539,10.989
			c0.447,0.546,0.57,1.532,0.311,2.707c-0.244,1.089-1.016,2.065-1.789,2.362c-0.572,1.881-1.156,3.309-2.076,4.379v3.434
			c0.102,0.76,0.389,1.041,0.912,1.551l0.35,0.346c0.328,0.262,0.617,0.4,1.916,0.973c3.26,0.9,5.953,2.416,7.479,4.225l0.52,0.615
			l-0.605,0.531C35.465,45.873,29.836,48,24,48z M9.888,41.332c3.984,3.244,8.96,5.021,14.113,5.021
			c5.15,0,10.126-1.777,14.109-5.021c-1.385-1.301-3.549-2.402-6.207-3.145c-1.445-0.627-1.896-0.836-2.475-1.311L29.043,36.5
			c-0.604-0.586-1.229-1.193-1.406-2.627l-0.006-4.186l0.229-0.238c0.914-0.947,1.49-2.488,2.078-4.51l0.332-1.142l0.67,0.502
			c0.199-0.188,0.484-0.564,0.596-1.06c0.135-0.611,0.102-1.047,0.051-1.239l-0.627-0.199l0.133-0.791
			c1.273-4.459,1.23-8.338-0.113-10.119c-0.541-0.717-1.277-1.064-2.254-1.064l-0.449,0.017l-0.211-0.125
			c-0.537-0.319-0.805-0.686-1.002-0.953c-0.277-0.38-0.498-0.681-2.553-0.681l-0.275,0.003c-2.725,0-4.74,0.771-6.01,2.294
			c-1.775,2.131-2.211,5.739-1.295,10.733l0.148,0.822l-0.547,0.09c-0.053,0.205-0.09,0.625,0.02,1.206
			c0.125,0.662,0.566,1.129,0.713,1.196l0.619-0.026l0.051,0.57c0.725,2.196,1.439,3.599,2.246,4.415l0.227,0.227l0.012,0.324
			c0.027,0.832,0.113,3.605-0.012,4.303c-0.152,0.814-0.568,1.555-1.273,2.258c-0.697,0.697-1.553,1.115-2.887,1.643
			C13.487,38.906,11.288,40.016,9.888,41.332z"/>
	</g>
</g>
</svg>
