<?xml version="1.0" encoding="utf-8"?>
<!-- Generator: Adobe Illustrator 16.0.0, SVG Export Plug-In . SVG Version: 6.00 Build 0)  -->
<!DOCTYPE svg PUBLIC "-//W3C//DTD SVG 1.1//EN" "http://www.w3.org/Graphics/SVG/1.1/DTD/svg11.dtd">
<svg version="1.1" id="Layer_1" xmlns="http://www.w3.org/2000/svg" xmlns:xlink="http://www.w3.org/1999/xlink" x="0px" y="0px"
	 width="48px" height="48px" viewBox="0 0 48 48" enable-background="new 0 0 48 48" xml:space="preserve">
<g>
	<path fill-rule="evenodd" clip-rule="evenodd" d="M24,44.936c0,0-16.341-19.57-16.341-28.595C7.659,7.317,14.975,0,24,0
		C33.023,0,40.34,7.317,40.34,16.341C40.34,25.365,24,44.936,24,44.936z M24,2.043c-7.898,0-14.298,6.401-14.298,14.298
		S24,41.873,24,41.873s14.296-17.636,14.296-25.532S31.896,2.043,24,2.043z M24,25.531c-5.078,0-9.191-4.114-9.191-9.19
		S18.922,7.149,24,7.149c5.076,0,9.191,4.115,9.191,9.191S29.076,25.531,24,25.531z M24,9.192c-3.949,0-7.15,3.201-7.15,7.148
		c0,3.948,3.201,7.149,7.15,7.149c3.947,0,7.148-3.201,7.148-7.149C31.148,12.394,27.947,9.192,24,9.192z M16.78,38.391
		c0.447,0.615,0.883,1.203,1.305,1.764c-4.359,0.502-7.361,1.539-7.361,2.738c0,1.693,5.943,3.064,13.277,3.064
		c7.332,0,13.275-1.371,13.275-3.064c0-1.199-3-2.236-7.359-2.738c0.42-0.561,0.855-1.148,1.305-1.764
		c4.818,0.861,8.098,2.555,8.098,4.502C39.318,45.715,32.459,48,24,48c-8.461,0-15.32-2.285-15.32-5.107
		C8.681,40.945,11.96,39.252,16.78,38.391z"/>
</g>
</svg>
