<?xml version="1.0" encoding="utf-8"?>
<!-- Generator: Adobe Illustrator 16.0.0, SVG Export Plug-In . SVG Version: 6.00 Build 0)  -->
<!DOCTYPE svg PUBLIC "-//W3C//DTD SVG 1.1//EN" "http://www.w3.org/Graphics/SVG/1.1/DTD/svg11.dtd">
<svg version="1.1" id="Layer_1" xmlns="http://www.w3.org/2000/svg" xmlns:xlink="http://www.w3.org/1999/xlink" x="0px" y="0px"
	 width="48px" height="48px" viewBox="0 0 48 48" enable-background="new 0 0 48 48" xml:space="preserve">
<g>
	<path d="M24.966,42.965H4.178V2.56h21.592v11.797h0.78h0.781h10.016v10.884c0.531,0.068,1.05,0.166,1.561,0.29V13.033L26.873,1
		H2.617v43.525h23.086C25.426,44.023,25.183,43.502,24.966,42.965z M27.332,3.664l9.132,9.133h-9.132V3.664z"/>
	<path fill="none" stroke="#000000" stroke-width="2" stroke-miterlimit="10" d="M45.383,37.448c0,5.274-4.275,9.552-9.548,9.552
		c-5.274,0-9.55-4.277-9.55-9.552c0-5.272,4.275-9.548,9.55-9.548C41.107,27.9,45.383,32.176,45.383,37.448z"/>
	<g>
		<line fill="none" stroke="#000000" stroke-width="2" stroke-miterlimit="10" x1="31.21" y1="37.448" x2="40.458" y2="37.448"/>
		<line fill="none" stroke="#000000" stroke-width="2" stroke-miterlimit="10" x1="35.835" y1="32.825" x2="35.835" y2="42.073"/>
	</g>
</g>
</svg>
