<?xml version="1.0" encoding="utf-8"?>
<!-- Generator: Adobe Illustrator 16.0.0, SVG Export Plug-In . SVG Version: 6.00 Build 0)  -->
<!DOCTYPE svg PUBLIC "-//W3C//DTD SVG 1.1//EN" "http://www.w3.org/Graphics/SVG/1.1/DTD/svg11.dtd">
<svg version="1.1" id="Layer_1" xmlns="http://www.w3.org/2000/svg" xmlns:xlink="http://www.w3.org/1999/xlink" x="0px" y="0px"
	 width="48px" height="48px" viewBox="0 0 48 48" enable-background="new 0 0 48 48" xml:space="preserve">
<g>
	<path d="M0.417,16.953c-0.094,1.52,0.318,2.588,0.725,3.257c-0.516,0.657-1.107,1.748-1.141,3.314
		c-0.09,4.403,4.129,5.884,6.449,6.054h7.08l0.1,0.006c0.287,0.621-0.16,1.309-0.154,1.309c0,0,0,0,0.002,0
		c-0.096,0.113-2.346,2.863-3.859,7.359c-1.682,4.988,2.627,8.518,2.811,8.664l0.252,0.148c0.166,0.068,1.668,0.646,3.086-0.188
		c1.084-0.639,1.74-1.875,1.951-3.676c0.49-4.182,4.002-7.688,5.639-8.973c0.23-0.18,0.416-0.322,0.541-0.434
		c1.194-1.031,2.379-3.732,3.276-5.572c0.6-1.23,2.248-3.208,3.094-3.938c0.578-0.012,1.717-0.033,2.48-0.037
		c0.289,0.917,1.139,2.002,2.15,2.002h10.836c1.25,0,2.266-1.017,2.266-2.265V2.976c0-1.249-1.016-2.265-2.266-2.265H34.898
		c-1.104,0-2.021,0.792-2.223,1.836c-0.389,0.016-0.744,0.381-0.947,0.354c-0.283-0.307-0.916-1.499-2.471-2.128l-0.184-0.075
		h-0.197c-0.123,0-7.284-0.021-13.778-0.021c-3.275,0-6.123,0.005-7.283,0.021c-2.1,0.027-3.191,0.948-3.736,1.716
		C3.023,3.9,3,5.593,3.193,6.601c-1.375,1.264-1.535,3.542-1.568,4.487c-0.031,0.847,0.174,1.449,0.451,2.058
		C1.306,13.844,0.523,15.214,0.417,16.953z M34.68,2.976c0-0.121,0.098-0.219,0.219-0.219h10.836c0.121,0,0.219,0.098,0.219,0.219
		v21.01c0,0.12-0.098,0.219-0.219,0.219H34.898c-0.121,0-0.219-0.099-0.219-0.219V2.976z M3.089,21.114l1.012-0.745l-0.928-0.856
		c-0.035-0.031-0.816-0.771-0.715-2.435c0.117-1.899,1.406-2.71,1.42-2.716l1.479-0.617L4.169,12.69
		c-0.1-0.111-0.586-0.7-0.492-1.681c0.082-0.836,0.387-2.538,1.277-3.219l1.162-0.444L5.304,6.654C5.097,6.035,5.06,4.564,5.748,3.6
		c0.4-0.563,1.084-0.843,2.096-0.855C11.093,2.7,26.643,2.738,28.67,2.743c0.643,0.272,1.291,0.607,1.504,0.777
		c0.178,0.319,0.666,1.506,2.506,1.447v17.234c-1.08,0.007-2.816,0.045-2.816,0.045l-0.352,0.008l-0.271,0.221
		c-0.117,0.097-2.898,2.786-3.906,4.849c-0.963,1.977-1.956,4.215-2.774,4.922c-0.107,0.094-0.268,0.217-0.465,0.373
		c-1.68,1.316-5.82,5.316-6.408,10.346c-0.131,1.104-0.457,1.846-0.947,2.143c-0.418,0.25-0.926,0.162-1.156,0.102
		c-0.605-0.547-3.115-3.068-2.025-6.303c1.385-4.117,3.477-6.686,3.539-6.768c0.521-0.729,1.141-2.355,0.158-3.828
		c-0.445-0.67-1.217-0.84-1.789-0.777l-6.938,0.002c-0.186-0.014-4.553-0.406-4.482-3.969C2.082,21.896,3.058,21.138,3.089,21.114z"
		/>
</g>
</svg>
