<?xml version="1.0" encoding="utf-8"?>
<!-- Generator: Adobe Illustrator 16.0.0, SVG Export Plug-In . SVG Version: 6.00 Build 0)  -->
<!DOCTYPE svg PUBLIC "-//W3C//DTD SVG 1.1//EN" "http://www.w3.org/Graphics/SVG/1.1/DTD/svg11.dtd">
<svg version="1.1" id="Layer_1" xmlns="http://www.w3.org/2000/svg" xmlns:xlink="http://www.w3.org/1999/xlink" x="0px" y="0px"
	 width="48px" height="48px" viewBox="0 0 48 48" enable-background="new 0 0 48 48" xml:space="preserve">
<g>
	<g>
		<path d="M48,44.784H0L24,3.216L48,44.784z M2.514,43.333h42.975L24,6.119L2.514,43.333z"/>
	</g>
	<g>
		<path d="M22.289,36.911c0-1.178,0.627-1.75,1.725-1.75s1.699,0.572,1.699,1.75c0,1.15-0.602,1.699-1.699,1.699
			S22.289,38.062,22.289,36.911z M25.607,22.066L25.111,32.47c-0.025,0.572-0.365,0.99-1.098,0.99c-0.783,0-1.125-0.418-1.15-0.99
			l-0.469-10.403c-0.053-1.021,0.574-1.464,1.619-1.464C25.033,20.603,25.662,21.045,25.607,22.066z"/>
	</g>
</g>
</svg>
