<?xml version="1.0" encoding="utf-8"?>
<!-- Generator: Adobe Illustrator 16.0.0, SVG Export Plug-In . SVG Version: 6.00 Build 0)  -->
<!DOCTYPE svg PUBLIC "-//W3C//DTD SVG 1.1//EN" "http://www.w3.org/Graphics/SVG/1.1/DTD/svg11.dtd">
<svg version="1.1" id="Layer_1" xmlns="http://www.w3.org/2000/svg" xmlns:xlink="http://www.w3.org/1999/xlink" x="0px" y="0px"
	 width="48px" height="48px" viewBox="0 0 48 48" enable-background="new 0 0 48 48" xml:space="preserve">
<g>
	<path fill-rule="evenodd" clip-rule="evenodd" d="M44.827,48c-0.006,0-0.014,0-0.021,0H3.173c-0.298,0-0.581-0.127-0.779-0.352
		c-0.197-0.219-0.291-0.514-0.258-0.809l2.156-31.31c0.059-0.527,0.506-0.926,1.036-0.926h8.274v-4.168
		C13.603,4.672,18.276,0,24.038,0c5.764,0,10.438,4.672,10.438,10.437v4.168h8.326c0.533,0,0.98,0.401,1.039,0.93l1.98,31.103
		c0.031,0.104,0.049,0.209,0.049,0.32C45.87,47.531,45.403,48,44.827,48z M32.388,10.437c0-4.61-3.738-8.349-8.35-8.349
		c-4.609,0-8.348,3.738-8.348,8.349v4.168h16.697V10.437z M41.866,16.692h-7.391v2.383c0.621,0.359,1.043,1.027,1.043,1.798
		c0,1.151-0.934,2.087-2.088,2.087c-1.152,0-2.086-0.936-2.086-2.087c0-0.771,0.422-1.438,1.043-1.798v-2.383H15.69v2.383
		c0.621,0.359,1.043,1.027,1.043,1.798c0,1.151-0.934,2.087-2.088,2.087c-1.152,0-2.086-0.936-2.086-2.087
		c0-0.771,0.422-1.438,1.043-1.798v-2.383H6.26L4.342,45.91h39.299L41.866,16.692z"/>
</g>
</svg>
