<?xml version="1.0" encoding="utf-8"?>
<!-- Generator: Adobe Illustrator 16.0.0, SVG Export Plug-In . SVG Version: 6.00 Build 0)  -->
<!DOCTYPE svg PUBLIC "-//W3C//DTD SVG 1.1//EN" "http://www.w3.org/Graphics/SVG/1.1/DTD/svg11.dtd">
<svg version="1.1" id="Layer_1" xmlns="http://www.w3.org/2000/svg" xmlns:xlink="http://www.w3.org/1999/xlink" x="0px" y="0px"
	 width="48px" height="48px" viewBox="0 0 48 48" enable-background="new 0 0 48 48" xml:space="preserve">
<g>
	<path d="M23.989,47.997c-0.24,0-0.482-0.041-0.723-0.09c-1.525-0.367-2.559-1.676-2.559-3.193V27.28H3.273
		c-1.517,0-2.825-1.031-3.183-2.511c-0.355-1.471,0.359-3.025,1.702-3.697L43.225,0.355c0.408-0.227,0.92-0.353,1.48-0.353
		c0.914,0,1.746,0.357,2.346,1.004c0.992,0.939,1.246,2.479,0.572,3.773L26.916,46.194C26.359,47.306,25.238,47.997,23.989,47.997z
		 M44.705,2.423c-0.145,0-0.264,0.024-0.354,0.074L2.876,23.236c-0.344,0.172-0.525,0.578-0.434,0.965
		c0.098,0.4,0.424,0.659,0.831,0.659h19.854v19.854c0,0.408,0.26,0.734,0.66,0.83c0.037,0.006,0.119,0.033,0.201,0.033
		c0.332,0,0.617-0.176,0.763-0.465L45.467,3.682c0.18-0.344,0.119-0.73-0.139-0.978C45.131,2.496,44.945,2.423,44.705,2.423z"/>
</g>
</svg>
