<?xml version="1.0" encoding="utf-8"?>
<!-- Generator: Adobe Illustrator 16.0.0, SVG Export Plug-In . SVG Version: 6.00 Build 0)  -->
<!DOCTYPE svg PUBLIC "-//W3C//DTD SVG 1.1//EN" "http://www.w3.org/Graphics/SVG/1.1/DTD/svg11.dtd">
<svg version="1.1" id="Layer_1" xmlns="http://www.w3.org/2000/svg" xmlns:xlink="http://www.w3.org/1999/xlink" x="0px" y="0px"
	 width="48px" height="48px" viewBox="0 0 48 48" enable-background="new 0 0 48 48" xml:space="preserve">
<g>
	<path d="M13.004,48c-0.416,0-0.824-0.107-1.181-0.313c-0.995-0.563-1.452-1.764-1.081-2.852l5.52-16.303h-5.455
		c-0.779,0-1.513-0.381-1.961-1.021c-0.449-0.646-0.555-1.467-0.285-2.199l8.797-23.748C17.699,0.631,18.602,0,19.601,0h17.588
		c1.324,0,2.396,1.073,2.396,2.394c0,0.504-0.158,0.989-0.455,1.4l-8.924,13.063h4.35c0.924,0,1.775,0.544,2.168,1.384
		c0.391,0.843,0.258,1.844-0.34,2.551l-21.54,26.345C14.378,47.689,13.712,48,13.004,48z M19.601,1.99
		c-0.168,0-0.32,0.105-0.377,0.263l-8.797,23.749c-0.044,0.121-0.025,0.26,0.051,0.371c0.073,0.104,0.198,0.17,0.329,0.17h8.228
		l-6.408,18.934c-0.064,0.186,0.014,0.387,0.182,0.482c0.262,0.146,0.396,0.035,0.506-0.094l21.539-26.345
		c0.109-0.131,0.131-0.299,0.066-0.44c-0.066-0.141-0.209-0.232-0.363-0.232h-8.121l11.068-16.2c0.051-0.07,0.092-0.15,0.092-0.254
		c0-0.227-0.176-0.403-0.398-0.403H19.601z"/>
</g>
</svg>
