<?xml version="1.0" encoding="utf-8"?>
<!-- Generator: Adobe Illustrator 16.0.0, SVG Export Plug-In . SVG Version: 6.00 Build 0)  -->
<!DOCTYPE svg PUBLIC "-//W3C//DTD SVG 1.1//EN" "http://www.w3.org/Graphics/SVG/1.1/DTD/svg11.dtd">
<svg version="1.1" id="Layer_1" xmlns="http://www.w3.org/2000/svg" xmlns:xlink="http://www.w3.org/1999/xlink" x="0px" y="0px"
	 width="48px" height="48px" viewBox="0 0 48 48" enable-background="new 0 0 48 48" xml:space="preserve">
<g>
	<path d="M1.413,3.278l23.975,21.681l-1.965,2.172L1.218,7.05L1.413,3.278 M0.058,0l-0.396,7.693l23.871,21.588l4.006-4.43L0.058,0
		L0.058,0z"/>
	<path d="M29.062,23.647l17.676,15.985l-6.117,6.766L22.944,30.414L29.062,23.647 M29.048,22.047c-0.363,0-0.725,0.146-0.984,0.434
		l-6.381,7.057c-0.49,0.541-0.447,1.387,0.096,1.875l17.965,16.246C39.995,47.887,40.313,48,40.632,48
		c0.363,0,0.725-0.146,0.986-0.436l6.379-7.057c0.49-0.541,0.447-1.385-0.094-1.875L29.938,22.388
		C29.685,22.158,29.366,22.047,29.048,22.047L29.048,22.047z"/>
	<path d="M30.038,29.281c-0.363,0-0.727,0.148-0.988,0.438l-0.068,0.076c-0.49,0.541-0.449,1.385,0.094,1.875l9.68,8.754
		c0.252,0.229,0.57,0.34,0.889,0.34c0.363,0,0.725-0.146,0.986-0.436l0.07-0.076c0.488-0.541,0.447-1.385-0.096-1.875l-9.68-8.754
		C30.673,29.395,30.354,29.281,30.038,29.281L30.038,29.281z"/>
</g>
</svg>
