<?xml version="1.0" encoding="utf-8"?>
<!-- Generator: Adobe Illustrator 16.0.0, SVG Export Plug-In . SVG Version: 6.00 Build 0)  -->
<!DOCTYPE svg PUBLIC "-//W3C//DTD SVG 1.1//EN" "http://www.w3.org/Graphics/SVG/1.1/DTD/svg11.dtd">
<svg version="1.1" id="Layer_1" xmlns="http://www.w3.org/2000/svg" xmlns:xlink="http://www.w3.org/1999/xlink" x="0px" y="0px"
	 width="48px" height="48px" viewBox="0 0 48 48" enable-background="new 0 0 48 48" xml:space="preserve">
<g>
	<g>
		<path fill="none" stroke="#000000" stroke-width="2" stroke-linecap="round" stroke-linejoin="round" stroke-miterlimit="10" d="
			M36.577,35.792c0,0.55-0.45,1-1,1H2c-0.55,0-1-0.45-1-1V12.209c0-0.55,0.45-1,1-1h33.577c0.55,0,1,0.45,1,1V35.792z"/>
	</g>
	
		<polyline fill="none" stroke="#000000" stroke-width="2" stroke-linecap="round" stroke-linejoin="round" stroke-miterlimit="10" points="
		37.613,18.461 47,13.11 47,34.892 37.613,29.815 	"/>
	<g>
		<path d="M7.352,16.513v6.257h7.232v-6.257h1.948v14.949h-1.948v-7.005H7.352v7.005H5.421V16.513H7.352z"/>
		<path d="M19.892,16.717c1.178-0.179,2.572-0.314,4.103-0.314c2.771,0,4.745,0.647,6.053,1.864
			c1.332,1.221,2.106,2.952,2.106,5.368c0,2.437-0.752,4.436-2.147,5.812c-1.398,1.398-3.703,2.149-6.61,2.149
			c-1.376,0-2.526-0.066-3.504-0.179V16.717z M21.821,29.936c0.49,0.086,1.196,0.108,1.954,0.108c4.123,0,6.364-2.303,6.364-6.343
			c0.021-3.525-1.977-5.767-6.059-5.767c-0.992,0-1.749,0.091-2.259,0.202V29.936z"/>
	</g>
</g>
</svg>
