<?xml version="1.0" encoding="utf-8"?>
<!-- Generator: Adobe Illustrator 16.0.0, SVG Export Plug-In . SVG Version: 6.00 Build 0)  -->
<!DOCTYPE svg PUBLIC "-//W3C//DTD SVG 1.1//EN" "http://www.w3.org/Graphics/SVG/1.1/DTD/svg11.dtd">
<svg version="1.1" id="Layer_1" xmlns="http://www.w3.org/2000/svg" xmlns:xlink="http://www.w3.org/1999/xlink" x="0px" y="0px"
	 width="48px" height="48px" viewBox="0 0 48 48" enable-background="new 0 0 48 48" xml:space="preserve">
<g>
	<g>
		<g>
			<path d="M23.724,2.743H9.873c-1.027,0-1.508,0.411-1.508,1.508v3.36H5.484V3.703C5.484,0.892,6.377,0,9.188,0h32.023
				c2.811,0,3.703,0.892,3.703,3.703v3.908h-2.881v-3.36c0-1.097-0.479-1.508-1.508-1.508H26.674V48h-2.95V2.743z"/>
		</g>
	</g>
	<g>
		<line x1="10.334" y1="19.885" x2="10.334" y2="37.391"/>
		<g>
			<rect x="9.57" y="19.885" width="1.525" height="8.311"/>
			<g>
				<path d="M10.334,37.391c-1.607-4.328-4.346-9.695-7.248-13.024l7.248,2.622l7.244-2.622
					C14.678,27.695,11.938,33.063,10.334,37.391z"/>
			</g>
		</g>
	</g>
</g>
</svg>
