<?xml version="1.0" encoding="utf-8"?>
<!-- Generator: Adobe Illustrator 16.0.0, SVG Export Plug-In . SVG Version: 6.00 Build 0)  -->
<!DOCTYPE svg PUBLIC "-//W3C//DTD SVG 1.1//EN" "http://www.w3.org/Graphics/SVG/1.1/DTD/svg11.dtd">
<svg version="1.1" id="Layer_1" xmlns="http://www.w3.org/2000/svg" xmlns:xlink="http://www.w3.org/1999/xlink" x="0px" y="0px"
	 width="48px" height="48px" viewBox="0 0 48 48" enable-background="new 0 0 48 48" xml:space="preserve">
<g>
	<polygon fill="none" stroke="#000000" stroke-width="2" stroke-miterlimit="10" points="47,36.778 47,22.503 23.91,1 1,23.384 
		1,36.778 1,47 47,47 	"/>
	<polyline fill="none" stroke="#000000" stroke-width="2" stroke-miterlimit="10" points="3.682,20.461 3.682,4.348 11.085,4.348 
		11.085,13.209 	"/>
	<g>
		<path d="M23.555,30.845v-1.666c-0.835-0.104-1.515-0.292-2.035-0.562c-0.521-0.266-0.972-0.701-1.352-1.301
			c-0.378-0.599-0.599-1.328-0.659-2.192l1.673-0.316c0.131,0.897,0.357,1.553,0.685,1.974c0.472,0.592,1.029,0.921,1.687,0.99
			v-5.306c-0.685-0.129-1.385-0.393-2.102-0.796c-0.53-0.295-0.941-0.706-1.226-1.231c-0.29-0.524-0.429-1.119-0.429-1.787
			c0-1.184,0.417-2.146,1.256-2.878c0.565-0.494,1.395-0.796,2.501-0.908v-0.795h0.98v0.795c0.972,0.093,1.737,0.377,2.307,0.853
			c0.729,0.604,1.166,1.435,1.313,2.489l-1.722,0.259c-0.1-0.654-0.306-1.155-0.618-1.504c-0.309-0.349-0.737-0.58-1.28-0.689v4.804
			c0.841,0.21,1.396,0.373,1.664,0.491c0.522,0.228,0.943,0.506,1.271,0.834c0.327,0.326,0.578,0.714,0.752,1.165
			c0.176,0.451,0.266,0.938,0.266,1.462c0,1.155-0.367,2.119-1.101,2.891c-0.735,0.771-1.687,1.185-2.853,1.24v1.685H23.555z
			 M23.555,16.254c-0.649,0.098-1.161,0.359-1.535,0.777c-0.374,0.419-0.56,0.917-0.56,1.491c0,0.568,0.161,1.042,0.478,1.425
			c0.316,0.382,0.859,0.688,1.617,0.917V16.254z M24.535,27.771c0.647-0.08,1.184-0.361,1.604-0.842
			c0.423-0.483,0.636-1.078,0.636-1.789c0-0.604-0.151-1.09-0.452-1.457c-0.298-0.367-0.896-0.697-1.788-0.985V27.771z"/>
	</g>
	<line fill="none" stroke="#000000" stroke-width="2" stroke-miterlimit="10" x1="2.117" y1="36.778" x2="45.928" y2="36.778"/>
</g>
</svg>
