<?xml version="1.0" encoding="utf-8"?>
<!-- Generator: Adobe Illustrator 16.0.0, SVG Export Plug-In . SVG Version: 6.00 Build 0)  -->
<!DOCTYPE svg PUBLIC "-//W3C//DTD SVG 1.1//EN" "http://www.w3.org/Graphics/SVG/1.1/DTD/svg11.dtd">
<svg version="1.1" id="Layer_1" xmlns="http://www.w3.org/2000/svg" xmlns:xlink="http://www.w3.org/1999/xlink" x="0px" y="0px"
	 width="48px" height="48px" viewBox="0 0 48 48" enable-background="new 0 0 48 48" xml:space="preserve">
<g>
	<polyline fill="none" stroke="#000000" stroke-width="2" stroke-miterlimit="10" points="33.722,12.039 47,12.039 47,1 1,1 
		1,12.039 14.259,12.039 	"/>
	<polyline fill="none" stroke="#000000" stroke-width="2" stroke-miterlimit="10" points="34.025,28.055 34.025,5.207 13.971,5.207 
		13.971,36.187 24.324,36.187 	"/>
	<path fill="none" stroke="#000000" stroke-width="2" stroke-miterlimit="10" d="M34.383,13.912c0,0,9.319,10.795,9.551,14.292
		c0.234,3.496-4.037,10.096-3.96,11.884C40.05,41.873,41.605,47,41.605,47H29.099c0,0-3.493-7.843-4.657-9.009
		c-1.168-1.166-1.168-9.011-1.4-11.186c-0.234-2.175-1.786-7.067-2.175-7.689c0,0,4.116-4.141,7.225,1.579
		c3.107,5.723,2.781,9.063,5.934,6.887L34.383,13.912z"/>
</g>
</svg>
