<?xml version="1.0" encoding="utf-8"?>
<!-- Generator: Adobe Illustrator 16.0.0, SVG Export Plug-In . SVG Version: 6.00 Build 0)  -->
<!DOCTYPE svg PUBLIC "-//W3C//DTD SVG 1.1//EN" "http://www.w3.org/Graphics/SVG/1.1/DTD/svg11.dtd">
<svg version="1.1" id="Layer_1" xmlns="http://www.w3.org/2000/svg" xmlns:xlink="http://www.w3.org/1999/xlink" x="0px" y="0px"
	 width="48px" height="48px" viewBox="0 0 48 48" enable-background="new 0 0 48 48" xml:space="preserve">
<g>
	<g>
		<path d="M28.123,9.276l5.275,5.276l0.043,0.042l5.285,5.284c-2.447,2.329-7.721,8.132-8.945,15.866
			c-0.557-0.043-1.25-0.076-2.063-0.076c-4.196,0-11.797,0.889-20.902,5.963l1.525-1.982l-1.959,1.508
			c6.049-10.83,6.156-19.484,5.875-22.939C19.99,16.993,25.795,11.722,28.123,9.276 M28.063,7.093c0,0-7.229,8.965-17.479,9.817
			c0,0,2.77,13.757-10.344,30.81L0,47.962c0.045-0.037,0.092-0.07,0.137-0.105c-0.035,0.045-0.07,0.092-0.105,0.137l0.242-0.24
			C12.26,38.54,22.621,37.171,27.719,37.171c2.158,0,3.373,0.244,3.373,0.244c0.852-10.252,9.82-17.475,9.82-17.475l-6.41-6.407
			L34.471,13.5L28.063,7.093L28.063,7.093z"/>
		<path d="M33.938,2.13l11.939,11.938l-3.137,3.136L30.801,5.266L33.938,2.13 M33.938,0.007l-5.26,5.259L42.74,19.326L48,14.067
			L33.938,0.007L33.938,0.007z"/>
		<path d="M22.044,30.019c-1.086,0-2.107-0.422-2.875-1.189c-0.768-0.77-1.191-1.789-1.191-2.875c0-1.085,0.424-2.105,1.191-2.873
			c0.767-0.768,1.789-1.191,2.875-1.191s2.105,0.424,2.875,1.191c0.768,0.768,1.189,1.789,1.189,2.875
			c0,1.084-0.422,2.105-1.189,2.873C24.15,29.597,23.13,30.019,22.044,30.019z M22.044,23.391c-0.686,0-1.33,0.268-1.814,0.752
			s-0.75,1.128-0.75,1.812c0,0.686,0.266,1.33,0.75,1.814c0.969,0.967,2.658,0.967,3.627-0.002c0.484-0.482,0.75-1.127,0.75-1.811
			c0-0.686-0.266-1.329-0.75-1.813S22.728,23.391,22.044,23.391z"/>
		<rect x="10.317" y="25.045" transform="matrix(0.7065 0.7078 -0.7078 0.7065 29.3853 3.0072)" width="1.501" height="23.768"/>
	</g>
	<g>
		<line x1="36.91" y1="42.452" x2="47.994" y2="42.452"/>
		<rect x="36.91" y="41.702" width="11.084" height="1.5"/>
	</g>
</g>
</svg>
