<?xml version="1.0" encoding="utf-8"?>
<!-- Generator: Adobe Illustrator 16.0.0, SVG Export Plug-In . SVG Version: 6.00 Build 0)  -->
<!DOCTYPE svg PUBLIC "-//W3C//DTD SVG 1.1//EN" "http://www.w3.org/Graphics/SVG/1.1/DTD/svg11.dtd">
<svg version="1.1" id="Layer_1" xmlns="http://www.w3.org/2000/svg" xmlns:xlink="http://www.w3.org/1999/xlink" x="0px" y="0px"
	 width="48px" height="48px" viewBox="0 0 48 48" enable-background="new 0 0 48 48" xml:space="preserve">
<g>
	<path d="M24,5.508l4.771,12.915l0.348,0.94l1.002,0.04l13.758,0.547L33.07,28.48l-0.787,0.621l0.271,0.965l3.73,13.254
		l-11.451-7.645L24,35.119l-0.834,0.557L11.713,43.32l3.732-13.254l0.271-0.965L14.93,28.48L4.119,19.95l13.76-0.547l1.002-0.04
		l0.348-0.94L24,5.508 M24,1.174l-6.182,16.729L0,18.611L14,29.66L9.166,46.826L24,36.924l14.832,9.902L34,29.66l14-11.049
		l-17.82-0.708L24,1.174L24,1.174z"/>
</g>
</svg>
