<?xml version="1.0" encoding="utf-8"?>
<!-- Generator: Adobe Illustrator 16.0.0, SVG Export Plug-In . SVG Version: 6.00 Build 0)  -->
<!DOCTYPE svg PUBLIC "-//W3C//DTD SVG 1.1//EN" "http://www.w3.org/Graphics/SVG/1.1/DTD/svg11.dtd">
<svg version="1.1" id="Layer_1" xmlns="http://www.w3.org/2000/svg" xmlns:xlink="http://www.w3.org/1999/xlink" x="0px" y="0px"
	 width="48px" height="48px" viewBox="0 0 48 48" enable-background="new 0 0 48 48" xml:space="preserve">
<g>
	<g>
		<path fill="none" stroke="#000000" stroke-width="2" stroke-miterlimit="10" d="M47,43.917c0,1.1-0.9,2-2,2H3c-1.1,0-2-0.9-2-2
			V13.904c0-1.1,0.9-2,2-2h42c1.1,0,2,0.9,2,2V43.917z"/>
	</g>
	<g>
		<path fill="none" stroke="#000000" stroke-width="2" stroke-miterlimit="10" d="M32.667,39.931c0,0.55-0.45,1-1,1H6.859
			c-0.55,0-1-0.45-1-1V17.886c0-0.55,0.45-1,1-1h24.808c0.55,0,1,0.45,1,1V39.931z"/>
	</g>
	<path d="M41.666,29.875c0,1.148-0.931,2.079-2.075,2.079c-1.147,0-2.08-0.931-2.08-2.079c0-1.145,0.933-2.074,2.08-2.074
		C40.735,27.801,41.666,28.73,41.666,29.875z"/>
	<path d="M41.666,37.297c0,1.146-0.931,2.076-2.075,2.076c-1.147,0-2.08-0.93-2.08-2.076s0.933-2.078,2.08-2.078
		C40.735,35.219,41.666,36.15,41.666,37.297z"/>
	<polyline fill="none" stroke="#000000" stroke-width="2" stroke-linecap="round" stroke-miterlimit="10" points="12.886,3.764 
		21.094,11.38 31.971,2.083 	"/>
</g>
</svg>
