<?xml version="1.0" encoding="utf-8"?>
<!-- Generator: Adobe Illustrator 16.0.0, SVG Export Plug-In . SVG Version: 6.00 Build 0)  -->
<!DOCTYPE svg PUBLIC "-//W3C//DTD SVG 1.1//EN" "http://www.w3.org/Graphics/SVG/1.1/DTD/svg11.dtd">
<svg version="1.1" id="Layer_1" xmlns="http://www.w3.org/2000/svg" xmlns:xlink="http://www.w3.org/1999/xlink" x="0px" y="0px"
	 width="48px" height="48px" viewBox="0 0 48 48" enable-background="new 0 0 48 48" xml:space="preserve">
<g>
	<path d="M18.595,29.404v17.094H1.503V29.404H18.595 M20.097,27.902H0.001V48h20.096V27.902L20.097,27.902z"/>
	<path d="M46.499,1.5v33.568H12.931V1.5H46.499 M47.999,0H11.431v36.57h36.568V0L47.999,0z"/>
	<g>
		<line x1="32.802" y1="15.196" x2="45.001" y2="3"/>
		<g>
			<rect x="34.946" y="8.208" transform="matrix(0.7074 0.7068 -0.7068 0.7074 19.1385 -21.6311)" width="1.502" height="8.188"/>
			<g>
				<path d="M45.001,3c-1.898,4.133-3.73,9.782-4.027,14.125l-3.223-6.877l-6.875-3.223C35.216,6.729,40.868,4.896,45.001,3z"/>
			</g>
		</g>
	</g>
</g>
</svg>
