<?xml version="1.0" encoding="utf-8"?>
<!-- Generator: Adobe Illustrator 16.0.0, SVG Export Plug-In . SVG Version: 6.00 Build 0)  -->
<!DOCTYPE svg PUBLIC "-//W3C//DTD SVG 1.1//EN" "http://www.w3.org/Graphics/SVG/1.1/DTD/svg11.dtd">
<svg version="1.1" id="Layer_1" xmlns="http://www.w3.org/2000/svg" xmlns:xlink="http://www.w3.org/1999/xlink" x="0px" y="0px"
	 width="48px" height="48px" viewBox="0 0 48 48" enable-background="new 0 0 48 48" xml:space="preserve">
<g>
	<g>
		<g>
			<path d="M43.01,1.869H5.029C2.256,1.869,0,4.127,0,6.901V41.1c0,2.773,2.256,5.031,5.029,5.031h37.98
				c2.773,0,4.99-2.258,4.99-5.031V6.901C48,4.127,45.783,1.869,43.01,1.869z M46.119,29.76H34.404c-0.969,0-1.758-0.746-1.758-1.66
				v-9.169c0-0.915,0.789-1.66,1.758-1.66h11.715V29.76z M46.119,15.349H34.404c-2.029,0-3.68,1.606-3.68,3.582V28.1
				c0,1.975,1.65,3.582,3.68,3.582h11.715V41.1c0,1.715-1.395,3.109-3.109,3.109H5.029c-1.714,0-3.149-1.395-3.149-3.109V6.901
				c0-1.717,1.436-3.11,3.149-3.11h37.98c1.715,0,3.109,1.394,3.109,3.11V15.349z M36.986,25.785c1.244,0,2.252-1.006,2.252-2.25
				c0-1.242-1.008-2.251-2.252-2.251c-1.242,0-2.25,1.009-2.25,2.251C34.736,24.779,35.744,25.785,36.986,25.785z"/>
		</g>
	</g>
</g>
</svg>
