<?xml version="1.0" encoding="utf-8"?>
<!-- Generator: Adobe Illustrator 16.0.0, SVG Export Plug-In . SVG Version: 6.00 Build 0)  -->
<!DOCTYPE svg PUBLIC "-//W3C//DTD SVG 1.1//EN" "http://www.w3.org/Graphics/SVG/1.1/DTD/svg11.dtd">
<svg version="1.1" id="Layer_1" xmlns="http://www.w3.org/2000/svg" xmlns:xlink="http://www.w3.org/1999/xlink" x="0px" y="0px"
	 width="48px" height="48px" viewBox="0 0 48 48" enable-background="new 0 0 48 48" xml:space="preserve">
<g>
	<line fill="none" stroke="#000000" stroke-width="2" stroke-miterlimit="10" x1="1" y1="24" x2="47" y2="24"/>
	<line fill="none" stroke="#000000" stroke-width="2" stroke-miterlimit="10" x1="24" y1="3.734" x2="24" y2="44.266"/>
	<path fill="none" stroke="#000000" stroke-width="2" stroke-miterlimit="10" d="M47,43.273c0,0.431-0.35,0.78-0.782,0.78H1.781
		c-0.432,0-0.781-0.35-0.781-0.78V4.729c0-0.432,0.349-0.781,0.781-0.781h44.437C46.65,3.947,47,4.297,47,4.729V43.273z"/>
	<text transform="matrix(1 0 0 1 10.6636 18.4624)" font-family="'HelveticaNeue-Bold'" font-size="12.502">-</text>
	<text transform="matrix(0.7071 0.7071 -0.7071 0.7071 8.8535 34.4131)" font-family="'HelveticaNeue-Bold'" font-size="10.9393">+</text>
	<text transform="matrix(1 0 0 1 32.7637 17.6797)" font-family="'HelveticaNeue-Bold'" font-size="10.9392">+</text>
	<text transform="matrix(1 0 0 1 32.9961 37.2148)" font-family="'HelveticaNeue-Bold'" font-size="10.1579">=</text>
</g>
</svg>
