<?xml version="1.0" encoding="utf-8"?>
<!-- Generator: Adobe Illustrator 16.0.0, SVG Export Plug-In . SVG Version: 6.00 Build 0)  -->
<!DOCTYPE svg PUBLIC "-//W3C//DTD SVG 1.1//EN" "http://www.w3.org/Graphics/SVG/1.1/DTD/svg11.dtd">
<svg version="1.1" id="Layer_1" xmlns="http://www.w3.org/2000/svg" xmlns:xlink="http://www.w3.org/1999/xlink" x="0px" y="0px"
	 width="48px" height="48px" viewBox="0 0 48 48" enable-background="new 0 0 48 48" xml:space="preserve">
<g>
	<path fill="none" stroke="#010101" stroke-width="2" stroke-miterlimit="10" d="M46.914,43.147c0,0.56-0.451,1.011-1.009,1.011
		H2.097c-0.56,0-1.013-0.451-1.013-1.011V11.089c0-0.558,0.453-1.012,1.013-1.012h43.809c0.558,0,1.009,0.454,1.009,1.012V43.147z"
		/>
	<path fill="none" stroke="#010101" stroke-width="2" stroke-miterlimit="10" d="M1,22.752c0,0,22.073,14.452,46-1.049"/>
	
		<rect x="19.573" y="24.834" fill="#FFFFFF" stroke="#010101" stroke-width="2" stroke-miterlimit="10" width="8.855" height="8.678"/>
	<path fill="#FFFFFF" stroke="#010101" stroke-width="2" stroke-miterlimit="10" d="M34.951,9.067c0,0.557-0.452,1.01-1.011,1.01
		H14.059c-0.56,0-1.013-0.453-1.013-1.01V4.854c0-0.558,0.453-1.012,1.013-1.012H33.94c0.559,0,1.011,0.454,1.011,1.012V9.067z"/>
</g>
</svg>
