<?xml version="1.0" encoding="utf-8"?>
<!-- Generator: Adobe Illustrator 16.0.0, SVG Export Plug-In . SVG Version: 6.00 Build 0)  -->
<!DOCTYPE svg PUBLIC "-//W3C//DTD SVG 1.1//EN" "http://www.w3.org/Graphics/SVG/1.1/DTD/svg11.dtd">
<svg version="1.1" id="Layer_1" xmlns="http://www.w3.org/2000/svg" xmlns:xlink="http://www.w3.org/1999/xlink" x="0px" y="0px"
	 width="48px" height="48px" viewBox="0 0 48 48" enable-background="new 0 0 48 48" xml:space="preserve">
<g>
	<path d="M43.5,2.853c1.373,0,2.492,1.118,2.492,2.493v36.908l-8.186-8.318l-0.59-0.6h-0.842H4.5c-1.373,0-2.49-1.119-2.49-2.492
		V5.346c0-1.375,1.117-2.493,2.49-2.493H43.5 M43.5,0.844h-39C2.016,0.844,0,2.86,0,5.346v25.498c0,2.486,2.016,4.5,4.5,4.5h31.875
		L48,47.156V5.346C48,2.86,45.984,0.844,43.5,0.844L43.5,0.844z"/>
	<rect x="15.869" y="17.234" width="16.057" height="1.004"/>
</g>
</svg>
