<?xml version="1.0" encoding="utf-8"?>
<!-- Generator: Adobe Illustrator 16.0.0, SVG Export Plug-In . SVG Version: 6.00 Build 0)  -->
<!DOCTYPE svg PUBLIC "-//W3C//DTD SVG 1.1//EN" "http://www.w3.org/Graphics/SVG/1.1/DTD/svg11.dtd">
<svg version="1.1" id="Layer_1" xmlns="http://www.w3.org/2000/svg" xmlns:xlink="http://www.w3.org/1999/xlink" x="0px" y="0px"
	 width="48px" height="48px" viewBox="0 0 48 48" enable-background="new 0 0 48 48" xml:space="preserve">
<g>
	<path fill="none" stroke="#000000" stroke-width="2" stroke-miterlimit="10" d="M28.128,37.48H7.144C3.762,37.48,1,34.713,1,31.332
		V8.747c0-3.382,2.762-6.146,6.144-6.146h33.711C44.234,2.601,47,5.365,47,8.747v22.585c0,1.195-0.346,2.31-0.938,3.255"/>
	<path fill="none" stroke="#000000" stroke-width="2" stroke-miterlimit="10" d="M2.538,28.592c0.008-0.678,1.028-1.195,1.496-1.655
		c0.739-0.722,1.573-1.356,2.224-2.159c1.151-1.424,2.261-2.855,3.433-4.253c1.499-1.78,2.744-3.623,4.086-5.48
		c0.792-1.095,2.1-4.211,3.761-3.424c1.901,0.897,2.482,3.277,4.046,4.518c1.777,1.407,3.285,2.848,4.687,4.606
		c0.439,0.546,0.752,1.443,1.36,1.78c1.024,0.564,1.794-0.426,2.497-1.056c0.988-0.884,2.046-1.787,2.801-2.9
		c0.452-0.675,0.815-1.315,1.383-1.911c1.611-1.701,3.182-0.785,4.921,0.328c2.524,1.615,4.719,3.711,7.263,5.295"/>
	<path fill="none" stroke="#000000" stroke-width="2" stroke-miterlimit="10" d="M32.902,10.136c0,2.296-1.861,4.16-4.151,4.16
		c-2.298,0-4.158-1.864-4.158-4.16c0-2.293,1.86-4.156,4.158-4.156C31.041,5.98,32.902,7.842,32.902,10.136z"/>
	<g>
		
			<line fill="none" stroke="#000000" stroke-width="2" stroke-linecap="round" stroke-miterlimit="10" x1="36.806" y1="33.971" x2="36.806" y2="40.112"/>
		<polyline fill="none" stroke="#000000" stroke-width="2" stroke-linecap="round" stroke-miterlimit="10" points="33.341,35.422 
			36.806,31.459 40.411,35.422 		"/>
	</g>
	<circle fill="none" stroke="#000000" stroke-width="2" stroke-miterlimit="10" cx="36.879" cy="35.786" r="9.613"/>
</g>
</svg>
