<?xml version="1.0" encoding="utf-8"?>
<!-- Generator: Adobe Illustrator 16.0.0, SVG Export Plug-In . SVG Version: 6.00 Build 0)  -->
<!DOCTYPE svg PUBLIC "-//W3C//DTD SVG 1.1//EN" "http://www.w3.org/Graphics/SVG/1.1/DTD/svg11.dtd">
<svg version="1.1" id="Layer_1" xmlns="http://www.w3.org/2000/svg" xmlns:xlink="http://www.w3.org/1999/xlink" x="0px" y="0px"
	 width="48px" height="48px" viewBox="0 0 48 48" enable-background="new 0 0 48 48" xml:space="preserve">
<g>
	<g>
		<g>
			<path d="M24,2c1.129,0,2.047,0.918,2.047,2.046c0,1.128-0.918,2.047-2.047,2.047c-1.129,0-2.048-0.918-2.048-2.047
				C21.952,2.918,22.871,2,24,2 M24,0c-2.235,0-4.048,1.812-4.048,4.046c0,2.236,1.813,4.047,4.048,4.047
				c2.234,0,4.047-1.811,4.047-4.047C28.047,1.812,26.234,0,24,0L24,0z"/>
		</g>
		<g>
			<path d="M24,10.578c3.317,0,6.133,1.729,7.072,4.102H16.927C17.869,12.306,20.684,10.578,24,10.578 M24,8.578
				c-5.196,0-9.409,3.512-9.409,7.844c0,0.086,0.012,0.173,0.016,0.258h18.786c0.004-0.085,0.016-0.172,0.016-0.258
				C33.408,12.09,29.197,8.578,24,8.578L24,8.578z"/>
		</g>
	</g>
	<g>
		<g>
			<g>
				<path d="M7.407,36.869c0.654,0,1.186,0.532,1.186,1.186c0,0.652-0.532,1.184-1.186,1.184s-1.186-0.531-1.186-1.184
					C6.222,37.401,6.753,36.869,7.407,36.869 M7.407,34.869c-1.76,0-3.186,1.424-3.186,3.186c0,1.76,1.426,3.184,3.186,3.184
					s3.186-1.424,3.186-3.184C10.593,36.293,9.167,34.869,7.407,34.869L7.407,34.869z"/>
			</g>
			<g>
				<path d="M7.407,43.621c2.149,0,4.01,0.974,4.88,2.379H2.526C3.397,44.595,5.258,43.621,7.407,43.621 M7.407,41.621
					C3.316,41.621,0,44.385,0,47.795c0,0.07,0.009,0.137,0.012,0.205h14.79c0.002-0.068,0.012-0.135,0.012-0.205
					C14.813,44.385,11.499,41.621,7.407,41.621L7.407,41.621z"/>
			</g>
		</g>
		<g>
			<g>
				<path d="M24,36.869c0.653,0,1.186,0.532,1.186,1.186c0,0.652-0.532,1.184-1.186,1.184c-0.654,0-1.187-0.531-1.187-1.184
					C22.813,37.401,23.346,36.869,24,36.869 M24,34.869c-1.761,0-3.187,1.424-3.187,3.186c0,1.76,1.426,3.184,3.187,3.184
					c1.76,0,3.186-1.424,3.186-3.184C27.186,36.293,25.76,34.869,24,34.869L24,34.869z"/>
			</g>
			<g>
				<path d="M24,43.621c2.149,0,4.01,0.974,4.881,2.379h-9.762C19.99,44.595,21.851,43.621,24,43.621 M24,41.621
					c-4.091,0-7.407,2.764-7.407,6.174c0,0.07,0.01,0.137,0.013,0.205h14.789c0.002-0.068,0.012-0.135,0.012-0.205
					C31.406,44.385,28.09,41.621,24,41.621L24,41.621z"/>
			</g>
		</g>
		<g>
			<g>
				<path d="M40.592,36.869c0.653,0,1.186,0.532,1.186,1.186c0,0.652-0.532,1.184-1.186,1.184s-1.186-0.531-1.186-1.184
					C39.406,37.401,39.938,36.869,40.592,36.869 M40.592,34.869c-1.76,0-3.186,1.424-3.186,3.186c0,1.76,1.426,3.184,3.186,3.184
					s3.186-1.424,3.186-3.184C43.777,36.293,42.352,34.869,40.592,34.869L40.592,34.869z"/>
			</g>
			<g>
				<path d="M40.592,43.621c2.15,0,4.011,0.974,4.882,2.379h-9.763C36.582,44.595,38.442,43.621,40.592,43.621 M40.592,41.621
					c-4.092,0-7.406,2.764-7.406,6.174c0,0.07,0.01,0.137,0.012,0.205h14.791C47.99,47.932,48,47.865,48,47.795
					C48,44.385,44.684,41.621,40.592,41.621L40.592,41.621z"/>
			</g>
		</g>
	</g>
	<polyline fill="none" stroke="#000000" stroke-width="2" stroke-miterlimit="10" points="7.407,31.842 7.407,23.318 40.592,23.318 
		40.592,31.842 	"/>
	<line fill="none" stroke="#000000" stroke-width="2" stroke-miterlimit="10" x1="24" y1="18.425" x2="24" y2="31.842"/>
</g>
</svg>
