<?xml version="1.0" encoding="utf-8"?>
<!-- Generator: Adobe Illustrator 16.0.0, SVG Export Plug-In . SVG Version: 6.00 Build 0)  -->
<!DOCTYPE svg PUBLIC "-//W3C//DTD SVG 1.1//EN" "http://www.w3.org/Graphics/SVG/1.1/DTD/svg11.dtd">
<svg version="1.1" id="Layer_1" xmlns="http://www.w3.org/2000/svg" xmlns:xlink="http://www.w3.org/1999/xlink" x="0px" y="0px"
	 width="48px" height="48px" viewBox="0 0 48 48" enable-background="new 0 0 48 48" xml:space="preserve">
<g>
	<path fill="none" stroke="#000000" stroke-width="2" stroke-miterlimit="10" d="M38.074,42.657h-2.83
		c-4.245,0-7.719-4.315-7.719-9.595V14.936c0-5.276,3.474-9.595,7.719-9.595h2.83"/>
	<line fill="none" stroke="#000000" stroke-width="2" stroke-miterlimit="10" x1="20.872" y1="24" x2="38.074" y2="24"/>
	<rect x="38.074" y="1" fill="none" stroke="#000000" stroke-width="2" stroke-miterlimit="10" width="8.925" height="9.413"/>
	<rect x="38.074" y="37.587" fill="none" stroke="#000000" stroke-width="2" stroke-miterlimit="10" width="8.925" height="9.413"/>
	<rect x="38.074" y="19.294" fill="none" stroke="#000000" stroke-width="2" stroke-miterlimit="10" width="8.925" height="9.411"/>
	<circle fill="none" stroke="#000000" stroke-width="2" stroke-miterlimit="10" cx="11.184" cy="24" r="10.183"/>
	<g>
		<path d="M10.867,29.967V28.78c-0.591-0.075-1.074-0.208-1.445-0.398c-0.371-0.189-0.69-0.498-0.962-0.925
			c-0.27-0.427-0.427-0.945-0.47-1.561l1.192-0.225c0.092,0.638,0.253,1.104,0.487,1.403c0.333,0.421,0.734,0.657,1.198,0.704
			v-3.772c-0.486-0.093-0.986-0.281-1.494-0.567c-0.378-0.211-0.668-0.503-0.874-0.876c-0.204-0.375-0.305-0.797-0.305-1.271
			c0-0.842,0.298-1.526,0.897-2.049c0.398-0.351,0.99-0.566,1.776-0.646v-0.565h0.698v0.565c0.691,0.066,1.237,0.269,1.642,0.606
			c0.517,0.431,0.829,1.021,0.934,1.771l-1.224,0.185c-0.071-0.465-0.217-0.823-0.438-1.07c-0.223-0.249-0.526-0.413-0.914-0.491
			v3.417c0.597,0.149,0.994,0.268,1.187,0.35c0.367,0.163,0.67,0.361,0.902,0.594c0.232,0.232,0.412,0.509,0.537,0.829
			c0.124,0.32,0.188,0.668,0.188,1.04c0,0.822-0.262,1.507-0.784,2.056c-0.522,0.549-1.198,0.843-2.029,0.882v1.199H10.867z
			 M10.867,19.587c-0.46,0.07-0.823,0.254-1.089,0.553c-0.266,0.298-0.398,0.652-0.398,1.06c0,0.404,0.114,0.743,0.341,1.014
			c0.225,0.273,0.608,0.49,1.147,0.653V19.587z M11.565,27.779c0.462-0.057,0.842-0.257,1.144-0.6
			c0.3-0.342,0.451-0.766,0.451-1.271c0-0.431-0.106-0.774-0.32-1.037c-0.211-0.26-0.637-0.494-1.275-0.702V27.779z"/>
	</g>
</g>
</svg>
