<?xml version="1.0" encoding="utf-8"?>
<!-- Generator: Adobe Illustrator 16.0.0, SVG Export Plug-In . SVG Version: 6.00 Build 0)  -->
<!DOCTYPE svg PUBLIC "-//W3C//DTD SVG 1.1//EN" "http://www.w3.org/Graphics/SVG/1.1/DTD/svg11.dtd">
<svg version="1.1" id="Layer_1" xmlns="http://www.w3.org/2000/svg" xmlns:xlink="http://www.w3.org/1999/xlink" x="0px" y="0px"
	 width="48px" height="48px" viewBox="0 0 48 48" enable-background="new 0 0 48 48" xml:space="preserve">
<g>
	<path fill="none" stroke="#000000" stroke-width="2" stroke-miterlimit="10" d="M41.125,10.553H1v10.379h18.081
		c3.281-3.798,8.129-6.205,13.542-6.205c3.356,0,6.495,0.924,9.178,2.531V1H1v9.553H41.125z"/>
	<path fill="none" stroke="#000000" stroke-width="2" stroke-miterlimit="10" d="M1,31.313h13.78
		c0.287-3.955,1.86-7.552,4.301-10.38H1V31.313z"/>
	<path fill="none" stroke="#000000" stroke-width="2" stroke-miterlimit="10" d="M14.728,32.623c0-0.439,0.022-0.878,0.052-1.311H1
		v10.379h16.196C15.629,39.032,14.728,35.935,14.728,32.623z"/>
	<path d="M37.313,32.55c-0.441-0.441-1.013-0.817-1.712-1.126c-0.367-0.158-1.118-0.379-2.252-0.663V24.27
		c0.731,0.15,1.312,0.461,1.733,0.931c0.419,0.472,0.696,1.15,0.829,2.034l2.326-0.352c-0.198-1.425-0.792-2.546-1.774-3.364
		c-0.768-0.642-1.805-1.026-3.114-1.151v-1.075h-1.327v1.075c-1.492,0.152-2.619,0.56-3.377,1.226
		c-1.134,0.992-1.699,2.289-1.699,3.89c0,0.9,0.194,1.705,0.582,2.414c0.388,0.71,0.939,1.264,1.656,1.662
		c0.968,0.543,1.915,0.902,2.838,1.077v7.166c-0.884-0.092-1.642-0.537-2.276-1.338c-0.441-0.565-0.748-1.454-0.925-2.663
		l-2.263,0.425c0.082,1.168,0.38,2.156,0.893,2.965c0.515,0.809,1.121,1.395,1.827,1.757c0.706,0.361,1.619,0.614,2.744,0.757v2.252
		h1.327v-2.278c1.576-0.073,2.859-0.633,3.852-1.675c0.992-1.043,1.488-2.342,1.488-3.901c0-0.709-0.118-1.368-0.355-1.979
		C38.096,33.516,37.756,32.992,37.313,32.55z M32.022,30.473c-1.026-0.307-1.752-0.721-2.181-1.239
		c-0.429-0.515-0.644-1.158-0.644-1.924c0-0.775,0.25-1.447,0.756-2.015c0.505-0.566,1.194-0.917,2.068-1.05V30.473z M35.521,38.665
		c-0.572,0.651-1.295,1.031-2.171,1.138v-6.854c1.209,0.393,2.016,0.836,2.42,1.332s0.606,1.153,0.606,1.971
		C36.376,37.211,36.09,38.016,35.521,38.665z"/>
	<circle fill="none" stroke="#000000" stroke-width="2" stroke-miterlimit="10" cx="32.623" cy="32.623" r="14.377"/>
</g>
</svg>
