<?xml version="1.0" encoding="utf-8"?>
<!-- Generator: Adobe Illustrator 16.0.0, SVG Export Plug-In . SVG Version: 6.00 Build 0)  -->
<!DOCTYPE svg PUBLIC "-//W3C//DTD SVG 1.1//EN" "http://www.w3.org/Graphics/SVG/1.1/DTD/svg11.dtd">
<svg version="1.1" id="Layer_1" xmlns="http://www.w3.org/2000/svg" xmlns:xlink="http://www.w3.org/1999/xlink" x="0px" y="0px"
	 width="48px" height="48px" viewBox="0 0 48 48" enable-background="new 0 0 48 48" xml:space="preserve">
<g>
	<path fill="none" stroke="#000000" stroke-width="2" stroke-miterlimit="10" d="M41.852,8.231V6.706
		c0-3.138-2.41-5.706-5.358-5.706H6.917C3.971,1,1.561,3.568,1.561,6.706v21.215c0,3.14,2.411,5.707,5.357,5.707H13.8v7.818
		L8.939,43.49V47h25.533v-3.51l-4.861-2.044v-7.818h6.883c2.948,0,5.358-2.567,5.358-5.707v-9.235"/>
	<g>
		<g>
			<path fill="none" stroke="#000000" stroke-width="2" stroke-miterlimit="10" d="M3.526,24c0,0,18.212,0.006,36.557-11.164"/>
			<g>
				<path d="M46.439,8.486c-2.254,3.139-4.698,7.552-5.65,11.121l-1.571-6.255l-5.209-3.802
					C37.676,10.006,42.685,9.396,46.439,8.486z"/>
			</g>
		</g>
	</g>
	<circle cx="4.338" cy="23.854" r="1.55"/>
	<path d="M16.461,22.302c0,0.857-0.692,1.552-1.552,1.552c-0.855,0-1.548-0.694-1.548-1.552c0-0.856,0.693-1.55,1.548-1.55
		C15.769,20.752,16.461,21.446,16.461,22.302z"/>
	<circle cx="29.103" cy="18.261" r="1.551"/>
</g>
</svg>
