<?xml version="1.0" encoding="utf-8"?>
<!-- Generator: Adobe Illustrator 16.0.0, SVG Export Plug-In . SVG Version: 6.00 Build 0)  -->
<!DOCTYPE svg PUBLIC "-//W3C//DTD SVG 1.1//EN" "http://www.w3.org/Graphics/SVG/1.1/DTD/svg11.dtd">
<svg version="1.1" id="Layer_1" xmlns="http://www.w3.org/2000/svg" xmlns:xlink="http://www.w3.org/1999/xlink" x="0px" y="0px"
	 width="48px" height="48px" viewBox="0 0 48 48" enable-background="new 0 0 48 48" xml:space="preserve">
<g>
	<path fill="none" stroke="#000000" stroke-width="2" stroke-miterlimit="10" d="M23.502,20.879
		c-6.111-7.599-8.855-7.827-11.45-12.09C9.955,5.348,8.435,4.031,5.749,3.842L4.283,1.951C3.561,1.013,2.346,0.719,1.587,1.293
		C0.829,1.867,0.801,3.104,1.524,4.042l1.465,1.893c-0.518,2.612,0.371,4.411,3.179,7.31c3.478,3.596,2.985,6.273,8.801,14.096
		c5.819,7.82,17.658,14.078,17.658,14.078S29.615,28.477,23.502,20.879z"/>
	<line fill="none" stroke="#000000" stroke-width="2" stroke-miterlimit="10" x1="5.848" y1="7.1" x2="15.071" y2="18.625"/>
	<path fill="none" stroke="#000000" stroke-width="2" stroke-miterlimit="10" d="M32.627,41.418c2.907,2.788-2.95,2.594-3.354,2.594
		c-1.042,0-2.018,0.09-2.981-0.249c-1.023-0.361-1.615-1.125-0.348-1.709c2.15-0.995,3.639,0.929,5.302,1.958
		c1.554,0.962,2.245,2.491,4.008,2.828c1.905,0.361,5.55,0,7.512,0c1.752,0,5.973-0.925,3.453-3.513"/>
</g>
</svg>
