<?xml version="1.0" encoding="utf-8"?>
<!-- Generator: Adobe Illustrator 16.0.0, SVG Export Plug-In . SVG Version: 6.00 Build 0)  -->
<!DOCTYPE svg PUBLIC "-//W3C//DTD SVG 1.1//EN" "http://www.w3.org/Graphics/SVG/1.1/DTD/svg11.dtd">
<svg version="1.1" id="Layer_1" xmlns="http://www.w3.org/2000/svg" xmlns:xlink="http://www.w3.org/1999/xlink" x="0px" y="0px"
	 width="48px" height="48px" viewBox="0 0 48 48" enable-background="new 0 0 48 48" xml:space="preserve">
<g>
	<path fill="none" stroke="#000000" stroke-width="2" stroke-miterlimit="10" d="M21.184,4.492c-4.687-4.656-12.284-4.656-16.973,0
		c-1.668,1.657-2.731,3.683-3.21,5.813l11.919-2.31c0.503-0.098,0.992,0.231,1.091,0.729l1.194,6.086
		c0.1,0.501-0.234,0.988-0.733,1.083L1.999,18.31c0.558,1.096,1.292,2.127,2.212,3.042c3.667,3.645,9.111,4.423,13.555,2.365
		c0.008,0.009,0.017,0.017,0.022,0.024L38.14,45.266c2.17,2.154,5.542,2.324,7.498,0.384c1.956-1.945,1.784-5.297-0.384-7.451
		L23.589,17.98c-0.008-0.009-0.017-0.015-0.024-0.023C25.635,13.544,24.851,8.134,21.184,4.492z"/>
	<path fill="none" stroke="#000000" stroke-width="2" stroke-miterlimit="10" d="M42.963,39.869c0.867,0.861,0.865,2.26,0,3.12
		c-0.868,0.861-2.271,0.861-3.143-0.002c-0.866-0.86-0.866-2.257,0-3.118C40.689,39.009,42.097,39.007,42.963,39.869z"/>
</g>
</svg>
