<?xml version="1.0" encoding="utf-8"?>
<!-- Generator: Adobe Illustrator 16.0.0, SVG Export Plug-In . SVG Version: 6.00 Build 0)  -->
<!DOCTYPE svg PUBLIC "-//W3C//DTD SVG 1.1//EN" "http://www.w3.org/Graphics/SVG/1.1/DTD/svg11.dtd">
<svg version="1.1" id="Layer_1" xmlns="http://www.w3.org/2000/svg" xmlns:xlink="http://www.w3.org/1999/xlink" x="0px" y="0px"
	 width="48px" height="48px" viewBox="0 0 48 48" enable-background="new 0 0 48 48" xml:space="preserve">
<g>
	<path d="M6.845,1.843l30.734,30.771l-0.498,1.068l-3.457,3.451l-1.068,0.498L1.875,6.914l0.498-1.071l3.479-3.479L6.845,1.843
		 M7.126,0L4.951,1.14L1.123,4.97L0.071,7.235l32.167,32.202l2.26-1.055l3.832-3.826l1.057-2.26L7.126,0L7.126,0z"/>
	<path d="M40.392,36.742l4.014,7.729l-7.725-4.023L40.392,36.742 M40.196,33.107l-0.805,2.512l-3.834,3.828l-2.512,0.801L47.929,48
		L40.196,33.107L40.196,33.107z"/>
	<path d="M43.7,45.033l-1.479-0.264c0.014-0.08,0.359-1.973,2.693-2.285l0.199,1.488C43.921,44.133,43.718,44.941,43.7,45.033z"/>
</g>
</svg>
