<?xml version="1.0" encoding="utf-8"?>
<!-- Generator: Adobe Illustrator 16.0.0, SVG Export Plug-In . SVG Version: 6.00 Build 0)  -->
<!DOCTYPE svg PUBLIC "-//W3C//DTD SVG 1.1//EN" "http://www.w3.org/Graphics/SVG/1.1/DTD/svg11.dtd">
<svg version="1.1" id="Layer_1" xmlns="http://www.w3.org/2000/svg" xmlns:xlink="http://www.w3.org/1999/xlink" x="0px" y="0px"
	 width="48px" height="48px" viewBox="0 0 48 48" enable-background="new 0 0 48 48" xml:space="preserve">
<g>
	<path d="M1.716,2.846c2.947,1.161,10.923,7.062,21.039,17.177c0.513,0.514,1.039,1.046,1.57,1.59l-3.845,3.844
		c-0.543-0.529-1.068-1.049-1.589-1.57C8.007,13.002,2.794,5.537,1.716,2.846 M0.868,1.132c-0.283,0-0.502,0.071-0.649,0.219
		c-1.653,1.653,6.231,12.218,17.61,23.596c0.896,0.896,1.785,1.77,2.666,2.617l5.938-5.935c-0.85-0.883-1.721-1.772-2.618-2.668
		C13.452,8.597,3.764,1.132,0.868,1.132L0.868,1.132z"/>
	<path d="M27.817,25.183c3.051,3.219,5.805,6.352,8.066,9.172l-2.66,2.66c-2.822-2.26-5.953-5.016-9.172-8.066L27.817,25.183
		 M27.841,23.036l-5.938,5.936c4.15,3.998,8.098,7.447,11.436,10.051l4.551-4.551C35.288,31.132,31.839,27.185,27.841,23.036
		L27.841,23.036z"/>
	<path d="M39.458,36.669c0.799,0.193,2.74,0.934,2.875,3.559c0.119,2.322,0.793,3.951,1.672,5.068
		c-0.443,0.047-0.871,0.07-1.281,0.07c-5.037,0-6.459-3.559-6.84-5.123L39.458,36.669 M39.12,35.106
		c-0.145,0-0.242,0.02-0.277,0.055l-4.578,4.578c0,0,0.783,7.129,8.459,7.129c1.486,0,3.229-0.268,5.277-0.906
		c0,0-3.875-0.117-4.168-5.811C43.628,36.167,40.157,35.106,39.12,35.106L39.12,35.106z"/>
</g>
</svg>
