<?xml version="1.0" encoding="utf-8"?>
<!-- Generator: Adobe Illustrator 16.0.0, SVG Export Plug-In . SVG Version: 6.00 Build 0)  -->
<!DOCTYPE svg PUBLIC "-//W3C//DTD SVG 1.1//EN" "http://www.w3.org/Graphics/SVG/1.1/DTD/svg11.dtd">
<svg version="1.1" id="Layer_1" xmlns="http://www.w3.org/2000/svg" xmlns:xlink="http://www.w3.org/1999/xlink" x="0px" y="0px"
	 width="48px" height="48px" viewBox="0 0 48 48" enable-background="new 0 0 48 48" xml:space="preserve">
<g>
	<path d="M3.699,36.759l-1.457-0.018C2.246,36.479,2.855,10.56,28.434,10.56v1.455c-10.135,0-17.373,4.149-21.516,12.332
		C3.809,30.491,3.699,36.696,3.699,36.759z"/>
	<g>
		<rect x="26.191" y="9.007" width="4.486" height="4.487"/>
		<path d="M31.404,14.222h-5.941V8.28h5.941V14.222z M26.92,12.767h3.029v-3.03H26.92V12.767z"/>
	</g>
	<path d="M5.941,39.72H0v-5.941h5.941V39.72z M1.457,38.265h3.029v-3.031H1.457V38.265z"/>
	<g>
		<line x1="11.287" y1="11.25" x2="45.58" y2="11.25"/>
		<rect x="11.287" y="10.522" width="34.293" height="1.456"/>
	</g>
	<g>
		<circle cx="11.853" cy="11.25" r="1.69"/>
		<path d="M11.854,13.67c-1.334,0-2.42-1.086-2.42-2.42c0-1.333,1.086-2.419,2.42-2.419s2.418,1.086,2.418,2.419
			C14.271,12.584,13.188,13.67,11.854,13.67z M11.854,10.287c-0.531,0-0.963,0.432-0.963,0.963s0.432,0.964,0.963,0.964
			s0.963-0.433,0.963-0.964S12.385,10.287,11.854,10.287z"/>
	</g>
	<g>
		<circle cx="45.58" cy="11.25" r="1.691"/>
		<path d="M45.58,13.67c-1.332,0-2.418-1.086-2.418-2.42c0-1.333,1.086-2.419,2.418-2.419c1.334,0,2.42,1.086,2.42,2.419
			C48,12.584,46.914,13.67,45.58,13.67z M45.58,10.287c-0.531,0-0.963,0.432-0.963,0.963s0.432,0.964,0.963,0.964
			s0.965-0.433,0.965-0.964S46.111,10.287,45.58,10.287z"/>
	</g>
</g>
</svg>
