<?xml version="1.0" encoding="utf-8"?>
<!-- Generator: Adobe Illustrator 16.0.0, SVG Export Plug-In . SVG Version: 6.00 Build 0)  -->
<!DOCTYPE svg PUBLIC "-//W3C//DTD SVG 1.1//EN" "http://www.w3.org/Graphics/SVG/1.1/DTD/svg11.dtd">
<svg version="1.1" id="Layer_1" xmlns="http://www.w3.org/2000/svg" xmlns:xlink="http://www.w3.org/1999/xlink" x="0px" y="0px"
	 width="48px" height="48px" viewBox="0 0 48 48" enable-background="new 0 0 48 48" xml:space="preserve">
<g>
	<path d="M6.127,48H0v-6.127h6.127V48z M1.502,46.498h3.125v-3.123H1.502V46.498z"/>
	<g>
		<path d="M3.68,45.936l-1.502-0.018C2.18,45.691,2.688,23.25,24.002,23.25v1.5c-8.305,0-14.242,3.533-17.648,10.498
			C3.777,40.518,3.68,45.881,3.68,45.936z"/>
		<path d="M24,24.75v-1.5c8.303,0,14.24-3.532,17.646-10.498c2.576-5.269,2.676-10.634,2.676-10.688l1.502,0.019
			C45.82,2.309,45.313,24.75,24,24.75z"/>
	</g>
	<path d="M48,6.128h-6.127V0H48V6.128z M43.375,4.627h3.123V1.502h-3.123V4.627z"/>
	<g>
		<g>
			<rect x="21.396" y="21.688" width="4.625" height="4.625"/>
			<path d="M26.773,27.064h-6.127v-6.127h6.127V27.064z M22.146,25.563h3.125v-3.125h-3.125V25.563z"/>
		</g>
		<g>
			<line x1="6.025" y1="24" x2="41.393" y2="24"/>
			<rect x="6.025" y="23.25" width="35.367" height="1.5"/>
		</g>
		<g>
			<circle cx="6.609" cy="24" r="1.744"/>
			<path d="M6.609,26.494c-1.375,0-2.494-1.119-2.494-2.494s1.119-2.494,2.494-2.494S9.104,22.625,9.104,24
				S7.984,26.494,6.609,26.494z M6.609,23.008c-0.549,0-0.992,0.445-0.992,0.992s0.443,0.994,0.992,0.994
				c0.547,0,0.994-0.447,0.994-0.994S7.156,23.008,6.609,23.008z"/>
		</g>
		<g>
			<circle cx="41.391" cy="24" r="1.744"/>
			<path d="M41.393,26.494c-1.377,0-2.496-1.119-2.496-2.494s1.119-2.494,2.496-2.494c1.375,0,2.494,1.119,2.494,2.494
				S42.768,26.494,41.393,26.494z M41.393,23.008c-0.549,0-0.994,0.445-0.994,0.992s0.445,0.994,0.994,0.994
				c0.547,0,0.992-0.447,0.992-0.994S41.939,23.008,41.393,23.008z"/>
		</g>
	</g>
</g>
</svg>
