<?xml version="1.0" encoding="utf-8"?>
<!-- Generator: Adobe Illustrator 16.0.0, SVG Export Plug-In . SVG Version: 6.00 Build 0)  -->
<!DOCTYPE svg PUBLIC "-//W3C//DTD SVG 1.1//EN" "http://www.w3.org/Graphics/SVG/1.1/DTD/svg11.dtd">
<svg version="1.1" id="Layer_1" xmlns="http://www.w3.org/2000/svg" xmlns:xlink="http://www.w3.org/1999/xlink" x="0px" y="0px"
	 width="48px" height="48px" viewBox="0 0 48 48" enable-background="new 0 0 48 48" xml:space="preserve">
<g>
	<path d="M12.396,37.132L12.396,37.132c-2.006,0-5.57-4.406-8.213-8.773c-1.579-2.609-2.844-5.205-3.562-7.308
		c-0.859-2.519-0.827-4.017,0.098-4.576L21.427,3.943c0.209-0.125,0.447-0.19,0.707-0.19c2.006,0,5.57,4.407,8.213,8.774
		c2.651,4.381,4.292,8.486,4.181,10.458c-0.074,0.953-0.797,1.436-1.377,1.824L13.104,36.94
		C12.895,37.067,12.656,37.132,12.396,37.132z M22.134,5.221L1.478,17.73c-0.338,0.561,0.643,4.386,3.961,9.868
		c3.143,5.193,6.108,8.066,6.957,8.066v0.732l0.004-0.732l19.963-12.092c0.53-0.357,0.687-0.508,0.7-0.688
		c0.078-1.37-1.261-5.119-3.972-9.6C25.948,8.093,22.982,5.221,22.134,5.221z"/>
	<path d="M30.005,44.247c-0.26,0-0.525-0.016-0.795-0.049c-0.348-0.045-0.67-0.109-0.988-0.178
		c-0.553-0.113-1.027-0.213-1.611-0.182c-0.303,0.014-0.598,0.053-0.889,0.09c-0.545,0.07-1.109,0.145-1.748,0.092
		c-1.354-0.113-2.456-1.107-2.563-2.313c-0.076-0.85,0.381-1.902,1.891-2.305c1.123-0.301,1.789,0.063,2.375,0.379
		c0.213,0.115,0.434,0.232,0.691,0.332c0.357,0.141,0.531,0.172,0.609,0.178c0.016-0.037,0.037-0.105,0.055-0.211
		c0.1-0.594-0.283-0.912-1.238-1.443c-0.871-0.484-1.874-1.254-1.688-2.156c0.191-0.932,1.373-1.053,1.76-1.092
		c1.602-0.162,2.877,0.455,3.598,1.74c0.104,0.186,0.199,0.396,0.295,0.613c0.271,0.613,0.436,0.889,0.652,0.98
		c0.035-0.223,0.006-0.463-0.041-0.795c-0.039-0.268-0.082-0.57-0.078-0.91c0.008-0.754,0.256-1.279,0.516-1.836
		c0.08-0.168,0.164-0.346,0.246-0.545c0.738-1.779,1.367-3.385,1.604-4.979c0.184-1.238,0.213-2.863,0.082-4.457
		c-0.057-0.688-0.113-1.039-0.304-1.303l0.796-0.576c-0.061-0.25-0.119-0.492-0.168-0.729l1.438-0.294
		c0.061,0.298,0.139,0.603,0.217,0.917c0.145,0.572,0.293,1.164,0.383,1.814c0.25,1.813,0.283,3.523,0.283,5.102
		c0,1.635,0.082,3.184,0.17,4.822l0.012,0.219c0.031,0.609,0.258,1.041,0.67,1.281c0.553,0.322,1.385,0.281,2.17-0.109
		c0.182-0.09,0.412-0.254,0.656-0.424c0.768-0.541,1.932-1.359,3.109-0.703c1.02,0.566,1.105,1.289,1.066,1.668
		c-0.111,1.066-1.318,1.715-2.016,1.932c-0.25,0.078-0.561,0.113-0.889,0.15s-0.99,0.113-1.184,0.25
		c0.004,0.01,0.008,0.029,0.016,0.053c0.041,0.145,0.158,0.232,1.211-0.068c0.26-0.074,0.498-0.139,0.688-0.166l0.654-0.096
		l0.162,0.641c0.127,0.506,0.281,0.617,0.326,0.639c0.227,0.115,0.863-0.152,1.328-0.348c0.551-0.23,1.121-0.469,1.701-0.494
		c0.66-0.029,1.607-0.002,2.229,0.59c0.242,0.23,0.531,0.646,0.535,1.318c0.006,1.514-1.252,1.836-1.928,2.01l-0.227,0.059
		c-1.789,0.492-3.246,0.289-4.791,0.076c-0.359-0.049-0.729-0.102-1.111-0.145c-0.57-0.063-0.865,0.076-1.4,0.324
		c-0.162,0.076-0.334,0.156-0.523,0.236c-1.111,0.461-1.965,0.299-2.871,0.129l-0.438-0.08c-0.867-0.152-1.729-0.014-2.636,0.133
		C31.407,44.138,30.722,44.247,30.005,44.247z M26.812,42.366c0.645,0,1.184,0.109,1.707,0.219c0.281,0.059,0.568,0.117,0.877,0.158
		c0.803,0.1,1.602-0.027,2.447-0.162c0.987-0.158,2.011-0.322,3.118-0.131l0.459,0.084c0.83,0.158,1.33,0.252,2.035-0.041
		c0.17-0.07,0.322-0.143,0.467-0.211c0.592-0.275,1.205-0.563,2.186-0.451c0.395,0.045,0.775,0.096,1.148,0.148
		c1.449,0.201,2.701,0.373,4.201-0.039l0.254-0.066c0.795-0.201,0.822-0.275,0.82-0.578c0-0.189-0.057-0.242-0.078-0.264
		c-0.072-0.066-0.33-0.223-1.15-0.188c-0.32,0.016-0.768,0.203-1.201,0.383c-0.807,0.34-1.721,0.723-2.551,0.307
		c-0.359-0.18-0.639-0.477-0.846-0.898c-0.795,0.225-2.479,0.648-2.947-0.949c-0.176-0.596-0.016-1.016,0.15-1.264
		c0.164-0.248,0.391-0.422,0.652-0.549c-1.09,0.398-2.205,0.35-3.063-0.15c-0.844-0.492-1.34-1.369-1.398-2.473l-0.01-0.217
		c-0.076-1.42-0.148-2.771-0.166-4.182c-0.328,1.42-0.885,2.824-1.515,4.348c-0.092,0.223-0.186,0.418-0.273,0.605
		c-0.223,0.479-0.373,0.795-0.377,1.229c-0.002,0.227,0.029,0.449,0.064,0.688c0.082,0.572,0.184,1.285-0.264,2.1l-0.172,0.311
		l-0.35,0.059c-1.674,0.279-2.266-1.055-2.621-1.852c-0.076-0.174-0.15-0.344-0.232-0.492c-0.43-0.766-1.16-1.098-2.17-0.998
		c-0.084,0.01-0.156,0.02-0.219,0.029c0.158,0.133,0.393,0.301,0.713,0.479c0.844,0.469,2.258,1.256,1.971,2.969
		c-0.102,0.604-0.355,1.027-0.756,1.254c-0.58,0.33-1.248,0.15-1.883-0.094c-0.348-0.135-0.621-0.283-0.863-0.414
		c-0.506-0.273-0.736-0.398-1.299-0.25c-0.318,0.086-0.848,0.297-0.807,0.756c0.037,0.428,0.517,0.92,1.224,0.98
		c0.481,0.041,0.946-0.02,1.437-0.084c0.33-0.043,0.662-0.084,1.008-0.102C26.632,42.368,26.724,42.366,26.812,42.366z
		 M41.23,36.446c-0.332,0-0.771,0.287-1.324,0.676c-0.291,0.205-0.564,0.398-0.848,0.539c-0.066,0.033-0.133,0.064-0.201,0.096
		c0.422-0.143,0.893-0.197,1.311-0.246c0.234-0.025,0.502-0.057,0.621-0.094c0.555-0.172,0.957-0.539,0.988-0.68
		c0,0-0.063-0.092-0.318-0.234C41.389,36.464,41.313,36.446,41.23,36.446z"/>
	<path d="M33.512,24.263c-1.429,0-4.495-1.291-9.382-9.628C19.727,7.12,20.911,4.598,21.192,4.169l0.613,0.402l0.634,0.37
		c-0.011,0.02-1.021,2.165,2.956,8.951c5.115,8.729,7.829,8.899,8.142,8.903l0.041,1.465C33.557,24.263,33.535,24.263,33.512,24.263
		z"/>
</g>
</svg>
