<?xml version="1.0" encoding="utf-8"?>
<!-- Generator: Adobe Illustrator 16.0.0, SVG Export Plug-In . SVG Version: 6.00 Build 0)  -->
<!DOCTYPE svg PUBLIC "-//W3C//DTD SVG 1.1//EN" "http://www.w3.org/Graphics/SVG/1.1/DTD/svg11.dtd">
<svg version="1.1" id="Layer_1" xmlns="http://www.w3.org/2000/svg" xmlns:xlink="http://www.w3.org/1999/xlink" x="0px" y="0px"
	 width="48px" height="48px" viewBox="0 0 48 48" enable-background="new 0 0 48 48" xml:space="preserve">
<g>
	<g>
		<path d="M12.396,37.132L12.396,37.132c-2.006,0-5.57-4.406-8.213-8.773c-1.578-2.609-2.844-5.203-3.561-7.308
			c-0.861-2.519-0.829-4.017,0.097-4.576L21.428,3.943c0.209-0.126,0.447-0.19,0.707-0.19c2.005,0,5.569,4.407,8.212,8.773
			c2.652,4.382,4.293,8.487,4.182,10.459c-0.076,0.955-0.797,1.436-1.377,1.824L13.105,36.942
			C12.896,37.067,12.657,37.132,12.396,37.132z M22.135,5.221L1.479,17.73c-0.339,0.562,0.642,4.386,3.96,9.87
			c3.143,5.191,6.108,8.064,6.957,8.064v0.734l0.004-0.734l19.964-12.092c0.529-0.357,0.686-0.506,0.699-0.688
			c0.078-1.37-1.262-5.119-3.971-9.6C25.948,8.093,22.982,5.221,22.135,5.221z"/>
		<path d="M30.005,44.247c-0.26,0-0.525-0.014-0.795-0.049c-0.348-0.045-0.67-0.111-0.988-0.176
			c-0.551-0.113-1.027-0.215-1.611-0.184c-0.303,0.014-0.598,0.053-0.889,0.092c-0.545,0.07-1.107,0.143-1.747,0.09
			c-1.354-0.113-2.456-1.107-2.563-2.313c-0.076-0.85,0.381-1.9,1.891-2.303c1.123-0.301,1.788,0.059,2.374,0.377
			c0.213,0.115,0.432,0.234,0.691,0.334c0.357,0.137,0.531,0.17,0.609,0.176c0.016-0.037,0.037-0.105,0.055-0.209
			c0.1-0.596-0.283-0.912-1.238-1.443c-0.873-0.486-1.872-1.254-1.687-2.158c0.191-0.932,1.373-1.053,1.759-1.09
			c1.598-0.164,2.877,0.453,3.598,1.738c0.104,0.186,0.199,0.396,0.295,0.615c0.271,0.613,0.436,0.887,0.652,0.979
			c0.035-0.223,0.006-0.463-0.041-0.795c-0.039-0.268-0.082-0.57-0.078-0.908c0.008-0.754,0.254-1.279,0.516-1.836
			c0.08-0.168,0.162-0.348,0.244-0.545c0.738-1.781,1.369-3.385,1.607-4.979c0.184-1.238,0.213-2.865,0.082-4.459
			c-0.057-0.701-0.113-1.037-0.305-1.301l0.797-0.578c-0.061-0.248-0.119-0.492-0.168-0.729l1.438-0.293
			c0.061,0.299,0.139,0.604,0.219,0.92c0.143,0.57,0.291,1.162,0.381,1.811c0.25,1.814,0.283,3.525,0.283,5.104
			c0,1.641,0.082,3.193,0.17,4.838l0.012,0.199c0.031,0.611,0.258,1.043,0.67,1.283c0.553,0.324,1.383,0.281,2.17-0.109
			c0.182-0.09,0.412-0.252,0.656-0.424c0.814-0.574,1.932-1.357,3.109-0.701c1.02,0.566,1.105,1.287,1.066,1.666
			c-0.111,1.066-1.318,1.717-2.014,1.932c-0.252,0.08-0.561,0.113-0.891,0.15c-0.326,0.037-0.99,0.113-1.184,0.25
			c0.004,0.012,0.008,0.029,0.016,0.055c0.041,0.145,0.158,0.23,1.211-0.07c0.26-0.074,0.498-0.137,0.688-0.166l0.654-0.096
			l0.162,0.643c0.127,0.504,0.281,0.615,0.326,0.637c0.227,0.115,0.863-0.152,1.328-0.346c0.551-0.23,1.121-0.469,1.701-0.496
			c0.658-0.029,1.607,0,2.229,0.592c0.242,0.229,0.531,0.646,0.533,1.318c0.008,1.514-1.25,1.834-1.926,2.006l-0.227,0.061
			c-1.789,0.492-3.248,0.291-4.791,0.076c-0.359-0.049-0.729-0.1-1.111-0.143c-0.57-0.064-0.865,0.074-1.4,0.324
			c-0.162,0.076-0.334,0.156-0.525,0.234c-1.109,0.461-1.965,0.301-2.869,0.129l-0.438-0.08c-0.867-0.15-1.727-0.012-2.637,0.133
			C31.407,44.138,30.722,44.247,30.005,44.247z M26.812,42.366c0.645,0,1.184,0.111,1.707,0.219
			c0.283,0.059,0.568,0.119,0.877,0.158c0.803,0.102,1.602-0.025,2.447-0.162c0.988-0.158,2.01-0.322,3.119-0.129l0.459,0.084
			c0.828,0.156,1.33,0.25,2.035-0.043c0.17-0.07,0.322-0.143,0.469-0.209c0.59-0.275,1.203-0.563,2.182-0.453
			c0.398,0.045,0.777,0.098,1.15,0.15c1.451,0.199,2.703,0.373,4.201-0.041l0.252-0.064c0.797-0.203,0.824-0.275,0.822-0.58
			c0-0.188-0.057-0.242-0.078-0.262c-0.072-0.07-0.332-0.225-1.15-0.188c-0.32,0.014-0.768,0.201-1.201,0.383
			c-0.807,0.338-1.721,0.721-2.551,0.305c-0.359-0.178-0.641-0.475-0.846-0.898c-0.797,0.225-2.48,0.648-2.947-0.949
			c-0.176-0.594-0.016-1.016,0.15-1.264c0.164-0.248,0.391-0.422,0.652-0.547c-1.09,0.398-2.205,0.348-3.063-0.152
			c-0.844-0.49-1.34-1.367-1.398-2.473l-0.01-0.199c-0.076-1.426-0.148-2.783-0.166-4.197c-0.328,1.42-0.885,2.824-1.516,4.348
			c-0.092,0.221-0.186,0.418-0.273,0.605c-0.225,0.479-0.373,0.793-0.377,1.227c-0.002,0.227,0.029,0.451,0.064,0.688
			c0.082,0.572,0.184,1.287-0.264,2.1l-0.172,0.313l-0.35,0.059c-1.676,0.277-2.266-1.057-2.621-1.854
			c-0.076-0.174-0.15-0.344-0.232-0.49c-0.43-0.766-1.158-1.1-2.17-0.998c-0.084,0.008-0.156,0.018-0.219,0.029
			c0.158,0.133,0.393,0.299,0.713,0.479c0.844,0.469,2.258,1.254,1.971,2.967c-0.102,0.604-0.355,1.027-0.756,1.256
			c-0.58,0.33-1.248,0.15-1.883-0.096c-0.348-0.133-0.621-0.281-0.863-0.414c-0.505-0.273-0.736-0.398-1.298-0.25
			c-0.318,0.086-0.848,0.297-0.807,0.758c0.037,0.424,0.516,0.92,1.224,0.979c0.482,0.041,0.945-0.02,1.435-0.082
			c0.33-0.043,0.662-0.086,1.008-0.104C26.632,42.368,26.724,42.366,26.812,42.366z M41.231,36.446
			c-0.332,0-0.771,0.287-1.324,0.676c-0.291,0.205-0.564,0.398-0.848,0.539c-0.066,0.033-0.135,0.064-0.201,0.096
			c0.422-0.143,0.893-0.197,1.311-0.244c0.236-0.027,0.502-0.059,0.621-0.094c0.555-0.172,0.957-0.539,0.988-0.68l0,0
			c-0.01,0-0.072-0.1-0.318-0.236C41.39,36.466,41.313,36.446,41.231,36.446z"/>
		<path d="M33.513,24.265c-1.43,0-4.496-1.291-9.382-9.63C19.728,7.12,20.912,4.598,21.193,4.169l0.613,0.402l0.634,0.37
			c-0.011,0.02-1.021,2.166,2.955,8.951c5.115,8.729,7.834,8.901,8.143,8.903l0.041,1.467
			C33.558,24.263,33.536,24.265,33.513,24.265z"/>
	</g>
	<path fill="#FFFFFF" stroke="#231F20" stroke-width="2" stroke-miterlimit="10" d="M22.137,17.805"/>
	<path d="M20.888,17.807c-5.87-2.002-13.172-5.029-14.622-8.084C5.944,9.045,5.9,8.381,6.135,7.751
		c1.16-3.121,9.442-1.4,11.09-1.023l-0.326,1.431C12.735,7.21,7.971,7.023,7.511,8.261C7.451,8.42,7.395,8.68,7.592,9.094
		c0.932,1.964,6.08,4.702,13.77,7.325L20.888,17.807z"/>
	<path d="M22.936,20.263c-1.387,0-2.516-1.129-2.516-2.516c0-1.388,1.129-2.517,2.516-2.517c1.388,0,2.517,1.129,2.517,2.517
		C25.452,19.134,24.324,20.263,22.936,20.263z M22.936,16.698c-0.578,0-1.049,0.471-1.049,1.049c0,0.577,0.471,1.049,1.049,1.049
		s1.049-0.472,1.049-1.049C23.984,17.169,23.514,16.698,22.936,16.698z"/>
</g>
</svg>
