<?xml version="1.0" encoding="utf-8"?>
<!-- Generator: Adobe Illustrator 16.0.0, SVG Export Plug-In . SVG Version: 6.00 Build 0)  -->
<!DOCTYPE svg PUBLIC "-//W3C//DTD SVG 1.1//EN" "http://www.w3.org/Graphics/SVG/1.1/DTD/svg11.dtd">
<svg version="1.1" id="Layer_1" xmlns="http://www.w3.org/2000/svg" xmlns:xlink="http://www.w3.org/1999/xlink" x="0px" y="0px"
	 width="48px" height="48px" viewBox="0 0 48 48" enable-background="new 0 0 48 48" xml:space="preserve">
<g>
	<path fill="none" stroke="#000000" stroke-width="2" stroke-miterlimit="10" d="M2.345,5.848h32.871
		C41.715,5.848,47,11.136,47,17.633v21.603"/>
	<path fill="none" stroke="#000000" stroke-width="2" stroke-miterlimit="10" d="M41.107,36.26c0,3.242-2.647,5.893-5.892,5.893
		H6.892C3.65,42.152,1,39.502,1,36.26V17.633c0-3.243,2.65-5.892,5.892-5.892h28.324c3.244,0,5.892,2.649,5.892,5.892V36.26z"/>
	<path fill="none" stroke="#000000" stroke-width="2" stroke-miterlimit="10" d="M2.345,39.236c0.006-0.594,0.895-1.039,1.306-1.441
		c0.643-0.627,1.368-1.187,1.934-1.883c1.003-1.243,1.97-2.49,2.998-3.71c1.306-1.555,2.393-3.161,3.56-4.778
		c0.685-0.955,1.828-3.672,3.278-2.986c1.656,0.784,2.167,2.858,3.526,3.938c1.553,1.227,2.868,2.483,4.088,4.019
		c0.384,0.476,0.656,1.258,1.188,1.553c0.886,0.489,1.563-0.375,2.183-0.921c0.857-0.771,1.782-1.562,2.436-2.533
		c0.396-0.588,0.713-1.141,1.212-1.668c1.395-1.477,2.771-0.68,4.291,0.287c2.196,1.412,4.106,3.237,6.327,4.621"/>
	<path fill="none" stroke="#000000" stroke-width="2" stroke-miterlimit="10" d="M29.927,19.968c0,2.001-1.619,3.626-3.617,3.626
		c-2.009,0-3.628-1.625-3.628-3.626c0-1.997,1.619-3.622,3.628-3.622C28.308,16.347,29.927,17.971,29.927,19.968z"/>
</g>
</svg>
