<?xml version="1.0" encoding="utf-8"?>
<!-- Generator: Adobe Illustrator 16.0.0, SVG Export Plug-In . SVG Version: 6.00 Build 0)  -->
<!DOCTYPE svg PUBLIC "-//W3C//DTD SVG 1.1//EN" "http://www.w3.org/Graphics/SVG/1.1/DTD/svg11.dtd">
<svg version="1.1" id="Layer_1" xmlns="http://www.w3.org/2000/svg" xmlns:xlink="http://www.w3.org/1999/xlink" x="0px" y="0px"
	 width="48px" height="48px" viewBox="0 0 48 48" enable-background="new 0 0 48 48" xml:space="preserve">
<g>
	<rect x="23.252" width="1.496" height="7.594"/>
	<rect x="23.252" y="32.777" width="1.496" height="10.816"/>
	<g>
		<rect x="9.182" y="32.584" transform="matrix(0.9748 0.2233 -0.2233 0.9748 9.2504 -1.1996)" width="1.496" height="15.444"/>
		<rect x="17.393" y="1.738" transform="matrix(0.9748 0.2231 -0.2231 0.9748 1.4474 -3.9362)" width="1.497" height="5.398"/>
		<rect x="30.348" y="39.557" transform="matrix(0.2232 0.9748 -0.9748 0.2232 68.8616 -5.8006)" width="15.444" height="1.497"/>
		<rect x="27.16" y="3.688" transform="matrix(0.2232 0.9748 -0.9748 0.2232 27.5179 -25.6597)" width="5.398" height="1.497"/>
	</g>
	<path d="M44.156,33.352H3.843V6.529h40.313V33.352z M5.339,31.854H42.66V8.024H5.339V31.854z"/>
	<rect x="10.013" y="39.191" width="27.972" height="1.496"/>
	<g>
		<path d="M21.91,30.422c-1.563,0-2.292-0.719-2.364-2.328c-0.065-1.482,0.651-2.072,1.912-2.586c0.199-0.082,0.4-0.158,0.599-0.232
			c0.861-0.32,1.606-0.596,2.057-1.342c0.29-0.482,0.553-1.137,0.418-1.531c-0.031-0.095-0.099-0.228-0.335-0.321
			c-0.507-0.199-0.826,0.146-1.242,0.595c-0.26,0.279-0.527,0.568-0.875,0.76c-0.639,0.354-1.322,0.445-1.982,0.533
			c-0.215,0.029-0.43,0.057-0.643,0.094c-0.197,0.037-0.391,0.074-0.582,0.115c-0.543,0.107-1.102,0.221-1.703,0.24
			c-0.75,0.025-1.506,0.102-2.451,0.246c-0.1,0.016-0.211,0.039-0.326,0.061c-0.426,0.084-0.949,0.17-1.32,0.084
			c-0.522-0.119-1.014-0.494-1.35-1.029c-0.34-0.547-0.464-1.172-0.337-1.717c0.288-1.23,2.335-2.056,3.1-2.271
			c0.858-0.24,2.321-0.199,3.366,0.064c1.255,0.313,2.189,0.346,2.771,0.103c0.117-0.049,0.239-0.139,0.367-0.233
			c0.221-0.163,0.47-0.348,0.805-0.417c0.455-0.093,0.825,0.056,1.139,0.183c0.191,0.079,0.371,0.151,0.554,0.163
			c0.003,0,0.006,0,0.009,0c0.304,0,0.535-0.104,0.678-0.278c0.086-0.105,0.178-0.285,0.125-0.541
			c-0.066-0.326-0.316-0.545-1.316-0.545c-0.139,0-0.275,0.003-0.408,0.007c-0.266,0.005-0.517,0.011-0.725-0.007
			c-1.663-0.141-3.742-0.836-5.295-1.771l-0.08-0.047c-0.941-0.565-2.364-1.42-2.592-2.684c-0.137-0.762-0.064-1.303,0.23-1.707
			c0.385-0.526,1.063-0.68,1.676-0.761c0.424-0.056,0.979-0.119,1.523-0.119c1.077,0,1.945,0.249,2.73,0.784
			c0.99,0.672,1.74,1.431,2.535,2.233c0.287,0.29,0.576,0.582,0.881,0.874c0.32,0.307,0.713,0.682,1.046,0.682
			c0.123,0,0.244-0.054,0.369-0.166c0.029-0.049,0.096-0.316,0.141-0.493c0.137-0.548,0.307-1.232,0.881-1.232
			c0.111,0,0.225,0.03,0.336,0.092c0.35,0.189,0.404,0.586,0.447,0.904c0.068,0.482,0.123,0.539,0.305,0.555h0.002
			c0.551,0,0.748-1.113,0.865-1.778c0.039-0.221,0.074-0.413,0.111-0.553l0.072-0.267c0.359-1.346,0.904-3.379,2.582-3.379
			c0.148,0,0.305,0.018,0.465,0.053c0.682,0.15,1.256,0.583,1.662,1.248c0.525,0.858,0.693,1.991,0.439,2.955
			c-0.328,1.239-1.43,1.825-2.404,2.341c-0.373,0.198-0.725,0.385-1.02,0.598c-0.123,0.088-0.236,0.188-0.35,0.297h0.336
			l-0.99,0.688c-0.111,0.072-0.293,0.215-0.262,0.357c0.033,0.158,0.289,0.36,0.617,0.411c1.002,0.153,2.008-0.068,2.893-0.333
			l0.449-0.137c1.117-0.342,2.508-0.769,3.77-0.769c0.541,0,1.021,0.081,1.428,0.241c0.918,0.362,1.766,1.227,2.109,2.152
			c0.256,0.688,0.227,1.366-0.086,1.961c-0.5,0.952-1.623,1.455-3.248,1.455l0,0c-0.818,0-1.758-0.137-2.514-0.369l-0.461-0.146
			c-0.602-0.191-1.223-0.387-1.836-0.505l-0.201-0.04c-0.166-0.033-0.309-0.063-0.396-0.063c-0.041,0-0.09,0-0.201,0.286
			c-0.143,0.367-0.012,0.563,0.275,0.934c0.258,0.336,0.58,0.752,0.529,1.385l-0.025,0.328l-0.33,0.018
			c-0.271,0.012-0.561-0.004-0.857-0.021c-0.434-0.023-0.887-0.035-1.188,0.023c-0.242,0.049-0.242,0.049-0.27,0.352
			c-0.018,0.172-0.037,0.387-0.115,0.635l-0.078,0.246L28.5,26.055c-1.221,0.074-1.588,0.096-1.883,1.098
			c-0.053,0.178-0.082,0.447-0.115,0.732c-0.074,0.664-0.16,1.416-0.592,1.824c-0.594,0.559-1.946,0.648-3.28,0.689
			c-0.156,0.006-0.297,0.01-0.412,0.016C22.111,30.42,22.009,30.422,21.91,30.422z M23.899,21.27c0.184,0,0.376,0.038,0.57,0.115
			c0.384,0.151,0.65,0.419,0.771,0.776c0.264,0.782-0.254,1.771-0.488,2.159c-0.584,0.969-1.524,1.318-2.435,1.656
			c-0.191,0.072-0.385,0.145-0.576,0.223c-1.18,0.482-1.492,0.883-1.447,1.863c0.057,1.293,0.537,1.67,1.887,1.604
			c0.118-0.006,0.264-0.012,0.426-0.016c0.764-0.025,2.353-0.074,2.79-0.486c0.234-0.221,0.305-0.854,0.363-1.363
			c0.035-0.318,0.068-0.619,0.141-0.859c0.408-1.393,1.158-1.541,2.275-1.615c0.014-0.082,0.02-0.16,0.027-0.238
			c0.035-0.363,0.082-0.859,0.871-1.016c0.369-0.072,0.875-0.063,1.375-0.035c0.127,0.006,0.254,0.014,0.379,0.018
			c-0.061-0.168-0.178-0.324-0.332-0.523c-0.303-0.395-0.682-0.887-0.379-1.662c0.148-0.377,0.369-0.763,0.898-0.763
			c0.164,0,0.332,0.034,0.545,0.077l0.193,0.039c0.656,0.125,1.299,0.329,1.92,0.525l0.457,0.144
			c0.688,0.211,1.545,0.337,2.293,0.337l0,0c0.928,0,2.127-0.183,2.586-1.054c0.213-0.407,0.229-0.863,0.047-1.354
			c-0.27-0.727-0.961-1.432-1.684-1.716c-0.318-0.127-0.705-0.189-1.152-0.189c-1.148,0-2.48,0.408-3.551,0.737l-0.453,0.137
			c-0.963,0.289-2.086,0.531-3.221,0.355c-0.621-0.095-1.131-0.504-1.236-0.992c-0.02-0.096-0.037-0.262,0.02-0.455h-0.244
			l0.705-0.658c0.145-0.124,0.277-0.258,0.408-0.392c0.205-0.206,0.416-0.418,0.672-0.604c0.336-0.241,0.729-0.449,1.107-0.65
			c0.918-0.487,1.787-0.948,2.029-1.871c0.201-0.762,0.063-1.694-0.354-2.373c-0.207-0.341-0.582-0.774-1.186-0.908
			c-1.324-0.29-1.834,1.567-2.162,2.788L28.684,13.3c-0.033,0.123-0.063,0.293-0.098,0.487c-0.158,0.896-0.424,2.397-1.563,2.397
			l-0.105-0.004c-0.822-0.071-0.924-0.804-0.98-1.197c-0.01-0.067-0.021-0.161-0.039-0.236c-0.061,0.157-0.121,0.398-0.158,0.549
			c-0.098,0.392-0.174,0.701-0.371,0.875c-0.266,0.234-0.557,0.353-0.865,0.353c-0.634,0-1.146-0.491-1.558-0.886
			c-0.315-0.301-0.609-0.598-0.9-0.891c-0.77-0.777-1.495-1.511-2.425-2.144c-0.665-0.451-1.377-0.653-2.31-0.653
			c-0.502,0-1.025,0.06-1.426,0.113c-0.637,0.084-0.998,0.226-1.17,0.46c-0.162,0.223-0.195,0.594-0.098,1.133
			c0.168,0.93,1.415,1.68,2.241,2.175l0.079,0.048c1.441,0.867,3.439,1.536,4.975,1.665c0.186,0.017,0.407,0.01,0.643,0.006
			c0.139-0.005,0.281-0.008,0.426-0.008c0.543,0,1.813,0,2.048,1.144c0.088,0.424-0.012,0.837-0.277,1.164
			c-0.283,0.348-0.734,0.556-1.206,0.556l-0.107-0.003c-0.305-0.021-0.561-0.125-0.787-0.218c-0.258-0.104-0.463-0.193-0.708-0.143
			c-0.173,0.035-0.328,0.151-0.509,0.284c-0.159,0.119-0.324,0.24-0.524,0.323c-0.747,0.311-1.811,0.29-3.24-0.067
			c-0.914-0.229-2.265-0.271-2.983-0.07c-0.975,0.273-2.41,1.023-2.573,1.721c-0.081,0.348,0.011,0.777,0.244,1.15
			c0.227,0.361,0.556,0.623,0.88,0.695c0.23,0.055,0.66-0.018,1.01-0.088c0.127-0.023,0.248-0.049,0.357-0.064
			c0.976-0.15,1.759-0.229,2.54-0.254c0.538-0.02,1.044-0.121,1.579-0.229c0.197-0.039,0.396-0.08,0.6-0.117
			c0.224-0.039,0.449-0.068,0.674-0.1c0.619-0.082,1.205-0.162,1.72-0.445c0.243-0.133,0.46-0.368,0.688-0.615
			C22.796,21.746,23.236,21.27,23.899,21.27z"/>
		<path d="M19.278,20.802l-1.375-2.203c-0.363-0.579-1.874-0.586-2.6-0.588l-0.214-0.002c-0.001,0-0.003,0-0.005,0
			c-0.303,0-0.58,0.021-0.867,0.043c-0.326,0.023-0.663,0.049-0.994,0.049c-0.55,0-1.351-0.061-1.955-0.583
			c-0.458-0.395-0.656-0.814-0.693-1.196c-0.129,0.063-0.262,0.137-0.398,0.211c-0.486,0.268-1.039,0.57-1.619,0.57H8.557
			c-0.151,0-0.298-0.021-0.438-0.063c-0.584-0.171-0.948-0.571-0.972-1.07c-0.026-0.537,0.349-1.041,0.955-1.282
			c0.624-0.25,1.542-0.319,2.521-0.205c0.307,0.036,0.777,0.118,1.223,0.242c0.189-0.049,0.388-0.073,0.592-0.073l0.121,0.003
			c1.305,0.061,2.712,0.803,3.436,1.239c0.249,0.151,2.439,1.508,2.715,2.618L19.278,20.802z M11.648,15.445l-0.249,0.434
			c-0.187,0.325-0.057,0.717,0.356,1.072c0.322,0.277,0.774,0.401,1.468,0.401c0.313,0,0.631-0.023,0.939-0.047
			c0.307-0.023,0.605-0.046,0.879-0.046l0.265,0.003c0.411,0.001,0.936,0.003,1.45,0.071c-0.361-0.286-0.764-0.566-1.152-0.802
			c-0.532-0.321-1.9-1.077-3.082-1.132l-0.086-0.002c-0.169,0-0.33,0.024-0.48,0.071l-0.109,0.034l-0.109-0.032
			C11.708,15.463,11.678,15.454,11.648,15.445z M9.723,15.176c-0.543,0-1.008,0.071-1.344,0.206
			c-0.345,0.137-0.493,0.382-0.485,0.552c0.008,0.169,0.167,0.31,0.436,0.389c0.072,0.021,0.146,0.032,0.229,0.032l0,0
			c0.389,0,0.832-0.243,1.26-0.478c0.198-0.109,0.391-0.214,0.572-0.294l0.104-0.046c0.127-0.057,0.277-0.124,0.439-0.19
			l0.105-0.042c-0.191-0.037-0.365-0.063-0.504-0.08C10.26,15.193,9.986,15.176,9.723,15.176z"/>
		<path d="M17.127,26.805l0.755-1.588l1.218,0.004l-0.64,0.648c-0.031,0.029-0.066,0.055-0.102,0.078L17.127,26.805z"/>
		<path d="M12.063,30.816c-0.277,0-0.567-0.037-0.863-0.111c-0.418-0.104-1.002-0.414-1.273-0.947
			c-0.164-0.324-0.18-0.672-0.043-1.008c0.299-0.727,1.156-0.727,1.479-0.727c0.165,0,0.331,0.008,0.488,0.016
			c0.125,0.008,0.243,0.014,0.35,0.014l0,0c0.952,0,1.914-0.295,3.046-0.93c0.328-0.182,0.584-0.387,0.88-0.625l0.095-0.074
			c0.274-0.221,0.58-0.391,0.876-0.557c0.281-0.156,0.546-0.305,0.768-0.482l1.396-1.131l-0.83,1.594
			c-0.111,0.215-0.264,0.334-0.399,0.439c-0.037,0.029-0.077,0.061-0.116,0.096l-0.428,0.375c-0.783,0.678-1.521,1.322-2.213,2.111
			C14.557,29.689,13.572,30.816,12.063,30.816z M11.362,28.771c-0.601,0-0.736,0.141-0.785,0.262
			c-0.055,0.133-0.049,0.256,0.018,0.385c0.139,0.275,0.501,0.49,0.785,0.561c0.237,0.059,0.467,0.09,0.684,0.09
			c1.083,0,1.811-0.734,2.648-1.693c0.074-0.084,0.149-0.168,0.225-0.25c-1.127,0.533-2.131,0.717-3.125,0.662
			C11.667,28.779,11.515,28.771,11.362,28.771z"/>
		<path d="M32.762,16.291l0.529-1.017c0.326-0.626,0.807-1.292,1.27-1.937c0.215-0.3,0.428-0.594,0.615-0.874
			c0.32-0.475,0.973-0.985,1.646-0.985c0.553,0,0.982,0.349,1.18,0.958c0.145,0.448,0.117,0.869-0.082,1.249
			c-0.496,0.948-1.934,1.385-3.09,1.731c-0.361,0.11-0.701,0.212-0.928,0.309L32.762,16.291z M36.822,12.227
			c-0.326,0-0.777,0.287-1.025,0.655c-0.191,0.286-0.408,0.587-0.629,0.894c-0.23,0.319-0.465,0.645-0.678,0.963
			c0.041-0.012,0.082-0.024,0.123-0.037c0.969-0.292,2.293-0.692,2.645-1.363c0.105-0.201,0.115-0.413,0.033-0.672
			C37.148,12.227,36.912,12.227,36.822,12.227z"/>
		<path d="M37.707,27.574c-0.002,0-0.002,0-0.002,0c-0.197,0-0.477-0.016-0.684-0.094c-0.492-0.186-0.732-0.586-0.945-0.938
			c-0.078-0.133-0.158-0.266-0.252-0.383c-0.51-0.625-1.373-1.4-2.266-1.705l-1.188-0.404l1.215-0.313
			c1.213-0.311,2.781-0.025,4.047,0.713c0.705,0.412,1.652,1.053,1.723,1.84c0.021,0.254-0.039,0.633-0.461,0.99
			C38.582,27.547,37.961,27.574,37.707,27.574z M34.994,24.371c0.504,0.352,0.992,0.805,1.41,1.316
			c0.117,0.143,0.217,0.307,0.314,0.469c0.17,0.285,0.316,0.531,0.566,0.625c0.045,0.016,0.186,0.045,0.42,0.045
			c0.389,0,0.652-0.074,0.707-0.115c0.213-0.182,0.201-0.307,0.199-0.354c-0.018-0.184-0.215-0.594-1.355-1.26
			C36.557,24.689,35.75,24.434,34.994,24.371z"/>
		<path d="M33.604,24.502l-0.033-0.086l-0.014,0.039l0.01-0.049l-0.242-0.596l0.27-0.135l1.361,0.445l-1.275,0.363
			C33.654,24.49,33.629,24.494,33.604,24.502z"/>
	</g>
</g>
</svg>
