<?xml version="1.0" encoding="utf-8"?>
<!-- Generator: Adobe Illustrator 16.0.0, SVG Export Plug-In . SVG Version: 6.00 Build 0)  -->
<!DOCTYPE svg PUBLIC "-//W3C//DTD SVG 1.1//EN" "http://www.w3.org/Graphics/SVG/1.1/DTD/svg11.dtd">
<svg version="1.1" id="Layer_1" xmlns="http://www.w3.org/2000/svg" xmlns:xlink="http://www.w3.org/1999/xlink" x="0px" y="0px"
	 width="48px" height="48px" viewBox="0 0 48 48" enable-background="new 0 0 48 48" xml:space="preserve">
<g>
	<g>
		<g>
			<line x1="47.271" y1="47.271" x2="27.141" y2="27.141"/>
			<rect x="22.97" y="36.479" transform="matrix(0.7071 0.7071 -0.7071 0.7071 37.2065 -15.4103)" width="28.469" height="1.456"/>
		</g>
		<polygon points="48,48 30.158,48 30.158,46.543 46.543,46.543 46.543,30.158 48,30.158 		"/>
	</g>
	<g>
		<g>
			<line x1="47.271" y1="0.729" x2="27.141" y2="20.859"/>
			<rect x="36.477" y="-3.44" transform="matrix(0.7068 0.7074 -0.7074 0.7068 18.5457 -23.1553)" width="1.456" height="28.469"/>
		</g>
		<polygon points="48,17.842 46.543,17.842 46.543,1.456 30.158,1.456 30.158,0 48,0 		"/>
	</g>
	<g>
		<g>
			<line x1="0.728" y1="47.271" x2="20.858" y2="27.141"/>
			<rect x="10.065" y="22.972" transform="matrix(0.7074 0.7068 -0.7068 0.7074 29.4546 3.2567)" width="1.456" height="28.469"/>
		</g>
		<polygon points="17.841,48 0,48 0,30.158 1.456,30.158 1.456,46.543 17.841,46.543 		"/>
	</g>
	<g>
		<g>
			<line x1="0.728" y1="0.729" x2="20.858" y2="20.859"/>
			<rect x="-3.441" y="10.066" transform="matrix(0.7071 0.7071 -0.7071 0.7071 10.7938 -4.4707)" width="28.469" height="1.456"/>
		</g>
		<polygon points="1.456,17.842 0,17.842 0,0 17.841,0 17.841,1.456 1.456,1.456 		"/>
	</g>
</g>
</svg>
