<?xml version="1.0" encoding="utf-8"?>
<!-- Generator: Adobe Illustrator 16.0.0, SVG Export Plug-In . SVG Version: 6.00 Build 0)  -->
<!DOCTYPE svg PUBLIC "-//W3C//DTD SVG 1.1//EN" "http://www.w3.org/Graphics/SVG/1.1/DTD/svg11.dtd">
<svg version="1.1" id="Layer_1" xmlns="http://www.w3.org/2000/svg" xmlns:xlink="http://www.w3.org/1999/xlink" x="0px" y="0px"
	 width="48px" height="48px" viewBox="0 0 48 48" enable-background="new 0 0 48 48" xml:space="preserve">
<g>
	<path d="M24,39.393c-8.486,0-15.391-6.906-15.391-15.393c0-8.487,6.904-15.393,15.391-15.393S39.393,15.513,39.393,24
		C39.393,32.486,32.486,39.393,24,39.393z M24,10.096c-7.666,0-13.902,6.238-13.902,13.904S16.334,37.902,24,37.902
		S37.904,31.666,37.904,24S31.666,10.096,24,10.096z"/>
	<g>
		<line x1="47.457" y1="0.526" x2="0.543" y2="47.473"/>
		<rect x="23.256" y="-9.184" transform="matrix(0.7071 0.7071 -0.7071 0.7071 24 -9.9411)" width="1.489" height="66.369"/>
	</g>
	<path d="M3.49,4.861c-0.779,0-1.41-0.633-1.41-1.41c0-0.778,0.631-1.41,1.41-1.41c0.777,0,1.41,0.632,1.41,1.41
		C4.9,4.229,4.268,4.861,3.49,4.861z M3.49,2.785c-0.367,0-0.666,0.298-0.666,0.666c0,0.367,0.299,0.666,0.666,0.666
		s0.666-0.299,0.666-0.666C4.156,3.083,3.857,2.785,3.49,2.785z"/>
	<path d="M7.826,4.861c-0.777,0-1.408-0.633-1.408-1.41c0-0.778,0.631-1.41,1.408-1.41s1.412,0.632,1.412,1.41
		C9.238,4.229,8.604,4.861,7.826,4.861z M7.826,2.785c-0.367,0-0.666,0.298-0.666,0.666c0,0.367,0.299,0.666,0.666,0.666
		s0.666-0.299,0.666-0.666C8.492,3.083,8.193,2.785,7.826,2.785z"/>
	<path d="M12.164,4.861c-0.777,0-1.41-0.633-1.41-1.41c0-0.778,0.633-1.41,1.41-1.41s1.41,0.632,1.41,1.41
		C13.574,4.229,12.941,4.861,12.164,4.861z M12.164,2.785c-0.367,0-0.666,0.298-0.666,0.666c0,0.367,0.299,0.666,0.666,0.666
		s0.666-0.299,0.666-0.666C12.83,3.083,12.531,2.785,12.164,2.785z"/>
	<path d="M16.502,4.861c-0.779,0-1.412-0.633-1.412-1.41c0-0.778,0.633-1.41,1.412-1.41c0.777,0,1.41,0.632,1.41,1.41
		C17.912,4.229,17.279,4.861,16.502,4.861z M16.502,2.785c-0.367,0-0.666,0.298-0.666,0.666c0,0.367,0.299,0.666,0.666,0.666
		s0.666-0.299,0.666-0.666C17.168,3.083,16.869,2.785,16.502,2.785z"/>
	<path d="M20.84,4.861c-0.779,0-1.412-0.633-1.412-1.41c0-0.778,0.633-1.41,1.412-1.41c0.777,0,1.408,0.632,1.408,1.41
		C22.248,4.229,21.617,4.861,20.84,4.861z M20.84,2.785c-0.367,0-0.668,0.298-0.668,0.666c0,0.367,0.301,0.666,0.668,0.666
		c0.365,0,0.666-0.299,0.666-0.666C21.506,3.083,21.205,2.785,20.84,2.785z"/>
	<path d="M25.176,4.861c-0.777,0-1.41-0.633-1.41-1.41c0-0.778,0.633-1.41,1.41-1.41c0.779,0,1.41,0.632,1.41,1.41
		C26.586,4.229,25.955,4.861,25.176,4.861z M25.176,2.785c-0.367,0-0.666,0.298-0.666,0.666c0,0.367,0.299,0.666,0.666,0.666
		s0.666-0.299,0.666-0.666C25.842,3.083,25.543,2.785,25.176,2.785z"/>
	<path d="M29.514,4.861c-0.779,0-1.412-0.633-1.412-1.41c0-0.778,0.633-1.41,1.412-1.41c0.777,0,1.41,0.632,1.41,1.41
		C30.924,4.229,30.291,4.861,29.514,4.861z M29.514,2.785c-0.369,0-0.668,0.298-0.668,0.666c0,0.367,0.299,0.666,0.668,0.666
		c0.367,0,0.664-0.299,0.664-0.666C30.178,3.083,29.881,2.785,29.514,2.785z"/>
	<path d="M33.85,4.861c-0.777,0-1.41-0.633-1.41-1.41c0-0.778,0.633-1.41,1.41-1.41s1.41,0.632,1.41,1.41
		C35.26,4.229,34.627,4.861,33.85,4.861z M33.85,2.785c-0.367,0-0.666,0.298-0.666,0.666c0,0.367,0.299,0.666,0.666,0.666
		s0.666-0.299,0.666-0.666C34.516,3.083,34.217,2.785,33.85,2.785z"/>
	<path d="M38.188,4.861c-0.777,0-1.41-0.633-1.41-1.41c0-0.778,0.633-1.41,1.41-1.41s1.41,0.632,1.41,1.41
		C39.598,4.229,38.965,4.861,38.188,4.861z M38.188,2.785c-0.367,0-0.666,0.298-0.666,0.666c0,0.367,0.299,0.666,0.666,0.666
		s0.666-0.299,0.666-0.666C38.854,3.083,38.555,2.785,38.188,2.785z"/>
	<path d="M3.49,8.642c-0.779,0-1.41-0.633-1.41-1.41S2.711,5.82,3.49,5.82c0.777,0,1.41,0.634,1.41,1.411S4.268,8.642,3.49,8.642z
		 M3.49,6.564c-0.367,0-0.666,0.299-0.666,0.667c0,0.367,0.299,0.665,0.666,0.665s0.666-0.298,0.666-0.665
		C4.156,6.863,3.857,6.564,3.49,6.564z"/>
	<path d="M7.826,8.642c-0.777,0-1.408-0.633-1.408-1.41S7.049,5.82,7.826,5.82s1.412,0.634,1.412,1.411S8.604,8.642,7.826,8.642z
		 M7.826,6.564c-0.367,0-0.666,0.299-0.666,0.667c0,0.367,0.299,0.665,0.666,0.665s0.666-0.298,0.666-0.665
		C8.492,6.863,8.193,6.564,7.826,6.564z"/>
	<path d="M12.164,8.642c-0.777,0-1.41-0.633-1.41-1.41s0.633-1.411,1.41-1.411s1.41,0.634,1.41,1.411S12.941,8.642,12.164,8.642z
		 M12.164,6.564c-0.367,0-0.666,0.299-0.666,0.667c0,0.367,0.299,0.665,0.666,0.665s0.666-0.298,0.666-0.665
		C12.83,6.863,12.531,6.564,12.164,6.564z"/>
	<path d="M16.502,8.642c-0.779,0-1.412-0.633-1.412-1.41s0.633-1.411,1.412-1.411c0.777,0,1.41,0.634,1.41,1.411
		S17.279,8.642,16.502,8.642z M16.502,6.564c-0.367,0-0.666,0.299-0.666,0.667c0,0.367,0.299,0.665,0.666,0.665
		s0.666-0.298,0.666-0.665C17.168,6.863,16.869,6.564,16.502,6.564z"/>
	<path d="M20.84,8.642c-0.779,0-1.412-0.633-1.412-1.41S20.061,5.82,20.84,5.82c0.777,0,1.408,0.634,1.408,1.411
		S21.617,8.642,20.84,8.642z M20.84,6.564c-0.367,0-0.668,0.299-0.668,0.667c0,0.367,0.301,0.665,0.668,0.665
		c0.365,0,0.666-0.298,0.666-0.665C21.506,6.863,21.205,6.564,20.84,6.564z"/>
	<path d="M25.176,8.642c-0.777,0-1.41-0.633-1.41-1.41s0.633-1.411,1.41-1.411c0.779,0,1.41,0.634,1.41,1.411
		S25.955,8.642,25.176,8.642z M25.176,6.564c-0.367,0-0.666,0.299-0.666,0.667c0,0.367,0.299,0.665,0.666,0.665
		s0.666-0.298,0.666-0.665C25.842,6.863,25.543,6.564,25.176,6.564z"/>
	<path d="M29.514,8.642c-0.779,0-1.412-0.633-1.412-1.41s0.633-1.411,1.412-1.411c0.777,0,1.41,0.634,1.41,1.411
		S30.291,8.642,29.514,8.642z M29.514,6.564c-0.369,0-0.668,0.299-0.668,0.667c0,0.367,0.299,0.665,0.668,0.665
		c0.367,0,0.664-0.298,0.664-0.665C30.178,6.863,29.881,6.564,29.514,6.564z"/>
	<path d="M33.85,8.642c-0.777,0-1.41-0.633-1.41-1.41s0.633-1.411,1.41-1.411s1.41,0.634,1.41,1.411S34.627,8.642,33.85,8.642z
		 M33.85,6.564c-0.367,0-0.666,0.299-0.666,0.667c0,0.367,0.299,0.665,0.666,0.665s0.666-0.298,0.666-0.665
		C34.516,6.863,34.217,6.564,33.85,6.564z"/>
	<path d="M38.188,8.642c-0.777,0-1.41-0.633-1.41-1.41s0.633-1.411,1.41-1.411s1.41,0.634,1.41,1.411S38.965,8.642,38.188,8.642z
		 M38.188,6.564c-0.367,0-0.666,0.299-0.666,0.667c0,0.367,0.299,0.665,0.666,0.665s0.666-0.298,0.666-0.665
		C38.854,6.863,38.555,6.564,38.188,6.564z"/>
	<path d="M3.49,12.421c-0.779,0-1.41-0.631-1.41-1.409c0-0.777,0.631-1.41,1.41-1.41c0.777,0,1.41,0.633,1.41,1.41
		C4.9,11.79,4.268,12.421,3.49,12.421z M3.49,10.346c-0.367,0-0.666,0.299-0.666,0.666s0.299,0.666,0.666,0.666
		s0.666-0.299,0.666-0.666S3.857,10.346,3.49,10.346z"/>
	<path d="M7.826,12.421c-0.777,0-1.408-0.631-1.408-1.409c0-0.777,0.631-1.41,1.408-1.41s1.412,0.633,1.412,1.41
		C9.238,11.79,8.604,12.421,7.826,12.421z M7.826,10.346c-0.367,0-0.666,0.299-0.666,0.666s0.299,0.666,0.666,0.666
		s0.666-0.299,0.666-0.666S8.193,10.346,7.826,10.346z"/>
	<path d="M12.164,12.421c-0.777,0-1.41-0.631-1.41-1.409c0-0.777,0.633-1.41,1.41-1.41s1.41,0.633,1.41,1.41
		C13.574,11.79,12.941,12.421,12.164,12.421z M12.164,10.346c-0.367,0-0.666,0.299-0.666,0.666s0.299,0.666,0.666,0.666
		s0.666-0.299,0.666-0.666S12.531,10.346,12.164,10.346z"/>
	<path d="M3.49,16.201c-0.779,0-1.41-0.632-1.41-1.41c0-0.777,0.631-1.41,1.41-1.41c0.777,0,1.41,0.633,1.41,1.41
		C4.9,15.569,4.268,16.201,3.49,16.201z M3.49,14.126c-0.367,0-0.666,0.299-0.666,0.665c0,0.368,0.299,0.667,0.666,0.667
		s0.666-0.299,0.666-0.667C4.156,14.425,3.857,14.126,3.49,14.126z"/>
	<path d="M7.826,16.201c-0.777,0-1.408-0.632-1.408-1.41c0-0.777,0.631-1.41,1.408-1.41s1.412,0.633,1.412,1.41
		C9.238,15.569,8.604,16.201,7.826,16.201z M7.826,14.126c-0.367,0-0.666,0.299-0.666,0.665c0,0.368,0.299,0.667,0.666,0.667
		s0.666-0.299,0.666-0.667C8.492,14.425,8.193,14.126,7.826,14.126z"/>
	<path d="M3.49,19.981c-0.779,0-1.41-0.633-1.41-1.41c0-0.778,0.631-1.41,1.41-1.41c0.777,0,1.41,0.632,1.41,1.41
		C4.9,19.349,4.268,19.981,3.49,19.981z M3.49,17.905c-0.367,0-0.666,0.299-0.666,0.666s0.299,0.666,0.666,0.666
		s0.666-0.299,0.666-0.666S3.857,17.905,3.49,17.905z"/>
	<path d="M7.826,19.981c-0.777,0-1.408-0.633-1.408-1.41c0-0.778,0.631-1.41,1.408-1.41s1.412,0.632,1.412,1.41
		C9.238,19.349,8.604,19.981,7.826,19.981z M7.826,17.905c-0.367,0-0.666,0.299-0.666,0.666s0.299,0.666,0.666,0.666
		s0.666-0.299,0.666-0.666S8.193,17.905,7.826,17.905z"/>
	<path d="M34.693,20.833c-0.777,0-1.412-0.633-1.412-1.41s0.635-1.41,1.412-1.41s1.41,0.633,1.41,1.41S35.471,20.833,34.693,20.833z
		 M34.693,18.757c-0.369,0-0.666,0.299-0.666,0.666s0.297,0.666,0.666,0.666c0.367,0,0.666-0.299,0.666-0.666
		S35.061,18.757,34.693,18.757z"/>
	<path d="M3.49,23.762c-0.779,0-1.41-0.633-1.41-1.41c0-0.778,0.631-1.41,1.41-1.41c0.777,0,1.41,0.632,1.41,1.41
		C4.9,23.129,4.268,23.762,3.49,23.762z M3.49,21.686c-0.367,0-0.666,0.298-0.666,0.666c0,0.367,0.299,0.666,0.666,0.666
		s0.666-0.299,0.666-0.666C4.156,21.983,3.857,21.686,3.49,21.686z"/>
	<path d="M7.826,23.762c-0.777,0-1.408-0.633-1.408-1.41c0-0.778,0.631-1.41,1.408-1.41s1.412,0.632,1.412,1.41
		C9.238,23.129,8.604,23.762,7.826,23.762z M7.826,21.686c-0.367,0-0.666,0.298-0.666,0.666c0,0.367,0.299,0.666,0.666,0.666
		s0.666-0.299,0.666-0.666C8.492,21.983,8.193,21.686,7.826,21.686z"/>
	<path d="M30.355,24.611c-0.777,0-1.41-0.631-1.41-1.408s0.633-1.41,1.41-1.41c0.779,0,1.41,0.633,1.41,1.41
		S31.135,24.611,30.355,24.611z M30.355,22.537c-0.367,0-0.666,0.297-0.666,0.666c0,0.367,0.299,0.666,0.666,0.666
		s0.666-0.299,0.666-0.666C31.021,22.834,30.723,22.537,30.355,22.537z"/>
	<path d="M34.693,24.611c-0.777,0-1.412-0.631-1.412-1.408s0.635-1.41,1.412-1.41s1.41,0.633,1.41,1.41S35.471,24.611,34.693,24.611
		z M34.693,22.537c-0.369,0-0.666,0.297-0.666,0.666c0,0.367,0.297,0.666,0.666,0.666c0.367,0,0.666-0.299,0.666-0.666
		C35.359,22.834,35.061,22.537,34.693,22.537z"/>
	<path d="M3.49,27.541c-0.779,0-1.41-0.633-1.41-1.41s0.631-1.41,1.41-1.41c0.777,0,1.41,0.633,1.41,1.41S4.268,27.541,3.49,27.541z
		 M3.49,25.465c-0.367,0-0.666,0.299-0.666,0.666s0.299,0.666,0.666,0.666s0.666-0.299,0.666-0.666S3.857,25.465,3.49,25.465z"/>
	<path d="M7.826,27.541c-0.777,0-1.408-0.633-1.408-1.41s0.631-1.41,1.408-1.41s1.412,0.633,1.412,1.41S8.604,27.541,7.826,27.541z
		 M7.826,25.465c-0.367,0-0.666,0.299-0.666,0.666s0.299,0.666,0.666,0.666s0.666-0.299,0.666-0.666S8.193,25.465,7.826,25.465z"/>
	<path d="M26.02,28.393c-0.779,0-1.41-0.633-1.41-1.41s0.631-1.41,1.41-1.41c0.777,0,1.408,0.633,1.408,1.41
		S26.797,28.393,26.02,28.393z M26.02,26.316c-0.367,0-0.668,0.299-0.668,0.666s0.301,0.666,0.668,0.666s0.666-0.299,0.666-0.666
		S26.387,26.316,26.02,26.316z"/>
	<path d="M30.355,28.393c-0.777,0-1.41-0.633-1.41-1.41s0.633-1.41,1.41-1.41c0.779,0,1.41,0.633,1.41,1.41
		S31.135,28.393,30.355,28.393z M30.355,26.316c-0.367,0-0.666,0.299-0.666,0.666s0.299,0.666,0.666,0.666s0.666-0.299,0.666-0.666
		S30.723,26.316,30.355,26.316z"/>
	<path d="M34.693,28.393c-0.777,0-1.412-0.633-1.412-1.41s0.635-1.41,1.412-1.41s1.41,0.633,1.41,1.41S35.471,28.393,34.693,28.393z
		 M34.693,26.316c-0.369,0-0.666,0.299-0.666,0.666s0.297,0.666,0.666,0.666c0.367,0,0.666-0.299,0.666-0.666
		S35.061,26.316,34.693,26.316z"/>
	<path d="M3.49,31.32c-0.779,0-1.41-0.633-1.41-1.41s0.631-1.41,1.41-1.41c0.777,0,1.41,0.633,1.41,1.41S4.268,31.32,3.49,31.32z
		 M3.49,29.244c-0.367,0-0.666,0.301-0.666,0.666c0,0.367,0.299,0.668,0.666,0.668s0.666-0.301,0.666-0.668
		C4.156,29.545,3.857,29.244,3.49,29.244z"/>
	<path d="M7.826,31.32c-0.777,0-1.408-0.633-1.408-1.41s0.631-1.41,1.408-1.41s1.412,0.633,1.412,1.41S8.604,31.32,7.826,31.32z
		 M7.826,29.244c-0.367,0-0.666,0.301-0.666,0.666c0,0.367,0.299,0.668,0.666,0.668s0.666-0.301,0.666-0.668
		C8.492,29.545,8.193,29.244,7.826,29.244z"/>
	<path d="M21.682,32.174c-0.779,0-1.41-0.635-1.41-1.41c0-0.779,0.631-1.41,1.41-1.41c0.777,0,1.41,0.631,1.41,1.41
		C23.092,31.539,22.459,32.174,21.682,32.174z M21.682,30.096c-0.367,0-0.666,0.299-0.666,0.668c0,0.365,0.299,0.664,0.666,0.664
		s0.666-0.299,0.666-0.664C22.348,30.395,22.049,30.096,21.682,30.096z"/>
	<path d="M26.02,32.174c-0.779,0-1.41-0.635-1.41-1.41c0-0.779,0.631-1.41,1.41-1.41c0.777,0,1.408,0.631,1.408,1.41
		C27.428,31.539,26.797,32.174,26.02,32.174z M26.02,30.096c-0.367,0-0.668,0.299-0.668,0.668c0,0.365,0.301,0.664,0.668,0.664
		s0.666-0.299,0.666-0.664C26.686,30.395,26.387,30.096,26.02,30.096z"/>
	<path d="M30.355,32.174c-0.777,0-1.41-0.635-1.41-1.41c0-0.779,0.633-1.41,1.41-1.41c0.779,0,1.41,0.631,1.41,1.41
		C31.766,31.539,31.135,32.174,30.355,32.174z M30.355,30.096c-0.367,0-0.666,0.299-0.666,0.668c0,0.365,0.299,0.664,0.666,0.664
		s0.666-0.299,0.666-0.664C31.021,30.395,30.723,30.096,30.355,30.096z"/>
	<path d="M34.693,32.174c-0.777,0-1.412-0.635-1.412-1.41c0-0.779,0.635-1.41,1.412-1.41s1.41,0.631,1.41,1.41
		C36.104,31.539,35.471,32.174,34.693,32.174z M34.693,30.096c-0.369,0-0.666,0.299-0.666,0.668c0,0.365,0.297,0.664,0.666,0.664
		c0.367,0,0.666-0.299,0.666-0.664C35.359,30.395,35.061,30.096,34.693,30.096z"/>
	<path d="M3.49,35.102c-0.779,0-1.41-0.633-1.41-1.41s0.631-1.41,1.41-1.41c0.777,0,1.41,0.633,1.41,1.41S4.268,35.102,3.49,35.102z
		 M3.49,33.025c-0.367,0-0.666,0.299-0.666,0.666s0.299,0.666,0.666,0.666s0.666-0.299,0.666-0.666S3.857,33.025,3.49,33.025z"/>
	<path d="M7.826,35.102c-0.777,0-1.408-0.633-1.408-1.41s0.631-1.41,1.408-1.41s1.412,0.633,1.412,1.41S8.604,35.102,7.826,35.102z
		 M7.826,33.025c-0.367,0-0.666,0.299-0.666,0.666s0.299,0.666,0.666,0.666s0.666-0.299,0.666-0.666S8.193,33.025,7.826,33.025z"/>
	<path d="M17.346,35.953c-0.779,0-1.412-0.633-1.412-1.41s0.633-1.41,1.412-1.41c0.775,0,1.41,0.633,1.41,1.41
		S18.121,35.953,17.346,35.953z M17.346,33.875c-0.369,0-0.668,0.301-0.668,0.668s0.299,0.666,0.668,0.666
		c0.367,0,0.664-0.299,0.664-0.666S17.713,33.875,17.346,33.875z"/>
	<path d="M21.682,35.953c-0.779,0-1.41-0.633-1.41-1.41s0.631-1.41,1.41-1.41c0.777,0,1.41,0.633,1.41,1.41
		S22.459,35.953,21.682,35.953z M21.682,33.875c-0.367,0-0.666,0.301-0.666,0.668s0.299,0.666,0.666,0.666s0.666-0.299,0.666-0.666
		S22.049,33.875,21.682,33.875z"/>
	<path d="M26.02,35.953c-0.779,0-1.41-0.633-1.41-1.41s0.631-1.41,1.41-1.41c0.777,0,1.408,0.633,1.408,1.41
		S26.797,35.953,26.02,35.953z M26.02,33.875c-0.367,0-0.668,0.301-0.668,0.668s0.301,0.666,0.668,0.666s0.666-0.299,0.666-0.666
		S26.387,33.875,26.02,33.875z"/>
	<path d="M30.355,35.953c-0.777,0-1.41-0.633-1.41-1.41s0.633-1.41,1.41-1.41c0.779,0,1.41,0.633,1.41,1.41
		S31.135,35.953,30.355,35.953z M30.355,33.875c-0.367,0-0.666,0.301-0.666,0.668s0.299,0.666,0.666,0.666s0.666-0.299,0.666-0.666
		S30.723,33.875,30.355,33.875z"/>
	<path d="M3.49,38.881c-0.779,0-1.41-0.633-1.41-1.41s0.631-1.41,1.41-1.41c0.777,0,1.41,0.633,1.41,1.41S4.268,38.881,3.49,38.881z
		 M3.49,36.805c-0.367,0-0.666,0.299-0.666,0.666s0.299,0.666,0.666,0.666s0.666-0.299,0.666-0.666S3.857,36.805,3.49,36.805z"/>
	<path d="M7.826,38.881c-0.777,0-1.408-0.633-1.408-1.41s0.631-1.41,1.408-1.41s1.412,0.633,1.412,1.41S8.604,38.881,7.826,38.881z
		 M7.826,36.805c-0.367,0-0.666,0.299-0.666,0.666s0.299,0.666,0.666,0.666s0.666-0.299,0.666-0.666S8.193,36.805,7.826,36.805z"/>
	<path d="M3.49,42.66c-0.779,0-1.41-0.633-1.41-1.41c0-0.775,0.631-1.41,1.41-1.41c0.777,0,1.41,0.635,1.41,1.41
		C4.9,42.027,4.268,42.66,3.49,42.66z M3.49,40.586c-0.367,0-0.666,0.297-0.666,0.664c0,0.369,0.299,0.668,0.666,0.668
		s0.666-0.299,0.666-0.668C4.156,40.883,3.857,40.586,3.49,40.586z"/>
	<path d="M46.301,1.701v44.598h-44.6V1.701H46.301 M47.789,0.213H0.213v47.574h47.576V0.213L47.789,0.213z"/>
</g>
</svg>
