<?xml version="1.0" encoding="utf-8"?>
<!-- Generator: Adobe Illustrator 16.0.0, SVG Export Plug-In . SVG Version: 6.00 Build 0)  -->
<!DOCTYPE svg PUBLIC "-//W3C//DTD SVG 1.1//EN" "http://www.w3.org/Graphics/SVG/1.1/DTD/svg11.dtd">
<svg version="1.1" id="Layer_1" xmlns="http://www.w3.org/2000/svg" xmlns:xlink="http://www.w3.org/1999/xlink" x="0px" y="0px"
	 width="48px" height="48px" viewBox="0 0 48 48" enable-background="new 0 0 48 48" xml:space="preserve">
<g>
	<g>
		<path fill="none" stroke="#000000" stroke-width="2" stroke-miterlimit="10" d="M27.6,35.563c0.47-1.661,3.625-6.151,3.625-6.151
			c2.781-2.779,2.774-7.333-0.003-10.109l-2.519-2.521c-2.783-2.78-7.337-2.777-10.12,0.003c0,0-4.489,3.155-6.154,3.627
			c-3.644,1.046-6.04,1.052-8.463,3.475c-4.263,4.259-3.196,12.224,2.369,17.785c5.564,5.564,13.535,6.619,17.793,2.356
			C26.551,41.607,26.553,39.209,27.6,35.563z"/>
		<path d="M18.583,35.113c-1.568,1.567-4.119,1.57-5.693,0c-1.567-1.57-1.572-4.113-0.003-5.689c1.577-1.57,4.125-1.57,5.696,0
			C20.147,30.994,20.153,33.539,18.583,35.113z"/>
		
			<line fill="none" stroke="#000000" stroke-width="2" stroke-linecap="round" stroke-miterlimit="10" x1="44.716" y1="3.282" x2="29.955" y2="18.04"/>
		
			<line fill="none" stroke="#000000" stroke-width="2" stroke-linecap="round" stroke-miterlimit="10" x1="42.787" y1="1.354" x2="46.646" y2="5.21"/>
	</g>
</g>
</svg>
