<?xml version="1.0" encoding="utf-8"?>
<!-- Generator: Adobe Illustrator 16.0.0, SVG Export Plug-In . SVG Version: 6.00 Build 0)  -->
<!DOCTYPE svg PUBLIC "-//W3C//DTD SVG 1.1//EN" "http://www.w3.org/Graphics/SVG/1.1/DTD/svg11.dtd">
<svg version="1.1" id="Layer_1" xmlns="http://www.w3.org/2000/svg" xmlns:xlink="http://www.w3.org/1999/xlink" x="0px" y="0px"
	 width="48px" height="48px" viewBox="0 0 48 48" enable-background="new 0 0 48 48" xml:space="preserve">
<g>
	<path d="M24,48C10.766,48,0,37.232,0,24C0,10.767,10.766,0,24,0c13.232,0,24,10.767,24,24C48,37.232,37.232,48,24,48z M24,1.456
		C11.568,1.456,1.455,11.569,1.455,24c0,12.43,10.113,22.543,22.545,22.543c12.43,0,22.543-10.113,22.543-22.543
		C46.543,11.569,36.43,1.456,24,1.456z"/>
	<path d="M29.301,33.182H18.699L13.396,24l5.303-9.183h10.602L34.604,24L29.301,33.182z M19.539,31.727h8.922L32.922,24
		l-4.461-7.726h-8.922L15.078,24L19.539,31.727z"/>
	<g>
		<rect x="24" y="14.817" width="21.684" height="1.457"/>
		<rect x="2.314" y="31.727" width="21.686" height="1.455"/>
	</g>
	<g>
		<rect x="26.01" y="28.153" transform="matrix(0.5189 0.8548 -0.8548 0.5189 42.4193 -17.6079)" width="21.685" height="1.457"/>
		<rect x="0.304" y="18.389" transform="matrix(0.5189 0.8548 -0.8548 0.5189 21.7045 -0.3312)" width="21.684" height="1.456"/>
	</g>
	<g>
		<rect x="24.888" y="26.811" transform="matrix(0.8552 0.5182 -0.5182 0.8552 23.2218 -7.824)" width="1.455" height="21.685"/>
		<rect x="21.656" y="-0.496" transform="matrix(0.8556 0.5176 -0.5176 0.8556 8.588 -10.0929)" width="1.456" height="21.684"/>
	</g>
</g>
</svg>
