<?xml version="1.0" encoding="utf-8"?>
<!-- Generator: Adobe Illustrator 16.0.0, SVG Export Plug-In . SVG Version: 6.00 Build 0)  -->
<!DOCTYPE svg PUBLIC "-//W3C//DTD SVG 1.1//EN" "http://www.w3.org/Graphics/SVG/1.1/DTD/svg11.dtd">
<svg version="1.1" id="Layer_1" xmlns="http://www.w3.org/2000/svg" xmlns:xlink="http://www.w3.org/1999/xlink" x="0px" y="0px"
	 width="48px" height="48px" viewBox="0 0 48 48" enable-background="new 0 0 48 48" xml:space="preserve">
<g>
	<path d="M10.122,42.776c-1.275,0-2.406-0.811-2.811-2.02L0.153,19.423c-0.518-1.55,0.318-3.231,1.865-3.748L32.708,5.376
		c0.303-0.101,0.619-0.152,0.938-0.152c1.277,0,2.406,0.811,2.813,2.018l7.156,21.336c0.52,1.547-0.316,3.229-1.863,3.748
		L11.06,42.622C10.757,42.724,10.44,42.776,10.122,42.776z M33.646,6.68c-0.162,0-0.32,0.025-0.475,0.077L2.481,17.054
		c-0.785,0.263-1.211,1.119-0.947,1.906L8.69,40.294c0.258,0.766,1.131,1.207,1.906,0.949l30.689-10.297
		c0.787-0.264,1.213-1.119,0.949-1.906L35.077,7.704C34.872,7.091,34.296,6.68,33.646,6.68z"/>
	<g>
		<path d="M27.073,24.288c-0.303,0-0.584-0.191-0.688-0.49l-1.355-3.933c-0.131-0.376,0.066-0.787,0.441-0.922
			c0.775-0.279,1.566-0.559,2.373-0.836c8.205-2.824,15.584-4.722,18.365-4.722c0.396,0,1.449,0,1.723,0.793
			c0.252,0.729,0.049,1.65-5.307,4.162c-3.387,1.587-7.982,3.4-12.941,5.107c-0.807,0.277-1.602,0.543-2.383,0.803
			C27.226,24.274,27.147,24.288,27.073,24.288z M26.64,20.071l0.887,2.57c0.557-0.186,1.117-0.375,1.684-0.57
			c9.096-3.13,15.039-5.934,16.82-7.228c-2.74,0.083-9.947,1.968-17.713,4.641C27.751,19.68,27.192,19.875,26.64,20.071z"/>
		<path d="M16.015,27.579c-0.305,0-0.586-0.193-0.688-0.49l-1.039-3.014c-0.123-0.354,0.047-0.746,0.389-0.9
			c2.668-1.2,5.965-2.514,9.531-3.798c0.184-0.065,0.385-0.055,0.561,0.028c0.176,0.085,0.311,0.236,0.373,0.42l1.355,3.932
			c0.063,0.184,0.051,0.387-0.037,0.561c-0.086,0.174-0.238,0.307-0.424,0.367c-3.6,1.184-7.006,2.178-9.85,2.873
			C16.13,27.571,16.071,27.579,16.015,27.579z M15.882,24.233l0.604,1.75c2.482-0.629,5.357-1.467,8.395-2.451l-0.873-2.534
			C21.005,22.091,18.224,23.198,15.882,24.233z"/>
		<path d="M6.271,30.237c-0.111,0-0.223-0.025-0.328-0.08c-0.311-0.158-0.467-0.512-0.369-0.848
			c1.543-5.236,5.553-5.803,7.205-5.803c0.689,0,1.145,0.09,1.193,0.1c0.252,0.051,0.457,0.232,0.541,0.475l0.977,2.83
			c0.09,0.26,0.035,0.531-0.162,0.807c-0.475,0.668-1.898,1.727-3.691,1.727l0,0c-0.398,0-0.803-0.053-1.195-0.156
			c-0.482-0.125-0.943-0.189-1.369-0.189c-1.535,0-2.191,0.82-2.219,0.855C6.71,30.136,6.491,30.237,6.271,30.237z M9.071,27.644
			c0.551,0,1.135,0.08,1.736,0.238c0.273,0.07,0.555,0.107,0.828,0.107l0,0c1.164,0,2.018-0.631,2.355-0.953l-0.707-2.053
			c-0.139-0.012-0.311-0.02-0.506-0.02c-1.348,0-3.566,0.414-4.994,2.838C8.159,27.706,8.587,27.644,9.071,27.644z"/>
	</g>
	<path d="M13.339,38.292c-2.121,0-3.846-1.725-3.846-3.846c0-2.119,1.725-3.846,3.846-3.846s3.846,1.727,3.846,3.846
		C17.185,36.567,15.46,38.292,13.339,38.292z M13.339,32.056c-1.318,0-2.391,1.072-2.391,2.391s1.072,2.393,2.391,2.393
		s2.391-1.074,2.391-2.393S14.657,32.056,13.339,32.056z"/>
	<path d="M20.946,35.851c-2.119,0-3.846-1.727-3.846-3.846c0-2.123,1.727-3.848,3.846-3.848c2.121,0,3.846,1.725,3.846,3.848
		C24.792,34.124,23.067,35.851,20.946,35.851z M20.946,29.612c-1.316,0-2.389,1.072-2.389,2.393c0,1.316,1.072,2.389,2.389,2.389
		c1.318,0,2.391-1.072,2.391-2.389C23.337,30.685,22.265,29.612,20.946,29.612z"/>
	<path d="M28.554,33.407c-2.119,0-3.846-1.727-3.846-3.846c0-2.123,1.727-3.846,3.846-3.846c2.121,0,3.848,1.723,3.848,3.846
		C32.401,31.681,30.675,33.407,28.554,33.407z M28.554,27.169c-1.316,0-2.389,1.074-2.389,2.393c0,1.316,1.072,2.389,2.389,2.389
		c1.32,0,2.393-1.072,2.393-2.389C30.946,28.243,29.874,27.169,28.554,27.169z"/>
	<path d="M36.163,30.964c-2.121,0-3.846-1.727-3.846-3.846c0-2.121,1.725-3.846,3.846-3.846s3.846,1.725,3.846,3.846
		C40.009,29.237,38.284,30.964,36.163,30.964z M36.163,24.728c-1.318,0-2.391,1.072-2.391,2.391s1.072,2.389,2.391,2.389
		s2.391-1.07,2.391-2.389S37.481,24.728,36.163,24.728z"/>
	<path d="M7.788,23.521c-2.121,0-3.846-1.726-3.846-3.846c0-2.121,1.725-3.847,3.846-3.847s3.846,1.726,3.846,3.847
		C11.634,21.795,9.909,23.521,7.788,23.521z M7.788,17.284c-1.318,0-2.391,1.072-2.391,2.391c0,1.317,1.072,2.391,2.391,2.391
		s2.391-1.073,2.391-2.391C10.179,18.356,9.106,17.284,7.788,17.284z"/>
	<path d="M15.396,21.077c-2.121,0-3.846-1.726-3.846-3.846s1.725-3.846,3.846-3.846s3.848,1.726,3.848,3.846
		S17.517,21.077,15.396,21.077z M15.396,14.842c-1.316,0-2.389,1.072-2.389,2.39c0,1.318,1.072,2.391,2.389,2.391
		c1.318,0,2.391-1.072,2.391-2.391C17.786,15.914,16.714,14.842,15.396,14.842z"/>
	<path d="M23.005,18.635c-2.121,0-3.846-1.726-3.846-3.846c0-2.121,1.725-3.846,3.846-3.846s3.846,1.725,3.846,3.846
		C26.851,16.909,25.126,18.635,23.005,18.635z M23.005,12.398c-1.318,0-2.391,1.072-2.391,2.391c0,1.317,1.072,2.39,2.391,2.39
		s2.391-1.072,2.391-2.39C25.396,13.471,24.323,12.398,23.005,12.398z"/>
	<path d="M30.612,16.191c-2.121,0-3.846-1.726-3.846-3.846S28.491,8.5,30.612,8.5s3.846,1.726,3.846,3.846
		S32.733,16.191,30.612,16.191z M30.612,9.956c-1.318,0-2.391,1.071-2.391,2.39s1.072,2.391,2.391,2.391s2.391-1.072,2.391-2.391
		S31.931,9.956,30.612,9.956z"/>
</g>
</svg>
