<?xml version="1.0" encoding="utf-8"?>
<!-- Generator: Adobe Illustrator 16.0.0, SVG Export Plug-In . SVG Version: 6.00 Build 0)  -->
<!DOCTYPE svg PUBLIC "-//W3C//DTD SVG 1.1//EN" "http://www.w3.org/Graphics/SVG/1.1/DTD/svg11.dtd">
<svg version="1.1" id="Layer_1" xmlns="http://www.w3.org/2000/svg" xmlns:xlink="http://www.w3.org/1999/xlink" x="0px" y="0px"
	 width="48px" height="48px" viewBox="0 0 48 48" enable-background="new 0 0 48 48" xml:space="preserve">
<g>
	<g>
		<path fill="none" stroke="#000000" stroke-width="2" stroke-linejoin="round" stroke-miterlimit="10" d="M30.117,18.756
			c-7.205,1.036-29.117,0-29.117,0v4.509v0.539v4.513c0,0,21.912-1.038,29.117,0c5.507,0.792,13.56,3.985,16.883,14.489v-7.18
			V23.805v-0.539V11.441V4.266C43.677,14.769,35.624,17.962,30.117,18.756z"/>
		<g>
			<path fill="none" stroke="#000000" stroke-width="2" stroke-linejoin="round" stroke-miterlimit="10" d="M31.446,41.733
				c0,1.1-0.9,2-2,2H5.527c-1.1,0-2-0.9-2-2V30.329c0-1.1,0.9-2,2-2h23.919c1.1,0,2,0.9,2,2V41.733z"/>
		</g>
		<g>
			
				<line fill="none" stroke="#000000" stroke-width="2" stroke-linecap="round" stroke-linejoin="round" stroke-miterlimit="10" x1="13.833" y1="28.993" x2="13.833" y2="37.1"/>
			
				<line fill="none" stroke="#000000" stroke-width="2" stroke-linecap="round" stroke-linejoin="round" stroke-miterlimit="10" x1="21.141" y1="28.993" x2="21.141" y2="37.1"/>
		</g>
	</g>
</g>
</svg>
