<?xml version="1.0" encoding="utf-8"?>
<!-- Generator: Adobe Illustrator 16.0.0, SVG Export Plug-In . SVG Version: 6.00 Build 0)  -->
<!DOCTYPE svg PUBLIC "-//W3C//DTD SVG 1.1//EN" "http://www.w3.org/Graphics/SVG/1.1/DTD/svg11.dtd">
<svg version="1.1" id="Layer_1" xmlns="http://www.w3.org/2000/svg" xmlns:xlink="http://www.w3.org/1999/xlink" x="0px" y="0px"
	 width="48px" height="48px" viewBox="0 0 48 48" enable-background="new 0 0 48 48" xml:space="preserve">
<g>
	<path d="M16.979,16.979H0V0h16.979V16.979z M1.468,15.511h14.044V1.467H1.468V15.511z"/>
	<path d="M32.49,16.979H15.512V0H32.49V16.979z M16.979,15.511h14.045V1.467H16.979V15.511z"/>
	<path d="M48,16.979H31.023V0H48V16.979z M32.49,15.511h14.043V1.467H32.49V15.511z"/>
	<path d="M16.979,32.488H0V15.511h16.979V32.488z M1.468,31.021h14.044V16.979H1.468V31.021z"/>
	<path d="M32.49,32.488H15.512V15.511H32.49V32.488z M16.979,31.021h14.045V16.979H16.979V31.021z"/>
	<path d="M48,32.488H31.023V15.511H48V32.488z M32.49,31.021h14.043V16.979H32.49V31.021z"/>
	<path d="M16.979,48H0V31.021h16.979V48z M1.468,46.533h14.044V32.488H1.468V46.533z"/>
	<path d="M32.49,48H15.512V31.021H32.49V48z M16.979,46.533h14.045V32.488H16.979V46.533z"/>
	<path d="M48,48H31.023V31.021H48V48z M32.49,46.533h14.043V32.488H32.49V46.533z"/>
</g>
</svg>
