<?xml version="1.0" encoding="utf-8"?>
<!-- Generator: Adobe Illustrator 16.0.0, SVG Export Plug-In . SVG Version: 6.00 Build 0)  -->
<!DOCTYPE svg PUBLIC "-//W3C//DTD SVG 1.1//EN" "http://www.w3.org/Graphics/SVG/1.1/DTD/svg11.dtd">
<svg version="1.1" id="Layer_1" xmlns="http://www.w3.org/2000/svg" xmlns:xlink="http://www.w3.org/1999/xlink" x="0px" y="0px"
	 width="48px" height="48px" viewBox="0 0 48 48" enable-background="new 0 0 48 48" xml:space="preserve">
<g>
	<rect x="17.327" y="34.304" transform="matrix(0.7071 0.7071 -0.7071 0.7071 35.0072 -14.4229)" width="35.171" height="1.476"/>
	<path d="M19.063,3.974l1.367,6.125c0.152,0.684,0.759,1.156,1.44,1.156c0.069,0,0.139-0.005,0.208-0.014l6.214-0.881l-3.937,4.889
		c-0.484,0.6-0.424,1.472,0.136,2l4.562,4.31l-6.276-0.031c-0.002,0-0.004,0-0.007,0c-0.768,0-1.408,0.589-1.472,1.354l-0.525,6.256
		l-3.889-4.928c-0.289-0.367-0.723-0.563-1.16-0.563c-0.283,0-0.569,0.082-0.82,0.25l-5.217,3.49l1.426-6.112
		c0.176-0.751-0.256-1.51-0.99-1.744l-5.98-1.903l5.668-2.695c0.695-0.331,1.02-1.143,0.746-1.862L8.315,7.207l5.643,2.751
		c0.207,0.102,0.428,0.15,0.646,0.15c0.508,0,0.999-0.263,1.273-0.728L19.063,3.974 M19.691,0l-5.086,8.631L5.601,4.239l3.576,9.357
		L0.13,17.9l9.547,3.038l-2.278,9.755l8.327-5.57l6.209,7.863l0.837-9.982l10.018,0.051l-7.283-6.879l6.285-7.803l-9.919,1.405
		L19.691,0L19.691,0z"/>
</g>
</svg>
