<?xml version="1.0" encoding="utf-8"?>
<!-- Generator: Adobe Illustrator 16.0.0, SVG Export Plug-In . SVG Version: 6.00 Build 0)  -->
<!DOCTYPE svg PUBLIC "-//W3C//DTD SVG 1.1//EN" "http://www.w3.org/Graphics/SVG/1.1/DTD/svg11.dtd">
<svg version="1.1" id="Layer_1" xmlns="http://www.w3.org/2000/svg" xmlns:xlink="http://www.w3.org/1999/xlink" x="0px" y="0px"
	 width="48px" height="48px" viewBox="0 0 48 48" enable-background="new 0 0 48 48" xml:space="preserve">
<g>
	<g>
		<g>
			<path fill="none" stroke="#000000" stroke-width="2" stroke-miterlimit="10" d="M47.25,29.994c0,1.1-0.9,2-2,2H2.75
				c-1.1,0-2-0.9-2-2V3.359c0-1.1,0.9-2,2-2h42.5c1.1,0,2,0.9,2,2V29.994z"/>
		</g>
		<circle fill="none" stroke="#000000" stroke-width="2" stroke-miterlimit="10" cx="24" cy="16.676" r="10.309"/>
		<g>
			<path fill="none" stroke="#000000" stroke-width="2" stroke-miterlimit="10" d="M42.832,44.641c0,1.1-0.9,2-2,2H7.164
				c-1.1,0-2-0.9-2-2V33.994c0-1.1,0.9-2,2-2h33.668c1.1,0,2,0.9,2,2V44.641z"/>
		</g>
		
			<line fill="none" stroke="#000000" stroke-width="2" stroke-linecap="round" stroke-miterlimit="10" x1="13.691" y1="38.751" x2="34.309" y2="38.751"/>
	</g>
</g>
</svg>
