<?xml version="1.0" encoding="utf-8"?>
<!-- Generator: Adobe Illustrator 16.0.0, SVG Export Plug-In . SVG Version: 6.00 Build 0)  -->
<!DOCTYPE svg PUBLIC "-//W3C//DTD SVG 1.1//EN" "http://www.w3.org/Graphics/SVG/1.1/DTD/svg11.dtd">
<svg version="1.1" id="Layer_1" xmlns="http://www.w3.org/2000/svg" xmlns:xlink="http://www.w3.org/1999/xlink" x="0px" y="0px"
	 width="48px" height="48px" viewBox="0 0 48 48" enable-background="new 0 0 48 48" xml:space="preserve">
<g>
	<path fill="none" stroke="#000000" stroke-width="2" stroke-linejoin="round" stroke-miterlimit="10" d="M21.506,19.496
		c-2.529,2.527-6.627,2.527-9.155-0.005c-2.526-2.525-2.526-6.625,0-9.152c2.528-2.533,6.625-2.531,9.155,0
		C24.036,12.865,24.036,16.965,21.506,19.496z"/>
	<path fill="none" stroke="#000000" stroke-width="2" stroke-linejoin="round" stroke-miterlimit="10" d="M30.665,28.65
		c-2.526,2.527-6.629,2.527-9.159-0.003c-2.529-2.524-2.529-6.625,0-9.152c2.53-2.53,6.633-2.53,9.159-0.003
		C33.193,22.022,33.193,26.123,30.665,28.65z"/>
	<path fill="none" stroke="#000000" stroke-width="2" stroke-linejoin="round" stroke-miterlimit="10" d="M39.823,37.809
		c-2.531,2.526-6.63,2.526-9.158,0c-2.526-2.527-2.526-6.631,0-9.158c2.528-2.527,6.621-2.527,9.158-0.003
		C42.349,31.178,42.354,35.281,39.823,37.809z"/>
	<path fill="none" stroke="#000000" stroke-width="2" stroke-linejoin="round" stroke-miterlimit="10" d="M17.891,32.266
		c-2.526,2.528-6.625,2.528-9.152,0c-2.526-2.528-2.526-6.629,0-9.159c2.527-2.527,6.626-2.524,9.152,0
		C20.42,25.637,20.42,29.737,17.891,32.266z"/>
	<path fill="none" stroke="#000000" stroke-width="2" stroke-linejoin="round" stroke-miterlimit="10" d="M27.05,41.423
		c-2.524,2.527-6.63,2.527-9.159-0.004c-2.526-2.523-2.526-6.625,0-9.153c2.529-2.528,6.634-2.528,9.159,0
		C29.582,34.794,29.582,38.896,27.05,41.423z"/>
	<path fill="none" stroke="#000000" stroke-width="2" stroke-linejoin="round" stroke-miterlimit="10" d="M14.212,45.104
		c-2.528,2.529-6.625,2.529-9.158,0c-2.525-2.531-2.525-6.631,0-9.156c2.533-2.528,6.629-2.528,9.158-0.002
		C16.743,38.473,16.743,42.572,14.212,45.104z"/>
	<path fill="none" stroke="#000000" stroke-width="2" stroke-linecap="round" stroke-linejoin="round" stroke-miterlimit="10" d="
		M31.408,18.753c0,0,5.293-8.662,13.431-5.715"/>
	<path fill="none" stroke="#000000" stroke-width="2" stroke-linecap="round" stroke-linejoin="round" stroke-miterlimit="10" d="
		M35.013,12.892c0,0,5.107-8.877-8.96-11.892C26.053,1,25.172,14.604,35.013,12.892z"/>
</g>
</svg>
