<?xml version="1.0" encoding="utf-8"?>
<!-- Generator: Adobe Illustrator 16.0.0, SVG Export Plug-In . SVG Version: 6.00 Build 0)  -->
<!DOCTYPE svg PUBLIC "-//W3C//DTD SVG 1.1//EN" "http://www.w3.org/Graphics/SVG/1.1/DTD/svg11.dtd">
<svg version="1.1" id="Layer_1" xmlns="http://www.w3.org/2000/svg" xmlns:xlink="http://www.w3.org/1999/xlink" x="0px" y="0px"
	 width="48px" height="48px" viewBox="0 0 48 48" enable-background="new 0 0 48 48" xml:space="preserve">
<g>
	<path fill="none" stroke="#000000" stroke-width="2" stroke-linecap="round" stroke-linejoin="round" stroke-miterlimit="10" d="
		M33.646,38.581c-4.926,4.926-23.622,12.773-30.313,6.086c-6.689-6.688,1.16-25.383,6.084-30.305
		c4.928-4.925,14.342-3.494,21.032,3.194C37.139,24.244,38.57,33.659,33.646,38.581z"/>
	<g>
		<path fill="none" stroke="#000000" stroke-width="2" stroke-linecap="round" stroke-linejoin="round" stroke-miterlimit="10" d="
			M30.791,15.689c0,0-7.829-7.766,2.133-14.938C32.924,0.75,41.431,11.178,30.791,15.689z"/>
		<path fill="none" stroke="#000000" stroke-width="2" stroke-linecap="round" stroke-linejoin="round" stroke-miterlimit="10" d="
			M32.316,17.209c0,0,7.761,7.831,14.934-2.133C47.25,15.077,36.825,6.572,32.316,17.209z"/>
	</g>
	<g>
		<path d="M17.949,21.116c-0.773,0.775-2.036,0.775-2.813,0c-0.776-0.78-0.776-2.04,0-2.816s2.039-0.776,2.813,0
			C18.731,19.076,18.731,20.335,17.949,21.116z"/>
		<path d="M23.829,26.989c-0.776,0.775-2.039,0.775-2.815,0c-0.776-0.777-0.776-2.037,0-2.812c0.776-0.781,2.039-0.781,2.815,0
			C24.608,24.952,24.608,26.212,23.829,26.989z"/>
		<path d="M29.7,32.865c-0.773,0.779-2.036,0.779-2.813,0c-0.776-0.776-0.776-2.035,0-2.812c0.776-0.78,2.039-0.78,2.813,0
			C30.482,30.83,30.482,32.089,29.7,32.865z"/>
		<path d="M14.97,29.969c-0.775,0.775-2.035,0.775-2.813,0c-0.779-0.78-0.779-2.039,0-2.815c0.777-0.78,2.037-0.78,2.813,0
			C15.753,27.93,15.753,29.188,14.97,29.969z"/>
		<path d="M20.845,35.843c-0.771,0.775-2.033,0.775-2.811,0c-0.781-0.777-0.781-2.037,0-2.815c0.777-0.777,2.039-0.777,2.811,0
			C21.625,33.806,21.625,35.065,20.845,35.843z"/>
		<circle cx="10.803" cy="37.202" r="1.989"/>
	</g>
</g>
</svg>
