<?xml version="1.0" encoding="utf-8"?>
<!-- Generator: Adobe Illustrator 16.0.0, SVG Export Plug-In . SVG Version: 6.00 Build 0)  -->
<!DOCTYPE svg PUBLIC "-//W3C//DTD SVG 1.1//EN" "http://www.w3.org/Graphics/SVG/1.1/DTD/svg11.dtd">
<svg version="1.1" id="Layer_1" xmlns="http://www.w3.org/2000/svg" xmlns:xlink="http://www.w3.org/1999/xlink" x="0px" y="0px"
	 width="48px" height="48px" viewBox="0 0 48 48" enable-background="new 0 0 48 48" xml:space="preserve">
<g>
	<path fill="none" stroke="#000000" stroke-width="2" stroke-linecap="round" stroke-linejoin="round" stroke-miterlimit="10" d="
		M40.889,15.292c-0.141,0.027-0.271,0.087-0.403,0.128C36.747,9.683,28.9,6.614,20.736,8.314c-8.163,1.7-14.138,7.648-15.274,14.397
		c-0.136,0.018-0.277,0.015-0.417,0.042c-2.75,0.574-4.508,3.267-3.938,6.013c0.576,2.751,3.264,4.514,6.009,3.94
		c0.139-0.027,0.266-0.086,0.399-0.125c3.737,5.737,11.592,8.803,19.754,7.104c8.159-1.698,14.14-7.648,15.269-14.397
		c0.142-0.015,0.282-0.015,0.425-0.043c2.74-0.57,4.503-3.262,3.929-6.014C46.322,16.484,43.632,14.721,40.889,15.292z"/>
</g>
</svg>
