<?xml version="1.0" encoding="utf-8"?>
<!-- Generator: Adobe Illustrator 16.0.0, SVG Export Plug-In . SVG Version: 6.00 Build 0)  -->
<!DOCTYPE svg PUBLIC "-//W3C//DTD SVG 1.1//EN" "http://www.w3.org/Graphics/SVG/1.1/DTD/svg11.dtd">
<svg version="1.1" id="Layer_1" xmlns="http://www.w3.org/2000/svg" xmlns:xlink="http://www.w3.org/1999/xlink" x="0px" y="0px"
	 width="48px" height="48px" viewBox="0 0 48 48" enable-background="new 0 0 48 48" xml:space="preserve">
<g>
	<path fill="none" stroke="#000000" stroke-width="2" stroke-linecap="round" stroke-linejoin="round" stroke-miterlimit="10" d="
		M26.662,26.878c5.804,5.204,7.354,12.938,3.462,17.28c-3.892,4.335-11.748,3.632-17.55-1.572c-5.802-5.207-7.35-12.94-3.46-17.276
		C13.008,20.971,20.865,21.672,26.662,26.878z"/>
	<path fill="none" stroke="#000000" stroke-width="2" stroke-linecap="round" stroke-linejoin="round" stroke-miterlimit="10" d="
		M6.925,30.99c2.235,2.001,4.015,3.066,6.926,3.109c2.111,0.032,4-0.432,6.063-0.764c4.894-0.793,11.656,1.696,11.811,7.465"/>
	<path fill="none" stroke="#000000" stroke-width="2" stroke-linecap="round" stroke-linejoin="round" stroke-miterlimit="10" d="
		M23.431,21.94c-7.219-2.958-11.292-9.736-9.098-15.141c2.194-5.403,9.83-7.384,17.051-4.428c7.216,2.957,11.291,9.735,9.095,15.141
		C38.282,22.917,30.65,24.898,23.431,21.94z"/>
	<path fill="none" stroke="#000000" stroke-width="2" stroke-linecap="round" stroke-linejoin="round" stroke-miterlimit="10" d="
		M40.62,11.414c-2.772-1.138-4.809-1.54-7.56-0.6c-1.998,0.683-3.616,1.756-5.441,2.77c-4.335,2.401-11.532,2.329-13.617-3.054"/>
</g>
</svg>
