<?xml version="1.0" encoding="utf-8"?>
<!-- Generator: Adobe Illustrator 16.0.0, SVG Export Plug-In . SVG Version: 6.00 Build 0)  -->
<!DOCTYPE svg PUBLIC "-//W3C//DTD SVG 1.1//EN" "http://www.w3.org/Graphics/SVG/1.1/DTD/svg11.dtd">
<svg version="1.1" id="Layer_1" xmlns="http://www.w3.org/2000/svg" xmlns:xlink="http://www.w3.org/1999/xlink" x="0px" y="0px"
	 width="48px" height="48px" viewBox="0 0 48 48" enable-background="new 0 0 48 48" xml:space="preserve">
<g>
	<path fill="none" stroke="#000000" stroke-width="2" stroke-linecap="round" stroke-linejoin="round" stroke-miterlimit="10" d="
		M31.275,42.279c6.979-7.025,6.935-15.569,8.813-18.965c1.826-3.294,12.228-11.338,3.415-18.92
		C35.85-4.37,27.885,6.092,24.606,7.938c-3.381,1.906-11.927,1.922-18.9,8.952c-9.464,9.528-2.269,19.53,0.992,23.157l-0.025,0.023
		c0,0,0.261,0.281,0.707,0.706c0.431,0.445,0.71,0.703,0.71,0.703l0.027-0.023C11.765,44.688,21.82,51.809,31.275,42.279z"/>
	<path fill="none" stroke="#000000" stroke-width="2" stroke-linecap="round" stroke-linejoin="round" stroke-miterlimit="10" d="
		M27.518,32.627c-4.242,4.266-10.388,5.028-13.739,1.7c-3.35-3.322-2.629-9.478,1.61-13.746c4.237-4.271,10.384-5.033,13.732-1.709
		C32.475,22.199,31.758,28.355,27.518,32.627z"/>
</g>
</svg>
