<?xml version="1.0" encoding="utf-8"?>
<!-- Generator: Adobe Illustrator 16.0.0, SVG Export Plug-In . SVG Version: 6.00 Build 0)  -->
<!DOCTYPE svg PUBLIC "-//W3C//DTD SVG 1.1//EN" "http://www.w3.org/Graphics/SVG/1.1/DTD/svg11.dtd">
<svg version="1.1" id="Layer_1" xmlns="http://www.w3.org/2000/svg" xmlns:xlink="http://www.w3.org/1999/xlink" x="0px" y="0px"
	 width="48px" height="48px" viewBox="0 0 48 48" enable-background="new 0 0 48 48" xml:space="preserve">
<g>
	<path fill="none" stroke="#000000" stroke-width="2" stroke-linecap="round" stroke-linejoin="round" stroke-miterlimit="10" d="
		M42.415,19.411C42.415,9.245,34.17,1,24.002,1C13.83,1,5.585,9.245,5.585,19.411c0,0.916,0.088,1.809,0.217,2.69h36.392
		C42.321,21.22,42.415,20.327,42.415,19.411z"/>
	<path fill="none" stroke="#000000" stroke-width="2" stroke-linecap="round" stroke-linejoin="round" stroke-miterlimit="10" d="
		M16.818,22.383c0.166,3.88-0.625,7.968-1.154,11.812c-0.412,3.015-1.832,5.763-2.412,8.713c-0.821,4.215,4.236,3.153,7.105,3.4
		c3.154,0.27,6.325,0.927,9.577,0.604c6.108-0.601,5.183-6.549,4.133-10.872c-0.574-2.366-1.185-4.45-1.557-6.844
		c-0.343-2.155-2.003-4.841-1.718-6.958"/>
</g>
</svg>
