<?xml version="1.0" encoding="utf-8"?>
<!-- Generator: Adobe Illustrator 16.0.0, SVG Export Plug-In . SVG Version: 6.00 Build 0)  -->
<!DOCTYPE svg PUBLIC "-//W3C//DTD SVG 1.1//EN" "http://www.w3.org/Graphics/SVG/1.1/DTD/svg11.dtd">
<svg version="1.1" id="Layer_1" xmlns="http://www.w3.org/2000/svg" xmlns:xlink="http://www.w3.org/1999/xlink" x="0px" y="0px"
	 width="48px" height="48px" viewBox="0 0 48 48" enable-background="new 0 0 48 48" xml:space="preserve">
<g>
	<path fill="none" stroke="#000000" stroke-width="2" stroke-linecap="round" stroke-miterlimit="10" d="M12.604,11.582
		c-2.736,0-4.594-0.162-6.895,1.557c-2.327,1.731-2.021,3.507-2.021,6.222c0,0.783,0.137,1.711,0,2.479
		c-0.244,1.374-0.809,1.607-1.542,2.839c-0.831,1.392-1.363,3.66-1.061,5.327c0.422,2.337,2.174,4.028,4.255,4.979
		c1.229,0.56,2.437,0.846,3.183,2.048c0.643,1.037,0.539,2.028,1.16,3.126c1.137,1.981,3.13,3.276,5.312,3.376
		c2.737,0.128,4.252-1.103,6.672-1.755c4.791-1.288,10.263,1.879,14.542-1.637c2.395-1.971,2.241-3.848,3.105-6.605
		c0.904-2.889,3.668-3.072,5.615-5.054c1.466-1.48,2.512-4.633,1.887-6.73c-0.56-1.858-2.925-3.451-3.929-5.149
		c-1.399-2.367-2.239-5.407-4.98-6.329c-0.996-0.337-2.242-0.528-3.37-0.367c-1.114,0.157-1.908,0.755-2.991,0.943
		c-2.769,0.484-5.438-2.101-7.786-3.123c-2.092-0.91-4.204-2.886-6.366-3.208c-4.899-0.725-3.375,4.83-4.975,7.244"/>
	
		<circle fill="none" stroke="#000000" stroke-width="2" stroke-linecap="round" stroke-miterlimit="10" cx="22.547" cy="24.678" r="9.382"/>
</g>
</svg>
