<?xml version="1.0" encoding="utf-8"?>
<!-- Generator: Adobe Illustrator 16.0.0, SVG Export Plug-In . SVG Version: 6.00 Build 0)  -->
<!DOCTYPE svg PUBLIC "-//W3C//DTD SVG 1.1//EN" "http://www.w3.org/Graphics/SVG/1.1/DTD/svg11.dtd">
<svg version="1.1" id="Layer_1" xmlns="http://www.w3.org/2000/svg" xmlns:xlink="http://www.w3.org/1999/xlink" x="0px" y="0px"
	 width="48px" height="48px" viewBox="0 0 48 48" enable-background="new 0 0 48 48" xml:space="preserve">
<g>
	<path fill="none" stroke="#000000" stroke-width="2" stroke-linecap="round" stroke-miterlimit="10" d="M15.703,10.31
		c0.021,2.313,1.119,4.704,1.737,6.883c0.47,1.672,0.988,4.928,2.469,5.991c0.871,0.628,1.9,0.654,2.948,0.651
		c1.44,0,3.133,0.379,4.53,0.092c2.441-0.496,2.8-3.327,3.46-5.318c0.655-1.983,0.76-4.012,1.365-6.034
		c0.597-1.979,1.743-4.015-1.055-4.907c-2.186-0.704-4.642-0.541-6.965-0.541c-1.289,0-2.569,0-3.86,0
		c-1.091,0-3.177,0.033-4.058,0.682c-0.577,0.423-0.674,1.345-0.571,2.161"/>
	<path fill="none" stroke="#000000" stroke-width="2" stroke-linecap="round" stroke-miterlimit="10" d="M13.192,9.855
		c-2.092,0.848-3.832,2.296-5.576,3.665c-1.731,1.364-3.311,2.817-3.061,5.208c0.218,2.135,1.9,4.148,2.817,6.056
		c1.037,2.154,2.303,4.584,4.915,4.736c2.263,0.136,3.376-1.501,4.912-2.82c1.079-0.931,2.491-2.695,1.454-4.341"/>
	<path fill="none" stroke="#000000" stroke-width="2" stroke-linecap="round" stroke-miterlimit="10" d="M3.985,19.744
		c-1.387,2.086-1.344,5.36-1.903,7.706c-0.586,2.499-1.052,5.036-1.052,7.667c0,1.897-0.451,5.717,2.18,5.771
		c2.417,0.052,4.058-2.543,4.918-4.428c1.005-2.215,2.005-4.612,2.452-7.053"/>
	<g>
		<path fill="none" stroke="#000000" stroke-width="2" stroke-linecap="round" stroke-miterlimit="10" d="M34.806,9.855
			c2.095,0.848,3.834,2.296,5.576,3.665c1.735,1.364,3.313,2.817,3.066,5.208c-0.22,2.135-1.902,4.148-2.819,6.056
			c-1.039,2.154-2.303,4.584-4.913,4.736c-2.267,0.136-3.379-1.501-4.915-2.82c-1.08-0.931-2.487-2.695-1.45-4.341"/>
		<path fill="none" stroke="#000000" stroke-width="2" stroke-linecap="round" stroke-miterlimit="10" d="M44.017,19.744
			c1.389,2.086,1.344,5.36,1.902,7.706c0.584,2.499,1.052,5.036,1.052,7.667c0,1.897,0.453,5.717-2.179,5.771
			c-2.414,0.052-4.059-2.543-4.919-4.428c-1.008-2.215-2.008-4.612-2.45-7.053"/>
	</g>
</g>
</svg>
