<?xml version="1.0" encoding="utf-8"?>
<!-- Generator: Adobe Illustrator 16.0.0, SVG Export Plug-In . SVG Version: 6.00 Build 0)  -->
<!DOCTYPE svg PUBLIC "-//W3C//DTD SVG 1.1//EN" "http://www.w3.org/Graphics/SVG/1.1/DTD/svg11.dtd">
<svg version="1.1" id="Layer_1" xmlns="http://www.w3.org/2000/svg" xmlns:xlink="http://www.w3.org/1999/xlink" x="0px" y="0px"
	 width="48px" height="48px" viewBox="0 0 48 48" enable-background="new 0 0 48 48" xml:space="preserve">
<g>
	<path d="M17.317,17.893c0,0.562-0.454,1.016-1.014,1.016c-0.563,0-1.017-0.455-1.017-1.016c0-0.564,0.455-1.019,1.017-1.019
		C16.863,16.875,17.317,17.329,17.317,17.893z"/>
	<path d="M25.018,17.893c0,0.562-0.458,1.016-1.017,1.016c-0.567,0-1.019-0.455-1.019-1.016c0-0.564,0.452-1.019,1.019-1.019
		C24.56,16.875,25.018,17.329,25.018,17.893z"/>
	<path d="M32.71,17.893c0,0.562-0.452,1.016-1.017,1.016c-0.562,0-1.016-0.455-1.016-1.016c0-0.564,0.454-1.019,1.016-1.019
		C32.258,16.875,32.71,17.329,32.71,17.893z"/>
	<circle cx="20.152" cy="12.809" r="1.016"/>
	<circle cx="27.847" cy="12.809" r="1.016"/>
	<path fill="none" stroke="#000000" stroke-width="2" stroke-linecap="round" stroke-linejoin="round" stroke-miterlimit="10" d="
		M24.001,5.664c-9.425,0-17.069,8.339-17.069,18.628h34.137C41.068,14.002,33.428,5.664,24.001,5.664z"/>
	<g>
		<path fill="none" stroke="#000000" stroke-width="2" stroke-linecap="round" stroke-linejoin="round" stroke-miterlimit="10" d="
			M47,30.469c0,1.1-0.9,2-2,2H3c-1.1,0-2-0.9-2-2v-4.178c0-1.1,0.9-2,2-2h42c1.1,0,2,0.9,2,2V30.469z"/>
	</g>
	<g>
		<path fill="none" stroke="#000000" stroke-width="2" stroke-linecap="round" stroke-linejoin="round" stroke-miterlimit="10" d="
			M42.691,41.337c0,0.55-0.45,1-1,1H6.311c-0.55,0-1-0.45-1-1v-7.868c0-0.55,0.45-1,1-1h35.381c0.55,0,1,0.45,1,1V41.337z"/>
	</g>
</g>
</svg>
