<?xml version="1.0" encoding="utf-8"?>
<!-- Generator: Adobe Illustrator 16.0.0, SVG Export Plug-In . SVG Version: 6.00 Build 0)  -->
<!DOCTYPE svg PUBLIC "-//W3C//DTD SVG 1.1//EN" "http://www.w3.org/Graphics/SVG/1.1/DTD/svg11.dtd">
<svg version="1.1" id="Layer_1" xmlns="http://www.w3.org/2000/svg" xmlns:xlink="http://www.w3.org/1999/xlink" x="0px" y="0px"
	 width="48px" height="48px" viewBox="0 0 48 48" enable-background="new 0 0 48 48" xml:space="preserve">
<g>
	<polygon fill="none" stroke="#000000" stroke-width="2" stroke-linejoin="round" stroke-miterlimit="10" points="45.901,19.06 
		2.197,31.736 2.197,47 45.901,35.61 	"/>
	<path fill="none" stroke="#000000" stroke-width="2" stroke-linejoin="round" stroke-miterlimit="10" d="M23.229,13.645
		c7.981,0.59,16.739,2.065,22.673,5.415"/>
	<path fill="none" stroke="#000000" stroke-width="2" stroke-linejoin="round" stroke-miterlimit="10" d="M2.197,31.175
		l1.809-17.613c0,0,2.813-0.215,7.095-0.269"/>
	<path fill="none" stroke="#000000" stroke-width="2" stroke-linecap="round" stroke-linejoin="round" stroke-miterlimit="10" d="
		M45.885,24.598c-0.064,0.852-1.096,2.331-2.264,2.961c-1.813,0.98-3.854,0.89-6.403,1.06c-6.502,0.432-5.901,3.655-10.268,5.349
		c-4.196,1.621-10,0.528-14.769,1.058c-4.259,0.47-8.733,1.745-10.083,3.781"/>
	<path fill="none" stroke="#000000" stroke-width="2" stroke-linecap="round" stroke-linejoin="round" stroke-miterlimit="10" d="
		M23.986,17.263c0,3.611-3.046,6.542-6.801,6.542c-3.761,0-6.807-2.93-6.807-6.542s3.045-6.543,6.807-6.543
		C20.94,10.719,23.986,13.651,23.986,17.263z"/>
	<path fill="none" stroke="#000000" stroke-width="2" stroke-linecap="round" stroke-linejoin="round" stroke-miterlimit="10" d="
		M17.186,10.143c0,0-0.235-6.907,3.754-9.143"/>
</g>
</svg>
