<?xml version="1.0" encoding="utf-8"?>
<!-- Generator: Adobe Illustrator 16.0.0, SVG Export Plug-In . SVG Version: 6.00 Build 0)  -->
<!DOCTYPE svg PUBLIC "-//W3C//DTD SVG 1.1//EN" "http://www.w3.org/Graphics/SVG/1.1/DTD/svg11.dtd">
<svg version="1.1" id="Layer_1" xmlns="http://www.w3.org/2000/svg" xmlns:xlink="http://www.w3.org/1999/xlink" x="0px" y="0px"
	 width="48px" height="48px" viewBox="0 0 48 48" enable-background="new 0 0 48 48" xml:space="preserve">
<g>
	<g>
		<path fill="none" stroke="#000000" stroke-width="2" stroke-linecap="round" stroke-linejoin="round" stroke-miterlimit="10" d="
			M47,35.312c0,1.1-0.9,2-2,2H3c-1.1,0-2-0.9-2-2V7.678c0-1.1,0.9-2,2-2h42c1.1,0,2,0.9,2,2V35.312z"/>
	</g>
	<g>
		<path fill="none" stroke="#000000" stroke-width="2" stroke-linecap="round" stroke-linejoin="round" stroke-miterlimit="10" d="
			M33.581,30.409c0,0.55-0.45,1-1,1H8.404c-0.55,0-1-0.45-1-1V12.582c0-0.55,0.45-1,1-1h24.177c0.55,0,1,0.45,1,1V30.409z"/>
	</g>
	<path d="M42.046,15.144c0,0.922-0.746,1.671-1.672,1.671c-0.921,0-1.67-0.75-1.67-1.671c0-0.922,0.749-1.669,1.67-1.669
		C41.3,13.475,42.046,14.221,42.046,15.144z"/>
	<path d="M42.046,21.491c0,0.921-0.746,1.672-1.672,1.672c-0.921,0-1.67-0.751-1.67-1.672c0-0.919,0.749-1.666,1.67-1.666
		C41.3,19.825,42.046,20.571,42.046,21.491z"/>
	<g>
		
			<line fill="none" stroke="#000000" stroke-width="2" stroke-linecap="round" stroke-miterlimit="10" x1="10.135" y1="38.2" x2="10.135" y2="42.321"/>
		
			<line fill="none" stroke="#000000" stroke-width="2" stroke-linecap="round" stroke-miterlimit="10" x1="37.869" y1="38.2" x2="37.869" y2="42.321"/>
	</g>
</g>
</svg>
