<?xml version="1.0" encoding="utf-8"?>
<!-- Generator: Adobe Illustrator 16.0.0, SVG Export Plug-In . SVG Version: 6.00 Build 0)  -->
<!DOCTYPE svg PUBLIC "-//W3C//DTD SVG 1.1//EN" "http://www.w3.org/Graphics/SVG/1.1/DTD/svg11.dtd">
<svg version="1.1" id="Layer_1" xmlns="http://www.w3.org/2000/svg" xmlns:xlink="http://www.w3.org/1999/xlink" x="0px" y="0px"
	 width="48px" height="48px" viewBox="0 0 48 48" enable-background="new 0 0 48 48" xml:space="preserve">
<g>
	
		<polygon fill="none" stroke="#000000" stroke-width="2" stroke-linecap="round" stroke-linejoin="round" stroke-miterlimit="10" points="
		11.141,19.504 24,47 36.859,19.504 	"/>
	<g>
		
			<circle fill="none" stroke="#000000" stroke-width="2" stroke-linecap="round" stroke-linejoin="round" stroke-miterlimit="10" cx="23.996" cy="7.076" r="6.074"/>
		<path fill="none" stroke="#000000" stroke-width="2" stroke-linecap="round" stroke-linejoin="round" stroke-miterlimit="10" d="
			M17.922,11.409c-3.354,0-6.072,2.719-6.072,6.073c0,0.715,0.142,1.388,0.373,2.022h11.403c0.226-0.634,0.371-1.307,0.371-2.022
			C23.997,14.127,21.278,11.409,17.922,11.409z"/>
		<path fill="none" stroke="#000000" stroke-width="2" stroke-linecap="round" stroke-linejoin="round" stroke-miterlimit="10" d="
			M36.148,17.481c0-3.354-2.722-6.073-6.074-6.073c-3.359,0-6.077,2.719-6.077,6.073c0,0.715,0.147,1.388,0.371,2.022h11.409
			C36,18.87,36.148,18.197,36.148,17.481z"/>
	</g>
</g>
</svg>
