<?xml version="1.0" encoding="utf-8"?>
<!-- Generator: Adobe Illustrator 16.0.0, SVG Export Plug-In . SVG Version: 6.00 Build 0)  -->
<!DOCTYPE svg PUBLIC "-//W3C//DTD SVG 1.1//EN" "http://www.w3.org/Graphics/SVG/1.1/DTD/svg11.dtd">
<svg version="1.1" id="Layer_1" xmlns="http://www.w3.org/2000/svg" xmlns:xlink="http://www.w3.org/1999/xlink" x="0px" y="0px"
	 width="48px" height="48px" viewBox="0 0 48 48" enable-background="new 0 0 48 48" xml:space="preserve">
<g>
	<g>
		<path fill="none" stroke="#000000" stroke-width="2" stroke-linecap="round" stroke-linejoin="round" stroke-miterlimit="10" d="
			M38.211,45.006C38.298,46.103,37.468,47,36.368,47H11.631c-1.1,0-1.929-0.897-1.843-1.994l2.78-35.253
			c0.086-1.096,1.057-1.994,2.157-1.994h18.549c1.1,0,2.07,0.897,2.157,1.994L38.211,45.006z"/>
	</g>
	
		<polyline fill="none" stroke="#000000" stroke-width="2" stroke-linecap="round" stroke-linejoin="round" stroke-miterlimit="10" points="
		18.639,7.017 18.639,1 29.362,1 29.362,7.017 	"/>
	<path d="M21.387,16.224c0,0.789-0.642,1.429-1.432,1.429c-0.787,0-1.424-0.64-1.424-1.429c0-0.787,0.637-1.429,1.424-1.429
		C20.745,14.795,21.387,15.437,21.387,16.224z"/>
	<circle cx="28.045" cy="16.224" r="1.428"/>
	<path d="M21.387,23.661c0,0.789-0.642,1.429-1.432,1.429c-0.787,0-1.424-0.64-1.424-1.429c0-0.791,0.637-1.429,1.424-1.429
		C20.745,22.232,21.387,22.871,21.387,23.661z"/>
	<circle cx="28.045" cy="23.661" r="1.428"/>
	<path d="M21.387,31.095c0,0.791-0.642,1.431-1.432,1.431c-0.787,0-1.424-0.64-1.424-1.431c0-0.785,0.637-1.426,1.424-1.426
		C20.745,29.669,21.387,30.31,21.387,31.095z"/>
	<path d="M29.473,31.095c0,0.791-0.641,1.431-1.431,1.431c-0.787,0-1.425-0.64-1.425-1.431c0-0.785,0.638-1.426,1.425-1.426
		C28.832,29.669,29.473,30.31,29.473,31.095z"/>
	<path d="M21.387,38.532c0,0.792-0.642,1.428-1.432,1.428c-0.787,0-1.424-0.636-1.424-1.428c0-0.786,0.637-1.427,1.424-1.427
		C20.745,37.105,21.387,37.746,21.387,38.532z"/>
	<path d="M29.473,38.532c0,0.792-0.641,1.428-1.431,1.428c-0.787,0-1.425-0.636-1.425-1.428c0-0.786,0.638-1.427,1.425-1.427
		C28.832,37.105,29.473,37.746,29.473,38.532z"/>
</g>
</svg>
