<?xml version="1.0" encoding="utf-8"?>
<!-- Generator: Adobe Illustrator 16.0.0, SVG Export Plug-In . SVG Version: 6.00 Build 0)  -->
<!DOCTYPE svg PUBLIC "-//W3C//DTD SVG 1.1//EN" "http://www.w3.org/Graphics/SVG/1.1/DTD/svg11.dtd">
<svg version="1.1" id="Layer_1" xmlns="http://www.w3.org/2000/svg" xmlns:xlink="http://www.w3.org/1999/xlink" x="0px" y="0px"
	 width="48px" height="48px" viewBox="0 0 48 48" enable-background="new 0 0 48 48" xml:space="preserve">
<g>
	<path fill="none" stroke="#000000" stroke-width="2" stroke-linecap="round" stroke-miterlimit="10" d="M37.828,12.514
		l-1.914,17.778c0,1.579-1.725,2.872-3.83,2.872H15.916c-2.105,0-3.833-1.293-3.833-2.872l-1.908-17.778"/>
	
		<polyline fill="none" stroke="#000000" stroke-width="2" stroke-linecap="round" stroke-linejoin="round" stroke-miterlimit="10" points="
		5.581,12.12 23.172,1 42.42,12.12 	"/>
	<path fill="none" stroke="#000000" stroke-width="2" stroke-linecap="round" stroke-miterlimit="10" d="M31.792,18.059
		c0,4.303-3.485,7.791-7.788,7.791c-4.309,0-7.795-3.487-7.795-7.791c0-4.307,3.486-7.794,7.795-7.794
		C28.307,10.265,31.792,13.752,31.792,18.059z"/>
	
		<line fill="none" stroke="#000000" stroke-width="2" stroke-linecap="round" stroke-miterlimit="10" x1="24.004" y1="33.164" x2="24.004" y2="38.684"/>
	<path fill="none" stroke="#000000" stroke-width="2" stroke-linecap="round" stroke-miterlimit="10" d="M28.155,42.841
		c0,2.293-1.86,4.159-4.151,4.159c-2.301,0-4.161-1.866-4.161-4.159c0-2.298,1.86-4.157,4.161-4.157
		C26.295,38.684,28.155,40.543,28.155,42.841z"/>
</g>
</svg>
