<?xml version="1.0" encoding="utf-8"?>
<!-- Generator: Adobe Illustrator 16.0.0, SVG Export Plug-In . SVG Version: 6.00 Build 0)  -->
<!DOCTYPE svg PUBLIC "-//W3C//DTD SVG 1.1//EN" "http://www.w3.org/Graphics/SVG/1.1/DTD/svg11.dtd">
<svg version="1.1" id="Layer_1" xmlns="http://www.w3.org/2000/svg" xmlns:xlink="http://www.w3.org/1999/xlink" x="0px" y="0px"
	 width="48px" height="48px" viewBox="0 0 48 48" enable-background="new 0 0 48 48" xml:space="preserve">
<g>
	<g>
		<path fill="none" stroke="#000000" stroke-width="2" stroke-linecap="round" stroke-linejoin="round" stroke-miterlimit="10" d="
			M40.368,25.24c-4.715-6.165-3.898-13.772-3.898-13.772S36.876,1,24,1C11.12,1,11.524,11.468,11.524,11.468
			s0.823,7.607-3.898,13.772c-1.829,2.388-4.159,9.479-4.159,9.479H24h20.528C44.527,34.72,42.195,27.628,40.368,25.24z"/>
		<path fill="none" stroke="#000000" stroke-width="2" stroke-linecap="round" stroke-linejoin="round" stroke-miterlimit="10" d="
			M32.159,34.688c0.445,1.062,0.7,2.224,0.7,3.45C32.859,43.029,28.893,47,24,47c-4.894,0-8.857-3.971-8.857-8.862
			c0-1.213,0.238-2.366,0.682-3.418"/>
	</g>
	
		<line fill="none" stroke="#000000" stroke-width="2" stroke-linecap="round" stroke-linejoin="round" stroke-miterlimit="10" x1="46.998" y1="1" x2="1.002" y2="47"/>
</g>
</svg>
