<?xml version="1.0" encoding="utf-8"?>
<!-- Generator: Adobe Illustrator 16.0.0, SVG Export Plug-In . SVG Version: 6.00 Build 0)  -->
<!DOCTYPE svg PUBLIC "-//W3C//DTD SVG 1.1//EN" "http://www.w3.org/Graphics/SVG/1.1/DTD/svg11.dtd">
<svg version="1.1" id="Layer_1" xmlns="http://www.w3.org/2000/svg" xmlns:xlink="http://www.w3.org/1999/xlink" x="0px" y="0px"
	 width="48px" height="48px" viewBox="0 0 48 48" enable-background="new 0 0 48 48" xml:space="preserve">
<g>
	<g>
		<path fill="none" stroke="#000000" stroke-width="2" stroke-miterlimit="10" d="M46.999,45c0,1.1-0.9,2-2,2H3.001
			c-1.1,0-2-0.9-2-2V3c0-1.1,0.9-2,2-2h41.998c1.1,0,2,0.9,2,2V45z"/>
	</g>
	
		<line fill="none" stroke="#000000" stroke-width="2" stroke-linecap="round" stroke-miterlimit="10" x1="1.536" y1="12.741" x2="46.464" y2="12.741"/>
	<g>
		
			<line fill="none" stroke="#000000" stroke-width="2" stroke-linecap="round" stroke-miterlimit="10" x1="12.915" y1="6.533" x2="15.028" y2="6.533"/>
		
			<line fill="none" stroke="#000000" stroke-width="2" stroke-linecap="round" stroke-miterlimit="10" x1="32.971" y1="6.533" x2="35.083" y2="6.533"/>
	</g>
	<g>
		<path d="M16.578,23.7h-0.045l-2.769,1.495l-0.417-1.644l3.479-1.864h1.84v15.939h-2.087V23.7z"/>
		<path d="M24.478,37.626v-1.323l1.694-1.644c4.071-3.874,5.913-5.934,5.933-8.338c0-1.62-0.785-3.113-3.16-3.113
			c-1.446,0-2.652,0.738-3.385,1.348l-0.687-1.518c1.104-0.934,2.673-1.621,4.51-1.621c3.434,0,4.879,2.354,4.879,4.634
			c0,2.942-2.132,5.321-5.491,8.556l-1.272,1.179v0.051h7.157v1.789H24.478z"/>
	</g>
</g>
</svg>
