<?xml version="1.0" encoding="utf-8"?>
<!-- Generator: Adobe Illustrator 16.0.0, SVG Export Plug-In . SVG Version: 6.00 Build 0)  -->
<!DOCTYPE svg PUBLIC "-//W3C//DTD SVG 1.1//EN" "http://www.w3.org/Graphics/SVG/1.1/DTD/svg11.dtd">
<svg version="1.1" id="Layer_1" xmlns="http://www.w3.org/2000/svg" xmlns:xlink="http://www.w3.org/1999/xlink" x="0px" y="0px"
	 width="48px" height="48px" viewBox="0 0 48 48" enable-background="new 0 0 48 48" xml:space="preserve">
<g>
	<path fill="none" stroke="#000000" stroke-width="2" stroke-linecap="round" stroke-linejoin="round" stroke-miterlimit="10" d="
		M44.337,2.38l-15.9,17.174c-2.438,2.626-6.427,2.631-8.865,0L3.661,2.38"/>
	<path fill="none" stroke="#000000" stroke-width="2" stroke-linecap="round" stroke-linejoin="round" stroke-miterlimit="10" d="
		M46.82,35.95c0,6.104-4.945,11.05-11.045,11.05c-6.103,0-11.048-4.946-11.048-11.05c0-6.098,4.945-11.044,11.048-11.044
		C41.875,24.906,46.82,29.853,46.82,35.95z"/>
	<path fill="none" stroke="#000000" stroke-width="2" stroke-linecap="round" stroke-linejoin="round" stroke-miterlimit="10" d="
		M40.735,1H7.264C3.918,1,1.18,3.736,1.18,7.09v17.386c0,3.347,2.738,6.083,6.084,6.083h18.924c1.896-3.354,5.456-5.653,9.587-5.653
		c3.556,0,6.686,1.709,8.703,4.323c1.415-1.118,2.342-2.825,2.342-4.753V7.09C46.82,3.736,44.08,1,40.735,1z"/>
	<g>
		
			<line fill="none" stroke="#000000" stroke-width="2" stroke-linecap="round" stroke-linejoin="round" stroke-miterlimit="10" x1="32.271" y1="32.451" x2="39.275" y2="39.455"/>
		
			<line fill="none" stroke="#000000" stroke-width="2" stroke-linecap="round" stroke-linejoin="round" stroke-miterlimit="10" x1="39.275" y1="32.451" x2="32.271" y2="39.449"/>
	</g>
</g>
</svg>
