<?xml version="1.0" encoding="utf-8"?>
<!-- Generator: Adobe Illustrator 16.0.0, SVG Export Plug-In . SVG Version: 6.00 Build 0)  -->
<!DOCTYPE svg PUBLIC "-//W3C//DTD SVG 1.1//EN" "http://www.w3.org/Graphics/SVG/1.1/DTD/svg11.dtd">
<svg version="1.1" id="Layer_1" xmlns="http://www.w3.org/2000/svg" xmlns:xlink="http://www.w3.org/1999/xlink" x="0px" y="0px"
	 width="48px" height="48px" viewBox="0 0 48 48" enable-background="new 0 0 48 48" xml:space="preserve">
<g>
	<path fill="none" stroke="#000000" stroke-width="2" stroke-linecap="round" stroke-linejoin="round" stroke-miterlimit="10" d="
		M44.337,2.38L28.435,19.555c-2.436,2.626-6.425,2.631-8.86,0L3.66,2.38"/>
	<path fill="none" stroke="#000000" stroke-width="2" stroke-linecap="round" stroke-linejoin="round" stroke-miterlimit="10" d="
		M46.82,35.95c0,6.104-4.945,11.05-11.047,11.05c-6.099,0-11.044-4.946-11.044-11.05c0-6.098,4.946-11.045,11.044-11.045
		C41.875,24.905,46.82,29.853,46.82,35.95z"/>
	<path fill="none" stroke="#000000" stroke-width="2" stroke-linecap="round" stroke-linejoin="round" stroke-miterlimit="10" d="
		M40.737,1H7.267C3.918,1,1.18,3.736,1.18,7.09v17.386c0,3.347,2.738,6.083,6.087,6.083h18.921c1.897-3.354,5.456-5.654,9.586-5.654
		c3.558,0,6.686,1.71,8.709,4.324c1.413-1.118,2.338-2.825,2.338-4.753V7.09C46.82,3.736,44.084,1,40.737,1z"/>
	
		<line fill="none" stroke="#000000" stroke-width="2" stroke-linecap="round" stroke-linejoin="round" stroke-miterlimit="10" x1="30.82" y1="35.95" x2="40.726" y2="35.95"/>
</g>
</svg>
