<?xml version="1.0" encoding="utf-8"?>
<!-- Generator: Adobe Illustrator 16.0.0, SVG Export Plug-In . SVG Version: 6.00 Build 0)  -->
<!DOCTYPE svg PUBLIC "-//W3C//DTD SVG 1.1//EN" "http://www.w3.org/Graphics/SVG/1.1/DTD/svg11.dtd">
<svg version="1.1" id="Layer_1" xmlns="http://www.w3.org/2000/svg" xmlns:xlink="http://www.w3.org/1999/xlink" x="0px" y="0px"
	 width="48px" height="48px" viewBox="0 0 48 48" enable-background="new 0 0 48 48" xml:space="preserve">
<g>
	<path fill="none" stroke="#000000" stroke-width="2" stroke-linecap="round" stroke-linejoin="round" stroke-miterlimit="10" d="
		M44.337,2.379L28.433,19.553c-2.436,2.628-6.422,2.634-8.858,0L3.658,2.379"/>
	<path fill="none" stroke="#000000" stroke-width="2" stroke-linecap="round" stroke-linejoin="round" stroke-miterlimit="10" d="
		M46.822,35.951C46.822,42.055,41.877,47,35.774,47s-11.048-4.945-11.048-11.049c0-6.099,4.946-11.051,11.048-11.051
		S46.822,29.853,46.822,35.951z"/>
	<path fill="none" stroke="#000000" stroke-width="2" stroke-linecap="round" stroke-linejoin="round" stroke-miterlimit="10" d="
		M40.735,1H7.263C3.916,1,1.178,3.734,1.178,7.086v17.391c0,3.344,2.738,6.086,6.085,6.086h18.924
		c1.894-3.361,5.458-5.662,9.588-5.662c3.557,0,6.687,1.717,8.705,4.325c1.412-1.111,2.343-2.825,2.343-4.749V7.086
		C46.822,3.734,44.081,1,40.735,1z"/>
	<g>
		
			<line fill="none" stroke="#000000" stroke-width="2" stroke-linecap="round" stroke-linejoin="round" stroke-miterlimit="10" x1="30.822" y1="35.951" x2="40.726" y2="35.951"/>
		
			<line fill="none" stroke="#000000" stroke-width="2" stroke-linecap="round" stroke-linejoin="round" stroke-miterlimit="10" x1="35.774" y1="31" x2="35.774" y2="40.902"/>
	</g>
</g>
</svg>
