<?xml version="1.0" encoding="utf-8"?>
<!-- Generator: Adobe Illustrator 16.0.0, SVG Export Plug-In . SVG Version: 6.00 Build 0)  -->
<!DOCTYPE svg PUBLIC "-//W3C//DTD SVG 1.1//EN" "http://www.w3.org/Graphics/SVG/1.1/DTD/svg11.dtd">
<svg version="1.1" id="Layer_1" xmlns="http://www.w3.org/2000/svg" xmlns:xlink="http://www.w3.org/1999/xlink" x="0px" y="0px"
	 width="48px" height="48px" viewBox="0 0 48 48" enable-background="new 0 0 48 48" xml:space="preserve">
<g>
	<g>
		<path fill="none" stroke="#000000" stroke-width="2" stroke-linecap="round" stroke-linejoin="round" stroke-miterlimit="10" d="
			M44.339,2.38L28.436,19.552c-2.438,2.628-6.428,2.634-8.861,0L3.661,2.38"/>
		<path fill="none" stroke="#000000" stroke-width="2" stroke-linecap="round" stroke-linejoin="round" stroke-miterlimit="10" d="
			M46.821,35.95c0,6.105-4.946,11.05-11.043,11.05c-6.104,0-11.053-4.944-11.053-11.05c0-6.097,4.949-11.051,11.053-11.051
			C41.875,24.899,46.821,29.854,46.821,35.95z"/>
		<path fill="none" stroke="#000000" stroke-width="2" stroke-linecap="round" stroke-linejoin="round" stroke-miterlimit="10" d="
			M40.738,1H7.265C3.917,1,1.179,3.733,1.179,7.085v17.391c0,3.343,2.738,6.085,6.086,6.085h18.928
			c1.896-3.36,5.456-5.662,9.586-5.662c3.555,0,6.687,1.718,8.703,4.327c1.415-1.113,2.34-2.826,2.34-4.75V7.085
			C46.821,3.733,44.084,1,40.738,1z"/>
	</g>
	
		<polyline fill="none" stroke="#000000" stroke-width="2" stroke-linecap="round" stroke-linejoin="round" stroke-miterlimit="10" points="
		29.128,35.95 34.075,41.077 42.215,32.401 	"/>
</g>
</svg>
