<?xml version="1.0" encoding="utf-8"?>
<!-- Generator: Adobe Illustrator 16.0.0, SVG Export Plug-In . SVG Version: 6.00 Build 0)  -->
<!DOCTYPE svg PUBLIC "-//W3C//DTD SVG 1.1//EN" "http://www.w3.org/Graphics/SVG/1.1/DTD/svg11.dtd">
<svg version="1.1" id="Layer_1" xmlns="http://www.w3.org/2000/svg" xmlns:xlink="http://www.w3.org/1999/xlink" x="0px" y="0px"
	 width="48px" height="48px" viewBox="0 0 48 48" enable-background="new 0 0 48 48" xml:space="preserve">
<g>
	<path fill="none" stroke="#000000" stroke-width="2" stroke-linecap="round" stroke-linejoin="round" stroke-miterlimit="10" d="
		M44.342,2.381L28.434,19.556c-2.437,2.624-6.424,2.63-8.86,0L3.667,2.381"/>
	<path fill="none" stroke="#000000" stroke-width="2" stroke-linecap="round" stroke-linejoin="round" stroke-miterlimit="10" d="
		M46.82,35.95c0,6.104-4.945,11.05-11.043,11.05c-6.101,0-11.047-4.946-11.047-11.05c0-6.099,4.947-11.045,11.047-11.045
		C41.875,24.905,46.82,29.852,46.82,35.95z"/>
	<path fill="none" stroke="#000000" stroke-width="2" stroke-linecap="round" stroke-linejoin="round" stroke-miterlimit="10" d="
		M40.737,1H7.267C3.922,1,1.18,3.737,1.18,7.088v17.387c0,3.346,2.742,6.083,6.087,6.083h18.929
		c1.891-3.354,5.452-5.652,9.582-5.652c3.555,0,6.687,1.709,8.708,4.323c1.406-1.119,2.335-2.826,2.335-4.753V7.088
		C46.82,3.737,44.086,1,40.737,1z"/>
	
		<polygon fill="none" stroke="#000000" stroke-width="2" stroke-linecap="round" stroke-linejoin="round" stroke-miterlimit="10" points="
		29.79,33.15 41.763,33.15 35.779,42.445 	"/>
</g>
</svg>
