<?xml version="1.0" encoding="utf-8"?>
<!-- Generator: Adobe Illustrator 16.0.0, SVG Export Plug-In . SVG Version: 6.00 Build 0)  -->
<!DOCTYPE svg PUBLIC "-//W3C//DTD SVG 1.1//EN" "http://www.w3.org/Graphics/SVG/1.1/DTD/svg11.dtd">
<svg version="1.1" id="Layer_1" xmlns="http://www.w3.org/2000/svg" xmlns:xlink="http://www.w3.org/1999/xlink" x="0px" y="0px"
	 width="48px" height="48px" viewBox="0 0 48 48" enable-background="new 0 0 48 48" xml:space="preserve">
<g>
	<path fill="none" stroke="#000000" stroke-width="2" stroke-linecap="round" stroke-linejoin="round" stroke-miterlimit="10" d="
		M44.338,2.38L28.431,19.555c-2.431,2.626-6.421,2.631-8.858,0L3.662,2.38"/>
	<path fill="none" stroke="#000000" stroke-width="2" stroke-linecap="round" stroke-linejoin="round" stroke-miterlimit="10" d="
		M46.82,35.95c0,6.104-4.944,11.05-11.05,11.05c-6.097,0-11.042-4.946-11.042-11.05c0-6.098,4.946-11.045,11.042-11.045
		C41.876,24.905,46.82,29.853,46.82,35.95z"/>
	<path fill="none" stroke="#000000" stroke-width="2" stroke-linecap="round" stroke-linejoin="round" stroke-miterlimit="10" d="
		M40.733,1H7.267C3.921,1,1.18,3.736,1.18,7.09v17.386c0,3.347,2.741,6.083,6.087,6.083h18.923c1.891-3.354,5.453-5.654,9.581-5.654
		c3.56,0,6.691,1.71,8.709,4.324c1.412-1.118,2.341-2.825,2.341-4.753V7.09C46.82,3.736,44.081,1,40.733,1z"/>
	<polygon points="35.771,39.682 31.783,42.089 32.843,37.557 29.322,34.502 33.961,34.102 35.771,29.819 37.586,34.102 
		42.226,34.502 38.704,37.557 39.761,42.089 	"/>
</g>
</svg>
