<?xml version="1.0" encoding="utf-8"?>
<!-- Generator: Adobe Illustrator 16.0.0, SVG Export Plug-In . SVG Version: 6.00 Build 0)  -->
<!DOCTYPE svg PUBLIC "-//W3C//DTD SVG 1.1//EN" "http://www.w3.org/Graphics/SVG/1.1/DTD/svg11.dtd">
<svg version="1.1" id="Layer_1" xmlns="http://www.w3.org/2000/svg" xmlns:xlink="http://www.w3.org/1999/xlink" x="0px" y="0px"
	 width="48px" height="48px" viewBox="0 0 48 48" enable-background="new 0 0 48 48" xml:space="preserve">
<g>
	<path fill="none" stroke="#000000" stroke-width="2" stroke-linecap="round" stroke-linejoin="round" stroke-miterlimit="10" d="
		M44.342,2.38L28.436,19.554c-2.437,2.625-6.424,2.631-8.86,0L3.666,2.38"/>
	<path fill="none" stroke="#000000" stroke-width="2" stroke-linecap="round" stroke-linejoin="round" stroke-miterlimit="10" d="
		M46.818,35.948C46.818,42.053,41.875,47,35.775,47c-6.099,0-11.044-4.947-11.044-11.052c0-6.097,4.946-11.043,11.044-11.043
		C41.875,24.905,46.818,29.852,46.818,35.948z"/>
	<path fill="none" stroke="#000000" stroke-width="2" stroke-linecap="round" stroke-linejoin="round" stroke-miterlimit="10" d="
		M40.737,1H7.265C3.919,1,1.182,3.736,1.182,7.088v17.386c0,3.347,2.737,6.083,6.083,6.083h18.925
		c1.893-3.354,5.453-5.652,9.586-5.652c3.56,0,6.689,1.709,8.705,4.322c1.411-1.117,2.338-2.824,2.338-4.752V7.088
		C46.818,3.736,44.082,1,40.737,1z"/>
	
		<line fill="none" stroke="#000000" stroke-width="2" stroke-linecap="round" stroke-linejoin="round" stroke-miterlimit="10" x1="35.775" y1="30.022" x2="35.775" y2="39.691"/>
	
		<polyline fill="none" stroke="#000000" stroke-width="2" stroke-linecap="round" stroke-linejoin="round" stroke-miterlimit="10" points="
		30.546,36.712 36.039,41.543 41.007,36.579 	"/>
</g>
</svg>
