<?xml version="1.0" encoding="utf-8"?>
<!-- Generator: Adobe Illustrator 16.0.0, SVG Export Plug-In . SVG Version: 6.00 Build 0)  -->
<!DOCTYPE svg PUBLIC "-//W3C//DTD SVG 1.1//EN" "http://www.w3.org/Graphics/SVG/1.1/DTD/svg11.dtd">
<svg version="1.1" id="Layer_1" xmlns="http://www.w3.org/2000/svg" xmlns:xlink="http://www.w3.org/1999/xlink" x="0px" y="0px"
	 width="48px" height="48px" viewBox="0 0 48 48" enable-background="new 0 0 48 48" xml:space="preserve">
<g>
	<g>
		<path fill="none" stroke="#000000" stroke-width="2" stroke-linecap="round" stroke-linejoin="round" stroke-miterlimit="10" d="
			M44.339,2.38L28.433,19.555c-2.438,2.625-6.423,2.631-8.86,0L3.656,2.38"/>
		<path fill="none" stroke="#000000" stroke-width="2" stroke-linecap="round" stroke-linejoin="round" stroke-miterlimit="10" d="
			M46.82,35.95c0,6.104-4.949,11.05-11.049,11.05c-6.097,0-11.047-4.946-11.047-11.05c0-6.098,4.95-11.044,11.047-11.044
			C41.871,24.906,46.82,29.853,46.82,35.95z"/>
		<path fill="none" stroke="#000000" stroke-width="2" stroke-linecap="round" stroke-linejoin="round" stroke-miterlimit="10" d="
			M40.733,1H7.264C3.918,1,1.18,3.736,1.18,7.089v17.387c0,3.347,2.738,6.083,6.084,6.083h18.924
			c1.894-3.354,5.454-5.653,9.583-5.653c3.557,0,6.686,1.709,8.709,4.323c1.409-1.118,2.34-2.825,2.34-4.753V7.089
			C46.82,3.736,44.082,1,40.733,1z"/>
	</g>
	<g>
		
			<line fill="none" stroke="#000000" stroke-width="2" stroke-linecap="round" stroke-linejoin="round" stroke-miterlimit="10" x1="35.771" y1="41.714" x2="35.771" y2="32.048"/>
		
			<polyline fill="none" stroke="#000000" stroke-width="2" stroke-linecap="round" stroke-linejoin="round" stroke-miterlimit="10" points="
			41.001,35.026 35.51,30.193 30.542,35.155 		"/>
	</g>
</g>
</svg>
