<?xml version="1.0" encoding="utf-8"?>
<!-- Generator: Adobe Illustrator 16.0.0, SVG Export Plug-In . SVG Version: 6.00 Build 0)  -->
<!DOCTYPE svg PUBLIC "-//W3C//DTD SVG 1.1//EN" "http://www.w3.org/Graphics/SVG/1.1/DTD/svg11.dtd">
<svg version="1.1" id="Layer_1" xmlns="http://www.w3.org/2000/svg" xmlns:xlink="http://www.w3.org/1999/xlink" x="0px" y="0px"
	 width="48px" height="48px" viewBox="0 0 48 48" enable-background="new 0 0 48 48" xml:space="preserve">
<g>
	<g>
		<path fill="none" stroke="#000000" stroke-width="2" stroke-linecap="round" stroke-linejoin="round" stroke-miterlimit="10" d="
			M44.339,2.38L28.434,19.556c-2.434,2.623-6.424,2.63-8.861,0L3.664,2.38"/>
		<path fill="none" stroke="#000000" stroke-width="2" stroke-linecap="round" stroke-linejoin="round" stroke-miterlimit="10" d="
			M46.82,35.949C46.82,42.053,41.873,47,35.779,47c-6.107,0-11.051-4.947-11.051-11.051c0-6.098,4.944-11.045,11.051-11.045
			C41.873,24.904,46.82,29.852,46.82,35.949z"/>
		<path fill="none" stroke="#000000" stroke-width="2" stroke-linecap="round" stroke-linejoin="round" stroke-miterlimit="10" d="
			M40.734,1H7.269C3.919,1,1.18,3.736,1.18,7.089v17.387c0,3.345,2.739,6.081,6.089,6.081H26.19
			c1.896-3.354,5.459-5.652,9.589-5.652c3.551,0,6.683,1.711,8.704,4.323c1.413-1.119,2.337-2.826,2.337-4.752V7.089
			C46.82,3.736,44.087,1,40.734,1z"/>
	</g>
	
		<line fill="none" stroke="#000000" stroke-width="2" stroke-linecap="round" stroke-linejoin="round" stroke-miterlimit="10" x1="35.767" y1="36.543" x2="35.767" y2="29.593"/>
	
		<line fill="none" stroke="#000000" stroke-width="2" stroke-linecap="round" stroke-linejoin="round" stroke-miterlimit="10" x1="35.75" y1="41.894" x2="35.75" y2="40.566"/>
</g>
</svg>
