<?xml version="1.0" encoding="utf-8"?>
<!-- Generator: Adobe Illustrator 16.0.0, SVG Export Plug-In . SVG Version: 6.00 Build 0)  -->
<!DOCTYPE svg PUBLIC "-//W3C//DTD SVG 1.1//EN" "http://www.w3.org/Graphics/SVG/1.1/DTD/svg11.dtd">
<svg version="1.1" id="Layer_1" xmlns="http://www.w3.org/2000/svg" xmlns:xlink="http://www.w3.org/1999/xlink" x="0px" y="0px"
	 width="48px" height="48px" viewBox="0 0 48 48" enable-background="new 0 0 48 48" xml:space="preserve">
<g>
	<g>
		<path fill="none" stroke="#000000" stroke-width="2" stroke-linecap="round" stroke-linejoin="round" stroke-miterlimit="10" d="
			M44.34,2.38L28.433,19.556c-2.436,2.625-6.424,2.631-8.861,0L3.658,2.38"/>
		<path fill="none" stroke="#000000" stroke-width="2" stroke-linecap="round" stroke-linejoin="round" stroke-miterlimit="10" d="
			M46.822,35.951C46.822,42.057,41.873,47,35.776,47c-6.105,0-11.049-4.943-11.049-11.049c0-6.097,4.944-11.047,11.049-11.047
			C41.873,24.904,46.822,29.854,46.822,35.951z"/>
		<path fill="none" stroke="#000000" stroke-width="2" stroke-linecap="round" stroke-linejoin="round" stroke-miterlimit="10" d="
			M40.738,1H7.264C3.917,1,1.178,3.734,1.178,7.086v17.388c0,3.348,2.738,6.085,6.086,6.085h18.925
			c1.897-3.357,5.456-5.656,9.587-5.656c3.553,0,6.686,1.709,8.707,4.327c1.411-1.118,2.339-2.825,2.339-4.756V7.086
			C46.822,3.734,44.083,1,40.738,1z"/>
	</g>
	
		<polyline fill="none" stroke="#000000" stroke-width="2" stroke-linecap="round" stroke-linejoin="round" stroke-miterlimit="10" points="
		35.771,28.741 35.771,35.951 40.324,38.362 	"/>
</g>
</svg>
