<?xml version="1.0" encoding="utf-8"?>
<!-- Generator: Adobe Illustrator 16.0.0, SVG Export Plug-In . SVG Version: 6.00 Build 0)  -->
<!DOCTYPE svg PUBLIC "-//W3C//DTD SVG 1.1//EN" "http://www.w3.org/Graphics/SVG/1.1/DTD/svg11.dtd">
<svg version="1.1" id="Layer_1" xmlns="http://www.w3.org/2000/svg" xmlns:xlink="http://www.w3.org/1999/xlink" x="0px" y="0px"
	 width="48px" height="48px" viewBox="0 0 48 48" enable-background="new 0 0 48 48" xml:space="preserve">
<g>
	<path fill="none" stroke="#000000" stroke-width="2" stroke-linecap="round" stroke-linejoin="round" stroke-miterlimit="10" d="
		M44.498,4.254L28.47,21.566c-2.457,2.652-6.477,2.652-8.933,0L3.499,4.254"/>
	<path fill="none" stroke="#000000" stroke-width="2" stroke-linecap="round" stroke-linejoin="round" stroke-miterlimit="10" d="
		M47,18.958V9c0-3.373-2.761-6.135-6.132-6.135H7.136C3.757,2.865,1,5.627,1,9v17.526c0,3.375,2.757,6.133,6.136,6.133h16.361"/>
	<path fill="none" stroke="#000000" stroke-width="2" stroke-linecap="round" stroke-linejoin="round" stroke-miterlimit="10" d="
		M46.229,29.377c0,4.313-3.49,7.803-7.801,7.803c-4.313,0-7.81-3.49-7.81-7.803c0-4.313,3.497-7.811,7.81-7.811
		C42.738,21.566,46.229,25.063,46.229,29.377z"/>
	
		<line fill="none" stroke="#000000" stroke-width="2" stroke-linecap="round" stroke-linejoin="round" stroke-miterlimit="10" x1="31.797" y1="35.491" x2="20.58" y2="45.135"/>
</g>
</svg>
