<?xml version="1.0" encoding="utf-8"?>
<!-- Generator: Adobe Illustrator 16.0.0, SVG Export Plug-In . SVG Version: 6.00 Build 0)  -->
<!DOCTYPE svg PUBLIC "-//W3C//DTD SVG 1.1//EN" "http://www.w3.org/Graphics/SVG/1.1/DTD/svg11.dtd">
<svg version="1.1" id="Layer_1" xmlns="http://www.w3.org/2000/svg" xmlns:xlink="http://www.w3.org/1999/xlink" x="0px" y="0px"
	 width="48px" height="48px" viewBox="0 0 48 48" enable-background="new 0 0 48 48" xml:space="preserve">
<g>
	<path fill="none" stroke="#000000" stroke-width="2" stroke-linecap="round" stroke-linejoin="round" stroke-miterlimit="10" d="
		M20.818,28.977V18.325c0-5.901-4.365-10.735-9.704-10.735c-5.339,0-9.709,4.834-9.709,10.735v10.652
		c0,0.083,0.017,0.156,0.026,0.23h19.365C20.795,29.133,20.818,29.06,20.818,28.977z"/>
	<path fill="none" stroke="#000000" stroke-width="2" stroke-linecap="round" stroke-linejoin="round" stroke-miterlimit="10" d="
		M36.891,7.59H11.114c5.339,0,9.704,4.834,9.704,10.735v10.652c0,0.083-0.022,0.156-0.022,0.23h6.41h9.686h9.688
		c0-0.074,0.017-0.147,0.017-0.23V18.325C46.596,12.424,42.227,7.59,36.891,7.59z"/>
	
		<line fill="none" stroke="#000000" stroke-width="2" stroke-linecap="round" stroke-linejoin="round" stroke-miterlimit="10" x1="7.581" y1="20.169" x2="14.641" y2="20.169"/>
	
		<line fill="none" stroke="#000000" stroke-width="2" stroke-linecap="round" stroke-linejoin="round" stroke-miterlimit="10" x1="22.403" y1="2.165" x2="31.003" y2="2.165"/>
	
		<line fill="none" stroke="#000000" stroke-width="2" stroke-linecap="round" stroke-linejoin="round" stroke-miterlimit="10" x1="24.656" y1="1" x2="24.532" y2="19.234"/>
	
		<line fill="none" stroke="#000000" stroke-width="2" stroke-linecap="round" stroke-linejoin="round" stroke-miterlimit="10" x1="24.611" y1="30.055" x2="24.611" y2="47"/>
</g>
</svg>
