<?xml version="1.0" encoding="utf-8"?>
<!-- Generator: Adobe Illustrator 16.0.0, SVG Export Plug-In . SVG Version: 6.00 Build 0)  -->
<!DOCTYPE svg PUBLIC "-//W3C//DTD SVG 1.1//EN" "http://www.w3.org/Graphics/SVG/1.1/DTD/svg11.dtd">
<svg version="1.1" id="Layer_1" xmlns="http://www.w3.org/2000/svg" xmlns:xlink="http://www.w3.org/1999/xlink" x="0px" y="0px"
	 width="48px" height="48px" viewBox="0 0 48 48" enable-background="new 0 0 48 48" xml:space="preserve">
<g>
	
		<polyline fill="none" stroke="#000000" stroke-width="2" stroke-linecap="round" stroke-linejoin="round" stroke-miterlimit="10" points="
		29.187,35.273 34.096,40.346 42.161,31.753 	"/>
	<path fill="none" stroke="#000000" stroke-width="2" stroke-linecap="round" stroke-linejoin="round" stroke-miterlimit="10" d="
		M46.624,36.051c0,6.045-4.905,10.949-10.95,10.949c-6.052,0-10.953-4.904-10.953-10.949c0-6.05,4.901-10.953,10.953-10.953
		C41.719,25.098,46.624,30.001,46.624,36.051z"/>
	<path fill="none" stroke="#000000" stroke-width="2" stroke-linecap="round" stroke-linejoin="round" stroke-miterlimit="10" d="
		M24.721,36.051c0-6.05,4.901-10.953,10.953-10.953c3.991,0,7.442,2.155,9.357,5.345c1.023-2.495,1.593-5.22,1.593-8.077
		C46.624,10.563,37.058,1,25.258,1C13.457,1,3.895,10.563,3.895,22.365c0,3.952,1.092,7.642,2.964,10.815L1.376,45.602l12.809-4.999
		c3.23,1.971,7.017,3.128,11.073,3.128c0.842,0,1.67-0.067,2.485-0.159C25.885,41.609,24.721,38.965,24.721,36.051z"/>
</g>
</svg>
