<?xml version="1.0" encoding="utf-8"?>
<!-- Generator: Adobe Illustrator 16.0.0, SVG Export Plug-In . SVG Version: 6.00 Build 0)  -->
<!DOCTYPE svg PUBLIC "-//W3C//DTD SVG 1.1//EN" "http://www.w3.org/Graphics/SVG/1.1/DTD/svg11.dtd">
<svg version="1.1" id="Layer_1" xmlns="http://www.w3.org/2000/svg" xmlns:xlink="http://www.w3.org/1999/xlink" x="0px" y="0px"
	 width="48px" height="48px" viewBox="0 0 48 48" enable-background="new 0 0 48 48" xml:space="preserve">
<g>
	
		<polygon fill="none" stroke="#000000" stroke-width="2" stroke-linecap="round" stroke-linejoin="round" stroke-miterlimit="10" points="
		29.736,32.921 41.608,32.921 35.674,42.139 	"/>
	
		<circle fill="none" stroke="#000000" stroke-width="2" stroke-linecap="round" stroke-linejoin="round" stroke-miterlimit="10" cx="35.674" cy="36.051" r="10.951"/>
	<path fill="none" stroke="#000000" stroke-width="2" stroke-linecap="round" stroke-linejoin="round" stroke-miterlimit="10" d="
		M24.724,36.051c0-6.048,4.902-10.952,10.95-10.952c3.99,0,7.442,2.156,9.358,5.344c1.02-2.495,1.593-5.218,1.593-8.076
		C46.625,10.564,37.055,1,25.258,1S3.896,10.564,3.896,22.366c0,3.953,1.092,7.642,2.962,10.814L1.375,45.604l12.811-4.999
		c3.23,1.969,7.014,3.126,11.071,3.126c0.846,0,1.67-0.066,2.489-0.159C25.884,41.609,24.724,38.967,24.724,36.051z"/>
</g>
</svg>
