<?xml version="1.0" encoding="utf-8"?>
<!-- Generator: Adobe Illustrator 16.0.0, SVG Export Plug-In . SVG Version: 6.00 Build 0)  -->
<!DOCTYPE svg PUBLIC "-//W3C//DTD SVG 1.1//EN" "http://www.w3.org/Graphics/SVG/1.1/DTD/svg11.dtd">
<svg version="1.1" id="Layer_1" xmlns="http://www.w3.org/2000/svg" xmlns:xlink="http://www.w3.org/1999/xlink" x="0px" y="0px"
	 width="48px" height="48px" viewBox="0 0 48 48" enable-background="new 0 0 48 48" xml:space="preserve">
<g>
	<g>
		
			<line fill="none" stroke="#000000" stroke-width="2" stroke-linecap="round" stroke-linejoin="round" stroke-miterlimit="10" x1="35.672" y1="30.338" x2="35.672" y2="39.923"/>
		
			<polyline fill="none" stroke="#000000" stroke-width="2" stroke-linecap="round" stroke-linejoin="round" stroke-miterlimit="10" points="
			30.485,36.973 35.937,41.761 40.856,36.842 		"/>
	</g>
	<path fill="none" stroke="#000000" stroke-width="2" stroke-linecap="round" stroke-linejoin="round" stroke-miterlimit="10" d="
		M46.625,36.051C46.625,42.096,41.718,47,35.672,47c-6.045,0-10.953-4.904-10.953-10.949c0-6.048,4.908-10.951,10.953-10.951
		C41.718,25.1,46.625,30.003,46.625,36.051z"/>
	<path fill="none" stroke="#000000" stroke-width="2" stroke-linecap="round" stroke-linejoin="round" stroke-miterlimit="10" d="
		M24.719,36.051c0-6.048,4.908-10.951,10.953-10.951c3.988,0,7.446,2.155,9.36,5.343c1.02-2.495,1.593-5.219,1.593-8.077
		C46.625,10.564,37.058,1,25.26,1S3.889,10.564,3.889,22.366c0,3.954,1.098,7.642,2.965,10.816L1.375,45.604l12.808-4.999
		c3.229,1.971,7.013,3.126,11.076,3.126c0.839,0,1.669-0.066,2.484-0.159C25.881,41.609,24.719,38.967,24.719,36.051z"/>
</g>
</svg>
