<?xml version="1.0" encoding="utf-8"?>
<!-- Generator: Adobe Illustrator 16.0.0, SVG Export Plug-In . SVG Version: 6.00 Build 0)  -->
<!DOCTYPE svg PUBLIC "-//W3C//DTD SVG 1.1//EN" "http://www.w3.org/Graphics/SVG/1.1/DTD/svg11.dtd">
<svg version="1.1" id="Layer_1" xmlns="http://www.w3.org/2000/svg" xmlns:xlink="http://www.w3.org/1999/xlink" x="0px" y="0px"
	 width="48px" height="48px" viewBox="0 0 48 48" enable-background="new 0 0 48 48" xml:space="preserve">
<g>
	<g>
		
			<line fill="none" stroke="#000000" stroke-width="2" stroke-linecap="round" stroke-linejoin="round" stroke-miterlimit="10" x1="35.678" y1="41.759" x2="35.678" y2="32.176"/>
		
			<polyline fill="none" stroke="#000000" stroke-width="2" stroke-linecap="round" stroke-linejoin="round" stroke-miterlimit="10" points="
			40.859,35.131 35.411,30.338 30.49,35.263 		"/>
	</g>
	<path fill="none" stroke="#000000" stroke-width="2" stroke-linecap="round" stroke-linejoin="round" stroke-miterlimit="10" d="
		M46.625,36.051C46.625,42.096,41.721,47,35.678,47c-6.054,0-10.954-4.904-10.954-10.949c0-6.049,4.9-10.952,10.954-10.952
		C41.721,25.099,46.625,30.002,46.625,36.051z"/>
	<path fill="none" stroke="#000000" stroke-width="2" stroke-linecap="round" stroke-linejoin="round" stroke-miterlimit="10" d="
		M24.724,36.051c0-6.049,4.9-10.952,10.954-10.952c3.988,0,7.44,2.156,9.354,5.344c1.022-2.495,1.594-5.22,1.594-8.077
		C46.625,10.563,37.055,1,25.259,1C13.461,1,3.894,10.563,3.894,22.365c0,3.952,1.096,7.643,2.965,10.815L1.375,45.602l12.81-4.999
		c3.231,1.972,7.013,3.128,11.073,3.128c0.844,0,1.67-0.066,2.487-0.159C25.885,41.609,24.724,38.967,24.724,36.051z"/>
</g>
</svg>
