<?xml version="1.0" encoding="utf-8"?>
<!-- Generator: Adobe Illustrator 16.0.0, SVG Export Plug-In . SVG Version: 6.00 Build 0)  -->
<!DOCTYPE svg PUBLIC "-//W3C//DTD SVG 1.1//EN" "http://www.w3.org/Graphics/SVG/1.1/DTD/svg11.dtd">
<svg version="1.1" id="Layer_1" xmlns="http://www.w3.org/2000/svg" xmlns:xlink="http://www.w3.org/1999/xlink" x="0px" y="0px"
	 width="48px" height="48px" viewBox="0 0 48 48" enable-background="new 0 0 48 48" xml:space="preserve">
<g>
	<g>
		
			<line fill="none" stroke="#000000" stroke-width="2" stroke-linecap="round" stroke-linejoin="round" stroke-miterlimit="10" x1="35.684" y1="36.847" x2="35.684" y2="29.951"/>
		
			<line fill="none" stroke="#000000" stroke-width="2" stroke-linecap="round" stroke-linejoin="round" stroke-miterlimit="10" x1="35.665" y1="42.148" x2="35.665" y2="40.835"/>
	</g>
	
		<circle fill="none" stroke="#000000" stroke-width="2" stroke-linecap="round" stroke-linejoin="round" stroke-miterlimit="10" cx="35.675" cy="36.05" r="10.951"/>
	<path fill="none" stroke="#000000" stroke-width="2" stroke-linecap="round" stroke-linejoin="round" stroke-miterlimit="10" d="
		M24.724,36.05c0-6.048,4.903-10.952,10.95-10.952c3.993,0,7.446,2.156,9.357,5.345c1.021-2.495,1.595-5.219,1.595-8.077
		C46.626,10.564,37.054,1,25.258,1C13.46,1,3.896,10.564,3.896,22.366c0,3.954,1.092,7.642,2.964,10.814L1.375,45.603l12.808-4.999
		c3.234,1.971,7.018,3.127,11.075,3.127c0.848,0,1.67-0.065,2.491-0.159C25.887,41.608,24.724,38.967,24.724,36.05z"/>
</g>
</svg>
