<?xml version="1.0" encoding="utf-8"?>
<!-- Generator: Adobe Illustrator 16.0.0, SVG Export Plug-In . SVG Version: 6.00 Build 0)  -->
<!DOCTYPE svg PUBLIC "-//W3C//DTD SVG 1.1//EN" "http://www.w3.org/Graphics/SVG/1.1/DTD/svg11.dtd">
<svg version="1.1" id="Layer_1" xmlns="http://www.w3.org/2000/svg" xmlns:xlink="http://www.w3.org/1999/xlink" x="0px" y="0px"
	 width="48px" height="48px" viewBox="0 0 48 48" enable-background="new 0 0 48 48" xml:space="preserve">
<g>
	
		<polyline fill="none" stroke="#000000" stroke-width="2" stroke-linecap="round" stroke-linejoin="round" stroke-miterlimit="10" points="
		35.679,29.199 35.679,36.35 40.188,38.743 	"/>
	<path fill="none" stroke="#000000" stroke-width="2" stroke-linecap="round" stroke-linejoin="round" stroke-miterlimit="10" d="
		M46.625,36.051C46.625,42.096,41.721,47,35.669,47c-6.043,0-10.945-4.904-10.945-10.949c0-6.048,4.902-10.952,10.945-10.952
		C41.721,25.099,46.625,30.003,46.625,36.051z"/>
	<path fill="none" stroke="#000000" stroke-width="2" stroke-linecap="round" stroke-linejoin="round" stroke-miterlimit="10" d="
		M24.724,36.051c0-6.048,4.902-10.952,10.945-10.952c3.989,0,7.449,2.156,9.363,5.344c1.02-2.495,1.593-5.22,1.593-8.076
		C46.625,10.564,37.054,1,25.259,1C13.458,1,3.895,10.564,3.895,22.366c0,3.953,1.091,7.642,2.964,10.814L1.375,45.604l12.81-4.999
		c3.23,1.97,7.012,3.126,11.073,3.126c0.844,0,1.668-0.066,2.487-0.159C25.882,41.609,24.724,38.967,24.724,36.051z"/>
</g>
</svg>
