<?xml version="1.0" encoding="utf-8"?>
<!-- Generator: Adobe Illustrator 16.0.0, SVG Export Plug-In . SVG Version: 6.00 Build 0)  -->
<!DOCTYPE svg PUBLIC "-//W3C//DTD SVG 1.1//EN" "http://www.w3.org/Graphics/SVG/1.1/DTD/svg11.dtd">
<svg version="1.1" id="Layer_1" xmlns="http://www.w3.org/2000/svg" xmlns:xlink="http://www.w3.org/1999/xlink" x="0px" y="0px"
	 width="48px" height="48px" viewBox="0 0 48 48" enable-background="new 0 0 48 48" xml:space="preserve">
<g>
	<g>
		<path d="M15.134,18.604v-6.228h5.748v4.916c0,2.665-0.301,4.575-0.917,5.749c-0.86,1.612-2.186,2.823-3.998,3.639l-1.311-2.116
			c1.073-0.439,1.868-1.128,2.401-2.074c0.524-0.94,0.816-2.239,0.878-3.886H15.134z"/>
		<path d="M27.59,18.604v-6.228h5.751v4.916c0,2.665-0.307,4.575-0.923,5.749c-0.857,1.612-2.183,2.823-3.998,3.639l-1.305-2.116
			c1.067-0.439,1.868-1.128,2.396-2.074c0.53-0.94,0.822-2.239,0.88-3.886H27.59z"/>
	</g>
	<path fill="none" stroke="#000000" stroke-width="2" stroke-linejoin="round" stroke-miterlimit="10" d="M41.023,1H6.985
		C3.691,1,1.002,3.637,1.002,6.857V29.46c0,3.223,2.689,5.858,5.983,5.858h2.048C8.131,38.392,7.872,42.991,12.112,47
		c0,0,2.188-7.093,6.16-11.682h22.752c3.288,0,5.975-2.636,5.975-5.858V6.857C46.998,3.637,44.312,1,41.023,1z"/>
</g>
</svg>
