<?xml version="1.0" encoding="utf-8"?>
<!-- Generator: Adobe Illustrator 16.0.0, SVG Export Plug-In . SVG Version: 6.00 Build 0)  -->
<!DOCTYPE svg PUBLIC "-//W3C//DTD SVG 1.1//EN" "http://www.w3.org/Graphics/SVG/1.1/DTD/svg11.dtd">
<svg version="1.1" id="Layer_1" xmlns="http://www.w3.org/2000/svg" xmlns:xlink="http://www.w3.org/1999/xlink" x="0px" y="0px"
	 width="48px" height="48px" viewBox="0 0 48 48" enable-background="new 0 0 48 48" xml:space="preserve">
<g>
	<path fill="none" stroke="#000000" stroke-width="2" stroke-linejoin="round" stroke-miterlimit="10" d="M32.639,21.092H6.981
		c-3.292,0-5.981,2.475-5.981,5.5v3.946c0,3.021,2.689,5.498,5.981,5.498h2.046c-0.899,2.884-1.156,7.199,3.085,10.962
		c0,0,2.186-6.661,6.157-10.962h22.754c3.286,0,5.977-2.478,5.977-5.498v-3.946c0-3.026-2.69-5.5-5.977-5.5h-1.037"/>
	<path fill="none" stroke="#000000" stroke-width="2" stroke-linejoin="round" stroke-miterlimit="10" d="M6.981,1.001h34.035
		C44.307,1.001,47,3.472,47,6.499v3.94c0,3.022-2.693,5.497-5.984,5.497h-2.047c0.903,2.888,1.162,7.201-3.078,10.961
		c0,0-2.193-6.656-6.163-10.961H6.981C3.689,15.937,1,13.462,1,10.439v-3.94C1,3.472,3.689,1.001,6.981,1.001z"/>
</g>
</svg>
