<?xml version="1.0" encoding="utf-8"?>
<!-- Generator: Adobe Illustrator 16.0.0, SVG Export Plug-In . SVG Version: 6.00 Build 0)  -->
<!DOCTYPE svg PUBLIC "-//W3C//DTD SVG 1.1//EN" "http://www.w3.org/Graphics/SVG/1.1/DTD/svg11.dtd">
<svg version="1.1" id="Layer_1" xmlns="http://www.w3.org/2000/svg" xmlns:xlink="http://www.w3.org/1999/xlink" x="0px" y="0px"
	 width="48px" height="48px" viewBox="0 0 48 48" enable-background="new 0 0 48 48" xml:space="preserve">
<g>
	<g>
		
			<line fill="none" stroke="#000000" stroke-width="2" stroke-linecap="round" stroke-linejoin="round" stroke-miterlimit="10" x1="32.172" y1="32.337" x2="39.227" y2="39.392"/>
		
			<line fill="none" stroke="#000000" stroke-width="2" stroke-linecap="round" stroke-linejoin="round" stroke-miterlimit="10" x1="39.227" y1="32.337" x2="32.172" y2="39.392"/>
	</g>
	<g>
		<path fill="none" stroke="#000000" stroke-width="2" stroke-linecap="round" stroke-linejoin="round" stroke-miterlimit="10" d="
			M47,35.866C47,42.014,42.018,47,35.869,47c-6.149,0-11.135-4.986-11.135-11.134c0-6.148,4.985-11.139,11.135-11.139
			C42.018,24.727,47,29.718,47,35.866z"/>
		<path fill="none" stroke="#000000" stroke-width="2" stroke-linejoin="round" stroke-miterlimit="10" d="M41.021,1H6.982
			C3.696,1,1,3.635,1,6.855v22.606c0,3.222,2.695,5.854,5.982,5.854h2.05C8.124,38.392,7.87,42.993,12.111,47
			c0,0,2.19-7.093,6.163-11.685h6.518c0.294-5.889,5.113-10.588,11.077-10.588c4.829,0,8.901,3.1,10.442,7.398
			C46.734,31.323,47,30.42,47,29.462V6.855C47,3.635,44.313,1,41.021,1z"/>
	</g>
</g>
</svg>
