<?xml version="1.0" encoding="utf-8"?>
<!-- Generator: Adobe Illustrator 16.0.0, SVG Export Plug-In . SVG Version: 6.00 Build 0)  -->
<!DOCTYPE svg PUBLIC "-//W3C//DTD SVG 1.1//EN" "http://www.w3.org/Graphics/SVG/1.1/DTD/svg11.dtd">
<svg version="1.1" id="Layer_1" xmlns="http://www.w3.org/2000/svg" xmlns:xlink="http://www.w3.org/1999/xlink" x="0px" y="0px"
	 width="48px" height="48px" viewBox="0 0 48 48" enable-background="new 0 0 48 48" xml:space="preserve">
<g>
	
		<line fill="none" stroke="#000000" stroke-width="2" stroke-linecap="round" stroke-linejoin="round" stroke-miterlimit="10" x1="42.21" y1="26.739" x2="29.524" y2="44.987"/>
	<g>
		<path fill="none" stroke="#000000" stroke-width="2" stroke-linecap="round" stroke-linejoin="round" stroke-miterlimit="10" d="
			M47,35.864c0,6.148-4.984,11.135-11.129,11.135c-6.152,0-11.136-4.986-11.136-11.135c0-6.147,4.983-11.136,11.136-11.136
			C42.016,24.728,47,29.717,47,35.864z"/>
		<path fill="none" stroke="#000000" stroke-width="2" stroke-linejoin="round" stroke-miterlimit="10" d="M41.022,1.001H6.981
			C3.695,1.001,1,3.635,1,6.856v22.604c0,3.222,2.695,5.855,5.981,5.855h2.051c-0.903,3.074-1.161,7.676,3.08,11.683
			c0,0,2.191-7.094,6.163-11.683h6.517c0.294-5.89,5.117-10.588,11.08-10.588c4.826,0,8.897,3.099,10.44,7.396
			C46.738,31.323,47,30.419,47,29.461V6.856C47,3.635,44.314,1.001,41.022,1.001z"/>
	</g>
</g>
</svg>
