<?xml version="1.0" encoding="utf-8"?>
<!-- Generator: Adobe Illustrator 16.0.0, SVG Export Plug-In . SVG Version: 6.00 Build 0)  -->
<!DOCTYPE svg PUBLIC "-//W3C//DTD SVG 1.1//EN" "http://www.w3.org/Graphics/SVG/1.1/DTD/svg11.dtd">
<svg version="1.1" id="Layer_1" xmlns="http://www.w3.org/2000/svg" xmlns:xlink="http://www.w3.org/1999/xlink" x="0px" y="0px"
	 width="48px" height="48px" viewBox="0 0 48 48" enable-background="new 0 0 48 48" xml:space="preserve">
<g>
	
		<polygon fill="none" stroke="#000000" stroke-width="2" stroke-linecap="round" stroke-linejoin="round" stroke-miterlimit="10" points="
		29.832,33.098 41.901,33.098 35.869,42.464 	"/>
	<g>
		<path fill="none" stroke="#000000" stroke-width="2" stroke-linecap="round" stroke-linejoin="round" stroke-miterlimit="10" d="
			M47,35.865C47,42.013,42.012,47,35.867,47c-6.149,0-11.133-4.987-11.133-11.135s4.983-11.138,11.133-11.138
			C42.012,24.727,47,29.718,47,35.865z"/>
		<path fill="none" stroke="#000000" stroke-width="2" stroke-linejoin="round" stroke-miterlimit="10" d="M41.021,1H6.981
			C3.693,1,1,3.634,1,6.854v22.607c0,3.222,2.692,5.854,5.981,5.854h2.048C8.128,38.392,7.871,42.992,12.111,47
			c0,0,2.191-7.095,6.161-11.685h6.516c0.294-5.889,5.12-10.588,11.08-10.588c4.829,0,8.902,3.1,10.44,7.397
			C46.738,31.323,47,30.419,47,29.461V6.854C47,3.634,44.311,1,41.021,1z"/>
	</g>
</g>
</svg>
