<?xml version="1.0" encoding="utf-8"?>
<!-- Generator: Adobe Illustrator 16.0.0, SVG Export Plug-In . SVG Version: 6.00 Build 0)  -->
<!DOCTYPE svg PUBLIC "-//W3C//DTD SVG 1.1//EN" "http://www.w3.org/Graphics/SVG/1.1/DTD/svg11.dtd">
<svg version="1.1" id="Layer_1" xmlns="http://www.w3.org/2000/svg" xmlns:xlink="http://www.w3.org/1999/xlink" x="0px" y="0px"
	 width="48px" height="48px" viewBox="0 0 48 48" enable-background="new 0 0 48 48" xml:space="preserve">
<g>
	<polygon points="35.871,39.621 31.85,42.046 32.914,37.477 29.368,34.405 34.045,34.005 35.871,29.677 37.694,34.005 42.37,34.405 
		38.824,37.477 39.888,42.046 	"/>
	<g>
		<path fill="none" stroke="#000000" stroke-width="2" stroke-linecap="round" stroke-linejoin="round" stroke-miterlimit="10" d="
			M47,35.865C47,42.014,42.017,47,35.871,47c-6.151,0-11.135-4.986-11.135-11.135c0-6.147,4.983-11.138,11.135-11.138
			C42.017,24.727,47,29.718,47,35.865z"/>
		<path fill="none" stroke="#000000" stroke-width="2" stroke-linejoin="round" stroke-miterlimit="10" d="M41.026,1H6.986
			C3.698,1,1,3.635,1,6.856v22.606c0,3.221,2.698,5.854,5.986,5.854h2.045C8.126,38.392,7.871,42.992,12.109,47
			c0,0,2.195-7.094,6.166-11.684h6.518c0.293-5.89,5.113-10.589,11.079-10.589c4.829,0,8.901,3.1,10.438,7.398
			C46.739,31.324,47,30.42,47,29.462V6.856C47,3.635,44.311,1,41.026,1z"/>
	</g>
</g>
</svg>
