<?xml version="1.0" encoding="utf-8"?>
<!-- Generator: Adobe Illustrator 16.0.0, SVG Export Plug-In . SVG Version: 6.00 Build 0)  -->
<!DOCTYPE svg PUBLIC "-//W3C//DTD SVG 1.1//EN" "http://www.w3.org/Graphics/SVG/1.1/DTD/svg11.dtd">
<svg version="1.1" id="Layer_1" xmlns="http://www.w3.org/2000/svg" xmlns:xlink="http://www.w3.org/1999/xlink" x="0px" y="0px"
	 width="48px" height="48px" viewBox="0 0 48 48" enable-background="new 0 0 48 48" xml:space="preserve">
<g>
	<g>
		
			<line fill="none" stroke="#000000" stroke-width="2" stroke-linecap="round" stroke-linejoin="round" stroke-miterlimit="10" x1="35.86" y1="30.054" x2="35.86" y2="39.801"/>
		
			<polyline fill="none" stroke="#000000" stroke-width="2" stroke-linecap="round" stroke-linejoin="round" stroke-miterlimit="10" points="
			30.592,36.8 36.128,41.666 41.133,36.669 		"/>
	</g>
	<g>
		<path fill="none" stroke="#000000" stroke-width="2" stroke-linecap="round" stroke-linejoin="round" stroke-miterlimit="10" d="
			M47,35.869c0,6.145-4.985,11.13-11.136,11.13c-6.147,0-11.132-4.985-11.132-11.13c0-6.152,4.985-11.138,11.132-11.138
			C42.015,24.731,47,29.717,47,35.869z"/>
		<path fill="none" stroke="#000000" stroke-width="2" stroke-linejoin="round" stroke-miterlimit="10" d="M41.019,1.001H6.981
			C3.692,1.001,1,3.638,1,6.858v22.604c0,3.221,2.692,5.857,5.981,5.857H9.03c-0.901,3.075-1.159,7.672,3.081,11.68
			c0,0,2.189-7.095,6.159-11.68h6.518c0.294-5.891,5.118-10.588,11.077-10.588c4.828,0,8.903,3.096,10.443,7.396
			C46.734,31.323,47,30.423,47,29.462V6.858C47,3.638,44.308,1.001,41.019,1.001z"/>
	</g>
</g>
</svg>
