<?xml version="1.0" encoding="utf-8"?>
<!-- Generator: Adobe Illustrator 16.0.0, SVG Export Plug-In . SVG Version: 6.00 Build 0)  -->
<!DOCTYPE svg PUBLIC "-//W3C//DTD SVG 1.1//EN" "http://www.w3.org/Graphics/SVG/1.1/DTD/svg11.dtd">
<svg version="1.1" id="Layer_1" xmlns="http://www.w3.org/2000/svg" xmlns:xlink="http://www.w3.org/1999/xlink" x="0px" y="0px"
	 width="48px" height="48px" viewBox="0 0 48 48" enable-background="new 0 0 48 48" xml:space="preserve">
<g>
	<g>
		
			<line fill="none" stroke="#000000" stroke-width="2" stroke-linecap="round" stroke-linejoin="round" stroke-miterlimit="10" x1="35.867" y1="35.869" x2="35.867" y2="28.856"/>
		
			<line fill="none" stroke="#000000" stroke-width="2" stroke-linecap="round" stroke-linejoin="round" stroke-miterlimit="10" x1="35.848" y1="41.255" x2="35.848" y2="39.926"/>
	</g>
	<g>
		<path fill="none" stroke="#000000" stroke-width="2" stroke-linecap="round" stroke-linejoin="round" stroke-miterlimit="10" d="
			M47,35.869C47,42.014,42.014,47,35.867,47c-6.153,0-11.137-4.986-11.137-11.131c0-6.151,4.983-11.139,11.137-11.139
			C42.014,24.73,47,29.718,47,35.869z"/>
		<path fill="none" stroke="#000000" stroke-width="2" stroke-linejoin="round" stroke-miterlimit="10" d="M41.022,1H6.979
			C3.689,1,1,3.637,1,6.858v22.604c0,3.221,2.689,5.858,5.979,5.858h2.048C8.128,38.396,7.87,42.992,12.112,47
			c0,0,2.186-7.093,6.154-11.68h6.523c0.288-5.891,5.115-10.59,11.078-10.59c4.828,0,8.9,3.097,10.439,7.397
			C46.737,31.323,47,30.424,47,29.462V6.858C47,3.637,44.313,1,41.022,1z"/>
	</g>
</g>
</svg>
