<?xml version="1.0" encoding="utf-8"?>
<!-- Generator: Adobe Illustrator 16.0.0, SVG Export Plug-In . SVG Version: 6.00 Build 0)  -->
<!DOCTYPE svg PUBLIC "-//W3C//DTD SVG 1.1//EN" "http://www.w3.org/Graphics/SVG/1.1/DTD/svg11.dtd">
<svg version="1.1" id="Layer_1" xmlns="http://www.w3.org/2000/svg" xmlns:xlink="http://www.w3.org/1999/xlink" x="0px" y="0px"
	 width="48px" height="48px" viewBox="0 0 48 48" enable-background="new 0 0 48 48" xml:space="preserve">
<g>
	<path fill="none" stroke="#000000" stroke-width="2" stroke-linecap="round" stroke-linejoin="round" stroke-miterlimit="10" d="
		M47,21.712c0-5.462-4.432-9.887-9.892-9.887c-1.135,0-2.204,0.227-3.217,0.58c-1.301-4.102-5.095-7.097-9.633-7.097
		c-5.265,0-9.546,4.022-10.047,9.157c-1.243-0.633-2.635-1.032-4.125-1.032C5.068,13.432,1,17.502,1,22.523
		c0,4.567,3.386,8.312,7.786,8.948v0.098h0.953c0.116,0,0.227,0.032,0.348,0.032c0.119,0,0.227-0.032,0.343-0.032h26.331
		c0.116,0,0.229,0.032,0.348,0.032c0.116,0,0.227-0.032,0.349-0.032h0.438v-0.047C42.98,31.116,47,26.906,47,21.712z"/>
	
		<line fill="none" stroke="#000000" stroke-width="2" stroke-linecap="round" stroke-linejoin="round" stroke-miterlimit="10" x1="6.282" y1="42.692" x2="10.241" y2="35.188"/>
	
		<line fill="none" stroke="#000000" stroke-width="2" stroke-linecap="round" stroke-linejoin="round" stroke-miterlimit="10" x1="18.276" y1="42.692" x2="22.234" y2="35.188"/>
	
		<line fill="none" stroke="#000000" stroke-width="2" stroke-linecap="round" stroke-linejoin="round" stroke-miterlimit="10" x1="30.27" y1="42.692" x2="34.229" y2="35.188"/>
</g>
</svg>
