<?xml version="1.0" encoding="utf-8"?>
<!-- Generator: Adobe Illustrator 16.0.0, SVG Export Plug-In . SVG Version: 6.00 Build 0)  -->
<!DOCTYPE svg PUBLIC "-//W3C//DTD SVG 1.1//EN" "http://www.w3.org/Graphics/SVG/1.1/DTD/svg11.dtd">
<svg version="1.1" id="Layer_1" xmlns="http://www.w3.org/2000/svg" xmlns:xlink="http://www.w3.org/1999/xlink" x="0px" y="0px"
	 width="48px" height="48px" viewBox="0 0 48 48" enable-background="new 0 0 48 48" xml:space="preserve">
<g>
	
		<line fill="none" stroke="#000000" stroke-width="2" stroke-linecap="round" stroke-linejoin="round" stroke-miterlimit="10" x1="30.693" y1="35.887" x2="40.655" y2="35.887"/>
	<g>
		<path fill="none" stroke="#000000" stroke-width="2" stroke-linecap="round" stroke-linejoin="round" stroke-miterlimit="10" d="
			M46.792,35.887C46.792,42.023,41.812,47,35.68,47c-6.142,0-11.114-4.977-11.114-11.113c0-6.134,4.973-11.113,11.114-11.113
			C41.812,24.773,46.792,29.753,46.792,35.887z"/>
		<g>
			<path fill="none" stroke="#000000" stroke-width="2" stroke-linecap="round" stroke-linejoin="round" stroke-miterlimit="10" d="
				M39.182,7.428c0,3.551-8.501,6.428-18.991,6.428c-10.482,0-18.983-2.877-18.983-6.428C1.208,3.871,9.709,1,20.191,1
				C30.681,1,39.182,3.871,39.182,7.428z"/>
			<path fill="none" stroke="#000000" stroke-width="2" stroke-linecap="round" stroke-linejoin="round" stroke-miterlimit="10" d="
				M39.182,18.44c0,3.551-8.501,6.428-18.991,6.428c-10.482,0-18.983-2.877-18.983-6.428"/>
			<path fill="none" stroke="#000000" stroke-width="2" stroke-linecap="round" stroke-linejoin="round" stroke-miterlimit="10" d="
				M24.204,35.746c-1.299,0.095-2.637,0.141-4.013,0.141c-10.482,0-18.983-2.88-18.983-6.433"/>
			<path fill="none" stroke="#000000" stroke-width="2" stroke-linecap="round" stroke-linejoin="round" stroke-miterlimit="10" d="
				M39.182,25.341V7.428c0,3.551-8.501,6.428-18.991,6.428c-10.482,0-18.983-2.877-18.983-6.428v33.045
				c0,3.551,8.501,6.431,18.983,6.431c3.892,0,7.508-0.399,10.519-1.075"/>
		</g>
	</g>
</g>
</svg>
