<?xml version="1.0" encoding="utf-8"?>
<!-- Generator: Adobe Illustrator 16.0.0, SVG Export Plug-In . SVG Version: 6.00 Build 0)  -->
<!DOCTYPE svg PUBLIC "-//W3C//DTD SVG 1.1//EN" "http://www.w3.org/Graphics/SVG/1.1/DTD/svg11.dtd">
<svg version="1.1" id="Layer_1" xmlns="http://www.w3.org/2000/svg" xmlns:xlink="http://www.w3.org/1999/xlink" x="0px" y="0px"
	 width="48px" height="48px" viewBox="0 0 48 48" enable-background="new 0 0 48 48" xml:space="preserve">
<g>
	
		<polyline fill="none" stroke="#000000" stroke-width="2" stroke-linecap="round" stroke-linejoin="round" stroke-miterlimit="10" points="
		29.097,35.1 34.079,40.247 42.267,31.532 	"/>
	<g>
		<path fill="none" stroke="#000000" stroke-width="2" stroke-linecap="round" stroke-linejoin="round" stroke-miterlimit="10" d="
			M46.794,35.888C46.794,42.023,41.813,47,35.68,47c-6.138,0-11.11-4.977-11.11-11.112s4.973-11.114,11.11-11.114
			C41.813,24.773,46.794,29.752,46.794,35.888z"/>
		<g>
			<path fill="none" stroke="#000000" stroke-width="2" stroke-linecap="round" stroke-linejoin="round" stroke-miterlimit="10" d="
				M39.184,7.427c0,3.551-8.5,6.428-18.984,6.428c-10.485,0-18.993-2.877-18.993-6.428C1.207,3.871,9.714,1,20.2,1
				C30.684,1,39.184,3.871,39.184,7.427z"/>
			<path fill="none" stroke="#000000" stroke-width="2" stroke-linecap="round" stroke-linejoin="round" stroke-miterlimit="10" d="
				M39.184,18.441c0,3.551-8.5,6.427-18.984,6.427c-10.485,0-18.993-2.876-18.993-6.427"/>
			<path fill="none" stroke="#000000" stroke-width="2" stroke-linecap="round" stroke-linejoin="round" stroke-miterlimit="10" d="
				M24.204,35.746c-1.292,0.096-2.63,0.142-4.004,0.142c-10.485,0-18.993-2.881-18.993-6.434"/>
			<path fill="none" stroke="#000000" stroke-width="2" stroke-linecap="round" stroke-linejoin="round" stroke-miterlimit="10" d="
				M39.184,25.342V7.427c0,3.551-8.5,6.428-18.984,6.428c-10.485,0-18.993-2.877-18.993-6.428v33.046
				c0,3.55,8.508,6.431,18.993,6.431c3.891,0,7.504-0.4,10.514-1.076"/>
		</g>
	</g>
</g>
</svg>
