<?xml version="1.0" encoding="utf-8"?>
<!-- Generator: Adobe Illustrator 16.0.0, SVG Export Plug-In . SVG Version: 6.00 Build 0)  -->
<!DOCTYPE svg PUBLIC "-//W3C//DTD SVG 1.1//EN" "http://www.w3.org/Graphics/SVG/1.1/DTD/svg11.dtd">
<svg version="1.1" id="Layer_1" xmlns="http://www.w3.org/2000/svg" xmlns:xlink="http://www.w3.org/1999/xlink" x="0px" y="0px"
	 width="48px" height="48px" viewBox="0 0 48 48" enable-background="new 0 0 48 48" xml:space="preserve">
<g>
	
		<polyline fill="none" stroke="#000000" stroke-width="2" stroke-linecap="round" stroke-linejoin="round" stroke-miterlimit="10" points="
		35.677,29.454 35.677,36.711 40.253,39.134 	"/>
	<g>
		
			<circle fill="none" stroke="#000000" stroke-width="2" stroke-linecap="round" stroke-linejoin="round" stroke-miterlimit="10" cx="35.679" cy="35.889" r="11.112"/>
		<g>
			<path fill="none" stroke="#000000" stroke-width="2" stroke-linecap="round" stroke-linejoin="round" stroke-miterlimit="10" d="
				M39.181,7.427c0,3.551-8.496,6.428-18.985,6.428c-10.489,0-18.987-2.877-18.987-6.428C1.208,3.872,9.707,1,20.196,1
				C30.685,1,39.181,3.872,39.181,7.427z"/>
			<path fill="none" stroke="#000000" stroke-width="2" stroke-linecap="round" stroke-linejoin="round" stroke-miterlimit="10" d="
				M39.181,18.441c0,3.551-8.496,6.428-18.985,6.428c-10.489,0-18.987-2.877-18.987-6.428"/>
			<path fill="none" stroke="#000000" stroke-width="2" stroke-linecap="round" stroke-linejoin="round" stroke-miterlimit="10" d="
				M24.203,35.746c-1.295,0.097-2.634,0.143-4.007,0.143c-10.489,0-18.987-2.882-18.987-6.435"/>
			<path fill="none" stroke="#000000" stroke-width="2" stroke-linecap="round" stroke-linejoin="round" stroke-miterlimit="10" d="
				M39.181,25.342V7.427c0,3.551-8.496,6.428-18.985,6.428c-10.489,0-18.987-2.877-18.987-6.428v33.046
				c0,3.55,8.498,6.431,18.987,6.431c3.89,0,7.507-0.4,10.517-1.076"/>
		</g>
	</g>
</g>
</svg>
