<?xml version="1.0" encoding="utf-8"?>
<!-- Generator: Adobe Illustrator 16.0.0, SVG Export Plug-In . SVG Version: 6.00 Build 0)  -->
<!DOCTYPE svg PUBLIC "-//W3C//DTD SVG 1.1//EN" "http://www.w3.org/Graphics/SVG/1.1/DTD/svg11.dtd">
<svg version="1.1" id="Layer_1" xmlns="http://www.w3.org/2000/svg" xmlns:xlink="http://www.w3.org/1999/xlink" x="0px" y="0px"
	 width="48px" height="48px" viewBox="0 0 48 48" enable-background="new 0 0 48 48" xml:space="preserve">
<g>
	
		<polygon fill="none" stroke="#000000" stroke-width="2" stroke-linecap="round" stroke-linejoin="round" stroke-miterlimit="10" points="
		33.857,42.96 25.321,46.724 29.137,38.237 42.043,25.337 46.758,30.051 	"/>
	<g>
		<path fill="none" stroke="#000000" stroke-width="2" stroke-linecap="round" stroke-linejoin="round" stroke-miterlimit="10" d="
			M39.292,7.438c0,3.562-8.514,6.442-19.023,6.442c-10.506,0-19.026-2.881-19.026-6.442C1.242,3.878,9.763,1,20.269,1
			C30.778,1,39.292,3.878,39.292,7.438z"/>
		<path fill="none" stroke="#000000" stroke-width="2" stroke-linecap="round" stroke-linejoin="round" stroke-miterlimit="10" d="
			M39.292,18.477c0,3.559-8.514,6.442-19.023,6.442c-10.506,0-19.026-2.883-19.026-6.442"/>
		<path fill="none" stroke="#000000" stroke-width="2" stroke-linecap="round" stroke-linejoin="round" stroke-miterlimit="10" d="
			M24.284,35.815c-1.293,0.1-2.637,0.146-4.015,0.146c-10.506,0-19.026-2.891-19.026-6.447"/>
		<path fill="none" stroke="#000000" stroke-width="2" stroke-linecap="round" stroke-linejoin="round" stroke-miterlimit="10" d="
			M39.292,21.699V7.438c0,3.562-8.514,6.442-19.023,6.442c-10.506,0-19.026-2.881-19.026-6.442v33.115
			C1.242,44.113,9.763,47,20.269,47"/>
	</g>
</g>
</svg>
