<?xml version="1.0" encoding="utf-8"?>
<!-- Generator: Adobe Illustrator 16.0.0, SVG Export Plug-In . SVG Version: 6.00 Build 0)  -->
<!DOCTYPE svg PUBLIC "-//W3C//DTD SVG 1.1//EN" "http://www.w3.org/Graphics/SVG/1.1/DTD/svg11.dtd">
<svg version="1.1" id="Layer_1" xmlns="http://www.w3.org/2000/svg" xmlns:xlink="http://www.w3.org/1999/xlink" x="0px" y="0px"
	 width="48px" height="48px" viewBox="0 0 48 48" enable-background="new 0 0 48 48" xml:space="preserve">
<g>
	<g>
		<path fill="none" stroke="#000000" stroke-width="2" stroke-linecap="round" stroke-linejoin="round" stroke-miterlimit="10" d="
			M38.235,7.796c0,3.483-8.333,6.302-18.616,6.302C9.339,14.098,1,11.279,1,7.796c0-3.485,8.339-6.301,18.619-6.301
			C29.902,1.495,38.235,4.311,38.235,7.796z"/>
		<path fill="none" stroke="#000000" stroke-width="2" stroke-linecap="round" stroke-linejoin="round" stroke-miterlimit="10" d="
			M38.235,18.596c0,3.482-8.333,6.304-18.616,6.304C9.339,24.899,1,22.078,1,18.596"/>
		<path fill="none" stroke="#000000" stroke-width="2" stroke-linecap="round" stroke-linejoin="round" stroke-miterlimit="10" d="
			M21.99,35.648c-0.777,0.037-1.565,0.056-2.371,0.056C9.339,35.704,1,32.875,1,29.396"/>
		<path fill="none" stroke="#000000" stroke-width="2" stroke-linecap="round" stroke-linejoin="round" stroke-miterlimit="10" d="
			M38.235,25.362V7.796c0,3.483-8.333,6.302-18.616,6.302C9.339,14.098,1,11.279,1,7.796v32.4c0,3.484,8.339,6.309,18.619,6.309
			c3.817,0,7.359-0.393,10.313-1.054"/>
	</g>
	<g>
		<path fill="none" stroke="#000000" stroke-width="2" stroke-linecap="round" stroke-linejoin="round" stroke-miterlimit="10" d="
			M33.66,28.085l3.742,3.058c2.559,2.091,3.075,5.731,1.15,8.093c-1.923,2.358-5.591,2.575-8.144,0.481l-3.744-3.059"/>
		
			<line fill="none" stroke="#000000" stroke-width="2" stroke-linecap="round" stroke-linejoin="round" stroke-miterlimit="10" x1="38.553" y1="39.235" x2="47" y2="46.143"/>
	</g>
</g>
</svg>
