<?xml version="1.0" encoding="utf-8"?>
<!-- Generator: Adobe Illustrator 16.0.0, SVG Export Plug-In . SVG Version: 6.00 Build 0)  -->
<!DOCTYPE svg PUBLIC "-//W3C//DTD SVG 1.1//EN" "http://www.w3.org/Graphics/SVG/1.1/DTD/svg11.dtd">
<svg version="1.1" id="Layer_1" xmlns="http://www.w3.org/2000/svg" xmlns:xlink="http://www.w3.org/1999/xlink" x="0px" y="0px"
	 width="48px" height="48px" viewBox="0 0 48 48" enable-background="new 0 0 48 48" xml:space="preserve">
<g>
	<g>
		
			<line fill="none" stroke="#000000" stroke-width="2" stroke-linecap="round" stroke-linejoin="round" stroke-miterlimit="10" x1="20.472" y1="29.776" x2="27.528" y2="36.838"/>
		
			<line fill="none" stroke="#000000" stroke-width="2" stroke-linecap="round" stroke-linejoin="round" stroke-miterlimit="10" x1="27.528" y1="29.776" x2="20.472" y2="36.836"/>
	</g>
	<path fill="none" stroke="#000000" stroke-width="2" stroke-linecap="round" stroke-linejoin="round" stroke-miterlimit="10" d="
		M35.135,33.305c0,6.15-4.987,11.133-11.138,11.133c-6.147,0-11.13-4.982-11.13-11.133c0-6.146,4.983-11.128,11.13-11.128
		C30.147,22.177,35.135,27.159,35.135,33.305z"/>
	<path fill="none" stroke="#000000" stroke-width="2" stroke-linecap="round" stroke-linejoin="round" stroke-miterlimit="10" d="
		M37.111,10.082c-1.135,0-2.204,0.226-3.216,0.584c-1.3-4.113-5.099-7.104-9.633-7.104c-5.268,0-9.546,4.03-10.051,9.162
		c-1.243-0.635-2.631-1.027-4.126-1.027C5.066,11.697,1,15.762,1,20.772c0,4.571,3.39,8.32,7.784,8.955v0.096H9.74
		c0.115,0.007,0.228,0.037,0.344,0.037c0.122,0,0.231-0.03,0.345-0.037h3.046c1.466-4.433,5.598-7.646,10.521-7.646
		c4.923,0,9.055,3.214,10.524,7.646h2.239c0.121,0.007,0.232,0.037,0.351,0.037c0.116,0,0.227-0.03,0.349-0.037h0.438v-0.041
		C42.983,29.376,47,25.164,47,19.972C47,14.51,42.572,10.082,37.111,10.082z"/>
</g>
</svg>
