<?xml version="1.0" encoding="utf-8"?>
<!-- Generator: Adobe Illustrator 16.0.0, SVG Export Plug-In . SVG Version: 6.00 Build 0)  -->
<!DOCTYPE svg PUBLIC "-//W3C//DTD SVG 1.1//EN" "http://www.w3.org/Graphics/SVG/1.1/DTD/svg11.dtd">
<svg version="1.1" id="Layer_1" xmlns="http://www.w3.org/2000/svg" xmlns:xlink="http://www.w3.org/1999/xlink" x="0px" y="0px"
	 width="48px" height="48px" viewBox="0 0 48 48" enable-background="new 0 0 48 48" xml:space="preserve">
<g>
	
		<line fill="none" stroke="#000000" stroke-width="2" stroke-linecap="round" stroke-linejoin="round" stroke-miterlimit="10" x1="19.001" y1="33.305" x2="28.99" y2="33.305"/>
	<path fill="none" stroke="#000000" stroke-width="2" stroke-linecap="round" stroke-linejoin="round" stroke-miterlimit="10" d="
		M35.133,33.305c0,6.15-4.99,11.134-11.133,11.134c-6.152,0-11.135-4.983-11.135-11.134c0-6.146,4.982-11.129,11.135-11.129
		C30.143,22.176,35.133,27.158,35.133,33.305z"/>
	<path fill="none" stroke="#000000" stroke-width="2" stroke-linecap="round" stroke-linejoin="round" stroke-miterlimit="10" d="
		M37.108,10.08c-1.133,0-2.204,0.226-3.217,0.584c-1.3-4.112-5.095-7.103-9.631-7.103c-5.267,0-9.546,4.03-10.05,9.161
		c-1.245-0.636-2.635-1.027-4.124-1.027C5.066,11.695,1,15.761,1,20.772c0,4.572,3.385,8.32,7.784,8.955v0.096h0.956
		c0.114,0.009,0.225,0.037,0.347,0.037c0.119,0,0.227-0.028,0.342-0.037h3.046c1.468-4.433,5.597-7.646,10.525-7.646
		c4.923,0,9.052,3.214,10.521,7.646h2.24c0.116,0.009,0.23,0.037,0.347,0.037c0.118,0,0.229-0.028,0.351-0.037h0.438v-0.041
		C42.982,29.376,47,25.163,47,19.972C47,14.508,42.571,10.08,37.108,10.08z"/>
</g>
</svg>
