<?xml version="1.0" encoding="utf-8"?>
<!-- Generator: Adobe Illustrator 16.0.0, SVG Export Plug-In . SVG Version: 6.00 Build 0)  -->
<!DOCTYPE svg PUBLIC "-//W3C//DTD SVG 1.1//EN" "http://www.w3.org/Graphics/SVG/1.1/DTD/svg11.dtd">
<svg version="1.1" id="Layer_1" xmlns="http://www.w3.org/2000/svg" xmlns:xlink="http://www.w3.org/1999/xlink" x="0px" y="0px"
	 width="48px" height="48px" viewBox="0 0 48 48" enable-background="new 0 0 48 48" xml:space="preserve">
<g>
	<g>
		
			<line fill="none" stroke="#000000" stroke-width="2" stroke-linecap="round" stroke-linejoin="round" stroke-miterlimit="10" x1="19.008" y1="33.311" x2="28.992" y2="33.311"/>
		
			<line fill="none" stroke="#000000" stroke-width="2" stroke-linecap="round" stroke-linejoin="round" stroke-miterlimit="10" x1="23.998" y1="28.314" x2="23.998" y2="38.3"/>
	</g>
	<path fill="none" stroke="#000000" stroke-width="2" stroke-linecap="round" stroke-linejoin="round" stroke-miterlimit="10" d="
		M35.137,33.305c0,6.15-4.992,11.135-11.135,11.135c-6.151,0-11.134-4.984-11.134-11.135c0-6.146,4.983-11.128,11.134-11.128
		C30.145,22.177,35.137,27.159,35.137,33.305z"/>
	<path fill="none" stroke="#000000" stroke-width="2" stroke-linecap="round" stroke-linejoin="round" stroke-miterlimit="10" d="
		M37.11,10.081c-1.134,0-2.201,0.227-3.216,0.583c-1.299-4.112-5.096-7.103-9.636-7.103c-5.263,0-9.54,4.031-10.047,9.162
		c-1.242-0.635-2.633-1.027-4.123-1.027C5.067,11.695,1,15.761,1,20.772c0,4.571,3.389,8.32,7.786,8.955v0.096h0.953
		c0.121,0.007,0.229,0.037,0.35,0.037c0.118,0,0.227-0.03,0.342-0.037h3.048c1.466-4.433,5.596-7.646,10.523-7.646
		c4.922,0,9.052,3.214,10.522,7.646h2.234c0.121,0.007,0.234,0.037,0.352,0.037s0.23-0.03,0.351-0.037h0.438v-0.041
		C42.984,29.376,47,25.164,47,19.972C47,14.51,42.574,10.081,37.11,10.081z"/>
</g>
</svg>
