<?xml version="1.0" encoding="utf-8"?>
<!-- Generator: Adobe Illustrator 16.0.0, SVG Export Plug-In . SVG Version: 6.00 Build 0)  -->
<!DOCTYPE svg PUBLIC "-//W3C//DTD SVG 1.1//EN" "http://www.w3.org/Graphics/SVG/1.1/DTD/svg11.dtd">
<svg version="1.1" id="Layer_1" xmlns="http://www.w3.org/2000/svg" xmlns:xlink="http://www.w3.org/1999/xlink" x="0px" y="0px"
	 width="48px" height="48px" viewBox="0 0 48 48" enable-background="new 0 0 48 48" xml:space="preserve">
<g>
	
		<polyline fill="none" stroke="#000000" stroke-width="2" stroke-linecap="round" stroke-linejoin="round" stroke-miterlimit="10" points="
		17.403,32.512 22.393,37.678 30.598,28.937 	"/>
	<path fill="none" stroke="#000000" stroke-width="2" stroke-linecap="round" stroke-linejoin="round" stroke-miterlimit="10" d="
		M35.134,33.305c0,6.149-4.987,11.134-11.132,11.134c-6.152,0-11.136-4.984-11.136-11.134c0-6.146,4.984-11.129,11.136-11.129
		C30.146,22.176,35.134,27.158,35.134,33.305z"/>
	<path fill="none" stroke="#000000" stroke-width="2" stroke-linecap="round" stroke-linejoin="round" stroke-miterlimit="10" d="
		M37.111,10.081c-1.135,0-2.206,0.227-3.217,0.584c-1.299-4.112-5.096-7.103-9.631-7.103c-5.27,0-9.546,4.031-10.051,9.162
		c-1.247-0.635-2.634-1.028-4.125-1.028C5.067,11.695,1,15.761,1,20.773c0,4.571,3.388,8.319,7.785,8.954v0.097h0.954
		c0.116,0.008,0.229,0.036,0.348,0.036c0.121,0,0.229-0.028,0.346-0.036h3.044c1.465-4.434,5.595-7.647,10.525-7.647
		c4.924,0,9.052,3.214,10.521,7.647h2.237c0.121,0.008,0.229,0.036,0.351,0.036c0.118,0,0.229-0.028,0.348-0.036h0.442v-0.042
		C42.984,29.375,47,25.163,47,19.972C47,14.509,42.574,10.081,37.111,10.081z"/>
</g>
</svg>
