<?xml version="1.0" encoding="utf-8"?>
<!-- Generator: Adobe Illustrator 16.0.0, SVG Export Plug-In . SVG Version: 6.00 Build 0)  -->
<!DOCTYPE svg PUBLIC "-//W3C//DTD SVG 1.1//EN" "http://www.w3.org/Graphics/SVG/1.1/DTD/svg11.dtd">
<svg version="1.1" id="Layer_1" xmlns="http://www.w3.org/2000/svg" xmlns:xlink="http://www.w3.org/1999/xlink" x="0px" y="0px"
	 width="48px" height="48px" viewBox="0 0 48 48" enable-background="new 0 0 48 48" xml:space="preserve">
<g>
	
		<polygon fill="none" stroke="#000000" stroke-width="2" stroke-linecap="round" stroke-linejoin="round" stroke-miterlimit="10" points="
		17.968,28.627 30.037,28.627 24.004,37.989 	"/>
	<path fill="none" stroke="#000000" stroke-width="2" stroke-linecap="round" stroke-linejoin="round" stroke-miterlimit="10" d="
		M35.136,33.305c0,6.15-4.989,11.137-11.135,11.137c-6.15,0-11.134-4.986-11.134-11.137c0-6.146,4.984-11.13,11.134-11.13
		C30.146,22.175,35.136,27.159,35.136,33.305z"/>
	<path fill="none" stroke="#000000" stroke-width="2" stroke-linecap="round" stroke-linejoin="round" stroke-miterlimit="10" d="
		M37.112,10.083c-1.136,0-2.207,0.228-3.218,0.582c-1.298-4.109-5.097-7.105-9.637-7.105c-5.263,0-9.539,4.032-10.049,9.164
		c-1.239-0.633-2.629-1.03-4.122-1.03C5.068,11.692,1,15.761,1,20.773c0,4.571,3.383,8.322,7.783,8.954v0.096h0.956
		c0.114,0.008,0.229,0.04,0.348,0.04c0.118,0,0.227-0.032,0.342-0.04h3.05c1.463-4.432,5.594-7.647,10.522-7.647
		c4.923,0,9.05,3.216,10.524,7.647h2.232c0.123,0.008,0.235,0.04,0.354,0.04c0.11,0,0.23-0.032,0.348-0.04h0.438v-0.04
		C42.98,29.377,47,25.166,47,19.972C47,14.508,42.574,10.083,37.112,10.083z"/>
</g>
</svg>
