<?xml version="1.0" encoding="utf-8"?>
<!-- Generator: Adobe Illustrator 16.0.0, SVG Export Plug-In . SVG Version: 6.00 Build 0)  -->
<!DOCTYPE svg PUBLIC "-//W3C//DTD SVG 1.1//EN" "http://www.w3.org/Graphics/SVG/1.1/DTD/svg11.dtd">
<svg version="1.1" id="Layer_1" xmlns="http://www.w3.org/2000/svg" xmlns:xlink="http://www.w3.org/1999/xlink" x="0px" y="0px"
	 width="48px" height="48px" viewBox="0 0 48 48" enable-background="new 0 0 48 48" xml:space="preserve">
<g>
	<polygon points="23.997,37.064 19.98,39.49 21.042,34.92 17.498,31.849 22.174,31.444 23.997,27.122 25.825,31.444 30.501,31.849 
		26.954,34.92 28.018,39.49 	"/>
	<path fill="none" stroke="#000000" stroke-width="2" stroke-linecap="round" stroke-linejoin="round" stroke-miterlimit="10" d="
		M35.136,33.305c0,6.15-4.992,11.137-11.139,11.137c-6.148,0-11.13-4.986-11.13-11.137c0-6.146,4.982-11.13,11.13-11.13
		C30.144,22.175,35.136,27.159,35.136,33.305z"/>
	<path fill="none" stroke="#000000" stroke-width="2" stroke-linecap="round" stroke-linejoin="round" stroke-miterlimit="10" d="
		M37.111,10.082c-1.135,0-2.206,0.229-3.217,0.582c-1.298-4.108-5.098-7.105-9.633-7.105c-5.269,0-9.546,4.032-10.049,9.163
		c-1.247-0.632-2.634-1.028-4.125-1.028c-5.02,0-9.086,4.068-9.086,9.08c0,4.571,3.387,8.322,7.785,8.953v0.096h0.957
		c0.115,0.009,0.224,0.039,0.345,0.039c0.117,0,0.229-0.03,0.341-0.039h3.049c1.467-4.431,5.599-7.646,10.521-7.646
		c4.927,0,9.054,3.216,10.526,7.646h2.239c0.118,0.009,0.229,0.039,0.349,0.039c0.116,0,0.228-0.03,0.347-0.039h0.438V29.78
		C42.984,29.376,47,25.164,47,19.972C47,14.508,42.574,10.082,37.111,10.082z"/>
</g>
</svg>
