<?xml version="1.0" encoding="utf-8"?>
<!-- Generator: Adobe Illustrator 16.0.0, SVG Export Plug-In . SVG Version: 6.00 Build 0)  -->
<!DOCTYPE svg PUBLIC "-//W3C//DTD SVG 1.1//EN" "http://www.w3.org/Graphics/SVG/1.1/DTD/svg11.dtd">
<svg version="1.1" id="Layer_1" xmlns="http://www.w3.org/2000/svg" xmlns:xlink="http://www.w3.org/1999/xlink" x="0px" y="0px"
	 width="48px" height="48px" viewBox="0 0 48 48" enable-background="new 0 0 48 48" xml:space="preserve">
<g>
	<path fill="none" stroke="#000000" stroke-width="2" stroke-linecap="round" stroke-linejoin="round" stroke-miterlimit="10" d="
		M35.134,33.307c0,6.15-4.99,11.136-11.135,11.136c-6.154,0-11.138-4.985-11.138-11.136c0-6.146,4.983-11.131,11.138-11.131
		C30.144,22.176,35.134,27.161,35.134,33.307z"/>
	<g>
		
			<line fill="none" stroke="#000000" stroke-width="2" stroke-linecap="round" stroke-linejoin="round" stroke-miterlimit="10" x1="23.999" y1="39.116" x2="23.999" y2="29.372"/>
		
			<polyline fill="none" stroke="#000000" stroke-width="2" stroke-linecap="round" stroke-linejoin="round" stroke-miterlimit="10" points="
			29.269,32.374 23.733,27.501 18.727,32.509 		"/>
	</g>
	<path fill="none" stroke="#000000" stroke-width="2" stroke-linecap="round" stroke-linejoin="round" stroke-miterlimit="10" d="
		M37.112,10.082c-1.134,0-2.206,0.229-3.218,0.582c-1.303-4.108-5.099-7.105-9.635-7.105c-5.269,0-9.544,4.033-10.051,9.165
		c-1.241-0.633-2.633-1.03-4.124-1.03c-5.02,0-9.084,4.069-9.084,9.08c0,4.574,3.383,8.325,7.784,8.956v0.096h0.954
		c0.115,0.009,0.228,0.039,0.347,0.039s0.229-0.03,0.343-0.039h3.045c1.469-4.431,5.598-7.647,10.526-7.647
		c4.924,0,9.056,3.217,10.524,7.647h2.235c0.122,0.009,0.234,0.039,0.354,0.039c0.116,0,0.227-0.03,0.349-0.039h0.438v-0.041
		C42.984,29.378,47,25.167,47,19.972C47,14.509,42.574,10.082,37.112,10.082z"/>
</g>
</svg>
