<?xml version="1.0" encoding="utf-8"?>
<!-- Generator: Adobe Illustrator 16.0.0, SVG Export Plug-In . SVG Version: 6.00 Build 0)  -->
<!DOCTYPE svg PUBLIC "-//W3C//DTD SVG 1.1//EN" "http://www.w3.org/Graphics/SVG/1.1/DTD/svg11.dtd">
<svg version="1.1" id="Layer_1" xmlns="http://www.w3.org/2000/svg" xmlns:xlink="http://www.w3.org/1999/xlink" x="0px" y="0px"
	 width="48px" height="48px" viewBox="0 0 48 48" enable-background="new 0 0 48 48" xml:space="preserve">
<g>
	<g>
		<g>
			
				<circle fill="none" stroke="#000000" stroke-width="2" stroke-linecap="round" stroke-linejoin="round" stroke-miterlimit="10" cx="24" cy="38.388" r="8.546"/>
			<path fill="none" stroke="#000000" stroke-width="2" stroke-linecap="round" stroke-linejoin="round" stroke-miterlimit="10" d="
				M18.639,30.557V27.24c0-3.159,2.412-5.735,5.36-5.735c2.947,0,5.363,2.576,5.363,5.735v3.316"/>
		</g>
		<path d="M25.98,37.36c0-1.093-0.881-1.98-1.981-1.98c-1.098,0-1.983,0.888-1.983,1.98c0,0.906,0.616,1.64,1.438,1.878v3.608h1.087
			v-3.608C25.363,39,25.98,38.267,25.98,37.36z"/>
	</g>
	<path fill="none" stroke="#000000" stroke-width="2" stroke-linecap="round" stroke-linejoin="round" stroke-miterlimit="10" d="
		M34.523,27.33h2.235c0.118,0,0.232,0.029,0.353,0.029c0.114,0,0.227-0.029,0.348-0.029h0.436v-0.047
		C42.982,26.879,47,22.664,47,17.47c0-5.458-4.428-9.889-9.889-9.889c-1.138,0-2.205,0.231-3.218,0.583
		c-1.299-4.105-5.096-7.097-9.635-7.097c-5.265,0-9.543,4.021-10.053,9.16c-1.238-0.64-2.628-1.033-4.12-1.033
		C5.068,9.195,1,13.263,1,18.28c0,4.569,3.383,8.315,7.783,8.951v0.1h0.959c0.113,0,0.225,0.029,0.343,0.029
		s0.229-0.029,0.342-0.029h3.048"/>
</g>
</svg>
