<?xml version="1.0" encoding="utf-8"?>
<!-- Generator: Adobe Illustrator 16.0.0, SVG Export Plug-In . SVG Version: 6.00 Build 0)  -->
<!DOCTYPE svg PUBLIC "-//W3C//DTD SVG 1.1//EN" "http://www.w3.org/Graphics/SVG/1.1/DTD/svg11.dtd">
<svg version="1.1" id="Layer_1" xmlns="http://www.w3.org/2000/svg" xmlns:xlink="http://www.w3.org/1999/xlink" x="0px" y="0px"
	 width="48px" height="48px" viewBox="0 0 48 48" enable-background="new 0 0 48 48" xml:space="preserve">
<g>
	
		<polygon fill="none" stroke="#000000" stroke-width="2" stroke-linecap="round" stroke-linejoin="round" stroke-miterlimit="10" points="
		20.374,39.349 11.84,43.11 15.653,34.632 28.562,21.73 33.274,26.444 	"/>
	<path fill="none" stroke="#000000" stroke-width="2" stroke-linecap="round" stroke-linejoin="round" stroke-miterlimit="10" d="
		M34.524,31.15h2.237c0.119,0.009,0.229,0.037,0.352,0.037c0.116,0,0.229-0.028,0.344-0.037h0.445v-0.042
		C42.982,30.701,47,26.491,47,21.297c0-5.461-4.427-9.886-9.887-9.886c-1.136,0-2.202,0.226-3.218,0.578
		c-1.3-4.109-5.097-7.1-9.632-7.1c-5.271,0-9.547,4.028-10.051,9.163c-1.246-0.634-2.634-1.03-4.125-1.03
		c-5.02,0-9.088,4.066-9.088,9.08c0,4.573,3.388,8.318,7.784,8.953v0.096h0.958c0.116,0.009,0.228,0.037,0.347,0.037
		c0.118,0,0.227-0.028,0.345-0.037h3.043"/>
</g>
</svg>
