<?xml version="1.0" encoding="utf-8"?>
<!-- Generator: Adobe Illustrator 16.0.0, SVG Export Plug-In . SVG Version: 6.00 Build 0)  -->
<!DOCTYPE svg PUBLIC "-//W3C//DTD SVG 1.1//EN" "http://www.w3.org/Graphics/SVG/1.1/DTD/svg11.dtd">
<svg version="1.1" id="Layer_1" xmlns="http://www.w3.org/2000/svg" xmlns:xlink="http://www.w3.org/1999/xlink" x="0px" y="0px"
	 width="48px" height="48px" viewBox="0 0 48 48" enable-background="new 0 0 48 48" xml:space="preserve">
<g>
	<g>
		
			<line fill="none" stroke="#000000" stroke-width="2" stroke-linecap="round" stroke-linejoin="round" stroke-miterlimit="10" x1="32.423" y1="32.009" x2="39.353" y2="38.948"/>
		
			<line fill="none" stroke="#000000" stroke-width="2" stroke-linecap="round" stroke-linejoin="round" stroke-miterlimit="10" x1="39.353" y1="32.009" x2="32.423" y2="38.948"/>
	</g>
	<path fill="none" stroke="#000000" stroke-width="2" stroke-linecap="round" stroke-linejoin="round" stroke-miterlimit="10" d="
		M27.502,9.053c0,4.222-3.477,7.648-7.759,7.648s-7.759-3.426-7.759-7.648c0-4.229,3.477-7.652,7.759-7.652
		S27.502,4.824,27.502,9.053z"/>
	<path fill="none" stroke="#000000" stroke-width="2" stroke-linecap="round" stroke-linejoin="round" stroke-miterlimit="10" d="
		M47,35.479c0,6.142-4.978,11.12-11.112,11.12c-6.145,0-11.117-4.979-11.117-11.12c0-6.136,4.973-11.116,11.117-11.116
		C42.022,24.364,47,29.344,47,35.479z"/>
	<path fill="none" stroke="#000000" stroke-width="2" stroke-linecap="round" stroke-linejoin="round" stroke-miterlimit="10" d="
		M24.771,35.479c0-4.823,3.082-8.885,7.378-10.426c-3.309-2.882-7.642-4.651-12.406-4.651C9.39,20.403,1,28.684,1,38.896h24.358
		C25.006,37.812,24.771,36.676,24.771,35.479z"/>
</g>
</svg>
