<?xml version="1.0" encoding="utf-8"?>
<!-- Generator: Adobe Illustrator 16.0.0, SVG Export Plug-In . SVG Version: 6.00 Build 0)  -->
<!DOCTYPE svg PUBLIC "-//W3C//DTD SVG 1.1//EN" "http://www.w3.org/Graphics/SVG/1.1/DTD/svg11.dtd">
<svg version="1.1" id="Layer_1" xmlns="http://www.w3.org/2000/svg" xmlns:xlink="http://www.w3.org/1999/xlink" x="0px" y="0px"
	 width="48px" height="48px" viewBox="0 0 48 48" enable-background="new 0 0 48 48" xml:space="preserve">
<g>
	<g>
		
			<line fill="none" stroke="#000000" stroke-width="2" stroke-linecap="round" stroke-linejoin="round" stroke-miterlimit="10" x1="30.983" y1="35.481" x2="40.795" y2="35.481"/>
		
			<line fill="none" stroke="#000000" stroke-width="2" stroke-linecap="round" stroke-linejoin="round" stroke-miterlimit="10" x1="35.886" y1="30.579" x2="35.886" y2="40.384"/>
	</g>
	<path fill="none" stroke="#000000" stroke-width="2" stroke-linecap="round" stroke-linejoin="round" stroke-miterlimit="10" d="
		M27.506,9.053c0,4.223-3.478,7.647-7.759,7.647c-4.285,0-7.757-3.425-7.757-7.647c0-4.229,3.473-7.652,7.757-7.652
		C24.028,1.401,27.506,4.825,27.506,9.053z"/>
	<path fill="none" stroke="#000000" stroke-width="2" stroke-linecap="round" stroke-linejoin="round" stroke-miterlimit="10" d="
		M47,35.479c0,6.142-4.978,11.119-11.11,11.119c-6.147,0-11.119-4.978-11.119-11.119c0-6.136,4.972-11.114,11.119-11.114
		C42.022,24.365,47,29.344,47,35.479z"/>
	<path fill="none" stroke="#000000" stroke-width="2" stroke-linecap="round" stroke-linejoin="round" stroke-miterlimit="10" d="
		M24.771,35.479c0-4.823,3.086-8.885,7.379-10.426c-3.308-2.881-7.643-4.649-12.403-4.649C9.391,20.404,1,28.684,1,38.896h24.359
		C25.009,37.812,24.771,36.676,24.771,35.479z"/>
</g>
</svg>
