<?xml version="1.0" encoding="utf-8"?>
<!-- Generator: Adobe Illustrator 16.0.0, SVG Export Plug-In . SVG Version: 6.00 Build 0)  -->
<!DOCTYPE svg PUBLIC "-//W3C//DTD SVG 1.1//EN" "http://www.w3.org/Graphics/SVG/1.1/DTD/svg11.dtd">
<svg version="1.1" id="Layer_1" xmlns="http://www.w3.org/2000/svg" xmlns:xlink="http://www.w3.org/1999/xlink" x="0px" y="0px"
	 width="48px" height="48px" viewBox="0 0 48 48" enable-background="new 0 0 48 48" xml:space="preserve">
<g>
	<g>
		
			<line fill="none" stroke="#000000" stroke-width="2" stroke-linecap="round" stroke-linejoin="round" stroke-miterlimit="10" x1="35.889" y1="41.184" x2="35.889" y2="31.607"/>
		
			<polyline fill="none" stroke="#000000" stroke-width="2" stroke-linecap="round" stroke-linejoin="round" stroke-miterlimit="10" points="
			41.066,34.556 35.621,29.775 30.707,34.692 		"/>
	</g>
	<path fill="none" stroke="#000000" stroke-width="2" stroke-linecap="round" stroke-linejoin="round" stroke-miterlimit="10" d="
		M27.501,9.052c0,4.222-3.472,7.648-7.752,7.648c-4.289,0-7.759-3.426-7.759-7.648c0-4.225,3.471-7.648,7.759-7.648
		C24.029,1.404,27.501,4.827,27.501,9.052z"/>
	<path fill="none" stroke="#000000" stroke-width="2" stroke-linecap="round" stroke-linejoin="round" stroke-miterlimit="10" d="
		M47,35.48c0,6.139-4.981,11.115-11.111,11.115c-6.146,0-11.114-4.977-11.114-11.115c0-6.143,4.969-11.118,11.114-11.118
		C42.019,24.362,47,29.338,47,35.48z"/>
	<path fill="none" stroke="#000000" stroke-width="2" stroke-linecap="round" stroke-linejoin="round" stroke-miterlimit="10" d="
		M24.774,35.48c0-4.824,3.08-8.887,7.378-10.427c-3.313-2.883-7.646-4.652-12.404-4.652C9.39,20.402,1,28.683,1,38.896h24.356
		C25.006,37.809,24.774,36.677,24.774,35.48z"/>
</g>
</svg>
