<?xml version="1.0" encoding="utf-8"?>
<!-- Generator: Adobe Illustrator 16.0.0, SVG Export Plug-In . SVG Version: 6.00 Build 0)  -->
<!DOCTYPE svg PUBLIC "-//W3C//DTD SVG 1.1//EN" "http://www.w3.org/Graphics/SVG/1.1/DTD/svg11.dtd">
<svg version="1.1" id="Layer_1" xmlns="http://www.w3.org/2000/svg" xmlns:xlink="http://www.w3.org/1999/xlink" x="0px" y="0px"
	 width="48px" height="48px" viewBox="0 0 48 48" enable-background="new 0 0 48 48" xml:space="preserve">
<g>
	<g>
		
			<line fill="none" stroke="#000000" stroke-width="2" stroke-linecap="round" stroke-linejoin="round" stroke-miterlimit="10" x1="35.896" y1="36.273" x2="35.896" y2="29.391"/>
		
			<line fill="none" stroke="#000000" stroke-width="2" stroke-linecap="round" stroke-linejoin="round" stroke-miterlimit="10" x1="35.878" y1="41.566" x2="35.878" y2="40.256"/>
	</g>
	<path fill="none" stroke="#000000" stroke-width="2" stroke-linecap="round" stroke-linejoin="round" stroke-miterlimit="10" d="
		M27.505,9.053c0,4.221-3.478,7.647-7.756,7.647c-4.284,0-7.765-3.426-7.765-7.647c0-4.225,3.48-7.648,7.765-7.648
		C24.027,1.405,27.505,4.828,27.505,9.053z"/>
	<path fill="none" stroke="#000000" stroke-width="2" stroke-linecap="round" stroke-linejoin="round" stroke-miterlimit="10" d="
		M47,35.479c0,6.14-4.977,11.116-11.109,11.116c-6.148,0-11.116-4.977-11.116-11.116c0-6.142,4.968-11.117,11.116-11.117
		C42.023,24.363,47,29.338,47,35.479z"/>
	<path fill="none" stroke="#000000" stroke-width="2" stroke-linecap="round" stroke-linejoin="round" stroke-miterlimit="10" d="
		M24.774,35.479c0-4.823,3.082-8.887,7.379-10.426c-3.313-2.884-7.644-4.651-12.404-4.651C9.393,20.402,1,28.684,1,38.897h24.357
		C25.009,37.81,24.774,36.678,24.774,35.479z"/>
</g>
</svg>
