<?xml version="1.0" encoding="utf-8"?>
<!-- Generator: Adobe Illustrator 16.0.0, SVG Export Plug-In . SVG Version: 6.00 Build 0)  -->
<!DOCTYPE svg PUBLIC "-//W3C//DTD SVG 1.1//EN" "http://www.w3.org/Graphics/SVG/1.1/DTD/svg11.dtd">
<svg version="1.1" id="Layer_1" xmlns="http://www.w3.org/2000/svg" xmlns:xlink="http://www.w3.org/1999/xlink" x="0px" y="0px"
	 width="48px" height="48px" viewBox="0 0 48 48" enable-background="new 0 0 48 48" xml:space="preserve">
<g>
	
		<polyline fill="none" stroke="#000000" stroke-width="2" stroke-linecap="round" stroke-linejoin="round" stroke-miterlimit="10" points="
		36.696,29.932 36.696,37.072 41.198,39.461 	"/>
	<path fill="none" stroke="#000000" stroke-width="2" stroke-linecap="round" stroke-linejoin="round" stroke-miterlimit="10" d="
		M27.503,9.051c0,4.224-3.476,7.648-7.754,7.648c-4.285,0-7.764-3.425-7.764-7.648s3.479-7.647,7.764-7.647
		C24.027,1.404,27.503,4.827,27.503,9.051z"/>
	<path fill="none" stroke="#000000" stroke-width="2" stroke-linecap="round" stroke-linejoin="round" stroke-miterlimit="10" d="
		M47,35.479c0,6.138-4.976,11.116-11.111,11.116c-6.144,0-11.115-4.979-11.115-11.116c0-6.144,4.972-11.117,11.115-11.117
		C42.024,24.363,47,29.336,47,35.479z"/>
	<path fill="none" stroke="#000000" stroke-width="2" stroke-linecap="round" stroke-linejoin="round" stroke-miterlimit="10" d="
		M24.773,35.479c0-4.823,3.082-8.887,7.379-10.428c-3.312-2.881-7.645-4.65-12.404-4.65C9.39,20.402,1,28.682,1,38.896h24.356
		C25.008,37.81,24.773,36.678,24.773,35.479z"/>
</g>
</svg>
