<?xml version="1.0" encoding="utf-8"?>
<!-- Generator: Adobe Illustrator 16.0.0, SVG Export Plug-In . SVG Version: 6.00 Build 0)  -->
<!DOCTYPE svg PUBLIC "-//W3C//DTD SVG 1.1//EN" "http://www.w3.org/Graphics/SVG/1.1/DTD/svg11.dtd">
<svg version="1.1" id="Layer_1" xmlns="http://www.w3.org/2000/svg" xmlns:xlink="http://www.w3.org/1999/xlink" x="0px" y="0px"
	 width="48px" height="48px" viewBox="0 0 48 48" enable-background="new 0 0 48 48" xml:space="preserve">
<g>
	<path fill="none" stroke="#000000" stroke-width="2" stroke-linecap="round" stroke-linejoin="round" stroke-miterlimit="10" d="
		M26.883,9.231c0,4.125-3.393,7.467-7.573,7.467c-4.181,0-7.576-3.343-7.576-7.467c0-4.125,3.396-7.469,7.576-7.469
		C23.49,1.762,26.883,5.105,26.883,9.231z"/>
	<path fill="none" stroke="#000000" stroke-width="2" stroke-linecap="round" stroke-linejoin="round" stroke-miterlimit="10" d="
		M28.075,22.534c-2.606-1.411-5.587-2.221-8.766-2.221C9.194,20.313,1,28.4,1,38.373h20.603"/>
	<g>
		<path d="M41.312,44.94c-1.785,0.942-3.609,1.298-5.786,1.298c-5.335,0-9.849-3.899-9.849-10.143
			c0-6.694,4.647-12.478,11.865-12.478c5.654,0,9.458,3.964,9.458,9.39c0,4.879-2.729,7.737-5.783,7.737
			c-1.301,0-2.508-0.877-2.408-2.858h-0.131c-1.136,1.914-2.632,2.858-4.583,2.858c-1.886,0-3.511-1.523-3.511-4.092
			c0-4.034,3.183-7.702,7.702-7.702c1.4,0,2.636,0.287,3.479,0.677l-1.103,5.884c-0.489,2.472-0.098,3.605,0.971,3.64
			c1.662,0.036,3.513-2.179,3.513-5.945c0-4.715-2.83-8.096-7.866-8.096c-5.299,0-9.751,4.196-9.751,10.792
			c0,5.431,3.544,8.778,8.352,8.778c1.854,0,3.579-0.39,4.908-1.14L41.312,44.94z M39.526,30.896
			c-0.328-0.098-0.88-0.225-1.629-0.225c-2.859,0-5.171,2.696-5.171,5.852c0,1.43,0.719,2.47,2.147,2.47
			c1.887,0,3.611-2.408,3.967-4.424L39.526,30.896z"/>
	</g>
</g>
</svg>
