<?xml version="1.0" encoding="utf-8"?>
<!-- Generator: Adobe Illustrator 16.0.0, SVG Export Plug-In . SVG Version: 6.00 Build 0)  -->
<!DOCTYPE svg PUBLIC "-//W3C//DTD SVG 1.1//EN" "http://www.w3.org/Graphics/SVG/1.1/DTD/svg11.dtd">
<svg version="1.1" id="Layer_1" xmlns="http://www.w3.org/2000/svg" xmlns:xlink="http://www.w3.org/1999/xlink" x="0px" y="0px"
	 width="48px" height="48px" viewBox="0 0 48 48" enable-background="new 0 0 48 48" xml:space="preserve">
<g>
	<g>
		<path fill="none" stroke="#000000" stroke-width="2" stroke-linecap="round" stroke-linejoin="round" stroke-miterlimit="10" d="
			M31.051,7.956c0,3.838-3.159,6.955-7.052,6.955c-3.894,0-7.051-3.117-7.051-6.955C16.948,4.117,20.105,1,23.999,1
			C27.892,1,31.051,4.117,31.051,7.956z"/>
		<path fill="none" stroke="#000000" stroke-width="2" stroke-linecap="round" stroke-linejoin="round" stroke-miterlimit="10" d="
			M23.999,18.278c-9.41,0-17.037,7.518-17.037,16.797h34.076C41.038,25.796,33.408,18.278,23.999,18.278z"/>
	</g>
	<path fill="none" stroke="#000000" stroke-width="2" stroke-linecap="round" stroke-linejoin="round" stroke-miterlimit="10" d="
		M45.023,34.127c1.156,1.108,1.796,2.328,1.796,3.606c0,5.116-10.218,9.267-22.82,9.267C11.396,47,1.18,42.85,1.18,37.733
		c0-1.021,0.406-2.006,1.153-2.924"/>
</g>
</svg>
