<?xml version="1.0" encoding="utf-8"?>
<!-- Generator: Adobe Illustrator 16.0.0, SVG Export Plug-In . SVG Version: 6.00 Build 0)  -->
<!DOCTYPE svg PUBLIC "-//W3C//DTD SVG 1.1//EN" "http://www.w3.org/Graphics/SVG/1.1/DTD/svg11.dtd">
<svg version="1.1" id="Layer_1" xmlns="http://www.w3.org/2000/svg" xmlns:xlink="http://www.w3.org/1999/xlink" x="0px" y="0px"
	 width="48px" height="48px" viewBox="0 0 48 48" enable-background="new 0 0 48 48" xml:space="preserve">
<g>
	<g>
		<path fill="none" stroke="#000000" stroke-width="2" stroke-linecap="round" stroke-miterlimit="10" d="M35.803,20.289
			c1.624,2.755,2.579,6.104,2.579,9.714c0,9.389-6.44,16.997-14.385,16.997c-7.942,0-14.379-7.608-14.379-16.997
			c0-3.542,0.914-6.832,2.484-9.555"/>
		<path fill="none" stroke="#000000" stroke-width="2" stroke-miterlimit="10" d="M27.415,3.315c-1.88-3.086-4.953-3.086-6.832,0
			l-7.405,12.164c-1.875,3.083-0.455,5.614,3.162,5.614h15.318c3.613,0,5.037-2.525,3.156-5.614L27.415,3.315z"/>
		<g>
			<path fill="none" stroke="#000000" stroke-width="2" stroke-linecap="round" stroke-miterlimit="10" d="M10.581,23.245
				c0,0-7.158-4.322-6.853,1.417c0.307,5.735,2.927,9.507,5.943,10.712"/>
			<path fill="none" stroke="#000000" stroke-width="2" stroke-linecap="round" stroke-miterlimit="10" d="M37.419,23.245
				c0,0,7.156-4.322,6.854,1.417c-0.308,5.735-2.934,9.507-5.947,10.712"/>
		</g>
	</g>
	<g>
		<path d="M20.132,27.749c0,0.753-0.605,1.361-1.35,1.361c-0.755,0-1.362-0.608-1.362-1.361c0-0.749,0.606-1.356,1.362-1.356
			C19.526,26.393,20.132,27,20.132,27.749z"/>
		<path d="M30.576,27.749c0,0.753-0.603,1.361-1.351,1.361c-0.755,0-1.359-0.608-1.359-1.361c0-0.749,0.604-1.356,1.359-1.356
			C29.974,26.393,30.576,27,30.576,27.749z"/>
	</g>
	<path fill="none" stroke="#000000" stroke-width="2" stroke-linecap="round" stroke-miterlimit="10" d="M18.706,36.623
		c0,0,4.531,4.107,10.585,0"/>
</g>
</svg>
