<?xml version="1.0" encoding="utf-8"?>
<!-- Generator: Adobe Illustrator 16.0.0, SVG Export Plug-In . SVG Version: 6.00 Build 0)  -->
<!DOCTYPE svg PUBLIC "-//W3C//DTD SVG 1.1//EN" "http://www.w3.org/Graphics/SVG/1.1/DTD/svg11.dtd">
<svg version="1.1" id="Layer_1" xmlns="http://www.w3.org/2000/svg" xmlns:xlink="http://www.w3.org/1999/xlink" x="0px" y="0px"
	 width="48px" height="48px" viewBox="0 0 48 48" enable-background="new 0 0 48 48" xml:space="preserve">
<g>
	<path d="M22.268,8.321c0.015,0.661-0.528,1.204-1.218,1.222c-0.697,0.015-1.268-0.503-1.284-1.167
		c-0.015-0.659,0.532-1.206,1.225-1.224C21.684,7.139,22.256,7.658,22.268,8.321z"/>
	<path d="M27.326,8.205c0.019,0.66-0.521,1.206-1.212,1.221C25.42,9.442,24.843,8.92,24.821,8.26
		c-0.012-0.664,0.537-1.207,1.237-1.222C26.749,7.023,27.313,7.542,27.326,8.205z"/>
	<path d="M25.518,25.291c0.02,0.657-0.527,1.209-1.221,1.222c-0.7,0.015-1.271-0.507-1.286-1.166
		c-0.013-0.664,0.528-1.204,1.228-1.219C24.932,24.109,25.503,24.628,25.518,25.291z"/>
	<path d="M25.669,31.766c0.019,0.656-0.531,1.202-1.221,1.224c-0.7,0.013-1.274-0.504-1.287-1.167
		c-0.015-0.658,0.528-1.205,1.234-1.222C25.083,30.584,25.653,31.103,25.669,31.766z"/>
	<path d="M25.822,38.239c0.016,0.656-0.531,1.207-1.226,1.222c-0.698,0.015-1.27-0.503-1.282-1.168
		c-0.018-0.662,0.532-1.199,1.231-1.22C25.232,37.054,25.804,37.579,25.822,38.239z"/>
	<path fill="none" stroke="#000000" stroke-width="2" stroke-linecap="round" stroke-miterlimit="10" d="M32.392,9.282
		c0.11,4.681-3.604,8.564-8.3,8.671c-4.693,0.107-8.585-3.6-8.693-8.281c-0.108-4.678,3.606-8.562,8.3-8.67
		C28.392,0.892,32.281,4.601,32.392,9.282z"/>
	<path fill="none" stroke="#000000" stroke-width="2" stroke-linecap="round" stroke-miterlimit="10" d="M24.091,17.954
		C16.083,18.138,9.891,31.147,10.262,47l28.99-0.672C38.884,30.476,32.1,17.767,24.091,17.954z"/>
	<g>
		<path fill="none" stroke="#000000" stroke-width="2" stroke-linecap="round" stroke-miterlimit="10" d="M16.046,20.637
			c0,0-9.891-5.817-11.926-13.921c0,0-3.275-6.105-2.946,8.088c0.328,14.191,7.386,24.912,8.875,26.207"/>
		<path fill="none" stroke="#000000" stroke-width="2" stroke-linecap="round" stroke-miterlimit="10" d="M32.256,20.259
			c0,0,9.605-6.268,11.266-14.458c0,0,2.984-6.247,3.315,7.941c0.329,14.19-6.216,25.231-7.646,26.589"/>
	</g>
</g>
</svg>
