<?xml version="1.0" encoding="utf-8"?>
<!-- Generator: Adobe Illustrator 16.0.0, SVG Export Plug-In . SVG Version: 6.00 Build 0)  -->
<!DOCTYPE svg PUBLIC "-//W3C//DTD SVG 1.1//EN" "http://www.w3.org/Graphics/SVG/1.1/DTD/svg11.dtd">
<svg version="1.1" id="Layer_1" xmlns="http://www.w3.org/2000/svg" xmlns:xlink="http://www.w3.org/1999/xlink" x="0px" y="0px"
	 width="48px" height="48px" viewBox="0 0 48 48" enable-background="new 0 0 48 48" xml:space="preserve">
<g>
	<path fill="none" stroke="#000000" stroke-width="2" stroke-miterlimit="10" d="M18.266,20.983H4c-1.653,0-2.999-1.342-2.999-2.985
		V12.39c0-1.648,1.345-2.989,2.999-2.989h39.998c1.647,0,3.002,1.341,3.002,2.989v5.608c0,1.643-1.354,2.985-3.002,2.985H29.556"/>
	<path fill="none" stroke="#000000" stroke-width="2" stroke-miterlimit="10" d="M28.807,20.983h11.645
		c1.648,0,2.999,1.344,2.999,2.989V44.01c0,1.646-1.351,2.99-2.999,2.99H7.545c-1.651,0-3.002-1.345-3.002-2.99V23.973
		c0-1.645,1.351-2.989,3.002-2.989h11.561"/>
	
		<rect x="18.582" y="9.401" fill="none" stroke="#000000" stroke-width="2" stroke-miterlimit="10" width="10.832" height="37.599"/>
	<g>
		<path fill="none" stroke="#000000" stroke-width="2" stroke-miterlimit="10" d="M24.721,8.888
			c-0.217-1.65,3.205-9.979,8.832-7.396c1.595,0.733,2.046,2.601,2.03,4.038c-0.028,3.178-3.045,3.524-5.66,3.511
			c-1.079-0.003-2.127-0.013-3.172,0.31"/>
		<path fill="none" stroke="#000000" stroke-width="2" stroke-miterlimit="10" d="M23.276,8.888c0.22-1.65-3.202-9.979-8.832-7.396
			c-1.592,0.733-2.046,2.601-2.034,4.038c0.027,3.178,3.048,3.524,5.663,3.511c1.072-0.003,2.13-0.013,3.171,0.31"/>
	</g>
</g>
</svg>
