<?xml version="1.0" encoding="utf-8"?>
<!-- Generator: Adobe Illustrator 16.0.0, SVG Export Plug-In . SVG Version: 6.00 Build 0)  -->
<!DOCTYPE svg PUBLIC "-//W3C//DTD SVG 1.1//EN" "http://www.w3.org/Graphics/SVG/1.1/DTD/svg11.dtd">
<svg version="1.1" id="Layer_1" xmlns="http://www.w3.org/2000/svg" xmlns:xlink="http://www.w3.org/1999/xlink" x="0px" y="0px"
	 width="48px" height="48px" viewBox="0 0 48 48" enable-background="new 0 0 48 48" xml:space="preserve">
<g>
	<path fill="none" stroke="#000000" stroke-width="2" stroke-linejoin="round" stroke-miterlimit="10" d="M29.408,19.251
		l-5.222-5.222c0.41-3.423-0.695-6.993-3.321-9.621c-4.544-4.544-11.913-4.544-16.457,0c-4.543,4.544-4.543,11.912,0,16.456
		c2.628,2.628,6.198,3.732,9.621,3.322l5.222,5.222c2.805,2.806,7.353,2.806,10.158,0C32.214,26.604,32.214,22.057,29.408,19.251z"
		/>
	<path fill="none" stroke="#000000" stroke-width="2" stroke-linejoin="round" stroke-miterlimit="10" d="M14.321,24.478
		c-4.658,6.626-6.108,13.228-3.084,16.25c2.164,2.164,6.163,2.034,10.691,0.077c0.508,0.778,1.101,1.518,1.786,2.199
		c5.326,5.328,13.962,5.328,19.291,0c5.327-5.327,5.327-13.963,0-19.29c-0.684-0.684-1.421-1.279-2.199-1.786
		c1.957-4.53,2.086-8.528-0.078-10.691c-3.044-3.043-9.715-1.554-16.387,3.18 M25.981,40.735c-0.438-0.435-0.824-0.902-1.166-1.389
		c2.723-1.567,5.532-3.714,8.176-6.354c2.642-2.644,4.786-5.453,6.354-8.176c0.487,0.342,0.954,0.729,1.391,1.166
		c4.073,4.072,4.073,10.68,0,14.753C36.661,44.812,30.054,44.812,25.981,40.735z"/>
</g>
</svg>
