<?xml version="1.0" encoding="utf-8"?>
<!-- Generator: Adobe Illustrator 16.0.0, SVG Export Plug-In . SVG Version: 6.00 Build 0)  -->
<!DOCTYPE svg PUBLIC "-//W3C//DTD SVG 1.1//EN" "http://www.w3.org/Graphics/SVG/1.1/DTD/svg11.dtd">
<svg version="1.1" id="Layer_1" xmlns="http://www.w3.org/2000/svg" xmlns:xlink="http://www.w3.org/1999/xlink" x="0px" y="0px"
	 width="48px" height="48px" viewBox="0 0 48 48" enable-background="new 0 0 48 48" xml:space="preserve">
<g>
	<path fill="none" stroke="#000000" stroke-width="2" stroke-miterlimit="10" d="M40.049,7.526
		c9.099,8.866,9.29,23.426,0.424,32.524c-8.865,9.101-23.421,9.286-32.521,0.425c-9.098-8.862-9.292-23.426-0.424-32.526
		C16.391-1.147,30.952-1.339,40.049,7.526z"/>
	<path fill="none" stroke="#000000" stroke-width="2" stroke-miterlimit="10" d="M1.255,24.149c2.869-1.092,6.619,2.177,8.569,3.969
		c1.895,1.736,3.696,3.601,5.541,5.395c1.992,1.94,3.621,3.481,6.117,4.483c2.663,1.067,4.807,1.379,7.457,0.323
		c2.836-1.125,5.588-3.205,7.452-5.75c1.497-2.039,2.5-5.984,2.15-8.556c-0.693-5.107-5.249-8.752-8.44-12.433
		c-2.541-2.932-5.971-6.06-6.933-9.926"/>
</g>
</svg>
