<?xml version="1.0" encoding="utf-8"?>
<!-- Generator: Adobe Illustrator 16.0.0, SVG Export Plug-In . SVG Version: 6.00 Build 0)  -->
<!DOCTYPE svg PUBLIC "-//W3C//DTD SVG 1.1//EN" "http://www.w3.org/Graphics/SVG/1.1/DTD/svg11.dtd">
<svg version="1.1" id="Layer_1" xmlns="http://www.w3.org/2000/svg" xmlns:xlink="http://www.w3.org/1999/xlink" x="0px" y="0px"
	 width="48px" height="48px" viewBox="0 0 48 48" enable-background="new 0 0 48 48" xml:space="preserve">
<g>
	<path fill="none" stroke="#000000" stroke-width="2" stroke-miterlimit="10" d="M26.258,36.051C26.258,42.096,21.357,47,15.315,47
		c-6.05,0-10.949-4.904-10.949-10.949c0-6.048,4.898-10.946,10.949-10.946C21.357,25.104,26.258,30.003,26.258,36.051z"/>
	<g>
		<path fill="none" stroke="#000000" stroke-width="2" stroke-miterlimit="10" d="M34.999,42.467c-0.377,0-0.762-0.09-1.12-0.277
			c-1.191-0.623-1.646-2.091-1.023-3.279l4.834-9.217L28.59,27c-0.557-0.166-1.038-0.525-1.353-1.013
			c-1.746-2.712-6.166-5.954-8.623-7.575l-9.441,3.744c-0.811,0.315-1.726,0.186-2.401-0.355c-0.679-0.538-1.02-1.4-0.894-2.252
			L7.31,9.81c0.199-1.325,1.425-2.243,2.754-2.046c1.32,0.194,2.24,1.429,2.044,2.755l-0.821,5.58l6.688-2.652
			c0.711-0.282,1.515-0.217,2.167,0.186c0.305,0.191,7.308,4.511,10.633,8.952l11.123,3.292c0.693,0.207,1.265,0.716,1.543,1.38
			c0.283,0.674,0.25,1.436-0.088,2.072L37.15,41.164C36.722,41.995,35.875,42.467,34.999,42.467z"/>
	</g>
	<path fill="none" stroke="#000000" stroke-width="2" stroke-miterlimit="10" d="M22.575,4.91c0,2.163-1.753,3.912-3.917,3.912
		c-2.158,0-3.91-1.749-3.91-3.912c0-2.159,1.752-3.91,3.91-3.91C20.822,1,22.575,2.751,22.575,4.91z"/>
</g>
</svg>
