<?xml version="1.0" encoding="utf-8"?>
<!-- Generator: Adobe Illustrator 16.0.0, SVG Export Plug-In . SVG Version: 6.00 Build 0)  -->
<!DOCTYPE svg PUBLIC "-//W3C//DTD SVG 1.1//EN" "http://www.w3.org/Graphics/SVG/1.1/DTD/svg11.dtd">
<svg version="1.1" id="Layer_1" xmlns="http://www.w3.org/2000/svg" xmlns:xlink="http://www.w3.org/1999/xlink" x="0px" y="0px"
	 width="48px" height="48px" viewBox="0 0 48 48" enable-background="new 0 0 48 48" xml:space="preserve">
<g>
	<path fill="none" stroke="#000000" stroke-width="2" stroke-linecap="round" stroke-linejoin="round" stroke-miterlimit="10" d="
		M30.856,24c0,3.785-3.064,6.858-6.856,6.858c-3.787,0-6.858-3.073-6.858-6.858c0-3.791,3.071-6.858,6.858-6.858
		C27.792,17.142,30.856,20.209,30.856,24z"/>
	<g>
		<g>
			
				<line fill="none" stroke="#000000" stroke-width="2" stroke-linecap="round" stroke-linejoin="round" stroke-miterlimit="10" x1="24" y1="1" x2="24" y2="15.489"/>
			<g>
				
					<line fill="none" stroke="#000000" stroke-width="2" stroke-linecap="round" stroke-linejoin="round" stroke-miterlimit="10" x1="17.296" y1="2.456" x2="24" y2="8.528"/>
				
					<line fill="none" stroke="#000000" stroke-width="2" stroke-linecap="round" stroke-linejoin="round" stroke-miterlimit="10" x1="30.706" y1="2.456" x2="24" y2="8.528"/>
			</g>
		</g>
		<g>
			
				<line fill="none" stroke="#000000" stroke-width="2" stroke-linecap="round" stroke-linejoin="round" stroke-miterlimit="10" x1="24" y1="47" x2="24" y2="32.5"/>
			<g>
				
					<line fill="none" stroke="#000000" stroke-width="2" stroke-linecap="round" stroke-linejoin="round" stroke-miterlimit="10" x1="30.706" y1="45.54" x2="24" y2="39.47"/>
				
					<line fill="none" stroke="#000000" stroke-width="2" stroke-linecap="round" stroke-linejoin="round" stroke-miterlimit="10" x1="17.296" y1="45.54" x2="24" y2="39.47"/>
			</g>
		</g>
	</g>
	<g>
		<g>
			
				<line fill="none" stroke="#000000" stroke-width="2" stroke-linecap="round" stroke-linejoin="round" stroke-miterlimit="10" x1="46.998" y1="24" x2="32.511" y2="24"/>
			<g>
				
					<line fill="none" stroke="#000000" stroke-width="2" stroke-linecap="round" stroke-linejoin="round" stroke-miterlimit="10" x1="45.542" y1="17.292" x2="39.472" y2="24"/>
				
					<line fill="none" stroke="#000000" stroke-width="2" stroke-linecap="round" stroke-linejoin="round" stroke-miterlimit="10" x1="45.542" y1="30.705" x2="39.472" y2="24"/>
			</g>
		</g>
		<g>
			
				<line fill="none" stroke="#000000" stroke-width="2" stroke-linecap="round" stroke-linejoin="round" stroke-miterlimit="10" x1="1.001" y1="24" x2="15.495" y2="24"/>
			<g>
				
					<line fill="none" stroke="#000000" stroke-width="2" stroke-linecap="round" stroke-linejoin="round" stroke-miterlimit="10" x1="2.462" y1="30.705" x2="8.529" y2="24"/>
				
					<line fill="none" stroke="#000000" stroke-width="2" stroke-linecap="round" stroke-linejoin="round" stroke-miterlimit="10" x1="2.462" y1="17.292" x2="8.529" y2="24"/>
			</g>
		</g>
	</g>
</g>
</svg>
