<?xml version="1.0" encoding="utf-8"?>
<!-- Generator: Adobe Illustrator 16.0.0, SVG Export Plug-In . SVG Version: 6.00 Build 0)  -->
<!DOCTYPE svg PUBLIC "-//W3C//DTD SVG 1.1//EN" "http://www.w3.org/Graphics/SVG/1.1/DTD/svg11.dtd">
<svg version="1.1" id="Layer_1" xmlns="http://www.w3.org/2000/svg" xmlns:xlink="http://www.w3.org/1999/xlink" x="0px" y="0px"
	 width="48px" height="48px" viewBox="0 0 48 48" enable-background="new 0 0 48 48" xml:space="preserve">
<g>
	<g>
		<g>
			<path fill="none" stroke="#000000" stroke-width="2" stroke-linecap="round" stroke-linejoin="round" stroke-miterlimit="10" d="
				M28.052,29.295c0,2.152-1.753,3.902-3.908,3.902c-2.156,0-3.905-1.75-3.905-3.902c0-2.154,1.749-3.9,3.905-3.9
				C26.299,25.395,28.052,27.141,28.052,29.295z"/>
			<g>
				
					<path fill="none" stroke="#000000" stroke-width="2" stroke-linecap="round" stroke-linejoin="round" stroke-miterlimit="10" d="
					M21.081,32.638c-2.311,1.662-5.7,2.761-7.029,2.761c-2.113,0-3.827-2.734-3.827-6.104s1.713-6.102,3.827-6.102
					c1.418,0,5.161,1.241,7.454,3.081"/>
				
					<path fill="none" stroke="#000000" stroke-width="2" stroke-linecap="round" stroke-linejoin="round" stroke-miterlimit="10" d="
					M27.212,32.638c2.305,1.662,5.696,2.761,7.032,2.761c2.104,0,3.814-2.734,3.814-6.104s-1.711-6.102-3.814-6.102
					c-1.424,0-5.171,1.241-7.458,3.081"/>
			</g>
		</g>
		
			<polyline fill="none" stroke="#000000" stroke-width="2" stroke-linecap="round" stroke-linejoin="round" stroke-miterlimit="10" points="
			19.199,34.006 19.199,47 23.894,41.664 29.088,47 29.088,33.973 		"/>
	</g>
	<path fill="none" stroke="#000000" stroke-width="2" stroke-linecap="round" stroke-miterlimit="10" d="M38.092,27.498
		c1.838-2.712,2.903-5.984,2.903-9.509C40.995,8.606,33.385,1,24,1S7.004,8.606,7.004,17.989c0,3.514,1.063,6.775,2.893,9.485
		 M18.576,24.462c-1.847-1.554-3.015-3.873-3.015-6.474c0-4.658,3.779-8.438,8.439-8.438c4.66,0,8.438,3.781,8.438,8.438
		c0,2.592-1.157,4.903-2.99,6.447"/>
</g>
</svg>
