<?xml version="1.0" encoding="utf-8"?>
<!-- Generator: Adobe Illustrator 16.0.0, SVG Export Plug-In . SVG Version: 6.00 Build 0)  -->
<!DOCTYPE svg PUBLIC "-//W3C//DTD SVG 1.1//EN" "http://www.w3.org/Graphics/SVG/1.1/DTD/svg11.dtd">
<svg version="1.1" id="Layer_1" xmlns="http://www.w3.org/2000/svg" xmlns:xlink="http://www.w3.org/1999/xlink" x="0px" y="0px"
	 width="48px" height="48px" viewBox="0 0 48 48" enable-background="new 0 0 48 48" xml:space="preserve">
<g>
	<path fill="none" stroke="#000000" stroke-width="2" stroke-linecap="round" stroke-linejoin="round" stroke-miterlimit="10" d="
		M30.682,8.411c0,2.696-2.261,4.902-5.021,4.902H13.646c-2.76,0-5.018-2.207-5.018-4.902V5.9c0-2.693,2.257-4.9,5.018-4.9H25.66
		c2.761,0,5.021,2.207,5.021,4.9V8.411z"/>
	<path fill="none" stroke="#000000" stroke-width="2" stroke-linecap="round" stroke-linejoin="round" stroke-miterlimit="10" d="
		M26.61,13.22v14.767l9.915,7.893c0,0,5.449,3.957,1.268,8.843c-3.791,4.421-8.818,1.046-8.818,1.046L13.042,32.093V13.437"/>
	
		<line fill="none" stroke="#000000" stroke-width="2" stroke-linecap="round" stroke-linejoin="round" stroke-miterlimit="10" x1="26.208" y1="42.825" x2="35.15" y2="34.782"/>
	<path fill="none" stroke="#000000" stroke-width="2" stroke-linecap="round" stroke-linejoin="round" stroke-miterlimit="10" d="
		M13.476,23.038c0,0,7.517,1.757,5.13,13.827"/>
</g>
</svg>
