<?xml version="1.0" encoding="utf-8"?>
<!-- Generator: Adobe Illustrator 16.0.0, SVG Export Plug-In . SVG Version: 6.00 Build 0)  -->
<!DOCTYPE svg PUBLIC "-//W3C//DTD SVG 1.1//EN" "http://www.w3.org/Graphics/SVG/1.1/DTD/svg11.dtd">
<svg version="1.1" id="Layer_1" xmlns="http://www.w3.org/2000/svg" xmlns:xlink="http://www.w3.org/1999/xlink" x="0px" y="0px"
	 width="48px" height="48px" viewBox="0 0 48 48" enable-background="new 0 0 48 48" xml:space="preserve">
<g>
	<path fill="none" stroke="#000000" stroke-width="2" stroke-linecap="round" stroke-linejoin="round" stroke-miterlimit="10" d="
		M38.684,12.633h-10.3c1.383-1.22,2.271-2.987,2.271-4.979C30.654,3.981,27.676,1,23.997,1c-3.676,0-6.65,2.981-6.65,6.654
		c0,1.991,0.887,3.758,2.269,4.979H9.313c-2.604,0-4.714,2.107-4.714,4.709c0,2.607,2.109,4.717,4.714,4.717h7.056v5.504
		L9.795,40.097c-1.207,2.305-0.316,5.147,1.988,6.358c2.305,1.215,5.157,0.32,6.367-1.979l6.244-11.917l5.189,11.643
		C30.366,45.954,32.086,47,33.889,47c0.64,0,1.293-0.137,1.916-0.414c2.379-1.057,3.45-3.844,2.391-6.223l-6.57-14.733v-3.571h7.059
		c2.609,0,4.717-2.109,4.717-4.717C43.4,14.74,41.293,12.633,38.684,12.633z"/>
	
		<line fill="none" stroke="#000000" stroke-width="2" stroke-linecap="round" stroke-linejoin="round" stroke-miterlimit="10" x1="11.118" y1="39.126" x2="19.006" y2="42.837"/>
	
		<line fill="none" stroke="#000000" stroke-width="2" stroke-linecap="round" stroke-linejoin="round" stroke-miterlimit="10" x1="37.438" y1="39.126" x2="29.554" y2="42.837"/>
</g>
</svg>
