<?xml version="1.0" encoding="utf-8"?>
<!-- Generator: Adobe Illustrator 16.0.0, SVG Export Plug-In . SVG Version: 6.00 Build 0)  -->
<!DOCTYPE svg PUBLIC "-//W3C//DTD SVG 1.1//EN" "http://www.w3.org/Graphics/SVG/1.1/DTD/svg11.dtd">
<svg version="1.1" id="Layer_1" xmlns="http://www.w3.org/2000/svg" xmlns:xlink="http://www.w3.org/1999/xlink" x="0px" y="0px"
	 width="48px" height="48px" viewBox="0 0 48 48" enable-background="new 0 0 48 48" xml:space="preserve">
<g>
	<g>
		<path fill="none" stroke="#000000" stroke-width="2" stroke-miterlimit="10" d="M32.838,47c-1.871,0-3.393-1.521-3.393-3.396
			V13.439c0-3.117-2.438-5.655-5.443-5.655c-3.008,0-5.448,2.538-5.448,5.655c0,1.875-1.518,3.396-3.395,3.396
			c-1.872,0-3.398-1.52-3.398-3.396C11.762,6.582,17.254,1,24.002,1c6.746,0,12.235,5.582,12.235,12.439v30.165
			C36.237,45.479,34.716,47,32.838,47z"/>
	</g>
	
		<line fill="none" stroke="#000000" stroke-width="2" stroke-linecap="round" stroke-miterlimit="10" x1="27.964" y1="1.886" x2="12.545" y2="10.833"/>
	
		<line fill="none" stroke="#000000" stroke-width="2" stroke-linecap="round" stroke-miterlimit="10" x1="33.538" y1="5.881" x2="27.964" y2="9.108"/>
	
		<line fill="none" stroke="#000000" stroke-width="2" stroke-linecap="round" stroke-miterlimit="10" x1="35.717" y1="12.03" x2="30.143" y2="15.259"/>
	
		<line fill="none" stroke="#000000" stroke-width="2" stroke-linecap="round" stroke-miterlimit="10" x1="35.717" y1="19.972" x2="30.143" y2="23.208"/>
	
		<line fill="none" stroke="#000000" stroke-width="2" stroke-linecap="round" stroke-miterlimit="10" x1="35.335" y1="29.668" x2="29.76" y2="32.896"/>
	
		<line fill="none" stroke="#000000" stroke-width="2" stroke-linecap="round" stroke-miterlimit="10" x1="35.335" y1="38.845" x2="29.76" y2="42.073"/>
</g>
</svg>
