<?xml version="1.0" encoding="utf-8"?>
<!-- Generator: Adobe Illustrator 16.0.0, SVG Export Plug-In . SVG Version: 6.00 Build 0)  -->
<!DOCTYPE svg PUBLIC "-//W3C//DTD SVG 1.1//EN" "http://www.w3.org/Graphics/SVG/1.1/DTD/svg11.dtd">
<svg version="1.1" id="Layer_1" xmlns="http://www.w3.org/2000/svg" xmlns:xlink="http://www.w3.org/1999/xlink" x="0px" y="0px"
	 width="48px" height="48px" viewBox="0 0 48 48" enable-background="new 0 0 48 48" xml:space="preserve">
<g>
	<path fill="none" stroke="#000000" stroke-width="2" stroke-linecap="round" stroke-linejoin="round" stroke-miterlimit="10" d="
		M39.498,8.236c0,0-7.238,9.021-15.496,9.021c-8.262,0-15.5-9.021-15.5-9.021C-0.226,12.264,1.07,27.283,1.07,27.283
		c7.112-1.878,7.917,7.629,7.917,7.629c8.731-0.574,8.403,9.021,8.403,9.021C22.562,44.509,24.002,47,24.002,47
		s1.44-2.491,6.608-3.067c0,0-0.327-9.595,8.405-9.021c0,0,0.805-9.507,7.914-7.629C46.93,27.283,48.228,12.264,39.498,8.236z"/>
	<path fill="none" stroke="#000000" stroke-width="2" stroke-linecap="round" stroke-linejoin="round" stroke-miterlimit="10" d="
		M16.565,14.901c0-5.224,3.33-9.458,7.438-9.458c4.104,0,7.434,4.234,7.434,9.458"/>
	<g>
		
			<line fill="none" stroke="#000000" stroke-width="2" stroke-linecap="round" stroke-linejoin="round" stroke-miterlimit="10" x1="17.695" y1="1" x2="20.709" y2="6.256"/>
		
			<line fill="none" stroke="#000000" stroke-width="2" stroke-linecap="round" stroke-linejoin="round" stroke-miterlimit="10" x1="30.306" y1="1" x2="27.291" y2="6.256"/>
	</g>
</g>
</svg>
