<?xml version="1.0" encoding="utf-8"?>
<!-- Generator: Adobe Illustrator 16.0.0, SVG Export Plug-In . SVG Version: 6.00 Build 0)  -->
<!DOCTYPE svg PUBLIC "-//W3C//DTD SVG 1.1//EN" "http://www.w3.org/Graphics/SVG/1.1/DTD/svg11.dtd">
<svg version="1.1" id="Layer_1" xmlns="http://www.w3.org/2000/svg" xmlns:xlink="http://www.w3.org/1999/xlink" x="0px" y="0px"
	 width="48px" height="48px" viewBox="0 0 48 48" enable-background="new 0 0 48 48" xml:space="preserve">
<g>
	<g>
		<path fill="none" stroke="#000000" stroke-width="2" stroke-linejoin="round" stroke-miterlimit="10" d="M38.344,15.345
			c0,7.923-14.345,28.161-14.345,28.161S9.65,23.268,9.65,15.345C9.65,7.426,16.076,1,23.999,1S38.344,7.426,38.344,15.345z"/>
		<path fill="none" stroke="#000000" stroke-width="2" stroke-linejoin="round" stroke-miterlimit="10" d="M29.753,14.462
			c0,3.18-2.579,5.755-5.754,5.755c-3.178,0-5.755-2.575-5.755-5.755c0-3.177,2.577-5.752,5.755-5.752
			C27.174,8.71,29.753,11.285,29.753,14.462z"/>
	</g>
	<path fill="none" stroke="#000000" stroke-width="2" stroke-linejoin="round" stroke-miterlimit="10" d="M37.46,32.5
		c4.527,1.506,7.403,3.762,7.403,6.273C44.863,43.316,35.522,47,24,47c-11.521,0-20.863-3.684-20.863-8.227
		c0-2.54,2.923-4.813,7.522-6.315"/>
</g>
</svg>
