<?xml version="1.0" encoding="utf-8"?>
<!-- Generator: Adobe Illustrator 16.0.0, SVG Export Plug-In . SVG Version: 6.00 Build 0)  -->
<!DOCTYPE svg PUBLIC "-//W3C//DTD SVG 1.1//EN" "http://www.w3.org/Graphics/SVG/1.1/DTD/svg11.dtd">
<svg version="1.1" id="Layer_1" xmlns="http://www.w3.org/2000/svg" xmlns:xlink="http://www.w3.org/1999/xlink" x="0px" y="0px"
	 width="48px" height="48px" viewBox="0 0 48 48" enable-background="new 0 0 48 48" xml:space="preserve">
<g>
	
		<polygon fill="none" stroke="#000000" stroke-width="2" stroke-linecap="round" stroke-linejoin="round" stroke-miterlimit="10" points="
		31.672,8.315 16.335,1 1,8.315 1,47 16.335,39.682 31.672,47 47,39.682 47,1 	"/>
	<g>
		<g>
			
				<line fill="none" stroke="#000000" stroke-width="2" stroke-linecap="round" stroke-linejoin="round" stroke-miterlimit="10" x1="32.816" y1="14.72" x2="42.16" y2="24.063"/>
			
				<line fill="none" stroke="#000000" stroke-width="2" stroke-linecap="round" stroke-linejoin="round" stroke-miterlimit="10" x1="42.16" y1="14.72" x2="32.817" y2="24.063"/>
		</g>
		<g>
			<g>
				<path fill="none" stroke="#000000" stroke-width="2" stroke-linejoin="round" d="M5.867,33.271
					c-0.019-0.161-0.027-0.328-0.027-0.499"/>
				<path fill="none" stroke="#000000" stroke-width="2" stroke-linejoin="round" stroke-dasharray="1.0107,1.0107" d="
					M5.932,31.768c0.314-1.887,1.354-4.057,1.869-5.617c0.65-1.948,1.818-3.549,3.705-4.48c3.176-1.577,8.006-1.545,10.542,1.005
					c2.792,2.808,2.894,8.668,7.429,9.521c3.454,0.651,6.907-2.048,7.819-5.391"/>
				<path fill="none" stroke="#000000" stroke-width="2" stroke-linejoin="round" d="M37.412,26.309
					c0.031-0.164,0.058-0.329,0.076-0.495"/>
			</g>
		</g>
	</g>
</g>
</svg>
