<?xml version="1.0" encoding="utf-8"?>
<!-- Generator: Adobe Illustrator 16.0.0, SVG Export Plug-In . SVG Version: 6.00 Build 0)  -->
<!DOCTYPE svg PUBLIC "-//W3C//DTD SVG 1.1//EN" "http://www.w3.org/Graphics/SVG/1.1/DTD/svg11.dtd">
<svg version="1.1" id="Layer_1" xmlns="http://www.w3.org/2000/svg" xmlns:xlink="http://www.w3.org/1999/xlink" x="0px" y="0px"
	 width="48px" height="48px" viewBox="0 0 48 48" enable-background="new 0 0 48 48" xml:space="preserve">
<g>
	<path fill="none" stroke="#000000" stroke-width="2" stroke-linecap="round" stroke-linejoin="round" stroke-miterlimit="10" d="
		M11.834,36.157C23.279,47.603,39,50.437,46.946,42.491c0,0,1.063-1.058-6.241-8.361c-4.535-4.533-7.19-3.038-8.432-1.791
		l-0.047,0.039c-1.016,1.021-1.153,2.54-0.514,3.751c-4.742,0.835-10.335-0.945-14.617-5.221c-4.284-4.286-6.063-9.876-5.226-14.62
		c1.212,0.637,2.732,0.493,3.745-0.516l0.046-0.049c1.242-1.244,2.011-4.628-1.787-8.426C6.571-0.007,5.513,1.055,5.513,1.055
		C-2.44,9.002,0.396,24.721,11.834,36.157z"/>
	<g>
		
			<line fill="none" stroke="#000000" stroke-width="2" stroke-linecap="round" stroke-linejoin="round" stroke-miterlimit="10" x1="38.118" y1="9.696" x2="28.647" y2="19.166"/>
		
			<polyline fill="none" stroke="#000000" stroke-width="2" stroke-linecap="round" stroke-linejoin="round" stroke-miterlimit="10" points="
			29.15,9.324 40.159,7.439 38.494,18.664 		"/>
	</g>
</g>
</svg>
