<?xml version="1.0" encoding="utf-8"?>
<!-- Generator: Adobe Illustrator 16.0.0, SVG Export Plug-In . SVG Version: 6.00 Build 0)  -->
<!DOCTYPE svg PUBLIC "-//W3C//DTD SVG 1.1//EN" "http://www.w3.org/Graphics/SVG/1.1/DTD/svg11.dtd">
<svg version="1.1" id="Layer_1" xmlns="http://www.w3.org/2000/svg" xmlns:xlink="http://www.w3.org/1999/xlink" x="0px" y="0px"
	 width="48px" height="48px" viewBox="0 0 48 48" enable-background="new 0 0 48 48" xml:space="preserve">
<g>
	<path fill="none" stroke="#000000" stroke-width="2" stroke-linecap="round" stroke-linejoin="round" stroke-miterlimit="10" d="
		M11.836,36.157c11.442,11.443,27.16,14.279,35.111,6.332c0,0,1.058-1.058-6.245-8.361c-4.53-4.531-7.188-3.036-8.431-1.791
		l-0.047,0.041c-1.016,1.021-1.155,2.538-0.516,3.751c-4.741,0.833-10.331-0.945-14.615-5.221c-4.284-4.286-6.062-9.876-5.224-14.62
		c1.211,0.637,2.727,0.492,3.743-0.517l0.047-0.049c1.242-1.244,2.011-4.629-1.791-8.425c-7.3-7.304-8.36-6.242-8.36-6.242
		C-2.437,9.001,0.394,24.721,11.836,36.157z"/>
	<g>
		
			<line fill="none" stroke="#000000" stroke-width="2" stroke-linecap="round" stroke-linejoin="round" stroke-miterlimit="10" x1="30.793" y1="17.019" x2="40.263" y2="7.547"/>
		
			<polyline fill="none" stroke="#000000" stroke-width="2" stroke-linecap="round" stroke-linejoin="round" stroke-miterlimit="10" points="
			39.764,17.389 28.752,19.27 30.419,8.049 		"/>
	</g>
</g>
</svg>
