<?xml version="1.0" encoding="utf-8"?>
<!-- Generator: Adobe Illustrator 16.0.0, SVG Export Plug-In . SVG Version: 6.00 Build 0)  -->
<!DOCTYPE svg PUBLIC "-//W3C//DTD SVG 1.1//EN" "http://www.w3.org/Graphics/SVG/1.1/DTD/svg11.dtd">
<svg version="1.1" id="Layer_1" xmlns="http://www.w3.org/2000/svg" xmlns:xlink="http://www.w3.org/1999/xlink" x="0px" y="0px"
	 width="48px" height="48px" viewBox="0 0 48 48" enable-background="new 0 0 48 48" xml:space="preserve">
<g>
	<path fill="none" stroke="#000000" stroke-width="2" stroke-linecap="round" stroke-linejoin="round" stroke-miterlimit="10" d="
		M11.833,11.839C0.392,23.277-2.438,38.989,5.513,46.938c0,0,1.065,1.054,8.365-6.242c4.528-4.53,3.029-7.186,1.788-8.431
		l-0.045-0.041c-1.016-1.017-2.54-1.157-3.746-0.513c-0.838-4.745,0.934-10.334,5.214-14.619c4.285-4.273,9.881-6.056,14.619-5.216
		c-0.636,1.206-0.499,2.725,0.52,3.739l0.047,0.049c1.245,1.241,4.63,2.008,8.426-1.788c7.304-7.306,6.246-8.361,6.246-8.361
		C38.993-2.427,23.273,0.405,11.833,11.839z"/>
</g>
</svg>
