<?xml version="1.0" encoding="utf-8"?>
<!-- Generator: Adobe Illustrator 16.0.0, SVG Export Plug-In . SVG Version: 6.00 Build 0)  -->
<!DOCTYPE svg PUBLIC "-//W3C//DTD SVG 1.1//EN" "http://www.w3.org/Graphics/SVG/1.1/DTD/svg11.dtd">
<svg version="1.1" id="Layer_1" xmlns="http://www.w3.org/2000/svg" xmlns:xlink="http://www.w3.org/1999/xlink" x="0px" y="0px"
	 width="48px" height="48px" viewBox="0 0 48 48" enable-background="new 0 0 48 48" xml:space="preserve">
<g>
	<path fill="none" stroke="#000000" stroke-width="2" stroke-linecap="round" stroke-linejoin="round" stroke-miterlimit="10" d="
		M40.869,10.803h-6.907c-1.426-3.242-5.323-5.585-9.959-5.585c-4.64,0-8.537,2.344-9.965,5.585H7.133
		C3.758,10.803,1,13.564,1,16.939v19.709c0,3.377,2.758,6.134,6.133,6.134h33.736c3.372,0,6.131-2.757,6.131-6.134V16.939
		C47,13.564,44.241,10.803,40.869,10.803z"/>
	<path fill="none" stroke="#000000" stroke-width="2" stroke-linecap="round" stroke-linejoin="round" stroke-miterlimit="10" d="
		M34.303,26.569c0,5.688-4.611,10.302-10.3,10.302c-5.692,0-10.306-4.614-10.306-10.302c0-5.692,4.614-10.304,10.306-10.304
		C29.691,16.265,34.303,20.877,34.303,26.569z"/>
</g>
</svg>
