<?xml version="1.0" encoding="utf-8"?>
<!-- Generator: Adobe Illustrator 16.0.0, SVG Export Plug-In . SVG Version: 6.00 Build 0)  -->
<!DOCTYPE svg PUBLIC "-//W3C//DTD SVG 1.1//EN" "http://www.w3.org/Graphics/SVG/1.1/DTD/svg11.dtd">
<svg version="1.1" id="Layer_1" xmlns="http://www.w3.org/2000/svg" xmlns:xlink="http://www.w3.org/1999/xlink" x="0px" y="0px"
	 width="48px" height="48px" viewBox="0 0 48 48" enable-background="new 0 0 48 48" xml:space="preserve">
<g>
	<g>
		<path fill="none" stroke="#000000" stroke-width="2" stroke-linejoin="round" stroke-miterlimit="10" d="M47,42.871
			c0,1.1-0.9,2-2,2H3c-1.1,0-2-0.9-2-2V15.093c0-1.1,0.9-2,2-2h42c1.1,0,2,0.9,2,2V42.871z"/>
	</g>
	<path fill="none" stroke="#000000" stroke-width="2" stroke-linejoin="round" stroke-miterlimit="10" d="M41.283,28.979
		c0,4.053-3.289,7.34-7.344,7.34c-4.052,0-7.341-3.287-7.341-7.34c0-4.052,3.289-7.34,7.341-7.34
		C37.994,21.64,41.283,24.928,41.283,28.979z"/>
	<g>
		<path d="M12.703,23.039c0,0.895-0.724,1.621-1.617,1.621c-0.887,0-1.612-0.727-1.612-1.621c0-0.886,0.725-1.608,1.612-1.608
			C11.979,21.431,12.703,22.153,12.703,23.039z"/>
		<path d="M19.47,23.039c0,0.895-0.724,1.621-1.618,1.621c-0.887,0-1.613-0.727-1.613-1.621c0-0.886,0.726-1.608,1.613-1.608
			C18.746,21.431,19.47,22.153,19.47,23.039z"/>
		<path d="M12.703,28.978c0,0.896-0.724,1.617-1.617,1.617c-0.887,0-1.612-0.722-1.612-1.617c0-0.883,0.725-1.611,1.612-1.611
			C11.979,27.366,12.703,28.095,12.703,28.978z"/>
		<path d="M19.47,28.978c0,0.896-0.724,1.617-1.618,1.617c-0.887,0-1.613-0.722-1.613-1.617c0-0.883,0.726-1.611,1.613-1.611
			C18.746,27.366,19.47,28.095,19.47,28.978z"/>
		<path d="M12.703,34.913c0,0.891-0.724,1.617-1.617,1.617c-0.887,0-1.612-0.727-1.612-1.617c0-0.885,0.725-1.611,1.612-1.611
			C11.979,33.302,12.703,34.028,12.703,34.913z"/>
		<path d="M19.47,34.913c0,0.891-0.724,1.617-1.618,1.617c-0.887,0-1.613-0.727-1.613-1.617c0-0.885,0.726-1.611,1.613-1.611
			C18.746,33.302,19.47,34.028,19.47,34.913z"/>
	</g>
	
		<line fill="none" stroke="#000000" stroke-width="2" stroke-linecap="round" stroke-miterlimit="10" x1="11.086" y1="12.841" x2="35.428" y2="3.129"/>
</g>
</svg>
