<?xml version="1.0" encoding="utf-8"?>
<!-- Generator: Adobe Illustrator 16.0.0, SVG Export Plug-In . SVG Version: 6.00 Build 0)  -->
<!DOCTYPE svg PUBLIC "-//W3C//DTD SVG 1.1//EN" "http://www.w3.org/Graphics/SVG/1.1/DTD/svg11.dtd">
<svg version="1.1" id="Layer_1" xmlns="http://www.w3.org/2000/svg" xmlns:xlink="http://www.w3.org/1999/xlink" x="0px" y="0px"
	 width="48px" height="48px" viewBox="0 0 48 48" enable-background="new 0 0 48 48" xml:space="preserve">
<g>
	<g>
		<path fill="none" stroke="#000000" stroke-width="2" stroke-linecap="round" stroke-linejoin="round" stroke-miterlimit="10" d="
			M46.895,40.992c0,1.1-0.9,2-2,2H3.106c-1.1,0-2-0.9-2-2V3c0-1.1,0.9-2,2-2h41.789c1.1,0,2,0.9,2,2V40.992z"/>
	</g>
	<path fill="none" stroke="#000000" stroke-width="2" stroke-linecap="round" stroke-linejoin="round" stroke-miterlimit="10" d="
		M37.859,21.999c0,5.027-4.075,9.108-9.108,9.108c-5.032,0-9.107-4.081-9.107-9.108c0-5.037,4.076-9.111,9.107-9.111
		C33.784,12.888,37.859,16.962,37.859,21.999z"/>
	<path d="M31.576,21.999c0,1.559-1.264,2.83-2.825,2.83c-1.563,0-2.824-1.271-2.824-2.83c0-1.564,1.262-2.826,2.824-2.826
		C30.313,19.173,31.576,20.435,31.576,21.999z"/>
	<g>
		
			<line fill="none" stroke="#000000" stroke-width="2" stroke-linecap="round" stroke-linejoin="round" stroke-miterlimit="10" x1="8.595" y1="8.528" x2="8.595" y2="16.541"/>
		
			<line fill="none" stroke="#000000" stroke-width="2" stroke-linecap="round" stroke-linejoin="round" stroke-miterlimit="10" x1="8.595" y1="27.457" x2="8.595" y2="35.465"/>
	</g>
	<g>
		
			<line fill="none" stroke="#000000" stroke-width="2" stroke-linecap="round" stroke-linejoin="round" stroke-miterlimit="10" x1="8.926" y1="42.992" x2="8.926" y2="47"/>
		
			<line fill="none" stroke="#000000" stroke-width="2" stroke-linecap="round" stroke-linejoin="round" stroke-miterlimit="10" x1="39.077" y1="42.992" x2="39.077" y2="47"/>
	</g>
</g>
</svg>
