<?xml version="1.0" encoding="utf-8"?>
<!-- Generator: Adobe Illustrator 16.0.0, SVG Export Plug-In . SVG Version: 6.00 Build 0)  -->
<!DOCTYPE svg PUBLIC "-//W3C//DTD SVG 1.1//EN" "http://www.w3.org/Graphics/SVG/1.1/DTD/svg11.dtd">
<svg version="1.1" id="Layer_1" xmlns="http://www.w3.org/2000/svg" xmlns:xlink="http://www.w3.org/1999/xlink" x="0px" y="0px"
	 width="48px" height="48px" viewBox="0 0 48 48" enable-background="new 0 0 48 48" xml:space="preserve">
<g>
	<g>
		<path fill="none" stroke="#000000" stroke-width="2" stroke-linecap="round" stroke-linejoin="round" stroke-miterlimit="10" d="
			M40.133,30.863C40.133,39.777,32.909,47,24,47c-8.912,0-16.133-7.223-16.133-16.137c0-8.905,7.222-16.131,16.133-16.131
			C32.909,14.732,40.133,21.958,40.133,30.863z"/>
		<path fill="none" stroke="#000000" stroke-width="2" stroke-linecap="round" stroke-linejoin="round" stroke-miterlimit="10" d="
			M14.393,17.64V9.531C14.393,4.836,18.419,1,23.342,1h1.315c4.926,0,8.952,3.836,8.952,8.531v8.328"/>
	</g>
	<path d="M26.971,27.97c0-1.638-1.333-2.969-2.97-2.969c-1.641,0-2.97,1.331-2.97,2.969c0,1.331,0.883,2.409,2.082,2.791v5.967
		h1.773v-5.967C26.087,30.379,26.971,29.301,26.971,27.97z"/>
</g>
</svg>
