<?xml version="1.0" encoding="utf-8"?>
<!-- Generator: Adobe Illustrator 16.0.0, SVG Export Plug-In . SVG Version: 6.00 Build 0)  -->
<!DOCTYPE svg PUBLIC "-//W3C//DTD SVG 1.1//EN" "http://www.w3.org/Graphics/SVG/1.1/DTD/svg11.dtd">
<svg version="1.1" id="Layer_1" xmlns="http://www.w3.org/2000/svg" xmlns:xlink="http://www.w3.org/1999/xlink" x="0px" y="0px"
	 width="48px" height="48px" viewBox="0 0 48 48" enable-background="new 0 0 48 48" xml:space="preserve">
<g>
	<path fill="none" stroke="#000000" stroke-width="2" stroke-linecap="round" stroke-linejoin="round" stroke-miterlimit="10" d="
		M46.786,34.725c0,6.132-4.97,11.103-11.1,11.103c-6.134,0-11.102-4.971-11.102-11.103c0-6.129,4.968-11.094,11.102-11.094
		C41.816,23.63,46.786,28.596,46.786,34.725z"/>
	<path fill="none" stroke="#000000" stroke-width="2" stroke-linecap="round" stroke-linejoin="round" stroke-miterlimit="10" d="
		M43.462,26.572C45.592,23.028,47,19.727,47,17.366C47,8.322,40.654,1,32.834,1c-3.358,0-6.409,1.405-8.833,3.662
		C21.568,2.405,18.523,1,15.161,1C7.339,1,1,8.322,1,17.366c0,9.028,20.568,31.731,23.001,29.476
		c0.644,0.606,2.604-0.584,5.114-2.824"/>
	
		<line fill="none" stroke="#000000" stroke-width="2" stroke-linecap="round" stroke-linejoin="round" stroke-miterlimit="10" x1="31.551" y1="35.16" x2="39.819" y2="35.16"/>
	
		<line fill="none" stroke="#000000" stroke-width="2" stroke-linecap="round" stroke-linejoin="round" stroke-miterlimit="10" x1="35.687" y1="30.413" x2="35.687" y2="39.038"/>
</g>
</svg>
