<?xml version="1.0" encoding="utf-8"?>
<!-- Generator: Adobe Illustrator 16.0.0, SVG Export Plug-In . SVG Version: 6.00 Build 0)  -->
<!DOCTYPE svg PUBLIC "-//W3C//DTD SVG 1.1//EN" "http://www.w3.org/Graphics/SVG/1.1/DTD/svg11.dtd">
<svg version="1.1" id="Layer_1" xmlns="http://www.w3.org/2000/svg" xmlns:xlink="http://www.w3.org/1999/xlink" x="0px" y="0px"
	 width="48px" height="48px" viewBox="0 0 48 48" enable-background="new 0 0 48 48" xml:space="preserve">
<g>
	<path fill="none" stroke="#000000" stroke-width="2" stroke-linecap="round" stroke-linejoin="round" stroke-miterlimit="10" d="
		M46.789,34.725c0,6.132-4.976,11.103-11.1,11.103c-6.134,0-11.101-4.971-11.101-11.103c0-6.129,4.967-11.094,11.101-11.094
		C41.813,23.63,46.789,28.596,46.789,34.725z"/>
	<path fill="none" stroke="#000000" stroke-width="2" stroke-linecap="round" stroke-linejoin="round" stroke-miterlimit="10" d="
		M43.466,26.572C45.591,23.028,47,19.726,47,17.365C47,8.321,40.66,1,32.833,1C29.475,1,26.43,2.403,24,4.662
		C21.572,2.403,18.522,1,15.166,1C7.344,1,1,8.321,1,17.365c0,9.029,20.572,31.732,23,29.479c0.649,0.604,2.605-0.586,5.119-2.826"
		/>
	
		<line fill="none" stroke="#000000" stroke-width="2" stroke-linecap="round" stroke-linejoin="round" stroke-miterlimit="10" x1="31.557" y1="35.16" x2="39.822" y2="35.16"/>
</g>
</svg>
