<?xml version="1.0" encoding="utf-8"?>
<!-- Generator: Adobe Illustrator 16.0.0, SVG Export Plug-In . SVG Version: 6.00 Build 0)  -->
<!DOCTYPE svg PUBLIC "-//W3C//DTD SVG 1.1//EN" "http://www.w3.org/Graphics/SVG/1.1/DTD/svg11.dtd">
<svg version="1.1" id="Layer_1" xmlns="http://www.w3.org/2000/svg" xmlns:xlink="http://www.w3.org/1999/xlink" x="0px" y="0px"
	 width="48px" height="48px" viewBox="0 0 48 48" enable-background="new 0 0 48 48" xml:space="preserve">
<g>
	<path fill="none" stroke="#000000" stroke-width="2" stroke-linecap="round" stroke-linejoin="round" stroke-miterlimit="10" d="
		M1.278,36.625c0.737-2.14,1.29-3.536,2.763-5.572c5.094-7.071,15.087-10.775,23.522-10.775c8.183,0.002,19.547,0.964,19.437,11.402
		c-0.051,4.443-1.548,9.43-5.183,12.318c-3.669,2.92-9.355,3.438-13.987,3.268c-2.674-0.094-4.267-1.362-6.523-2.203
		c-2.415-0.896-5.079-0.184-7.556,0.059c-5,0.486-12.658-0.339-12.75-6.922L1.278,36.625z"/>
	
		<line fill="none" stroke="#000000" stroke-width="2" stroke-linecap="round" stroke-linejoin="round" stroke-miterlimit="10" x1="33.71" y1="0.705" x2="33.71" y2="30.981"/>
	
		<polyline fill="none" stroke="#000000" stroke-width="2" stroke-linecap="round" stroke-linejoin="round" stroke-miterlimit="10" points="
		33.71,1.397 20.126,6.229 33.71,10.491 	"/>
</g>
</svg>
