<?xml version="1.0" encoding="utf-8"?>
<!-- Generator: Adobe Illustrator 16.0.0, SVG Export Plug-In . SVG Version: 6.00 Build 0)  -->
<!DOCTYPE svg PUBLIC "-//W3C//DTD SVG 1.1//EN" "http://www.w3.org/Graphics/SVG/1.1/DTD/svg11.dtd">
<svg version="1.1" id="Layer_1" xmlns="http://www.w3.org/2000/svg" xmlns:xlink="http://www.w3.org/1999/xlink" x="0px" y="0px"
	 width="48px" height="48px" viewBox="0 0 48 48" enable-background="new 0 0 48 48" xml:space="preserve">
<g>
	<path fill="none" stroke="#000000" stroke-width="2" stroke-linejoin="round" stroke-miterlimit="10" d="M40.284,41.967
		c0,2.772-2.266,5.033-5.033,5.033H12.749c-2.768,0-5.033-2.261-5.033-5.033V6.029C7.716,3.263,9.981,1,12.749,1h22.502
		c2.768,0,5.033,2.263,5.033,5.029V41.967z"/>
	<path fill="none" stroke="#000000" stroke-width="2" stroke-linejoin="round" stroke-miterlimit="10" d="M28.355,14.789
		c-1.828,0-3.438,1.044-4.355,2.607c-0.92-1.563-2.524-2.607-4.355-2.607c-2.861,0-5.18,2.536-5.18,5.671
		c0,3.126,5.252,8.056,9.536,12.749c3.872-4.243,9.535-9.623,9.535-12.749C33.535,17.325,31.217,14.789,28.355,14.789z"/>
</g>
</svg>
