<?xml version="1.0" encoding="utf-8"?>
<!-- Generator: Adobe Illustrator 16.0.0, SVG Export Plug-In . SVG Version: 6.00 Build 0)  -->
<!DOCTYPE svg PUBLIC "-//W3C//DTD SVG 1.1//EN" "http://www.w3.org/Graphics/SVG/1.1/DTD/svg11.dtd">
<svg version="1.1" id="Layer_1" xmlns="http://www.w3.org/2000/svg" xmlns:xlink="http://www.w3.org/1999/xlink" x="0px" y="0px"
	 width="48px" height="48px" viewBox="0 0 48 48" enable-background="new 0 0 48 48" xml:space="preserve">
<g>
	<path fill="none" stroke="#000000" stroke-width="2" stroke-linejoin="round" stroke-miterlimit="10" d="M40.283,41.975
		c0,2.767-2.263,5.025-5.031,5.025H12.748c-2.77,0-5.031-2.259-5.031-5.025V6.033C7.717,3.265,9.978,1,12.748,1h22.504
		c2.769,0,5.031,2.265,5.031,5.033V41.975z"/>
	<g>
		<path fill="none" stroke="#000000" stroke-width="2" stroke-linejoin="round" stroke-miterlimit="10" d="M24,11.635
			c-4.162,7.448-10.538,7.448-10.538,12.754c0,3.126,2.559,5.667,5.722,5.667c2.021,0,3.797-1.042,4.816-2.612
			c1.02,1.57,2.79,2.612,4.815,2.612c3.164,0,5.723-2.541,5.723-5.667C34.538,19.59,28.126,18.71,24,11.635z"/>
		<path fill="none" stroke="#000000" stroke-width="2" stroke-linejoin="round" stroke-miterlimit="10" d="M24,30.802
			c-0.864,4.022-4.471,5.556-4.471,5.556H24h4.473C28.473,36.357,24.865,34.824,24,30.802z"/>
	</g>
</g>
</svg>
