<?xml version="1.0" encoding="utf-8"?>
<!-- Generator: Adobe Illustrator 16.0.0, SVG Export Plug-In . SVG Version: 6.00 Build 0)  -->
<!DOCTYPE svg PUBLIC "-//W3C//DTD SVG 1.1//EN" "http://www.w3.org/Graphics/SVG/1.1/DTD/svg11.dtd">
<svg version="1.1" id="Layer_1" xmlns="http://www.w3.org/2000/svg" xmlns:xlink="http://www.w3.org/1999/xlink" x="0px" y="0px"
	 width="48px" height="48px" viewBox="0 0 48 48" enable-background="new 0 0 48 48" xml:space="preserve">
<g>
	<path fill="none" stroke="#000000" stroke-width="2" stroke-linecap="round" stroke-linejoin="round" stroke-miterlimit="10" d="
		M41.353,17.546C41.353,8.448,34.794,1,26.769,1h-5.536C13.205,1,6.646,8.448,6.646,17.546V47l8.375-3.508L24.473,47l9.35-3.508
		L41.353,47V17.546z"/>
	<g>
		<path d="M20.168,16.921c0,1.198-0.97,2.175-2.178,2.175c-1.194,0-2.164-0.977-2.164-2.175c0-1.2,0.969-2.173,2.164-2.173
			C19.198,14.748,20.168,15.721,20.168,16.921z"/>
		<path d="M32.176,16.921c0,1.198-0.97,2.175-2.171,2.175c-1.194,0-2.172-0.977-2.172-2.175c0-1.2,0.978-2.173,2.172-2.173
			C31.206,14.748,32.176,15.721,32.176,16.921z"/>
	</g>
	<path fill="none" stroke="#000000" stroke-width="2" stroke-linecap="round" stroke-linejoin="round" stroke-miterlimit="10" d="
		M33.134,30.191c-10.311,14.233-18.27,0-18.27,0H33.134z"/>
</g>
</svg>
