<?xml version="1.0" encoding="utf-8"?>
<!-- Generator: Adobe Illustrator 16.0.0, SVG Export Plug-In . SVG Version: 6.00 Build 0)  -->
<!DOCTYPE svg PUBLIC "-//W3C//DTD SVG 1.1//EN" "http://www.w3.org/Graphics/SVG/1.1/DTD/svg11.dtd">
<svg version="1.1" id="Layer_1" xmlns="http://www.w3.org/2000/svg" xmlns:xlink="http://www.w3.org/1999/xlink" x="0px" y="0px"
	 width="48px" height="48px" viewBox="0 0 48 48" enable-background="new 0 0 48 48" xml:space="preserve">
<g>
	<g>
		<path d="M20.23,21.912c0,1.205-0.973,2.173-2.178,2.173c-1.197,0-2.167-0.968-2.167-2.173c0-1.198,0.97-2.171,2.167-2.171
			C19.258,19.741,20.23,20.714,20.23,21.912z"/>
		<path d="M32.238,21.912c0,1.205-0.973,2.173-2.17,2.173s-2.174-0.968-2.174-2.173c0-1.198,0.977-2.171,2.174-2.171
			S32.238,20.714,32.238,21.912z"/>
	</g>
	<path fill="none" stroke="#000000" stroke-width="2" stroke-linecap="round" stroke-linejoin="round" stroke-miterlimit="10" d="
		M36.569,11.874c-2.352,0-4.503,1.249-6.25,3.273c-1.748-2.025-3.897-3.273-6.251-3.273c-2.387,0-4.56,1.282-6.318,3.35
		c-1.76-2.068-3.931-3.35-6.314-3.35C5.671,11.874,1,19.044,1,27.885c0,8.848,4.671,16.015,10.436,16.015
		c2.383,0,4.554-1.282,6.314-3.354c1.759,2.072,3.932,3.354,6.318,3.354c2.354,0,4.503-1.245,6.251-3.268
		c1.747,2.022,3.898,3.268,6.25,3.268C42.33,43.899,47,36.732,47,27.885C47,19.044,42.33,11.874,36.569,11.874z"/>
	<path fill="none" stroke="#000000" stroke-width="2" stroke-linecap="round" stroke-linejoin="round" stroke-miterlimit="10" d="
		M24.003,10.702c0,0-1.533-4.228,3.227-6.602"/>
	<path fill="none" stroke="#000000" stroke-width="2" stroke-linecap="round" stroke-miterlimit="10" d="M15.139,33.44
		c-0.208-2.26,2.135-2.979,3.933-2.619c1.847,0.373,2.973,1.476,4.226,2.754c1.164,1.192,3.419,1.905,5.179,1.399
		c1.836-0.525,2.417-3.221,2.594-4.803"/>
</g>
</svg>
