<?xml version="1.0" encoding="utf-8"?>
<!-- Generator: Adobe Illustrator 16.0.0, SVG Export Plug-In . SVG Version: 6.00 Build 0)  -->
<!DOCTYPE svg PUBLIC "-//W3C//DTD SVG 1.1//EN" "http://www.w3.org/Graphics/SVG/1.1/DTD/svg11.dtd">
<svg version="1.1" id="Layer_1" xmlns="http://www.w3.org/2000/svg" xmlns:xlink="http://www.w3.org/1999/xlink" x="0px" y="0px"
	 width="48px" height="48px" viewBox="0 0 48 48" enable-background="new 0 0 48 48" xml:space="preserve">
<g>
	<g>
		<path d="M20.166,17.125c0,1.198-0.966,2.175-2.172,2.175c-1.199,0-2.168-0.977-2.168-2.175c0-1.2,0.97-2.175,2.168-2.175
			C19.199,14.95,20.166,15.925,20.166,17.125z"/>
		<path d="M32.177,17.125c0,1.198-0.968,2.175-2.168,2.175c-1.196,0-2.175-0.977-2.175-2.175c0-1.2,0.979-2.175,2.175-2.175
			C31.209,14.95,32.177,15.925,32.177,17.125z"/>
	</g>
	<path fill="none" stroke="#000000" stroke-width="2" stroke-linecap="round" stroke-linejoin="round" stroke-miterlimit="10" d="
		M41.719,18.714c0,9.79-7.935,28.286-17.72,28.286C14.213,47,6.281,28.504,6.281,18.714C6.281,8.931,14.213,1,23.999,1
		C33.784,1,41.719,8.931,41.719,18.714z"/>
	
		<line fill="none" stroke="#000000" stroke-width="2" stroke-linecap="round" stroke-miterlimit="10" x1="15.825" y1="32.64" x2="31.333" y2="32.64"/>
	
		<line fill="none" stroke="#000000" stroke-width="2" stroke-linecap="round" stroke-miterlimit="10" x1="17.997" y1="32.64" x2="20.166" y2="38.387"/>
	
		<line fill="none" stroke="#000000" stroke-width="2" stroke-linecap="round" stroke-miterlimit="10" x1="28.92" y1="32.64" x2="26.751" y2="38.387"/>
	
		<line fill="none" stroke="#000000" stroke-width="2" stroke-linecap="round" stroke-miterlimit="10" x1="12.082" y1="6.836" x2="36.275" y2="6.836"/>
</g>
</svg>
