<?xml version="1.0" encoding="utf-8"?>
<!-- Generator: Adobe Illustrator 16.0.0, SVG Export Plug-In . SVG Version: 6.00 Build 0)  -->
<!DOCTYPE svg PUBLIC "-//W3C//DTD SVG 1.1//EN" "http://www.w3.org/Graphics/SVG/1.1/DTD/svg11.dtd">
<svg version="1.1" id="Layer_1" xmlns="http://www.w3.org/2000/svg" xmlns:xlink="http://www.w3.org/1999/xlink" x="0px" y="0px"
	 width="48px" height="48px" viewBox="0 0 48 48" enable-background="new 0 0 48 48" xml:space="preserve">
<g>
	<path d="M20.164,14.083c0,1.196-0.972,2.166-2.173,2.166c-1.201,0-2.17-0.97-2.17-2.166c0-1.206,0.97-2.179,2.17-2.179
		C19.192,11.905,20.164,12.878,20.164,14.083z"/>
	<path d="M32.173,14.083c0,1.196-0.97,2.166-2.167,2.166c-1.195,0-2.174-0.97-2.174-2.166c0-1.206,0.979-2.179,2.174-2.179
		C31.203,11.905,32.173,12.878,32.173,14.083z"/>
	<path d="M25.746,21.829c0,1.198-0.97,2.175-2.165,2.175c-1.202,0-2.179-0.977-2.179-2.175c0-1.2,0.977-2.173,2.179-2.173
		C24.776,19.656,25.746,20.629,25.746,21.829z"/>
	<path fill="none" stroke="#000000" stroke-width="2" stroke-linecap="round" stroke-linejoin="round" stroke-miterlimit="10" d="
		M41.721,18.714c0,9.79-7.939,28.286-17.724,28.286C14.21,47,6.279,28.504,6.279,18.714C6.279,8.931,14.21,1,23.997,1
		C33.781,1,41.721,8.931,41.721,18.714z"/>
	
		<line fill="none" stroke="#000000" stroke-width="2" stroke-linecap="round" stroke-miterlimit="10" x1="16.212" y1="29.486" x2="31.66" y2="29.486"/>
	
		<line fill="none" stroke="#000000" stroke-width="2" stroke-linecap="round" stroke-miterlimit="10" x1="16.212" y1="35.165" x2="31.66" y2="35.165"/>
</g>
</svg>
