<?xml version="1.0" encoding="utf-8"?>
<!-- Generator: Adobe Illustrator 16.0.0, SVG Export Plug-In . SVG Version: 6.00 Build 0)  -->
<!DOCTYPE svg PUBLIC "-//W3C//DTD SVG 1.1//EN" "http://www.w3.org/Graphics/SVG/1.1/DTD/svg11.dtd">
<svg version="1.1" id="Layer_1" xmlns="http://www.w3.org/2000/svg" xmlns:xlink="http://www.w3.org/1999/xlink" x="0px" y="0px"
	 width="48px" height="48px" viewBox="0 0 48 48" enable-background="new 0 0 48 48" xml:space="preserve">
<g>
	<polyline fill="none" stroke="#000000" stroke-width="2" stroke-linecap="round" stroke-miterlimit="10" points="15.16,33.381 
		19.063,36.06 24.024,33.074 28.597,36.06 32.839,33.842 	"/>
	<path d="M20.167,24.002c0,1.196-0.973,2.169-2.175,2.169c-1.198,0-2.169-0.973-2.169-2.169c0-1.204,0.972-2.175,2.169-2.175
		C19.194,21.827,20.167,22.798,20.167,24.002z"/>
	<path d="M32.172,24.002c0,1.196-0.97,2.169-2.163,2.169c-1.202,0-2.176-0.973-2.176-2.169c0-1.204,0.974-2.175,2.176-2.175
		C31.202,21.827,32.172,22.798,32.172,24.002z"/>
	<path fill="none" stroke="#000000" stroke-width="2" stroke-miterlimit="10" d="M38.014,34.738C38.014,41.482,32.492,47,25.746,47
		h-3.492c-6.749,0-12.269-5.518-12.269-12.262V13.268C9.985,6.518,15.505,1,22.254,1h3.492c6.746,0,12.268,5.518,12.268,12.268
		V34.738z"/>
	<line fill="none" stroke="#000000" stroke-width="2" stroke-miterlimit="10" x1="11.288" y1="12.412" x2="36.711" y2="12.412"/>
	<g>
		
			<line fill="none" stroke="#000000" stroke-width="2" stroke-linecap="round" stroke-miterlimit="10" x1="18.604" y1="8" x2="18.604" y2="16.363"/>
		
			<line fill="none" stroke="#000000" stroke-width="2" stroke-linecap="round" stroke-miterlimit="10" x1="23.999" y1="8" x2="23.999" y2="16.363"/>
		
			<line fill="none" stroke="#000000" stroke-width="2" stroke-linecap="round" stroke-miterlimit="10" x1="29.396" y1="8" x2="29.396" y2="16.363"/>
	</g>
	
		<line fill="none" stroke="#000000" stroke-width="2" stroke-linecap="round" stroke-miterlimit="10" x1="4.197" y1="18.166" x2="9.985" y2="18.166"/>
	
		<line fill="none" stroke="#000000" stroke-width="2" stroke-linecap="round" stroke-miterlimit="10" x1="3.162" y1="12.18" x2="3.162" y2="23.225"/>
	<g>
		
			<line fill="none" stroke="#000000" stroke-width="2" stroke-linecap="round" stroke-miterlimit="10" x1="43.8" y1="18.166" x2="38.014" y2="18.166"/>
		
			<line fill="none" stroke="#000000" stroke-width="2" stroke-linecap="round" stroke-miterlimit="10" x1="44.838" y1="12.18" x2="44.838" y2="23.225"/>
	</g>
</g>
</svg>
