<?xml version="1.0" encoding="utf-8"?>
<!-- Generator: Adobe Illustrator 16.0.0, SVG Export Plug-In . SVG Version: 6.00 Build 0)  -->
<!DOCTYPE svg PUBLIC "-//W3C//DTD SVG 1.1//EN" "http://www.w3.org/Graphics/SVG/1.1/DTD/svg11.dtd">
<svg version="1.1" id="Layer_1" xmlns="http://www.w3.org/2000/svg" xmlns:xlink="http://www.w3.org/1999/xlink" x="0px" y="0px"
	 width="48px" height="48px" viewBox="0 0 48 48" enable-background="new 0 0 48 48" xml:space="preserve">
<g>
	<path fill="none" stroke="#000000" stroke-width="2" stroke-miterlimit="10" d="M47,44.34c0,1.464-1.065,2.66-2.369,2.66h-4.008
		c-1.303,0-2.37-1.196-2.37-2.66V21.66c0-1.463,1.067-2.66,2.37-2.66h4.008C45.935,19,47,20.197,47,21.66V44.34z"/>
	<path fill="none" stroke="#000000" stroke-width="2" stroke-miterlimit="10" d="M9.747,44.34c0,1.464-1.067,2.66-2.37,2.66H3.37
		C2.067,47,1,45.804,1,44.34V21.66C1,20.197,2.067,19,3.37,19h4.007c1.303,0,2.37,1.196,2.37,2.66V44.34z"/>
	<path fill="none" stroke="#000000" stroke-width="2" stroke-miterlimit="10" d="M3.592,19.092C3.592,9.101,12.766,1,24.081,1
		c11.317,0,20.49,8.101,20.49,18.092"/>
	<line fill="none" stroke="#000000" stroke-width="2" stroke-miterlimit="10" x1="9.747" y1="25.183" x2="38.253" y2="25.183"/>
	<line fill="none" stroke="#000000" stroke-width="2" stroke-miterlimit="10" x1="9.747" y1="34.093" x2="38.253" y2="34.093"/>
	<line fill="none" stroke="#000000" stroke-width="2" stroke-miterlimit="10" x1="9.747" y1="43.365" x2="38.253" y2="43.365"/>
</g>
</svg>
