<?xml version="1.0" encoding="utf-8"?>
<!-- Generator: Adobe Illustrator 16.0.0, SVG Export Plug-In . SVG Version: 6.00 Build 0)  -->
<!DOCTYPE svg PUBLIC "-//W3C//DTD SVG 1.1//EN" "http://www.w3.org/Graphics/SVG/1.1/DTD/svg11.dtd">
<svg version="1.1" id="Layer_1" xmlns="http://www.w3.org/2000/svg" xmlns:xlink="http://www.w3.org/1999/xlink" x="0px" y="0px"
	 width="48px" height="48px" viewBox="0 0 48 48" enable-background="new 0 0 48 48" xml:space="preserve">
<g>
	<path fill="none" stroke="#000000" stroke-width="2" stroke-linecap="round" stroke-linejoin="round" stroke-miterlimit="10" d="
		M36.491,43.316C32.894,45.646,28.607,47,23.999,47C11.295,47,1,36.7,1,24C1,11.298,11.295,1,23.999,1C36.704,1,47,11.298,47,24
		c0,4.275-1.168,8.284-3.203,11.715"/>
	<path fill="none" stroke="#000000" stroke-width="2" stroke-linecap="round" stroke-linejoin="round" stroke-miterlimit="10" d="
		M13.438,13.445c2.706-2.701,6.437-4.371,10.561-4.371c8.245,0,14.927,6.678,14.927,14.925c0,8.239-6.682,14.927-14.927,14.927
		c-8.241,0-14.925-6.688-14.925-14.927c0-0.507,0.024-0.994,0.067-1.48"/>
	<path fill="none" stroke="#000000" stroke-width="2" stroke-linecap="round" stroke-linejoin="round" stroke-miterlimit="10" d="
		M30.28,24c0,3.467-2.809,6.283-6.281,6.283c-3.471,0-6.283-2.816-6.283-6.283c0-3.474,2.812-6.289,6.283-6.289
		C27.472,17.711,30.28,20.526,30.28,24z"/>
	<path fill="none" stroke="#000000" stroke-width="2" stroke-linecap="round" stroke-linejoin="round" stroke-miterlimit="10" d="
		M15.758,17.415c0,2.673-2.167,4.84-4.846,4.84c-2.678,0-4.846-2.167-4.846-4.84c0-2.676,2.167-4.848,4.846-4.848
		C13.59,12.567,15.758,14.739,15.758,17.415z"/>
	<path fill="none" stroke="#000000" stroke-width="2" stroke-linecap="round" stroke-linejoin="round" stroke-miterlimit="10" d="
		M45.535,40.056c0,2.679-2.165,4.846-4.843,4.846c-2.677,0-4.845-2.167-4.845-4.846c0-2.671,2.168-4.842,4.845-4.842
		C43.37,35.214,45.535,37.385,45.535,40.056z"/>
</g>
</svg>
