<?xml version="1.0" encoding="utf-8"?>
<!-- Generator: Adobe Illustrator 16.0.0, SVG Export Plug-In . SVG Version: 6.00 Build 0)  -->
<!DOCTYPE svg PUBLIC "-//W3C//DTD SVG 1.1//EN" "http://www.w3.org/Graphics/SVG/1.1/DTD/svg11.dtd">
<svg version="1.1" id="Layer_1" xmlns="http://www.w3.org/2000/svg" xmlns:xlink="http://www.w3.org/1999/xlink" x="0px" y="0px"
	 width="48px" height="48px" viewBox="0 0 48 48" enable-background="new 0 0 48 48" xml:space="preserve">
<g>
	<path fill="none" stroke="#000000" stroke-width="2" stroke-linejoin="round" stroke-miterlimit="10" d="M21.621,4.1
		c-4.13-4.133-10.829-4.133-14.958,0c-4.125,4.131-4.125,10.826,0,14.955c2.176,2.173,5.063,3.191,7.91,3.077l-0.142,0.141
		l25.905,19.59l4.095-4.086L24.836,11.867l-0.135,0.141C24.812,9.163,23.794,6.276,21.621,4.1z"/>
	<path fill="none" stroke="#000000" stroke-width="2" stroke-miterlimit="10" d="M41.792,39.461c0.906,1.095,1.789,2.414,1.02,3.672
		c-2.761,4.551-10.714-1.666-11.98-2.444c-3.201-1.969-5.954-2.059-8.057-1.228c-3.221,1.28-5.947,3.978-6.476,7.539"/>
</g>
</svg>
