<?xml version="1.0" encoding="utf-8"?>
<!-- Generator: Adobe Illustrator 16.0.0, SVG Export Plug-In . SVG Version: 6.00 Build 0)  -->
<!DOCTYPE svg PUBLIC "-//W3C//DTD SVG 1.1//EN" "http://www.w3.org/Graphics/SVG/1.1/DTD/svg11.dtd">
<svg version="1.1" id="Layer_1" xmlns="http://www.w3.org/2000/svg" xmlns:xlink="http://www.w3.org/1999/xlink" x="0px" y="0px"
	 width="48px" height="48px" viewBox="0 0 48 48" enable-background="new 0 0 48 48" xml:space="preserve">
<g>
	<g>
		<g>
			<path fill="none" stroke="#000000" stroke-width="2" stroke-miterlimit="10" d="M32.888,47h7.111c3.85,0,7-3.15,7-7V8
				c0-3.85-3.15-7-7-7H8.001c-3.85,0-7,3.15-7,7v32c0,3.85,3.15,7,7,7h7.111"/>
		</g>
	</g>
	<g>
		<line fill="none" stroke="#000000" stroke-width="2" stroke-miterlimit="10" x1="23.999" y1="23.168" x2="23.999" y2="46.671"/>
		<polyline fill="none" stroke="#000000" stroke-width="2" stroke-miterlimit="10" points="16.357,39.03 23.999,46.671 
			31.642,39.03 		"/>
	</g>
	<line fill="none" stroke="#000000" stroke-width="2" stroke-miterlimit="10" x1="1.298" y1="12.204" x2="46.7" y2="12.204"/>
	<g>
		<line fill="none" stroke="#000000" stroke-width="2" stroke-miterlimit="10" x1="5.427" y1="7.435" x2="28.171" y2="7.435"/>
		<line fill="none" stroke="#000000" stroke-width="2" stroke-miterlimit="10" x1="32.044" y1="7.435" x2="36.018" y2="7.435"/>
		<line fill="none" stroke="#000000" stroke-width="2" stroke-miterlimit="10" x1="38.6" y1="7.435" x2="42.571" y2="7.435"/>
	</g>
</g>
</svg>
