<?xml version="1.0" encoding="utf-8"?>
<!-- Generator: Adobe Illustrator 16.0.0, SVG Export Plug-In . SVG Version: 6.00 Build 0)  -->
<!DOCTYPE svg PUBLIC "-//W3C//DTD SVG 1.1//EN" "http://www.w3.org/Graphics/SVG/1.1/DTD/svg11.dtd">
<svg version="1.1" id="Layer_1" xmlns="http://www.w3.org/2000/svg" xmlns:xlink="http://www.w3.org/1999/xlink" x="0px" y="0px"
	 width="48px" height="48px" viewBox="0 0 48 48" enable-background="new 0 0 48 48" xml:space="preserve">
<g>
	<path fill="none" stroke="#000000" stroke-width="2" stroke-miterlimit="10" d="M8.444,15.888C4.333,15.888,1,12.554,1,8.444
		C1,4.333,4.333,1,8.444,1s7.443,3.333,7.443,7.444"/>
	<path fill="none" stroke="#000000" stroke-width="2" stroke-miterlimit="10" d="M32.113,8.444C32.113,4.333,35.444,1,39.556,1
		S47,4.333,47,8.444c0,4.11-3.333,7.444-7.444,7.444"/>
	<line fill="none" stroke="#000000" stroke-width="2" stroke-miterlimit="10" x1="15.887" y1="8.36" x2="15.887" y2="39.633"/>
	<line fill="none" stroke="#000000" stroke-width="2" stroke-miterlimit="10" x1="39.664" y1="15.888" x2="8.336" y2="15.888"/>
	<path fill="none" stroke="#000000" stroke-width="2" stroke-miterlimit="10" d="M39.556,32.112c4.111,0,7.444,3.333,7.444,7.445
		C47,43.668,43.667,47,39.556,47s-7.442-3.332-7.442-7.442"/>
	<path fill="none" stroke="#000000" stroke-width="2" stroke-miterlimit="10" d="M15.887,39.558c0,4.11-3.332,7.442-7.443,7.442
		S1,43.668,1,39.558c0-4.112,3.333-7.445,7.444-7.445"/>
	<line fill="none" stroke="#000000" stroke-width="2" stroke-miterlimit="10" x1="32.113" y1="39.643" x2="32.113" y2="8.369"/>
	<line fill="none" stroke="#000000" stroke-width="2" stroke-miterlimit="10" x1="8.336" y1="32.112" x2="39.664" y2="32.112"/>
</g>
</svg>
