<?xml version="1.0" encoding="utf-8"?>
<!-- Generator: Adobe Illustrator 16.0.0, SVG Export Plug-In . SVG Version: 6.00 Build 0)  -->
<!DOCTYPE svg PUBLIC "-//W3C//DTD SVG 1.1//EN" "http://www.w3.org/Graphics/SVG/1.1/DTD/svg11.dtd">
<svg version="1.1" id="Layer_1" xmlns="http://www.w3.org/2000/svg" xmlns:xlink="http://www.w3.org/1999/xlink" x="0px" y="0px"
	 width="48px" height="48px" viewBox="0 0 48 48" enable-background="new 0 0 48 48" xml:space="preserve">
<g>
	<path fill="none" stroke="#000000" stroke-width="2" stroke-miterlimit="10" d="M29.75,12.998v27.111
		c0,3.394-2.588,6.169-5.75,6.169c-3.161,0-5.75-2.775-5.75-6.169V12.998"/>
	<path fill="none" stroke="#000000" stroke-width="2" stroke-miterlimit="10" d="M6.75,12.998v27.111
		c0,3.394-2.588,6.169-5.75,6.169"/>
	<path fill="none" stroke="#000000" stroke-width="2" stroke-miterlimit="10" d="M41.25,12.998v27.111
		c0,3.394,2.589,6.169,5.75,6.169"/>
	<path fill="none" stroke="#000000" stroke-width="2" stroke-miterlimit="10" d="M41.25,37.878V7.892c0-3.394-2.588-6.17-5.75-6.17
		c-3.161,0-5.75,2.776-5.75,6.17v29.986"/>
	<path fill="none" stroke="#000000" stroke-width="2" stroke-miterlimit="10" d="M18.25,37.878V7.892c0-3.394-2.588-6.17-5.75-6.17
		c-3.161,0-5.75,2.776-5.75,6.17v29.986"/>
</g>
</svg>
