<?xml version="1.0" encoding="utf-8"?>
<!-- Generator: Adobe Illustrator 16.0.0, SVG Export Plug-In . SVG Version: 6.00 Build 0)  -->
<!DOCTYPE svg PUBLIC "-//W3C//DTD SVG 1.1//EN" "http://www.w3.org/Graphics/SVG/1.1/DTD/svg11.dtd">
<svg version="1.1" id="Layer_1" xmlns="http://www.w3.org/2000/svg" xmlns:xlink="http://www.w3.org/1999/xlink" x="0px" y="0px"
	 width="48px" height="48px" viewBox="0 0 48 48" enable-background="new 0 0 48 48" xml:space="preserve">
<g>
	<g>
		<path fill="none" stroke="#000000" stroke-width="2" stroke-miterlimit="10" d="M47,40c0,3.85-3.15,7-7,7H8c-3.85,0-7-3.15-7-7V8
			c0-3.85,3.15-7,7-7h32c3.85,0,7,3.15,7,7V40z"/>
	</g>
	<g>
		<line fill="none" stroke="#000000" stroke-width="2" stroke-miterlimit="10" x1="11.859" y1="11.86" x2="28.479" y2="28.478"/>
		<polyline fill="none" stroke="#000000" stroke-width="2" stroke-miterlimit="10" points="17.671,28.478 28.479,28.478 
			28.479,17.671 		"/>
	</g>
	<path fill="none" stroke="#000000" stroke-width="2" stroke-miterlimit="10" d="M6.429,1c2.999,0,5.43,2.432,5.43,5.43
		c0,2.999-2.431,5.43-5.43,5.43S1,9.429,1,6.43"/>
</g>
</svg>
