<?xml version="1.0" encoding="utf-8"?>
<!-- Generator: Adobe Illustrator 16.0.0, SVG Export Plug-In . SVG Version: 6.00 Build 0)  -->
<!DOCTYPE svg PUBLIC "-//W3C//DTD SVG 1.1//EN" "http://www.w3.org/Graphics/SVG/1.1/DTD/svg11.dtd">
<svg version="1.1" id="Layer_1" xmlns="http://www.w3.org/2000/svg" xmlns:xlink="http://www.w3.org/1999/xlink" x="0px" y="0px"
	 width="48px" height="48px" viewBox="0 0 48 48" enable-background="new 0 0 48 48" xml:space="preserve">
<g>
	<path fill="none" stroke="#000000" stroke-width="2" stroke-miterlimit="10" d="M46.979,14.05c0,1.499,0,5.06,0,7.917v19.831
		c0,2.856-2.338,5.194-5.194,5.194H6.193C3.336,46.991,1,44.653,1,41.797V6.203c0-2.856,2.336-5.193,5.193-5.193h25.271"/>
	<path fill="none" stroke="#000000" stroke-width="2" stroke-linejoin="round" stroke-miterlimit="10" d="M14.649,25.709
		c-2.103,2.479,1.947-6.139,4.291-8.691c0.951-1.036,1.765-1.095,2.386-2.411c0.842-1.784,1.749-2.682,3.465-3.742
		c0.729-0.451,1.397-0.895,2.137-1.289c0.729-0.39,2.077-0.653,2.673-1.146c0.557-0.458,0.96-1.582,1.531-2.181
		c0.629-0.661,1.267-1.067,2.066-1.494c1.702-0.91,3.301-0.98,5.191-1.255c1.406-0.203,2.139-0.99,3.446-1.541
		c1.498-0.63,3.483-1.094,5.151-0.575c0.149,1.184-1.05,2.989-1.336,4.14c-0.321,1.278-0.518,2.737-1.595,3.653
		c3.515,0.967-1.396,3.332-2.827,4.014c-2.527,1.206-4.941,2.529-7.274,4.217c2.793,1.608-4.189,5.742-5.249,6.598
		c-0.406,0.33-1.504,1.082-1.723,1.516c-0.27,0.529,0.113,1.322-0.113,1.924c-0.497,1.325-2.119,1.802-3.288,2.154
		c-2.708,0.819-5.915,1.572-8.315,3.275c-1.983,1.409-2.867,3.988-4.912,5.398c-0.103,0.001-0.146,0.054-0.127,0.157
		c0,0,6.434-15.186,21.025-24.337C31.253,14.095,22.538,16.409,14.649,25.709z"/>
</g>
</svg>
