<?xml version="1.0" encoding="utf-8"?>
<!-- Generator: Adobe Illustrator 16.0.0, SVG Export Plug-In . SVG Version: 6.00 Build 0)  -->
<!DOCTYPE svg PUBLIC "-//W3C//DTD SVG 1.1//EN" "http://www.w3.org/Graphics/SVG/1.1/DTD/svg11.dtd">
<svg version="1.1" id="Layer_1" xmlns="http://www.w3.org/2000/svg" xmlns:xlink="http://www.w3.org/1999/xlink" x="0px" y="0px"
	 width="48px" height="48px" viewBox="0 0 48 48" enable-background="new 0 0 48 48" xml:space="preserve">
<g>
	<g>
		<path d="M40.278,21.642c2.757,0,5,2.243,5,5V40c0,2.757-2.243,5-5,5H7.722c-2.757,0-5-2.243-5-5V26.643c0-2.757,2.243-5,5-5
			H40.278 M40.278,19.642H7.722c-3.85,0-7,3.15-7,7V40c0,3.85,3.15,7,7,7h32.557c3.85,0,7-3.15,7-7V26.643
			C47.278,22.792,44.128,19.642,40.278,19.642L40.278,19.642z"/>
	</g>
	<circle fill="none" stroke="#000000" stroke-width="2" stroke-miterlimit="10" cx="24.001" cy="33.254" r="3.981"/>
	<line fill="none" stroke="#000000" stroke-width="2" stroke-miterlimit="10" x1="24" y1="37.567" x2="24" y2="41.715"/>
	<path fill="none" stroke="#000000" stroke-width="2" stroke-miterlimit="10" d="M7.792,20.249
		c-0.151-0.898-0.229-1.823-0.229-2.766C7.562,8.379,14.922,1,24,1c9.08,0,16.439,7.379,16.439,16.483
		c0,0.943-0.079,1.869-0.23,2.768"/>
</g>
</svg>
