<?xml version="1.0" encoding="utf-8"?>
<!-- Generator: Adobe Illustrator 16.0.0, SVG Export Plug-In . SVG Version: 6.00 Build 0)  -->
<!DOCTYPE svg PUBLIC "-//W3C//DTD SVG 1.1//EN" "http://www.w3.org/Graphics/SVG/1.1/DTD/svg11.dtd">
<svg version="1.1" id="Layer_1" xmlns="http://www.w3.org/2000/svg" xmlns:xlink="http://www.w3.org/1999/xlink" x="0px" y="0px"
	 width="48px" height="48px" viewBox="0 0 48 48" enable-background="new 0 0 48 48" xml:space="preserve">
<g>
	<g>
		<path d="M40,21.694c2.757,0,5,2.243,5,5v13.031c0,2.757-2.243,5-5,5H8c-2.757,0-5-2.243-5-5V26.693c0-2.757,2.243-5,5-5H40
			 M40,19.694H8c-3.85,0-7,3.15-7,7v13.031c0,3.85,3.15,7,7,7h32c3.85,0,7-3.15,7-7V26.693C47,22.844,43.85,19.694,40,19.694
			L40,19.694z"/>
	</g>
	<circle fill="none" stroke="#000000" stroke-width="2" stroke-miterlimit="10" cx="24" cy="33.144" r="3.934"/>
	<line fill="none" stroke="#000000" stroke-width="2" stroke-miterlimit="10" x1="24" y1="37.405" x2="24" y2="41.503"/>
	<path fill="none" stroke="#000000" stroke-width="2" stroke-miterlimit="10" d="M7.985,20.294c-0.15-0.887-0.228-1.802-0.228-2.733
		C7.758,8.565,15.03,1.275,24,1.275c4.485,0,8.546,1.821,11.484,4.769"/>
</g>
</svg>
