<?xml version="1.0" encoding="utf-8"?>
<!-- Generator: Adobe Illustrator 16.0.0, SVG Export Plug-In . SVG Version: 6.00 Build 0)  -->
<!DOCTYPE svg PUBLIC "-//W3C//DTD SVG 1.1//EN" "http://www.w3.org/Graphics/SVG/1.1/DTD/svg11.dtd">
<svg version="1.1" id="Layer_1" xmlns="http://www.w3.org/2000/svg" xmlns:xlink="http://www.w3.org/1999/xlink" x="0px" y="0px"
	 width="48px" height="48px" viewBox="0 0 48 48" enable-background="new 0 0 48 48" xml:space="preserve">
<g>
	<circle fill="none" stroke="#000000" stroke-width="2" stroke-miterlimit="10" cx="18.957" cy="23.772" r="17.957"/>
	<g>
		<circle fill="none" stroke="#000000" stroke-width="2" stroke-miterlimit="10" cx="18.956" cy="14.619" r="4.939"/>
		<path fill="none" stroke="#000000" stroke-width="2" stroke-miterlimit="10" d="M23.895,32.926c0,2.729-2.212,4.941-4.938,4.941
			c-2.727,0-4.939-2.213-4.939-4.941c0-2.726,2.212-4.937,4.939-4.937C21.683,27.989,23.895,30.2,23.895,32.926z"/>
	</g>
	<g>
		<circle fill="none" stroke="#000000" stroke-width="2" stroke-miterlimit="10" cx="28.11" cy="23.773" r="4.939"/>
		<circle fill="none" stroke="#000000" stroke-width="2" stroke-miterlimit="10" cx="9.803" cy="23.773" r="4.939"/>
	</g>
	<path fill="none" stroke="#000000" stroke-width="2" stroke-miterlimit="10" d="M26.958,7.698
		c4.268-0.276,11.419-2.849,12.863,3.158c0.591,2.459,0.136,6.407,2.304,8.225c2.007,1.682,4.72,2.12,4.866,5.235
		c0.117,2.492-1,5.672-2.412,7.738c-0.97,1.421-1.975,2.535-2.51,4.223c-0.603,1.904-0.655,3.92-0.655,5.907"/>
</g>
</svg>
