<?xml version="1.0" encoding="utf-8"?>
<!-- Generator: Adobe Illustrator 16.0.0, SVG Export Plug-In . SVG Version: 6.00 Build 0)  -->
<!DOCTYPE svg PUBLIC "-//W3C//DTD SVG 1.1//EN" "http://www.w3.org/Graphics/SVG/1.1/DTD/svg11.dtd">
<svg version="1.1" id="Layer_1" xmlns="http://www.w3.org/2000/svg" xmlns:xlink="http://www.w3.org/1999/xlink" x="0px" y="0px"
	 width="48px" height="48px" viewBox="0 0 48 48" enable-background="new 0 0 48 48" xml:space="preserve">
<g>
	<rect x="3.968" y="7.147" fill="none" stroke="#000000" stroke-width="2" stroke-miterlimit="10" width="18.419" height="33.707"/>
	<g>
		<g>
			<g>
				<path fill="none" stroke="#000000" stroke-width="2" stroke-miterlimit="10" d="M24.923,4.147c0,1.65-1.35,3-3,3H4.432
					c-1.65,0-3-1.35-3-3V4c0-1.65,1.35-3,3-3h17.491c1.65,0,3,1.35,3,3V4.147z"/>
			</g>
			<g>
				<path fill="none" stroke="#000000" stroke-width="2" stroke-miterlimit="10" d="M24.923,44c0,1.65-1.35,3-3,3H4.432
					c-1.65,0-3-1.35-3-3v-0.146c0-1.65,1.35-3,3-3h17.491c1.65,0,3,1.35,3,3V44z"/>
			</g>
		</g>
	</g>
	<path fill="none" stroke="#000000" stroke-width="2" stroke-miterlimit="10" d="M44.081,9.908H22.387v28.185h15.063
		c1.368,0,2.487-0.966,2.487-2.151V24.159l6.632-2.751v-9.351C46.568,10.875,45.45,9.908,44.081,9.908z"/>
	<g>
		<g>
			<line fill="none" stroke="#000000" stroke-width="2" stroke-miterlimit="10" x1="22.387" y1="13.037" x2="23.462" y2="13.037"/>
			
				<line fill="none" stroke="#000000" stroke-width="2" stroke-miterlimit="10" stroke-dasharray="2.7941,2.7941" x1="25.465" y1="13.037" x2="44.493" y2="13.037"/>
			<line fill="none" stroke="#000000" stroke-width="2" stroke-miterlimit="10" x1="45.494" y1="13.037" x2="46.568" y2="13.037"/>
		</g>
	</g>
	<g>
		<g>
			<line fill="none" stroke="#000000" stroke-width="2" stroke-miterlimit="10" x1="22.387" y1="35.414" x2="23.462" y2="35.414"/>
			
				<line fill="none" stroke="#000000" stroke-width="2" stroke-miterlimit="10" stroke-dasharray="3.0691,3.0691" x1="25.661" y1="35.414" x2="37.762" y2="35.414"/>
			<line fill="none" stroke="#000000" stroke-width="2" stroke-miterlimit="10" x1="38.861" y1="35.414" x2="39.937" y2="35.414"/>
		</g>
	</g>
</g>
</svg>
