<?xml version="1.0" encoding="utf-8"?>
<!-- Generator: Adobe Illustrator 16.0.0, SVG Export Plug-In . SVG Version: 6.00 Build 0)  -->
<!DOCTYPE svg PUBLIC "-//W3C//DTD SVG 1.1//EN" "http://www.w3.org/Graphics/SVG/1.1/DTD/svg11.dtd">
<svg version="1.1" id="Layer_1" xmlns="http://www.w3.org/2000/svg" xmlns:xlink="http://www.w3.org/1999/xlink" x="0px" y="0px"
	 width="48px" height="48px" viewBox="0 0 48 48" enable-background="new 0 0 48 48" xml:space="preserve">
<g>
	<g>
		<path d="M24,2c5.876,0,11.4,2.288,15.556,6.442c8.577,8.578,8.577,22.536,0,31.114C35.4,43.712,29.876,46,24,46
			c-5.876,0-11.401-2.288-15.556-6.443c-8.577-8.578-8.577-22.536,0-31.114C12.599,4.288,18.124,2,24,2 M24,0
			C17.858,0,11.716,2.343,7.03,7.028c-9.372,9.373-9.372,24.569,0,33.942C11.716,45.657,17.858,48,24,48
			c6.142,0,12.284-2.343,16.97-7.029c9.372-9.373,9.372-24.569,0-33.942C36.284,2.343,30.142,0,24,0L24,0z"/>
	</g>
	<path fill="none" stroke="#000000" stroke-width="2" stroke-miterlimit="10" d="M1.088,24.851c0,0,11.845-9.655,22.911-0.852
		c11.067,8.804,14.358,9.062,22.893,4.356"/>
</g>
</svg>
