<?xml version="1.0" encoding="utf-8"?>
<!-- Generator: Adobe Illustrator 16.0.0, SVG Export Plug-In . SVG Version: 6.00 Build 0)  -->
<!DOCTYPE svg PUBLIC "-//W3C//DTD SVG 1.1//EN" "http://www.w3.org/Graphics/SVG/1.1/DTD/svg11.dtd">
<svg version="1.1" id="Layer_1" xmlns="http://www.w3.org/2000/svg" xmlns:xlink="http://www.w3.org/1999/xlink" x="0px" y="0px"
	 width="48px" height="48px" viewBox="0 0 48 48" enable-background="new 0 0 48 48" xml:space="preserve">
<g>
	<circle fill="none" stroke="#000000" stroke-width="2" stroke-miterlimit="10" cx="35.849" cy="36.05" r="8.592"/>
	<g>
		<line fill="none" stroke="#000000" stroke-width="2" stroke-miterlimit="10" x1="30.699" y1="36.05" x2="40.997" y2="36.05"/>
		<line fill="none" stroke="#000000" stroke-width="2" stroke-miterlimit="10" x1="35.848" y1="30.9" x2="35.848" y2="41.198"/>
	</g>
	<g>
		<ellipse fill="none" stroke="#000000" stroke-width="2" stroke-miterlimit="10" cx="24" cy="9.802" rx="23" ry="6.443"/>
		<path fill="none" stroke="#000000" stroke-width="2" stroke-miterlimit="10" d="M47,15.947c0,3.234-10.298,5.855-23,5.855
			c-12.703,0-23-2.621-23-5.855"/>
		<path fill="none" stroke="#000000" stroke-width="2" stroke-miterlimit="10" d="M47,21.671c0,3.234-10.298,5.856-23,5.856
			c-12.703,0-23-2.622-23-5.856"/>
		<path fill="none" stroke="#000000" stroke-width="2" stroke-miterlimit="10" d="M27.726,33.253
			c-0.351,0.012-1.41-0.028-1.763-0.021c-0.648,0.013-1.301,0.021-1.963,0.021c-12.703,0-23-2.622-23-5.856"/>
		<path fill="none" stroke="#000000" stroke-width="2" stroke-miterlimit="10" d="M47,27.396c0,1.237-1.505,2.385-4.076,3.33"/>
		<path fill="none" stroke="#000000" stroke-width="2" stroke-miterlimit="10" d="M28.067,38.887c-1.319,0.061-2.68,0.09-4.067,0.09
			c-12.703,0-23-2.622-23-5.854"/>
		<path fill="none" stroke="#000000" stroke-width="2" stroke-miterlimit="10" d="M47,33.122c0,1.02-1.022,1.979-2.823,2.813"/>
	</g>
</g>
</svg>
