<?xml version="1.0" encoding="utf-8"?>
<!-- Generator: Adobe Illustrator 16.0.0, SVG Export Plug-In . SVG Version: 6.00 Build 0)  -->
<!DOCTYPE svg PUBLIC "-//W3C//DTD SVG 1.1//EN" "http://www.w3.org/Graphics/SVG/1.1/DTD/svg11.dtd">
<svg version="1.1" id="Layer_1" xmlns="http://www.w3.org/2000/svg" xmlns:xlink="http://www.w3.org/1999/xlink" x="0px" y="0px"
	 width="48px" height="48px" viewBox="0 0 48 48" enable-background="new 0 0 48 48" xml:space="preserve">
<g>
	<circle fill="none" stroke="#000000" stroke-width="2" stroke-miterlimit="10" cx="35.856" cy="36.05" r="8.592"/>
	<line fill="none" stroke="#000000" stroke-width="2" stroke-miterlimit="10" x1="30.706" y1="36.05" x2="41.005" y2="36.05"/>
	<g>
		<ellipse fill="none" stroke="#000000" stroke-width="2" stroke-miterlimit="10" cx="24" cy="9.802" rx="23" ry="6.443"/>
		<path fill="none" stroke="#000000" stroke-width="2" stroke-miterlimit="10" d="M47,15.948c0,3.234-10.298,5.854-23,5.854
			c-12.703,0-23-2.62-23-5.854"/>
		<path fill="none" stroke="#000000" stroke-width="2" stroke-miterlimit="10" d="M47,21.672c0,3.233-10.298,5.855-23,5.855
			c-12.703,0-23-2.622-23-5.855"/>
		<path fill="none" stroke="#000000" stroke-width="2" stroke-miterlimit="10" d="M28.037,33.161
			c-1.31,0.06-2.659,0.092-4.037,0.092c-12.703,0-23-2.622-23-5.856"/>
		<path fill="none" stroke="#000000" stroke-width="2" stroke-miterlimit="10" d="M47,27.396c0,1.325-1.73,2.547-4.647,3.53"/>
		<path fill="none" stroke="#000000" stroke-width="2" stroke-miterlimit="10" d="M28.229,38.88
			c-1.37,0.063-2.783,0.097-4.229,0.097c-12.703,0-23-2.622-23-5.854"/>
		<path fill="none" stroke="#000000" stroke-width="2" stroke-miterlimit="10" d="M47,33.122c0,1.009-1.003,1.96-2.771,2.789"/>
	</g>
</g>
</svg>
