<?xml version="1.0" encoding="utf-8"?>
<!-- Generator: Adobe Illustrator 16.0.0, SVG Export Plug-In . SVG Version: 6.00 Build 0)  -->
<!DOCTYPE svg PUBLIC "-//W3C//DTD SVG 1.1//EN" "http://www.w3.org/Graphics/SVG/1.1/DTD/svg11.dtd">
<svg version="1.1" id="Layer_1" xmlns="http://www.w3.org/2000/svg" xmlns:xlink="http://www.w3.org/1999/xlink" x="0px" y="0px"
	 width="48px" height="48px" viewBox="0 0 48 48" enable-background="new 0 0 48 48" xml:space="preserve">
<g>
	<g>
		<line fill="none" stroke="#000000" stroke-width="2" stroke-miterlimit="10" x1="33.992" y1="37.698" x2="43.905" y2="37.698"/>
		<line fill="none" stroke="#000000" stroke-width="2" stroke-miterlimit="10" x1="38.948" y1="32.742" x2="38.948" y2="42.654"/>
	</g>
	<g>
		<path d="M38.948,31.244c3.559,0,6.454,2.896,6.454,6.454c0,3.56-2.896,6.455-6.454,6.455s-6.454-2.896-6.454-6.455
			C32.494,34.14,35.39,31.244,38.948,31.244 M38.948,29.244c-4.67,0-8.454,3.784-8.454,8.454c0,4.668,3.784,8.455,8.454,8.455
			c4.669,0,8.454-3.787,8.454-8.455C47.402,33.028,43.617,29.244,38.948,29.244L38.948,29.244z"/>
	</g>
	<polyline fill="none" stroke="#000000" stroke-width="2" stroke-linejoin="round" stroke-miterlimit="10" points="11.574,30.599 
		8.241,30.599 8.241,20.671 39.767,20.671 39.767,30.599 36.115,30.599 	"/>
	<path fill="none" stroke="#000000" stroke-width="2" stroke-linejoin="round" stroke-miterlimit="10" d="M10.802,37.698H6.344
		c-2.72,0-4.944-2.226-4.944-4.943V16.167c0-2.719,2.225-4.943,4.944-4.943h35.32c2.718,0,4.943,2.225,4.943,4.943v16.588
		c0,0.588-0.104,1.155-0.296,1.681"/>
	<polyline fill="none" stroke="#000000" stroke-width="2" stroke-linejoin="round" stroke-miterlimit="10" points="39.252,45.262 
		39.37,45.874 8.638,45.874 12.169,27.548 35.838,27.548 36.453,30.743 	"/>
	
		<rect x="13.114" y="1.847" fill="none" stroke="#000000" stroke-width="2" stroke-linejoin="round" stroke-miterlimit="10" width="21.781" height="9.377"/>
</g>
</svg>
