<?xml version="1.0" encoding="utf-8"?>
<!-- Generator: Adobe Illustrator 16.0.0, SVG Export Plug-In . SVG Version: 6.00 Build 0)  -->
<!DOCTYPE svg PUBLIC "-//W3C//DTD SVG 1.1//EN" "http://www.w3.org/Graphics/SVG/1.1/DTD/svg11.dtd">
<svg version="1.1" id="Layer_1" xmlns="http://www.w3.org/2000/svg" xmlns:xlink="http://www.w3.org/1999/xlink" x="0px" y="0px"
	 width="48px" height="48px" viewBox="0 0 48 48" enable-background="new 0 0 48 48" xml:space="preserve">
<g>
	<path fill="none" stroke="#000000" stroke-width="2" stroke-miterlimit="10" d="M43.073,27.451v7.175
		c0,2.769-2.264,5.031-5.031,5.031H6.031C3.265,39.657,1,37.395,1,34.626V13.374c0-2.767,2.265-5.031,5.031-5.031h32.011
		c2.768,0,5.031,2.265,5.031,5.031v7.148"/>
	<g>
		<path fill="none" stroke="#000000" stroke-width="2" stroke-miterlimit="10" d="M47,24.646c0,1.65-1.35,3-3,3h-6.926
			c-1.65,0-3-1.35-3-3v-1.293c0-1.65,1.35-3,3-3H44c1.65,0,3,1.35,3,3V24.646z"/>
	</g>
	<line fill="none" stroke="#000000" stroke-width="2" stroke-miterlimit="10" x1="36.955" y1="24" x2="40.537" y2="24"/>
</g>
</svg>
