<?xml version="1.0" encoding="utf-8"?>
<!-- Generator: Adobe Illustrator 16.0.0, SVG Export Plug-In . SVG Version: 6.00 Build 0)  -->
<!DOCTYPE svg PUBLIC "-//W3C//DTD SVG 1.1//EN" "http://www.w3.org/Graphics/SVG/1.1/DTD/svg11.dtd">
<svg version="1.1" id="Layer_1" xmlns="http://www.w3.org/2000/svg" xmlns:xlink="http://www.w3.org/1999/xlink" x="0px" y="0px"
	 width="48px" height="48px" viewBox="0 0 48 48" enable-background="new 0 0 48 48" xml:space="preserve">
<g>
	<g>
		<path d="M23.391,11.177v2c7.267,0,14.628,3.679,21.902,10.94c-2.842,3.109-10.855,10.706-21.313,10.706
			c-7.262,0-14.435-3.661-21.341-10.888c2.642-3.082,10.273-10.757,20.749-10.758L23.391,11.177 M23.388,11.177
			C9.167,11.179,0,24.031,0,24.031c8.653,9.595,16.868,12.792,23.98,12.792C38.201,36.823,48,24.031,48,24.031
			C38.873,14.39,30.5,11.177,23.388,11.177L23.388,11.177z"/>
	</g>
	<path fill="none" stroke="#000000" stroke-width="2" stroke-miterlimit="10" d="M33.91,23.998c0,5.473-4.438,9.91-9.91,9.91
		s-9.91-4.438-9.91-9.91c0-5.47,4.438-9.908,9.91-9.908S33.91,18.528,33.91,23.998z"/>
	<path fill="none" stroke="#000000" stroke-width="2" stroke-miterlimit="10" d="M24,18.618c-1.362,0-2.604,0.51-3.55,1.343
		l3.165,3.206l-4.985,0.57c-0.003,0.088-0.013,0.174-0.013,0.262c0,2.975,2.409,5.385,5.383,5.385s5.383-2.41,5.383-5.385
		C29.383,21.028,26.974,18.618,24,18.618z"/>
</g>
</svg>
