<?xml version="1.0" encoding="utf-8"?>
<!-- Generator: Adobe Illustrator 16.0.0, SVG Export Plug-In . SVG Version: 6.00 Build 0)  -->
<!DOCTYPE svg PUBLIC "-//W3C//DTD SVG 1.1//EN" "http://www.w3.org/Graphics/SVG/1.1/DTD/svg11.dtd">
<svg version="1.1" id="Layer_1" xmlns="http://www.w3.org/2000/svg" xmlns:xlink="http://www.w3.org/1999/xlink" x="0px" y="0px"
	 width="48px" height="48px" viewBox="0 0 48 48" enable-background="new 0 0 48 48" xml:space="preserve">
<g>
	<circle fill="none" stroke="#000000" stroke-width="2" stroke-linejoin="round" stroke-miterlimit="10" cx="24" cy="24" r="23"/>
	
		<circle fill="none" stroke="#000000" stroke-width="2" stroke-linejoin="round" stroke-miterlimit="10" cx="24" cy="24" r="12.626"/>
	<g>
		<path d="M19.823,27.096c0-1.557,0.93-2.66,2.45-3.305l-0.019-0.056c-1.367-0.646-1.957-1.709-1.957-2.774
			c0-1.956,1.652-3.287,3.818-3.287c2.393,0,3.59,1.501,3.59,3.04c0,1.044-0.513,2.166-2.032,2.888v0.056
			c1.539,0.608,2.489,1.692,2.489,3.191c0,2.147-1.843,3.59-4.199,3.59C21.38,30.438,19.823,28.9,19.823,27.096z M26.472,27.02
			c0-1.5-1.045-2.223-2.717-2.698c-1.443,0.419-2.222,1.369-2.222,2.545c-0.057,1.254,0.893,2.356,2.469,2.356
			C25.503,29.224,26.472,28.292,26.472,27.02z M21.875,20.846c0,1.235,0.931,1.9,2.356,2.28c1.063-0.361,1.88-1.121,1.88-2.241
			c0-0.988-0.589-2.014-2.09-2.014C22.635,18.872,21.875,19.783,21.875,20.846z"/>
	</g>
</g>
</svg>
