<?xml version="1.0" encoding="utf-8"?>
<!-- Generator: Adobe Illustrator 16.0.0, SVG Export Plug-In . SVG Version: 6.00 Build 0)  -->
<!DOCTYPE svg PUBLIC "-//W3C//DTD SVG 1.1//EN" "http://www.w3.org/Graphics/SVG/1.1/DTD/svg11.dtd">
<svg version="1.1" id="Layer_1" xmlns="http://www.w3.org/2000/svg" xmlns:xlink="http://www.w3.org/1999/xlink" x="0px" y="0px"
	 width="48px" height="48px" viewBox="0 0 48 48" enable-background="new 0 0 48 48" xml:space="preserve">
<g>
	<g>
		<path fill="none" stroke="#000000" stroke-width="2" stroke-linejoin="round" stroke-miterlimit="10" d="M30.41,19.675
			c0,5.5-2.885,10-6.41,10s-6.41-4.5-6.41-10V11c0-5.5,2.884-10,6.41-10s6.41,4.5,6.41,10V19.675z"/>
	</g>
	<g>
		<path fill="none" stroke="#000000" stroke-width="2" stroke-linejoin="round" stroke-miterlimit="10" d="M30.41,19.675
			c0,5.5-2.885,10-6.41,10s-6.41-4.5-6.41-10V11c0-5.5,2.884-10,6.41-10s6.41,4.5,6.41,10V19.675z"/>
	</g>
	<path fill="none" stroke="#000000" stroke-width="2" stroke-linejoin="round" stroke-miterlimit="10" d="M33.57,17.473v6.284
		c0,5.738-4.191,10.431-9.312,10.431h-0.517c-5.121,0-9.312-4.692-9.312-10.431v-6.284"/>
	
		<line fill="none" stroke="#000000" stroke-width="2" stroke-linejoin="round" stroke-miterlimit="10" x1="24" y1="34.689" x2="24" y2="47"/>
	
		<line fill="none" stroke="#000000" stroke-width="2" stroke-linejoin="round" stroke-miterlimit="10" x1="17.478" y1="47" x2="30.523" y2="47"/>
	
		<line fill="none" stroke="#000000" stroke-width="2" stroke-linejoin="round" stroke-miterlimit="10" x1="17.978" y1="15.339" x2="30.022" y2="15.339"/>
</g>
</svg>
