<?xml version="1.0" encoding="utf-8"?>
<!-- Generator: Adobe Illustrator 16.0.0, SVG Export Plug-In . SVG Version: 6.00 Build 0)  -->
<!DOCTYPE svg PUBLIC "-//W3C//DTD SVG 1.1//EN" "http://www.w3.org/Graphics/SVG/1.1/DTD/svg11.dtd">
<svg version="1.1" id="Layer_1" xmlns="http://www.w3.org/2000/svg" xmlns:xlink="http://www.w3.org/1999/xlink" x="0px" y="0px"
	 width="48px" height="48px" viewBox="0 0 48 48" enable-background="new 0 0 48 48" xml:space="preserve">
<g>
	<g>
		<path fill="none" stroke="#000000" stroke-width="2" stroke-miterlimit="10" d="M1.826,1C1.804,1.429,1.763,1.85,1.763,2.282
			c0,12.28,9.956,22.236,22.236,22.236c12.282,0,22.238-9.956,22.238-22.236c0-0.433-0.041-0.854-0.065-1.282H1.826z"/>
		<line fill="none" stroke="#000000" stroke-width="2" stroke-miterlimit="10" x1="23.999" y1="24.519" x2="23.999" y2="47"/>
		<line fill="none" stroke="#000000" stroke-width="2" stroke-miterlimit="10" x1="13.167" y1="47" x2="34.831" y2="47"/>
	</g>
	<path fill="none" stroke="#000000" stroke-width="2" stroke-miterlimit="10" d="M3.241,9.458c0.397-0.04,1.747,0.507,2.358,0.625
		c1.627,0.314,3.184,0.414,4.867,0.414c1.9,0,3.742-0.112,5.527-0.67c1.615-0.505,3.257-1.127,4.894-1.537
		c3.181-0.801,6.244-1.501,9.593-1.503c1.474,0,2.672,0.084,4.067,0.537c0.914,0.297,1.911,0.687,2.812,1.091
		c2.125,0.953,4.418,2.166,5.862,4.009"/>
</g>
</svg>
