<?xml version="1.0" encoding="utf-8"?>
<!-- Generator: Adobe Illustrator 16.0.0, SVG Export Plug-In . SVG Version: 6.00 Build 0)  -->
<!DOCTYPE svg PUBLIC "-//W3C//DTD SVG 1.1//EN" "http://www.w3.org/Graphics/SVG/1.1/DTD/svg11.dtd">
<svg version="1.1" id="Layer_1" xmlns="http://www.w3.org/2000/svg" xmlns:xlink="http://www.w3.org/1999/xlink" x="0px" y="0px"
	 width="48px" height="48px" viewBox="0 0 48 48" enable-background="new 0 0 48 48" xml:space="preserve">
<g>
	<path fill="none" stroke="#000000" stroke-width="2" stroke-linejoin="round" stroke-miterlimit="10" d="M31.488,7.673
		C30.982,3.907,27.764,1,23.859,1c-3.921,0-7.152,2.933-7.635,6.725c-3.691,0.431-6.558,3.564-6.558,7.371
		c0,4.101,3.325,7.425,7.426,7.425c1.015,0,1.983-0.206,2.864-0.573c0.992,0.823,2.267,1.319,3.657,1.319
		c1.971,0,3.709-0.996,4.739-2.514c0.927,0.462,1.967,0.728,3.072,0.728c3.816,0,6.907-3.092,6.907-6.907
		C38.333,10.782,35.273,7.707,31.488,7.673z"/>
	<path fill="none" stroke="#000000" stroke-width="2" stroke-linejoin="round" stroke-miterlimit="10" d="M28.354,20.754
		c-1.03,1.518-2.769,2.514-4.739,2.514c-1.391,0-2.665-0.496-3.657-1.319c-0.881,0.367-1.849,0.573-2.864,0.573
		c-0.071,0-0.142-0.01-0.213-0.011L23.859,47l7.279-25.534C30.142,21.423,29.198,21.176,28.354,20.754z"/>
</g>
</svg>
