<?xml version="1.0" encoding="utf-8"?>
<!-- Generator: Adobe Illustrator 16.0.0, SVG Export Plug-In . SVG Version: 6.00 Build 0)  -->
<!DOCTYPE svg PUBLIC "-//W3C//DTD SVG 1.1//EN" "http://www.w3.org/Graphics/SVG/1.1/DTD/svg11.dtd">
<svg version="1.1" id="Layer_1" xmlns="http://www.w3.org/2000/svg" xmlns:xlink="http://www.w3.org/1999/xlink" x="0px" y="0px"
	 width="48px" height="48px" viewBox="0 0 48 48" enable-background="new 0 0 48 48" xml:space="preserve">
<g>
	<polygon fill="none" stroke="#000000" stroke-width="2" stroke-linejoin="round" stroke-miterlimit="10" points="39.421,47 
		9.138,47 6,19.74 41.701,19.74 	"/>
	<g>
		
			<line fill="none" stroke="#000000" stroke-width="2" stroke-linejoin="round" stroke-miterlimit="10" x1="14.628" y1="25.484" x2="15.737" y2="41.258"/>
		
			<line fill="none" stroke="#000000" stroke-width="2" stroke-linejoin="round" stroke-miterlimit="10" x1="23.982" y1="25.484" x2="24.229" y2="41.258"/>
		
			<line fill="none" stroke="#000000" stroke-width="2" stroke-linejoin="round" stroke-miterlimit="10" x1="33.331" y1="25.484" x2="32.721" y2="41.258"/>
	</g>
	<path fill="none" stroke="#000000" stroke-width="2" stroke-linejoin="round" stroke-miterlimit="10" d="M45.027,16.098
		c0-3.746-3.034-6.78-6.779-6.78c-1.294,0-2.497,0.367-3.526,0.996c0.062-0.322,0.099-0.655,0.099-0.996
		c0-2.856-2.315-5.171-5.17-5.171c-1.132,0-2.175,0.369-3.026,0.984C25.054,2.651,22.292,1,19.142,1
		c-4.711,0-8.555,3.68-8.837,8.318c-0.007,0-0.018,0-0.024,0c-4.037,0-7.308,3.27-7.308,7.306c0,1.116,0.259,2.169,0.708,3.116
		h40.28C44.632,18.686,45.027,17.439,45.027,16.098z"/>
</g>
</svg>
