<?xml version="1.0" encoding="utf-8"?>
<!-- Generator: Adobe Illustrator 16.0.0, SVG Export Plug-In . SVG Version: 6.00 Build 0)  -->
<!DOCTYPE svg PUBLIC "-//W3C//DTD SVG 1.1//EN" "http://www.w3.org/Graphics/SVG/1.1/DTD/svg11.dtd">
<svg version="1.1" id="Layer_1" xmlns="http://www.w3.org/2000/svg" xmlns:xlink="http://www.w3.org/1999/xlink" x="0px" y="0px"
	 width="48px" height="48px" viewBox="0 0 48 48" enable-background="new 0 0 48 48" xml:space="preserve">
<g>
	<g>
		<path fill="none" stroke="#000000" stroke-width="2" stroke-linejoin="round" stroke-miterlimit="10" d="M47,40c0,3.85-3.15,7-7,7
			H8c-3.85,0-7-3.15-7-7V12.056c0-3.85,3.15-7,7-7h32c3.85,0,7,3.15,7,7V40z"/>
	</g>
	<g>
		
			<line fill="none" stroke="#000000" stroke-width="2" stroke-linejoin="round" stroke-miterlimit="10" x1="10.344" y1="1" x2="10.344" y2="9.728"/>
		
			<line fill="none" stroke="#000000" stroke-width="2" stroke-linejoin="round" stroke-miterlimit="10" x1="37.656" y1="1" x2="37.656" y2="9.728"/>
	</g>
	
		<rect x="7.126" y="16.979" fill="none" stroke="#000000" stroke-width="2" stroke-linejoin="round" stroke-miterlimit="10" width="8.332" height="8.332"/>
	
		<rect x="19.835" y="16.979" fill="none" stroke="#000000" stroke-width="2" stroke-linejoin="round" stroke-miterlimit="10" width="8.331" height="8.332"/>
	
		<rect x="32.544" y="16.979" fill="none" stroke="#000000" stroke-width="2" stroke-linejoin="round" stroke-miterlimit="10" width="8.332" height="8.332"/>
	
		<rect x="7.126" y="29.295" fill="none" stroke="#000000" stroke-width="2" stroke-linejoin="round" stroke-miterlimit="10" width="8.332" height="8.331"/>
	
		<rect x="19.835" y="29.295" fill="none" stroke="#000000" stroke-width="2" stroke-linejoin="round" stroke-miterlimit="10" width="8.331" height="8.331"/>
	
		<rect x="32.544" y="29.295" fill="none" stroke="#000000" stroke-width="2" stroke-linejoin="round" stroke-miterlimit="10" width="8.332" height="8.331"/>
</g>
</svg>
