<?xml version="1.0" encoding="utf-8"?>
<!-- Generator: Adobe Illustrator 16.0.0, SVG Export Plug-In . SVG Version: 6.00 Build 0)  -->
<!DOCTYPE svg PUBLIC "-//W3C//DTD SVG 1.1//EN" "http://www.w3.org/Graphics/SVG/1.1/DTD/svg11.dtd">
<svg version="1.1" id="Layer_1" xmlns="http://www.w3.org/2000/svg" xmlns:xlink="http://www.w3.org/1999/xlink" x="0px" y="0px"
	 width="48px" height="48px" viewBox="0 0 48 48" enable-background="new 0 0 48 48" xml:space="preserve">
<g>
	<circle fill="none" stroke="#000000" stroke-width="2" stroke-miterlimit="10" cx="24" cy="23.999" r="23"/>
	<path fill="none" stroke="#000000" stroke-width="2" stroke-miterlimit="10" d="M35.733,18.653c0,3.143-1.594,5.69-3.564,5.69
		c-1.967,0-3.562-2.547-3.562-5.69s1.595-5.692,3.562-5.692C34.14,12.961,35.733,15.511,35.733,18.653z"/>
	<path fill="none" stroke="#000000" stroke-width="2" stroke-miterlimit="10" d="M34.78,31.958c-2.325,3.44-6.264,5.703-10.73,5.703
		c-4.532,0-8.521-2.329-10.83-5.855c0,0,4.869,1.825,10.8,1.825C29.949,33.631,34.78,31.958,34.78,31.958z"/>
	<path fill="none" stroke="#000000" stroke-width="2" stroke-miterlimit="10" d="M12.267,18.627c0,0.01-0.002,0.017-0.002,0.026
		c0,3.143,1.595,5.69,3.563,5.69c1.969,0,3.563-2.547,3.563-5.69c0-0.009,0-0.017,0-0.026H12.267z"/>
</g>
</svg>
