<?xml version="1.0" encoding="utf-8"?>
<!-- Generator: Adobe Illustrator 16.0.0, SVG Export Plug-In . SVG Version: 6.00 Build 0)  -->
<!DOCTYPE svg PUBLIC "-//W3C//DTD SVG 1.1//EN" "http://www.w3.org/Graphics/SVG/1.1/DTD/svg11.dtd">
<svg version="1.1" id="Layer_1" xmlns="http://www.w3.org/2000/svg" xmlns:xlink="http://www.w3.org/1999/xlink" x="0px" y="0px"
	 width="48px" height="48px" viewBox="0 0 48 48" enable-background="new 0 0 48 48" xml:space="preserve">
<g>
	<circle fill="none" stroke="#000000" stroke-width="2" stroke-miterlimit="10" cx="24" cy="23.999" r="22.999"/>
	<g>
		<ellipse fill="none" stroke="#000000" stroke-width="2" stroke-miterlimit="10" cx="15.828" cy="18.653" rx="3.563" ry="5.69"/>
		<path fill="none" stroke="#000000" stroke-width="2" stroke-miterlimit="10" d="M35.732,18.653c0,3.143-1.593,5.69-3.563,5.69
			c-1.967,0-3.562-2.547-3.562-5.69c0-3.142,1.595-5.691,3.562-5.691C34.14,12.962,35.732,15.511,35.732,18.653z"/>
	</g>
	<path fill="none" stroke="#000000" stroke-width="2" stroke-miterlimit="10" d="M34.78,37.51c-2.325-3.44-6.264-5.704-10.73-5.704
		c-4.532,0-8.52,2.331-10.83,5.854c0,0,5.341,2.41,10.833,2.41S34.78,37.51,34.78,37.51z"/>
</g>
</svg>
