<?xml version="1.0" encoding="utf-8"?>
<!-- Generator: Adobe Illustrator 16.0.0, SVG Export Plug-In . SVG Version: 6.00 Build 0)  -->
<!DOCTYPE svg PUBLIC "-//W3C//DTD SVG 1.1//EN" "http://www.w3.org/Graphics/SVG/1.1/DTD/svg11.dtd">
<svg version="1.1" id="Layer_1" xmlns="http://www.w3.org/2000/svg" xmlns:xlink="http://www.w3.org/1999/xlink" x="0px" y="0px"
	 width="48px" height="48px" viewBox="0 0 48 48" enable-background="new 0 0 48 48" xml:space="preserve">
<g>
	<path fill="none" stroke="#000000" stroke-width="2" stroke-linejoin="round" stroke-miterlimit="10" d="M20.086,13.144
		c-2.273,2.344-4.171,5.599-5.955,8.424c-1.686,2.669-3.454,5.044-4.912,7.838c-2.365,4.535-5.471,12.5,0.646,15.197
		c0.521,0.23,1.247,1.058,1.806,1.325c1.121,0.539,1.527-1.256,2.248-0.396c0.932,1.109,2,1.328,3.507,1.323
		c1.205-0.004,2.961,0.327,4.103,0c1.526-0.438,1.435-1.55,3.405-1.365c1.778,0.171,3.18,1.217,4.912,1.372
		c1.72,0.154,1.734-1.052,2.953-1.338c2.22-0.519,4.44,2.512,7.101-1.035c0.782-1.043,0.906-1.654,1.035-2.965
		c0.15-1.529,0.667-2.712,0.739-4.28c0.148-3.228-0.285-5.137-1.733-8.024c-1.368-2.724-3.449-5.19-5.468-7.417
		c-2.151-2.373-4.195-4.96-6.705-6.995c-2.245-1.819-3.229-2.866-6.202-2.691C21.243,12.182,20.453,12.846,20.086,13.144"/>
	<path fill="none" stroke="#000000" stroke-width="2" stroke-linejoin="round" stroke-miterlimit="10" d="M14.407,1.122
		c0.415,1.413,2.339,2.849,3.208,4.133c0.758,1.119,1.05,2.257,1.705,3.423c0.626,1.114,1.207,2.177,2.486,2.646
		c1.604,0.59,2.175-0.416,3.172-1.293c1.1-0.966,1.99-1.556,2.833-2.819c0.671-1.007,0.844-2.042,1.347-3.124
		c0.603-1.297,1.989-2.304-0.233-2.669c-1.263-0.209-2.622-0.167-3.87-0.288c-1.144-0.112-1.883-0.251-2.719,0.054
		c-0.734,0.268-1.101,0.277-2.134,0.236c-1.942-0.077-3.612-0.094-5.528-0.384L14.407,1.122z"/>
	<path fill="none" stroke="#000000" stroke-width="2" stroke-linejoin="round" stroke-miterlimit="10" d="M27.757,25.97
		c0,0-0.527-3.262-3.261-3.262c-2.733,0-3.766,1.582-3.766,3.766c0,2.185,1.383,3.283,3.513,3.743
		c2.13,0.461,3.899,2.054,3.899,4.657c0,2.162-2.417,2.853-3.899,2.853c-1.481,0-3.513-0.692-3.513-2.536"/>
	
		<line fill="none" stroke="#000000" stroke-width="2" stroke-linejoin="round" stroke-miterlimit="10" x1="24.436" y1="20.537" x2="24.436" y2="39.899"/>
</g>
</svg>
