<?xml version="1.0" encoding="utf-8"?>
<!-- Generator: Adobe Illustrator 16.0.0, SVG Export Plug-In . SVG Version: 6.00 Build 0)  -->
<!DOCTYPE svg PUBLIC "-//W3C//DTD SVG 1.1//EN" "http://www.w3.org/Graphics/SVG/1.1/DTD/svg11.dtd">
<svg version="1.1" id="Layer_1" xmlns="http://www.w3.org/2000/svg" xmlns:xlink="http://www.w3.org/1999/xlink" x="0px" y="0px"
	 width="48px" height="48px" viewBox="0 0 48 48" enable-background="new 0 0 48 48" xml:space="preserve">
<g>
	
		<line fill="none" stroke="#000000" stroke-width="2" stroke-linejoin="round" stroke-miterlimit="10" x1="25.353" y1="29.115" x2="28.231" y2="47"/>
	<g>
		
			<line fill="none" stroke="#000000" stroke-width="2" stroke-linejoin="round" stroke-miterlimit="10" x1="10.217" y1="6.859" x2="18.017" y2="5.603"/>
		
			<line fill="none" stroke="#000000" stroke-width="2" stroke-linejoin="round" stroke-miterlimit="10" x1="24.932" y1="4.487" x2="32.729" y2="3.233"/>
	</g>
	
		<line fill="none" stroke="#000000" stroke-width="2" stroke-linejoin="round" stroke-miterlimit="10" x1="22.292" y1="10.127" x2="21.753" y2="6.782"/>
	
		<circle fill="none" stroke="#000000" stroke-width="2" stroke-linejoin="round" stroke-miterlimit="10" cx="21.335" cy="4.189" r="3.188"/>
	<path fill="none" stroke="#000000" stroke-width="2" stroke-linejoin="round" stroke-miterlimit="10" d="M25.505,9.61l-6.425,1.035
		c-4.661,0.75-7.97,4.492-7.355,8.313l2.613,16.215c0.553,3.438,4.106,5.812,8.208,5.705l-1.564-9.713
		c-0.334-2.074,1.088-4.039,3.16-4.374l1.627-0.263c2.072-0.333,4.04,1.088,4.374,3.16l1.563,9.712
		c3.929-1.187,6.558-4.554,6.004-7.992l-2.611-16.214C34.481,11.374,30.166,8.86,25.505,9.61z"/>
</g>
</svg>
