<?xml version="1.0" encoding="utf-8"?>
<!-- Generator: Adobe Illustrator 16.0.0, SVG Export Plug-In . SVG Version: 6.00 Build 0)  -->
<!DOCTYPE svg PUBLIC "-//W3C//DTD SVG 1.1//EN" "http://www.w3.org/Graphics/SVG/1.1/DTD/svg11.dtd">
<svg version="1.1" id="Layer_1" xmlns="http://www.w3.org/2000/svg" xmlns:xlink="http://www.w3.org/1999/xlink" x="0px" y="0px"
	 width="48px" height="48px" viewBox="0 0 48 48" enable-background="new 0 0 48 48" xml:space="preserve">
<g>
	<circle fill="none" stroke="#000000" stroke-width="2" stroke-miterlimit="10" cx="7.606" cy="31.208" r="6.606"/>
	<circle fill="none" stroke="#000000" stroke-width="2" stroke-miterlimit="10" cx="40.394" cy="31.208" r="6.606"/>
	<path fill="none" stroke="#000000" stroke-width="2" stroke-miterlimit="10" d="M2.309,17.176c0,0,12.982-1.033,17.104,12.774"/>
	<path fill="none" stroke="#000000" stroke-width="2" stroke-miterlimit="10" d="M31.364,21.258c0,0-2.454,2.518-6.354,1.825
		c-3.9-0.691-5.599-1.825-5.599-1.825s5.717-5.535,9.525-4.34C32.747,18.113,32.37,19.497,31.364,21.258z"/>
	<path fill="none" stroke="#000000" stroke-width="2" stroke-miterlimit="10" d="M17.138,20.502c0,0,4.595,5.92,5.478,10.071
		c0.884,4.155,5.214,0.637,5.214,0.637l3.534-7.655"/>
	<line fill="none" stroke="#000000" stroke-width="2" stroke-miterlimit="10" x1="40.394" y1="30.818" x2="31.611" y2="11.847"/>
	<polyline fill="none" stroke="#000000" stroke-width="2" stroke-linejoin="round" stroke-miterlimit="10" points="26.014,10.81 
		28.863,10.185 32.498,11.925 34.295,13.52 30.238,14.407 	"/>
</g>
</svg>
