<?xml version="1.0" encoding="utf-8"?>
<!-- Generator: Adobe Illustrator 16.0.0, SVG Export Plug-In . SVG Version: 6.00 Build 0)  -->
<!DOCTYPE svg PUBLIC "-//W3C//DTD SVG 1.1//EN" "http://www.w3.org/Graphics/SVG/1.1/DTD/svg11.dtd">
<svg version="1.1" id="Layer_1" xmlns="http://www.w3.org/2000/svg" xmlns:xlink="http://www.w3.org/1999/xlink" x="0px" y="0px"
	 width="48px" height="48px" viewBox="0 0 48 48" enable-background="new 0 0 48 48" xml:space="preserve">
<g>
	<path fill="none" stroke="#000000" stroke-width="2" stroke-linejoin="round" stroke-miterlimit="10" d="M47,29.022v-4.823
		l-16.03-7.024C30.714,11.41,27.826,3.968,24,1.929h-0.001c-3.826,2.039-6.715,9.481-6.969,15.246L1,24.199v4.823l17.252-1.971
		c0.688,3.686,1.553,7.727,2.315,11.141l-9.174,4.753v3.125l10.659-1.439c0.215,0.91,0.344,1.439,0.344,1.439h1.603H24h1.603
		c0,0,0.129-0.529,0.344-1.439l10.66,1.439v-3.125l-9.176-4.753c0.764-3.414,1.629-7.455,2.315-11.141L47,29.022z"/>
</g>
</svg>
