<?xml version="1.0" encoding="utf-8"?>
<!-- Generator: Adobe Illustrator 16.0.0, SVG Export Plug-In . SVG Version: 6.00 Build 0)  -->
<!DOCTYPE svg PUBLIC "-//W3C//DTD SVG 1.1//EN" "http://www.w3.org/Graphics/SVG/1.1/DTD/svg11.dtd">
<svg version="1.1" id="Layer_1" xmlns="http://www.w3.org/2000/svg" xmlns:xlink="http://www.w3.org/1999/xlink" x="0px" y="0px"
	 width="48px" height="48px" viewBox="0 0 48 48" enable-background="new 0 0 48 48" xml:space="preserve">
<g>
	<path fill="none" stroke="#000000" stroke-width="2" stroke-linejoin="round" stroke-miterlimit="10" d="M24,1
		c-4.125,0-7.621,5.089-8.842,12.133h17.685C31.622,6.089,28.125,1,24,1z"/>
	<path fill="none" stroke="#000000" stroke-width="2" stroke-linejoin="round" stroke-miterlimit="10" d="M33.31,18.651
		c0-1.928-0.164-3.783-0.468-5.518H15.157c-0.301,1.735-0.468,3.59-0.468,5.518c0,4.999,1.1,9.508,2.862,12.72H30.45
		C32.211,28.159,33.31,23.65,33.31,18.651z"/>
	<path fill="none" stroke="#000000" stroke-width="2" stroke-linejoin="round" stroke-miterlimit="10" d="M17.551,31.371
		c1.673,3.049,3.944,4.928,6.448,4.928s4.777-1.879,6.451-4.928H17.551z"/>
	<g>
		<path fill="none" stroke="#000000" stroke-width="2" stroke-linejoin="round" stroke-miterlimit="10" d="M11.652,17.073
			c0,0-6.035-0.29-6.035,3.448c0,3.735,2.107,16.288,2.107,16.288l6.037-7.281C13.761,29.527,12.035,25.217,11.652,17.073z"/>
		<path fill="none" stroke="#000000" stroke-width="2" stroke-linejoin="round" stroke-miterlimit="10" d="M36.348,17.073
			c0,0,6.035-0.29,6.035,3.448c0,3.735-2.106,16.288-2.106,16.288l-6.036-7.281C34.24,29.527,35.964,25.217,36.348,17.073z"/>
	</g>
	<path fill="none" stroke="#000000" stroke-width="2" stroke-linejoin="round" stroke-miterlimit="10" d="M18.356,33.072
		C18.289,33.48,19.032,45.8,18.928,47c0.302-0.275,2.544-6.236,2.819-6.585c0.55,0.843,1.777,5.694,2.069,6.128
		c0.3,0.092,1.631-5.942,1.631-5.942s3.086,5.423,3.635,6.324c0.29-4.701,0.529-9.418,0.694-14.139"/>
	
		<circle fill="none" stroke="#000000" stroke-width="2" stroke-linejoin="round" stroke-miterlimit="10" cx="24.34" cy="19.886" r="3.916"/>
</g>
</svg>
