<?xml version="1.0" encoding="utf-8"?>
<!-- Generator: Adobe Illustrator 16.0.0, SVG Export Plug-In . SVG Version: 6.00 Build 0)  -->
<!DOCTYPE svg PUBLIC "-//W3C//DTD SVG 1.1//EN" "http://www.w3.org/Graphics/SVG/1.1/DTD/svg11.dtd">
<svg version="1.1" id="Layer_1" xmlns="http://www.w3.org/2000/svg" xmlns:xlink="http://www.w3.org/1999/xlink" x="0px" y="0px"
	 width="48px" height="48px" viewBox="0 0 48 48" enable-background="new 0 0 48 48" xml:space="preserve">
<g>
	<circle fill="none" stroke="#000000" stroke-width="2" stroke-miterlimit="10" cx="8.496" cy="30.746" r="7.496"/>
	<circle fill="none" stroke="#000000" stroke-width="2" stroke-miterlimit="10" cx="39.504" cy="30.746" r="7.496"/>
	<path fill="none" stroke="#000000" stroke-width="2" stroke-miterlimit="10" d="M32.008,30.746c0-4.139,3.357-7.497,7.496-7.497
		c1.84,0,3.522,0.666,4.827,1.765l0.002-0.002L33.074,10.462c0,0-5.652-2.978-6.351,3.312c-1.438-0.322-3.482-0.56-5.449-0.015
		c-0.706-6.269-6.349-3.296-6.349-3.296L3.668,25.013l0.002,0.002c1.305-1.099,2.986-1.765,4.826-1.765
		c4.14,0,7.496,3.358,7.496,7.497c0,0.69-0.101,1.358-0.275,1.993l0.005,0.004l2.156-7.263c2.192-1.288,7.346-3.53,12.27,0.084
		l2.129,7.179l0.007-0.004C32.108,32.104,32.008,31.437,32.008,30.746z M19.328,20.594l1.101-3.711
		c1.599-0.794,4.39-1.649,7.153,0.034l1.072,3.612C26.364,19.95,22.71,19.417,19.328,20.594z"/>
</g>
</svg>
