<?xml version="1.0" encoding="utf-8"?>
<!-- Generator: Adobe Illustrator 16.0.0, SVG Export Plug-In . SVG Version: 6.00 Build 0)  -->
<!DOCTYPE svg PUBLIC "-//W3C//DTD SVG 1.1//EN" "http://www.w3.org/Graphics/SVG/1.1/DTD/svg11.dtd">
<svg version="1.1" id="Layer_1" xmlns="http://www.w3.org/2000/svg" xmlns:xlink="http://www.w3.org/1999/xlink" x="0px" y="0px"
	 width="48px" height="48px" viewBox="0 0 48 48" enable-background="new 0 0 48 48" xml:space="preserve">
<g>
	<path fill="none" stroke="#000000" stroke-width="2" stroke-linejoin="round" stroke-miterlimit="10" d="M47,25.733
		c0,5.469-6.803,9.899-15.193,9.899c-8.389,0-15.189-4.431-15.189-9.899c0-0.488,0.054-0.974,0.16-1.445
		c1.075-4.782,7.394-8.452,15.029-8.452C40.197,15.836,47,20.268,47,25.733z"/>
	
		<line fill="none" stroke="#000000" stroke-width="2" stroke-linejoin="round" stroke-miterlimit="10" x1="10.219" y1="22.321" x2="17.558" y2="22.321"/>
	
		<circle fill="none" stroke="#000000" stroke-width="2" stroke-linejoin="round" stroke-miterlimit="10" cx="5.61" cy="22.32" r="4.61"/>
	
		<line fill="none" stroke="#000000" stroke-width="2" stroke-linejoin="round" stroke-miterlimit="10" x1="30.291" y1="15.836" x2="30.291" y2="6.449"/>
	
		<line fill="none" stroke="#000000" stroke-width="2" stroke-linejoin="round" stroke-miterlimit="10" x1="13.732" y1="6.449" x2="46.849" y2="6.449"/>
	<path fill="none" stroke="#000000" stroke-width="2" stroke-linejoin="round" stroke-miterlimit="10" d="M29.49,18.603l1.34,9.53
		h12.286C43.116,28.133,43.666,17.421,29.49,18.603z"/>
	<path fill="none" stroke="#000000" stroke-width="2" stroke-linejoin="round" stroke-miterlimit="10" d="M21.994,33.599
		c0,0-2.753,2.991-2.992,7.953h25.045c0,0-0.555-4.549-4.098-7.777"/>
</g>
</svg>
