<?xml version="1.0" encoding="utf-8"?>
<!-- Generator: Adobe Illustrator 16.0.0, SVG Export Plug-In . SVG Version: 6.00 Build 0)  -->
<!DOCTYPE svg PUBLIC "-//W3C//DTD SVG 1.1//EN" "http://www.w3.org/Graphics/SVG/1.1/DTD/svg11.dtd">
<svg version="1.1" id="Layer_1" xmlns="http://www.w3.org/2000/svg" xmlns:xlink="http://www.w3.org/1999/xlink" x="0px" y="0px"
	 width="48px" height="48px" viewBox="0 0 48 48" enable-background="new 0 0 48 48" xml:space="preserve">
<g>
	<path fill="none" stroke="#000000" stroke-width="2" stroke-miterlimit="10" d="M6.031,15.069c-1.189,0-2.156,0.966-2.156,2.156
		v13.549c0,1.19,0.967,2.156,2.156,2.156h29.448l-5.734-17.862H6.031z"/>
	<path fill="none" stroke="#000000" stroke-width="2" stroke-miterlimit="10" d="M45.563,18.788h-4.061v-1.563
		c0-2.768-2.264-5.031-5.031-5.031H6.031C3.264,12.194,1,14.457,1,17.225v13.549c0,2.769,2.264,5.031,5.031,5.031h30.439
		c2.768,0,5.031-2.263,5.031-5.031V29.21h4.061c0.791,0,1.438-0.647,1.438-1.438v-7.547C47,19.436,46.354,18.788,45.563,18.788z"/>
	<line fill="none" stroke="#000000" stroke-width="2" stroke-miterlimit="10" x1="19.677" y1="15.069" x2="25.648" y2="32.931"/>
	<line fill="none" stroke="#000000" stroke-width="2" stroke-miterlimit="10" x1="10.125" y1="15.069" x2="16.096" y2="32.931"/>
</g>
</svg>
