<?xml version="1.0" encoding="utf-8"?>
<!-- Generator: Adobe Illustrator 16.0.0, SVG Export Plug-In . SVG Version: 6.00 Build 0)  -->
<!DOCTYPE svg PUBLIC "-//W3C//DTD SVG 1.1//EN" "http://www.w3.org/Graphics/SVG/1.1/DTD/svg11.dtd">
<svg version="1.1" id="Layer_1" xmlns="http://www.w3.org/2000/svg" xmlns:xlink="http://www.w3.org/1999/xlink" x="0px" y="0px"
	 width="48px" height="48px" viewBox="0 0 48 48" enable-background="new 0 0 48 48" xml:space="preserve">
<g>
	<circle fill="none" stroke="#000000" stroke-width="2" stroke-miterlimit="10" cx="20.673" cy="29.113" r="17.886"/>
	<path fill="none" stroke="#000000" stroke-width="2" stroke-miterlimit="10" d="M12.951,13.582
		c-0.647-0.88-1.029-1.967-1.029-3.145c0-2.939,2.382-5.321,5.321-5.321c2.938,0,5.321,2.382,5.321,5.321
		c0,0.451-0.057,0.889-0.163,1.308"/>
	<path fill="none" stroke="#000000" stroke-width="2" stroke-miterlimit="10" d="M15.971,4.639
		c-0.002-1.934,0.694-3.186,2.702-3.468c2.367-0.333,5.503-0.234,7.635,0.807c3.306,1.615,4.61,5.756,7.813,7.309
		c1.857,0.9,4.008,0.075,4.921-1.875"/>
	<path fill="none" stroke="#000000" stroke-width="2" stroke-miterlimit="10" d="M40.651,7.768c1.405,0,3.343,0.118,4.562-0.625"/>
	<path fill="none" stroke="#000000" stroke-width="2" stroke-miterlimit="10" d="M39.845,6.249c0.352-0.622,1.896-1.938,2.594-2.145
		"/>
	<path fill="none" stroke="#000000" stroke-width="2" stroke-miterlimit="10" d="M38.059,5.623
		c-0.438-0.784-1.021-2.426-0.449-3.309"/>
	<path fill="none" stroke="#000000" stroke-width="2" stroke-miterlimit="10" d="M20.671,43.29c-7.828,0-14.174-6.347-14.174-14.177
		"/>
</g>
</svg>
