<?xml version="1.0" encoding="utf-8"?>
<!-- Generator: Adobe Illustrator 16.0.0, SVG Export Plug-In . SVG Version: 6.00 Build 0)  -->
<!DOCTYPE svg PUBLIC "-//W3C//DTD SVG 1.1//EN" "http://www.w3.org/Graphics/SVG/1.1/DTD/svg11.dtd">
<svg version="1.1" id="Layer_1" xmlns="http://www.w3.org/2000/svg" xmlns:xlink="http://www.w3.org/1999/xlink" x="0px" y="0px"
	 width="48px" height="48px" viewBox="0 0 48 48" enable-background="new 0 0 48 48" xml:space="preserve">
<g>
	
		<ellipse fill="none" stroke="#000000" stroke-width="2" stroke-linejoin="round" stroke-miterlimit="10" cx="40.055" cy="20.365" rx="6.945" ry="16.262"/>
	<path fill="none" stroke="#000000" stroke-width="2" stroke-linejoin="round" stroke-miterlimit="10" d="M33.11,20.365
		c0-7.063,1.927-13.056,4.612-15.304l0.002-0.017c-12.192,8.419-25.154,4.739-31.25,5.701C0.377,11.71,1.02,20.365,1.02,20.365
		s-0.642,8.655,5.455,9.617c0.406,0.063,0.847,0.106,1.312,0.135L4.093,43.896h9.335l3.73-13.916
		c6.112,0.004,13.468,0.803,20.566,5.703l-0.002-0.017C35.037,33.419,33.11,27.427,33.11,20.365z"/>
	
		<rect x="5.248" y="17.241" fill="none" stroke="#000000" stroke-width="2" stroke-linejoin="round" stroke-miterlimit="10" width="4.616" height="4.616"/>
	
		<rect x="12.8" y="17.241" fill="none" stroke="#000000" stroke-width="2" stroke-linejoin="round" stroke-miterlimit="10" width="4.617" height="4.616"/>
</g>
</svg>
