<?xml version="1.0" encoding="utf-8"?>
<!-- Generator: Adobe Illustrator 16.0.0, SVG Export Plug-In . SVG Version: 6.00 Build 0)  -->
<!DOCTYPE svg PUBLIC "-//W3C//DTD SVG 1.1//EN" "http://www.w3.org/Graphics/SVG/1.1/DTD/svg11.dtd">
<svg version="1.1" id="Layer_1" xmlns="http://www.w3.org/2000/svg" xmlns:xlink="http://www.w3.org/1999/xlink" x="0px" y="0px"
	 width="48px" height="48px" viewBox="0 0 48 48" enable-background="new 0 0 48 48" xml:space="preserve">
<g>
	<polygon fill="none" stroke="#000000" stroke-width="2" stroke-linejoin="round" stroke-miterlimit="10" points="21.629,32.702 
		16.106,24.945 30.923,15.122 35.799,17.603 36.182,23.055 	"/>
	<g>
		<g>
			
				<line fill="none" stroke="#000000" stroke-width="2" stroke-linejoin="round" stroke-miterlimit="10" x1="27.723" y1="13.717" x2="19.293" y2="1"/>
			
				<line fill="none" stroke="#000000" stroke-width="2" stroke-linejoin="round" stroke-miterlimit="10" x1="24.807" y1="15.65" x2="16.376" y2="2.936"/>
			
				<line fill="none" stroke="#000000" stroke-width="2" stroke-linejoin="round" stroke-miterlimit="10" x1="21.89" y1="17.583" x2="13.46" y2="4.867"/>
			
				<line fill="none" stroke="#000000" stroke-width="2" stroke-linejoin="round" stroke-miterlimit="10" x1="18.974" y1="19.517" x2="10.543" y2="6.801"/>
			
				<line fill="none" stroke="#000000" stroke-width="2" stroke-linejoin="round" stroke-miterlimit="10" x1="16.056" y1="21.451" x2="7.626" y2="8.736"/>
		</g>
		<g>
			
				<line fill="none" stroke="#000000" stroke-width="2" stroke-linejoin="round" stroke-miterlimit="10" x1="44.662" y1="39.266" x2="36.23" y2="26.548"/>
			
				<line fill="none" stroke="#000000" stroke-width="2" stroke-linejoin="round" stroke-miterlimit="10" x1="41.745" y1="41.199" x2="33.313" y2="28.482"/>
			
				<line fill="none" stroke="#000000" stroke-width="2" stroke-linejoin="round" stroke-miterlimit="10" x1="38.829" y1="43.133" x2="30.396" y2="30.416"/>
			
				<line fill="none" stroke="#000000" stroke-width="2" stroke-linejoin="round" stroke-miterlimit="10" x1="35.913" y1="45.066" x2="27.48" y2="32.348"/>
			
				<line fill="none" stroke="#000000" stroke-width="2" stroke-linejoin="round" stroke-miterlimit="10" x1="32.995" y1="47" x2="24.563" y2="34.283"/>
		</g>
	</g>
	<path fill="none" stroke="#000000" stroke-width="2" stroke-linejoin="round" stroke-miterlimit="10" d="M16.833,30.197
		l0.021-0.013c-0.006-0.004-0.015-0.006-0.022-0.01c-0.001-0.009,0-0.017-0.001-0.026l-0.021,0.016
		c-4.018-2.106-13.471,1.775-13.471,1.775l3.294,4.97l0.023,0.038l3.296,4.967C9.952,41.914,17.209,34.718,16.833,30.197z"/>
</g>
</svg>
