<?xml version="1.0" encoding="utf-8"?>
<!-- Generator: Adobe Illustrator 16.0.0, SVG Export Plug-In . SVG Version: 6.00 Build 0)  -->
<!DOCTYPE svg PUBLIC "-//W3C//DTD SVG 1.1//EN" "http://www.w3.org/Graphics/SVG/1.1/DTD/svg11.dtd">
<svg version="1.1" id="Layer_1" xmlns="http://www.w3.org/2000/svg" xmlns:xlink="http://www.w3.org/1999/xlink" x="0px" y="0px"
	 width="48px" height="48px" viewBox="0 0 48 48" enable-background="new 0 0 48 48" xml:space="preserve">
<g>
	<g>
		<path fill="none" stroke="#000000" stroke-width="2" stroke-miterlimit="10" d="M47,40c0,3.85-3.15,7-7,7H8c-3.85,0-7-3.15-7-7
			V16.137c0-3.85,3.15-7,7-7h32c3.85,0,7,3.15,7,7V40z"/>
	</g>
	<path fill="none" stroke="#000000" stroke-width="2" stroke-miterlimit="10" d="M11.91,9.348V6.699C11.91,3.564,14.174,1,16.941,1
		h14.117c2.768,0,5.031,2.564,5.031,5.699v2.649"/>
	<line fill="none" stroke="#000000" stroke-width="2" stroke-miterlimit="10" x1="1.231" y1="24.535" x2="46.769" y2="24.535"/>
	
		<rect x="19.129" y="24.535" fill="none" stroke="#000000" stroke-width="2" stroke-miterlimit="10" width="9.742" height="11.947"/>
	<g>
		<line fill="none" stroke="#000000" stroke-width="2" stroke-miterlimit="10" x1="7.556" y1="17.044" x2="14.616" y2="17.044"/>
		<line fill="none" stroke="#000000" stroke-width="2" stroke-miterlimit="10" x1="33.384" y1="17.044" x2="40.444" y2="17.044"/>
	</g>
</g>
</svg>
