<?xml version="1.0" encoding="utf-8"?>
<!-- Generator: Adobe Illustrator 16.0.0, SVG Export Plug-In . SVG Version: 6.00 Build 0)  -->
<!DOCTYPE svg PUBLIC "-//W3C//DTD SVG 1.1//EN" "http://www.w3.org/Graphics/SVG/1.1/DTD/svg11.dtd">
<svg version="1.1" id="Layer_1" xmlns="http://www.w3.org/2000/svg" xmlns:xlink="http://www.w3.org/1999/xlink" x="0px" y="0px"
	 width="48px" height="48px" viewBox="0 0 48 48" enable-background="new 0 0 48 48" xml:space="preserve">
<g>
	<path fill="none" stroke="#000000" stroke-width="2" stroke-miterlimit="10" d="M9.421,37.561c4.649,0,8.419-3.844,8.419-8.585H1
		C1,33.717,4.77,37.561,9.421,37.561z"/>
	<line fill="none" stroke="#000000" stroke-width="2" stroke-miterlimit="10" x1="24.032" y1="0.601" x2="24.032" y2="46.598"/>
	<line fill="none" stroke="#000000" stroke-width="2" stroke-miterlimit="10" x1="14.991" y1="46.598" x2="33.072" y2="46.598"/>
	<line fill="none" stroke="#000000" stroke-width="2" stroke-miterlimit="10" x1="5.038" y1="7.103" x2="24.032" y2="3.9"/>
	<polyline fill="none" stroke="#000000" stroke-width="2" stroke-linejoin="round" stroke-miterlimit="10" points="17.807,28.58 
		9.421,6.618 1.034,28.58 	"/>
	<line fill="none" stroke="#000000" stroke-width="2" stroke-miterlimit="10" x1="9.421" y1="8.267" x2="9.421" y2="28.976"/>
	<path fill="none" stroke="#000000" stroke-width="2" stroke-miterlimit="10" d="M38.579,37.561c4.651,0,8.421-3.844,8.421-8.585
		H30.16C30.16,33.717,33.929,37.561,38.579,37.561z"/>
	<polyline fill="none" stroke="#000000" stroke-width="2" stroke-linejoin="round" stroke-miterlimit="10" points="46.967,28.58 
		38.579,6.618 30.193,28.58 	"/>
	<line fill="none" stroke="#000000" stroke-width="2" stroke-miterlimit="10" x1="38.579" y1="8.267" x2="38.579" y2="28.976"/>
	<line fill="none" stroke="#000000" stroke-width="2" stroke-miterlimit="10" x1="43.025" y1="7.103" x2="24.032" y2="3.9"/>
</g>
</svg>
