<?xml version="1.0" encoding="utf-8"?>
<!-- Generator: Adobe Illustrator 16.0.0, SVG Export Plug-In . SVG Version: 6.00 Build 0)  -->
<!DOCTYPE svg PUBLIC "-//W3C//DTD SVG 1.1//EN" "http://www.w3.org/Graphics/SVG/1.1/DTD/svg11.dtd">
<svg version="1.1" id="Layer_1" xmlns="http://www.w3.org/2000/svg" xmlns:xlink="http://www.w3.org/1999/xlink" x="0px" y="0px"
	 width="48px" height="48px" viewBox="0 0 48 48" enable-background="new 0 0 48 48" xml:space="preserve">
<g>
	<g>
		<path fill="none" stroke="#000000" stroke-width="2" stroke-miterlimit="10" d="M47,39.999c0,3.85-3.15,7-7,7H8
			c-3.85,0-7-3.15-7-7V22.794c0-3.85,3.15-7,7-7h32c3.85,0,7,3.15,7,7V39.999z"/>
	</g>
	<path fill="none" stroke="#000000" stroke-width="2" stroke-miterlimit="10" d="M7.921,15.794L21.66,1.971
		c1.287-1.293,3.394-1.293,4.68,0l13.739,13.823"/>
	<g>
		<path d="M11.582,34.37c0.77,0,1.401-0.305,1.891-0.917l1.006,1.039c-0.798,0.898-1.74,1.348-2.824,1.348
			c-1.082,0-1.975-0.343-2.675-1.027c-0.702-0.684-1.052-1.548-1.052-2.591S8.286,30.309,9,29.61
			c0.714-0.698,1.588-1.046,2.621-1.046c1.154,0,2.12,0.439,2.898,1.317l-0.977,1.106c-0.495-0.616-1.113-0.925-1.851-0.925
			c-0.59,0-1.095,0.192-1.513,0.578c-0.42,0.386-0.629,0.906-0.629,1.56c0,0.655,0.197,1.179,0.594,1.576
			C10.539,34.172,11.018,34.37,11.582,34.37z"/>
		<path d="M15.718,35.759v-7.033h1.57v5.634h2.998v1.399H15.718z"/>
		<path d="M27.157,34.788c-0.711,0.694-1.587,1.04-2.626,1.04c-1.04,0-1.916-0.346-2.626-1.04c-0.711-0.694-1.066-1.56-1.066-2.593
			s0.355-1.896,1.066-2.589c0.71-0.696,1.586-1.042,2.626-1.042c1.039,0,1.915,0.346,2.626,1.042
			c0.712,0.693,1.067,1.556,1.067,2.589S27.869,34.094,27.157,34.788z M26.625,32.201c0-0.627-0.202-1.162-0.605-1.604
			c-0.4-0.443-0.896-0.664-1.483-0.664s-1.081,0.221-1.483,0.664c-0.403,0.442-0.604,0.978-0.604,1.604
			c0,0.629,0.201,1.162,0.604,1.601c0.402,0.439,0.896,0.658,1.483,0.658s1.083-0.219,1.483-0.658
			C26.423,33.363,26.625,32.83,26.625,32.201z"/>
		<path d="M31.139,30.129c-0.151,0.124-0.229,0.288-0.229,0.492s0.094,0.367,0.279,0.488c0.184,0.12,0.608,0.265,1.276,0.429
			c0.667,0.163,1.185,0.41,1.555,0.739c0.369,0.328,0.555,0.809,0.555,1.439c0,0.629-0.237,1.141-0.711,1.533
			c-0.473,0.394-1.094,0.59-1.865,0.59c-1.114,0-2.117-0.414-3.01-1.239l0.937-1.147c0.758,0.665,1.458,0.998,2.103,0.998
			c0.288,0,0.516-0.063,0.679-0.188c0.165-0.123,0.246-0.292,0.246-0.502c0-0.213-0.087-0.38-0.261-0.503
			c-0.174-0.126-0.52-0.249-1.036-0.378c-0.818-0.195-1.418-0.447-1.797-0.759c-0.379-0.314-0.568-0.803-0.568-1.471
			c0-0.666,0.24-1.182,0.72-1.544c0.479-0.361,1.078-0.543,1.796-0.543c0.471,0,0.939,0.08,1.41,0.241
			c0.468,0.161,0.878,0.39,1.226,0.684l-0.794,1.147c-0.61-0.463-1.24-0.693-1.892-0.693C31.494,29.943,31.289,30.006,31.139,30.129
			z"/>
		<path d="M40.983,28.726v1.397h-3.501v1.449h3.15v1.338h-3.15v1.46h3.612v1.389h-5.182v-7.033H40.983z"/>
	</g>
</g>
</svg>
