<?xml version="1.0" encoding="utf-8"?>
<!-- Generator: Adobe Illustrator 16.0.0, SVG Export Plug-In . SVG Version: 6.00 Build 0)  -->
<!DOCTYPE svg PUBLIC "-//W3C//DTD SVG 1.1//EN" "http://www.w3.org/Graphics/SVG/1.1/DTD/svg11.dtd">
<svg version="1.1" id="Layer_1" xmlns="http://www.w3.org/2000/svg" xmlns:xlink="http://www.w3.org/1999/xlink" x="0px" y="0px"
	 width="48px" height="48px" viewBox="0 0 48 48" enable-background="new 0 0 48 48" xml:space="preserve">
<g>
	<g>
		<g>
			<path fill="none" stroke="#000000" stroke-width="2" stroke-miterlimit="10" d="M47,39.999c0,3.85-3.15,7-7,7H8
				c-3.85,0-7-3.15-7-7V22.794c0-3.85,3.15-7,7-7h32c3.85,0,7,3.15,7,7V39.999z"/>
		</g>
		<path fill="none" stroke="#000000" stroke-width="2" stroke-miterlimit="10" d="M7.921,15.794L21.659,1.971
			c1.288-1.293,3.396-1.293,4.682,0l13.738,13.823"/>
	</g>
	<g>
		<path d="M14.09,29.489c-0.15,0.123-0.226,0.288-0.226,0.492s0.092,0.366,0.277,0.488c0.185,0.12,0.61,0.264,1.278,0.429
			c0.667,0.163,1.185,0.41,1.555,0.739c0.369,0.327,0.553,0.809,0.553,1.439c0,0.629-0.236,1.14-0.709,1.533
			c-0.473,0.393-1.095,0.589-1.866,0.589c-1.114,0-2.117-0.413-3.009-1.238l0.935-1.147c0.758,0.664,1.46,0.997,2.104,0.997
			c0.288,0,0.515-0.062,0.68-0.187c0.164-0.124,0.246-0.292,0.246-0.502c0-0.214-0.087-0.38-0.261-0.504
			c-0.175-0.125-0.521-0.249-1.037-0.378c-0.818-0.194-1.417-0.447-1.796-0.758c-0.379-0.314-0.569-0.803-0.569-1.472
			c0-0.666,0.24-1.181,0.72-1.544c0.479-0.361,1.078-0.543,1.796-0.543c0.47,0,0.939,0.081,1.408,0.242
			c0.47,0.16,0.88,0.389,1.228,0.683l-0.794,1.147c-0.61-0.462-1.242-0.692-1.893-0.692C14.448,29.304,14.242,29.365,14.09,29.489z"
			/>
		<path d="M23.796,35.119l-0.654-1.52h-2.948l-0.654,1.52h-1.67l3.039-7.034h1.52l3.039,7.034H23.796z M21.672,30.178l-0.885,2.042
			h1.761L21.672,30.178z"/>
		<path d="M26.28,35.119v-7.034h1.571v5.634h2.998v1.4H26.28z"/>
		<path d="M37.067,28.085v1.398h-3.501v1.448h3.149v1.339h-3.149v1.46h3.612v1.389h-5.182v-7.034H37.067z"/>
	</g>
</g>
</svg>
