<?xml version="1.0" encoding="utf-8"?>
<!-- Generator: Adobe Illustrator 16.0.0, SVG Export Plug-In . SVG Version: 6.00 Build 0)  -->
<!DOCTYPE svg PUBLIC "-//W3C//DTD SVG 1.1//EN" "http://www.w3.org/Graphics/SVG/1.1/DTD/svg11.dtd">
<svg version="1.1" id="Layer_1" xmlns="http://www.w3.org/2000/svg" xmlns:xlink="http://www.w3.org/1999/xlink" x="0px" y="0px"
	 width="48px" height="48px" viewBox="0 0 48 48" enable-background="new 0 0 48 48" xml:space="preserve">
<g>
	<g>
		<path fill="none" stroke="#000000" stroke-width="2" stroke-miterlimit="10" d="M47,34.216c0,3.85-3.15,7-7,7H8
			c-3.85,0-7-3.15-7-7V19.71c0-3.85,3.15-7,7-7h32c3.85,0,7,3.15,7,7V34.216z"/>
	</g>
	<circle fill="none" stroke="#000000" stroke-width="2" stroke-miterlimit="10" cx="15.596" cy="26.962" r="10.427"/>
	<circle fill="none" stroke="#000000" stroke-width="2" stroke-miterlimit="10" cx="38.304" cy="19.108" r="2.995"/>
	<circle fill="none" stroke="#000000" stroke-width="2" stroke-miterlimit="10" cx="38.304" cy="26.962" r="2.995"/>
	<circle fill="none" stroke="#000000" stroke-width="2" stroke-miterlimit="10" cx="38.304" cy="34.815" r="2.995"/>
	<g>
		<line fill="none" stroke="#000000" stroke-width="2" stroke-miterlimit="10" x1="7.313" y1="43.46" x2="11.107" y2="43.46"/>
		<line fill="none" stroke="#000000" stroke-width="2" stroke-miterlimit="10" x1="36.893" y1="43.46" x2="40.688" y2="43.46"/>
	</g>
	<polyline fill="none" stroke="#000000" stroke-width="2" stroke-miterlimit="10" points="40.139,12.71 40.139,10.442 5.73,4.541 	
		"/>
</g>
</svg>
