<?xml version="1.0" encoding="utf-8"?>
<!-- Generator: Adobe Illustrator 16.0.0, SVG Export Plug-In . SVG Version: 6.00 Build 0)  -->
<!DOCTYPE svg PUBLIC "-//W3C//DTD SVG 1.1//EN" "http://www.w3.org/Graphics/SVG/1.1/DTD/svg11.dtd">
<svg version="1.1" id="Layer_1" xmlns="http://www.w3.org/2000/svg" xmlns:xlink="http://www.w3.org/1999/xlink" x="0px" y="0px"
	 width="48px" height="48px" viewBox="0 0 48 48" enable-background="new 0 0 48 48" xml:space="preserve">
<g>
	<path fill="none" stroke="#000000" stroke-width="2" stroke-miterlimit="10" d="M45.563,20.406h-4.03
		c-0.463-2.272-1.359-4.387-2.597-6.259l2.853-2.853c0.559-0.56,0.559-1.475,0-2.033l-3.049-3.049c-0.56-0.56-1.476-0.56-2.033,0
		l-2.853,2.853c-1.871-1.237-3.986-2.134-6.26-2.598v-4.03c0-0.79-0.646-1.438-1.438-1.438h-4.313c-0.791,0-1.438,0.647-1.438,1.438
		v4.03c-2.273,0.464-4.388,1.361-6.26,2.598l-2.853-2.853c-0.558-0.56-1.473-0.56-2.033,0L6.212,9.262
		c-0.559,0.558-0.559,1.473,0,2.033l2.853,2.853c-1.237,1.872-2.134,3.987-2.597,6.259h-4.03C1.646,20.406,1,21.054,1,21.844v4.313
		c0,0.79,0.646,1.438,1.438,1.438h4.03c0.463,2.274,1.36,4.39,2.597,6.259l-2.853,2.853c-0.559,0.56-0.559,1.476,0,2.033
		l3.049,3.051c0.56,0.56,1.475,0.56,2.033,0l2.853-2.853c1.872,1.235,3.987,2.134,6.26,2.598v4.028c0,0.79,0.646,1.438,1.438,1.438
		h4.313c0.791,0,1.438-0.647,1.438-1.438v-4.028c2.273-0.464,4.389-1.362,6.26-2.598l2.853,2.853c0.558,0.56,1.474,0.56,2.033,0
		l3.049-3.051c0.559-0.558,0.559-1.474,0-2.033l-2.853-2.853c1.237-1.869,2.134-3.984,2.597-6.259h4.03
		c0.791,0,1.438-0.647,1.438-1.438v-4.313C47,21.054,46.354,20.406,45.563,20.406z M24,33.042c-4.993,0-9.042-4.048-9.042-9.042
		c0-4.994,4.049-9.042,9.042-9.042c4.993,0,9.041,4.049,9.041,9.042C33.041,28.994,28.993,33.042,24,33.042z"/>
</g>
</svg>
