<?xml version="1.0" encoding="utf-8"?>
<!-- Generator: Adobe Illustrator 16.0.0, SVG Export Plug-In . SVG Version: 6.00 Build 0)  -->
<!DOCTYPE svg PUBLIC "-//W3C//DTD SVG 1.1//EN" "http://www.w3.org/Graphics/SVG/1.1/DTD/svg11.dtd">
<svg version="1.1" id="Layer_1" xmlns="http://www.w3.org/2000/svg" xmlns:xlink="http://www.w3.org/1999/xlink" x="0px" y="0px"
	 width="48px" height="48px" viewBox="0 0 48 48" enable-background="new 0 0 48 48" xml:space="preserve">
<g>
	<g>
		<ellipse fill="none" stroke="#000000" stroke-width="2" stroke-miterlimit="10" cx="23.999" cy="24" rx="7.178" ry="23"/>
		<path fill="none" stroke="#000000" stroke-width="2" stroke-miterlimit="10" d="M4.049,35.465
			c-1.972-3.442,5.361-11.36,16.379-17.687s21.55-8.666,23.522-5.224c1.973,3.438-5.36,11.356-16.378,17.682
			C16.554,36.563,6.022,38.904,4.049,35.465z"/>
		<path fill="none" stroke="#000000" stroke-width="2" stroke-miterlimit="10" d="M4.329,12.077
			c2.057-3.392,12.534-0.799,23.397,5.789c10.864,6.587,18.004,14.679,15.945,18.07c-2.058,3.388-12.534,0.797-23.397-5.792
			C9.409,23.557,2.269,15.467,4.329,12.077z"/>
	</g>
	<circle fill="none" stroke="#000000" stroke-width="2" stroke-miterlimit="10" cx="24" cy="24" r="3.291"/>
</g>
</svg>
