<?xml version="1.0" encoding="utf-8"?>
<!-- Generator: Adobe Illustrator 16.0.0, SVG Export Plug-In . SVG Version: 6.00 Build 0)  -->
<!DOCTYPE svg PUBLIC "-//W3C//DTD SVG 1.1//EN" "http://www.w3.org/Graphics/SVG/1.1/DTD/svg11.dtd">
<svg version="1.1" id="Layer_1" xmlns="http://www.w3.org/2000/svg" xmlns:xlink="http://www.w3.org/1999/xlink" x="0px" y="0px"
	 width="48px" height="48px" viewBox="0 0 48 48" enable-background="new 0 0 48 48" xml:space="preserve">
<g>
	<g>
		<path d="M24,5.472L43.764,45H4.236L24,5.472 M24,1L1,47h46L24,1L24,1z"/>
	</g>
	<g>
		<path d="M22.237,23.88h3.525v2.468l-0.598,7.167h-2.349l-0.579-7.167V23.88z M22.745,37.446c-0.338-0.337-0.508-0.752-0.508-1.242
			c0-0.492,0.17-0.908,0.508-1.245c0.338-0.339,0.752-0.507,1.244-0.507s0.907,0.168,1.245,0.507
			c0.339,0.337,0.507,0.753,0.507,1.245c0,0.49-0.168,0.905-0.507,1.242c-0.338,0.339-0.753,0.51-1.245,0.51
			S23.083,37.785,22.745,37.446z"/>
	</g>
</g>
</svg>
