<?xml version="1.0" encoding="utf-8"?>
<!-- Generator: Adobe Illustrator 16.0.0, SVG Export Plug-In . SVG Version: 6.00 Build 0)  -->
<!DOCTYPE svg PUBLIC "-//W3C//DTD SVG 1.1//EN" "http://www.w3.org/Graphics/SVG/1.1/DTD/svg11.dtd">
<svg version="1.1" id="Layer_1" xmlns="http://www.w3.org/2000/svg" xmlns:xlink="http://www.w3.org/1999/xlink" x="0px" y="0px"
	 width="48px" height="48px" viewBox="0 0 48 48" enable-background="new 0 0 48 48" xml:space="preserve">
<g>
	<g>
		<path fill="none" stroke="#000000" stroke-width="2" stroke-linejoin="round" stroke-miterlimit="10" d="M47,40c0,3.85-3.15,7-7,7
			H8c-3.85,0-7-3.15-7-7V8c0-3.85,3.15-7,7-7h32c3.85,0,7,3.15,7,7V40z"/>
	</g>
	<g>
		<g>
			<polyline fill="none" stroke="#000000" stroke-width="2" stroke-linejoin="round" points="4.309,36.411 15.23,24 21.187,33.103 
				31.777,16.554 37.402,24 43.115,11.525 			"/>
			<g>
				<path stroke="#000000" stroke-miterlimit="10" d="M44.861,20.97c-0.314,0.043-0.604-0.178-0.648-0.492l-1.207-8.715l-7.386,4.78
					c-0.267,0.172-0.624,0.097-0.796-0.17c-0.171-0.266-0.094-0.623,0.17-0.795l8.145-5.269c0.165-0.106,0.373-0.124,0.552-0.039
					c0.179,0.081,0.304,0.247,0.331,0.443l1.331,9.608c0.016,0.112-0.003,0.223-0.047,0.318
					C45.227,20.811,45.063,20.939,44.861,20.97z"/>
			</g>
		</g>
	</g>
</g>
</svg>
