<?xml version="1.0" encoding="utf-8"?>
<!-- Generator: Adobe Illustrator 16.0.0, SVG Export Plug-In . SVG Version: 6.00 Build 0)  -->
<!DOCTYPE svg PUBLIC "-//W3C//DTD SVG 1.1//EN" "http://www.w3.org/Graphics/SVG/1.1/DTD/svg11.dtd">
<svg version="1.1" id="Layer_1" xmlns="http://www.w3.org/2000/svg" xmlns:xlink="http://www.w3.org/1999/xlink" x="0px" y="0px"
	 width="48px" height="48px" viewBox="0 0 48 48" enable-background="new 0 0 48 48" xml:space="preserve">
<g>
	<path fill="none" stroke="#000000" stroke-width="2" stroke-miterlimit="10" d="M32.067,40.231V4.298
		C32.067,2.486,30.582,1,28.769,1H9.649C7.835,1,6.352,2.486,6.352,4.298v35.934H1.579V47H36.84v-6.769H32.067z"/>
	
		<rect x="13.184" y="8.435" fill="none" stroke="#000000" stroke-width="2" stroke-miterlimit="10" width="12.049" height="13.538"/>
	<path fill="none" stroke="#000000" stroke-width="2" stroke-miterlimit="10" d="M31.771,26.695c4.127,0.037,5.604,3.069,7.12,6.481
		c0.688,1.55,1.276,3.483,2.448,4.702c1,1.039,3.486,1.832,4.481,0.5c1.881-2.518-1.163-7.135-2.252-9.366
		c-1.742-3.569-1.313-7.171-2.042-11.019"/>
	<path fill="none" stroke="#000000" stroke-width="2" stroke-miterlimit="10" d="M34.28,8.814c0,0,10.619,3.562,7.381,9.967
		l-4.821-1.688C36.84,17.093,38.232,10.789,34.28,8.814z"/>
</g>
</svg>
