<?xml version="1.0" encoding="utf-8"?>
<!-- Generator: Adobe Illustrator 16.0.0, SVG Export Plug-In . SVG Version: 6.00 Build 0)  -->
<!DOCTYPE svg PUBLIC "-//W3C//DTD SVG 1.1//EN" "http://www.w3.org/Graphics/SVG/1.1/DTD/svg11.dtd">
<svg version="1.1" id="Layer_1" xmlns="http://www.w3.org/2000/svg" xmlns:xlink="http://www.w3.org/1999/xlink" x="0px" y="0px"
	 width="48px" height="48px" viewBox="0 0 48 48" enable-background="new 0 0 48 48" xml:space="preserve">
<g>
	<path fill="none" stroke="#000000" stroke-width="2" stroke-linejoin="round" stroke-miterlimit="10" d="M40.193,30.212
		c-0.993-0.739-2.081-1.108-3.157-1.695c-1.299-0.705-2.233-1.468-3.125-2.622c-0.963-1.241-1.66-2.853-1.66-2.853
		c-0.543-3.594-4.357-5.964-7.835-6.104c-1.761-0.072-3.456,0.432-4.889,1.27c-1.692,0.992-2.375,2.505-3.087,4.257
		c-0.872,2.136-1.837,4.206-3.63,5.623c-1.792,1.412-3.77,2.47-5.51,3.93c-2.111,1.769-2.948,3.236-2.818,6.008
		c0.127,2.713,1.575,4.425,3.57,6.243c2.132,1.941,6.374,2.391,9.108,2.393c1.097,0,2.289,0.112,3.341-0.143
		c1.279-0.312,2.249-1.199,3.433-1.654c2.307-0.882,4.555-0.32,6.901,0.184c1.453,0.31,2.686,0.979,4.175,1.149
		c1.353,0.159,2.953-0.1,4.275-0.37c5.845-1.196,5.109-8.918,3.079-12.881C41.757,31.763,41.331,31.054,40.193,30.212z"/>
	<path fill="none" stroke="#000000" stroke-width="2" stroke-linejoin="round" stroke-miterlimit="10" d="M8.66,26.731
		c2.867-0.838,4.265-4.688,3.122-8.598c-1.144-3.912-4.394-6.402-7.262-5.563c-2.865,0.838-4.263,4.688-3.121,8.599
		C2.542,25.077,5.792,27.569,8.66,26.731z"/>
	<path fill="none" stroke="#000000" stroke-width="2" stroke-linejoin="round" stroke-miterlimit="10" d="M17.637,16.051
		c3.172-0.098,5.629-3.478,5.487-7.545c-0.142-4.069-2.829-7.287-5.998-7.189c-3.172,0.098-5.627,3.476-5.487,7.547
		C11.78,12.931,14.467,16.15,17.637,16.051z"/>
	<path fill="none" stroke="#000000" stroke-width="2" stroke-linejoin="round" stroke-miterlimit="10" d="M28.595,15.489
		c2.925,1.229,6.563-0.818,8.131-4.576c1.566-3.757,0.465-7.802-2.459-9.033s-6.564,0.818-8.131,4.577
		C24.569,10.211,25.67,14.256,28.595,15.489z"/>
	<path fill="none" stroke="#000000" stroke-width="2" stroke-linejoin="round" stroke-miterlimit="10" d="M43.828,12.848
		c-2.924-1.233-6.565,0.816-8.13,4.575c-1.566,3.757-0.468,7.801,2.457,9.032c2.926,1.23,6.565-0.817,8.132-4.574
		C47.854,18.122,46.753,14.079,43.828,12.848z"/>
</g>
</svg>
