<?xml version="1.0" encoding="utf-8"?>
<!-- Generator: Adobe Illustrator 16.0.0, SVG Export Plug-In . SVG Version: 6.00 Build 0)  -->
<!DOCTYPE svg PUBLIC "-//W3C//DTD SVG 1.1//EN" "http://www.w3.org/Graphics/SVG/1.1/DTD/svg11.dtd">
<svg version="1.1" id="Layer_1" xmlns="http://www.w3.org/2000/svg" xmlns:xlink="http://www.w3.org/1999/xlink" x="0px" y="0px"
	 width="48px" height="48px" viewBox="0 0 48 48" enable-background="new 0 0 48 48" xml:space="preserve">
<g>
	<path fill="none" stroke="#000000" stroke-width="2" stroke-linejoin="round" stroke-miterlimit="10" d="M15.629,17.17
		c-0.929,1.402-1.471,3.083-1.471,4.891c0,1.712,0.496,3.307,1.338,4.663h-1.608v3.347"/>
	<path fill="none" stroke="#000000" stroke-width="2" stroke-linejoin="round" stroke-miterlimit="10" d="M27.193,14.252
		c-1.246-0.668-2.669-1.046-4.18-1.046c-2.162,0-4.141,0.775-5.678,2.061"/>
	<path fill="none" stroke="#000000" stroke-width="2" stroke-linejoin="round" stroke-miterlimit="10" d="M31.094,25.664
		c0.496-1.101,0.774-2.319,0.774-3.603c0-2.479-1.017-4.717-2.655-6.323"/>
	<polyline fill="none" stroke="#000000" stroke-width="2" stroke-linejoin="round" stroke-miterlimit="10" points="13.889,35.302 
		13.889,47 32.139,47 32.139,30.152 	"/>
	
		<ellipse fill="none" stroke="#000000" stroke-width="2" stroke-linejoin="round" stroke-miterlimit="10" cx="23.013" cy="39.565" rx="3.582" ry="5.001"/>
	<g>
		<polygon fill="none" stroke="#000000" stroke-width="2" stroke-linejoin="round" stroke-miterlimit="10" points="7.332,3.619 
			3.247,9.161 23.148,22.035 		"/>
		<polygon fill="none" stroke="#000000" stroke-width="2" stroke-linejoin="round" stroke-miterlimit="10" points="34.078,1 
			23.15,22.035 39.982,4.542 		"/>
		<polygon fill="none" stroke="#000000" stroke-width="2" stroke-linejoin="round" stroke-miterlimit="10" points="44.753,31.792 
			23.15,22.035 23.15,22.035 23.15,22.035 23.15,22.035 23.15,22.035 4.359,37.403 9.801,41.622 23.15,22.035 41.541,37.881 		"/>
	</g>
</g>
</svg>
