<?xml version="1.0" encoding="utf-8"?>
<!-- Generator: Adobe Illustrator 16.0.0, SVG Export Plug-In . SVG Version: 6.00 Build 0)  -->
<!DOCTYPE svg PUBLIC "-//W3C//DTD SVG 1.1//EN" "http://www.w3.org/Graphics/SVG/1.1/DTD/svg11.dtd">
<svg version="1.1" id="Layer_1" xmlns="http://www.w3.org/2000/svg" xmlns:xlink="http://www.w3.org/1999/xlink" x="0px" y="0px"
	 width="48px" height="48px" viewBox="0 0 48 48" enable-background="new 0 0 48 48" xml:space="preserve">
<g>
	<g>
		<path fill="none" stroke="#000000" stroke-width="2" stroke-miterlimit="10" d="M1,37.044v2.84C1,43.798,3.257,47,6.016,47h27.609
			C40.98,47,47,37.044,47,37.044H1z"/>
		<line fill="none" stroke="#000000" stroke-width="2" stroke-miterlimit="10" x1="22.178" y1="31.218" x2="22.178" y2="37.016"/>
		<line fill="none" stroke="#000000" stroke-width="2" stroke-miterlimit="10" x1="22.178" y1="1" x2="22.178" y2="4.448"/>
		<g>
			<line fill="none" stroke="#000000" stroke-width="2" stroke-miterlimit="10" x1="33.226" y1="4.244" x2="8.047" y2="4.244"/>
			<line fill="none" stroke="#000000" stroke-width="2" stroke-miterlimit="10" x1="11.044" y1="31.608" x2="36.395" y2="31.608"/>
			<path fill="none" stroke="#000000" stroke-width="2" stroke-miterlimit="10" d="M8.416,4.092c0,0,3.588,3.684,4.255,10.483
				c0.668,6.798-5.951,6.39-1.066,17.13"/>
			<path fill="none" stroke="#000000" stroke-width="2" stroke-miterlimit="10" d="M14.493,4.092c0,0,3.586,3.684,4.254,10.483
				c0.668,6.798-5.951,6.39-1.066,17.13"/>
			<path fill="none" stroke="#000000" stroke-width="2" stroke-miterlimit="10" d="M20.569,4.092c0,0,3.586,3.684,4.253,10.483
				c0.669,6.798-5.951,6.39-1.065,17.13"/>
			<path fill="none" stroke="#000000" stroke-width="2" stroke-miterlimit="10" d="M26.645,4.092c0,0,3.586,3.684,4.255,10.483
				c0.666,6.798-5.952,6.39-1.067,17.13"/>
			<path fill="none" stroke="#000000" stroke-width="2" stroke-miterlimit="10" d="M32.721,4.092c0,0,3.586,3.684,4.253,10.483
				c0.669,6.798-5.951,6.39-1.065,17.13"/>
		</g>
	</g>
	<circle fill="none" stroke="#000000" stroke-width="2" stroke-miterlimit="10" cx="5.321" cy="32.011" r="2.634"/>
	<circle fill="none" stroke="#000000" stroke-width="2" stroke-miterlimit="10" cx="42.293" cy="32.011" r="2.634"/>
</g>
</svg>
