<?xml version="1.0" encoding="utf-8"?>
<!-- Generator: Adobe Illustrator 16.0.0, SVG Export Plug-In . SVG Version: 6.00 Build 0)  -->
<!DOCTYPE svg PUBLIC "-//W3C//DTD SVG 1.1//EN" "http://www.w3.org/Graphics/SVG/1.1/DTD/svg11.dtd">
<svg version="1.1" id="Layer_1" xmlns="http://www.w3.org/2000/svg" xmlns:xlink="http://www.w3.org/1999/xlink" x="0px" y="0px"
	 width="48px" height="48px" viewBox="0 0 48 48" enable-background="new 0 0 48 48" xml:space="preserve">
<g>
	<path fill="none" stroke="#000000" stroke-width="2" stroke-linejoin="round" stroke-miterlimit="10" d="M1,13.382
		c0,0,16.412,3.9,24.048-7.515c0,0,5.155,31.091-6.356,34.127C7.349,42.983,1,13.382,1,13.382z"/>
	<path fill="none" stroke="#000000" stroke-width="2" stroke-linejoin="round" stroke-miterlimit="10" d="M7.368,21.202
		c0,0,4.028,4.195,5.996-2.012"/>
	<path fill="none" stroke="#000000" stroke-width="2" stroke-linejoin="round" stroke-miterlimit="10" d="M22.428,14.93
		c0,0-1.463,6.312-5.843,2.851"/>
	<path fill="none" stroke="#000000" stroke-width="2" stroke-linejoin="round" stroke-miterlimit="10" d="M22.759,30.072
		c0,0-4.688-5.668-9.458,4.235"/>
	<path fill="none" stroke="#000000" stroke-width="2" stroke-linejoin="round" stroke-miterlimit="10" d="M25.613,10.465
		C29.342,14.93,39.277,18.917,47,14.514c0,0-5.901,30.878-17.321,27.336c-2.813-0.872-4.619-2.802-5.89-6.757"/>
	<path fill="none" stroke="#000000" stroke-width="2" stroke-linejoin="round" stroke-miterlimit="10" d="M26.416,20.893
		c0,0,4.118-5.157,6.172,0.562"/>
	<path fill="none" stroke="#000000" stroke-width="2" stroke-linejoin="round" stroke-miterlimit="10" d="M41.75,23.492
		c0,0-3.07-6.206-6.141-1.417"/>
	<path fill="none" stroke="#000000" stroke-width="2" stroke-linejoin="round" stroke-miterlimit="10" d="M37.039,32.035
		c0,0-3.673,6.746-9.966-1.703"/>
</g>
</svg>
