<?xml version="1.0" encoding="utf-8"?>
<!-- Generator: Adobe Illustrator 16.0.0, SVG Export Plug-In . SVG Version: 6.00 Build 0)  -->
<!DOCTYPE svg PUBLIC "-//W3C//DTD SVG 1.1//EN" "http://www.w3.org/Graphics/SVG/1.1/DTD/svg11.dtd">
<svg version="1.1" id="Layer_1" xmlns="http://www.w3.org/2000/svg" xmlns:xlink="http://www.w3.org/1999/xlink" x="0px" y="0px"
	 width="48px" height="48px" viewBox="0 0 48 48" enable-background="new 0 0 48 48" xml:space="preserve">
<g>
	<path fill="none" stroke="#000000" stroke-width="2" stroke-linejoin="round" stroke-miterlimit="10" d="M30.314,2.917
		c0,0,15.277,24.415-5.922,25.663c0,0-20.733,1.07-7.794-24.237l5.922,9.625c0,0-0.172-6.418,1.473-9.98c0,0,3.36,5.166,3.516,8.374
		C27.51,12.362,26.105,6.659,30.314,2.917z"/>
	<path fill="none" stroke="#000000" stroke-width="2" stroke-linejoin="round" stroke-miterlimit="10" d="M21.473,47
		c0,0-8.242-16.319-13.167-22.524C3.381,18.269,8.305,3.445,10.014,1.148c1.71-2.299-16.483,22.636-5.427,39.07L9.513,47H21.473z"/>
	<path fill="none" stroke="#000000" stroke-width="2" stroke-linejoin="round" stroke-miterlimit="10" d="M26.527,47
		c0,0,8.242-16.319,13.167-22.524c4.925-6.207,0-21.031-1.71-23.327c-1.709-2.299,16.484,22.636,5.429,39.07L38.488,47H26.527z"/>
	
		<line fill="none" stroke="#000000" stroke-width="2" stroke-linejoin="round" stroke-miterlimit="10" x1="24.489" y1="28.58" x2="24.489" y2="47"/>
</g>
</svg>
