<?xml version="1.0" encoding="utf-8"?>
<!-- Generator: Adobe Illustrator 16.0.0, SVG Export Plug-In . SVG Version: 6.00 Build 0)  -->
<!DOCTYPE svg PUBLIC "-//W3C//DTD SVG 1.1//EN" "http://www.w3.org/Graphics/SVG/1.1/DTD/svg11.dtd">
<svg version="1.1" id="Layer_1" xmlns="http://www.w3.org/2000/svg" xmlns:xlink="http://www.w3.org/1999/xlink" x="0px" y="0px"
	 width="48px" height="48px" viewBox="0 0 48 48" enable-background="new 0 0 48 48" xml:space="preserve">
<g>
	<path fill="none" stroke="#000000" stroke-width="2" stroke-linejoin="round" stroke-miterlimit="10" d="M11.352,15.113
		c0,0,0.136-14.113,14.791-14.113c14.654,0,15.334,10.313,15.469,11.67c0.136,1.357,0,19.133,0,19.133s-3.392,3.528-3.12,5.291
		c0.271,1.765,0,9.905,0,9.905h-22.39c0,0,1.357-10.312-0.949-13.297c-2.308-2.985-8.685-8.685-8.821-11.94
		c-0.136-3.257,4.206-4.75,4.206-4.75L11.352,15.113z"/>
	<path fill="none" stroke="#000000" stroke-width="2" stroke-linejoin="round" stroke-miterlimit="10" d="M11.401,15.888
		c0,0,12.977,10.081,26.004-1.589"/>
	
		<line fill="none" stroke="#000000" stroke-width="2" stroke-linejoin="round" stroke-miterlimit="10" x1="16.292" y1="41.714" x2="30.02" y2="41.714"/>
</g>
</svg>
