<?xml version="1.0" encoding="utf-8"?>
<!-- Generator: Adobe Illustrator 16.0.0, SVG Export Plug-In . SVG Version: 6.00 Build 0)  -->
<!DOCTYPE svg PUBLIC "-//W3C//DTD SVG 1.1//EN" "http://www.w3.org/Graphics/SVG/1.1/DTD/svg11.dtd">
<svg version="1.1" id="Layer_1" xmlns="http://www.w3.org/2000/svg" xmlns:xlink="http://www.w3.org/1999/xlink" x="0px" y="0px"
	 width="48px" height="48px" viewBox="0 0 48 48" enable-background="new 0 0 48 48" xml:space="preserve">
<g>
	<path fill="none" stroke="#000000" stroke-width="2" stroke-linejoin="round" stroke-miterlimit="10" d="M2.362,2.834
		c11.59-2.888,24.367,0.2,33.428,9.261c9.144,9.144,12.204,22.066,9.182,33.738"/>
	<g>
		<g>
			<g>
				<line fill="none" stroke="#000000" stroke-width="2" stroke-linejoin="round" x1="46.025" y1="1.975" x2="12.225" y2="35.774"/>
				<g>
					<path d="M37.983,3.38c0.059,0.264,0.32,0.431,0.583,0.373l7.301-1.621l-1.619,7.302c-0.058,0.264,0.109,0.526,0.372,0.582
						c0.263,0.06,0.525-0.11,0.582-0.371l1.786-8.05c0.036-0.163-0.013-0.333-0.132-0.451c-0.116-0.118-0.288-0.168-0.452-0.131
						l-8.05,1.786c-0.093,0.021-0.174,0.067-0.239,0.131C38.002,3.043,37.946,3.21,37.983,3.38z"/>
				</g>
			</g>
		</g>
	</g>
	<g>
		<g>
			<g>
				<line fill="none" stroke="#000000" stroke-width="2" stroke-linejoin="round" x1="39.347" y1="8.653" x2="10.806" y2="37.193"/>
				<g>
					<polygon points="11.519,37.264 12.921,42.503 12.023,43.403 10.619,38.162 9.721,39.061 11.125,44.302 10.225,45.202 
						8.822,39.961 7.924,40.859 9.327,46.101 8.428,46.999 7.024,41.758 6.104,42.677 5.321,41.895 6.24,40.976 1,39.572 
						1.899,38.674 7.139,40.075 8.039,39.177 2.798,37.773 3.696,36.875 8.937,38.278 9.836,37.38 4.596,35.975 5.494,35.076 
						10.735,36.481 					"/>
				</g>
			</g>
		</g>
	</g>
	<polyline fill="none" stroke="#000000" stroke-width="2" stroke-linejoin="round" stroke-miterlimit="10" points="6.054,2.125 
		14.292,33.708 45.762,41.833 	"/>
</g>
</svg>
