<?xml version="1.0" encoding="utf-8"?>
<!-- Generator: Adobe Illustrator 16.0.0, SVG Export Plug-In . SVG Version: 6.00 Build 0)  -->
<!DOCTYPE svg PUBLIC "-//W3C//DTD SVG 1.1//EN" "http://www.w3.org/Graphics/SVG/1.1/DTD/svg11.dtd">
<svg version="1.1" id="Layer_1" xmlns="http://www.w3.org/2000/svg" xmlns:xlink="http://www.w3.org/1999/xlink" x="0px" y="0px"
	 width="48px" height="48px" viewBox="0 0 48 48" enable-background="new 0 0 48 48" xml:space="preserve">
<g>
	<g>
		<path fill="none" stroke="#000000" stroke-width="2" stroke-linejoin="round" stroke-miterlimit="10" d="M42.234,18.936
			c-4.318,3.573-10.697,2.972-14.246-1.34c-3.55-4.311-2.927-10.699,1.392-14.267c4.317-3.569,10.695-2.968,14.245,1.34
			C47.174,8.981,46.551,15.37,42.234,18.936z"/>
		<polyline fill="none" stroke="#000000" stroke-width="2" stroke-linejoin="round" stroke-miterlimit="10" points="34.91,21.163 
			6.153,39.512 2.304,34.838 25.752,10.041 		"/>
		<path fill="none" stroke="#000000" stroke-width="2" stroke-linejoin="round" stroke-miterlimit="10" d="M4.846,37.299
			c-1.476,0.443-2.625,2.662-2.756,4.058c-0.228,2.423,1.701,4.445,3.902,5.164c4.093,1.339,8.196-0.323,11.499-2.569
			c1.87-1.272,3.461-2.995,5.393-4.141c2.202-1.305,4.964-1.574,7.502-1.701c4.57-0.227,5.057,2.581,8.024,5.348
			c2.122,1.979,3.83,2.437,6.65,2.437"/>
	</g>
	
		<line fill="none" stroke="#000000" stroke-width="2" stroke-linejoin="round" stroke-miterlimit="10" x1="39.363" y1="4.839" x2="40.28" y2="5.857"/>
	
		<line fill="none" stroke="#000000" stroke-width="2" stroke-linejoin="round" stroke-miterlimit="10" x1="39.602" y1="7.898" x2="40.518" y2="8.916"/>
	
		<line fill="none" stroke="#000000" stroke-width="2" stroke-linejoin="round" stroke-miterlimit="10" x1="36.497" y1="7.898" x2="37.413" y2="8.916"/>
	
		<line fill="none" stroke="#000000" stroke-width="2" stroke-linejoin="round" stroke-miterlimit="10" x1="36.038" y1="4.839" x2="36.954" y2="5.857"/>
	
		<line fill="none" stroke="#000000" stroke-width="2" stroke-linejoin="round" stroke-miterlimit="10" x1="36.954" y1="10.898" x2="37.871" y2="11.917"/>
	
		<line fill="none" stroke="#000000" stroke-width="2" stroke-linejoin="round" stroke-miterlimit="10" x1="33.212" y1="7.898" x2="34.129" y2="8.916"/>
	
		<line fill="none" stroke="#000000" stroke-width="2" stroke-linejoin="round" stroke-miterlimit="10" x1="40.06" y1="10.898" x2="40.975" y2="11.917"/>
	
		<line fill="none" stroke="#000000" stroke-width="2" stroke-linejoin="round" stroke-miterlimit="10" x1="42.827" y1="8.916" x2="43.743" y2="9.934"/>
	
		<line fill="none" stroke="#000000" stroke-width="2" stroke-linejoin="round" stroke-miterlimit="10" x1="32.754" y1="4.577" x2="33.671" y2="5.596"/>
	
		<line fill="none" stroke="#000000" stroke-width="2" stroke-linejoin="round" stroke-miterlimit="10" x1="33.447" y1="11.407" x2="34.365" y2="12.425"/>
	
		<line fill="none" stroke="#000000" stroke-width="2" stroke-linejoin="round" stroke-miterlimit="10" x1="36.496" y1="14.116" x2="37.413" y2="15.134"/>
	
		<line fill="none" stroke="#000000" stroke-width="2" stroke-linejoin="round" stroke-miterlimit="10" x1="39.363" y1="14.625" x2="40.28" y2="15.643"/>
	
		<line fill="none" stroke="#000000" stroke-width="2" stroke-linejoin="round" stroke-miterlimit="10" x1="42.827" y1="12.594" x2="43.743" y2="13.612"/>
	
		<line fill="none" stroke="#000000" stroke-width="2" stroke-linejoin="round" stroke-miterlimit="10" x1="36.496" y1="2.062" x2="37.413" y2="3.08"/>
	
		<line fill="none" stroke="#000000" stroke-width="2" stroke-linejoin="round" stroke-miterlimit="10" x1="38.905" y1="17.715" x2="39.823" y2="18.731"/>
	
		<line fill="none" stroke="#000000" stroke-width="2" stroke-linejoin="round" stroke-miterlimit="10" x1="35.806" y1="18.731" x2="36.724" y2="19.75"/>
	
		<line fill="none" stroke="#000000" stroke-width="2" stroke-linejoin="round" stroke-miterlimit="10" x1="33.447" y1="15.643" x2="34.365" y2="16.661"/>
	
		<line fill="none" stroke="#000000" stroke-width="2" stroke-linejoin="round" stroke-miterlimit="10" x1="30.201" y1="13.606" x2="31.116" y2="14.625"/>
	
		<line fill="none" stroke="#000000" stroke-width="2" stroke-linejoin="round" stroke-miterlimit="10" x1="29.284" y1="10.116" x2="30.201" y2="11.134"/>
	
		<line fill="none" stroke="#000000" stroke-width="2" stroke-linejoin="round" stroke-miterlimit="10" x1="29.741" y1="6.239" x2="30.658" y2="7.258"/>
	
		<line fill="none" stroke="#000000" stroke-width="2" stroke-linejoin="round" stroke-miterlimit="10" x1="30.872" y1="18.222" x2="31.788" y2="19.241"/>
</g>
</svg>
