<?xml version="1.0" encoding="utf-8"?>
<!-- Generator: Adobe Illustrator 16.0.0, SVG Export Plug-In . SVG Version: 6.00 Build 0)  -->
<!DOCTYPE svg PUBLIC "-//W3C//DTD SVG 1.1//EN" "http://www.w3.org/Graphics/SVG/1.1/DTD/svg11.dtd">
<svg version="1.1" id="Layer_1" xmlns="http://www.w3.org/2000/svg" xmlns:xlink="http://www.w3.org/1999/xlink" x="0px" y="0px"
	 width="48px" height="48px" viewBox="0 0 48 48" enable-background="new 0 0 48 48" xml:space="preserve">
<g>
	<path fill="none" stroke="#000000" stroke-width="2" stroke-miterlimit="10" d="M25.131,34.884
		c2.126,0.179,4.078-0.382,5.454-1.757c3.093-3.095,2.083-9.12-2.255-13.458c-4.338-4.337-10.364-5.348-13.458-2.254
		c-1.373,1.376-1.935,3.33-1.758,5.456c-3.771-1.155-7.458-0.659-9.816,1.7c-3.964,3.964-2.672,11.683,2.887,17.242
		c5.559,5.559,13.28,6.853,17.244,2.888C25.787,42.343,26.283,38.656,25.131,34.884z"/>
	<circle fill="none" stroke="#000000" stroke-width="2" stroke-miterlimit="10" cx="14.808" cy="33.192" r="4.519"/>
	<path fill="none" stroke="#000000" stroke-width="2" stroke-miterlimit="10" d="M30.135,21.819l8.574-8.576
		c1.244,0.814,2.494,1.027,3.098,0.425c0.508-0.507,0.438-1.473-0.081-2.504c1.033,0.519,1.998,0.588,2.504,0.081
		c0.508-0.507,0.438-1.471-0.082-2.504c1.033,0.519,1.998,0.589,2.505,0.082c0.794-0.793,0.18-2.705-1.363-4.249l-1.863-1.862
		c-1.543-1.544-3.453-2.156-4.246-1.363c-0.509,0.505-0.437,1.471,0.081,2.504c-1.033-0.519-1.997-0.59-2.506-0.083
		c-0.506,0.507-0.435,1.471,0.083,2.506c-1.033-0.521-1.998-0.589-2.506-0.083c-0.603,0.603-0.391,1.853,0.424,3.096l-8.575,8.576"
		/>
</g>
</svg>
