<?xml version="1.0" encoding="utf-8"?>
<!-- Generator: Adobe Illustrator 16.0.0, SVG Export Plug-In . SVG Version: 6.00 Build 0)  -->
<!DOCTYPE svg PUBLIC "-//W3C//DTD SVG 1.1//EN" "http://www.w3.org/Graphics/SVG/1.1/DTD/svg11.dtd">
<svg version="1.1" id="Layer_1" xmlns="http://www.w3.org/2000/svg" xmlns:xlink="http://www.w3.org/1999/xlink" x="0px" y="0px"
	 width="48px" height="48px" viewBox="0 0 48 48" enable-background="new 0 0 48 48" xml:space="preserve">
<g>
	<line fill="none" stroke="#000000" stroke-width="2" stroke-miterlimit="10" x1="1" y1="18.112" x2="35.798" y2="18.112"/>
	<line fill="none" stroke="#000000" stroke-width="2" stroke-miterlimit="10" x1="13.087" y1="19.587" x2="13.087" y2="41.365"/>
	<line fill="none" stroke="#000000" stroke-width="2" stroke-miterlimit="10" x1="21.391" y1="19.587" x2="21.391" y2="41.365"/>
	<line fill="none" stroke="#000000" stroke-width="2" stroke-miterlimit="10" x1="29.695" y1="19.587" x2="29.695" y2="41.365"/>
	<line fill="none" stroke="#000000" stroke-width="2" stroke-miterlimit="10" x1="13.087" y1="11.56" x2="13.087" y2="16.173"/>
	<line fill="none" stroke="#000000" stroke-width="2" stroke-miterlimit="10" x1="21.391" y1="11.56" x2="21.391" y2="16.173"/>
	<line fill="none" stroke="#000000" stroke-width="2" stroke-miterlimit="10" x1="29.695" y1="11.56" x2="29.695" y2="16.173"/>
	<path fill="none" stroke="#000000" stroke-width="2" stroke-miterlimit="10" d="M7.367,18.112c0,0-2.954,1.103-2.954,7.381
		c0,6.275,4.061,7.934,7.752,7.934c3.69,0,19.933,0,19.933,0s6.346-1.291,6.346-9.042c0,0,0.234-6.183-6.46-6.183"/>
	<line fill="none" stroke="#000000" stroke-width="2" stroke-miterlimit="10" x1="1" y1="13.865" x2="1" y2="22.539"/>
	<path fill="none" stroke="#000000" stroke-width="2" stroke-linejoin="round" stroke-miterlimit="10" d="M36.433,15.895
		c1.189-0.086,10.521-3.322,10.521-9.26v22.363c0.528,1.498-3.445-9.411-10.521-9.411V15.895z"/>
</g>
</svg>
