<?xml version="1.0" encoding="utf-8"?>
<!-- Generator: Adobe Illustrator 16.0.0, SVG Export Plug-In . SVG Version: 6.00 Build 0)  -->
<!DOCTYPE svg PUBLIC "-//W3C//DTD SVG 1.1//EN" "http://www.w3.org/Graphics/SVG/1.1/DTD/svg11.dtd">
<svg version="1.1" id="Layer_1" xmlns="http://www.w3.org/2000/svg" xmlns:xlink="http://www.w3.org/1999/xlink" x="0px" y="0px"
	 width="48px" height="48px" viewBox="0 0 48 48" enable-background="new 0 0 48 48" xml:space="preserve">
<g>
	<circle fill="none" stroke="#000000" stroke-width="2" stroke-miterlimit="10" cx="24" cy="24" r="23"/>
	<line fill="none" stroke="#000000" stroke-width="2" stroke-miterlimit="10" x1="40.202" y1="7.999" x2="7.837" y2="40.361"/>
	<g>
		<circle fill="none" stroke="#000000" stroke-width="2" stroke-miterlimit="10" cx="35.105" cy="35.106" r="2.617"/>
		<path fill="none" stroke="#000000" stroke-width="2" stroke-miterlimit="10" d="M17.778,21.48c-1.022-1.022-1.022-2.678,0-3.7
			s2.68-1.022,3.702,0"/>
		<path fill="none" stroke="#000000" stroke-width="2" stroke-miterlimit="10" d="M33.254,33.256c1.021-1.023,2.681-1.023,3.702,0
			l-22.21-22.212l0,0c-1.022-1.022-2.68-1.022-3.702,0c-1.022,1.023-1.022,2.68,0,3.702v0.002l22.21,22.208
			C32.232,35.935,32.232,34.277,33.254,33.256z"/>
	</g>
	<path fill="none" stroke="#000000" stroke-width="2" stroke-linejoin="round" stroke-miterlimit="10" d="M39.731,31.114
		c0,0-2.775-4.08-2.01-7.981c0.448-2.276,2.269-4.081,2.748-11.289"/>
</g>
</svg>
