<?xml version="1.0" encoding="utf-8"?>
<!-- Generator: Adobe Illustrator 16.0.0, SVG Export Plug-In . SVG Version: 6.00 Build 0)  -->
<!DOCTYPE svg PUBLIC "-//W3C//DTD SVG 1.1//EN" "http://www.w3.org/Graphics/SVG/1.1/DTD/svg11.dtd">
<svg version="1.1" id="Layer_1" xmlns="http://www.w3.org/2000/svg" xmlns:xlink="http://www.w3.org/1999/xlink" x="0px" y="0px"
	 width="48px" height="48px" viewBox="0 0 48 48" enable-background="new 0 0 48 48" xml:space="preserve">
<g>
	<path fill="none" stroke="#000000" stroke-width="2" stroke-miterlimit="10" d="M19.863,14.767L3.63,31.001
		c-3.504,3.504-3.504,9.239,0,12.743l0.626,0.627c3.505,3.506,9.24,3.506,12.744,0L44.371,17c3.504-3.504,3.504-9.239,0-12.743
		l-0.627-0.629c-0.262-0.26-0.534-0.5-0.816-0.725c-3.526-2.761-8.683-2.519-11.927,0.725l-7.384,7.384l-1.703,1.701l9.262,9.263
		l8.62-8.617c0,0-5.229-3.418-2.225-7.792c0,0,2.418-3.264,5.603-2.379"/>
	<circle fill="none" stroke="#000000" stroke-width="2" stroke-miterlimit="10" cx="10.656" cy="37.347" r="9.492"/>
</g>
</svg>
