<?xml version="1.0" encoding="utf-8"?>
<!-- Generator: Adobe Illustrator 16.0.0, SVG Export Plug-In . SVG Version: 6.00 Build 0)  -->
<!DOCTYPE svg PUBLIC "-//W3C//DTD SVG 1.1//EN" "http://www.w3.org/Graphics/SVG/1.1/DTD/svg11.dtd">
<svg version="1.1" id="Layer_1" xmlns="http://www.w3.org/2000/svg" xmlns:xlink="http://www.w3.org/1999/xlink" x="0px" y="0px"
	 width="48px" height="48px" viewBox="0 0 48 48" enable-background="new 0 0 48 48" xml:space="preserve">
<g>
	<path fill="none" stroke="#000000" stroke-width="2" stroke-miterlimit="10" d="M33.594,35.93c-1.215,1.854-3.075,3.31-5.37,3.992
		L13.345,44.36c-5.091,1.52-10.474-1.316-11.96-6.299S2.849,27.76,7.941,26.239l14.877-4.438c4.454-1.329,9.134,0.676,11.229,4.538"
		/>
	<path fill="none" stroke="#000000" stroke-width="2" stroke-miterlimit="10" d="M20.577,19.475l9.356-12.373
		c3.203-4.236,9.219-5.138,13.369-2.003c4.149,3.133,4.925,9.163,1.722,13.396L35.668,30.87c-3.204,4.236-9.219,5.139-13.368,2.005
		c-1.945-1.468-3.148-3.569-3.548-5.825"/>
</g>
</svg>
