<?xml version="1.0" encoding="utf-8"?>
<!-- Generator: Adobe Illustrator 16.0.0, SVG Export Plug-In . SVG Version: 6.00 Build 0)  -->
<!DOCTYPE svg PUBLIC "-//W3C//DTD SVG 1.1//EN" "http://www.w3.org/Graphics/SVG/1.1/DTD/svg11.dtd">
<svg version="1.1" id="Layer_1" xmlns="http://www.w3.org/2000/svg" xmlns:xlink="http://www.w3.org/1999/xlink" x="0px" y="0px"
	 width="48px" height="48px" viewBox="0 0 48 48" enable-background="new 0 0 48 48" xml:space="preserve">
<g>
	<line fill="none" stroke="#000000" stroke-width="2" stroke-miterlimit="10" x1="1" y1="1" x2="1" y2="47"/>
	<line fill="none" stroke="#000000" stroke-width="2" stroke-miterlimit="10" x1="5.342" y1="1" x2="5.342" y2="34.025"/>
	<line fill="none" stroke="#000000" stroke-width="3" stroke-miterlimit="10" x1="11.368" y1="1" x2="11.368" y2="34.025"/>
	<line fill="none" stroke="#000000" stroke-width="2" stroke-miterlimit="10" x1="17.393" y1="1" x2="17.393" y2="34.025"/>
	<line fill="none" stroke="#000000" stroke-width="4" stroke-miterlimit="10" x1="23.314" y1="1" x2="23.314" y2="34.025"/>
	<line fill="none" stroke="#000000" stroke-width="2" stroke-miterlimit="10" x1="30.676" y1="1" x2="30.676" y2="34.025"/>
	<line fill="none" stroke="#000000" stroke-width="4" stroke-miterlimit="10" x1="36.701" y1="1" x2="36.701" y2="34.025"/>
	<line fill="none" stroke="#000000" stroke-width="2" stroke-miterlimit="10" x1="42.726" y1="1" x2="42.726" y2="34.025"/>
	<line fill="none" stroke="#000000" stroke-width="2" stroke-miterlimit="10" x1="47" y1="1" x2="47" y2="47"/>
	<g>
		<path d="M7.812,44.752c-0.903,0-1.578-0.305-2.027-0.919c-0.448-0.614-0.673-1.434-0.673-2.458c0-1.025,0.225-1.844,0.673-2.457
			c0.449-0.614,1.124-0.921,2.027-0.921c0.904,0,1.58,0.307,2.028,0.921c0.448,0.613,0.673,1.432,0.673,2.457
			c0,1.024-0.225,1.844-0.673,2.458S8.716,44.752,7.812,44.752z M6.85,39.801c-0.206,0.399-0.309,0.925-0.309,1.58
			c0,0.653,0.103,1.18,0.309,1.578s0.527,0.599,0.962,0.599c0.437,0,0.758-0.2,0.963-0.599c0.205-0.398,0.308-0.925,0.308-1.578
			c0-0.655-0.103-1.181-0.308-1.58c-0.205-0.398-0.527-0.599-0.963-0.599C7.377,39.202,7.056,39.402,6.85,39.801z"/>
		<path d="M15.194,44.752c-0.904,0-1.579-0.305-2.027-0.919c-0.449-0.614-0.674-1.434-0.674-2.458c0-1.025,0.225-1.844,0.674-2.457
			c0.448-0.614,1.123-0.921,2.027-0.921c0.903,0,1.58,0.307,2.027,0.921c0.449,0.613,0.674,1.432,0.674,2.457
			c0,1.024-0.225,1.844-0.674,2.458C16.774,44.447,16.098,44.752,15.194,44.752z M14.232,39.801
			c-0.206,0.399-0.309,0.925-0.309,1.58c0,0.653,0.103,1.18,0.309,1.578c0.206,0.398,0.526,0.599,0.962,0.599s0.757-0.2,0.962-0.599
			c0.206-0.398,0.309-0.925,0.309-1.578c0-0.655-0.103-1.181-0.309-1.58c-0.205-0.398-0.526-0.599-0.962-0.599
			S14.438,39.402,14.232,39.801z"/>
		<path d="M19.642,38.146h2.645v6.532h-1.402V39.39h-1.243V38.146z"/>
		<path d="M27.336,40.692c0.165-0.232,0.247-0.459,0.247-0.676c0-0.219-0.07-0.4-0.214-0.547c-0.144-0.146-0.326-0.221-0.551-0.221
			c-0.412,0-0.802,0.294-1.168,0.88l-1.168-0.692c0.305-0.472,0.64-0.831,1.004-1.074c0.364-0.244,0.828-0.365,1.393-0.365
			c0.563,0,1.059,0.18,1.485,0.537c0.427,0.359,0.64,0.846,0.64,1.464c0,0.335-0.086,0.658-0.256,0.966
			c-0.173,0.309-0.488,0.703-0.949,1.183l-1.178,1.225H29.2v1.308h-4.605v-1.083l1.914-1.964
			C26.896,41.24,27.172,40.926,27.336,40.692z"/>
		<path d="M31.34,39.39v-1.243h3.999v1.011l-1.335,1.521c0.522,0.089,0.927,0.308,1.215,0.659c0.286,0.352,0.428,0.758,0.428,1.221
			c0,0.685-0.231,1.222-0.695,1.609c-0.464,0.392-1.057,0.584-1.779,0.584s-1.456-0.255-2.197-0.766l0.6-1.156
			c0.616,0.434,1.168,0.653,1.653,0.653c0.293,0,0.534-0.073,0.724-0.216c0.19-0.144,0.285-0.35,0.285-0.621
			s-0.109-0.486-0.326-0.646c-0.219-0.157-0.521-0.238-0.907-0.238c-0.205,0-0.495,0.06-0.868,0.178v-1.074l1.251-1.477H31.34z"/>
		<path d="M40.058,41.856v-1.14h1.401v1.14h0.739v1.262h-0.739v1.561h-1.401v-1.561h-2.626v-1.112l2.326-3.859h1.589l-2.215,3.71
			H40.058z"/>
	</g>
</g>
</svg>
