<?xml version="1.0" encoding="utf-8"?>
<!-- Generator: Adobe Illustrator 16.0.0, SVG Export Plug-In . SVG Version: 6.00 Build 0)  -->
<!DOCTYPE svg PUBLIC "-//W3C//DTD SVG 1.1//EN" "http://www.w3.org/Graphics/SVG/1.1/DTD/svg11.dtd">
<svg version="1.1" id="Layer_1" xmlns="http://www.w3.org/2000/svg" xmlns:xlink="http://www.w3.org/1999/xlink" x="0px" y="0px"
	 width="48px" height="48px" viewBox="0 0 48 48" enable-background="new 0 0 48 48" xml:space="preserve">
<g>
	<path fill="none" stroke="#000000" stroke-width="2" stroke-miterlimit="10" d="M40.201,40.099H22.896V14.471h15.988
		c2.683,0,4.876-2.193,4.876-4.874V5.874C43.761,3.195,41.567,1,38.885,1H6.906c-2.68,0-4.874,2.195-4.874,4.874v3.723
		c0,2.628,2.113,4.775,4.723,4.857V40.11c-2.609,0.06-4.723,1.577-4.723,3.44C2.032,45.448,4.226,47,6.906,47h33.295
		c2.68,0,4.874-1.552,4.874-3.449C45.075,41.652,42.881,40.099,40.201,40.099z"/>
	<ellipse fill="none" stroke="#000000" stroke-width="2" stroke-miterlimit="10" cx="14.771" cy="35.719" rx="3.382" ry="5.836"/>
	<path fill="none" stroke="#000000" stroke-width="2" stroke-miterlimit="10" d="M25.786,20.625v12.917
		c0,3.575,2.926,6.499,6.501,6.499h7.18c3.575,0,6.501-2.924,6.501-6.499V20.625H25.786z"/>
	<line fill="none" stroke="#000000" stroke-width="2" stroke-miterlimit="10" x1="35.877" y1="14.471" x2="35.877" y2="20.625"/>
</g>
</svg>
