<?xml version="1.0" encoding="utf-8"?>
<!-- Generator: Adobe Illustrator 16.0.0, SVG Export Plug-In . SVG Version: 6.00 Build 0)  -->
<!DOCTYPE svg PUBLIC "-//W3C//DTD SVG 1.1//EN" "http://www.w3.org/Graphics/SVG/1.1/DTD/svg11.dtd">
<svg version="1.1" id="Layer_1" xmlns="http://www.w3.org/2000/svg" xmlns:xlink="http://www.w3.org/1999/xlink" x="0px" y="0px"
	 width="48px" height="48px" viewBox="0 0 48 48" enable-background="new 0 0 48 48" xml:space="preserve">
<g>
	<rect x="20.053" y="19.517" fill="none" stroke="#000000" stroke-width="2" stroke-miterlimit="10" width="8.78" height="27.483"/>
	<polygon fill="none" stroke="#000000" stroke-width="2" stroke-miterlimit="10" points="24.442,10.477 16.381,19.517 
		32.505,19.517 	"/>
	<polygon fill="none" stroke="#000000" stroke-width="2" stroke-miterlimit="10" points="12.11,24.784 12.11,29.713 9.436,29.713 
		9.436,24.784 6.761,24.784 6.761,29.713 4.087,29.713 4.087,24.784 1,24.784 1,47 15.396,47 15.396,24.784 	"/>
	<polygon fill="none" stroke="#000000" stroke-width="2" stroke-miterlimit="10" points="43.715,24.784 43.715,29.713 41.04,29.713 
		41.04,24.784 38.365,24.784 38.365,29.713 35.691,29.713 35.691,24.784 32.605,24.784 32.605,47 47,47 47,24.784 	"/>
	<polyline fill="none" stroke="#000000" stroke-width="2" stroke-miterlimit="10" points="24.442,11.107 24.442,3.044 24.442,1 	"/>
	<polyline fill="none" stroke="#000000" stroke-width="2" stroke-miterlimit="10" points="24.606,7.588 31.798,6.331 24.606,3.272 	
		"/>
</g>
</svg>
