<?xml version="1.0" encoding="utf-8"?>
<!-- Generator: Adobe Illustrator 16.0.0, SVG Export Plug-In . SVG Version: 6.00 Build 0)  -->
<!DOCTYPE svg PUBLIC "-//W3C//DTD SVG 1.1//EN" "http://www.w3.org/Graphics/SVG/1.1/DTD/svg11.dtd">
<svg version="1.1" id="Layer_1" xmlns="http://www.w3.org/2000/svg" xmlns:xlink="http://www.w3.org/1999/xlink" x="0px" y="0px"
	 width="48px" height="48px" viewBox="0 0 48 48" enable-background="new 0 0 48 48" xml:space="preserve">
<g>
	<g>
		
			<rect x="1" y="1" fill="none" stroke="#000000" stroke-width="2" stroke-linejoin="round" stroke-miterlimit="10" width="32.562" height="32.064"/>
		<polyline fill="none" stroke="#000000" stroke-width="2" stroke-linejoin="round" stroke-miterlimit="10" points="33.562,5.575 
			38.151,5.575 38.151,37.64 5.589,37.64 5.589,33.063 		"/>
		<polyline fill="none" stroke="#000000" stroke-width="2" stroke-linejoin="round" stroke-miterlimit="10" points="37.986,10.256 
			42.576,10.256 42.576,42.32 10.013,42.32 10.013,37.744 		"/>
		<polyline fill="none" stroke="#000000" stroke-width="2" stroke-linejoin="round" stroke-miterlimit="10" points="42.41,14.935 
			47,14.935 47,47 14.438,47 14.438,42.424 		"/>
	</g>
	<path fill="none" stroke="#000000" stroke-width="2" stroke-linejoin="round" stroke-miterlimit="10" d="M17.281,22.338
		c0,1.518-2.291,2.748-5.117,2.748c-2.825,0-5.116-1.23-5.116-2.748c0-1.516,2.291-2.746,5.116-2.746
		c2.354,0,4.338,0.854,4.934,2.014C17.218,21.84,17.281,22.085,17.281,22.338z"/>
	<path fill="none" stroke="#000000" stroke-width="2" stroke-linejoin="round" stroke-miterlimit="10" d="M17.281,22.338V8.603
		c0,0,5.551,2.761,9.582,0.624"/>
</g>
</svg>
