<?xml version="1.0" encoding="utf-8"?>
<!-- Generator: Adobe Illustrator 16.0.0, SVG Export Plug-In . SVG Version: 6.00 Build 0)  -->
<!DOCTYPE svg PUBLIC "-//W3C//DTD SVG 1.1//EN" "http://www.w3.org/Graphics/SVG/1.1/DTD/svg11.dtd">
<svg version="1.1" id="Layer_1" xmlns="http://www.w3.org/2000/svg" xmlns:xlink="http://www.w3.org/1999/xlink" x="0px" y="0px"
	 width="48px" height="48px" viewBox="0 0 48 48" enable-background="new 0 0 48 48" xml:space="preserve">
<g>
	<polyline fill="none" stroke="#000000" stroke-width="2" stroke-linejoin="round" stroke-miterlimit="10" points="19.246,20.285 
		1,20.285 1,13.425 47,13.425 47,20.285 28.837,20.285 	"/>
	<polyline fill="none" stroke="#000000" stroke-width="2" stroke-linejoin="round" stroke-miterlimit="10" points="28.837,20.285 
		44.835,20.285 44.835,47 3.165,47 3.165,20.285 19.246,20.285 	"/>
	
		<rect x="18.885" y="13.425" fill="none" stroke="#000000" stroke-width="2" stroke-linejoin="round" stroke-miterlimit="10" width="10.232" height="33.575"/>
	<path fill="none" stroke="#000000" stroke-width="2" stroke-linejoin="round" stroke-miterlimit="10" d="M22.49,13.299
		c-2.939-0.771-7.183-2.727-7.563-6.083c-0.269-2.358,1.029-5.379,3.409-6.014c6.504-1.731,6.166,8.146,4.441,11.83
		C23.53,8.203,27.83,1.749,33.688,2.488c2.785,0.352,3.757,4.63,2.312,6.83c-1.455,2.214-4.131,2.984-6.563,3.469
		c-1.748,0.35-4.698,1.153-6.432,0.513"/>
</g>
</svg>
