<?xml version="1.0" encoding="utf-8"?>
<!-- Generator: Adobe Illustrator 16.0.0, SVG Export Plug-In . SVG Version: 6.00 Build 0)  -->
<!DOCTYPE svg PUBLIC "-//W3C//DTD SVG 1.1//EN" "http://www.w3.org/Graphics/SVG/1.1/DTD/svg11.dtd">
<svg version="1.1" id="Layer_1" xmlns="http://www.w3.org/2000/svg" xmlns:xlink="http://www.w3.org/1999/xlink" x="0px" y="0px"
	 width="48px" height="48px" viewBox="0 0 48 48" enable-background="new 0 0 48 48" xml:space="preserve">
<g>
	<path fill="none" stroke="#000000" stroke-width="2" stroke-linejoin="round" stroke-miterlimit="10" d="M47,6.329
		c0,0-9.248,5.89-23-5.329l0,0l0,0l0,0l0,0C10.25,12.219,1,6.329,1,6.329c2.411,2.242,3.569,9.817,2.374,12.34
		c-1.194,2.523-5.679,13.746,2.092,17.671C13.235,40.266,23.991,46.994,24,47l0,0l0,0l0,0l0,0
		c0.011-0.006,10.767-6.734,18.534-10.659c7.773-3.926,3.288-15.148,2.095-17.671C43.433,16.146,44.589,8.571,47,6.329z"/>
	<polygon fill="none" stroke="#000000" stroke-width="2" stroke-linejoin="round" stroke-miterlimit="10" points="24,28.682 
		32.537,35.59 28.604,25.336 37.813,19.353 26.846,19.923 24,9.318 21.155,19.923 10.188,19.353 19.397,25.336 15.464,35.59 	"/>
</g>
</svg>
