<?xml version="1.0" encoding="utf-8"?>
<!-- Generator: Adobe Illustrator 16.0.0, SVG Export Plug-In . SVG Version: 6.00 Build 0)  -->
<!DOCTYPE svg PUBLIC "-//W3C//DTD SVG 1.1//EN" "http://www.w3.org/Graphics/SVG/1.1/DTD/svg11.dtd">
<svg version="1.1" id="Layer_1" xmlns="http://www.w3.org/2000/svg" xmlns:xlink="http://www.w3.org/1999/xlink" x="0px" y="0px"
	 width="48px" height="48px" viewBox="0 0 48 48" enable-background="new 0 0 48 48" xml:space="preserve">
<g>
	
		<circle fill="none" stroke="#000000" stroke-width="2" stroke-linejoin="round" stroke-miterlimit="10" cx="9.822" cy="16.515" r="1.833"/>
	<path fill="none" stroke="#000000" stroke-width="2" stroke-linejoin="round" stroke-miterlimit="10" d="M41.312,15.654
		c-3.014-4.775-9.621-8.093-17.292-8.093c-4.181,0-8.046,0.988-11.188,2.658c-1.247-1.604-3.495-4.129-6.008-5.194
		c0,0,1.121,4.335,1.047,5.733c0,0-2.168,1.836-2.47,3.232c-0.298,1.396-1.789,4.41-4.038,4.264c0,0-1.127,3.526,0.595,6.171
		c1.721,2.646,6.275,5.224,8.066,6.473c0.001,0.002,0.003,0.002,0.003,0.002c0.713,0.562,1.492,1.082,2.321,1.552l0.418,10.524
		h6.438l0.258-8.004c1.462,0.263,2.984,0.406,4.557,0.406c2.987,0,5.812-0.503,8.329-1.399v8.997h6.212V30.44
		c2.804-2.422,4.495-5.552,4.495-8.971c0-0.865-0.112-1.71-0.32-2.53C46.261,19.914,47,18.963,47,18.963L41.312,15.654z"/>
</g>
</svg>
