<?xml version="1.0" encoding="utf-8"?>
<!-- Generator: Adobe Illustrator 16.0.0, SVG Export Plug-In . SVG Version: 6.00 Build 0)  -->
<!DOCTYPE svg PUBLIC "-//W3C//DTD SVG 1.1//EN" "http://www.w3.org/Graphics/SVG/1.1/DTD/svg11.dtd">
<svg version="1.1" id="Layer_1" xmlns="http://www.w3.org/2000/svg" xmlns:xlink="http://www.w3.org/1999/xlink" x="0px" y="0px"
	 width="48px" height="48px" viewBox="0 0 48 48" enable-background="new 0 0 48 48" xml:space="preserve">
<g>
	<path fill="none" stroke="#000000" stroke-width="2" stroke-linejoin="round" stroke-miterlimit="10" d="M11.255,26.375
		C5.615,26.375,1,21.808,1,16.227v-5.07C1,5.574,5.615,1.007,11.255,1.007h19.92c5.64,0,10.255,4.567,10.255,10.149v5.07
		c0,5.582-4.615,10.148-10.255,10.148h-5.453"/>
	<g>
		<g>
			<path fill="none" stroke="#000000" stroke-width="2" stroke-linejoin="round" d="M27.582,46.882
				c0.482,0.038,0.961,0.067,1.435,0.088"/>
			<path fill="none" stroke="#000000" stroke-width="2" stroke-linejoin="round" stroke-dasharray="3.92,3.92" d="M31.834,46.992
				c5.7-0.157,10.33-1.512,12.017-2.92c7.828-6.532-0.058-18.786-11.376-11.49c-3.304,2.128-6.499,5.636-10.911,4.721
				c-1.658-0.345-3.004-1.035-3.997-3.115c-0.5-1.048-0.607-2.465-0.286-3.943"/>
			<path fill="none" stroke="#000000" stroke-width="2" stroke-linejoin="round" d="M17.694,28.893
				c0.172-0.436,0.383-0.87,0.632-1.295"/>
		</g>
	</g>
	<polygon fill="none" stroke="#000000" stroke-width="2" stroke-miterlimit="10" points="20.043,21.593 14.521,24.823 
		23.274,27.114 	"/>
	<g>
		<line fill="none" stroke="#000000" stroke-width="2" stroke-miterlimit="10" x1="26.793" y1="6.761" x2="15.638" y2="17.917"/>
		<line fill="none" stroke="#000000" stroke-width="2" stroke-miterlimit="10" x1="26.793" y1="17.917" x2="15.638" y2="6.761"/>
	</g>
</g>
</svg>
