<?xml version="1.0" encoding="utf-8"?>
<!-- Generator: Adobe Illustrator 16.0.0, SVG Export Plug-In . SVG Version: 6.00 Build 0)  -->
<!DOCTYPE svg PUBLIC "-//W3C//DTD SVG 1.1//EN" "http://www.w3.org/Graphics/SVG/1.1/DTD/svg11.dtd">
<svg version="1.1" id="Layer_1" xmlns="http://www.w3.org/2000/svg" xmlns:xlink="http://www.w3.org/1999/xlink" x="0px" y="0px"
	 width="48px" height="48px" viewBox="0 0 48 48" enable-background="new 0 0 48 48" xml:space="preserve">
<g>
	<g>
		<path fill="none" stroke="#000000" stroke-width="2" stroke-miterlimit="10" d="M14.829,20.17
			c-1.675-2.475-5.071-3.129-7.546-1.454l-1.166,0.788c-2.476,1.675-3.13,5.07-1.456,7.545l10.701,13.042l7.594-5.138L14.829,20.17z
			"/>
		<path fill="none" stroke="#000000" stroke-width="2" stroke-miterlimit="10" d="M17.128,42.849l1.583,2.34
			c1.274,1.883,3.856,2.379,5.738,1.105l0.886-0.599c1.882-1.274,2.381-3.857,1.106-5.739l-1.583-2.339L17.128,42.849z"/>
	</g>
	<g>
		<path fill="none" stroke="#000000" stroke-width="2" stroke-miterlimit="10" d="M44.267,19.373c0-2.987-2.446-5.434-5.435-5.434
			h-1.407c-2.988,0-5.434,2.446-5.434,5.434l1.553,16.799h9.17L44.267,19.373z"/>
		<path fill="none" stroke="#000000" stroke-width="2" stroke-miterlimit="10" d="M33.462,39.443v2.826
			c0,2.271,1.859,4.132,4.132,4.132h1.069c2.272,0,4.132-1.861,4.132-4.132v-2.826H33.462z"/>
	</g>
	<g>
		<polygon fill="none" stroke="#000000" stroke-width="2" stroke-miterlimit="10" points="35.819,10.698 37.741,4.061 29.183,8.773 
					"/>
		<path fill="none" stroke="#000000" stroke-width="2" stroke-miterlimit="10" stroke-dasharray="4" d="M9.333,14.791
			C8.45,5.073,22.138-4.349,32.497,4.583"/>
	</g>
</g>
</svg>
